G04 (created by PCBNEW (2012-01-19 BZR 3256)-stable) date 12/03/2013 15:27:44*
G01*
G70*
G90*
%MOIN*%
G04 Gerber Fmt 3.4, Leading zero omitted, Abs format*
%FSLAX34Y34*%
G04 APERTURE LIST*
%ADD10C,0.001000*%
%ADD11C,0.015000*%
%ADD12C,0.008000*%
G04 APERTURE END LIST*
G54D10*
G54D11*
X70000Y-46500D02*
X70000Y-21500D01*
X59500Y-52500D02*
X39000Y-52500D01*
X59500Y-46500D02*
X59500Y-52500D01*
X59500Y-46500D02*
X70000Y-46500D01*
X21500Y-52500D02*
X39000Y-52500D01*
X20000Y-51000D02*
X21500Y-52500D01*
X20000Y-21500D02*
X20000Y-51000D01*
X21500Y-20000D02*
X20000Y-21500D01*
X39000Y-20000D02*
X21500Y-20000D01*
X68500Y-20000D02*
X70000Y-21500D01*
X39000Y-20000D02*
X68500Y-20000D01*
G54D10*
X26382Y-37382D02*
X26618Y-37618D01*
X26618Y-37382D02*
X26382Y-37618D01*
X26382Y-40382D02*
X26618Y-40618D01*
X26618Y-40382D02*
X26382Y-40618D01*
X29882Y-46382D02*
X30118Y-46618D01*
X30118Y-46382D02*
X29882Y-46618D01*
X30882Y-46382D02*
X31118Y-46618D01*
X31118Y-46382D02*
X30882Y-46618D01*
X35132Y-46132D02*
X35368Y-46368D01*
X35368Y-46132D02*
X35132Y-46368D01*
X36632Y-47132D02*
X36868Y-47368D01*
X36868Y-47132D02*
X36632Y-47368D01*
X38132Y-46132D02*
X38368Y-46368D01*
X38368Y-46132D02*
X38132Y-46368D01*
X39632Y-47132D02*
X39868Y-47368D01*
X39868Y-47132D02*
X39632Y-47368D01*
X43132Y-48382D02*
X43368Y-48618D01*
X43368Y-48382D02*
X43132Y-48618D01*
X44132Y-48382D02*
X44368Y-48618D01*
X44368Y-48382D02*
X44132Y-48618D01*
X35370Y-49000D02*
X35367Y-49023D01*
X35360Y-49045D01*
X35349Y-49066D01*
X35335Y-49084D01*
X35317Y-49099D01*
X35296Y-49110D01*
X35274Y-49117D01*
X35250Y-49119D01*
X35228Y-49117D01*
X35206Y-49111D01*
X35185Y-49100D01*
X35167Y-49085D01*
X35151Y-49067D01*
X35140Y-49047D01*
X35133Y-49024D01*
X35131Y-49001D01*
X35132Y-48979D01*
X35139Y-48956D01*
X35150Y-48935D01*
X35164Y-48917D01*
X35182Y-48902D01*
X35202Y-48891D01*
X35225Y-48883D01*
X35248Y-48881D01*
X35270Y-48882D01*
X35293Y-48889D01*
X35314Y-48899D01*
X35332Y-48914D01*
X35348Y-48931D01*
X35359Y-48952D01*
X35367Y-48974D01*
X35369Y-48997D01*
X35370Y-49000D01*
X35370Y-51000D02*
X35367Y-51023D01*
X35360Y-51045D01*
X35349Y-51066D01*
X35335Y-51084D01*
X35317Y-51099D01*
X35296Y-51110D01*
X35274Y-51117D01*
X35250Y-51119D01*
X35228Y-51117D01*
X35206Y-51111D01*
X35185Y-51100D01*
X35167Y-51085D01*
X35151Y-51067D01*
X35140Y-51047D01*
X35133Y-51024D01*
X35131Y-51001D01*
X35132Y-50979D01*
X35139Y-50956D01*
X35150Y-50935D01*
X35164Y-50917D01*
X35182Y-50902D01*
X35202Y-50891D01*
X35225Y-50883D01*
X35248Y-50881D01*
X35270Y-50882D01*
X35293Y-50889D01*
X35314Y-50899D01*
X35332Y-50914D01*
X35348Y-50931D01*
X35359Y-50952D01*
X35367Y-50974D01*
X35369Y-50997D01*
X35370Y-51000D01*
X38120Y-49000D02*
X38117Y-49023D01*
X38110Y-49045D01*
X38099Y-49066D01*
X38085Y-49084D01*
X38067Y-49099D01*
X38046Y-49110D01*
X38024Y-49117D01*
X38000Y-49119D01*
X37978Y-49117D01*
X37956Y-49111D01*
X37935Y-49100D01*
X37917Y-49085D01*
X37901Y-49067D01*
X37890Y-49047D01*
X37883Y-49024D01*
X37881Y-49001D01*
X37882Y-48979D01*
X37889Y-48956D01*
X37900Y-48935D01*
X37914Y-48917D01*
X37932Y-48902D01*
X37952Y-48891D01*
X37975Y-48883D01*
X37998Y-48881D01*
X38020Y-48882D01*
X38043Y-48889D01*
X38064Y-48899D01*
X38082Y-48914D01*
X38098Y-48931D01*
X38109Y-48952D01*
X38117Y-48974D01*
X38119Y-48997D01*
X38120Y-49000D01*
X38120Y-51000D02*
X38117Y-51023D01*
X38110Y-51045D01*
X38099Y-51066D01*
X38085Y-51084D01*
X38067Y-51099D01*
X38046Y-51110D01*
X38024Y-51117D01*
X38000Y-51119D01*
X37978Y-51117D01*
X37956Y-51111D01*
X37935Y-51100D01*
X37917Y-51085D01*
X37901Y-51067D01*
X37890Y-51047D01*
X37883Y-51024D01*
X37881Y-51001D01*
X37882Y-50979D01*
X37889Y-50956D01*
X37900Y-50935D01*
X37914Y-50917D01*
X37932Y-50902D01*
X37952Y-50891D01*
X37975Y-50883D01*
X37998Y-50881D01*
X38020Y-50882D01*
X38043Y-50889D01*
X38064Y-50899D01*
X38082Y-50914D01*
X38098Y-50931D01*
X38109Y-50952D01*
X38117Y-50974D01*
X38119Y-50997D01*
X38120Y-51000D01*
X38620Y-28500D02*
X38617Y-28523D01*
X38610Y-28545D01*
X38599Y-28566D01*
X38585Y-28584D01*
X38567Y-28599D01*
X38546Y-28610D01*
X38524Y-28617D01*
X38500Y-28619D01*
X38478Y-28617D01*
X38456Y-28611D01*
X38435Y-28600D01*
X38417Y-28585D01*
X38401Y-28567D01*
X38390Y-28547D01*
X38383Y-28524D01*
X38381Y-28501D01*
X38382Y-28479D01*
X38389Y-28456D01*
X38400Y-28435D01*
X38414Y-28417D01*
X38432Y-28402D01*
X38452Y-28391D01*
X38475Y-28383D01*
X38498Y-28381D01*
X38520Y-28382D01*
X38543Y-28389D01*
X38564Y-28399D01*
X38582Y-28414D01*
X38598Y-28431D01*
X38609Y-28452D01*
X38617Y-28474D01*
X38619Y-28497D01*
X38620Y-28500D01*
X38620Y-30500D02*
X38617Y-30523D01*
X38610Y-30545D01*
X38599Y-30566D01*
X38585Y-30584D01*
X38567Y-30599D01*
X38546Y-30610D01*
X38524Y-30617D01*
X38500Y-30619D01*
X38478Y-30617D01*
X38456Y-30611D01*
X38435Y-30600D01*
X38417Y-30585D01*
X38401Y-30567D01*
X38390Y-30547D01*
X38383Y-30524D01*
X38381Y-30501D01*
X38382Y-30479D01*
X38389Y-30456D01*
X38400Y-30435D01*
X38414Y-30417D01*
X38432Y-30402D01*
X38452Y-30391D01*
X38475Y-30383D01*
X38498Y-30381D01*
X38520Y-30382D01*
X38543Y-30389D01*
X38564Y-30399D01*
X38582Y-30414D01*
X38598Y-30431D01*
X38609Y-30452D01*
X38617Y-30474D01*
X38619Y-30497D01*
X38620Y-30500D01*
X38620Y-35500D02*
X38617Y-35523D01*
X38610Y-35545D01*
X38599Y-35566D01*
X38585Y-35584D01*
X38567Y-35599D01*
X38546Y-35610D01*
X38524Y-35617D01*
X38500Y-35619D01*
X38478Y-35617D01*
X38456Y-35611D01*
X38435Y-35600D01*
X38417Y-35585D01*
X38401Y-35567D01*
X38390Y-35547D01*
X38383Y-35524D01*
X38381Y-35501D01*
X38382Y-35479D01*
X38389Y-35456D01*
X38400Y-35435D01*
X38414Y-35417D01*
X38432Y-35402D01*
X38452Y-35391D01*
X38475Y-35383D01*
X38498Y-35381D01*
X38520Y-35382D01*
X38543Y-35389D01*
X38564Y-35399D01*
X38582Y-35414D01*
X38598Y-35431D01*
X38609Y-35452D01*
X38617Y-35474D01*
X38619Y-35497D01*
X38620Y-35500D01*
X38620Y-37500D02*
X38617Y-37523D01*
X38610Y-37545D01*
X38599Y-37566D01*
X38585Y-37584D01*
X38567Y-37599D01*
X38546Y-37610D01*
X38524Y-37617D01*
X38500Y-37619D01*
X38478Y-37617D01*
X38456Y-37611D01*
X38435Y-37600D01*
X38417Y-37585D01*
X38401Y-37567D01*
X38390Y-37547D01*
X38383Y-37524D01*
X38381Y-37501D01*
X38382Y-37479D01*
X38389Y-37456D01*
X38400Y-37435D01*
X38414Y-37417D01*
X38432Y-37402D01*
X38452Y-37391D01*
X38475Y-37383D01*
X38498Y-37381D01*
X38520Y-37382D01*
X38543Y-37389D01*
X38564Y-37399D01*
X38582Y-37414D01*
X38598Y-37431D01*
X38609Y-37452D01*
X38617Y-37474D01*
X38619Y-37497D01*
X38620Y-37500D01*
X38620Y-42500D02*
X38617Y-42523D01*
X38610Y-42545D01*
X38599Y-42566D01*
X38585Y-42584D01*
X38567Y-42599D01*
X38546Y-42610D01*
X38524Y-42617D01*
X38500Y-42619D01*
X38478Y-42617D01*
X38456Y-42611D01*
X38435Y-42600D01*
X38417Y-42585D01*
X38401Y-42567D01*
X38390Y-42547D01*
X38383Y-42524D01*
X38381Y-42501D01*
X38382Y-42479D01*
X38389Y-42456D01*
X38400Y-42435D01*
X38414Y-42417D01*
X38432Y-42402D01*
X38452Y-42391D01*
X38475Y-42383D01*
X38498Y-42381D01*
X38520Y-42382D01*
X38543Y-42389D01*
X38564Y-42399D01*
X38582Y-42414D01*
X38598Y-42431D01*
X38609Y-42452D01*
X38617Y-42474D01*
X38619Y-42497D01*
X38620Y-42500D01*
X38620Y-44500D02*
X38617Y-44523D01*
X38610Y-44545D01*
X38599Y-44566D01*
X38585Y-44584D01*
X38567Y-44599D01*
X38546Y-44610D01*
X38524Y-44617D01*
X38500Y-44619D01*
X38478Y-44617D01*
X38456Y-44611D01*
X38435Y-44600D01*
X38417Y-44585D01*
X38401Y-44567D01*
X38390Y-44547D01*
X38383Y-44524D01*
X38381Y-44501D01*
X38382Y-44479D01*
X38389Y-44456D01*
X38400Y-44435D01*
X38414Y-44417D01*
X38432Y-44402D01*
X38452Y-44391D01*
X38475Y-44383D01*
X38498Y-44381D01*
X38520Y-44382D01*
X38543Y-44389D01*
X38564Y-44399D01*
X38582Y-44414D01*
X38598Y-44431D01*
X38609Y-44452D01*
X38617Y-44474D01*
X38619Y-44497D01*
X38620Y-44500D01*
X40120Y-29000D02*
X40117Y-29023D01*
X40110Y-29045D01*
X40099Y-29066D01*
X40085Y-29084D01*
X40067Y-29099D01*
X40046Y-29110D01*
X40024Y-29117D01*
X40000Y-29119D01*
X39978Y-29117D01*
X39956Y-29111D01*
X39935Y-29100D01*
X39917Y-29085D01*
X39901Y-29067D01*
X39890Y-29047D01*
X39883Y-29024D01*
X39881Y-29001D01*
X39882Y-28979D01*
X39889Y-28956D01*
X39900Y-28935D01*
X39914Y-28917D01*
X39932Y-28902D01*
X39952Y-28891D01*
X39975Y-28883D01*
X39998Y-28881D01*
X40020Y-28882D01*
X40043Y-28889D01*
X40064Y-28899D01*
X40082Y-28914D01*
X40098Y-28931D01*
X40109Y-28952D01*
X40117Y-28974D01*
X40119Y-28997D01*
X40120Y-29000D01*
X40120Y-30000D02*
X40117Y-30023D01*
X40110Y-30045D01*
X40099Y-30066D01*
X40085Y-30084D01*
X40067Y-30099D01*
X40046Y-30110D01*
X40024Y-30117D01*
X40000Y-30119D01*
X39978Y-30117D01*
X39956Y-30111D01*
X39935Y-30100D01*
X39917Y-30085D01*
X39901Y-30067D01*
X39890Y-30047D01*
X39883Y-30024D01*
X39881Y-30001D01*
X39882Y-29979D01*
X39889Y-29956D01*
X39900Y-29935D01*
X39914Y-29917D01*
X39932Y-29902D01*
X39952Y-29891D01*
X39975Y-29883D01*
X39998Y-29881D01*
X40020Y-29882D01*
X40043Y-29889D01*
X40064Y-29899D01*
X40082Y-29914D01*
X40098Y-29931D01*
X40109Y-29952D01*
X40117Y-29974D01*
X40119Y-29997D01*
X40120Y-30000D01*
X40120Y-36000D02*
X40117Y-36023D01*
X40110Y-36045D01*
X40099Y-36066D01*
X40085Y-36084D01*
X40067Y-36099D01*
X40046Y-36110D01*
X40024Y-36117D01*
X40000Y-36119D01*
X39978Y-36117D01*
X39956Y-36111D01*
X39935Y-36100D01*
X39917Y-36085D01*
X39901Y-36067D01*
X39890Y-36047D01*
X39883Y-36024D01*
X39881Y-36001D01*
X39882Y-35979D01*
X39889Y-35956D01*
X39900Y-35935D01*
X39914Y-35917D01*
X39932Y-35902D01*
X39952Y-35891D01*
X39975Y-35883D01*
X39998Y-35881D01*
X40020Y-35882D01*
X40043Y-35889D01*
X40064Y-35899D01*
X40082Y-35914D01*
X40098Y-35931D01*
X40109Y-35952D01*
X40117Y-35974D01*
X40119Y-35997D01*
X40120Y-36000D01*
X40120Y-37000D02*
X40117Y-37023D01*
X40110Y-37045D01*
X40099Y-37066D01*
X40085Y-37084D01*
X40067Y-37099D01*
X40046Y-37110D01*
X40024Y-37117D01*
X40000Y-37119D01*
X39978Y-37117D01*
X39956Y-37111D01*
X39935Y-37100D01*
X39917Y-37085D01*
X39901Y-37067D01*
X39890Y-37047D01*
X39883Y-37024D01*
X39881Y-37001D01*
X39882Y-36979D01*
X39889Y-36956D01*
X39900Y-36935D01*
X39914Y-36917D01*
X39932Y-36902D01*
X39952Y-36891D01*
X39975Y-36883D01*
X39998Y-36881D01*
X40020Y-36882D01*
X40043Y-36889D01*
X40064Y-36899D01*
X40082Y-36914D01*
X40098Y-36931D01*
X40109Y-36952D01*
X40117Y-36974D01*
X40119Y-36997D01*
X40120Y-37000D01*
X40120Y-43000D02*
X40117Y-43023D01*
X40110Y-43045D01*
X40099Y-43066D01*
X40085Y-43084D01*
X40067Y-43099D01*
X40046Y-43110D01*
X40024Y-43117D01*
X40000Y-43119D01*
X39978Y-43117D01*
X39956Y-43111D01*
X39935Y-43100D01*
X39917Y-43085D01*
X39901Y-43067D01*
X39890Y-43047D01*
X39883Y-43024D01*
X39881Y-43001D01*
X39882Y-42979D01*
X39889Y-42956D01*
X39900Y-42935D01*
X39914Y-42917D01*
X39932Y-42902D01*
X39952Y-42891D01*
X39975Y-42883D01*
X39998Y-42881D01*
X40020Y-42882D01*
X40043Y-42889D01*
X40064Y-42899D01*
X40082Y-42914D01*
X40098Y-42931D01*
X40109Y-42952D01*
X40117Y-42974D01*
X40119Y-42997D01*
X40120Y-43000D01*
X40120Y-44000D02*
X40117Y-44023D01*
X40110Y-44045D01*
X40099Y-44066D01*
X40085Y-44084D01*
X40067Y-44099D01*
X40046Y-44110D01*
X40024Y-44117D01*
X40000Y-44119D01*
X39978Y-44117D01*
X39956Y-44111D01*
X39935Y-44100D01*
X39917Y-44085D01*
X39901Y-44067D01*
X39890Y-44047D01*
X39883Y-44024D01*
X39881Y-44001D01*
X39882Y-43979D01*
X39889Y-43956D01*
X39900Y-43935D01*
X39914Y-43917D01*
X39932Y-43902D01*
X39952Y-43891D01*
X39975Y-43883D01*
X39998Y-43881D01*
X40020Y-43882D01*
X40043Y-43889D01*
X40064Y-43899D01*
X40082Y-43914D01*
X40098Y-43931D01*
X40109Y-43952D01*
X40117Y-43974D01*
X40119Y-43997D01*
X40120Y-44000D01*
X53370Y-48250D02*
X53367Y-48273D01*
X53360Y-48295D01*
X53349Y-48316D01*
X53335Y-48334D01*
X53317Y-48349D01*
X53296Y-48360D01*
X53274Y-48367D01*
X53250Y-48369D01*
X53228Y-48367D01*
X53206Y-48361D01*
X53185Y-48350D01*
X53167Y-48335D01*
X53151Y-48317D01*
X53140Y-48297D01*
X53133Y-48274D01*
X53131Y-48251D01*
X53132Y-48229D01*
X53139Y-48206D01*
X53150Y-48185D01*
X53164Y-48167D01*
X53182Y-48152D01*
X53202Y-48141D01*
X53225Y-48133D01*
X53248Y-48131D01*
X53270Y-48132D01*
X53293Y-48139D01*
X53314Y-48149D01*
X53332Y-48164D01*
X53348Y-48181D01*
X53359Y-48202D01*
X53367Y-48224D01*
X53369Y-48247D01*
X53370Y-48250D01*
X53370Y-50250D02*
X53367Y-50273D01*
X53360Y-50295D01*
X53349Y-50316D01*
X53335Y-50334D01*
X53317Y-50349D01*
X53296Y-50360D01*
X53274Y-50367D01*
X53250Y-50369D01*
X53228Y-50367D01*
X53206Y-50361D01*
X53185Y-50350D01*
X53167Y-50335D01*
X53151Y-50317D01*
X53140Y-50297D01*
X53133Y-50274D01*
X53131Y-50251D01*
X53132Y-50229D01*
X53139Y-50206D01*
X53150Y-50185D01*
X53164Y-50167D01*
X53182Y-50152D01*
X53202Y-50141D01*
X53225Y-50133D01*
X53248Y-50131D01*
X53270Y-50132D01*
X53293Y-50139D01*
X53314Y-50149D01*
X53332Y-50164D01*
X53348Y-50181D01*
X53359Y-50202D01*
X53367Y-50224D01*
X53369Y-50247D01*
X53370Y-50250D01*
X56370Y-25750D02*
X56367Y-25773D01*
X56360Y-25795D01*
X56349Y-25816D01*
X56335Y-25834D01*
X56317Y-25849D01*
X56296Y-25860D01*
X56274Y-25867D01*
X56250Y-25869D01*
X56228Y-25867D01*
X56206Y-25861D01*
X56185Y-25850D01*
X56167Y-25835D01*
X56151Y-25817D01*
X56140Y-25797D01*
X56133Y-25774D01*
X56131Y-25751D01*
X56132Y-25729D01*
X56139Y-25706D01*
X56150Y-25685D01*
X56164Y-25667D01*
X56182Y-25652D01*
X56202Y-25641D01*
X56225Y-25633D01*
X56248Y-25631D01*
X56270Y-25632D01*
X56293Y-25639D01*
X56314Y-25649D01*
X56332Y-25664D01*
X56348Y-25681D01*
X56359Y-25702D01*
X56367Y-25724D01*
X56369Y-25747D01*
X56370Y-25750D01*
X56370Y-27750D02*
X56367Y-27773D01*
X56360Y-27795D01*
X56349Y-27816D01*
X56335Y-27834D01*
X56317Y-27849D01*
X56296Y-27860D01*
X56274Y-27867D01*
X56250Y-27869D01*
X56228Y-27867D01*
X56206Y-27861D01*
X56185Y-27850D01*
X56167Y-27835D01*
X56151Y-27817D01*
X56140Y-27797D01*
X56133Y-27774D01*
X56131Y-27751D01*
X56132Y-27729D01*
X56139Y-27706D01*
X56150Y-27685D01*
X56164Y-27667D01*
X56182Y-27652D01*
X56202Y-27641D01*
X56225Y-27633D01*
X56248Y-27631D01*
X56270Y-27632D01*
X56293Y-27639D01*
X56314Y-27649D01*
X56332Y-27664D01*
X56348Y-27681D01*
X56359Y-27702D01*
X56367Y-27724D01*
X56369Y-27747D01*
X56370Y-27750D01*
X56620Y-48250D02*
X56617Y-48273D01*
X56610Y-48295D01*
X56599Y-48316D01*
X56585Y-48334D01*
X56567Y-48349D01*
X56546Y-48360D01*
X56524Y-48367D01*
X56500Y-48369D01*
X56478Y-48367D01*
X56456Y-48361D01*
X56435Y-48350D01*
X56417Y-48335D01*
X56401Y-48317D01*
X56390Y-48297D01*
X56383Y-48274D01*
X56381Y-48251D01*
X56382Y-48229D01*
X56389Y-48206D01*
X56400Y-48185D01*
X56414Y-48167D01*
X56432Y-48152D01*
X56452Y-48141D01*
X56475Y-48133D01*
X56498Y-48131D01*
X56520Y-48132D01*
X56543Y-48139D01*
X56564Y-48149D01*
X56582Y-48164D01*
X56598Y-48181D01*
X56609Y-48202D01*
X56617Y-48224D01*
X56619Y-48247D01*
X56620Y-48250D01*
X56620Y-50250D02*
X56617Y-50273D01*
X56610Y-50295D01*
X56599Y-50316D01*
X56585Y-50334D01*
X56567Y-50349D01*
X56546Y-50360D01*
X56524Y-50367D01*
X56500Y-50369D01*
X56478Y-50367D01*
X56456Y-50361D01*
X56435Y-50350D01*
X56417Y-50335D01*
X56401Y-50317D01*
X56390Y-50297D01*
X56383Y-50274D01*
X56381Y-50251D01*
X56382Y-50229D01*
X56389Y-50206D01*
X56400Y-50185D01*
X56414Y-50167D01*
X56432Y-50152D01*
X56452Y-50141D01*
X56475Y-50133D01*
X56498Y-50131D01*
X56520Y-50132D01*
X56543Y-50139D01*
X56564Y-50149D01*
X56582Y-50164D01*
X56598Y-50181D01*
X56609Y-50202D01*
X56617Y-50224D01*
X56619Y-50247D01*
X56620Y-50250D01*
X58120Y-26250D02*
X58117Y-26273D01*
X58110Y-26295D01*
X58099Y-26316D01*
X58085Y-26334D01*
X58067Y-26349D01*
X58046Y-26360D01*
X58024Y-26367D01*
X58000Y-26369D01*
X57978Y-26367D01*
X57956Y-26361D01*
X57935Y-26350D01*
X57917Y-26335D01*
X57901Y-26317D01*
X57890Y-26297D01*
X57883Y-26274D01*
X57881Y-26251D01*
X57882Y-26229D01*
X57889Y-26206D01*
X57900Y-26185D01*
X57914Y-26167D01*
X57932Y-26152D01*
X57952Y-26141D01*
X57975Y-26133D01*
X57998Y-26131D01*
X58020Y-26132D01*
X58043Y-26139D01*
X58064Y-26149D01*
X58082Y-26164D01*
X58098Y-26181D01*
X58109Y-26202D01*
X58117Y-26224D01*
X58119Y-26247D01*
X58120Y-26250D01*
X58120Y-27250D02*
X58117Y-27273D01*
X58110Y-27295D01*
X58099Y-27316D01*
X58085Y-27334D01*
X58067Y-27349D01*
X58046Y-27360D01*
X58024Y-27367D01*
X58000Y-27369D01*
X57978Y-27367D01*
X57956Y-27361D01*
X57935Y-27350D01*
X57917Y-27335D01*
X57901Y-27317D01*
X57890Y-27297D01*
X57883Y-27274D01*
X57881Y-27251D01*
X57882Y-27229D01*
X57889Y-27206D01*
X57900Y-27185D01*
X57914Y-27167D01*
X57932Y-27152D01*
X57952Y-27141D01*
X57975Y-27133D01*
X57998Y-27131D01*
X58020Y-27132D01*
X58043Y-27139D01*
X58064Y-27149D01*
X58082Y-27164D01*
X58098Y-27181D01*
X58109Y-27202D01*
X58117Y-27224D01*
X58119Y-27247D01*
X58120Y-27250D01*
X25500Y-40375D02*
X25500Y-40625D01*
X25625Y-40500D02*
X25375Y-40500D01*
X25750Y-42375D02*
X25750Y-42625D01*
X25875Y-42500D02*
X25625Y-42500D01*
X26750Y-24625D02*
X26750Y-24875D01*
X26875Y-24750D02*
X26625Y-24750D01*
X27250Y-41375D02*
X27250Y-41625D01*
X27375Y-41500D02*
X27125Y-41500D01*
X28250Y-44375D02*
X28250Y-44625D01*
X28375Y-44500D02*
X28125Y-44500D01*
X35750Y-26875D02*
X35750Y-27125D01*
X35875Y-27000D02*
X35625Y-27000D01*
X35750Y-33875D02*
X35750Y-34125D01*
X35875Y-34000D02*
X35625Y-34000D01*
X40250Y-39125D02*
X40250Y-39375D01*
X40375Y-39250D02*
X40125Y-39250D01*
X41000Y-32125D02*
X41000Y-32375D01*
X41125Y-32250D02*
X40875Y-32250D01*
X41750Y-49625D02*
X41750Y-49875D01*
X41875Y-49750D02*
X41625Y-49750D01*
X45500Y-49625D02*
X45500Y-49875D01*
X45625Y-49750D02*
X45375Y-49750D01*
X49500Y-23875D02*
X49500Y-24125D01*
X49625Y-24000D02*
X49375Y-24000D01*
X52500Y-23875D02*
X52500Y-24125D01*
X52625Y-24000D02*
X52375Y-24000D01*
X52500Y-29375D02*
X52500Y-29625D01*
X52625Y-29500D02*
X52375Y-29500D01*
X54500Y-23875D02*
X54500Y-24125D01*
X54625Y-24000D02*
X54375Y-24000D01*
X57750Y-47375D02*
X57750Y-47625D01*
X57875Y-47500D02*
X57625Y-47500D01*
X63750Y-34625D02*
X63750Y-34875D01*
X63875Y-34750D02*
X63625Y-34750D01*
X67250Y-44875D02*
X67250Y-45125D01*
X67375Y-45000D02*
X67125Y-45000D01*
X30160Y-28000D02*
X30156Y-28031D01*
X30147Y-28060D01*
X30133Y-28088D01*
X30113Y-28112D01*
X30089Y-28132D01*
X30062Y-28147D01*
X30032Y-28156D01*
X30001Y-28159D01*
X29971Y-28157D01*
X29941Y-28148D01*
X29913Y-28133D01*
X29889Y-28114D01*
X29868Y-28090D01*
X29853Y-28063D01*
X29844Y-28033D01*
X29841Y-28002D01*
X29843Y-27972D01*
X29852Y-27942D01*
X29866Y-27914D01*
X29885Y-27889D01*
X29909Y-27869D01*
X29936Y-27854D01*
X29966Y-27844D01*
X29997Y-27841D01*
X30027Y-27843D01*
X30057Y-27851D01*
X30085Y-27865D01*
X30110Y-27885D01*
X30130Y-27908D01*
X30146Y-27935D01*
X30156Y-27965D01*
X30159Y-27996D01*
X30160Y-28000D01*
X29840Y-27840D02*
X30160Y-28160D01*
X30160Y-27840D02*
X29840Y-28160D01*
X30160Y-29250D02*
X30156Y-29281D01*
X30147Y-29310D01*
X30133Y-29338D01*
X30113Y-29362D01*
X30089Y-29382D01*
X30062Y-29397D01*
X30032Y-29406D01*
X30001Y-29409D01*
X29971Y-29407D01*
X29941Y-29398D01*
X29913Y-29383D01*
X29889Y-29364D01*
X29868Y-29340D01*
X29853Y-29313D01*
X29844Y-29283D01*
X29841Y-29252D01*
X29843Y-29222D01*
X29852Y-29192D01*
X29866Y-29164D01*
X29885Y-29139D01*
X29909Y-29119D01*
X29936Y-29104D01*
X29966Y-29094D01*
X29997Y-29091D01*
X30027Y-29093D01*
X30057Y-29101D01*
X30085Y-29115D01*
X30110Y-29135D01*
X30130Y-29158D01*
X30146Y-29185D01*
X30156Y-29215D01*
X30159Y-29246D01*
X30160Y-29250D01*
X29840Y-29090D02*
X30160Y-29410D01*
X30160Y-29090D02*
X29840Y-29410D01*
X30160Y-35000D02*
X30156Y-35031D01*
X30147Y-35060D01*
X30133Y-35088D01*
X30113Y-35112D01*
X30089Y-35132D01*
X30062Y-35147D01*
X30032Y-35156D01*
X30001Y-35159D01*
X29971Y-35157D01*
X29941Y-35148D01*
X29913Y-35133D01*
X29889Y-35114D01*
X29868Y-35090D01*
X29853Y-35063D01*
X29844Y-35033D01*
X29841Y-35002D01*
X29843Y-34972D01*
X29852Y-34942D01*
X29866Y-34914D01*
X29885Y-34889D01*
X29909Y-34869D01*
X29936Y-34854D01*
X29966Y-34844D01*
X29997Y-34841D01*
X30027Y-34843D01*
X30057Y-34851D01*
X30085Y-34865D01*
X30110Y-34885D01*
X30130Y-34908D01*
X30146Y-34935D01*
X30156Y-34965D01*
X30159Y-34996D01*
X30160Y-35000D01*
X29840Y-34840D02*
X30160Y-35160D01*
X30160Y-34840D02*
X29840Y-35160D01*
X30160Y-36250D02*
X30156Y-36281D01*
X30147Y-36310D01*
X30133Y-36338D01*
X30113Y-36362D01*
X30089Y-36382D01*
X30062Y-36397D01*
X30032Y-36406D01*
X30001Y-36409D01*
X29971Y-36407D01*
X29941Y-36398D01*
X29913Y-36383D01*
X29889Y-36364D01*
X29868Y-36340D01*
X29853Y-36313D01*
X29844Y-36283D01*
X29841Y-36252D01*
X29843Y-36222D01*
X29852Y-36192D01*
X29866Y-36164D01*
X29885Y-36139D01*
X29909Y-36119D01*
X29936Y-36104D01*
X29966Y-36094D01*
X29997Y-36091D01*
X30027Y-36093D01*
X30057Y-36101D01*
X30085Y-36115D01*
X30110Y-36135D01*
X30130Y-36158D01*
X30146Y-36185D01*
X30156Y-36215D01*
X30159Y-36246D01*
X30160Y-36250D01*
X29840Y-36090D02*
X30160Y-36410D01*
X30160Y-36090D02*
X29840Y-36410D01*
X30160Y-42000D02*
X30156Y-42031D01*
X30147Y-42060D01*
X30133Y-42088D01*
X30113Y-42112D01*
X30089Y-42132D01*
X30062Y-42147D01*
X30032Y-42156D01*
X30001Y-42159D01*
X29971Y-42157D01*
X29941Y-42148D01*
X29913Y-42133D01*
X29889Y-42114D01*
X29868Y-42090D01*
X29853Y-42063D01*
X29844Y-42033D01*
X29841Y-42002D01*
X29843Y-41972D01*
X29852Y-41942D01*
X29866Y-41914D01*
X29885Y-41889D01*
X29909Y-41869D01*
X29936Y-41854D01*
X29966Y-41844D01*
X29997Y-41841D01*
X30027Y-41843D01*
X30057Y-41851D01*
X30085Y-41865D01*
X30110Y-41885D01*
X30130Y-41908D01*
X30146Y-41935D01*
X30156Y-41965D01*
X30159Y-41996D01*
X30160Y-42000D01*
X29840Y-41840D02*
X30160Y-42160D01*
X30160Y-41840D02*
X29840Y-42160D01*
X30160Y-43250D02*
X30156Y-43281D01*
X30147Y-43310D01*
X30133Y-43338D01*
X30113Y-43362D01*
X30089Y-43382D01*
X30062Y-43397D01*
X30032Y-43406D01*
X30001Y-43409D01*
X29971Y-43407D01*
X29941Y-43398D01*
X29913Y-43383D01*
X29889Y-43364D01*
X29868Y-43340D01*
X29853Y-43313D01*
X29844Y-43283D01*
X29841Y-43252D01*
X29843Y-43222D01*
X29852Y-43192D01*
X29866Y-43164D01*
X29885Y-43139D01*
X29909Y-43119D01*
X29936Y-43104D01*
X29966Y-43094D01*
X29997Y-43091D01*
X30027Y-43093D01*
X30057Y-43101D01*
X30085Y-43115D01*
X30110Y-43135D01*
X30130Y-43158D01*
X30146Y-43185D01*
X30156Y-43215D01*
X30159Y-43246D01*
X30160Y-43250D01*
X29840Y-43090D02*
X30160Y-43410D01*
X30160Y-43090D02*
X29840Y-43410D01*
X30160Y-44500D02*
X30156Y-44531D01*
X30147Y-44560D01*
X30133Y-44588D01*
X30113Y-44612D01*
X30089Y-44632D01*
X30062Y-44647D01*
X30032Y-44656D01*
X30001Y-44659D01*
X29971Y-44657D01*
X29941Y-44648D01*
X29913Y-44633D01*
X29889Y-44614D01*
X29868Y-44590D01*
X29853Y-44563D01*
X29844Y-44533D01*
X29841Y-44502D01*
X29843Y-44472D01*
X29852Y-44442D01*
X29866Y-44414D01*
X29885Y-44389D01*
X29909Y-44369D01*
X29936Y-44354D01*
X29966Y-44344D01*
X29997Y-44341D01*
X30027Y-44343D01*
X30057Y-44351D01*
X30085Y-44365D01*
X30110Y-44385D01*
X30130Y-44408D01*
X30146Y-44435D01*
X30156Y-44465D01*
X30159Y-44496D01*
X30160Y-44500D01*
X29840Y-44340D02*
X30160Y-44660D01*
X30160Y-44340D02*
X29840Y-44660D01*
X30410Y-49750D02*
X30406Y-49781D01*
X30397Y-49810D01*
X30383Y-49838D01*
X30363Y-49862D01*
X30339Y-49882D01*
X30312Y-49897D01*
X30282Y-49906D01*
X30251Y-49909D01*
X30221Y-49907D01*
X30191Y-49898D01*
X30163Y-49883D01*
X30139Y-49864D01*
X30118Y-49840D01*
X30103Y-49813D01*
X30094Y-49783D01*
X30091Y-49752D01*
X30093Y-49722D01*
X30102Y-49692D01*
X30116Y-49664D01*
X30135Y-49639D01*
X30159Y-49619D01*
X30186Y-49604D01*
X30216Y-49594D01*
X30247Y-49591D01*
X30277Y-49593D01*
X30307Y-49601D01*
X30335Y-49615D01*
X30360Y-49635D01*
X30380Y-49658D01*
X30396Y-49685D01*
X30406Y-49715D01*
X30409Y-49746D01*
X30410Y-49750D01*
X30090Y-49590D02*
X30410Y-49910D01*
X30410Y-49590D02*
X30090Y-49910D01*
X31410Y-49750D02*
X31406Y-49781D01*
X31397Y-49810D01*
X31383Y-49838D01*
X31363Y-49862D01*
X31339Y-49882D01*
X31312Y-49897D01*
X31282Y-49906D01*
X31251Y-49909D01*
X31221Y-49907D01*
X31191Y-49898D01*
X31163Y-49883D01*
X31139Y-49864D01*
X31118Y-49840D01*
X31103Y-49813D01*
X31094Y-49783D01*
X31091Y-49752D01*
X31093Y-49722D01*
X31102Y-49692D01*
X31116Y-49664D01*
X31135Y-49639D01*
X31159Y-49619D01*
X31186Y-49604D01*
X31216Y-49594D01*
X31247Y-49591D01*
X31277Y-49593D01*
X31307Y-49601D01*
X31335Y-49615D01*
X31360Y-49635D01*
X31380Y-49658D01*
X31396Y-49685D01*
X31406Y-49715D01*
X31409Y-49746D01*
X31410Y-49750D01*
X31090Y-49590D02*
X31410Y-49910D01*
X31410Y-49590D02*
X31090Y-49910D01*
X31410Y-50750D02*
X31406Y-50781D01*
X31397Y-50810D01*
X31383Y-50838D01*
X31363Y-50862D01*
X31339Y-50882D01*
X31312Y-50897D01*
X31282Y-50906D01*
X31251Y-50909D01*
X31221Y-50907D01*
X31191Y-50898D01*
X31163Y-50883D01*
X31139Y-50864D01*
X31118Y-50840D01*
X31103Y-50813D01*
X31094Y-50783D01*
X31091Y-50752D01*
X31093Y-50722D01*
X31102Y-50692D01*
X31116Y-50664D01*
X31135Y-50639D01*
X31159Y-50619D01*
X31186Y-50604D01*
X31216Y-50594D01*
X31247Y-50591D01*
X31277Y-50593D01*
X31307Y-50601D01*
X31335Y-50615D01*
X31360Y-50635D01*
X31380Y-50658D01*
X31396Y-50685D01*
X31406Y-50715D01*
X31409Y-50746D01*
X31410Y-50750D01*
X31090Y-50590D02*
X31410Y-50910D01*
X31410Y-50590D02*
X31090Y-50910D01*
X33160Y-28000D02*
X33156Y-28031D01*
X33147Y-28060D01*
X33133Y-28088D01*
X33113Y-28112D01*
X33089Y-28132D01*
X33062Y-28147D01*
X33032Y-28156D01*
X33001Y-28159D01*
X32971Y-28157D01*
X32941Y-28148D01*
X32913Y-28133D01*
X32889Y-28114D01*
X32868Y-28090D01*
X32853Y-28063D01*
X32844Y-28033D01*
X32841Y-28002D01*
X32843Y-27972D01*
X32852Y-27942D01*
X32866Y-27914D01*
X32885Y-27889D01*
X32909Y-27869D01*
X32936Y-27854D01*
X32966Y-27844D01*
X32997Y-27841D01*
X33027Y-27843D01*
X33057Y-27851D01*
X33085Y-27865D01*
X33110Y-27885D01*
X33130Y-27908D01*
X33146Y-27935D01*
X33156Y-27965D01*
X33159Y-27996D01*
X33160Y-28000D01*
X32840Y-27840D02*
X33160Y-28160D01*
X33160Y-27840D02*
X32840Y-28160D01*
X33160Y-29250D02*
X33156Y-29281D01*
X33147Y-29310D01*
X33133Y-29338D01*
X33113Y-29362D01*
X33089Y-29382D01*
X33062Y-29397D01*
X33032Y-29406D01*
X33001Y-29409D01*
X32971Y-29407D01*
X32941Y-29398D01*
X32913Y-29383D01*
X32889Y-29364D01*
X32868Y-29340D01*
X32853Y-29313D01*
X32844Y-29283D01*
X32841Y-29252D01*
X32843Y-29222D01*
X32852Y-29192D01*
X32866Y-29164D01*
X32885Y-29139D01*
X32909Y-29119D01*
X32936Y-29104D01*
X32966Y-29094D01*
X32997Y-29091D01*
X33027Y-29093D01*
X33057Y-29101D01*
X33085Y-29115D01*
X33110Y-29135D01*
X33130Y-29158D01*
X33146Y-29185D01*
X33156Y-29215D01*
X33159Y-29246D01*
X33160Y-29250D01*
X32840Y-29090D02*
X33160Y-29410D01*
X33160Y-29090D02*
X32840Y-29410D01*
X33160Y-35000D02*
X33156Y-35031D01*
X33147Y-35060D01*
X33133Y-35088D01*
X33113Y-35112D01*
X33089Y-35132D01*
X33062Y-35147D01*
X33032Y-35156D01*
X33001Y-35159D01*
X32971Y-35157D01*
X32941Y-35148D01*
X32913Y-35133D01*
X32889Y-35114D01*
X32868Y-35090D01*
X32853Y-35063D01*
X32844Y-35033D01*
X32841Y-35002D01*
X32843Y-34972D01*
X32852Y-34942D01*
X32866Y-34914D01*
X32885Y-34889D01*
X32909Y-34869D01*
X32936Y-34854D01*
X32966Y-34844D01*
X32997Y-34841D01*
X33027Y-34843D01*
X33057Y-34851D01*
X33085Y-34865D01*
X33110Y-34885D01*
X33130Y-34908D01*
X33146Y-34935D01*
X33156Y-34965D01*
X33159Y-34996D01*
X33160Y-35000D01*
X32840Y-34840D02*
X33160Y-35160D01*
X33160Y-34840D02*
X32840Y-35160D01*
X33160Y-36250D02*
X33156Y-36281D01*
X33147Y-36310D01*
X33133Y-36338D01*
X33113Y-36362D01*
X33089Y-36382D01*
X33062Y-36397D01*
X33032Y-36406D01*
X33001Y-36409D01*
X32971Y-36407D01*
X32941Y-36398D01*
X32913Y-36383D01*
X32889Y-36364D01*
X32868Y-36340D01*
X32853Y-36313D01*
X32844Y-36283D01*
X32841Y-36252D01*
X32843Y-36222D01*
X32852Y-36192D01*
X32866Y-36164D01*
X32885Y-36139D01*
X32909Y-36119D01*
X32936Y-36104D01*
X32966Y-36094D01*
X32997Y-36091D01*
X33027Y-36093D01*
X33057Y-36101D01*
X33085Y-36115D01*
X33110Y-36135D01*
X33130Y-36158D01*
X33146Y-36185D01*
X33156Y-36215D01*
X33159Y-36246D01*
X33160Y-36250D01*
X32840Y-36090D02*
X33160Y-36410D01*
X33160Y-36090D02*
X32840Y-36410D01*
X33160Y-42000D02*
X33156Y-42031D01*
X33147Y-42060D01*
X33133Y-42088D01*
X33113Y-42112D01*
X33089Y-42132D01*
X33062Y-42147D01*
X33032Y-42156D01*
X33001Y-42159D01*
X32971Y-42157D01*
X32941Y-42148D01*
X32913Y-42133D01*
X32889Y-42114D01*
X32868Y-42090D01*
X32853Y-42063D01*
X32844Y-42033D01*
X32841Y-42002D01*
X32843Y-41972D01*
X32852Y-41942D01*
X32866Y-41914D01*
X32885Y-41889D01*
X32909Y-41869D01*
X32936Y-41854D01*
X32966Y-41844D01*
X32997Y-41841D01*
X33027Y-41843D01*
X33057Y-41851D01*
X33085Y-41865D01*
X33110Y-41885D01*
X33130Y-41908D01*
X33146Y-41935D01*
X33156Y-41965D01*
X33159Y-41996D01*
X33160Y-42000D01*
X32840Y-41840D02*
X33160Y-42160D01*
X33160Y-41840D02*
X32840Y-42160D01*
X33160Y-43250D02*
X33156Y-43281D01*
X33147Y-43310D01*
X33133Y-43338D01*
X33113Y-43362D01*
X33089Y-43382D01*
X33062Y-43397D01*
X33032Y-43406D01*
X33001Y-43409D01*
X32971Y-43407D01*
X32941Y-43398D01*
X32913Y-43383D01*
X32889Y-43364D01*
X32868Y-43340D01*
X32853Y-43313D01*
X32844Y-43283D01*
X32841Y-43252D01*
X32843Y-43222D01*
X32852Y-43192D01*
X32866Y-43164D01*
X32885Y-43139D01*
X32909Y-43119D01*
X32936Y-43104D01*
X32966Y-43094D01*
X32997Y-43091D01*
X33027Y-43093D01*
X33057Y-43101D01*
X33085Y-43115D01*
X33110Y-43135D01*
X33130Y-43158D01*
X33146Y-43185D01*
X33156Y-43215D01*
X33159Y-43246D01*
X33160Y-43250D01*
X32840Y-43090D02*
X33160Y-43410D01*
X33160Y-43090D02*
X32840Y-43410D01*
X33160Y-44500D02*
X33156Y-44531D01*
X33147Y-44560D01*
X33133Y-44588D01*
X33113Y-44612D01*
X33089Y-44632D01*
X33062Y-44647D01*
X33032Y-44656D01*
X33001Y-44659D01*
X32971Y-44657D01*
X32941Y-44648D01*
X32913Y-44633D01*
X32889Y-44614D01*
X32868Y-44590D01*
X32853Y-44563D01*
X32844Y-44533D01*
X32841Y-44502D01*
X32843Y-44472D01*
X32852Y-44442D01*
X32866Y-44414D01*
X32885Y-44389D01*
X32909Y-44369D01*
X32936Y-44354D01*
X32966Y-44344D01*
X32997Y-44341D01*
X33027Y-44343D01*
X33057Y-44351D01*
X33085Y-44365D01*
X33110Y-44385D01*
X33130Y-44408D01*
X33146Y-44435D01*
X33156Y-44465D01*
X33159Y-44496D01*
X33160Y-44500D01*
X32840Y-44340D02*
X33160Y-44660D01*
X33160Y-44340D02*
X32840Y-44660D01*
X34410Y-28000D02*
X34406Y-28031D01*
X34397Y-28060D01*
X34383Y-28088D01*
X34363Y-28112D01*
X34339Y-28132D01*
X34312Y-28147D01*
X34282Y-28156D01*
X34251Y-28159D01*
X34221Y-28157D01*
X34191Y-28148D01*
X34163Y-28133D01*
X34139Y-28114D01*
X34118Y-28090D01*
X34103Y-28063D01*
X34094Y-28033D01*
X34091Y-28002D01*
X34093Y-27972D01*
X34102Y-27942D01*
X34116Y-27914D01*
X34135Y-27889D01*
X34159Y-27869D01*
X34186Y-27854D01*
X34216Y-27844D01*
X34247Y-27841D01*
X34277Y-27843D01*
X34307Y-27851D01*
X34335Y-27865D01*
X34360Y-27885D01*
X34380Y-27908D01*
X34396Y-27935D01*
X34406Y-27965D01*
X34409Y-27996D01*
X34410Y-28000D01*
X34090Y-27840D02*
X34410Y-28160D01*
X34410Y-27840D02*
X34090Y-28160D01*
X34410Y-31000D02*
X34406Y-31031D01*
X34397Y-31060D01*
X34383Y-31088D01*
X34363Y-31112D01*
X34339Y-31132D01*
X34312Y-31147D01*
X34282Y-31156D01*
X34251Y-31159D01*
X34221Y-31157D01*
X34191Y-31148D01*
X34163Y-31133D01*
X34139Y-31114D01*
X34118Y-31090D01*
X34103Y-31063D01*
X34094Y-31033D01*
X34091Y-31002D01*
X34093Y-30972D01*
X34102Y-30942D01*
X34116Y-30914D01*
X34135Y-30889D01*
X34159Y-30869D01*
X34186Y-30854D01*
X34216Y-30844D01*
X34247Y-30841D01*
X34277Y-30843D01*
X34307Y-30851D01*
X34335Y-30865D01*
X34360Y-30885D01*
X34380Y-30908D01*
X34396Y-30935D01*
X34406Y-30965D01*
X34409Y-30996D01*
X34410Y-31000D01*
X34090Y-30840D02*
X34410Y-31160D01*
X34410Y-30840D02*
X34090Y-31160D01*
X34410Y-35000D02*
X34406Y-35031D01*
X34397Y-35060D01*
X34383Y-35088D01*
X34363Y-35112D01*
X34339Y-35132D01*
X34312Y-35147D01*
X34282Y-35156D01*
X34251Y-35159D01*
X34221Y-35157D01*
X34191Y-35148D01*
X34163Y-35133D01*
X34139Y-35114D01*
X34118Y-35090D01*
X34103Y-35063D01*
X34094Y-35033D01*
X34091Y-35002D01*
X34093Y-34972D01*
X34102Y-34942D01*
X34116Y-34914D01*
X34135Y-34889D01*
X34159Y-34869D01*
X34186Y-34854D01*
X34216Y-34844D01*
X34247Y-34841D01*
X34277Y-34843D01*
X34307Y-34851D01*
X34335Y-34865D01*
X34360Y-34885D01*
X34380Y-34908D01*
X34396Y-34935D01*
X34406Y-34965D01*
X34409Y-34996D01*
X34410Y-35000D01*
X34090Y-34840D02*
X34410Y-35160D01*
X34410Y-34840D02*
X34090Y-35160D01*
X34410Y-38000D02*
X34406Y-38031D01*
X34397Y-38060D01*
X34383Y-38088D01*
X34363Y-38112D01*
X34339Y-38132D01*
X34312Y-38147D01*
X34282Y-38156D01*
X34251Y-38159D01*
X34221Y-38157D01*
X34191Y-38148D01*
X34163Y-38133D01*
X34139Y-38114D01*
X34118Y-38090D01*
X34103Y-38063D01*
X34094Y-38033D01*
X34091Y-38002D01*
X34093Y-37972D01*
X34102Y-37942D01*
X34116Y-37914D01*
X34135Y-37889D01*
X34159Y-37869D01*
X34186Y-37854D01*
X34216Y-37844D01*
X34247Y-37841D01*
X34277Y-37843D01*
X34307Y-37851D01*
X34335Y-37865D01*
X34360Y-37885D01*
X34380Y-37908D01*
X34396Y-37935D01*
X34406Y-37965D01*
X34409Y-37996D01*
X34410Y-38000D01*
X34090Y-37840D02*
X34410Y-38160D01*
X34410Y-37840D02*
X34090Y-38160D01*
X34410Y-42000D02*
X34406Y-42031D01*
X34397Y-42060D01*
X34383Y-42088D01*
X34363Y-42112D01*
X34339Y-42132D01*
X34312Y-42147D01*
X34282Y-42156D01*
X34251Y-42159D01*
X34221Y-42157D01*
X34191Y-42148D01*
X34163Y-42133D01*
X34139Y-42114D01*
X34118Y-42090D01*
X34103Y-42063D01*
X34094Y-42033D01*
X34091Y-42002D01*
X34093Y-41972D01*
X34102Y-41942D01*
X34116Y-41914D01*
X34135Y-41889D01*
X34159Y-41869D01*
X34186Y-41854D01*
X34216Y-41844D01*
X34247Y-41841D01*
X34277Y-41843D01*
X34307Y-41851D01*
X34335Y-41865D01*
X34360Y-41885D01*
X34380Y-41908D01*
X34396Y-41935D01*
X34406Y-41965D01*
X34409Y-41996D01*
X34410Y-42000D01*
X34090Y-41840D02*
X34410Y-42160D01*
X34410Y-41840D02*
X34090Y-42160D01*
X34410Y-45000D02*
X34406Y-45031D01*
X34397Y-45060D01*
X34383Y-45088D01*
X34363Y-45112D01*
X34339Y-45132D01*
X34312Y-45147D01*
X34282Y-45156D01*
X34251Y-45159D01*
X34221Y-45157D01*
X34191Y-45148D01*
X34163Y-45133D01*
X34139Y-45114D01*
X34118Y-45090D01*
X34103Y-45063D01*
X34094Y-45033D01*
X34091Y-45002D01*
X34093Y-44972D01*
X34102Y-44942D01*
X34116Y-44914D01*
X34135Y-44889D01*
X34159Y-44869D01*
X34186Y-44854D01*
X34216Y-44844D01*
X34247Y-44841D01*
X34277Y-44843D01*
X34307Y-44851D01*
X34335Y-44865D01*
X34360Y-44885D01*
X34380Y-44908D01*
X34396Y-44935D01*
X34406Y-44965D01*
X34409Y-44996D01*
X34410Y-45000D01*
X34090Y-44840D02*
X34410Y-45160D01*
X34410Y-44840D02*
X34090Y-45160D01*
X35410Y-28000D02*
X35406Y-28031D01*
X35397Y-28060D01*
X35383Y-28088D01*
X35363Y-28112D01*
X35339Y-28132D01*
X35312Y-28147D01*
X35282Y-28156D01*
X35251Y-28159D01*
X35221Y-28157D01*
X35191Y-28148D01*
X35163Y-28133D01*
X35139Y-28114D01*
X35118Y-28090D01*
X35103Y-28063D01*
X35094Y-28033D01*
X35091Y-28002D01*
X35093Y-27972D01*
X35102Y-27942D01*
X35116Y-27914D01*
X35135Y-27889D01*
X35159Y-27869D01*
X35186Y-27854D01*
X35216Y-27844D01*
X35247Y-27841D01*
X35277Y-27843D01*
X35307Y-27851D01*
X35335Y-27865D01*
X35360Y-27885D01*
X35380Y-27908D01*
X35396Y-27935D01*
X35406Y-27965D01*
X35409Y-27996D01*
X35410Y-28000D01*
X35090Y-27840D02*
X35410Y-28160D01*
X35410Y-27840D02*
X35090Y-28160D01*
X35410Y-31000D02*
X35406Y-31031D01*
X35397Y-31060D01*
X35383Y-31088D01*
X35363Y-31112D01*
X35339Y-31132D01*
X35312Y-31147D01*
X35282Y-31156D01*
X35251Y-31159D01*
X35221Y-31157D01*
X35191Y-31148D01*
X35163Y-31133D01*
X35139Y-31114D01*
X35118Y-31090D01*
X35103Y-31063D01*
X35094Y-31033D01*
X35091Y-31002D01*
X35093Y-30972D01*
X35102Y-30942D01*
X35116Y-30914D01*
X35135Y-30889D01*
X35159Y-30869D01*
X35186Y-30854D01*
X35216Y-30844D01*
X35247Y-30841D01*
X35277Y-30843D01*
X35307Y-30851D01*
X35335Y-30865D01*
X35360Y-30885D01*
X35380Y-30908D01*
X35396Y-30935D01*
X35406Y-30965D01*
X35409Y-30996D01*
X35410Y-31000D01*
X35090Y-30840D02*
X35410Y-31160D01*
X35410Y-30840D02*
X35090Y-31160D01*
X35410Y-32250D02*
X35406Y-32281D01*
X35397Y-32310D01*
X35383Y-32338D01*
X35363Y-32362D01*
X35339Y-32382D01*
X35312Y-32397D01*
X35282Y-32406D01*
X35251Y-32409D01*
X35221Y-32407D01*
X35191Y-32398D01*
X35163Y-32383D01*
X35139Y-32364D01*
X35118Y-32340D01*
X35103Y-32313D01*
X35094Y-32283D01*
X35091Y-32252D01*
X35093Y-32222D01*
X35102Y-32192D01*
X35116Y-32164D01*
X35135Y-32139D01*
X35159Y-32119D01*
X35186Y-32104D01*
X35216Y-32094D01*
X35247Y-32091D01*
X35277Y-32093D01*
X35307Y-32101D01*
X35335Y-32115D01*
X35360Y-32135D01*
X35380Y-32158D01*
X35396Y-32185D01*
X35406Y-32215D01*
X35409Y-32246D01*
X35410Y-32250D01*
X35090Y-32090D02*
X35410Y-32410D01*
X35410Y-32090D02*
X35090Y-32410D01*
X35410Y-35000D02*
X35406Y-35031D01*
X35397Y-35060D01*
X35383Y-35088D01*
X35363Y-35112D01*
X35339Y-35132D01*
X35312Y-35147D01*
X35282Y-35156D01*
X35251Y-35159D01*
X35221Y-35157D01*
X35191Y-35148D01*
X35163Y-35133D01*
X35139Y-35114D01*
X35118Y-35090D01*
X35103Y-35063D01*
X35094Y-35033D01*
X35091Y-35002D01*
X35093Y-34972D01*
X35102Y-34942D01*
X35116Y-34914D01*
X35135Y-34889D01*
X35159Y-34869D01*
X35186Y-34854D01*
X35216Y-34844D01*
X35247Y-34841D01*
X35277Y-34843D01*
X35307Y-34851D01*
X35335Y-34865D01*
X35360Y-34885D01*
X35380Y-34908D01*
X35396Y-34935D01*
X35406Y-34965D01*
X35409Y-34996D01*
X35410Y-35000D01*
X35090Y-34840D02*
X35410Y-35160D01*
X35410Y-34840D02*
X35090Y-35160D01*
X35410Y-38000D02*
X35406Y-38031D01*
X35397Y-38060D01*
X35383Y-38088D01*
X35363Y-38112D01*
X35339Y-38132D01*
X35312Y-38147D01*
X35282Y-38156D01*
X35251Y-38159D01*
X35221Y-38157D01*
X35191Y-38148D01*
X35163Y-38133D01*
X35139Y-38114D01*
X35118Y-38090D01*
X35103Y-38063D01*
X35094Y-38033D01*
X35091Y-38002D01*
X35093Y-37972D01*
X35102Y-37942D01*
X35116Y-37914D01*
X35135Y-37889D01*
X35159Y-37869D01*
X35186Y-37854D01*
X35216Y-37844D01*
X35247Y-37841D01*
X35277Y-37843D01*
X35307Y-37851D01*
X35335Y-37865D01*
X35360Y-37885D01*
X35380Y-37908D01*
X35396Y-37935D01*
X35406Y-37965D01*
X35409Y-37996D01*
X35410Y-38000D01*
X35090Y-37840D02*
X35410Y-38160D01*
X35410Y-37840D02*
X35090Y-38160D01*
X35410Y-39250D02*
X35406Y-39281D01*
X35397Y-39310D01*
X35383Y-39338D01*
X35363Y-39362D01*
X35339Y-39382D01*
X35312Y-39397D01*
X35282Y-39406D01*
X35251Y-39409D01*
X35221Y-39407D01*
X35191Y-39398D01*
X35163Y-39383D01*
X35139Y-39364D01*
X35118Y-39340D01*
X35103Y-39313D01*
X35094Y-39283D01*
X35091Y-39252D01*
X35093Y-39222D01*
X35102Y-39192D01*
X35116Y-39164D01*
X35135Y-39139D01*
X35159Y-39119D01*
X35186Y-39104D01*
X35216Y-39094D01*
X35247Y-39091D01*
X35277Y-39093D01*
X35307Y-39101D01*
X35335Y-39115D01*
X35360Y-39135D01*
X35380Y-39158D01*
X35396Y-39185D01*
X35406Y-39215D01*
X35409Y-39246D01*
X35410Y-39250D01*
X35090Y-39090D02*
X35410Y-39410D01*
X35410Y-39090D02*
X35090Y-39410D01*
X35410Y-42000D02*
X35406Y-42031D01*
X35397Y-42060D01*
X35383Y-42088D01*
X35363Y-42112D01*
X35339Y-42132D01*
X35312Y-42147D01*
X35282Y-42156D01*
X35251Y-42159D01*
X35221Y-42157D01*
X35191Y-42148D01*
X35163Y-42133D01*
X35139Y-42114D01*
X35118Y-42090D01*
X35103Y-42063D01*
X35094Y-42033D01*
X35091Y-42002D01*
X35093Y-41972D01*
X35102Y-41942D01*
X35116Y-41914D01*
X35135Y-41889D01*
X35159Y-41869D01*
X35186Y-41854D01*
X35216Y-41844D01*
X35247Y-41841D01*
X35277Y-41843D01*
X35307Y-41851D01*
X35335Y-41865D01*
X35360Y-41885D01*
X35380Y-41908D01*
X35396Y-41935D01*
X35406Y-41965D01*
X35409Y-41996D01*
X35410Y-42000D01*
X35090Y-41840D02*
X35410Y-42160D01*
X35410Y-41840D02*
X35090Y-42160D01*
X35410Y-45000D02*
X35406Y-45031D01*
X35397Y-45060D01*
X35383Y-45088D01*
X35363Y-45112D01*
X35339Y-45132D01*
X35312Y-45147D01*
X35282Y-45156D01*
X35251Y-45159D01*
X35221Y-45157D01*
X35191Y-45148D01*
X35163Y-45133D01*
X35139Y-45114D01*
X35118Y-45090D01*
X35103Y-45063D01*
X35094Y-45033D01*
X35091Y-45002D01*
X35093Y-44972D01*
X35102Y-44942D01*
X35116Y-44914D01*
X35135Y-44889D01*
X35159Y-44869D01*
X35186Y-44854D01*
X35216Y-44844D01*
X35247Y-44841D01*
X35277Y-44843D01*
X35307Y-44851D01*
X35335Y-44865D01*
X35360Y-44885D01*
X35380Y-44908D01*
X35396Y-44935D01*
X35406Y-44965D01*
X35409Y-44996D01*
X35410Y-45000D01*
X35090Y-44840D02*
X35410Y-45160D01*
X35410Y-44840D02*
X35090Y-45160D01*
X36410Y-28000D02*
X36406Y-28031D01*
X36397Y-28060D01*
X36383Y-28088D01*
X36363Y-28112D01*
X36339Y-28132D01*
X36312Y-28147D01*
X36282Y-28156D01*
X36251Y-28159D01*
X36221Y-28157D01*
X36191Y-28148D01*
X36163Y-28133D01*
X36139Y-28114D01*
X36118Y-28090D01*
X36103Y-28063D01*
X36094Y-28033D01*
X36091Y-28002D01*
X36093Y-27972D01*
X36102Y-27942D01*
X36116Y-27914D01*
X36135Y-27889D01*
X36159Y-27869D01*
X36186Y-27854D01*
X36216Y-27844D01*
X36247Y-27841D01*
X36277Y-27843D01*
X36307Y-27851D01*
X36335Y-27865D01*
X36360Y-27885D01*
X36380Y-27908D01*
X36396Y-27935D01*
X36406Y-27965D01*
X36409Y-27996D01*
X36410Y-28000D01*
X36090Y-27840D02*
X36410Y-28160D01*
X36410Y-27840D02*
X36090Y-28160D01*
X36410Y-31000D02*
X36406Y-31031D01*
X36397Y-31060D01*
X36383Y-31088D01*
X36363Y-31112D01*
X36339Y-31132D01*
X36312Y-31147D01*
X36282Y-31156D01*
X36251Y-31159D01*
X36221Y-31157D01*
X36191Y-31148D01*
X36163Y-31133D01*
X36139Y-31114D01*
X36118Y-31090D01*
X36103Y-31063D01*
X36094Y-31033D01*
X36091Y-31002D01*
X36093Y-30972D01*
X36102Y-30942D01*
X36116Y-30914D01*
X36135Y-30889D01*
X36159Y-30869D01*
X36186Y-30854D01*
X36216Y-30844D01*
X36247Y-30841D01*
X36277Y-30843D01*
X36307Y-30851D01*
X36335Y-30865D01*
X36360Y-30885D01*
X36380Y-30908D01*
X36396Y-30935D01*
X36406Y-30965D01*
X36409Y-30996D01*
X36410Y-31000D01*
X36090Y-30840D02*
X36410Y-31160D01*
X36410Y-30840D02*
X36090Y-31160D01*
X36410Y-35000D02*
X36406Y-35031D01*
X36397Y-35060D01*
X36383Y-35088D01*
X36363Y-35112D01*
X36339Y-35132D01*
X36312Y-35147D01*
X36282Y-35156D01*
X36251Y-35159D01*
X36221Y-35157D01*
X36191Y-35148D01*
X36163Y-35133D01*
X36139Y-35114D01*
X36118Y-35090D01*
X36103Y-35063D01*
X36094Y-35033D01*
X36091Y-35002D01*
X36093Y-34972D01*
X36102Y-34942D01*
X36116Y-34914D01*
X36135Y-34889D01*
X36159Y-34869D01*
X36186Y-34854D01*
X36216Y-34844D01*
X36247Y-34841D01*
X36277Y-34843D01*
X36307Y-34851D01*
X36335Y-34865D01*
X36360Y-34885D01*
X36380Y-34908D01*
X36396Y-34935D01*
X36406Y-34965D01*
X36409Y-34996D01*
X36410Y-35000D01*
X36090Y-34840D02*
X36410Y-35160D01*
X36410Y-34840D02*
X36090Y-35160D01*
X36410Y-38000D02*
X36406Y-38031D01*
X36397Y-38060D01*
X36383Y-38088D01*
X36363Y-38112D01*
X36339Y-38132D01*
X36312Y-38147D01*
X36282Y-38156D01*
X36251Y-38159D01*
X36221Y-38157D01*
X36191Y-38148D01*
X36163Y-38133D01*
X36139Y-38114D01*
X36118Y-38090D01*
X36103Y-38063D01*
X36094Y-38033D01*
X36091Y-38002D01*
X36093Y-37972D01*
X36102Y-37942D01*
X36116Y-37914D01*
X36135Y-37889D01*
X36159Y-37869D01*
X36186Y-37854D01*
X36216Y-37844D01*
X36247Y-37841D01*
X36277Y-37843D01*
X36307Y-37851D01*
X36335Y-37865D01*
X36360Y-37885D01*
X36380Y-37908D01*
X36396Y-37935D01*
X36406Y-37965D01*
X36409Y-37996D01*
X36410Y-38000D01*
X36090Y-37840D02*
X36410Y-38160D01*
X36410Y-37840D02*
X36090Y-38160D01*
X36410Y-42000D02*
X36406Y-42031D01*
X36397Y-42060D01*
X36383Y-42088D01*
X36363Y-42112D01*
X36339Y-42132D01*
X36312Y-42147D01*
X36282Y-42156D01*
X36251Y-42159D01*
X36221Y-42157D01*
X36191Y-42148D01*
X36163Y-42133D01*
X36139Y-42114D01*
X36118Y-42090D01*
X36103Y-42063D01*
X36094Y-42033D01*
X36091Y-42002D01*
X36093Y-41972D01*
X36102Y-41942D01*
X36116Y-41914D01*
X36135Y-41889D01*
X36159Y-41869D01*
X36186Y-41854D01*
X36216Y-41844D01*
X36247Y-41841D01*
X36277Y-41843D01*
X36307Y-41851D01*
X36335Y-41865D01*
X36360Y-41885D01*
X36380Y-41908D01*
X36396Y-41935D01*
X36406Y-41965D01*
X36409Y-41996D01*
X36410Y-42000D01*
X36090Y-41840D02*
X36410Y-42160D01*
X36410Y-41840D02*
X36090Y-42160D01*
X36410Y-45000D02*
X36406Y-45031D01*
X36397Y-45060D01*
X36383Y-45088D01*
X36363Y-45112D01*
X36339Y-45132D01*
X36312Y-45147D01*
X36282Y-45156D01*
X36251Y-45159D01*
X36221Y-45157D01*
X36191Y-45148D01*
X36163Y-45133D01*
X36139Y-45114D01*
X36118Y-45090D01*
X36103Y-45063D01*
X36094Y-45033D01*
X36091Y-45002D01*
X36093Y-44972D01*
X36102Y-44942D01*
X36116Y-44914D01*
X36135Y-44889D01*
X36159Y-44869D01*
X36186Y-44854D01*
X36216Y-44844D01*
X36247Y-44841D01*
X36277Y-44843D01*
X36307Y-44851D01*
X36335Y-44865D01*
X36360Y-44885D01*
X36380Y-44908D01*
X36396Y-44935D01*
X36406Y-44965D01*
X36409Y-44996D01*
X36410Y-45000D01*
X36090Y-44840D02*
X36410Y-45160D01*
X36410Y-44840D02*
X36090Y-45160D01*
X36910Y-33250D02*
X36906Y-33281D01*
X36897Y-33310D01*
X36883Y-33338D01*
X36863Y-33362D01*
X36839Y-33382D01*
X36812Y-33397D01*
X36782Y-33406D01*
X36751Y-33409D01*
X36721Y-33407D01*
X36691Y-33398D01*
X36663Y-33383D01*
X36639Y-33364D01*
X36618Y-33340D01*
X36603Y-33313D01*
X36594Y-33283D01*
X36591Y-33252D01*
X36593Y-33222D01*
X36602Y-33192D01*
X36616Y-33164D01*
X36635Y-33139D01*
X36659Y-33119D01*
X36686Y-33104D01*
X36716Y-33094D01*
X36747Y-33091D01*
X36777Y-33093D01*
X36807Y-33101D01*
X36835Y-33115D01*
X36860Y-33135D01*
X36880Y-33158D01*
X36896Y-33185D01*
X36906Y-33215D01*
X36909Y-33246D01*
X36910Y-33250D01*
X36590Y-33090D02*
X36910Y-33410D01*
X36910Y-33090D02*
X36590Y-33410D01*
X36910Y-40250D02*
X36906Y-40281D01*
X36897Y-40310D01*
X36883Y-40338D01*
X36863Y-40362D01*
X36839Y-40382D01*
X36812Y-40397D01*
X36782Y-40406D01*
X36751Y-40409D01*
X36721Y-40407D01*
X36691Y-40398D01*
X36663Y-40383D01*
X36639Y-40364D01*
X36618Y-40340D01*
X36603Y-40313D01*
X36594Y-40283D01*
X36591Y-40252D01*
X36593Y-40222D01*
X36602Y-40192D01*
X36616Y-40164D01*
X36635Y-40139D01*
X36659Y-40119D01*
X36686Y-40104D01*
X36716Y-40094D01*
X36747Y-40091D01*
X36777Y-40093D01*
X36807Y-40101D01*
X36835Y-40115D01*
X36860Y-40135D01*
X36880Y-40158D01*
X36896Y-40185D01*
X36906Y-40215D01*
X36909Y-40246D01*
X36910Y-40250D01*
X36590Y-40090D02*
X36910Y-40410D01*
X36910Y-40090D02*
X36590Y-40410D01*
X37410Y-28000D02*
X37406Y-28031D01*
X37397Y-28060D01*
X37383Y-28088D01*
X37363Y-28112D01*
X37339Y-28132D01*
X37312Y-28147D01*
X37282Y-28156D01*
X37251Y-28159D01*
X37221Y-28157D01*
X37191Y-28148D01*
X37163Y-28133D01*
X37139Y-28114D01*
X37118Y-28090D01*
X37103Y-28063D01*
X37094Y-28033D01*
X37091Y-28002D01*
X37093Y-27972D01*
X37102Y-27942D01*
X37116Y-27914D01*
X37135Y-27889D01*
X37159Y-27869D01*
X37186Y-27854D01*
X37216Y-27844D01*
X37247Y-27841D01*
X37277Y-27843D01*
X37307Y-27851D01*
X37335Y-27865D01*
X37360Y-27885D01*
X37380Y-27908D01*
X37396Y-27935D01*
X37406Y-27965D01*
X37409Y-27996D01*
X37410Y-28000D01*
X37090Y-27840D02*
X37410Y-28160D01*
X37410Y-27840D02*
X37090Y-28160D01*
X37410Y-31000D02*
X37406Y-31031D01*
X37397Y-31060D01*
X37383Y-31088D01*
X37363Y-31112D01*
X37339Y-31132D01*
X37312Y-31147D01*
X37282Y-31156D01*
X37251Y-31159D01*
X37221Y-31157D01*
X37191Y-31148D01*
X37163Y-31133D01*
X37139Y-31114D01*
X37118Y-31090D01*
X37103Y-31063D01*
X37094Y-31033D01*
X37091Y-31002D01*
X37093Y-30972D01*
X37102Y-30942D01*
X37116Y-30914D01*
X37135Y-30889D01*
X37159Y-30869D01*
X37186Y-30854D01*
X37216Y-30844D01*
X37247Y-30841D01*
X37277Y-30843D01*
X37307Y-30851D01*
X37335Y-30865D01*
X37360Y-30885D01*
X37380Y-30908D01*
X37396Y-30935D01*
X37406Y-30965D01*
X37409Y-30996D01*
X37410Y-31000D01*
X37090Y-30840D02*
X37410Y-31160D01*
X37410Y-30840D02*
X37090Y-31160D01*
X37410Y-35000D02*
X37406Y-35031D01*
X37397Y-35060D01*
X37383Y-35088D01*
X37363Y-35112D01*
X37339Y-35132D01*
X37312Y-35147D01*
X37282Y-35156D01*
X37251Y-35159D01*
X37221Y-35157D01*
X37191Y-35148D01*
X37163Y-35133D01*
X37139Y-35114D01*
X37118Y-35090D01*
X37103Y-35063D01*
X37094Y-35033D01*
X37091Y-35002D01*
X37093Y-34972D01*
X37102Y-34942D01*
X37116Y-34914D01*
X37135Y-34889D01*
X37159Y-34869D01*
X37186Y-34854D01*
X37216Y-34844D01*
X37247Y-34841D01*
X37277Y-34843D01*
X37307Y-34851D01*
X37335Y-34865D01*
X37360Y-34885D01*
X37380Y-34908D01*
X37396Y-34935D01*
X37406Y-34965D01*
X37409Y-34996D01*
X37410Y-35000D01*
X37090Y-34840D02*
X37410Y-35160D01*
X37410Y-34840D02*
X37090Y-35160D01*
X37410Y-38000D02*
X37406Y-38031D01*
X37397Y-38060D01*
X37383Y-38088D01*
X37363Y-38112D01*
X37339Y-38132D01*
X37312Y-38147D01*
X37282Y-38156D01*
X37251Y-38159D01*
X37221Y-38157D01*
X37191Y-38148D01*
X37163Y-38133D01*
X37139Y-38114D01*
X37118Y-38090D01*
X37103Y-38063D01*
X37094Y-38033D01*
X37091Y-38002D01*
X37093Y-37972D01*
X37102Y-37942D01*
X37116Y-37914D01*
X37135Y-37889D01*
X37159Y-37869D01*
X37186Y-37854D01*
X37216Y-37844D01*
X37247Y-37841D01*
X37277Y-37843D01*
X37307Y-37851D01*
X37335Y-37865D01*
X37360Y-37885D01*
X37380Y-37908D01*
X37396Y-37935D01*
X37406Y-37965D01*
X37409Y-37996D01*
X37410Y-38000D01*
X37090Y-37840D02*
X37410Y-38160D01*
X37410Y-37840D02*
X37090Y-38160D01*
X37410Y-42000D02*
X37406Y-42031D01*
X37397Y-42060D01*
X37383Y-42088D01*
X37363Y-42112D01*
X37339Y-42132D01*
X37312Y-42147D01*
X37282Y-42156D01*
X37251Y-42159D01*
X37221Y-42157D01*
X37191Y-42148D01*
X37163Y-42133D01*
X37139Y-42114D01*
X37118Y-42090D01*
X37103Y-42063D01*
X37094Y-42033D01*
X37091Y-42002D01*
X37093Y-41972D01*
X37102Y-41942D01*
X37116Y-41914D01*
X37135Y-41889D01*
X37159Y-41869D01*
X37186Y-41854D01*
X37216Y-41844D01*
X37247Y-41841D01*
X37277Y-41843D01*
X37307Y-41851D01*
X37335Y-41865D01*
X37360Y-41885D01*
X37380Y-41908D01*
X37396Y-41935D01*
X37406Y-41965D01*
X37409Y-41996D01*
X37410Y-42000D01*
X37090Y-41840D02*
X37410Y-42160D01*
X37410Y-41840D02*
X37090Y-42160D01*
X37410Y-45000D02*
X37406Y-45031D01*
X37397Y-45060D01*
X37383Y-45088D01*
X37363Y-45112D01*
X37339Y-45132D01*
X37312Y-45147D01*
X37282Y-45156D01*
X37251Y-45159D01*
X37221Y-45157D01*
X37191Y-45148D01*
X37163Y-45133D01*
X37139Y-45114D01*
X37118Y-45090D01*
X37103Y-45063D01*
X37094Y-45033D01*
X37091Y-45002D01*
X37093Y-44972D01*
X37102Y-44942D01*
X37116Y-44914D01*
X37135Y-44889D01*
X37159Y-44869D01*
X37186Y-44854D01*
X37216Y-44844D01*
X37247Y-44841D01*
X37277Y-44843D01*
X37307Y-44851D01*
X37335Y-44865D01*
X37360Y-44885D01*
X37380Y-44908D01*
X37396Y-44935D01*
X37406Y-44965D01*
X37409Y-44996D01*
X37410Y-45000D01*
X37090Y-44840D02*
X37410Y-45160D01*
X37410Y-44840D02*
X37090Y-45160D01*
X38410Y-32250D02*
X38406Y-32281D01*
X38397Y-32310D01*
X38383Y-32338D01*
X38363Y-32362D01*
X38339Y-32382D01*
X38312Y-32397D01*
X38282Y-32406D01*
X38251Y-32409D01*
X38221Y-32407D01*
X38191Y-32398D01*
X38163Y-32383D01*
X38139Y-32364D01*
X38118Y-32340D01*
X38103Y-32313D01*
X38094Y-32283D01*
X38091Y-32252D01*
X38093Y-32222D01*
X38102Y-32192D01*
X38116Y-32164D01*
X38135Y-32139D01*
X38159Y-32119D01*
X38186Y-32104D01*
X38216Y-32094D01*
X38247Y-32091D01*
X38277Y-32093D01*
X38307Y-32101D01*
X38335Y-32115D01*
X38360Y-32135D01*
X38380Y-32158D01*
X38396Y-32185D01*
X38406Y-32215D01*
X38409Y-32246D01*
X38410Y-32250D01*
X38090Y-32090D02*
X38410Y-32410D01*
X38410Y-32090D02*
X38090Y-32410D01*
X38410Y-39250D02*
X38406Y-39281D01*
X38397Y-39310D01*
X38383Y-39338D01*
X38363Y-39362D01*
X38339Y-39382D01*
X38312Y-39397D01*
X38282Y-39406D01*
X38251Y-39409D01*
X38221Y-39407D01*
X38191Y-39398D01*
X38163Y-39383D01*
X38139Y-39364D01*
X38118Y-39340D01*
X38103Y-39313D01*
X38094Y-39283D01*
X38091Y-39252D01*
X38093Y-39222D01*
X38102Y-39192D01*
X38116Y-39164D01*
X38135Y-39139D01*
X38159Y-39119D01*
X38186Y-39104D01*
X38216Y-39094D01*
X38247Y-39091D01*
X38277Y-39093D01*
X38307Y-39101D01*
X38335Y-39115D01*
X38360Y-39135D01*
X38380Y-39158D01*
X38396Y-39185D01*
X38406Y-39215D01*
X38409Y-39246D01*
X38410Y-39250D01*
X38090Y-39090D02*
X38410Y-39410D01*
X38410Y-39090D02*
X38090Y-39410D01*
X39910Y-33250D02*
X39906Y-33281D01*
X39897Y-33310D01*
X39883Y-33338D01*
X39863Y-33362D01*
X39839Y-33382D01*
X39812Y-33397D01*
X39782Y-33406D01*
X39751Y-33409D01*
X39721Y-33407D01*
X39691Y-33398D01*
X39663Y-33383D01*
X39639Y-33364D01*
X39618Y-33340D01*
X39603Y-33313D01*
X39594Y-33283D01*
X39591Y-33252D01*
X39593Y-33222D01*
X39602Y-33192D01*
X39616Y-33164D01*
X39635Y-33139D01*
X39659Y-33119D01*
X39686Y-33104D01*
X39716Y-33094D01*
X39747Y-33091D01*
X39777Y-33093D01*
X39807Y-33101D01*
X39835Y-33115D01*
X39860Y-33135D01*
X39880Y-33158D01*
X39896Y-33185D01*
X39906Y-33215D01*
X39909Y-33246D01*
X39910Y-33250D01*
X39590Y-33090D02*
X39910Y-33410D01*
X39910Y-33090D02*
X39590Y-33410D01*
X39910Y-40250D02*
X39906Y-40281D01*
X39897Y-40310D01*
X39883Y-40338D01*
X39863Y-40362D01*
X39839Y-40382D01*
X39812Y-40397D01*
X39782Y-40406D01*
X39751Y-40409D01*
X39721Y-40407D01*
X39691Y-40398D01*
X39663Y-40383D01*
X39639Y-40364D01*
X39618Y-40340D01*
X39603Y-40313D01*
X39594Y-40283D01*
X39591Y-40252D01*
X39593Y-40222D01*
X39602Y-40192D01*
X39616Y-40164D01*
X39635Y-40139D01*
X39659Y-40119D01*
X39686Y-40104D01*
X39716Y-40094D01*
X39747Y-40091D01*
X39777Y-40093D01*
X39807Y-40101D01*
X39835Y-40115D01*
X39860Y-40135D01*
X39880Y-40158D01*
X39896Y-40185D01*
X39906Y-40215D01*
X39909Y-40246D01*
X39910Y-40250D01*
X39590Y-40090D02*
X39910Y-40410D01*
X39910Y-40090D02*
X39590Y-40410D01*
X47910Y-47500D02*
X47906Y-47531D01*
X47897Y-47560D01*
X47883Y-47588D01*
X47863Y-47612D01*
X47839Y-47632D01*
X47812Y-47647D01*
X47782Y-47656D01*
X47751Y-47659D01*
X47721Y-47657D01*
X47691Y-47648D01*
X47663Y-47633D01*
X47639Y-47614D01*
X47618Y-47590D01*
X47603Y-47563D01*
X47594Y-47533D01*
X47591Y-47502D01*
X47593Y-47472D01*
X47602Y-47442D01*
X47616Y-47414D01*
X47635Y-47389D01*
X47659Y-47369D01*
X47686Y-47354D01*
X47716Y-47344D01*
X47747Y-47341D01*
X47777Y-47343D01*
X47807Y-47351D01*
X47835Y-47365D01*
X47860Y-47385D01*
X47880Y-47408D01*
X47896Y-47435D01*
X47906Y-47465D01*
X47909Y-47496D01*
X47910Y-47500D01*
X47590Y-47340D02*
X47910Y-47660D01*
X47910Y-47340D02*
X47590Y-47660D01*
X47910Y-50500D02*
X47906Y-50531D01*
X47897Y-50560D01*
X47883Y-50588D01*
X47863Y-50612D01*
X47839Y-50632D01*
X47812Y-50647D01*
X47782Y-50656D01*
X47751Y-50659D01*
X47721Y-50657D01*
X47691Y-50648D01*
X47663Y-50633D01*
X47639Y-50614D01*
X47618Y-50590D01*
X47603Y-50563D01*
X47594Y-50533D01*
X47591Y-50502D01*
X47593Y-50472D01*
X47602Y-50442D01*
X47616Y-50414D01*
X47635Y-50389D01*
X47659Y-50369D01*
X47686Y-50354D01*
X47716Y-50344D01*
X47747Y-50341D01*
X47777Y-50343D01*
X47807Y-50351D01*
X47835Y-50365D01*
X47860Y-50385D01*
X47880Y-50408D01*
X47896Y-50435D01*
X47906Y-50465D01*
X47909Y-50496D01*
X47910Y-50500D01*
X47590Y-50340D02*
X47910Y-50660D01*
X47910Y-50340D02*
X47590Y-50660D01*
X48660Y-25250D02*
X48656Y-25281D01*
X48647Y-25310D01*
X48633Y-25338D01*
X48613Y-25362D01*
X48589Y-25382D01*
X48562Y-25397D01*
X48532Y-25406D01*
X48501Y-25409D01*
X48471Y-25407D01*
X48441Y-25398D01*
X48413Y-25383D01*
X48389Y-25364D01*
X48368Y-25340D01*
X48353Y-25313D01*
X48344Y-25283D01*
X48341Y-25252D01*
X48343Y-25222D01*
X48352Y-25192D01*
X48366Y-25164D01*
X48385Y-25139D01*
X48409Y-25119D01*
X48436Y-25104D01*
X48466Y-25094D01*
X48497Y-25091D01*
X48527Y-25093D01*
X48557Y-25101D01*
X48585Y-25115D01*
X48610Y-25135D01*
X48630Y-25158D01*
X48646Y-25185D01*
X48656Y-25215D01*
X48659Y-25246D01*
X48660Y-25250D01*
X48340Y-25090D02*
X48660Y-25410D01*
X48660Y-25090D02*
X48340Y-25410D01*
X48660Y-28250D02*
X48656Y-28281D01*
X48647Y-28310D01*
X48633Y-28338D01*
X48613Y-28362D01*
X48589Y-28382D01*
X48562Y-28397D01*
X48532Y-28406D01*
X48501Y-28409D01*
X48471Y-28407D01*
X48441Y-28398D01*
X48413Y-28383D01*
X48389Y-28364D01*
X48368Y-28340D01*
X48353Y-28313D01*
X48344Y-28283D01*
X48341Y-28252D01*
X48343Y-28222D01*
X48352Y-28192D01*
X48366Y-28164D01*
X48385Y-28139D01*
X48409Y-28119D01*
X48436Y-28104D01*
X48466Y-28094D01*
X48497Y-28091D01*
X48527Y-28093D01*
X48557Y-28101D01*
X48585Y-28115D01*
X48610Y-28135D01*
X48630Y-28158D01*
X48646Y-28185D01*
X48656Y-28215D01*
X48659Y-28246D01*
X48660Y-28250D01*
X48340Y-28090D02*
X48660Y-28410D01*
X48660Y-28090D02*
X48340Y-28410D01*
X48910Y-34250D02*
X48906Y-34281D01*
X48897Y-34310D01*
X48883Y-34338D01*
X48863Y-34362D01*
X48839Y-34382D01*
X48812Y-34397D01*
X48782Y-34406D01*
X48751Y-34409D01*
X48721Y-34407D01*
X48691Y-34398D01*
X48663Y-34383D01*
X48639Y-34364D01*
X48618Y-34340D01*
X48603Y-34313D01*
X48594Y-34283D01*
X48591Y-34252D01*
X48593Y-34222D01*
X48602Y-34192D01*
X48616Y-34164D01*
X48635Y-34139D01*
X48659Y-34119D01*
X48686Y-34104D01*
X48716Y-34094D01*
X48747Y-34091D01*
X48777Y-34093D01*
X48807Y-34101D01*
X48835Y-34115D01*
X48860Y-34135D01*
X48880Y-34158D01*
X48896Y-34185D01*
X48906Y-34215D01*
X48909Y-34246D01*
X48910Y-34250D01*
X48590Y-34090D02*
X48910Y-34410D01*
X48910Y-34090D02*
X48590Y-34410D01*
X48910Y-37250D02*
X48906Y-37281D01*
X48897Y-37310D01*
X48883Y-37338D01*
X48863Y-37362D01*
X48839Y-37382D01*
X48812Y-37397D01*
X48782Y-37406D01*
X48751Y-37409D01*
X48721Y-37407D01*
X48691Y-37398D01*
X48663Y-37383D01*
X48639Y-37364D01*
X48618Y-37340D01*
X48603Y-37313D01*
X48594Y-37283D01*
X48591Y-37252D01*
X48593Y-37222D01*
X48602Y-37192D01*
X48616Y-37164D01*
X48635Y-37139D01*
X48659Y-37119D01*
X48686Y-37104D01*
X48716Y-37094D01*
X48747Y-37091D01*
X48777Y-37093D01*
X48807Y-37101D01*
X48835Y-37115D01*
X48860Y-37135D01*
X48880Y-37158D01*
X48896Y-37185D01*
X48906Y-37215D01*
X48909Y-37246D01*
X48910Y-37250D01*
X48590Y-37090D02*
X48910Y-37410D01*
X48910Y-37090D02*
X48590Y-37410D01*
X48910Y-39250D02*
X48906Y-39281D01*
X48897Y-39310D01*
X48883Y-39338D01*
X48863Y-39362D01*
X48839Y-39382D01*
X48812Y-39397D01*
X48782Y-39406D01*
X48751Y-39409D01*
X48721Y-39407D01*
X48691Y-39398D01*
X48663Y-39383D01*
X48639Y-39364D01*
X48618Y-39340D01*
X48603Y-39313D01*
X48594Y-39283D01*
X48591Y-39252D01*
X48593Y-39222D01*
X48602Y-39192D01*
X48616Y-39164D01*
X48635Y-39139D01*
X48659Y-39119D01*
X48686Y-39104D01*
X48716Y-39094D01*
X48747Y-39091D01*
X48777Y-39093D01*
X48807Y-39101D01*
X48835Y-39115D01*
X48860Y-39135D01*
X48880Y-39158D01*
X48896Y-39185D01*
X48906Y-39215D01*
X48909Y-39246D01*
X48910Y-39250D01*
X48590Y-39090D02*
X48910Y-39410D01*
X48910Y-39090D02*
X48590Y-39410D01*
X49660Y-25250D02*
X49656Y-25281D01*
X49647Y-25310D01*
X49633Y-25338D01*
X49613Y-25362D01*
X49589Y-25382D01*
X49562Y-25397D01*
X49532Y-25406D01*
X49501Y-25409D01*
X49471Y-25407D01*
X49441Y-25398D01*
X49413Y-25383D01*
X49389Y-25364D01*
X49368Y-25340D01*
X49353Y-25313D01*
X49344Y-25283D01*
X49341Y-25252D01*
X49343Y-25222D01*
X49352Y-25192D01*
X49366Y-25164D01*
X49385Y-25139D01*
X49409Y-25119D01*
X49436Y-25104D01*
X49466Y-25094D01*
X49497Y-25091D01*
X49527Y-25093D01*
X49557Y-25101D01*
X49585Y-25115D01*
X49610Y-25135D01*
X49630Y-25158D01*
X49646Y-25185D01*
X49656Y-25215D01*
X49659Y-25246D01*
X49660Y-25250D01*
X49340Y-25090D02*
X49660Y-25410D01*
X49660Y-25090D02*
X49340Y-25410D01*
X49660Y-28250D02*
X49656Y-28281D01*
X49647Y-28310D01*
X49633Y-28338D01*
X49613Y-28362D01*
X49589Y-28382D01*
X49562Y-28397D01*
X49532Y-28406D01*
X49501Y-28409D01*
X49471Y-28407D01*
X49441Y-28398D01*
X49413Y-28383D01*
X49389Y-28364D01*
X49368Y-28340D01*
X49353Y-28313D01*
X49344Y-28283D01*
X49341Y-28252D01*
X49343Y-28222D01*
X49352Y-28192D01*
X49366Y-28164D01*
X49385Y-28139D01*
X49409Y-28119D01*
X49436Y-28104D01*
X49466Y-28094D01*
X49497Y-28091D01*
X49527Y-28093D01*
X49557Y-28101D01*
X49585Y-28115D01*
X49610Y-28135D01*
X49630Y-28158D01*
X49646Y-28185D01*
X49656Y-28215D01*
X49659Y-28246D01*
X49660Y-28250D01*
X49340Y-28090D02*
X49660Y-28410D01*
X49660Y-28090D02*
X49340Y-28410D01*
X50660Y-25250D02*
X50656Y-25281D01*
X50647Y-25310D01*
X50633Y-25338D01*
X50613Y-25362D01*
X50589Y-25382D01*
X50562Y-25397D01*
X50532Y-25406D01*
X50501Y-25409D01*
X50471Y-25407D01*
X50441Y-25398D01*
X50413Y-25383D01*
X50389Y-25364D01*
X50368Y-25340D01*
X50353Y-25313D01*
X50344Y-25283D01*
X50341Y-25252D01*
X50343Y-25222D01*
X50352Y-25192D01*
X50366Y-25164D01*
X50385Y-25139D01*
X50409Y-25119D01*
X50436Y-25104D01*
X50466Y-25094D01*
X50497Y-25091D01*
X50527Y-25093D01*
X50557Y-25101D01*
X50585Y-25115D01*
X50610Y-25135D01*
X50630Y-25158D01*
X50646Y-25185D01*
X50656Y-25215D01*
X50659Y-25246D01*
X50660Y-25250D01*
X50340Y-25090D02*
X50660Y-25410D01*
X50660Y-25090D02*
X50340Y-25410D01*
X50660Y-28250D02*
X50656Y-28281D01*
X50647Y-28310D01*
X50633Y-28338D01*
X50613Y-28362D01*
X50589Y-28382D01*
X50562Y-28397D01*
X50532Y-28406D01*
X50501Y-28409D01*
X50471Y-28407D01*
X50441Y-28398D01*
X50413Y-28383D01*
X50389Y-28364D01*
X50368Y-28340D01*
X50353Y-28313D01*
X50344Y-28283D01*
X50341Y-28252D01*
X50343Y-28222D01*
X50352Y-28192D01*
X50366Y-28164D01*
X50385Y-28139D01*
X50409Y-28119D01*
X50436Y-28104D01*
X50466Y-28094D01*
X50497Y-28091D01*
X50527Y-28093D01*
X50557Y-28101D01*
X50585Y-28115D01*
X50610Y-28135D01*
X50630Y-28158D01*
X50646Y-28185D01*
X50656Y-28215D01*
X50659Y-28246D01*
X50660Y-28250D01*
X50340Y-28090D02*
X50660Y-28410D01*
X50660Y-28090D02*
X50340Y-28410D01*
X51660Y-25250D02*
X51656Y-25281D01*
X51647Y-25310D01*
X51633Y-25338D01*
X51613Y-25362D01*
X51589Y-25382D01*
X51562Y-25397D01*
X51532Y-25406D01*
X51501Y-25409D01*
X51471Y-25407D01*
X51441Y-25398D01*
X51413Y-25383D01*
X51389Y-25364D01*
X51368Y-25340D01*
X51353Y-25313D01*
X51344Y-25283D01*
X51341Y-25252D01*
X51343Y-25222D01*
X51352Y-25192D01*
X51366Y-25164D01*
X51385Y-25139D01*
X51409Y-25119D01*
X51436Y-25104D01*
X51466Y-25094D01*
X51497Y-25091D01*
X51527Y-25093D01*
X51557Y-25101D01*
X51585Y-25115D01*
X51610Y-25135D01*
X51630Y-25158D01*
X51646Y-25185D01*
X51656Y-25215D01*
X51659Y-25246D01*
X51660Y-25250D01*
X51340Y-25090D02*
X51660Y-25410D01*
X51660Y-25090D02*
X51340Y-25410D01*
X51660Y-28250D02*
X51656Y-28281D01*
X51647Y-28310D01*
X51633Y-28338D01*
X51613Y-28362D01*
X51589Y-28382D01*
X51562Y-28397D01*
X51532Y-28406D01*
X51501Y-28409D01*
X51471Y-28407D01*
X51441Y-28398D01*
X51413Y-28383D01*
X51389Y-28364D01*
X51368Y-28340D01*
X51353Y-28313D01*
X51344Y-28283D01*
X51341Y-28252D01*
X51343Y-28222D01*
X51352Y-28192D01*
X51366Y-28164D01*
X51385Y-28139D01*
X51409Y-28119D01*
X51436Y-28104D01*
X51466Y-28094D01*
X51497Y-28091D01*
X51527Y-28093D01*
X51557Y-28101D01*
X51585Y-28115D01*
X51610Y-28135D01*
X51630Y-28158D01*
X51646Y-28185D01*
X51656Y-28215D01*
X51659Y-28246D01*
X51660Y-28250D01*
X51340Y-28090D02*
X51660Y-28410D01*
X51660Y-28090D02*
X51340Y-28410D01*
X52660Y-25250D02*
X52656Y-25281D01*
X52647Y-25310D01*
X52633Y-25338D01*
X52613Y-25362D01*
X52589Y-25382D01*
X52562Y-25397D01*
X52532Y-25406D01*
X52501Y-25409D01*
X52471Y-25407D01*
X52441Y-25398D01*
X52413Y-25383D01*
X52389Y-25364D01*
X52368Y-25340D01*
X52353Y-25313D01*
X52344Y-25283D01*
X52341Y-25252D01*
X52343Y-25222D01*
X52352Y-25192D01*
X52366Y-25164D01*
X52385Y-25139D01*
X52409Y-25119D01*
X52436Y-25104D01*
X52466Y-25094D01*
X52497Y-25091D01*
X52527Y-25093D01*
X52557Y-25101D01*
X52585Y-25115D01*
X52610Y-25135D01*
X52630Y-25158D01*
X52646Y-25185D01*
X52656Y-25215D01*
X52659Y-25246D01*
X52660Y-25250D01*
X52340Y-25090D02*
X52660Y-25410D01*
X52660Y-25090D02*
X52340Y-25410D01*
X52660Y-28250D02*
X52656Y-28281D01*
X52647Y-28310D01*
X52633Y-28338D01*
X52613Y-28362D01*
X52589Y-28382D01*
X52562Y-28397D01*
X52532Y-28406D01*
X52501Y-28409D01*
X52471Y-28407D01*
X52441Y-28398D01*
X52413Y-28383D01*
X52389Y-28364D01*
X52368Y-28340D01*
X52353Y-28313D01*
X52344Y-28283D01*
X52341Y-28252D01*
X52343Y-28222D01*
X52352Y-28192D01*
X52366Y-28164D01*
X52385Y-28139D01*
X52409Y-28119D01*
X52436Y-28104D01*
X52466Y-28094D01*
X52497Y-28091D01*
X52527Y-28093D01*
X52557Y-28101D01*
X52585Y-28115D01*
X52610Y-28135D01*
X52630Y-28158D01*
X52646Y-28185D01*
X52656Y-28215D01*
X52659Y-28246D01*
X52660Y-28250D01*
X52340Y-28090D02*
X52660Y-28410D01*
X52660Y-28090D02*
X52340Y-28410D01*
X53660Y-25250D02*
X53656Y-25281D01*
X53647Y-25310D01*
X53633Y-25338D01*
X53613Y-25362D01*
X53589Y-25382D01*
X53562Y-25397D01*
X53532Y-25406D01*
X53501Y-25409D01*
X53471Y-25407D01*
X53441Y-25398D01*
X53413Y-25383D01*
X53389Y-25364D01*
X53368Y-25340D01*
X53353Y-25313D01*
X53344Y-25283D01*
X53341Y-25252D01*
X53343Y-25222D01*
X53352Y-25192D01*
X53366Y-25164D01*
X53385Y-25139D01*
X53409Y-25119D01*
X53436Y-25104D01*
X53466Y-25094D01*
X53497Y-25091D01*
X53527Y-25093D01*
X53557Y-25101D01*
X53585Y-25115D01*
X53610Y-25135D01*
X53630Y-25158D01*
X53646Y-25185D01*
X53656Y-25215D01*
X53659Y-25246D01*
X53660Y-25250D01*
X53340Y-25090D02*
X53660Y-25410D01*
X53660Y-25090D02*
X53340Y-25410D01*
X53660Y-28250D02*
X53656Y-28281D01*
X53647Y-28310D01*
X53633Y-28338D01*
X53613Y-28362D01*
X53589Y-28382D01*
X53562Y-28397D01*
X53532Y-28406D01*
X53501Y-28409D01*
X53471Y-28407D01*
X53441Y-28398D01*
X53413Y-28383D01*
X53389Y-28364D01*
X53368Y-28340D01*
X53353Y-28313D01*
X53344Y-28283D01*
X53341Y-28252D01*
X53343Y-28222D01*
X53352Y-28192D01*
X53366Y-28164D01*
X53385Y-28139D01*
X53409Y-28119D01*
X53436Y-28104D01*
X53466Y-28094D01*
X53497Y-28091D01*
X53527Y-28093D01*
X53557Y-28101D01*
X53585Y-28115D01*
X53610Y-28135D01*
X53630Y-28158D01*
X53646Y-28185D01*
X53656Y-28215D01*
X53659Y-28246D01*
X53660Y-28250D01*
X53340Y-28090D02*
X53660Y-28410D01*
X53660Y-28090D02*
X53340Y-28410D01*
X54660Y-25250D02*
X54656Y-25281D01*
X54647Y-25310D01*
X54633Y-25338D01*
X54613Y-25362D01*
X54589Y-25382D01*
X54562Y-25397D01*
X54532Y-25406D01*
X54501Y-25409D01*
X54471Y-25407D01*
X54441Y-25398D01*
X54413Y-25383D01*
X54389Y-25364D01*
X54368Y-25340D01*
X54353Y-25313D01*
X54344Y-25283D01*
X54341Y-25252D01*
X54343Y-25222D01*
X54352Y-25192D01*
X54366Y-25164D01*
X54385Y-25139D01*
X54409Y-25119D01*
X54436Y-25104D01*
X54466Y-25094D01*
X54497Y-25091D01*
X54527Y-25093D01*
X54557Y-25101D01*
X54585Y-25115D01*
X54610Y-25135D01*
X54630Y-25158D01*
X54646Y-25185D01*
X54656Y-25215D01*
X54659Y-25246D01*
X54660Y-25250D01*
X54340Y-25090D02*
X54660Y-25410D01*
X54660Y-25090D02*
X54340Y-25410D01*
X54660Y-28250D02*
X54656Y-28281D01*
X54647Y-28310D01*
X54633Y-28338D01*
X54613Y-28362D01*
X54589Y-28382D01*
X54562Y-28397D01*
X54532Y-28406D01*
X54501Y-28409D01*
X54471Y-28407D01*
X54441Y-28398D01*
X54413Y-28383D01*
X54389Y-28364D01*
X54368Y-28340D01*
X54353Y-28313D01*
X54344Y-28283D01*
X54341Y-28252D01*
X54343Y-28222D01*
X54352Y-28192D01*
X54366Y-28164D01*
X54385Y-28139D01*
X54409Y-28119D01*
X54436Y-28104D01*
X54466Y-28094D01*
X54497Y-28091D01*
X54527Y-28093D01*
X54557Y-28101D01*
X54585Y-28115D01*
X54610Y-28135D01*
X54630Y-28158D01*
X54646Y-28185D01*
X54656Y-28215D01*
X54659Y-28246D01*
X54660Y-28250D01*
X54340Y-28090D02*
X54660Y-28410D01*
X54660Y-28090D02*
X54340Y-28410D01*
X56910Y-34250D02*
X56906Y-34281D01*
X56897Y-34310D01*
X56883Y-34338D01*
X56863Y-34362D01*
X56839Y-34382D01*
X56812Y-34397D01*
X56782Y-34406D01*
X56751Y-34409D01*
X56721Y-34407D01*
X56691Y-34398D01*
X56663Y-34383D01*
X56639Y-34364D01*
X56618Y-34340D01*
X56603Y-34313D01*
X56594Y-34283D01*
X56591Y-34252D01*
X56593Y-34222D01*
X56602Y-34192D01*
X56616Y-34164D01*
X56635Y-34139D01*
X56659Y-34119D01*
X56686Y-34104D01*
X56716Y-34094D01*
X56747Y-34091D01*
X56777Y-34093D01*
X56807Y-34101D01*
X56835Y-34115D01*
X56860Y-34135D01*
X56880Y-34158D01*
X56896Y-34185D01*
X56906Y-34215D01*
X56909Y-34246D01*
X56910Y-34250D01*
X56590Y-34090D02*
X56910Y-34410D01*
X56910Y-34090D02*
X56590Y-34410D01*
X56910Y-38250D02*
X56906Y-38281D01*
X56897Y-38310D01*
X56883Y-38338D01*
X56863Y-38362D01*
X56839Y-38382D01*
X56812Y-38397D01*
X56782Y-38406D01*
X56751Y-38409D01*
X56721Y-38407D01*
X56691Y-38398D01*
X56663Y-38383D01*
X56639Y-38364D01*
X56618Y-38340D01*
X56603Y-38313D01*
X56594Y-38283D01*
X56591Y-38252D01*
X56593Y-38222D01*
X56602Y-38192D01*
X56616Y-38164D01*
X56635Y-38139D01*
X56659Y-38119D01*
X56686Y-38104D01*
X56716Y-38094D01*
X56747Y-38091D01*
X56777Y-38093D01*
X56807Y-38101D01*
X56835Y-38115D01*
X56860Y-38135D01*
X56880Y-38158D01*
X56896Y-38185D01*
X56906Y-38215D01*
X56909Y-38246D01*
X56910Y-38250D01*
X56590Y-38090D02*
X56910Y-38410D01*
X56910Y-38090D02*
X56590Y-38410D01*
X56910Y-42250D02*
X56906Y-42281D01*
X56897Y-42310D01*
X56883Y-42338D01*
X56863Y-42362D01*
X56839Y-42382D01*
X56812Y-42397D01*
X56782Y-42406D01*
X56751Y-42409D01*
X56721Y-42407D01*
X56691Y-42398D01*
X56663Y-42383D01*
X56639Y-42364D01*
X56618Y-42340D01*
X56603Y-42313D01*
X56594Y-42283D01*
X56591Y-42252D01*
X56593Y-42222D01*
X56602Y-42192D01*
X56616Y-42164D01*
X56635Y-42139D01*
X56659Y-42119D01*
X56686Y-42104D01*
X56716Y-42094D01*
X56747Y-42091D01*
X56777Y-42093D01*
X56807Y-42101D01*
X56835Y-42115D01*
X56860Y-42135D01*
X56880Y-42158D01*
X56896Y-42185D01*
X56906Y-42215D01*
X56909Y-42246D01*
X56910Y-42250D01*
X56590Y-42090D02*
X56910Y-42410D01*
X56910Y-42090D02*
X56590Y-42410D01*
X63910Y-35750D02*
X63906Y-35781D01*
X63897Y-35810D01*
X63883Y-35838D01*
X63863Y-35862D01*
X63839Y-35882D01*
X63812Y-35897D01*
X63782Y-35906D01*
X63751Y-35909D01*
X63721Y-35907D01*
X63691Y-35898D01*
X63663Y-35883D01*
X63639Y-35864D01*
X63618Y-35840D01*
X63603Y-35813D01*
X63594Y-35783D01*
X63591Y-35752D01*
X63593Y-35722D01*
X63602Y-35692D01*
X63616Y-35664D01*
X63635Y-35639D01*
X63659Y-35619D01*
X63686Y-35604D01*
X63716Y-35594D01*
X63747Y-35591D01*
X63777Y-35593D01*
X63807Y-35601D01*
X63835Y-35615D01*
X63860Y-35635D01*
X63880Y-35658D01*
X63896Y-35685D01*
X63906Y-35715D01*
X63909Y-35746D01*
X63910Y-35750D01*
X63590Y-35590D02*
X63910Y-35910D01*
X63910Y-35590D02*
X63590Y-35910D01*
X63910Y-38750D02*
X63906Y-38781D01*
X63897Y-38810D01*
X63883Y-38838D01*
X63863Y-38862D01*
X63839Y-38882D01*
X63812Y-38897D01*
X63782Y-38906D01*
X63751Y-38909D01*
X63721Y-38907D01*
X63691Y-38898D01*
X63663Y-38883D01*
X63639Y-38864D01*
X63618Y-38840D01*
X63603Y-38813D01*
X63594Y-38783D01*
X63591Y-38752D01*
X63593Y-38722D01*
X63602Y-38692D01*
X63616Y-38664D01*
X63635Y-38639D01*
X63659Y-38619D01*
X63686Y-38604D01*
X63716Y-38594D01*
X63747Y-38591D01*
X63777Y-38593D01*
X63807Y-38601D01*
X63835Y-38615D01*
X63860Y-38635D01*
X63880Y-38658D01*
X63896Y-38685D01*
X63906Y-38715D01*
X63909Y-38746D01*
X63910Y-38750D01*
X63590Y-38590D02*
X63910Y-38910D01*
X63910Y-38590D02*
X63590Y-38910D01*
X22950Y-34000D02*
X22946Y-34038D01*
X22934Y-34076D01*
X22916Y-34110D01*
X22891Y-34140D01*
X22861Y-34165D01*
X22827Y-34184D01*
X22790Y-34195D01*
X22751Y-34199D01*
X22713Y-34196D01*
X22676Y-34185D01*
X22641Y-34167D01*
X22611Y-34142D01*
X22585Y-34112D01*
X22567Y-34078D01*
X22555Y-34041D01*
X22551Y-34002D01*
X22554Y-33964D01*
X22565Y-33927D01*
X22582Y-33892D01*
X22607Y-33862D01*
X22636Y-33836D01*
X22670Y-33817D01*
X22708Y-33805D01*
X22746Y-33801D01*
X22784Y-33804D01*
X22822Y-33814D01*
X22857Y-33832D01*
X22887Y-33856D01*
X22913Y-33885D01*
X22932Y-33919D01*
X22945Y-33956D01*
X22949Y-33995D01*
X22950Y-34000D01*
X22550Y-34000D02*
X22950Y-34000D01*
X22950Y-35000D02*
X22946Y-35038D01*
X22934Y-35076D01*
X22916Y-35110D01*
X22891Y-35140D01*
X22861Y-35165D01*
X22827Y-35184D01*
X22790Y-35195D01*
X22751Y-35199D01*
X22713Y-35196D01*
X22676Y-35185D01*
X22641Y-35167D01*
X22611Y-35142D01*
X22585Y-35112D01*
X22567Y-35078D01*
X22555Y-35041D01*
X22551Y-35002D01*
X22554Y-34964D01*
X22565Y-34927D01*
X22582Y-34892D01*
X22607Y-34862D01*
X22636Y-34836D01*
X22670Y-34817D01*
X22708Y-34805D01*
X22746Y-34801D01*
X22784Y-34804D01*
X22822Y-34814D01*
X22857Y-34832D01*
X22887Y-34856D01*
X22913Y-34885D01*
X22932Y-34919D01*
X22945Y-34956D01*
X22949Y-34995D01*
X22950Y-35000D01*
X22550Y-35000D02*
X22950Y-35000D01*
X22950Y-36000D02*
X22946Y-36038D01*
X22934Y-36076D01*
X22916Y-36110D01*
X22891Y-36140D01*
X22861Y-36165D01*
X22827Y-36184D01*
X22790Y-36195D01*
X22751Y-36199D01*
X22713Y-36196D01*
X22676Y-36185D01*
X22641Y-36167D01*
X22611Y-36142D01*
X22585Y-36112D01*
X22567Y-36078D01*
X22555Y-36041D01*
X22551Y-36002D01*
X22554Y-35964D01*
X22565Y-35927D01*
X22582Y-35892D01*
X22607Y-35862D01*
X22636Y-35836D01*
X22670Y-35817D01*
X22708Y-35805D01*
X22746Y-35801D01*
X22784Y-35804D01*
X22822Y-35814D01*
X22857Y-35832D01*
X22887Y-35856D01*
X22913Y-35885D01*
X22932Y-35919D01*
X22945Y-35956D01*
X22949Y-35995D01*
X22950Y-36000D01*
X22550Y-36000D02*
X22950Y-36000D01*
X22950Y-37000D02*
X22946Y-37038D01*
X22934Y-37076D01*
X22916Y-37110D01*
X22891Y-37140D01*
X22861Y-37165D01*
X22827Y-37184D01*
X22790Y-37195D01*
X22751Y-37199D01*
X22713Y-37196D01*
X22676Y-37185D01*
X22641Y-37167D01*
X22611Y-37142D01*
X22585Y-37112D01*
X22567Y-37078D01*
X22555Y-37041D01*
X22551Y-37002D01*
X22554Y-36964D01*
X22565Y-36927D01*
X22582Y-36892D01*
X22607Y-36862D01*
X22636Y-36836D01*
X22670Y-36817D01*
X22708Y-36805D01*
X22746Y-36801D01*
X22784Y-36804D01*
X22822Y-36814D01*
X22857Y-36832D01*
X22887Y-36856D01*
X22913Y-36885D01*
X22932Y-36919D01*
X22945Y-36956D01*
X22949Y-36995D01*
X22950Y-37000D01*
X22550Y-37000D02*
X22950Y-37000D01*
X22950Y-38000D02*
X22946Y-38038D01*
X22934Y-38076D01*
X22916Y-38110D01*
X22891Y-38140D01*
X22861Y-38165D01*
X22827Y-38184D01*
X22790Y-38195D01*
X22751Y-38199D01*
X22713Y-38196D01*
X22676Y-38185D01*
X22641Y-38167D01*
X22611Y-38142D01*
X22585Y-38112D01*
X22567Y-38078D01*
X22555Y-38041D01*
X22551Y-38002D01*
X22554Y-37964D01*
X22565Y-37927D01*
X22582Y-37892D01*
X22607Y-37862D01*
X22636Y-37836D01*
X22670Y-37817D01*
X22708Y-37805D01*
X22746Y-37801D01*
X22784Y-37804D01*
X22822Y-37814D01*
X22857Y-37832D01*
X22887Y-37856D01*
X22913Y-37885D01*
X22932Y-37919D01*
X22945Y-37956D01*
X22949Y-37995D01*
X22950Y-38000D01*
X22550Y-38000D02*
X22950Y-38000D01*
X22950Y-39000D02*
X22946Y-39038D01*
X22934Y-39076D01*
X22916Y-39110D01*
X22891Y-39140D01*
X22861Y-39165D01*
X22827Y-39184D01*
X22790Y-39195D01*
X22751Y-39199D01*
X22713Y-39196D01*
X22676Y-39185D01*
X22641Y-39167D01*
X22611Y-39142D01*
X22585Y-39112D01*
X22567Y-39078D01*
X22555Y-39041D01*
X22551Y-39002D01*
X22554Y-38964D01*
X22565Y-38927D01*
X22582Y-38892D01*
X22607Y-38862D01*
X22636Y-38836D01*
X22670Y-38817D01*
X22708Y-38805D01*
X22746Y-38801D01*
X22784Y-38804D01*
X22822Y-38814D01*
X22857Y-38832D01*
X22887Y-38856D01*
X22913Y-38885D01*
X22932Y-38919D01*
X22945Y-38956D01*
X22949Y-38995D01*
X22950Y-39000D01*
X22550Y-39000D02*
X22950Y-39000D01*
X22950Y-40000D02*
X22946Y-40038D01*
X22934Y-40076D01*
X22916Y-40110D01*
X22891Y-40140D01*
X22861Y-40165D01*
X22827Y-40184D01*
X22790Y-40195D01*
X22751Y-40199D01*
X22713Y-40196D01*
X22676Y-40185D01*
X22641Y-40167D01*
X22611Y-40142D01*
X22585Y-40112D01*
X22567Y-40078D01*
X22555Y-40041D01*
X22551Y-40002D01*
X22554Y-39964D01*
X22565Y-39927D01*
X22582Y-39892D01*
X22607Y-39862D01*
X22636Y-39836D01*
X22670Y-39817D01*
X22708Y-39805D01*
X22746Y-39801D01*
X22784Y-39804D01*
X22822Y-39814D01*
X22857Y-39832D01*
X22887Y-39856D01*
X22913Y-39885D01*
X22932Y-39919D01*
X22945Y-39956D01*
X22949Y-39995D01*
X22950Y-40000D01*
X22550Y-40000D02*
X22950Y-40000D01*
X23950Y-34000D02*
X23946Y-34038D01*
X23934Y-34076D01*
X23916Y-34110D01*
X23891Y-34140D01*
X23861Y-34165D01*
X23827Y-34184D01*
X23790Y-34195D01*
X23751Y-34199D01*
X23713Y-34196D01*
X23676Y-34185D01*
X23641Y-34167D01*
X23611Y-34142D01*
X23585Y-34112D01*
X23567Y-34078D01*
X23555Y-34041D01*
X23551Y-34002D01*
X23554Y-33964D01*
X23565Y-33927D01*
X23582Y-33892D01*
X23607Y-33862D01*
X23636Y-33836D01*
X23670Y-33817D01*
X23708Y-33805D01*
X23746Y-33801D01*
X23784Y-33804D01*
X23822Y-33814D01*
X23857Y-33832D01*
X23887Y-33856D01*
X23913Y-33885D01*
X23932Y-33919D01*
X23945Y-33956D01*
X23949Y-33995D01*
X23950Y-34000D01*
X23550Y-34000D02*
X23950Y-34000D01*
X23950Y-35000D02*
X23946Y-35038D01*
X23934Y-35076D01*
X23916Y-35110D01*
X23891Y-35140D01*
X23861Y-35165D01*
X23827Y-35184D01*
X23790Y-35195D01*
X23751Y-35199D01*
X23713Y-35196D01*
X23676Y-35185D01*
X23641Y-35167D01*
X23611Y-35142D01*
X23585Y-35112D01*
X23567Y-35078D01*
X23555Y-35041D01*
X23551Y-35002D01*
X23554Y-34964D01*
X23565Y-34927D01*
X23582Y-34892D01*
X23607Y-34862D01*
X23636Y-34836D01*
X23670Y-34817D01*
X23708Y-34805D01*
X23746Y-34801D01*
X23784Y-34804D01*
X23822Y-34814D01*
X23857Y-34832D01*
X23887Y-34856D01*
X23913Y-34885D01*
X23932Y-34919D01*
X23945Y-34956D01*
X23949Y-34995D01*
X23950Y-35000D01*
X23550Y-35000D02*
X23950Y-35000D01*
X23950Y-36000D02*
X23946Y-36038D01*
X23934Y-36076D01*
X23916Y-36110D01*
X23891Y-36140D01*
X23861Y-36165D01*
X23827Y-36184D01*
X23790Y-36195D01*
X23751Y-36199D01*
X23713Y-36196D01*
X23676Y-36185D01*
X23641Y-36167D01*
X23611Y-36142D01*
X23585Y-36112D01*
X23567Y-36078D01*
X23555Y-36041D01*
X23551Y-36002D01*
X23554Y-35964D01*
X23565Y-35927D01*
X23582Y-35892D01*
X23607Y-35862D01*
X23636Y-35836D01*
X23670Y-35817D01*
X23708Y-35805D01*
X23746Y-35801D01*
X23784Y-35804D01*
X23822Y-35814D01*
X23857Y-35832D01*
X23887Y-35856D01*
X23913Y-35885D01*
X23932Y-35919D01*
X23945Y-35956D01*
X23949Y-35995D01*
X23950Y-36000D01*
X23550Y-36000D02*
X23950Y-36000D01*
X23950Y-37000D02*
X23946Y-37038D01*
X23934Y-37076D01*
X23916Y-37110D01*
X23891Y-37140D01*
X23861Y-37165D01*
X23827Y-37184D01*
X23790Y-37195D01*
X23751Y-37199D01*
X23713Y-37196D01*
X23676Y-37185D01*
X23641Y-37167D01*
X23611Y-37142D01*
X23585Y-37112D01*
X23567Y-37078D01*
X23555Y-37041D01*
X23551Y-37002D01*
X23554Y-36964D01*
X23565Y-36927D01*
X23582Y-36892D01*
X23607Y-36862D01*
X23636Y-36836D01*
X23670Y-36817D01*
X23708Y-36805D01*
X23746Y-36801D01*
X23784Y-36804D01*
X23822Y-36814D01*
X23857Y-36832D01*
X23887Y-36856D01*
X23913Y-36885D01*
X23932Y-36919D01*
X23945Y-36956D01*
X23949Y-36995D01*
X23950Y-37000D01*
X23550Y-37000D02*
X23950Y-37000D01*
X23950Y-38000D02*
X23946Y-38038D01*
X23934Y-38076D01*
X23916Y-38110D01*
X23891Y-38140D01*
X23861Y-38165D01*
X23827Y-38184D01*
X23790Y-38195D01*
X23751Y-38199D01*
X23713Y-38196D01*
X23676Y-38185D01*
X23641Y-38167D01*
X23611Y-38142D01*
X23585Y-38112D01*
X23567Y-38078D01*
X23555Y-38041D01*
X23551Y-38002D01*
X23554Y-37964D01*
X23565Y-37927D01*
X23582Y-37892D01*
X23607Y-37862D01*
X23636Y-37836D01*
X23670Y-37817D01*
X23708Y-37805D01*
X23746Y-37801D01*
X23784Y-37804D01*
X23822Y-37814D01*
X23857Y-37832D01*
X23887Y-37856D01*
X23913Y-37885D01*
X23932Y-37919D01*
X23945Y-37956D01*
X23949Y-37995D01*
X23950Y-38000D01*
X23550Y-38000D02*
X23950Y-38000D01*
X23950Y-39000D02*
X23946Y-39038D01*
X23934Y-39076D01*
X23916Y-39110D01*
X23891Y-39140D01*
X23861Y-39165D01*
X23827Y-39184D01*
X23790Y-39195D01*
X23751Y-39199D01*
X23713Y-39196D01*
X23676Y-39185D01*
X23641Y-39167D01*
X23611Y-39142D01*
X23585Y-39112D01*
X23567Y-39078D01*
X23555Y-39041D01*
X23551Y-39002D01*
X23554Y-38964D01*
X23565Y-38927D01*
X23582Y-38892D01*
X23607Y-38862D01*
X23636Y-38836D01*
X23670Y-38817D01*
X23708Y-38805D01*
X23746Y-38801D01*
X23784Y-38804D01*
X23822Y-38814D01*
X23857Y-38832D01*
X23887Y-38856D01*
X23913Y-38885D01*
X23932Y-38919D01*
X23945Y-38956D01*
X23949Y-38995D01*
X23950Y-39000D01*
X23550Y-39000D02*
X23950Y-39000D01*
X23950Y-40000D02*
X23946Y-40038D01*
X23934Y-40076D01*
X23916Y-40110D01*
X23891Y-40140D01*
X23861Y-40165D01*
X23827Y-40184D01*
X23790Y-40195D01*
X23751Y-40199D01*
X23713Y-40196D01*
X23676Y-40185D01*
X23641Y-40167D01*
X23611Y-40142D01*
X23585Y-40112D01*
X23567Y-40078D01*
X23555Y-40041D01*
X23551Y-40002D01*
X23554Y-39964D01*
X23565Y-39927D01*
X23582Y-39892D01*
X23607Y-39862D01*
X23636Y-39836D01*
X23670Y-39817D01*
X23708Y-39805D01*
X23746Y-39801D01*
X23784Y-39804D01*
X23822Y-39814D01*
X23857Y-39832D01*
X23887Y-39856D01*
X23913Y-39885D01*
X23932Y-39919D01*
X23945Y-39956D01*
X23949Y-39995D01*
X23950Y-40000D01*
X23550Y-40000D02*
X23950Y-40000D01*
X26700Y-23500D02*
X26696Y-23538D01*
X26684Y-23576D01*
X26666Y-23610D01*
X26641Y-23640D01*
X26611Y-23665D01*
X26577Y-23684D01*
X26540Y-23695D01*
X26501Y-23699D01*
X26463Y-23696D01*
X26426Y-23685D01*
X26391Y-23667D01*
X26361Y-23642D01*
X26335Y-23612D01*
X26317Y-23578D01*
X26305Y-23541D01*
X26301Y-23502D01*
X26304Y-23464D01*
X26315Y-23427D01*
X26332Y-23392D01*
X26357Y-23362D01*
X26386Y-23336D01*
X26420Y-23317D01*
X26458Y-23305D01*
X26496Y-23301D01*
X26534Y-23304D01*
X26572Y-23314D01*
X26607Y-23332D01*
X26637Y-23356D01*
X26663Y-23385D01*
X26682Y-23419D01*
X26695Y-23456D01*
X26699Y-23495D01*
X26700Y-23500D01*
X26300Y-23500D02*
X26700Y-23500D01*
X27700Y-23500D02*
X27696Y-23538D01*
X27684Y-23576D01*
X27666Y-23610D01*
X27641Y-23640D01*
X27611Y-23665D01*
X27577Y-23684D01*
X27540Y-23695D01*
X27501Y-23699D01*
X27463Y-23696D01*
X27426Y-23685D01*
X27391Y-23667D01*
X27361Y-23642D01*
X27335Y-23612D01*
X27317Y-23578D01*
X27305Y-23541D01*
X27301Y-23502D01*
X27304Y-23464D01*
X27315Y-23427D01*
X27332Y-23392D01*
X27357Y-23362D01*
X27386Y-23336D01*
X27420Y-23317D01*
X27458Y-23305D01*
X27496Y-23301D01*
X27534Y-23304D01*
X27572Y-23314D01*
X27607Y-23332D01*
X27637Y-23356D01*
X27663Y-23385D01*
X27682Y-23419D01*
X27695Y-23456D01*
X27699Y-23495D01*
X27700Y-23500D01*
X27300Y-23500D02*
X27700Y-23500D01*
X28700Y-23500D02*
X28696Y-23538D01*
X28684Y-23576D01*
X28666Y-23610D01*
X28641Y-23640D01*
X28611Y-23665D01*
X28577Y-23684D01*
X28540Y-23695D01*
X28501Y-23699D01*
X28463Y-23696D01*
X28426Y-23685D01*
X28391Y-23667D01*
X28361Y-23642D01*
X28335Y-23612D01*
X28317Y-23578D01*
X28305Y-23541D01*
X28301Y-23502D01*
X28304Y-23464D01*
X28315Y-23427D01*
X28332Y-23392D01*
X28357Y-23362D01*
X28386Y-23336D01*
X28420Y-23317D01*
X28458Y-23305D01*
X28496Y-23301D01*
X28534Y-23304D01*
X28572Y-23314D01*
X28607Y-23332D01*
X28637Y-23356D01*
X28663Y-23385D01*
X28682Y-23419D01*
X28695Y-23456D01*
X28699Y-23495D01*
X28700Y-23500D01*
X28300Y-23500D02*
X28700Y-23500D01*
X29700Y-23500D02*
X29696Y-23538D01*
X29684Y-23576D01*
X29666Y-23610D01*
X29641Y-23640D01*
X29611Y-23665D01*
X29577Y-23684D01*
X29540Y-23695D01*
X29501Y-23699D01*
X29463Y-23696D01*
X29426Y-23685D01*
X29391Y-23667D01*
X29361Y-23642D01*
X29335Y-23612D01*
X29317Y-23578D01*
X29305Y-23541D01*
X29301Y-23502D01*
X29304Y-23464D01*
X29315Y-23427D01*
X29332Y-23392D01*
X29357Y-23362D01*
X29386Y-23336D01*
X29420Y-23317D01*
X29458Y-23305D01*
X29496Y-23301D01*
X29534Y-23304D01*
X29572Y-23314D01*
X29607Y-23332D01*
X29637Y-23356D01*
X29663Y-23385D01*
X29682Y-23419D01*
X29695Y-23456D01*
X29699Y-23495D01*
X29700Y-23500D01*
X29300Y-23500D02*
X29700Y-23500D01*
X30700Y-23500D02*
X30696Y-23538D01*
X30684Y-23576D01*
X30666Y-23610D01*
X30641Y-23640D01*
X30611Y-23665D01*
X30577Y-23684D01*
X30540Y-23695D01*
X30501Y-23699D01*
X30463Y-23696D01*
X30426Y-23685D01*
X30391Y-23667D01*
X30361Y-23642D01*
X30335Y-23612D01*
X30317Y-23578D01*
X30305Y-23541D01*
X30301Y-23502D01*
X30304Y-23464D01*
X30315Y-23427D01*
X30332Y-23392D01*
X30357Y-23362D01*
X30386Y-23336D01*
X30420Y-23317D01*
X30458Y-23305D01*
X30496Y-23301D01*
X30534Y-23304D01*
X30572Y-23314D01*
X30607Y-23332D01*
X30637Y-23356D01*
X30663Y-23385D01*
X30682Y-23419D01*
X30695Y-23456D01*
X30699Y-23495D01*
X30700Y-23500D01*
X30300Y-23500D02*
X30700Y-23500D01*
X31700Y-23500D02*
X31696Y-23538D01*
X31684Y-23576D01*
X31666Y-23610D01*
X31641Y-23640D01*
X31611Y-23665D01*
X31577Y-23684D01*
X31540Y-23695D01*
X31501Y-23699D01*
X31463Y-23696D01*
X31426Y-23685D01*
X31391Y-23667D01*
X31361Y-23642D01*
X31335Y-23612D01*
X31317Y-23578D01*
X31305Y-23541D01*
X31301Y-23502D01*
X31304Y-23464D01*
X31315Y-23427D01*
X31332Y-23392D01*
X31357Y-23362D01*
X31386Y-23336D01*
X31420Y-23317D01*
X31458Y-23305D01*
X31496Y-23301D01*
X31534Y-23304D01*
X31572Y-23314D01*
X31607Y-23332D01*
X31637Y-23356D01*
X31663Y-23385D01*
X31682Y-23419D01*
X31695Y-23456D01*
X31699Y-23495D01*
X31700Y-23500D01*
X31300Y-23500D02*
X31700Y-23500D01*
X32700Y-23500D02*
X32696Y-23538D01*
X32684Y-23576D01*
X32666Y-23610D01*
X32641Y-23640D01*
X32611Y-23665D01*
X32577Y-23684D01*
X32540Y-23695D01*
X32501Y-23699D01*
X32463Y-23696D01*
X32426Y-23685D01*
X32391Y-23667D01*
X32361Y-23642D01*
X32335Y-23612D01*
X32317Y-23578D01*
X32305Y-23541D01*
X32301Y-23502D01*
X32304Y-23464D01*
X32315Y-23427D01*
X32332Y-23392D01*
X32357Y-23362D01*
X32386Y-23336D01*
X32420Y-23317D01*
X32458Y-23305D01*
X32496Y-23301D01*
X32534Y-23304D01*
X32572Y-23314D01*
X32607Y-23332D01*
X32637Y-23356D01*
X32663Y-23385D01*
X32682Y-23419D01*
X32695Y-23456D01*
X32699Y-23495D01*
X32700Y-23500D01*
X32300Y-23500D02*
X32700Y-23500D01*
X49700Y-48500D02*
X49696Y-48538D01*
X49684Y-48576D01*
X49666Y-48610D01*
X49641Y-48640D01*
X49611Y-48665D01*
X49577Y-48684D01*
X49540Y-48695D01*
X49501Y-48699D01*
X49463Y-48696D01*
X49426Y-48685D01*
X49391Y-48667D01*
X49361Y-48642D01*
X49335Y-48612D01*
X49317Y-48578D01*
X49305Y-48541D01*
X49301Y-48502D01*
X49304Y-48464D01*
X49315Y-48427D01*
X49332Y-48392D01*
X49357Y-48362D01*
X49386Y-48336D01*
X49420Y-48317D01*
X49458Y-48305D01*
X49496Y-48301D01*
X49534Y-48304D01*
X49572Y-48314D01*
X49607Y-48332D01*
X49637Y-48356D01*
X49663Y-48385D01*
X49682Y-48419D01*
X49695Y-48456D01*
X49699Y-48495D01*
X49700Y-48500D01*
X49300Y-48500D02*
X49700Y-48500D01*
X49700Y-49500D02*
X49696Y-49538D01*
X49684Y-49576D01*
X49666Y-49610D01*
X49641Y-49640D01*
X49611Y-49665D01*
X49577Y-49684D01*
X49540Y-49695D01*
X49501Y-49699D01*
X49463Y-49696D01*
X49426Y-49685D01*
X49391Y-49667D01*
X49361Y-49642D01*
X49335Y-49612D01*
X49317Y-49578D01*
X49305Y-49541D01*
X49301Y-49502D01*
X49304Y-49464D01*
X49315Y-49427D01*
X49332Y-49392D01*
X49357Y-49362D01*
X49386Y-49336D01*
X49420Y-49317D01*
X49458Y-49305D01*
X49496Y-49301D01*
X49534Y-49304D01*
X49572Y-49314D01*
X49607Y-49332D01*
X49637Y-49356D01*
X49663Y-49385D01*
X49682Y-49419D01*
X49695Y-49456D01*
X49699Y-49495D01*
X49700Y-49500D01*
X49300Y-49500D02*
X49700Y-49500D01*
X66450Y-34250D02*
X66446Y-34288D01*
X66434Y-34326D01*
X66416Y-34360D01*
X66391Y-34390D01*
X66361Y-34415D01*
X66327Y-34434D01*
X66290Y-34445D01*
X66251Y-34449D01*
X66213Y-34446D01*
X66176Y-34435D01*
X66141Y-34417D01*
X66111Y-34392D01*
X66085Y-34362D01*
X66067Y-34328D01*
X66055Y-34291D01*
X66051Y-34252D01*
X66054Y-34214D01*
X66065Y-34177D01*
X66082Y-34142D01*
X66107Y-34112D01*
X66136Y-34086D01*
X66170Y-34067D01*
X66208Y-34055D01*
X66246Y-34051D01*
X66284Y-34054D01*
X66322Y-34064D01*
X66357Y-34082D01*
X66387Y-34106D01*
X66413Y-34135D01*
X66432Y-34169D01*
X66445Y-34206D01*
X66449Y-34245D01*
X66450Y-34250D01*
X66050Y-34250D02*
X66450Y-34250D01*
X66450Y-35250D02*
X66446Y-35288D01*
X66434Y-35326D01*
X66416Y-35360D01*
X66391Y-35390D01*
X66361Y-35415D01*
X66327Y-35434D01*
X66290Y-35445D01*
X66251Y-35449D01*
X66213Y-35446D01*
X66176Y-35435D01*
X66141Y-35417D01*
X66111Y-35392D01*
X66085Y-35362D01*
X66067Y-35328D01*
X66055Y-35291D01*
X66051Y-35252D01*
X66054Y-35214D01*
X66065Y-35177D01*
X66082Y-35142D01*
X66107Y-35112D01*
X66136Y-35086D01*
X66170Y-35067D01*
X66208Y-35055D01*
X66246Y-35051D01*
X66284Y-35054D01*
X66322Y-35064D01*
X66357Y-35082D01*
X66387Y-35106D01*
X66413Y-35135D01*
X66432Y-35169D01*
X66445Y-35206D01*
X66449Y-35245D01*
X66450Y-35250D01*
X66050Y-35250D02*
X66450Y-35250D01*
X66450Y-36250D02*
X66446Y-36288D01*
X66434Y-36326D01*
X66416Y-36360D01*
X66391Y-36390D01*
X66361Y-36415D01*
X66327Y-36434D01*
X66290Y-36445D01*
X66251Y-36449D01*
X66213Y-36446D01*
X66176Y-36435D01*
X66141Y-36417D01*
X66111Y-36392D01*
X66085Y-36362D01*
X66067Y-36328D01*
X66055Y-36291D01*
X66051Y-36252D01*
X66054Y-36214D01*
X66065Y-36177D01*
X66082Y-36142D01*
X66107Y-36112D01*
X66136Y-36086D01*
X66170Y-36067D01*
X66208Y-36055D01*
X66246Y-36051D01*
X66284Y-36054D01*
X66322Y-36064D01*
X66357Y-36082D01*
X66387Y-36106D01*
X66413Y-36135D01*
X66432Y-36169D01*
X66445Y-36206D01*
X66449Y-36245D01*
X66450Y-36250D01*
X66050Y-36250D02*
X66450Y-36250D01*
X66450Y-37250D02*
X66446Y-37288D01*
X66434Y-37326D01*
X66416Y-37360D01*
X66391Y-37390D01*
X66361Y-37415D01*
X66327Y-37434D01*
X66290Y-37445D01*
X66251Y-37449D01*
X66213Y-37446D01*
X66176Y-37435D01*
X66141Y-37417D01*
X66111Y-37392D01*
X66085Y-37362D01*
X66067Y-37328D01*
X66055Y-37291D01*
X66051Y-37252D01*
X66054Y-37214D01*
X66065Y-37177D01*
X66082Y-37142D01*
X66107Y-37112D01*
X66136Y-37086D01*
X66170Y-37067D01*
X66208Y-37055D01*
X66246Y-37051D01*
X66284Y-37054D01*
X66322Y-37064D01*
X66357Y-37082D01*
X66387Y-37106D01*
X66413Y-37135D01*
X66432Y-37169D01*
X66445Y-37206D01*
X66449Y-37245D01*
X66450Y-37250D01*
X66050Y-37250D02*
X66450Y-37250D01*
X66450Y-38250D02*
X66446Y-38288D01*
X66434Y-38326D01*
X66416Y-38360D01*
X66391Y-38390D01*
X66361Y-38415D01*
X66327Y-38434D01*
X66290Y-38445D01*
X66251Y-38449D01*
X66213Y-38446D01*
X66176Y-38435D01*
X66141Y-38417D01*
X66111Y-38392D01*
X66085Y-38362D01*
X66067Y-38328D01*
X66055Y-38291D01*
X66051Y-38252D01*
X66054Y-38214D01*
X66065Y-38177D01*
X66082Y-38142D01*
X66107Y-38112D01*
X66136Y-38086D01*
X66170Y-38067D01*
X66208Y-38055D01*
X66246Y-38051D01*
X66284Y-38054D01*
X66322Y-38064D01*
X66357Y-38082D01*
X66387Y-38106D01*
X66413Y-38135D01*
X66432Y-38169D01*
X66445Y-38206D01*
X66449Y-38245D01*
X66450Y-38250D01*
X66050Y-38250D02*
X66450Y-38250D01*
X66450Y-39250D02*
X66446Y-39288D01*
X66434Y-39326D01*
X66416Y-39360D01*
X66391Y-39390D01*
X66361Y-39415D01*
X66327Y-39434D01*
X66290Y-39445D01*
X66251Y-39449D01*
X66213Y-39446D01*
X66176Y-39435D01*
X66141Y-39417D01*
X66111Y-39392D01*
X66085Y-39362D01*
X66067Y-39328D01*
X66055Y-39291D01*
X66051Y-39252D01*
X66054Y-39214D01*
X66065Y-39177D01*
X66082Y-39142D01*
X66107Y-39112D01*
X66136Y-39086D01*
X66170Y-39067D01*
X66208Y-39055D01*
X66246Y-39051D01*
X66284Y-39054D01*
X66322Y-39064D01*
X66357Y-39082D01*
X66387Y-39106D01*
X66413Y-39135D01*
X66432Y-39169D01*
X66445Y-39206D01*
X66449Y-39245D01*
X66450Y-39250D01*
X66050Y-39250D02*
X66450Y-39250D01*
X66450Y-40250D02*
X66446Y-40288D01*
X66434Y-40326D01*
X66416Y-40360D01*
X66391Y-40390D01*
X66361Y-40415D01*
X66327Y-40434D01*
X66290Y-40445D01*
X66251Y-40449D01*
X66213Y-40446D01*
X66176Y-40435D01*
X66141Y-40417D01*
X66111Y-40392D01*
X66085Y-40362D01*
X66067Y-40328D01*
X66055Y-40291D01*
X66051Y-40252D01*
X66054Y-40214D01*
X66065Y-40177D01*
X66082Y-40142D01*
X66107Y-40112D01*
X66136Y-40086D01*
X66170Y-40067D01*
X66208Y-40055D01*
X66246Y-40051D01*
X66284Y-40054D01*
X66322Y-40064D01*
X66357Y-40082D01*
X66387Y-40106D01*
X66413Y-40135D01*
X66432Y-40169D01*
X66445Y-40206D01*
X66449Y-40245D01*
X66450Y-40250D01*
X66050Y-40250D02*
X66450Y-40250D01*
X67450Y-34250D02*
X67446Y-34288D01*
X67434Y-34326D01*
X67416Y-34360D01*
X67391Y-34390D01*
X67361Y-34415D01*
X67327Y-34434D01*
X67290Y-34445D01*
X67251Y-34449D01*
X67213Y-34446D01*
X67176Y-34435D01*
X67141Y-34417D01*
X67111Y-34392D01*
X67085Y-34362D01*
X67067Y-34328D01*
X67055Y-34291D01*
X67051Y-34252D01*
X67054Y-34214D01*
X67065Y-34177D01*
X67082Y-34142D01*
X67107Y-34112D01*
X67136Y-34086D01*
X67170Y-34067D01*
X67208Y-34055D01*
X67246Y-34051D01*
X67284Y-34054D01*
X67322Y-34064D01*
X67357Y-34082D01*
X67387Y-34106D01*
X67413Y-34135D01*
X67432Y-34169D01*
X67445Y-34206D01*
X67449Y-34245D01*
X67450Y-34250D01*
X67050Y-34250D02*
X67450Y-34250D01*
X67450Y-35250D02*
X67446Y-35288D01*
X67434Y-35326D01*
X67416Y-35360D01*
X67391Y-35390D01*
X67361Y-35415D01*
X67327Y-35434D01*
X67290Y-35445D01*
X67251Y-35449D01*
X67213Y-35446D01*
X67176Y-35435D01*
X67141Y-35417D01*
X67111Y-35392D01*
X67085Y-35362D01*
X67067Y-35328D01*
X67055Y-35291D01*
X67051Y-35252D01*
X67054Y-35214D01*
X67065Y-35177D01*
X67082Y-35142D01*
X67107Y-35112D01*
X67136Y-35086D01*
X67170Y-35067D01*
X67208Y-35055D01*
X67246Y-35051D01*
X67284Y-35054D01*
X67322Y-35064D01*
X67357Y-35082D01*
X67387Y-35106D01*
X67413Y-35135D01*
X67432Y-35169D01*
X67445Y-35206D01*
X67449Y-35245D01*
X67450Y-35250D01*
X67050Y-35250D02*
X67450Y-35250D01*
X67450Y-36250D02*
X67446Y-36288D01*
X67434Y-36326D01*
X67416Y-36360D01*
X67391Y-36390D01*
X67361Y-36415D01*
X67327Y-36434D01*
X67290Y-36445D01*
X67251Y-36449D01*
X67213Y-36446D01*
X67176Y-36435D01*
X67141Y-36417D01*
X67111Y-36392D01*
X67085Y-36362D01*
X67067Y-36328D01*
X67055Y-36291D01*
X67051Y-36252D01*
X67054Y-36214D01*
X67065Y-36177D01*
X67082Y-36142D01*
X67107Y-36112D01*
X67136Y-36086D01*
X67170Y-36067D01*
X67208Y-36055D01*
X67246Y-36051D01*
X67284Y-36054D01*
X67322Y-36064D01*
X67357Y-36082D01*
X67387Y-36106D01*
X67413Y-36135D01*
X67432Y-36169D01*
X67445Y-36206D01*
X67449Y-36245D01*
X67450Y-36250D01*
X67050Y-36250D02*
X67450Y-36250D01*
X67450Y-37250D02*
X67446Y-37288D01*
X67434Y-37326D01*
X67416Y-37360D01*
X67391Y-37390D01*
X67361Y-37415D01*
X67327Y-37434D01*
X67290Y-37445D01*
X67251Y-37449D01*
X67213Y-37446D01*
X67176Y-37435D01*
X67141Y-37417D01*
X67111Y-37392D01*
X67085Y-37362D01*
X67067Y-37328D01*
X67055Y-37291D01*
X67051Y-37252D01*
X67054Y-37214D01*
X67065Y-37177D01*
X67082Y-37142D01*
X67107Y-37112D01*
X67136Y-37086D01*
X67170Y-37067D01*
X67208Y-37055D01*
X67246Y-37051D01*
X67284Y-37054D01*
X67322Y-37064D01*
X67357Y-37082D01*
X67387Y-37106D01*
X67413Y-37135D01*
X67432Y-37169D01*
X67445Y-37206D01*
X67449Y-37245D01*
X67450Y-37250D01*
X67050Y-37250D02*
X67450Y-37250D01*
X67450Y-38250D02*
X67446Y-38288D01*
X67434Y-38326D01*
X67416Y-38360D01*
X67391Y-38390D01*
X67361Y-38415D01*
X67327Y-38434D01*
X67290Y-38445D01*
X67251Y-38449D01*
X67213Y-38446D01*
X67176Y-38435D01*
X67141Y-38417D01*
X67111Y-38392D01*
X67085Y-38362D01*
X67067Y-38328D01*
X67055Y-38291D01*
X67051Y-38252D01*
X67054Y-38214D01*
X67065Y-38177D01*
X67082Y-38142D01*
X67107Y-38112D01*
X67136Y-38086D01*
X67170Y-38067D01*
X67208Y-38055D01*
X67246Y-38051D01*
X67284Y-38054D01*
X67322Y-38064D01*
X67357Y-38082D01*
X67387Y-38106D01*
X67413Y-38135D01*
X67432Y-38169D01*
X67445Y-38206D01*
X67449Y-38245D01*
X67450Y-38250D01*
X67050Y-38250D02*
X67450Y-38250D01*
X67450Y-39250D02*
X67446Y-39288D01*
X67434Y-39326D01*
X67416Y-39360D01*
X67391Y-39390D01*
X67361Y-39415D01*
X67327Y-39434D01*
X67290Y-39445D01*
X67251Y-39449D01*
X67213Y-39446D01*
X67176Y-39435D01*
X67141Y-39417D01*
X67111Y-39392D01*
X67085Y-39362D01*
X67067Y-39328D01*
X67055Y-39291D01*
X67051Y-39252D01*
X67054Y-39214D01*
X67065Y-39177D01*
X67082Y-39142D01*
X67107Y-39112D01*
X67136Y-39086D01*
X67170Y-39067D01*
X67208Y-39055D01*
X67246Y-39051D01*
X67284Y-39054D01*
X67322Y-39064D01*
X67357Y-39082D01*
X67387Y-39106D01*
X67413Y-39135D01*
X67432Y-39169D01*
X67445Y-39206D01*
X67449Y-39245D01*
X67450Y-39250D01*
X67050Y-39250D02*
X67450Y-39250D01*
X67450Y-40250D02*
X67446Y-40288D01*
X67434Y-40326D01*
X67416Y-40360D01*
X67391Y-40390D01*
X67361Y-40415D01*
X67327Y-40434D01*
X67290Y-40445D01*
X67251Y-40449D01*
X67213Y-40446D01*
X67176Y-40435D01*
X67141Y-40417D01*
X67111Y-40392D01*
X67085Y-40362D01*
X67067Y-40328D01*
X67055Y-40291D01*
X67051Y-40252D01*
X67054Y-40214D01*
X67065Y-40177D01*
X67082Y-40142D01*
X67107Y-40112D01*
X67136Y-40086D01*
X67170Y-40067D01*
X67208Y-40055D01*
X67246Y-40051D01*
X67284Y-40054D01*
X67322Y-40064D01*
X67357Y-40082D01*
X67387Y-40106D01*
X67413Y-40135D01*
X67432Y-40169D01*
X67445Y-40206D01*
X67449Y-40245D01*
X67450Y-40250D01*
X67050Y-40250D02*
X67450Y-40250D01*
G54D12*
X20239Y-53855D02*
X20239Y-53055D01*
X20430Y-53055D01*
X20544Y-53093D01*
X20620Y-53169D01*
X20659Y-53245D01*
X20697Y-53398D01*
X20697Y-53512D01*
X20659Y-53664D01*
X20620Y-53741D01*
X20544Y-53817D01*
X20430Y-53855D01*
X20239Y-53855D01*
X21039Y-53855D02*
X21039Y-53321D01*
X21039Y-53474D02*
X21078Y-53398D01*
X21116Y-53360D01*
X21192Y-53321D01*
X21268Y-53321D01*
X21534Y-53855D02*
X21534Y-53321D01*
X21534Y-53055D02*
X21496Y-53093D01*
X21534Y-53131D01*
X21573Y-53093D01*
X21534Y-53055D01*
X21534Y-53131D01*
X22030Y-53855D02*
X21954Y-53817D01*
X21915Y-53741D01*
X21915Y-53055D01*
X22449Y-53855D02*
X22373Y-53817D01*
X22334Y-53741D01*
X22334Y-53055D01*
X23363Y-53855D02*
X23363Y-53055D01*
X23630Y-53626D01*
X23897Y-53055D01*
X23897Y-53855D01*
X24620Y-53855D02*
X24620Y-53436D01*
X24582Y-53360D01*
X24506Y-53321D01*
X24354Y-53321D01*
X24277Y-53360D01*
X24620Y-53817D02*
X24544Y-53855D01*
X24354Y-53855D01*
X24277Y-53817D01*
X24239Y-53741D01*
X24239Y-53664D01*
X24277Y-53588D01*
X24354Y-53550D01*
X24544Y-53550D01*
X24620Y-53512D01*
X25001Y-53321D02*
X25001Y-54121D01*
X25001Y-53360D02*
X25078Y-53321D01*
X25230Y-53321D01*
X25306Y-53360D01*
X25344Y-53398D01*
X25382Y-53474D01*
X25382Y-53702D01*
X25344Y-53779D01*
X25306Y-53817D01*
X25230Y-53855D01*
X25078Y-53855D01*
X25001Y-53817D01*
X25725Y-53779D02*
X25764Y-53817D01*
X25725Y-53855D01*
X25687Y-53817D01*
X25725Y-53779D01*
X25725Y-53855D01*
X25725Y-53360D02*
X25764Y-53398D01*
X25725Y-53436D01*
X25687Y-53398D01*
X25725Y-53360D01*
X25725Y-53436D01*
X19613Y-55093D02*
X19849Y-55329D01*
X19849Y-55093D02*
X19613Y-55329D01*
X20392Y-54735D02*
X20468Y-54735D01*
X20544Y-54773D01*
X20582Y-54811D01*
X20620Y-54887D01*
X20659Y-55040D01*
X20659Y-55230D01*
X20620Y-55382D01*
X20582Y-55459D01*
X20544Y-55497D01*
X20468Y-55535D01*
X20392Y-55535D01*
X20316Y-55497D01*
X20278Y-55459D01*
X20239Y-55382D01*
X20201Y-55230D01*
X20201Y-55040D01*
X20239Y-54887D01*
X20278Y-54811D01*
X20316Y-54773D01*
X20392Y-54735D01*
X21001Y-55459D02*
X21040Y-55497D01*
X21001Y-55535D01*
X20963Y-55497D01*
X21001Y-55459D01*
X21001Y-55535D01*
X21725Y-54735D02*
X21573Y-54735D01*
X21497Y-54773D01*
X21459Y-54811D01*
X21382Y-54925D01*
X21344Y-55078D01*
X21344Y-55382D01*
X21382Y-55459D01*
X21421Y-55497D01*
X21497Y-55535D01*
X21649Y-55535D01*
X21725Y-55497D01*
X21763Y-55459D01*
X21802Y-55382D01*
X21802Y-55192D01*
X21763Y-55116D01*
X21725Y-55078D01*
X21649Y-55040D01*
X21497Y-55040D01*
X21421Y-55078D01*
X21382Y-55116D01*
X21344Y-55192D01*
X22297Y-54735D02*
X22373Y-54735D01*
X22449Y-54773D01*
X22487Y-54811D01*
X22525Y-54887D01*
X22564Y-55040D01*
X22564Y-55230D01*
X22525Y-55382D01*
X22487Y-55459D01*
X22449Y-55497D01*
X22373Y-55535D01*
X22297Y-55535D01*
X22221Y-55497D01*
X22183Y-55459D01*
X22144Y-55382D01*
X22106Y-55230D01*
X22106Y-55040D01*
X22144Y-54887D01*
X22183Y-54811D01*
X22221Y-54773D01*
X22297Y-54735D01*
X22906Y-55535D02*
X22906Y-55001D01*
X22906Y-55078D02*
X22945Y-55040D01*
X23021Y-55001D01*
X23135Y-55001D01*
X23211Y-55040D01*
X23249Y-55116D01*
X23249Y-55535D01*
X23249Y-55116D02*
X23287Y-55040D01*
X23364Y-55001D01*
X23478Y-55001D01*
X23554Y-55040D01*
X23592Y-55116D01*
X23592Y-55535D01*
X23973Y-55535D02*
X23973Y-55001D01*
X23973Y-55078D02*
X24012Y-55040D01*
X24088Y-55001D01*
X24202Y-55001D01*
X24278Y-55040D01*
X24316Y-55116D01*
X24316Y-55535D01*
X24316Y-55116D02*
X24354Y-55040D01*
X24431Y-55001D01*
X24545Y-55001D01*
X24621Y-55040D01*
X24659Y-55116D01*
X24659Y-55535D01*
X26222Y-54697D02*
X25536Y-55725D01*
X27251Y-54735D02*
X27327Y-54735D01*
X27403Y-54773D01*
X27441Y-54811D01*
X27479Y-54887D01*
X27518Y-55040D01*
X27518Y-55230D01*
X27479Y-55382D01*
X27441Y-55459D01*
X27403Y-55497D01*
X27327Y-55535D01*
X27251Y-55535D01*
X27175Y-55497D01*
X27137Y-55459D01*
X27098Y-55382D01*
X27060Y-55230D01*
X27060Y-55040D01*
X27098Y-54887D01*
X27137Y-54811D01*
X27175Y-54773D01*
X27251Y-54735D01*
X27860Y-55459D02*
X27899Y-55497D01*
X27860Y-55535D01*
X27822Y-55497D01*
X27860Y-55459D01*
X27860Y-55535D01*
X28394Y-54735D02*
X28470Y-54735D01*
X28546Y-54773D01*
X28584Y-54811D01*
X28622Y-54887D01*
X28661Y-55040D01*
X28661Y-55230D01*
X28622Y-55382D01*
X28584Y-55459D01*
X28546Y-55497D01*
X28470Y-55535D01*
X28394Y-55535D01*
X28318Y-55497D01*
X28280Y-55459D01*
X28241Y-55382D01*
X28203Y-55230D01*
X28203Y-55040D01*
X28241Y-54887D01*
X28280Y-54811D01*
X28318Y-54773D01*
X28394Y-54735D01*
X28965Y-54811D02*
X29003Y-54773D01*
X29080Y-54735D01*
X29270Y-54735D01*
X29346Y-54773D01*
X29384Y-54811D01*
X29423Y-54887D01*
X29423Y-54963D01*
X29384Y-55078D01*
X28927Y-55535D01*
X29423Y-55535D01*
X30108Y-55001D02*
X30108Y-55535D01*
X29918Y-54697D02*
X29727Y-55268D01*
X30223Y-55268D01*
X30489Y-54735D02*
X30489Y-54887D01*
X30794Y-54735D02*
X30794Y-54887D01*
X31976Y-55840D02*
X31938Y-55801D01*
X31862Y-55687D01*
X31824Y-55611D01*
X31786Y-55497D01*
X31747Y-55306D01*
X31747Y-55154D01*
X31786Y-54963D01*
X31824Y-54849D01*
X31862Y-54773D01*
X31938Y-54659D01*
X31976Y-54621D01*
X32700Y-55535D02*
X32242Y-55535D01*
X32471Y-55535D02*
X32471Y-54735D01*
X32395Y-54849D01*
X32319Y-54925D01*
X32242Y-54963D01*
X33195Y-54735D02*
X33271Y-54735D01*
X33347Y-54773D01*
X33385Y-54811D01*
X33423Y-54887D01*
X33462Y-55040D01*
X33462Y-55230D01*
X33423Y-55382D01*
X33385Y-55459D01*
X33347Y-55497D01*
X33271Y-55535D01*
X33195Y-55535D01*
X33119Y-55497D01*
X33081Y-55459D01*
X33042Y-55382D01*
X33004Y-55230D01*
X33004Y-55040D01*
X33042Y-54887D01*
X33081Y-54811D01*
X33119Y-54773D01*
X33195Y-54735D01*
X34414Y-55535D02*
X34414Y-54735D01*
X34757Y-55535D02*
X34757Y-55116D01*
X34719Y-55040D01*
X34643Y-55001D01*
X34529Y-55001D01*
X34453Y-55040D01*
X34414Y-55078D01*
X35253Y-55535D02*
X35177Y-55497D01*
X35138Y-55459D01*
X35100Y-55382D01*
X35100Y-55154D01*
X35138Y-55078D01*
X35177Y-55040D01*
X35253Y-55001D01*
X35367Y-55001D01*
X35443Y-55040D01*
X35481Y-55078D01*
X35519Y-55154D01*
X35519Y-55382D01*
X35481Y-55459D01*
X35443Y-55497D01*
X35367Y-55535D01*
X35253Y-55535D01*
X35977Y-55535D02*
X35901Y-55497D01*
X35862Y-55421D01*
X35862Y-54735D01*
X36586Y-55497D02*
X36510Y-55535D01*
X36358Y-55535D01*
X36281Y-55497D01*
X36243Y-55421D01*
X36243Y-55116D01*
X36281Y-55040D01*
X36358Y-55001D01*
X36510Y-55001D01*
X36586Y-55040D01*
X36624Y-55116D01*
X36624Y-55192D01*
X36243Y-55268D01*
X36929Y-55497D02*
X37006Y-55535D01*
X37158Y-55535D01*
X37234Y-55497D01*
X37272Y-55421D01*
X37272Y-55382D01*
X37234Y-55306D01*
X37158Y-55268D01*
X37044Y-55268D01*
X36967Y-55230D01*
X36929Y-55154D01*
X36929Y-55116D01*
X36967Y-55040D01*
X37044Y-55001D01*
X37158Y-55001D01*
X37234Y-55040D01*
X37539Y-55840D02*
X37577Y-55801D01*
X37654Y-55687D01*
X37692Y-55611D01*
X37730Y-55497D01*
X37768Y-55306D01*
X37768Y-55154D01*
X37730Y-54963D01*
X37692Y-54849D01*
X37654Y-54773D01*
X37577Y-54659D01*
X37539Y-54621D01*
G54D10*
X19849Y-56266D02*
X19846Y-56289D01*
X19839Y-56311D01*
X19828Y-56332D01*
X19814Y-56350D01*
X19796Y-56365D01*
X19775Y-56376D01*
X19753Y-56383D01*
X19729Y-56385D01*
X19707Y-56383D01*
X19685Y-56377D01*
X19664Y-56366D01*
X19646Y-56351D01*
X19630Y-56333D01*
X19619Y-56313D01*
X19612Y-56290D01*
X19610Y-56267D01*
X19611Y-56245D01*
X19618Y-56222D01*
X19629Y-56201D01*
X19643Y-56183D01*
X19661Y-56168D01*
X19681Y-56157D01*
X19704Y-56149D01*
X19727Y-56147D01*
X19749Y-56148D01*
X19772Y-56155D01*
X19793Y-56165D01*
X19811Y-56180D01*
X19827Y-56197D01*
X19838Y-56218D01*
X19846Y-56240D01*
X19848Y-56263D01*
X19849Y-56266D01*
G54D12*
X20392Y-55790D02*
X20468Y-55790D01*
X20544Y-55828D01*
X20582Y-55866D01*
X20620Y-55942D01*
X20659Y-56095D01*
X20659Y-56285D01*
X20620Y-56437D01*
X20582Y-56514D01*
X20544Y-56552D01*
X20468Y-56590D01*
X20392Y-56590D01*
X20316Y-56552D01*
X20278Y-56514D01*
X20239Y-56437D01*
X20201Y-56285D01*
X20201Y-56095D01*
X20239Y-55942D01*
X20278Y-55866D01*
X20316Y-55828D01*
X20392Y-55790D01*
X21001Y-56514D02*
X21040Y-56552D01*
X21001Y-56590D01*
X20963Y-56552D01*
X21001Y-56514D01*
X21001Y-56590D01*
X21725Y-55790D02*
X21573Y-55790D01*
X21497Y-55828D01*
X21459Y-55866D01*
X21382Y-55980D01*
X21344Y-56133D01*
X21344Y-56437D01*
X21382Y-56514D01*
X21421Y-56552D01*
X21497Y-56590D01*
X21649Y-56590D01*
X21725Y-56552D01*
X21763Y-56514D01*
X21802Y-56437D01*
X21802Y-56247D01*
X21763Y-56171D01*
X21725Y-56133D01*
X21649Y-56095D01*
X21497Y-56095D01*
X21421Y-56133D01*
X21382Y-56171D01*
X21344Y-56247D01*
X22564Y-56590D02*
X22106Y-56590D01*
X22335Y-56590D02*
X22335Y-55790D01*
X22259Y-55904D01*
X22183Y-55980D01*
X22106Y-56018D01*
X22906Y-56590D02*
X22906Y-56056D01*
X22906Y-56133D02*
X22945Y-56095D01*
X23021Y-56056D01*
X23135Y-56056D01*
X23211Y-56095D01*
X23249Y-56171D01*
X23249Y-56590D01*
X23249Y-56171D02*
X23287Y-56095D01*
X23364Y-56056D01*
X23478Y-56056D01*
X23554Y-56095D01*
X23592Y-56171D01*
X23592Y-56590D01*
X23973Y-56590D02*
X23973Y-56056D01*
X23973Y-56133D02*
X24012Y-56095D01*
X24088Y-56056D01*
X24202Y-56056D01*
X24278Y-56095D01*
X24316Y-56171D01*
X24316Y-56590D01*
X24316Y-56171D02*
X24354Y-56095D01*
X24431Y-56056D01*
X24545Y-56056D01*
X24621Y-56095D01*
X24659Y-56171D01*
X24659Y-56590D01*
X26222Y-55752D02*
X25536Y-56780D01*
X27251Y-55790D02*
X27327Y-55790D01*
X27403Y-55828D01*
X27441Y-55866D01*
X27479Y-55942D01*
X27518Y-56095D01*
X27518Y-56285D01*
X27479Y-56437D01*
X27441Y-56514D01*
X27403Y-56552D01*
X27327Y-56590D01*
X27251Y-56590D01*
X27175Y-56552D01*
X27137Y-56514D01*
X27098Y-56437D01*
X27060Y-56285D01*
X27060Y-56095D01*
X27098Y-55942D01*
X27137Y-55866D01*
X27175Y-55828D01*
X27251Y-55790D01*
X27860Y-56514D02*
X27899Y-56552D01*
X27860Y-56590D01*
X27822Y-56552D01*
X27860Y-56514D01*
X27860Y-56590D01*
X28394Y-55790D02*
X28470Y-55790D01*
X28546Y-55828D01*
X28584Y-55866D01*
X28622Y-55942D01*
X28661Y-56095D01*
X28661Y-56285D01*
X28622Y-56437D01*
X28584Y-56514D01*
X28546Y-56552D01*
X28470Y-56590D01*
X28394Y-56590D01*
X28318Y-56552D01*
X28280Y-56514D01*
X28241Y-56437D01*
X28203Y-56285D01*
X28203Y-56095D01*
X28241Y-55942D01*
X28280Y-55866D01*
X28318Y-55828D01*
X28394Y-55790D01*
X28965Y-55866D02*
X29003Y-55828D01*
X29080Y-55790D01*
X29270Y-55790D01*
X29346Y-55828D01*
X29384Y-55866D01*
X29423Y-55942D01*
X29423Y-56018D01*
X29384Y-56133D01*
X28927Y-56590D01*
X29423Y-56590D01*
X30108Y-56056D02*
X30108Y-56590D01*
X29918Y-55752D02*
X29727Y-56323D01*
X30223Y-56323D01*
X30489Y-55790D02*
X30489Y-55942D01*
X30794Y-55790D02*
X30794Y-55942D01*
X31976Y-56895D02*
X31938Y-56856D01*
X31862Y-56742D01*
X31824Y-56666D01*
X31786Y-56552D01*
X31747Y-56361D01*
X31747Y-56209D01*
X31786Y-56018D01*
X31824Y-55904D01*
X31862Y-55828D01*
X31938Y-55714D01*
X31976Y-55676D01*
X32242Y-55866D02*
X32280Y-55828D01*
X32357Y-55790D01*
X32547Y-55790D01*
X32623Y-55828D01*
X32661Y-55866D01*
X32700Y-55942D01*
X32700Y-56018D01*
X32661Y-56133D01*
X32204Y-56590D01*
X32700Y-56590D01*
X33385Y-56056D02*
X33385Y-56590D01*
X33195Y-55752D02*
X33004Y-56323D01*
X33500Y-56323D01*
X34414Y-56590D02*
X34414Y-55790D01*
X34757Y-56590D02*
X34757Y-56171D01*
X34719Y-56095D01*
X34643Y-56056D01*
X34529Y-56056D01*
X34453Y-56095D01*
X34414Y-56133D01*
X35253Y-56590D02*
X35177Y-56552D01*
X35138Y-56514D01*
X35100Y-56437D01*
X35100Y-56209D01*
X35138Y-56133D01*
X35177Y-56095D01*
X35253Y-56056D01*
X35367Y-56056D01*
X35443Y-56095D01*
X35481Y-56133D01*
X35519Y-56209D01*
X35519Y-56437D01*
X35481Y-56514D01*
X35443Y-56552D01*
X35367Y-56590D01*
X35253Y-56590D01*
X35977Y-56590D02*
X35901Y-56552D01*
X35862Y-56476D01*
X35862Y-55790D01*
X36586Y-56552D02*
X36510Y-56590D01*
X36358Y-56590D01*
X36281Y-56552D01*
X36243Y-56476D01*
X36243Y-56171D01*
X36281Y-56095D01*
X36358Y-56056D01*
X36510Y-56056D01*
X36586Y-56095D01*
X36624Y-56171D01*
X36624Y-56247D01*
X36243Y-56323D01*
X36929Y-56552D02*
X37006Y-56590D01*
X37158Y-56590D01*
X37234Y-56552D01*
X37272Y-56476D01*
X37272Y-56437D01*
X37234Y-56361D01*
X37158Y-56323D01*
X37044Y-56323D01*
X36967Y-56285D01*
X36929Y-56209D01*
X36929Y-56171D01*
X36967Y-56095D01*
X37044Y-56056D01*
X37158Y-56056D01*
X37234Y-56095D01*
X37539Y-56895D02*
X37577Y-56856D01*
X37654Y-56742D01*
X37692Y-56666D01*
X37730Y-56552D01*
X37768Y-56361D01*
X37768Y-56209D01*
X37730Y-56018D01*
X37692Y-55904D01*
X37654Y-55828D01*
X37577Y-55714D01*
X37539Y-55676D01*
X19724Y-57196D02*
X19724Y-57446D01*
X19849Y-57321D02*
X19599Y-57321D01*
X20392Y-56845D02*
X20468Y-56845D01*
X20544Y-56883D01*
X20582Y-56921D01*
X20620Y-56997D01*
X20659Y-57150D01*
X20659Y-57340D01*
X20620Y-57492D01*
X20582Y-57569D01*
X20544Y-57607D01*
X20468Y-57645D01*
X20392Y-57645D01*
X20316Y-57607D01*
X20278Y-57569D01*
X20239Y-57492D01*
X20201Y-57340D01*
X20201Y-57150D01*
X20239Y-56997D01*
X20278Y-56921D01*
X20316Y-56883D01*
X20392Y-56845D01*
X21001Y-57569D02*
X21040Y-57607D01*
X21001Y-57645D01*
X20963Y-57607D01*
X21001Y-57569D01*
X21001Y-57645D01*
X21725Y-56845D02*
X21573Y-56845D01*
X21497Y-56883D01*
X21459Y-56921D01*
X21382Y-57035D01*
X21344Y-57188D01*
X21344Y-57492D01*
X21382Y-57569D01*
X21421Y-57607D01*
X21497Y-57645D01*
X21649Y-57645D01*
X21725Y-57607D01*
X21763Y-57569D01*
X21802Y-57492D01*
X21802Y-57302D01*
X21763Y-57226D01*
X21725Y-57188D01*
X21649Y-57150D01*
X21497Y-57150D01*
X21421Y-57188D01*
X21382Y-57226D01*
X21344Y-57302D01*
X22487Y-57111D02*
X22487Y-57645D01*
X22297Y-56807D02*
X22106Y-57378D01*
X22602Y-57378D01*
X22906Y-57645D02*
X22906Y-57111D01*
X22906Y-57188D02*
X22945Y-57150D01*
X23021Y-57111D01*
X23135Y-57111D01*
X23211Y-57150D01*
X23249Y-57226D01*
X23249Y-57645D01*
X23249Y-57226D02*
X23287Y-57150D01*
X23364Y-57111D01*
X23478Y-57111D01*
X23554Y-57150D01*
X23592Y-57226D01*
X23592Y-57645D01*
X23973Y-57645D02*
X23973Y-57111D01*
X23973Y-57188D02*
X24012Y-57150D01*
X24088Y-57111D01*
X24202Y-57111D01*
X24278Y-57150D01*
X24316Y-57226D01*
X24316Y-57645D01*
X24316Y-57226D02*
X24354Y-57150D01*
X24431Y-57111D01*
X24545Y-57111D01*
X24621Y-57150D01*
X24659Y-57226D01*
X24659Y-57645D01*
X26222Y-56807D02*
X25536Y-57835D01*
X27251Y-56845D02*
X27327Y-56845D01*
X27403Y-56883D01*
X27441Y-56921D01*
X27479Y-56997D01*
X27518Y-57150D01*
X27518Y-57340D01*
X27479Y-57492D01*
X27441Y-57569D01*
X27403Y-57607D01*
X27327Y-57645D01*
X27251Y-57645D01*
X27175Y-57607D01*
X27137Y-57569D01*
X27098Y-57492D01*
X27060Y-57340D01*
X27060Y-57150D01*
X27098Y-56997D01*
X27137Y-56921D01*
X27175Y-56883D01*
X27251Y-56845D01*
X27860Y-57569D02*
X27899Y-57607D01*
X27860Y-57645D01*
X27822Y-57607D01*
X27860Y-57569D01*
X27860Y-57645D01*
X28394Y-56845D02*
X28470Y-56845D01*
X28546Y-56883D01*
X28584Y-56921D01*
X28622Y-56997D01*
X28661Y-57150D01*
X28661Y-57340D01*
X28622Y-57492D01*
X28584Y-57569D01*
X28546Y-57607D01*
X28470Y-57645D01*
X28394Y-57645D01*
X28318Y-57607D01*
X28280Y-57569D01*
X28241Y-57492D01*
X28203Y-57340D01*
X28203Y-57150D01*
X28241Y-56997D01*
X28280Y-56921D01*
X28318Y-56883D01*
X28394Y-56845D01*
X28965Y-56921D02*
X29003Y-56883D01*
X29080Y-56845D01*
X29270Y-56845D01*
X29346Y-56883D01*
X29384Y-56921D01*
X29423Y-56997D01*
X29423Y-57073D01*
X29384Y-57188D01*
X28927Y-57645D01*
X29423Y-57645D01*
X30146Y-56845D02*
X29765Y-56845D01*
X29727Y-57226D01*
X29765Y-57188D01*
X29842Y-57150D01*
X30032Y-57150D01*
X30108Y-57188D01*
X30146Y-57226D01*
X30185Y-57302D01*
X30185Y-57492D01*
X30146Y-57569D01*
X30108Y-57607D01*
X30032Y-57645D01*
X29842Y-57645D01*
X29765Y-57607D01*
X29727Y-57569D01*
X30489Y-56845D02*
X30489Y-56997D01*
X30794Y-56845D02*
X30794Y-56997D01*
X31976Y-57950D02*
X31938Y-57911D01*
X31862Y-57797D01*
X31824Y-57721D01*
X31786Y-57607D01*
X31747Y-57416D01*
X31747Y-57264D01*
X31786Y-57073D01*
X31824Y-56959D01*
X31862Y-56883D01*
X31938Y-56769D01*
X31976Y-56731D01*
X32700Y-57645D02*
X32242Y-57645D01*
X32471Y-57645D02*
X32471Y-56845D01*
X32395Y-56959D01*
X32319Y-57035D01*
X32242Y-57073D01*
X33157Y-57188D02*
X33081Y-57150D01*
X33042Y-57111D01*
X33004Y-57035D01*
X33004Y-56997D01*
X33042Y-56921D01*
X33081Y-56883D01*
X33157Y-56845D01*
X33309Y-56845D01*
X33385Y-56883D01*
X33423Y-56921D01*
X33462Y-56997D01*
X33462Y-57035D01*
X33423Y-57111D01*
X33385Y-57150D01*
X33309Y-57188D01*
X33157Y-57188D01*
X33081Y-57226D01*
X33042Y-57264D01*
X33004Y-57340D01*
X33004Y-57492D01*
X33042Y-57569D01*
X33081Y-57607D01*
X33157Y-57645D01*
X33309Y-57645D01*
X33385Y-57607D01*
X33423Y-57569D01*
X33462Y-57492D01*
X33462Y-57340D01*
X33423Y-57264D01*
X33385Y-57226D01*
X33309Y-57188D01*
X34414Y-57645D02*
X34414Y-56845D01*
X34757Y-57645D02*
X34757Y-57226D01*
X34719Y-57150D01*
X34643Y-57111D01*
X34529Y-57111D01*
X34453Y-57150D01*
X34414Y-57188D01*
X35253Y-57645D02*
X35177Y-57607D01*
X35138Y-57569D01*
X35100Y-57492D01*
X35100Y-57264D01*
X35138Y-57188D01*
X35177Y-57150D01*
X35253Y-57111D01*
X35367Y-57111D01*
X35443Y-57150D01*
X35481Y-57188D01*
X35519Y-57264D01*
X35519Y-57492D01*
X35481Y-57569D01*
X35443Y-57607D01*
X35367Y-57645D01*
X35253Y-57645D01*
X35977Y-57645D02*
X35901Y-57607D01*
X35862Y-57531D01*
X35862Y-56845D01*
X36586Y-57607D02*
X36510Y-57645D01*
X36358Y-57645D01*
X36281Y-57607D01*
X36243Y-57531D01*
X36243Y-57226D01*
X36281Y-57150D01*
X36358Y-57111D01*
X36510Y-57111D01*
X36586Y-57150D01*
X36624Y-57226D01*
X36624Y-57302D01*
X36243Y-57378D01*
X36929Y-57607D02*
X37006Y-57645D01*
X37158Y-57645D01*
X37234Y-57607D01*
X37272Y-57531D01*
X37272Y-57492D01*
X37234Y-57416D01*
X37158Y-57378D01*
X37044Y-57378D01*
X36967Y-57340D01*
X36929Y-57264D01*
X36929Y-57226D01*
X36967Y-57150D01*
X37044Y-57111D01*
X37158Y-57111D01*
X37234Y-57150D01*
X37539Y-57950D02*
X37577Y-57911D01*
X37654Y-57797D01*
X37692Y-57721D01*
X37730Y-57607D01*
X37768Y-57416D01*
X37768Y-57264D01*
X37730Y-57073D01*
X37692Y-56959D01*
X37654Y-56883D01*
X37577Y-56769D01*
X37539Y-56731D01*
G54D10*
X19849Y-58376D02*
X19845Y-58407D01*
X19836Y-58436D01*
X19822Y-58464D01*
X19802Y-58488D01*
X19778Y-58508D01*
X19751Y-58523D01*
X19721Y-58532D01*
X19690Y-58535D01*
X19660Y-58533D01*
X19630Y-58524D01*
X19602Y-58509D01*
X19578Y-58490D01*
X19557Y-58466D01*
X19542Y-58439D01*
X19533Y-58409D01*
X19530Y-58378D01*
X19532Y-58348D01*
X19541Y-58318D01*
X19555Y-58290D01*
X19574Y-58265D01*
X19598Y-58245D01*
X19625Y-58230D01*
X19655Y-58220D01*
X19686Y-58217D01*
X19716Y-58219D01*
X19746Y-58227D01*
X19774Y-58241D01*
X19799Y-58261D01*
X19819Y-58284D01*
X19835Y-58311D01*
X19845Y-58341D01*
X19848Y-58372D01*
X19849Y-58376D01*
X19529Y-58216D02*
X19849Y-58536D01*
X19849Y-58216D02*
X19529Y-58536D01*
G54D12*
X20392Y-57900D02*
X20468Y-57900D01*
X20544Y-57938D01*
X20582Y-57976D01*
X20620Y-58052D01*
X20659Y-58205D01*
X20659Y-58395D01*
X20620Y-58547D01*
X20582Y-58624D01*
X20544Y-58662D01*
X20468Y-58700D01*
X20392Y-58700D01*
X20316Y-58662D01*
X20278Y-58624D01*
X20239Y-58547D01*
X20201Y-58395D01*
X20201Y-58205D01*
X20239Y-58052D01*
X20278Y-57976D01*
X20316Y-57938D01*
X20392Y-57900D01*
X21001Y-58624D02*
X21040Y-58662D01*
X21001Y-58700D01*
X20963Y-58662D01*
X21001Y-58624D01*
X21001Y-58700D01*
X21497Y-58243D02*
X21421Y-58205D01*
X21382Y-58166D01*
X21344Y-58090D01*
X21344Y-58052D01*
X21382Y-57976D01*
X21421Y-57938D01*
X21497Y-57900D01*
X21649Y-57900D01*
X21725Y-57938D01*
X21763Y-57976D01*
X21802Y-58052D01*
X21802Y-58090D01*
X21763Y-58166D01*
X21725Y-58205D01*
X21649Y-58243D01*
X21497Y-58243D01*
X21421Y-58281D01*
X21382Y-58319D01*
X21344Y-58395D01*
X21344Y-58547D01*
X21382Y-58624D01*
X21421Y-58662D01*
X21497Y-58700D01*
X21649Y-58700D01*
X21725Y-58662D01*
X21763Y-58624D01*
X21802Y-58547D01*
X21802Y-58395D01*
X21763Y-58319D01*
X21725Y-58281D01*
X21649Y-58243D01*
X22564Y-58700D02*
X22106Y-58700D01*
X22335Y-58700D02*
X22335Y-57900D01*
X22259Y-58014D01*
X22183Y-58090D01*
X22106Y-58128D01*
X22906Y-58700D02*
X22906Y-58166D01*
X22906Y-58243D02*
X22945Y-58205D01*
X23021Y-58166D01*
X23135Y-58166D01*
X23211Y-58205D01*
X23249Y-58281D01*
X23249Y-58700D01*
X23249Y-58281D02*
X23287Y-58205D01*
X23364Y-58166D01*
X23478Y-58166D01*
X23554Y-58205D01*
X23592Y-58281D01*
X23592Y-58700D01*
X23973Y-58700D02*
X23973Y-58166D01*
X23973Y-58243D02*
X24012Y-58205D01*
X24088Y-58166D01*
X24202Y-58166D01*
X24278Y-58205D01*
X24316Y-58281D01*
X24316Y-58700D01*
X24316Y-58281D02*
X24354Y-58205D01*
X24431Y-58166D01*
X24545Y-58166D01*
X24621Y-58205D01*
X24659Y-58281D01*
X24659Y-58700D01*
X26222Y-57862D02*
X25536Y-58890D01*
X27251Y-57900D02*
X27327Y-57900D01*
X27403Y-57938D01*
X27441Y-57976D01*
X27479Y-58052D01*
X27518Y-58205D01*
X27518Y-58395D01*
X27479Y-58547D01*
X27441Y-58624D01*
X27403Y-58662D01*
X27327Y-58700D01*
X27251Y-58700D01*
X27175Y-58662D01*
X27137Y-58624D01*
X27098Y-58547D01*
X27060Y-58395D01*
X27060Y-58205D01*
X27098Y-58052D01*
X27137Y-57976D01*
X27175Y-57938D01*
X27251Y-57900D01*
X27860Y-58624D02*
X27899Y-58662D01*
X27860Y-58700D01*
X27822Y-58662D01*
X27860Y-58624D01*
X27860Y-58700D01*
X28394Y-57900D02*
X28470Y-57900D01*
X28546Y-57938D01*
X28584Y-57976D01*
X28622Y-58052D01*
X28661Y-58205D01*
X28661Y-58395D01*
X28622Y-58547D01*
X28584Y-58624D01*
X28546Y-58662D01*
X28470Y-58700D01*
X28394Y-58700D01*
X28318Y-58662D01*
X28280Y-58624D01*
X28241Y-58547D01*
X28203Y-58395D01*
X28203Y-58205D01*
X28241Y-58052D01*
X28280Y-57976D01*
X28318Y-57938D01*
X28394Y-57900D01*
X28927Y-57900D02*
X29423Y-57900D01*
X29156Y-58205D01*
X29270Y-58205D01*
X29346Y-58243D01*
X29384Y-58281D01*
X29423Y-58357D01*
X29423Y-58547D01*
X29384Y-58624D01*
X29346Y-58662D01*
X29270Y-58700D01*
X29042Y-58700D01*
X28965Y-58662D01*
X28927Y-58624D01*
X29727Y-57976D02*
X29765Y-57938D01*
X29842Y-57900D01*
X30032Y-57900D01*
X30108Y-57938D01*
X30146Y-57976D01*
X30185Y-58052D01*
X30185Y-58128D01*
X30146Y-58243D01*
X29689Y-58700D01*
X30185Y-58700D01*
X30489Y-57900D02*
X30489Y-58052D01*
X30794Y-57900D02*
X30794Y-58052D01*
X31976Y-59005D02*
X31938Y-58966D01*
X31862Y-58852D01*
X31824Y-58776D01*
X31786Y-58662D01*
X31747Y-58471D01*
X31747Y-58319D01*
X31786Y-58128D01*
X31824Y-58014D01*
X31862Y-57938D01*
X31938Y-57824D01*
X31976Y-57786D01*
X32204Y-57900D02*
X32738Y-57900D01*
X32395Y-58700D01*
X32966Y-57900D02*
X33462Y-57900D01*
X33195Y-58205D01*
X33309Y-58205D01*
X33385Y-58243D01*
X33423Y-58281D01*
X33462Y-58357D01*
X33462Y-58547D01*
X33423Y-58624D01*
X33385Y-58662D01*
X33309Y-58700D01*
X33081Y-58700D01*
X33004Y-58662D01*
X32966Y-58624D01*
X34414Y-58700D02*
X34414Y-57900D01*
X34757Y-58700D02*
X34757Y-58281D01*
X34719Y-58205D01*
X34643Y-58166D01*
X34529Y-58166D01*
X34453Y-58205D01*
X34414Y-58243D01*
X35253Y-58700D02*
X35177Y-58662D01*
X35138Y-58624D01*
X35100Y-58547D01*
X35100Y-58319D01*
X35138Y-58243D01*
X35177Y-58205D01*
X35253Y-58166D01*
X35367Y-58166D01*
X35443Y-58205D01*
X35481Y-58243D01*
X35519Y-58319D01*
X35519Y-58547D01*
X35481Y-58624D01*
X35443Y-58662D01*
X35367Y-58700D01*
X35253Y-58700D01*
X35977Y-58700D02*
X35901Y-58662D01*
X35862Y-58586D01*
X35862Y-57900D01*
X36586Y-58662D02*
X36510Y-58700D01*
X36358Y-58700D01*
X36281Y-58662D01*
X36243Y-58586D01*
X36243Y-58281D01*
X36281Y-58205D01*
X36358Y-58166D01*
X36510Y-58166D01*
X36586Y-58205D01*
X36624Y-58281D01*
X36624Y-58357D01*
X36243Y-58433D01*
X36929Y-58662D02*
X37006Y-58700D01*
X37158Y-58700D01*
X37234Y-58662D01*
X37272Y-58586D01*
X37272Y-58547D01*
X37234Y-58471D01*
X37158Y-58433D01*
X37044Y-58433D01*
X36967Y-58395D01*
X36929Y-58319D01*
X36929Y-58281D01*
X36967Y-58205D01*
X37044Y-58166D01*
X37158Y-58166D01*
X37234Y-58205D01*
X37539Y-59005D02*
X37577Y-58966D01*
X37654Y-58852D01*
X37692Y-58776D01*
X37730Y-58662D01*
X37768Y-58471D01*
X37768Y-58319D01*
X37730Y-58128D01*
X37692Y-58014D01*
X37654Y-57938D01*
X37577Y-57824D01*
X37539Y-57786D01*
G54D10*
X19849Y-59431D02*
X19845Y-59469D01*
X19833Y-59507D01*
X19815Y-59541D01*
X19790Y-59571D01*
X19760Y-59596D01*
X19726Y-59615D01*
X19689Y-59626D01*
X19650Y-59630D01*
X19612Y-59627D01*
X19575Y-59616D01*
X19540Y-59598D01*
X19510Y-59573D01*
X19484Y-59543D01*
X19466Y-59509D01*
X19454Y-59472D01*
X19450Y-59433D01*
X19453Y-59395D01*
X19464Y-59358D01*
X19481Y-59323D01*
X19506Y-59293D01*
X19535Y-59267D01*
X19569Y-59248D01*
X19607Y-59236D01*
X19645Y-59232D01*
X19683Y-59235D01*
X19721Y-59245D01*
X19756Y-59263D01*
X19786Y-59287D01*
X19812Y-59316D01*
X19831Y-59350D01*
X19844Y-59387D01*
X19848Y-59426D01*
X19849Y-59431D01*
X19449Y-59431D02*
X19849Y-59431D01*
G54D12*
X20659Y-59755D02*
X20201Y-59755D01*
X20430Y-59755D02*
X20430Y-58955D01*
X20354Y-59069D01*
X20278Y-59145D01*
X20201Y-59183D01*
X21001Y-59679D02*
X21040Y-59717D01*
X21001Y-59755D01*
X20963Y-59717D01*
X21001Y-59679D01*
X21001Y-59755D01*
X21535Y-58955D02*
X21611Y-58955D01*
X21687Y-58993D01*
X21725Y-59031D01*
X21763Y-59107D01*
X21802Y-59260D01*
X21802Y-59450D01*
X21763Y-59602D01*
X21725Y-59679D01*
X21687Y-59717D01*
X21611Y-59755D01*
X21535Y-59755D01*
X21459Y-59717D01*
X21421Y-59679D01*
X21382Y-59602D01*
X21344Y-59450D01*
X21344Y-59260D01*
X21382Y-59107D01*
X21421Y-59031D01*
X21459Y-58993D01*
X21535Y-58955D01*
X22106Y-59031D02*
X22144Y-58993D01*
X22221Y-58955D01*
X22411Y-58955D01*
X22487Y-58993D01*
X22525Y-59031D01*
X22564Y-59107D01*
X22564Y-59183D01*
X22525Y-59298D01*
X22068Y-59755D01*
X22564Y-59755D01*
X22906Y-59755D02*
X22906Y-59221D01*
X22906Y-59298D02*
X22945Y-59260D01*
X23021Y-59221D01*
X23135Y-59221D01*
X23211Y-59260D01*
X23249Y-59336D01*
X23249Y-59755D01*
X23249Y-59336D02*
X23287Y-59260D01*
X23364Y-59221D01*
X23478Y-59221D01*
X23554Y-59260D01*
X23592Y-59336D01*
X23592Y-59755D01*
X23973Y-59755D02*
X23973Y-59221D01*
X23973Y-59298D02*
X24012Y-59260D01*
X24088Y-59221D01*
X24202Y-59221D01*
X24278Y-59260D01*
X24316Y-59336D01*
X24316Y-59755D01*
X24316Y-59336D02*
X24354Y-59260D01*
X24431Y-59221D01*
X24545Y-59221D01*
X24621Y-59260D01*
X24659Y-59336D01*
X24659Y-59755D01*
X26222Y-58917D02*
X25536Y-59945D01*
X27251Y-58955D02*
X27327Y-58955D01*
X27403Y-58993D01*
X27441Y-59031D01*
X27479Y-59107D01*
X27518Y-59260D01*
X27518Y-59450D01*
X27479Y-59602D01*
X27441Y-59679D01*
X27403Y-59717D01*
X27327Y-59755D01*
X27251Y-59755D01*
X27175Y-59717D01*
X27137Y-59679D01*
X27098Y-59602D01*
X27060Y-59450D01*
X27060Y-59260D01*
X27098Y-59107D01*
X27137Y-59031D01*
X27175Y-58993D01*
X27251Y-58955D01*
X27860Y-59679D02*
X27899Y-59717D01*
X27860Y-59755D01*
X27822Y-59717D01*
X27860Y-59679D01*
X27860Y-59755D01*
X28394Y-58955D02*
X28470Y-58955D01*
X28546Y-58993D01*
X28584Y-59031D01*
X28622Y-59107D01*
X28661Y-59260D01*
X28661Y-59450D01*
X28622Y-59602D01*
X28584Y-59679D01*
X28546Y-59717D01*
X28470Y-59755D01*
X28394Y-59755D01*
X28318Y-59717D01*
X28280Y-59679D01*
X28241Y-59602D01*
X28203Y-59450D01*
X28203Y-59260D01*
X28241Y-59107D01*
X28280Y-59031D01*
X28318Y-58993D01*
X28394Y-58955D01*
X29346Y-59221D02*
X29346Y-59755D01*
X29156Y-58917D02*
X28965Y-59488D01*
X29461Y-59488D01*
X29918Y-58955D02*
X29994Y-58955D01*
X30070Y-58993D01*
X30108Y-59031D01*
X30146Y-59107D01*
X30185Y-59260D01*
X30185Y-59450D01*
X30146Y-59602D01*
X30108Y-59679D01*
X30070Y-59717D01*
X29994Y-59755D01*
X29918Y-59755D01*
X29842Y-59717D01*
X29804Y-59679D01*
X29765Y-59602D01*
X29727Y-59450D01*
X29727Y-59260D01*
X29765Y-59107D01*
X29804Y-59031D01*
X29842Y-58993D01*
X29918Y-58955D01*
X30489Y-58955D02*
X30489Y-59107D01*
X30794Y-58955D02*
X30794Y-59107D01*
X31976Y-60060D02*
X31938Y-60021D01*
X31862Y-59907D01*
X31824Y-59831D01*
X31786Y-59717D01*
X31747Y-59526D01*
X31747Y-59374D01*
X31786Y-59183D01*
X31824Y-59069D01*
X31862Y-58993D01*
X31938Y-58879D01*
X31976Y-58841D01*
X32204Y-58955D02*
X32700Y-58955D01*
X32433Y-59260D01*
X32547Y-59260D01*
X32623Y-59298D01*
X32661Y-59336D01*
X32700Y-59412D01*
X32700Y-59602D01*
X32661Y-59679D01*
X32623Y-59717D01*
X32547Y-59755D01*
X32319Y-59755D01*
X32242Y-59717D01*
X32204Y-59679D01*
X32966Y-58955D02*
X33500Y-58955D01*
X33157Y-59755D01*
X34414Y-59755D02*
X34414Y-58955D01*
X34757Y-59755D02*
X34757Y-59336D01*
X34719Y-59260D01*
X34643Y-59221D01*
X34529Y-59221D01*
X34453Y-59260D01*
X34414Y-59298D01*
X35253Y-59755D02*
X35177Y-59717D01*
X35138Y-59679D01*
X35100Y-59602D01*
X35100Y-59374D01*
X35138Y-59298D01*
X35177Y-59260D01*
X35253Y-59221D01*
X35367Y-59221D01*
X35443Y-59260D01*
X35481Y-59298D01*
X35519Y-59374D01*
X35519Y-59602D01*
X35481Y-59679D01*
X35443Y-59717D01*
X35367Y-59755D01*
X35253Y-59755D01*
X35977Y-59755D02*
X35901Y-59717D01*
X35862Y-59641D01*
X35862Y-58955D01*
X36586Y-59717D02*
X36510Y-59755D01*
X36358Y-59755D01*
X36281Y-59717D01*
X36243Y-59641D01*
X36243Y-59336D01*
X36281Y-59260D01*
X36358Y-59221D01*
X36510Y-59221D01*
X36586Y-59260D01*
X36624Y-59336D01*
X36624Y-59412D01*
X36243Y-59488D01*
X36929Y-59717D02*
X37006Y-59755D01*
X37158Y-59755D01*
X37234Y-59717D01*
X37272Y-59641D01*
X37272Y-59602D01*
X37234Y-59526D01*
X37158Y-59488D01*
X37044Y-59488D01*
X36967Y-59450D01*
X36929Y-59374D01*
X36929Y-59336D01*
X36967Y-59260D01*
X37044Y-59221D01*
X37158Y-59221D01*
X37234Y-59260D01*
X37539Y-60060D02*
X37577Y-60021D01*
X37654Y-59907D01*
X37692Y-59831D01*
X37730Y-59717D01*
X37768Y-59526D01*
X37768Y-59374D01*
X37730Y-59183D01*
X37692Y-59069D01*
X37654Y-58993D01*
X37577Y-58879D01*
X37539Y-58841D01*
M02*
