M48
;DRILL file {Pcbnew (2012-01-19 BZR 3256)-stable} date 12/03/2013 15:27:42
;FORMAT={-:-/ absolute / metric / decimal}
FMAT,2
METRIC,TZ
T1C0.599
T2C0.610
T3C0.635
T4C0.813
T5C1.016
%
G90
G05
M71
T1
X67.310Y95.250
X67.310Y102.870
X76.200Y118.110
X78.740Y118.110
X89.535Y117.475
X93.345Y120.015
X97.155Y117.475
X100.965Y120.015
X109.855Y123.190
X112.395Y123.190
T2
X89.535Y124.460
X89.535Y129.540
X96.520Y124.460
X96.520Y129.540
X97.790Y72.390
X97.790Y77.470
X97.790Y90.170
X97.790Y95.250
X97.790Y107.950
X97.790Y113.030
X101.600Y73.660
X101.600Y76.200
X101.600Y91.440
X101.600Y93.980
X101.600Y109.220
X101.600Y111.760
X135.255Y122.555
X135.255Y127.635
X142.875Y65.405
X142.875Y70.485
X143.510Y122.555
X143.510Y127.635
X147.320Y66.675
X147.320Y69.215
T3
X64.770Y102.870
X65.405Y107.950
X67.945Y62.865
X69.215Y105.410
X71.755Y113.030
X90.805Y68.580
X90.805Y86.360
X102.235Y99.695
X104.140Y81.915
X106.045Y126.365
X115.570Y126.365
X125.730Y60.960
X133.350Y60.960
X133.350Y74.930
X138.430Y60.960
X146.685Y120.650
X161.925Y88.265
X170.815Y114.300
T4
X76.200Y71.120
X76.200Y74.295
X76.200Y88.900
X76.200Y92.075
X76.200Y106.680
X76.200Y109.855
X76.200Y113.030
X76.835Y126.365
X79.375Y126.365
X79.375Y128.905
X83.820Y71.120
X83.820Y74.295
X83.820Y88.900
X83.820Y92.075
X83.820Y106.680
X83.820Y109.855
X83.820Y113.030
X86.995Y71.120
X86.995Y78.740
X86.995Y88.900
X86.995Y96.520
X86.995Y106.680
X86.995Y114.300
X89.535Y71.120
X89.535Y78.740
X89.535Y81.915
X89.535Y88.900
X89.535Y96.520
X89.535Y99.695
X89.535Y106.680
X89.535Y114.300
X92.075Y71.120
X92.075Y78.740
X92.075Y88.900
X92.075Y96.520
X92.075Y106.680
X92.075Y114.300
X93.345Y84.455
X93.345Y102.235
X94.615Y71.120
X94.615Y78.740
X94.615Y88.900
X94.615Y96.520
X94.615Y106.680
X94.615Y114.300
X97.155Y81.915
X97.155Y99.695
X100.965Y84.455
X100.965Y102.235
X121.285Y120.650
X121.285Y128.270
X123.190Y64.135
X123.190Y71.755
X123.825Y86.995
X123.825Y94.615
X123.825Y99.695
X125.730Y64.135
X125.730Y71.755
X128.270Y64.135
X128.270Y71.755
X130.810Y64.135
X130.810Y71.755
X133.350Y64.135
X133.350Y71.755
X135.890Y64.135
X135.890Y71.755
X138.430Y64.135
X138.430Y71.755
X144.145Y86.995
X144.145Y97.155
X144.145Y107.315
X161.925Y90.805
X161.925Y98.425
T5
X57.785Y86.360
X57.785Y88.900
X57.785Y91.440
X57.785Y93.980
X57.785Y96.520
X57.785Y99.060
X57.785Y101.600
X60.325Y86.360
X60.325Y88.900
X60.325Y91.440
X60.325Y93.980
X60.325Y96.520
X60.325Y99.060
X60.325Y101.600
X67.310Y59.690
X69.850Y59.690
X72.390Y59.690
X74.930Y59.690
X77.470Y59.690
X80.010Y59.690
X82.550Y59.690
X125.730Y123.190
X125.730Y125.730
X168.275Y86.995
X168.275Y89.535
X168.275Y92.075
X168.275Y94.615
X168.275Y97.155
X168.275Y99.695
X168.275Y102.235
X170.815Y86.995
X170.815Y89.535
X170.815Y92.075
X170.815Y94.615
X170.815Y97.155
X170.815Y99.695
X170.815Y102.235
T0
M30
