G04 (created by PCBNEW (2012-01-19 BZR 3256)-stable) date 12/03/2013 15:31:34*
G01*
G70*
G90*
%MOIN*%
G04 Gerber Fmt 3.4, Leading zero omitted, Abs format*
%FSLAX34Y34*%
G04 APERTURE LIST*
%ADD10C,0.001000*%
%ADD11C,0.015000*%
%ADD12C,0.008000*%
G04 APERTURE END LIST*
G54D10*
G54D11*
X20000Y-51000D02*
X20000Y-27000D01*
X51000Y-52500D02*
X21500Y-52500D01*
X52500Y-21500D02*
X52500Y-51000D01*
X26500Y-20000D02*
X51000Y-20000D01*
X51000Y-20000D02*
X52500Y-21500D01*
X51000Y-52500D02*
X52500Y-51000D01*
X20000Y-51000D02*
X21500Y-52500D01*
X26500Y-27000D02*
X26500Y-20000D01*
X20000Y-27000D02*
X26500Y-27000D01*
G54D10*
X29880Y-28630D02*
X30120Y-28870D01*
X30120Y-28630D02*
X29880Y-28870D01*
X29880Y-29630D02*
X30120Y-29870D01*
X30120Y-29630D02*
X29880Y-29870D01*
X32130Y-28630D02*
X32370Y-28870D01*
X32370Y-28630D02*
X32130Y-28870D01*
X32130Y-29630D02*
X32370Y-29870D01*
X32370Y-29630D02*
X32130Y-29870D01*
X32130Y-36630D02*
X32370Y-36870D01*
X32370Y-36630D02*
X32130Y-36870D01*
X32130Y-38630D02*
X32370Y-38870D01*
X32370Y-38630D02*
X32130Y-38870D01*
X37130Y-42380D02*
X37370Y-42620D01*
X37370Y-42380D02*
X37130Y-42620D01*
X37130Y-44130D02*
X37370Y-44370D01*
X37370Y-44130D02*
X37130Y-44370D01*
X38130Y-42380D02*
X38370Y-42620D01*
X38370Y-42380D02*
X38130Y-42620D01*
X38130Y-44130D02*
X38370Y-44370D01*
X38370Y-44130D02*
X38130Y-44370D01*
X32625Y-26000D02*
X32622Y-26024D01*
X32615Y-26047D01*
X32604Y-26069D01*
X32588Y-26088D01*
X32569Y-26103D01*
X32548Y-26115D01*
X32525Y-26122D01*
X32500Y-26124D01*
X32477Y-26122D01*
X32454Y-26115D01*
X32432Y-26104D01*
X32413Y-26089D01*
X32397Y-26070D01*
X32386Y-26049D01*
X32378Y-26025D01*
X32376Y-26001D01*
X32378Y-25978D01*
X32384Y-25954D01*
X32395Y-25933D01*
X32411Y-25914D01*
X32429Y-25898D01*
X32450Y-25886D01*
X32474Y-25878D01*
X32498Y-25876D01*
X32521Y-25877D01*
X32545Y-25884D01*
X32566Y-25895D01*
X32586Y-25910D01*
X32602Y-25928D01*
X32614Y-25950D01*
X32621Y-25973D01*
X32624Y-25997D01*
X32625Y-26000D01*
X39125Y-47500D02*
X39122Y-47524D01*
X39115Y-47547D01*
X39104Y-47569D01*
X39088Y-47588D01*
X39069Y-47603D01*
X39048Y-47615D01*
X39025Y-47622D01*
X39000Y-47624D01*
X38977Y-47622D01*
X38954Y-47615D01*
X38932Y-47604D01*
X38913Y-47589D01*
X38897Y-47570D01*
X38886Y-47549D01*
X38878Y-47525D01*
X38876Y-47501D01*
X38878Y-47478D01*
X38884Y-47454D01*
X38895Y-47433D01*
X38911Y-47414D01*
X38929Y-47398D01*
X38950Y-47386D01*
X38974Y-47378D01*
X38998Y-47376D01*
X39021Y-47377D01*
X39045Y-47384D01*
X39066Y-47395D01*
X39086Y-47410D01*
X39102Y-47428D01*
X39114Y-47450D01*
X39121Y-47473D01*
X39124Y-47497D01*
X39125Y-47500D01*
X40375Y-47500D02*
X40372Y-47524D01*
X40365Y-47547D01*
X40354Y-47569D01*
X40338Y-47588D01*
X40319Y-47603D01*
X40298Y-47615D01*
X40275Y-47622D01*
X40250Y-47624D01*
X40227Y-47622D01*
X40204Y-47615D01*
X40182Y-47604D01*
X40163Y-47589D01*
X40147Y-47570D01*
X40136Y-47549D01*
X40128Y-47525D01*
X40126Y-47501D01*
X40128Y-47478D01*
X40134Y-47454D01*
X40145Y-47433D01*
X40161Y-47414D01*
X40179Y-47398D01*
X40200Y-47386D01*
X40224Y-47378D01*
X40248Y-47376D01*
X40271Y-47377D01*
X40295Y-47384D01*
X40316Y-47395D01*
X40336Y-47410D01*
X40352Y-47428D01*
X40364Y-47450D01*
X40371Y-47473D01*
X40374Y-47497D01*
X40375Y-47500D01*
X41625Y-47500D02*
X41622Y-47524D01*
X41615Y-47547D01*
X41604Y-47569D01*
X41588Y-47588D01*
X41569Y-47603D01*
X41548Y-47615D01*
X41525Y-47622D01*
X41500Y-47624D01*
X41477Y-47622D01*
X41454Y-47615D01*
X41432Y-47604D01*
X41413Y-47589D01*
X41397Y-47570D01*
X41386Y-47549D01*
X41378Y-47525D01*
X41376Y-47501D01*
X41378Y-47478D01*
X41384Y-47454D01*
X41395Y-47433D01*
X41411Y-47414D01*
X41429Y-47398D01*
X41450Y-47386D01*
X41474Y-47378D01*
X41498Y-47376D01*
X41521Y-47377D01*
X41545Y-47384D01*
X41566Y-47395D01*
X41586Y-47410D01*
X41602Y-47428D01*
X41614Y-47450D01*
X41621Y-47473D01*
X41624Y-47497D01*
X41625Y-47500D01*
X42125Y-25750D02*
X42122Y-25774D01*
X42115Y-25797D01*
X42104Y-25819D01*
X42088Y-25838D01*
X42069Y-25853D01*
X42048Y-25865D01*
X42025Y-25872D01*
X42000Y-25874D01*
X41977Y-25872D01*
X41954Y-25865D01*
X41932Y-25854D01*
X41913Y-25839D01*
X41897Y-25820D01*
X41886Y-25799D01*
X41878Y-25775D01*
X41876Y-25751D01*
X41878Y-25728D01*
X41884Y-25704D01*
X41895Y-25683D01*
X41911Y-25664D01*
X41929Y-25648D01*
X41950Y-25636D01*
X41974Y-25628D01*
X41998Y-25626D01*
X42021Y-25627D01*
X42045Y-25634D01*
X42066Y-25645D01*
X42086Y-25660D01*
X42102Y-25678D01*
X42114Y-25700D01*
X42121Y-25723D01*
X42124Y-25747D01*
X42125Y-25750D01*
X46125Y-23000D02*
X46122Y-23024D01*
X46115Y-23047D01*
X46104Y-23069D01*
X46088Y-23088D01*
X46069Y-23103D01*
X46048Y-23115D01*
X46025Y-23122D01*
X46000Y-23124D01*
X45977Y-23122D01*
X45954Y-23115D01*
X45932Y-23104D01*
X45913Y-23089D01*
X45897Y-23070D01*
X45886Y-23049D01*
X45878Y-23025D01*
X45876Y-23001D01*
X45878Y-22978D01*
X45884Y-22954D01*
X45895Y-22933D01*
X45911Y-22914D01*
X45929Y-22898D01*
X45950Y-22886D01*
X45974Y-22878D01*
X45998Y-22876D01*
X46021Y-22877D01*
X46045Y-22884D01*
X46066Y-22895D01*
X46086Y-22910D01*
X46102Y-22928D01*
X46114Y-22950D01*
X46121Y-22973D01*
X46124Y-22997D01*
X46125Y-23000D01*
X46875Y-27500D02*
X46872Y-27524D01*
X46865Y-27547D01*
X46854Y-27569D01*
X46838Y-27588D01*
X46819Y-27603D01*
X46798Y-27615D01*
X46775Y-27622D01*
X46750Y-27624D01*
X46727Y-27622D01*
X46704Y-27615D01*
X46682Y-27604D01*
X46663Y-27589D01*
X46647Y-27570D01*
X46636Y-27549D01*
X46628Y-27525D01*
X46626Y-27501D01*
X46628Y-27478D01*
X46634Y-27454D01*
X46645Y-27433D01*
X46661Y-27414D01*
X46679Y-27398D01*
X46700Y-27386D01*
X46724Y-27378D01*
X46748Y-27376D01*
X46771Y-27377D01*
X46795Y-27384D01*
X46816Y-27395D01*
X46836Y-27410D01*
X46852Y-27428D01*
X46864Y-27450D01*
X46871Y-27473D01*
X46874Y-27497D01*
X46875Y-27500D01*
X22000Y-28590D02*
X22000Y-28910D01*
X22160Y-28750D02*
X21840Y-28750D01*
X22000Y-29590D02*
X22000Y-29910D01*
X22160Y-29750D02*
X21840Y-29750D01*
X22000Y-30590D02*
X22000Y-30910D01*
X22160Y-30750D02*
X21840Y-30750D01*
X22000Y-36590D02*
X22000Y-36910D01*
X22160Y-36750D02*
X21840Y-36750D01*
X22000Y-38590D02*
X22000Y-38910D01*
X22160Y-38750D02*
X21840Y-38750D01*
X22000Y-41090D02*
X22000Y-41410D01*
X22160Y-41250D02*
X21840Y-41250D01*
X22000Y-44090D02*
X22000Y-44410D01*
X22160Y-44250D02*
X21840Y-44250D01*
X24500Y-41090D02*
X24500Y-41410D01*
X24660Y-41250D02*
X24340Y-41250D01*
X24500Y-44090D02*
X24500Y-44410D01*
X24660Y-44250D02*
X24340Y-44250D01*
X28000Y-29590D02*
X28000Y-29910D01*
X28160Y-29750D02*
X27840Y-29750D01*
X28000Y-30590D02*
X28000Y-30910D01*
X28160Y-30750D02*
X27840Y-30750D01*
X28000Y-36590D02*
X28000Y-36910D01*
X28160Y-36750D02*
X27840Y-36750D01*
X28000Y-38590D02*
X28000Y-38910D01*
X28160Y-38750D02*
X27840Y-38750D01*
X33500Y-36090D02*
X33500Y-36410D01*
X33660Y-36250D02*
X33340Y-36250D01*
X33500Y-39090D02*
X33500Y-39410D01*
X33660Y-39250D02*
X33340Y-39250D01*
X35000Y-36090D02*
X35000Y-36410D01*
X35160Y-36250D02*
X34840Y-36250D01*
X35000Y-39090D02*
X35000Y-39410D01*
X35160Y-39250D02*
X34840Y-39250D01*
X36250Y-34090D02*
X36250Y-34410D01*
X36410Y-34250D02*
X36090Y-34250D01*
X36250Y-38090D02*
X36250Y-38410D01*
X36410Y-38250D02*
X36090Y-38250D01*
X36250Y-39090D02*
X36250Y-39410D01*
X36410Y-39250D02*
X36090Y-39250D01*
X36250Y-40090D02*
X36250Y-40410D01*
X36410Y-40250D02*
X36090Y-40250D01*
X36250Y-41090D02*
X36250Y-41410D01*
X36410Y-41250D02*
X36090Y-41250D01*
X37250Y-36590D02*
X37250Y-36910D01*
X37410Y-36750D02*
X37090Y-36750D01*
X39250Y-34090D02*
X39250Y-34410D01*
X39410Y-34250D02*
X39090Y-34250D01*
X39250Y-38090D02*
X39250Y-38410D01*
X39410Y-38250D02*
X39090Y-38250D01*
X39250Y-39090D02*
X39250Y-39410D01*
X39410Y-39250D02*
X39090Y-39250D01*
X39250Y-40090D02*
X39250Y-40410D01*
X39410Y-40250D02*
X39090Y-40250D01*
X39250Y-41090D02*
X39250Y-41410D01*
X39410Y-41250D02*
X39090Y-41250D01*
X40250Y-36590D02*
X40250Y-36910D01*
X40410Y-36750D02*
X40090Y-36750D01*
X42250Y-36590D02*
X42250Y-36910D01*
X42410Y-36750D02*
X42090Y-36750D01*
X42250Y-39590D02*
X42250Y-39910D01*
X42410Y-39750D02*
X42090Y-39750D01*
X45000Y-26340D02*
X45000Y-26660D01*
X45160Y-26500D02*
X44840Y-26500D01*
X45750Y-40090D02*
X45750Y-40410D01*
X45910Y-40250D02*
X45590Y-40250D01*
X45750Y-43090D02*
X45750Y-43410D01*
X45910Y-43250D02*
X45590Y-43250D01*
X46500Y-46840D02*
X46500Y-47160D01*
X46660Y-47000D02*
X46340Y-47000D01*
X48000Y-26340D02*
X48000Y-26660D01*
X48160Y-26500D02*
X47840Y-26500D01*
X48750Y-40090D02*
X48750Y-40410D01*
X48910Y-40250D02*
X48590Y-40250D01*
X48750Y-43090D02*
X48750Y-43410D01*
X48910Y-43250D02*
X48590Y-43250D01*
X49500Y-46840D02*
X49500Y-47160D01*
X49660Y-47000D02*
X49340Y-47000D01*
X22200Y-45500D02*
X22196Y-45538D01*
X22184Y-45576D01*
X22166Y-45610D01*
X22141Y-45640D01*
X22111Y-45665D01*
X22077Y-45684D01*
X22040Y-45695D01*
X22001Y-45699D01*
X21963Y-45696D01*
X21926Y-45685D01*
X21891Y-45667D01*
X21861Y-45642D01*
X21835Y-45612D01*
X21817Y-45578D01*
X21805Y-45541D01*
X21801Y-45502D01*
X21804Y-45464D01*
X21815Y-45427D01*
X21832Y-45392D01*
X21857Y-45362D01*
X21886Y-45336D01*
X21920Y-45317D01*
X21958Y-45305D01*
X21996Y-45301D01*
X22034Y-45304D01*
X22072Y-45314D01*
X22107Y-45332D01*
X22137Y-45356D01*
X22163Y-45385D01*
X22182Y-45419D01*
X22195Y-45456D01*
X22199Y-45495D01*
X22200Y-45500D01*
X21800Y-45300D02*
X22200Y-45700D01*
X22200Y-45300D02*
X21800Y-45700D01*
X22200Y-46500D02*
X22196Y-46538D01*
X22184Y-46576D01*
X22166Y-46610D01*
X22141Y-46640D01*
X22111Y-46665D01*
X22077Y-46684D01*
X22040Y-46695D01*
X22001Y-46699D01*
X21963Y-46696D01*
X21926Y-46685D01*
X21891Y-46667D01*
X21861Y-46642D01*
X21835Y-46612D01*
X21817Y-46578D01*
X21805Y-46541D01*
X21801Y-46502D01*
X21804Y-46464D01*
X21815Y-46427D01*
X21832Y-46392D01*
X21857Y-46362D01*
X21886Y-46336D01*
X21920Y-46317D01*
X21958Y-46305D01*
X21996Y-46301D01*
X22034Y-46304D01*
X22072Y-46314D01*
X22107Y-46332D01*
X22137Y-46356D01*
X22163Y-46385D01*
X22182Y-46419D01*
X22195Y-46456D01*
X22199Y-46495D01*
X22200Y-46500D01*
X21800Y-46300D02*
X22200Y-46700D01*
X22200Y-46300D02*
X21800Y-46700D01*
X24700Y-45500D02*
X24696Y-45538D01*
X24684Y-45576D01*
X24666Y-45610D01*
X24641Y-45640D01*
X24611Y-45665D01*
X24577Y-45684D01*
X24540Y-45695D01*
X24501Y-45699D01*
X24463Y-45696D01*
X24426Y-45685D01*
X24391Y-45667D01*
X24361Y-45642D01*
X24335Y-45612D01*
X24317Y-45578D01*
X24305Y-45541D01*
X24301Y-45502D01*
X24304Y-45464D01*
X24315Y-45427D01*
X24332Y-45392D01*
X24357Y-45362D01*
X24386Y-45336D01*
X24420Y-45317D01*
X24458Y-45305D01*
X24496Y-45301D01*
X24534Y-45304D01*
X24572Y-45314D01*
X24607Y-45332D01*
X24637Y-45356D01*
X24663Y-45385D01*
X24682Y-45419D01*
X24695Y-45456D01*
X24699Y-45495D01*
X24700Y-45500D01*
X24300Y-45300D02*
X24700Y-45700D01*
X24700Y-45300D02*
X24300Y-45700D01*
X24700Y-46500D02*
X24696Y-46538D01*
X24684Y-46576D01*
X24666Y-46610D01*
X24641Y-46640D01*
X24611Y-46665D01*
X24577Y-46684D01*
X24540Y-46695D01*
X24501Y-46699D01*
X24463Y-46696D01*
X24426Y-46685D01*
X24391Y-46667D01*
X24361Y-46642D01*
X24335Y-46612D01*
X24317Y-46578D01*
X24305Y-46541D01*
X24301Y-46502D01*
X24304Y-46464D01*
X24315Y-46427D01*
X24332Y-46392D01*
X24357Y-46362D01*
X24386Y-46336D01*
X24420Y-46317D01*
X24458Y-46305D01*
X24496Y-46301D01*
X24534Y-46304D01*
X24572Y-46314D01*
X24607Y-46332D01*
X24637Y-46356D01*
X24663Y-46385D01*
X24682Y-46419D01*
X24695Y-46456D01*
X24699Y-46495D01*
X24700Y-46500D01*
X24300Y-46300D02*
X24700Y-46700D01*
X24700Y-46300D02*
X24300Y-46700D01*
X30950Y-22500D02*
X30946Y-22538D01*
X30934Y-22576D01*
X30916Y-22610D01*
X30891Y-22640D01*
X30861Y-22665D01*
X30827Y-22684D01*
X30790Y-22695D01*
X30751Y-22699D01*
X30713Y-22696D01*
X30676Y-22685D01*
X30641Y-22667D01*
X30611Y-22642D01*
X30585Y-22612D01*
X30567Y-22578D01*
X30555Y-22541D01*
X30551Y-22502D01*
X30554Y-22464D01*
X30565Y-22427D01*
X30582Y-22392D01*
X30607Y-22362D01*
X30636Y-22336D01*
X30670Y-22317D01*
X30708Y-22305D01*
X30746Y-22301D01*
X30784Y-22304D01*
X30822Y-22314D01*
X30857Y-22332D01*
X30887Y-22356D01*
X30913Y-22385D01*
X30932Y-22419D01*
X30945Y-22456D01*
X30949Y-22495D01*
X30950Y-22500D01*
X30550Y-22300D02*
X30950Y-22700D01*
X30950Y-22300D02*
X30550Y-22700D01*
X30950Y-50000D02*
X30946Y-50038D01*
X30934Y-50076D01*
X30916Y-50110D01*
X30891Y-50140D01*
X30861Y-50165D01*
X30827Y-50184D01*
X30790Y-50195D01*
X30751Y-50199D01*
X30713Y-50196D01*
X30676Y-50185D01*
X30641Y-50167D01*
X30611Y-50142D01*
X30585Y-50112D01*
X30567Y-50078D01*
X30555Y-50041D01*
X30551Y-50002D01*
X30554Y-49964D01*
X30565Y-49927D01*
X30582Y-49892D01*
X30607Y-49862D01*
X30636Y-49836D01*
X30670Y-49817D01*
X30708Y-49805D01*
X30746Y-49801D01*
X30784Y-49804D01*
X30822Y-49814D01*
X30857Y-49832D01*
X30887Y-49856D01*
X30913Y-49885D01*
X30932Y-49919D01*
X30945Y-49956D01*
X30949Y-49995D01*
X30950Y-50000D01*
X30550Y-49800D02*
X30950Y-50200D01*
X30950Y-49800D02*
X30550Y-50200D01*
X34450Y-22000D02*
X34446Y-22038D01*
X34434Y-22076D01*
X34416Y-22110D01*
X34391Y-22140D01*
X34361Y-22165D01*
X34327Y-22184D01*
X34290Y-22195D01*
X34251Y-22199D01*
X34213Y-22196D01*
X34176Y-22185D01*
X34141Y-22167D01*
X34111Y-22142D01*
X34085Y-22112D01*
X34067Y-22078D01*
X34055Y-22041D01*
X34051Y-22002D01*
X34054Y-21964D01*
X34065Y-21927D01*
X34082Y-21892D01*
X34107Y-21862D01*
X34136Y-21836D01*
X34170Y-21817D01*
X34208Y-21805D01*
X34246Y-21801D01*
X34284Y-21804D01*
X34322Y-21814D01*
X34357Y-21832D01*
X34387Y-21856D01*
X34413Y-21885D01*
X34432Y-21919D01*
X34445Y-21956D01*
X34449Y-21995D01*
X34450Y-22000D01*
X34050Y-21800D02*
X34450Y-22200D01*
X34450Y-21800D02*
X34050Y-22200D01*
X34450Y-23000D02*
X34446Y-23038D01*
X34434Y-23076D01*
X34416Y-23110D01*
X34391Y-23140D01*
X34361Y-23165D01*
X34327Y-23184D01*
X34290Y-23195D01*
X34251Y-23199D01*
X34213Y-23196D01*
X34176Y-23185D01*
X34141Y-23167D01*
X34111Y-23142D01*
X34085Y-23112D01*
X34067Y-23078D01*
X34055Y-23041D01*
X34051Y-23002D01*
X34054Y-22964D01*
X34065Y-22927D01*
X34082Y-22892D01*
X34107Y-22862D01*
X34136Y-22836D01*
X34170Y-22817D01*
X34208Y-22805D01*
X34246Y-22801D01*
X34284Y-22804D01*
X34322Y-22814D01*
X34357Y-22832D01*
X34387Y-22856D01*
X34413Y-22885D01*
X34432Y-22919D01*
X34445Y-22956D01*
X34449Y-22995D01*
X34450Y-23000D01*
X34050Y-22800D02*
X34450Y-23200D01*
X34450Y-22800D02*
X34050Y-23200D01*
X34450Y-49500D02*
X34446Y-49538D01*
X34434Y-49576D01*
X34416Y-49610D01*
X34391Y-49640D01*
X34361Y-49665D01*
X34327Y-49684D01*
X34290Y-49695D01*
X34251Y-49699D01*
X34213Y-49696D01*
X34176Y-49685D01*
X34141Y-49667D01*
X34111Y-49642D01*
X34085Y-49612D01*
X34067Y-49578D01*
X34055Y-49541D01*
X34051Y-49502D01*
X34054Y-49464D01*
X34065Y-49427D01*
X34082Y-49392D01*
X34107Y-49362D01*
X34136Y-49336D01*
X34170Y-49317D01*
X34208Y-49305D01*
X34246Y-49301D01*
X34284Y-49304D01*
X34322Y-49314D01*
X34357Y-49332D01*
X34387Y-49356D01*
X34413Y-49385D01*
X34432Y-49419D01*
X34445Y-49456D01*
X34449Y-49495D01*
X34450Y-49500D01*
X34050Y-49300D02*
X34450Y-49700D01*
X34450Y-49300D02*
X34050Y-49700D01*
X34450Y-50500D02*
X34446Y-50538D01*
X34434Y-50576D01*
X34416Y-50610D01*
X34391Y-50640D01*
X34361Y-50665D01*
X34327Y-50684D01*
X34290Y-50695D01*
X34251Y-50699D01*
X34213Y-50696D01*
X34176Y-50685D01*
X34141Y-50667D01*
X34111Y-50642D01*
X34085Y-50612D01*
X34067Y-50578D01*
X34055Y-50541D01*
X34051Y-50502D01*
X34054Y-50464D01*
X34065Y-50427D01*
X34082Y-50392D01*
X34107Y-50362D01*
X34136Y-50336D01*
X34170Y-50317D01*
X34208Y-50305D01*
X34246Y-50301D01*
X34284Y-50304D01*
X34322Y-50314D01*
X34357Y-50332D01*
X34387Y-50356D01*
X34413Y-50385D01*
X34432Y-50419D01*
X34445Y-50456D01*
X34449Y-50495D01*
X34450Y-50500D01*
X34050Y-50300D02*
X34450Y-50700D01*
X34450Y-50300D02*
X34050Y-50700D01*
X35450Y-22000D02*
X35446Y-22038D01*
X35434Y-22076D01*
X35416Y-22110D01*
X35391Y-22140D01*
X35361Y-22165D01*
X35327Y-22184D01*
X35290Y-22195D01*
X35251Y-22199D01*
X35213Y-22196D01*
X35176Y-22185D01*
X35141Y-22167D01*
X35111Y-22142D01*
X35085Y-22112D01*
X35067Y-22078D01*
X35055Y-22041D01*
X35051Y-22002D01*
X35054Y-21964D01*
X35065Y-21927D01*
X35082Y-21892D01*
X35107Y-21862D01*
X35136Y-21836D01*
X35170Y-21817D01*
X35208Y-21805D01*
X35246Y-21801D01*
X35284Y-21804D01*
X35322Y-21814D01*
X35357Y-21832D01*
X35387Y-21856D01*
X35413Y-21885D01*
X35432Y-21919D01*
X35445Y-21956D01*
X35449Y-21995D01*
X35450Y-22000D01*
X35050Y-21800D02*
X35450Y-22200D01*
X35450Y-21800D02*
X35050Y-22200D01*
X35450Y-23000D02*
X35446Y-23038D01*
X35434Y-23076D01*
X35416Y-23110D01*
X35391Y-23140D01*
X35361Y-23165D01*
X35327Y-23184D01*
X35290Y-23195D01*
X35251Y-23199D01*
X35213Y-23196D01*
X35176Y-23185D01*
X35141Y-23167D01*
X35111Y-23142D01*
X35085Y-23112D01*
X35067Y-23078D01*
X35055Y-23041D01*
X35051Y-23002D01*
X35054Y-22964D01*
X35065Y-22927D01*
X35082Y-22892D01*
X35107Y-22862D01*
X35136Y-22836D01*
X35170Y-22817D01*
X35208Y-22805D01*
X35246Y-22801D01*
X35284Y-22804D01*
X35322Y-22814D01*
X35357Y-22832D01*
X35387Y-22856D01*
X35413Y-22885D01*
X35432Y-22919D01*
X35445Y-22956D01*
X35449Y-22995D01*
X35450Y-23000D01*
X35050Y-22800D02*
X35450Y-23200D01*
X35450Y-22800D02*
X35050Y-23200D01*
X35450Y-49500D02*
X35446Y-49538D01*
X35434Y-49576D01*
X35416Y-49610D01*
X35391Y-49640D01*
X35361Y-49665D01*
X35327Y-49684D01*
X35290Y-49695D01*
X35251Y-49699D01*
X35213Y-49696D01*
X35176Y-49685D01*
X35141Y-49667D01*
X35111Y-49642D01*
X35085Y-49612D01*
X35067Y-49578D01*
X35055Y-49541D01*
X35051Y-49502D01*
X35054Y-49464D01*
X35065Y-49427D01*
X35082Y-49392D01*
X35107Y-49362D01*
X35136Y-49336D01*
X35170Y-49317D01*
X35208Y-49305D01*
X35246Y-49301D01*
X35284Y-49304D01*
X35322Y-49314D01*
X35357Y-49332D01*
X35387Y-49356D01*
X35413Y-49385D01*
X35432Y-49419D01*
X35445Y-49456D01*
X35449Y-49495D01*
X35450Y-49500D01*
X35050Y-49300D02*
X35450Y-49700D01*
X35450Y-49300D02*
X35050Y-49700D01*
X35450Y-50500D02*
X35446Y-50538D01*
X35434Y-50576D01*
X35416Y-50610D01*
X35391Y-50640D01*
X35361Y-50665D01*
X35327Y-50684D01*
X35290Y-50695D01*
X35251Y-50699D01*
X35213Y-50696D01*
X35176Y-50685D01*
X35141Y-50667D01*
X35111Y-50642D01*
X35085Y-50612D01*
X35067Y-50578D01*
X35055Y-50541D01*
X35051Y-50502D01*
X35054Y-50464D01*
X35065Y-50427D01*
X35082Y-50392D01*
X35107Y-50362D01*
X35136Y-50336D01*
X35170Y-50317D01*
X35208Y-50305D01*
X35246Y-50301D01*
X35284Y-50304D01*
X35322Y-50314D01*
X35357Y-50332D01*
X35387Y-50356D01*
X35413Y-50385D01*
X35432Y-50419D01*
X35445Y-50456D01*
X35449Y-50495D01*
X35450Y-50500D01*
X35050Y-50300D02*
X35450Y-50700D01*
X35450Y-50300D02*
X35050Y-50700D01*
X36450Y-22000D02*
X36446Y-22038D01*
X36434Y-22076D01*
X36416Y-22110D01*
X36391Y-22140D01*
X36361Y-22165D01*
X36327Y-22184D01*
X36290Y-22195D01*
X36251Y-22199D01*
X36213Y-22196D01*
X36176Y-22185D01*
X36141Y-22167D01*
X36111Y-22142D01*
X36085Y-22112D01*
X36067Y-22078D01*
X36055Y-22041D01*
X36051Y-22002D01*
X36054Y-21964D01*
X36065Y-21927D01*
X36082Y-21892D01*
X36107Y-21862D01*
X36136Y-21836D01*
X36170Y-21817D01*
X36208Y-21805D01*
X36246Y-21801D01*
X36284Y-21804D01*
X36322Y-21814D01*
X36357Y-21832D01*
X36387Y-21856D01*
X36413Y-21885D01*
X36432Y-21919D01*
X36445Y-21956D01*
X36449Y-21995D01*
X36450Y-22000D01*
X36050Y-21800D02*
X36450Y-22200D01*
X36450Y-21800D02*
X36050Y-22200D01*
X36450Y-23000D02*
X36446Y-23038D01*
X36434Y-23076D01*
X36416Y-23110D01*
X36391Y-23140D01*
X36361Y-23165D01*
X36327Y-23184D01*
X36290Y-23195D01*
X36251Y-23199D01*
X36213Y-23196D01*
X36176Y-23185D01*
X36141Y-23167D01*
X36111Y-23142D01*
X36085Y-23112D01*
X36067Y-23078D01*
X36055Y-23041D01*
X36051Y-23002D01*
X36054Y-22964D01*
X36065Y-22927D01*
X36082Y-22892D01*
X36107Y-22862D01*
X36136Y-22836D01*
X36170Y-22817D01*
X36208Y-22805D01*
X36246Y-22801D01*
X36284Y-22804D01*
X36322Y-22814D01*
X36357Y-22832D01*
X36387Y-22856D01*
X36413Y-22885D01*
X36432Y-22919D01*
X36445Y-22956D01*
X36449Y-22995D01*
X36450Y-23000D01*
X36050Y-22800D02*
X36450Y-23200D01*
X36450Y-22800D02*
X36050Y-23200D01*
X36450Y-49500D02*
X36446Y-49538D01*
X36434Y-49576D01*
X36416Y-49610D01*
X36391Y-49640D01*
X36361Y-49665D01*
X36327Y-49684D01*
X36290Y-49695D01*
X36251Y-49699D01*
X36213Y-49696D01*
X36176Y-49685D01*
X36141Y-49667D01*
X36111Y-49642D01*
X36085Y-49612D01*
X36067Y-49578D01*
X36055Y-49541D01*
X36051Y-49502D01*
X36054Y-49464D01*
X36065Y-49427D01*
X36082Y-49392D01*
X36107Y-49362D01*
X36136Y-49336D01*
X36170Y-49317D01*
X36208Y-49305D01*
X36246Y-49301D01*
X36284Y-49304D01*
X36322Y-49314D01*
X36357Y-49332D01*
X36387Y-49356D01*
X36413Y-49385D01*
X36432Y-49419D01*
X36445Y-49456D01*
X36449Y-49495D01*
X36450Y-49500D01*
X36050Y-49300D02*
X36450Y-49700D01*
X36450Y-49300D02*
X36050Y-49700D01*
X36450Y-50500D02*
X36446Y-50538D01*
X36434Y-50576D01*
X36416Y-50610D01*
X36391Y-50640D01*
X36361Y-50665D01*
X36327Y-50684D01*
X36290Y-50695D01*
X36251Y-50699D01*
X36213Y-50696D01*
X36176Y-50685D01*
X36141Y-50667D01*
X36111Y-50642D01*
X36085Y-50612D01*
X36067Y-50578D01*
X36055Y-50541D01*
X36051Y-50502D01*
X36054Y-50464D01*
X36065Y-50427D01*
X36082Y-50392D01*
X36107Y-50362D01*
X36136Y-50336D01*
X36170Y-50317D01*
X36208Y-50305D01*
X36246Y-50301D01*
X36284Y-50304D01*
X36322Y-50314D01*
X36357Y-50332D01*
X36387Y-50356D01*
X36413Y-50385D01*
X36432Y-50419D01*
X36445Y-50456D01*
X36449Y-50495D01*
X36450Y-50500D01*
X36050Y-50300D02*
X36450Y-50700D01*
X36450Y-50300D02*
X36050Y-50700D01*
X37450Y-22000D02*
X37446Y-22038D01*
X37434Y-22076D01*
X37416Y-22110D01*
X37391Y-22140D01*
X37361Y-22165D01*
X37327Y-22184D01*
X37290Y-22195D01*
X37251Y-22199D01*
X37213Y-22196D01*
X37176Y-22185D01*
X37141Y-22167D01*
X37111Y-22142D01*
X37085Y-22112D01*
X37067Y-22078D01*
X37055Y-22041D01*
X37051Y-22002D01*
X37054Y-21964D01*
X37065Y-21927D01*
X37082Y-21892D01*
X37107Y-21862D01*
X37136Y-21836D01*
X37170Y-21817D01*
X37208Y-21805D01*
X37246Y-21801D01*
X37284Y-21804D01*
X37322Y-21814D01*
X37357Y-21832D01*
X37387Y-21856D01*
X37413Y-21885D01*
X37432Y-21919D01*
X37445Y-21956D01*
X37449Y-21995D01*
X37450Y-22000D01*
X37050Y-21800D02*
X37450Y-22200D01*
X37450Y-21800D02*
X37050Y-22200D01*
X37450Y-23000D02*
X37446Y-23038D01*
X37434Y-23076D01*
X37416Y-23110D01*
X37391Y-23140D01*
X37361Y-23165D01*
X37327Y-23184D01*
X37290Y-23195D01*
X37251Y-23199D01*
X37213Y-23196D01*
X37176Y-23185D01*
X37141Y-23167D01*
X37111Y-23142D01*
X37085Y-23112D01*
X37067Y-23078D01*
X37055Y-23041D01*
X37051Y-23002D01*
X37054Y-22964D01*
X37065Y-22927D01*
X37082Y-22892D01*
X37107Y-22862D01*
X37136Y-22836D01*
X37170Y-22817D01*
X37208Y-22805D01*
X37246Y-22801D01*
X37284Y-22804D01*
X37322Y-22814D01*
X37357Y-22832D01*
X37387Y-22856D01*
X37413Y-22885D01*
X37432Y-22919D01*
X37445Y-22956D01*
X37449Y-22995D01*
X37450Y-23000D01*
X37050Y-22800D02*
X37450Y-23200D01*
X37450Y-22800D02*
X37050Y-23200D01*
X37450Y-49500D02*
X37446Y-49538D01*
X37434Y-49576D01*
X37416Y-49610D01*
X37391Y-49640D01*
X37361Y-49665D01*
X37327Y-49684D01*
X37290Y-49695D01*
X37251Y-49699D01*
X37213Y-49696D01*
X37176Y-49685D01*
X37141Y-49667D01*
X37111Y-49642D01*
X37085Y-49612D01*
X37067Y-49578D01*
X37055Y-49541D01*
X37051Y-49502D01*
X37054Y-49464D01*
X37065Y-49427D01*
X37082Y-49392D01*
X37107Y-49362D01*
X37136Y-49336D01*
X37170Y-49317D01*
X37208Y-49305D01*
X37246Y-49301D01*
X37284Y-49304D01*
X37322Y-49314D01*
X37357Y-49332D01*
X37387Y-49356D01*
X37413Y-49385D01*
X37432Y-49419D01*
X37445Y-49456D01*
X37449Y-49495D01*
X37450Y-49500D01*
X37050Y-49300D02*
X37450Y-49700D01*
X37450Y-49300D02*
X37050Y-49700D01*
X37450Y-50500D02*
X37446Y-50538D01*
X37434Y-50576D01*
X37416Y-50610D01*
X37391Y-50640D01*
X37361Y-50665D01*
X37327Y-50684D01*
X37290Y-50695D01*
X37251Y-50699D01*
X37213Y-50696D01*
X37176Y-50685D01*
X37141Y-50667D01*
X37111Y-50642D01*
X37085Y-50612D01*
X37067Y-50578D01*
X37055Y-50541D01*
X37051Y-50502D01*
X37054Y-50464D01*
X37065Y-50427D01*
X37082Y-50392D01*
X37107Y-50362D01*
X37136Y-50336D01*
X37170Y-50317D01*
X37208Y-50305D01*
X37246Y-50301D01*
X37284Y-50304D01*
X37322Y-50314D01*
X37357Y-50332D01*
X37387Y-50356D01*
X37413Y-50385D01*
X37432Y-50419D01*
X37445Y-50456D01*
X37449Y-50495D01*
X37450Y-50500D01*
X37050Y-50300D02*
X37450Y-50700D01*
X37450Y-50300D02*
X37050Y-50700D01*
X38450Y-22000D02*
X38446Y-22038D01*
X38434Y-22076D01*
X38416Y-22110D01*
X38391Y-22140D01*
X38361Y-22165D01*
X38327Y-22184D01*
X38290Y-22195D01*
X38251Y-22199D01*
X38213Y-22196D01*
X38176Y-22185D01*
X38141Y-22167D01*
X38111Y-22142D01*
X38085Y-22112D01*
X38067Y-22078D01*
X38055Y-22041D01*
X38051Y-22002D01*
X38054Y-21964D01*
X38065Y-21927D01*
X38082Y-21892D01*
X38107Y-21862D01*
X38136Y-21836D01*
X38170Y-21817D01*
X38208Y-21805D01*
X38246Y-21801D01*
X38284Y-21804D01*
X38322Y-21814D01*
X38357Y-21832D01*
X38387Y-21856D01*
X38413Y-21885D01*
X38432Y-21919D01*
X38445Y-21956D01*
X38449Y-21995D01*
X38450Y-22000D01*
X38050Y-21800D02*
X38450Y-22200D01*
X38450Y-21800D02*
X38050Y-22200D01*
X38450Y-23000D02*
X38446Y-23038D01*
X38434Y-23076D01*
X38416Y-23110D01*
X38391Y-23140D01*
X38361Y-23165D01*
X38327Y-23184D01*
X38290Y-23195D01*
X38251Y-23199D01*
X38213Y-23196D01*
X38176Y-23185D01*
X38141Y-23167D01*
X38111Y-23142D01*
X38085Y-23112D01*
X38067Y-23078D01*
X38055Y-23041D01*
X38051Y-23002D01*
X38054Y-22964D01*
X38065Y-22927D01*
X38082Y-22892D01*
X38107Y-22862D01*
X38136Y-22836D01*
X38170Y-22817D01*
X38208Y-22805D01*
X38246Y-22801D01*
X38284Y-22804D01*
X38322Y-22814D01*
X38357Y-22832D01*
X38387Y-22856D01*
X38413Y-22885D01*
X38432Y-22919D01*
X38445Y-22956D01*
X38449Y-22995D01*
X38450Y-23000D01*
X38050Y-22800D02*
X38450Y-23200D01*
X38450Y-22800D02*
X38050Y-23200D01*
X38450Y-49500D02*
X38446Y-49538D01*
X38434Y-49576D01*
X38416Y-49610D01*
X38391Y-49640D01*
X38361Y-49665D01*
X38327Y-49684D01*
X38290Y-49695D01*
X38251Y-49699D01*
X38213Y-49696D01*
X38176Y-49685D01*
X38141Y-49667D01*
X38111Y-49642D01*
X38085Y-49612D01*
X38067Y-49578D01*
X38055Y-49541D01*
X38051Y-49502D01*
X38054Y-49464D01*
X38065Y-49427D01*
X38082Y-49392D01*
X38107Y-49362D01*
X38136Y-49336D01*
X38170Y-49317D01*
X38208Y-49305D01*
X38246Y-49301D01*
X38284Y-49304D01*
X38322Y-49314D01*
X38357Y-49332D01*
X38387Y-49356D01*
X38413Y-49385D01*
X38432Y-49419D01*
X38445Y-49456D01*
X38449Y-49495D01*
X38450Y-49500D01*
X38050Y-49300D02*
X38450Y-49700D01*
X38450Y-49300D02*
X38050Y-49700D01*
X38450Y-50500D02*
X38446Y-50538D01*
X38434Y-50576D01*
X38416Y-50610D01*
X38391Y-50640D01*
X38361Y-50665D01*
X38327Y-50684D01*
X38290Y-50695D01*
X38251Y-50699D01*
X38213Y-50696D01*
X38176Y-50685D01*
X38141Y-50667D01*
X38111Y-50642D01*
X38085Y-50612D01*
X38067Y-50578D01*
X38055Y-50541D01*
X38051Y-50502D01*
X38054Y-50464D01*
X38065Y-50427D01*
X38082Y-50392D01*
X38107Y-50362D01*
X38136Y-50336D01*
X38170Y-50317D01*
X38208Y-50305D01*
X38246Y-50301D01*
X38284Y-50304D01*
X38322Y-50314D01*
X38357Y-50332D01*
X38387Y-50356D01*
X38413Y-50385D01*
X38432Y-50419D01*
X38445Y-50456D01*
X38449Y-50495D01*
X38450Y-50500D01*
X38050Y-50300D02*
X38450Y-50700D01*
X38450Y-50300D02*
X38050Y-50700D01*
X41950Y-22500D02*
X41946Y-22538D01*
X41934Y-22576D01*
X41916Y-22610D01*
X41891Y-22640D01*
X41861Y-22665D01*
X41827Y-22684D01*
X41790Y-22695D01*
X41751Y-22699D01*
X41713Y-22696D01*
X41676Y-22685D01*
X41641Y-22667D01*
X41611Y-22642D01*
X41585Y-22612D01*
X41567Y-22578D01*
X41555Y-22541D01*
X41551Y-22502D01*
X41554Y-22464D01*
X41565Y-22427D01*
X41582Y-22392D01*
X41607Y-22362D01*
X41636Y-22336D01*
X41670Y-22317D01*
X41708Y-22305D01*
X41746Y-22301D01*
X41784Y-22304D01*
X41822Y-22314D01*
X41857Y-22332D01*
X41887Y-22356D01*
X41913Y-22385D01*
X41932Y-22419D01*
X41945Y-22456D01*
X41949Y-22495D01*
X41950Y-22500D01*
X41550Y-22300D02*
X41950Y-22700D01*
X41950Y-22300D02*
X41550Y-22700D01*
X41950Y-50000D02*
X41946Y-50038D01*
X41934Y-50076D01*
X41916Y-50110D01*
X41891Y-50140D01*
X41861Y-50165D01*
X41827Y-50184D01*
X41790Y-50195D01*
X41751Y-50199D01*
X41713Y-50196D01*
X41676Y-50185D01*
X41641Y-50167D01*
X41611Y-50142D01*
X41585Y-50112D01*
X41567Y-50078D01*
X41555Y-50041D01*
X41551Y-50002D01*
X41554Y-49964D01*
X41565Y-49927D01*
X41582Y-49892D01*
X41607Y-49862D01*
X41636Y-49836D01*
X41670Y-49817D01*
X41708Y-49805D01*
X41746Y-49801D01*
X41784Y-49804D01*
X41822Y-49814D01*
X41857Y-49832D01*
X41887Y-49856D01*
X41913Y-49885D01*
X41932Y-49919D01*
X41945Y-49956D01*
X41949Y-49995D01*
X41950Y-50000D01*
X41550Y-49800D02*
X41950Y-50200D01*
X41950Y-49800D02*
X41550Y-50200D01*
X44950Y-37750D02*
X44946Y-37788D01*
X44934Y-37826D01*
X44916Y-37860D01*
X44891Y-37890D01*
X44861Y-37915D01*
X44827Y-37934D01*
X44790Y-37945D01*
X44751Y-37949D01*
X44713Y-37946D01*
X44676Y-37935D01*
X44641Y-37917D01*
X44611Y-37892D01*
X44585Y-37862D01*
X44567Y-37828D01*
X44555Y-37791D01*
X44551Y-37752D01*
X44554Y-37714D01*
X44565Y-37677D01*
X44582Y-37642D01*
X44607Y-37612D01*
X44636Y-37586D01*
X44670Y-37567D01*
X44708Y-37555D01*
X44746Y-37551D01*
X44784Y-37554D01*
X44822Y-37564D01*
X44857Y-37582D01*
X44887Y-37606D01*
X44913Y-37635D01*
X44932Y-37669D01*
X44945Y-37706D01*
X44949Y-37745D01*
X44950Y-37750D01*
X44550Y-37550D02*
X44950Y-37950D01*
X44950Y-37550D02*
X44550Y-37950D01*
X44950Y-39000D02*
X44946Y-39038D01*
X44934Y-39076D01*
X44916Y-39110D01*
X44891Y-39140D01*
X44861Y-39165D01*
X44827Y-39184D01*
X44790Y-39195D01*
X44751Y-39199D01*
X44713Y-39196D01*
X44676Y-39185D01*
X44641Y-39167D01*
X44611Y-39142D01*
X44585Y-39112D01*
X44567Y-39078D01*
X44555Y-39041D01*
X44551Y-39002D01*
X44554Y-38964D01*
X44565Y-38927D01*
X44582Y-38892D01*
X44607Y-38862D01*
X44636Y-38836D01*
X44670Y-38817D01*
X44708Y-38805D01*
X44746Y-38801D01*
X44784Y-38804D01*
X44822Y-38814D01*
X44857Y-38832D01*
X44887Y-38856D01*
X44913Y-38885D01*
X44932Y-38919D01*
X44945Y-38956D01*
X44949Y-38995D01*
X44950Y-39000D01*
X44550Y-38800D02*
X44950Y-39200D01*
X44950Y-38800D02*
X44550Y-39200D01*
X44950Y-44500D02*
X44946Y-44538D01*
X44934Y-44576D01*
X44916Y-44610D01*
X44891Y-44640D01*
X44861Y-44665D01*
X44827Y-44684D01*
X44790Y-44695D01*
X44751Y-44699D01*
X44713Y-44696D01*
X44676Y-44685D01*
X44641Y-44667D01*
X44611Y-44642D01*
X44585Y-44612D01*
X44567Y-44578D01*
X44555Y-44541D01*
X44551Y-44502D01*
X44554Y-44464D01*
X44565Y-44427D01*
X44582Y-44392D01*
X44607Y-44362D01*
X44636Y-44336D01*
X44670Y-44317D01*
X44708Y-44305D01*
X44746Y-44301D01*
X44784Y-44304D01*
X44822Y-44314D01*
X44857Y-44332D01*
X44887Y-44356D01*
X44913Y-44385D01*
X44932Y-44419D01*
X44945Y-44456D01*
X44949Y-44495D01*
X44950Y-44500D01*
X44550Y-44300D02*
X44950Y-44700D01*
X44950Y-44300D02*
X44550Y-44700D01*
X44950Y-45750D02*
X44946Y-45788D01*
X44934Y-45826D01*
X44916Y-45860D01*
X44891Y-45890D01*
X44861Y-45915D01*
X44827Y-45934D01*
X44790Y-45945D01*
X44751Y-45949D01*
X44713Y-45946D01*
X44676Y-45935D01*
X44641Y-45917D01*
X44611Y-45892D01*
X44585Y-45862D01*
X44567Y-45828D01*
X44555Y-45791D01*
X44551Y-45752D01*
X44554Y-45714D01*
X44565Y-45677D01*
X44582Y-45642D01*
X44607Y-45612D01*
X44636Y-45586D01*
X44670Y-45567D01*
X44708Y-45555D01*
X44746Y-45551D01*
X44784Y-45554D01*
X44822Y-45564D01*
X44857Y-45582D01*
X44887Y-45606D01*
X44913Y-45635D01*
X44932Y-45669D01*
X44945Y-45706D01*
X44949Y-45745D01*
X44950Y-45750D01*
X44550Y-45550D02*
X44950Y-45950D01*
X44950Y-45550D02*
X44550Y-45950D01*
X45450Y-50500D02*
X45446Y-50538D01*
X45434Y-50576D01*
X45416Y-50610D01*
X45391Y-50640D01*
X45361Y-50665D01*
X45327Y-50684D01*
X45290Y-50695D01*
X45251Y-50699D01*
X45213Y-50696D01*
X45176Y-50685D01*
X45141Y-50667D01*
X45111Y-50642D01*
X45085Y-50612D01*
X45067Y-50578D01*
X45055Y-50541D01*
X45051Y-50502D01*
X45054Y-50464D01*
X45065Y-50427D01*
X45082Y-50392D01*
X45107Y-50362D01*
X45136Y-50336D01*
X45170Y-50317D01*
X45208Y-50305D01*
X45246Y-50301D01*
X45284Y-50304D01*
X45322Y-50314D01*
X45357Y-50332D01*
X45387Y-50356D01*
X45413Y-50385D01*
X45432Y-50419D01*
X45445Y-50456D01*
X45449Y-50495D01*
X45450Y-50500D01*
X45050Y-50300D02*
X45450Y-50700D01*
X45450Y-50300D02*
X45050Y-50700D01*
X46450Y-50500D02*
X46446Y-50538D01*
X46434Y-50576D01*
X46416Y-50610D01*
X46391Y-50640D01*
X46361Y-50665D01*
X46327Y-50684D01*
X46290Y-50695D01*
X46251Y-50699D01*
X46213Y-50696D01*
X46176Y-50685D01*
X46141Y-50667D01*
X46111Y-50642D01*
X46085Y-50612D01*
X46067Y-50578D01*
X46055Y-50541D01*
X46051Y-50502D01*
X46054Y-50464D01*
X46065Y-50427D01*
X46082Y-50392D01*
X46107Y-50362D01*
X46136Y-50336D01*
X46170Y-50317D01*
X46208Y-50305D01*
X46246Y-50301D01*
X46284Y-50304D01*
X46322Y-50314D01*
X46357Y-50332D01*
X46387Y-50356D01*
X46413Y-50385D01*
X46432Y-50419D01*
X46445Y-50456D01*
X46449Y-50495D01*
X46450Y-50500D01*
X46050Y-50300D02*
X46450Y-50700D01*
X46450Y-50300D02*
X46050Y-50700D01*
X48950Y-37750D02*
X48946Y-37788D01*
X48934Y-37826D01*
X48916Y-37860D01*
X48891Y-37890D01*
X48861Y-37915D01*
X48827Y-37934D01*
X48790Y-37945D01*
X48751Y-37949D01*
X48713Y-37946D01*
X48676Y-37935D01*
X48641Y-37917D01*
X48611Y-37892D01*
X48585Y-37862D01*
X48567Y-37828D01*
X48555Y-37791D01*
X48551Y-37752D01*
X48554Y-37714D01*
X48565Y-37677D01*
X48582Y-37642D01*
X48607Y-37612D01*
X48636Y-37586D01*
X48670Y-37567D01*
X48708Y-37555D01*
X48746Y-37551D01*
X48784Y-37554D01*
X48822Y-37564D01*
X48857Y-37582D01*
X48887Y-37606D01*
X48913Y-37635D01*
X48932Y-37669D01*
X48945Y-37706D01*
X48949Y-37745D01*
X48950Y-37750D01*
X48550Y-37550D02*
X48950Y-37950D01*
X48950Y-37550D02*
X48550Y-37950D01*
X48950Y-39000D02*
X48946Y-39038D01*
X48934Y-39076D01*
X48916Y-39110D01*
X48891Y-39140D01*
X48861Y-39165D01*
X48827Y-39184D01*
X48790Y-39195D01*
X48751Y-39199D01*
X48713Y-39196D01*
X48676Y-39185D01*
X48641Y-39167D01*
X48611Y-39142D01*
X48585Y-39112D01*
X48567Y-39078D01*
X48555Y-39041D01*
X48551Y-39002D01*
X48554Y-38964D01*
X48565Y-38927D01*
X48582Y-38892D01*
X48607Y-38862D01*
X48636Y-38836D01*
X48670Y-38817D01*
X48708Y-38805D01*
X48746Y-38801D01*
X48784Y-38804D01*
X48822Y-38814D01*
X48857Y-38832D01*
X48887Y-38856D01*
X48913Y-38885D01*
X48932Y-38919D01*
X48945Y-38956D01*
X48949Y-38995D01*
X48950Y-39000D01*
X48550Y-38800D02*
X48950Y-39200D01*
X48950Y-38800D02*
X48550Y-39200D01*
X48950Y-44500D02*
X48946Y-44538D01*
X48934Y-44576D01*
X48916Y-44610D01*
X48891Y-44640D01*
X48861Y-44665D01*
X48827Y-44684D01*
X48790Y-44695D01*
X48751Y-44699D01*
X48713Y-44696D01*
X48676Y-44685D01*
X48641Y-44667D01*
X48611Y-44642D01*
X48585Y-44612D01*
X48567Y-44578D01*
X48555Y-44541D01*
X48551Y-44502D01*
X48554Y-44464D01*
X48565Y-44427D01*
X48582Y-44392D01*
X48607Y-44362D01*
X48636Y-44336D01*
X48670Y-44317D01*
X48708Y-44305D01*
X48746Y-44301D01*
X48784Y-44304D01*
X48822Y-44314D01*
X48857Y-44332D01*
X48887Y-44356D01*
X48913Y-44385D01*
X48932Y-44419D01*
X48945Y-44456D01*
X48949Y-44495D01*
X48950Y-44500D01*
X48550Y-44300D02*
X48950Y-44700D01*
X48950Y-44300D02*
X48550Y-44700D01*
X48950Y-45750D02*
X48946Y-45788D01*
X48934Y-45826D01*
X48916Y-45860D01*
X48891Y-45890D01*
X48861Y-45915D01*
X48827Y-45934D01*
X48790Y-45945D01*
X48751Y-45949D01*
X48713Y-45946D01*
X48676Y-45935D01*
X48641Y-45917D01*
X48611Y-45892D01*
X48585Y-45862D01*
X48567Y-45828D01*
X48555Y-45791D01*
X48551Y-45752D01*
X48554Y-45714D01*
X48565Y-45677D01*
X48582Y-45642D01*
X48607Y-45612D01*
X48636Y-45586D01*
X48670Y-45567D01*
X48708Y-45555D01*
X48746Y-45551D01*
X48784Y-45554D01*
X48822Y-45564D01*
X48857Y-45582D01*
X48887Y-45606D01*
X48913Y-45635D01*
X48932Y-45669D01*
X48945Y-45706D01*
X48949Y-45745D01*
X48950Y-45750D01*
X48550Y-45550D02*
X48950Y-45950D01*
X48950Y-45550D02*
X48550Y-45950D01*
X50450Y-41250D02*
X50446Y-41288D01*
X50434Y-41326D01*
X50416Y-41360D01*
X50391Y-41390D01*
X50361Y-41415D01*
X50327Y-41434D01*
X50290Y-41445D01*
X50251Y-41449D01*
X50213Y-41446D01*
X50176Y-41435D01*
X50141Y-41417D01*
X50111Y-41392D01*
X50085Y-41362D01*
X50067Y-41328D01*
X50055Y-41291D01*
X50051Y-41252D01*
X50054Y-41214D01*
X50065Y-41177D01*
X50082Y-41142D01*
X50107Y-41112D01*
X50136Y-41086D01*
X50170Y-41067D01*
X50208Y-41055D01*
X50246Y-41051D01*
X50284Y-41054D01*
X50322Y-41064D01*
X50357Y-41082D01*
X50387Y-41106D01*
X50413Y-41135D01*
X50432Y-41169D01*
X50445Y-41206D01*
X50449Y-41245D01*
X50450Y-41250D01*
X50050Y-41050D02*
X50450Y-41450D01*
X50450Y-41050D02*
X50050Y-41450D01*
X50450Y-42250D02*
X50446Y-42288D01*
X50434Y-42326D01*
X50416Y-42360D01*
X50391Y-42390D01*
X50361Y-42415D01*
X50327Y-42434D01*
X50290Y-42445D01*
X50251Y-42449D01*
X50213Y-42446D01*
X50176Y-42435D01*
X50141Y-42417D01*
X50111Y-42392D01*
X50085Y-42362D01*
X50067Y-42328D01*
X50055Y-42291D01*
X50051Y-42252D01*
X50054Y-42214D01*
X50065Y-42177D01*
X50082Y-42142D01*
X50107Y-42112D01*
X50136Y-42086D01*
X50170Y-42067D01*
X50208Y-42055D01*
X50246Y-42051D01*
X50284Y-42054D01*
X50322Y-42064D01*
X50357Y-42082D01*
X50387Y-42106D01*
X50413Y-42135D01*
X50432Y-42169D01*
X50445Y-42206D01*
X50449Y-42245D01*
X50450Y-42250D01*
X50050Y-42050D02*
X50450Y-42450D01*
X50450Y-42050D02*
X50050Y-42450D01*
X50950Y-25750D02*
X50946Y-25788D01*
X50934Y-25826D01*
X50916Y-25860D01*
X50891Y-25890D01*
X50861Y-25915D01*
X50827Y-25934D01*
X50790Y-25945D01*
X50751Y-25949D01*
X50713Y-25946D01*
X50676Y-25935D01*
X50641Y-25917D01*
X50611Y-25892D01*
X50585Y-25862D01*
X50567Y-25828D01*
X50555Y-25791D01*
X50551Y-25752D01*
X50554Y-25714D01*
X50565Y-25677D01*
X50582Y-25642D01*
X50607Y-25612D01*
X50636Y-25586D01*
X50670Y-25567D01*
X50708Y-25555D01*
X50746Y-25551D01*
X50784Y-25554D01*
X50822Y-25564D01*
X50857Y-25582D01*
X50887Y-25606D01*
X50913Y-25635D01*
X50932Y-25669D01*
X50945Y-25706D01*
X50949Y-25745D01*
X50950Y-25750D01*
X50550Y-25550D02*
X50950Y-25950D01*
X50950Y-25550D02*
X50550Y-25950D01*
X50950Y-26750D02*
X50946Y-26788D01*
X50934Y-26826D01*
X50916Y-26860D01*
X50891Y-26890D01*
X50861Y-26915D01*
X50827Y-26934D01*
X50790Y-26945D01*
X50751Y-26949D01*
X50713Y-26946D01*
X50676Y-26935D01*
X50641Y-26917D01*
X50611Y-26892D01*
X50585Y-26862D01*
X50567Y-26828D01*
X50555Y-26791D01*
X50551Y-26752D01*
X50554Y-26714D01*
X50565Y-26677D01*
X50582Y-26642D01*
X50607Y-26612D01*
X50636Y-26586D01*
X50670Y-26567D01*
X50708Y-26555D01*
X50746Y-26551D01*
X50784Y-26554D01*
X50822Y-26564D01*
X50857Y-26582D01*
X50887Y-26606D01*
X50913Y-26635D01*
X50932Y-26669D01*
X50945Y-26706D01*
X50949Y-26745D01*
X50950Y-26750D01*
X50550Y-26550D02*
X50950Y-26950D01*
X50950Y-26550D02*
X50550Y-26950D01*
X50950Y-28250D02*
X50946Y-28288D01*
X50934Y-28326D01*
X50916Y-28360D01*
X50891Y-28390D01*
X50861Y-28415D01*
X50827Y-28434D01*
X50790Y-28445D01*
X50751Y-28449D01*
X50713Y-28446D01*
X50676Y-28435D01*
X50641Y-28417D01*
X50611Y-28392D01*
X50585Y-28362D01*
X50567Y-28328D01*
X50555Y-28291D01*
X50551Y-28252D01*
X50554Y-28214D01*
X50565Y-28177D01*
X50582Y-28142D01*
X50607Y-28112D01*
X50636Y-28086D01*
X50670Y-28067D01*
X50708Y-28055D01*
X50746Y-28051D01*
X50784Y-28054D01*
X50822Y-28064D01*
X50857Y-28082D01*
X50887Y-28106D01*
X50913Y-28135D01*
X50932Y-28169D01*
X50945Y-28206D01*
X50949Y-28245D01*
X50950Y-28250D01*
X50550Y-28050D02*
X50950Y-28450D01*
X50950Y-28050D02*
X50550Y-28450D01*
X50950Y-29250D02*
X50946Y-29288D01*
X50934Y-29326D01*
X50916Y-29360D01*
X50891Y-29390D01*
X50861Y-29415D01*
X50827Y-29434D01*
X50790Y-29445D01*
X50751Y-29449D01*
X50713Y-29446D01*
X50676Y-29435D01*
X50641Y-29417D01*
X50611Y-29392D01*
X50585Y-29362D01*
X50567Y-29328D01*
X50555Y-29291D01*
X50551Y-29252D01*
X50554Y-29214D01*
X50565Y-29177D01*
X50582Y-29142D01*
X50607Y-29112D01*
X50636Y-29086D01*
X50670Y-29067D01*
X50708Y-29055D01*
X50746Y-29051D01*
X50784Y-29054D01*
X50822Y-29064D01*
X50857Y-29082D01*
X50887Y-29106D01*
X50913Y-29135D01*
X50932Y-29169D01*
X50945Y-29206D01*
X50949Y-29245D01*
X50950Y-29250D01*
X50550Y-29050D02*
X50950Y-29450D01*
X50950Y-29050D02*
X50550Y-29450D01*
X50950Y-31250D02*
X50946Y-31288D01*
X50934Y-31326D01*
X50916Y-31360D01*
X50891Y-31390D01*
X50861Y-31415D01*
X50827Y-31434D01*
X50790Y-31445D01*
X50751Y-31449D01*
X50713Y-31446D01*
X50676Y-31435D01*
X50641Y-31417D01*
X50611Y-31392D01*
X50585Y-31362D01*
X50567Y-31328D01*
X50555Y-31291D01*
X50551Y-31252D01*
X50554Y-31214D01*
X50565Y-31177D01*
X50582Y-31142D01*
X50607Y-31112D01*
X50636Y-31086D01*
X50670Y-31067D01*
X50708Y-31055D01*
X50746Y-31051D01*
X50784Y-31054D01*
X50822Y-31064D01*
X50857Y-31082D01*
X50887Y-31106D01*
X50913Y-31135D01*
X50932Y-31169D01*
X50945Y-31206D01*
X50949Y-31245D01*
X50950Y-31250D01*
X50550Y-31050D02*
X50950Y-31450D01*
X50950Y-31050D02*
X50550Y-31450D01*
X50950Y-32250D02*
X50946Y-32288D01*
X50934Y-32326D01*
X50916Y-32360D01*
X50891Y-32390D01*
X50861Y-32415D01*
X50827Y-32434D01*
X50790Y-32445D01*
X50751Y-32449D01*
X50713Y-32446D01*
X50676Y-32435D01*
X50641Y-32417D01*
X50611Y-32392D01*
X50585Y-32362D01*
X50567Y-32328D01*
X50555Y-32291D01*
X50551Y-32252D01*
X50554Y-32214D01*
X50565Y-32177D01*
X50582Y-32142D01*
X50607Y-32112D01*
X50636Y-32086D01*
X50670Y-32067D01*
X50708Y-32055D01*
X50746Y-32051D01*
X50784Y-32054D01*
X50822Y-32064D01*
X50857Y-32082D01*
X50887Y-32106D01*
X50913Y-32135D01*
X50932Y-32169D01*
X50945Y-32206D01*
X50949Y-32245D01*
X50950Y-32250D01*
X50550Y-32050D02*
X50950Y-32450D01*
X50950Y-32050D02*
X50550Y-32450D01*
X50950Y-33250D02*
X50946Y-33288D01*
X50934Y-33326D01*
X50916Y-33360D01*
X50891Y-33390D01*
X50861Y-33415D01*
X50827Y-33434D01*
X50790Y-33445D01*
X50751Y-33449D01*
X50713Y-33446D01*
X50676Y-33435D01*
X50641Y-33417D01*
X50611Y-33392D01*
X50585Y-33362D01*
X50567Y-33328D01*
X50555Y-33291D01*
X50551Y-33252D01*
X50554Y-33214D01*
X50565Y-33177D01*
X50582Y-33142D01*
X50607Y-33112D01*
X50636Y-33086D01*
X50670Y-33067D01*
X50708Y-33055D01*
X50746Y-33051D01*
X50784Y-33054D01*
X50822Y-33064D01*
X50857Y-33082D01*
X50887Y-33106D01*
X50913Y-33135D01*
X50932Y-33169D01*
X50945Y-33206D01*
X50949Y-33245D01*
X50950Y-33250D01*
X50550Y-33050D02*
X50950Y-33450D01*
X50950Y-33050D02*
X50550Y-33450D01*
X50950Y-34250D02*
X50946Y-34288D01*
X50934Y-34326D01*
X50916Y-34360D01*
X50891Y-34390D01*
X50861Y-34415D01*
X50827Y-34434D01*
X50790Y-34445D01*
X50751Y-34449D01*
X50713Y-34446D01*
X50676Y-34435D01*
X50641Y-34417D01*
X50611Y-34392D01*
X50585Y-34362D01*
X50567Y-34328D01*
X50555Y-34291D01*
X50551Y-34252D01*
X50554Y-34214D01*
X50565Y-34177D01*
X50582Y-34142D01*
X50607Y-34112D01*
X50636Y-34086D01*
X50670Y-34067D01*
X50708Y-34055D01*
X50746Y-34051D01*
X50784Y-34054D01*
X50822Y-34064D01*
X50857Y-34082D01*
X50887Y-34106D01*
X50913Y-34135D01*
X50932Y-34169D01*
X50945Y-34206D01*
X50949Y-34245D01*
X50950Y-34250D01*
X50550Y-34050D02*
X50950Y-34450D01*
X50950Y-34050D02*
X50550Y-34450D01*
X23090Y-50000D02*
X23078Y-50114D01*
X23045Y-50224D01*
X22991Y-50326D01*
X22918Y-50415D01*
X22829Y-50489D01*
X22728Y-50543D01*
X22618Y-50577D01*
X22504Y-50589D01*
X22390Y-50579D01*
X22279Y-50547D01*
X22177Y-50493D01*
X22088Y-50421D01*
X22014Y-50333D01*
X21958Y-50232D01*
X21923Y-50122D01*
X21911Y-50008D01*
X21920Y-49894D01*
X21952Y-49783D01*
X22005Y-49681D01*
X22076Y-49591D01*
X22164Y-49516D01*
X22264Y-49460D01*
X22374Y-49424D01*
X22488Y-49411D01*
X22602Y-49419D01*
X22713Y-49450D01*
X22816Y-49502D01*
X22906Y-49573D01*
X22982Y-49660D01*
X23038Y-49761D01*
X23075Y-49870D01*
X23089Y-49984D01*
X23090Y-50000D01*
X21910Y-50000D02*
X23090Y-50000D01*
X50590Y-22500D02*
X50578Y-22614D01*
X50545Y-22724D01*
X50491Y-22826D01*
X50418Y-22915D01*
X50329Y-22989D01*
X50228Y-23043D01*
X50118Y-23077D01*
X50004Y-23089D01*
X49890Y-23079D01*
X49779Y-23047D01*
X49677Y-22993D01*
X49588Y-22921D01*
X49514Y-22833D01*
X49458Y-22732D01*
X49423Y-22622D01*
X49411Y-22508D01*
X49420Y-22394D01*
X49452Y-22283D01*
X49505Y-22181D01*
X49576Y-22091D01*
X49664Y-22016D01*
X49764Y-21960D01*
X49874Y-21924D01*
X49988Y-21911D01*
X50102Y-21919D01*
X50213Y-21950D01*
X50316Y-22002D01*
X50406Y-22073D01*
X50482Y-22160D01*
X50538Y-22261D01*
X50575Y-22370D01*
X50589Y-22484D01*
X50590Y-22500D01*
X49410Y-22500D02*
X50590Y-22500D01*
X50840Y-50000D02*
X50828Y-50114D01*
X50795Y-50224D01*
X50741Y-50326D01*
X50668Y-50415D01*
X50579Y-50489D01*
X50478Y-50543D01*
X50368Y-50577D01*
X50254Y-50589D01*
X50140Y-50579D01*
X50029Y-50547D01*
X49927Y-50493D01*
X49838Y-50421D01*
X49764Y-50333D01*
X49708Y-50232D01*
X49673Y-50122D01*
X49661Y-50008D01*
X49670Y-49894D01*
X49702Y-49783D01*
X49755Y-49681D01*
X49826Y-49591D01*
X49914Y-49516D01*
X50014Y-49460D01*
X50124Y-49424D01*
X50238Y-49411D01*
X50352Y-49419D01*
X50463Y-49450D01*
X50566Y-49502D01*
X50656Y-49573D01*
X50732Y-49660D01*
X50788Y-49761D01*
X50825Y-49870D01*
X50839Y-49984D01*
X50840Y-50000D01*
X49660Y-50000D02*
X50840Y-50000D01*
G54D12*
X20239Y-54014D02*
X20239Y-53214D01*
X20430Y-53214D01*
X20544Y-53252D01*
X20620Y-53328D01*
X20659Y-53404D01*
X20697Y-53557D01*
X20697Y-53671D01*
X20659Y-53823D01*
X20620Y-53900D01*
X20544Y-53976D01*
X20430Y-54014D01*
X20239Y-54014D01*
X21039Y-54014D02*
X21039Y-53480D01*
X21039Y-53633D02*
X21078Y-53557D01*
X21116Y-53519D01*
X21192Y-53480D01*
X21268Y-53480D01*
X21534Y-54014D02*
X21534Y-53480D01*
X21534Y-53214D02*
X21496Y-53252D01*
X21534Y-53290D01*
X21573Y-53252D01*
X21534Y-53214D01*
X21534Y-53290D01*
X22030Y-54014D02*
X21954Y-53976D01*
X21915Y-53900D01*
X21915Y-53214D01*
X22449Y-54014D02*
X22373Y-53976D01*
X22334Y-53900D01*
X22334Y-53214D01*
X23363Y-54014D02*
X23363Y-53214D01*
X23630Y-53785D01*
X23897Y-53214D01*
X23897Y-54014D01*
X24620Y-54014D02*
X24620Y-53595D01*
X24582Y-53519D01*
X24506Y-53480D01*
X24354Y-53480D01*
X24277Y-53519D01*
X24620Y-53976D02*
X24544Y-54014D01*
X24354Y-54014D01*
X24277Y-53976D01*
X24239Y-53900D01*
X24239Y-53823D01*
X24277Y-53747D01*
X24354Y-53709D01*
X24544Y-53709D01*
X24620Y-53671D01*
X25001Y-53480D02*
X25001Y-54280D01*
X25001Y-53519D02*
X25078Y-53480D01*
X25230Y-53480D01*
X25306Y-53519D01*
X25344Y-53557D01*
X25382Y-53633D01*
X25382Y-53861D01*
X25344Y-53938D01*
X25306Y-53976D01*
X25230Y-54014D01*
X25078Y-54014D01*
X25001Y-53976D01*
X25725Y-53938D02*
X25764Y-53976D01*
X25725Y-54014D01*
X25687Y-53976D01*
X25725Y-53938D01*
X25725Y-54014D01*
X25725Y-53519D02*
X25764Y-53557D01*
X25725Y-53595D01*
X25687Y-53557D01*
X25725Y-53519D01*
X25725Y-53595D01*
X19609Y-55250D02*
X19849Y-55490D01*
X19849Y-55250D02*
X19609Y-55490D01*
X20392Y-54894D02*
X20468Y-54894D01*
X20544Y-54932D01*
X20582Y-54970D01*
X20620Y-55046D01*
X20659Y-55199D01*
X20659Y-55389D01*
X20620Y-55541D01*
X20582Y-55618D01*
X20544Y-55656D01*
X20468Y-55694D01*
X20392Y-55694D01*
X20316Y-55656D01*
X20278Y-55618D01*
X20239Y-55541D01*
X20201Y-55389D01*
X20201Y-55199D01*
X20239Y-55046D01*
X20278Y-54970D01*
X20316Y-54932D01*
X20392Y-54894D01*
X21001Y-55618D02*
X21040Y-55656D01*
X21001Y-55694D01*
X20963Y-55656D01*
X21001Y-55618D01*
X21001Y-55694D01*
X21725Y-54894D02*
X21573Y-54894D01*
X21497Y-54932D01*
X21459Y-54970D01*
X21382Y-55084D01*
X21344Y-55237D01*
X21344Y-55541D01*
X21382Y-55618D01*
X21421Y-55656D01*
X21497Y-55694D01*
X21649Y-55694D01*
X21725Y-55656D01*
X21763Y-55618D01*
X21802Y-55541D01*
X21802Y-55351D01*
X21763Y-55275D01*
X21725Y-55237D01*
X21649Y-55199D01*
X21497Y-55199D01*
X21421Y-55237D01*
X21382Y-55275D01*
X21344Y-55351D01*
X22564Y-55694D02*
X22106Y-55694D01*
X22335Y-55694D02*
X22335Y-54894D01*
X22259Y-55008D01*
X22183Y-55084D01*
X22106Y-55122D01*
X22906Y-55694D02*
X22906Y-55160D01*
X22906Y-55237D02*
X22945Y-55199D01*
X23021Y-55160D01*
X23135Y-55160D01*
X23211Y-55199D01*
X23249Y-55275D01*
X23249Y-55694D01*
X23249Y-55275D02*
X23287Y-55199D01*
X23364Y-55160D01*
X23478Y-55160D01*
X23554Y-55199D01*
X23592Y-55275D01*
X23592Y-55694D01*
X23973Y-55694D02*
X23973Y-55160D01*
X23973Y-55237D02*
X24012Y-55199D01*
X24088Y-55160D01*
X24202Y-55160D01*
X24278Y-55199D01*
X24316Y-55275D01*
X24316Y-55694D01*
X24316Y-55275D02*
X24354Y-55199D01*
X24431Y-55160D01*
X24545Y-55160D01*
X24621Y-55199D01*
X24659Y-55275D01*
X24659Y-55694D01*
X26222Y-54856D02*
X25536Y-55884D01*
X27251Y-54894D02*
X27327Y-54894D01*
X27403Y-54932D01*
X27441Y-54970D01*
X27479Y-55046D01*
X27518Y-55199D01*
X27518Y-55389D01*
X27479Y-55541D01*
X27441Y-55618D01*
X27403Y-55656D01*
X27327Y-55694D01*
X27251Y-55694D01*
X27175Y-55656D01*
X27137Y-55618D01*
X27098Y-55541D01*
X27060Y-55389D01*
X27060Y-55199D01*
X27098Y-55046D01*
X27137Y-54970D01*
X27175Y-54932D01*
X27251Y-54894D01*
X27860Y-55618D02*
X27899Y-55656D01*
X27860Y-55694D01*
X27822Y-55656D01*
X27860Y-55618D01*
X27860Y-55694D01*
X28394Y-54894D02*
X28470Y-54894D01*
X28546Y-54932D01*
X28584Y-54970D01*
X28622Y-55046D01*
X28661Y-55199D01*
X28661Y-55389D01*
X28622Y-55541D01*
X28584Y-55618D01*
X28546Y-55656D01*
X28470Y-55694D01*
X28394Y-55694D01*
X28318Y-55656D01*
X28280Y-55618D01*
X28241Y-55541D01*
X28203Y-55389D01*
X28203Y-55199D01*
X28241Y-55046D01*
X28280Y-54970D01*
X28318Y-54932D01*
X28394Y-54894D01*
X28965Y-54970D02*
X29003Y-54932D01*
X29080Y-54894D01*
X29270Y-54894D01*
X29346Y-54932D01*
X29384Y-54970D01*
X29423Y-55046D01*
X29423Y-55122D01*
X29384Y-55237D01*
X28927Y-55694D01*
X29423Y-55694D01*
X30108Y-55160D02*
X30108Y-55694D01*
X29918Y-54856D02*
X29727Y-55427D01*
X30223Y-55427D01*
X30489Y-54894D02*
X30489Y-55046D01*
X30794Y-54894D02*
X30794Y-55046D01*
X31976Y-55999D02*
X31938Y-55960D01*
X31862Y-55846D01*
X31824Y-55770D01*
X31786Y-55656D01*
X31747Y-55465D01*
X31747Y-55313D01*
X31786Y-55122D01*
X31824Y-55008D01*
X31862Y-54932D01*
X31938Y-54818D01*
X31976Y-54780D01*
X32700Y-55694D02*
X32242Y-55694D01*
X32471Y-55694D02*
X32471Y-54894D01*
X32395Y-55008D01*
X32319Y-55084D01*
X32242Y-55122D01*
X33195Y-54894D02*
X33271Y-54894D01*
X33347Y-54932D01*
X33385Y-54970D01*
X33423Y-55046D01*
X33462Y-55199D01*
X33462Y-55389D01*
X33423Y-55541D01*
X33385Y-55618D01*
X33347Y-55656D01*
X33271Y-55694D01*
X33195Y-55694D01*
X33119Y-55656D01*
X33081Y-55618D01*
X33042Y-55541D01*
X33004Y-55389D01*
X33004Y-55199D01*
X33042Y-55046D01*
X33081Y-54970D01*
X33119Y-54932D01*
X33195Y-54894D01*
X34414Y-55694D02*
X34414Y-54894D01*
X34757Y-55694D02*
X34757Y-55275D01*
X34719Y-55199D01*
X34643Y-55160D01*
X34529Y-55160D01*
X34453Y-55199D01*
X34414Y-55237D01*
X35253Y-55694D02*
X35177Y-55656D01*
X35138Y-55618D01*
X35100Y-55541D01*
X35100Y-55313D01*
X35138Y-55237D01*
X35177Y-55199D01*
X35253Y-55160D01*
X35367Y-55160D01*
X35443Y-55199D01*
X35481Y-55237D01*
X35519Y-55313D01*
X35519Y-55541D01*
X35481Y-55618D01*
X35443Y-55656D01*
X35367Y-55694D01*
X35253Y-55694D01*
X35977Y-55694D02*
X35901Y-55656D01*
X35862Y-55580D01*
X35862Y-54894D01*
X36586Y-55656D02*
X36510Y-55694D01*
X36358Y-55694D01*
X36281Y-55656D01*
X36243Y-55580D01*
X36243Y-55275D01*
X36281Y-55199D01*
X36358Y-55160D01*
X36510Y-55160D01*
X36586Y-55199D01*
X36624Y-55275D01*
X36624Y-55351D01*
X36243Y-55427D01*
X36929Y-55656D02*
X37006Y-55694D01*
X37158Y-55694D01*
X37234Y-55656D01*
X37272Y-55580D01*
X37272Y-55541D01*
X37234Y-55465D01*
X37158Y-55427D01*
X37044Y-55427D01*
X36967Y-55389D01*
X36929Y-55313D01*
X36929Y-55275D01*
X36967Y-55199D01*
X37044Y-55160D01*
X37158Y-55160D01*
X37234Y-55199D01*
X37539Y-55999D02*
X37577Y-55960D01*
X37654Y-55846D01*
X37692Y-55770D01*
X37730Y-55656D01*
X37768Y-55465D01*
X37768Y-55313D01*
X37730Y-55122D01*
X37692Y-55008D01*
X37654Y-54932D01*
X37577Y-54818D01*
X37539Y-54780D01*
G54D10*
X19849Y-56425D02*
X19846Y-56449D01*
X19839Y-56472D01*
X19828Y-56494D01*
X19812Y-56513D01*
X19793Y-56528D01*
X19772Y-56540D01*
X19749Y-56547D01*
X19724Y-56549D01*
X19701Y-56547D01*
X19678Y-56540D01*
X19656Y-56529D01*
X19637Y-56514D01*
X19621Y-56495D01*
X19610Y-56474D01*
X19602Y-56450D01*
X19600Y-56426D01*
X19602Y-56403D01*
X19608Y-56379D01*
X19619Y-56358D01*
X19635Y-56339D01*
X19653Y-56323D01*
X19674Y-56311D01*
X19698Y-56303D01*
X19722Y-56301D01*
X19745Y-56302D01*
X19769Y-56309D01*
X19790Y-56320D01*
X19810Y-56335D01*
X19826Y-56353D01*
X19838Y-56375D01*
X19845Y-56398D01*
X19848Y-56422D01*
X19849Y-56425D01*
G54D12*
X20392Y-55949D02*
X20468Y-55949D01*
X20544Y-55987D01*
X20582Y-56025D01*
X20620Y-56101D01*
X20659Y-56254D01*
X20659Y-56444D01*
X20620Y-56596D01*
X20582Y-56673D01*
X20544Y-56711D01*
X20468Y-56749D01*
X20392Y-56749D01*
X20316Y-56711D01*
X20278Y-56673D01*
X20239Y-56596D01*
X20201Y-56444D01*
X20201Y-56254D01*
X20239Y-56101D01*
X20278Y-56025D01*
X20316Y-55987D01*
X20392Y-55949D01*
X21001Y-56673D02*
X21040Y-56711D01*
X21001Y-56749D01*
X20963Y-56711D01*
X21001Y-56673D01*
X21001Y-56749D01*
X21725Y-55949D02*
X21573Y-55949D01*
X21497Y-55987D01*
X21459Y-56025D01*
X21382Y-56139D01*
X21344Y-56292D01*
X21344Y-56596D01*
X21382Y-56673D01*
X21421Y-56711D01*
X21497Y-56749D01*
X21649Y-56749D01*
X21725Y-56711D01*
X21763Y-56673D01*
X21802Y-56596D01*
X21802Y-56406D01*
X21763Y-56330D01*
X21725Y-56292D01*
X21649Y-56254D01*
X21497Y-56254D01*
X21421Y-56292D01*
X21382Y-56330D01*
X21344Y-56406D01*
X22487Y-56215D02*
X22487Y-56749D01*
X22297Y-55911D02*
X22106Y-56482D01*
X22602Y-56482D01*
X22906Y-56749D02*
X22906Y-56215D01*
X22906Y-56292D02*
X22945Y-56254D01*
X23021Y-56215D01*
X23135Y-56215D01*
X23211Y-56254D01*
X23249Y-56330D01*
X23249Y-56749D01*
X23249Y-56330D02*
X23287Y-56254D01*
X23364Y-56215D01*
X23478Y-56215D01*
X23554Y-56254D01*
X23592Y-56330D01*
X23592Y-56749D01*
X23973Y-56749D02*
X23973Y-56215D01*
X23973Y-56292D02*
X24012Y-56254D01*
X24088Y-56215D01*
X24202Y-56215D01*
X24278Y-56254D01*
X24316Y-56330D01*
X24316Y-56749D01*
X24316Y-56330D02*
X24354Y-56254D01*
X24431Y-56215D01*
X24545Y-56215D01*
X24621Y-56254D01*
X24659Y-56330D01*
X24659Y-56749D01*
X26222Y-55911D02*
X25536Y-56939D01*
X27251Y-55949D02*
X27327Y-55949D01*
X27403Y-55987D01*
X27441Y-56025D01*
X27479Y-56101D01*
X27518Y-56254D01*
X27518Y-56444D01*
X27479Y-56596D01*
X27441Y-56673D01*
X27403Y-56711D01*
X27327Y-56749D01*
X27251Y-56749D01*
X27175Y-56711D01*
X27137Y-56673D01*
X27098Y-56596D01*
X27060Y-56444D01*
X27060Y-56254D01*
X27098Y-56101D01*
X27137Y-56025D01*
X27175Y-55987D01*
X27251Y-55949D01*
X27860Y-56673D02*
X27899Y-56711D01*
X27860Y-56749D01*
X27822Y-56711D01*
X27860Y-56673D01*
X27860Y-56749D01*
X28394Y-55949D02*
X28470Y-55949D01*
X28546Y-55987D01*
X28584Y-56025D01*
X28622Y-56101D01*
X28661Y-56254D01*
X28661Y-56444D01*
X28622Y-56596D01*
X28584Y-56673D01*
X28546Y-56711D01*
X28470Y-56749D01*
X28394Y-56749D01*
X28318Y-56711D01*
X28280Y-56673D01*
X28241Y-56596D01*
X28203Y-56444D01*
X28203Y-56254D01*
X28241Y-56101D01*
X28280Y-56025D01*
X28318Y-55987D01*
X28394Y-55949D01*
X28965Y-56025D02*
X29003Y-55987D01*
X29080Y-55949D01*
X29270Y-55949D01*
X29346Y-55987D01*
X29384Y-56025D01*
X29423Y-56101D01*
X29423Y-56177D01*
X29384Y-56292D01*
X28927Y-56749D01*
X29423Y-56749D01*
X30146Y-55949D02*
X29765Y-55949D01*
X29727Y-56330D01*
X29765Y-56292D01*
X29842Y-56254D01*
X30032Y-56254D01*
X30108Y-56292D01*
X30146Y-56330D01*
X30185Y-56406D01*
X30185Y-56596D01*
X30146Y-56673D01*
X30108Y-56711D01*
X30032Y-56749D01*
X29842Y-56749D01*
X29765Y-56711D01*
X29727Y-56673D01*
X30489Y-55949D02*
X30489Y-56101D01*
X30794Y-55949D02*
X30794Y-56101D01*
X31976Y-57054D02*
X31938Y-57015D01*
X31862Y-56901D01*
X31824Y-56825D01*
X31786Y-56711D01*
X31747Y-56520D01*
X31747Y-56368D01*
X31786Y-56177D01*
X31824Y-56063D01*
X31862Y-55987D01*
X31938Y-55873D01*
X31976Y-55835D01*
X32204Y-55949D02*
X32738Y-55949D01*
X32395Y-56749D01*
X33652Y-56749D02*
X33652Y-55949D01*
X33995Y-56749D02*
X33995Y-56330D01*
X33957Y-56254D01*
X33881Y-56215D01*
X33767Y-56215D01*
X33691Y-56254D01*
X33652Y-56292D01*
X34491Y-56749D02*
X34415Y-56711D01*
X34376Y-56673D01*
X34338Y-56596D01*
X34338Y-56368D01*
X34376Y-56292D01*
X34415Y-56254D01*
X34491Y-56215D01*
X34605Y-56215D01*
X34681Y-56254D01*
X34719Y-56292D01*
X34757Y-56368D01*
X34757Y-56596D01*
X34719Y-56673D01*
X34681Y-56711D01*
X34605Y-56749D01*
X34491Y-56749D01*
X35215Y-56749D02*
X35139Y-56711D01*
X35100Y-56635D01*
X35100Y-55949D01*
X35824Y-56711D02*
X35748Y-56749D01*
X35596Y-56749D01*
X35519Y-56711D01*
X35481Y-56635D01*
X35481Y-56330D01*
X35519Y-56254D01*
X35596Y-56215D01*
X35748Y-56215D01*
X35824Y-56254D01*
X35862Y-56330D01*
X35862Y-56406D01*
X35481Y-56482D01*
X36167Y-56711D02*
X36244Y-56749D01*
X36396Y-56749D01*
X36472Y-56711D01*
X36510Y-56635D01*
X36510Y-56596D01*
X36472Y-56520D01*
X36396Y-56482D01*
X36282Y-56482D01*
X36205Y-56444D01*
X36167Y-56368D01*
X36167Y-56330D01*
X36205Y-56254D01*
X36282Y-56215D01*
X36396Y-56215D01*
X36472Y-56254D01*
X36777Y-57054D02*
X36815Y-57015D01*
X36892Y-56901D01*
X36930Y-56825D01*
X36968Y-56711D01*
X37006Y-56520D01*
X37006Y-56368D01*
X36968Y-56177D01*
X36930Y-56063D01*
X36892Y-55987D01*
X36815Y-55873D01*
X36777Y-55835D01*
X19689Y-57320D02*
X19689Y-57640D01*
X19849Y-57480D02*
X19529Y-57480D01*
X20392Y-57004D02*
X20468Y-57004D01*
X20544Y-57042D01*
X20582Y-57080D01*
X20620Y-57156D01*
X20659Y-57309D01*
X20659Y-57499D01*
X20620Y-57651D01*
X20582Y-57728D01*
X20544Y-57766D01*
X20468Y-57804D01*
X20392Y-57804D01*
X20316Y-57766D01*
X20278Y-57728D01*
X20239Y-57651D01*
X20201Y-57499D01*
X20201Y-57309D01*
X20239Y-57156D01*
X20278Y-57080D01*
X20316Y-57042D01*
X20392Y-57004D01*
X21001Y-57728D02*
X21040Y-57766D01*
X21001Y-57804D01*
X20963Y-57766D01*
X21001Y-57728D01*
X21001Y-57804D01*
X21497Y-57347D02*
X21421Y-57309D01*
X21382Y-57270D01*
X21344Y-57194D01*
X21344Y-57156D01*
X21382Y-57080D01*
X21421Y-57042D01*
X21497Y-57004D01*
X21649Y-57004D01*
X21725Y-57042D01*
X21763Y-57080D01*
X21802Y-57156D01*
X21802Y-57194D01*
X21763Y-57270D01*
X21725Y-57309D01*
X21649Y-57347D01*
X21497Y-57347D01*
X21421Y-57385D01*
X21382Y-57423D01*
X21344Y-57499D01*
X21344Y-57651D01*
X21382Y-57728D01*
X21421Y-57766D01*
X21497Y-57804D01*
X21649Y-57804D01*
X21725Y-57766D01*
X21763Y-57728D01*
X21802Y-57651D01*
X21802Y-57499D01*
X21763Y-57423D01*
X21725Y-57385D01*
X21649Y-57347D01*
X22564Y-57804D02*
X22106Y-57804D01*
X22335Y-57804D02*
X22335Y-57004D01*
X22259Y-57118D01*
X22183Y-57194D01*
X22106Y-57232D01*
X22906Y-57804D02*
X22906Y-57270D01*
X22906Y-57347D02*
X22945Y-57309D01*
X23021Y-57270D01*
X23135Y-57270D01*
X23211Y-57309D01*
X23249Y-57385D01*
X23249Y-57804D01*
X23249Y-57385D02*
X23287Y-57309D01*
X23364Y-57270D01*
X23478Y-57270D01*
X23554Y-57309D01*
X23592Y-57385D01*
X23592Y-57804D01*
X23973Y-57804D02*
X23973Y-57270D01*
X23973Y-57347D02*
X24012Y-57309D01*
X24088Y-57270D01*
X24202Y-57270D01*
X24278Y-57309D01*
X24316Y-57385D01*
X24316Y-57804D01*
X24316Y-57385D02*
X24354Y-57309D01*
X24431Y-57270D01*
X24545Y-57270D01*
X24621Y-57309D01*
X24659Y-57385D01*
X24659Y-57804D01*
X26222Y-56966D02*
X25536Y-57994D01*
X27251Y-57004D02*
X27327Y-57004D01*
X27403Y-57042D01*
X27441Y-57080D01*
X27479Y-57156D01*
X27518Y-57309D01*
X27518Y-57499D01*
X27479Y-57651D01*
X27441Y-57728D01*
X27403Y-57766D01*
X27327Y-57804D01*
X27251Y-57804D01*
X27175Y-57766D01*
X27137Y-57728D01*
X27098Y-57651D01*
X27060Y-57499D01*
X27060Y-57309D01*
X27098Y-57156D01*
X27137Y-57080D01*
X27175Y-57042D01*
X27251Y-57004D01*
X27860Y-57728D02*
X27899Y-57766D01*
X27860Y-57804D01*
X27822Y-57766D01*
X27860Y-57728D01*
X27860Y-57804D01*
X28394Y-57004D02*
X28470Y-57004D01*
X28546Y-57042D01*
X28584Y-57080D01*
X28622Y-57156D01*
X28661Y-57309D01*
X28661Y-57499D01*
X28622Y-57651D01*
X28584Y-57728D01*
X28546Y-57766D01*
X28470Y-57804D01*
X28394Y-57804D01*
X28318Y-57766D01*
X28280Y-57728D01*
X28241Y-57651D01*
X28203Y-57499D01*
X28203Y-57309D01*
X28241Y-57156D01*
X28280Y-57080D01*
X28318Y-57042D01*
X28394Y-57004D01*
X28927Y-57004D02*
X29423Y-57004D01*
X29156Y-57309D01*
X29270Y-57309D01*
X29346Y-57347D01*
X29384Y-57385D01*
X29423Y-57461D01*
X29423Y-57651D01*
X29384Y-57728D01*
X29346Y-57766D01*
X29270Y-57804D01*
X29042Y-57804D01*
X28965Y-57766D01*
X28927Y-57728D01*
X29727Y-57080D02*
X29765Y-57042D01*
X29842Y-57004D01*
X30032Y-57004D01*
X30108Y-57042D01*
X30146Y-57080D01*
X30185Y-57156D01*
X30185Y-57232D01*
X30146Y-57347D01*
X29689Y-57804D01*
X30185Y-57804D01*
X30489Y-57004D02*
X30489Y-57156D01*
X30794Y-57004D02*
X30794Y-57156D01*
X31976Y-58109D02*
X31938Y-58070D01*
X31862Y-57956D01*
X31824Y-57880D01*
X31786Y-57766D01*
X31747Y-57575D01*
X31747Y-57423D01*
X31786Y-57232D01*
X31824Y-57118D01*
X31862Y-57042D01*
X31938Y-56928D01*
X31976Y-56890D01*
X32204Y-57004D02*
X32700Y-57004D01*
X32433Y-57309D01*
X32547Y-57309D01*
X32623Y-57347D01*
X32661Y-57385D01*
X32700Y-57461D01*
X32700Y-57651D01*
X32661Y-57728D01*
X32623Y-57766D01*
X32547Y-57804D01*
X32319Y-57804D01*
X32242Y-57766D01*
X32204Y-57728D01*
X33081Y-57804D02*
X33233Y-57804D01*
X33309Y-57766D01*
X33347Y-57728D01*
X33423Y-57613D01*
X33462Y-57461D01*
X33462Y-57156D01*
X33423Y-57080D01*
X33385Y-57042D01*
X33309Y-57004D01*
X33157Y-57004D01*
X33081Y-57042D01*
X33042Y-57080D01*
X33004Y-57156D01*
X33004Y-57347D01*
X33042Y-57423D01*
X33081Y-57461D01*
X33157Y-57499D01*
X33309Y-57499D01*
X33385Y-57461D01*
X33423Y-57423D01*
X33462Y-57347D01*
X34414Y-57804D02*
X34414Y-57004D01*
X34757Y-57804D02*
X34757Y-57385D01*
X34719Y-57309D01*
X34643Y-57270D01*
X34529Y-57270D01*
X34453Y-57309D01*
X34414Y-57347D01*
X35253Y-57804D02*
X35177Y-57766D01*
X35138Y-57728D01*
X35100Y-57651D01*
X35100Y-57423D01*
X35138Y-57347D01*
X35177Y-57309D01*
X35253Y-57270D01*
X35367Y-57270D01*
X35443Y-57309D01*
X35481Y-57347D01*
X35519Y-57423D01*
X35519Y-57651D01*
X35481Y-57728D01*
X35443Y-57766D01*
X35367Y-57804D01*
X35253Y-57804D01*
X35977Y-57804D02*
X35901Y-57766D01*
X35862Y-57690D01*
X35862Y-57004D01*
X36586Y-57766D02*
X36510Y-57804D01*
X36358Y-57804D01*
X36281Y-57766D01*
X36243Y-57690D01*
X36243Y-57385D01*
X36281Y-57309D01*
X36358Y-57270D01*
X36510Y-57270D01*
X36586Y-57309D01*
X36624Y-57385D01*
X36624Y-57461D01*
X36243Y-57537D01*
X36929Y-57766D02*
X37006Y-57804D01*
X37158Y-57804D01*
X37234Y-57766D01*
X37272Y-57690D01*
X37272Y-57651D01*
X37234Y-57575D01*
X37158Y-57537D01*
X37044Y-57537D01*
X36967Y-57499D01*
X36929Y-57423D01*
X36929Y-57385D01*
X36967Y-57309D01*
X37044Y-57270D01*
X37158Y-57270D01*
X37234Y-57309D01*
X37539Y-58109D02*
X37577Y-58070D01*
X37654Y-57956D01*
X37692Y-57880D01*
X37730Y-57766D01*
X37768Y-57575D01*
X37768Y-57423D01*
X37730Y-57232D01*
X37692Y-57118D01*
X37654Y-57042D01*
X37577Y-56928D01*
X37539Y-56890D01*
G54D10*
X19849Y-58535D02*
X19845Y-58573D01*
X19833Y-58611D01*
X19815Y-58645D01*
X19790Y-58675D01*
X19760Y-58700D01*
X19726Y-58719D01*
X19689Y-58730D01*
X19650Y-58734D01*
X19612Y-58731D01*
X19575Y-58720D01*
X19540Y-58702D01*
X19510Y-58677D01*
X19484Y-58647D01*
X19466Y-58613D01*
X19454Y-58576D01*
X19450Y-58537D01*
X19453Y-58499D01*
X19464Y-58462D01*
X19481Y-58427D01*
X19506Y-58397D01*
X19535Y-58371D01*
X19569Y-58352D01*
X19607Y-58340D01*
X19645Y-58336D01*
X19683Y-58339D01*
X19721Y-58349D01*
X19756Y-58367D01*
X19786Y-58391D01*
X19812Y-58420D01*
X19831Y-58454D01*
X19844Y-58491D01*
X19848Y-58530D01*
X19849Y-58535D01*
X19449Y-58335D02*
X19849Y-58735D01*
X19849Y-58335D02*
X19449Y-58735D01*
G54D12*
X20659Y-58859D02*
X20201Y-58859D01*
X20430Y-58859D02*
X20430Y-58059D01*
X20354Y-58173D01*
X20278Y-58249D01*
X20201Y-58287D01*
X21001Y-58783D02*
X21040Y-58821D01*
X21001Y-58859D01*
X20963Y-58821D01*
X21001Y-58783D01*
X21001Y-58859D01*
X21535Y-58059D02*
X21611Y-58059D01*
X21687Y-58097D01*
X21725Y-58135D01*
X21763Y-58211D01*
X21802Y-58364D01*
X21802Y-58554D01*
X21763Y-58706D01*
X21725Y-58783D01*
X21687Y-58821D01*
X21611Y-58859D01*
X21535Y-58859D01*
X21459Y-58821D01*
X21421Y-58783D01*
X21382Y-58706D01*
X21344Y-58554D01*
X21344Y-58364D01*
X21382Y-58211D01*
X21421Y-58135D01*
X21459Y-58097D01*
X21535Y-58059D01*
X22106Y-58135D02*
X22144Y-58097D01*
X22221Y-58059D01*
X22411Y-58059D01*
X22487Y-58097D01*
X22525Y-58135D01*
X22564Y-58211D01*
X22564Y-58287D01*
X22525Y-58402D01*
X22068Y-58859D01*
X22564Y-58859D01*
X22906Y-58859D02*
X22906Y-58325D01*
X22906Y-58402D02*
X22945Y-58364D01*
X23021Y-58325D01*
X23135Y-58325D01*
X23211Y-58364D01*
X23249Y-58440D01*
X23249Y-58859D01*
X23249Y-58440D02*
X23287Y-58364D01*
X23364Y-58325D01*
X23478Y-58325D01*
X23554Y-58364D01*
X23592Y-58440D01*
X23592Y-58859D01*
X23973Y-58859D02*
X23973Y-58325D01*
X23973Y-58402D02*
X24012Y-58364D01*
X24088Y-58325D01*
X24202Y-58325D01*
X24278Y-58364D01*
X24316Y-58440D01*
X24316Y-58859D01*
X24316Y-58440D02*
X24354Y-58364D01*
X24431Y-58325D01*
X24545Y-58325D01*
X24621Y-58364D01*
X24659Y-58440D01*
X24659Y-58859D01*
X26222Y-58021D02*
X25536Y-59049D01*
X27251Y-58059D02*
X27327Y-58059D01*
X27403Y-58097D01*
X27441Y-58135D01*
X27479Y-58211D01*
X27518Y-58364D01*
X27518Y-58554D01*
X27479Y-58706D01*
X27441Y-58783D01*
X27403Y-58821D01*
X27327Y-58859D01*
X27251Y-58859D01*
X27175Y-58821D01*
X27137Y-58783D01*
X27098Y-58706D01*
X27060Y-58554D01*
X27060Y-58364D01*
X27098Y-58211D01*
X27137Y-58135D01*
X27175Y-58097D01*
X27251Y-58059D01*
X27860Y-58783D02*
X27899Y-58821D01*
X27860Y-58859D01*
X27822Y-58821D01*
X27860Y-58783D01*
X27860Y-58859D01*
X28394Y-58059D02*
X28470Y-58059D01*
X28546Y-58097D01*
X28584Y-58135D01*
X28622Y-58211D01*
X28661Y-58364D01*
X28661Y-58554D01*
X28622Y-58706D01*
X28584Y-58783D01*
X28546Y-58821D01*
X28470Y-58859D01*
X28394Y-58859D01*
X28318Y-58821D01*
X28280Y-58783D01*
X28241Y-58706D01*
X28203Y-58554D01*
X28203Y-58364D01*
X28241Y-58211D01*
X28280Y-58135D01*
X28318Y-58097D01*
X28394Y-58059D01*
X29346Y-58325D02*
X29346Y-58859D01*
X29156Y-58021D02*
X28965Y-58592D01*
X29461Y-58592D01*
X29918Y-58059D02*
X29994Y-58059D01*
X30070Y-58097D01*
X30108Y-58135D01*
X30146Y-58211D01*
X30185Y-58364D01*
X30185Y-58554D01*
X30146Y-58706D01*
X30108Y-58783D01*
X30070Y-58821D01*
X29994Y-58859D01*
X29918Y-58859D01*
X29842Y-58821D01*
X29804Y-58783D01*
X29765Y-58706D01*
X29727Y-58554D01*
X29727Y-58364D01*
X29765Y-58211D01*
X29804Y-58135D01*
X29842Y-58097D01*
X29918Y-58059D01*
X30489Y-58059D02*
X30489Y-58211D01*
X30794Y-58059D02*
X30794Y-58211D01*
X31976Y-59164D02*
X31938Y-59125D01*
X31862Y-59011D01*
X31824Y-58935D01*
X31786Y-58821D01*
X31747Y-58630D01*
X31747Y-58478D01*
X31786Y-58287D01*
X31824Y-58173D01*
X31862Y-58097D01*
X31938Y-57983D01*
X31976Y-57945D01*
X32623Y-58325D02*
X32623Y-58859D01*
X32433Y-58021D02*
X32242Y-58592D01*
X32738Y-58592D01*
X33157Y-58402D02*
X33081Y-58364D01*
X33042Y-58325D01*
X33004Y-58249D01*
X33004Y-58211D01*
X33042Y-58135D01*
X33081Y-58097D01*
X33157Y-58059D01*
X33309Y-58059D01*
X33385Y-58097D01*
X33423Y-58135D01*
X33462Y-58211D01*
X33462Y-58249D01*
X33423Y-58325D01*
X33385Y-58364D01*
X33309Y-58402D01*
X33157Y-58402D01*
X33081Y-58440D01*
X33042Y-58478D01*
X33004Y-58554D01*
X33004Y-58706D01*
X33042Y-58783D01*
X33081Y-58821D01*
X33157Y-58859D01*
X33309Y-58859D01*
X33385Y-58821D01*
X33423Y-58783D01*
X33462Y-58706D01*
X33462Y-58554D01*
X33423Y-58478D01*
X33385Y-58440D01*
X33309Y-58402D01*
X34414Y-58859D02*
X34414Y-58059D01*
X34757Y-58859D02*
X34757Y-58440D01*
X34719Y-58364D01*
X34643Y-58325D01*
X34529Y-58325D01*
X34453Y-58364D01*
X34414Y-58402D01*
X35253Y-58859D02*
X35177Y-58821D01*
X35138Y-58783D01*
X35100Y-58706D01*
X35100Y-58478D01*
X35138Y-58402D01*
X35177Y-58364D01*
X35253Y-58325D01*
X35367Y-58325D01*
X35443Y-58364D01*
X35481Y-58402D01*
X35519Y-58478D01*
X35519Y-58706D01*
X35481Y-58783D01*
X35443Y-58821D01*
X35367Y-58859D01*
X35253Y-58859D01*
X35977Y-58859D02*
X35901Y-58821D01*
X35862Y-58745D01*
X35862Y-58059D01*
X36586Y-58821D02*
X36510Y-58859D01*
X36358Y-58859D01*
X36281Y-58821D01*
X36243Y-58745D01*
X36243Y-58440D01*
X36281Y-58364D01*
X36358Y-58325D01*
X36510Y-58325D01*
X36586Y-58364D01*
X36624Y-58440D01*
X36624Y-58516D01*
X36243Y-58592D01*
X36929Y-58821D02*
X37006Y-58859D01*
X37158Y-58859D01*
X37234Y-58821D01*
X37272Y-58745D01*
X37272Y-58706D01*
X37234Y-58630D01*
X37158Y-58592D01*
X37044Y-58592D01*
X36967Y-58554D01*
X36929Y-58478D01*
X36929Y-58440D01*
X36967Y-58364D01*
X37044Y-58325D01*
X37158Y-58325D01*
X37234Y-58364D01*
X37539Y-59164D02*
X37577Y-59125D01*
X37654Y-59011D01*
X37692Y-58935D01*
X37730Y-58821D01*
X37768Y-58630D01*
X37768Y-58478D01*
X37730Y-58287D01*
X37692Y-58173D01*
X37654Y-58097D01*
X37577Y-57983D01*
X37539Y-57945D01*
G54D10*
X19848Y-59590D02*
X19836Y-59704D01*
X19803Y-59814D01*
X19749Y-59916D01*
X19676Y-60005D01*
X19587Y-60079D01*
X19486Y-60133D01*
X19376Y-60167D01*
X19262Y-60179D01*
X19148Y-60169D01*
X19037Y-60137D01*
X18935Y-60083D01*
X18846Y-60011D01*
X18772Y-59923D01*
X18716Y-59822D01*
X18681Y-59712D01*
X18669Y-59598D01*
X18678Y-59484D01*
X18710Y-59373D01*
X18763Y-59271D01*
X18834Y-59181D01*
X18922Y-59106D01*
X19022Y-59050D01*
X19132Y-59014D01*
X19246Y-59001D01*
X19360Y-59009D01*
X19471Y-59040D01*
X19574Y-59092D01*
X19664Y-59163D01*
X19740Y-59250D01*
X19796Y-59351D01*
X19833Y-59460D01*
X19847Y-59574D01*
X19848Y-59590D01*
X18668Y-59590D02*
X19848Y-59590D01*
G54D12*
X20163Y-59114D02*
X20659Y-59114D01*
X20392Y-59419D01*
X20506Y-59419D01*
X20582Y-59457D01*
X20620Y-59495D01*
X20659Y-59571D01*
X20659Y-59761D01*
X20620Y-59838D01*
X20582Y-59876D01*
X20506Y-59914D01*
X20278Y-59914D01*
X20201Y-59876D01*
X20163Y-59838D01*
X21001Y-59838D02*
X21040Y-59876D01*
X21001Y-59914D01*
X20963Y-59876D01*
X21001Y-59838D01*
X21001Y-59914D01*
X21535Y-59114D02*
X21611Y-59114D01*
X21687Y-59152D01*
X21725Y-59190D01*
X21763Y-59266D01*
X21802Y-59419D01*
X21802Y-59609D01*
X21763Y-59761D01*
X21725Y-59838D01*
X21687Y-59876D01*
X21611Y-59914D01*
X21535Y-59914D01*
X21459Y-59876D01*
X21421Y-59838D01*
X21382Y-59761D01*
X21344Y-59609D01*
X21344Y-59419D01*
X21382Y-59266D01*
X21421Y-59190D01*
X21459Y-59152D01*
X21535Y-59114D01*
X22297Y-59114D02*
X22373Y-59114D01*
X22449Y-59152D01*
X22487Y-59190D01*
X22525Y-59266D01*
X22564Y-59419D01*
X22564Y-59609D01*
X22525Y-59761D01*
X22487Y-59838D01*
X22449Y-59876D01*
X22373Y-59914D01*
X22297Y-59914D01*
X22221Y-59876D01*
X22183Y-59838D01*
X22144Y-59761D01*
X22106Y-59609D01*
X22106Y-59419D01*
X22144Y-59266D01*
X22183Y-59190D01*
X22221Y-59152D01*
X22297Y-59114D01*
X22906Y-59914D02*
X22906Y-59380D01*
X22906Y-59457D02*
X22945Y-59419D01*
X23021Y-59380D01*
X23135Y-59380D01*
X23211Y-59419D01*
X23249Y-59495D01*
X23249Y-59914D01*
X23249Y-59495D02*
X23287Y-59419D01*
X23364Y-59380D01*
X23478Y-59380D01*
X23554Y-59419D01*
X23592Y-59495D01*
X23592Y-59914D01*
X23973Y-59914D02*
X23973Y-59380D01*
X23973Y-59457D02*
X24012Y-59419D01*
X24088Y-59380D01*
X24202Y-59380D01*
X24278Y-59419D01*
X24316Y-59495D01*
X24316Y-59914D01*
X24316Y-59495D02*
X24354Y-59419D01*
X24431Y-59380D01*
X24545Y-59380D01*
X24621Y-59419D01*
X24659Y-59495D01*
X24659Y-59914D01*
X26222Y-59076D02*
X25536Y-60104D01*
X27251Y-59114D02*
X27327Y-59114D01*
X27403Y-59152D01*
X27441Y-59190D01*
X27479Y-59266D01*
X27518Y-59419D01*
X27518Y-59609D01*
X27479Y-59761D01*
X27441Y-59838D01*
X27403Y-59876D01*
X27327Y-59914D01*
X27251Y-59914D01*
X27175Y-59876D01*
X27137Y-59838D01*
X27098Y-59761D01*
X27060Y-59609D01*
X27060Y-59419D01*
X27098Y-59266D01*
X27137Y-59190D01*
X27175Y-59152D01*
X27251Y-59114D01*
X27860Y-59838D02*
X27899Y-59876D01*
X27860Y-59914D01*
X27822Y-59876D01*
X27860Y-59838D01*
X27860Y-59914D01*
X28661Y-59914D02*
X28203Y-59914D01*
X28432Y-59914D02*
X28432Y-59114D01*
X28356Y-59228D01*
X28280Y-59304D01*
X28203Y-59342D01*
X29423Y-59914D02*
X28965Y-59914D01*
X29194Y-59914D02*
X29194Y-59114D01*
X29118Y-59228D01*
X29042Y-59304D01*
X28965Y-59342D01*
X29880Y-59457D02*
X29804Y-59419D01*
X29765Y-59380D01*
X29727Y-59304D01*
X29727Y-59266D01*
X29765Y-59190D01*
X29804Y-59152D01*
X29880Y-59114D01*
X30032Y-59114D01*
X30108Y-59152D01*
X30146Y-59190D01*
X30185Y-59266D01*
X30185Y-59304D01*
X30146Y-59380D01*
X30108Y-59419D01*
X30032Y-59457D01*
X29880Y-59457D01*
X29804Y-59495D01*
X29765Y-59533D01*
X29727Y-59609D01*
X29727Y-59761D01*
X29765Y-59838D01*
X29804Y-59876D01*
X29880Y-59914D01*
X30032Y-59914D01*
X30108Y-59876D01*
X30146Y-59838D01*
X30185Y-59761D01*
X30185Y-59609D01*
X30146Y-59533D01*
X30108Y-59495D01*
X30032Y-59457D01*
X30489Y-59114D02*
X30489Y-59266D01*
X30794Y-59114D02*
X30794Y-59266D01*
X31976Y-60219D02*
X31938Y-60180D01*
X31862Y-60066D01*
X31824Y-59990D01*
X31786Y-59876D01*
X31747Y-59685D01*
X31747Y-59533D01*
X31786Y-59342D01*
X31824Y-59228D01*
X31862Y-59152D01*
X31938Y-59038D01*
X31976Y-59000D01*
X32204Y-59114D02*
X32700Y-59114D01*
X32433Y-59419D01*
X32547Y-59419D01*
X32623Y-59457D01*
X32661Y-59495D01*
X32700Y-59571D01*
X32700Y-59761D01*
X32661Y-59838D01*
X32623Y-59876D01*
X32547Y-59914D01*
X32319Y-59914D01*
X32242Y-59876D01*
X32204Y-59838D01*
X33652Y-59914D02*
X33652Y-59114D01*
X33995Y-59914D02*
X33995Y-59495D01*
X33957Y-59419D01*
X33881Y-59380D01*
X33767Y-59380D01*
X33691Y-59419D01*
X33652Y-59457D01*
X34491Y-59914D02*
X34415Y-59876D01*
X34376Y-59838D01*
X34338Y-59761D01*
X34338Y-59533D01*
X34376Y-59457D01*
X34415Y-59419D01*
X34491Y-59380D01*
X34605Y-59380D01*
X34681Y-59419D01*
X34719Y-59457D01*
X34757Y-59533D01*
X34757Y-59761D01*
X34719Y-59838D01*
X34681Y-59876D01*
X34605Y-59914D01*
X34491Y-59914D01*
X35215Y-59914D02*
X35139Y-59876D01*
X35100Y-59800D01*
X35100Y-59114D01*
X35824Y-59876D02*
X35748Y-59914D01*
X35596Y-59914D01*
X35519Y-59876D01*
X35481Y-59800D01*
X35481Y-59495D01*
X35519Y-59419D01*
X35596Y-59380D01*
X35748Y-59380D01*
X35824Y-59419D01*
X35862Y-59495D01*
X35862Y-59571D01*
X35481Y-59647D01*
X36167Y-59876D02*
X36244Y-59914D01*
X36396Y-59914D01*
X36472Y-59876D01*
X36510Y-59800D01*
X36510Y-59761D01*
X36472Y-59685D01*
X36396Y-59647D01*
X36282Y-59647D01*
X36205Y-59609D01*
X36167Y-59533D01*
X36167Y-59495D01*
X36205Y-59419D01*
X36282Y-59380D01*
X36396Y-59380D01*
X36472Y-59419D01*
X36777Y-60219D02*
X36815Y-60180D01*
X36892Y-60066D01*
X36930Y-59990D01*
X36968Y-59876D01*
X37006Y-59685D01*
X37006Y-59533D01*
X36968Y-59342D01*
X36930Y-59228D01*
X36892Y-59152D01*
X36815Y-59038D01*
X36777Y-59000D01*
M02*
