M48
;DRILL file {Pcbnew (2012-01-19 BZR 3256)-stable} date 19/03/2013 15:46:26
;FORMAT={-:-/ absolute / inch / decimal}
FMAT,2
INCH,TZ
T1C0.025
T2C0.032
T3C0.040
T4C0.060
T5C0.118
%
G90
G05
M72
T1
X5.750Y5.475
X5.750Y5.575
X6.050Y5.475
X6.050Y5.575
X6.200Y3.225
X6.400Y2.800
X6.725Y3.700
X6.750Y2.775
X6.825Y3.300
X6.825Y3.400
X7.000Y3.300
X7.000Y3.400
X7.000Y3.525
X7.050Y1.975
X7.200Y3.650
X7.275Y3.200
X7.400Y2.700
X7.500Y2.625
X7.500Y2.800
X7.500Y4.650
X7.500Y4.825
X7.600Y2.625
X7.600Y2.800
X7.600Y4.650
X7.600Y4.825
X7.750Y4.825
X7.750Y4.925
X7.800Y4.325
X7.825Y3.600
X7.825Y4.050
X7.850Y2.225
X7.875Y3.000
X7.925Y5.150
X7.950Y4.525
X7.950Y4.625
X7.950Y4.825
X7.950Y4.925
X7.975Y3.425
X8.050Y4.275
X8.050Y4.375
X8.100Y1.975
X8.250Y4.500
X8.250Y4.700
T2
X5.475Y4.225
X5.475Y4.425
X5.475Y5.025
X5.475Y5.125
X6.075Y4.225
X6.075Y4.425
X6.075Y5.025
X6.075Y5.125
X6.075Y5.225
X6.275Y5.475
X6.325Y3.000
X6.325Y3.100
X6.325Y3.200
X6.325Y3.300
X6.325Y3.400
X6.325Y3.500
X6.325Y3.600
X6.625Y3.000
X6.625Y3.100
X6.625Y3.200
X6.625Y3.300
X6.625Y3.400
X6.625Y3.500
X6.625Y3.600
X6.750Y4.050
X6.975Y5.475
X7.050Y4.050
X7.125Y2.350
X7.125Y2.650
X7.400Y3.000
X7.400Y3.100
X7.400Y3.200
X7.400Y3.300
X7.400Y3.400
X7.400Y3.500
X7.400Y3.600
X7.400Y3.850
X7.400Y3.950
X7.400Y4.050
X7.400Y4.150
X7.400Y4.250
X7.400Y4.350
X7.400Y4.450
X7.550Y2.325
X7.550Y2.425
X7.700Y3.000
X7.700Y3.100
X7.700Y3.200
X7.700Y3.300
X7.700Y3.400
X7.700Y3.500
X7.700Y3.600
X7.700Y3.850
X7.700Y3.950
X7.700Y4.050
X7.700Y4.150
X7.700Y4.250
X7.700Y4.350
X7.700Y4.450
X7.850Y2.325
X7.850Y2.425
X8.150Y2.475
X8.150Y3.075
X8.150Y3.675
X8.150Y4.275
X8.150Y4.925
X8.250Y4.925
X8.350Y4.925
X8.450Y2.475
X8.450Y3.075
X8.450Y3.675
X8.450Y4.275
T3
X5.150Y2.775
X5.150Y2.875
X5.150Y2.975
X5.150Y3.075
X5.150Y3.175
X5.150Y3.275
X5.150Y3.375
X5.150Y3.475
X6.450Y4.350
X6.450Y5.150
X6.750Y4.350
X7.050Y4.350
X7.050Y5.150
X8.000Y2.475
X8.000Y2.875
X8.575Y2.075
X8.575Y2.475
X8.575Y2.675
X8.575Y3.075
X8.575Y3.275
X8.575Y3.675
X8.575Y3.875
X8.575Y4.275
X8.575Y4.475
X8.575Y4.875
X8.575Y5.075
X8.575Y5.475
X8.975Y5.700
X8.975Y6.025
X9.375Y5.700
X9.375Y6.025
T4
X5.350Y2.225
X5.350Y2.550
X5.350Y2.875
X5.350Y3.200
X5.350Y3.525
X5.350Y3.850
X5.750Y2.125
X5.750Y2.325
X5.750Y2.450
X5.750Y2.650
X5.750Y2.775
X5.750Y2.975
X5.750Y3.100
X5.750Y3.300
X5.750Y3.425
X5.750Y3.625
X5.750Y3.750
X5.750Y3.950
X6.075Y1.975
X6.175Y2.375
X6.275Y1.975
X6.400Y1.975
X6.500Y2.375
X6.550Y5.850
X6.600Y1.975
X6.725Y1.975
X6.750Y5.850
X6.825Y2.375
X6.925Y1.975
X7.150Y5.850
X7.250Y1.850
X7.300Y2.350
X7.300Y2.450
X7.350Y5.850
X7.400Y2.350
X7.450Y1.850
X7.550Y5.850
X7.650Y1.850
X7.750Y5.850
X7.850Y1.850
X8.000Y2.075
X8.000Y2.175
X8.100Y2.175
X8.325Y2.075
X8.325Y2.175
X8.325Y2.675
X8.325Y2.775
X8.325Y3.275
X8.325Y3.375
X8.325Y3.875
X8.325Y3.975
X8.425Y2.175
X8.425Y2.775
X8.425Y3.375
X8.425Y3.975
X8.750Y2.125
X8.750Y2.425
X8.750Y2.725
X8.750Y3.025
X8.750Y3.325
X8.750Y3.625
X8.750Y3.925
X8.750Y4.225
X8.750Y4.525
X8.750Y4.825
X8.750Y5.125
X8.750Y5.425
X9.175Y1.850
X9.350Y4.525
X9.350Y4.825
X9.375Y1.850
X9.400Y2.425
X9.400Y3.025
X9.400Y3.625
X9.400Y4.225
X9.400Y5.425
X9.537Y2.125
X9.537Y2.725
X9.537Y3.325
X9.537Y3.925
X9.537Y5.125
X9.550Y4.525
X9.550Y4.825
X9.675Y2.425
X9.675Y3.025
X9.675Y3.625
X9.675Y4.225
X9.675Y5.425
X9.750Y4.525
X9.750Y4.825
X10.100Y1.825
X10.100Y2.025
X10.100Y2.225
X10.100Y2.425
X10.100Y2.625
X10.100Y2.825
X10.100Y3.025
X10.100Y3.225
X10.100Y3.425
X10.100Y3.625
X10.100Y3.825
X10.100Y4.025
X10.100Y4.225
X10.100Y4.425
X10.100Y4.625
X10.100Y4.825
X10.100Y5.025
X10.100Y5.225
X10.100Y5.425
X10.100Y5.625
X10.100Y5.825
X10.100Y6.025
T5
X5.200Y1.875
X5.200Y6.000
X8.250Y5.575
X9.650Y1.875
X9.650Y6.000
T0
M30
