M48
;DRILL file {Pcbnew (2012-01-19 BZR 3256)-stable} date 12/03/2013 15:28:34
;FORMAT={-:-/ absolute / metric / decimal}
FMAT,2
METRIC,TZ
T1C0.610
T2C0.635
T3C0.800
T4C0.813
T5C1.016
T6C1.270
T7C1.397
T8C1.524
T9C5.001
%
G90
G05
M71
T1
X123.190Y63.500
X125.730Y63.500
X125.730Y111.760
X125.730Y115.570
X128.270Y111.760
X128.270Y115.570
X130.810Y62.230
X130.810Y64.770
T2
X77.470Y58.420
X78.105Y64.770
X80.749Y52.751
X84.455Y69.215
X85.725Y64.135
X93.345Y62.230
X99.695Y63.500
X102.235Y126.365
X102.870Y62.865
X107.950Y64.770
X108.585Y55.880
X114.501Y120.251
X115.570Y64.770
X115.570Y67.945
X120.500Y61.250
T3
X59.690Y115.570
X62.230Y115.570
X66.040Y115.570
X68.580Y115.570
X72.390Y115.570
X74.930Y115.570
X78.740Y115.570
X81.280Y115.570
X97.729Y115.750
X100.269Y115.750
X104.229Y115.750
X106.769Y115.750
X110.490Y115.570
X113.030Y115.570
X118.229Y114.249
X118.229Y120.500
X120.769Y114.249
X120.769Y120.500
T4
X66.190Y122.250
X68.580Y62.230
X73.810Y122.250
X76.200Y62.230
X105.440Y125.750
X113.060Y125.750
X120.439Y88.750
X120.650Y68.580
X120.650Y71.120
X120.650Y73.660
X120.650Y76.200
X120.650Y78.740
X120.650Y81.280
X120.650Y83.820
X120.650Y92.710
X120.650Y95.250
X120.650Y97.790
X120.650Y100.330
X120.650Y105.410
X120.650Y107.950
X123.439Y119.499
X128.059Y88.750
X128.270Y68.580
X128.270Y71.120
X128.270Y73.660
X128.270Y76.200
X128.270Y78.740
X128.270Y81.280
X128.270Y83.820
X128.270Y92.710
X128.270Y95.250
X128.270Y97.790
X128.270Y100.330
X128.270Y105.410
X128.270Y107.950
X131.059Y119.499
X132.080Y77.470
X132.080Y85.090
X132.080Y92.710
X132.080Y100.330
T5
X53.340Y73.660
X53.340Y81.280
X53.340Y87.630
X53.340Y95.250
X53.340Y101.600
X53.340Y109.220
X69.850Y53.340
X69.850Y55.880
X85.730Y118.001
X86.995Y55.880
X86.995Y58.420
X86.995Y125.730
X86.995Y128.270
X88.270Y118.001
X89.535Y55.880
X89.535Y58.420
X89.535Y125.730
X89.535Y128.270
X92.075Y55.880
X92.075Y58.420
X92.075Y125.730
X92.075Y128.270
X94.615Y55.880
X94.615Y58.420
X94.615Y125.730
X94.615Y128.270
X97.155Y55.880
X97.155Y58.420
X97.155Y125.730
X97.155Y128.270
X111.760Y57.150
X114.300Y57.150
X116.840Y57.150
X116.840Y73.660
X116.840Y81.280
X116.840Y87.630
X116.840Y95.250
X116.840Y101.600
X116.840Y109.220
X118.001Y125.481
X118.001Y128.021
X119.380Y57.150
T6
X82.550Y73.660
T7
X57.150Y73.660
X57.150Y81.280
X57.150Y87.630
X57.150Y95.250
X57.150Y101.600
X57.150Y109.220
X72.390Y73.660
X72.390Y81.280
X72.390Y87.630
X72.390Y95.250
X72.390Y101.600
X72.390Y109.220
X77.470Y73.660
X77.470Y81.280
X77.470Y87.630
X77.470Y95.250
X77.470Y101.600
X77.470Y109.220
X82.550Y81.280
X82.550Y87.630
X82.550Y95.250
X82.550Y101.600
X82.550Y109.220
X87.630Y73.660
X87.630Y81.280
X87.630Y87.630
X87.630Y95.250
X87.630Y101.600
X87.630Y109.220
X92.710Y73.660
X92.710Y81.280
X92.710Y87.630
X92.710Y95.250
X92.710Y101.600
X92.710Y109.220
X97.790Y73.660
X97.790Y81.280
X97.790Y87.630
X97.790Y95.250
X97.790Y101.600
X97.790Y109.220
X113.030Y73.660
X113.030Y81.280
X113.030Y87.630
X113.030Y95.250
X113.030Y101.600
X113.030Y109.220
T8
X71.120Y67.310
X73.660Y64.770
X73.660Y67.310
X78.740Y67.310
X81.280Y64.770
X81.280Y67.310
X86.360Y67.310
X88.900Y64.770
X88.900Y67.310
X93.980Y67.310
X96.520Y64.770
X96.520Y67.310
X101.600Y67.310
X104.140Y64.770
X104.140Y67.310
X109.220Y67.310
X111.760Y64.770
X111.760Y67.310
T9
X57.150Y127.000
X127.000Y57.150
X127.000Y127.000
T0
M30
