G04 (created by PCBNEW-RS274X (2012-01-19 BZR 3256)-stable) date 12/03/2013 15:57:58*
G01*
G70*
G90*
%MOIN*%
G04 Gerber Fmt 3.4, Leading zero omitted, Abs format*
%FSLAX34Y34*%
G04 APERTURE LIST*
%ADD10C,0.006000*%
%ADD11C,0.012000*%
%ADD12C,0.015000*%
%ADD13C,0.005000*%
%ADD14C,0.010000*%
%ADD15C,0.008000*%
%ADD16C,0.011300*%
%ADD17C,0.095000*%
%ADD18R,0.095000X0.095000*%
%ADD19C,0.235000*%
%ADD20C,0.105000*%
%ADD21R,0.075000X0.075000*%
%ADD22C,0.075000*%
%ADD23C,0.295600*%
%ADD24R,0.110000X0.082000*%
%ADD25O,0.110000X0.082000*%
%ADD26R,0.090000X0.090000*%
%ADD27C,0.090000*%
G04 APERTURE END LIST*
G54D10*
X04000Y-04000D02*
X113000Y-04000D01*
X113000Y-78670D01*
X04000Y-78670D01*
X04000Y-04000D01*
X04700Y-04700D02*
X112300Y-04700D01*
X112300Y-77970D01*
X04700Y-77970D01*
X04700Y-04700D01*
X25800Y-04000D02*
X25800Y-04700D01*
X15043Y-04552D02*
X14757Y-04552D01*
X14900Y-04552D02*
X14900Y-04052D01*
X14852Y-04124D01*
X14805Y-04171D01*
X14757Y-04195D01*
X25800Y-78670D02*
X25800Y-77970D01*
X15043Y-78522D02*
X14757Y-78522D01*
X14900Y-78522D02*
X14900Y-78022D01*
X14852Y-78094D01*
X14805Y-78141D01*
X14757Y-78165D01*
X47600Y-04000D02*
X47600Y-04700D01*
X36557Y-04100D02*
X36581Y-04076D01*
X36629Y-04052D01*
X36748Y-04052D01*
X36795Y-04076D01*
X36819Y-04100D01*
X36843Y-04148D01*
X36843Y-04195D01*
X36819Y-04267D01*
X36533Y-04552D01*
X36843Y-04552D01*
X47600Y-78670D02*
X47600Y-77970D01*
X36557Y-78070D02*
X36581Y-78046D01*
X36629Y-78022D01*
X36748Y-78022D01*
X36795Y-78046D01*
X36819Y-78070D01*
X36843Y-78118D01*
X36843Y-78165D01*
X36819Y-78237D01*
X36533Y-78522D01*
X36843Y-78522D01*
X69400Y-04000D02*
X69400Y-04700D01*
X58333Y-04052D02*
X58643Y-04052D01*
X58476Y-04243D01*
X58548Y-04243D01*
X58595Y-04267D01*
X58619Y-04290D01*
X58643Y-04338D01*
X58643Y-04457D01*
X58619Y-04505D01*
X58595Y-04529D01*
X58548Y-04552D01*
X58405Y-04552D01*
X58357Y-04529D01*
X58333Y-04505D01*
X69400Y-78670D02*
X69400Y-77970D01*
X58333Y-78022D02*
X58643Y-78022D01*
X58476Y-78213D01*
X58548Y-78213D01*
X58595Y-78237D01*
X58619Y-78260D01*
X58643Y-78308D01*
X58643Y-78427D01*
X58619Y-78475D01*
X58595Y-78499D01*
X58548Y-78522D01*
X58405Y-78522D01*
X58357Y-78499D01*
X58333Y-78475D01*
X91200Y-04000D02*
X91200Y-04700D01*
X80395Y-04219D02*
X80395Y-04552D01*
X80276Y-04029D02*
X80157Y-04386D01*
X80467Y-04386D01*
X91200Y-78670D02*
X91200Y-77970D01*
X80395Y-78189D02*
X80395Y-78522D01*
X80276Y-77999D02*
X80157Y-78356D01*
X80467Y-78356D01*
X102219Y-04052D02*
X101981Y-04052D01*
X101957Y-04290D01*
X101981Y-04267D01*
X102029Y-04243D01*
X102148Y-04243D01*
X102195Y-04267D01*
X102219Y-04290D01*
X102243Y-04338D01*
X102243Y-04457D01*
X102219Y-04505D01*
X102195Y-04529D01*
X102148Y-04552D01*
X102029Y-04552D01*
X101981Y-04529D01*
X101957Y-04505D01*
X102219Y-78022D02*
X101981Y-78022D01*
X101957Y-78260D01*
X101981Y-78237D01*
X102029Y-78213D01*
X102148Y-78213D01*
X102195Y-78237D01*
X102219Y-78260D01*
X102243Y-78308D01*
X102243Y-78427D01*
X102219Y-78475D01*
X102195Y-78499D01*
X102148Y-78522D01*
X102029Y-78522D01*
X101981Y-78499D01*
X101957Y-78475D01*
X04000Y-28890D02*
X04700Y-28890D01*
X04231Y-16510D02*
X04469Y-16510D01*
X04184Y-16652D02*
X04350Y-16152D01*
X04517Y-16652D01*
X113000Y-28890D02*
X112300Y-28890D01*
X112531Y-16510D02*
X112769Y-16510D01*
X112484Y-16652D02*
X112650Y-16152D01*
X112817Y-16652D01*
X04000Y-53780D02*
X04700Y-53780D01*
X04386Y-41280D02*
X04457Y-41304D01*
X04481Y-41328D01*
X04505Y-41376D01*
X04505Y-41447D01*
X04481Y-41495D01*
X04457Y-41519D01*
X04410Y-41542D01*
X04219Y-41542D01*
X04219Y-41042D01*
X04386Y-41042D01*
X04433Y-41066D01*
X04457Y-41090D01*
X04481Y-41138D01*
X04481Y-41185D01*
X04457Y-41233D01*
X04433Y-41257D01*
X04386Y-41280D01*
X04219Y-41280D01*
X113000Y-53780D02*
X112300Y-53780D01*
X112686Y-41280D02*
X112757Y-41304D01*
X112781Y-41328D01*
X112805Y-41376D01*
X112805Y-41447D01*
X112781Y-41495D01*
X112757Y-41519D01*
X112710Y-41542D01*
X112519Y-41542D01*
X112519Y-41042D01*
X112686Y-41042D01*
X112733Y-41066D01*
X112757Y-41090D01*
X112781Y-41138D01*
X112781Y-41185D01*
X112757Y-41233D01*
X112733Y-41257D01*
X112686Y-41280D01*
X112519Y-41280D01*
X04505Y-66385D02*
X04481Y-66409D01*
X04410Y-66432D01*
X04362Y-66432D01*
X04290Y-66409D01*
X04243Y-66361D01*
X04219Y-66313D01*
X04195Y-66218D01*
X04195Y-66147D01*
X04219Y-66051D01*
X04243Y-66004D01*
X04290Y-65956D01*
X04362Y-65932D01*
X04410Y-65932D01*
X04481Y-65956D01*
X04505Y-65980D01*
X112805Y-66385D02*
X112781Y-66409D01*
X112710Y-66432D01*
X112662Y-66432D01*
X112590Y-66409D01*
X112543Y-66361D01*
X112519Y-66313D01*
X112495Y-66218D01*
X112495Y-66147D01*
X112519Y-66051D01*
X112543Y-66004D01*
X112590Y-65956D01*
X112662Y-65932D01*
X112710Y-65932D01*
X112781Y-65956D01*
X112805Y-65980D01*
G54D11*
X79443Y-76413D02*
X79443Y-75813D01*
X79586Y-75813D01*
X79671Y-75841D01*
X79729Y-75899D01*
X79757Y-75956D01*
X79786Y-76070D01*
X79786Y-76156D01*
X79757Y-76270D01*
X79729Y-76327D01*
X79671Y-76384D01*
X79586Y-76413D01*
X79443Y-76413D01*
X80300Y-76413D02*
X80300Y-76099D01*
X80271Y-76041D01*
X80214Y-76013D01*
X80100Y-76013D01*
X80043Y-76041D01*
X80300Y-76384D02*
X80243Y-76413D01*
X80100Y-76413D01*
X80043Y-76384D01*
X80014Y-76327D01*
X80014Y-76270D01*
X80043Y-76213D01*
X80100Y-76184D01*
X80243Y-76184D01*
X80300Y-76156D01*
X80500Y-76013D02*
X80729Y-76013D01*
X80586Y-75813D02*
X80586Y-76327D01*
X80614Y-76384D01*
X80672Y-76413D01*
X80729Y-76413D01*
X81157Y-76384D02*
X81100Y-76413D01*
X80986Y-76413D01*
X80929Y-76384D01*
X80900Y-76327D01*
X80900Y-76099D01*
X80929Y-76041D01*
X80986Y-76013D01*
X81100Y-76013D01*
X81157Y-76041D01*
X81186Y-76099D01*
X81186Y-76156D01*
X80900Y-76213D01*
X81443Y-76356D02*
X81471Y-76384D01*
X81443Y-76413D01*
X81414Y-76384D01*
X81443Y-76356D01*
X81443Y-76413D01*
X81443Y-76041D02*
X81471Y-76070D01*
X81443Y-76099D01*
X81414Y-76070D01*
X81443Y-76041D01*
X81443Y-76099D01*
X82500Y-76413D02*
X82157Y-76413D01*
X82329Y-76413D02*
X82329Y-75813D01*
X82272Y-75899D01*
X82214Y-75956D01*
X82157Y-75984D01*
X82728Y-75870D02*
X82757Y-75841D01*
X82814Y-75813D01*
X82957Y-75813D01*
X83014Y-75841D01*
X83043Y-75870D01*
X83071Y-75927D01*
X83071Y-75984D01*
X83043Y-76070D01*
X82700Y-76413D01*
X83071Y-76413D01*
X83785Y-76413D02*
X83785Y-76013D01*
X83785Y-76070D02*
X83813Y-76041D01*
X83871Y-76013D01*
X83956Y-76013D01*
X84013Y-76041D01*
X84042Y-76099D01*
X84042Y-76413D01*
X84042Y-76099D02*
X84071Y-76041D01*
X84128Y-76013D01*
X84213Y-76013D01*
X84271Y-76041D01*
X84299Y-76099D01*
X84299Y-76413D01*
X84842Y-76413D02*
X84842Y-76099D01*
X84813Y-76041D01*
X84756Y-76013D01*
X84642Y-76013D01*
X84585Y-76041D01*
X84842Y-76384D02*
X84785Y-76413D01*
X84642Y-76413D01*
X84585Y-76384D01*
X84556Y-76327D01*
X84556Y-76270D01*
X84585Y-76213D01*
X84642Y-76184D01*
X84785Y-76184D01*
X84842Y-76156D01*
X85128Y-76413D02*
X85128Y-76013D01*
X85128Y-76127D02*
X85156Y-76070D01*
X85185Y-76041D01*
X85242Y-76013D01*
X85299Y-76013D01*
X85927Y-75870D02*
X85956Y-75841D01*
X86013Y-75813D01*
X86156Y-75813D01*
X86213Y-75841D01*
X86242Y-75870D01*
X86270Y-75927D01*
X86270Y-75984D01*
X86242Y-76070D01*
X85899Y-76413D01*
X86270Y-76413D01*
X86641Y-75813D02*
X86698Y-75813D01*
X86755Y-75841D01*
X86784Y-75870D01*
X86813Y-75927D01*
X86841Y-76041D01*
X86841Y-76184D01*
X86813Y-76299D01*
X86784Y-76356D01*
X86755Y-76384D01*
X86698Y-76413D01*
X86641Y-76413D01*
X86584Y-76384D01*
X86555Y-76356D01*
X86527Y-76299D01*
X86498Y-76184D01*
X86498Y-76041D01*
X86527Y-75927D01*
X86555Y-75870D01*
X86584Y-75841D01*
X86641Y-75813D01*
X87412Y-76413D02*
X87069Y-76413D01*
X87241Y-76413D02*
X87241Y-75813D01*
X87184Y-75899D01*
X87126Y-75956D01*
X87069Y-75984D01*
X87612Y-75813D02*
X87983Y-75813D01*
X87783Y-76041D01*
X87869Y-76041D01*
X87926Y-76070D01*
X87955Y-76099D01*
X87983Y-76156D01*
X87983Y-76299D01*
X87955Y-76356D01*
X87926Y-76384D01*
X87869Y-76413D01*
X87697Y-76413D01*
X87640Y-76384D01*
X87612Y-76356D01*
G54D10*
X71043Y-77613D02*
X71043Y-77013D01*
X71386Y-77613D02*
X71129Y-77270D01*
X71386Y-77013D02*
X71043Y-77356D01*
X71643Y-77613D02*
X71643Y-77213D01*
X71643Y-77013D02*
X71614Y-77041D01*
X71643Y-77070D01*
X71671Y-77041D01*
X71643Y-77013D01*
X71643Y-77070D01*
X72272Y-77556D02*
X72243Y-77584D01*
X72157Y-77613D01*
X72100Y-77613D01*
X72015Y-77584D01*
X71957Y-77527D01*
X71929Y-77470D01*
X71900Y-77356D01*
X71900Y-77270D01*
X71929Y-77156D01*
X71957Y-77099D01*
X72015Y-77041D01*
X72100Y-77013D01*
X72157Y-77013D01*
X72243Y-77041D01*
X72272Y-77070D01*
X72786Y-77613D02*
X72786Y-77299D01*
X72757Y-77241D01*
X72700Y-77213D01*
X72586Y-77213D01*
X72529Y-77241D01*
X72786Y-77584D02*
X72729Y-77613D01*
X72586Y-77613D01*
X72529Y-77584D01*
X72500Y-77527D01*
X72500Y-77470D01*
X72529Y-77413D01*
X72586Y-77384D01*
X72729Y-77384D01*
X72786Y-77356D01*
X73329Y-77613D02*
X73329Y-77013D01*
X73329Y-77584D02*
X73272Y-77613D01*
X73158Y-77613D01*
X73100Y-77584D01*
X73072Y-77556D01*
X73043Y-77499D01*
X73043Y-77327D01*
X73072Y-77270D01*
X73100Y-77241D01*
X73158Y-77213D01*
X73272Y-77213D01*
X73329Y-77241D01*
X74072Y-77299D02*
X74272Y-77299D01*
X74358Y-77613D02*
X74072Y-77613D01*
X74072Y-77013D01*
X74358Y-77013D01*
X74615Y-77556D02*
X74643Y-77584D01*
X74615Y-77613D01*
X74586Y-77584D01*
X74615Y-77556D01*
X74615Y-77613D01*
X74901Y-77613D02*
X74901Y-77013D01*
X75044Y-77013D01*
X75129Y-77041D01*
X75187Y-77099D01*
X75215Y-77156D01*
X75244Y-77270D01*
X75244Y-77356D01*
X75215Y-77470D01*
X75187Y-77527D01*
X75129Y-77584D01*
X75044Y-77613D01*
X74901Y-77613D01*
X75501Y-77556D02*
X75529Y-77584D01*
X75501Y-77613D01*
X75472Y-77584D01*
X75501Y-77556D01*
X75501Y-77613D01*
X75758Y-77441D02*
X76044Y-77441D01*
X75701Y-77613D02*
X75901Y-77013D01*
X76101Y-77613D01*
X76301Y-77556D02*
X76329Y-77584D01*
X76301Y-77613D01*
X76272Y-77584D01*
X76301Y-77556D01*
X76301Y-77613D01*
G54D11*
X104586Y-76413D02*
X104386Y-76127D01*
X104243Y-76413D02*
X104243Y-75813D01*
X104471Y-75813D01*
X104529Y-75841D01*
X104557Y-75870D01*
X104586Y-75927D01*
X104586Y-76013D01*
X104557Y-76070D01*
X104529Y-76099D01*
X104471Y-76127D01*
X104243Y-76127D01*
X105071Y-76384D02*
X105014Y-76413D01*
X104900Y-76413D01*
X104843Y-76384D01*
X104814Y-76327D01*
X104814Y-76099D01*
X104843Y-76041D01*
X104900Y-76013D01*
X105014Y-76013D01*
X105071Y-76041D01*
X105100Y-76099D01*
X105100Y-76156D01*
X104814Y-76213D01*
X105300Y-76013D02*
X105443Y-76413D01*
X105585Y-76013D01*
X105814Y-76356D02*
X105842Y-76384D01*
X105814Y-76413D01*
X105785Y-76384D01*
X105814Y-76356D01*
X105814Y-76413D01*
X105814Y-76041D02*
X105842Y-76070D01*
X105814Y-76099D01*
X105785Y-76070D01*
X105814Y-76041D01*
X105814Y-76099D01*
G54D10*
X71014Y-76384D02*
X71100Y-76413D01*
X71243Y-76413D01*
X71300Y-76384D01*
X71329Y-76356D01*
X71357Y-76299D01*
X71357Y-76241D01*
X71329Y-76184D01*
X71300Y-76156D01*
X71243Y-76127D01*
X71129Y-76099D01*
X71071Y-76070D01*
X71043Y-76041D01*
X71014Y-75984D01*
X71014Y-75927D01*
X71043Y-75870D01*
X71071Y-75841D01*
X71129Y-75813D01*
X71271Y-75813D01*
X71357Y-75841D01*
X71614Y-76413D02*
X71614Y-76013D01*
X71614Y-75813D02*
X71585Y-75841D01*
X71614Y-75870D01*
X71642Y-75841D01*
X71614Y-75813D01*
X71614Y-75870D01*
X71843Y-76013D02*
X72157Y-76013D01*
X71843Y-76413D01*
X72157Y-76413D01*
X72614Y-76384D02*
X72557Y-76413D01*
X72443Y-76413D01*
X72386Y-76384D01*
X72357Y-76327D01*
X72357Y-76099D01*
X72386Y-76041D01*
X72443Y-76013D01*
X72557Y-76013D01*
X72614Y-76041D01*
X72643Y-76099D01*
X72643Y-76156D01*
X72357Y-76213D01*
X72900Y-76356D02*
X72928Y-76384D01*
X72900Y-76413D01*
X72871Y-76384D01*
X72900Y-76356D01*
X72900Y-76413D01*
X72900Y-76041D02*
X72928Y-76070D01*
X72900Y-76099D01*
X72871Y-76070D01*
X72900Y-76041D01*
X72900Y-76099D01*
X73614Y-76241D02*
X73900Y-76241D01*
X73557Y-76413D02*
X73757Y-75813D01*
X73957Y-76413D01*
X74414Y-76013D02*
X74414Y-76413D01*
X74271Y-75784D02*
X74128Y-76213D01*
X74500Y-76213D01*
X104243Y-77613D02*
X104243Y-77013D01*
X104786Y-77613D02*
X104786Y-77013D01*
X104786Y-77584D02*
X104729Y-77613D01*
X104615Y-77613D01*
X104557Y-77584D01*
X104529Y-77556D01*
X104500Y-77499D01*
X104500Y-77327D01*
X104529Y-77270D01*
X104557Y-77241D01*
X104615Y-77213D01*
X104729Y-77213D01*
X104786Y-77241D01*
X105072Y-77556D02*
X105100Y-77584D01*
X105072Y-77613D01*
X105043Y-77584D01*
X105072Y-77556D01*
X105072Y-77613D01*
X105072Y-77241D02*
X105100Y-77270D01*
X105072Y-77299D01*
X105043Y-77270D01*
X105072Y-77241D01*
X105072Y-77299D01*
X106129Y-77613D02*
X105786Y-77613D01*
X105958Y-77613D02*
X105958Y-77013D01*
X105901Y-77099D01*
X105843Y-77156D01*
X105786Y-77184D01*
X106814Y-76984D02*
X106300Y-77756D01*
X107329Y-77613D02*
X106986Y-77613D01*
X107158Y-77613D02*
X107158Y-77013D01*
X107101Y-77099D01*
X107043Y-77156D01*
X106986Y-77184D01*
G54D11*
X70957Y-74613D02*
X71300Y-74613D01*
X71129Y-75213D02*
X71129Y-74613D01*
X71500Y-75213D02*
X71500Y-74813D01*
X71500Y-74613D02*
X71471Y-74641D01*
X71500Y-74670D01*
X71528Y-74641D01*
X71500Y-74613D01*
X71500Y-74670D01*
X71700Y-74813D02*
X71929Y-74813D01*
X71786Y-74613D02*
X71786Y-75127D01*
X71814Y-75184D01*
X71872Y-75213D01*
X71929Y-75213D01*
X72215Y-75213D02*
X72157Y-75184D01*
X72129Y-75127D01*
X72129Y-74613D01*
X72671Y-75184D02*
X72614Y-75213D01*
X72500Y-75213D01*
X72443Y-75184D01*
X72414Y-75127D01*
X72414Y-74899D01*
X72443Y-74841D01*
X72500Y-74813D01*
X72614Y-74813D01*
X72671Y-74841D01*
X72700Y-74899D01*
X72700Y-74956D01*
X72414Y-75013D01*
X72957Y-75156D02*
X72985Y-75184D01*
X72957Y-75213D01*
X72928Y-75184D01*
X72957Y-75156D01*
X72957Y-75213D01*
X72957Y-74841D02*
X72985Y-74870D01*
X72957Y-74899D01*
X72928Y-74870D01*
X72957Y-74841D01*
X72957Y-74899D01*
G54D10*
X71243Y-72499D02*
X71043Y-72499D01*
X71043Y-72813D02*
X71043Y-72213D01*
X71329Y-72213D01*
X71557Y-72813D02*
X71557Y-72413D01*
X71557Y-72213D02*
X71528Y-72241D01*
X71557Y-72270D01*
X71585Y-72241D01*
X71557Y-72213D01*
X71557Y-72270D01*
X71929Y-72813D02*
X71871Y-72784D01*
X71843Y-72727D01*
X71843Y-72213D01*
X72385Y-72784D02*
X72328Y-72813D01*
X72214Y-72813D01*
X72157Y-72784D01*
X72128Y-72727D01*
X72128Y-72499D01*
X72157Y-72441D01*
X72214Y-72413D01*
X72328Y-72413D01*
X72385Y-72441D01*
X72414Y-72499D01*
X72414Y-72556D01*
X72128Y-72613D01*
X72671Y-72756D02*
X72699Y-72784D01*
X72671Y-72813D01*
X72642Y-72784D01*
X72671Y-72756D01*
X72671Y-72813D01*
X72671Y-72441D02*
X72699Y-72470D01*
X72671Y-72499D01*
X72642Y-72470D01*
X72671Y-72441D01*
X72671Y-72499D01*
X73671Y-72784D02*
X73614Y-72813D01*
X73500Y-72813D01*
X73442Y-72784D01*
X73414Y-72756D01*
X73385Y-72699D01*
X73385Y-72527D01*
X73414Y-72470D01*
X73442Y-72441D01*
X73500Y-72413D01*
X73614Y-72413D01*
X73671Y-72441D01*
X74185Y-72813D02*
X74185Y-72499D01*
X74156Y-72441D01*
X74099Y-72413D01*
X73985Y-72413D01*
X73928Y-72441D01*
X74185Y-72784D02*
X74128Y-72813D01*
X73985Y-72813D01*
X73928Y-72784D01*
X73899Y-72727D01*
X73899Y-72670D01*
X73928Y-72613D01*
X73985Y-72584D01*
X74128Y-72584D01*
X74185Y-72556D01*
X74471Y-72813D02*
X74471Y-72413D01*
X74471Y-72527D02*
X74499Y-72470D01*
X74528Y-72441D01*
X74585Y-72413D01*
X74642Y-72413D01*
X74756Y-72413D02*
X74985Y-72413D01*
X74842Y-72213D02*
X74842Y-72727D01*
X74870Y-72784D01*
X74928Y-72813D01*
X74985Y-72813D01*
X75413Y-72784D02*
X75356Y-72813D01*
X75242Y-72813D01*
X75185Y-72784D01*
X75156Y-72727D01*
X75156Y-72499D01*
X75185Y-72441D01*
X75242Y-72413D01*
X75356Y-72413D01*
X75413Y-72441D01*
X75442Y-72499D01*
X75442Y-72556D01*
X75156Y-72613D01*
X75556Y-72870D02*
X76013Y-72870D01*
X76156Y-72813D02*
X76156Y-72413D01*
X76156Y-72470D02*
X76184Y-72441D01*
X76242Y-72413D01*
X76327Y-72413D01*
X76384Y-72441D01*
X76413Y-72499D01*
X76413Y-72813D01*
X76413Y-72499D02*
X76442Y-72441D01*
X76499Y-72413D01*
X76584Y-72413D01*
X76642Y-72441D01*
X76670Y-72499D01*
X76670Y-72813D01*
X77042Y-72813D02*
X76984Y-72784D01*
X76956Y-72756D01*
X76927Y-72699D01*
X76927Y-72527D01*
X76956Y-72470D01*
X76984Y-72441D01*
X77042Y-72413D01*
X77127Y-72413D01*
X77184Y-72441D01*
X77213Y-72470D01*
X77242Y-72527D01*
X77242Y-72699D01*
X77213Y-72756D01*
X77184Y-72784D01*
X77127Y-72813D01*
X77042Y-72813D01*
X77413Y-72413D02*
X77642Y-72413D01*
X77499Y-72213D02*
X77499Y-72727D01*
X77527Y-72784D01*
X77585Y-72813D01*
X77642Y-72813D01*
X78070Y-72784D02*
X78013Y-72813D01*
X77899Y-72813D01*
X77842Y-72784D01*
X77813Y-72727D01*
X77813Y-72499D01*
X77842Y-72441D01*
X77899Y-72413D01*
X78013Y-72413D01*
X78070Y-72441D01*
X78099Y-72499D01*
X78099Y-72556D01*
X77813Y-72613D01*
X78613Y-72413D02*
X78613Y-72813D01*
X78356Y-72413D02*
X78356Y-72727D01*
X78384Y-72784D01*
X78442Y-72813D01*
X78527Y-72813D01*
X78584Y-72784D01*
X78613Y-72756D01*
X78899Y-72813D02*
X78899Y-72413D01*
X78899Y-72527D02*
X78927Y-72470D01*
X78956Y-72441D01*
X79013Y-72413D01*
X79070Y-72413D01*
X79127Y-72870D02*
X79584Y-72870D01*
X79641Y-72413D02*
X79870Y-72413D01*
X79727Y-72213D02*
X79727Y-72727D01*
X79755Y-72784D01*
X79813Y-72813D01*
X79870Y-72813D01*
X80070Y-72813D02*
X80070Y-72213D01*
X80327Y-72813D02*
X80327Y-72499D01*
X80298Y-72441D01*
X80241Y-72413D01*
X80156Y-72413D01*
X80098Y-72441D01*
X80070Y-72470D01*
X80841Y-72784D02*
X80784Y-72813D01*
X80670Y-72813D01*
X80613Y-72784D01*
X80584Y-72727D01*
X80584Y-72499D01*
X80613Y-72441D01*
X80670Y-72413D01*
X80784Y-72413D01*
X80841Y-72441D01*
X80870Y-72499D01*
X80870Y-72556D01*
X80584Y-72613D01*
X81127Y-72813D02*
X81127Y-72413D01*
X81127Y-72527D02*
X81155Y-72470D01*
X81184Y-72441D01*
X81241Y-72413D01*
X81298Y-72413D01*
X81498Y-72813D02*
X81498Y-72413D01*
X81498Y-72470D02*
X81526Y-72441D01*
X81584Y-72413D01*
X81669Y-72413D01*
X81726Y-72441D01*
X81755Y-72499D01*
X81755Y-72813D01*
X81755Y-72499D02*
X81784Y-72441D01*
X81841Y-72413D01*
X81926Y-72413D01*
X81984Y-72441D01*
X82012Y-72499D01*
X82012Y-72813D01*
X82298Y-72813D02*
X82298Y-72413D01*
X82298Y-72213D02*
X82269Y-72241D01*
X82298Y-72270D01*
X82326Y-72241D01*
X82298Y-72213D01*
X82298Y-72270D01*
X82841Y-72413D02*
X82841Y-73013D01*
X82841Y-72784D02*
X82784Y-72813D01*
X82670Y-72813D01*
X82612Y-72784D01*
X82584Y-72756D01*
X82555Y-72699D01*
X82555Y-72527D01*
X82584Y-72470D01*
X82612Y-72441D01*
X82670Y-72413D01*
X82784Y-72413D01*
X82841Y-72441D01*
X83384Y-72413D02*
X83384Y-72813D01*
X83127Y-72413D02*
X83127Y-72727D01*
X83155Y-72784D01*
X83213Y-72813D01*
X83298Y-72813D01*
X83355Y-72784D01*
X83384Y-72756D01*
X83898Y-72784D02*
X83841Y-72813D01*
X83727Y-72813D01*
X83670Y-72784D01*
X83641Y-72727D01*
X83641Y-72499D01*
X83670Y-72441D01*
X83727Y-72413D01*
X83841Y-72413D01*
X83898Y-72441D01*
X83927Y-72499D01*
X83927Y-72556D01*
X83641Y-72613D01*
X84184Y-72756D02*
X84212Y-72784D01*
X84184Y-72813D01*
X84155Y-72784D01*
X84184Y-72756D01*
X84184Y-72813D01*
X84470Y-72813D02*
X84470Y-72213D01*
X84470Y-72441D02*
X84527Y-72413D01*
X84641Y-72413D01*
X84698Y-72441D01*
X84727Y-72470D01*
X84756Y-72527D01*
X84756Y-72699D01*
X84727Y-72756D01*
X84698Y-72784D01*
X84641Y-72813D01*
X84527Y-72813D01*
X84470Y-72784D01*
X85013Y-72813D02*
X85013Y-72413D01*
X85013Y-72527D02*
X85041Y-72470D01*
X85070Y-72441D01*
X85127Y-72413D01*
X85184Y-72413D01*
X85641Y-72813D02*
X85641Y-72213D01*
X85641Y-72784D02*
X85584Y-72813D01*
X85470Y-72813D01*
X85412Y-72784D01*
X85384Y-72756D01*
X85355Y-72699D01*
X85355Y-72527D01*
X85384Y-72470D01*
X85412Y-72441D01*
X85470Y-72413D01*
X85584Y-72413D01*
X85641Y-72441D01*
X71014Y-73984D02*
X71100Y-74013D01*
X71243Y-74013D01*
X71300Y-73984D01*
X71329Y-73956D01*
X71357Y-73899D01*
X71357Y-73841D01*
X71329Y-73784D01*
X71300Y-73756D01*
X71243Y-73727D01*
X71129Y-73699D01*
X71071Y-73670D01*
X71043Y-73641D01*
X71014Y-73584D01*
X71014Y-73527D01*
X71043Y-73470D01*
X71071Y-73441D01*
X71129Y-73413D01*
X71271Y-73413D01*
X71357Y-73441D01*
X71614Y-74013D02*
X71614Y-73413D01*
X71871Y-74013D02*
X71871Y-73699D01*
X71842Y-73641D01*
X71785Y-73613D01*
X71700Y-73613D01*
X71642Y-73641D01*
X71614Y-73670D01*
X72385Y-73984D02*
X72328Y-74013D01*
X72214Y-74013D01*
X72157Y-73984D01*
X72128Y-73927D01*
X72128Y-73699D01*
X72157Y-73641D01*
X72214Y-73613D01*
X72328Y-73613D01*
X72385Y-73641D01*
X72414Y-73699D01*
X72414Y-73756D01*
X72128Y-73813D01*
X72899Y-73984D02*
X72842Y-74013D01*
X72728Y-74013D01*
X72671Y-73984D01*
X72642Y-73927D01*
X72642Y-73699D01*
X72671Y-73641D01*
X72728Y-73613D01*
X72842Y-73613D01*
X72899Y-73641D01*
X72928Y-73699D01*
X72928Y-73756D01*
X72642Y-73813D01*
X73099Y-73613D02*
X73328Y-73613D01*
X73185Y-73413D02*
X73185Y-73927D01*
X73213Y-73984D01*
X73271Y-74013D01*
X73328Y-74013D01*
X73528Y-73956D02*
X73556Y-73984D01*
X73528Y-74013D01*
X73499Y-73984D01*
X73528Y-73956D01*
X73528Y-74013D01*
X73528Y-73641D02*
X73556Y-73670D01*
X73528Y-73699D01*
X73499Y-73670D01*
X73528Y-73641D01*
X73528Y-73699D01*
X74585Y-74013D02*
X74242Y-74013D01*
X74414Y-74013D02*
X74414Y-73413D01*
X74357Y-73499D01*
X74299Y-73556D01*
X74242Y-73584D01*
X75270Y-73384D02*
X74756Y-74156D01*
X75785Y-74013D02*
X75442Y-74013D01*
X75614Y-74013D02*
X75614Y-73413D01*
X75557Y-73499D01*
X75499Y-73556D01*
X75442Y-73584D01*
X70300Y-71970D02*
X70300Y-77970D01*
X70300Y-71970D02*
X112300Y-71970D01*
X70300Y-71970D02*
X112300Y-71970D01*
X70300Y-74370D02*
X112300Y-74370D01*
X103500Y-75570D02*
X103500Y-77970D01*
X70300Y-76770D02*
X112300Y-76770D01*
X70300Y-75570D02*
X112300Y-75570D01*
X76900Y-75570D02*
X76900Y-76770D01*
G54D11*
X37750Y-39000D02*
X37550Y-39000D01*
X34750Y-39000D02*
X34950Y-39000D01*
X34950Y-39000D02*
X34950Y-39400D01*
X34950Y-39400D02*
X37550Y-39400D01*
X37550Y-39400D02*
X37550Y-38600D01*
X37550Y-38600D02*
X34950Y-38600D01*
X34950Y-38600D02*
X34950Y-39000D01*
X37550Y-39200D02*
X37350Y-39400D01*
X34750Y-37500D02*
X34950Y-37500D01*
X37750Y-37500D02*
X37550Y-37500D01*
X37550Y-37500D02*
X37550Y-37100D01*
X37550Y-37100D02*
X34950Y-37100D01*
X34950Y-37100D02*
X34950Y-37900D01*
X34950Y-37900D02*
X37550Y-37900D01*
X37550Y-37900D02*
X37550Y-37500D01*
X34950Y-37300D02*
X35150Y-37100D01*
G54D12*
X23000Y-38000D02*
X22750Y-38000D01*
X22750Y-38000D02*
X22750Y-39500D01*
X22750Y-39500D02*
X23000Y-39500D01*
X23000Y-37750D02*
X20750Y-37750D01*
X20750Y-37750D02*
X20750Y-39750D01*
X20750Y-39750D02*
X23000Y-39750D01*
X23000Y-39750D02*
X23000Y-37750D01*
G54D10*
X21500Y-37750D02*
X22500Y-37750D01*
X22500Y-39750D02*
X21500Y-39750D01*
G54D11*
X28250Y-38250D02*
X27950Y-38250D01*
X27950Y-38250D02*
X27950Y-37850D01*
X27950Y-37850D02*
X25550Y-37850D01*
X25550Y-37850D02*
X25550Y-38250D01*
X25550Y-38250D02*
X25250Y-38250D01*
X25550Y-38250D02*
X25550Y-38650D01*
X25550Y-38650D02*
X27950Y-38650D01*
X27950Y-38650D02*
X27950Y-38250D01*
X27750Y-37850D02*
X27750Y-38650D01*
X27650Y-38650D02*
X27650Y-37850D01*
G54D13*
X40251Y-29500D02*
X40231Y-29694D01*
X40175Y-29881D01*
X40083Y-30053D01*
X39960Y-30205D01*
X39809Y-30329D01*
X39637Y-30422D01*
X39451Y-30480D01*
X39256Y-30500D01*
X39063Y-30483D01*
X38876Y-30428D01*
X38702Y-30337D01*
X38550Y-30215D01*
X38425Y-30065D01*
X38330Y-29894D01*
X38271Y-29708D01*
X38250Y-29513D01*
X38266Y-29320D01*
X38320Y-29132D01*
X38409Y-28958D01*
X38530Y-28805D01*
X38679Y-28679D01*
X38850Y-28583D01*
X39036Y-28523D01*
X39230Y-28500D01*
X39423Y-28515D01*
X39611Y-28567D01*
X39786Y-28655D01*
X39940Y-28776D01*
X40067Y-28923D01*
X40164Y-29093D01*
X40226Y-29279D01*
X40250Y-29473D01*
X40251Y-29500D01*
G54D11*
X38270Y-31000D02*
X40250Y-31000D01*
X40250Y-31000D02*
X40250Y-32000D01*
X40250Y-32000D02*
X38250Y-32000D01*
X38250Y-32000D02*
X38250Y-31000D01*
X38250Y-31250D02*
X38500Y-31000D01*
G54D12*
X22900Y-50250D02*
X22882Y-50424D01*
X22832Y-50592D01*
X22749Y-50748D01*
X22638Y-50884D01*
X22503Y-50996D01*
X22348Y-51079D01*
X22180Y-51131D01*
X22006Y-51149D01*
X21832Y-51134D01*
X21663Y-51084D01*
X21508Y-51003D01*
X21371Y-50893D01*
X21258Y-50758D01*
X21173Y-50604D01*
X21120Y-50437D01*
X21101Y-50262D01*
X21115Y-50088D01*
X21164Y-49919D01*
X21244Y-49763D01*
X21353Y-49625D01*
X21487Y-49511D01*
X21640Y-49426D01*
X21807Y-49371D01*
X21982Y-49351D01*
X22156Y-49364D01*
X22325Y-49411D01*
X22482Y-49491D01*
X22620Y-49599D01*
X22735Y-49732D01*
X22822Y-49884D01*
X22877Y-50051D01*
X22899Y-50225D01*
X22900Y-50250D01*
X51400Y-50250D02*
X51382Y-50424D01*
X51332Y-50592D01*
X51249Y-50748D01*
X51138Y-50884D01*
X51003Y-50996D01*
X50848Y-51079D01*
X50680Y-51131D01*
X50506Y-51149D01*
X50332Y-51134D01*
X50163Y-51084D01*
X50008Y-51003D01*
X49871Y-50893D01*
X49758Y-50758D01*
X49673Y-50604D01*
X49620Y-50437D01*
X49601Y-50262D01*
X49615Y-50088D01*
X49664Y-49919D01*
X49744Y-49763D01*
X49853Y-49625D01*
X49987Y-49511D01*
X50140Y-49426D01*
X50307Y-49371D01*
X50482Y-49351D01*
X50656Y-49364D01*
X50825Y-49411D01*
X50982Y-49491D01*
X51120Y-49599D01*
X51235Y-49732D01*
X51322Y-49884D01*
X51377Y-50051D01*
X51399Y-50225D01*
X51400Y-50250D01*
X51400Y-22000D02*
X51382Y-22174D01*
X51332Y-22342D01*
X51249Y-22498D01*
X51138Y-22634D01*
X51003Y-22746D01*
X50848Y-22829D01*
X50680Y-22881D01*
X50506Y-22899D01*
X50332Y-22884D01*
X50163Y-22834D01*
X50008Y-22753D01*
X49871Y-22643D01*
X49758Y-22508D01*
X49673Y-22354D01*
X49620Y-22187D01*
X49601Y-22012D01*
X49615Y-21838D01*
X49664Y-21669D01*
X49744Y-21513D01*
X49853Y-21375D01*
X49987Y-21261D01*
X50140Y-21176D01*
X50307Y-21121D01*
X50482Y-21101D01*
X50656Y-21114D01*
X50825Y-21161D01*
X50982Y-21241D01*
X51120Y-21349D01*
X51235Y-21482D01*
X51322Y-21634D01*
X51377Y-21801D01*
X51399Y-21975D01*
X51400Y-22000D01*
X39750Y-32500D02*
X39750Y-33000D01*
X39750Y-33000D02*
X38750Y-33000D01*
X38750Y-33000D02*
X38750Y-32500D01*
X40250Y-32500D02*
X40250Y-36500D01*
X40250Y-36500D02*
X38250Y-36500D01*
X38250Y-36500D02*
X38250Y-32500D01*
X38250Y-32500D02*
X40250Y-32500D01*
X32750Y-36500D02*
X32750Y-36000D01*
X32750Y-36000D02*
X33750Y-36000D01*
X33750Y-36000D02*
X33750Y-36500D01*
X32250Y-36500D02*
X32250Y-32500D01*
X32250Y-32500D02*
X34250Y-32500D01*
X34250Y-32500D02*
X34250Y-36500D01*
X34250Y-36500D02*
X32250Y-36500D01*
G54D14*
X34251Y-29500D02*
X34231Y-29694D01*
X34175Y-29881D01*
X34083Y-30053D01*
X33960Y-30205D01*
X33809Y-30329D01*
X33637Y-30422D01*
X33451Y-30480D01*
X33256Y-30500D01*
X33063Y-30483D01*
X32876Y-30428D01*
X32702Y-30337D01*
X32550Y-30215D01*
X32425Y-30065D01*
X32330Y-29894D01*
X32271Y-29708D01*
X32250Y-29513D01*
X32266Y-29320D01*
X32320Y-29132D01*
X32409Y-28958D01*
X32530Y-28805D01*
X32679Y-28679D01*
X32850Y-28583D01*
X33036Y-28523D01*
X33230Y-28500D01*
X33423Y-28515D01*
X33611Y-28567D01*
X33786Y-28655D01*
X33940Y-28776D01*
X34067Y-28923D01*
X34164Y-29093D01*
X34226Y-29279D01*
X34250Y-29473D01*
X34251Y-29500D01*
G54D11*
X32270Y-31000D02*
X34250Y-31000D01*
X34250Y-31000D02*
X34250Y-32000D01*
X34250Y-32000D02*
X32250Y-32000D01*
X32250Y-32000D02*
X32250Y-31000D01*
X32250Y-31250D02*
X32500Y-31000D01*
G54D15*
X35917Y-40223D02*
X35750Y-39961D01*
X35631Y-40223D02*
X35631Y-39673D01*
X35822Y-39673D01*
X35869Y-39699D01*
X35893Y-39725D01*
X35917Y-39777D01*
X35917Y-39856D01*
X35893Y-39908D01*
X35869Y-39935D01*
X35822Y-39961D01*
X35631Y-39961D01*
X36393Y-40223D02*
X36107Y-40223D01*
X36250Y-40223D02*
X36250Y-39673D01*
X36202Y-39751D01*
X36155Y-39804D01*
X36107Y-39830D01*
X35953Y-39223D02*
X35667Y-39223D01*
X35810Y-39223D02*
X35810Y-38673D01*
X35762Y-38751D01*
X35715Y-38804D01*
X35667Y-38830D01*
X36262Y-38673D02*
X36310Y-38673D01*
X36358Y-38699D01*
X36381Y-38725D01*
X36405Y-38777D01*
X36429Y-38882D01*
X36429Y-39013D01*
X36405Y-39118D01*
X36381Y-39170D01*
X36358Y-39196D01*
X36310Y-39223D01*
X36262Y-39223D01*
X36215Y-39196D01*
X36191Y-39170D01*
X36167Y-39118D01*
X36143Y-39013D01*
X36143Y-38882D01*
X36167Y-38777D01*
X36191Y-38725D01*
X36215Y-38699D01*
X36262Y-38673D01*
X36643Y-39223D02*
X36643Y-38673D01*
X36691Y-39013D02*
X36834Y-39223D01*
X36834Y-38856D02*
X36643Y-39065D01*
X36417Y-36723D02*
X36250Y-36461D01*
X36131Y-36723D02*
X36131Y-36173D01*
X36322Y-36173D01*
X36369Y-36199D01*
X36393Y-36225D01*
X36417Y-36277D01*
X36417Y-36356D01*
X36393Y-36408D01*
X36369Y-36435D01*
X36322Y-36461D01*
X36131Y-36461D01*
X36607Y-36225D02*
X36631Y-36199D01*
X36679Y-36173D01*
X36798Y-36173D01*
X36845Y-36199D01*
X36869Y-36225D01*
X36893Y-36277D01*
X36893Y-36330D01*
X36869Y-36408D01*
X36583Y-36723D01*
X36893Y-36723D01*
X35953Y-37723D02*
X35667Y-37723D01*
X35810Y-37723D02*
X35810Y-37173D01*
X35762Y-37251D01*
X35715Y-37304D01*
X35667Y-37330D01*
X36262Y-37173D02*
X36310Y-37173D01*
X36358Y-37199D01*
X36381Y-37225D01*
X36405Y-37277D01*
X36429Y-37382D01*
X36429Y-37513D01*
X36405Y-37618D01*
X36381Y-37670D01*
X36358Y-37696D01*
X36310Y-37723D01*
X36262Y-37723D01*
X36215Y-37696D01*
X36191Y-37670D01*
X36167Y-37618D01*
X36143Y-37513D01*
X36143Y-37382D01*
X36167Y-37277D01*
X36191Y-37225D01*
X36215Y-37199D01*
X36262Y-37173D01*
X36643Y-37723D02*
X36643Y-37173D01*
X36691Y-37513D02*
X36834Y-37723D01*
X36834Y-37356D02*
X36643Y-37565D01*
G54D10*
X21371Y-38972D02*
X21071Y-38972D01*
X21071Y-38857D01*
X21086Y-38829D01*
X21100Y-38814D01*
X21129Y-38800D01*
X21171Y-38800D01*
X21200Y-38814D01*
X21214Y-38829D01*
X21229Y-38857D01*
X21229Y-38972D01*
X21371Y-38514D02*
X21371Y-38686D01*
X21371Y-38600D02*
X21071Y-38600D01*
X21114Y-38629D01*
X21143Y-38657D01*
X21157Y-38686D01*
X23464Y-39757D02*
X23464Y-39657D01*
X23621Y-39614D02*
X23621Y-39757D01*
X23321Y-39757D01*
X23321Y-39614D01*
X23421Y-39486D02*
X23621Y-39486D01*
X23450Y-39486D02*
X23436Y-39471D01*
X23421Y-39443D01*
X23421Y-39400D01*
X23436Y-39371D01*
X23464Y-39357D01*
X23621Y-39357D01*
X23421Y-39257D02*
X23421Y-39143D01*
X23321Y-39215D02*
X23579Y-39215D01*
X23607Y-39200D01*
X23621Y-39172D01*
X23621Y-39143D01*
X23621Y-39044D02*
X23421Y-39044D01*
X23479Y-39044D02*
X23450Y-39029D01*
X23436Y-39015D01*
X23421Y-38986D01*
X23421Y-38958D01*
X23607Y-38743D02*
X23621Y-38772D01*
X23621Y-38829D01*
X23607Y-38858D01*
X23579Y-38872D01*
X23464Y-38872D01*
X23436Y-38858D01*
X23421Y-38829D01*
X23421Y-38772D01*
X23436Y-38743D01*
X23464Y-38729D01*
X23493Y-38729D01*
X23521Y-38872D01*
X23607Y-38486D02*
X23621Y-38515D01*
X23621Y-38572D01*
X23607Y-38601D01*
X23579Y-38615D01*
X23464Y-38615D01*
X23436Y-38601D01*
X23421Y-38572D01*
X23421Y-38515D01*
X23436Y-38486D01*
X23464Y-38472D01*
X23493Y-38472D01*
X23521Y-38615D01*
X23607Y-38358D02*
X23621Y-38329D01*
X23621Y-38272D01*
X23607Y-38244D01*
X23579Y-38229D01*
X23564Y-38229D01*
X23536Y-38244D01*
X23521Y-38272D01*
X23521Y-38315D01*
X23507Y-38344D01*
X23479Y-38358D01*
X23464Y-38358D01*
X23436Y-38344D01*
X23421Y-38315D01*
X23421Y-38272D01*
X23436Y-38244D01*
G54D15*
X26455Y-38412D02*
X26455Y-38012D01*
X26550Y-38012D01*
X26608Y-38031D01*
X26646Y-38069D01*
X26665Y-38107D01*
X26684Y-38183D01*
X26684Y-38240D01*
X26665Y-38317D01*
X26646Y-38355D01*
X26608Y-38393D01*
X26550Y-38412D01*
X26455Y-38412D01*
X27065Y-38412D02*
X26836Y-38412D01*
X26950Y-38412D02*
X26950Y-38012D01*
X26912Y-38069D01*
X26874Y-38107D01*
X26836Y-38126D01*
G54D13*
X39200Y-30093D02*
X39186Y-30107D01*
X39143Y-30121D01*
X39114Y-30121D01*
X39071Y-30107D01*
X39043Y-30079D01*
X39028Y-30050D01*
X39014Y-29993D01*
X39014Y-29950D01*
X39028Y-29893D01*
X39043Y-29864D01*
X39071Y-29836D01*
X39114Y-29821D01*
X39143Y-29821D01*
X39186Y-29836D01*
X39200Y-29850D01*
X39314Y-29850D02*
X39328Y-29836D01*
X39357Y-29821D01*
X39428Y-29821D01*
X39457Y-29836D01*
X39471Y-29850D01*
X39486Y-29879D01*
X39486Y-29907D01*
X39471Y-29950D01*
X39300Y-30121D01*
X39486Y-30121D01*
X39208Y-29121D02*
X39066Y-29121D01*
X39137Y-29121D02*
X39137Y-28821D01*
X39113Y-28864D01*
X39089Y-28893D01*
X39066Y-28907D01*
X39423Y-28921D02*
X39423Y-29121D01*
X39316Y-28921D02*
X39316Y-29079D01*
X39327Y-29107D01*
X39351Y-29121D01*
X39387Y-29121D01*
X39411Y-29107D01*
X39423Y-29093D01*
G54D15*
X39434Y-28124D02*
X39415Y-28143D01*
X39358Y-28162D01*
X39320Y-28162D01*
X39262Y-28143D01*
X39224Y-28105D01*
X39205Y-28067D01*
X39186Y-27990D01*
X39186Y-27933D01*
X39205Y-27857D01*
X39224Y-27819D01*
X39262Y-27781D01*
X39320Y-27762D01*
X39358Y-27762D01*
X39415Y-27781D01*
X39434Y-27800D01*
X39815Y-28162D02*
X39586Y-28162D01*
X39700Y-28162D02*
X39700Y-27762D01*
X39662Y-27819D01*
X39624Y-27857D01*
X39586Y-27876D01*
X40014Y-30300D02*
X40033Y-30281D01*
X40071Y-30262D01*
X40167Y-30262D01*
X40205Y-30281D01*
X40224Y-30300D01*
X40243Y-30338D01*
X40243Y-30376D01*
X40224Y-30433D01*
X39995Y-30662D01*
X40243Y-30662D01*
X40376Y-30262D02*
X40643Y-30262D01*
X40471Y-30662D01*
X40795Y-30395D02*
X40795Y-30795D01*
X40795Y-30414D02*
X40833Y-30395D01*
X40910Y-30395D01*
X40948Y-30414D01*
X40967Y-30433D01*
X40986Y-30471D01*
X40986Y-30586D01*
X40967Y-30624D01*
X40948Y-30643D01*
X40910Y-30662D01*
X40833Y-30662D01*
X40795Y-30643D01*
G54D14*
X21705Y-49212D02*
X21705Y-48812D01*
X21858Y-48812D01*
X21896Y-48831D01*
X21915Y-48850D01*
X21934Y-48888D01*
X21934Y-48945D01*
X21915Y-48983D01*
X21896Y-49002D01*
X21858Y-49021D01*
X21705Y-49021D01*
X22086Y-48850D02*
X22105Y-48831D01*
X22143Y-48812D01*
X22239Y-48812D01*
X22277Y-48831D01*
X22296Y-48850D01*
X22315Y-48888D01*
X22315Y-48926D01*
X22296Y-48983D01*
X22067Y-49212D01*
X22315Y-49212D01*
X50205Y-49212D02*
X50205Y-48812D01*
X50358Y-48812D01*
X50396Y-48831D01*
X50415Y-48850D01*
X50434Y-48888D01*
X50434Y-48945D01*
X50415Y-48983D01*
X50396Y-49002D01*
X50358Y-49021D01*
X50205Y-49021D01*
X50567Y-48812D02*
X50815Y-48812D01*
X50681Y-48964D01*
X50739Y-48964D01*
X50777Y-48983D01*
X50796Y-49002D01*
X50815Y-49040D01*
X50815Y-49136D01*
X50796Y-49174D01*
X50777Y-49193D01*
X50739Y-49212D01*
X50624Y-49212D01*
X50586Y-49193D01*
X50567Y-49174D01*
X50205Y-20962D02*
X50205Y-20562D01*
X50358Y-20562D01*
X50396Y-20581D01*
X50415Y-20600D01*
X50434Y-20638D01*
X50434Y-20695D01*
X50415Y-20733D01*
X50396Y-20752D01*
X50358Y-20771D01*
X50205Y-20771D01*
X50777Y-20695D02*
X50777Y-20962D01*
X50681Y-20543D02*
X50586Y-20829D01*
X50834Y-20829D01*
G54D16*
X39157Y-37083D02*
X39157Y-37650D01*
X39179Y-37717D01*
X39200Y-37750D01*
X39243Y-37783D01*
X39329Y-37783D01*
X39371Y-37750D01*
X39393Y-37717D01*
X39414Y-37650D01*
X39414Y-37083D01*
X39607Y-37150D02*
X39628Y-37117D01*
X39671Y-37083D01*
X39778Y-37083D01*
X39821Y-37117D01*
X39842Y-37150D01*
X39864Y-37217D01*
X39864Y-37283D01*
X39842Y-37383D01*
X39585Y-37783D01*
X39864Y-37783D01*
G54D14*
X39083Y-35348D02*
X39083Y-35119D01*
X39783Y-35234D02*
X39083Y-35234D01*
X39783Y-34795D02*
X39783Y-34986D01*
X39083Y-34986D01*
X39083Y-34586D02*
X39083Y-34547D01*
X39117Y-34509D01*
X39150Y-34490D01*
X39217Y-34471D01*
X39350Y-34452D01*
X39517Y-34452D01*
X39650Y-34471D01*
X39717Y-34490D01*
X39750Y-34509D01*
X39783Y-34547D01*
X39783Y-34586D01*
X39750Y-34624D01*
X39717Y-34643D01*
X39650Y-34662D01*
X39517Y-34681D01*
X39350Y-34681D01*
X39217Y-34662D01*
X39150Y-34643D01*
X39117Y-34624D01*
X39083Y-34586D01*
X39383Y-34224D02*
X39350Y-34262D01*
X39317Y-34281D01*
X39250Y-34300D01*
X39217Y-34300D01*
X39150Y-34281D01*
X39117Y-34262D01*
X39083Y-34224D01*
X39083Y-34147D01*
X39117Y-34109D01*
X39150Y-34090D01*
X39217Y-34071D01*
X39250Y-34071D01*
X39317Y-34090D01*
X39350Y-34109D01*
X39383Y-34147D01*
X39383Y-34224D01*
X39417Y-34262D01*
X39450Y-34281D01*
X39517Y-34300D01*
X39650Y-34300D01*
X39717Y-34281D01*
X39750Y-34262D01*
X39783Y-34224D01*
X39783Y-34147D01*
X39750Y-34109D01*
X39717Y-34090D01*
X39650Y-34071D01*
X39517Y-34071D01*
X39450Y-34090D01*
X39417Y-34109D01*
X39383Y-34147D01*
X39150Y-33919D02*
X39117Y-33900D01*
X39083Y-33862D01*
X39083Y-33766D01*
X39117Y-33728D01*
X39150Y-33709D01*
X39217Y-33690D01*
X39283Y-33690D01*
X39383Y-33709D01*
X39783Y-33938D01*
X39783Y-33690D01*
G54D16*
X32657Y-37083D02*
X32657Y-37650D01*
X32679Y-37717D01*
X32700Y-37750D01*
X32743Y-37783D01*
X32829Y-37783D01*
X32871Y-37750D01*
X32893Y-37717D01*
X32914Y-37650D01*
X32914Y-37083D01*
X33364Y-37783D02*
X33107Y-37783D01*
X33235Y-37783D02*
X33235Y-37083D01*
X33192Y-37183D01*
X33150Y-37250D01*
X33107Y-37283D01*
G54D14*
X33632Y-35077D02*
X33632Y-35268D01*
X32932Y-35268D01*
X33632Y-34944D02*
X32932Y-34944D01*
X33432Y-34810D01*
X32932Y-34677D01*
X33632Y-34677D01*
X32932Y-34525D02*
X32932Y-34277D01*
X33199Y-34411D01*
X33199Y-34353D01*
X33232Y-34315D01*
X33266Y-34296D01*
X33332Y-34277D01*
X33499Y-34277D01*
X33566Y-34296D01*
X33599Y-34315D01*
X33632Y-34353D01*
X33632Y-34468D01*
X33599Y-34506D01*
X33566Y-34525D01*
X32999Y-34125D02*
X32966Y-34106D01*
X32932Y-34068D01*
X32932Y-33972D01*
X32966Y-33934D01*
X32999Y-33915D01*
X33066Y-33896D01*
X33132Y-33896D01*
X33232Y-33915D01*
X33632Y-34144D01*
X33632Y-33896D01*
X33166Y-33553D02*
X33632Y-33553D01*
X32899Y-33649D02*
X33399Y-33744D01*
X33399Y-33496D01*
G54D13*
X33200Y-30092D02*
X33186Y-30106D01*
X33143Y-30120D01*
X33114Y-30120D01*
X33071Y-30106D01*
X33043Y-30078D01*
X33028Y-30049D01*
X33014Y-29992D01*
X33014Y-29949D01*
X33028Y-29892D01*
X33043Y-29863D01*
X33071Y-29835D01*
X33114Y-29820D01*
X33143Y-29820D01*
X33186Y-29835D01*
X33200Y-29849D01*
X33457Y-29920D02*
X33457Y-30120D01*
X33386Y-29806D02*
X33314Y-30020D01*
X33500Y-30020D01*
X33208Y-29121D02*
X33066Y-29121D01*
X33137Y-29121D02*
X33137Y-28821D01*
X33113Y-28864D01*
X33089Y-28893D01*
X33066Y-28907D01*
X33423Y-28921D02*
X33423Y-29121D01*
X33316Y-28921D02*
X33316Y-29079D01*
X33327Y-29107D01*
X33351Y-29121D01*
X33387Y-29121D01*
X33411Y-29107D01*
X33423Y-29093D01*
G54D15*
X33434Y-28124D02*
X33415Y-28143D01*
X33358Y-28162D01*
X33320Y-28162D01*
X33262Y-28143D01*
X33224Y-28105D01*
X33205Y-28067D01*
X33186Y-27990D01*
X33186Y-27933D01*
X33205Y-27857D01*
X33224Y-27819D01*
X33262Y-27781D01*
X33320Y-27762D01*
X33358Y-27762D01*
X33415Y-27781D01*
X33434Y-27800D01*
X33567Y-27762D02*
X33815Y-27762D01*
X33681Y-27914D01*
X33739Y-27914D01*
X33777Y-27933D01*
X33796Y-27952D01*
X33815Y-27990D01*
X33815Y-28086D01*
X33796Y-28124D01*
X33777Y-28143D01*
X33739Y-28162D01*
X33624Y-28162D01*
X33586Y-28143D01*
X33567Y-28124D01*
X31514Y-30300D02*
X31533Y-30281D01*
X31571Y-30262D01*
X31667Y-30262D01*
X31705Y-30281D01*
X31724Y-30300D01*
X31743Y-30338D01*
X31743Y-30376D01*
X31724Y-30433D01*
X31495Y-30662D01*
X31743Y-30662D01*
X31876Y-30262D02*
X32143Y-30262D01*
X31971Y-30662D01*
X32295Y-30395D02*
X32295Y-30795D01*
X32295Y-30414D02*
X32333Y-30395D01*
X32410Y-30395D01*
X32448Y-30414D01*
X32467Y-30433D01*
X32486Y-30471D01*
X32486Y-30586D01*
X32467Y-30624D01*
X32448Y-30643D01*
X32410Y-30662D01*
X32333Y-30662D01*
X32295Y-30643D01*
%LPC*%
G54D17*
X37750Y-39000D03*
X34750Y-39000D03*
X34750Y-37500D03*
X37750Y-37500D03*
G54D18*
X22000Y-38250D03*
G54D17*
X22000Y-39250D03*
G54D19*
X41750Y-22500D03*
X30750Y-22500D03*
G54D20*
X38250Y-22000D03*
X38250Y-23000D03*
X37250Y-22000D03*
X37250Y-23000D03*
X36250Y-22000D03*
X36250Y-23000D03*
X35250Y-22000D03*
X35250Y-23000D03*
X34250Y-22000D03*
X34250Y-23000D03*
G54D19*
X30750Y-50000D03*
X41750Y-50000D03*
G54D20*
X34250Y-50500D03*
X34250Y-49500D03*
X35250Y-50500D03*
X35250Y-49500D03*
X36250Y-50500D03*
X36250Y-49500D03*
X37250Y-50500D03*
X37250Y-49500D03*
X38250Y-50500D03*
X38250Y-49500D03*
G54D21*
X28250Y-38250D03*
G54D22*
X25250Y-38250D03*
G54D18*
X39750Y-29500D03*
G54D17*
X38750Y-29500D03*
X38750Y-31500D03*
X39750Y-31500D03*
G54D23*
X22000Y-50250D03*
X50500Y-50250D03*
X50500Y-22000D03*
G54D24*
X37750Y-33000D03*
G54D25*
X37750Y-34000D03*
X37750Y-35000D03*
X37750Y-36000D03*
X40750Y-36000D03*
X40750Y-35000D03*
X40750Y-34000D03*
X40750Y-33000D03*
G54D24*
X34750Y-36000D03*
G54D25*
X34750Y-35000D03*
X34750Y-34000D03*
X34750Y-33000D03*
X31750Y-33000D03*
X31750Y-34000D03*
X31750Y-35000D03*
X31750Y-36000D03*
G54D26*
X33750Y-29500D03*
G54D27*
X32750Y-29500D03*
X32750Y-31500D03*
X33750Y-31500D03*
G54D17*
X37750Y-30500D03*
X34250Y-26250D03*
X32000Y-27000D03*
M02*
