G04 (created by PCBNEW-RS274X (2012-01-19 BZR 3256)-stable) date 12/03/2013 15:27:15*
G01*
G70*
G90*
%MOIN*%
G04 Gerber Fmt 3.4, Leading zero omitted, Abs format*
%FSLAX34Y34*%
G04 APERTURE LIST*
%ADD10C,0.006000*%
%ADD11C,0.012000*%
%ADD12C,0.015000*%
%ADD13C,0.005000*%
%ADD14C,0.011300*%
%ADD15C,0.010000*%
%ADD16C,0.008000*%
%ADD17C,0.010700*%
%ADD18R,0.082000X0.110000*%
%ADD19O,0.082000X0.110000*%
%ADD20C,0.095000*%
%ADD21R,0.095000X0.095000*%
%ADD22R,0.090000X0.090000*%
%ADD23C,0.090000*%
%ADD24C,0.138100*%
G04 APERTURE END LIST*
G54D10*
X04000Y-04000D02*
X113000Y-04000D01*
X113000Y-78670D01*
X04000Y-78670D01*
X04000Y-04000D01*
X04700Y-04700D02*
X112300Y-04700D01*
X112300Y-77970D01*
X04700Y-77970D01*
X04700Y-04700D01*
X25800Y-04000D02*
X25800Y-04700D01*
X15043Y-04552D02*
X14757Y-04552D01*
X14900Y-04552D02*
X14900Y-04052D01*
X14852Y-04124D01*
X14805Y-04171D01*
X14757Y-04195D01*
X25800Y-78670D02*
X25800Y-77970D01*
X15043Y-78522D02*
X14757Y-78522D01*
X14900Y-78522D02*
X14900Y-78022D01*
X14852Y-78094D01*
X14805Y-78141D01*
X14757Y-78165D01*
X47600Y-04000D02*
X47600Y-04700D01*
X36557Y-04100D02*
X36581Y-04076D01*
X36629Y-04052D01*
X36748Y-04052D01*
X36795Y-04076D01*
X36819Y-04100D01*
X36843Y-04148D01*
X36843Y-04195D01*
X36819Y-04267D01*
X36533Y-04552D01*
X36843Y-04552D01*
X47600Y-78670D02*
X47600Y-77970D01*
X36557Y-78070D02*
X36581Y-78046D01*
X36629Y-78022D01*
X36748Y-78022D01*
X36795Y-78046D01*
X36819Y-78070D01*
X36843Y-78118D01*
X36843Y-78165D01*
X36819Y-78237D01*
X36533Y-78522D01*
X36843Y-78522D01*
X69400Y-04000D02*
X69400Y-04700D01*
X58333Y-04052D02*
X58643Y-04052D01*
X58476Y-04243D01*
X58548Y-04243D01*
X58595Y-04267D01*
X58619Y-04290D01*
X58643Y-04338D01*
X58643Y-04457D01*
X58619Y-04505D01*
X58595Y-04529D01*
X58548Y-04552D01*
X58405Y-04552D01*
X58357Y-04529D01*
X58333Y-04505D01*
X69400Y-78670D02*
X69400Y-77970D01*
X58333Y-78022D02*
X58643Y-78022D01*
X58476Y-78213D01*
X58548Y-78213D01*
X58595Y-78237D01*
X58619Y-78260D01*
X58643Y-78308D01*
X58643Y-78427D01*
X58619Y-78475D01*
X58595Y-78499D01*
X58548Y-78522D01*
X58405Y-78522D01*
X58357Y-78499D01*
X58333Y-78475D01*
X91200Y-04000D02*
X91200Y-04700D01*
X80395Y-04219D02*
X80395Y-04552D01*
X80276Y-04029D02*
X80157Y-04386D01*
X80467Y-04386D01*
X91200Y-78670D02*
X91200Y-77970D01*
X80395Y-78189D02*
X80395Y-78522D01*
X80276Y-77999D02*
X80157Y-78356D01*
X80467Y-78356D01*
X102219Y-04052D02*
X101981Y-04052D01*
X101957Y-04290D01*
X101981Y-04267D01*
X102029Y-04243D01*
X102148Y-04243D01*
X102195Y-04267D01*
X102219Y-04290D01*
X102243Y-04338D01*
X102243Y-04457D01*
X102219Y-04505D01*
X102195Y-04529D01*
X102148Y-04552D01*
X102029Y-04552D01*
X101981Y-04529D01*
X101957Y-04505D01*
X102219Y-78022D02*
X101981Y-78022D01*
X101957Y-78260D01*
X101981Y-78237D01*
X102029Y-78213D01*
X102148Y-78213D01*
X102195Y-78237D01*
X102219Y-78260D01*
X102243Y-78308D01*
X102243Y-78427D01*
X102219Y-78475D01*
X102195Y-78499D01*
X102148Y-78522D01*
X102029Y-78522D01*
X101981Y-78499D01*
X101957Y-78475D01*
X04000Y-28890D02*
X04700Y-28890D01*
X04231Y-16510D02*
X04469Y-16510D01*
X04184Y-16652D02*
X04350Y-16152D01*
X04517Y-16652D01*
X113000Y-28890D02*
X112300Y-28890D01*
X112531Y-16510D02*
X112769Y-16510D01*
X112484Y-16652D02*
X112650Y-16152D01*
X112817Y-16652D01*
X04000Y-53780D02*
X04700Y-53780D01*
X04386Y-41280D02*
X04457Y-41304D01*
X04481Y-41328D01*
X04505Y-41376D01*
X04505Y-41447D01*
X04481Y-41495D01*
X04457Y-41519D01*
X04410Y-41542D01*
X04219Y-41542D01*
X04219Y-41042D01*
X04386Y-41042D01*
X04433Y-41066D01*
X04457Y-41090D01*
X04481Y-41138D01*
X04481Y-41185D01*
X04457Y-41233D01*
X04433Y-41257D01*
X04386Y-41280D01*
X04219Y-41280D01*
X113000Y-53780D02*
X112300Y-53780D01*
X112686Y-41280D02*
X112757Y-41304D01*
X112781Y-41328D01*
X112805Y-41376D01*
X112805Y-41447D01*
X112781Y-41495D01*
X112757Y-41519D01*
X112710Y-41542D01*
X112519Y-41542D01*
X112519Y-41042D01*
X112686Y-41042D01*
X112733Y-41066D01*
X112757Y-41090D01*
X112781Y-41138D01*
X112781Y-41185D01*
X112757Y-41233D01*
X112733Y-41257D01*
X112686Y-41280D01*
X112519Y-41280D01*
X04505Y-66385D02*
X04481Y-66409D01*
X04410Y-66432D01*
X04362Y-66432D01*
X04290Y-66409D01*
X04243Y-66361D01*
X04219Y-66313D01*
X04195Y-66218D01*
X04195Y-66147D01*
X04219Y-66051D01*
X04243Y-66004D01*
X04290Y-65956D01*
X04362Y-65932D01*
X04410Y-65932D01*
X04481Y-65956D01*
X04505Y-65980D01*
X112805Y-66385D02*
X112781Y-66409D01*
X112710Y-66432D01*
X112662Y-66432D01*
X112590Y-66409D01*
X112543Y-66361D01*
X112519Y-66313D01*
X112495Y-66218D01*
X112495Y-66147D01*
X112519Y-66051D01*
X112543Y-66004D01*
X112590Y-65956D01*
X112662Y-65932D01*
X112710Y-65932D01*
X112781Y-65956D01*
X112805Y-65980D01*
G54D11*
X79443Y-76413D02*
X79443Y-75813D01*
X79586Y-75813D01*
X79671Y-75841D01*
X79729Y-75899D01*
X79757Y-75956D01*
X79786Y-76070D01*
X79786Y-76156D01*
X79757Y-76270D01*
X79729Y-76327D01*
X79671Y-76384D01*
X79586Y-76413D01*
X79443Y-76413D01*
X80300Y-76413D02*
X80300Y-76099D01*
X80271Y-76041D01*
X80214Y-76013D01*
X80100Y-76013D01*
X80043Y-76041D01*
X80300Y-76384D02*
X80243Y-76413D01*
X80100Y-76413D01*
X80043Y-76384D01*
X80014Y-76327D01*
X80014Y-76270D01*
X80043Y-76213D01*
X80100Y-76184D01*
X80243Y-76184D01*
X80300Y-76156D01*
X80500Y-76013D02*
X80729Y-76013D01*
X80586Y-75813D02*
X80586Y-76327D01*
X80614Y-76384D01*
X80672Y-76413D01*
X80729Y-76413D01*
X81157Y-76384D02*
X81100Y-76413D01*
X80986Y-76413D01*
X80929Y-76384D01*
X80900Y-76327D01*
X80900Y-76099D01*
X80929Y-76041D01*
X80986Y-76013D01*
X81100Y-76013D01*
X81157Y-76041D01*
X81186Y-76099D01*
X81186Y-76156D01*
X80900Y-76213D01*
X81443Y-76356D02*
X81471Y-76384D01*
X81443Y-76413D01*
X81414Y-76384D01*
X81443Y-76356D01*
X81443Y-76413D01*
X81443Y-76041D02*
X81471Y-76070D01*
X81443Y-76099D01*
X81414Y-76070D01*
X81443Y-76041D01*
X81443Y-76099D01*
X82500Y-76413D02*
X82157Y-76413D01*
X82329Y-76413D02*
X82329Y-75813D01*
X82272Y-75899D01*
X82214Y-75956D01*
X82157Y-75984D01*
X82728Y-75870D02*
X82757Y-75841D01*
X82814Y-75813D01*
X82957Y-75813D01*
X83014Y-75841D01*
X83043Y-75870D01*
X83071Y-75927D01*
X83071Y-75984D01*
X83043Y-76070D01*
X82700Y-76413D01*
X83071Y-76413D01*
X83785Y-76413D02*
X83785Y-76013D01*
X83785Y-76070D02*
X83813Y-76041D01*
X83871Y-76013D01*
X83956Y-76013D01*
X84013Y-76041D01*
X84042Y-76099D01*
X84042Y-76413D01*
X84042Y-76099D02*
X84071Y-76041D01*
X84128Y-76013D01*
X84213Y-76013D01*
X84271Y-76041D01*
X84299Y-76099D01*
X84299Y-76413D01*
X84842Y-76413D02*
X84842Y-76099D01*
X84813Y-76041D01*
X84756Y-76013D01*
X84642Y-76013D01*
X84585Y-76041D01*
X84842Y-76384D02*
X84785Y-76413D01*
X84642Y-76413D01*
X84585Y-76384D01*
X84556Y-76327D01*
X84556Y-76270D01*
X84585Y-76213D01*
X84642Y-76184D01*
X84785Y-76184D01*
X84842Y-76156D01*
X85128Y-76413D02*
X85128Y-76013D01*
X85128Y-76127D02*
X85156Y-76070D01*
X85185Y-76041D01*
X85242Y-76013D01*
X85299Y-76013D01*
X85927Y-75870D02*
X85956Y-75841D01*
X86013Y-75813D01*
X86156Y-75813D01*
X86213Y-75841D01*
X86242Y-75870D01*
X86270Y-75927D01*
X86270Y-75984D01*
X86242Y-76070D01*
X85899Y-76413D01*
X86270Y-76413D01*
X86641Y-75813D02*
X86698Y-75813D01*
X86755Y-75841D01*
X86784Y-75870D01*
X86813Y-75927D01*
X86841Y-76041D01*
X86841Y-76184D01*
X86813Y-76299D01*
X86784Y-76356D01*
X86755Y-76384D01*
X86698Y-76413D01*
X86641Y-76413D01*
X86584Y-76384D01*
X86555Y-76356D01*
X86527Y-76299D01*
X86498Y-76184D01*
X86498Y-76041D01*
X86527Y-75927D01*
X86555Y-75870D01*
X86584Y-75841D01*
X86641Y-75813D01*
X87412Y-76413D02*
X87069Y-76413D01*
X87241Y-76413D02*
X87241Y-75813D01*
X87184Y-75899D01*
X87126Y-75956D01*
X87069Y-75984D01*
X87612Y-75813D02*
X87983Y-75813D01*
X87783Y-76041D01*
X87869Y-76041D01*
X87926Y-76070D01*
X87955Y-76099D01*
X87983Y-76156D01*
X87983Y-76299D01*
X87955Y-76356D01*
X87926Y-76384D01*
X87869Y-76413D01*
X87697Y-76413D01*
X87640Y-76384D01*
X87612Y-76356D01*
G54D10*
X71043Y-77613D02*
X71043Y-77013D01*
X71386Y-77613D02*
X71129Y-77270D01*
X71386Y-77013D02*
X71043Y-77356D01*
X71643Y-77613D02*
X71643Y-77213D01*
X71643Y-77013D02*
X71614Y-77041D01*
X71643Y-77070D01*
X71671Y-77041D01*
X71643Y-77013D01*
X71643Y-77070D01*
X72272Y-77556D02*
X72243Y-77584D01*
X72157Y-77613D01*
X72100Y-77613D01*
X72015Y-77584D01*
X71957Y-77527D01*
X71929Y-77470D01*
X71900Y-77356D01*
X71900Y-77270D01*
X71929Y-77156D01*
X71957Y-77099D01*
X72015Y-77041D01*
X72100Y-77013D01*
X72157Y-77013D01*
X72243Y-77041D01*
X72272Y-77070D01*
X72786Y-77613D02*
X72786Y-77299D01*
X72757Y-77241D01*
X72700Y-77213D01*
X72586Y-77213D01*
X72529Y-77241D01*
X72786Y-77584D02*
X72729Y-77613D01*
X72586Y-77613D01*
X72529Y-77584D01*
X72500Y-77527D01*
X72500Y-77470D01*
X72529Y-77413D01*
X72586Y-77384D01*
X72729Y-77384D01*
X72786Y-77356D01*
X73329Y-77613D02*
X73329Y-77013D01*
X73329Y-77584D02*
X73272Y-77613D01*
X73158Y-77613D01*
X73100Y-77584D01*
X73072Y-77556D01*
X73043Y-77499D01*
X73043Y-77327D01*
X73072Y-77270D01*
X73100Y-77241D01*
X73158Y-77213D01*
X73272Y-77213D01*
X73329Y-77241D01*
X74072Y-77299D02*
X74272Y-77299D01*
X74358Y-77613D02*
X74072Y-77613D01*
X74072Y-77013D01*
X74358Y-77013D01*
X74615Y-77556D02*
X74643Y-77584D01*
X74615Y-77613D01*
X74586Y-77584D01*
X74615Y-77556D01*
X74615Y-77613D01*
X74901Y-77613D02*
X74901Y-77013D01*
X75044Y-77013D01*
X75129Y-77041D01*
X75187Y-77099D01*
X75215Y-77156D01*
X75244Y-77270D01*
X75244Y-77356D01*
X75215Y-77470D01*
X75187Y-77527D01*
X75129Y-77584D01*
X75044Y-77613D01*
X74901Y-77613D01*
X75501Y-77556D02*
X75529Y-77584D01*
X75501Y-77613D01*
X75472Y-77584D01*
X75501Y-77556D01*
X75501Y-77613D01*
X75758Y-77441D02*
X76044Y-77441D01*
X75701Y-77613D02*
X75901Y-77013D01*
X76101Y-77613D01*
X76301Y-77556D02*
X76329Y-77584D01*
X76301Y-77613D01*
X76272Y-77584D01*
X76301Y-77556D01*
X76301Y-77613D01*
G54D11*
X104586Y-76413D02*
X104386Y-76127D01*
X104243Y-76413D02*
X104243Y-75813D01*
X104471Y-75813D01*
X104529Y-75841D01*
X104557Y-75870D01*
X104586Y-75927D01*
X104586Y-76013D01*
X104557Y-76070D01*
X104529Y-76099D01*
X104471Y-76127D01*
X104243Y-76127D01*
X105071Y-76384D02*
X105014Y-76413D01*
X104900Y-76413D01*
X104843Y-76384D01*
X104814Y-76327D01*
X104814Y-76099D01*
X104843Y-76041D01*
X104900Y-76013D01*
X105014Y-76013D01*
X105071Y-76041D01*
X105100Y-76099D01*
X105100Y-76156D01*
X104814Y-76213D01*
X105300Y-76013D02*
X105443Y-76413D01*
X105585Y-76013D01*
X105814Y-76356D02*
X105842Y-76384D01*
X105814Y-76413D01*
X105785Y-76384D01*
X105814Y-76356D01*
X105814Y-76413D01*
X105814Y-76041D02*
X105842Y-76070D01*
X105814Y-76099D01*
X105785Y-76070D01*
X105814Y-76041D01*
X105814Y-76099D01*
X106528Y-75870D02*
X106557Y-75841D01*
X106614Y-75813D01*
X106757Y-75813D01*
X106814Y-75841D01*
X106843Y-75870D01*
X106871Y-75927D01*
X106871Y-75984D01*
X106843Y-76070D01*
X106500Y-76413D01*
X106871Y-76413D01*
X107128Y-76356D02*
X107156Y-76384D01*
X107128Y-76413D01*
X107099Y-76384D01*
X107128Y-76356D01*
X107128Y-76413D01*
X107528Y-75813D02*
X107585Y-75813D01*
X107642Y-75841D01*
X107671Y-75870D01*
X107700Y-75927D01*
X107728Y-76041D01*
X107728Y-76184D01*
X107700Y-76299D01*
X107671Y-76356D01*
X107642Y-76384D01*
X107585Y-76413D01*
X107528Y-76413D01*
X107471Y-76384D01*
X107442Y-76356D01*
X107414Y-76299D01*
X107385Y-76184D01*
X107385Y-76041D01*
X107414Y-75927D01*
X107442Y-75870D01*
X107471Y-75841D01*
X107528Y-75813D01*
G54D10*
X71014Y-76384D02*
X71100Y-76413D01*
X71243Y-76413D01*
X71300Y-76384D01*
X71329Y-76356D01*
X71357Y-76299D01*
X71357Y-76241D01*
X71329Y-76184D01*
X71300Y-76156D01*
X71243Y-76127D01*
X71129Y-76099D01*
X71071Y-76070D01*
X71043Y-76041D01*
X71014Y-75984D01*
X71014Y-75927D01*
X71043Y-75870D01*
X71071Y-75841D01*
X71129Y-75813D01*
X71271Y-75813D01*
X71357Y-75841D01*
X71614Y-76413D02*
X71614Y-76013D01*
X71614Y-75813D02*
X71585Y-75841D01*
X71614Y-75870D01*
X71642Y-75841D01*
X71614Y-75813D01*
X71614Y-75870D01*
X71843Y-76013D02*
X72157Y-76013D01*
X71843Y-76413D01*
X72157Y-76413D01*
X72614Y-76384D02*
X72557Y-76413D01*
X72443Y-76413D01*
X72386Y-76384D01*
X72357Y-76327D01*
X72357Y-76099D01*
X72386Y-76041D01*
X72443Y-76013D01*
X72557Y-76013D01*
X72614Y-76041D01*
X72643Y-76099D01*
X72643Y-76156D01*
X72357Y-76213D01*
X72900Y-76356D02*
X72928Y-76384D01*
X72900Y-76413D01*
X72871Y-76384D01*
X72900Y-76356D01*
X72900Y-76413D01*
X72900Y-76041D02*
X72928Y-76070D01*
X72900Y-76099D01*
X72871Y-76070D01*
X72900Y-76041D01*
X72900Y-76099D01*
X73614Y-76241D02*
X73900Y-76241D01*
X73557Y-76413D02*
X73757Y-75813D01*
X73957Y-76413D01*
X74414Y-76013D02*
X74414Y-76413D01*
X74271Y-75784D02*
X74128Y-76213D01*
X74500Y-76213D01*
X104243Y-77613D02*
X104243Y-77013D01*
X104786Y-77613D02*
X104786Y-77013D01*
X104786Y-77584D02*
X104729Y-77613D01*
X104615Y-77613D01*
X104557Y-77584D01*
X104529Y-77556D01*
X104500Y-77499D01*
X104500Y-77327D01*
X104529Y-77270D01*
X104557Y-77241D01*
X104615Y-77213D01*
X104729Y-77213D01*
X104786Y-77241D01*
X105072Y-77556D02*
X105100Y-77584D01*
X105072Y-77613D01*
X105043Y-77584D01*
X105072Y-77556D01*
X105072Y-77613D01*
X105072Y-77241D02*
X105100Y-77270D01*
X105072Y-77299D01*
X105043Y-77270D01*
X105072Y-77241D01*
X105072Y-77299D01*
X106129Y-77613D02*
X105786Y-77613D01*
X105958Y-77613D02*
X105958Y-77013D01*
X105901Y-77099D01*
X105843Y-77156D01*
X105786Y-77184D01*
X106814Y-76984D02*
X106300Y-77756D01*
X107329Y-77613D02*
X106986Y-77613D01*
X107158Y-77613D02*
X107158Y-77013D01*
X107101Y-77099D01*
X107043Y-77156D01*
X106986Y-77184D01*
G54D11*
X70957Y-74613D02*
X71300Y-74613D01*
X71129Y-75213D02*
X71129Y-74613D01*
X71500Y-75213D02*
X71500Y-74813D01*
X71500Y-74613D02*
X71471Y-74641D01*
X71500Y-74670D01*
X71528Y-74641D01*
X71500Y-74613D01*
X71500Y-74670D01*
X71700Y-74813D02*
X71929Y-74813D01*
X71786Y-74613D02*
X71786Y-75127D01*
X71814Y-75184D01*
X71872Y-75213D01*
X71929Y-75213D01*
X72215Y-75213D02*
X72157Y-75184D01*
X72129Y-75127D01*
X72129Y-74613D01*
X72671Y-75184D02*
X72614Y-75213D01*
X72500Y-75213D01*
X72443Y-75184D01*
X72414Y-75127D01*
X72414Y-74899D01*
X72443Y-74841D01*
X72500Y-74813D01*
X72614Y-74813D01*
X72671Y-74841D01*
X72700Y-74899D01*
X72700Y-74956D01*
X72414Y-75013D01*
X72957Y-75156D02*
X72985Y-75184D01*
X72957Y-75213D01*
X72928Y-75184D01*
X72957Y-75156D01*
X72957Y-75213D01*
X72957Y-74841D02*
X72985Y-74870D01*
X72957Y-74899D01*
X72928Y-74870D01*
X72957Y-74841D01*
X72957Y-74899D01*
X74043Y-75156D02*
X74014Y-75184D01*
X73928Y-75213D01*
X73871Y-75213D01*
X73786Y-75184D01*
X73728Y-75127D01*
X73700Y-75070D01*
X73671Y-74956D01*
X73671Y-74870D01*
X73700Y-74756D01*
X73728Y-74699D01*
X73786Y-74641D01*
X73871Y-74613D01*
X73928Y-74613D01*
X74014Y-74641D01*
X74043Y-74670D01*
X74557Y-75213D02*
X74557Y-74899D01*
X74528Y-74841D01*
X74471Y-74813D01*
X74357Y-74813D01*
X74300Y-74841D01*
X74557Y-75184D02*
X74500Y-75213D01*
X74357Y-75213D01*
X74300Y-75184D01*
X74271Y-75127D01*
X74271Y-75070D01*
X74300Y-75013D01*
X74357Y-74984D01*
X74500Y-74984D01*
X74557Y-74956D01*
X74843Y-75213D02*
X74843Y-74813D01*
X74843Y-74927D02*
X74871Y-74870D01*
X74900Y-74841D01*
X74957Y-74813D01*
X75014Y-74813D01*
X75128Y-74813D02*
X75357Y-74813D01*
X75214Y-74613D02*
X75214Y-75127D01*
X75242Y-75184D01*
X75300Y-75213D01*
X75357Y-75213D01*
X75785Y-75184D02*
X75728Y-75213D01*
X75614Y-75213D01*
X75557Y-75184D01*
X75528Y-75127D01*
X75528Y-74899D01*
X75557Y-74841D01*
X75614Y-74813D01*
X75728Y-74813D01*
X75785Y-74841D01*
X75814Y-74899D01*
X75814Y-74956D01*
X75528Y-75013D01*
X76785Y-75184D02*
X76728Y-75213D01*
X76614Y-75213D01*
X76556Y-75184D01*
X76528Y-75156D01*
X76499Y-75099D01*
X76499Y-74927D01*
X76528Y-74870D01*
X76556Y-74841D01*
X76614Y-74813D01*
X76728Y-74813D01*
X76785Y-74841D01*
X77128Y-75213D02*
X77070Y-75184D01*
X77042Y-75156D01*
X77013Y-75099D01*
X77013Y-74927D01*
X77042Y-74870D01*
X77070Y-74841D01*
X77128Y-74813D01*
X77213Y-74813D01*
X77270Y-74841D01*
X77299Y-74870D01*
X77328Y-74927D01*
X77328Y-75099D01*
X77299Y-75156D01*
X77270Y-75184D01*
X77213Y-75213D01*
X77128Y-75213D01*
X77585Y-74813D02*
X77585Y-75213D01*
X77585Y-74870D02*
X77613Y-74841D01*
X77671Y-74813D01*
X77756Y-74813D01*
X77813Y-74841D01*
X77842Y-74899D01*
X77842Y-75213D01*
X78071Y-74813D02*
X78214Y-75213D01*
X78356Y-74813D01*
X78813Y-75184D02*
X78756Y-75213D01*
X78642Y-75213D01*
X78585Y-75184D01*
X78556Y-75127D01*
X78556Y-74899D01*
X78585Y-74841D01*
X78642Y-74813D01*
X78756Y-74813D01*
X78813Y-74841D01*
X78842Y-74899D01*
X78842Y-74956D01*
X78556Y-75013D01*
X79099Y-75213D02*
X79099Y-74813D01*
X79099Y-74927D02*
X79127Y-74870D01*
X79156Y-74841D01*
X79213Y-74813D01*
X79270Y-74813D01*
X79384Y-74813D02*
X79613Y-74813D01*
X79470Y-74613D02*
X79470Y-75127D01*
X79498Y-75184D01*
X79556Y-75213D01*
X79613Y-75213D01*
X79813Y-75213D02*
X79813Y-74813D01*
X79813Y-74613D02*
X79784Y-74641D01*
X79813Y-74670D01*
X79841Y-74641D01*
X79813Y-74613D01*
X79813Y-74670D01*
X80070Y-75184D02*
X80127Y-75213D01*
X80242Y-75213D01*
X80299Y-75184D01*
X80327Y-75127D01*
X80327Y-75099D01*
X80299Y-75041D01*
X80242Y-75013D01*
X80156Y-75013D01*
X80099Y-74984D01*
X80070Y-74927D01*
X80070Y-74899D01*
X80099Y-74841D01*
X80156Y-74813D01*
X80242Y-74813D01*
X80299Y-74841D01*
X80556Y-75184D02*
X80613Y-75213D01*
X80728Y-75213D01*
X80785Y-75184D01*
X80813Y-75127D01*
X80813Y-75099D01*
X80785Y-75041D01*
X80728Y-75013D01*
X80642Y-75013D01*
X80585Y-74984D01*
X80556Y-74927D01*
X80556Y-74899D01*
X80585Y-74841D01*
X80642Y-74813D01*
X80728Y-74813D01*
X80785Y-74841D01*
X81299Y-75184D02*
X81242Y-75213D01*
X81128Y-75213D01*
X81071Y-75184D01*
X81042Y-75127D01*
X81042Y-74899D01*
X81071Y-74841D01*
X81128Y-74813D01*
X81242Y-74813D01*
X81299Y-74841D01*
X81328Y-74899D01*
X81328Y-74956D01*
X81042Y-75013D01*
X81842Y-74813D02*
X81842Y-75213D01*
X81585Y-74813D02*
X81585Y-75127D01*
X81613Y-75184D01*
X81671Y-75213D01*
X81756Y-75213D01*
X81813Y-75184D01*
X81842Y-75156D01*
X82128Y-75213D02*
X82128Y-74813D01*
X82128Y-74927D02*
X82156Y-74870D01*
X82185Y-74841D01*
X82242Y-74813D01*
X82299Y-74813D01*
X83213Y-75213D02*
X83213Y-74613D01*
X83213Y-75184D02*
X83156Y-75213D01*
X83042Y-75213D01*
X82984Y-75184D01*
X82956Y-75156D01*
X82927Y-75099D01*
X82927Y-74927D01*
X82956Y-74870D01*
X82984Y-74841D01*
X83042Y-74813D01*
X83156Y-74813D01*
X83213Y-74841D01*
X83499Y-75213D02*
X83499Y-74813D01*
X83499Y-74927D02*
X83527Y-74870D01*
X83556Y-74841D01*
X83613Y-74813D01*
X83670Y-74813D01*
X83870Y-75213D02*
X83870Y-74813D01*
X83870Y-74613D02*
X83841Y-74641D01*
X83870Y-74670D01*
X83898Y-74641D01*
X83870Y-74613D01*
X83870Y-74670D01*
X84099Y-74813D02*
X84242Y-75213D01*
X84384Y-74813D01*
X84841Y-75184D02*
X84784Y-75213D01*
X84670Y-75213D01*
X84613Y-75184D01*
X84584Y-75127D01*
X84584Y-74899D01*
X84613Y-74841D01*
X84670Y-74813D01*
X84784Y-74813D01*
X84841Y-74841D01*
X84870Y-74899D01*
X84870Y-74956D01*
X84584Y-75013D01*
X85127Y-75213D02*
X85127Y-74813D01*
X85127Y-74927D02*
X85155Y-74870D01*
X85184Y-74841D01*
X85241Y-74813D01*
X85298Y-74813D01*
X85469Y-75184D02*
X85526Y-75213D01*
X85641Y-75213D01*
X85698Y-75184D01*
X85726Y-75127D01*
X85726Y-75099D01*
X85698Y-75041D01*
X85641Y-75013D01*
X85555Y-75013D01*
X85498Y-74984D01*
X85469Y-74927D01*
X85469Y-74899D01*
X85498Y-74841D01*
X85555Y-74813D01*
X85641Y-74813D01*
X85698Y-74841D01*
G54D10*
X71243Y-72499D02*
X71043Y-72499D01*
X71043Y-72813D02*
X71043Y-72213D01*
X71329Y-72213D01*
X71557Y-72813D02*
X71557Y-72413D01*
X71557Y-72213D02*
X71528Y-72241D01*
X71557Y-72270D01*
X71585Y-72241D01*
X71557Y-72213D01*
X71557Y-72270D01*
X71929Y-72813D02*
X71871Y-72784D01*
X71843Y-72727D01*
X71843Y-72213D01*
X72385Y-72784D02*
X72328Y-72813D01*
X72214Y-72813D01*
X72157Y-72784D01*
X72128Y-72727D01*
X72128Y-72499D01*
X72157Y-72441D01*
X72214Y-72413D01*
X72328Y-72413D01*
X72385Y-72441D01*
X72414Y-72499D01*
X72414Y-72556D01*
X72128Y-72613D01*
X72671Y-72756D02*
X72699Y-72784D01*
X72671Y-72813D01*
X72642Y-72784D01*
X72671Y-72756D01*
X72671Y-72813D01*
X72671Y-72441D02*
X72699Y-72470D01*
X72671Y-72499D01*
X72642Y-72470D01*
X72671Y-72441D01*
X72671Y-72499D01*
X73671Y-72784D02*
X73614Y-72813D01*
X73500Y-72813D01*
X73442Y-72784D01*
X73414Y-72756D01*
X73385Y-72699D01*
X73385Y-72527D01*
X73414Y-72470D01*
X73442Y-72441D01*
X73500Y-72413D01*
X73614Y-72413D01*
X73671Y-72441D01*
X74185Y-72813D02*
X74185Y-72499D01*
X74156Y-72441D01*
X74099Y-72413D01*
X73985Y-72413D01*
X73928Y-72441D01*
X74185Y-72784D02*
X74128Y-72813D01*
X73985Y-72813D01*
X73928Y-72784D01*
X73899Y-72727D01*
X73899Y-72670D01*
X73928Y-72613D01*
X73985Y-72584D01*
X74128Y-72584D01*
X74185Y-72556D01*
X74471Y-72813D02*
X74471Y-72413D01*
X74471Y-72527D02*
X74499Y-72470D01*
X74528Y-72441D01*
X74585Y-72413D01*
X74642Y-72413D01*
X74756Y-72413D02*
X74985Y-72413D01*
X74842Y-72213D02*
X74842Y-72727D01*
X74870Y-72784D01*
X74928Y-72813D01*
X74985Y-72813D01*
X75413Y-72784D02*
X75356Y-72813D01*
X75242Y-72813D01*
X75185Y-72784D01*
X75156Y-72727D01*
X75156Y-72499D01*
X75185Y-72441D01*
X75242Y-72413D01*
X75356Y-72413D01*
X75413Y-72441D01*
X75442Y-72499D01*
X75442Y-72556D01*
X75156Y-72613D01*
X75556Y-72870D02*
X76013Y-72870D01*
X76413Y-72784D02*
X76356Y-72813D01*
X76242Y-72813D01*
X76184Y-72784D01*
X76156Y-72756D01*
X76127Y-72699D01*
X76127Y-72527D01*
X76156Y-72470D01*
X76184Y-72441D01*
X76242Y-72413D01*
X76356Y-72413D01*
X76413Y-72441D01*
X76756Y-72813D02*
X76698Y-72784D01*
X76670Y-72756D01*
X76641Y-72699D01*
X76641Y-72527D01*
X76670Y-72470D01*
X76698Y-72441D01*
X76756Y-72413D01*
X76841Y-72413D01*
X76898Y-72441D01*
X76927Y-72470D01*
X76956Y-72527D01*
X76956Y-72699D01*
X76927Y-72756D01*
X76898Y-72784D01*
X76841Y-72813D01*
X76756Y-72813D01*
X77213Y-72413D02*
X77213Y-72813D01*
X77213Y-72470D02*
X77241Y-72441D01*
X77299Y-72413D01*
X77384Y-72413D01*
X77441Y-72441D01*
X77470Y-72499D01*
X77470Y-72813D01*
X77699Y-72413D02*
X77842Y-72813D01*
X77984Y-72413D01*
X78441Y-72784D02*
X78384Y-72813D01*
X78270Y-72813D01*
X78213Y-72784D01*
X78184Y-72727D01*
X78184Y-72499D01*
X78213Y-72441D01*
X78270Y-72413D01*
X78384Y-72413D01*
X78441Y-72441D01*
X78470Y-72499D01*
X78470Y-72556D01*
X78184Y-72613D01*
X78727Y-72813D02*
X78727Y-72413D01*
X78727Y-72527D02*
X78755Y-72470D01*
X78784Y-72441D01*
X78841Y-72413D01*
X78898Y-72413D01*
X79012Y-72413D02*
X79241Y-72413D01*
X79098Y-72213D02*
X79098Y-72727D01*
X79126Y-72784D01*
X79184Y-72813D01*
X79241Y-72813D01*
X79441Y-72813D02*
X79441Y-72413D01*
X79441Y-72213D02*
X79412Y-72241D01*
X79441Y-72270D01*
X79469Y-72241D01*
X79441Y-72213D01*
X79441Y-72270D01*
X79698Y-72784D02*
X79755Y-72813D01*
X79870Y-72813D01*
X79927Y-72784D01*
X79955Y-72727D01*
X79955Y-72699D01*
X79927Y-72641D01*
X79870Y-72613D01*
X79784Y-72613D01*
X79727Y-72584D01*
X79698Y-72527D01*
X79698Y-72499D01*
X79727Y-72441D01*
X79784Y-72413D01*
X79870Y-72413D01*
X79927Y-72441D01*
X80184Y-72784D02*
X80241Y-72813D01*
X80356Y-72813D01*
X80413Y-72784D01*
X80441Y-72727D01*
X80441Y-72699D01*
X80413Y-72641D01*
X80356Y-72613D01*
X80270Y-72613D01*
X80213Y-72584D01*
X80184Y-72527D01*
X80184Y-72499D01*
X80213Y-72441D01*
X80270Y-72413D01*
X80356Y-72413D01*
X80413Y-72441D01*
X80927Y-72784D02*
X80870Y-72813D01*
X80756Y-72813D01*
X80699Y-72784D01*
X80670Y-72727D01*
X80670Y-72499D01*
X80699Y-72441D01*
X80756Y-72413D01*
X80870Y-72413D01*
X80927Y-72441D01*
X80956Y-72499D01*
X80956Y-72556D01*
X80670Y-72613D01*
X81470Y-72413D02*
X81470Y-72813D01*
X81213Y-72413D02*
X81213Y-72727D01*
X81241Y-72784D01*
X81299Y-72813D01*
X81384Y-72813D01*
X81441Y-72784D01*
X81470Y-72756D01*
X81756Y-72813D02*
X81756Y-72413D01*
X81756Y-72527D02*
X81784Y-72470D01*
X81813Y-72441D01*
X81870Y-72413D01*
X81927Y-72413D01*
X81984Y-72870D02*
X82441Y-72870D01*
X82841Y-72813D02*
X82841Y-72213D01*
X82841Y-72784D02*
X82784Y-72813D01*
X82670Y-72813D01*
X82612Y-72784D01*
X82584Y-72756D01*
X82555Y-72699D01*
X82555Y-72527D01*
X82584Y-72470D01*
X82612Y-72441D01*
X82670Y-72413D01*
X82784Y-72413D01*
X82841Y-72441D01*
X83127Y-72813D02*
X83127Y-72413D01*
X83127Y-72527D02*
X83155Y-72470D01*
X83184Y-72441D01*
X83241Y-72413D01*
X83298Y-72413D01*
X83498Y-72813D02*
X83498Y-72413D01*
X83498Y-72213D02*
X83469Y-72241D01*
X83498Y-72270D01*
X83526Y-72241D01*
X83498Y-72213D01*
X83498Y-72270D01*
X83727Y-72413D02*
X83870Y-72813D01*
X84012Y-72413D01*
X84469Y-72784D02*
X84412Y-72813D01*
X84298Y-72813D01*
X84241Y-72784D01*
X84212Y-72727D01*
X84212Y-72499D01*
X84241Y-72441D01*
X84298Y-72413D01*
X84412Y-72413D01*
X84469Y-72441D01*
X84498Y-72499D01*
X84498Y-72556D01*
X84212Y-72613D01*
X84755Y-72813D02*
X84755Y-72413D01*
X84755Y-72527D02*
X84783Y-72470D01*
X84812Y-72441D01*
X84869Y-72413D01*
X84926Y-72413D01*
X85097Y-72784D02*
X85154Y-72813D01*
X85269Y-72813D01*
X85326Y-72784D01*
X85354Y-72727D01*
X85354Y-72699D01*
X85326Y-72641D01*
X85269Y-72613D01*
X85183Y-72613D01*
X85126Y-72584D01*
X85097Y-72527D01*
X85097Y-72499D01*
X85126Y-72441D01*
X85183Y-72413D01*
X85269Y-72413D01*
X85326Y-72441D01*
X85612Y-72756D02*
X85640Y-72784D01*
X85612Y-72813D01*
X85583Y-72784D01*
X85612Y-72756D01*
X85612Y-72813D01*
X85898Y-72813D02*
X85898Y-72213D01*
X85898Y-72441D02*
X85955Y-72413D01*
X86069Y-72413D01*
X86126Y-72441D01*
X86155Y-72470D01*
X86184Y-72527D01*
X86184Y-72699D01*
X86155Y-72756D01*
X86126Y-72784D01*
X86069Y-72813D01*
X85955Y-72813D01*
X85898Y-72784D01*
X86441Y-72813D02*
X86441Y-72413D01*
X86441Y-72527D02*
X86469Y-72470D01*
X86498Y-72441D01*
X86555Y-72413D01*
X86612Y-72413D01*
X87069Y-72813D02*
X87069Y-72213D01*
X87069Y-72784D02*
X87012Y-72813D01*
X86898Y-72813D01*
X86840Y-72784D01*
X86812Y-72756D01*
X86783Y-72699D01*
X86783Y-72527D01*
X86812Y-72470D01*
X86840Y-72441D01*
X86898Y-72413D01*
X87012Y-72413D01*
X87069Y-72441D01*
X71014Y-73984D02*
X71100Y-74013D01*
X71243Y-74013D01*
X71300Y-73984D01*
X71329Y-73956D01*
X71357Y-73899D01*
X71357Y-73841D01*
X71329Y-73784D01*
X71300Y-73756D01*
X71243Y-73727D01*
X71129Y-73699D01*
X71071Y-73670D01*
X71043Y-73641D01*
X71014Y-73584D01*
X71014Y-73527D01*
X71043Y-73470D01*
X71071Y-73441D01*
X71129Y-73413D01*
X71271Y-73413D01*
X71357Y-73441D01*
X71614Y-74013D02*
X71614Y-73413D01*
X71871Y-74013D02*
X71871Y-73699D01*
X71842Y-73641D01*
X71785Y-73613D01*
X71700Y-73613D01*
X71642Y-73641D01*
X71614Y-73670D01*
X72385Y-73984D02*
X72328Y-74013D01*
X72214Y-74013D01*
X72157Y-73984D01*
X72128Y-73927D01*
X72128Y-73699D01*
X72157Y-73641D01*
X72214Y-73613D01*
X72328Y-73613D01*
X72385Y-73641D01*
X72414Y-73699D01*
X72414Y-73756D01*
X72128Y-73813D01*
X72899Y-73984D02*
X72842Y-74013D01*
X72728Y-74013D01*
X72671Y-73984D01*
X72642Y-73927D01*
X72642Y-73699D01*
X72671Y-73641D01*
X72728Y-73613D01*
X72842Y-73613D01*
X72899Y-73641D01*
X72928Y-73699D01*
X72928Y-73756D01*
X72642Y-73813D01*
X73099Y-73613D02*
X73328Y-73613D01*
X73185Y-73413D02*
X73185Y-73927D01*
X73213Y-73984D01*
X73271Y-74013D01*
X73328Y-74013D01*
X73528Y-73956D02*
X73556Y-73984D01*
X73528Y-74013D01*
X73499Y-73984D01*
X73528Y-73956D01*
X73528Y-74013D01*
X73528Y-73641D02*
X73556Y-73670D01*
X73528Y-73699D01*
X73499Y-73670D01*
X73528Y-73641D01*
X73528Y-73699D01*
X74585Y-74013D02*
X74242Y-74013D01*
X74414Y-74013D02*
X74414Y-73413D01*
X74357Y-73499D01*
X74299Y-73556D01*
X74242Y-73584D01*
X75270Y-73384D02*
X74756Y-74156D01*
X75785Y-74013D02*
X75442Y-74013D01*
X75614Y-74013D02*
X75614Y-73413D01*
X75557Y-73499D01*
X75499Y-73556D01*
X75442Y-73584D01*
G54D11*
X71043Y-71299D02*
X71243Y-71299D01*
X71329Y-71613D02*
X71043Y-71613D01*
X71043Y-71013D01*
X71329Y-71013D01*
X71586Y-71613D02*
X71586Y-71013D01*
X71814Y-71013D01*
X71872Y-71041D01*
X71900Y-71070D01*
X71929Y-71127D01*
X71929Y-71213D01*
X71900Y-71270D01*
X71872Y-71299D01*
X71814Y-71327D01*
X71586Y-71327D01*
X72157Y-71584D02*
X72243Y-71613D01*
X72386Y-71613D01*
X72443Y-71584D01*
X72472Y-71556D01*
X72500Y-71499D01*
X72500Y-71441D01*
X72472Y-71384D01*
X72443Y-71356D01*
X72386Y-71327D01*
X72272Y-71299D01*
X72214Y-71270D01*
X72186Y-71241D01*
X72157Y-71184D01*
X72157Y-71127D01*
X72186Y-71070D01*
X72214Y-71041D01*
X72272Y-71013D01*
X72414Y-71013D01*
X72500Y-71041D01*
X72728Y-71441D02*
X73014Y-71441D01*
X72671Y-71613D02*
X72871Y-71013D01*
X73071Y-71613D01*
X73728Y-71384D02*
X74185Y-71384D01*
X75242Y-71041D02*
X75185Y-71013D01*
X75099Y-71013D01*
X75014Y-71041D01*
X74956Y-71099D01*
X74928Y-71156D01*
X74899Y-71270D01*
X74899Y-71356D01*
X74928Y-71470D01*
X74956Y-71527D01*
X75014Y-71584D01*
X75099Y-71613D01*
X75156Y-71613D01*
X75242Y-71584D01*
X75271Y-71556D01*
X75271Y-71356D01*
X75156Y-71356D01*
X75756Y-71584D02*
X75699Y-71613D01*
X75585Y-71613D01*
X75528Y-71584D01*
X75499Y-71527D01*
X75499Y-71299D01*
X75528Y-71241D01*
X75585Y-71213D01*
X75699Y-71213D01*
X75756Y-71241D01*
X75785Y-71299D01*
X75785Y-71356D01*
X75499Y-71413D01*
X75699Y-70984D02*
X75614Y-71070D01*
X76042Y-71213D02*
X76042Y-71613D01*
X76042Y-71270D02*
X76070Y-71241D01*
X76128Y-71213D01*
X76213Y-71213D01*
X76270Y-71241D01*
X76299Y-71299D01*
X76299Y-71613D01*
X76813Y-71584D02*
X76756Y-71613D01*
X76642Y-71613D01*
X76585Y-71584D01*
X76556Y-71527D01*
X76556Y-71299D01*
X76585Y-71241D01*
X76642Y-71213D01*
X76756Y-71213D01*
X76813Y-71241D01*
X76842Y-71299D01*
X76842Y-71356D01*
X76556Y-71413D01*
X76756Y-70984D02*
X76671Y-71070D01*
X77099Y-71613D02*
X77099Y-71213D01*
X77099Y-71327D02*
X77127Y-71270D01*
X77156Y-71241D01*
X77213Y-71213D01*
X77270Y-71213D01*
X77470Y-71613D02*
X77470Y-71213D01*
X77470Y-71013D02*
X77441Y-71041D01*
X77470Y-71070D01*
X77498Y-71041D01*
X77470Y-71013D01*
X77470Y-71070D01*
X78013Y-71213D02*
X78013Y-71813D01*
X78013Y-71584D02*
X77956Y-71613D01*
X77842Y-71613D01*
X77784Y-71584D01*
X77756Y-71556D01*
X77727Y-71499D01*
X77727Y-71327D01*
X77756Y-71270D01*
X77784Y-71241D01*
X77842Y-71213D01*
X77956Y-71213D01*
X78013Y-71241D01*
X78556Y-71213D02*
X78556Y-71613D01*
X78299Y-71213D02*
X78299Y-71527D01*
X78327Y-71584D01*
X78385Y-71613D01*
X78470Y-71613D01*
X78527Y-71584D01*
X78556Y-71556D01*
X79070Y-71584D02*
X79013Y-71613D01*
X78899Y-71613D01*
X78842Y-71584D01*
X78813Y-71527D01*
X78813Y-71299D01*
X78842Y-71241D01*
X78899Y-71213D01*
X79013Y-71213D01*
X79070Y-71241D01*
X79099Y-71299D01*
X79099Y-71356D01*
X78813Y-71413D01*
X70300Y-70770D02*
X70300Y-77970D01*
X70300Y-71970D02*
X112300Y-71970D01*
X70300Y-70770D02*
X112300Y-70770D01*
X70300Y-74370D02*
X112300Y-74370D01*
X103500Y-75570D02*
X103500Y-77970D01*
X70300Y-76770D02*
X112300Y-76770D01*
X70300Y-75570D02*
X112300Y-75570D01*
X76900Y-75570D02*
X76900Y-76770D01*
G54D12*
X37750Y-30000D02*
X37250Y-30000D01*
X37250Y-30000D02*
X37250Y-29000D01*
X37250Y-29000D02*
X37750Y-29000D01*
X37750Y-30500D02*
X33750Y-30500D01*
X33750Y-30500D02*
X33750Y-28500D01*
X33750Y-28500D02*
X37750Y-28500D01*
X37750Y-28500D02*
X37750Y-30500D01*
G54D11*
X37600Y-51400D02*
X37600Y-48600D01*
X37600Y-48600D02*
X38400Y-48600D01*
X38400Y-48600D02*
X38400Y-51400D01*
X38400Y-51400D02*
X37600Y-51400D01*
X37800Y-51400D02*
X37600Y-51200D01*
X68450Y-29850D02*
X68450Y-44550D01*
X68450Y-44550D02*
X65050Y-44550D01*
X65050Y-44550D02*
X65050Y-29850D01*
X65050Y-36250D02*
X65350Y-36250D01*
X65350Y-36250D02*
X65350Y-32750D01*
X65350Y-32750D02*
X68150Y-32750D01*
X68150Y-32750D02*
X68150Y-41750D01*
X68150Y-41750D02*
X65350Y-41750D01*
X65350Y-41750D02*
X65350Y-38250D01*
X65350Y-38250D02*
X65050Y-38250D01*
X65050Y-29850D02*
X68450Y-29850D01*
X66250Y-33650D02*
X66550Y-33150D01*
X66550Y-33150D02*
X65950Y-33150D01*
X65950Y-33150D02*
X66250Y-33650D01*
X50500Y-49000D02*
X50480Y-49194D01*
X50424Y-49381D01*
X50332Y-49553D01*
X50209Y-49704D01*
X50059Y-49829D01*
X49887Y-49921D01*
X49701Y-49979D01*
X49506Y-49999D01*
X49313Y-49982D01*
X49126Y-49927D01*
X48953Y-49836D01*
X48801Y-49714D01*
X48675Y-49564D01*
X48581Y-49393D01*
X48522Y-49207D01*
X48501Y-49013D01*
X48517Y-48820D01*
X48571Y-48632D01*
X48660Y-48459D01*
X48781Y-48306D01*
X48930Y-48179D01*
X49100Y-48084D01*
X49286Y-48024D01*
X49480Y-48001D01*
X49673Y-48016D01*
X49861Y-48068D01*
X50035Y-48156D01*
X50189Y-48276D01*
X50317Y-48424D01*
X50413Y-48594D01*
X50475Y-48779D01*
X50499Y-48973D01*
X50500Y-49000D01*
X49750Y-50000D02*
X49750Y-49750D01*
X49750Y-49750D02*
X49250Y-49750D01*
X49250Y-49750D02*
X49250Y-50000D01*
X31500Y-46500D02*
X31480Y-46694D01*
X31424Y-46881D01*
X31332Y-47053D01*
X31209Y-47204D01*
X31059Y-47329D01*
X30887Y-47421D01*
X30701Y-47479D01*
X30506Y-47499D01*
X30313Y-47482D01*
X30126Y-47427D01*
X29953Y-47336D01*
X29801Y-47214D01*
X29675Y-47064D01*
X29581Y-46893D01*
X29522Y-46707D01*
X29501Y-46513D01*
X29517Y-46320D01*
X29571Y-46132D01*
X29660Y-45959D01*
X29781Y-45806D01*
X29930Y-45679D01*
X30100Y-45584D01*
X30286Y-45524D01*
X30480Y-45501D01*
X30673Y-45516D01*
X30861Y-45568D01*
X31035Y-45656D01*
X31189Y-45776D01*
X31317Y-45924D01*
X31413Y-46094D01*
X31475Y-46279D01*
X31499Y-46473D01*
X31500Y-46500D01*
X29500Y-46750D02*
X29750Y-46750D01*
X29750Y-46750D02*
X29750Y-46250D01*
X29750Y-46250D02*
X29500Y-46250D01*
X33000Y-29250D02*
X32800Y-29250D01*
X30000Y-29250D02*
X30200Y-29250D01*
X30200Y-29250D02*
X30200Y-29650D01*
X30200Y-29650D02*
X32800Y-29650D01*
X32800Y-29650D02*
X32800Y-28850D01*
X32800Y-28850D02*
X30200Y-28850D01*
X30200Y-28850D02*
X30200Y-29250D01*
X32800Y-29450D02*
X32600Y-29650D01*
X33000Y-28000D02*
X32800Y-28000D01*
X30000Y-28000D02*
X30200Y-28000D01*
X30200Y-28000D02*
X30200Y-28400D01*
X30200Y-28400D02*
X32800Y-28400D01*
X32800Y-28400D02*
X32800Y-27600D01*
X32800Y-27600D02*
X30200Y-27600D01*
X30200Y-27600D02*
X30200Y-28000D01*
X32800Y-28200D02*
X32600Y-28400D01*
X47750Y-47500D02*
X47750Y-47700D01*
X47750Y-50500D02*
X47750Y-50300D01*
X47750Y-50300D02*
X48150Y-50300D01*
X48150Y-50300D02*
X48150Y-47700D01*
X48150Y-47700D02*
X47350Y-47700D01*
X47350Y-47700D02*
X47350Y-50300D01*
X47350Y-50300D02*
X47750Y-50300D01*
X47950Y-47700D02*
X48150Y-47900D01*
X26500Y-37500D02*
X26500Y-37700D01*
X26500Y-40500D02*
X26500Y-40300D01*
X26500Y-40300D02*
X26900Y-40300D01*
X26900Y-40300D02*
X26900Y-37700D01*
X26900Y-37700D02*
X26100Y-37700D01*
X26100Y-37700D02*
X26100Y-40300D01*
X26100Y-40300D02*
X26500Y-40300D01*
X26700Y-37700D02*
X26900Y-37900D01*
X33000Y-44500D02*
X32800Y-44500D01*
X30000Y-44500D02*
X30200Y-44500D01*
X30200Y-44500D02*
X30200Y-44900D01*
X30200Y-44900D02*
X32800Y-44900D01*
X32800Y-44900D02*
X32800Y-44100D01*
X32800Y-44100D02*
X30200Y-44100D01*
X30200Y-44100D02*
X30200Y-44500D01*
X32800Y-44700D02*
X32600Y-44900D01*
X63750Y-38750D02*
X63750Y-38550D01*
X63750Y-35750D02*
X63750Y-35950D01*
X63750Y-35950D02*
X63350Y-35950D01*
X63350Y-35950D02*
X63350Y-38550D01*
X63350Y-38550D02*
X64150Y-38550D01*
X64150Y-38550D02*
X64150Y-35950D01*
X64150Y-35950D02*
X63750Y-35950D01*
X63550Y-38550D02*
X63350Y-38350D01*
X38100Y-44900D02*
X38100Y-42100D01*
X38100Y-42100D02*
X38900Y-42100D01*
X38900Y-42100D02*
X38900Y-44900D01*
X38900Y-44900D02*
X38100Y-44900D01*
X38300Y-44900D02*
X38100Y-44700D01*
X33000Y-36250D02*
X32800Y-36250D01*
X30000Y-36250D02*
X30200Y-36250D01*
X30200Y-36250D02*
X30200Y-36650D01*
X30200Y-36650D02*
X32800Y-36650D01*
X32800Y-36650D02*
X32800Y-35850D01*
X32800Y-35850D02*
X30200Y-35850D01*
X30200Y-35850D02*
X30200Y-36250D01*
X32800Y-36450D02*
X32600Y-36650D01*
X33000Y-35000D02*
X32800Y-35000D01*
X30000Y-35000D02*
X30200Y-35000D01*
X30200Y-35000D02*
X30200Y-35400D01*
X30200Y-35400D02*
X32800Y-35400D01*
X32800Y-35400D02*
X32800Y-34600D01*
X32800Y-34600D02*
X30200Y-34600D01*
X30200Y-34600D02*
X30200Y-35000D01*
X32800Y-35200D02*
X32600Y-35400D01*
X42750Y-49000D02*
X42750Y-48000D01*
X42750Y-48000D02*
X44750Y-48000D01*
X44750Y-48000D02*
X44750Y-49000D01*
X44750Y-49000D02*
X42750Y-49000D01*
G54D12*
X37750Y-44000D02*
X37250Y-44000D01*
X37250Y-44000D02*
X37250Y-43000D01*
X37250Y-43000D02*
X37750Y-43000D01*
X37750Y-44500D02*
X33750Y-44500D01*
X33750Y-44500D02*
X33750Y-42500D01*
X33750Y-42500D02*
X37750Y-42500D01*
X37750Y-42500D02*
X37750Y-44500D01*
G54D13*
X59001Y-26750D02*
X58981Y-26944D01*
X58925Y-27131D01*
X58833Y-27303D01*
X58710Y-27455D01*
X58559Y-27579D01*
X58387Y-27672D01*
X58201Y-27730D01*
X58006Y-27750D01*
X57813Y-27733D01*
X57626Y-27678D01*
X57452Y-27587D01*
X57300Y-27465D01*
X57175Y-27315D01*
X57080Y-27144D01*
X57021Y-26958D01*
X57000Y-26763D01*
X57016Y-26570D01*
X57070Y-26382D01*
X57159Y-26208D01*
X57280Y-26055D01*
X57429Y-25929D01*
X57600Y-25833D01*
X57786Y-25773D01*
X57980Y-25750D01*
X58173Y-25765D01*
X58361Y-25817D01*
X58536Y-25905D01*
X58690Y-26026D01*
X58817Y-26173D01*
X58914Y-26343D01*
X58976Y-26529D01*
X59000Y-26723D01*
X59001Y-26750D01*
X41001Y-29500D02*
X40981Y-29694D01*
X40925Y-29881D01*
X40833Y-30053D01*
X40710Y-30205D01*
X40559Y-30329D01*
X40387Y-30422D01*
X40201Y-30480D01*
X40006Y-30500D01*
X39813Y-30483D01*
X39626Y-30428D01*
X39452Y-30337D01*
X39300Y-30215D01*
X39175Y-30065D01*
X39080Y-29894D01*
X39021Y-29708D01*
X39000Y-29513D01*
X39016Y-29320D01*
X39070Y-29132D01*
X39159Y-28958D01*
X39280Y-28805D01*
X39429Y-28679D01*
X39600Y-28583D01*
X39786Y-28523D01*
X39980Y-28500D01*
X40173Y-28515D01*
X40361Y-28567D01*
X40536Y-28655D01*
X40690Y-28776D01*
X40817Y-28923D01*
X40914Y-29093D01*
X40976Y-29279D01*
X41000Y-29473D01*
X41001Y-29500D01*
G54D11*
X55850Y-28150D02*
X55850Y-25350D01*
X55850Y-25350D02*
X56650Y-25350D01*
X56650Y-25350D02*
X56650Y-28150D01*
X56650Y-28150D02*
X55850Y-28150D01*
X56050Y-28150D02*
X55850Y-27950D01*
X38100Y-30900D02*
X38100Y-28100D01*
X38100Y-28100D02*
X38900Y-28100D01*
X38900Y-28100D02*
X38900Y-30900D01*
X38900Y-30900D02*
X38100Y-30900D01*
X38300Y-30900D02*
X38100Y-30700D01*
X39750Y-47250D02*
X39550Y-47250D01*
X36750Y-47250D02*
X36950Y-47250D01*
X36950Y-47250D02*
X36950Y-47650D01*
X36950Y-47650D02*
X39550Y-47650D01*
X39550Y-47650D02*
X39550Y-46850D01*
X39550Y-46850D02*
X36950Y-46850D01*
X36950Y-46850D02*
X36950Y-47250D01*
X39550Y-47450D02*
X39350Y-47650D01*
X33000Y-42000D02*
X32800Y-42000D01*
X30000Y-42000D02*
X30200Y-42000D01*
X30200Y-42000D02*
X30200Y-42400D01*
X30200Y-42400D02*
X32800Y-42400D01*
X32800Y-42400D02*
X32800Y-41600D01*
X32800Y-41600D02*
X30200Y-41600D01*
X30200Y-41600D02*
X30200Y-42000D01*
X32800Y-42200D02*
X32600Y-42400D01*
X33000Y-43250D02*
X32800Y-43250D01*
X30000Y-43250D02*
X30200Y-43250D01*
X30200Y-43250D02*
X30200Y-43650D01*
X30200Y-43650D02*
X32800Y-43650D01*
X32800Y-43650D02*
X32800Y-42850D01*
X32800Y-42850D02*
X30200Y-42850D01*
X30200Y-42850D02*
X30200Y-43250D01*
X32800Y-43450D02*
X32600Y-43650D01*
X39750Y-33250D02*
X39550Y-33250D01*
X36750Y-33250D02*
X36950Y-33250D01*
X36950Y-33250D02*
X36950Y-33650D01*
X36950Y-33650D02*
X39550Y-33650D01*
X39550Y-33650D02*
X39550Y-32850D01*
X39550Y-32850D02*
X36950Y-32850D01*
X36950Y-32850D02*
X36950Y-33250D01*
X39550Y-33450D02*
X39350Y-33650D01*
X39750Y-40250D02*
X39550Y-40250D01*
X36750Y-40250D02*
X36950Y-40250D01*
X36950Y-40250D02*
X36950Y-40650D01*
X36950Y-40650D02*
X39550Y-40650D01*
X39550Y-40650D02*
X39550Y-39850D01*
X39550Y-39850D02*
X36950Y-39850D01*
X36950Y-39850D02*
X36950Y-40250D01*
X39550Y-40450D02*
X39350Y-40650D01*
X38250Y-46250D02*
X38050Y-46250D01*
X35250Y-46250D02*
X35450Y-46250D01*
X35450Y-46250D02*
X35450Y-46650D01*
X35450Y-46650D02*
X38050Y-46650D01*
X38050Y-46650D02*
X38050Y-45850D01*
X38050Y-45850D02*
X35450Y-45850D01*
X35450Y-45850D02*
X35450Y-46250D01*
X38050Y-46450D02*
X37850Y-46650D01*
X38250Y-39250D02*
X38050Y-39250D01*
X35250Y-39250D02*
X35450Y-39250D01*
X35450Y-39250D02*
X35450Y-39650D01*
X35450Y-39650D02*
X38050Y-39650D01*
X38050Y-39650D02*
X38050Y-38850D01*
X38050Y-38850D02*
X35450Y-38850D01*
X35450Y-38850D02*
X35450Y-39250D01*
X38050Y-39450D02*
X37850Y-39650D01*
X38250Y-32250D02*
X38050Y-32250D01*
X35250Y-32250D02*
X35450Y-32250D01*
X35450Y-32250D02*
X35450Y-32650D01*
X35450Y-32650D02*
X38050Y-32650D01*
X38050Y-32650D02*
X38050Y-31850D01*
X38050Y-31850D02*
X35450Y-31850D01*
X35450Y-31850D02*
X35450Y-32250D01*
X38050Y-32450D02*
X37850Y-32650D01*
X37445Y-50000D02*
X37403Y-50426D01*
X37279Y-50836D01*
X37078Y-51214D01*
X36807Y-51546D01*
X36477Y-51819D01*
X36100Y-52023D01*
X35691Y-52150D01*
X35265Y-52194D01*
X34839Y-52156D01*
X34428Y-52035D01*
X34049Y-51836D01*
X33715Y-51568D01*
X33439Y-51240D01*
X33233Y-50864D01*
X33103Y-50456D01*
X33056Y-50030D01*
X33092Y-49604D01*
X33210Y-49192D01*
X33405Y-48811D01*
X33672Y-48476D01*
X33998Y-48198D01*
X34372Y-47989D01*
X34779Y-47857D01*
X35205Y-47806D01*
X35631Y-47839D01*
X36043Y-47954D01*
X36426Y-48147D01*
X36763Y-48411D01*
X37043Y-48735D01*
X37255Y-49108D01*
X37390Y-49514D01*
X37444Y-49939D01*
X37445Y-50000D01*
X56900Y-47850D02*
X56900Y-50650D01*
X56900Y-50650D02*
X56100Y-50650D01*
X56100Y-50650D02*
X56100Y-47850D01*
X56100Y-47850D02*
X56900Y-47850D01*
X56700Y-47850D02*
X56900Y-48050D01*
X55445Y-49250D02*
X55403Y-49676D01*
X55279Y-50086D01*
X55078Y-50464D01*
X54807Y-50796D01*
X54477Y-51069D01*
X54100Y-51273D01*
X53691Y-51400D01*
X53265Y-51444D01*
X52839Y-51406D01*
X52428Y-51285D01*
X52049Y-51086D01*
X51715Y-50818D01*
X51439Y-50490D01*
X51233Y-50114D01*
X51103Y-49706D01*
X51056Y-49280D01*
X51092Y-48854D01*
X51210Y-48442D01*
X51405Y-48061D01*
X51672Y-47726D01*
X51998Y-47448D01*
X52372Y-47239D01*
X52779Y-47107D01*
X53205Y-47056D01*
X53631Y-47089D01*
X54043Y-47204D01*
X54426Y-47397D01*
X54763Y-47661D01*
X55043Y-47985D01*
X55255Y-48358D01*
X55390Y-48764D01*
X55444Y-49189D01*
X55445Y-49250D01*
G54D13*
X41001Y-43500D02*
X40981Y-43694D01*
X40925Y-43881D01*
X40833Y-44053D01*
X40710Y-44205D01*
X40559Y-44329D01*
X40387Y-44422D01*
X40201Y-44480D01*
X40006Y-44500D01*
X39813Y-44483D01*
X39626Y-44428D01*
X39452Y-44337D01*
X39300Y-44215D01*
X39175Y-44065D01*
X39080Y-43894D01*
X39021Y-43708D01*
X39000Y-43513D01*
X39016Y-43320D01*
X39070Y-43132D01*
X39159Y-42958D01*
X39280Y-42805D01*
X39429Y-42679D01*
X39600Y-42583D01*
X39786Y-42523D01*
X39980Y-42500D01*
X40173Y-42515D01*
X40361Y-42567D01*
X40536Y-42655D01*
X40690Y-42776D01*
X40817Y-42923D01*
X40914Y-43093D01*
X40976Y-43279D01*
X41000Y-43473D01*
X41001Y-43500D01*
X41001Y-36500D02*
X40981Y-36694D01*
X40925Y-36881D01*
X40833Y-37053D01*
X40710Y-37205D01*
X40559Y-37329D01*
X40387Y-37422D01*
X40201Y-37480D01*
X40006Y-37500D01*
X39813Y-37483D01*
X39626Y-37428D01*
X39452Y-37337D01*
X39300Y-37215D01*
X39175Y-37065D01*
X39080Y-36894D01*
X39021Y-36708D01*
X39000Y-36513D01*
X39016Y-36320D01*
X39070Y-36132D01*
X39159Y-35958D01*
X39280Y-35805D01*
X39429Y-35679D01*
X39600Y-35583D01*
X39786Y-35523D01*
X39980Y-35500D01*
X40173Y-35515D01*
X40361Y-35567D01*
X40536Y-35655D01*
X40690Y-35776D01*
X40817Y-35923D01*
X40914Y-36093D01*
X40976Y-36279D01*
X41000Y-36473D01*
X41001Y-36500D01*
G54D11*
X38100Y-37900D02*
X38100Y-35100D01*
X38100Y-35100D02*
X38900Y-35100D01*
X38900Y-35100D02*
X38900Y-37900D01*
X38900Y-37900D02*
X38100Y-37900D01*
X38300Y-37900D02*
X38100Y-37700D01*
X33000Y-24000D02*
X33000Y-24000D01*
X33000Y-24000D02*
X26000Y-24000D01*
X26000Y-24000D02*
X26000Y-23000D01*
X26000Y-23000D02*
X33000Y-23000D01*
X33000Y-23000D02*
X33000Y-24000D01*
X32000Y-23000D02*
X32000Y-23000D01*
X32000Y-23000D02*
X32000Y-24000D01*
X21550Y-44400D02*
X21550Y-29700D01*
X21550Y-29700D02*
X24950Y-29700D01*
X24950Y-29700D02*
X24950Y-44400D01*
X24950Y-38000D02*
X24650Y-38000D01*
X24650Y-38000D02*
X24650Y-41500D01*
X24650Y-41500D02*
X21850Y-41500D01*
X21850Y-41500D02*
X21850Y-32500D01*
X21850Y-32500D02*
X24650Y-32500D01*
X24650Y-32500D02*
X24650Y-36000D01*
X24650Y-36000D02*
X24950Y-36000D01*
X24950Y-44400D02*
X21550Y-44400D01*
X23750Y-40600D02*
X23450Y-41100D01*
X23450Y-41100D02*
X24050Y-41100D01*
X24050Y-41100D02*
X23750Y-40600D01*
G54D12*
X55500Y-27750D02*
X47500Y-27750D01*
X47500Y-25750D02*
X55500Y-25750D01*
X55500Y-25750D02*
X55500Y-27750D01*
X55500Y-27250D02*
X55000Y-27250D01*
X55000Y-27250D02*
X55000Y-26250D01*
X55000Y-26250D02*
X55500Y-26250D01*
X47500Y-27750D02*
X47500Y-25750D01*
X37750Y-37000D02*
X37250Y-37000D01*
X37250Y-37000D02*
X37250Y-36000D01*
X37250Y-36000D02*
X37750Y-36000D01*
X37750Y-37500D02*
X33750Y-37500D01*
X33750Y-37500D02*
X33750Y-35500D01*
X33750Y-35500D02*
X37750Y-35500D01*
X37750Y-35500D02*
X37750Y-37500D01*
G54D11*
X29750Y-49750D02*
X31250Y-51250D01*
X31250Y-51250D02*
X31750Y-51250D01*
X31750Y-51250D02*
X32250Y-50750D01*
X32250Y-50750D02*
X32250Y-49750D01*
X32250Y-49750D02*
X31250Y-48750D01*
X31250Y-48750D02*
X30250Y-48750D01*
X30250Y-48750D02*
X29750Y-49250D01*
X29750Y-49250D02*
X29750Y-49750D01*
G54D12*
X42750Y-33250D02*
X62750Y-33250D01*
X62750Y-33250D02*
X62750Y-43250D01*
X62750Y-43250D02*
X42750Y-43250D01*
X42750Y-43250D02*
X42750Y-33250D01*
G54D14*
X36657Y-26083D02*
X36657Y-26650D01*
X36679Y-26717D01*
X36700Y-26750D01*
X36743Y-26783D01*
X36829Y-26783D01*
X36871Y-26750D01*
X36893Y-26717D01*
X36914Y-26650D01*
X36914Y-26083D01*
X37321Y-26317D02*
X37321Y-26783D01*
X37214Y-26050D02*
X37107Y-26550D01*
X37385Y-26550D01*
G54D15*
X34312Y-29783D02*
X34312Y-29083D01*
X34312Y-29417D02*
X34541Y-29417D01*
X34541Y-29783D02*
X34541Y-29083D01*
X34960Y-29717D02*
X34941Y-29750D01*
X34884Y-29783D01*
X34846Y-29783D01*
X34788Y-29750D01*
X34750Y-29683D01*
X34731Y-29617D01*
X34712Y-29483D01*
X34712Y-29383D01*
X34731Y-29250D01*
X34750Y-29183D01*
X34788Y-29117D01*
X34846Y-29083D01*
X34884Y-29083D01*
X34941Y-29117D01*
X34960Y-29150D01*
X35131Y-29783D02*
X35131Y-29083D01*
X35284Y-29083D01*
X35322Y-29117D01*
X35341Y-29150D01*
X35360Y-29217D01*
X35360Y-29317D01*
X35341Y-29383D01*
X35322Y-29417D01*
X35284Y-29450D01*
X35131Y-29450D01*
X35722Y-29783D02*
X35531Y-29783D01*
X35531Y-29083D01*
X35836Y-29150D02*
X35855Y-29117D01*
X35893Y-29083D01*
X35989Y-29083D01*
X36027Y-29117D01*
X36046Y-29150D01*
X36065Y-29217D01*
X36065Y-29283D01*
X36046Y-29383D01*
X35817Y-29783D01*
X36065Y-29783D01*
X36427Y-29083D02*
X36236Y-29083D01*
X36217Y-29417D01*
X36236Y-29383D01*
X36274Y-29350D01*
X36370Y-29350D01*
X36408Y-29383D01*
X36427Y-29417D01*
X36446Y-29483D01*
X36446Y-29650D01*
X36427Y-29717D01*
X36408Y-29750D01*
X36370Y-29783D01*
X36274Y-29783D01*
X36236Y-29750D01*
X36217Y-29717D01*
X36579Y-29083D02*
X36827Y-29083D01*
X36693Y-29350D01*
X36751Y-29350D01*
X36789Y-29383D01*
X36808Y-29417D01*
X36827Y-29483D01*
X36827Y-29650D01*
X36808Y-29717D01*
X36789Y-29750D01*
X36751Y-29783D01*
X36636Y-29783D01*
X36598Y-29750D01*
X36579Y-29717D01*
X37208Y-29783D02*
X36979Y-29783D01*
X37093Y-29783D02*
X37093Y-29083D01*
X37055Y-29183D01*
X37017Y-29250D01*
X36979Y-29283D01*
G54D16*
X39124Y-50066D02*
X39143Y-50085D01*
X39162Y-50142D01*
X39162Y-50180D01*
X39143Y-50238D01*
X39105Y-50276D01*
X39067Y-50295D01*
X38990Y-50314D01*
X38933Y-50314D01*
X38857Y-50295D01*
X38819Y-50276D01*
X38781Y-50238D01*
X38762Y-50180D01*
X38762Y-50142D01*
X38781Y-50085D01*
X38800Y-50066D01*
X39162Y-49685D02*
X39162Y-49914D01*
X39162Y-49800D02*
X38762Y-49800D01*
X38819Y-49838D01*
X38857Y-49876D01*
X38876Y-49914D01*
X38053Y-52162D02*
X37824Y-52162D01*
X37938Y-52162D02*
X37938Y-51762D01*
X37900Y-51819D01*
X37862Y-51857D01*
X37824Y-51876D01*
X38300Y-51762D02*
X38339Y-51762D01*
X38377Y-51781D01*
X38396Y-51800D01*
X38415Y-51838D01*
X38434Y-51914D01*
X38434Y-52010D01*
X38415Y-52086D01*
X38396Y-52124D01*
X38377Y-52143D01*
X38339Y-52162D01*
X38300Y-52162D01*
X38262Y-52143D01*
X38243Y-52124D01*
X38224Y-52086D01*
X38205Y-52010D01*
X38205Y-51914D01*
X38224Y-51838D01*
X38243Y-51800D01*
X38262Y-51781D01*
X38300Y-51762D01*
X38681Y-51762D02*
X38720Y-51762D01*
X38758Y-51781D01*
X38777Y-51800D01*
X38796Y-51838D01*
X38815Y-51914D01*
X38815Y-52010D01*
X38796Y-52086D01*
X38777Y-52124D01*
X38758Y-52143D01*
X38720Y-52162D01*
X38681Y-52162D01*
X38643Y-52143D01*
X38624Y-52124D01*
X38605Y-52086D01*
X38586Y-52010D01*
X38586Y-51914D01*
X38605Y-51838D01*
X38624Y-51800D01*
X38643Y-51781D01*
X38681Y-51762D01*
X38986Y-51895D02*
X38986Y-52162D01*
X38986Y-51933D02*
X39005Y-51914D01*
X39043Y-51895D01*
X39101Y-51895D01*
X39139Y-51914D01*
X39158Y-51952D01*
X39158Y-52162D01*
G54D11*
X69333Y-34666D02*
X68633Y-34666D01*
X68633Y-34400D01*
X68667Y-34333D01*
X68700Y-34300D01*
X68767Y-34266D01*
X68867Y-34266D01*
X68933Y-34300D01*
X68967Y-34333D01*
X69000Y-34400D01*
X69000Y-34666D01*
X68700Y-34000D02*
X68667Y-33966D01*
X68633Y-33900D01*
X68633Y-33733D01*
X68667Y-33666D01*
X68700Y-33633D01*
X68767Y-33600D01*
X68833Y-33600D01*
X68933Y-33633D01*
X69333Y-34033D01*
X69333Y-33600D01*
X64033Y-42915D02*
X64033Y-42515D01*
X64733Y-42715D02*
X64033Y-42715D01*
X64733Y-42182D02*
X64700Y-42249D01*
X64667Y-42282D01*
X64600Y-42316D01*
X64400Y-42316D01*
X64333Y-42282D01*
X64300Y-42249D01*
X64267Y-42182D01*
X64267Y-42082D01*
X64300Y-42016D01*
X64333Y-41982D01*
X64400Y-41949D01*
X64600Y-41949D01*
X64667Y-41982D01*
X64700Y-42016D01*
X64733Y-42082D01*
X64733Y-42182D01*
X64733Y-41649D02*
X64033Y-41649D01*
X64033Y-41483D01*
X64067Y-41383D01*
X64133Y-41316D01*
X64200Y-41283D01*
X64333Y-41249D01*
X64433Y-41249D01*
X64567Y-41283D01*
X64633Y-41316D01*
X64700Y-41383D01*
X64733Y-41483D01*
X64733Y-41649D01*
X64733Y-40949D02*
X64267Y-40949D01*
X64400Y-40949D02*
X64333Y-40916D01*
X64300Y-40883D01*
X64267Y-40816D01*
X64267Y-40749D01*
X64733Y-40516D02*
X64267Y-40516D01*
X64033Y-40516D02*
X64067Y-40550D01*
X64100Y-40516D01*
X64067Y-40483D01*
X64033Y-40516D01*
X64100Y-40516D01*
X64267Y-40250D02*
X64733Y-40083D01*
X64267Y-39917D01*
X64700Y-39384D02*
X64733Y-39450D01*
X64733Y-39584D01*
X64700Y-39650D01*
X64633Y-39684D01*
X64367Y-39684D01*
X64300Y-39650D01*
X64267Y-39584D01*
X64267Y-39450D01*
X64300Y-39384D01*
X64367Y-39350D01*
X64433Y-39350D01*
X64500Y-39684D01*
X64733Y-39050D02*
X64267Y-39050D01*
X64400Y-39050D02*
X64333Y-39017D01*
X64300Y-38984D01*
X64267Y-38917D01*
X64267Y-38850D01*
X64733Y-38251D02*
X64733Y-38651D01*
X64733Y-38451D02*
X64033Y-38451D01*
X64133Y-38517D01*
X64200Y-38584D01*
X64233Y-38651D01*
X49058Y-51243D02*
X49058Y-50643D01*
X49201Y-50643D01*
X49286Y-50671D01*
X49344Y-50729D01*
X49372Y-50786D01*
X49401Y-50900D01*
X49401Y-50986D01*
X49372Y-51100D01*
X49344Y-51157D01*
X49286Y-51214D01*
X49201Y-51243D01*
X49058Y-51243D01*
X49629Y-50700D02*
X49658Y-50671D01*
X49715Y-50643D01*
X49858Y-50643D01*
X49915Y-50671D01*
X49944Y-50700D01*
X49972Y-50757D01*
X49972Y-50814D01*
X49944Y-50900D01*
X49601Y-51243D01*
X49972Y-51243D01*
X48428Y-47143D02*
X48428Y-47571D01*
X48400Y-47657D01*
X48343Y-47714D01*
X48257Y-47743D01*
X48200Y-47743D01*
X48685Y-47571D02*
X48971Y-47571D01*
X48628Y-47743D02*
X48828Y-47143D01*
X49028Y-47743D01*
X49228Y-47143D02*
X49228Y-47629D01*
X49256Y-47686D01*
X49285Y-47714D01*
X49342Y-47743D01*
X49456Y-47743D01*
X49514Y-47714D01*
X49542Y-47686D01*
X49571Y-47629D01*
X49571Y-47143D01*
X49857Y-47743D02*
X49857Y-47143D01*
X50200Y-47743D01*
X50200Y-47143D01*
X50486Y-47429D02*
X50686Y-47429D01*
X50772Y-47743D02*
X50486Y-47743D01*
X50486Y-47143D01*
X50772Y-47143D01*
X28558Y-46743D02*
X28558Y-46143D01*
X28701Y-46143D01*
X28786Y-46171D01*
X28844Y-46229D01*
X28872Y-46286D01*
X28901Y-46400D01*
X28901Y-46486D01*
X28872Y-46600D01*
X28844Y-46657D01*
X28786Y-46714D01*
X28701Y-46743D01*
X28558Y-46743D01*
X29472Y-46743D02*
X29129Y-46743D01*
X29301Y-46743D02*
X29301Y-46143D01*
X29244Y-46229D01*
X29186Y-46286D01*
X29129Y-46314D01*
X30115Y-48243D02*
X29915Y-47957D01*
X29772Y-48243D02*
X29772Y-47643D01*
X30000Y-47643D01*
X30058Y-47671D01*
X30086Y-47700D01*
X30115Y-47757D01*
X30115Y-47843D01*
X30086Y-47900D01*
X30058Y-47929D01*
X30000Y-47957D01*
X29772Y-47957D01*
X30372Y-47929D02*
X30572Y-47929D01*
X30658Y-48243D02*
X30372Y-48243D01*
X30372Y-47643D01*
X30658Y-47643D01*
X30915Y-48243D02*
X30915Y-47643D01*
X31058Y-47643D01*
X31143Y-47671D01*
X31201Y-47729D01*
X31229Y-47786D01*
X31258Y-47900D01*
X31258Y-47986D01*
X31229Y-48100D01*
X31201Y-48157D01*
X31143Y-48214D01*
X31058Y-48243D01*
X30915Y-48243D01*
G54D16*
X31417Y-30223D02*
X31250Y-29961D01*
X31131Y-30223D02*
X31131Y-29673D01*
X31322Y-29673D01*
X31369Y-29699D01*
X31393Y-29725D01*
X31417Y-29777D01*
X31417Y-29856D01*
X31393Y-29908D01*
X31369Y-29935D01*
X31322Y-29961D01*
X31131Y-29961D01*
X31845Y-29673D02*
X31750Y-29673D01*
X31702Y-29699D01*
X31679Y-29725D01*
X31631Y-29804D01*
X31607Y-29908D01*
X31607Y-30118D01*
X31631Y-30170D01*
X31655Y-30196D01*
X31702Y-30223D01*
X31798Y-30223D01*
X31845Y-30196D01*
X31869Y-30170D01*
X31893Y-30118D01*
X31893Y-29987D01*
X31869Y-29935D01*
X31845Y-29908D01*
X31798Y-29882D01*
X31702Y-29882D01*
X31655Y-29908D01*
X31631Y-29935D01*
X31607Y-29987D01*
X30857Y-28923D02*
X31167Y-28923D01*
X31000Y-29132D01*
X31072Y-29132D01*
X31119Y-29158D01*
X31143Y-29185D01*
X31167Y-29237D01*
X31167Y-29368D01*
X31143Y-29420D01*
X31119Y-29446D01*
X31072Y-29473D01*
X30929Y-29473D01*
X30881Y-29446D01*
X30857Y-29420D01*
X31595Y-28923D02*
X31500Y-28923D01*
X31452Y-28949D01*
X31429Y-28975D01*
X31381Y-29054D01*
X31357Y-29158D01*
X31357Y-29368D01*
X31381Y-29420D01*
X31405Y-29446D01*
X31452Y-29473D01*
X31548Y-29473D01*
X31595Y-29446D01*
X31619Y-29420D01*
X31643Y-29368D01*
X31643Y-29237D01*
X31619Y-29185D01*
X31595Y-29158D01*
X31548Y-29132D01*
X31452Y-29132D01*
X31405Y-29158D01*
X31381Y-29185D01*
X31357Y-29237D01*
X31952Y-28923D02*
X32000Y-28923D01*
X32048Y-28949D01*
X32071Y-28975D01*
X32095Y-29027D01*
X32119Y-29132D01*
X32119Y-29263D01*
X32095Y-29368D01*
X32071Y-29420D01*
X32048Y-29446D01*
X32000Y-29473D01*
X31952Y-29473D01*
X31905Y-29446D01*
X31881Y-29420D01*
X31857Y-29368D01*
X31833Y-29263D01*
X31833Y-29132D01*
X31857Y-29027D01*
X31881Y-28975D01*
X31905Y-28949D01*
X31952Y-28923D01*
X31417Y-27223D02*
X31250Y-26961D01*
X31131Y-27223D02*
X31131Y-26673D01*
X31322Y-26673D01*
X31369Y-26699D01*
X31393Y-26725D01*
X31417Y-26777D01*
X31417Y-26856D01*
X31393Y-26908D01*
X31369Y-26935D01*
X31322Y-26961D01*
X31131Y-26961D01*
X31869Y-26673D02*
X31631Y-26673D01*
X31607Y-26935D01*
X31631Y-26908D01*
X31679Y-26882D01*
X31798Y-26882D01*
X31845Y-26908D01*
X31869Y-26935D01*
X31893Y-26987D01*
X31893Y-27118D01*
X31869Y-27170D01*
X31845Y-27196D01*
X31798Y-27223D01*
X31679Y-27223D01*
X31631Y-27196D01*
X31607Y-27170D01*
X30857Y-27673D02*
X31167Y-27673D01*
X31000Y-27882D01*
X31072Y-27882D01*
X31119Y-27908D01*
X31143Y-27935D01*
X31167Y-27987D01*
X31167Y-28118D01*
X31143Y-28170D01*
X31119Y-28196D01*
X31072Y-28223D01*
X30929Y-28223D01*
X30881Y-28196D01*
X30857Y-28170D01*
X31595Y-27673D02*
X31500Y-27673D01*
X31452Y-27699D01*
X31429Y-27725D01*
X31381Y-27804D01*
X31357Y-27908D01*
X31357Y-28118D01*
X31381Y-28170D01*
X31405Y-28196D01*
X31452Y-28223D01*
X31548Y-28223D01*
X31595Y-28196D01*
X31619Y-28170D01*
X31643Y-28118D01*
X31643Y-27987D01*
X31619Y-27935D01*
X31595Y-27908D01*
X31548Y-27882D01*
X31452Y-27882D01*
X31405Y-27908D01*
X31381Y-27935D01*
X31357Y-27987D01*
X31952Y-27673D02*
X32000Y-27673D01*
X32048Y-27699D01*
X32071Y-27725D01*
X32095Y-27777D01*
X32119Y-27882D01*
X32119Y-28013D01*
X32095Y-28118D01*
X32071Y-28170D01*
X32048Y-28196D01*
X32000Y-28223D01*
X31952Y-28223D01*
X31905Y-28196D01*
X31881Y-28170D01*
X31857Y-28118D01*
X31833Y-28013D01*
X31833Y-27882D01*
X31857Y-27777D01*
X31881Y-27725D01*
X31905Y-27699D01*
X31952Y-27673D01*
X46417Y-48723D02*
X46250Y-48461D01*
X46131Y-48723D02*
X46131Y-48173D01*
X46322Y-48173D01*
X46369Y-48199D01*
X46393Y-48225D01*
X46417Y-48277D01*
X46417Y-48356D01*
X46393Y-48408D01*
X46369Y-48435D01*
X46322Y-48461D01*
X46131Y-48461D01*
X46845Y-48356D02*
X46845Y-48723D01*
X46726Y-48146D02*
X46607Y-48539D01*
X46917Y-48539D01*
X47423Y-49357D02*
X47423Y-49595D01*
X47685Y-49619D01*
X47658Y-49595D01*
X47632Y-49547D01*
X47632Y-49428D01*
X47658Y-49381D01*
X47685Y-49357D01*
X47737Y-49333D01*
X47868Y-49333D01*
X47920Y-49357D01*
X47946Y-49381D01*
X47973Y-49428D01*
X47973Y-49547D01*
X47946Y-49595D01*
X47920Y-49619D01*
X47423Y-49024D02*
X47423Y-48976D01*
X47449Y-48928D01*
X47475Y-48905D01*
X47527Y-48881D01*
X47632Y-48857D01*
X47763Y-48857D01*
X47868Y-48881D01*
X47920Y-48905D01*
X47946Y-48928D01*
X47973Y-48976D01*
X47973Y-49024D01*
X47946Y-49071D01*
X47920Y-49095D01*
X47868Y-49119D01*
X47763Y-49143D01*
X47632Y-49143D01*
X47527Y-49119D01*
X47475Y-49095D01*
X47449Y-49071D01*
X47423Y-49024D01*
X47423Y-48548D02*
X47423Y-48500D01*
X47449Y-48452D01*
X47475Y-48429D01*
X47527Y-48405D01*
X47632Y-48381D01*
X47763Y-48381D01*
X47868Y-48405D01*
X47920Y-48429D01*
X47946Y-48452D01*
X47973Y-48500D01*
X47973Y-48548D01*
X47946Y-48595D01*
X47920Y-48619D01*
X47868Y-48643D01*
X47763Y-48667D01*
X47632Y-48667D01*
X47527Y-48643D01*
X47475Y-48619D01*
X47449Y-48595D01*
X47423Y-48548D01*
X27723Y-39083D02*
X27461Y-39250D01*
X27723Y-39369D02*
X27173Y-39369D01*
X27173Y-39178D01*
X27199Y-39131D01*
X27225Y-39107D01*
X27277Y-39083D01*
X27356Y-39083D01*
X27408Y-39107D01*
X27435Y-39131D01*
X27461Y-39178D01*
X27461Y-39369D01*
X27173Y-38917D02*
X27173Y-38607D01*
X27382Y-38774D01*
X27382Y-38702D01*
X27408Y-38655D01*
X27435Y-38631D01*
X27487Y-38607D01*
X27618Y-38607D01*
X27670Y-38631D01*
X27696Y-38655D01*
X27723Y-38702D01*
X27723Y-38845D01*
X27696Y-38893D01*
X27670Y-38917D01*
X26723Y-39297D02*
X26723Y-39583D01*
X26723Y-39440D02*
X26173Y-39440D01*
X26251Y-39488D01*
X26304Y-39535D01*
X26330Y-39583D01*
X26173Y-38988D02*
X26173Y-38940D01*
X26199Y-38892D01*
X26225Y-38869D01*
X26277Y-38845D01*
X26382Y-38821D01*
X26513Y-38821D01*
X26618Y-38845D01*
X26670Y-38869D01*
X26696Y-38892D01*
X26723Y-38940D01*
X26723Y-38988D01*
X26696Y-39035D01*
X26670Y-39059D01*
X26618Y-39083D01*
X26513Y-39107D01*
X26382Y-39107D01*
X26277Y-39083D01*
X26225Y-39059D01*
X26199Y-39035D01*
X26173Y-38988D01*
X26723Y-38607D02*
X26173Y-38607D01*
X26513Y-38559D02*
X26723Y-38416D01*
X26356Y-38416D02*
X26565Y-38607D01*
X31917Y-45723D02*
X31750Y-45461D01*
X31631Y-45723D02*
X31631Y-45173D01*
X31822Y-45173D01*
X31869Y-45199D01*
X31893Y-45225D01*
X31917Y-45277D01*
X31917Y-45356D01*
X31893Y-45408D01*
X31869Y-45435D01*
X31822Y-45461D01*
X31631Y-45461D01*
X32107Y-45225D02*
X32131Y-45199D01*
X32179Y-45173D01*
X32298Y-45173D01*
X32345Y-45199D01*
X32369Y-45225D01*
X32393Y-45277D01*
X32393Y-45330D01*
X32369Y-45408D01*
X32083Y-45723D01*
X32393Y-45723D01*
X31143Y-44173D02*
X30905Y-44173D01*
X30881Y-44435D01*
X30905Y-44408D01*
X30953Y-44382D01*
X31072Y-44382D01*
X31119Y-44408D01*
X31143Y-44435D01*
X31167Y-44487D01*
X31167Y-44618D01*
X31143Y-44670D01*
X31119Y-44696D01*
X31072Y-44723D01*
X30953Y-44723D01*
X30905Y-44696D01*
X30881Y-44670D01*
X31476Y-44173D02*
X31524Y-44173D01*
X31572Y-44199D01*
X31595Y-44225D01*
X31619Y-44277D01*
X31643Y-44382D01*
X31643Y-44513D01*
X31619Y-44618D01*
X31595Y-44670D01*
X31572Y-44696D01*
X31524Y-44723D01*
X31476Y-44723D01*
X31429Y-44696D01*
X31405Y-44670D01*
X31381Y-44618D01*
X31357Y-44513D01*
X31357Y-44382D01*
X31381Y-44277D01*
X31405Y-44225D01*
X31429Y-44199D01*
X31476Y-44173D01*
X31952Y-44173D02*
X32000Y-44173D01*
X32048Y-44199D01*
X32071Y-44225D01*
X32095Y-44277D01*
X32119Y-44382D01*
X32119Y-44513D01*
X32095Y-44618D01*
X32071Y-44670D01*
X32048Y-44696D01*
X32000Y-44723D01*
X31952Y-44723D01*
X31905Y-44696D01*
X31881Y-44670D01*
X31857Y-44618D01*
X31833Y-44513D01*
X31833Y-44382D01*
X31857Y-44277D01*
X31881Y-44225D01*
X31905Y-44199D01*
X31952Y-44173D01*
X63223Y-37083D02*
X62961Y-37250D01*
X63223Y-37369D02*
X62673Y-37369D01*
X62673Y-37178D01*
X62699Y-37131D01*
X62725Y-37107D01*
X62777Y-37083D01*
X62856Y-37083D01*
X62908Y-37107D01*
X62935Y-37131D01*
X62961Y-37178D01*
X62961Y-37369D01*
X63223Y-36607D02*
X63223Y-36893D01*
X63223Y-36750D02*
X62673Y-36750D01*
X62751Y-36798D01*
X62804Y-36845D01*
X62830Y-36893D01*
X63973Y-37547D02*
X63973Y-37833D01*
X63973Y-37690D02*
X63423Y-37690D01*
X63501Y-37738D01*
X63554Y-37785D01*
X63580Y-37833D01*
X63423Y-37238D02*
X63423Y-37190D01*
X63449Y-37142D01*
X63475Y-37119D01*
X63527Y-37095D01*
X63632Y-37071D01*
X63763Y-37071D01*
X63868Y-37095D01*
X63920Y-37119D01*
X63946Y-37142D01*
X63973Y-37190D01*
X63973Y-37238D01*
X63946Y-37285D01*
X63920Y-37309D01*
X63868Y-37333D01*
X63763Y-37357D01*
X63632Y-37357D01*
X63527Y-37333D01*
X63475Y-37309D01*
X63449Y-37285D01*
X63423Y-37238D01*
X63973Y-36857D02*
X63423Y-36857D01*
X63763Y-36809D02*
X63973Y-36666D01*
X63606Y-36666D02*
X63815Y-36857D01*
X38434Y-41624D02*
X38415Y-41643D01*
X38358Y-41662D01*
X38320Y-41662D01*
X38262Y-41643D01*
X38224Y-41605D01*
X38205Y-41567D01*
X38186Y-41490D01*
X38186Y-41433D01*
X38205Y-41357D01*
X38224Y-41319D01*
X38262Y-41281D01*
X38320Y-41262D01*
X38358Y-41262D01*
X38415Y-41281D01*
X38434Y-41300D01*
X38662Y-41433D02*
X38624Y-41414D01*
X38605Y-41395D01*
X38586Y-41357D01*
X38586Y-41338D01*
X38605Y-41300D01*
X38624Y-41281D01*
X38662Y-41262D01*
X38739Y-41262D01*
X38777Y-41281D01*
X38796Y-41300D01*
X38815Y-41338D01*
X38815Y-41357D01*
X38796Y-41395D01*
X38777Y-41414D01*
X38739Y-41433D01*
X38662Y-41433D01*
X38624Y-41452D01*
X38605Y-41471D01*
X38586Y-41510D01*
X38586Y-41586D01*
X38605Y-41624D01*
X38624Y-41643D01*
X38662Y-41662D01*
X38739Y-41662D01*
X38777Y-41643D01*
X38796Y-41624D01*
X38815Y-41586D01*
X38815Y-41510D01*
X38796Y-41471D01*
X38777Y-41452D01*
X38739Y-41433D01*
X38053Y-45662D02*
X37824Y-45662D01*
X37938Y-45662D02*
X37938Y-45262D01*
X37900Y-45319D01*
X37862Y-45357D01*
X37824Y-45376D01*
X38300Y-45262D02*
X38339Y-45262D01*
X38377Y-45281D01*
X38396Y-45300D01*
X38415Y-45338D01*
X38434Y-45414D01*
X38434Y-45510D01*
X38415Y-45586D01*
X38396Y-45624D01*
X38377Y-45643D01*
X38339Y-45662D01*
X38300Y-45662D01*
X38262Y-45643D01*
X38243Y-45624D01*
X38224Y-45586D01*
X38205Y-45510D01*
X38205Y-45414D01*
X38224Y-45338D01*
X38243Y-45300D01*
X38262Y-45281D01*
X38300Y-45262D01*
X38681Y-45262D02*
X38720Y-45262D01*
X38758Y-45281D01*
X38777Y-45300D01*
X38796Y-45338D01*
X38815Y-45414D01*
X38815Y-45510D01*
X38796Y-45586D01*
X38777Y-45624D01*
X38758Y-45643D01*
X38720Y-45662D01*
X38681Y-45662D01*
X38643Y-45643D01*
X38624Y-45624D01*
X38605Y-45586D01*
X38586Y-45510D01*
X38586Y-45414D01*
X38605Y-45338D01*
X38624Y-45300D01*
X38643Y-45281D01*
X38681Y-45262D01*
X38986Y-45395D02*
X38986Y-45662D01*
X38986Y-45433D02*
X39005Y-45414D01*
X39043Y-45395D01*
X39101Y-45395D01*
X39139Y-45414D01*
X39158Y-45452D01*
X39158Y-45662D01*
X31417Y-37223D02*
X31250Y-36961D01*
X31131Y-37223D02*
X31131Y-36673D01*
X31322Y-36673D01*
X31369Y-36699D01*
X31393Y-36725D01*
X31417Y-36777D01*
X31417Y-36856D01*
X31393Y-36908D01*
X31369Y-36935D01*
X31322Y-36961D01*
X31131Y-36961D01*
X31583Y-36673D02*
X31917Y-36673D01*
X31702Y-37223D01*
X30857Y-35923D02*
X31167Y-35923D01*
X31000Y-36132D01*
X31072Y-36132D01*
X31119Y-36158D01*
X31143Y-36185D01*
X31167Y-36237D01*
X31167Y-36368D01*
X31143Y-36420D01*
X31119Y-36446D01*
X31072Y-36473D01*
X30929Y-36473D01*
X30881Y-36446D01*
X30857Y-36420D01*
X31595Y-35923D02*
X31500Y-35923D01*
X31452Y-35949D01*
X31429Y-35975D01*
X31381Y-36054D01*
X31357Y-36158D01*
X31357Y-36368D01*
X31381Y-36420D01*
X31405Y-36446D01*
X31452Y-36473D01*
X31548Y-36473D01*
X31595Y-36446D01*
X31619Y-36420D01*
X31643Y-36368D01*
X31643Y-36237D01*
X31619Y-36185D01*
X31595Y-36158D01*
X31548Y-36132D01*
X31452Y-36132D01*
X31405Y-36158D01*
X31381Y-36185D01*
X31357Y-36237D01*
X31952Y-35923D02*
X32000Y-35923D01*
X32048Y-35949D01*
X32071Y-35975D01*
X32095Y-36027D01*
X32119Y-36132D01*
X32119Y-36263D01*
X32095Y-36368D01*
X32071Y-36420D01*
X32048Y-36446D01*
X32000Y-36473D01*
X31952Y-36473D01*
X31905Y-36446D01*
X31881Y-36420D01*
X31857Y-36368D01*
X31833Y-36263D01*
X31833Y-36132D01*
X31857Y-36027D01*
X31881Y-35975D01*
X31905Y-35949D01*
X31952Y-35923D01*
X31417Y-34223D02*
X31250Y-33961D01*
X31131Y-34223D02*
X31131Y-33673D01*
X31322Y-33673D01*
X31369Y-33699D01*
X31393Y-33725D01*
X31417Y-33777D01*
X31417Y-33856D01*
X31393Y-33908D01*
X31369Y-33935D01*
X31322Y-33961D01*
X31131Y-33961D01*
X31702Y-33908D02*
X31655Y-33882D01*
X31631Y-33856D01*
X31607Y-33804D01*
X31607Y-33777D01*
X31631Y-33725D01*
X31655Y-33699D01*
X31702Y-33673D01*
X31798Y-33673D01*
X31845Y-33699D01*
X31869Y-33725D01*
X31893Y-33777D01*
X31893Y-33804D01*
X31869Y-33856D01*
X31845Y-33882D01*
X31798Y-33908D01*
X31702Y-33908D01*
X31655Y-33935D01*
X31631Y-33961D01*
X31607Y-34013D01*
X31607Y-34118D01*
X31631Y-34170D01*
X31655Y-34196D01*
X31702Y-34223D01*
X31798Y-34223D01*
X31845Y-34196D01*
X31869Y-34170D01*
X31893Y-34118D01*
X31893Y-34013D01*
X31869Y-33961D01*
X31845Y-33935D01*
X31798Y-33908D01*
X30857Y-34673D02*
X31167Y-34673D01*
X31000Y-34882D01*
X31072Y-34882D01*
X31119Y-34908D01*
X31143Y-34935D01*
X31167Y-34987D01*
X31167Y-35118D01*
X31143Y-35170D01*
X31119Y-35196D01*
X31072Y-35223D01*
X30929Y-35223D01*
X30881Y-35196D01*
X30857Y-35170D01*
X31595Y-34673D02*
X31500Y-34673D01*
X31452Y-34699D01*
X31429Y-34725D01*
X31381Y-34804D01*
X31357Y-34908D01*
X31357Y-35118D01*
X31381Y-35170D01*
X31405Y-35196D01*
X31452Y-35223D01*
X31548Y-35223D01*
X31595Y-35196D01*
X31619Y-35170D01*
X31643Y-35118D01*
X31643Y-34987D01*
X31619Y-34935D01*
X31595Y-34908D01*
X31548Y-34882D01*
X31452Y-34882D01*
X31405Y-34908D01*
X31381Y-34935D01*
X31357Y-34987D01*
X31952Y-34673D02*
X32000Y-34673D01*
X32048Y-34699D01*
X32071Y-34725D01*
X32095Y-34777D01*
X32119Y-34882D01*
X32119Y-35013D01*
X32095Y-35118D01*
X32071Y-35170D01*
X32048Y-35196D01*
X32000Y-35223D01*
X31952Y-35223D01*
X31905Y-35196D01*
X31881Y-35170D01*
X31857Y-35118D01*
X31833Y-35013D01*
X31833Y-34882D01*
X31857Y-34777D01*
X31881Y-34725D01*
X31905Y-34699D01*
X31952Y-34673D01*
G54D17*
X43184Y-50275D02*
X43184Y-49594D01*
X43347Y-49594D01*
X43388Y-49627D01*
X43408Y-49659D01*
X43428Y-49724D01*
X43428Y-49821D01*
X43408Y-49886D01*
X43388Y-49918D01*
X43347Y-49951D01*
X43184Y-49951D01*
X43836Y-50275D02*
X43592Y-50275D01*
X43714Y-50275D02*
X43714Y-49594D01*
X43673Y-49691D01*
X43632Y-49756D01*
X43592Y-49789D01*
G54D15*
X43169Y-47571D02*
X43360Y-47571D01*
X43131Y-47743D02*
X43264Y-47143D01*
X43398Y-47743D01*
X43722Y-47743D02*
X43531Y-47743D01*
X43531Y-47143D01*
X43855Y-47743D02*
X43855Y-47143D01*
X44045Y-47743D02*
X44045Y-47143D01*
X44179Y-47571D01*
X44312Y-47143D01*
X44312Y-47743D01*
G54D14*
X33657Y-40583D02*
X33657Y-41150D01*
X33679Y-41217D01*
X33700Y-41250D01*
X33743Y-41283D01*
X33829Y-41283D01*
X33871Y-41250D01*
X33893Y-41217D01*
X33914Y-41150D01*
X33914Y-40583D01*
X34321Y-40583D02*
X34235Y-40583D01*
X34192Y-40617D01*
X34171Y-40650D01*
X34128Y-40750D01*
X34107Y-40883D01*
X34107Y-41150D01*
X34128Y-41217D01*
X34150Y-41250D01*
X34192Y-41283D01*
X34278Y-41283D01*
X34321Y-41250D01*
X34342Y-41217D01*
X34364Y-41150D01*
X34364Y-40983D01*
X34342Y-40917D01*
X34321Y-40883D01*
X34278Y-40850D01*
X34192Y-40850D01*
X34150Y-40883D01*
X34128Y-40917D01*
X34107Y-40983D01*
G54D15*
X34312Y-43783D02*
X34312Y-43083D01*
X34312Y-43417D02*
X34541Y-43417D01*
X34541Y-43783D02*
X34541Y-43083D01*
X34960Y-43717D02*
X34941Y-43750D01*
X34884Y-43783D01*
X34846Y-43783D01*
X34788Y-43750D01*
X34750Y-43683D01*
X34731Y-43617D01*
X34712Y-43483D01*
X34712Y-43383D01*
X34731Y-43250D01*
X34750Y-43183D01*
X34788Y-43117D01*
X34846Y-43083D01*
X34884Y-43083D01*
X34941Y-43117D01*
X34960Y-43150D01*
X35131Y-43783D02*
X35131Y-43083D01*
X35284Y-43083D01*
X35322Y-43117D01*
X35341Y-43150D01*
X35360Y-43217D01*
X35360Y-43317D01*
X35341Y-43383D01*
X35322Y-43417D01*
X35284Y-43450D01*
X35131Y-43450D01*
X35722Y-43783D02*
X35531Y-43783D01*
X35531Y-43083D01*
X35836Y-43150D02*
X35855Y-43117D01*
X35893Y-43083D01*
X35989Y-43083D01*
X36027Y-43117D01*
X36046Y-43150D01*
X36065Y-43217D01*
X36065Y-43283D01*
X36046Y-43383D01*
X35817Y-43783D01*
X36065Y-43783D01*
X36408Y-43083D02*
X36331Y-43083D01*
X36293Y-43117D01*
X36274Y-43150D01*
X36236Y-43250D01*
X36217Y-43383D01*
X36217Y-43650D01*
X36236Y-43717D01*
X36255Y-43750D01*
X36293Y-43783D01*
X36370Y-43783D01*
X36408Y-43750D01*
X36427Y-43717D01*
X36446Y-43650D01*
X36446Y-43483D01*
X36427Y-43417D01*
X36408Y-43383D01*
X36370Y-43350D01*
X36293Y-43350D01*
X36255Y-43383D01*
X36236Y-43417D01*
X36217Y-43483D01*
X36579Y-43083D02*
X36827Y-43083D01*
X36693Y-43350D01*
X36751Y-43350D01*
X36789Y-43383D01*
X36808Y-43417D01*
X36827Y-43483D01*
X36827Y-43650D01*
X36808Y-43717D01*
X36789Y-43750D01*
X36751Y-43783D01*
X36636Y-43783D01*
X36598Y-43750D01*
X36579Y-43717D01*
X37074Y-43083D02*
X37113Y-43083D01*
X37151Y-43117D01*
X37170Y-43150D01*
X37189Y-43217D01*
X37208Y-43350D01*
X37208Y-43517D01*
X37189Y-43650D01*
X37170Y-43717D01*
X37151Y-43750D01*
X37113Y-43783D01*
X37074Y-43783D01*
X37036Y-43750D01*
X37017Y-43717D01*
X36998Y-43650D01*
X36979Y-43517D01*
X36979Y-43350D01*
X36998Y-43217D01*
X37017Y-43150D01*
X37036Y-43117D01*
X37074Y-43083D01*
G54D13*
X57807Y-25093D02*
X57793Y-25107D01*
X57750Y-25121D01*
X57721Y-25121D01*
X57678Y-25107D01*
X57650Y-25079D01*
X57635Y-25050D01*
X57621Y-24993D01*
X57621Y-24950D01*
X57635Y-24893D01*
X57650Y-24864D01*
X57678Y-24836D01*
X57721Y-24821D01*
X57750Y-24821D01*
X57793Y-24836D01*
X57807Y-24850D01*
X58093Y-25121D02*
X57921Y-25121D01*
X58007Y-25121D02*
X58007Y-24821D01*
X57978Y-24864D01*
X57950Y-24893D01*
X57921Y-24907D01*
X58193Y-24821D02*
X58379Y-24821D01*
X58279Y-24936D01*
X58321Y-24936D01*
X58350Y-24950D01*
X58364Y-24964D01*
X58379Y-24993D01*
X58379Y-25064D01*
X58364Y-25093D01*
X58350Y-25107D01*
X58321Y-25121D01*
X58236Y-25121D01*
X58207Y-25107D01*
X58193Y-25093D01*
X57958Y-28621D02*
X57816Y-28621D01*
X57887Y-28621D02*
X57887Y-28321D01*
X57863Y-28364D01*
X57839Y-28393D01*
X57816Y-28407D01*
X58173Y-28421D02*
X58173Y-28621D01*
X58066Y-28421D02*
X58066Y-28579D01*
X58077Y-28607D01*
X58101Y-28621D01*
X58137Y-28621D01*
X58161Y-28607D01*
X58173Y-28593D01*
X39807Y-28093D02*
X39793Y-28107D01*
X39750Y-28121D01*
X39721Y-28121D01*
X39678Y-28107D01*
X39650Y-28079D01*
X39635Y-28050D01*
X39621Y-27993D01*
X39621Y-27950D01*
X39635Y-27893D01*
X39650Y-27864D01*
X39678Y-27836D01*
X39721Y-27821D01*
X39750Y-27821D01*
X39793Y-27836D01*
X39807Y-27850D01*
X40093Y-28121D02*
X39921Y-28121D01*
X40007Y-28121D02*
X40007Y-27821D01*
X39978Y-27864D01*
X39950Y-27893D01*
X39921Y-27907D01*
X40379Y-28121D02*
X40207Y-28121D01*
X40293Y-28121D02*
X40293Y-27821D01*
X40264Y-27864D01*
X40236Y-27893D01*
X40207Y-27907D01*
X39958Y-31121D02*
X39816Y-31121D01*
X39887Y-31121D02*
X39887Y-30821D01*
X39863Y-30864D01*
X39839Y-30893D01*
X39816Y-30907D01*
X40173Y-30921D02*
X40173Y-31121D01*
X40066Y-30921D02*
X40066Y-31079D01*
X40077Y-31107D01*
X40101Y-31121D01*
X40137Y-31121D01*
X40161Y-31107D01*
X40173Y-31093D01*
G54D16*
X55743Y-25124D02*
X55724Y-25143D01*
X55667Y-25162D01*
X55629Y-25162D01*
X55571Y-25143D01*
X55533Y-25105D01*
X55514Y-25067D01*
X55495Y-24990D01*
X55495Y-24933D01*
X55514Y-24857D01*
X55533Y-24819D01*
X55571Y-24781D01*
X55629Y-24762D01*
X55667Y-24762D01*
X55724Y-24781D01*
X55743Y-24800D01*
X56124Y-25162D02*
X55895Y-25162D01*
X56009Y-25162D02*
X56009Y-24762D01*
X55971Y-24819D01*
X55933Y-24857D01*
X55895Y-24876D01*
X56467Y-24895D02*
X56467Y-25162D01*
X56371Y-24743D02*
X56276Y-25029D01*
X56524Y-25029D01*
X56053Y-29162D02*
X55824Y-29162D01*
X55938Y-29162D02*
X55938Y-28762D01*
X55900Y-28819D01*
X55862Y-28857D01*
X55824Y-28876D01*
X56300Y-28762D02*
X56339Y-28762D01*
X56377Y-28781D01*
X56396Y-28800D01*
X56415Y-28838D01*
X56434Y-28914D01*
X56434Y-29010D01*
X56415Y-29086D01*
X56396Y-29124D01*
X56377Y-29143D01*
X56339Y-29162D01*
X56300Y-29162D01*
X56262Y-29143D01*
X56243Y-29124D01*
X56224Y-29086D01*
X56205Y-29010D01*
X56205Y-28914D01*
X56224Y-28838D01*
X56243Y-28800D01*
X56262Y-28781D01*
X56300Y-28762D01*
X56681Y-28762D02*
X56720Y-28762D01*
X56758Y-28781D01*
X56777Y-28800D01*
X56796Y-28838D01*
X56815Y-28914D01*
X56815Y-29010D01*
X56796Y-29086D01*
X56777Y-29124D01*
X56758Y-29143D01*
X56720Y-29162D01*
X56681Y-29162D01*
X56643Y-29143D01*
X56624Y-29124D01*
X56605Y-29086D01*
X56586Y-29010D01*
X56586Y-28914D01*
X56605Y-28838D01*
X56624Y-28800D01*
X56643Y-28781D01*
X56681Y-28762D01*
X56986Y-28895D02*
X56986Y-29162D01*
X56986Y-28933D02*
X57005Y-28914D01*
X57043Y-28895D01*
X57101Y-28895D01*
X57139Y-28914D01*
X57158Y-28952D01*
X57158Y-29162D01*
X38243Y-27624D02*
X38224Y-27643D01*
X38167Y-27662D01*
X38129Y-27662D01*
X38071Y-27643D01*
X38033Y-27605D01*
X38014Y-27567D01*
X37995Y-27490D01*
X37995Y-27433D01*
X38014Y-27357D01*
X38033Y-27319D01*
X38071Y-27281D01*
X38129Y-27262D01*
X38167Y-27262D01*
X38224Y-27281D01*
X38243Y-27300D01*
X38624Y-27662D02*
X38395Y-27662D01*
X38509Y-27662D02*
X38509Y-27262D01*
X38471Y-27319D01*
X38433Y-27357D01*
X38395Y-27376D01*
X38776Y-27300D02*
X38795Y-27281D01*
X38833Y-27262D01*
X38929Y-27262D01*
X38967Y-27281D01*
X38986Y-27300D01*
X39005Y-27338D01*
X39005Y-27376D01*
X38986Y-27433D01*
X38757Y-27662D01*
X39005Y-27662D01*
X38053Y-31662D02*
X37824Y-31662D01*
X37938Y-31662D02*
X37938Y-31262D01*
X37900Y-31319D01*
X37862Y-31357D01*
X37824Y-31376D01*
X38300Y-31262D02*
X38339Y-31262D01*
X38377Y-31281D01*
X38396Y-31300D01*
X38415Y-31338D01*
X38434Y-31414D01*
X38434Y-31510D01*
X38415Y-31586D01*
X38396Y-31624D01*
X38377Y-31643D01*
X38339Y-31662D01*
X38300Y-31662D01*
X38262Y-31643D01*
X38243Y-31624D01*
X38224Y-31586D01*
X38205Y-31510D01*
X38205Y-31414D01*
X38224Y-31338D01*
X38243Y-31300D01*
X38262Y-31281D01*
X38300Y-31262D01*
X38681Y-31262D02*
X38720Y-31262D01*
X38758Y-31281D01*
X38777Y-31300D01*
X38796Y-31338D01*
X38815Y-31414D01*
X38815Y-31510D01*
X38796Y-31586D01*
X38777Y-31624D01*
X38758Y-31643D01*
X38720Y-31662D01*
X38681Y-31662D01*
X38643Y-31643D01*
X38624Y-31624D01*
X38605Y-31586D01*
X38586Y-31510D01*
X38586Y-31414D01*
X38605Y-31338D01*
X38624Y-31300D01*
X38643Y-31281D01*
X38681Y-31262D01*
X38986Y-31395D02*
X38986Y-31662D01*
X38986Y-31433D02*
X39005Y-31414D01*
X39043Y-31395D01*
X39101Y-31395D01*
X39139Y-31414D01*
X39158Y-31452D01*
X39158Y-31662D01*
X35179Y-47723D02*
X35012Y-47461D01*
X34893Y-47723D02*
X34893Y-47173D01*
X35084Y-47173D01*
X35131Y-47199D01*
X35155Y-47225D01*
X35179Y-47277D01*
X35179Y-47356D01*
X35155Y-47408D01*
X35131Y-47435D01*
X35084Y-47461D01*
X34893Y-47461D01*
X35655Y-47723D02*
X35369Y-47723D01*
X35512Y-47723D02*
X35512Y-47173D01*
X35464Y-47251D01*
X35417Y-47304D01*
X35369Y-47330D01*
X36107Y-47173D02*
X35869Y-47173D01*
X35845Y-47435D01*
X35869Y-47408D01*
X35917Y-47382D01*
X36036Y-47382D01*
X36083Y-47408D01*
X36107Y-47435D01*
X36131Y-47487D01*
X36131Y-47618D01*
X36107Y-47670D01*
X36083Y-47696D01*
X36036Y-47723D01*
X35917Y-47723D01*
X35869Y-47696D01*
X35845Y-47670D01*
X37953Y-47473D02*
X37667Y-47473D01*
X37810Y-47473D02*
X37810Y-46923D01*
X37762Y-47001D01*
X37715Y-47054D01*
X37667Y-47080D01*
X38262Y-46923D02*
X38310Y-46923D01*
X38358Y-46949D01*
X38381Y-46975D01*
X38405Y-47027D01*
X38429Y-47132D01*
X38429Y-47263D01*
X38405Y-47368D01*
X38381Y-47420D01*
X38358Y-47446D01*
X38310Y-47473D01*
X38262Y-47473D01*
X38215Y-47446D01*
X38191Y-47420D01*
X38167Y-47368D01*
X38143Y-47263D01*
X38143Y-47132D01*
X38167Y-47027D01*
X38191Y-46975D01*
X38215Y-46949D01*
X38262Y-46923D01*
X38643Y-47473D02*
X38643Y-46923D01*
X38691Y-47263D02*
X38834Y-47473D01*
X38834Y-47106D02*
X38643Y-47315D01*
X28179Y-42223D02*
X28012Y-41961D01*
X27893Y-42223D02*
X27893Y-41673D01*
X28084Y-41673D01*
X28131Y-41699D01*
X28155Y-41725D01*
X28179Y-41777D01*
X28179Y-41856D01*
X28155Y-41908D01*
X28131Y-41935D01*
X28084Y-41961D01*
X27893Y-41961D01*
X28655Y-42223D02*
X28369Y-42223D01*
X28512Y-42223D02*
X28512Y-41673D01*
X28464Y-41751D01*
X28417Y-41804D01*
X28369Y-41830D01*
X28964Y-41673D02*
X29012Y-41673D01*
X29060Y-41699D01*
X29083Y-41725D01*
X29107Y-41777D01*
X29131Y-41882D01*
X29131Y-42013D01*
X29107Y-42118D01*
X29083Y-42170D01*
X29060Y-42196D01*
X29012Y-42223D01*
X28964Y-42223D01*
X28917Y-42196D01*
X28893Y-42170D01*
X28869Y-42118D01*
X28845Y-42013D01*
X28845Y-41882D01*
X28869Y-41777D01*
X28893Y-41725D01*
X28917Y-41699D01*
X28964Y-41673D01*
X31441Y-42223D02*
X31155Y-42223D01*
X31298Y-42223D02*
X31298Y-41673D01*
X31250Y-41751D01*
X31203Y-41804D01*
X31155Y-41830D01*
X31655Y-42223D02*
X31655Y-41673D01*
X31703Y-42013D02*
X31846Y-42223D01*
X31846Y-41856D02*
X31655Y-42065D01*
X28417Y-43223D02*
X28250Y-42961D01*
X28131Y-43223D02*
X28131Y-42673D01*
X28322Y-42673D01*
X28369Y-42699D01*
X28393Y-42725D01*
X28417Y-42777D01*
X28417Y-42856D01*
X28393Y-42908D01*
X28369Y-42935D01*
X28322Y-42961D01*
X28131Y-42961D01*
X28655Y-43223D02*
X28750Y-43223D01*
X28798Y-43196D01*
X28822Y-43170D01*
X28869Y-43092D01*
X28893Y-42987D01*
X28893Y-42777D01*
X28869Y-42725D01*
X28845Y-42699D01*
X28798Y-42673D01*
X28702Y-42673D01*
X28655Y-42699D01*
X28631Y-42725D01*
X28607Y-42777D01*
X28607Y-42908D01*
X28631Y-42961D01*
X28655Y-42987D01*
X28702Y-43013D01*
X28798Y-43013D01*
X28845Y-42987D01*
X28869Y-42961D01*
X28893Y-42908D01*
X31441Y-43473D02*
X31155Y-43473D01*
X31298Y-43473D02*
X31298Y-42923D01*
X31250Y-43001D01*
X31203Y-43054D01*
X31155Y-43080D01*
X31655Y-43473D02*
X31655Y-42923D01*
X31703Y-43263D02*
X31846Y-43473D01*
X31846Y-43106D02*
X31655Y-43315D01*
X40679Y-33723D02*
X40512Y-33461D01*
X40393Y-33723D02*
X40393Y-33173D01*
X40584Y-33173D01*
X40631Y-33199D01*
X40655Y-33225D01*
X40679Y-33277D01*
X40679Y-33356D01*
X40655Y-33408D01*
X40631Y-33435D01*
X40584Y-33461D01*
X40393Y-33461D01*
X41155Y-33723D02*
X40869Y-33723D01*
X41012Y-33723D02*
X41012Y-33173D01*
X40964Y-33251D01*
X40917Y-33304D01*
X40869Y-33330D01*
X41345Y-33225D02*
X41369Y-33199D01*
X41417Y-33173D01*
X41536Y-33173D01*
X41583Y-33199D01*
X41607Y-33225D01*
X41631Y-33277D01*
X41631Y-33330D01*
X41607Y-33408D01*
X41321Y-33723D01*
X41631Y-33723D01*
X37953Y-33473D02*
X37667Y-33473D01*
X37810Y-33473D02*
X37810Y-32923D01*
X37762Y-33001D01*
X37715Y-33054D01*
X37667Y-33080D01*
X38262Y-32923D02*
X38310Y-32923D01*
X38358Y-32949D01*
X38381Y-32975D01*
X38405Y-33027D01*
X38429Y-33132D01*
X38429Y-33263D01*
X38405Y-33368D01*
X38381Y-33420D01*
X38358Y-33446D01*
X38310Y-33473D01*
X38262Y-33473D01*
X38215Y-33446D01*
X38191Y-33420D01*
X38167Y-33368D01*
X38143Y-33263D01*
X38143Y-33132D01*
X38167Y-33027D01*
X38191Y-32975D01*
X38215Y-32949D01*
X38262Y-32923D01*
X38643Y-33473D02*
X38643Y-32923D01*
X38691Y-33263D02*
X38834Y-33473D01*
X38834Y-33106D02*
X38643Y-33315D01*
X35179Y-40723D02*
X35012Y-40461D01*
X34893Y-40723D02*
X34893Y-40173D01*
X35084Y-40173D01*
X35131Y-40199D01*
X35155Y-40225D01*
X35179Y-40277D01*
X35179Y-40356D01*
X35155Y-40408D01*
X35131Y-40435D01*
X35084Y-40461D01*
X34893Y-40461D01*
X35655Y-40723D02*
X35369Y-40723D01*
X35512Y-40723D02*
X35512Y-40173D01*
X35464Y-40251D01*
X35417Y-40304D01*
X35369Y-40330D01*
X35821Y-40173D02*
X36131Y-40173D01*
X35964Y-40382D01*
X36036Y-40382D01*
X36083Y-40408D01*
X36107Y-40435D01*
X36131Y-40487D01*
X36131Y-40618D01*
X36107Y-40670D01*
X36083Y-40696D01*
X36036Y-40723D01*
X35893Y-40723D01*
X35845Y-40696D01*
X35821Y-40670D01*
X37953Y-40473D02*
X37667Y-40473D01*
X37810Y-40473D02*
X37810Y-39923D01*
X37762Y-40001D01*
X37715Y-40054D01*
X37667Y-40080D01*
X38262Y-39923D02*
X38310Y-39923D01*
X38358Y-39949D01*
X38381Y-39975D01*
X38405Y-40027D01*
X38429Y-40132D01*
X38429Y-40263D01*
X38405Y-40368D01*
X38381Y-40420D01*
X38358Y-40446D01*
X38310Y-40473D01*
X38262Y-40473D01*
X38215Y-40446D01*
X38191Y-40420D01*
X38167Y-40368D01*
X38143Y-40263D01*
X38143Y-40132D01*
X38167Y-40027D01*
X38191Y-39975D01*
X38215Y-39949D01*
X38262Y-39923D01*
X38643Y-40473D02*
X38643Y-39923D01*
X38691Y-40263D02*
X38834Y-40473D01*
X38834Y-40106D02*
X38643Y-40315D01*
X33679Y-46223D02*
X33512Y-45961D01*
X33393Y-46223D02*
X33393Y-45673D01*
X33584Y-45673D01*
X33631Y-45699D01*
X33655Y-45725D01*
X33679Y-45777D01*
X33679Y-45856D01*
X33655Y-45908D01*
X33631Y-45935D01*
X33584Y-45961D01*
X33393Y-45961D01*
X34155Y-46223D02*
X33869Y-46223D01*
X34012Y-46223D02*
X34012Y-45673D01*
X33964Y-45751D01*
X33917Y-45804D01*
X33869Y-45830D01*
X34583Y-45673D02*
X34488Y-45673D01*
X34440Y-45699D01*
X34417Y-45725D01*
X34369Y-45804D01*
X34345Y-45908D01*
X34345Y-46118D01*
X34369Y-46170D01*
X34393Y-46196D01*
X34440Y-46223D01*
X34536Y-46223D01*
X34583Y-46196D01*
X34607Y-46170D01*
X34631Y-46118D01*
X34631Y-45987D01*
X34607Y-45935D01*
X34583Y-45908D01*
X34536Y-45882D01*
X34440Y-45882D01*
X34393Y-45908D01*
X34369Y-45935D01*
X34345Y-45987D01*
X36453Y-46473D02*
X36167Y-46473D01*
X36310Y-46473D02*
X36310Y-45923D01*
X36262Y-46001D01*
X36215Y-46054D01*
X36167Y-46080D01*
X36762Y-45923D02*
X36810Y-45923D01*
X36858Y-45949D01*
X36881Y-45975D01*
X36905Y-46027D01*
X36929Y-46132D01*
X36929Y-46263D01*
X36905Y-46368D01*
X36881Y-46420D01*
X36858Y-46446D01*
X36810Y-46473D01*
X36762Y-46473D01*
X36715Y-46446D01*
X36691Y-46420D01*
X36667Y-46368D01*
X36643Y-46263D01*
X36643Y-46132D01*
X36667Y-46027D01*
X36691Y-45975D01*
X36715Y-45949D01*
X36762Y-45923D01*
X37143Y-46473D02*
X37143Y-45923D01*
X37191Y-46263D02*
X37334Y-46473D01*
X37334Y-46106D02*
X37143Y-46315D01*
X33679Y-39223D02*
X33512Y-38961D01*
X33393Y-39223D02*
X33393Y-38673D01*
X33584Y-38673D01*
X33631Y-38699D01*
X33655Y-38725D01*
X33679Y-38777D01*
X33679Y-38856D01*
X33655Y-38908D01*
X33631Y-38935D01*
X33584Y-38961D01*
X33393Y-38961D01*
X34155Y-39223D02*
X33869Y-39223D01*
X34012Y-39223D02*
X34012Y-38673D01*
X33964Y-38751D01*
X33917Y-38804D01*
X33869Y-38830D01*
X34583Y-38856D02*
X34583Y-39223D01*
X34464Y-38646D02*
X34345Y-39039D01*
X34655Y-39039D01*
X36453Y-39473D02*
X36167Y-39473D01*
X36310Y-39473D02*
X36310Y-38923D01*
X36262Y-39001D01*
X36215Y-39054D01*
X36167Y-39080D01*
X36762Y-38923D02*
X36810Y-38923D01*
X36858Y-38949D01*
X36881Y-38975D01*
X36905Y-39027D01*
X36929Y-39132D01*
X36929Y-39263D01*
X36905Y-39368D01*
X36881Y-39420D01*
X36858Y-39446D01*
X36810Y-39473D01*
X36762Y-39473D01*
X36715Y-39446D01*
X36691Y-39420D01*
X36667Y-39368D01*
X36643Y-39263D01*
X36643Y-39132D01*
X36667Y-39027D01*
X36691Y-38975D01*
X36715Y-38949D01*
X36762Y-38923D01*
X37143Y-39473D02*
X37143Y-38923D01*
X37191Y-39263D02*
X37334Y-39473D01*
X37334Y-39106D02*
X37143Y-39315D01*
X33679Y-32223D02*
X33512Y-31961D01*
X33393Y-32223D02*
X33393Y-31673D01*
X33584Y-31673D01*
X33631Y-31699D01*
X33655Y-31725D01*
X33679Y-31777D01*
X33679Y-31856D01*
X33655Y-31908D01*
X33631Y-31935D01*
X33584Y-31961D01*
X33393Y-31961D01*
X34155Y-32223D02*
X33869Y-32223D01*
X34012Y-32223D02*
X34012Y-31673D01*
X33964Y-31751D01*
X33917Y-31804D01*
X33869Y-31830D01*
X34631Y-32223D02*
X34345Y-32223D01*
X34488Y-32223D02*
X34488Y-31673D01*
X34440Y-31751D01*
X34393Y-31804D01*
X34345Y-31830D01*
X36453Y-32473D02*
X36167Y-32473D01*
X36310Y-32473D02*
X36310Y-31923D01*
X36262Y-32001D01*
X36215Y-32054D01*
X36167Y-32080D01*
X36762Y-31923D02*
X36810Y-31923D01*
X36858Y-31949D01*
X36881Y-31975D01*
X36905Y-32027D01*
X36929Y-32132D01*
X36929Y-32263D01*
X36905Y-32368D01*
X36881Y-32420D01*
X36858Y-32446D01*
X36810Y-32473D01*
X36762Y-32473D01*
X36715Y-32446D01*
X36691Y-32420D01*
X36667Y-32368D01*
X36643Y-32263D01*
X36643Y-32132D01*
X36667Y-32027D01*
X36691Y-31975D01*
X36715Y-31949D01*
X36762Y-31923D01*
X37143Y-32473D02*
X37143Y-31923D01*
X37191Y-32263D02*
X37334Y-32473D01*
X37334Y-32106D02*
X37143Y-32315D01*
G54D15*
X36405Y-50083D02*
X36429Y-50107D01*
X36452Y-50178D01*
X36452Y-50226D01*
X36429Y-50298D01*
X36381Y-50345D01*
X36333Y-50369D01*
X36238Y-50393D01*
X36167Y-50393D01*
X36071Y-50369D01*
X36024Y-50345D01*
X35976Y-50298D01*
X35952Y-50226D01*
X35952Y-50178D01*
X35976Y-50107D01*
X36000Y-50083D01*
X36000Y-49893D02*
X35976Y-49869D01*
X35952Y-49821D01*
X35952Y-49702D01*
X35976Y-49655D01*
X36000Y-49631D01*
X36048Y-49607D01*
X36095Y-49607D01*
X36167Y-49631D01*
X36452Y-49917D01*
X36452Y-49607D01*
X34452Y-50559D02*
X34452Y-50845D01*
X34452Y-50702D02*
X33952Y-50702D01*
X34024Y-50750D01*
X34071Y-50797D01*
X34095Y-50845D01*
X33952Y-50250D02*
X33952Y-50202D01*
X33976Y-50154D01*
X34000Y-50131D01*
X34048Y-50107D01*
X34143Y-50083D01*
X34262Y-50083D01*
X34357Y-50107D01*
X34405Y-50131D01*
X34429Y-50154D01*
X34452Y-50202D01*
X34452Y-50250D01*
X34429Y-50297D01*
X34405Y-50321D01*
X34357Y-50345D01*
X34262Y-50369D01*
X34143Y-50369D01*
X34048Y-50345D01*
X34000Y-50321D01*
X33976Y-50297D01*
X33952Y-50250D01*
X33952Y-49774D02*
X33952Y-49726D01*
X33976Y-49678D01*
X34000Y-49655D01*
X34048Y-49631D01*
X34143Y-49607D01*
X34262Y-49607D01*
X34357Y-49631D01*
X34405Y-49655D01*
X34429Y-49678D01*
X34452Y-49726D01*
X34452Y-49774D01*
X34429Y-49821D01*
X34405Y-49845D01*
X34357Y-49869D01*
X34262Y-49893D01*
X34143Y-49893D01*
X34048Y-49869D01*
X34000Y-49845D01*
X33976Y-49821D01*
X33952Y-49774D01*
X34119Y-49179D02*
X34452Y-49179D01*
X34119Y-49393D02*
X34381Y-49393D01*
X34429Y-49369D01*
X34452Y-49322D01*
X34452Y-49250D01*
X34429Y-49202D01*
X34405Y-49179D01*
G54D16*
X56434Y-47124D02*
X56415Y-47143D01*
X56358Y-47162D01*
X56320Y-47162D01*
X56262Y-47143D01*
X56224Y-47105D01*
X56205Y-47067D01*
X56186Y-46990D01*
X56186Y-46933D01*
X56205Y-46857D01*
X56224Y-46819D01*
X56262Y-46781D01*
X56320Y-46762D01*
X56358Y-46762D01*
X56415Y-46781D01*
X56434Y-46800D01*
X56796Y-46762D02*
X56605Y-46762D01*
X56586Y-46952D01*
X56605Y-46933D01*
X56643Y-46914D01*
X56739Y-46914D01*
X56777Y-46933D01*
X56796Y-46952D01*
X56815Y-46990D01*
X56815Y-47086D01*
X56796Y-47124D01*
X56777Y-47143D01*
X56739Y-47162D01*
X56643Y-47162D01*
X56605Y-47143D01*
X56586Y-47124D01*
X56053Y-51162D02*
X55824Y-51162D01*
X55938Y-51162D02*
X55938Y-50762D01*
X55900Y-50819D01*
X55862Y-50857D01*
X55824Y-50876D01*
X56300Y-50762D02*
X56339Y-50762D01*
X56377Y-50781D01*
X56396Y-50800D01*
X56415Y-50838D01*
X56434Y-50914D01*
X56434Y-51010D01*
X56415Y-51086D01*
X56396Y-51124D01*
X56377Y-51143D01*
X56339Y-51162D01*
X56300Y-51162D01*
X56262Y-51143D01*
X56243Y-51124D01*
X56224Y-51086D01*
X56205Y-51010D01*
X56205Y-50914D01*
X56224Y-50838D01*
X56243Y-50800D01*
X56262Y-50781D01*
X56300Y-50762D01*
X56681Y-50762D02*
X56720Y-50762D01*
X56758Y-50781D01*
X56777Y-50800D01*
X56796Y-50838D01*
X56815Y-50914D01*
X56815Y-51010D01*
X56796Y-51086D01*
X56777Y-51124D01*
X56758Y-51143D01*
X56720Y-51162D01*
X56681Y-51162D01*
X56643Y-51143D01*
X56624Y-51124D01*
X56605Y-51086D01*
X56586Y-51010D01*
X56586Y-50914D01*
X56605Y-50838D01*
X56624Y-50800D01*
X56643Y-50781D01*
X56681Y-50762D01*
X56986Y-50895D02*
X56986Y-51162D01*
X56986Y-50933D02*
X57005Y-50914D01*
X57043Y-50895D01*
X57101Y-50895D01*
X57139Y-50914D01*
X57158Y-50952D01*
X57158Y-51162D01*
G54D15*
X52405Y-49333D02*
X52429Y-49357D01*
X52452Y-49428D01*
X52452Y-49476D01*
X52429Y-49548D01*
X52381Y-49595D01*
X52333Y-49619D01*
X52238Y-49643D01*
X52167Y-49643D01*
X52071Y-49619D01*
X52024Y-49595D01*
X51976Y-49548D01*
X51952Y-49476D01*
X51952Y-49428D01*
X51976Y-49357D01*
X52000Y-49333D01*
X51952Y-48905D02*
X51952Y-49000D01*
X51976Y-49048D01*
X52000Y-49071D01*
X52071Y-49119D01*
X52167Y-49143D01*
X52357Y-49143D01*
X52405Y-49119D01*
X52429Y-49095D01*
X52452Y-49048D01*
X52452Y-48952D01*
X52429Y-48905D01*
X52405Y-48881D01*
X52357Y-48857D01*
X52238Y-48857D01*
X52190Y-48881D01*
X52167Y-48905D01*
X52143Y-48952D01*
X52143Y-49048D01*
X52167Y-49095D01*
X52190Y-49119D01*
X52238Y-49143D01*
X54452Y-49809D02*
X54452Y-50095D01*
X54452Y-49952D02*
X53952Y-49952D01*
X54024Y-50000D01*
X54071Y-50047D01*
X54095Y-50095D01*
X53952Y-49500D02*
X53952Y-49452D01*
X53976Y-49404D01*
X54000Y-49381D01*
X54048Y-49357D01*
X54143Y-49333D01*
X54262Y-49333D01*
X54357Y-49357D01*
X54405Y-49381D01*
X54429Y-49404D01*
X54452Y-49452D01*
X54452Y-49500D01*
X54429Y-49547D01*
X54405Y-49571D01*
X54357Y-49595D01*
X54262Y-49619D01*
X54143Y-49619D01*
X54048Y-49595D01*
X54000Y-49571D01*
X53976Y-49547D01*
X53952Y-49500D01*
X53952Y-49024D02*
X53952Y-48976D01*
X53976Y-48928D01*
X54000Y-48905D01*
X54048Y-48881D01*
X54143Y-48857D01*
X54262Y-48857D01*
X54357Y-48881D01*
X54405Y-48905D01*
X54429Y-48928D01*
X54452Y-48976D01*
X54452Y-49024D01*
X54429Y-49071D01*
X54405Y-49095D01*
X54357Y-49119D01*
X54262Y-49143D01*
X54143Y-49143D01*
X54048Y-49119D01*
X54000Y-49095D01*
X53976Y-49071D01*
X53952Y-49024D01*
X54119Y-48429D02*
X54452Y-48429D01*
X54119Y-48643D02*
X54381Y-48643D01*
X54429Y-48619D01*
X54452Y-48572D01*
X54452Y-48500D01*
X54429Y-48452D01*
X54405Y-48429D01*
G54D13*
X39950Y-42093D02*
X39936Y-42107D01*
X39893Y-42121D01*
X39864Y-42121D01*
X39821Y-42107D01*
X39793Y-42079D01*
X39778Y-42050D01*
X39764Y-41993D01*
X39764Y-41950D01*
X39778Y-41893D01*
X39793Y-41864D01*
X39821Y-41836D01*
X39864Y-41821D01*
X39893Y-41821D01*
X39936Y-41836D01*
X39950Y-41850D01*
X40050Y-41821D02*
X40250Y-41821D01*
X40121Y-42121D01*
X39958Y-45121D02*
X39816Y-45121D01*
X39887Y-45121D02*
X39887Y-44821D01*
X39863Y-44864D01*
X39839Y-44893D01*
X39816Y-44907D01*
X40173Y-44921D02*
X40173Y-45121D01*
X40066Y-44921D02*
X40066Y-45079D01*
X40077Y-45107D01*
X40101Y-45121D01*
X40137Y-45121D01*
X40161Y-45107D01*
X40173Y-45093D01*
X39594Y-36550D02*
X39608Y-36564D01*
X39622Y-36607D01*
X39622Y-36636D01*
X39608Y-36679D01*
X39580Y-36707D01*
X39551Y-36722D01*
X39494Y-36736D01*
X39451Y-36736D01*
X39394Y-36722D01*
X39365Y-36707D01*
X39337Y-36679D01*
X39322Y-36636D01*
X39322Y-36607D01*
X39337Y-36564D01*
X39351Y-36550D01*
X39622Y-36407D02*
X39622Y-36350D01*
X39608Y-36322D01*
X39594Y-36307D01*
X39551Y-36279D01*
X39494Y-36264D01*
X39380Y-36264D01*
X39351Y-36279D01*
X39337Y-36293D01*
X39322Y-36322D01*
X39322Y-36379D01*
X39337Y-36407D01*
X39351Y-36422D01*
X39380Y-36436D01*
X39451Y-36436D01*
X39480Y-36422D01*
X39494Y-36407D01*
X39508Y-36379D01*
X39508Y-36322D01*
X39494Y-36293D01*
X39480Y-36279D01*
X39451Y-36264D01*
X40621Y-36542D02*
X40621Y-36684D01*
X40621Y-36613D02*
X40321Y-36613D01*
X40364Y-36637D01*
X40393Y-36661D01*
X40407Y-36684D01*
X40421Y-36327D02*
X40621Y-36327D01*
X40421Y-36434D02*
X40579Y-36434D01*
X40607Y-36423D01*
X40621Y-36399D01*
X40621Y-36363D01*
X40607Y-36339D01*
X40593Y-36327D01*
G54D16*
X38243Y-34624D02*
X38224Y-34643D01*
X38167Y-34662D01*
X38129Y-34662D01*
X38071Y-34643D01*
X38033Y-34605D01*
X38014Y-34567D01*
X37995Y-34490D01*
X37995Y-34433D01*
X38014Y-34357D01*
X38033Y-34319D01*
X38071Y-34281D01*
X38129Y-34262D01*
X38167Y-34262D01*
X38224Y-34281D01*
X38243Y-34300D01*
X38624Y-34662D02*
X38395Y-34662D01*
X38509Y-34662D02*
X38509Y-34262D01*
X38471Y-34319D01*
X38433Y-34357D01*
X38395Y-34376D01*
X38871Y-34262D02*
X38910Y-34262D01*
X38948Y-34281D01*
X38967Y-34300D01*
X38986Y-34338D01*
X39005Y-34414D01*
X39005Y-34510D01*
X38986Y-34586D01*
X38967Y-34624D01*
X38948Y-34643D01*
X38910Y-34662D01*
X38871Y-34662D01*
X38833Y-34643D01*
X38814Y-34624D01*
X38795Y-34586D01*
X38776Y-34510D01*
X38776Y-34414D01*
X38795Y-34338D01*
X38814Y-34300D01*
X38833Y-34281D01*
X38871Y-34262D01*
X38662Y-36947D02*
X38662Y-37176D01*
X38662Y-37062D02*
X38262Y-37062D01*
X38319Y-37100D01*
X38357Y-37138D01*
X38376Y-37176D01*
X38262Y-36700D02*
X38262Y-36661D01*
X38281Y-36623D01*
X38300Y-36604D01*
X38338Y-36585D01*
X38414Y-36566D01*
X38510Y-36566D01*
X38586Y-36585D01*
X38624Y-36604D01*
X38643Y-36623D01*
X38662Y-36661D01*
X38662Y-36700D01*
X38643Y-36738D01*
X38624Y-36757D01*
X38586Y-36776D01*
X38510Y-36795D01*
X38414Y-36795D01*
X38338Y-36776D01*
X38300Y-36757D01*
X38281Y-36738D01*
X38262Y-36700D01*
X38262Y-36319D02*
X38262Y-36280D01*
X38281Y-36242D01*
X38300Y-36223D01*
X38338Y-36204D01*
X38414Y-36185D01*
X38510Y-36185D01*
X38586Y-36204D01*
X38624Y-36223D01*
X38643Y-36242D01*
X38662Y-36280D01*
X38662Y-36319D01*
X38643Y-36357D01*
X38624Y-36376D01*
X38586Y-36395D01*
X38510Y-36414D01*
X38414Y-36414D01*
X38338Y-36395D01*
X38300Y-36376D01*
X38281Y-36357D01*
X38262Y-36319D01*
X38395Y-36014D02*
X38662Y-36014D01*
X38433Y-36014D02*
X38414Y-35995D01*
X38395Y-35957D01*
X38395Y-35899D01*
X38414Y-35861D01*
X38452Y-35842D01*
X38662Y-35842D01*
G54D17*
X28684Y-22775D02*
X28684Y-22094D01*
X28847Y-22094D01*
X28888Y-22127D01*
X28908Y-22159D01*
X28928Y-22224D01*
X28928Y-22321D01*
X28908Y-22386D01*
X28888Y-22418D01*
X28847Y-22451D01*
X28684Y-22451D01*
X29071Y-22094D02*
X29336Y-22094D01*
X29193Y-22354D01*
X29255Y-22354D01*
X29295Y-22386D01*
X29316Y-22418D01*
X29336Y-22483D01*
X29336Y-22645D01*
X29316Y-22710D01*
X29295Y-22743D01*
X29255Y-22775D01*
X29132Y-22775D01*
X29092Y-22743D01*
X29071Y-22710D01*
G54D15*
X28271Y-24743D02*
X28271Y-24143D01*
X28461Y-24343D02*
X28461Y-24743D01*
X28461Y-24400D02*
X28480Y-24371D01*
X28518Y-24343D01*
X28576Y-24343D01*
X28614Y-24371D01*
X28633Y-24429D01*
X28633Y-24743D01*
X28766Y-24343D02*
X28918Y-24343D01*
X28823Y-24143D02*
X28823Y-24657D01*
X28842Y-24714D01*
X28880Y-24743D01*
X28918Y-24743D01*
X29205Y-24714D02*
X29167Y-24743D01*
X29090Y-24743D01*
X29052Y-24714D01*
X29033Y-24657D01*
X29033Y-24429D01*
X29052Y-24371D01*
X29090Y-24343D01*
X29167Y-24343D01*
X29205Y-24371D01*
X29224Y-24429D01*
X29224Y-24486D01*
X29033Y-24543D01*
X29395Y-24743D02*
X29395Y-24343D01*
X29395Y-24457D02*
X29414Y-24400D01*
X29433Y-24371D01*
X29471Y-24343D01*
X29510Y-24343D01*
X29586Y-24343D02*
X29738Y-24343D01*
X29643Y-24743D02*
X29643Y-24229D01*
X29662Y-24171D01*
X29700Y-24143D01*
X29738Y-24143D01*
X30044Y-24743D02*
X30044Y-24429D01*
X30025Y-24371D01*
X29987Y-24343D01*
X29910Y-24343D01*
X29872Y-24371D01*
X30044Y-24714D02*
X30006Y-24743D01*
X29910Y-24743D01*
X29872Y-24714D01*
X29853Y-24657D01*
X29853Y-24600D01*
X29872Y-24543D01*
X29910Y-24514D01*
X30006Y-24514D01*
X30044Y-24486D01*
X30406Y-24714D02*
X30368Y-24743D01*
X30291Y-24743D01*
X30253Y-24714D01*
X30234Y-24686D01*
X30215Y-24629D01*
X30215Y-24457D01*
X30234Y-24400D01*
X30253Y-24371D01*
X30291Y-24343D01*
X30368Y-24343D01*
X30406Y-24371D01*
X30730Y-24714D02*
X30692Y-24743D01*
X30615Y-24743D01*
X30577Y-24714D01*
X30558Y-24657D01*
X30558Y-24429D01*
X30577Y-24371D01*
X30615Y-24343D01*
X30692Y-24343D01*
X30730Y-24371D01*
X30749Y-24429D01*
X30749Y-24486D01*
X30558Y-24543D01*
G54D11*
X21233Y-40616D02*
X20533Y-40616D01*
X20533Y-40350D01*
X20567Y-40283D01*
X20600Y-40250D01*
X20667Y-40216D01*
X20767Y-40216D01*
X20833Y-40250D01*
X20867Y-40283D01*
X20900Y-40350D01*
X20900Y-40616D01*
X20767Y-39616D02*
X21233Y-39616D01*
X20500Y-39783D02*
X21000Y-39950D01*
X21000Y-39516D01*
X25133Y-36065D02*
X25133Y-35665D01*
X25833Y-35865D02*
X25133Y-35865D01*
X25833Y-35332D02*
X25800Y-35399D01*
X25767Y-35432D01*
X25700Y-35466D01*
X25500Y-35466D01*
X25433Y-35432D01*
X25400Y-35399D01*
X25367Y-35332D01*
X25367Y-35232D01*
X25400Y-35166D01*
X25433Y-35132D01*
X25500Y-35099D01*
X25700Y-35099D01*
X25767Y-35132D01*
X25800Y-35166D01*
X25833Y-35232D01*
X25833Y-35332D01*
X25833Y-34799D02*
X25133Y-34799D01*
X25133Y-34633D01*
X25167Y-34533D01*
X25233Y-34466D01*
X25300Y-34433D01*
X25433Y-34399D01*
X25533Y-34399D01*
X25667Y-34433D01*
X25733Y-34466D01*
X25800Y-34533D01*
X25833Y-34633D01*
X25833Y-34799D01*
X25833Y-34099D02*
X25367Y-34099D01*
X25500Y-34099D02*
X25433Y-34066D01*
X25400Y-34033D01*
X25367Y-33966D01*
X25367Y-33899D01*
X25833Y-33666D02*
X25367Y-33666D01*
X25133Y-33666D02*
X25167Y-33700D01*
X25200Y-33666D01*
X25167Y-33633D01*
X25133Y-33666D01*
X25200Y-33666D01*
X25367Y-33400D02*
X25833Y-33233D01*
X25367Y-33067D01*
X25800Y-32534D02*
X25833Y-32600D01*
X25833Y-32734D01*
X25800Y-32800D01*
X25733Y-32834D01*
X25467Y-32834D01*
X25400Y-32800D01*
X25367Y-32734D01*
X25367Y-32600D01*
X25400Y-32534D01*
X25467Y-32500D01*
X25533Y-32500D01*
X25600Y-32834D01*
X25833Y-32200D02*
X25367Y-32200D01*
X25500Y-32200D02*
X25433Y-32167D01*
X25400Y-32134D01*
X25367Y-32067D01*
X25367Y-32000D01*
X25200Y-31801D02*
X25167Y-31767D01*
X25133Y-31701D01*
X25133Y-31534D01*
X25167Y-31467D01*
X25200Y-31434D01*
X25267Y-31401D01*
X25333Y-31401D01*
X25433Y-31434D01*
X25833Y-31834D01*
X25833Y-31401D01*
G54D14*
X53157Y-26893D02*
X53157Y-27379D01*
X53179Y-27436D01*
X53200Y-27464D01*
X53243Y-27493D01*
X53329Y-27493D01*
X53371Y-27464D01*
X53393Y-27436D01*
X53414Y-27379D01*
X53414Y-26893D01*
X53585Y-26893D02*
X53864Y-26893D01*
X53714Y-27121D01*
X53778Y-27121D01*
X53821Y-27150D01*
X53842Y-27179D01*
X53864Y-27236D01*
X53864Y-27379D01*
X53842Y-27436D01*
X53821Y-27464D01*
X53778Y-27493D01*
X53650Y-27493D01*
X53607Y-27464D01*
X53585Y-27436D01*
X50442Y-26093D02*
X50442Y-26493D01*
X50335Y-25864D02*
X50228Y-26293D01*
X50506Y-26293D01*
X50764Y-25893D02*
X50807Y-25893D01*
X50850Y-25921D01*
X50871Y-25950D01*
X50892Y-26007D01*
X50914Y-26121D01*
X50914Y-26264D01*
X50892Y-26379D01*
X50871Y-26436D01*
X50850Y-26464D01*
X50807Y-26493D01*
X50764Y-26493D01*
X50721Y-26464D01*
X50700Y-26436D01*
X50678Y-26379D01*
X50657Y-26264D01*
X50657Y-26121D01*
X50678Y-26007D01*
X50700Y-25950D01*
X50721Y-25921D01*
X50764Y-25893D01*
X51300Y-25893D02*
X51214Y-25893D01*
X51171Y-25921D01*
X51150Y-25950D01*
X51107Y-26036D01*
X51086Y-26150D01*
X51086Y-26379D01*
X51107Y-26436D01*
X51129Y-26464D01*
X51171Y-26493D01*
X51257Y-26493D01*
X51300Y-26464D01*
X51321Y-26436D01*
X51343Y-26379D01*
X51343Y-26236D01*
X51321Y-26179D01*
X51300Y-26150D01*
X51257Y-26121D01*
X51171Y-26121D01*
X51129Y-26150D01*
X51107Y-26179D01*
X51086Y-26236D01*
X51558Y-26493D02*
X51643Y-26493D01*
X51686Y-26464D01*
X51708Y-26436D01*
X51750Y-26350D01*
X51772Y-26236D01*
X51772Y-26007D01*
X51750Y-25950D01*
X51729Y-25921D01*
X51686Y-25893D01*
X51600Y-25893D01*
X51558Y-25921D01*
X51536Y-25950D01*
X51515Y-26007D01*
X51515Y-26150D01*
X51536Y-26207D01*
X51558Y-26236D01*
X51600Y-26264D01*
X51686Y-26264D01*
X51729Y-26236D01*
X51750Y-26207D01*
X51772Y-26150D01*
X33657Y-33583D02*
X33657Y-34150D01*
X33679Y-34217D01*
X33700Y-34250D01*
X33743Y-34283D01*
X33829Y-34283D01*
X33871Y-34250D01*
X33893Y-34217D01*
X33914Y-34150D01*
X33914Y-33583D01*
X34342Y-33583D02*
X34128Y-33583D01*
X34107Y-33917D01*
X34128Y-33883D01*
X34171Y-33850D01*
X34278Y-33850D01*
X34321Y-33883D01*
X34342Y-33917D01*
X34364Y-33983D01*
X34364Y-34150D01*
X34342Y-34217D01*
X34321Y-34250D01*
X34278Y-34283D01*
X34171Y-34283D01*
X34128Y-34250D01*
X34107Y-34217D01*
G54D15*
X34312Y-36783D02*
X34312Y-36083D01*
X34312Y-36417D02*
X34541Y-36417D01*
X34541Y-36783D02*
X34541Y-36083D01*
X34960Y-36717D02*
X34941Y-36750D01*
X34884Y-36783D01*
X34846Y-36783D01*
X34788Y-36750D01*
X34750Y-36683D01*
X34731Y-36617D01*
X34712Y-36483D01*
X34712Y-36383D01*
X34731Y-36250D01*
X34750Y-36183D01*
X34788Y-36117D01*
X34846Y-36083D01*
X34884Y-36083D01*
X34941Y-36117D01*
X34960Y-36150D01*
X35131Y-36783D02*
X35131Y-36083D01*
X35284Y-36083D01*
X35322Y-36117D01*
X35341Y-36150D01*
X35360Y-36217D01*
X35360Y-36317D01*
X35341Y-36383D01*
X35322Y-36417D01*
X35284Y-36450D01*
X35131Y-36450D01*
X35722Y-36783D02*
X35531Y-36783D01*
X35531Y-36083D01*
X35836Y-36150D02*
X35855Y-36117D01*
X35893Y-36083D01*
X35989Y-36083D01*
X36027Y-36117D01*
X36046Y-36150D01*
X36065Y-36217D01*
X36065Y-36283D01*
X36046Y-36383D01*
X35817Y-36783D01*
X36065Y-36783D01*
X36427Y-36083D02*
X36236Y-36083D01*
X36217Y-36417D01*
X36236Y-36383D01*
X36274Y-36350D01*
X36370Y-36350D01*
X36408Y-36383D01*
X36427Y-36417D01*
X36446Y-36483D01*
X36446Y-36650D01*
X36427Y-36717D01*
X36408Y-36750D01*
X36370Y-36783D01*
X36274Y-36783D01*
X36236Y-36750D01*
X36217Y-36717D01*
X36579Y-36083D02*
X36827Y-36083D01*
X36693Y-36350D01*
X36751Y-36350D01*
X36789Y-36383D01*
X36808Y-36417D01*
X36827Y-36483D01*
X36827Y-36650D01*
X36808Y-36717D01*
X36789Y-36750D01*
X36751Y-36783D01*
X36636Y-36783D01*
X36598Y-36750D01*
X36579Y-36717D01*
X37208Y-36783D02*
X36979Y-36783D01*
X37093Y-36783D02*
X37093Y-36083D01*
X37055Y-36183D01*
X37017Y-36250D01*
X36979Y-36283D01*
G54D16*
X29012Y-50055D02*
X29336Y-50055D01*
X29374Y-50036D01*
X29393Y-50017D01*
X29412Y-49979D01*
X29412Y-49902D01*
X29393Y-49864D01*
X29374Y-49845D01*
X29336Y-49826D01*
X29012Y-49826D01*
X29412Y-49426D02*
X29412Y-49655D01*
X29412Y-49541D02*
X29012Y-49541D01*
X29069Y-49579D01*
X29107Y-49617D01*
X29126Y-49655D01*
X32512Y-50455D02*
X32512Y-50188D01*
X32912Y-50360D01*
X32683Y-49979D02*
X32664Y-50017D01*
X32645Y-50036D01*
X32607Y-50055D01*
X32588Y-50055D01*
X32550Y-50036D01*
X32531Y-50017D01*
X32512Y-49979D01*
X32512Y-49902D01*
X32531Y-49864D01*
X32550Y-49845D01*
X32588Y-49826D01*
X32607Y-49826D01*
X32645Y-49845D01*
X32664Y-49864D01*
X32683Y-49902D01*
X32683Y-49979D01*
X32702Y-50017D01*
X32721Y-50036D01*
X32760Y-50055D01*
X32836Y-50055D01*
X32874Y-50036D01*
X32893Y-50017D01*
X32912Y-49979D01*
X32912Y-49902D01*
X32893Y-49864D01*
X32874Y-49845D01*
X32836Y-49826D01*
X32760Y-49826D01*
X32721Y-49845D01*
X32702Y-49864D01*
X32683Y-49902D01*
X32512Y-49579D02*
X32512Y-49540D01*
X32531Y-49502D01*
X32550Y-49483D01*
X32588Y-49464D01*
X32664Y-49445D01*
X32760Y-49445D01*
X32836Y-49464D01*
X32874Y-49483D01*
X32893Y-49502D01*
X32912Y-49540D01*
X32912Y-49579D01*
X32893Y-49617D01*
X32874Y-49636D01*
X32836Y-49655D01*
X32760Y-49674D01*
X32664Y-49674D01*
X32588Y-49655D01*
X32550Y-49636D01*
X32531Y-49617D01*
X32512Y-49579D01*
X32512Y-49083D02*
X32512Y-49274D01*
X32702Y-49293D01*
X32683Y-49274D01*
X32664Y-49236D01*
X32664Y-49140D01*
X32683Y-49102D01*
X32702Y-49083D01*
X32740Y-49064D01*
X32836Y-49064D01*
X32874Y-49083D01*
X32893Y-49102D01*
X32912Y-49140D01*
X32912Y-49236D01*
X32893Y-49274D01*
X32874Y-49293D01*
G54D11*
X52293Y-35393D02*
X52293Y-35879D01*
X52321Y-35936D01*
X52350Y-35964D01*
X52407Y-35993D01*
X52521Y-35993D01*
X52579Y-35964D01*
X52607Y-35936D01*
X52636Y-35879D01*
X52636Y-35393D01*
X52865Y-35393D02*
X53265Y-35393D01*
X53008Y-35993D01*
X48294Y-40643D02*
X48637Y-40643D01*
X48466Y-41243D02*
X48466Y-40643D01*
X49180Y-41243D02*
X48980Y-40957D01*
X48837Y-41243D02*
X48837Y-40643D01*
X49065Y-40643D01*
X49123Y-40671D01*
X49151Y-40700D01*
X49180Y-40757D01*
X49180Y-40843D01*
X49151Y-40900D01*
X49123Y-40929D01*
X49065Y-40957D01*
X48837Y-40957D01*
X49408Y-41071D02*
X49694Y-41071D01*
X49351Y-41243D02*
X49551Y-40643D01*
X49751Y-41243D01*
X50294Y-41186D02*
X50265Y-41214D01*
X50179Y-41243D01*
X50122Y-41243D01*
X50037Y-41214D01*
X49979Y-41157D01*
X49951Y-41100D01*
X49922Y-40986D01*
X49922Y-40900D01*
X49951Y-40786D01*
X49979Y-40729D01*
X50037Y-40671D01*
X50122Y-40643D01*
X50179Y-40643D01*
X50265Y-40671D01*
X50294Y-40700D01*
X50665Y-40643D02*
X50779Y-40643D01*
X50837Y-40671D01*
X50894Y-40729D01*
X50922Y-40843D01*
X50922Y-41043D01*
X50894Y-41157D01*
X50837Y-41214D01*
X50779Y-41243D01*
X50665Y-41243D01*
X50608Y-41214D01*
X50551Y-41157D01*
X50522Y-41043D01*
X50522Y-40843D01*
X50551Y-40729D01*
X50608Y-40671D01*
X50665Y-40643D01*
X51037Y-41300D02*
X51494Y-41300D01*
X51608Y-40700D02*
X51637Y-40671D01*
X51694Y-40643D01*
X51837Y-40643D01*
X51894Y-40671D01*
X51923Y-40700D01*
X51951Y-40757D01*
X51951Y-40814D01*
X51923Y-40900D01*
X51580Y-41243D01*
X51951Y-41243D01*
X52322Y-40643D02*
X52379Y-40643D01*
X52436Y-40671D01*
X52465Y-40700D01*
X52494Y-40757D01*
X52522Y-40871D01*
X52522Y-41014D01*
X52494Y-41129D01*
X52465Y-41186D01*
X52436Y-41214D01*
X52379Y-41243D01*
X52322Y-41243D01*
X52265Y-41214D01*
X52236Y-41186D01*
X52208Y-41129D01*
X52179Y-41014D01*
X52179Y-40871D01*
X52208Y-40757D01*
X52236Y-40700D01*
X52265Y-40671D01*
X52322Y-40643D01*
X52779Y-41014D02*
X53236Y-41014D01*
X53493Y-40700D02*
X53522Y-40671D01*
X53579Y-40643D01*
X53722Y-40643D01*
X53779Y-40671D01*
X53808Y-40700D01*
X53836Y-40757D01*
X53836Y-40814D01*
X53808Y-40900D01*
X53465Y-41243D01*
X53836Y-41243D01*
X54350Y-40843D02*
X54350Y-41243D01*
X54207Y-40614D02*
X54064Y-41043D01*
X54436Y-41043D01*
X54635Y-40700D02*
X54664Y-40671D01*
X54721Y-40643D01*
X54864Y-40643D01*
X54921Y-40671D01*
X54950Y-40700D01*
X54978Y-40757D01*
X54978Y-40814D01*
X54950Y-40900D01*
X54607Y-41243D01*
X54978Y-41243D01*
X55178Y-40643D02*
X55549Y-40643D01*
X55349Y-40871D01*
X55435Y-40871D01*
X55492Y-40900D01*
X55521Y-40929D01*
X55549Y-40986D01*
X55549Y-41129D01*
X55521Y-41186D01*
X55492Y-41214D01*
X55435Y-41243D01*
X55263Y-41243D01*
X55206Y-41214D01*
X55178Y-41186D01*
X55749Y-40643D02*
X55892Y-41243D01*
X56006Y-40814D01*
X56120Y-41243D01*
X56263Y-40643D01*
X56492Y-41243D02*
X56492Y-40643D01*
X56778Y-41243D02*
X56778Y-40643D01*
X57121Y-41243D01*
X57121Y-40643D01*
%LPC*%
G54D18*
X37250Y-28000D03*
G54D19*
X36250Y-28000D03*
X35250Y-28000D03*
X34250Y-28000D03*
X34250Y-31000D03*
X35250Y-31000D03*
X36250Y-31000D03*
X37250Y-31000D03*
G54D20*
X38000Y-51000D03*
X38000Y-49000D03*
G54D21*
X66250Y-34250D03*
G54D20*
X67250Y-34250D03*
X66250Y-35250D03*
X67250Y-35250D03*
X66250Y-36250D03*
X67250Y-36250D03*
X66250Y-37250D03*
X67250Y-37250D03*
X66250Y-38250D03*
X67250Y-38250D03*
X66250Y-39250D03*
X67250Y-39250D03*
X66250Y-40250D03*
X67250Y-40250D03*
G54D21*
X49500Y-48500D03*
G54D20*
X49500Y-49500D03*
G54D21*
X31000Y-46500D03*
G54D20*
X30000Y-46500D03*
X33000Y-29250D03*
X30000Y-29250D03*
X33000Y-28000D03*
X30000Y-28000D03*
X47750Y-47500D03*
X47750Y-50500D03*
X26500Y-37500D03*
X26500Y-40500D03*
X33000Y-44500D03*
X30000Y-44500D03*
X63750Y-38750D03*
X63750Y-35750D03*
X38500Y-44500D03*
X38500Y-42500D03*
X33000Y-36250D03*
X30000Y-36250D03*
X33000Y-35000D03*
X30000Y-35000D03*
G54D21*
X43250Y-48500D03*
G54D20*
X44250Y-48500D03*
G54D18*
X37250Y-42000D03*
G54D19*
X36250Y-42000D03*
X35250Y-42000D03*
X34250Y-42000D03*
X34250Y-45000D03*
X35250Y-45000D03*
X36250Y-45000D03*
X37250Y-45000D03*
G54D21*
X58000Y-27250D03*
G54D20*
X58000Y-26250D03*
G54D21*
X40000Y-30000D03*
G54D20*
X40000Y-29000D03*
X56250Y-27750D03*
X56250Y-25750D03*
X38500Y-30500D03*
X38500Y-28500D03*
X39750Y-47250D03*
X36750Y-47250D03*
X33000Y-42000D03*
X30000Y-42000D03*
X33000Y-43250D03*
X30000Y-43250D03*
X39750Y-33250D03*
X36750Y-33250D03*
X39750Y-40250D03*
X36750Y-40250D03*
X38250Y-46250D03*
X35250Y-46250D03*
X38250Y-39250D03*
X35250Y-39250D03*
X38250Y-32250D03*
X35250Y-32250D03*
G54D21*
X35250Y-51000D03*
G54D20*
X35250Y-49000D03*
X56500Y-48250D03*
X56500Y-50250D03*
G54D21*
X53250Y-48250D03*
G54D20*
X53250Y-50250D03*
G54D21*
X40000Y-44000D03*
G54D20*
X40000Y-43000D03*
G54D21*
X40000Y-37000D03*
G54D20*
X40000Y-36000D03*
X38500Y-37500D03*
X38500Y-35500D03*
G54D21*
X32500Y-23500D03*
G54D20*
X31500Y-23500D03*
X30500Y-23500D03*
X29500Y-23500D03*
X28500Y-23500D03*
X27500Y-23500D03*
X26500Y-23500D03*
G54D21*
X23750Y-40000D03*
G54D20*
X22750Y-40000D03*
X23750Y-39000D03*
X22750Y-39000D03*
X23750Y-38000D03*
X22750Y-38000D03*
X23750Y-37000D03*
X22750Y-37000D03*
X23750Y-36000D03*
X22750Y-36000D03*
X23750Y-35000D03*
X22750Y-35000D03*
X23750Y-34000D03*
X22750Y-34000D03*
G54D18*
X54500Y-25250D03*
G54D19*
X53500Y-25250D03*
X52500Y-25250D03*
X51500Y-25250D03*
X50500Y-25250D03*
X49500Y-25250D03*
X48500Y-25250D03*
X48500Y-28250D03*
X49500Y-28250D03*
X50500Y-28250D03*
X51500Y-28250D03*
X52500Y-28250D03*
X53500Y-28250D03*
X54500Y-28250D03*
G54D18*
X37250Y-35000D03*
G54D19*
X36250Y-35000D03*
X35250Y-35000D03*
X34250Y-35000D03*
X34250Y-38000D03*
X35250Y-38000D03*
X36250Y-38000D03*
X37250Y-38000D03*
G54D22*
X31250Y-50750D03*
G54D23*
X31250Y-49750D03*
X30250Y-49750D03*
G54D24*
X56750Y-34250D03*
X56750Y-38250D03*
X56750Y-42250D03*
X48750Y-37250D03*
X48750Y-39250D03*
X48750Y-34250D03*
G54D20*
X54500Y-24000D03*
X63750Y-34750D03*
X52500Y-24000D03*
X25500Y-40500D03*
X49500Y-24000D03*
X27250Y-41500D03*
X25750Y-42500D03*
X52500Y-29500D03*
X35750Y-27000D03*
X41750Y-49750D03*
X45500Y-49750D03*
X35750Y-34000D03*
X26750Y-24750D03*
X67250Y-45000D03*
X40250Y-39250D03*
X57750Y-47500D03*
X41000Y-32250D03*
X28250Y-44500D03*
M02*
