M48
;DRILL file {Pcbnew (2012-01-19 BZR 3256)-stable} date 19/03/2013 15:03:05
;FORMAT={-:-/ absolute / inch / decimal}
FMAT,2
INCH,TZ
T1C0.025
T2C0.032
T3C0.040
T4C0.118
%
G90
G05
M72
T1
X3.200Y2.700
X3.275Y2.950
X3.375Y2.950
X3.425Y2.625
X3.775Y3.050
X3.875Y2.950
X3.975Y2.950
T2
X3.175Y3.300
X3.175Y3.400
X3.175Y3.500
X3.175Y3.600
X3.275Y3.150
X3.375Y3.150
X3.475Y3.300
X3.475Y3.400
X3.475Y3.500
X3.475Y3.600
X3.475Y3.750
X3.475Y3.900
X3.775Y3.300
X3.775Y3.400
X3.775Y3.500
X3.775Y3.600
X3.775Y3.750
X3.775Y3.900
X3.875Y3.150
X3.975Y3.150
X4.075Y3.300
X4.075Y3.400
X4.075Y3.500
X4.075Y3.600
T3
X2.200Y3.825
X2.200Y3.925
X2.525Y3.825
X2.825Y3.825
X3.425Y2.200
X3.425Y2.300
X3.425Y4.950
X3.425Y5.050
X3.525Y2.200
X3.525Y2.300
X3.525Y4.950
X3.525Y5.050
X3.625Y2.200
X3.625Y2.300
X3.625Y4.950
X3.625Y5.050
X3.725Y2.200
X3.725Y2.300
X3.725Y4.950
X3.725Y5.050
X3.825Y2.200
X3.825Y2.300
X3.825Y4.950
X3.825Y5.050
T4
X2.200Y5.025
X3.075Y2.250
X3.075Y5.000
X4.175Y2.250
X4.175Y5.000
X5.050Y2.200
X5.050Y5.025
T0
M30
