M48
;DRILL file {Pcbnew (2012-01-19 BZR 3256)-stable} date 19/03/2013 15:20:11
;FORMAT={-:-/ absolute / metric / decimal}
FMAT,2
METRIC,TZ
T1C0.635
T2C0.813
T3C1.016
T4C1.524
T5C3.000
%
G90
G05
M71
T1
X53.975Y107.950
X53.975Y110.490
X55.245Y73.025
X55.245Y85.090
X55.245Y90.170
X57.785Y85.090
X57.785Y90.170
X58.420Y107.950
X58.420Y110.490
X72.390Y66.675
X72.390Y116.840
X74.930Y78.740
X78.105Y76.835
X78.105Y96.520
X78.105Y113.030
X81.915Y62.230
X89.535Y121.920
T2
X55.245Y93.980
X55.245Y101.600
X57.785Y93.980
X57.785Y101.600
X60.960Y78.740
X60.960Y81.280
X60.960Y83.820
X60.960Y86.360
X60.960Y88.900
X60.960Y91.440
X60.960Y93.980
X60.960Y99.060
X60.960Y101.600
X60.960Y104.140
X60.960Y106.680
X62.230Y114.300
X62.230Y119.380
X68.580Y78.740
X68.580Y81.280
X68.580Y83.820
X68.580Y86.360
X68.580Y88.900
X68.580Y91.440
X68.580Y93.980
X68.580Y99.060
X68.580Y101.600
X68.580Y104.140
X68.580Y106.680
X69.850Y114.300
X69.850Y119.380
X72.390Y96.520
X72.390Y104.140
X74.930Y96.520
X74.930Y104.140
X78.105Y64.770
X78.105Y79.375
X78.105Y93.980
X78.105Y108.585
X85.725Y64.770
X85.725Y79.375
X85.725Y93.980
X85.725Y108.585
T3
X57.785Y114.300
X57.785Y116.840
X57.785Y119.380
X57.785Y121.920
X60.960Y73.025
X63.500Y73.025
X66.040Y73.025
X68.580Y73.025
X86.995Y55.880
X86.995Y58.420
X86.995Y125.730
X86.995Y128.270
X88.900Y64.770
X88.900Y74.930
X88.900Y79.375
X88.900Y89.535
X88.900Y93.980
X88.900Y104.140
X88.900Y108.585
X88.900Y118.745
X89.535Y55.880
X89.535Y58.420
X89.535Y125.730
X89.535Y128.270
X92.075Y55.880
X92.075Y58.420
X92.075Y125.730
X92.075Y128.270
X94.615Y55.880
X94.615Y58.420
X94.615Y125.730
X94.615Y128.270
X97.155Y55.880
X97.155Y58.420
X97.155Y125.730
X97.155Y128.270
X116.205Y126.365
X118.745Y126.365
X125.095Y68.580
X125.095Y71.120
X125.095Y80.645
X125.095Y83.185
X125.095Y85.725
X125.095Y88.265
X125.095Y109.855
X125.095Y112.395
X125.095Y114.935
X125.095Y117.475
T4
X81.280Y69.215
X81.280Y83.820
X81.280Y98.425
X81.280Y113.030
X83.820Y69.215
X83.820Y71.755
X83.820Y83.820
X83.820Y86.360
X83.820Y98.425
X83.820Y100.965
X83.820Y113.030
X83.820Y115.570
X93.345Y66.040
X93.345Y73.660
X93.345Y80.645
X93.345Y88.265
X93.345Y95.250
X93.345Y102.870
X93.345Y109.855
X93.345Y117.475
X109.845Y73.660
X109.845Y88.265
X109.845Y102.870
X109.845Y117.475
X113.345Y66.040
X113.345Y80.645
X113.345Y95.250
X113.345Y109.855
X116.845Y73.660
X116.845Y88.265
X116.845Y102.870
X116.845Y117.475
T5
X57.150Y127.000
X78.105Y57.150
X78.105Y127.000
X106.045Y57.150
X106.045Y127.000
X127.000Y57.150
X127.000Y127.000
T0
M30
