M48
;DRILL file {Pcbnew (2012-01-19 BZR 3256)-stable} date 12/03/2013 15:59:07
;FORMAT={-:-/ absolute / inch / decimal}
FMAT,2
INCH,TZ
T1C0.024
T2C0.024
T3C0.025
T4C0.030
T5C0.032
T6C0.032
T7C0.040
T8C0.050
T9C0.118
%
G90
G05
M72
T1
X5.025Y2.225
X5.025Y2.325
X5.025Y2.425
X5.325Y2.225
X5.325Y2.325
X5.325Y2.425
X5.525Y2.125
X5.525Y2.425
X5.625Y2.125
X5.625Y2.425
T2
X1.425Y3.500
X1.425Y3.600
X1.800Y3.375
X1.800Y3.575
T3
X1.350Y1.975
X1.550Y0.925
X2.100Y2.500
X2.275Y3.400
X2.325Y3.300
X2.800Y3.550
X2.800Y3.700
X2.800Y3.850
X2.800Y4.000
X2.850Y1.325
X2.975Y0.925
X3.250Y4.850
X3.625Y4.100
X3.825Y1.900
X3.950Y3.275
X3.950Y3.750
X4.100Y3.775
X4.100Y3.975
X4.225Y5.025
X4.400Y0.925
X4.525Y3.025
X4.525Y4.675
X4.925Y3.975
X4.975Y0.800
X5.025Y2.150
X5.100Y3.975
X5.175Y2.525
X5.200Y1.900
X5.225Y2.125
X5.300Y1.675
X5.400Y1.675
X5.475Y3.675
X5.475Y3.925
X5.525Y1.675
X5.550Y3.425
X5.675Y2.000
X5.700Y3.700
X5.725Y3.200
X5.850Y3.475
X5.925Y3.600
X5.925Y3.800
X6.100Y1.650
X6.525Y2.825
T4
X2.550Y2.950
X2.550Y4.350
X6.250Y2.950
X6.250Y4.350
T5
X3.775Y2.525
T6
X1.300Y3.775
X1.300Y3.875
X1.300Y3.975
X1.300Y4.575
X1.300Y4.775
X1.550Y1.150
X1.550Y1.250
X1.550Y1.375
X1.550Y1.675
X1.550Y1.800
X1.550Y2.000
X1.650Y1.800
X1.650Y1.950
X1.750Y1.375
X1.750Y1.675
X1.850Y1.150
X1.850Y1.250
X1.850Y1.375
X1.850Y1.675
X1.900Y3.875
X1.900Y3.975
X1.900Y4.575
X1.900Y4.775
X1.950Y1.375
X1.950Y1.675
X1.950Y1.800
X1.950Y1.950
X2.050Y0.975
X2.050Y1.075
X2.050Y1.225
X2.050Y1.375
X2.050Y1.675
X2.100Y1.800
X2.100Y4.525
X2.100Y4.825
X2.150Y1.375
X2.150Y1.675
X2.250Y1.375
X2.250Y1.675
X2.300Y1.800
X2.350Y0.975
X2.350Y1.075
X2.350Y1.225
X2.350Y1.375
X2.350Y1.675
X2.400Y4.525
X2.400Y4.825
X2.475Y0.975
X2.500Y4.600
X2.500Y4.700
X2.500Y4.950
X2.500Y5.050
X2.550Y1.475
X2.550Y1.575
X2.650Y2.425
X2.650Y2.725
X2.725Y1.475
X2.725Y1.575
X2.750Y2.500
X2.750Y2.800
X2.775Y0.975
X2.775Y1.800
X2.975Y1.150
X2.975Y1.250
X2.975Y1.375
X2.975Y1.675
X2.975Y1.800
X3.075Y1.800
X3.075Y1.950
X3.175Y1.375
X3.175Y1.675
X3.275Y1.150
X3.275Y1.250
X3.275Y1.375
X3.275Y1.675
X3.325Y4.675
X3.325Y4.775
X3.375Y1.375
X3.375Y1.675
X3.375Y1.800
X3.375Y1.950
X3.375Y4.875
X3.425Y4.275
X3.425Y4.575
X3.475Y0.975
X3.475Y1.075
X3.475Y1.225
X3.475Y1.375
X3.475Y1.675
X3.500Y1.800
X3.525Y4.325
X3.525Y4.525
X3.575Y1.375
X3.575Y1.675
X3.575Y4.875
X3.625Y4.275
X3.625Y4.575
X3.625Y4.675
X3.625Y4.775
X3.675Y1.375
X3.675Y1.675
X3.700Y1.800
X3.750Y4.275
X3.750Y4.375
X3.750Y4.475
X3.750Y4.575
X3.750Y4.675
X3.750Y4.775
X3.750Y4.875
X3.775Y0.975
X3.775Y1.075
X3.775Y1.225
X3.775Y1.375
X3.775Y1.675
X3.850Y3.550
X3.850Y3.650
X3.850Y3.900
X3.850Y4.075
X3.900Y0.975
X3.950Y3.900
X3.950Y4.075
X3.975Y1.475
X3.975Y1.575
X3.975Y2.225
X3.975Y2.325
X3.975Y2.425
X3.975Y2.525
X4.025Y3.550
X4.025Y3.650
X4.050Y4.275
X4.050Y4.375
X4.050Y4.475
X4.050Y4.575
X4.050Y4.675
X4.050Y4.775
X4.050Y4.875
X4.125Y3.125
X4.125Y3.325
X4.150Y1.475
X4.150Y1.575
X4.175Y4.375
X4.175Y4.475
X4.175Y4.575
X4.175Y4.875
X4.200Y0.975
X4.200Y1.800
X4.225Y3.125
X4.225Y3.325
X4.225Y3.450
X4.225Y3.750
X4.225Y4.275
X4.275Y2.225
X4.275Y2.325
X4.275Y2.425
X4.275Y2.525
X4.275Y3.225
X4.275Y4.625
X4.275Y4.825
X4.325Y3.450
X4.325Y3.750
X4.325Y3.875
X4.375Y3.975
X4.375Y4.575
X4.375Y4.875
X4.400Y1.150
X4.400Y1.250
X4.400Y1.375
X4.400Y1.675
X4.400Y1.800
X4.425Y3.450
X4.425Y3.750
X4.425Y4.275
X4.475Y3.225
X4.475Y4.375
X4.475Y4.475
X4.500Y1.800
X4.500Y1.900
X4.525Y3.125
X4.525Y3.325
X4.525Y3.450
X4.525Y3.750
X4.575Y3.975
X4.600Y1.375
X4.600Y1.675
X4.625Y3.025
X4.625Y3.325
X4.625Y3.450
X4.625Y3.750
X4.625Y3.875
X4.675Y4.675
X4.675Y4.775
X4.700Y1.150
X4.700Y1.250
X4.700Y1.375
X4.700Y1.675
X4.725Y2.975
X4.725Y3.125
X4.725Y3.225
X4.725Y3.325
X4.725Y3.450
X4.725Y3.750
X4.725Y4.875
X4.775Y4.275
X4.775Y4.575
X4.800Y1.375
X4.800Y1.675
X4.800Y1.800
X4.800Y1.900
X4.825Y3.450
X4.825Y3.750
X4.875Y4.325
X4.875Y4.525
X4.900Y0.975
X4.900Y1.075
X4.900Y1.225
X4.900Y1.375
X4.900Y1.675
X4.900Y1.875
X4.925Y4.875
X4.975Y4.275
X4.975Y4.575
X4.975Y4.675
X4.975Y4.775
X5.000Y1.375
X5.000Y1.675
X5.000Y3.450
X5.000Y3.750
X5.025Y2.975
X5.025Y3.125
X5.025Y3.225
X5.025Y3.325
X5.100Y1.375
X5.100Y1.675
X5.100Y1.875
X5.100Y4.275
X5.100Y4.375
X5.100Y4.475
X5.100Y4.575
X5.100Y4.675
X5.100Y4.775
X5.100Y4.875
X5.125Y3.100
X5.125Y3.450
X5.175Y2.675
X5.175Y2.975
X5.200Y0.975
X5.200Y1.075
X5.200Y1.225
X5.200Y1.375
X5.200Y1.675
X5.200Y3.900
X5.200Y4.075
X5.300Y3.900
X5.300Y4.075
X5.325Y0.975
X5.400Y1.475
X5.400Y1.575
X5.400Y4.275
X5.400Y4.375
X5.400Y4.475
X5.400Y4.575
X5.400Y4.675
X5.400Y4.775
X5.400Y4.875
X5.425Y3.100
X5.425Y3.450
X5.525Y4.375
X5.525Y4.475
X5.525Y4.575
X5.525Y4.875
X5.575Y1.475
X5.575Y1.575
X5.575Y4.275
X5.625Y0.975
X5.625Y4.625
X5.625Y4.825
X5.725Y2.125
X5.725Y2.425
X5.725Y4.575
X5.725Y4.875
X5.775Y4.275
X5.825Y4.375
X5.825Y4.475
T7
X1.275Y2.575
X1.275Y2.675
X1.275Y2.775
X1.275Y2.875
X1.275Y2.975
X1.275Y3.075
X1.275Y3.175
X1.275Y3.275
X1.350Y5.075
X1.450Y5.075
X1.550Y2.575
X1.550Y2.675
X1.550Y2.775
X1.550Y2.875
X1.550Y2.975
X1.550Y3.075
X1.550Y3.175
X1.550Y3.275
X1.875Y2.625
X1.875Y2.725
X1.875Y2.850
X1.875Y2.950
X1.875Y3.075
X1.875Y3.175
X2.250Y0.800
X2.350Y0.800
X2.450Y0.800
X2.500Y3.300
X2.500Y3.400
X2.500Y3.500
X2.500Y3.600
X2.500Y3.700
X2.500Y3.800
X2.500Y3.900
X2.500Y4.000
X2.550Y0.800
X2.600Y3.300
X2.600Y3.400
X2.600Y3.500
X2.600Y3.600
X2.600Y3.700
X2.600Y3.800
X2.600Y3.900
X2.600Y4.000
X2.950Y2.775
X2.950Y2.875
X2.975Y2.325
X2.975Y2.425
X3.000Y3.250
X3.000Y3.350
X3.000Y3.450
X3.000Y3.550
X3.000Y3.650
X3.000Y3.750
X3.000Y3.850
X3.000Y3.950
X3.225Y2.225
X3.225Y2.325
X3.225Y2.425
X3.225Y2.525
X3.225Y2.675
X3.225Y2.775
X3.225Y2.875
X3.225Y2.975
X3.275Y3.250
X3.275Y3.350
X3.275Y3.450
X3.275Y3.550
X3.275Y3.650
X3.275Y3.750
X3.275Y3.850
X3.275Y3.950
X3.500Y2.225
X3.500Y2.325
X3.500Y2.425
X3.500Y2.525
X3.500Y2.625
X3.500Y2.725
X3.500Y2.825
X3.500Y2.925
X3.675Y0.800
X3.775Y0.800
X3.775Y2.225
X3.775Y2.325
X3.775Y2.425
X3.775Y2.625
X3.775Y2.725
X3.775Y2.825
X3.775Y2.925
X3.875Y0.800
X3.975Y0.800
X4.400Y5.075
X4.500Y5.075
X4.600Y5.075
X4.625Y2.625
X4.700Y5.075
X4.725Y2.625
X5.100Y0.800
X5.200Y0.800
X5.300Y0.800
X5.300Y2.600
X5.300Y3.000
X5.400Y0.800
X5.450Y3.225
X5.450Y3.325
X5.500Y2.625
X5.500Y2.725
X5.500Y2.850
X5.500Y2.950
X6.025Y2.600
X6.025Y2.725
X6.100Y1.175
X6.100Y1.275
X6.100Y1.375
X6.100Y1.475
X6.100Y1.900
X6.100Y2.025
X6.100Y2.175
X6.100Y2.275
X6.100Y2.375
X6.100Y2.475
X6.200Y3.300
X6.200Y3.400
X6.200Y3.500
X6.200Y3.600
X6.200Y3.700
X6.200Y3.800
X6.200Y3.900
X6.200Y4.000
X6.300Y0.875
X6.300Y1.275
X6.300Y1.375
X6.300Y1.775
X6.300Y3.300
X6.300Y3.400
X6.300Y3.500
X6.300Y3.600
X6.300Y3.700
X6.300Y3.800
X6.300Y3.900
X6.300Y4.000
X6.425Y0.875
X6.425Y1.275
X6.425Y1.375
X6.425Y1.775
X6.425Y2.600
X6.425Y2.725
X6.500Y1.900
X6.500Y2.025
T8
X1.350Y2.250
X1.750Y2.150
X1.750Y2.350
X4.400Y2.325
X4.800Y2.225
X4.800Y2.425
T9
X2.250Y2.250
X2.250Y5.050
X6.450Y2.250
T0
M30
