G04 (created by PCBNEW-RS274X (2012-01-19 BZR 3256)-stable) date 12/03/2013 15:58:58*
G01*
G70*
G90*
%MOIN*%
G04 Gerber Fmt 3.4, Leading zero omitted, Abs format*
%FSLAX34Y34*%
G04 APERTURE LIST*
%ADD10C,0.006000*%
%ADD11C,0.012000*%
%ADD12C,0.015000*%
G04 APERTURE END LIST*
G54D10*
X04000Y-04000D02*
X161350Y-04000D01*
X161350Y-113000D01*
X04000Y-113000D01*
X04000Y-04000D01*
X04700Y-04700D02*
X160650Y-04700D01*
X160650Y-112300D01*
X04700Y-112300D01*
X04700Y-04700D01*
X26470Y-04000D02*
X26470Y-04700D01*
X15383Y-04552D02*
X15097Y-04552D01*
X15240Y-04552D02*
X15240Y-04052D01*
X15192Y-04124D01*
X15145Y-04171D01*
X15097Y-04195D01*
X26470Y-113000D02*
X26470Y-112300D01*
X15383Y-112852D02*
X15097Y-112852D01*
X15240Y-112852D02*
X15240Y-112352D01*
X15192Y-112424D01*
X15145Y-112471D01*
X15097Y-112495D01*
X48940Y-04000D02*
X48940Y-04700D01*
X37567Y-04100D02*
X37591Y-04076D01*
X37639Y-04052D01*
X37758Y-04052D01*
X37805Y-04076D01*
X37829Y-04100D01*
X37853Y-04148D01*
X37853Y-04195D01*
X37829Y-04267D01*
X37543Y-04552D01*
X37853Y-04552D01*
X48940Y-113000D02*
X48940Y-112300D01*
X37567Y-112400D02*
X37591Y-112376D01*
X37639Y-112352D01*
X37758Y-112352D01*
X37805Y-112376D01*
X37829Y-112400D01*
X37853Y-112448D01*
X37853Y-112495D01*
X37829Y-112567D01*
X37543Y-112852D01*
X37853Y-112852D01*
X71410Y-04000D02*
X71410Y-04700D01*
X60013Y-04052D02*
X60323Y-04052D01*
X60156Y-04243D01*
X60228Y-04243D01*
X60275Y-04267D01*
X60299Y-04290D01*
X60323Y-04338D01*
X60323Y-04457D01*
X60299Y-04505D01*
X60275Y-04529D01*
X60228Y-04552D01*
X60085Y-04552D01*
X60037Y-04529D01*
X60013Y-04505D01*
X71410Y-113000D02*
X71410Y-112300D01*
X60013Y-112352D02*
X60323Y-112352D01*
X60156Y-112543D01*
X60228Y-112543D01*
X60275Y-112567D01*
X60299Y-112590D01*
X60323Y-112638D01*
X60323Y-112757D01*
X60299Y-112805D01*
X60275Y-112829D01*
X60228Y-112852D01*
X60085Y-112852D01*
X60037Y-112829D01*
X60013Y-112805D01*
X93880Y-04000D02*
X93880Y-04700D01*
X82745Y-04219D02*
X82745Y-04552D01*
X82626Y-04029D02*
X82507Y-04386D01*
X82817Y-04386D01*
X93880Y-113000D02*
X93880Y-112300D01*
X82745Y-112519D02*
X82745Y-112852D01*
X82626Y-112329D02*
X82507Y-112686D01*
X82817Y-112686D01*
X116350Y-04000D02*
X116350Y-04700D01*
X105239Y-04052D02*
X105001Y-04052D01*
X104977Y-04290D01*
X105001Y-04267D01*
X105049Y-04243D01*
X105168Y-04243D01*
X105215Y-04267D01*
X105239Y-04290D01*
X105263Y-04338D01*
X105263Y-04457D01*
X105239Y-04505D01*
X105215Y-04529D01*
X105168Y-04552D01*
X105049Y-04552D01*
X105001Y-04529D01*
X104977Y-04505D01*
X116350Y-113000D02*
X116350Y-112300D01*
X105239Y-112352D02*
X105001Y-112352D01*
X104977Y-112590D01*
X105001Y-112567D01*
X105049Y-112543D01*
X105168Y-112543D01*
X105215Y-112567D01*
X105239Y-112590D01*
X105263Y-112638D01*
X105263Y-112757D01*
X105239Y-112805D01*
X105215Y-112829D01*
X105168Y-112852D01*
X105049Y-112852D01*
X105001Y-112829D01*
X104977Y-112805D01*
X138820Y-04000D02*
X138820Y-04700D01*
X127685Y-04052D02*
X127590Y-04052D01*
X127542Y-04076D01*
X127519Y-04100D01*
X127471Y-04171D01*
X127447Y-04267D01*
X127447Y-04457D01*
X127471Y-04505D01*
X127495Y-04529D01*
X127542Y-04552D01*
X127638Y-04552D01*
X127685Y-04529D01*
X127709Y-04505D01*
X127733Y-04457D01*
X127733Y-04338D01*
X127709Y-04290D01*
X127685Y-04267D01*
X127638Y-04243D01*
X127542Y-04243D01*
X127495Y-04267D01*
X127471Y-04290D01*
X127447Y-04338D01*
X138820Y-113000D02*
X138820Y-112300D01*
X127685Y-112352D02*
X127590Y-112352D01*
X127542Y-112376D01*
X127519Y-112400D01*
X127471Y-112471D01*
X127447Y-112567D01*
X127447Y-112757D01*
X127471Y-112805D01*
X127495Y-112829D01*
X127542Y-112852D01*
X127638Y-112852D01*
X127685Y-112829D01*
X127709Y-112805D01*
X127733Y-112757D01*
X127733Y-112638D01*
X127709Y-112590D01*
X127685Y-112567D01*
X127638Y-112543D01*
X127542Y-112543D01*
X127495Y-112567D01*
X127471Y-112590D01*
X127447Y-112638D01*
X149893Y-04052D02*
X150227Y-04052D01*
X150012Y-04552D01*
X149893Y-112352D02*
X150227Y-112352D01*
X150012Y-112852D01*
X04000Y-25800D02*
X04700Y-25800D01*
X04231Y-14960D02*
X04469Y-14960D01*
X04184Y-15102D02*
X04350Y-14602D01*
X04517Y-15102D01*
X161350Y-25800D02*
X160650Y-25800D01*
X160881Y-14960D02*
X161119Y-14960D01*
X160834Y-15102D02*
X161000Y-14602D01*
X161167Y-15102D01*
X04000Y-47600D02*
X04700Y-47600D01*
X04386Y-36640D02*
X04457Y-36664D01*
X04481Y-36688D01*
X04505Y-36736D01*
X04505Y-36807D01*
X04481Y-36855D01*
X04457Y-36879D01*
X04410Y-36902D01*
X04219Y-36902D01*
X04219Y-36402D01*
X04386Y-36402D01*
X04433Y-36426D01*
X04457Y-36450D01*
X04481Y-36498D01*
X04481Y-36545D01*
X04457Y-36593D01*
X04433Y-36617D01*
X04386Y-36640D01*
X04219Y-36640D01*
X161350Y-47600D02*
X160650Y-47600D01*
X161036Y-36640D02*
X161107Y-36664D01*
X161131Y-36688D01*
X161155Y-36736D01*
X161155Y-36807D01*
X161131Y-36855D01*
X161107Y-36879D01*
X161060Y-36902D01*
X160869Y-36902D01*
X160869Y-36402D01*
X161036Y-36402D01*
X161083Y-36426D01*
X161107Y-36450D01*
X161131Y-36498D01*
X161131Y-36545D01*
X161107Y-36593D01*
X161083Y-36617D01*
X161036Y-36640D01*
X160869Y-36640D01*
X04000Y-69400D02*
X04700Y-69400D01*
X04505Y-58655D02*
X04481Y-58679D01*
X04410Y-58702D01*
X04362Y-58702D01*
X04290Y-58679D01*
X04243Y-58631D01*
X04219Y-58583D01*
X04195Y-58488D01*
X04195Y-58417D01*
X04219Y-58321D01*
X04243Y-58274D01*
X04290Y-58226D01*
X04362Y-58202D01*
X04410Y-58202D01*
X04481Y-58226D01*
X04505Y-58250D01*
X161350Y-69400D02*
X160650Y-69400D01*
X161155Y-58655D02*
X161131Y-58679D01*
X161060Y-58702D01*
X161012Y-58702D01*
X160940Y-58679D01*
X160893Y-58631D01*
X160869Y-58583D01*
X160845Y-58488D01*
X160845Y-58417D01*
X160869Y-58321D01*
X160893Y-58274D01*
X160940Y-58226D01*
X161012Y-58202D01*
X161060Y-58202D01*
X161131Y-58226D01*
X161155Y-58250D01*
X04000Y-91200D02*
X04700Y-91200D01*
X04219Y-80502D02*
X04219Y-80002D01*
X04338Y-80002D01*
X04410Y-80026D01*
X04457Y-80074D01*
X04481Y-80121D01*
X04505Y-80217D01*
X04505Y-80288D01*
X04481Y-80383D01*
X04457Y-80431D01*
X04410Y-80479D01*
X04338Y-80502D01*
X04219Y-80502D01*
X161350Y-91200D02*
X160650Y-91200D01*
X160869Y-80502D02*
X160869Y-80002D01*
X160988Y-80002D01*
X161060Y-80026D01*
X161107Y-80074D01*
X161131Y-80121D01*
X161155Y-80217D01*
X161155Y-80288D01*
X161131Y-80383D01*
X161107Y-80431D01*
X161060Y-80479D01*
X160988Y-80502D01*
X160869Y-80502D01*
X04243Y-102040D02*
X04410Y-102040D01*
X04481Y-102302D02*
X04243Y-102302D01*
X04243Y-101802D01*
X04481Y-101802D01*
X160893Y-102040D02*
X161060Y-102040D01*
X161131Y-102302D02*
X160893Y-102302D01*
X160893Y-101802D01*
X161131Y-101802D01*
G54D11*
X127793Y-110743D02*
X127793Y-110143D01*
X127936Y-110143D01*
X128021Y-110171D01*
X128079Y-110229D01*
X128107Y-110286D01*
X128136Y-110400D01*
X128136Y-110486D01*
X128107Y-110600D01*
X128079Y-110657D01*
X128021Y-110714D01*
X127936Y-110743D01*
X127793Y-110743D01*
X128650Y-110743D02*
X128650Y-110429D01*
X128621Y-110371D01*
X128564Y-110343D01*
X128450Y-110343D01*
X128393Y-110371D01*
X128650Y-110714D02*
X128593Y-110743D01*
X128450Y-110743D01*
X128393Y-110714D01*
X128364Y-110657D01*
X128364Y-110600D01*
X128393Y-110543D01*
X128450Y-110514D01*
X128593Y-110514D01*
X128650Y-110486D01*
X128850Y-110343D02*
X129079Y-110343D01*
X128936Y-110143D02*
X128936Y-110657D01*
X128964Y-110714D01*
X129022Y-110743D01*
X129079Y-110743D01*
X129507Y-110714D02*
X129450Y-110743D01*
X129336Y-110743D01*
X129279Y-110714D01*
X129250Y-110657D01*
X129250Y-110429D01*
X129279Y-110371D01*
X129336Y-110343D01*
X129450Y-110343D01*
X129507Y-110371D01*
X129536Y-110429D01*
X129536Y-110486D01*
X129250Y-110543D01*
X129793Y-110686D02*
X129821Y-110714D01*
X129793Y-110743D01*
X129764Y-110714D01*
X129793Y-110686D01*
X129793Y-110743D01*
X129793Y-110371D02*
X129821Y-110400D01*
X129793Y-110429D01*
X129764Y-110400D01*
X129793Y-110371D01*
X129793Y-110429D01*
X130850Y-110743D02*
X130507Y-110743D01*
X130679Y-110743D02*
X130679Y-110143D01*
X130622Y-110229D01*
X130564Y-110286D01*
X130507Y-110314D01*
X131078Y-110200D02*
X131107Y-110171D01*
X131164Y-110143D01*
X131307Y-110143D01*
X131364Y-110171D01*
X131393Y-110200D01*
X131421Y-110257D01*
X131421Y-110314D01*
X131393Y-110400D01*
X131050Y-110743D01*
X131421Y-110743D01*
X132135Y-110743D02*
X132135Y-110343D01*
X132135Y-110400D02*
X132163Y-110371D01*
X132221Y-110343D01*
X132306Y-110343D01*
X132363Y-110371D01*
X132392Y-110429D01*
X132392Y-110743D01*
X132392Y-110429D02*
X132421Y-110371D01*
X132478Y-110343D01*
X132563Y-110343D01*
X132621Y-110371D01*
X132649Y-110429D01*
X132649Y-110743D01*
X133192Y-110743D02*
X133192Y-110429D01*
X133163Y-110371D01*
X133106Y-110343D01*
X132992Y-110343D01*
X132935Y-110371D01*
X133192Y-110714D02*
X133135Y-110743D01*
X132992Y-110743D01*
X132935Y-110714D01*
X132906Y-110657D01*
X132906Y-110600D01*
X132935Y-110543D01*
X132992Y-110514D01*
X133135Y-110514D01*
X133192Y-110486D01*
X133478Y-110743D02*
X133478Y-110343D01*
X133478Y-110457D02*
X133506Y-110400D01*
X133535Y-110371D01*
X133592Y-110343D01*
X133649Y-110343D01*
X134277Y-110200D02*
X134306Y-110171D01*
X134363Y-110143D01*
X134506Y-110143D01*
X134563Y-110171D01*
X134592Y-110200D01*
X134620Y-110257D01*
X134620Y-110314D01*
X134592Y-110400D01*
X134249Y-110743D01*
X134620Y-110743D01*
X134991Y-110143D02*
X135048Y-110143D01*
X135105Y-110171D01*
X135134Y-110200D01*
X135163Y-110257D01*
X135191Y-110371D01*
X135191Y-110514D01*
X135163Y-110629D01*
X135134Y-110686D01*
X135105Y-110714D01*
X135048Y-110743D01*
X134991Y-110743D01*
X134934Y-110714D01*
X134905Y-110686D01*
X134877Y-110629D01*
X134848Y-110514D01*
X134848Y-110371D01*
X134877Y-110257D01*
X134905Y-110200D01*
X134934Y-110171D01*
X134991Y-110143D01*
X135762Y-110743D02*
X135419Y-110743D01*
X135591Y-110743D02*
X135591Y-110143D01*
X135534Y-110229D01*
X135476Y-110286D01*
X135419Y-110314D01*
X135962Y-110143D02*
X136333Y-110143D01*
X136133Y-110371D01*
X136219Y-110371D01*
X136276Y-110400D01*
X136305Y-110429D01*
X136333Y-110486D01*
X136333Y-110629D01*
X136305Y-110686D01*
X136276Y-110714D01*
X136219Y-110743D01*
X136047Y-110743D01*
X135990Y-110714D01*
X135962Y-110686D01*
G54D10*
X119393Y-111943D02*
X119393Y-111343D01*
X119736Y-111943D02*
X119479Y-111600D01*
X119736Y-111343D02*
X119393Y-111686D01*
X119993Y-111943D02*
X119993Y-111543D01*
X119993Y-111343D02*
X119964Y-111371D01*
X119993Y-111400D01*
X120021Y-111371D01*
X119993Y-111343D01*
X119993Y-111400D01*
X120622Y-111886D02*
X120593Y-111914D01*
X120507Y-111943D01*
X120450Y-111943D01*
X120365Y-111914D01*
X120307Y-111857D01*
X120279Y-111800D01*
X120250Y-111686D01*
X120250Y-111600D01*
X120279Y-111486D01*
X120307Y-111429D01*
X120365Y-111371D01*
X120450Y-111343D01*
X120507Y-111343D01*
X120593Y-111371D01*
X120622Y-111400D01*
X121136Y-111943D02*
X121136Y-111629D01*
X121107Y-111571D01*
X121050Y-111543D01*
X120936Y-111543D01*
X120879Y-111571D01*
X121136Y-111914D02*
X121079Y-111943D01*
X120936Y-111943D01*
X120879Y-111914D01*
X120850Y-111857D01*
X120850Y-111800D01*
X120879Y-111743D01*
X120936Y-111714D01*
X121079Y-111714D01*
X121136Y-111686D01*
X121679Y-111943D02*
X121679Y-111343D01*
X121679Y-111914D02*
X121622Y-111943D01*
X121508Y-111943D01*
X121450Y-111914D01*
X121422Y-111886D01*
X121393Y-111829D01*
X121393Y-111657D01*
X121422Y-111600D01*
X121450Y-111571D01*
X121508Y-111543D01*
X121622Y-111543D01*
X121679Y-111571D01*
X122422Y-111629D02*
X122622Y-111629D01*
X122708Y-111943D02*
X122422Y-111943D01*
X122422Y-111343D01*
X122708Y-111343D01*
X122965Y-111886D02*
X122993Y-111914D01*
X122965Y-111943D01*
X122936Y-111914D01*
X122965Y-111886D01*
X122965Y-111943D01*
X123251Y-111943D02*
X123251Y-111343D01*
X123394Y-111343D01*
X123479Y-111371D01*
X123537Y-111429D01*
X123565Y-111486D01*
X123594Y-111600D01*
X123594Y-111686D01*
X123565Y-111800D01*
X123537Y-111857D01*
X123479Y-111914D01*
X123394Y-111943D01*
X123251Y-111943D01*
X123851Y-111886D02*
X123879Y-111914D01*
X123851Y-111943D01*
X123822Y-111914D01*
X123851Y-111886D01*
X123851Y-111943D01*
X124108Y-111771D02*
X124394Y-111771D01*
X124051Y-111943D02*
X124251Y-111343D01*
X124451Y-111943D01*
X124651Y-111886D02*
X124679Y-111914D01*
X124651Y-111943D01*
X124622Y-111914D01*
X124651Y-111886D01*
X124651Y-111943D01*
G54D11*
X152936Y-110743D02*
X152736Y-110457D01*
X152593Y-110743D02*
X152593Y-110143D01*
X152821Y-110143D01*
X152879Y-110171D01*
X152907Y-110200D01*
X152936Y-110257D01*
X152936Y-110343D01*
X152907Y-110400D01*
X152879Y-110429D01*
X152821Y-110457D01*
X152593Y-110457D01*
X153421Y-110714D02*
X153364Y-110743D01*
X153250Y-110743D01*
X153193Y-110714D01*
X153164Y-110657D01*
X153164Y-110429D01*
X153193Y-110371D01*
X153250Y-110343D01*
X153364Y-110343D01*
X153421Y-110371D01*
X153450Y-110429D01*
X153450Y-110486D01*
X153164Y-110543D01*
X153650Y-110343D02*
X153793Y-110743D01*
X153935Y-110343D01*
X154164Y-110686D02*
X154192Y-110714D01*
X154164Y-110743D01*
X154135Y-110714D01*
X154164Y-110686D01*
X154164Y-110743D01*
X154164Y-110371D02*
X154192Y-110400D01*
X154164Y-110429D01*
X154135Y-110400D01*
X154164Y-110371D01*
X154164Y-110429D01*
X155221Y-110743D02*
X154878Y-110743D01*
X155050Y-110743D02*
X155050Y-110143D01*
X154993Y-110229D01*
X154935Y-110286D01*
X154878Y-110314D01*
X155478Y-110686D02*
X155506Y-110714D01*
X155478Y-110743D01*
X155449Y-110714D01*
X155478Y-110686D01*
X155478Y-110743D01*
X155878Y-110143D02*
X155935Y-110143D01*
X155992Y-110171D01*
X156021Y-110200D01*
X156050Y-110257D01*
X156078Y-110371D01*
X156078Y-110514D01*
X156050Y-110629D01*
X156021Y-110686D01*
X155992Y-110714D01*
X155935Y-110743D01*
X155878Y-110743D01*
X155821Y-110714D01*
X155792Y-110686D01*
X155764Y-110629D01*
X155735Y-110514D01*
X155735Y-110371D01*
X155764Y-110257D01*
X155792Y-110200D01*
X155821Y-110171D01*
X155878Y-110143D01*
G54D10*
X119364Y-110714D02*
X119450Y-110743D01*
X119593Y-110743D01*
X119650Y-110714D01*
X119679Y-110686D01*
X119707Y-110629D01*
X119707Y-110571D01*
X119679Y-110514D01*
X119650Y-110486D01*
X119593Y-110457D01*
X119479Y-110429D01*
X119421Y-110400D01*
X119393Y-110371D01*
X119364Y-110314D01*
X119364Y-110257D01*
X119393Y-110200D01*
X119421Y-110171D01*
X119479Y-110143D01*
X119621Y-110143D01*
X119707Y-110171D01*
X119964Y-110743D02*
X119964Y-110343D01*
X119964Y-110143D02*
X119935Y-110171D01*
X119964Y-110200D01*
X119992Y-110171D01*
X119964Y-110143D01*
X119964Y-110200D01*
X120193Y-110343D02*
X120507Y-110343D01*
X120193Y-110743D01*
X120507Y-110743D01*
X120964Y-110714D02*
X120907Y-110743D01*
X120793Y-110743D01*
X120736Y-110714D01*
X120707Y-110657D01*
X120707Y-110429D01*
X120736Y-110371D01*
X120793Y-110343D01*
X120907Y-110343D01*
X120964Y-110371D01*
X120993Y-110429D01*
X120993Y-110486D01*
X120707Y-110543D01*
X121250Y-110686D02*
X121278Y-110714D01*
X121250Y-110743D01*
X121221Y-110714D01*
X121250Y-110686D01*
X121250Y-110743D01*
X121250Y-110371D02*
X121278Y-110400D01*
X121250Y-110429D01*
X121221Y-110400D01*
X121250Y-110371D01*
X121250Y-110429D01*
X121964Y-110571D02*
X122250Y-110571D01*
X121907Y-110743D02*
X122107Y-110143D01*
X122307Y-110743D01*
X122450Y-110143D02*
X122821Y-110143D01*
X122621Y-110371D01*
X122707Y-110371D01*
X122764Y-110400D01*
X122793Y-110429D01*
X122821Y-110486D01*
X122821Y-110629D01*
X122793Y-110686D01*
X122764Y-110714D01*
X122707Y-110743D01*
X122535Y-110743D01*
X122478Y-110714D01*
X122450Y-110686D01*
X152593Y-111943D02*
X152593Y-111343D01*
X153136Y-111943D02*
X153136Y-111343D01*
X153136Y-111914D02*
X153079Y-111943D01*
X152965Y-111943D01*
X152907Y-111914D01*
X152879Y-111886D01*
X152850Y-111829D01*
X152850Y-111657D01*
X152879Y-111600D01*
X152907Y-111571D01*
X152965Y-111543D01*
X153079Y-111543D01*
X153136Y-111571D01*
X153422Y-111886D02*
X153450Y-111914D01*
X153422Y-111943D01*
X153393Y-111914D01*
X153422Y-111886D01*
X153422Y-111943D01*
X153422Y-111571D02*
X153450Y-111600D01*
X153422Y-111629D01*
X153393Y-111600D01*
X153422Y-111571D01*
X153422Y-111629D01*
X154479Y-111943D02*
X154136Y-111943D01*
X154308Y-111943D02*
X154308Y-111343D01*
X154251Y-111429D01*
X154193Y-111486D01*
X154136Y-111514D01*
X155164Y-111314D02*
X154650Y-112086D01*
X155679Y-111943D02*
X155336Y-111943D01*
X155508Y-111943D02*
X155508Y-111343D01*
X155451Y-111429D01*
X155393Y-111486D01*
X155336Y-111514D01*
G54D11*
X119307Y-108943D02*
X119650Y-108943D01*
X119479Y-109543D02*
X119479Y-108943D01*
X119850Y-109543D02*
X119850Y-109143D01*
X119850Y-108943D02*
X119821Y-108971D01*
X119850Y-109000D01*
X119878Y-108971D01*
X119850Y-108943D01*
X119850Y-109000D01*
X120050Y-109143D02*
X120279Y-109143D01*
X120136Y-108943D02*
X120136Y-109457D01*
X120164Y-109514D01*
X120222Y-109543D01*
X120279Y-109543D01*
X120565Y-109543D02*
X120507Y-109514D01*
X120479Y-109457D01*
X120479Y-108943D01*
X121021Y-109514D02*
X120964Y-109543D01*
X120850Y-109543D01*
X120793Y-109514D01*
X120764Y-109457D01*
X120764Y-109229D01*
X120793Y-109171D01*
X120850Y-109143D01*
X120964Y-109143D01*
X121021Y-109171D01*
X121050Y-109229D01*
X121050Y-109286D01*
X120764Y-109343D01*
X121307Y-109486D02*
X121335Y-109514D01*
X121307Y-109543D01*
X121278Y-109514D01*
X121307Y-109486D01*
X121307Y-109543D01*
X121307Y-109171D02*
X121335Y-109200D01*
X121307Y-109229D01*
X121278Y-109200D01*
X121307Y-109171D01*
X121307Y-109229D01*
X122393Y-109486D02*
X122364Y-109514D01*
X122278Y-109543D01*
X122221Y-109543D01*
X122136Y-109514D01*
X122078Y-109457D01*
X122050Y-109400D01*
X122021Y-109286D01*
X122021Y-109200D01*
X122050Y-109086D01*
X122078Y-109029D01*
X122136Y-108971D01*
X122221Y-108943D01*
X122278Y-108943D01*
X122364Y-108971D01*
X122393Y-109000D01*
X122907Y-109543D02*
X122907Y-109229D01*
X122878Y-109171D01*
X122821Y-109143D01*
X122707Y-109143D01*
X122650Y-109171D01*
X122907Y-109514D02*
X122850Y-109543D01*
X122707Y-109543D01*
X122650Y-109514D01*
X122621Y-109457D01*
X122621Y-109400D01*
X122650Y-109343D01*
X122707Y-109314D01*
X122850Y-109314D01*
X122907Y-109286D01*
X123193Y-109543D02*
X123193Y-109143D01*
X123193Y-109257D02*
X123221Y-109200D01*
X123250Y-109171D01*
X123307Y-109143D01*
X123364Y-109143D01*
X123478Y-109143D02*
X123707Y-109143D01*
X123564Y-108943D02*
X123564Y-109457D01*
X123592Y-109514D01*
X123650Y-109543D01*
X123707Y-109543D01*
X124135Y-109514D02*
X124078Y-109543D01*
X123964Y-109543D01*
X123907Y-109514D01*
X123878Y-109457D01*
X123878Y-109229D01*
X123907Y-109171D01*
X123964Y-109143D01*
X124078Y-109143D01*
X124135Y-109171D01*
X124164Y-109229D01*
X124164Y-109286D01*
X123878Y-109343D01*
X124878Y-109543D02*
X124878Y-109143D01*
X124878Y-108943D02*
X124849Y-108971D01*
X124878Y-109000D01*
X124906Y-108971D01*
X124878Y-108943D01*
X124878Y-109000D01*
X125164Y-109143D02*
X125164Y-109543D01*
X125164Y-109200D02*
X125192Y-109171D01*
X125250Y-109143D01*
X125335Y-109143D01*
X125392Y-109171D01*
X125421Y-109229D01*
X125421Y-109543D01*
X125621Y-109143D02*
X125850Y-109143D01*
X125707Y-108943D02*
X125707Y-109457D01*
X125735Y-109514D01*
X125793Y-109543D01*
X125850Y-109543D01*
X126278Y-109514D02*
X126221Y-109543D01*
X126107Y-109543D01*
X126050Y-109514D01*
X126021Y-109457D01*
X126021Y-109229D01*
X126050Y-109171D01*
X126107Y-109143D01*
X126221Y-109143D01*
X126278Y-109171D01*
X126307Y-109229D01*
X126307Y-109286D01*
X126021Y-109343D01*
X126564Y-109543D02*
X126564Y-109143D01*
X126564Y-109257D02*
X126592Y-109200D01*
X126621Y-109171D01*
X126678Y-109143D01*
X126735Y-109143D01*
X126849Y-109143D02*
X127078Y-109143D01*
X126935Y-109543D02*
X126935Y-109029D01*
X126963Y-108971D01*
X127021Y-108943D01*
X127078Y-108943D01*
X127535Y-109543D02*
X127535Y-109229D01*
X127506Y-109171D01*
X127449Y-109143D01*
X127335Y-109143D01*
X127278Y-109171D01*
X127535Y-109514D02*
X127478Y-109543D01*
X127335Y-109543D01*
X127278Y-109514D01*
X127249Y-109457D01*
X127249Y-109400D01*
X127278Y-109343D01*
X127335Y-109314D01*
X127478Y-109314D01*
X127535Y-109286D01*
X128078Y-109514D02*
X128021Y-109543D01*
X127907Y-109543D01*
X127849Y-109514D01*
X127821Y-109486D01*
X127792Y-109429D01*
X127792Y-109257D01*
X127821Y-109200D01*
X127849Y-109171D01*
X127907Y-109143D01*
X128021Y-109143D01*
X128078Y-109171D01*
X128563Y-109514D02*
X128506Y-109543D01*
X128392Y-109543D01*
X128335Y-109514D01*
X128306Y-109457D01*
X128306Y-109229D01*
X128335Y-109171D01*
X128392Y-109143D01*
X128506Y-109143D01*
X128563Y-109171D01*
X128592Y-109229D01*
X128592Y-109286D01*
X128306Y-109343D01*
G54D10*
X119593Y-106829D02*
X119393Y-106829D01*
X119393Y-107143D02*
X119393Y-106543D01*
X119679Y-106543D01*
X119907Y-107143D02*
X119907Y-106743D01*
X119907Y-106543D02*
X119878Y-106571D01*
X119907Y-106600D01*
X119935Y-106571D01*
X119907Y-106543D01*
X119907Y-106600D01*
X120279Y-107143D02*
X120221Y-107114D01*
X120193Y-107057D01*
X120193Y-106543D01*
X120735Y-107114D02*
X120678Y-107143D01*
X120564Y-107143D01*
X120507Y-107114D01*
X120478Y-107057D01*
X120478Y-106829D01*
X120507Y-106771D01*
X120564Y-106743D01*
X120678Y-106743D01*
X120735Y-106771D01*
X120764Y-106829D01*
X120764Y-106886D01*
X120478Y-106943D01*
X121021Y-107086D02*
X121049Y-107114D01*
X121021Y-107143D01*
X120992Y-107114D01*
X121021Y-107086D01*
X121021Y-107143D01*
X121021Y-106771D02*
X121049Y-106800D01*
X121021Y-106829D01*
X120992Y-106800D01*
X121021Y-106771D01*
X121021Y-106829D01*
X122021Y-107114D02*
X121964Y-107143D01*
X121850Y-107143D01*
X121792Y-107114D01*
X121764Y-107086D01*
X121735Y-107029D01*
X121735Y-106857D01*
X121764Y-106800D01*
X121792Y-106771D01*
X121850Y-106743D01*
X121964Y-106743D01*
X122021Y-106771D01*
X122535Y-107143D02*
X122535Y-106829D01*
X122506Y-106771D01*
X122449Y-106743D01*
X122335Y-106743D01*
X122278Y-106771D01*
X122535Y-107114D02*
X122478Y-107143D01*
X122335Y-107143D01*
X122278Y-107114D01*
X122249Y-107057D01*
X122249Y-107000D01*
X122278Y-106943D01*
X122335Y-106914D01*
X122478Y-106914D01*
X122535Y-106886D01*
X122821Y-107143D02*
X122821Y-106743D01*
X122821Y-106857D02*
X122849Y-106800D01*
X122878Y-106771D01*
X122935Y-106743D01*
X122992Y-106743D01*
X123106Y-106743D02*
X123335Y-106743D01*
X123192Y-106543D02*
X123192Y-107057D01*
X123220Y-107114D01*
X123278Y-107143D01*
X123335Y-107143D01*
X123763Y-107114D02*
X123706Y-107143D01*
X123592Y-107143D01*
X123535Y-107114D01*
X123506Y-107057D01*
X123506Y-106829D01*
X123535Y-106771D01*
X123592Y-106743D01*
X123706Y-106743D01*
X123763Y-106771D01*
X123792Y-106829D01*
X123792Y-106886D01*
X123506Y-106943D01*
X123906Y-107200D02*
X124363Y-107200D01*
X124506Y-107143D02*
X124506Y-106743D01*
X124506Y-106543D02*
X124477Y-106571D01*
X124506Y-106600D01*
X124534Y-106571D01*
X124506Y-106543D01*
X124506Y-106600D01*
X124792Y-106743D02*
X124792Y-107143D01*
X124792Y-106800D02*
X124820Y-106771D01*
X124878Y-106743D01*
X124963Y-106743D01*
X125020Y-106771D01*
X125049Y-106829D01*
X125049Y-107143D01*
X125249Y-106743D02*
X125478Y-106743D01*
X125335Y-106543D02*
X125335Y-107057D01*
X125363Y-107114D01*
X125421Y-107143D01*
X125478Y-107143D01*
X125906Y-107114D02*
X125849Y-107143D01*
X125735Y-107143D01*
X125678Y-107114D01*
X125649Y-107057D01*
X125649Y-106829D01*
X125678Y-106771D01*
X125735Y-106743D01*
X125849Y-106743D01*
X125906Y-106771D01*
X125935Y-106829D01*
X125935Y-106886D01*
X125649Y-106943D01*
X126192Y-107143D02*
X126192Y-106743D01*
X126192Y-106857D02*
X126220Y-106800D01*
X126249Y-106771D01*
X126306Y-106743D01*
X126363Y-106743D01*
X126477Y-106743D02*
X126706Y-106743D01*
X126563Y-107143D02*
X126563Y-106629D01*
X126591Y-106571D01*
X126649Y-106543D01*
X126706Y-106543D01*
X127163Y-107143D02*
X127163Y-106829D01*
X127134Y-106771D01*
X127077Y-106743D01*
X126963Y-106743D01*
X126906Y-106771D01*
X127163Y-107114D02*
X127106Y-107143D01*
X126963Y-107143D01*
X126906Y-107114D01*
X126877Y-107057D01*
X126877Y-107000D01*
X126906Y-106943D01*
X126963Y-106914D01*
X127106Y-106914D01*
X127163Y-106886D01*
X127706Y-107114D02*
X127649Y-107143D01*
X127535Y-107143D01*
X127477Y-107114D01*
X127449Y-107086D01*
X127420Y-107029D01*
X127420Y-106857D01*
X127449Y-106800D01*
X127477Y-106771D01*
X127535Y-106743D01*
X127649Y-106743D01*
X127706Y-106771D01*
X128191Y-107114D02*
X128134Y-107143D01*
X128020Y-107143D01*
X127963Y-107114D01*
X127934Y-107057D01*
X127934Y-106829D01*
X127963Y-106771D01*
X128020Y-106743D01*
X128134Y-106743D01*
X128191Y-106771D01*
X128220Y-106829D01*
X128220Y-106886D01*
X127934Y-106943D01*
X128477Y-107086D02*
X128505Y-107114D01*
X128477Y-107143D01*
X128448Y-107114D01*
X128477Y-107086D01*
X128477Y-107143D01*
X128763Y-107143D02*
X128763Y-106543D01*
X128763Y-106771D02*
X128820Y-106743D01*
X128934Y-106743D01*
X128991Y-106771D01*
X129020Y-106800D01*
X129049Y-106857D01*
X129049Y-107029D01*
X129020Y-107086D01*
X128991Y-107114D01*
X128934Y-107143D01*
X128820Y-107143D01*
X128763Y-107114D01*
X129306Y-107143D02*
X129306Y-106743D01*
X129306Y-106857D02*
X129334Y-106800D01*
X129363Y-106771D01*
X129420Y-106743D01*
X129477Y-106743D01*
X129934Y-107143D02*
X129934Y-106543D01*
X129934Y-107114D02*
X129877Y-107143D01*
X129763Y-107143D01*
X129705Y-107114D01*
X129677Y-107086D01*
X129648Y-107029D01*
X129648Y-106857D01*
X129677Y-106800D01*
X129705Y-106771D01*
X129763Y-106743D01*
X129877Y-106743D01*
X129934Y-106771D01*
X119364Y-108314D02*
X119450Y-108343D01*
X119593Y-108343D01*
X119650Y-108314D01*
X119679Y-108286D01*
X119707Y-108229D01*
X119707Y-108171D01*
X119679Y-108114D01*
X119650Y-108086D01*
X119593Y-108057D01*
X119479Y-108029D01*
X119421Y-108000D01*
X119393Y-107971D01*
X119364Y-107914D01*
X119364Y-107857D01*
X119393Y-107800D01*
X119421Y-107771D01*
X119479Y-107743D01*
X119621Y-107743D01*
X119707Y-107771D01*
X119964Y-108343D02*
X119964Y-107743D01*
X120221Y-108343D02*
X120221Y-108029D01*
X120192Y-107971D01*
X120135Y-107943D01*
X120050Y-107943D01*
X119992Y-107971D01*
X119964Y-108000D01*
X120735Y-108314D02*
X120678Y-108343D01*
X120564Y-108343D01*
X120507Y-108314D01*
X120478Y-108257D01*
X120478Y-108029D01*
X120507Y-107971D01*
X120564Y-107943D01*
X120678Y-107943D01*
X120735Y-107971D01*
X120764Y-108029D01*
X120764Y-108086D01*
X120478Y-108143D01*
X121249Y-108314D02*
X121192Y-108343D01*
X121078Y-108343D01*
X121021Y-108314D01*
X120992Y-108257D01*
X120992Y-108029D01*
X121021Y-107971D01*
X121078Y-107943D01*
X121192Y-107943D01*
X121249Y-107971D01*
X121278Y-108029D01*
X121278Y-108086D01*
X120992Y-108143D01*
X121449Y-107943D02*
X121678Y-107943D01*
X121535Y-107743D02*
X121535Y-108257D01*
X121563Y-108314D01*
X121621Y-108343D01*
X121678Y-108343D01*
X121878Y-108286D02*
X121906Y-108314D01*
X121878Y-108343D01*
X121849Y-108314D01*
X121878Y-108286D01*
X121878Y-108343D01*
X121878Y-107971D02*
X121906Y-108000D01*
X121878Y-108029D01*
X121849Y-108000D01*
X121878Y-107971D01*
X121878Y-108029D01*
X122935Y-108343D02*
X122592Y-108343D01*
X122764Y-108343D02*
X122764Y-107743D01*
X122707Y-107829D01*
X122649Y-107886D01*
X122592Y-107914D01*
X123620Y-107714D02*
X123106Y-108486D01*
X124135Y-108343D02*
X123792Y-108343D01*
X123964Y-108343D02*
X123964Y-107743D01*
X123907Y-107829D01*
X123849Y-107886D01*
X123792Y-107914D01*
G54D11*
X119393Y-105629D02*
X119593Y-105629D01*
X119679Y-105943D02*
X119393Y-105943D01*
X119393Y-105343D01*
X119679Y-105343D01*
X119936Y-105943D02*
X119936Y-105343D01*
X120164Y-105343D01*
X120222Y-105371D01*
X120250Y-105400D01*
X120279Y-105457D01*
X120279Y-105543D01*
X120250Y-105600D01*
X120222Y-105629D01*
X120164Y-105657D01*
X119936Y-105657D01*
X120507Y-105914D02*
X120593Y-105943D01*
X120736Y-105943D01*
X120793Y-105914D01*
X120822Y-105886D01*
X120850Y-105829D01*
X120850Y-105771D01*
X120822Y-105714D01*
X120793Y-105686D01*
X120736Y-105657D01*
X120622Y-105629D01*
X120564Y-105600D01*
X120536Y-105571D01*
X120507Y-105514D01*
X120507Y-105457D01*
X120536Y-105400D01*
X120564Y-105371D01*
X120622Y-105343D01*
X120764Y-105343D01*
X120850Y-105371D01*
X121078Y-105771D02*
X121364Y-105771D01*
X121021Y-105943D02*
X121221Y-105343D01*
X121421Y-105943D01*
X122078Y-105714D02*
X122535Y-105714D01*
X123278Y-105943D02*
X123278Y-105343D01*
X123278Y-105629D02*
X123621Y-105629D01*
X123621Y-105943D02*
X123621Y-105343D01*
X123850Y-105543D02*
X123993Y-105943D01*
X124135Y-105543D02*
X123993Y-105943D01*
X123935Y-106086D01*
X123907Y-106114D01*
X123850Y-106143D01*
X124364Y-105543D02*
X124364Y-106143D01*
X124364Y-105571D02*
X124421Y-105543D01*
X124535Y-105543D01*
X124592Y-105571D01*
X124621Y-105600D01*
X124650Y-105657D01*
X124650Y-105829D01*
X124621Y-105886D01*
X124592Y-105914D01*
X124535Y-105943D01*
X124421Y-105943D01*
X124364Y-105914D01*
X124907Y-105543D02*
X124907Y-105943D01*
X124907Y-105600D02*
X124935Y-105571D01*
X124993Y-105543D01*
X125078Y-105543D01*
X125135Y-105571D01*
X125164Y-105629D01*
X125164Y-105943D01*
X125536Y-105943D02*
X125478Y-105914D01*
X125450Y-105886D01*
X125421Y-105829D01*
X125421Y-105657D01*
X125450Y-105600D01*
X125478Y-105571D01*
X125536Y-105543D01*
X125621Y-105543D01*
X125678Y-105571D01*
X125707Y-105600D01*
X125736Y-105657D01*
X125736Y-105829D01*
X125707Y-105886D01*
X125678Y-105914D01*
X125621Y-105943D01*
X125536Y-105943D01*
X125936Y-105343D02*
X126336Y-105343D01*
X125936Y-105943D01*
X126336Y-105943D01*
X118650Y-105100D02*
X118650Y-112300D01*
X118650Y-106300D02*
X160650Y-106300D01*
X118650Y-105100D02*
X160650Y-105100D01*
X118650Y-108700D02*
X160650Y-108700D01*
X151850Y-109900D02*
X151850Y-112300D01*
X118650Y-111100D02*
X160650Y-111100D01*
X118650Y-109900D02*
X160650Y-109900D01*
X125250Y-109900D02*
X125250Y-111100D01*
G54D12*
X09750Y-08000D02*
X09750Y-08750D01*
X12000Y-05750D02*
X09750Y-08000D01*
X64750Y-05750D02*
X12000Y-05750D01*
X67000Y-08000D02*
X64750Y-05750D01*
X67000Y-08750D02*
X67000Y-08000D01*
X12000Y-52500D02*
X22500Y-52500D01*
X09750Y-50250D02*
X09750Y-08750D01*
X12000Y-52500D02*
X09750Y-50250D01*
X67000Y-08750D02*
X67000Y-46000D01*
X67000Y-21500D02*
X67000Y-46000D01*
X59500Y-52500D02*
X22500Y-52500D01*
X59500Y-46000D02*
X59500Y-52500D01*
X59500Y-46000D02*
X67000Y-46000D01*
M02*
