G04 (created by PCBNEW (2012-01-19 BZR 3256)-stable) date 12/03/2013 15:58:04*
G01*
G70*
G90*
%MOIN*%
G04 Gerber Fmt 3.4, Leading zero omitted, Abs format*
%FSLAX34Y34*%
G04 APERTURE LIST*
%ADD10C,0.001000*%
%ADD11C,0.015000*%
%ADD12C,0.008000*%
G04 APERTURE END LIST*
G54D10*
G54D11*
X20000Y-51000D02*
X20000Y-27000D01*
X51250Y-52250D02*
X21250Y-52250D01*
X20000Y-51000D02*
X21250Y-52250D01*
X51000Y-20000D02*
X26500Y-20000D01*
X52500Y-51000D02*
X51250Y-52250D01*
X52500Y-21500D02*
X52500Y-51000D01*
X51000Y-20000D02*
X52500Y-21500D01*
X26500Y-27000D02*
X26500Y-20000D01*
X20000Y-27000D02*
X26500Y-27000D01*
G54D10*
X30632Y-22382D02*
X30868Y-22618D01*
X30868Y-22382D02*
X30632Y-22618D01*
X30632Y-49882D02*
X30868Y-50118D01*
X30868Y-49882D02*
X30632Y-50118D01*
X41632Y-22382D02*
X41868Y-22618D01*
X41868Y-22382D02*
X41632Y-22618D01*
X41632Y-49882D02*
X41868Y-50118D01*
X41868Y-49882D02*
X41632Y-50118D01*
X32870Y-29500D02*
X32867Y-29523D01*
X32860Y-29545D01*
X32849Y-29566D01*
X32835Y-29584D01*
X32817Y-29599D01*
X32796Y-29610D01*
X32774Y-29617D01*
X32750Y-29619D01*
X32728Y-29617D01*
X32706Y-29611D01*
X32685Y-29600D01*
X32667Y-29585D01*
X32651Y-29567D01*
X32640Y-29547D01*
X32633Y-29524D01*
X32631Y-29501D01*
X32632Y-29479D01*
X32639Y-29456D01*
X32650Y-29435D01*
X32664Y-29417D01*
X32682Y-29402D01*
X32702Y-29391D01*
X32725Y-29383D01*
X32748Y-29381D01*
X32770Y-29382D01*
X32793Y-29389D01*
X32814Y-29399D01*
X32832Y-29414D01*
X32848Y-29431D01*
X32859Y-29452D01*
X32867Y-29474D01*
X32869Y-29497D01*
X32870Y-29500D01*
X33870Y-29500D02*
X33867Y-29523D01*
X33860Y-29545D01*
X33849Y-29566D01*
X33835Y-29584D01*
X33817Y-29599D01*
X33796Y-29610D01*
X33774Y-29617D01*
X33750Y-29619D01*
X33728Y-29617D01*
X33706Y-29611D01*
X33685Y-29600D01*
X33667Y-29585D01*
X33651Y-29567D01*
X33640Y-29547D01*
X33633Y-29524D01*
X33631Y-29501D01*
X33632Y-29479D01*
X33639Y-29456D01*
X33650Y-29435D01*
X33664Y-29417D01*
X33682Y-29402D01*
X33702Y-29391D01*
X33725Y-29383D01*
X33748Y-29381D01*
X33770Y-29382D01*
X33793Y-29389D01*
X33814Y-29399D01*
X33832Y-29414D01*
X33848Y-29431D01*
X33859Y-29452D01*
X33867Y-29474D01*
X33869Y-29497D01*
X33870Y-29500D01*
X38870Y-29500D02*
X38867Y-29523D01*
X38860Y-29545D01*
X38849Y-29566D01*
X38835Y-29584D01*
X38817Y-29599D01*
X38796Y-29610D01*
X38774Y-29617D01*
X38750Y-29619D01*
X38728Y-29617D01*
X38706Y-29611D01*
X38685Y-29600D01*
X38667Y-29585D01*
X38651Y-29567D01*
X38640Y-29547D01*
X38633Y-29524D01*
X38631Y-29501D01*
X38632Y-29479D01*
X38639Y-29456D01*
X38650Y-29435D01*
X38664Y-29417D01*
X38682Y-29402D01*
X38702Y-29391D01*
X38725Y-29383D01*
X38748Y-29381D01*
X38770Y-29382D01*
X38793Y-29389D01*
X38814Y-29399D01*
X38832Y-29414D01*
X38848Y-29431D01*
X38859Y-29452D01*
X38867Y-29474D01*
X38869Y-29497D01*
X38870Y-29500D01*
X39870Y-29500D02*
X39867Y-29523D01*
X39860Y-29545D01*
X39849Y-29566D01*
X39835Y-29584D01*
X39817Y-29599D01*
X39796Y-29610D01*
X39774Y-29617D01*
X39750Y-29619D01*
X39728Y-29617D01*
X39706Y-29611D01*
X39685Y-29600D01*
X39667Y-29585D01*
X39651Y-29567D01*
X39640Y-29547D01*
X39633Y-29524D01*
X39631Y-29501D01*
X39632Y-29479D01*
X39639Y-29456D01*
X39650Y-29435D01*
X39664Y-29417D01*
X39682Y-29402D01*
X39702Y-29391D01*
X39725Y-29383D01*
X39748Y-29381D01*
X39770Y-29382D01*
X39793Y-29389D01*
X39814Y-29399D01*
X39832Y-29414D01*
X39848Y-29431D01*
X39859Y-29452D01*
X39867Y-29474D01*
X39869Y-29497D01*
X39870Y-29500D01*
X32000Y-26875D02*
X32000Y-27125D01*
X32125Y-27000D02*
X31875Y-27000D01*
X34250Y-26125D02*
X34250Y-26375D01*
X34375Y-26250D02*
X34125Y-26250D01*
X37750Y-30375D02*
X37750Y-30625D01*
X37875Y-30500D02*
X37625Y-30500D01*
X32910Y-31500D02*
X32906Y-31531D01*
X32897Y-31560D01*
X32883Y-31588D01*
X32863Y-31612D01*
X32839Y-31632D01*
X32812Y-31647D01*
X32782Y-31656D01*
X32751Y-31659D01*
X32721Y-31657D01*
X32691Y-31648D01*
X32663Y-31633D01*
X32639Y-31614D01*
X32618Y-31590D01*
X32603Y-31563D01*
X32594Y-31533D01*
X32591Y-31502D01*
X32593Y-31472D01*
X32602Y-31442D01*
X32616Y-31414D01*
X32635Y-31389D01*
X32659Y-31369D01*
X32686Y-31354D01*
X32716Y-31344D01*
X32747Y-31341D01*
X32777Y-31343D01*
X32807Y-31351D01*
X32835Y-31365D01*
X32860Y-31385D01*
X32880Y-31408D01*
X32896Y-31435D01*
X32906Y-31465D01*
X32909Y-31496D01*
X32910Y-31500D01*
X32590Y-31340D02*
X32910Y-31660D01*
X32910Y-31340D02*
X32590Y-31660D01*
X33910Y-31500D02*
X33906Y-31531D01*
X33897Y-31560D01*
X33883Y-31588D01*
X33863Y-31612D01*
X33839Y-31632D01*
X33812Y-31647D01*
X33782Y-31656D01*
X33751Y-31659D01*
X33721Y-31657D01*
X33691Y-31648D01*
X33663Y-31633D01*
X33639Y-31614D01*
X33618Y-31590D01*
X33603Y-31563D01*
X33594Y-31533D01*
X33591Y-31502D01*
X33593Y-31472D01*
X33602Y-31442D01*
X33616Y-31414D01*
X33635Y-31389D01*
X33659Y-31369D01*
X33686Y-31354D01*
X33716Y-31344D01*
X33747Y-31341D01*
X33777Y-31343D01*
X33807Y-31351D01*
X33835Y-31365D01*
X33860Y-31385D01*
X33880Y-31408D01*
X33896Y-31435D01*
X33906Y-31465D01*
X33909Y-31496D01*
X33910Y-31500D01*
X33590Y-31340D02*
X33910Y-31660D01*
X33910Y-31340D02*
X33590Y-31660D01*
X34910Y-37500D02*
X34906Y-37531D01*
X34897Y-37560D01*
X34883Y-37588D01*
X34863Y-37612D01*
X34839Y-37632D01*
X34812Y-37647D01*
X34782Y-37656D01*
X34751Y-37659D01*
X34721Y-37657D01*
X34691Y-37648D01*
X34663Y-37633D01*
X34639Y-37614D01*
X34618Y-37590D01*
X34603Y-37563D01*
X34594Y-37533D01*
X34591Y-37502D01*
X34593Y-37472D01*
X34602Y-37442D01*
X34616Y-37414D01*
X34635Y-37389D01*
X34659Y-37369D01*
X34686Y-37354D01*
X34716Y-37344D01*
X34747Y-37341D01*
X34777Y-37343D01*
X34807Y-37351D01*
X34835Y-37365D01*
X34860Y-37385D01*
X34880Y-37408D01*
X34896Y-37435D01*
X34906Y-37465D01*
X34909Y-37496D01*
X34910Y-37500D01*
X34590Y-37340D02*
X34910Y-37660D01*
X34910Y-37340D02*
X34590Y-37660D01*
X34910Y-39000D02*
X34906Y-39031D01*
X34897Y-39060D01*
X34883Y-39088D01*
X34863Y-39112D01*
X34839Y-39132D01*
X34812Y-39147D01*
X34782Y-39156D01*
X34751Y-39159D01*
X34721Y-39157D01*
X34691Y-39148D01*
X34663Y-39133D01*
X34639Y-39114D01*
X34618Y-39090D01*
X34603Y-39063D01*
X34594Y-39033D01*
X34591Y-39002D01*
X34593Y-38972D01*
X34602Y-38942D01*
X34616Y-38914D01*
X34635Y-38889D01*
X34659Y-38869D01*
X34686Y-38854D01*
X34716Y-38844D01*
X34747Y-38841D01*
X34777Y-38843D01*
X34807Y-38851D01*
X34835Y-38865D01*
X34860Y-38885D01*
X34880Y-38908D01*
X34896Y-38935D01*
X34906Y-38965D01*
X34909Y-38996D01*
X34910Y-39000D01*
X34590Y-38840D02*
X34910Y-39160D01*
X34910Y-38840D02*
X34590Y-39160D01*
X37910Y-37500D02*
X37906Y-37531D01*
X37897Y-37560D01*
X37883Y-37588D01*
X37863Y-37612D01*
X37839Y-37632D01*
X37812Y-37647D01*
X37782Y-37656D01*
X37751Y-37659D01*
X37721Y-37657D01*
X37691Y-37648D01*
X37663Y-37633D01*
X37639Y-37614D01*
X37618Y-37590D01*
X37603Y-37563D01*
X37594Y-37533D01*
X37591Y-37502D01*
X37593Y-37472D01*
X37602Y-37442D01*
X37616Y-37414D01*
X37635Y-37389D01*
X37659Y-37369D01*
X37686Y-37354D01*
X37716Y-37344D01*
X37747Y-37341D01*
X37777Y-37343D01*
X37807Y-37351D01*
X37835Y-37365D01*
X37860Y-37385D01*
X37880Y-37408D01*
X37896Y-37435D01*
X37906Y-37465D01*
X37909Y-37496D01*
X37910Y-37500D01*
X37590Y-37340D02*
X37910Y-37660D01*
X37910Y-37340D02*
X37590Y-37660D01*
X37910Y-39000D02*
X37906Y-39031D01*
X37897Y-39060D01*
X37883Y-39088D01*
X37863Y-39112D01*
X37839Y-39132D01*
X37812Y-39147D01*
X37782Y-39156D01*
X37751Y-39159D01*
X37721Y-39157D01*
X37691Y-39148D01*
X37663Y-39133D01*
X37639Y-39114D01*
X37618Y-39090D01*
X37603Y-39063D01*
X37594Y-39033D01*
X37591Y-39002D01*
X37593Y-38972D01*
X37602Y-38942D01*
X37616Y-38914D01*
X37635Y-38889D01*
X37659Y-38869D01*
X37686Y-38854D01*
X37716Y-38844D01*
X37747Y-38841D01*
X37777Y-38843D01*
X37807Y-38851D01*
X37835Y-38865D01*
X37860Y-38885D01*
X37880Y-38908D01*
X37896Y-38935D01*
X37906Y-38965D01*
X37909Y-38996D01*
X37910Y-39000D01*
X37590Y-38840D02*
X37910Y-39160D01*
X37910Y-38840D02*
X37590Y-39160D01*
X38910Y-31500D02*
X38906Y-31531D01*
X38897Y-31560D01*
X38883Y-31588D01*
X38863Y-31612D01*
X38839Y-31632D01*
X38812Y-31647D01*
X38782Y-31656D01*
X38751Y-31659D01*
X38721Y-31657D01*
X38691Y-31648D01*
X38663Y-31633D01*
X38639Y-31614D01*
X38618Y-31590D01*
X38603Y-31563D01*
X38594Y-31533D01*
X38591Y-31502D01*
X38593Y-31472D01*
X38602Y-31442D01*
X38616Y-31414D01*
X38635Y-31389D01*
X38659Y-31369D01*
X38686Y-31354D01*
X38716Y-31344D01*
X38747Y-31341D01*
X38777Y-31343D01*
X38807Y-31351D01*
X38835Y-31365D01*
X38860Y-31385D01*
X38880Y-31408D01*
X38896Y-31435D01*
X38906Y-31465D01*
X38909Y-31496D01*
X38910Y-31500D01*
X38590Y-31340D02*
X38910Y-31660D01*
X38910Y-31340D02*
X38590Y-31660D01*
X39910Y-31500D02*
X39906Y-31531D01*
X39897Y-31560D01*
X39883Y-31588D01*
X39863Y-31612D01*
X39839Y-31632D01*
X39812Y-31647D01*
X39782Y-31656D01*
X39751Y-31659D01*
X39721Y-31657D01*
X39691Y-31648D01*
X39663Y-31633D01*
X39639Y-31614D01*
X39618Y-31590D01*
X39603Y-31563D01*
X39594Y-31533D01*
X39591Y-31502D01*
X39593Y-31472D01*
X39602Y-31442D01*
X39616Y-31414D01*
X39635Y-31389D01*
X39659Y-31369D01*
X39686Y-31354D01*
X39716Y-31344D01*
X39747Y-31341D01*
X39777Y-31343D01*
X39807Y-31351D01*
X39835Y-31365D01*
X39860Y-31385D01*
X39880Y-31408D01*
X39896Y-31435D01*
X39906Y-31465D01*
X39909Y-31496D01*
X39910Y-31500D01*
X39590Y-31340D02*
X39910Y-31660D01*
X39910Y-31340D02*
X39590Y-31660D01*
X31930Y-33000D02*
X31926Y-33034D01*
X31916Y-33068D01*
X31899Y-33099D01*
X31877Y-33126D01*
X31850Y-33149D01*
X31819Y-33165D01*
X31786Y-33176D01*
X31751Y-33179D01*
X31717Y-33176D01*
X31683Y-33166D01*
X31652Y-33150D01*
X31625Y-33128D01*
X31602Y-33101D01*
X31585Y-33070D01*
X31574Y-33037D01*
X31571Y-33002D01*
X31573Y-32968D01*
X31583Y-32934D01*
X31599Y-32903D01*
X31621Y-32875D01*
X31648Y-32853D01*
X31678Y-32836D01*
X31712Y-32825D01*
X31747Y-32821D01*
X31781Y-32823D01*
X31815Y-32833D01*
X31846Y-32849D01*
X31874Y-32870D01*
X31897Y-32897D01*
X31914Y-32927D01*
X31925Y-32961D01*
X31929Y-32995D01*
X31930Y-33000D01*
X31570Y-33000D02*
X31930Y-33000D01*
X31930Y-34000D02*
X31926Y-34034D01*
X31916Y-34068D01*
X31899Y-34099D01*
X31877Y-34126D01*
X31850Y-34149D01*
X31819Y-34165D01*
X31786Y-34176D01*
X31751Y-34179D01*
X31717Y-34176D01*
X31683Y-34166D01*
X31652Y-34150D01*
X31625Y-34128D01*
X31602Y-34101D01*
X31585Y-34070D01*
X31574Y-34037D01*
X31571Y-34002D01*
X31573Y-33968D01*
X31583Y-33934D01*
X31599Y-33903D01*
X31621Y-33875D01*
X31648Y-33853D01*
X31678Y-33836D01*
X31712Y-33825D01*
X31747Y-33821D01*
X31781Y-33823D01*
X31815Y-33833D01*
X31846Y-33849D01*
X31874Y-33870D01*
X31897Y-33897D01*
X31914Y-33927D01*
X31925Y-33961D01*
X31929Y-33995D01*
X31930Y-34000D01*
X31570Y-34000D02*
X31930Y-34000D01*
X31930Y-35000D02*
X31926Y-35034D01*
X31916Y-35068D01*
X31899Y-35099D01*
X31877Y-35126D01*
X31850Y-35149D01*
X31819Y-35165D01*
X31786Y-35176D01*
X31751Y-35179D01*
X31717Y-35176D01*
X31683Y-35166D01*
X31652Y-35150D01*
X31625Y-35128D01*
X31602Y-35101D01*
X31585Y-35070D01*
X31574Y-35037D01*
X31571Y-35002D01*
X31573Y-34968D01*
X31583Y-34934D01*
X31599Y-34903D01*
X31621Y-34875D01*
X31648Y-34853D01*
X31678Y-34836D01*
X31712Y-34825D01*
X31747Y-34821D01*
X31781Y-34823D01*
X31815Y-34833D01*
X31846Y-34849D01*
X31874Y-34870D01*
X31897Y-34897D01*
X31914Y-34927D01*
X31925Y-34961D01*
X31929Y-34995D01*
X31930Y-35000D01*
X31570Y-35000D02*
X31930Y-35000D01*
X31930Y-36000D02*
X31926Y-36034D01*
X31916Y-36068D01*
X31899Y-36099D01*
X31877Y-36126D01*
X31850Y-36149D01*
X31819Y-36165D01*
X31786Y-36176D01*
X31751Y-36179D01*
X31717Y-36176D01*
X31683Y-36166D01*
X31652Y-36150D01*
X31625Y-36128D01*
X31602Y-36101D01*
X31585Y-36070D01*
X31574Y-36037D01*
X31571Y-36002D01*
X31573Y-35968D01*
X31583Y-35934D01*
X31599Y-35903D01*
X31621Y-35875D01*
X31648Y-35853D01*
X31678Y-35836D01*
X31712Y-35825D01*
X31747Y-35821D01*
X31781Y-35823D01*
X31815Y-35833D01*
X31846Y-35849D01*
X31874Y-35870D01*
X31897Y-35897D01*
X31914Y-35927D01*
X31925Y-35961D01*
X31929Y-35995D01*
X31930Y-36000D01*
X31570Y-36000D02*
X31930Y-36000D01*
X34930Y-33000D02*
X34926Y-33034D01*
X34916Y-33068D01*
X34899Y-33099D01*
X34877Y-33126D01*
X34850Y-33149D01*
X34819Y-33165D01*
X34786Y-33176D01*
X34751Y-33179D01*
X34717Y-33176D01*
X34683Y-33166D01*
X34652Y-33150D01*
X34625Y-33128D01*
X34602Y-33101D01*
X34585Y-33070D01*
X34574Y-33037D01*
X34571Y-33002D01*
X34573Y-32968D01*
X34583Y-32934D01*
X34599Y-32903D01*
X34621Y-32875D01*
X34648Y-32853D01*
X34678Y-32836D01*
X34712Y-32825D01*
X34747Y-32821D01*
X34781Y-32823D01*
X34815Y-32833D01*
X34846Y-32849D01*
X34874Y-32870D01*
X34897Y-32897D01*
X34914Y-32927D01*
X34925Y-32961D01*
X34929Y-32995D01*
X34930Y-33000D01*
X34570Y-33000D02*
X34930Y-33000D01*
X34930Y-34000D02*
X34926Y-34034D01*
X34916Y-34068D01*
X34899Y-34099D01*
X34877Y-34126D01*
X34850Y-34149D01*
X34819Y-34165D01*
X34786Y-34176D01*
X34751Y-34179D01*
X34717Y-34176D01*
X34683Y-34166D01*
X34652Y-34150D01*
X34625Y-34128D01*
X34602Y-34101D01*
X34585Y-34070D01*
X34574Y-34037D01*
X34571Y-34002D01*
X34573Y-33968D01*
X34583Y-33934D01*
X34599Y-33903D01*
X34621Y-33875D01*
X34648Y-33853D01*
X34678Y-33836D01*
X34712Y-33825D01*
X34747Y-33821D01*
X34781Y-33823D01*
X34815Y-33833D01*
X34846Y-33849D01*
X34874Y-33870D01*
X34897Y-33897D01*
X34914Y-33927D01*
X34925Y-33961D01*
X34929Y-33995D01*
X34930Y-34000D01*
X34570Y-34000D02*
X34930Y-34000D01*
X34930Y-35000D02*
X34926Y-35034D01*
X34916Y-35068D01*
X34899Y-35099D01*
X34877Y-35126D01*
X34850Y-35149D01*
X34819Y-35165D01*
X34786Y-35176D01*
X34751Y-35179D01*
X34717Y-35176D01*
X34683Y-35166D01*
X34652Y-35150D01*
X34625Y-35128D01*
X34602Y-35101D01*
X34585Y-35070D01*
X34574Y-35037D01*
X34571Y-35002D01*
X34573Y-34968D01*
X34583Y-34934D01*
X34599Y-34903D01*
X34621Y-34875D01*
X34648Y-34853D01*
X34678Y-34836D01*
X34712Y-34825D01*
X34747Y-34821D01*
X34781Y-34823D01*
X34815Y-34833D01*
X34846Y-34849D01*
X34874Y-34870D01*
X34897Y-34897D01*
X34914Y-34927D01*
X34925Y-34961D01*
X34929Y-34995D01*
X34930Y-35000D01*
X34570Y-35000D02*
X34930Y-35000D01*
X34930Y-36000D02*
X34926Y-36034D01*
X34916Y-36068D01*
X34899Y-36099D01*
X34877Y-36126D01*
X34850Y-36149D01*
X34819Y-36165D01*
X34786Y-36176D01*
X34751Y-36179D01*
X34717Y-36176D01*
X34683Y-36166D01*
X34652Y-36150D01*
X34625Y-36128D01*
X34602Y-36101D01*
X34585Y-36070D01*
X34574Y-36037D01*
X34571Y-36002D01*
X34573Y-35968D01*
X34583Y-35934D01*
X34599Y-35903D01*
X34621Y-35875D01*
X34648Y-35853D01*
X34678Y-35836D01*
X34712Y-35825D01*
X34747Y-35821D01*
X34781Y-35823D01*
X34815Y-35833D01*
X34846Y-35849D01*
X34874Y-35870D01*
X34897Y-35897D01*
X34914Y-35927D01*
X34925Y-35961D01*
X34929Y-35995D01*
X34930Y-36000D01*
X34570Y-36000D02*
X34930Y-36000D01*
X37930Y-33000D02*
X37926Y-33034D01*
X37916Y-33068D01*
X37899Y-33099D01*
X37877Y-33126D01*
X37850Y-33149D01*
X37819Y-33165D01*
X37786Y-33176D01*
X37751Y-33179D01*
X37717Y-33176D01*
X37683Y-33166D01*
X37652Y-33150D01*
X37625Y-33128D01*
X37602Y-33101D01*
X37585Y-33070D01*
X37574Y-33037D01*
X37571Y-33002D01*
X37573Y-32968D01*
X37583Y-32934D01*
X37599Y-32903D01*
X37621Y-32875D01*
X37648Y-32853D01*
X37678Y-32836D01*
X37712Y-32825D01*
X37747Y-32821D01*
X37781Y-32823D01*
X37815Y-32833D01*
X37846Y-32849D01*
X37874Y-32870D01*
X37897Y-32897D01*
X37914Y-32927D01*
X37925Y-32961D01*
X37929Y-32995D01*
X37930Y-33000D01*
X37570Y-33000D02*
X37930Y-33000D01*
X37930Y-34000D02*
X37926Y-34034D01*
X37916Y-34068D01*
X37899Y-34099D01*
X37877Y-34126D01*
X37850Y-34149D01*
X37819Y-34165D01*
X37786Y-34176D01*
X37751Y-34179D01*
X37717Y-34176D01*
X37683Y-34166D01*
X37652Y-34150D01*
X37625Y-34128D01*
X37602Y-34101D01*
X37585Y-34070D01*
X37574Y-34037D01*
X37571Y-34002D01*
X37573Y-33968D01*
X37583Y-33934D01*
X37599Y-33903D01*
X37621Y-33875D01*
X37648Y-33853D01*
X37678Y-33836D01*
X37712Y-33825D01*
X37747Y-33821D01*
X37781Y-33823D01*
X37815Y-33833D01*
X37846Y-33849D01*
X37874Y-33870D01*
X37897Y-33897D01*
X37914Y-33927D01*
X37925Y-33961D01*
X37929Y-33995D01*
X37930Y-34000D01*
X37570Y-34000D02*
X37930Y-34000D01*
X37930Y-35000D02*
X37926Y-35034D01*
X37916Y-35068D01*
X37899Y-35099D01*
X37877Y-35126D01*
X37850Y-35149D01*
X37819Y-35165D01*
X37786Y-35176D01*
X37751Y-35179D01*
X37717Y-35176D01*
X37683Y-35166D01*
X37652Y-35150D01*
X37625Y-35128D01*
X37602Y-35101D01*
X37585Y-35070D01*
X37574Y-35037D01*
X37571Y-35002D01*
X37573Y-34968D01*
X37583Y-34934D01*
X37599Y-34903D01*
X37621Y-34875D01*
X37648Y-34853D01*
X37678Y-34836D01*
X37712Y-34825D01*
X37747Y-34821D01*
X37781Y-34823D01*
X37815Y-34833D01*
X37846Y-34849D01*
X37874Y-34870D01*
X37897Y-34897D01*
X37914Y-34927D01*
X37925Y-34961D01*
X37929Y-34995D01*
X37930Y-35000D01*
X37570Y-35000D02*
X37930Y-35000D01*
X37930Y-36000D02*
X37926Y-36034D01*
X37916Y-36068D01*
X37899Y-36099D01*
X37877Y-36126D01*
X37850Y-36149D01*
X37819Y-36165D01*
X37786Y-36176D01*
X37751Y-36179D01*
X37717Y-36176D01*
X37683Y-36166D01*
X37652Y-36150D01*
X37625Y-36128D01*
X37602Y-36101D01*
X37585Y-36070D01*
X37574Y-36037D01*
X37571Y-36002D01*
X37573Y-35968D01*
X37583Y-35934D01*
X37599Y-35903D01*
X37621Y-35875D01*
X37648Y-35853D01*
X37678Y-35836D01*
X37712Y-35825D01*
X37747Y-35821D01*
X37781Y-35823D01*
X37815Y-35833D01*
X37846Y-35849D01*
X37874Y-35870D01*
X37897Y-35897D01*
X37914Y-35927D01*
X37925Y-35961D01*
X37929Y-35995D01*
X37930Y-36000D01*
X37570Y-36000D02*
X37930Y-36000D01*
X40930Y-33000D02*
X40926Y-33034D01*
X40916Y-33068D01*
X40899Y-33099D01*
X40877Y-33126D01*
X40850Y-33149D01*
X40819Y-33165D01*
X40786Y-33176D01*
X40751Y-33179D01*
X40717Y-33176D01*
X40683Y-33166D01*
X40652Y-33150D01*
X40625Y-33128D01*
X40602Y-33101D01*
X40585Y-33070D01*
X40574Y-33037D01*
X40571Y-33002D01*
X40573Y-32968D01*
X40583Y-32934D01*
X40599Y-32903D01*
X40621Y-32875D01*
X40648Y-32853D01*
X40678Y-32836D01*
X40712Y-32825D01*
X40747Y-32821D01*
X40781Y-32823D01*
X40815Y-32833D01*
X40846Y-32849D01*
X40874Y-32870D01*
X40897Y-32897D01*
X40914Y-32927D01*
X40925Y-32961D01*
X40929Y-32995D01*
X40930Y-33000D01*
X40570Y-33000D02*
X40930Y-33000D01*
X40930Y-34000D02*
X40926Y-34034D01*
X40916Y-34068D01*
X40899Y-34099D01*
X40877Y-34126D01*
X40850Y-34149D01*
X40819Y-34165D01*
X40786Y-34176D01*
X40751Y-34179D01*
X40717Y-34176D01*
X40683Y-34166D01*
X40652Y-34150D01*
X40625Y-34128D01*
X40602Y-34101D01*
X40585Y-34070D01*
X40574Y-34037D01*
X40571Y-34002D01*
X40573Y-33968D01*
X40583Y-33934D01*
X40599Y-33903D01*
X40621Y-33875D01*
X40648Y-33853D01*
X40678Y-33836D01*
X40712Y-33825D01*
X40747Y-33821D01*
X40781Y-33823D01*
X40815Y-33833D01*
X40846Y-33849D01*
X40874Y-33870D01*
X40897Y-33897D01*
X40914Y-33927D01*
X40925Y-33961D01*
X40929Y-33995D01*
X40930Y-34000D01*
X40570Y-34000D02*
X40930Y-34000D01*
X40930Y-35000D02*
X40926Y-35034D01*
X40916Y-35068D01*
X40899Y-35099D01*
X40877Y-35126D01*
X40850Y-35149D01*
X40819Y-35165D01*
X40786Y-35176D01*
X40751Y-35179D01*
X40717Y-35176D01*
X40683Y-35166D01*
X40652Y-35150D01*
X40625Y-35128D01*
X40602Y-35101D01*
X40585Y-35070D01*
X40574Y-35037D01*
X40571Y-35002D01*
X40573Y-34968D01*
X40583Y-34934D01*
X40599Y-34903D01*
X40621Y-34875D01*
X40648Y-34853D01*
X40678Y-34836D01*
X40712Y-34825D01*
X40747Y-34821D01*
X40781Y-34823D01*
X40815Y-34833D01*
X40846Y-34849D01*
X40874Y-34870D01*
X40897Y-34897D01*
X40914Y-34927D01*
X40925Y-34961D01*
X40929Y-34995D01*
X40930Y-35000D01*
X40570Y-35000D02*
X40930Y-35000D01*
X40930Y-36000D02*
X40926Y-36034D01*
X40916Y-36068D01*
X40899Y-36099D01*
X40877Y-36126D01*
X40850Y-36149D01*
X40819Y-36165D01*
X40786Y-36176D01*
X40751Y-36179D01*
X40717Y-36176D01*
X40683Y-36166D01*
X40652Y-36150D01*
X40625Y-36128D01*
X40602Y-36101D01*
X40585Y-36070D01*
X40574Y-36037D01*
X40571Y-36002D01*
X40573Y-35968D01*
X40583Y-35934D01*
X40599Y-35903D01*
X40621Y-35875D01*
X40648Y-35853D01*
X40678Y-35836D01*
X40712Y-35825D01*
X40747Y-35821D01*
X40781Y-35823D01*
X40815Y-35833D01*
X40846Y-35849D01*
X40874Y-35870D01*
X40897Y-35897D01*
X40914Y-35927D01*
X40925Y-35961D01*
X40929Y-35995D01*
X40930Y-36000D01*
X40570Y-36000D02*
X40930Y-36000D01*
X22200Y-38250D02*
X22196Y-38288D01*
X22184Y-38326D01*
X22166Y-38360D01*
X22141Y-38390D01*
X22111Y-38415D01*
X22077Y-38434D01*
X22040Y-38445D01*
X22001Y-38449D01*
X21963Y-38446D01*
X21926Y-38435D01*
X21891Y-38417D01*
X21861Y-38392D01*
X21835Y-38362D01*
X21817Y-38328D01*
X21805Y-38291D01*
X21801Y-38252D01*
X21804Y-38214D01*
X21815Y-38177D01*
X21832Y-38142D01*
X21857Y-38112D01*
X21886Y-38086D01*
X21920Y-38067D01*
X21958Y-38055D01*
X21996Y-38051D01*
X22034Y-38054D01*
X22072Y-38064D01*
X22107Y-38082D01*
X22137Y-38106D01*
X22163Y-38135D01*
X22182Y-38169D01*
X22195Y-38206D01*
X22199Y-38245D01*
X22200Y-38250D01*
X22000Y-38050D02*
X22000Y-38450D01*
X22200Y-39250D02*
X22196Y-39288D01*
X22184Y-39326D01*
X22166Y-39360D01*
X22141Y-39390D01*
X22111Y-39415D01*
X22077Y-39434D01*
X22040Y-39445D01*
X22001Y-39449D01*
X21963Y-39446D01*
X21926Y-39435D01*
X21891Y-39417D01*
X21861Y-39392D01*
X21835Y-39362D01*
X21817Y-39328D01*
X21805Y-39291D01*
X21801Y-39252D01*
X21804Y-39214D01*
X21815Y-39177D01*
X21832Y-39142D01*
X21857Y-39112D01*
X21886Y-39086D01*
X21920Y-39067D01*
X21958Y-39055D01*
X21996Y-39051D01*
X22034Y-39054D01*
X22072Y-39064D01*
X22107Y-39082D01*
X22137Y-39106D01*
X22163Y-39135D01*
X22182Y-39169D01*
X22195Y-39206D01*
X22199Y-39245D01*
X22200Y-39250D01*
X22000Y-39050D02*
X22000Y-39450D01*
X25450Y-38250D02*
X25446Y-38288D01*
X25434Y-38326D01*
X25416Y-38360D01*
X25391Y-38390D01*
X25361Y-38415D01*
X25327Y-38434D01*
X25290Y-38445D01*
X25251Y-38449D01*
X25213Y-38446D01*
X25176Y-38435D01*
X25141Y-38417D01*
X25111Y-38392D01*
X25085Y-38362D01*
X25067Y-38328D01*
X25055Y-38291D01*
X25051Y-38252D01*
X25054Y-38214D01*
X25065Y-38177D01*
X25082Y-38142D01*
X25107Y-38112D01*
X25136Y-38086D01*
X25170Y-38067D01*
X25208Y-38055D01*
X25246Y-38051D01*
X25284Y-38054D01*
X25322Y-38064D01*
X25357Y-38082D01*
X25387Y-38106D01*
X25413Y-38135D01*
X25432Y-38169D01*
X25445Y-38206D01*
X25449Y-38245D01*
X25450Y-38250D01*
X25250Y-38050D02*
X25250Y-38450D01*
X28450Y-38250D02*
X28446Y-38288D01*
X28434Y-38326D01*
X28416Y-38360D01*
X28391Y-38390D01*
X28361Y-38415D01*
X28327Y-38434D01*
X28290Y-38445D01*
X28251Y-38449D01*
X28213Y-38446D01*
X28176Y-38435D01*
X28141Y-38417D01*
X28111Y-38392D01*
X28085Y-38362D01*
X28067Y-38328D01*
X28055Y-38291D01*
X28051Y-38252D01*
X28054Y-38214D01*
X28065Y-38177D01*
X28082Y-38142D01*
X28107Y-38112D01*
X28136Y-38086D01*
X28170Y-38067D01*
X28208Y-38055D01*
X28246Y-38051D01*
X28284Y-38054D01*
X28322Y-38064D01*
X28357Y-38082D01*
X28387Y-38106D01*
X28413Y-38135D01*
X28432Y-38169D01*
X28445Y-38206D01*
X28449Y-38245D01*
X28450Y-38250D01*
X28250Y-38050D02*
X28250Y-38450D01*
X34450Y-22000D02*
X34446Y-22038D01*
X34434Y-22076D01*
X34416Y-22110D01*
X34391Y-22140D01*
X34361Y-22165D01*
X34327Y-22184D01*
X34290Y-22195D01*
X34251Y-22199D01*
X34213Y-22196D01*
X34176Y-22185D01*
X34141Y-22167D01*
X34111Y-22142D01*
X34085Y-22112D01*
X34067Y-22078D01*
X34055Y-22041D01*
X34051Y-22002D01*
X34054Y-21964D01*
X34065Y-21927D01*
X34082Y-21892D01*
X34107Y-21862D01*
X34136Y-21836D01*
X34170Y-21817D01*
X34208Y-21805D01*
X34246Y-21801D01*
X34284Y-21804D01*
X34322Y-21814D01*
X34357Y-21832D01*
X34387Y-21856D01*
X34413Y-21885D01*
X34432Y-21919D01*
X34445Y-21956D01*
X34449Y-21995D01*
X34450Y-22000D01*
X34250Y-21800D02*
X34250Y-22200D01*
X34450Y-23000D02*
X34446Y-23038D01*
X34434Y-23076D01*
X34416Y-23110D01*
X34391Y-23140D01*
X34361Y-23165D01*
X34327Y-23184D01*
X34290Y-23195D01*
X34251Y-23199D01*
X34213Y-23196D01*
X34176Y-23185D01*
X34141Y-23167D01*
X34111Y-23142D01*
X34085Y-23112D01*
X34067Y-23078D01*
X34055Y-23041D01*
X34051Y-23002D01*
X34054Y-22964D01*
X34065Y-22927D01*
X34082Y-22892D01*
X34107Y-22862D01*
X34136Y-22836D01*
X34170Y-22817D01*
X34208Y-22805D01*
X34246Y-22801D01*
X34284Y-22804D01*
X34322Y-22814D01*
X34357Y-22832D01*
X34387Y-22856D01*
X34413Y-22885D01*
X34432Y-22919D01*
X34445Y-22956D01*
X34449Y-22995D01*
X34450Y-23000D01*
X34250Y-22800D02*
X34250Y-23200D01*
X34450Y-49500D02*
X34446Y-49538D01*
X34434Y-49576D01*
X34416Y-49610D01*
X34391Y-49640D01*
X34361Y-49665D01*
X34327Y-49684D01*
X34290Y-49695D01*
X34251Y-49699D01*
X34213Y-49696D01*
X34176Y-49685D01*
X34141Y-49667D01*
X34111Y-49642D01*
X34085Y-49612D01*
X34067Y-49578D01*
X34055Y-49541D01*
X34051Y-49502D01*
X34054Y-49464D01*
X34065Y-49427D01*
X34082Y-49392D01*
X34107Y-49362D01*
X34136Y-49336D01*
X34170Y-49317D01*
X34208Y-49305D01*
X34246Y-49301D01*
X34284Y-49304D01*
X34322Y-49314D01*
X34357Y-49332D01*
X34387Y-49356D01*
X34413Y-49385D01*
X34432Y-49419D01*
X34445Y-49456D01*
X34449Y-49495D01*
X34450Y-49500D01*
X34250Y-49300D02*
X34250Y-49700D01*
X34450Y-50500D02*
X34446Y-50538D01*
X34434Y-50576D01*
X34416Y-50610D01*
X34391Y-50640D01*
X34361Y-50665D01*
X34327Y-50684D01*
X34290Y-50695D01*
X34251Y-50699D01*
X34213Y-50696D01*
X34176Y-50685D01*
X34141Y-50667D01*
X34111Y-50642D01*
X34085Y-50612D01*
X34067Y-50578D01*
X34055Y-50541D01*
X34051Y-50502D01*
X34054Y-50464D01*
X34065Y-50427D01*
X34082Y-50392D01*
X34107Y-50362D01*
X34136Y-50336D01*
X34170Y-50317D01*
X34208Y-50305D01*
X34246Y-50301D01*
X34284Y-50304D01*
X34322Y-50314D01*
X34357Y-50332D01*
X34387Y-50356D01*
X34413Y-50385D01*
X34432Y-50419D01*
X34445Y-50456D01*
X34449Y-50495D01*
X34450Y-50500D01*
X34250Y-50300D02*
X34250Y-50700D01*
X35450Y-22000D02*
X35446Y-22038D01*
X35434Y-22076D01*
X35416Y-22110D01*
X35391Y-22140D01*
X35361Y-22165D01*
X35327Y-22184D01*
X35290Y-22195D01*
X35251Y-22199D01*
X35213Y-22196D01*
X35176Y-22185D01*
X35141Y-22167D01*
X35111Y-22142D01*
X35085Y-22112D01*
X35067Y-22078D01*
X35055Y-22041D01*
X35051Y-22002D01*
X35054Y-21964D01*
X35065Y-21927D01*
X35082Y-21892D01*
X35107Y-21862D01*
X35136Y-21836D01*
X35170Y-21817D01*
X35208Y-21805D01*
X35246Y-21801D01*
X35284Y-21804D01*
X35322Y-21814D01*
X35357Y-21832D01*
X35387Y-21856D01*
X35413Y-21885D01*
X35432Y-21919D01*
X35445Y-21956D01*
X35449Y-21995D01*
X35450Y-22000D01*
X35250Y-21800D02*
X35250Y-22200D01*
X35450Y-23000D02*
X35446Y-23038D01*
X35434Y-23076D01*
X35416Y-23110D01*
X35391Y-23140D01*
X35361Y-23165D01*
X35327Y-23184D01*
X35290Y-23195D01*
X35251Y-23199D01*
X35213Y-23196D01*
X35176Y-23185D01*
X35141Y-23167D01*
X35111Y-23142D01*
X35085Y-23112D01*
X35067Y-23078D01*
X35055Y-23041D01*
X35051Y-23002D01*
X35054Y-22964D01*
X35065Y-22927D01*
X35082Y-22892D01*
X35107Y-22862D01*
X35136Y-22836D01*
X35170Y-22817D01*
X35208Y-22805D01*
X35246Y-22801D01*
X35284Y-22804D01*
X35322Y-22814D01*
X35357Y-22832D01*
X35387Y-22856D01*
X35413Y-22885D01*
X35432Y-22919D01*
X35445Y-22956D01*
X35449Y-22995D01*
X35450Y-23000D01*
X35250Y-22800D02*
X35250Y-23200D01*
X35450Y-49500D02*
X35446Y-49538D01*
X35434Y-49576D01*
X35416Y-49610D01*
X35391Y-49640D01*
X35361Y-49665D01*
X35327Y-49684D01*
X35290Y-49695D01*
X35251Y-49699D01*
X35213Y-49696D01*
X35176Y-49685D01*
X35141Y-49667D01*
X35111Y-49642D01*
X35085Y-49612D01*
X35067Y-49578D01*
X35055Y-49541D01*
X35051Y-49502D01*
X35054Y-49464D01*
X35065Y-49427D01*
X35082Y-49392D01*
X35107Y-49362D01*
X35136Y-49336D01*
X35170Y-49317D01*
X35208Y-49305D01*
X35246Y-49301D01*
X35284Y-49304D01*
X35322Y-49314D01*
X35357Y-49332D01*
X35387Y-49356D01*
X35413Y-49385D01*
X35432Y-49419D01*
X35445Y-49456D01*
X35449Y-49495D01*
X35450Y-49500D01*
X35250Y-49300D02*
X35250Y-49700D01*
X35450Y-50500D02*
X35446Y-50538D01*
X35434Y-50576D01*
X35416Y-50610D01*
X35391Y-50640D01*
X35361Y-50665D01*
X35327Y-50684D01*
X35290Y-50695D01*
X35251Y-50699D01*
X35213Y-50696D01*
X35176Y-50685D01*
X35141Y-50667D01*
X35111Y-50642D01*
X35085Y-50612D01*
X35067Y-50578D01*
X35055Y-50541D01*
X35051Y-50502D01*
X35054Y-50464D01*
X35065Y-50427D01*
X35082Y-50392D01*
X35107Y-50362D01*
X35136Y-50336D01*
X35170Y-50317D01*
X35208Y-50305D01*
X35246Y-50301D01*
X35284Y-50304D01*
X35322Y-50314D01*
X35357Y-50332D01*
X35387Y-50356D01*
X35413Y-50385D01*
X35432Y-50419D01*
X35445Y-50456D01*
X35449Y-50495D01*
X35450Y-50500D01*
X35250Y-50300D02*
X35250Y-50700D01*
X36450Y-22000D02*
X36446Y-22038D01*
X36434Y-22076D01*
X36416Y-22110D01*
X36391Y-22140D01*
X36361Y-22165D01*
X36327Y-22184D01*
X36290Y-22195D01*
X36251Y-22199D01*
X36213Y-22196D01*
X36176Y-22185D01*
X36141Y-22167D01*
X36111Y-22142D01*
X36085Y-22112D01*
X36067Y-22078D01*
X36055Y-22041D01*
X36051Y-22002D01*
X36054Y-21964D01*
X36065Y-21927D01*
X36082Y-21892D01*
X36107Y-21862D01*
X36136Y-21836D01*
X36170Y-21817D01*
X36208Y-21805D01*
X36246Y-21801D01*
X36284Y-21804D01*
X36322Y-21814D01*
X36357Y-21832D01*
X36387Y-21856D01*
X36413Y-21885D01*
X36432Y-21919D01*
X36445Y-21956D01*
X36449Y-21995D01*
X36450Y-22000D01*
X36250Y-21800D02*
X36250Y-22200D01*
X36450Y-23000D02*
X36446Y-23038D01*
X36434Y-23076D01*
X36416Y-23110D01*
X36391Y-23140D01*
X36361Y-23165D01*
X36327Y-23184D01*
X36290Y-23195D01*
X36251Y-23199D01*
X36213Y-23196D01*
X36176Y-23185D01*
X36141Y-23167D01*
X36111Y-23142D01*
X36085Y-23112D01*
X36067Y-23078D01*
X36055Y-23041D01*
X36051Y-23002D01*
X36054Y-22964D01*
X36065Y-22927D01*
X36082Y-22892D01*
X36107Y-22862D01*
X36136Y-22836D01*
X36170Y-22817D01*
X36208Y-22805D01*
X36246Y-22801D01*
X36284Y-22804D01*
X36322Y-22814D01*
X36357Y-22832D01*
X36387Y-22856D01*
X36413Y-22885D01*
X36432Y-22919D01*
X36445Y-22956D01*
X36449Y-22995D01*
X36450Y-23000D01*
X36250Y-22800D02*
X36250Y-23200D01*
X36450Y-49500D02*
X36446Y-49538D01*
X36434Y-49576D01*
X36416Y-49610D01*
X36391Y-49640D01*
X36361Y-49665D01*
X36327Y-49684D01*
X36290Y-49695D01*
X36251Y-49699D01*
X36213Y-49696D01*
X36176Y-49685D01*
X36141Y-49667D01*
X36111Y-49642D01*
X36085Y-49612D01*
X36067Y-49578D01*
X36055Y-49541D01*
X36051Y-49502D01*
X36054Y-49464D01*
X36065Y-49427D01*
X36082Y-49392D01*
X36107Y-49362D01*
X36136Y-49336D01*
X36170Y-49317D01*
X36208Y-49305D01*
X36246Y-49301D01*
X36284Y-49304D01*
X36322Y-49314D01*
X36357Y-49332D01*
X36387Y-49356D01*
X36413Y-49385D01*
X36432Y-49419D01*
X36445Y-49456D01*
X36449Y-49495D01*
X36450Y-49500D01*
X36250Y-49300D02*
X36250Y-49700D01*
X36450Y-50500D02*
X36446Y-50538D01*
X36434Y-50576D01*
X36416Y-50610D01*
X36391Y-50640D01*
X36361Y-50665D01*
X36327Y-50684D01*
X36290Y-50695D01*
X36251Y-50699D01*
X36213Y-50696D01*
X36176Y-50685D01*
X36141Y-50667D01*
X36111Y-50642D01*
X36085Y-50612D01*
X36067Y-50578D01*
X36055Y-50541D01*
X36051Y-50502D01*
X36054Y-50464D01*
X36065Y-50427D01*
X36082Y-50392D01*
X36107Y-50362D01*
X36136Y-50336D01*
X36170Y-50317D01*
X36208Y-50305D01*
X36246Y-50301D01*
X36284Y-50304D01*
X36322Y-50314D01*
X36357Y-50332D01*
X36387Y-50356D01*
X36413Y-50385D01*
X36432Y-50419D01*
X36445Y-50456D01*
X36449Y-50495D01*
X36450Y-50500D01*
X36250Y-50300D02*
X36250Y-50700D01*
X37450Y-22000D02*
X37446Y-22038D01*
X37434Y-22076D01*
X37416Y-22110D01*
X37391Y-22140D01*
X37361Y-22165D01*
X37327Y-22184D01*
X37290Y-22195D01*
X37251Y-22199D01*
X37213Y-22196D01*
X37176Y-22185D01*
X37141Y-22167D01*
X37111Y-22142D01*
X37085Y-22112D01*
X37067Y-22078D01*
X37055Y-22041D01*
X37051Y-22002D01*
X37054Y-21964D01*
X37065Y-21927D01*
X37082Y-21892D01*
X37107Y-21862D01*
X37136Y-21836D01*
X37170Y-21817D01*
X37208Y-21805D01*
X37246Y-21801D01*
X37284Y-21804D01*
X37322Y-21814D01*
X37357Y-21832D01*
X37387Y-21856D01*
X37413Y-21885D01*
X37432Y-21919D01*
X37445Y-21956D01*
X37449Y-21995D01*
X37450Y-22000D01*
X37250Y-21800D02*
X37250Y-22200D01*
X37450Y-23000D02*
X37446Y-23038D01*
X37434Y-23076D01*
X37416Y-23110D01*
X37391Y-23140D01*
X37361Y-23165D01*
X37327Y-23184D01*
X37290Y-23195D01*
X37251Y-23199D01*
X37213Y-23196D01*
X37176Y-23185D01*
X37141Y-23167D01*
X37111Y-23142D01*
X37085Y-23112D01*
X37067Y-23078D01*
X37055Y-23041D01*
X37051Y-23002D01*
X37054Y-22964D01*
X37065Y-22927D01*
X37082Y-22892D01*
X37107Y-22862D01*
X37136Y-22836D01*
X37170Y-22817D01*
X37208Y-22805D01*
X37246Y-22801D01*
X37284Y-22804D01*
X37322Y-22814D01*
X37357Y-22832D01*
X37387Y-22856D01*
X37413Y-22885D01*
X37432Y-22919D01*
X37445Y-22956D01*
X37449Y-22995D01*
X37450Y-23000D01*
X37250Y-22800D02*
X37250Y-23200D01*
X37450Y-49500D02*
X37446Y-49538D01*
X37434Y-49576D01*
X37416Y-49610D01*
X37391Y-49640D01*
X37361Y-49665D01*
X37327Y-49684D01*
X37290Y-49695D01*
X37251Y-49699D01*
X37213Y-49696D01*
X37176Y-49685D01*
X37141Y-49667D01*
X37111Y-49642D01*
X37085Y-49612D01*
X37067Y-49578D01*
X37055Y-49541D01*
X37051Y-49502D01*
X37054Y-49464D01*
X37065Y-49427D01*
X37082Y-49392D01*
X37107Y-49362D01*
X37136Y-49336D01*
X37170Y-49317D01*
X37208Y-49305D01*
X37246Y-49301D01*
X37284Y-49304D01*
X37322Y-49314D01*
X37357Y-49332D01*
X37387Y-49356D01*
X37413Y-49385D01*
X37432Y-49419D01*
X37445Y-49456D01*
X37449Y-49495D01*
X37450Y-49500D01*
X37250Y-49300D02*
X37250Y-49700D01*
X37450Y-50500D02*
X37446Y-50538D01*
X37434Y-50576D01*
X37416Y-50610D01*
X37391Y-50640D01*
X37361Y-50665D01*
X37327Y-50684D01*
X37290Y-50695D01*
X37251Y-50699D01*
X37213Y-50696D01*
X37176Y-50685D01*
X37141Y-50667D01*
X37111Y-50642D01*
X37085Y-50612D01*
X37067Y-50578D01*
X37055Y-50541D01*
X37051Y-50502D01*
X37054Y-50464D01*
X37065Y-50427D01*
X37082Y-50392D01*
X37107Y-50362D01*
X37136Y-50336D01*
X37170Y-50317D01*
X37208Y-50305D01*
X37246Y-50301D01*
X37284Y-50304D01*
X37322Y-50314D01*
X37357Y-50332D01*
X37387Y-50356D01*
X37413Y-50385D01*
X37432Y-50419D01*
X37445Y-50456D01*
X37449Y-50495D01*
X37450Y-50500D01*
X37250Y-50300D02*
X37250Y-50700D01*
X38450Y-22000D02*
X38446Y-22038D01*
X38434Y-22076D01*
X38416Y-22110D01*
X38391Y-22140D01*
X38361Y-22165D01*
X38327Y-22184D01*
X38290Y-22195D01*
X38251Y-22199D01*
X38213Y-22196D01*
X38176Y-22185D01*
X38141Y-22167D01*
X38111Y-22142D01*
X38085Y-22112D01*
X38067Y-22078D01*
X38055Y-22041D01*
X38051Y-22002D01*
X38054Y-21964D01*
X38065Y-21927D01*
X38082Y-21892D01*
X38107Y-21862D01*
X38136Y-21836D01*
X38170Y-21817D01*
X38208Y-21805D01*
X38246Y-21801D01*
X38284Y-21804D01*
X38322Y-21814D01*
X38357Y-21832D01*
X38387Y-21856D01*
X38413Y-21885D01*
X38432Y-21919D01*
X38445Y-21956D01*
X38449Y-21995D01*
X38450Y-22000D01*
X38250Y-21800D02*
X38250Y-22200D01*
X38450Y-23000D02*
X38446Y-23038D01*
X38434Y-23076D01*
X38416Y-23110D01*
X38391Y-23140D01*
X38361Y-23165D01*
X38327Y-23184D01*
X38290Y-23195D01*
X38251Y-23199D01*
X38213Y-23196D01*
X38176Y-23185D01*
X38141Y-23167D01*
X38111Y-23142D01*
X38085Y-23112D01*
X38067Y-23078D01*
X38055Y-23041D01*
X38051Y-23002D01*
X38054Y-22964D01*
X38065Y-22927D01*
X38082Y-22892D01*
X38107Y-22862D01*
X38136Y-22836D01*
X38170Y-22817D01*
X38208Y-22805D01*
X38246Y-22801D01*
X38284Y-22804D01*
X38322Y-22814D01*
X38357Y-22832D01*
X38387Y-22856D01*
X38413Y-22885D01*
X38432Y-22919D01*
X38445Y-22956D01*
X38449Y-22995D01*
X38450Y-23000D01*
X38250Y-22800D02*
X38250Y-23200D01*
X38450Y-49500D02*
X38446Y-49538D01*
X38434Y-49576D01*
X38416Y-49610D01*
X38391Y-49640D01*
X38361Y-49665D01*
X38327Y-49684D01*
X38290Y-49695D01*
X38251Y-49699D01*
X38213Y-49696D01*
X38176Y-49685D01*
X38141Y-49667D01*
X38111Y-49642D01*
X38085Y-49612D01*
X38067Y-49578D01*
X38055Y-49541D01*
X38051Y-49502D01*
X38054Y-49464D01*
X38065Y-49427D01*
X38082Y-49392D01*
X38107Y-49362D01*
X38136Y-49336D01*
X38170Y-49317D01*
X38208Y-49305D01*
X38246Y-49301D01*
X38284Y-49304D01*
X38322Y-49314D01*
X38357Y-49332D01*
X38387Y-49356D01*
X38413Y-49385D01*
X38432Y-49419D01*
X38445Y-49456D01*
X38449Y-49495D01*
X38450Y-49500D01*
X38250Y-49300D02*
X38250Y-49700D01*
X38450Y-50500D02*
X38446Y-50538D01*
X38434Y-50576D01*
X38416Y-50610D01*
X38391Y-50640D01*
X38361Y-50665D01*
X38327Y-50684D01*
X38290Y-50695D01*
X38251Y-50699D01*
X38213Y-50696D01*
X38176Y-50685D01*
X38141Y-50667D01*
X38111Y-50642D01*
X38085Y-50612D01*
X38067Y-50578D01*
X38055Y-50541D01*
X38051Y-50502D01*
X38054Y-50464D01*
X38065Y-50427D01*
X38082Y-50392D01*
X38107Y-50362D01*
X38136Y-50336D01*
X38170Y-50317D01*
X38208Y-50305D01*
X38246Y-50301D01*
X38284Y-50304D01*
X38322Y-50314D01*
X38357Y-50332D01*
X38387Y-50356D01*
X38413Y-50385D01*
X38432Y-50419D01*
X38445Y-50456D01*
X38449Y-50495D01*
X38450Y-50500D01*
X38250Y-50300D02*
X38250Y-50700D01*
X22696Y-50946D02*
X22696Y-49554D01*
X21304Y-49554D01*
X21304Y-50946D01*
X22696Y-50946D01*
X51196Y-22696D02*
X51196Y-21304D01*
X49804Y-21304D01*
X49804Y-22696D01*
X51196Y-22696D01*
X51196Y-50946D02*
X51196Y-49554D01*
X49804Y-49554D01*
X49804Y-50946D01*
X51196Y-50946D01*
G54D12*
X19890Y-54205D02*
X19890Y-53405D01*
X20081Y-53405D01*
X20195Y-53443D01*
X20271Y-53519D01*
X20310Y-53595D01*
X20348Y-53748D01*
X20348Y-53862D01*
X20310Y-54014D01*
X20271Y-54091D01*
X20195Y-54167D01*
X20081Y-54205D01*
X19890Y-54205D01*
X20690Y-54205D02*
X20690Y-53671D01*
X20690Y-53824D02*
X20729Y-53748D01*
X20767Y-53710D01*
X20843Y-53671D01*
X20919Y-53671D01*
X21185Y-54205D02*
X21185Y-53671D01*
X21185Y-53405D02*
X21147Y-53443D01*
X21185Y-53481D01*
X21224Y-53443D01*
X21185Y-53405D01*
X21185Y-53481D01*
X21681Y-54205D02*
X21605Y-54167D01*
X21566Y-54091D01*
X21566Y-53405D01*
X22100Y-54205D02*
X22024Y-54167D01*
X21985Y-54091D01*
X21985Y-53405D01*
X23014Y-54205D02*
X23014Y-53405D01*
X23281Y-53976D01*
X23548Y-53405D01*
X23548Y-54205D01*
X24271Y-54205D02*
X24271Y-53786D01*
X24233Y-53710D01*
X24157Y-53671D01*
X24005Y-53671D01*
X23928Y-53710D01*
X24271Y-54167D02*
X24195Y-54205D01*
X24005Y-54205D01*
X23928Y-54167D01*
X23890Y-54091D01*
X23890Y-54014D01*
X23928Y-53938D01*
X24005Y-53900D01*
X24195Y-53900D01*
X24271Y-53862D01*
X24652Y-53671D02*
X24652Y-54471D01*
X24652Y-53710D02*
X24729Y-53671D01*
X24881Y-53671D01*
X24957Y-53710D01*
X24995Y-53748D01*
X25033Y-53824D01*
X25033Y-54052D01*
X24995Y-54129D01*
X24957Y-54167D01*
X24881Y-54205D01*
X24729Y-54205D01*
X24652Y-54167D01*
X25376Y-54129D02*
X25415Y-54167D01*
X25376Y-54205D01*
X25338Y-54167D01*
X25376Y-54129D01*
X25376Y-54205D01*
X25376Y-53710D02*
X25415Y-53748D01*
X25376Y-53786D01*
X25338Y-53748D01*
X25376Y-53710D01*
X25376Y-53786D01*
X19264Y-55443D02*
X19500Y-55679D01*
X19500Y-55443D02*
X19264Y-55679D01*
X20043Y-55085D02*
X20119Y-55085D01*
X20195Y-55123D01*
X20233Y-55161D01*
X20271Y-55237D01*
X20310Y-55390D01*
X20310Y-55580D01*
X20271Y-55732D01*
X20233Y-55809D01*
X20195Y-55847D01*
X20119Y-55885D01*
X20043Y-55885D01*
X19967Y-55847D01*
X19929Y-55809D01*
X19890Y-55732D01*
X19852Y-55580D01*
X19852Y-55390D01*
X19890Y-55237D01*
X19929Y-55161D01*
X19967Y-55123D01*
X20043Y-55085D01*
X20652Y-55809D02*
X20691Y-55847D01*
X20652Y-55885D01*
X20614Y-55847D01*
X20652Y-55809D01*
X20652Y-55885D01*
X21186Y-55085D02*
X21262Y-55085D01*
X21338Y-55123D01*
X21376Y-55161D01*
X21414Y-55237D01*
X21453Y-55390D01*
X21453Y-55580D01*
X21414Y-55732D01*
X21376Y-55809D01*
X21338Y-55847D01*
X21262Y-55885D01*
X21186Y-55885D01*
X21110Y-55847D01*
X21072Y-55809D01*
X21033Y-55732D01*
X20995Y-55580D01*
X20995Y-55390D01*
X21033Y-55237D01*
X21072Y-55161D01*
X21110Y-55123D01*
X21186Y-55085D01*
X21757Y-55161D02*
X21795Y-55123D01*
X21872Y-55085D01*
X22062Y-55085D01*
X22138Y-55123D01*
X22176Y-55161D01*
X22215Y-55237D01*
X22215Y-55313D01*
X22176Y-55428D01*
X21719Y-55885D01*
X22215Y-55885D01*
X22900Y-55351D02*
X22900Y-55885D01*
X22710Y-55047D02*
X22519Y-55618D01*
X23015Y-55618D01*
X23281Y-55085D02*
X23281Y-55237D01*
X23586Y-55085D02*
X23586Y-55237D01*
X25111Y-55047D02*
X24425Y-56075D01*
X26140Y-55085D02*
X26216Y-55085D01*
X26292Y-55123D01*
X26330Y-55161D01*
X26368Y-55237D01*
X26407Y-55390D01*
X26407Y-55580D01*
X26368Y-55732D01*
X26330Y-55809D01*
X26292Y-55847D01*
X26216Y-55885D01*
X26140Y-55885D01*
X26064Y-55847D01*
X26026Y-55809D01*
X25987Y-55732D01*
X25949Y-55580D01*
X25949Y-55390D01*
X25987Y-55237D01*
X26026Y-55161D01*
X26064Y-55123D01*
X26140Y-55085D01*
X26749Y-55809D02*
X26788Y-55847D01*
X26749Y-55885D01*
X26711Y-55847D01*
X26749Y-55809D01*
X26749Y-55885D01*
X27473Y-55085D02*
X27321Y-55085D01*
X27245Y-55123D01*
X27207Y-55161D01*
X27130Y-55275D01*
X27092Y-55428D01*
X27092Y-55732D01*
X27130Y-55809D01*
X27169Y-55847D01*
X27245Y-55885D01*
X27397Y-55885D01*
X27473Y-55847D01*
X27511Y-55809D01*
X27550Y-55732D01*
X27550Y-55542D01*
X27511Y-55466D01*
X27473Y-55428D01*
X27397Y-55390D01*
X27245Y-55390D01*
X27169Y-55428D01*
X27130Y-55466D01*
X27092Y-55542D01*
X28045Y-55085D02*
X28121Y-55085D01*
X28197Y-55123D01*
X28235Y-55161D01*
X28273Y-55237D01*
X28312Y-55390D01*
X28312Y-55580D01*
X28273Y-55732D01*
X28235Y-55809D01*
X28197Y-55847D01*
X28121Y-55885D01*
X28045Y-55885D01*
X27969Y-55847D01*
X27931Y-55809D01*
X27892Y-55732D01*
X27854Y-55580D01*
X27854Y-55390D01*
X27892Y-55237D01*
X27931Y-55161D01*
X27969Y-55123D01*
X28045Y-55085D01*
X28654Y-55885D02*
X28654Y-55351D01*
X28654Y-55428D02*
X28693Y-55390D01*
X28769Y-55351D01*
X28883Y-55351D01*
X28959Y-55390D01*
X28997Y-55466D01*
X28997Y-55885D01*
X28997Y-55466D02*
X29035Y-55390D01*
X29112Y-55351D01*
X29226Y-55351D01*
X29302Y-55390D01*
X29340Y-55466D01*
X29340Y-55885D01*
X29721Y-55885D02*
X29721Y-55351D01*
X29721Y-55428D02*
X29760Y-55390D01*
X29836Y-55351D01*
X29950Y-55351D01*
X30026Y-55390D01*
X30064Y-55466D01*
X30064Y-55885D01*
X30064Y-55466D02*
X30102Y-55390D01*
X30179Y-55351D01*
X30293Y-55351D01*
X30369Y-55390D01*
X30407Y-55466D01*
X30407Y-55885D01*
X31627Y-56190D02*
X31589Y-56151D01*
X31513Y-56037D01*
X31475Y-55961D01*
X31437Y-55847D01*
X31398Y-55656D01*
X31398Y-55504D01*
X31437Y-55313D01*
X31475Y-55199D01*
X31513Y-55123D01*
X31589Y-55009D01*
X31627Y-54971D01*
X32274Y-55351D02*
X32274Y-55885D01*
X32084Y-55047D02*
X31893Y-55618D01*
X32389Y-55618D01*
X33303Y-55885D02*
X33303Y-55085D01*
X33646Y-55885D02*
X33646Y-55466D01*
X33608Y-55390D01*
X33532Y-55351D01*
X33418Y-55351D01*
X33342Y-55390D01*
X33303Y-55428D01*
X34142Y-55885D02*
X34066Y-55847D01*
X34027Y-55809D01*
X33989Y-55732D01*
X33989Y-55504D01*
X34027Y-55428D01*
X34066Y-55390D01*
X34142Y-55351D01*
X34256Y-55351D01*
X34332Y-55390D01*
X34370Y-55428D01*
X34408Y-55504D01*
X34408Y-55732D01*
X34370Y-55809D01*
X34332Y-55847D01*
X34256Y-55885D01*
X34142Y-55885D01*
X34866Y-55885D02*
X34790Y-55847D01*
X34751Y-55771D01*
X34751Y-55085D01*
X35475Y-55847D02*
X35399Y-55885D01*
X35247Y-55885D01*
X35170Y-55847D01*
X35132Y-55771D01*
X35132Y-55466D01*
X35170Y-55390D01*
X35247Y-55351D01*
X35399Y-55351D01*
X35475Y-55390D01*
X35513Y-55466D01*
X35513Y-55542D01*
X35132Y-55618D01*
X35818Y-55847D02*
X35895Y-55885D01*
X36047Y-55885D01*
X36123Y-55847D01*
X36161Y-55771D01*
X36161Y-55732D01*
X36123Y-55656D01*
X36047Y-55618D01*
X35933Y-55618D01*
X35856Y-55580D01*
X35818Y-55504D01*
X35818Y-55466D01*
X35856Y-55390D01*
X35933Y-55351D01*
X36047Y-55351D01*
X36123Y-55390D01*
X36428Y-56190D02*
X36466Y-56151D01*
X36543Y-56037D01*
X36581Y-55961D01*
X36619Y-55847D01*
X36657Y-55656D01*
X36657Y-55504D01*
X36619Y-55313D01*
X36581Y-55199D01*
X36543Y-55123D01*
X36466Y-55009D01*
X36428Y-54971D01*
G54D10*
X19500Y-56616D02*
X19497Y-56639D01*
X19490Y-56661D01*
X19479Y-56682D01*
X19465Y-56700D01*
X19447Y-56715D01*
X19426Y-56726D01*
X19404Y-56733D01*
X19380Y-56735D01*
X19358Y-56733D01*
X19336Y-56727D01*
X19315Y-56716D01*
X19297Y-56701D01*
X19281Y-56683D01*
X19270Y-56663D01*
X19263Y-56640D01*
X19261Y-56617D01*
X19262Y-56595D01*
X19269Y-56572D01*
X19280Y-56551D01*
X19294Y-56533D01*
X19312Y-56518D01*
X19332Y-56507D01*
X19355Y-56499D01*
X19378Y-56497D01*
X19400Y-56498D01*
X19423Y-56505D01*
X19444Y-56515D01*
X19462Y-56530D01*
X19478Y-56547D01*
X19489Y-56568D01*
X19497Y-56590D01*
X19499Y-56613D01*
X19500Y-56616D01*
G54D12*
X20043Y-56140D02*
X20119Y-56140D01*
X20195Y-56178D01*
X20233Y-56216D01*
X20271Y-56292D01*
X20310Y-56445D01*
X20310Y-56635D01*
X20271Y-56787D01*
X20233Y-56864D01*
X20195Y-56902D01*
X20119Y-56940D01*
X20043Y-56940D01*
X19967Y-56902D01*
X19929Y-56864D01*
X19890Y-56787D01*
X19852Y-56635D01*
X19852Y-56445D01*
X19890Y-56292D01*
X19929Y-56216D01*
X19967Y-56178D01*
X20043Y-56140D01*
X20652Y-56864D02*
X20691Y-56902D01*
X20652Y-56940D01*
X20614Y-56902D01*
X20652Y-56864D01*
X20652Y-56940D01*
X21186Y-56140D02*
X21262Y-56140D01*
X21338Y-56178D01*
X21376Y-56216D01*
X21414Y-56292D01*
X21453Y-56445D01*
X21453Y-56635D01*
X21414Y-56787D01*
X21376Y-56864D01*
X21338Y-56902D01*
X21262Y-56940D01*
X21186Y-56940D01*
X21110Y-56902D01*
X21072Y-56864D01*
X21033Y-56787D01*
X20995Y-56635D01*
X20995Y-56445D01*
X21033Y-56292D01*
X21072Y-56216D01*
X21110Y-56178D01*
X21186Y-56140D01*
X21757Y-56216D02*
X21795Y-56178D01*
X21872Y-56140D01*
X22062Y-56140D01*
X22138Y-56178D01*
X22176Y-56216D01*
X22215Y-56292D01*
X22215Y-56368D01*
X22176Y-56483D01*
X21719Y-56940D01*
X22215Y-56940D01*
X22900Y-56406D02*
X22900Y-56940D01*
X22710Y-56102D02*
X22519Y-56673D01*
X23015Y-56673D01*
X23281Y-56140D02*
X23281Y-56292D01*
X23586Y-56140D02*
X23586Y-56292D01*
X25111Y-56102D02*
X24425Y-57130D01*
X26140Y-56140D02*
X26216Y-56140D01*
X26292Y-56178D01*
X26330Y-56216D01*
X26368Y-56292D01*
X26407Y-56445D01*
X26407Y-56635D01*
X26368Y-56787D01*
X26330Y-56864D01*
X26292Y-56902D01*
X26216Y-56940D01*
X26140Y-56940D01*
X26064Y-56902D01*
X26026Y-56864D01*
X25987Y-56787D01*
X25949Y-56635D01*
X25949Y-56445D01*
X25987Y-56292D01*
X26026Y-56216D01*
X26064Y-56178D01*
X26140Y-56140D01*
X26749Y-56864D02*
X26788Y-56902D01*
X26749Y-56940D01*
X26711Y-56902D01*
X26749Y-56864D01*
X26749Y-56940D01*
X27473Y-56140D02*
X27321Y-56140D01*
X27245Y-56178D01*
X27207Y-56216D01*
X27130Y-56330D01*
X27092Y-56483D01*
X27092Y-56787D01*
X27130Y-56864D01*
X27169Y-56902D01*
X27245Y-56940D01*
X27397Y-56940D01*
X27473Y-56902D01*
X27511Y-56864D01*
X27550Y-56787D01*
X27550Y-56597D01*
X27511Y-56521D01*
X27473Y-56483D01*
X27397Y-56445D01*
X27245Y-56445D01*
X27169Y-56483D01*
X27130Y-56521D01*
X27092Y-56597D01*
X28312Y-56940D02*
X27854Y-56940D01*
X28083Y-56940D02*
X28083Y-56140D01*
X28007Y-56254D01*
X27931Y-56330D01*
X27854Y-56368D01*
X28654Y-56940D02*
X28654Y-56406D01*
X28654Y-56483D02*
X28693Y-56445D01*
X28769Y-56406D01*
X28883Y-56406D01*
X28959Y-56445D01*
X28997Y-56521D01*
X28997Y-56940D01*
X28997Y-56521D02*
X29035Y-56445D01*
X29112Y-56406D01*
X29226Y-56406D01*
X29302Y-56445D01*
X29340Y-56521D01*
X29340Y-56940D01*
X29721Y-56940D02*
X29721Y-56406D01*
X29721Y-56483D02*
X29760Y-56445D01*
X29836Y-56406D01*
X29950Y-56406D01*
X30026Y-56445D01*
X30064Y-56521D01*
X30064Y-56940D01*
X30064Y-56521D02*
X30102Y-56445D01*
X30179Y-56406D01*
X30293Y-56406D01*
X30369Y-56445D01*
X30407Y-56521D01*
X30407Y-56940D01*
X31627Y-57245D02*
X31589Y-57206D01*
X31513Y-57092D01*
X31475Y-57016D01*
X31437Y-56902D01*
X31398Y-56711D01*
X31398Y-56559D01*
X31437Y-56368D01*
X31475Y-56254D01*
X31513Y-56178D01*
X31589Y-56064D01*
X31627Y-56026D01*
X32274Y-56406D02*
X32274Y-56940D01*
X32084Y-56102D02*
X31893Y-56673D01*
X32389Y-56673D01*
X33303Y-56940D02*
X33303Y-56140D01*
X33646Y-56940D02*
X33646Y-56521D01*
X33608Y-56445D01*
X33532Y-56406D01*
X33418Y-56406D01*
X33342Y-56445D01*
X33303Y-56483D01*
X34142Y-56940D02*
X34066Y-56902D01*
X34027Y-56864D01*
X33989Y-56787D01*
X33989Y-56559D01*
X34027Y-56483D01*
X34066Y-56445D01*
X34142Y-56406D01*
X34256Y-56406D01*
X34332Y-56445D01*
X34370Y-56483D01*
X34408Y-56559D01*
X34408Y-56787D01*
X34370Y-56864D01*
X34332Y-56902D01*
X34256Y-56940D01*
X34142Y-56940D01*
X34866Y-56940D02*
X34790Y-56902D01*
X34751Y-56826D01*
X34751Y-56140D01*
X35475Y-56902D02*
X35399Y-56940D01*
X35247Y-56940D01*
X35170Y-56902D01*
X35132Y-56826D01*
X35132Y-56521D01*
X35170Y-56445D01*
X35247Y-56406D01*
X35399Y-56406D01*
X35475Y-56445D01*
X35513Y-56521D01*
X35513Y-56597D01*
X35132Y-56673D01*
X35818Y-56902D02*
X35895Y-56940D01*
X36047Y-56940D01*
X36123Y-56902D01*
X36161Y-56826D01*
X36161Y-56787D01*
X36123Y-56711D01*
X36047Y-56673D01*
X35933Y-56673D01*
X35856Y-56635D01*
X35818Y-56559D01*
X35818Y-56521D01*
X35856Y-56445D01*
X35933Y-56406D01*
X36047Y-56406D01*
X36123Y-56445D01*
X36428Y-57245D02*
X36466Y-57206D01*
X36543Y-57092D01*
X36581Y-57016D01*
X36619Y-56902D01*
X36657Y-56711D01*
X36657Y-56559D01*
X36619Y-56368D01*
X36581Y-56254D01*
X36543Y-56178D01*
X36466Y-56064D01*
X36428Y-56026D01*
X19375Y-57546D02*
X19375Y-57796D01*
X19500Y-57671D02*
X19250Y-57671D01*
X20043Y-57195D02*
X20119Y-57195D01*
X20195Y-57233D01*
X20233Y-57271D01*
X20271Y-57347D01*
X20310Y-57500D01*
X20310Y-57690D01*
X20271Y-57842D01*
X20233Y-57919D01*
X20195Y-57957D01*
X20119Y-57995D01*
X20043Y-57995D01*
X19967Y-57957D01*
X19929Y-57919D01*
X19890Y-57842D01*
X19852Y-57690D01*
X19852Y-57500D01*
X19890Y-57347D01*
X19929Y-57271D01*
X19967Y-57233D01*
X20043Y-57195D01*
X20652Y-57919D02*
X20691Y-57957D01*
X20652Y-57995D01*
X20614Y-57957D01*
X20652Y-57919D01*
X20652Y-57995D01*
X21186Y-57195D02*
X21262Y-57195D01*
X21338Y-57233D01*
X21376Y-57271D01*
X21414Y-57347D01*
X21453Y-57500D01*
X21453Y-57690D01*
X21414Y-57842D01*
X21376Y-57919D01*
X21338Y-57957D01*
X21262Y-57995D01*
X21186Y-57995D01*
X21110Y-57957D01*
X21072Y-57919D01*
X21033Y-57842D01*
X20995Y-57690D01*
X20995Y-57500D01*
X21033Y-57347D01*
X21072Y-57271D01*
X21110Y-57233D01*
X21186Y-57195D01*
X21757Y-57271D02*
X21795Y-57233D01*
X21872Y-57195D01*
X22062Y-57195D01*
X22138Y-57233D01*
X22176Y-57271D01*
X22215Y-57347D01*
X22215Y-57423D01*
X22176Y-57538D01*
X21719Y-57995D01*
X22215Y-57995D01*
X22938Y-57195D02*
X22557Y-57195D01*
X22519Y-57576D01*
X22557Y-57538D01*
X22634Y-57500D01*
X22824Y-57500D01*
X22900Y-57538D01*
X22938Y-57576D01*
X22977Y-57652D01*
X22977Y-57842D01*
X22938Y-57919D01*
X22900Y-57957D01*
X22824Y-57995D01*
X22634Y-57995D01*
X22557Y-57957D01*
X22519Y-57919D01*
X23281Y-57195D02*
X23281Y-57347D01*
X23586Y-57195D02*
X23586Y-57347D01*
X25111Y-57157D02*
X24425Y-58185D01*
X26140Y-57195D02*
X26216Y-57195D01*
X26292Y-57233D01*
X26330Y-57271D01*
X26368Y-57347D01*
X26407Y-57500D01*
X26407Y-57690D01*
X26368Y-57842D01*
X26330Y-57919D01*
X26292Y-57957D01*
X26216Y-57995D01*
X26140Y-57995D01*
X26064Y-57957D01*
X26026Y-57919D01*
X25987Y-57842D01*
X25949Y-57690D01*
X25949Y-57500D01*
X25987Y-57347D01*
X26026Y-57271D01*
X26064Y-57233D01*
X26140Y-57195D01*
X26749Y-57919D02*
X26788Y-57957D01*
X26749Y-57995D01*
X26711Y-57957D01*
X26749Y-57919D01*
X26749Y-57995D01*
X27473Y-57195D02*
X27321Y-57195D01*
X27245Y-57233D01*
X27207Y-57271D01*
X27130Y-57385D01*
X27092Y-57538D01*
X27092Y-57842D01*
X27130Y-57919D01*
X27169Y-57957D01*
X27245Y-57995D01*
X27397Y-57995D01*
X27473Y-57957D01*
X27511Y-57919D01*
X27550Y-57842D01*
X27550Y-57652D01*
X27511Y-57576D01*
X27473Y-57538D01*
X27397Y-57500D01*
X27245Y-57500D01*
X27169Y-57538D01*
X27130Y-57576D01*
X27092Y-57652D01*
X28235Y-57461D02*
X28235Y-57995D01*
X28045Y-57157D02*
X27854Y-57728D01*
X28350Y-57728D01*
X28654Y-57995D02*
X28654Y-57461D01*
X28654Y-57538D02*
X28693Y-57500D01*
X28769Y-57461D01*
X28883Y-57461D01*
X28959Y-57500D01*
X28997Y-57576D01*
X28997Y-57995D01*
X28997Y-57576D02*
X29035Y-57500D01*
X29112Y-57461D01*
X29226Y-57461D01*
X29302Y-57500D01*
X29340Y-57576D01*
X29340Y-57995D01*
X29721Y-57995D02*
X29721Y-57461D01*
X29721Y-57538D02*
X29760Y-57500D01*
X29836Y-57461D01*
X29950Y-57461D01*
X30026Y-57500D01*
X30064Y-57576D01*
X30064Y-57995D01*
X30064Y-57576D02*
X30102Y-57500D01*
X30179Y-57461D01*
X30293Y-57461D01*
X30369Y-57500D01*
X30407Y-57576D01*
X30407Y-57995D01*
X31627Y-58300D02*
X31589Y-58261D01*
X31513Y-58147D01*
X31475Y-58071D01*
X31437Y-57957D01*
X31398Y-57766D01*
X31398Y-57614D01*
X31437Y-57423D01*
X31475Y-57309D01*
X31513Y-57233D01*
X31589Y-57119D01*
X31627Y-57081D01*
X31855Y-57195D02*
X32351Y-57195D01*
X32084Y-57500D01*
X32198Y-57500D01*
X32274Y-57538D01*
X32312Y-57576D01*
X32351Y-57652D01*
X32351Y-57842D01*
X32312Y-57919D01*
X32274Y-57957D01*
X32198Y-57995D01*
X31970Y-57995D01*
X31893Y-57957D01*
X31855Y-57919D01*
X33303Y-57995D02*
X33303Y-57195D01*
X33646Y-57995D02*
X33646Y-57576D01*
X33608Y-57500D01*
X33532Y-57461D01*
X33418Y-57461D01*
X33342Y-57500D01*
X33303Y-57538D01*
X34142Y-57995D02*
X34066Y-57957D01*
X34027Y-57919D01*
X33989Y-57842D01*
X33989Y-57614D01*
X34027Y-57538D01*
X34066Y-57500D01*
X34142Y-57461D01*
X34256Y-57461D01*
X34332Y-57500D01*
X34370Y-57538D01*
X34408Y-57614D01*
X34408Y-57842D01*
X34370Y-57919D01*
X34332Y-57957D01*
X34256Y-57995D01*
X34142Y-57995D01*
X34866Y-57995D02*
X34790Y-57957D01*
X34751Y-57881D01*
X34751Y-57195D01*
X35475Y-57957D02*
X35399Y-57995D01*
X35247Y-57995D01*
X35170Y-57957D01*
X35132Y-57881D01*
X35132Y-57576D01*
X35170Y-57500D01*
X35247Y-57461D01*
X35399Y-57461D01*
X35475Y-57500D01*
X35513Y-57576D01*
X35513Y-57652D01*
X35132Y-57728D01*
X35818Y-57957D02*
X35895Y-57995D01*
X36047Y-57995D01*
X36123Y-57957D01*
X36161Y-57881D01*
X36161Y-57842D01*
X36123Y-57766D01*
X36047Y-57728D01*
X35933Y-57728D01*
X35856Y-57690D01*
X35818Y-57614D01*
X35818Y-57576D01*
X35856Y-57500D01*
X35933Y-57461D01*
X36047Y-57461D01*
X36123Y-57500D01*
X36428Y-58300D02*
X36466Y-58261D01*
X36543Y-58147D01*
X36581Y-58071D01*
X36619Y-57957D01*
X36657Y-57766D01*
X36657Y-57614D01*
X36619Y-57423D01*
X36581Y-57309D01*
X36543Y-57233D01*
X36466Y-57119D01*
X36428Y-57081D01*
G54D10*
X19500Y-58726D02*
X19496Y-58757D01*
X19487Y-58786D01*
X19473Y-58814D01*
X19453Y-58838D01*
X19429Y-58858D01*
X19402Y-58873D01*
X19372Y-58882D01*
X19341Y-58885D01*
X19311Y-58883D01*
X19281Y-58874D01*
X19253Y-58859D01*
X19229Y-58840D01*
X19208Y-58816D01*
X19193Y-58789D01*
X19184Y-58759D01*
X19181Y-58728D01*
X19183Y-58698D01*
X19192Y-58668D01*
X19206Y-58640D01*
X19225Y-58615D01*
X19249Y-58595D01*
X19276Y-58580D01*
X19306Y-58570D01*
X19337Y-58567D01*
X19367Y-58569D01*
X19397Y-58577D01*
X19425Y-58591D01*
X19450Y-58611D01*
X19470Y-58634D01*
X19486Y-58661D01*
X19496Y-58691D01*
X19499Y-58722D01*
X19500Y-58726D01*
X19180Y-58566D02*
X19500Y-58886D01*
X19500Y-58566D02*
X19180Y-58886D01*
G54D12*
X20043Y-58250D02*
X20119Y-58250D01*
X20195Y-58288D01*
X20233Y-58326D01*
X20271Y-58402D01*
X20310Y-58555D01*
X20310Y-58745D01*
X20271Y-58897D01*
X20233Y-58974D01*
X20195Y-59012D01*
X20119Y-59050D01*
X20043Y-59050D01*
X19967Y-59012D01*
X19929Y-58974D01*
X19890Y-58897D01*
X19852Y-58745D01*
X19852Y-58555D01*
X19890Y-58402D01*
X19929Y-58326D01*
X19967Y-58288D01*
X20043Y-58250D01*
X20652Y-58974D02*
X20691Y-59012D01*
X20652Y-59050D01*
X20614Y-59012D01*
X20652Y-58974D01*
X20652Y-59050D01*
X21186Y-58250D02*
X21262Y-58250D01*
X21338Y-58288D01*
X21376Y-58326D01*
X21414Y-58402D01*
X21453Y-58555D01*
X21453Y-58745D01*
X21414Y-58897D01*
X21376Y-58974D01*
X21338Y-59012D01*
X21262Y-59050D01*
X21186Y-59050D01*
X21110Y-59012D01*
X21072Y-58974D01*
X21033Y-58897D01*
X20995Y-58745D01*
X20995Y-58555D01*
X21033Y-58402D01*
X21072Y-58326D01*
X21110Y-58288D01*
X21186Y-58250D01*
X21719Y-58250D02*
X22215Y-58250D01*
X21948Y-58555D01*
X22062Y-58555D01*
X22138Y-58593D01*
X22176Y-58631D01*
X22215Y-58707D01*
X22215Y-58897D01*
X22176Y-58974D01*
X22138Y-59012D01*
X22062Y-59050D01*
X21834Y-59050D01*
X21757Y-59012D01*
X21719Y-58974D01*
X22519Y-58326D02*
X22557Y-58288D01*
X22634Y-58250D01*
X22824Y-58250D01*
X22900Y-58288D01*
X22938Y-58326D01*
X22977Y-58402D01*
X22977Y-58478D01*
X22938Y-58593D01*
X22481Y-59050D01*
X22977Y-59050D01*
X23281Y-58250D02*
X23281Y-58402D01*
X23586Y-58250D02*
X23586Y-58402D01*
X25111Y-58212D02*
X24425Y-59240D01*
X26140Y-58250D02*
X26216Y-58250D01*
X26292Y-58288D01*
X26330Y-58326D01*
X26368Y-58402D01*
X26407Y-58555D01*
X26407Y-58745D01*
X26368Y-58897D01*
X26330Y-58974D01*
X26292Y-59012D01*
X26216Y-59050D01*
X26140Y-59050D01*
X26064Y-59012D01*
X26026Y-58974D01*
X25987Y-58897D01*
X25949Y-58745D01*
X25949Y-58555D01*
X25987Y-58402D01*
X26026Y-58326D01*
X26064Y-58288D01*
X26140Y-58250D01*
X26749Y-58974D02*
X26788Y-59012D01*
X26749Y-59050D01*
X26711Y-59012D01*
X26749Y-58974D01*
X26749Y-59050D01*
X27245Y-58593D02*
X27169Y-58555D01*
X27130Y-58516D01*
X27092Y-58440D01*
X27092Y-58402D01*
X27130Y-58326D01*
X27169Y-58288D01*
X27245Y-58250D01*
X27397Y-58250D01*
X27473Y-58288D01*
X27511Y-58326D01*
X27550Y-58402D01*
X27550Y-58440D01*
X27511Y-58516D01*
X27473Y-58555D01*
X27397Y-58593D01*
X27245Y-58593D01*
X27169Y-58631D01*
X27130Y-58669D01*
X27092Y-58745D01*
X27092Y-58897D01*
X27130Y-58974D01*
X27169Y-59012D01*
X27245Y-59050D01*
X27397Y-59050D01*
X27473Y-59012D01*
X27511Y-58974D01*
X27550Y-58897D01*
X27550Y-58745D01*
X27511Y-58669D01*
X27473Y-58631D01*
X27397Y-58593D01*
X28312Y-59050D02*
X27854Y-59050D01*
X28083Y-59050D02*
X28083Y-58250D01*
X28007Y-58364D01*
X27931Y-58440D01*
X27854Y-58478D01*
X28654Y-59050D02*
X28654Y-58516D01*
X28654Y-58593D02*
X28693Y-58555D01*
X28769Y-58516D01*
X28883Y-58516D01*
X28959Y-58555D01*
X28997Y-58631D01*
X28997Y-59050D01*
X28997Y-58631D02*
X29035Y-58555D01*
X29112Y-58516D01*
X29226Y-58516D01*
X29302Y-58555D01*
X29340Y-58631D01*
X29340Y-59050D01*
X29721Y-59050D02*
X29721Y-58516D01*
X29721Y-58593D02*
X29760Y-58555D01*
X29836Y-58516D01*
X29950Y-58516D01*
X30026Y-58555D01*
X30064Y-58631D01*
X30064Y-59050D01*
X30064Y-58631D02*
X30102Y-58555D01*
X30179Y-58516D01*
X30293Y-58516D01*
X30369Y-58555D01*
X30407Y-58631D01*
X30407Y-59050D01*
X31627Y-59355D02*
X31589Y-59316D01*
X31513Y-59202D01*
X31475Y-59126D01*
X31437Y-59012D01*
X31398Y-58821D01*
X31398Y-58669D01*
X31437Y-58478D01*
X31475Y-58364D01*
X31513Y-58288D01*
X31589Y-58174D01*
X31627Y-58136D01*
X32046Y-58593D02*
X31970Y-58555D01*
X31931Y-58516D01*
X31893Y-58440D01*
X31893Y-58402D01*
X31931Y-58326D01*
X31970Y-58288D01*
X32046Y-58250D01*
X32198Y-58250D01*
X32274Y-58288D01*
X32312Y-58326D01*
X32351Y-58402D01*
X32351Y-58440D01*
X32312Y-58516D01*
X32274Y-58555D01*
X32198Y-58593D01*
X32046Y-58593D01*
X31970Y-58631D01*
X31931Y-58669D01*
X31893Y-58745D01*
X31893Y-58897D01*
X31931Y-58974D01*
X31970Y-59012D01*
X32046Y-59050D01*
X32198Y-59050D01*
X32274Y-59012D01*
X32312Y-58974D01*
X32351Y-58897D01*
X32351Y-58745D01*
X32312Y-58669D01*
X32274Y-58631D01*
X32198Y-58593D01*
X33303Y-59050D02*
X33303Y-58250D01*
X33646Y-59050D02*
X33646Y-58631D01*
X33608Y-58555D01*
X33532Y-58516D01*
X33418Y-58516D01*
X33342Y-58555D01*
X33303Y-58593D01*
X34142Y-59050D02*
X34066Y-59012D01*
X34027Y-58974D01*
X33989Y-58897D01*
X33989Y-58669D01*
X34027Y-58593D01*
X34066Y-58555D01*
X34142Y-58516D01*
X34256Y-58516D01*
X34332Y-58555D01*
X34370Y-58593D01*
X34408Y-58669D01*
X34408Y-58897D01*
X34370Y-58974D01*
X34332Y-59012D01*
X34256Y-59050D01*
X34142Y-59050D01*
X34866Y-59050D02*
X34790Y-59012D01*
X34751Y-58936D01*
X34751Y-58250D01*
X35475Y-59012D02*
X35399Y-59050D01*
X35247Y-59050D01*
X35170Y-59012D01*
X35132Y-58936D01*
X35132Y-58631D01*
X35170Y-58555D01*
X35247Y-58516D01*
X35399Y-58516D01*
X35475Y-58555D01*
X35513Y-58631D01*
X35513Y-58707D01*
X35132Y-58783D01*
X35818Y-59012D02*
X35895Y-59050D01*
X36047Y-59050D01*
X36123Y-59012D01*
X36161Y-58936D01*
X36161Y-58897D01*
X36123Y-58821D01*
X36047Y-58783D01*
X35933Y-58783D01*
X35856Y-58745D01*
X35818Y-58669D01*
X35818Y-58631D01*
X35856Y-58555D01*
X35933Y-58516D01*
X36047Y-58516D01*
X36123Y-58555D01*
X36428Y-59355D02*
X36466Y-59316D01*
X36543Y-59202D01*
X36581Y-59126D01*
X36619Y-59012D01*
X36657Y-58821D01*
X36657Y-58669D01*
X36619Y-58478D01*
X36581Y-58364D01*
X36543Y-58288D01*
X36466Y-58174D01*
X36428Y-58136D01*
G54D10*
X19500Y-59781D02*
X19496Y-59815D01*
X19486Y-59849D01*
X19469Y-59880D01*
X19447Y-59907D01*
X19420Y-59930D01*
X19389Y-59946D01*
X19356Y-59957D01*
X19321Y-59960D01*
X19287Y-59957D01*
X19253Y-59947D01*
X19222Y-59931D01*
X19195Y-59909D01*
X19172Y-59882D01*
X19155Y-59851D01*
X19144Y-59818D01*
X19141Y-59783D01*
X19143Y-59749D01*
X19153Y-59715D01*
X19169Y-59684D01*
X19191Y-59656D01*
X19218Y-59634D01*
X19248Y-59617D01*
X19282Y-59606D01*
X19317Y-59602D01*
X19351Y-59604D01*
X19385Y-59614D01*
X19416Y-59630D01*
X19444Y-59651D01*
X19467Y-59678D01*
X19484Y-59708D01*
X19495Y-59742D01*
X19499Y-59776D01*
X19500Y-59781D01*
X19140Y-59781D02*
X19500Y-59781D01*
G54D12*
X20043Y-59305D02*
X20119Y-59305D01*
X20195Y-59343D01*
X20233Y-59381D01*
X20271Y-59457D01*
X20310Y-59610D01*
X20310Y-59800D01*
X20271Y-59952D01*
X20233Y-60029D01*
X20195Y-60067D01*
X20119Y-60105D01*
X20043Y-60105D01*
X19967Y-60067D01*
X19929Y-60029D01*
X19890Y-59952D01*
X19852Y-59800D01*
X19852Y-59610D01*
X19890Y-59457D01*
X19929Y-59381D01*
X19967Y-59343D01*
X20043Y-59305D01*
X20652Y-60029D02*
X20691Y-60067D01*
X20652Y-60105D01*
X20614Y-60067D01*
X20652Y-60029D01*
X20652Y-60105D01*
X21186Y-59305D02*
X21262Y-59305D01*
X21338Y-59343D01*
X21376Y-59381D01*
X21414Y-59457D01*
X21453Y-59610D01*
X21453Y-59800D01*
X21414Y-59952D01*
X21376Y-60029D01*
X21338Y-60067D01*
X21262Y-60105D01*
X21186Y-60105D01*
X21110Y-60067D01*
X21072Y-60029D01*
X21033Y-59952D01*
X20995Y-59800D01*
X20995Y-59610D01*
X21033Y-59457D01*
X21072Y-59381D01*
X21110Y-59343D01*
X21186Y-59305D01*
X21719Y-59305D02*
X22215Y-59305D01*
X21948Y-59610D01*
X22062Y-59610D01*
X22138Y-59648D01*
X22176Y-59686D01*
X22215Y-59762D01*
X22215Y-59952D01*
X22176Y-60029D01*
X22138Y-60067D01*
X22062Y-60105D01*
X21834Y-60105D01*
X21757Y-60067D01*
X21719Y-60029D01*
X22900Y-59305D02*
X22748Y-59305D01*
X22672Y-59343D01*
X22634Y-59381D01*
X22557Y-59495D01*
X22519Y-59648D01*
X22519Y-59952D01*
X22557Y-60029D01*
X22596Y-60067D01*
X22672Y-60105D01*
X22824Y-60105D01*
X22900Y-60067D01*
X22938Y-60029D01*
X22977Y-59952D01*
X22977Y-59762D01*
X22938Y-59686D01*
X22900Y-59648D01*
X22824Y-59610D01*
X22672Y-59610D01*
X22596Y-59648D01*
X22557Y-59686D01*
X22519Y-59762D01*
X23281Y-59305D02*
X23281Y-59457D01*
X23586Y-59305D02*
X23586Y-59457D01*
X25111Y-59267D02*
X24425Y-60295D01*
X26140Y-59305D02*
X26216Y-59305D01*
X26292Y-59343D01*
X26330Y-59381D01*
X26368Y-59457D01*
X26407Y-59610D01*
X26407Y-59800D01*
X26368Y-59952D01*
X26330Y-60029D01*
X26292Y-60067D01*
X26216Y-60105D01*
X26140Y-60105D01*
X26064Y-60067D01*
X26026Y-60029D01*
X25987Y-59952D01*
X25949Y-59800D01*
X25949Y-59610D01*
X25987Y-59457D01*
X26026Y-59381D01*
X26064Y-59343D01*
X26140Y-59305D01*
X26749Y-60029D02*
X26788Y-60067D01*
X26749Y-60105D01*
X26711Y-60067D01*
X26749Y-60029D01*
X26749Y-60105D01*
X27169Y-60105D02*
X27321Y-60105D01*
X27397Y-60067D01*
X27435Y-60029D01*
X27511Y-59914D01*
X27550Y-59762D01*
X27550Y-59457D01*
X27511Y-59381D01*
X27473Y-59343D01*
X27397Y-59305D01*
X27245Y-59305D01*
X27169Y-59343D01*
X27130Y-59381D01*
X27092Y-59457D01*
X27092Y-59648D01*
X27130Y-59724D01*
X27169Y-59762D01*
X27245Y-59800D01*
X27397Y-59800D01*
X27473Y-59762D01*
X27511Y-59724D01*
X27550Y-59648D01*
X28312Y-60105D02*
X27854Y-60105D01*
X28083Y-60105D02*
X28083Y-59305D01*
X28007Y-59419D01*
X27931Y-59495D01*
X27854Y-59533D01*
X28654Y-60105D02*
X28654Y-59571D01*
X28654Y-59648D02*
X28693Y-59610D01*
X28769Y-59571D01*
X28883Y-59571D01*
X28959Y-59610D01*
X28997Y-59686D01*
X28997Y-60105D01*
X28997Y-59686D02*
X29035Y-59610D01*
X29112Y-59571D01*
X29226Y-59571D01*
X29302Y-59610D01*
X29340Y-59686D01*
X29340Y-60105D01*
X29721Y-60105D02*
X29721Y-59571D01*
X29721Y-59648D02*
X29760Y-59610D01*
X29836Y-59571D01*
X29950Y-59571D01*
X30026Y-59610D01*
X30064Y-59686D01*
X30064Y-60105D01*
X30064Y-59686D02*
X30102Y-59610D01*
X30179Y-59571D01*
X30293Y-59571D01*
X30369Y-59610D01*
X30407Y-59686D01*
X30407Y-60105D01*
X31627Y-60410D02*
X31589Y-60371D01*
X31513Y-60257D01*
X31475Y-60181D01*
X31437Y-60067D01*
X31398Y-59876D01*
X31398Y-59724D01*
X31437Y-59533D01*
X31475Y-59419D01*
X31513Y-59343D01*
X31589Y-59229D01*
X31627Y-59191D01*
X32351Y-60105D02*
X31893Y-60105D01*
X32122Y-60105D02*
X32122Y-59305D01*
X32046Y-59419D01*
X31970Y-59495D01*
X31893Y-59533D01*
X33036Y-59305D02*
X32884Y-59305D01*
X32808Y-59343D01*
X32770Y-59381D01*
X32693Y-59495D01*
X32655Y-59648D01*
X32655Y-59952D01*
X32693Y-60029D01*
X32732Y-60067D01*
X32808Y-60105D01*
X32960Y-60105D01*
X33036Y-60067D01*
X33074Y-60029D01*
X33113Y-59952D01*
X33113Y-59762D01*
X33074Y-59686D01*
X33036Y-59648D01*
X32960Y-59610D01*
X32808Y-59610D01*
X32732Y-59648D01*
X32693Y-59686D01*
X32655Y-59762D01*
X34065Y-60105D02*
X34065Y-59305D01*
X34408Y-60105D02*
X34408Y-59686D01*
X34370Y-59610D01*
X34294Y-59571D01*
X34180Y-59571D01*
X34104Y-59610D01*
X34065Y-59648D01*
X34904Y-60105D02*
X34828Y-60067D01*
X34789Y-60029D01*
X34751Y-59952D01*
X34751Y-59724D01*
X34789Y-59648D01*
X34828Y-59610D01*
X34904Y-59571D01*
X35018Y-59571D01*
X35094Y-59610D01*
X35132Y-59648D01*
X35170Y-59724D01*
X35170Y-59952D01*
X35132Y-60029D01*
X35094Y-60067D01*
X35018Y-60105D01*
X34904Y-60105D01*
X35628Y-60105D02*
X35552Y-60067D01*
X35513Y-59991D01*
X35513Y-59305D01*
X36237Y-60067D02*
X36161Y-60105D01*
X36009Y-60105D01*
X35932Y-60067D01*
X35894Y-59991D01*
X35894Y-59686D01*
X35932Y-59610D01*
X36009Y-59571D01*
X36161Y-59571D01*
X36237Y-59610D01*
X36275Y-59686D01*
X36275Y-59762D01*
X35894Y-59838D01*
X36580Y-60067D02*
X36657Y-60105D01*
X36809Y-60105D01*
X36885Y-60067D01*
X36923Y-59991D01*
X36923Y-59952D01*
X36885Y-59876D01*
X36809Y-59838D01*
X36695Y-59838D01*
X36618Y-59800D01*
X36580Y-59724D01*
X36580Y-59686D01*
X36618Y-59610D01*
X36695Y-59571D01*
X36809Y-59571D01*
X36885Y-59610D01*
X37190Y-60410D02*
X37228Y-60371D01*
X37305Y-60257D01*
X37343Y-60181D01*
X37381Y-60067D01*
X37419Y-59876D01*
X37419Y-59724D01*
X37381Y-59533D01*
X37343Y-59419D01*
X37305Y-59343D01*
X37228Y-59229D01*
X37190Y-59191D01*
G54D10*
X19500Y-60836D02*
X19496Y-60874D01*
X19484Y-60912D01*
X19466Y-60946D01*
X19441Y-60976D01*
X19411Y-61001D01*
X19377Y-61020D01*
X19340Y-61031D01*
X19301Y-61035D01*
X19263Y-61032D01*
X19226Y-61021D01*
X19191Y-61003D01*
X19161Y-60978D01*
X19135Y-60948D01*
X19117Y-60914D01*
X19105Y-60877D01*
X19101Y-60838D01*
X19104Y-60800D01*
X19115Y-60763D01*
X19132Y-60728D01*
X19157Y-60698D01*
X19186Y-60672D01*
X19220Y-60653D01*
X19258Y-60641D01*
X19296Y-60637D01*
X19334Y-60640D01*
X19372Y-60650D01*
X19407Y-60668D01*
X19437Y-60692D01*
X19463Y-60721D01*
X19482Y-60755D01*
X19495Y-60792D01*
X19499Y-60831D01*
X19500Y-60836D01*
X19300Y-60636D02*
X19300Y-61036D01*
G54D12*
X20043Y-60360D02*
X20119Y-60360D01*
X20195Y-60398D01*
X20233Y-60436D01*
X20271Y-60512D01*
X20310Y-60665D01*
X20310Y-60855D01*
X20271Y-61007D01*
X20233Y-61084D01*
X20195Y-61122D01*
X20119Y-61160D01*
X20043Y-61160D01*
X19967Y-61122D01*
X19929Y-61084D01*
X19890Y-61007D01*
X19852Y-60855D01*
X19852Y-60665D01*
X19890Y-60512D01*
X19929Y-60436D01*
X19967Y-60398D01*
X20043Y-60360D01*
X20652Y-61084D02*
X20691Y-61122D01*
X20652Y-61160D01*
X20614Y-61122D01*
X20652Y-61084D01*
X20652Y-61160D01*
X21186Y-60360D02*
X21262Y-60360D01*
X21338Y-60398D01*
X21376Y-60436D01*
X21414Y-60512D01*
X21453Y-60665D01*
X21453Y-60855D01*
X21414Y-61007D01*
X21376Y-61084D01*
X21338Y-61122D01*
X21262Y-61160D01*
X21186Y-61160D01*
X21110Y-61122D01*
X21072Y-61084D01*
X21033Y-61007D01*
X20995Y-60855D01*
X20995Y-60665D01*
X21033Y-60512D01*
X21072Y-60436D01*
X21110Y-60398D01*
X21186Y-60360D01*
X22138Y-60626D02*
X22138Y-61160D01*
X21948Y-60322D02*
X21757Y-60893D01*
X22253Y-60893D01*
X22710Y-60360D02*
X22786Y-60360D01*
X22862Y-60398D01*
X22900Y-60436D01*
X22938Y-60512D01*
X22977Y-60665D01*
X22977Y-60855D01*
X22938Y-61007D01*
X22900Y-61084D01*
X22862Y-61122D01*
X22786Y-61160D01*
X22710Y-61160D01*
X22634Y-61122D01*
X22596Y-61084D01*
X22557Y-61007D01*
X22519Y-60855D01*
X22519Y-60665D01*
X22557Y-60512D01*
X22596Y-60436D01*
X22634Y-60398D01*
X22710Y-60360D01*
X23281Y-60360D02*
X23281Y-60512D01*
X23586Y-60360D02*
X23586Y-60512D01*
X25111Y-60322D02*
X24425Y-61350D01*
X26407Y-61160D02*
X25949Y-61160D01*
X26178Y-61160D02*
X26178Y-60360D01*
X26102Y-60474D01*
X26026Y-60550D01*
X25949Y-60588D01*
X26749Y-61084D02*
X26788Y-61122D01*
X26749Y-61160D01*
X26711Y-61122D01*
X26749Y-61084D01*
X26749Y-61160D01*
X27283Y-60360D02*
X27359Y-60360D01*
X27435Y-60398D01*
X27473Y-60436D01*
X27511Y-60512D01*
X27550Y-60665D01*
X27550Y-60855D01*
X27511Y-61007D01*
X27473Y-61084D01*
X27435Y-61122D01*
X27359Y-61160D01*
X27283Y-61160D01*
X27207Y-61122D01*
X27169Y-61084D01*
X27130Y-61007D01*
X27092Y-60855D01*
X27092Y-60665D01*
X27130Y-60512D01*
X27169Y-60436D01*
X27207Y-60398D01*
X27283Y-60360D01*
X27854Y-60436D02*
X27892Y-60398D01*
X27969Y-60360D01*
X28159Y-60360D01*
X28235Y-60398D01*
X28273Y-60436D01*
X28312Y-60512D01*
X28312Y-60588D01*
X28273Y-60703D01*
X27816Y-61160D01*
X28312Y-61160D01*
X28654Y-61160D02*
X28654Y-60626D01*
X28654Y-60703D02*
X28693Y-60665D01*
X28769Y-60626D01*
X28883Y-60626D01*
X28959Y-60665D01*
X28997Y-60741D01*
X28997Y-61160D01*
X28997Y-60741D02*
X29035Y-60665D01*
X29112Y-60626D01*
X29226Y-60626D01*
X29302Y-60665D01*
X29340Y-60741D01*
X29340Y-61160D01*
X29721Y-61160D02*
X29721Y-60626D01*
X29721Y-60703D02*
X29760Y-60665D01*
X29836Y-60626D01*
X29950Y-60626D01*
X30026Y-60665D01*
X30064Y-60741D01*
X30064Y-61160D01*
X30064Y-60741D02*
X30102Y-60665D01*
X30179Y-60626D01*
X30293Y-60626D01*
X30369Y-60665D01*
X30407Y-60741D01*
X30407Y-61160D01*
X31627Y-61465D02*
X31589Y-61426D01*
X31513Y-61312D01*
X31475Y-61236D01*
X31437Y-61122D01*
X31398Y-60931D01*
X31398Y-60779D01*
X31437Y-60588D01*
X31475Y-60474D01*
X31513Y-60398D01*
X31589Y-60284D01*
X31627Y-60246D01*
X31893Y-60436D02*
X31931Y-60398D01*
X32008Y-60360D01*
X32198Y-60360D01*
X32274Y-60398D01*
X32312Y-60436D01*
X32351Y-60512D01*
X32351Y-60588D01*
X32312Y-60703D01*
X31855Y-61160D01*
X32351Y-61160D01*
X33036Y-60626D02*
X33036Y-61160D01*
X32846Y-60322D02*
X32655Y-60893D01*
X33151Y-60893D01*
X34065Y-61160D02*
X34065Y-60360D01*
X34408Y-61160D02*
X34408Y-60741D01*
X34370Y-60665D01*
X34294Y-60626D01*
X34180Y-60626D01*
X34104Y-60665D01*
X34065Y-60703D01*
X34904Y-61160D02*
X34828Y-61122D01*
X34789Y-61084D01*
X34751Y-61007D01*
X34751Y-60779D01*
X34789Y-60703D01*
X34828Y-60665D01*
X34904Y-60626D01*
X35018Y-60626D01*
X35094Y-60665D01*
X35132Y-60703D01*
X35170Y-60779D01*
X35170Y-61007D01*
X35132Y-61084D01*
X35094Y-61122D01*
X35018Y-61160D01*
X34904Y-61160D01*
X35628Y-61160D02*
X35552Y-61122D01*
X35513Y-61046D01*
X35513Y-60360D01*
X36237Y-61122D02*
X36161Y-61160D01*
X36009Y-61160D01*
X35932Y-61122D01*
X35894Y-61046D01*
X35894Y-60741D01*
X35932Y-60665D01*
X36009Y-60626D01*
X36161Y-60626D01*
X36237Y-60665D01*
X36275Y-60741D01*
X36275Y-60817D01*
X35894Y-60893D01*
X36580Y-61122D02*
X36657Y-61160D01*
X36809Y-61160D01*
X36885Y-61122D01*
X36923Y-61046D01*
X36923Y-61007D01*
X36885Y-60931D01*
X36809Y-60893D01*
X36695Y-60893D01*
X36618Y-60855D01*
X36580Y-60779D01*
X36580Y-60741D01*
X36618Y-60665D01*
X36695Y-60626D01*
X36809Y-60626D01*
X36885Y-60665D01*
X37190Y-61465D02*
X37228Y-61426D01*
X37305Y-61312D01*
X37343Y-61236D01*
X37381Y-61122D01*
X37419Y-60931D01*
X37419Y-60779D01*
X37381Y-60588D01*
X37343Y-60474D01*
X37305Y-60398D01*
X37228Y-60284D01*
X37190Y-60246D01*
G54D10*
X19211Y-62587D02*
X19211Y-61195D01*
X17819Y-61195D01*
X17819Y-62587D01*
X19211Y-62587D01*
G54D12*
X20043Y-61415D02*
X20119Y-61415D01*
X20195Y-61453D01*
X20233Y-61491D01*
X20271Y-61567D01*
X20310Y-61720D01*
X20310Y-61910D01*
X20271Y-62062D01*
X20233Y-62139D01*
X20195Y-62177D01*
X20119Y-62215D01*
X20043Y-62215D01*
X19967Y-62177D01*
X19929Y-62139D01*
X19890Y-62062D01*
X19852Y-61910D01*
X19852Y-61720D01*
X19890Y-61567D01*
X19929Y-61491D01*
X19967Y-61453D01*
X20043Y-61415D01*
X20652Y-62139D02*
X20691Y-62177D01*
X20652Y-62215D01*
X20614Y-62177D01*
X20652Y-62139D01*
X20652Y-62215D01*
X21453Y-62215D02*
X20995Y-62215D01*
X21224Y-62215D02*
X21224Y-61415D01*
X21148Y-61529D01*
X21072Y-61605D01*
X20995Y-61643D01*
X21834Y-62215D02*
X21986Y-62215D01*
X22062Y-62177D01*
X22100Y-62139D01*
X22176Y-62024D01*
X22215Y-61872D01*
X22215Y-61567D01*
X22176Y-61491D01*
X22138Y-61453D01*
X22062Y-61415D01*
X21910Y-61415D01*
X21834Y-61453D01*
X21795Y-61491D01*
X21757Y-61567D01*
X21757Y-61758D01*
X21795Y-61834D01*
X21834Y-61872D01*
X21910Y-61910D01*
X22062Y-61910D01*
X22138Y-61872D01*
X22176Y-61834D01*
X22215Y-61758D01*
X22481Y-61415D02*
X23015Y-61415D01*
X22672Y-62215D01*
X23281Y-61415D02*
X23281Y-61567D01*
X23586Y-61415D02*
X23586Y-61567D01*
X25111Y-61377D02*
X24425Y-62405D01*
X26368Y-61415D02*
X25987Y-61415D01*
X25949Y-61796D01*
X25987Y-61758D01*
X26064Y-61720D01*
X26254Y-61720D01*
X26330Y-61758D01*
X26368Y-61796D01*
X26407Y-61872D01*
X26407Y-62062D01*
X26368Y-62139D01*
X26330Y-62177D01*
X26254Y-62215D01*
X26064Y-62215D01*
X25987Y-62177D01*
X25949Y-62139D01*
X26749Y-62139D02*
X26788Y-62177D01*
X26749Y-62215D01*
X26711Y-62177D01*
X26749Y-62139D01*
X26749Y-62215D01*
X27283Y-61415D02*
X27359Y-61415D01*
X27435Y-61453D01*
X27473Y-61491D01*
X27511Y-61567D01*
X27550Y-61720D01*
X27550Y-61910D01*
X27511Y-62062D01*
X27473Y-62139D01*
X27435Y-62177D01*
X27359Y-62215D01*
X27283Y-62215D01*
X27207Y-62177D01*
X27169Y-62139D01*
X27130Y-62062D01*
X27092Y-61910D01*
X27092Y-61720D01*
X27130Y-61567D01*
X27169Y-61491D01*
X27207Y-61453D01*
X27283Y-61415D01*
X28045Y-61415D02*
X28121Y-61415D01*
X28197Y-61453D01*
X28235Y-61491D01*
X28273Y-61567D01*
X28312Y-61720D01*
X28312Y-61910D01*
X28273Y-62062D01*
X28235Y-62139D01*
X28197Y-62177D01*
X28121Y-62215D01*
X28045Y-62215D01*
X27969Y-62177D01*
X27931Y-62139D01*
X27892Y-62062D01*
X27854Y-61910D01*
X27854Y-61720D01*
X27892Y-61567D01*
X27931Y-61491D01*
X27969Y-61453D01*
X28045Y-61415D01*
X28654Y-62215D02*
X28654Y-61681D01*
X28654Y-61758D02*
X28693Y-61720D01*
X28769Y-61681D01*
X28883Y-61681D01*
X28959Y-61720D01*
X28997Y-61796D01*
X28997Y-62215D01*
X28997Y-61796D02*
X29035Y-61720D01*
X29112Y-61681D01*
X29226Y-61681D01*
X29302Y-61720D01*
X29340Y-61796D01*
X29340Y-62215D01*
X29721Y-62215D02*
X29721Y-61681D01*
X29721Y-61758D02*
X29760Y-61720D01*
X29836Y-61681D01*
X29950Y-61681D01*
X30026Y-61720D01*
X30064Y-61796D01*
X30064Y-62215D01*
X30064Y-61796D02*
X30102Y-61720D01*
X30179Y-61681D01*
X30293Y-61681D01*
X30369Y-61720D01*
X30407Y-61796D01*
X30407Y-62215D01*
X31627Y-62520D02*
X31589Y-62481D01*
X31513Y-62367D01*
X31475Y-62291D01*
X31437Y-62177D01*
X31398Y-61986D01*
X31398Y-61834D01*
X31437Y-61643D01*
X31475Y-61529D01*
X31513Y-61453D01*
X31589Y-61339D01*
X31627Y-61301D01*
X31855Y-61415D02*
X32351Y-61415D01*
X32084Y-61720D01*
X32198Y-61720D01*
X32274Y-61758D01*
X32312Y-61796D01*
X32351Y-61872D01*
X32351Y-62062D01*
X32312Y-62139D01*
X32274Y-62177D01*
X32198Y-62215D01*
X31970Y-62215D01*
X31893Y-62177D01*
X31855Y-62139D01*
X33303Y-62215D02*
X33303Y-61415D01*
X33646Y-62215D02*
X33646Y-61796D01*
X33608Y-61720D01*
X33532Y-61681D01*
X33418Y-61681D01*
X33342Y-61720D01*
X33303Y-61758D01*
X34142Y-62215D02*
X34066Y-62177D01*
X34027Y-62139D01*
X33989Y-62062D01*
X33989Y-61834D01*
X34027Y-61758D01*
X34066Y-61720D01*
X34142Y-61681D01*
X34256Y-61681D01*
X34332Y-61720D01*
X34370Y-61758D01*
X34408Y-61834D01*
X34408Y-62062D01*
X34370Y-62139D01*
X34332Y-62177D01*
X34256Y-62215D01*
X34142Y-62215D01*
X34866Y-62215D02*
X34790Y-62177D01*
X34751Y-62101D01*
X34751Y-61415D01*
X35475Y-62177D02*
X35399Y-62215D01*
X35247Y-62215D01*
X35170Y-62177D01*
X35132Y-62101D01*
X35132Y-61796D01*
X35170Y-61720D01*
X35247Y-61681D01*
X35399Y-61681D01*
X35475Y-61720D01*
X35513Y-61796D01*
X35513Y-61872D01*
X35132Y-61948D01*
X35818Y-62177D02*
X35895Y-62215D01*
X36047Y-62215D01*
X36123Y-62177D01*
X36161Y-62101D01*
X36161Y-62062D01*
X36123Y-61986D01*
X36047Y-61948D01*
X35933Y-61948D01*
X35856Y-61910D01*
X35818Y-61834D01*
X35818Y-61796D01*
X35856Y-61720D01*
X35933Y-61681D01*
X36047Y-61681D01*
X36123Y-61720D01*
X36428Y-62520D02*
X36466Y-62481D01*
X36543Y-62367D01*
X36581Y-62291D01*
X36619Y-62177D01*
X36657Y-61986D01*
X36657Y-61834D01*
X36619Y-61643D01*
X36581Y-61529D01*
X36543Y-61453D01*
X36466Y-61339D01*
X36428Y-61301D01*
M02*
