M48
;DRILL file {PCBnew (2011-04-29 BZR 2986)-stable} date 21/02/2012 16:52:50
;FORMAT={-:-/ absolute / metric / decimal}
FMAT,2
METRIC,TZ
T1C0.599
T2C0.813
T3C1.016
T4C3.000
T5C3.251
%
G90
G05
M71
T1
X65.405Y86.360
X67.945Y73.025
X69.850Y76.835
X69.850Y115.570
X69.850Y123.190
X70.485Y98.425
X70.485Y100.965
X70.485Y104.775
X70.485Y107.315
X71.120Y85.725
X71.120Y88.265
X71.120Y92.075
X71.120Y94.615
X78.740Y109.855
X82.550Y71.755
X82.550Y79.375
X85.725Y115.570
X86.360Y109.855
X91.440Y66.675
X93.345Y115.570
X94.615Y120.650
X97.790Y70.485
X97.790Y73.025
X97.790Y76.200
X97.790Y78.740
X103.505Y115.570
X105.410Y111.125
X106.045Y115.570
X106.680Y90.170
X106.680Y94.615
X107.950Y65.405
X109.220Y69.850
X109.220Y72.390
X109.220Y75.565
X109.220Y78.105
X109.220Y81.280
X109.220Y83.820
X109.220Y90.170
X109.220Y94.615
X109.855Y115.570
X110.490Y65.405
X110.490Y111.125
X112.395Y115.570
X117.475Y60.325
X117.475Y62.865
X119.380Y125.095
X121.285Y62.865
X121.920Y94.615
X123.825Y62.865
T2
X54.610Y63.500
X55.880Y66.040
X57.150Y63.500
X58.420Y66.040
X59.690Y63.500
X60.960Y66.040
X75.565Y90.170
X75.565Y95.250
X75.565Y100.330
X75.565Y102.870
X78.740Y115.570
X81.280Y115.570
X85.725Y71.755
X85.725Y74.295
X85.725Y76.835
X85.725Y79.375
X86.360Y99.060
X86.360Y106.680
X88.900Y99.060
X88.900Y106.680
X91.440Y99.060
X91.440Y106.680
X93.345Y71.755
X93.345Y74.295
X93.345Y76.835
X93.345Y79.375
X93.980Y99.060
X93.980Y106.680
X96.520Y99.060
X96.520Y106.680
X99.060Y99.060
X99.060Y106.680
X101.600Y99.060
X101.600Y106.680
X104.140Y99.060
X104.140Y106.680
X106.680Y99.060
X106.680Y106.680
X109.220Y99.060
X109.220Y106.680
X111.760Y99.060
X111.760Y106.680
X113.665Y67.945
X113.665Y70.485
X113.665Y73.025
X113.665Y75.565
X113.665Y78.105
X113.665Y80.645
X113.665Y83.185
X113.665Y85.725
X114.300Y99.060
X114.300Y106.680
X116.840Y99.060
X116.840Y106.680
X119.380Y99.060
X119.380Y106.680
X121.285Y67.945
X121.285Y70.485
X121.285Y73.025
X121.285Y75.565
X121.285Y78.105
X121.285Y80.645
X121.285Y83.185
X121.285Y85.725
T3
X62.865Y74.295
X62.865Y76.835
X62.865Y79.375
X62.865Y81.915
X62.865Y84.455
X62.865Y86.995
X62.865Y89.535
X62.865Y92.075
X62.865Y97.790
X62.865Y100.330
X62.865Y102.870
X62.865Y105.410
X62.865Y107.950
X62.865Y110.490
X62.865Y113.030
X62.865Y115.570
X62.865Y120.650
X65.405Y120.650
X86.995Y55.880
X86.995Y58.420
X86.995Y125.730
X86.995Y128.270
X89.535Y55.880
X89.535Y58.420
X89.535Y125.730
X89.535Y128.270
X92.075Y55.880
X92.075Y58.420
X92.075Y125.730
X92.075Y128.270
X94.615Y55.880
X94.615Y58.420
X94.615Y125.730
X94.615Y128.270
X97.155Y55.880
X97.155Y58.420
X97.155Y125.730
X97.155Y128.270
X125.730Y67.945
X125.730Y70.485
X125.730Y73.025
X125.730Y75.565
T4
X57.150Y127.000
X78.105Y57.150
X78.105Y127.000
X106.045Y57.150
X106.045Y127.000
X127.000Y57.150
X127.000Y127.000
T5
X53.340Y57.150
X63.500Y57.150
T0
M30
