G04 (created by PCBNEW (2012-01-19 BZR 3256)-stable) date 19/03/2013 14:43:25*
G01*
G70*
G90*
%MOIN*%
G04 Gerber Fmt 3.4, Leading zero omitted, Abs format*
%FSLAX34Y34*%
G04 APERTURE LIST*
%ADD10C,0.001000*%
%ADD11C,0.015000*%
%ADD12C,0.008000*%
G04 APERTURE END LIST*
G54D10*
G54D11*
X61000Y-42500D02*
X19000Y-42500D01*
X62500Y-41000D02*
X61000Y-42500D01*
X62500Y-19000D02*
X62500Y-41000D01*
X61000Y-17500D02*
X62500Y-19000D01*
X19000Y-17500D02*
X61000Y-17500D01*
X17500Y-19000D02*
X19000Y-17500D01*
X17500Y-41000D02*
X17500Y-19000D01*
X19000Y-42500D02*
X17500Y-41000D01*
G54D10*
X26875Y-38875D02*
X27125Y-39125D01*
X27125Y-38875D02*
X26875Y-39125D01*
X26875Y-40875D02*
X27125Y-41125D01*
X27125Y-40875D02*
X26875Y-41125D01*
X30375Y-39375D02*
X30625Y-39625D01*
X30625Y-39375D02*
X30375Y-39625D01*
X30375Y-40375D02*
X30625Y-40625D01*
X30625Y-40375D02*
X30375Y-40625D01*
X19660Y-23000D02*
X19656Y-23031D01*
X19647Y-23060D01*
X19633Y-23088D01*
X19613Y-23112D01*
X19589Y-23132D01*
X19562Y-23147D01*
X19532Y-23156D01*
X19501Y-23159D01*
X19471Y-23157D01*
X19441Y-23148D01*
X19413Y-23133D01*
X19389Y-23114D01*
X19368Y-23090D01*
X19353Y-23063D01*
X19344Y-23033D01*
X19341Y-23002D01*
X19343Y-22972D01*
X19352Y-22942D01*
X19366Y-22914D01*
X19385Y-22889D01*
X19409Y-22869D01*
X19436Y-22854D01*
X19466Y-22844D01*
X19497Y-22841D01*
X19527Y-22843D01*
X19557Y-22851D01*
X19585Y-22865D01*
X19610Y-22885D01*
X19630Y-22908D01*
X19646Y-22935D01*
X19656Y-22965D01*
X19659Y-22996D01*
X19660Y-23000D01*
X26660Y-23000D02*
X26656Y-23031D01*
X26647Y-23060D01*
X26633Y-23088D01*
X26613Y-23112D01*
X26589Y-23132D01*
X26562Y-23147D01*
X26532Y-23156D01*
X26501Y-23159D01*
X26471Y-23157D01*
X26441Y-23148D01*
X26413Y-23133D01*
X26389Y-23114D01*
X26368Y-23090D01*
X26353Y-23063D01*
X26344Y-23033D01*
X26341Y-23002D01*
X26343Y-22972D01*
X26352Y-22942D01*
X26366Y-22914D01*
X26385Y-22889D01*
X26409Y-22869D01*
X26436Y-22854D01*
X26466Y-22844D01*
X26497Y-22841D01*
X26527Y-22843D01*
X26557Y-22851D01*
X26585Y-22865D01*
X26610Y-22885D01*
X26630Y-22908D01*
X26646Y-22935D01*
X26656Y-22965D01*
X26659Y-22996D01*
X26660Y-23000D01*
X30910Y-23000D02*
X30906Y-23031D01*
X30897Y-23060D01*
X30883Y-23088D01*
X30863Y-23112D01*
X30839Y-23132D01*
X30812Y-23147D01*
X30782Y-23156D01*
X30751Y-23159D01*
X30721Y-23157D01*
X30691Y-23148D01*
X30663Y-23133D01*
X30639Y-23114D01*
X30618Y-23090D01*
X30603Y-23063D01*
X30594Y-23033D01*
X30591Y-23002D01*
X30593Y-22972D01*
X30602Y-22942D01*
X30616Y-22914D01*
X30635Y-22889D01*
X30659Y-22869D01*
X30686Y-22854D01*
X30716Y-22844D01*
X30747Y-22841D01*
X30777Y-22843D01*
X30807Y-22851D01*
X30835Y-22865D01*
X30860Y-22885D01*
X30880Y-22908D01*
X30896Y-22935D01*
X30906Y-22965D01*
X30909Y-22996D01*
X30910Y-23000D01*
X37910Y-23000D02*
X37906Y-23031D01*
X37897Y-23060D01*
X37883Y-23088D01*
X37863Y-23112D01*
X37839Y-23132D01*
X37812Y-23147D01*
X37782Y-23156D01*
X37751Y-23159D01*
X37721Y-23157D01*
X37691Y-23148D01*
X37663Y-23133D01*
X37639Y-23114D01*
X37618Y-23090D01*
X37603Y-23063D01*
X37594Y-23033D01*
X37591Y-23002D01*
X37593Y-22972D01*
X37602Y-22942D01*
X37616Y-22914D01*
X37635Y-22889D01*
X37659Y-22869D01*
X37686Y-22854D01*
X37716Y-22844D01*
X37747Y-22841D01*
X37777Y-22843D01*
X37807Y-22851D01*
X37835Y-22865D01*
X37860Y-22885D01*
X37880Y-22908D01*
X37896Y-22935D01*
X37906Y-22965D01*
X37909Y-22996D01*
X37910Y-23000D01*
X41910Y-23000D02*
X41906Y-23031D01*
X41897Y-23060D01*
X41883Y-23088D01*
X41863Y-23112D01*
X41839Y-23132D01*
X41812Y-23147D01*
X41782Y-23156D01*
X41751Y-23159D01*
X41721Y-23157D01*
X41691Y-23148D01*
X41663Y-23133D01*
X41639Y-23114D01*
X41618Y-23090D01*
X41603Y-23063D01*
X41594Y-23033D01*
X41591Y-23002D01*
X41593Y-22972D01*
X41602Y-22942D01*
X41616Y-22914D01*
X41635Y-22889D01*
X41659Y-22869D01*
X41686Y-22854D01*
X41716Y-22844D01*
X41747Y-22841D01*
X41777Y-22843D01*
X41807Y-22851D01*
X41835Y-22865D01*
X41860Y-22885D01*
X41880Y-22908D01*
X41896Y-22935D01*
X41906Y-22965D01*
X41909Y-22996D01*
X41910Y-23000D01*
X48910Y-23000D02*
X48906Y-23031D01*
X48897Y-23060D01*
X48883Y-23088D01*
X48863Y-23112D01*
X48839Y-23132D01*
X48812Y-23147D01*
X48782Y-23156D01*
X48751Y-23159D01*
X48721Y-23157D01*
X48691Y-23148D01*
X48663Y-23133D01*
X48639Y-23114D01*
X48618Y-23090D01*
X48603Y-23063D01*
X48594Y-23033D01*
X48591Y-23002D01*
X48593Y-22972D01*
X48602Y-22942D01*
X48616Y-22914D01*
X48635Y-22889D01*
X48659Y-22869D01*
X48686Y-22854D01*
X48716Y-22844D01*
X48747Y-22841D01*
X48777Y-22843D01*
X48807Y-22851D01*
X48835Y-22865D01*
X48860Y-22885D01*
X48880Y-22908D01*
X48896Y-22935D01*
X48906Y-22965D01*
X48909Y-22996D01*
X48910Y-23000D01*
X52660Y-23000D02*
X52656Y-23031D01*
X52647Y-23060D01*
X52633Y-23088D01*
X52613Y-23112D01*
X52589Y-23132D01*
X52562Y-23147D01*
X52532Y-23156D01*
X52501Y-23159D01*
X52471Y-23157D01*
X52441Y-23148D01*
X52413Y-23133D01*
X52389Y-23114D01*
X52368Y-23090D01*
X52353Y-23063D01*
X52344Y-23033D01*
X52341Y-23002D01*
X52343Y-22972D01*
X52352Y-22942D01*
X52366Y-22914D01*
X52385Y-22889D01*
X52409Y-22869D01*
X52436Y-22854D01*
X52466Y-22844D01*
X52497Y-22841D01*
X52527Y-22843D01*
X52557Y-22851D01*
X52585Y-22865D01*
X52610Y-22885D01*
X52630Y-22908D01*
X52646Y-22935D01*
X52656Y-22965D01*
X52659Y-22996D01*
X52660Y-23000D01*
X59660Y-23000D02*
X59656Y-23031D01*
X59647Y-23060D01*
X59633Y-23088D01*
X59613Y-23112D01*
X59589Y-23132D01*
X59562Y-23147D01*
X59532Y-23156D01*
X59501Y-23159D01*
X59471Y-23157D01*
X59441Y-23148D01*
X59413Y-23133D01*
X59389Y-23114D01*
X59368Y-23090D01*
X59353Y-23063D01*
X59344Y-23033D01*
X59341Y-23002D01*
X59343Y-22972D01*
X59352Y-22942D01*
X59366Y-22914D01*
X59385Y-22889D01*
X59409Y-22869D01*
X59436Y-22854D01*
X59466Y-22844D01*
X59497Y-22841D01*
X59527Y-22843D01*
X59557Y-22851D01*
X59585Y-22865D01*
X59610Y-22885D01*
X59630Y-22908D01*
X59646Y-22935D01*
X59656Y-22965D01*
X59659Y-22996D01*
X59660Y-23000D01*
X20500Y-25800D02*
X20500Y-26200D01*
X20700Y-26000D02*
X20300Y-26000D01*
X20500Y-33800D02*
X20500Y-34200D01*
X20700Y-34000D02*
X20300Y-34000D01*
X23500Y-33800D02*
X23500Y-34200D01*
X23700Y-34000D02*
X23300Y-34000D01*
X26500Y-25800D02*
X26500Y-26200D01*
X26700Y-26000D02*
X26300Y-26000D01*
X26500Y-33800D02*
X26500Y-34200D01*
X26700Y-34000D02*
X26300Y-34000D01*
X31500Y-25800D02*
X31500Y-26200D01*
X31700Y-26000D02*
X31300Y-26000D01*
X31500Y-33800D02*
X31500Y-34200D01*
X31700Y-34000D02*
X31300Y-34000D01*
X32750Y-39800D02*
X32750Y-40200D01*
X32950Y-40000D02*
X32550Y-40000D01*
X33750Y-39800D02*
X33750Y-40200D01*
X33950Y-40000D02*
X33550Y-40000D01*
X34500Y-33800D02*
X34500Y-34200D01*
X34700Y-34000D02*
X34300Y-34000D01*
X37500Y-25800D02*
X37500Y-26200D01*
X37700Y-26000D02*
X37300Y-26000D01*
X37500Y-33800D02*
X37500Y-34200D01*
X37700Y-34000D02*
X37300Y-34000D01*
X38500Y-39800D02*
X38500Y-40200D01*
X38700Y-40000D02*
X38300Y-40000D01*
X39500Y-39800D02*
X39500Y-40200D01*
X39700Y-40000D02*
X39300Y-40000D01*
X40500Y-39800D02*
X40500Y-40200D01*
X40700Y-40000D02*
X40300Y-40000D01*
X41500Y-39800D02*
X41500Y-40200D01*
X41700Y-40000D02*
X41300Y-40000D01*
X42500Y-25800D02*
X42500Y-26200D01*
X42700Y-26000D02*
X42300Y-26000D01*
X42500Y-33800D02*
X42500Y-34200D01*
X42700Y-34000D02*
X42300Y-34000D01*
X45500Y-33800D02*
X45500Y-34200D01*
X45700Y-34000D02*
X45300Y-34000D01*
X48500Y-25800D02*
X48500Y-26200D01*
X48700Y-26000D02*
X48300Y-26000D01*
X48500Y-33800D02*
X48500Y-34200D01*
X48700Y-34000D02*
X48300Y-34000D01*
X53500Y-25800D02*
X53500Y-26200D01*
X53700Y-26000D02*
X53300Y-26000D01*
X53500Y-33800D02*
X53500Y-34200D01*
X53700Y-34000D02*
X53300Y-34000D01*
X56500Y-33800D02*
X56500Y-34200D01*
X56700Y-34000D02*
X56300Y-34000D01*
X59500Y-25800D02*
X59500Y-26200D01*
X59700Y-26000D02*
X59300Y-26000D01*
X59500Y-33800D02*
X59500Y-34200D01*
X59700Y-34000D02*
X59300Y-34000D01*
X36050Y-20000D02*
X36044Y-20058D01*
X36027Y-20114D01*
X35999Y-20166D01*
X35962Y-20211D01*
X35917Y-20248D01*
X35866Y-20276D01*
X35810Y-20293D01*
X35752Y-20299D01*
X35694Y-20294D01*
X35638Y-20278D01*
X35586Y-20251D01*
X35541Y-20214D01*
X35503Y-20169D01*
X35475Y-20118D01*
X35457Y-20062D01*
X35451Y-20004D01*
X35455Y-19946D01*
X35472Y-19890D01*
X35498Y-19838D01*
X35535Y-19792D01*
X35579Y-19754D01*
X35630Y-19726D01*
X35686Y-19707D01*
X35744Y-19701D01*
X35802Y-19705D01*
X35858Y-19721D01*
X35910Y-19747D01*
X35956Y-19783D01*
X35995Y-19828D01*
X36024Y-19878D01*
X36042Y-19934D01*
X36049Y-19992D01*
X36050Y-20000D01*
X35450Y-19700D02*
X36050Y-20300D01*
X36050Y-19700D02*
X35450Y-20300D01*
X38050Y-20000D02*
X38044Y-20058D01*
X38027Y-20114D01*
X37999Y-20166D01*
X37962Y-20211D01*
X37917Y-20248D01*
X37866Y-20276D01*
X37810Y-20293D01*
X37752Y-20299D01*
X37694Y-20294D01*
X37638Y-20278D01*
X37586Y-20251D01*
X37541Y-20214D01*
X37503Y-20169D01*
X37475Y-20118D01*
X37457Y-20062D01*
X37451Y-20004D01*
X37455Y-19946D01*
X37472Y-19890D01*
X37498Y-19838D01*
X37535Y-19792D01*
X37579Y-19754D01*
X37630Y-19726D01*
X37686Y-19707D01*
X37744Y-19701D01*
X37802Y-19705D01*
X37858Y-19721D01*
X37910Y-19747D01*
X37956Y-19783D01*
X37995Y-19828D01*
X38024Y-19878D01*
X38042Y-19934D01*
X38049Y-19992D01*
X38050Y-20000D01*
X37450Y-19700D02*
X38050Y-20300D01*
X38050Y-19700D02*
X37450Y-20300D01*
X40050Y-20000D02*
X40044Y-20058D01*
X40027Y-20114D01*
X39999Y-20166D01*
X39962Y-20211D01*
X39917Y-20248D01*
X39866Y-20276D01*
X39810Y-20293D01*
X39752Y-20299D01*
X39694Y-20294D01*
X39638Y-20278D01*
X39586Y-20251D01*
X39541Y-20214D01*
X39503Y-20169D01*
X39475Y-20118D01*
X39457Y-20062D01*
X39451Y-20004D01*
X39455Y-19946D01*
X39472Y-19890D01*
X39498Y-19838D01*
X39535Y-19792D01*
X39579Y-19754D01*
X39630Y-19726D01*
X39686Y-19707D01*
X39744Y-19701D01*
X39802Y-19705D01*
X39858Y-19721D01*
X39910Y-19747D01*
X39956Y-19783D01*
X39995Y-19828D01*
X40024Y-19878D01*
X40042Y-19934D01*
X40049Y-19992D01*
X40050Y-20000D01*
X39450Y-19700D02*
X40050Y-20300D01*
X40050Y-19700D02*
X39450Y-20300D01*
X42050Y-20000D02*
X42044Y-20058D01*
X42027Y-20114D01*
X41999Y-20166D01*
X41962Y-20211D01*
X41917Y-20248D01*
X41866Y-20276D01*
X41810Y-20293D01*
X41752Y-20299D01*
X41694Y-20294D01*
X41638Y-20278D01*
X41586Y-20251D01*
X41541Y-20214D01*
X41503Y-20169D01*
X41475Y-20118D01*
X41457Y-20062D01*
X41451Y-20004D01*
X41455Y-19946D01*
X41472Y-19890D01*
X41498Y-19838D01*
X41535Y-19792D01*
X41579Y-19754D01*
X41630Y-19726D01*
X41686Y-19707D01*
X41744Y-19701D01*
X41802Y-19705D01*
X41858Y-19721D01*
X41910Y-19747D01*
X41956Y-19783D01*
X41995Y-19828D01*
X42024Y-19878D01*
X42042Y-19934D01*
X42049Y-19992D01*
X42050Y-20000D01*
X41450Y-19700D02*
X42050Y-20300D01*
X42050Y-19700D02*
X41450Y-20300D01*
X54800Y-20000D02*
X54794Y-20058D01*
X54777Y-20114D01*
X54749Y-20166D01*
X54712Y-20211D01*
X54667Y-20248D01*
X54616Y-20276D01*
X54560Y-20293D01*
X54502Y-20299D01*
X54444Y-20294D01*
X54388Y-20278D01*
X54336Y-20251D01*
X54291Y-20214D01*
X54253Y-20169D01*
X54225Y-20118D01*
X54207Y-20062D01*
X54201Y-20004D01*
X54205Y-19946D01*
X54222Y-19890D01*
X54248Y-19838D01*
X54285Y-19792D01*
X54329Y-19754D01*
X54380Y-19726D01*
X54436Y-19707D01*
X54494Y-19701D01*
X54552Y-19705D01*
X54608Y-19721D01*
X54660Y-19747D01*
X54706Y-19783D01*
X54745Y-19828D01*
X54774Y-19878D01*
X54792Y-19934D01*
X54799Y-19992D01*
X54800Y-20000D01*
X54200Y-19700D02*
X54800Y-20300D01*
X54800Y-19700D02*
X54200Y-20300D01*
X56800Y-20000D02*
X56794Y-20058D01*
X56777Y-20114D01*
X56749Y-20166D01*
X56712Y-20211D01*
X56667Y-20248D01*
X56616Y-20276D01*
X56560Y-20293D01*
X56502Y-20299D01*
X56444Y-20294D01*
X56388Y-20278D01*
X56336Y-20251D01*
X56291Y-20214D01*
X56253Y-20169D01*
X56225Y-20118D01*
X56207Y-20062D01*
X56201Y-20004D01*
X56205Y-19946D01*
X56222Y-19890D01*
X56248Y-19838D01*
X56285Y-19792D01*
X56329Y-19754D01*
X56380Y-19726D01*
X56436Y-19707D01*
X56494Y-19701D01*
X56552Y-19705D01*
X56608Y-19721D01*
X56660Y-19747D01*
X56706Y-19783D01*
X56745Y-19828D01*
X56774Y-19878D01*
X56792Y-19934D01*
X56799Y-19992D01*
X56800Y-20000D01*
X56200Y-19700D02*
X56800Y-20300D01*
X56800Y-19700D02*
X56200Y-20300D01*
G54D12*
X13342Y-43855D02*
X13342Y-43055D01*
X13533Y-43055D01*
X13647Y-43093D01*
X13723Y-43169D01*
X13762Y-43245D01*
X13800Y-43398D01*
X13800Y-43512D01*
X13762Y-43664D01*
X13723Y-43741D01*
X13647Y-43817D01*
X13533Y-43855D01*
X13342Y-43855D01*
X14142Y-43855D02*
X14142Y-43321D01*
X14142Y-43474D02*
X14181Y-43398D01*
X14219Y-43360D01*
X14295Y-43321D01*
X14371Y-43321D01*
X14637Y-43855D02*
X14637Y-43321D01*
X14637Y-43055D02*
X14599Y-43093D01*
X14637Y-43131D01*
X14676Y-43093D01*
X14637Y-43055D01*
X14637Y-43131D01*
X15133Y-43855D02*
X15057Y-43817D01*
X15018Y-43741D01*
X15018Y-43055D01*
X15552Y-43855D02*
X15476Y-43817D01*
X15437Y-43741D01*
X15437Y-43055D01*
X16466Y-43855D02*
X16466Y-43055D01*
X16733Y-43626D01*
X17000Y-43055D01*
X17000Y-43855D01*
X17723Y-43855D02*
X17723Y-43436D01*
X17685Y-43360D01*
X17609Y-43321D01*
X17457Y-43321D01*
X17380Y-43360D01*
X17723Y-43817D02*
X17647Y-43855D01*
X17457Y-43855D01*
X17380Y-43817D01*
X17342Y-43741D01*
X17342Y-43664D01*
X17380Y-43588D01*
X17457Y-43550D01*
X17647Y-43550D01*
X17723Y-43512D01*
X18104Y-43321D02*
X18104Y-44121D01*
X18104Y-43360D02*
X18181Y-43321D01*
X18333Y-43321D01*
X18409Y-43360D01*
X18447Y-43398D01*
X18485Y-43474D01*
X18485Y-43702D01*
X18447Y-43779D01*
X18409Y-43817D01*
X18333Y-43855D01*
X18181Y-43855D01*
X18104Y-43817D01*
X18828Y-43779D02*
X18867Y-43817D01*
X18828Y-43855D01*
X18790Y-43817D01*
X18828Y-43779D01*
X18828Y-43855D01*
X18828Y-43360D02*
X18867Y-43398D01*
X18828Y-43436D01*
X18790Y-43398D01*
X18828Y-43360D01*
X18828Y-43436D01*
X12702Y-45086D02*
X12952Y-45336D01*
X12952Y-45086D02*
X12702Y-45336D01*
X13495Y-44735D02*
X13571Y-44735D01*
X13647Y-44773D01*
X13685Y-44811D01*
X13723Y-44887D01*
X13762Y-45040D01*
X13762Y-45230D01*
X13723Y-45382D01*
X13685Y-45459D01*
X13647Y-45497D01*
X13571Y-45535D01*
X13495Y-45535D01*
X13419Y-45497D01*
X13381Y-45459D01*
X13342Y-45382D01*
X13304Y-45230D01*
X13304Y-45040D01*
X13342Y-44887D01*
X13381Y-44811D01*
X13419Y-44773D01*
X13495Y-44735D01*
X14104Y-45459D02*
X14143Y-45497D01*
X14104Y-45535D01*
X14066Y-45497D01*
X14104Y-45459D01*
X14104Y-45535D01*
X14828Y-44735D02*
X14676Y-44735D01*
X14600Y-44773D01*
X14562Y-44811D01*
X14485Y-44925D01*
X14447Y-45078D01*
X14447Y-45382D01*
X14485Y-45459D01*
X14524Y-45497D01*
X14600Y-45535D01*
X14752Y-45535D01*
X14828Y-45497D01*
X14866Y-45459D01*
X14905Y-45382D01*
X14905Y-45192D01*
X14866Y-45116D01*
X14828Y-45078D01*
X14752Y-45040D01*
X14600Y-45040D01*
X14524Y-45078D01*
X14485Y-45116D01*
X14447Y-45192D01*
X15590Y-45001D02*
X15590Y-45535D01*
X15400Y-44697D02*
X15209Y-45268D01*
X15705Y-45268D01*
X16009Y-45535D02*
X16009Y-45001D01*
X16009Y-45078D02*
X16048Y-45040D01*
X16124Y-45001D01*
X16238Y-45001D01*
X16314Y-45040D01*
X16352Y-45116D01*
X16352Y-45535D01*
X16352Y-45116D02*
X16390Y-45040D01*
X16467Y-45001D01*
X16581Y-45001D01*
X16657Y-45040D01*
X16695Y-45116D01*
X16695Y-45535D01*
X17076Y-45535D02*
X17076Y-45001D01*
X17076Y-45078D02*
X17115Y-45040D01*
X17191Y-45001D01*
X17305Y-45001D01*
X17381Y-45040D01*
X17419Y-45116D01*
X17419Y-45535D01*
X17419Y-45116D02*
X17457Y-45040D01*
X17534Y-45001D01*
X17648Y-45001D01*
X17724Y-45040D01*
X17762Y-45116D01*
X17762Y-45535D01*
X19325Y-44697D02*
X18639Y-45725D01*
X20354Y-44735D02*
X20430Y-44735D01*
X20506Y-44773D01*
X20544Y-44811D01*
X20582Y-44887D01*
X20621Y-45040D01*
X20621Y-45230D01*
X20582Y-45382D01*
X20544Y-45459D01*
X20506Y-45497D01*
X20430Y-45535D01*
X20354Y-45535D01*
X20278Y-45497D01*
X20240Y-45459D01*
X20201Y-45382D01*
X20163Y-45230D01*
X20163Y-45040D01*
X20201Y-44887D01*
X20240Y-44811D01*
X20278Y-44773D01*
X20354Y-44735D01*
X20963Y-45459D02*
X21002Y-45497D01*
X20963Y-45535D01*
X20925Y-45497D01*
X20963Y-45459D01*
X20963Y-45535D01*
X21497Y-44735D02*
X21573Y-44735D01*
X21649Y-44773D01*
X21687Y-44811D01*
X21725Y-44887D01*
X21764Y-45040D01*
X21764Y-45230D01*
X21725Y-45382D01*
X21687Y-45459D01*
X21649Y-45497D01*
X21573Y-45535D01*
X21497Y-45535D01*
X21421Y-45497D01*
X21383Y-45459D01*
X21344Y-45382D01*
X21306Y-45230D01*
X21306Y-45040D01*
X21344Y-44887D01*
X21383Y-44811D01*
X21421Y-44773D01*
X21497Y-44735D01*
X22068Y-44811D02*
X22106Y-44773D01*
X22183Y-44735D01*
X22373Y-44735D01*
X22449Y-44773D01*
X22487Y-44811D01*
X22526Y-44887D01*
X22526Y-44963D01*
X22487Y-45078D01*
X22030Y-45535D01*
X22526Y-45535D01*
X23249Y-44735D02*
X22868Y-44735D01*
X22830Y-45116D01*
X22868Y-45078D01*
X22945Y-45040D01*
X23135Y-45040D01*
X23211Y-45078D01*
X23249Y-45116D01*
X23288Y-45192D01*
X23288Y-45382D01*
X23249Y-45459D01*
X23211Y-45497D01*
X23135Y-45535D01*
X22945Y-45535D01*
X22868Y-45497D01*
X22830Y-45459D01*
X23592Y-44735D02*
X23592Y-44887D01*
X23897Y-44735D02*
X23897Y-44887D01*
X25079Y-45840D02*
X25041Y-45801D01*
X24965Y-45687D01*
X24927Y-45611D01*
X24889Y-45497D01*
X24850Y-45306D01*
X24850Y-45154D01*
X24889Y-44963D01*
X24927Y-44849D01*
X24965Y-44773D01*
X25041Y-44659D01*
X25079Y-44621D01*
X25726Y-45001D02*
X25726Y-45535D01*
X25536Y-44697D02*
X25345Y-45268D01*
X25841Y-45268D01*
X26755Y-45535D02*
X26755Y-44735D01*
X27098Y-45535D02*
X27098Y-45116D01*
X27060Y-45040D01*
X26984Y-45001D01*
X26870Y-45001D01*
X26794Y-45040D01*
X26755Y-45078D01*
X27594Y-45535D02*
X27518Y-45497D01*
X27479Y-45459D01*
X27441Y-45382D01*
X27441Y-45154D01*
X27479Y-45078D01*
X27518Y-45040D01*
X27594Y-45001D01*
X27708Y-45001D01*
X27784Y-45040D01*
X27822Y-45078D01*
X27860Y-45154D01*
X27860Y-45382D01*
X27822Y-45459D01*
X27784Y-45497D01*
X27708Y-45535D01*
X27594Y-45535D01*
X28318Y-45535D02*
X28242Y-45497D01*
X28203Y-45421D01*
X28203Y-44735D01*
X28927Y-45497D02*
X28851Y-45535D01*
X28699Y-45535D01*
X28622Y-45497D01*
X28584Y-45421D01*
X28584Y-45116D01*
X28622Y-45040D01*
X28699Y-45001D01*
X28851Y-45001D01*
X28927Y-45040D01*
X28965Y-45116D01*
X28965Y-45192D01*
X28584Y-45268D01*
X29270Y-45497D02*
X29347Y-45535D01*
X29499Y-45535D01*
X29575Y-45497D01*
X29613Y-45421D01*
X29613Y-45382D01*
X29575Y-45306D01*
X29499Y-45268D01*
X29385Y-45268D01*
X29308Y-45230D01*
X29270Y-45154D01*
X29270Y-45116D01*
X29308Y-45040D01*
X29385Y-45001D01*
X29499Y-45001D01*
X29575Y-45040D01*
X29880Y-45840D02*
X29918Y-45801D01*
X29995Y-45687D01*
X30033Y-45611D01*
X30071Y-45497D01*
X30109Y-45306D01*
X30109Y-45154D01*
X30071Y-44963D01*
X30033Y-44849D01*
X29995Y-44773D01*
X29918Y-44659D01*
X29880Y-44621D01*
G54D10*
X12952Y-46266D02*
X12948Y-46297D01*
X12939Y-46326D01*
X12925Y-46354D01*
X12905Y-46378D01*
X12881Y-46398D01*
X12854Y-46413D01*
X12824Y-46422D01*
X12793Y-46425D01*
X12763Y-46423D01*
X12733Y-46414D01*
X12705Y-46399D01*
X12681Y-46380D01*
X12660Y-46356D01*
X12645Y-46329D01*
X12636Y-46299D01*
X12633Y-46268D01*
X12635Y-46238D01*
X12644Y-46208D01*
X12658Y-46180D01*
X12677Y-46155D01*
X12701Y-46135D01*
X12728Y-46120D01*
X12758Y-46110D01*
X12789Y-46107D01*
X12819Y-46109D01*
X12849Y-46117D01*
X12877Y-46131D01*
X12902Y-46151D01*
X12922Y-46174D01*
X12938Y-46201D01*
X12948Y-46231D01*
X12951Y-46262D01*
X12952Y-46266D01*
G54D12*
X13495Y-45790D02*
X13571Y-45790D01*
X13647Y-45828D01*
X13685Y-45866D01*
X13723Y-45942D01*
X13762Y-46095D01*
X13762Y-46285D01*
X13723Y-46437D01*
X13685Y-46514D01*
X13647Y-46552D01*
X13571Y-46590D01*
X13495Y-46590D01*
X13419Y-46552D01*
X13381Y-46514D01*
X13342Y-46437D01*
X13304Y-46285D01*
X13304Y-46095D01*
X13342Y-45942D01*
X13381Y-45866D01*
X13419Y-45828D01*
X13495Y-45790D01*
X14104Y-46514D02*
X14143Y-46552D01*
X14104Y-46590D01*
X14066Y-46552D01*
X14104Y-46514D01*
X14104Y-46590D01*
X14600Y-46133D02*
X14524Y-46095D01*
X14485Y-46056D01*
X14447Y-45980D01*
X14447Y-45942D01*
X14485Y-45866D01*
X14524Y-45828D01*
X14600Y-45790D01*
X14752Y-45790D01*
X14828Y-45828D01*
X14866Y-45866D01*
X14905Y-45942D01*
X14905Y-45980D01*
X14866Y-46056D01*
X14828Y-46095D01*
X14752Y-46133D01*
X14600Y-46133D01*
X14524Y-46171D01*
X14485Y-46209D01*
X14447Y-46285D01*
X14447Y-46437D01*
X14485Y-46514D01*
X14524Y-46552D01*
X14600Y-46590D01*
X14752Y-46590D01*
X14828Y-46552D01*
X14866Y-46514D01*
X14905Y-46437D01*
X14905Y-46285D01*
X14866Y-46209D01*
X14828Y-46171D01*
X14752Y-46133D01*
X15667Y-46590D02*
X15209Y-46590D01*
X15438Y-46590D02*
X15438Y-45790D01*
X15362Y-45904D01*
X15286Y-45980D01*
X15209Y-46018D01*
X16009Y-46590D02*
X16009Y-46056D01*
X16009Y-46133D02*
X16048Y-46095D01*
X16124Y-46056D01*
X16238Y-46056D01*
X16314Y-46095D01*
X16352Y-46171D01*
X16352Y-46590D01*
X16352Y-46171D02*
X16390Y-46095D01*
X16467Y-46056D01*
X16581Y-46056D01*
X16657Y-46095D01*
X16695Y-46171D01*
X16695Y-46590D01*
X17076Y-46590D02*
X17076Y-46056D01*
X17076Y-46133D02*
X17115Y-46095D01*
X17191Y-46056D01*
X17305Y-46056D01*
X17381Y-46095D01*
X17419Y-46171D01*
X17419Y-46590D01*
X17419Y-46171D02*
X17457Y-46095D01*
X17534Y-46056D01*
X17648Y-46056D01*
X17724Y-46095D01*
X17762Y-46171D01*
X17762Y-46590D01*
X19325Y-45752D02*
X18639Y-46780D01*
X20354Y-45790D02*
X20430Y-45790D01*
X20506Y-45828D01*
X20544Y-45866D01*
X20582Y-45942D01*
X20621Y-46095D01*
X20621Y-46285D01*
X20582Y-46437D01*
X20544Y-46514D01*
X20506Y-46552D01*
X20430Y-46590D01*
X20354Y-46590D01*
X20278Y-46552D01*
X20240Y-46514D01*
X20201Y-46437D01*
X20163Y-46285D01*
X20163Y-46095D01*
X20201Y-45942D01*
X20240Y-45866D01*
X20278Y-45828D01*
X20354Y-45790D01*
X20963Y-46514D02*
X21002Y-46552D01*
X20963Y-46590D01*
X20925Y-46552D01*
X20963Y-46514D01*
X20963Y-46590D01*
X21497Y-45790D02*
X21573Y-45790D01*
X21649Y-45828D01*
X21687Y-45866D01*
X21725Y-45942D01*
X21764Y-46095D01*
X21764Y-46285D01*
X21725Y-46437D01*
X21687Y-46514D01*
X21649Y-46552D01*
X21573Y-46590D01*
X21497Y-46590D01*
X21421Y-46552D01*
X21383Y-46514D01*
X21344Y-46437D01*
X21306Y-46285D01*
X21306Y-46095D01*
X21344Y-45942D01*
X21383Y-45866D01*
X21421Y-45828D01*
X21497Y-45790D01*
X22030Y-45790D02*
X22526Y-45790D01*
X22259Y-46095D01*
X22373Y-46095D01*
X22449Y-46133D01*
X22487Y-46171D01*
X22526Y-46247D01*
X22526Y-46437D01*
X22487Y-46514D01*
X22449Y-46552D01*
X22373Y-46590D01*
X22145Y-46590D01*
X22068Y-46552D01*
X22030Y-46514D01*
X22830Y-45866D02*
X22868Y-45828D01*
X22945Y-45790D01*
X23135Y-45790D01*
X23211Y-45828D01*
X23249Y-45866D01*
X23288Y-45942D01*
X23288Y-46018D01*
X23249Y-46133D01*
X22792Y-46590D01*
X23288Y-46590D01*
X23592Y-45790D02*
X23592Y-45942D01*
X23897Y-45790D02*
X23897Y-45942D01*
X25079Y-46895D02*
X25041Y-46856D01*
X24965Y-46742D01*
X24927Y-46666D01*
X24889Y-46552D01*
X24850Y-46361D01*
X24850Y-46209D01*
X24889Y-46018D01*
X24927Y-45904D01*
X24965Y-45828D01*
X25041Y-45714D01*
X25079Y-45676D01*
X25498Y-46133D02*
X25422Y-46095D01*
X25383Y-46056D01*
X25345Y-45980D01*
X25345Y-45942D01*
X25383Y-45866D01*
X25422Y-45828D01*
X25498Y-45790D01*
X25650Y-45790D01*
X25726Y-45828D01*
X25764Y-45866D01*
X25803Y-45942D01*
X25803Y-45980D01*
X25764Y-46056D01*
X25726Y-46095D01*
X25650Y-46133D01*
X25498Y-46133D01*
X25422Y-46171D01*
X25383Y-46209D01*
X25345Y-46285D01*
X25345Y-46437D01*
X25383Y-46514D01*
X25422Y-46552D01*
X25498Y-46590D01*
X25650Y-46590D01*
X25726Y-46552D01*
X25764Y-46514D01*
X25803Y-46437D01*
X25803Y-46285D01*
X25764Y-46209D01*
X25726Y-46171D01*
X25650Y-46133D01*
X26755Y-46590D02*
X26755Y-45790D01*
X27098Y-46590D02*
X27098Y-46171D01*
X27060Y-46095D01*
X26984Y-46056D01*
X26870Y-46056D01*
X26794Y-46095D01*
X26755Y-46133D01*
X27594Y-46590D02*
X27518Y-46552D01*
X27479Y-46514D01*
X27441Y-46437D01*
X27441Y-46209D01*
X27479Y-46133D01*
X27518Y-46095D01*
X27594Y-46056D01*
X27708Y-46056D01*
X27784Y-46095D01*
X27822Y-46133D01*
X27860Y-46209D01*
X27860Y-46437D01*
X27822Y-46514D01*
X27784Y-46552D01*
X27708Y-46590D01*
X27594Y-46590D01*
X28318Y-46590D02*
X28242Y-46552D01*
X28203Y-46476D01*
X28203Y-45790D01*
X28927Y-46552D02*
X28851Y-46590D01*
X28699Y-46590D01*
X28622Y-46552D01*
X28584Y-46476D01*
X28584Y-46171D01*
X28622Y-46095D01*
X28699Y-46056D01*
X28851Y-46056D01*
X28927Y-46095D01*
X28965Y-46171D01*
X28965Y-46247D01*
X28584Y-46323D01*
X29270Y-46552D02*
X29347Y-46590D01*
X29499Y-46590D01*
X29575Y-46552D01*
X29613Y-46476D01*
X29613Y-46437D01*
X29575Y-46361D01*
X29499Y-46323D01*
X29385Y-46323D01*
X29308Y-46285D01*
X29270Y-46209D01*
X29270Y-46171D01*
X29308Y-46095D01*
X29385Y-46056D01*
X29499Y-46056D01*
X29575Y-46095D01*
X29880Y-46895D02*
X29918Y-46856D01*
X29995Y-46742D01*
X30033Y-46666D01*
X30071Y-46552D01*
X30109Y-46361D01*
X30109Y-46209D01*
X30071Y-46018D01*
X30033Y-45904D01*
X29995Y-45828D01*
X29918Y-45714D01*
X29880Y-45676D01*
X12752Y-47121D02*
X12752Y-47521D01*
X12952Y-47321D02*
X12552Y-47321D01*
X13762Y-47645D02*
X13304Y-47645D01*
X13533Y-47645D02*
X13533Y-46845D01*
X13457Y-46959D01*
X13381Y-47035D01*
X13304Y-47073D01*
X14104Y-47569D02*
X14143Y-47607D01*
X14104Y-47645D01*
X14066Y-47607D01*
X14104Y-47569D01*
X14104Y-47645D01*
X14638Y-46845D02*
X14714Y-46845D01*
X14790Y-46883D01*
X14828Y-46921D01*
X14866Y-46997D01*
X14905Y-47150D01*
X14905Y-47340D01*
X14866Y-47492D01*
X14828Y-47569D01*
X14790Y-47607D01*
X14714Y-47645D01*
X14638Y-47645D01*
X14562Y-47607D01*
X14524Y-47569D01*
X14485Y-47492D01*
X14447Y-47340D01*
X14447Y-47150D01*
X14485Y-46997D01*
X14524Y-46921D01*
X14562Y-46883D01*
X14638Y-46845D01*
X15209Y-46921D02*
X15247Y-46883D01*
X15324Y-46845D01*
X15514Y-46845D01*
X15590Y-46883D01*
X15628Y-46921D01*
X15667Y-46997D01*
X15667Y-47073D01*
X15628Y-47188D01*
X15171Y-47645D01*
X15667Y-47645D01*
X16009Y-47645D02*
X16009Y-47111D01*
X16009Y-47188D02*
X16048Y-47150D01*
X16124Y-47111D01*
X16238Y-47111D01*
X16314Y-47150D01*
X16352Y-47226D01*
X16352Y-47645D01*
X16352Y-47226D02*
X16390Y-47150D01*
X16467Y-47111D01*
X16581Y-47111D01*
X16657Y-47150D01*
X16695Y-47226D01*
X16695Y-47645D01*
X17076Y-47645D02*
X17076Y-47111D01*
X17076Y-47188D02*
X17115Y-47150D01*
X17191Y-47111D01*
X17305Y-47111D01*
X17381Y-47150D01*
X17419Y-47226D01*
X17419Y-47645D01*
X17419Y-47226D02*
X17457Y-47150D01*
X17534Y-47111D01*
X17648Y-47111D01*
X17724Y-47150D01*
X17762Y-47226D01*
X17762Y-47645D01*
X19325Y-46807D02*
X18639Y-47835D01*
X20354Y-46845D02*
X20430Y-46845D01*
X20506Y-46883D01*
X20544Y-46921D01*
X20582Y-46997D01*
X20621Y-47150D01*
X20621Y-47340D01*
X20582Y-47492D01*
X20544Y-47569D01*
X20506Y-47607D01*
X20430Y-47645D01*
X20354Y-47645D01*
X20278Y-47607D01*
X20240Y-47569D01*
X20201Y-47492D01*
X20163Y-47340D01*
X20163Y-47150D01*
X20201Y-46997D01*
X20240Y-46921D01*
X20278Y-46883D01*
X20354Y-46845D01*
X20963Y-47569D02*
X21002Y-47607D01*
X20963Y-47645D01*
X20925Y-47607D01*
X20963Y-47569D01*
X20963Y-47645D01*
X21497Y-46845D02*
X21573Y-46845D01*
X21649Y-46883D01*
X21687Y-46921D01*
X21725Y-46997D01*
X21764Y-47150D01*
X21764Y-47340D01*
X21725Y-47492D01*
X21687Y-47569D01*
X21649Y-47607D01*
X21573Y-47645D01*
X21497Y-47645D01*
X21421Y-47607D01*
X21383Y-47569D01*
X21344Y-47492D01*
X21306Y-47340D01*
X21306Y-47150D01*
X21344Y-46997D01*
X21383Y-46921D01*
X21421Y-46883D01*
X21497Y-46845D01*
X22449Y-47111D02*
X22449Y-47645D01*
X22259Y-46807D02*
X22068Y-47378D01*
X22564Y-47378D01*
X23021Y-46845D02*
X23097Y-46845D01*
X23173Y-46883D01*
X23211Y-46921D01*
X23249Y-46997D01*
X23288Y-47150D01*
X23288Y-47340D01*
X23249Y-47492D01*
X23211Y-47569D01*
X23173Y-47607D01*
X23097Y-47645D01*
X23021Y-47645D01*
X22945Y-47607D01*
X22907Y-47569D01*
X22868Y-47492D01*
X22830Y-47340D01*
X22830Y-47150D01*
X22868Y-46997D01*
X22907Y-46921D01*
X22945Y-46883D01*
X23021Y-46845D01*
X23592Y-46845D02*
X23592Y-46997D01*
X23897Y-46845D02*
X23897Y-46997D01*
X25079Y-47950D02*
X25041Y-47911D01*
X24965Y-47797D01*
X24927Y-47721D01*
X24889Y-47607D01*
X24850Y-47416D01*
X24850Y-47264D01*
X24889Y-47073D01*
X24927Y-46959D01*
X24965Y-46883D01*
X25041Y-46769D01*
X25079Y-46731D01*
X25345Y-46921D02*
X25383Y-46883D01*
X25460Y-46845D01*
X25650Y-46845D01*
X25726Y-46883D01*
X25764Y-46921D01*
X25803Y-46997D01*
X25803Y-47073D01*
X25764Y-47188D01*
X25307Y-47645D01*
X25803Y-47645D01*
X26488Y-46845D02*
X26336Y-46845D01*
X26260Y-46883D01*
X26222Y-46921D01*
X26145Y-47035D01*
X26107Y-47188D01*
X26107Y-47492D01*
X26145Y-47569D01*
X26184Y-47607D01*
X26260Y-47645D01*
X26412Y-47645D01*
X26488Y-47607D01*
X26526Y-47569D01*
X26565Y-47492D01*
X26565Y-47302D01*
X26526Y-47226D01*
X26488Y-47188D01*
X26412Y-47150D01*
X26260Y-47150D01*
X26184Y-47188D01*
X26145Y-47226D01*
X26107Y-47302D01*
X27517Y-47645D02*
X27517Y-46845D01*
X27860Y-47645D02*
X27860Y-47226D01*
X27822Y-47150D01*
X27746Y-47111D01*
X27632Y-47111D01*
X27556Y-47150D01*
X27517Y-47188D01*
X28356Y-47645D02*
X28280Y-47607D01*
X28241Y-47569D01*
X28203Y-47492D01*
X28203Y-47264D01*
X28241Y-47188D01*
X28280Y-47150D01*
X28356Y-47111D01*
X28470Y-47111D01*
X28546Y-47150D01*
X28584Y-47188D01*
X28622Y-47264D01*
X28622Y-47492D01*
X28584Y-47569D01*
X28546Y-47607D01*
X28470Y-47645D01*
X28356Y-47645D01*
X29080Y-47645D02*
X29004Y-47607D01*
X28965Y-47531D01*
X28965Y-46845D01*
X29689Y-47607D02*
X29613Y-47645D01*
X29461Y-47645D01*
X29384Y-47607D01*
X29346Y-47531D01*
X29346Y-47226D01*
X29384Y-47150D01*
X29461Y-47111D01*
X29613Y-47111D01*
X29689Y-47150D01*
X29727Y-47226D01*
X29727Y-47302D01*
X29346Y-47378D01*
X30032Y-47607D02*
X30109Y-47645D01*
X30261Y-47645D01*
X30337Y-47607D01*
X30375Y-47531D01*
X30375Y-47492D01*
X30337Y-47416D01*
X30261Y-47378D01*
X30147Y-47378D01*
X30070Y-47340D01*
X30032Y-47264D01*
X30032Y-47226D01*
X30070Y-47150D01*
X30147Y-47111D01*
X30261Y-47111D01*
X30337Y-47150D01*
X30642Y-47950D02*
X30680Y-47911D01*
X30757Y-47797D01*
X30795Y-47721D01*
X30833Y-47607D01*
X30871Y-47416D01*
X30871Y-47264D01*
X30833Y-47073D01*
X30795Y-46959D01*
X30757Y-46883D01*
X30680Y-46769D01*
X30642Y-46731D01*
G54D10*
X12952Y-48376D02*
X12946Y-48434D01*
X12929Y-48490D01*
X12901Y-48542D01*
X12864Y-48587D01*
X12819Y-48624D01*
X12768Y-48652D01*
X12712Y-48669D01*
X12654Y-48675D01*
X12596Y-48670D01*
X12540Y-48654D01*
X12488Y-48627D01*
X12443Y-48590D01*
X12405Y-48545D01*
X12377Y-48494D01*
X12359Y-48438D01*
X12353Y-48380D01*
X12357Y-48322D01*
X12374Y-48266D01*
X12400Y-48214D01*
X12437Y-48168D01*
X12481Y-48130D01*
X12532Y-48102D01*
X12588Y-48083D01*
X12646Y-48077D01*
X12704Y-48081D01*
X12760Y-48097D01*
X12812Y-48123D01*
X12858Y-48159D01*
X12897Y-48204D01*
X12926Y-48254D01*
X12944Y-48310D01*
X12951Y-48368D01*
X12952Y-48376D01*
X12352Y-48076D02*
X12952Y-48676D01*
X12952Y-48076D02*
X12352Y-48676D01*
G54D12*
X13762Y-48700D02*
X13304Y-48700D01*
X13533Y-48700D02*
X13533Y-47900D01*
X13457Y-48014D01*
X13381Y-48090D01*
X13304Y-48128D01*
X14104Y-48624D02*
X14143Y-48662D01*
X14104Y-48700D01*
X14066Y-48662D01*
X14104Y-48624D01*
X14104Y-48700D01*
X14866Y-47900D02*
X14485Y-47900D01*
X14447Y-48281D01*
X14485Y-48243D01*
X14562Y-48205D01*
X14752Y-48205D01*
X14828Y-48243D01*
X14866Y-48281D01*
X14905Y-48357D01*
X14905Y-48547D01*
X14866Y-48624D01*
X14828Y-48662D01*
X14752Y-48700D01*
X14562Y-48700D01*
X14485Y-48662D01*
X14447Y-48624D01*
X15209Y-47976D02*
X15247Y-47938D01*
X15324Y-47900D01*
X15514Y-47900D01*
X15590Y-47938D01*
X15628Y-47976D01*
X15667Y-48052D01*
X15667Y-48128D01*
X15628Y-48243D01*
X15171Y-48700D01*
X15667Y-48700D01*
X16009Y-48700D02*
X16009Y-48166D01*
X16009Y-48243D02*
X16048Y-48205D01*
X16124Y-48166D01*
X16238Y-48166D01*
X16314Y-48205D01*
X16352Y-48281D01*
X16352Y-48700D01*
X16352Y-48281D02*
X16390Y-48205D01*
X16467Y-48166D01*
X16581Y-48166D01*
X16657Y-48205D01*
X16695Y-48281D01*
X16695Y-48700D01*
X17076Y-48700D02*
X17076Y-48166D01*
X17076Y-48243D02*
X17115Y-48205D01*
X17191Y-48166D01*
X17305Y-48166D01*
X17381Y-48205D01*
X17419Y-48281D01*
X17419Y-48700D01*
X17419Y-48281D02*
X17457Y-48205D01*
X17534Y-48166D01*
X17648Y-48166D01*
X17724Y-48205D01*
X17762Y-48281D01*
X17762Y-48700D01*
X19325Y-47862D02*
X18639Y-48890D01*
X20354Y-47900D02*
X20430Y-47900D01*
X20506Y-47938D01*
X20544Y-47976D01*
X20582Y-48052D01*
X20621Y-48205D01*
X20621Y-48395D01*
X20582Y-48547D01*
X20544Y-48624D01*
X20506Y-48662D01*
X20430Y-48700D01*
X20354Y-48700D01*
X20278Y-48662D01*
X20240Y-48624D01*
X20201Y-48547D01*
X20163Y-48395D01*
X20163Y-48205D01*
X20201Y-48052D01*
X20240Y-47976D01*
X20278Y-47938D01*
X20354Y-47900D01*
X20963Y-48624D02*
X21002Y-48662D01*
X20963Y-48700D01*
X20925Y-48662D01*
X20963Y-48624D01*
X20963Y-48700D01*
X21497Y-47900D02*
X21573Y-47900D01*
X21649Y-47938D01*
X21687Y-47976D01*
X21725Y-48052D01*
X21764Y-48205D01*
X21764Y-48395D01*
X21725Y-48547D01*
X21687Y-48624D01*
X21649Y-48662D01*
X21573Y-48700D01*
X21497Y-48700D01*
X21421Y-48662D01*
X21383Y-48624D01*
X21344Y-48547D01*
X21306Y-48395D01*
X21306Y-48205D01*
X21344Y-48052D01*
X21383Y-47976D01*
X21421Y-47938D01*
X21497Y-47900D01*
X22449Y-47900D02*
X22297Y-47900D01*
X22221Y-47938D01*
X22183Y-47976D01*
X22106Y-48090D01*
X22068Y-48243D01*
X22068Y-48547D01*
X22106Y-48624D01*
X22145Y-48662D01*
X22221Y-48700D01*
X22373Y-48700D01*
X22449Y-48662D01*
X22487Y-48624D01*
X22526Y-48547D01*
X22526Y-48357D01*
X22487Y-48281D01*
X22449Y-48243D01*
X22373Y-48205D01*
X22221Y-48205D01*
X22145Y-48243D01*
X22106Y-48281D01*
X22068Y-48357D01*
X23021Y-47900D02*
X23097Y-47900D01*
X23173Y-47938D01*
X23211Y-47976D01*
X23249Y-48052D01*
X23288Y-48205D01*
X23288Y-48395D01*
X23249Y-48547D01*
X23211Y-48624D01*
X23173Y-48662D01*
X23097Y-48700D01*
X23021Y-48700D01*
X22945Y-48662D01*
X22907Y-48624D01*
X22868Y-48547D01*
X22830Y-48395D01*
X22830Y-48205D01*
X22868Y-48052D01*
X22907Y-47976D01*
X22945Y-47938D01*
X23021Y-47900D01*
X23592Y-47900D02*
X23592Y-48052D01*
X23897Y-47900D02*
X23897Y-48052D01*
X25079Y-49005D02*
X25041Y-48966D01*
X24965Y-48852D01*
X24927Y-48776D01*
X24889Y-48662D01*
X24850Y-48471D01*
X24850Y-48319D01*
X24889Y-48128D01*
X24927Y-48014D01*
X24965Y-47938D01*
X25041Y-47824D01*
X25079Y-47786D01*
X25726Y-47900D02*
X25574Y-47900D01*
X25498Y-47938D01*
X25460Y-47976D01*
X25383Y-48090D01*
X25345Y-48243D01*
X25345Y-48547D01*
X25383Y-48624D01*
X25422Y-48662D01*
X25498Y-48700D01*
X25650Y-48700D01*
X25726Y-48662D01*
X25764Y-48624D01*
X25803Y-48547D01*
X25803Y-48357D01*
X25764Y-48281D01*
X25726Y-48243D01*
X25650Y-48205D01*
X25498Y-48205D01*
X25422Y-48243D01*
X25383Y-48281D01*
X25345Y-48357D01*
X26755Y-48700D02*
X26755Y-47900D01*
X27098Y-48700D02*
X27098Y-48281D01*
X27060Y-48205D01*
X26984Y-48166D01*
X26870Y-48166D01*
X26794Y-48205D01*
X26755Y-48243D01*
X27594Y-48700D02*
X27518Y-48662D01*
X27479Y-48624D01*
X27441Y-48547D01*
X27441Y-48319D01*
X27479Y-48243D01*
X27518Y-48205D01*
X27594Y-48166D01*
X27708Y-48166D01*
X27784Y-48205D01*
X27822Y-48243D01*
X27860Y-48319D01*
X27860Y-48547D01*
X27822Y-48624D01*
X27784Y-48662D01*
X27708Y-48700D01*
X27594Y-48700D01*
X28318Y-48700D02*
X28242Y-48662D01*
X28203Y-48586D01*
X28203Y-47900D01*
X28927Y-48662D02*
X28851Y-48700D01*
X28699Y-48700D01*
X28622Y-48662D01*
X28584Y-48586D01*
X28584Y-48281D01*
X28622Y-48205D01*
X28699Y-48166D01*
X28851Y-48166D01*
X28927Y-48205D01*
X28965Y-48281D01*
X28965Y-48357D01*
X28584Y-48433D01*
X29270Y-48662D02*
X29347Y-48700D01*
X29499Y-48700D01*
X29575Y-48662D01*
X29613Y-48586D01*
X29613Y-48547D01*
X29575Y-48471D01*
X29499Y-48433D01*
X29385Y-48433D01*
X29308Y-48395D01*
X29270Y-48319D01*
X29270Y-48281D01*
X29308Y-48205D01*
X29385Y-48166D01*
X29499Y-48166D01*
X29575Y-48205D01*
X29880Y-49005D02*
X29918Y-48966D01*
X29995Y-48852D01*
X30033Y-48776D01*
X30071Y-48662D01*
X30109Y-48471D01*
X30109Y-48319D01*
X30071Y-48128D01*
X30033Y-48014D01*
X29995Y-47938D01*
X29918Y-47824D01*
X29880Y-47786D01*
M02*
