M48
;DRILL file {Pcbnew (2012-01-19 BZR 3256)-stable} date 19/03/2013 14:43:24
;FORMAT={-:-/ absolute / metric / decimal}
FMAT,2
METRIC,TZ
T1C0.635
T2C0.813
T3C1.016
T4C1.524
%
G90
G05
M71
T1
X68.580Y99.060
X68.580Y104.140
X77.470Y100.330
X77.470Y102.870
T2
X49.530Y58.420
X67.310Y58.420
X78.105Y58.420
X95.885Y58.420
X106.045Y58.420
X123.825Y58.420
X133.350Y58.420
X151.130Y58.420
T3
X52.070Y66.040
X52.070Y86.360
X59.690Y86.360
X67.310Y66.040
X67.310Y86.360
X80.010Y66.040
X80.010Y86.360
X83.185Y101.600
X85.725Y101.600
X87.630Y86.360
X95.250Y66.040
X95.250Y86.360
X97.790Y101.600
X100.330Y101.600
X102.870Y101.600
X105.410Y101.600
X107.950Y66.040
X107.950Y86.360
X115.570Y86.360
X123.190Y66.040
X123.190Y86.360
X135.890Y66.040
X135.890Y86.360
X143.510Y86.360
X151.130Y66.040
X151.130Y86.360
T4
X90.805Y50.800
X95.885Y50.800
X100.965Y50.800
X106.045Y50.800
X138.430Y50.800
X143.510Y50.800
T0
M30
