M48
;DRILL file {Pcbnew (2012-01-19 BZR 3256)-stable} date 19/03/2013 15:26:13
;FORMAT={-:-/ absolute / inch / decimal}
FMAT,2
INCH,TZ
T1C0.025
T2C0.032
T3C0.032
T4C0.040
T5C0.060
T6C0.118
%
G90
G05
M72
T1
X2.250Y2.700
X2.725Y2.900
X2.725Y3.100
X2.725Y4.350
X2.750Y2.725
X2.825Y4.150
X2.950Y2.725
X2.975Y4.750
X3.625Y4.625
X3.650Y2.350
X3.725Y3.250
X3.750Y4.525
X4.000Y2.725
X4.050Y2.900
X4.100Y4.175
X4.325Y2.800
X4.525Y2.725
X4.525Y3.725
X4.650Y5.100
X4.700Y3.200
X4.950Y2.825
X5.025Y5.100
X5.100Y2.600
X5.175Y2.925
X5.200Y2.575
X5.300Y4.875
X5.400Y4.450
X5.400Y4.750
X5.475Y4.275
X5.575Y4.300
X5.600Y2.625
X5.600Y4.000
X5.775Y3.050
X5.825Y4.175
X5.875Y2.925
X5.875Y3.600
X6.000Y2.750
X6.375Y3.900
X6.375Y4.200
T2
X5.650Y4.750
T3
X2.300Y2.525
X2.600Y2.525
X2.750Y2.400
X2.750Y2.525
X2.850Y2.400
X2.950Y2.900
X2.950Y3.000
X3.050Y2.525
X3.075Y2.675
X3.125Y2.900
X3.125Y3.000
X3.200Y3.250
X3.200Y3.500
X3.200Y3.625
X3.200Y3.750
X3.200Y3.925
X3.200Y4.025
X3.200Y4.125
X3.200Y4.225
X3.200Y4.325
X3.200Y4.425
X3.200Y4.525
X3.200Y4.625
X3.275Y2.800
X3.275Y3.100
X3.300Y2.400
X3.375Y2.675
X3.375Y2.800
X3.375Y3.100
X3.400Y2.400
X3.475Y2.600
X3.475Y2.800
X3.475Y3.100
X3.500Y3.250
X3.500Y3.500
X3.500Y3.625
X3.500Y3.750
X3.500Y3.925
X3.500Y4.025
X3.500Y4.125
X3.500Y4.225
X3.500Y4.325
X3.500Y4.425
X3.500Y4.525
X3.500Y4.625
X3.575Y2.600
X3.575Y2.800
X3.575Y3.100
X3.700Y2.650
X3.700Y2.850
X3.725Y3.725
X3.725Y3.875
X3.725Y3.975
X3.775Y3.475
X3.775Y3.575
X3.825Y3.725
X3.875Y4.600
X3.875Y4.725
X3.875Y4.850
X3.900Y3.875
X3.900Y3.975
X3.975Y3.075
X3.975Y3.175
X3.975Y3.275
X3.975Y3.375
X3.975Y3.475
X3.975Y3.575
X3.975Y3.675
X4.175Y4.600
X4.175Y4.725
X4.175Y4.850
X4.275Y3.075
X4.275Y3.175
X4.275Y3.275
X4.275Y3.375
X4.275Y3.475
X4.275Y3.575
X4.275Y3.675
X4.350Y4.225
X4.350Y4.325
X4.525Y4.225
X4.525Y4.325
X4.600Y3.325
X4.600Y3.425
X4.700Y4.125
X4.700Y4.425
X4.775Y3.700
X4.775Y3.800
X4.800Y4.125
X4.800Y4.425
X4.900Y3.200
X4.900Y4.125
X4.900Y4.425
X5.000Y3.200
X5.000Y3.700
X5.000Y3.800
X5.000Y4.125
X5.000Y4.425
X5.100Y4.125
X5.100Y4.425
X5.200Y4.125
X5.200Y4.425
X5.300Y4.125
X5.300Y4.425
X5.400Y2.875
X5.500Y2.775
X5.600Y2.450
X5.700Y2.550
X5.700Y2.875
X5.800Y2.650
X5.800Y2.775
X5.900Y2.450
X6.000Y2.550
X6.100Y2.650
T4
X2.400Y3.300
X2.400Y3.400
X2.400Y3.500
X2.400Y3.600
X2.400Y3.700
X2.400Y3.800
X2.400Y3.900
X2.400Y4.000
X2.500Y2.200
X2.500Y3.300
X2.500Y3.400
X2.500Y3.500
X2.500Y3.600
X2.500Y3.700
X2.500Y3.800
X2.500Y3.900
X2.500Y4.000
X2.600Y2.200
X2.750Y2.200
X2.850Y2.200
X2.975Y4.325
X2.975Y4.425
X2.975Y4.525
X2.975Y4.625
X3.050Y2.200
X3.150Y2.200
X3.175Y5.025
X3.275Y5.025
X3.300Y2.200
X3.375Y5.025
X3.400Y2.200
X3.475Y5.025
X3.575Y5.025
X3.675Y5.025
X3.775Y5.025
X3.875Y5.025
X3.975Y2.200
X4.075Y2.200
X4.225Y2.200
X4.325Y2.200
X4.450Y5.050
X4.475Y2.200
X4.550Y5.050
X4.575Y2.200
X4.725Y2.200
X4.825Y2.200
X4.825Y5.050
X4.925Y5.050
X5.000Y2.200
X5.100Y2.200
X5.200Y5.050
X5.300Y2.200
X5.300Y5.050
X5.400Y2.200
X5.500Y2.200
X5.600Y2.200
X5.650Y4.450
X5.650Y4.550
X5.650Y4.650
X5.800Y2.200
X5.900Y2.200
X6.000Y2.200
X6.100Y2.200
X6.100Y3.300
X6.100Y3.400
X6.100Y3.500
X6.100Y3.600
X6.100Y3.700
X6.100Y3.800
X6.100Y3.900
X6.100Y4.000
X6.200Y3.300
X6.200Y3.400
X6.200Y3.500
X6.200Y3.600
X6.200Y3.700
X6.200Y3.800
X6.200Y3.900
X6.200Y4.000
X6.400Y2.550
X6.400Y2.650
X6.400Y4.425
X6.500Y4.425
T5
X3.975Y2.450
X3.975Y2.550
X4.075Y2.450
X4.225Y2.650
X4.225Y2.750
X4.325Y2.650
X4.350Y4.750
X4.350Y4.850
X4.450Y4.750
X4.475Y2.450
X4.475Y2.550
X4.575Y2.450
X4.725Y2.650
X4.725Y2.750
X4.725Y4.750
X4.725Y4.850
X4.825Y2.650
X4.825Y4.750
X4.900Y3.325
X4.900Y3.425
X4.900Y3.525
X5.000Y2.450
X5.000Y2.550
X5.100Y2.450
X5.100Y4.750
X5.100Y4.850
X5.200Y4.750
T6
X2.250Y2.250
X2.250Y5.000
X2.450Y2.950
X2.450Y4.350
X5.500Y5.000
X5.550Y3.425
X6.150Y2.950
X6.150Y4.350
X6.350Y2.250
T0
M30
