G04 (created by PCBNEW (2012-01-19 BZR 3256)-stable) date 19/03/2013 15:26:14*
G01*
G70*
G90*
%MOIN*%
G04 Gerber Fmt 3.4, Leading zero omitted, Abs format*
%FSLAX34Y34*%
G04 APERTURE LIST*
%ADD10C,0.001000*%
%ADD11C,0.015000*%
%ADD12C,0.008000*%
G04 APERTURE END LIST*
G54D10*
G54D11*
X58500Y-52500D02*
X21500Y-52500D01*
X66000Y-21500D02*
X66000Y-46000D01*
X58500Y-46000D02*
X66000Y-46000D01*
X58500Y-52500D02*
X58500Y-46000D01*
X20000Y-51000D02*
X21500Y-52500D01*
X20000Y-21500D02*
X20000Y-51000D01*
X21500Y-20000D02*
X20000Y-21500D01*
X64500Y-20000D02*
X21500Y-20000D01*
X66000Y-21500D02*
X64500Y-20000D01*
G54D10*
X22375Y-26875D02*
X22625Y-27125D01*
X22625Y-26875D02*
X22375Y-27125D01*
X27125Y-28875D02*
X27375Y-29125D01*
X27375Y-28875D02*
X27125Y-29125D01*
X27125Y-30875D02*
X27375Y-31125D01*
X27375Y-30875D02*
X27125Y-31125D01*
X27125Y-43375D02*
X27375Y-43625D01*
X27375Y-43375D02*
X27125Y-43625D01*
X27375Y-27125D02*
X27625Y-27375D01*
X27625Y-27125D02*
X27375Y-27375D01*
X28125Y-41375D02*
X28375Y-41625D01*
X28375Y-41375D02*
X28125Y-41625D01*
X29375Y-27125D02*
X29625Y-27375D01*
X29625Y-27125D02*
X29375Y-27375D01*
X29625Y-47375D02*
X29875Y-47625D01*
X29875Y-47375D02*
X29625Y-47625D01*
X36125Y-46125D02*
X36375Y-46375D01*
X36375Y-46125D02*
X36125Y-46375D01*
X36375Y-23375D02*
X36625Y-23625D01*
X36625Y-23375D02*
X36375Y-23625D01*
X37125Y-32375D02*
X37375Y-32625D01*
X37375Y-32375D02*
X37125Y-32625D01*
X37375Y-45125D02*
X37625Y-45375D01*
X37625Y-45125D02*
X37375Y-45375D01*
X39875Y-27125D02*
X40125Y-27375D01*
X40125Y-27125D02*
X39875Y-27375D01*
X40375Y-28875D02*
X40625Y-29125D01*
X40625Y-28875D02*
X40375Y-29125D01*
X40875Y-41625D02*
X41125Y-41875D01*
X41125Y-41625D02*
X40875Y-41875D01*
X43125Y-27875D02*
X43375Y-28125D01*
X43375Y-27875D02*
X43125Y-28125D01*
X45125Y-27125D02*
X45375Y-27375D01*
X45375Y-27125D02*
X45125Y-27375D01*
X45125Y-37125D02*
X45375Y-37375D01*
X45375Y-37125D02*
X45125Y-37375D01*
X46375Y-50875D02*
X46625Y-51125D01*
X46625Y-50875D02*
X46375Y-51125D01*
X46875Y-31875D02*
X47125Y-32125D01*
X47125Y-31875D02*
X46875Y-32125D01*
X49375Y-28125D02*
X49625Y-28375D01*
X49625Y-28125D02*
X49375Y-28375D01*
X50125Y-50875D02*
X50375Y-51125D01*
X50375Y-50875D02*
X50125Y-51125D01*
X50875Y-25875D02*
X51125Y-26125D01*
X51125Y-25875D02*
X50875Y-26125D01*
X51625Y-29125D02*
X51875Y-29375D01*
X51875Y-29125D02*
X51625Y-29375D01*
X51875Y-25625D02*
X52125Y-25875D01*
X52125Y-25625D02*
X51875Y-25875D01*
X52875Y-48625D02*
X53125Y-48875D01*
X53125Y-48625D02*
X52875Y-48875D01*
X53875Y-44375D02*
X54125Y-44625D01*
X54125Y-44375D02*
X53875Y-44625D01*
X53875Y-47375D02*
X54125Y-47625D01*
X54125Y-47375D02*
X53875Y-47625D01*
X54625Y-42625D02*
X54875Y-42875D01*
X54875Y-42625D02*
X54625Y-42875D01*
X55625Y-42875D02*
X55875Y-43125D01*
X55875Y-42875D02*
X55625Y-43125D01*
X55875Y-26125D02*
X56125Y-26375D01*
X56125Y-26125D02*
X55875Y-26375D01*
X55875Y-39875D02*
X56125Y-40125D01*
X56125Y-39875D02*
X55875Y-40125D01*
X57625Y-30375D02*
X57875Y-30625D01*
X57875Y-30375D02*
X57625Y-30625D01*
X58125Y-41625D02*
X58375Y-41875D01*
X58375Y-41625D02*
X58125Y-41875D01*
X58625Y-29125D02*
X58875Y-29375D01*
X58875Y-29125D02*
X58625Y-29375D01*
X58625Y-35875D02*
X58875Y-36125D01*
X58875Y-35875D02*
X58625Y-36125D01*
X59875Y-27375D02*
X60125Y-27625D01*
X60125Y-27375D02*
X59875Y-27625D01*
X63625Y-38875D02*
X63875Y-39125D01*
X63875Y-38875D02*
X63625Y-39125D01*
X63625Y-41875D02*
X63875Y-42125D01*
X63875Y-41875D02*
X63625Y-42125D01*
X56657Y-47500D02*
X56654Y-47530D01*
X56645Y-47559D01*
X56630Y-47586D01*
X56611Y-47610D01*
X56587Y-47630D01*
X56560Y-47644D01*
X56531Y-47653D01*
X56501Y-47656D01*
X56471Y-47654D01*
X56442Y-47645D01*
X56415Y-47631D01*
X56391Y-47612D01*
X56371Y-47588D01*
X56356Y-47561D01*
X56347Y-47532D01*
X56344Y-47502D01*
X56346Y-47472D01*
X56355Y-47443D01*
X56369Y-47415D01*
X56388Y-47391D01*
X56411Y-47372D01*
X56438Y-47357D01*
X56467Y-47347D01*
X56497Y-47344D01*
X56527Y-47346D01*
X56556Y-47354D01*
X56584Y-47368D01*
X56608Y-47387D01*
X56628Y-47410D01*
X56643Y-47437D01*
X56653Y-47466D01*
X56656Y-47496D01*
X56657Y-47500D01*
X23000Y-25090D02*
X23000Y-25410D01*
X23160Y-25250D02*
X22840Y-25250D01*
X26000Y-25090D02*
X26000Y-25410D01*
X26160Y-25250D02*
X25840Y-25250D01*
X27500Y-23840D02*
X27500Y-24160D01*
X27660Y-24000D02*
X27340Y-24000D01*
X27500Y-25090D02*
X27500Y-25410D01*
X27660Y-25250D02*
X27340Y-25250D01*
X28500Y-23840D02*
X28500Y-24160D01*
X28660Y-24000D02*
X28340Y-24000D01*
X29500Y-28840D02*
X29500Y-29160D01*
X29660Y-29000D02*
X29340Y-29000D01*
X29500Y-29840D02*
X29500Y-30160D01*
X29660Y-30000D02*
X29340Y-30000D01*
X30500Y-25090D02*
X30500Y-25410D01*
X30660Y-25250D02*
X30340Y-25250D01*
X30750Y-26590D02*
X30750Y-26910D01*
X30910Y-26750D02*
X30590Y-26750D01*
X31250Y-28840D02*
X31250Y-29160D01*
X31410Y-29000D02*
X31090Y-29000D01*
X31250Y-29840D02*
X31250Y-30160D01*
X31410Y-30000D02*
X31090Y-30000D01*
X32000Y-32340D02*
X32000Y-32660D01*
X32160Y-32500D02*
X31840Y-32500D01*
X32000Y-34840D02*
X32000Y-35160D01*
X32160Y-35000D02*
X31840Y-35000D01*
X32000Y-36090D02*
X32000Y-36410D01*
X32160Y-36250D02*
X31840Y-36250D01*
X32000Y-37340D02*
X32000Y-37660D01*
X32160Y-37500D02*
X31840Y-37500D01*
X32000Y-39090D02*
X32000Y-39410D01*
X32160Y-39250D02*
X31840Y-39250D01*
X32000Y-40090D02*
X32000Y-40410D01*
X32160Y-40250D02*
X31840Y-40250D01*
X32000Y-41090D02*
X32000Y-41410D01*
X32160Y-41250D02*
X31840Y-41250D01*
X32000Y-42090D02*
X32000Y-42410D01*
X32160Y-42250D02*
X31840Y-42250D01*
X32000Y-43090D02*
X32000Y-43410D01*
X32160Y-43250D02*
X31840Y-43250D01*
X32000Y-44090D02*
X32000Y-44410D01*
X32160Y-44250D02*
X31840Y-44250D01*
X32000Y-45090D02*
X32000Y-45410D01*
X32160Y-45250D02*
X31840Y-45250D01*
X32000Y-46090D02*
X32000Y-46410D01*
X32160Y-46250D02*
X31840Y-46250D01*
X32750Y-27840D02*
X32750Y-28160D01*
X32910Y-28000D02*
X32590Y-28000D01*
X32750Y-30840D02*
X32750Y-31160D01*
X32910Y-31000D02*
X32590Y-31000D01*
X33000Y-23840D02*
X33000Y-24160D01*
X33160Y-24000D02*
X32840Y-24000D01*
X33750Y-26590D02*
X33750Y-26910D01*
X33910Y-26750D02*
X33590Y-26750D01*
X33750Y-27840D02*
X33750Y-28160D01*
X33910Y-28000D02*
X33590Y-28000D01*
X33750Y-30840D02*
X33750Y-31160D01*
X33910Y-31000D02*
X33590Y-31000D01*
X34000Y-23840D02*
X34000Y-24160D01*
X34160Y-24000D02*
X33840Y-24000D01*
X34750Y-25840D02*
X34750Y-26160D01*
X34910Y-26000D02*
X34590Y-26000D01*
X34750Y-27840D02*
X34750Y-28160D01*
X34910Y-28000D02*
X34590Y-28000D01*
X34750Y-30840D02*
X34750Y-31160D01*
X34910Y-31000D02*
X34590Y-31000D01*
X35000Y-32340D02*
X35000Y-32660D01*
X35160Y-32500D02*
X34840Y-32500D01*
X35000Y-34840D02*
X35000Y-35160D01*
X35160Y-35000D02*
X34840Y-35000D01*
X35000Y-36090D02*
X35000Y-36410D01*
X35160Y-36250D02*
X34840Y-36250D01*
X35000Y-37340D02*
X35000Y-37660D01*
X35160Y-37500D02*
X34840Y-37500D01*
X35000Y-39090D02*
X35000Y-39410D01*
X35160Y-39250D02*
X34840Y-39250D01*
X35000Y-40090D02*
X35000Y-40410D01*
X35160Y-40250D02*
X34840Y-40250D01*
X35000Y-41090D02*
X35000Y-41410D01*
X35160Y-41250D02*
X34840Y-41250D01*
X35000Y-42090D02*
X35000Y-42410D01*
X35160Y-42250D02*
X34840Y-42250D01*
X35000Y-43090D02*
X35000Y-43410D01*
X35160Y-43250D02*
X34840Y-43250D01*
X35000Y-44090D02*
X35000Y-44410D01*
X35160Y-44250D02*
X34840Y-44250D01*
X35000Y-45090D02*
X35000Y-45410D01*
X35160Y-45250D02*
X34840Y-45250D01*
X35000Y-46090D02*
X35000Y-46410D01*
X35160Y-46250D02*
X34840Y-46250D01*
X35750Y-25840D02*
X35750Y-26160D01*
X35910Y-26000D02*
X35590Y-26000D01*
X35750Y-27840D02*
X35750Y-28160D01*
X35910Y-28000D02*
X35590Y-28000D01*
X35750Y-30840D02*
X35750Y-31160D01*
X35910Y-31000D02*
X35590Y-31000D01*
X37000Y-26340D02*
X37000Y-26660D01*
X37160Y-26500D02*
X36840Y-26500D01*
X37000Y-28340D02*
X37000Y-28660D01*
X37160Y-28500D02*
X36840Y-28500D01*
X37250Y-37090D02*
X37250Y-37410D01*
X37410Y-37250D02*
X37090Y-37250D01*
X37250Y-38590D02*
X37250Y-38910D01*
X37410Y-38750D02*
X37090Y-38750D01*
X37250Y-39590D02*
X37250Y-39910D01*
X37410Y-39750D02*
X37090Y-39750D01*
X37750Y-34590D02*
X37750Y-34910D01*
X37910Y-34750D02*
X37590Y-34750D01*
X37750Y-35590D02*
X37750Y-35910D01*
X37910Y-35750D02*
X37590Y-35750D01*
X38250Y-37090D02*
X38250Y-37410D01*
X38410Y-37250D02*
X38090Y-37250D01*
X38750Y-45840D02*
X38750Y-46160D01*
X38910Y-46000D02*
X38590Y-46000D01*
X38750Y-47090D02*
X38750Y-47410D01*
X38910Y-47250D02*
X38590Y-47250D01*
X38750Y-48340D02*
X38750Y-48660D01*
X38910Y-48500D02*
X38590Y-48500D01*
X39000Y-38590D02*
X39000Y-38910D01*
X39160Y-38750D02*
X38840Y-38750D01*
X39000Y-39590D02*
X39000Y-39910D01*
X39160Y-39750D02*
X38840Y-39750D01*
X39750Y-30590D02*
X39750Y-30910D01*
X39910Y-30750D02*
X39590Y-30750D01*
X39750Y-31590D02*
X39750Y-31910D01*
X39910Y-31750D02*
X39590Y-31750D01*
X39750Y-32590D02*
X39750Y-32910D01*
X39910Y-32750D02*
X39590Y-32750D01*
X39750Y-33590D02*
X39750Y-33910D01*
X39910Y-33750D02*
X39590Y-33750D01*
X39750Y-34590D02*
X39750Y-34910D01*
X39910Y-34750D02*
X39590Y-34750D01*
X39750Y-35590D02*
X39750Y-35910D01*
X39910Y-35750D02*
X39590Y-35750D01*
X39750Y-36590D02*
X39750Y-36910D01*
X39910Y-36750D02*
X39590Y-36750D01*
X41750Y-45840D02*
X41750Y-46160D01*
X41910Y-46000D02*
X41590Y-46000D01*
X41750Y-47090D02*
X41750Y-47410D01*
X41910Y-47250D02*
X41590Y-47250D01*
X41750Y-48340D02*
X41750Y-48660D01*
X41910Y-48500D02*
X41590Y-48500D01*
X42750Y-30590D02*
X42750Y-30910D01*
X42910Y-30750D02*
X42590Y-30750D01*
X42750Y-31590D02*
X42750Y-31910D01*
X42910Y-31750D02*
X42590Y-31750D01*
X42750Y-32590D02*
X42750Y-32910D01*
X42910Y-32750D02*
X42590Y-32750D01*
X42750Y-33590D02*
X42750Y-33910D01*
X42910Y-33750D02*
X42590Y-33750D01*
X42750Y-34590D02*
X42750Y-34910D01*
X42910Y-34750D02*
X42590Y-34750D01*
X42750Y-35590D02*
X42750Y-35910D01*
X42910Y-35750D02*
X42590Y-35750D01*
X42750Y-36590D02*
X42750Y-36910D01*
X42910Y-36750D02*
X42590Y-36750D01*
X43500Y-42090D02*
X43500Y-42410D01*
X43660Y-42250D02*
X43340Y-42250D01*
X43500Y-43090D02*
X43500Y-43410D01*
X43660Y-43250D02*
X43340Y-43250D01*
X45250Y-42090D02*
X45250Y-42410D01*
X45410Y-42250D02*
X45090Y-42250D01*
X45250Y-43090D02*
X45250Y-43410D01*
X45410Y-43250D02*
X45090Y-43250D01*
X46000Y-33090D02*
X46000Y-33410D01*
X46160Y-33250D02*
X45840Y-33250D01*
X46000Y-34090D02*
X46000Y-34410D01*
X46160Y-34250D02*
X45840Y-34250D01*
X47000Y-41090D02*
X47000Y-41410D01*
X47160Y-41250D02*
X46840Y-41250D01*
X47000Y-44090D02*
X47000Y-44410D01*
X47160Y-44250D02*
X46840Y-44250D01*
X47750Y-36840D02*
X47750Y-37160D01*
X47910Y-37000D02*
X47590Y-37000D01*
X47750Y-37840D02*
X47750Y-38160D01*
X47910Y-38000D02*
X47590Y-38000D01*
X48000Y-41090D02*
X48000Y-41410D01*
X48160Y-41250D02*
X47840Y-41250D01*
X48000Y-44090D02*
X48000Y-44410D01*
X48160Y-44250D02*
X47840Y-44250D01*
X49000Y-31840D02*
X49000Y-32160D01*
X49160Y-32000D02*
X48840Y-32000D01*
X49000Y-41090D02*
X49000Y-41410D01*
X49160Y-41250D02*
X48840Y-41250D01*
X49000Y-44090D02*
X49000Y-44410D01*
X49160Y-44250D02*
X48840Y-44250D01*
X50000Y-31840D02*
X50000Y-32160D01*
X50160Y-32000D02*
X49840Y-32000D01*
X50000Y-36840D02*
X50000Y-37160D01*
X50160Y-37000D02*
X49840Y-37000D01*
X50000Y-37840D02*
X50000Y-38160D01*
X50160Y-38000D02*
X49840Y-38000D01*
X50000Y-41090D02*
X50000Y-41410D01*
X50160Y-41250D02*
X49840Y-41250D01*
X50000Y-44090D02*
X50000Y-44410D01*
X50160Y-44250D02*
X49840Y-44250D01*
X51000Y-41090D02*
X51000Y-41410D01*
X51160Y-41250D02*
X50840Y-41250D01*
X51000Y-44090D02*
X51000Y-44410D01*
X51160Y-44250D02*
X50840Y-44250D01*
X52000Y-41090D02*
X52000Y-41410D01*
X52160Y-41250D02*
X51840Y-41250D01*
X52000Y-44090D02*
X52000Y-44410D01*
X52160Y-44250D02*
X51840Y-44250D01*
X53000Y-41090D02*
X53000Y-41410D01*
X53160Y-41250D02*
X52840Y-41250D01*
X53000Y-44090D02*
X53000Y-44410D01*
X53160Y-44250D02*
X52840Y-44250D01*
X54000Y-28590D02*
X54000Y-28910D01*
X54160Y-28750D02*
X53840Y-28750D01*
X55000Y-27590D02*
X55000Y-27910D01*
X55160Y-27750D02*
X54840Y-27750D01*
X56000Y-24340D02*
X56000Y-24660D01*
X56160Y-24500D02*
X55840Y-24500D01*
X57000Y-25340D02*
X57000Y-25660D01*
X57160Y-25500D02*
X56840Y-25500D01*
X57000Y-28590D02*
X57000Y-28910D01*
X57160Y-28750D02*
X56840Y-28750D01*
X58000Y-26340D02*
X58000Y-26660D01*
X58160Y-26500D02*
X57840Y-26500D01*
X58000Y-27590D02*
X58000Y-27910D01*
X58160Y-27750D02*
X57840Y-27750D01*
X59000Y-24340D02*
X59000Y-24660D01*
X59160Y-24500D02*
X58840Y-24500D01*
X60000Y-25340D02*
X60000Y-25660D01*
X60160Y-25500D02*
X59840Y-25500D01*
X61000Y-26340D02*
X61000Y-26660D01*
X61160Y-26500D02*
X60840Y-26500D01*
X24200Y-33000D02*
X24196Y-33038D01*
X24184Y-33076D01*
X24166Y-33110D01*
X24141Y-33140D01*
X24111Y-33165D01*
X24077Y-33184D01*
X24040Y-33195D01*
X24001Y-33199D01*
X23963Y-33196D01*
X23926Y-33185D01*
X23891Y-33167D01*
X23861Y-33142D01*
X23835Y-33112D01*
X23817Y-33078D01*
X23805Y-33041D01*
X23801Y-33002D01*
X23804Y-32964D01*
X23815Y-32927D01*
X23832Y-32892D01*
X23857Y-32862D01*
X23886Y-32836D01*
X23920Y-32817D01*
X23958Y-32805D01*
X23996Y-32801D01*
X24034Y-32804D01*
X24072Y-32814D01*
X24107Y-32832D01*
X24137Y-32856D01*
X24163Y-32885D01*
X24182Y-32919D01*
X24195Y-32956D01*
X24199Y-32995D01*
X24200Y-33000D01*
X23800Y-32800D02*
X24200Y-33200D01*
X24200Y-32800D02*
X23800Y-33200D01*
X24200Y-34000D02*
X24196Y-34038D01*
X24184Y-34076D01*
X24166Y-34110D01*
X24141Y-34140D01*
X24111Y-34165D01*
X24077Y-34184D01*
X24040Y-34195D01*
X24001Y-34199D01*
X23963Y-34196D01*
X23926Y-34185D01*
X23891Y-34167D01*
X23861Y-34142D01*
X23835Y-34112D01*
X23817Y-34078D01*
X23805Y-34041D01*
X23801Y-34002D01*
X23804Y-33964D01*
X23815Y-33927D01*
X23832Y-33892D01*
X23857Y-33862D01*
X23886Y-33836D01*
X23920Y-33817D01*
X23958Y-33805D01*
X23996Y-33801D01*
X24034Y-33804D01*
X24072Y-33814D01*
X24107Y-33832D01*
X24137Y-33856D01*
X24163Y-33885D01*
X24182Y-33919D01*
X24195Y-33956D01*
X24199Y-33995D01*
X24200Y-34000D01*
X23800Y-33800D02*
X24200Y-34200D01*
X24200Y-33800D02*
X23800Y-34200D01*
X24200Y-35000D02*
X24196Y-35038D01*
X24184Y-35076D01*
X24166Y-35110D01*
X24141Y-35140D01*
X24111Y-35165D01*
X24077Y-35184D01*
X24040Y-35195D01*
X24001Y-35199D01*
X23963Y-35196D01*
X23926Y-35185D01*
X23891Y-35167D01*
X23861Y-35142D01*
X23835Y-35112D01*
X23817Y-35078D01*
X23805Y-35041D01*
X23801Y-35002D01*
X23804Y-34964D01*
X23815Y-34927D01*
X23832Y-34892D01*
X23857Y-34862D01*
X23886Y-34836D01*
X23920Y-34817D01*
X23958Y-34805D01*
X23996Y-34801D01*
X24034Y-34804D01*
X24072Y-34814D01*
X24107Y-34832D01*
X24137Y-34856D01*
X24163Y-34885D01*
X24182Y-34919D01*
X24195Y-34956D01*
X24199Y-34995D01*
X24200Y-35000D01*
X23800Y-34800D02*
X24200Y-35200D01*
X24200Y-34800D02*
X23800Y-35200D01*
X24200Y-36000D02*
X24196Y-36038D01*
X24184Y-36076D01*
X24166Y-36110D01*
X24141Y-36140D01*
X24111Y-36165D01*
X24077Y-36184D01*
X24040Y-36195D01*
X24001Y-36199D01*
X23963Y-36196D01*
X23926Y-36185D01*
X23891Y-36167D01*
X23861Y-36142D01*
X23835Y-36112D01*
X23817Y-36078D01*
X23805Y-36041D01*
X23801Y-36002D01*
X23804Y-35964D01*
X23815Y-35927D01*
X23832Y-35892D01*
X23857Y-35862D01*
X23886Y-35836D01*
X23920Y-35817D01*
X23958Y-35805D01*
X23996Y-35801D01*
X24034Y-35804D01*
X24072Y-35814D01*
X24107Y-35832D01*
X24137Y-35856D01*
X24163Y-35885D01*
X24182Y-35919D01*
X24195Y-35956D01*
X24199Y-35995D01*
X24200Y-36000D01*
X23800Y-35800D02*
X24200Y-36200D01*
X24200Y-35800D02*
X23800Y-36200D01*
X24200Y-37000D02*
X24196Y-37038D01*
X24184Y-37076D01*
X24166Y-37110D01*
X24141Y-37140D01*
X24111Y-37165D01*
X24077Y-37184D01*
X24040Y-37195D01*
X24001Y-37199D01*
X23963Y-37196D01*
X23926Y-37185D01*
X23891Y-37167D01*
X23861Y-37142D01*
X23835Y-37112D01*
X23817Y-37078D01*
X23805Y-37041D01*
X23801Y-37002D01*
X23804Y-36964D01*
X23815Y-36927D01*
X23832Y-36892D01*
X23857Y-36862D01*
X23886Y-36836D01*
X23920Y-36817D01*
X23958Y-36805D01*
X23996Y-36801D01*
X24034Y-36804D01*
X24072Y-36814D01*
X24107Y-36832D01*
X24137Y-36856D01*
X24163Y-36885D01*
X24182Y-36919D01*
X24195Y-36956D01*
X24199Y-36995D01*
X24200Y-37000D01*
X23800Y-36800D02*
X24200Y-37200D01*
X24200Y-36800D02*
X23800Y-37200D01*
X24200Y-38000D02*
X24196Y-38038D01*
X24184Y-38076D01*
X24166Y-38110D01*
X24141Y-38140D01*
X24111Y-38165D01*
X24077Y-38184D01*
X24040Y-38195D01*
X24001Y-38199D01*
X23963Y-38196D01*
X23926Y-38185D01*
X23891Y-38167D01*
X23861Y-38142D01*
X23835Y-38112D01*
X23817Y-38078D01*
X23805Y-38041D01*
X23801Y-38002D01*
X23804Y-37964D01*
X23815Y-37927D01*
X23832Y-37892D01*
X23857Y-37862D01*
X23886Y-37836D01*
X23920Y-37817D01*
X23958Y-37805D01*
X23996Y-37801D01*
X24034Y-37804D01*
X24072Y-37814D01*
X24107Y-37832D01*
X24137Y-37856D01*
X24163Y-37885D01*
X24182Y-37919D01*
X24195Y-37956D01*
X24199Y-37995D01*
X24200Y-38000D01*
X23800Y-37800D02*
X24200Y-38200D01*
X24200Y-37800D02*
X23800Y-38200D01*
X24200Y-39000D02*
X24196Y-39038D01*
X24184Y-39076D01*
X24166Y-39110D01*
X24141Y-39140D01*
X24111Y-39165D01*
X24077Y-39184D01*
X24040Y-39195D01*
X24001Y-39199D01*
X23963Y-39196D01*
X23926Y-39185D01*
X23891Y-39167D01*
X23861Y-39142D01*
X23835Y-39112D01*
X23817Y-39078D01*
X23805Y-39041D01*
X23801Y-39002D01*
X23804Y-38964D01*
X23815Y-38927D01*
X23832Y-38892D01*
X23857Y-38862D01*
X23886Y-38836D01*
X23920Y-38817D01*
X23958Y-38805D01*
X23996Y-38801D01*
X24034Y-38804D01*
X24072Y-38814D01*
X24107Y-38832D01*
X24137Y-38856D01*
X24163Y-38885D01*
X24182Y-38919D01*
X24195Y-38956D01*
X24199Y-38995D01*
X24200Y-39000D01*
X23800Y-38800D02*
X24200Y-39200D01*
X24200Y-38800D02*
X23800Y-39200D01*
X24200Y-40000D02*
X24196Y-40038D01*
X24184Y-40076D01*
X24166Y-40110D01*
X24141Y-40140D01*
X24111Y-40165D01*
X24077Y-40184D01*
X24040Y-40195D01*
X24001Y-40199D01*
X23963Y-40196D01*
X23926Y-40185D01*
X23891Y-40167D01*
X23861Y-40142D01*
X23835Y-40112D01*
X23817Y-40078D01*
X23805Y-40041D01*
X23801Y-40002D01*
X23804Y-39964D01*
X23815Y-39927D01*
X23832Y-39892D01*
X23857Y-39862D01*
X23886Y-39836D01*
X23920Y-39817D01*
X23958Y-39805D01*
X23996Y-39801D01*
X24034Y-39804D01*
X24072Y-39814D01*
X24107Y-39832D01*
X24137Y-39856D01*
X24163Y-39885D01*
X24182Y-39919D01*
X24195Y-39956D01*
X24199Y-39995D01*
X24200Y-40000D01*
X23800Y-39800D02*
X24200Y-40200D01*
X24200Y-39800D02*
X23800Y-40200D01*
X25200Y-22000D02*
X25196Y-22038D01*
X25184Y-22076D01*
X25166Y-22110D01*
X25141Y-22140D01*
X25111Y-22165D01*
X25077Y-22184D01*
X25040Y-22195D01*
X25001Y-22199D01*
X24963Y-22196D01*
X24926Y-22185D01*
X24891Y-22167D01*
X24861Y-22142D01*
X24835Y-22112D01*
X24817Y-22078D01*
X24805Y-22041D01*
X24801Y-22002D01*
X24804Y-21964D01*
X24815Y-21927D01*
X24832Y-21892D01*
X24857Y-21862D01*
X24886Y-21836D01*
X24920Y-21817D01*
X24958Y-21805D01*
X24996Y-21801D01*
X25034Y-21804D01*
X25072Y-21814D01*
X25107Y-21832D01*
X25137Y-21856D01*
X25163Y-21885D01*
X25182Y-21919D01*
X25195Y-21956D01*
X25199Y-21995D01*
X25200Y-22000D01*
X24800Y-21800D02*
X25200Y-22200D01*
X25200Y-21800D02*
X24800Y-22200D01*
X25200Y-33000D02*
X25196Y-33038D01*
X25184Y-33076D01*
X25166Y-33110D01*
X25141Y-33140D01*
X25111Y-33165D01*
X25077Y-33184D01*
X25040Y-33195D01*
X25001Y-33199D01*
X24963Y-33196D01*
X24926Y-33185D01*
X24891Y-33167D01*
X24861Y-33142D01*
X24835Y-33112D01*
X24817Y-33078D01*
X24805Y-33041D01*
X24801Y-33002D01*
X24804Y-32964D01*
X24815Y-32927D01*
X24832Y-32892D01*
X24857Y-32862D01*
X24886Y-32836D01*
X24920Y-32817D01*
X24958Y-32805D01*
X24996Y-32801D01*
X25034Y-32804D01*
X25072Y-32814D01*
X25107Y-32832D01*
X25137Y-32856D01*
X25163Y-32885D01*
X25182Y-32919D01*
X25195Y-32956D01*
X25199Y-32995D01*
X25200Y-33000D01*
X24800Y-32800D02*
X25200Y-33200D01*
X25200Y-32800D02*
X24800Y-33200D01*
X25200Y-34000D02*
X25196Y-34038D01*
X25184Y-34076D01*
X25166Y-34110D01*
X25141Y-34140D01*
X25111Y-34165D01*
X25077Y-34184D01*
X25040Y-34195D01*
X25001Y-34199D01*
X24963Y-34196D01*
X24926Y-34185D01*
X24891Y-34167D01*
X24861Y-34142D01*
X24835Y-34112D01*
X24817Y-34078D01*
X24805Y-34041D01*
X24801Y-34002D01*
X24804Y-33964D01*
X24815Y-33927D01*
X24832Y-33892D01*
X24857Y-33862D01*
X24886Y-33836D01*
X24920Y-33817D01*
X24958Y-33805D01*
X24996Y-33801D01*
X25034Y-33804D01*
X25072Y-33814D01*
X25107Y-33832D01*
X25137Y-33856D01*
X25163Y-33885D01*
X25182Y-33919D01*
X25195Y-33956D01*
X25199Y-33995D01*
X25200Y-34000D01*
X24800Y-33800D02*
X25200Y-34200D01*
X25200Y-33800D02*
X24800Y-34200D01*
X25200Y-35000D02*
X25196Y-35038D01*
X25184Y-35076D01*
X25166Y-35110D01*
X25141Y-35140D01*
X25111Y-35165D01*
X25077Y-35184D01*
X25040Y-35195D01*
X25001Y-35199D01*
X24963Y-35196D01*
X24926Y-35185D01*
X24891Y-35167D01*
X24861Y-35142D01*
X24835Y-35112D01*
X24817Y-35078D01*
X24805Y-35041D01*
X24801Y-35002D01*
X24804Y-34964D01*
X24815Y-34927D01*
X24832Y-34892D01*
X24857Y-34862D01*
X24886Y-34836D01*
X24920Y-34817D01*
X24958Y-34805D01*
X24996Y-34801D01*
X25034Y-34804D01*
X25072Y-34814D01*
X25107Y-34832D01*
X25137Y-34856D01*
X25163Y-34885D01*
X25182Y-34919D01*
X25195Y-34956D01*
X25199Y-34995D01*
X25200Y-35000D01*
X24800Y-34800D02*
X25200Y-35200D01*
X25200Y-34800D02*
X24800Y-35200D01*
X25200Y-36000D02*
X25196Y-36038D01*
X25184Y-36076D01*
X25166Y-36110D01*
X25141Y-36140D01*
X25111Y-36165D01*
X25077Y-36184D01*
X25040Y-36195D01*
X25001Y-36199D01*
X24963Y-36196D01*
X24926Y-36185D01*
X24891Y-36167D01*
X24861Y-36142D01*
X24835Y-36112D01*
X24817Y-36078D01*
X24805Y-36041D01*
X24801Y-36002D01*
X24804Y-35964D01*
X24815Y-35927D01*
X24832Y-35892D01*
X24857Y-35862D01*
X24886Y-35836D01*
X24920Y-35817D01*
X24958Y-35805D01*
X24996Y-35801D01*
X25034Y-35804D01*
X25072Y-35814D01*
X25107Y-35832D01*
X25137Y-35856D01*
X25163Y-35885D01*
X25182Y-35919D01*
X25195Y-35956D01*
X25199Y-35995D01*
X25200Y-36000D01*
X24800Y-35800D02*
X25200Y-36200D01*
X25200Y-35800D02*
X24800Y-36200D01*
X25200Y-37000D02*
X25196Y-37038D01*
X25184Y-37076D01*
X25166Y-37110D01*
X25141Y-37140D01*
X25111Y-37165D01*
X25077Y-37184D01*
X25040Y-37195D01*
X25001Y-37199D01*
X24963Y-37196D01*
X24926Y-37185D01*
X24891Y-37167D01*
X24861Y-37142D01*
X24835Y-37112D01*
X24817Y-37078D01*
X24805Y-37041D01*
X24801Y-37002D01*
X24804Y-36964D01*
X24815Y-36927D01*
X24832Y-36892D01*
X24857Y-36862D01*
X24886Y-36836D01*
X24920Y-36817D01*
X24958Y-36805D01*
X24996Y-36801D01*
X25034Y-36804D01*
X25072Y-36814D01*
X25107Y-36832D01*
X25137Y-36856D01*
X25163Y-36885D01*
X25182Y-36919D01*
X25195Y-36956D01*
X25199Y-36995D01*
X25200Y-37000D01*
X24800Y-36800D02*
X25200Y-37200D01*
X25200Y-36800D02*
X24800Y-37200D01*
X25200Y-38000D02*
X25196Y-38038D01*
X25184Y-38076D01*
X25166Y-38110D01*
X25141Y-38140D01*
X25111Y-38165D01*
X25077Y-38184D01*
X25040Y-38195D01*
X25001Y-38199D01*
X24963Y-38196D01*
X24926Y-38185D01*
X24891Y-38167D01*
X24861Y-38142D01*
X24835Y-38112D01*
X24817Y-38078D01*
X24805Y-38041D01*
X24801Y-38002D01*
X24804Y-37964D01*
X24815Y-37927D01*
X24832Y-37892D01*
X24857Y-37862D01*
X24886Y-37836D01*
X24920Y-37817D01*
X24958Y-37805D01*
X24996Y-37801D01*
X25034Y-37804D01*
X25072Y-37814D01*
X25107Y-37832D01*
X25137Y-37856D01*
X25163Y-37885D01*
X25182Y-37919D01*
X25195Y-37956D01*
X25199Y-37995D01*
X25200Y-38000D01*
X24800Y-37800D02*
X25200Y-38200D01*
X25200Y-37800D02*
X24800Y-38200D01*
X25200Y-39000D02*
X25196Y-39038D01*
X25184Y-39076D01*
X25166Y-39110D01*
X25141Y-39140D01*
X25111Y-39165D01*
X25077Y-39184D01*
X25040Y-39195D01*
X25001Y-39199D01*
X24963Y-39196D01*
X24926Y-39185D01*
X24891Y-39167D01*
X24861Y-39142D01*
X24835Y-39112D01*
X24817Y-39078D01*
X24805Y-39041D01*
X24801Y-39002D01*
X24804Y-38964D01*
X24815Y-38927D01*
X24832Y-38892D01*
X24857Y-38862D01*
X24886Y-38836D01*
X24920Y-38817D01*
X24958Y-38805D01*
X24996Y-38801D01*
X25034Y-38804D01*
X25072Y-38814D01*
X25107Y-38832D01*
X25137Y-38856D01*
X25163Y-38885D01*
X25182Y-38919D01*
X25195Y-38956D01*
X25199Y-38995D01*
X25200Y-39000D01*
X24800Y-38800D02*
X25200Y-39200D01*
X25200Y-38800D02*
X24800Y-39200D01*
X25200Y-40000D02*
X25196Y-40038D01*
X25184Y-40076D01*
X25166Y-40110D01*
X25141Y-40140D01*
X25111Y-40165D01*
X25077Y-40184D01*
X25040Y-40195D01*
X25001Y-40199D01*
X24963Y-40196D01*
X24926Y-40185D01*
X24891Y-40167D01*
X24861Y-40142D01*
X24835Y-40112D01*
X24817Y-40078D01*
X24805Y-40041D01*
X24801Y-40002D01*
X24804Y-39964D01*
X24815Y-39927D01*
X24832Y-39892D01*
X24857Y-39862D01*
X24886Y-39836D01*
X24920Y-39817D01*
X24958Y-39805D01*
X24996Y-39801D01*
X25034Y-39804D01*
X25072Y-39814D01*
X25107Y-39832D01*
X25137Y-39856D01*
X25163Y-39885D01*
X25182Y-39919D01*
X25195Y-39956D01*
X25199Y-39995D01*
X25200Y-40000D01*
X24800Y-39800D02*
X25200Y-40200D01*
X25200Y-39800D02*
X24800Y-40200D01*
X26200Y-22000D02*
X26196Y-22038D01*
X26184Y-22076D01*
X26166Y-22110D01*
X26141Y-22140D01*
X26111Y-22165D01*
X26077Y-22184D01*
X26040Y-22195D01*
X26001Y-22199D01*
X25963Y-22196D01*
X25926Y-22185D01*
X25891Y-22167D01*
X25861Y-22142D01*
X25835Y-22112D01*
X25817Y-22078D01*
X25805Y-22041D01*
X25801Y-22002D01*
X25804Y-21964D01*
X25815Y-21927D01*
X25832Y-21892D01*
X25857Y-21862D01*
X25886Y-21836D01*
X25920Y-21817D01*
X25958Y-21805D01*
X25996Y-21801D01*
X26034Y-21804D01*
X26072Y-21814D01*
X26107Y-21832D01*
X26137Y-21856D01*
X26163Y-21885D01*
X26182Y-21919D01*
X26195Y-21956D01*
X26199Y-21995D01*
X26200Y-22000D01*
X25800Y-21800D02*
X26200Y-22200D01*
X26200Y-21800D02*
X25800Y-22200D01*
X27700Y-22000D02*
X27696Y-22038D01*
X27684Y-22076D01*
X27666Y-22110D01*
X27641Y-22140D01*
X27611Y-22165D01*
X27577Y-22184D01*
X27540Y-22195D01*
X27501Y-22199D01*
X27463Y-22196D01*
X27426Y-22185D01*
X27391Y-22167D01*
X27361Y-22142D01*
X27335Y-22112D01*
X27317Y-22078D01*
X27305Y-22041D01*
X27301Y-22002D01*
X27304Y-21964D01*
X27315Y-21927D01*
X27332Y-21892D01*
X27357Y-21862D01*
X27386Y-21836D01*
X27420Y-21817D01*
X27458Y-21805D01*
X27496Y-21801D01*
X27534Y-21804D01*
X27572Y-21814D01*
X27607Y-21832D01*
X27637Y-21856D01*
X27663Y-21885D01*
X27682Y-21919D01*
X27695Y-21956D01*
X27699Y-21995D01*
X27700Y-22000D01*
X27300Y-21800D02*
X27700Y-22200D01*
X27700Y-21800D02*
X27300Y-22200D01*
X28700Y-22000D02*
X28696Y-22038D01*
X28684Y-22076D01*
X28666Y-22110D01*
X28641Y-22140D01*
X28611Y-22165D01*
X28577Y-22184D01*
X28540Y-22195D01*
X28501Y-22199D01*
X28463Y-22196D01*
X28426Y-22185D01*
X28391Y-22167D01*
X28361Y-22142D01*
X28335Y-22112D01*
X28317Y-22078D01*
X28305Y-22041D01*
X28301Y-22002D01*
X28304Y-21964D01*
X28315Y-21927D01*
X28332Y-21892D01*
X28357Y-21862D01*
X28386Y-21836D01*
X28420Y-21817D01*
X28458Y-21805D01*
X28496Y-21801D01*
X28534Y-21804D01*
X28572Y-21814D01*
X28607Y-21832D01*
X28637Y-21856D01*
X28663Y-21885D01*
X28682Y-21919D01*
X28695Y-21956D01*
X28699Y-21995D01*
X28700Y-22000D01*
X28300Y-21800D02*
X28700Y-22200D01*
X28700Y-21800D02*
X28300Y-22200D01*
X29950Y-43250D02*
X29946Y-43288D01*
X29934Y-43326D01*
X29916Y-43360D01*
X29891Y-43390D01*
X29861Y-43415D01*
X29827Y-43434D01*
X29790Y-43445D01*
X29751Y-43449D01*
X29713Y-43446D01*
X29676Y-43435D01*
X29641Y-43417D01*
X29611Y-43392D01*
X29585Y-43362D01*
X29567Y-43328D01*
X29555Y-43291D01*
X29551Y-43252D01*
X29554Y-43214D01*
X29565Y-43177D01*
X29582Y-43142D01*
X29607Y-43112D01*
X29636Y-43086D01*
X29670Y-43067D01*
X29708Y-43055D01*
X29746Y-43051D01*
X29784Y-43054D01*
X29822Y-43064D01*
X29857Y-43082D01*
X29887Y-43106D01*
X29913Y-43135D01*
X29932Y-43169D01*
X29945Y-43206D01*
X29949Y-43245D01*
X29950Y-43250D01*
X29550Y-43050D02*
X29950Y-43450D01*
X29950Y-43050D02*
X29550Y-43450D01*
X29950Y-44250D02*
X29946Y-44288D01*
X29934Y-44326D01*
X29916Y-44360D01*
X29891Y-44390D01*
X29861Y-44415D01*
X29827Y-44434D01*
X29790Y-44445D01*
X29751Y-44449D01*
X29713Y-44446D01*
X29676Y-44435D01*
X29641Y-44417D01*
X29611Y-44392D01*
X29585Y-44362D01*
X29567Y-44328D01*
X29555Y-44291D01*
X29551Y-44252D01*
X29554Y-44214D01*
X29565Y-44177D01*
X29582Y-44142D01*
X29607Y-44112D01*
X29636Y-44086D01*
X29670Y-44067D01*
X29708Y-44055D01*
X29746Y-44051D01*
X29784Y-44054D01*
X29822Y-44064D01*
X29857Y-44082D01*
X29887Y-44106D01*
X29913Y-44135D01*
X29932Y-44169D01*
X29945Y-44206D01*
X29949Y-44245D01*
X29950Y-44250D01*
X29550Y-44050D02*
X29950Y-44450D01*
X29950Y-44050D02*
X29550Y-44450D01*
X29950Y-45250D02*
X29946Y-45288D01*
X29934Y-45326D01*
X29916Y-45360D01*
X29891Y-45390D01*
X29861Y-45415D01*
X29827Y-45434D01*
X29790Y-45445D01*
X29751Y-45449D01*
X29713Y-45446D01*
X29676Y-45435D01*
X29641Y-45417D01*
X29611Y-45392D01*
X29585Y-45362D01*
X29567Y-45328D01*
X29555Y-45291D01*
X29551Y-45252D01*
X29554Y-45214D01*
X29565Y-45177D01*
X29582Y-45142D01*
X29607Y-45112D01*
X29636Y-45086D01*
X29670Y-45067D01*
X29708Y-45055D01*
X29746Y-45051D01*
X29784Y-45054D01*
X29822Y-45064D01*
X29857Y-45082D01*
X29887Y-45106D01*
X29913Y-45135D01*
X29932Y-45169D01*
X29945Y-45206D01*
X29949Y-45245D01*
X29950Y-45250D01*
X29550Y-45050D02*
X29950Y-45450D01*
X29950Y-45050D02*
X29550Y-45450D01*
X29950Y-46250D02*
X29946Y-46288D01*
X29934Y-46326D01*
X29916Y-46360D01*
X29891Y-46390D01*
X29861Y-46415D01*
X29827Y-46434D01*
X29790Y-46445D01*
X29751Y-46449D01*
X29713Y-46446D01*
X29676Y-46435D01*
X29641Y-46417D01*
X29611Y-46392D01*
X29585Y-46362D01*
X29567Y-46328D01*
X29555Y-46291D01*
X29551Y-46252D01*
X29554Y-46214D01*
X29565Y-46177D01*
X29582Y-46142D01*
X29607Y-46112D01*
X29636Y-46086D01*
X29670Y-46067D01*
X29708Y-46055D01*
X29746Y-46051D01*
X29784Y-46054D01*
X29822Y-46064D01*
X29857Y-46082D01*
X29887Y-46106D01*
X29913Y-46135D01*
X29932Y-46169D01*
X29945Y-46206D01*
X29949Y-46245D01*
X29950Y-46250D01*
X29550Y-46050D02*
X29950Y-46450D01*
X29950Y-46050D02*
X29550Y-46450D01*
X30700Y-22000D02*
X30696Y-22038D01*
X30684Y-22076D01*
X30666Y-22110D01*
X30641Y-22140D01*
X30611Y-22165D01*
X30577Y-22184D01*
X30540Y-22195D01*
X30501Y-22199D01*
X30463Y-22196D01*
X30426Y-22185D01*
X30391Y-22167D01*
X30361Y-22142D01*
X30335Y-22112D01*
X30317Y-22078D01*
X30305Y-22041D01*
X30301Y-22002D01*
X30304Y-21964D01*
X30315Y-21927D01*
X30332Y-21892D01*
X30357Y-21862D01*
X30386Y-21836D01*
X30420Y-21817D01*
X30458Y-21805D01*
X30496Y-21801D01*
X30534Y-21804D01*
X30572Y-21814D01*
X30607Y-21832D01*
X30637Y-21856D01*
X30663Y-21885D01*
X30682Y-21919D01*
X30695Y-21956D01*
X30699Y-21995D01*
X30700Y-22000D01*
X30300Y-21800D02*
X30700Y-22200D01*
X30700Y-21800D02*
X30300Y-22200D01*
X31700Y-22000D02*
X31696Y-22038D01*
X31684Y-22076D01*
X31666Y-22110D01*
X31641Y-22140D01*
X31611Y-22165D01*
X31577Y-22184D01*
X31540Y-22195D01*
X31501Y-22199D01*
X31463Y-22196D01*
X31426Y-22185D01*
X31391Y-22167D01*
X31361Y-22142D01*
X31335Y-22112D01*
X31317Y-22078D01*
X31305Y-22041D01*
X31301Y-22002D01*
X31304Y-21964D01*
X31315Y-21927D01*
X31332Y-21892D01*
X31357Y-21862D01*
X31386Y-21836D01*
X31420Y-21817D01*
X31458Y-21805D01*
X31496Y-21801D01*
X31534Y-21804D01*
X31572Y-21814D01*
X31607Y-21832D01*
X31637Y-21856D01*
X31663Y-21885D01*
X31682Y-21919D01*
X31695Y-21956D01*
X31699Y-21995D01*
X31700Y-22000D01*
X31300Y-21800D02*
X31700Y-22200D01*
X31700Y-21800D02*
X31300Y-22200D01*
X31950Y-50250D02*
X31946Y-50288D01*
X31934Y-50326D01*
X31916Y-50360D01*
X31891Y-50390D01*
X31861Y-50415D01*
X31827Y-50434D01*
X31790Y-50445D01*
X31751Y-50449D01*
X31713Y-50446D01*
X31676Y-50435D01*
X31641Y-50417D01*
X31611Y-50392D01*
X31585Y-50362D01*
X31567Y-50328D01*
X31555Y-50291D01*
X31551Y-50252D01*
X31554Y-50214D01*
X31565Y-50177D01*
X31582Y-50142D01*
X31607Y-50112D01*
X31636Y-50086D01*
X31670Y-50067D01*
X31708Y-50055D01*
X31746Y-50051D01*
X31784Y-50054D01*
X31822Y-50064D01*
X31857Y-50082D01*
X31887Y-50106D01*
X31913Y-50135D01*
X31932Y-50169D01*
X31945Y-50206D01*
X31949Y-50245D01*
X31950Y-50250D01*
X31550Y-50050D02*
X31950Y-50450D01*
X31950Y-50050D02*
X31550Y-50450D01*
X32950Y-50250D02*
X32946Y-50288D01*
X32934Y-50326D01*
X32916Y-50360D01*
X32891Y-50390D01*
X32861Y-50415D01*
X32827Y-50434D01*
X32790Y-50445D01*
X32751Y-50449D01*
X32713Y-50446D01*
X32676Y-50435D01*
X32641Y-50417D01*
X32611Y-50392D01*
X32585Y-50362D01*
X32567Y-50328D01*
X32555Y-50291D01*
X32551Y-50252D01*
X32554Y-50214D01*
X32565Y-50177D01*
X32582Y-50142D01*
X32607Y-50112D01*
X32636Y-50086D01*
X32670Y-50067D01*
X32708Y-50055D01*
X32746Y-50051D01*
X32784Y-50054D01*
X32822Y-50064D01*
X32857Y-50082D01*
X32887Y-50106D01*
X32913Y-50135D01*
X32932Y-50169D01*
X32945Y-50206D01*
X32949Y-50245D01*
X32950Y-50250D01*
X32550Y-50050D02*
X32950Y-50450D01*
X32950Y-50050D02*
X32550Y-50450D01*
X33200Y-22000D02*
X33196Y-22038D01*
X33184Y-22076D01*
X33166Y-22110D01*
X33141Y-22140D01*
X33111Y-22165D01*
X33077Y-22184D01*
X33040Y-22195D01*
X33001Y-22199D01*
X32963Y-22196D01*
X32926Y-22185D01*
X32891Y-22167D01*
X32861Y-22142D01*
X32835Y-22112D01*
X32817Y-22078D01*
X32805Y-22041D01*
X32801Y-22002D01*
X32804Y-21964D01*
X32815Y-21927D01*
X32832Y-21892D01*
X32857Y-21862D01*
X32886Y-21836D01*
X32920Y-21817D01*
X32958Y-21805D01*
X32996Y-21801D01*
X33034Y-21804D01*
X33072Y-21814D01*
X33107Y-21832D01*
X33137Y-21856D01*
X33163Y-21885D01*
X33182Y-21919D01*
X33195Y-21956D01*
X33199Y-21995D01*
X33200Y-22000D01*
X32800Y-21800D02*
X33200Y-22200D01*
X33200Y-21800D02*
X32800Y-22200D01*
X33950Y-50250D02*
X33946Y-50288D01*
X33934Y-50326D01*
X33916Y-50360D01*
X33891Y-50390D01*
X33861Y-50415D01*
X33827Y-50434D01*
X33790Y-50445D01*
X33751Y-50449D01*
X33713Y-50446D01*
X33676Y-50435D01*
X33641Y-50417D01*
X33611Y-50392D01*
X33585Y-50362D01*
X33567Y-50328D01*
X33555Y-50291D01*
X33551Y-50252D01*
X33554Y-50214D01*
X33565Y-50177D01*
X33582Y-50142D01*
X33607Y-50112D01*
X33636Y-50086D01*
X33670Y-50067D01*
X33708Y-50055D01*
X33746Y-50051D01*
X33784Y-50054D01*
X33822Y-50064D01*
X33857Y-50082D01*
X33887Y-50106D01*
X33913Y-50135D01*
X33932Y-50169D01*
X33945Y-50206D01*
X33949Y-50245D01*
X33950Y-50250D01*
X33550Y-50050D02*
X33950Y-50450D01*
X33950Y-50050D02*
X33550Y-50450D01*
X34200Y-22000D02*
X34196Y-22038D01*
X34184Y-22076D01*
X34166Y-22110D01*
X34141Y-22140D01*
X34111Y-22165D01*
X34077Y-22184D01*
X34040Y-22195D01*
X34001Y-22199D01*
X33963Y-22196D01*
X33926Y-22185D01*
X33891Y-22167D01*
X33861Y-22142D01*
X33835Y-22112D01*
X33817Y-22078D01*
X33805Y-22041D01*
X33801Y-22002D01*
X33804Y-21964D01*
X33815Y-21927D01*
X33832Y-21892D01*
X33857Y-21862D01*
X33886Y-21836D01*
X33920Y-21817D01*
X33958Y-21805D01*
X33996Y-21801D01*
X34034Y-21804D01*
X34072Y-21814D01*
X34107Y-21832D01*
X34137Y-21856D01*
X34163Y-21885D01*
X34182Y-21919D01*
X34195Y-21956D01*
X34199Y-21995D01*
X34200Y-22000D01*
X33800Y-21800D02*
X34200Y-22200D01*
X34200Y-21800D02*
X33800Y-22200D01*
X34950Y-50250D02*
X34946Y-50288D01*
X34934Y-50326D01*
X34916Y-50360D01*
X34891Y-50390D01*
X34861Y-50415D01*
X34827Y-50434D01*
X34790Y-50445D01*
X34751Y-50449D01*
X34713Y-50446D01*
X34676Y-50435D01*
X34641Y-50417D01*
X34611Y-50392D01*
X34585Y-50362D01*
X34567Y-50328D01*
X34555Y-50291D01*
X34551Y-50252D01*
X34554Y-50214D01*
X34565Y-50177D01*
X34582Y-50142D01*
X34607Y-50112D01*
X34636Y-50086D01*
X34670Y-50067D01*
X34708Y-50055D01*
X34746Y-50051D01*
X34784Y-50054D01*
X34822Y-50064D01*
X34857Y-50082D01*
X34887Y-50106D01*
X34913Y-50135D01*
X34932Y-50169D01*
X34945Y-50206D01*
X34949Y-50245D01*
X34950Y-50250D01*
X34550Y-50050D02*
X34950Y-50450D01*
X34950Y-50050D02*
X34550Y-50450D01*
X35950Y-50250D02*
X35946Y-50288D01*
X35934Y-50326D01*
X35916Y-50360D01*
X35891Y-50390D01*
X35861Y-50415D01*
X35827Y-50434D01*
X35790Y-50445D01*
X35751Y-50449D01*
X35713Y-50446D01*
X35676Y-50435D01*
X35641Y-50417D01*
X35611Y-50392D01*
X35585Y-50362D01*
X35567Y-50328D01*
X35555Y-50291D01*
X35551Y-50252D01*
X35554Y-50214D01*
X35565Y-50177D01*
X35582Y-50142D01*
X35607Y-50112D01*
X35636Y-50086D01*
X35670Y-50067D01*
X35708Y-50055D01*
X35746Y-50051D01*
X35784Y-50054D01*
X35822Y-50064D01*
X35857Y-50082D01*
X35887Y-50106D01*
X35913Y-50135D01*
X35932Y-50169D01*
X35945Y-50206D01*
X35949Y-50245D01*
X35950Y-50250D01*
X35550Y-50050D02*
X35950Y-50450D01*
X35950Y-50050D02*
X35550Y-50450D01*
X36950Y-50250D02*
X36946Y-50288D01*
X36934Y-50326D01*
X36916Y-50360D01*
X36891Y-50390D01*
X36861Y-50415D01*
X36827Y-50434D01*
X36790Y-50445D01*
X36751Y-50449D01*
X36713Y-50446D01*
X36676Y-50435D01*
X36641Y-50417D01*
X36611Y-50392D01*
X36585Y-50362D01*
X36567Y-50328D01*
X36555Y-50291D01*
X36551Y-50252D01*
X36554Y-50214D01*
X36565Y-50177D01*
X36582Y-50142D01*
X36607Y-50112D01*
X36636Y-50086D01*
X36670Y-50067D01*
X36708Y-50055D01*
X36746Y-50051D01*
X36784Y-50054D01*
X36822Y-50064D01*
X36857Y-50082D01*
X36887Y-50106D01*
X36913Y-50135D01*
X36932Y-50169D01*
X36945Y-50206D01*
X36949Y-50245D01*
X36950Y-50250D01*
X36550Y-50050D02*
X36950Y-50450D01*
X36950Y-50050D02*
X36550Y-50450D01*
X37950Y-50250D02*
X37946Y-50288D01*
X37934Y-50326D01*
X37916Y-50360D01*
X37891Y-50390D01*
X37861Y-50415D01*
X37827Y-50434D01*
X37790Y-50445D01*
X37751Y-50449D01*
X37713Y-50446D01*
X37676Y-50435D01*
X37641Y-50417D01*
X37611Y-50392D01*
X37585Y-50362D01*
X37567Y-50328D01*
X37555Y-50291D01*
X37551Y-50252D01*
X37554Y-50214D01*
X37565Y-50177D01*
X37582Y-50142D01*
X37607Y-50112D01*
X37636Y-50086D01*
X37670Y-50067D01*
X37708Y-50055D01*
X37746Y-50051D01*
X37784Y-50054D01*
X37822Y-50064D01*
X37857Y-50082D01*
X37887Y-50106D01*
X37913Y-50135D01*
X37932Y-50169D01*
X37945Y-50206D01*
X37949Y-50245D01*
X37950Y-50250D01*
X37550Y-50050D02*
X37950Y-50450D01*
X37950Y-50050D02*
X37550Y-50450D01*
X38950Y-50250D02*
X38946Y-50288D01*
X38934Y-50326D01*
X38916Y-50360D01*
X38891Y-50390D01*
X38861Y-50415D01*
X38827Y-50434D01*
X38790Y-50445D01*
X38751Y-50449D01*
X38713Y-50446D01*
X38676Y-50435D01*
X38641Y-50417D01*
X38611Y-50392D01*
X38585Y-50362D01*
X38567Y-50328D01*
X38555Y-50291D01*
X38551Y-50252D01*
X38554Y-50214D01*
X38565Y-50177D01*
X38582Y-50142D01*
X38607Y-50112D01*
X38636Y-50086D01*
X38670Y-50067D01*
X38708Y-50055D01*
X38746Y-50051D01*
X38784Y-50054D01*
X38822Y-50064D01*
X38857Y-50082D01*
X38887Y-50106D01*
X38913Y-50135D01*
X38932Y-50169D01*
X38945Y-50206D01*
X38949Y-50245D01*
X38950Y-50250D01*
X38550Y-50050D02*
X38950Y-50450D01*
X38950Y-50050D02*
X38550Y-50450D01*
X39950Y-22000D02*
X39946Y-22038D01*
X39934Y-22076D01*
X39916Y-22110D01*
X39891Y-22140D01*
X39861Y-22165D01*
X39827Y-22184D01*
X39790Y-22195D01*
X39751Y-22199D01*
X39713Y-22196D01*
X39676Y-22185D01*
X39641Y-22167D01*
X39611Y-22142D01*
X39585Y-22112D01*
X39567Y-22078D01*
X39555Y-22041D01*
X39551Y-22002D01*
X39554Y-21964D01*
X39565Y-21927D01*
X39582Y-21892D01*
X39607Y-21862D01*
X39636Y-21836D01*
X39670Y-21817D01*
X39708Y-21805D01*
X39746Y-21801D01*
X39784Y-21804D01*
X39822Y-21814D01*
X39857Y-21832D01*
X39887Y-21856D01*
X39913Y-21885D01*
X39932Y-21919D01*
X39945Y-21956D01*
X39949Y-21995D01*
X39950Y-22000D01*
X39550Y-21800D02*
X39950Y-22200D01*
X39950Y-21800D02*
X39550Y-22200D01*
X40950Y-22000D02*
X40946Y-22038D01*
X40934Y-22076D01*
X40916Y-22110D01*
X40891Y-22140D01*
X40861Y-22165D01*
X40827Y-22184D01*
X40790Y-22195D01*
X40751Y-22199D01*
X40713Y-22196D01*
X40676Y-22185D01*
X40641Y-22167D01*
X40611Y-22142D01*
X40585Y-22112D01*
X40567Y-22078D01*
X40555Y-22041D01*
X40551Y-22002D01*
X40554Y-21964D01*
X40565Y-21927D01*
X40582Y-21892D01*
X40607Y-21862D01*
X40636Y-21836D01*
X40670Y-21817D01*
X40708Y-21805D01*
X40746Y-21801D01*
X40784Y-21804D01*
X40822Y-21814D01*
X40857Y-21832D01*
X40887Y-21856D01*
X40913Y-21885D01*
X40932Y-21919D01*
X40945Y-21956D01*
X40949Y-21995D01*
X40950Y-22000D01*
X40550Y-21800D02*
X40950Y-22200D01*
X40950Y-21800D02*
X40550Y-22200D01*
X42450Y-22000D02*
X42446Y-22038D01*
X42434Y-22076D01*
X42416Y-22110D01*
X42391Y-22140D01*
X42361Y-22165D01*
X42327Y-22184D01*
X42290Y-22195D01*
X42251Y-22199D01*
X42213Y-22196D01*
X42176Y-22185D01*
X42141Y-22167D01*
X42111Y-22142D01*
X42085Y-22112D01*
X42067Y-22078D01*
X42055Y-22041D01*
X42051Y-22002D01*
X42054Y-21964D01*
X42065Y-21927D01*
X42082Y-21892D01*
X42107Y-21862D01*
X42136Y-21836D01*
X42170Y-21817D01*
X42208Y-21805D01*
X42246Y-21801D01*
X42284Y-21804D01*
X42322Y-21814D01*
X42357Y-21832D01*
X42387Y-21856D01*
X42413Y-21885D01*
X42432Y-21919D01*
X42445Y-21956D01*
X42449Y-21995D01*
X42450Y-22000D01*
X42050Y-21800D02*
X42450Y-22200D01*
X42450Y-21800D02*
X42050Y-22200D01*
X43450Y-22000D02*
X43446Y-22038D01*
X43434Y-22076D01*
X43416Y-22110D01*
X43391Y-22140D01*
X43361Y-22165D01*
X43327Y-22184D01*
X43290Y-22195D01*
X43251Y-22199D01*
X43213Y-22196D01*
X43176Y-22185D01*
X43141Y-22167D01*
X43111Y-22142D01*
X43085Y-22112D01*
X43067Y-22078D01*
X43055Y-22041D01*
X43051Y-22002D01*
X43054Y-21964D01*
X43065Y-21927D01*
X43082Y-21892D01*
X43107Y-21862D01*
X43136Y-21836D01*
X43170Y-21817D01*
X43208Y-21805D01*
X43246Y-21801D01*
X43284Y-21804D01*
X43322Y-21814D01*
X43357Y-21832D01*
X43387Y-21856D01*
X43413Y-21885D01*
X43432Y-21919D01*
X43445Y-21956D01*
X43449Y-21995D01*
X43450Y-22000D01*
X43050Y-21800D02*
X43450Y-22200D01*
X43450Y-21800D02*
X43050Y-22200D01*
X44700Y-50500D02*
X44696Y-50538D01*
X44684Y-50576D01*
X44666Y-50610D01*
X44641Y-50640D01*
X44611Y-50665D01*
X44577Y-50684D01*
X44540Y-50695D01*
X44501Y-50699D01*
X44463Y-50696D01*
X44426Y-50685D01*
X44391Y-50667D01*
X44361Y-50642D01*
X44335Y-50612D01*
X44317Y-50578D01*
X44305Y-50541D01*
X44301Y-50502D01*
X44304Y-50464D01*
X44315Y-50427D01*
X44332Y-50392D01*
X44357Y-50362D01*
X44386Y-50336D01*
X44420Y-50317D01*
X44458Y-50305D01*
X44496Y-50301D01*
X44534Y-50304D01*
X44572Y-50314D01*
X44607Y-50332D01*
X44637Y-50356D01*
X44663Y-50385D01*
X44682Y-50419D01*
X44695Y-50456D01*
X44699Y-50495D01*
X44700Y-50500D01*
X44300Y-50300D02*
X44700Y-50700D01*
X44700Y-50300D02*
X44300Y-50700D01*
X44950Y-22000D02*
X44946Y-22038D01*
X44934Y-22076D01*
X44916Y-22110D01*
X44891Y-22140D01*
X44861Y-22165D01*
X44827Y-22184D01*
X44790Y-22195D01*
X44751Y-22199D01*
X44713Y-22196D01*
X44676Y-22185D01*
X44641Y-22167D01*
X44611Y-22142D01*
X44585Y-22112D01*
X44567Y-22078D01*
X44555Y-22041D01*
X44551Y-22002D01*
X44554Y-21964D01*
X44565Y-21927D01*
X44582Y-21892D01*
X44607Y-21862D01*
X44636Y-21836D01*
X44670Y-21817D01*
X44708Y-21805D01*
X44746Y-21801D01*
X44784Y-21804D01*
X44822Y-21814D01*
X44857Y-21832D01*
X44887Y-21856D01*
X44913Y-21885D01*
X44932Y-21919D01*
X44945Y-21956D01*
X44949Y-21995D01*
X44950Y-22000D01*
X44550Y-21800D02*
X44950Y-22200D01*
X44950Y-21800D02*
X44550Y-22200D01*
X45700Y-50500D02*
X45696Y-50538D01*
X45684Y-50576D01*
X45666Y-50610D01*
X45641Y-50640D01*
X45611Y-50665D01*
X45577Y-50684D01*
X45540Y-50695D01*
X45501Y-50699D01*
X45463Y-50696D01*
X45426Y-50685D01*
X45391Y-50667D01*
X45361Y-50642D01*
X45335Y-50612D01*
X45317Y-50578D01*
X45305Y-50541D01*
X45301Y-50502D01*
X45304Y-50464D01*
X45315Y-50427D01*
X45332Y-50392D01*
X45357Y-50362D01*
X45386Y-50336D01*
X45420Y-50317D01*
X45458Y-50305D01*
X45496Y-50301D01*
X45534Y-50304D01*
X45572Y-50314D01*
X45607Y-50332D01*
X45637Y-50356D01*
X45663Y-50385D01*
X45682Y-50419D01*
X45695Y-50456D01*
X45699Y-50495D01*
X45700Y-50500D01*
X45300Y-50300D02*
X45700Y-50700D01*
X45700Y-50300D02*
X45300Y-50700D01*
X45950Y-22000D02*
X45946Y-22038D01*
X45934Y-22076D01*
X45916Y-22110D01*
X45891Y-22140D01*
X45861Y-22165D01*
X45827Y-22184D01*
X45790Y-22195D01*
X45751Y-22199D01*
X45713Y-22196D01*
X45676Y-22185D01*
X45641Y-22167D01*
X45611Y-22142D01*
X45585Y-22112D01*
X45567Y-22078D01*
X45555Y-22041D01*
X45551Y-22002D01*
X45554Y-21964D01*
X45565Y-21927D01*
X45582Y-21892D01*
X45607Y-21862D01*
X45636Y-21836D01*
X45670Y-21817D01*
X45708Y-21805D01*
X45746Y-21801D01*
X45784Y-21804D01*
X45822Y-21814D01*
X45857Y-21832D01*
X45887Y-21856D01*
X45913Y-21885D01*
X45932Y-21919D01*
X45945Y-21956D01*
X45949Y-21995D01*
X45950Y-22000D01*
X45550Y-21800D02*
X45950Y-22200D01*
X45950Y-21800D02*
X45550Y-22200D01*
X47450Y-22000D02*
X47446Y-22038D01*
X47434Y-22076D01*
X47416Y-22110D01*
X47391Y-22140D01*
X47361Y-22165D01*
X47327Y-22184D01*
X47290Y-22195D01*
X47251Y-22199D01*
X47213Y-22196D01*
X47176Y-22185D01*
X47141Y-22167D01*
X47111Y-22142D01*
X47085Y-22112D01*
X47067Y-22078D01*
X47055Y-22041D01*
X47051Y-22002D01*
X47054Y-21964D01*
X47065Y-21927D01*
X47082Y-21892D01*
X47107Y-21862D01*
X47136Y-21836D01*
X47170Y-21817D01*
X47208Y-21805D01*
X47246Y-21801D01*
X47284Y-21804D01*
X47322Y-21814D01*
X47357Y-21832D01*
X47387Y-21856D01*
X47413Y-21885D01*
X47432Y-21919D01*
X47445Y-21956D01*
X47449Y-21995D01*
X47450Y-22000D01*
X47050Y-21800D02*
X47450Y-22200D01*
X47450Y-21800D02*
X47050Y-22200D01*
X48450Y-22000D02*
X48446Y-22038D01*
X48434Y-22076D01*
X48416Y-22110D01*
X48391Y-22140D01*
X48361Y-22165D01*
X48327Y-22184D01*
X48290Y-22195D01*
X48251Y-22199D01*
X48213Y-22196D01*
X48176Y-22185D01*
X48141Y-22167D01*
X48111Y-22142D01*
X48085Y-22112D01*
X48067Y-22078D01*
X48055Y-22041D01*
X48051Y-22002D01*
X48054Y-21964D01*
X48065Y-21927D01*
X48082Y-21892D01*
X48107Y-21862D01*
X48136Y-21836D01*
X48170Y-21817D01*
X48208Y-21805D01*
X48246Y-21801D01*
X48284Y-21804D01*
X48322Y-21814D01*
X48357Y-21832D01*
X48387Y-21856D01*
X48413Y-21885D01*
X48432Y-21919D01*
X48445Y-21956D01*
X48449Y-21995D01*
X48450Y-22000D01*
X48050Y-21800D02*
X48450Y-22200D01*
X48450Y-21800D02*
X48050Y-22200D01*
X48450Y-50500D02*
X48446Y-50538D01*
X48434Y-50576D01*
X48416Y-50610D01*
X48391Y-50640D01*
X48361Y-50665D01*
X48327Y-50684D01*
X48290Y-50695D01*
X48251Y-50699D01*
X48213Y-50696D01*
X48176Y-50685D01*
X48141Y-50667D01*
X48111Y-50642D01*
X48085Y-50612D01*
X48067Y-50578D01*
X48055Y-50541D01*
X48051Y-50502D01*
X48054Y-50464D01*
X48065Y-50427D01*
X48082Y-50392D01*
X48107Y-50362D01*
X48136Y-50336D01*
X48170Y-50317D01*
X48208Y-50305D01*
X48246Y-50301D01*
X48284Y-50304D01*
X48322Y-50314D01*
X48357Y-50332D01*
X48387Y-50356D01*
X48413Y-50385D01*
X48432Y-50419D01*
X48445Y-50456D01*
X48449Y-50495D01*
X48450Y-50500D01*
X48050Y-50300D02*
X48450Y-50700D01*
X48450Y-50300D02*
X48050Y-50700D01*
X49450Y-50500D02*
X49446Y-50538D01*
X49434Y-50576D01*
X49416Y-50610D01*
X49391Y-50640D01*
X49361Y-50665D01*
X49327Y-50684D01*
X49290Y-50695D01*
X49251Y-50699D01*
X49213Y-50696D01*
X49176Y-50685D01*
X49141Y-50667D01*
X49111Y-50642D01*
X49085Y-50612D01*
X49067Y-50578D01*
X49055Y-50541D01*
X49051Y-50502D01*
X49054Y-50464D01*
X49065Y-50427D01*
X49082Y-50392D01*
X49107Y-50362D01*
X49136Y-50336D01*
X49170Y-50317D01*
X49208Y-50305D01*
X49246Y-50301D01*
X49284Y-50304D01*
X49322Y-50314D01*
X49357Y-50332D01*
X49387Y-50356D01*
X49413Y-50385D01*
X49432Y-50419D01*
X49445Y-50456D01*
X49449Y-50495D01*
X49450Y-50500D01*
X49050Y-50300D02*
X49450Y-50700D01*
X49450Y-50300D02*
X49050Y-50700D01*
X50200Y-22000D02*
X50196Y-22038D01*
X50184Y-22076D01*
X50166Y-22110D01*
X50141Y-22140D01*
X50111Y-22165D01*
X50077Y-22184D01*
X50040Y-22195D01*
X50001Y-22199D01*
X49963Y-22196D01*
X49926Y-22185D01*
X49891Y-22167D01*
X49861Y-22142D01*
X49835Y-22112D01*
X49817Y-22078D01*
X49805Y-22041D01*
X49801Y-22002D01*
X49804Y-21964D01*
X49815Y-21927D01*
X49832Y-21892D01*
X49857Y-21862D01*
X49886Y-21836D01*
X49920Y-21817D01*
X49958Y-21805D01*
X49996Y-21801D01*
X50034Y-21804D01*
X50072Y-21814D01*
X50107Y-21832D01*
X50137Y-21856D01*
X50163Y-21885D01*
X50182Y-21919D01*
X50195Y-21956D01*
X50199Y-21995D01*
X50200Y-22000D01*
X49800Y-21800D02*
X50200Y-22200D01*
X50200Y-21800D02*
X49800Y-22200D01*
X51200Y-22000D02*
X51196Y-22038D01*
X51184Y-22076D01*
X51166Y-22110D01*
X51141Y-22140D01*
X51111Y-22165D01*
X51077Y-22184D01*
X51040Y-22195D01*
X51001Y-22199D01*
X50963Y-22196D01*
X50926Y-22185D01*
X50891Y-22167D01*
X50861Y-22142D01*
X50835Y-22112D01*
X50817Y-22078D01*
X50805Y-22041D01*
X50801Y-22002D01*
X50804Y-21964D01*
X50815Y-21927D01*
X50832Y-21892D01*
X50857Y-21862D01*
X50886Y-21836D01*
X50920Y-21817D01*
X50958Y-21805D01*
X50996Y-21801D01*
X51034Y-21804D01*
X51072Y-21814D01*
X51107Y-21832D01*
X51137Y-21856D01*
X51163Y-21885D01*
X51182Y-21919D01*
X51195Y-21956D01*
X51199Y-21995D01*
X51200Y-22000D01*
X50800Y-21800D02*
X51200Y-22200D01*
X51200Y-21800D02*
X50800Y-22200D01*
X52200Y-50500D02*
X52196Y-50538D01*
X52184Y-50576D01*
X52166Y-50610D01*
X52141Y-50640D01*
X52111Y-50665D01*
X52077Y-50684D01*
X52040Y-50695D01*
X52001Y-50699D01*
X51963Y-50696D01*
X51926Y-50685D01*
X51891Y-50667D01*
X51861Y-50642D01*
X51835Y-50612D01*
X51817Y-50578D01*
X51805Y-50541D01*
X51801Y-50502D01*
X51804Y-50464D01*
X51815Y-50427D01*
X51832Y-50392D01*
X51857Y-50362D01*
X51886Y-50336D01*
X51920Y-50317D01*
X51958Y-50305D01*
X51996Y-50301D01*
X52034Y-50304D01*
X52072Y-50314D01*
X52107Y-50332D01*
X52137Y-50356D01*
X52163Y-50385D01*
X52182Y-50419D01*
X52195Y-50456D01*
X52199Y-50495D01*
X52200Y-50500D01*
X51800Y-50300D02*
X52200Y-50700D01*
X52200Y-50300D02*
X51800Y-50700D01*
X53200Y-22000D02*
X53196Y-22038D01*
X53184Y-22076D01*
X53166Y-22110D01*
X53141Y-22140D01*
X53111Y-22165D01*
X53077Y-22184D01*
X53040Y-22195D01*
X53001Y-22199D01*
X52963Y-22196D01*
X52926Y-22185D01*
X52891Y-22167D01*
X52861Y-22142D01*
X52835Y-22112D01*
X52817Y-22078D01*
X52805Y-22041D01*
X52801Y-22002D01*
X52804Y-21964D01*
X52815Y-21927D01*
X52832Y-21892D01*
X52857Y-21862D01*
X52886Y-21836D01*
X52920Y-21817D01*
X52958Y-21805D01*
X52996Y-21801D01*
X53034Y-21804D01*
X53072Y-21814D01*
X53107Y-21832D01*
X53137Y-21856D01*
X53163Y-21885D01*
X53182Y-21919D01*
X53195Y-21956D01*
X53199Y-21995D01*
X53200Y-22000D01*
X52800Y-21800D02*
X53200Y-22200D01*
X53200Y-21800D02*
X52800Y-22200D01*
X53200Y-50500D02*
X53196Y-50538D01*
X53184Y-50576D01*
X53166Y-50610D01*
X53141Y-50640D01*
X53111Y-50665D01*
X53077Y-50684D01*
X53040Y-50695D01*
X53001Y-50699D01*
X52963Y-50696D01*
X52926Y-50685D01*
X52891Y-50667D01*
X52861Y-50642D01*
X52835Y-50612D01*
X52817Y-50578D01*
X52805Y-50541D01*
X52801Y-50502D01*
X52804Y-50464D01*
X52815Y-50427D01*
X52832Y-50392D01*
X52857Y-50362D01*
X52886Y-50336D01*
X52920Y-50317D01*
X52958Y-50305D01*
X52996Y-50301D01*
X53034Y-50304D01*
X53072Y-50314D01*
X53107Y-50332D01*
X53137Y-50356D01*
X53163Y-50385D01*
X53182Y-50419D01*
X53195Y-50456D01*
X53199Y-50495D01*
X53200Y-50500D01*
X52800Y-50300D02*
X53200Y-50700D01*
X53200Y-50300D02*
X52800Y-50700D01*
X54200Y-22000D02*
X54196Y-22038D01*
X54184Y-22076D01*
X54166Y-22110D01*
X54141Y-22140D01*
X54111Y-22165D01*
X54077Y-22184D01*
X54040Y-22195D01*
X54001Y-22199D01*
X53963Y-22196D01*
X53926Y-22185D01*
X53891Y-22167D01*
X53861Y-22142D01*
X53835Y-22112D01*
X53817Y-22078D01*
X53805Y-22041D01*
X53801Y-22002D01*
X53804Y-21964D01*
X53815Y-21927D01*
X53832Y-21892D01*
X53857Y-21862D01*
X53886Y-21836D01*
X53920Y-21817D01*
X53958Y-21805D01*
X53996Y-21801D01*
X54034Y-21804D01*
X54072Y-21814D01*
X54107Y-21832D01*
X54137Y-21856D01*
X54163Y-21885D01*
X54182Y-21919D01*
X54195Y-21956D01*
X54199Y-21995D01*
X54200Y-22000D01*
X53800Y-21800D02*
X54200Y-22200D01*
X54200Y-21800D02*
X53800Y-22200D01*
X55200Y-22000D02*
X55196Y-22038D01*
X55184Y-22076D01*
X55166Y-22110D01*
X55141Y-22140D01*
X55111Y-22165D01*
X55077Y-22184D01*
X55040Y-22195D01*
X55001Y-22199D01*
X54963Y-22196D01*
X54926Y-22185D01*
X54891Y-22167D01*
X54861Y-22142D01*
X54835Y-22112D01*
X54817Y-22078D01*
X54805Y-22041D01*
X54801Y-22002D01*
X54804Y-21964D01*
X54815Y-21927D01*
X54832Y-21892D01*
X54857Y-21862D01*
X54886Y-21836D01*
X54920Y-21817D01*
X54958Y-21805D01*
X54996Y-21801D01*
X55034Y-21804D01*
X55072Y-21814D01*
X55107Y-21832D01*
X55137Y-21856D01*
X55163Y-21885D01*
X55182Y-21919D01*
X55195Y-21956D01*
X55199Y-21995D01*
X55200Y-22000D01*
X54800Y-21800D02*
X55200Y-22200D01*
X55200Y-21800D02*
X54800Y-22200D01*
X56200Y-22000D02*
X56196Y-22038D01*
X56184Y-22076D01*
X56166Y-22110D01*
X56141Y-22140D01*
X56111Y-22165D01*
X56077Y-22184D01*
X56040Y-22195D01*
X56001Y-22199D01*
X55963Y-22196D01*
X55926Y-22185D01*
X55891Y-22167D01*
X55861Y-22142D01*
X55835Y-22112D01*
X55817Y-22078D01*
X55805Y-22041D01*
X55801Y-22002D01*
X55804Y-21964D01*
X55815Y-21927D01*
X55832Y-21892D01*
X55857Y-21862D01*
X55886Y-21836D01*
X55920Y-21817D01*
X55958Y-21805D01*
X55996Y-21801D01*
X56034Y-21804D01*
X56072Y-21814D01*
X56107Y-21832D01*
X56137Y-21856D01*
X56163Y-21885D01*
X56182Y-21919D01*
X56195Y-21956D01*
X56199Y-21995D01*
X56200Y-22000D01*
X55800Y-21800D02*
X56200Y-22200D01*
X56200Y-21800D02*
X55800Y-22200D01*
X56700Y-44500D02*
X56696Y-44538D01*
X56684Y-44576D01*
X56666Y-44610D01*
X56641Y-44640D01*
X56611Y-44665D01*
X56577Y-44684D01*
X56540Y-44695D01*
X56501Y-44699D01*
X56463Y-44696D01*
X56426Y-44685D01*
X56391Y-44667D01*
X56361Y-44642D01*
X56335Y-44612D01*
X56317Y-44578D01*
X56305Y-44541D01*
X56301Y-44502D01*
X56304Y-44464D01*
X56315Y-44427D01*
X56332Y-44392D01*
X56357Y-44362D01*
X56386Y-44336D01*
X56420Y-44317D01*
X56458Y-44305D01*
X56496Y-44301D01*
X56534Y-44304D01*
X56572Y-44314D01*
X56607Y-44332D01*
X56637Y-44356D01*
X56663Y-44385D01*
X56682Y-44419D01*
X56695Y-44456D01*
X56699Y-44495D01*
X56700Y-44500D01*
X56300Y-44300D02*
X56700Y-44700D01*
X56700Y-44300D02*
X56300Y-44700D01*
X56700Y-45500D02*
X56696Y-45538D01*
X56684Y-45576D01*
X56666Y-45610D01*
X56641Y-45640D01*
X56611Y-45665D01*
X56577Y-45684D01*
X56540Y-45695D01*
X56501Y-45699D01*
X56463Y-45696D01*
X56426Y-45685D01*
X56391Y-45667D01*
X56361Y-45642D01*
X56335Y-45612D01*
X56317Y-45578D01*
X56305Y-45541D01*
X56301Y-45502D01*
X56304Y-45464D01*
X56315Y-45427D01*
X56332Y-45392D01*
X56357Y-45362D01*
X56386Y-45336D01*
X56420Y-45317D01*
X56458Y-45305D01*
X56496Y-45301D01*
X56534Y-45304D01*
X56572Y-45314D01*
X56607Y-45332D01*
X56637Y-45356D01*
X56663Y-45385D01*
X56682Y-45419D01*
X56695Y-45456D01*
X56699Y-45495D01*
X56700Y-45500D01*
X56300Y-45300D02*
X56700Y-45700D01*
X56700Y-45300D02*
X56300Y-45700D01*
X56700Y-46500D02*
X56696Y-46538D01*
X56684Y-46576D01*
X56666Y-46610D01*
X56641Y-46640D01*
X56611Y-46665D01*
X56577Y-46684D01*
X56540Y-46695D01*
X56501Y-46699D01*
X56463Y-46696D01*
X56426Y-46685D01*
X56391Y-46667D01*
X56361Y-46642D01*
X56335Y-46612D01*
X56317Y-46578D01*
X56305Y-46541D01*
X56301Y-46502D01*
X56304Y-46464D01*
X56315Y-46427D01*
X56332Y-46392D01*
X56357Y-46362D01*
X56386Y-46336D01*
X56420Y-46317D01*
X56458Y-46305D01*
X56496Y-46301D01*
X56534Y-46304D01*
X56572Y-46314D01*
X56607Y-46332D01*
X56637Y-46356D01*
X56663Y-46385D01*
X56682Y-46419D01*
X56695Y-46456D01*
X56699Y-46495D01*
X56700Y-46500D01*
X56300Y-46300D02*
X56700Y-46700D01*
X56700Y-46300D02*
X56300Y-46700D01*
X58200Y-22000D02*
X58196Y-22038D01*
X58184Y-22076D01*
X58166Y-22110D01*
X58141Y-22140D01*
X58111Y-22165D01*
X58077Y-22184D01*
X58040Y-22195D01*
X58001Y-22199D01*
X57963Y-22196D01*
X57926Y-22185D01*
X57891Y-22167D01*
X57861Y-22142D01*
X57835Y-22112D01*
X57817Y-22078D01*
X57805Y-22041D01*
X57801Y-22002D01*
X57804Y-21964D01*
X57815Y-21927D01*
X57832Y-21892D01*
X57857Y-21862D01*
X57886Y-21836D01*
X57920Y-21817D01*
X57958Y-21805D01*
X57996Y-21801D01*
X58034Y-21804D01*
X58072Y-21814D01*
X58107Y-21832D01*
X58137Y-21856D01*
X58163Y-21885D01*
X58182Y-21919D01*
X58195Y-21956D01*
X58199Y-21995D01*
X58200Y-22000D01*
X57800Y-21800D02*
X58200Y-22200D01*
X58200Y-21800D02*
X57800Y-22200D01*
X59200Y-22000D02*
X59196Y-22038D01*
X59184Y-22076D01*
X59166Y-22110D01*
X59141Y-22140D01*
X59111Y-22165D01*
X59077Y-22184D01*
X59040Y-22195D01*
X59001Y-22199D01*
X58963Y-22196D01*
X58926Y-22185D01*
X58891Y-22167D01*
X58861Y-22142D01*
X58835Y-22112D01*
X58817Y-22078D01*
X58805Y-22041D01*
X58801Y-22002D01*
X58804Y-21964D01*
X58815Y-21927D01*
X58832Y-21892D01*
X58857Y-21862D01*
X58886Y-21836D01*
X58920Y-21817D01*
X58958Y-21805D01*
X58996Y-21801D01*
X59034Y-21804D01*
X59072Y-21814D01*
X59107Y-21832D01*
X59137Y-21856D01*
X59163Y-21885D01*
X59182Y-21919D01*
X59195Y-21956D01*
X59199Y-21995D01*
X59200Y-22000D01*
X58800Y-21800D02*
X59200Y-22200D01*
X59200Y-21800D02*
X58800Y-22200D01*
X60200Y-22000D02*
X60196Y-22038D01*
X60184Y-22076D01*
X60166Y-22110D01*
X60141Y-22140D01*
X60111Y-22165D01*
X60077Y-22184D01*
X60040Y-22195D01*
X60001Y-22199D01*
X59963Y-22196D01*
X59926Y-22185D01*
X59891Y-22167D01*
X59861Y-22142D01*
X59835Y-22112D01*
X59817Y-22078D01*
X59805Y-22041D01*
X59801Y-22002D01*
X59804Y-21964D01*
X59815Y-21927D01*
X59832Y-21892D01*
X59857Y-21862D01*
X59886Y-21836D01*
X59920Y-21817D01*
X59958Y-21805D01*
X59996Y-21801D01*
X60034Y-21804D01*
X60072Y-21814D01*
X60107Y-21832D01*
X60137Y-21856D01*
X60163Y-21885D01*
X60182Y-21919D01*
X60195Y-21956D01*
X60199Y-21995D01*
X60200Y-22000D01*
X59800Y-21800D02*
X60200Y-22200D01*
X60200Y-21800D02*
X59800Y-22200D01*
X61200Y-22000D02*
X61196Y-22038D01*
X61184Y-22076D01*
X61166Y-22110D01*
X61141Y-22140D01*
X61111Y-22165D01*
X61077Y-22184D01*
X61040Y-22195D01*
X61001Y-22199D01*
X60963Y-22196D01*
X60926Y-22185D01*
X60891Y-22167D01*
X60861Y-22142D01*
X60835Y-22112D01*
X60817Y-22078D01*
X60805Y-22041D01*
X60801Y-22002D01*
X60804Y-21964D01*
X60815Y-21927D01*
X60832Y-21892D01*
X60857Y-21862D01*
X60886Y-21836D01*
X60920Y-21817D01*
X60958Y-21805D01*
X60996Y-21801D01*
X61034Y-21804D01*
X61072Y-21814D01*
X61107Y-21832D01*
X61137Y-21856D01*
X61163Y-21885D01*
X61182Y-21919D01*
X61195Y-21956D01*
X61199Y-21995D01*
X61200Y-22000D01*
X60800Y-21800D02*
X61200Y-22200D01*
X61200Y-21800D02*
X60800Y-22200D01*
X61200Y-33000D02*
X61196Y-33038D01*
X61184Y-33076D01*
X61166Y-33110D01*
X61141Y-33140D01*
X61111Y-33165D01*
X61077Y-33184D01*
X61040Y-33195D01*
X61001Y-33199D01*
X60963Y-33196D01*
X60926Y-33185D01*
X60891Y-33167D01*
X60861Y-33142D01*
X60835Y-33112D01*
X60817Y-33078D01*
X60805Y-33041D01*
X60801Y-33002D01*
X60804Y-32964D01*
X60815Y-32927D01*
X60832Y-32892D01*
X60857Y-32862D01*
X60886Y-32836D01*
X60920Y-32817D01*
X60958Y-32805D01*
X60996Y-32801D01*
X61034Y-32804D01*
X61072Y-32814D01*
X61107Y-32832D01*
X61137Y-32856D01*
X61163Y-32885D01*
X61182Y-32919D01*
X61195Y-32956D01*
X61199Y-32995D01*
X61200Y-33000D01*
X60800Y-32800D02*
X61200Y-33200D01*
X61200Y-32800D02*
X60800Y-33200D01*
X61200Y-34000D02*
X61196Y-34038D01*
X61184Y-34076D01*
X61166Y-34110D01*
X61141Y-34140D01*
X61111Y-34165D01*
X61077Y-34184D01*
X61040Y-34195D01*
X61001Y-34199D01*
X60963Y-34196D01*
X60926Y-34185D01*
X60891Y-34167D01*
X60861Y-34142D01*
X60835Y-34112D01*
X60817Y-34078D01*
X60805Y-34041D01*
X60801Y-34002D01*
X60804Y-33964D01*
X60815Y-33927D01*
X60832Y-33892D01*
X60857Y-33862D01*
X60886Y-33836D01*
X60920Y-33817D01*
X60958Y-33805D01*
X60996Y-33801D01*
X61034Y-33804D01*
X61072Y-33814D01*
X61107Y-33832D01*
X61137Y-33856D01*
X61163Y-33885D01*
X61182Y-33919D01*
X61195Y-33956D01*
X61199Y-33995D01*
X61200Y-34000D01*
X60800Y-33800D02*
X61200Y-34200D01*
X61200Y-33800D02*
X60800Y-34200D01*
X61200Y-35000D02*
X61196Y-35038D01*
X61184Y-35076D01*
X61166Y-35110D01*
X61141Y-35140D01*
X61111Y-35165D01*
X61077Y-35184D01*
X61040Y-35195D01*
X61001Y-35199D01*
X60963Y-35196D01*
X60926Y-35185D01*
X60891Y-35167D01*
X60861Y-35142D01*
X60835Y-35112D01*
X60817Y-35078D01*
X60805Y-35041D01*
X60801Y-35002D01*
X60804Y-34964D01*
X60815Y-34927D01*
X60832Y-34892D01*
X60857Y-34862D01*
X60886Y-34836D01*
X60920Y-34817D01*
X60958Y-34805D01*
X60996Y-34801D01*
X61034Y-34804D01*
X61072Y-34814D01*
X61107Y-34832D01*
X61137Y-34856D01*
X61163Y-34885D01*
X61182Y-34919D01*
X61195Y-34956D01*
X61199Y-34995D01*
X61200Y-35000D01*
X60800Y-34800D02*
X61200Y-35200D01*
X61200Y-34800D02*
X60800Y-35200D01*
X61200Y-36000D02*
X61196Y-36038D01*
X61184Y-36076D01*
X61166Y-36110D01*
X61141Y-36140D01*
X61111Y-36165D01*
X61077Y-36184D01*
X61040Y-36195D01*
X61001Y-36199D01*
X60963Y-36196D01*
X60926Y-36185D01*
X60891Y-36167D01*
X60861Y-36142D01*
X60835Y-36112D01*
X60817Y-36078D01*
X60805Y-36041D01*
X60801Y-36002D01*
X60804Y-35964D01*
X60815Y-35927D01*
X60832Y-35892D01*
X60857Y-35862D01*
X60886Y-35836D01*
X60920Y-35817D01*
X60958Y-35805D01*
X60996Y-35801D01*
X61034Y-35804D01*
X61072Y-35814D01*
X61107Y-35832D01*
X61137Y-35856D01*
X61163Y-35885D01*
X61182Y-35919D01*
X61195Y-35956D01*
X61199Y-35995D01*
X61200Y-36000D01*
X60800Y-35800D02*
X61200Y-36200D01*
X61200Y-35800D02*
X60800Y-36200D01*
X61200Y-37000D02*
X61196Y-37038D01*
X61184Y-37076D01*
X61166Y-37110D01*
X61141Y-37140D01*
X61111Y-37165D01*
X61077Y-37184D01*
X61040Y-37195D01*
X61001Y-37199D01*
X60963Y-37196D01*
X60926Y-37185D01*
X60891Y-37167D01*
X60861Y-37142D01*
X60835Y-37112D01*
X60817Y-37078D01*
X60805Y-37041D01*
X60801Y-37002D01*
X60804Y-36964D01*
X60815Y-36927D01*
X60832Y-36892D01*
X60857Y-36862D01*
X60886Y-36836D01*
X60920Y-36817D01*
X60958Y-36805D01*
X60996Y-36801D01*
X61034Y-36804D01*
X61072Y-36814D01*
X61107Y-36832D01*
X61137Y-36856D01*
X61163Y-36885D01*
X61182Y-36919D01*
X61195Y-36956D01*
X61199Y-36995D01*
X61200Y-37000D01*
X60800Y-36800D02*
X61200Y-37200D01*
X61200Y-36800D02*
X60800Y-37200D01*
X61200Y-38000D02*
X61196Y-38038D01*
X61184Y-38076D01*
X61166Y-38110D01*
X61141Y-38140D01*
X61111Y-38165D01*
X61077Y-38184D01*
X61040Y-38195D01*
X61001Y-38199D01*
X60963Y-38196D01*
X60926Y-38185D01*
X60891Y-38167D01*
X60861Y-38142D01*
X60835Y-38112D01*
X60817Y-38078D01*
X60805Y-38041D01*
X60801Y-38002D01*
X60804Y-37964D01*
X60815Y-37927D01*
X60832Y-37892D01*
X60857Y-37862D01*
X60886Y-37836D01*
X60920Y-37817D01*
X60958Y-37805D01*
X60996Y-37801D01*
X61034Y-37804D01*
X61072Y-37814D01*
X61107Y-37832D01*
X61137Y-37856D01*
X61163Y-37885D01*
X61182Y-37919D01*
X61195Y-37956D01*
X61199Y-37995D01*
X61200Y-38000D01*
X60800Y-37800D02*
X61200Y-38200D01*
X61200Y-37800D02*
X60800Y-38200D01*
X61200Y-39000D02*
X61196Y-39038D01*
X61184Y-39076D01*
X61166Y-39110D01*
X61141Y-39140D01*
X61111Y-39165D01*
X61077Y-39184D01*
X61040Y-39195D01*
X61001Y-39199D01*
X60963Y-39196D01*
X60926Y-39185D01*
X60891Y-39167D01*
X60861Y-39142D01*
X60835Y-39112D01*
X60817Y-39078D01*
X60805Y-39041D01*
X60801Y-39002D01*
X60804Y-38964D01*
X60815Y-38927D01*
X60832Y-38892D01*
X60857Y-38862D01*
X60886Y-38836D01*
X60920Y-38817D01*
X60958Y-38805D01*
X60996Y-38801D01*
X61034Y-38804D01*
X61072Y-38814D01*
X61107Y-38832D01*
X61137Y-38856D01*
X61163Y-38885D01*
X61182Y-38919D01*
X61195Y-38956D01*
X61199Y-38995D01*
X61200Y-39000D01*
X60800Y-38800D02*
X61200Y-39200D01*
X61200Y-38800D02*
X60800Y-39200D01*
X61200Y-40000D02*
X61196Y-40038D01*
X61184Y-40076D01*
X61166Y-40110D01*
X61141Y-40140D01*
X61111Y-40165D01*
X61077Y-40184D01*
X61040Y-40195D01*
X61001Y-40199D01*
X60963Y-40196D01*
X60926Y-40185D01*
X60891Y-40167D01*
X60861Y-40142D01*
X60835Y-40112D01*
X60817Y-40078D01*
X60805Y-40041D01*
X60801Y-40002D01*
X60804Y-39964D01*
X60815Y-39927D01*
X60832Y-39892D01*
X60857Y-39862D01*
X60886Y-39836D01*
X60920Y-39817D01*
X60958Y-39805D01*
X60996Y-39801D01*
X61034Y-39804D01*
X61072Y-39814D01*
X61107Y-39832D01*
X61137Y-39856D01*
X61163Y-39885D01*
X61182Y-39919D01*
X61195Y-39956D01*
X61199Y-39995D01*
X61200Y-40000D01*
X60800Y-39800D02*
X61200Y-40200D01*
X61200Y-39800D02*
X60800Y-40200D01*
X62200Y-33000D02*
X62196Y-33038D01*
X62184Y-33076D01*
X62166Y-33110D01*
X62141Y-33140D01*
X62111Y-33165D01*
X62077Y-33184D01*
X62040Y-33195D01*
X62001Y-33199D01*
X61963Y-33196D01*
X61926Y-33185D01*
X61891Y-33167D01*
X61861Y-33142D01*
X61835Y-33112D01*
X61817Y-33078D01*
X61805Y-33041D01*
X61801Y-33002D01*
X61804Y-32964D01*
X61815Y-32927D01*
X61832Y-32892D01*
X61857Y-32862D01*
X61886Y-32836D01*
X61920Y-32817D01*
X61958Y-32805D01*
X61996Y-32801D01*
X62034Y-32804D01*
X62072Y-32814D01*
X62107Y-32832D01*
X62137Y-32856D01*
X62163Y-32885D01*
X62182Y-32919D01*
X62195Y-32956D01*
X62199Y-32995D01*
X62200Y-33000D01*
X61800Y-32800D02*
X62200Y-33200D01*
X62200Y-32800D02*
X61800Y-33200D01*
X62200Y-34000D02*
X62196Y-34038D01*
X62184Y-34076D01*
X62166Y-34110D01*
X62141Y-34140D01*
X62111Y-34165D01*
X62077Y-34184D01*
X62040Y-34195D01*
X62001Y-34199D01*
X61963Y-34196D01*
X61926Y-34185D01*
X61891Y-34167D01*
X61861Y-34142D01*
X61835Y-34112D01*
X61817Y-34078D01*
X61805Y-34041D01*
X61801Y-34002D01*
X61804Y-33964D01*
X61815Y-33927D01*
X61832Y-33892D01*
X61857Y-33862D01*
X61886Y-33836D01*
X61920Y-33817D01*
X61958Y-33805D01*
X61996Y-33801D01*
X62034Y-33804D01*
X62072Y-33814D01*
X62107Y-33832D01*
X62137Y-33856D01*
X62163Y-33885D01*
X62182Y-33919D01*
X62195Y-33956D01*
X62199Y-33995D01*
X62200Y-34000D01*
X61800Y-33800D02*
X62200Y-34200D01*
X62200Y-33800D02*
X61800Y-34200D01*
X62200Y-35000D02*
X62196Y-35038D01*
X62184Y-35076D01*
X62166Y-35110D01*
X62141Y-35140D01*
X62111Y-35165D01*
X62077Y-35184D01*
X62040Y-35195D01*
X62001Y-35199D01*
X61963Y-35196D01*
X61926Y-35185D01*
X61891Y-35167D01*
X61861Y-35142D01*
X61835Y-35112D01*
X61817Y-35078D01*
X61805Y-35041D01*
X61801Y-35002D01*
X61804Y-34964D01*
X61815Y-34927D01*
X61832Y-34892D01*
X61857Y-34862D01*
X61886Y-34836D01*
X61920Y-34817D01*
X61958Y-34805D01*
X61996Y-34801D01*
X62034Y-34804D01*
X62072Y-34814D01*
X62107Y-34832D01*
X62137Y-34856D01*
X62163Y-34885D01*
X62182Y-34919D01*
X62195Y-34956D01*
X62199Y-34995D01*
X62200Y-35000D01*
X61800Y-34800D02*
X62200Y-35200D01*
X62200Y-34800D02*
X61800Y-35200D01*
X62200Y-36000D02*
X62196Y-36038D01*
X62184Y-36076D01*
X62166Y-36110D01*
X62141Y-36140D01*
X62111Y-36165D01*
X62077Y-36184D01*
X62040Y-36195D01*
X62001Y-36199D01*
X61963Y-36196D01*
X61926Y-36185D01*
X61891Y-36167D01*
X61861Y-36142D01*
X61835Y-36112D01*
X61817Y-36078D01*
X61805Y-36041D01*
X61801Y-36002D01*
X61804Y-35964D01*
X61815Y-35927D01*
X61832Y-35892D01*
X61857Y-35862D01*
X61886Y-35836D01*
X61920Y-35817D01*
X61958Y-35805D01*
X61996Y-35801D01*
X62034Y-35804D01*
X62072Y-35814D01*
X62107Y-35832D01*
X62137Y-35856D01*
X62163Y-35885D01*
X62182Y-35919D01*
X62195Y-35956D01*
X62199Y-35995D01*
X62200Y-36000D01*
X61800Y-35800D02*
X62200Y-36200D01*
X62200Y-35800D02*
X61800Y-36200D01*
X62200Y-37000D02*
X62196Y-37038D01*
X62184Y-37076D01*
X62166Y-37110D01*
X62141Y-37140D01*
X62111Y-37165D01*
X62077Y-37184D01*
X62040Y-37195D01*
X62001Y-37199D01*
X61963Y-37196D01*
X61926Y-37185D01*
X61891Y-37167D01*
X61861Y-37142D01*
X61835Y-37112D01*
X61817Y-37078D01*
X61805Y-37041D01*
X61801Y-37002D01*
X61804Y-36964D01*
X61815Y-36927D01*
X61832Y-36892D01*
X61857Y-36862D01*
X61886Y-36836D01*
X61920Y-36817D01*
X61958Y-36805D01*
X61996Y-36801D01*
X62034Y-36804D01*
X62072Y-36814D01*
X62107Y-36832D01*
X62137Y-36856D01*
X62163Y-36885D01*
X62182Y-36919D01*
X62195Y-36956D01*
X62199Y-36995D01*
X62200Y-37000D01*
X61800Y-36800D02*
X62200Y-37200D01*
X62200Y-36800D02*
X61800Y-37200D01*
X62200Y-38000D02*
X62196Y-38038D01*
X62184Y-38076D01*
X62166Y-38110D01*
X62141Y-38140D01*
X62111Y-38165D01*
X62077Y-38184D01*
X62040Y-38195D01*
X62001Y-38199D01*
X61963Y-38196D01*
X61926Y-38185D01*
X61891Y-38167D01*
X61861Y-38142D01*
X61835Y-38112D01*
X61817Y-38078D01*
X61805Y-38041D01*
X61801Y-38002D01*
X61804Y-37964D01*
X61815Y-37927D01*
X61832Y-37892D01*
X61857Y-37862D01*
X61886Y-37836D01*
X61920Y-37817D01*
X61958Y-37805D01*
X61996Y-37801D01*
X62034Y-37804D01*
X62072Y-37814D01*
X62107Y-37832D01*
X62137Y-37856D01*
X62163Y-37885D01*
X62182Y-37919D01*
X62195Y-37956D01*
X62199Y-37995D01*
X62200Y-38000D01*
X61800Y-37800D02*
X62200Y-38200D01*
X62200Y-37800D02*
X61800Y-38200D01*
X62200Y-39000D02*
X62196Y-39038D01*
X62184Y-39076D01*
X62166Y-39110D01*
X62141Y-39140D01*
X62111Y-39165D01*
X62077Y-39184D01*
X62040Y-39195D01*
X62001Y-39199D01*
X61963Y-39196D01*
X61926Y-39185D01*
X61891Y-39167D01*
X61861Y-39142D01*
X61835Y-39112D01*
X61817Y-39078D01*
X61805Y-39041D01*
X61801Y-39002D01*
X61804Y-38964D01*
X61815Y-38927D01*
X61832Y-38892D01*
X61857Y-38862D01*
X61886Y-38836D01*
X61920Y-38817D01*
X61958Y-38805D01*
X61996Y-38801D01*
X62034Y-38804D01*
X62072Y-38814D01*
X62107Y-38832D01*
X62137Y-38856D01*
X62163Y-38885D01*
X62182Y-38919D01*
X62195Y-38956D01*
X62199Y-38995D01*
X62200Y-39000D01*
X61800Y-38800D02*
X62200Y-39200D01*
X62200Y-38800D02*
X61800Y-39200D01*
X62200Y-40000D02*
X62196Y-40038D01*
X62184Y-40076D01*
X62166Y-40110D01*
X62141Y-40140D01*
X62111Y-40165D01*
X62077Y-40184D01*
X62040Y-40195D01*
X62001Y-40199D01*
X61963Y-40196D01*
X61926Y-40185D01*
X61891Y-40167D01*
X61861Y-40142D01*
X61835Y-40112D01*
X61817Y-40078D01*
X61805Y-40041D01*
X61801Y-40002D01*
X61804Y-39964D01*
X61815Y-39927D01*
X61832Y-39892D01*
X61857Y-39862D01*
X61886Y-39836D01*
X61920Y-39817D01*
X61958Y-39805D01*
X61996Y-39801D01*
X62034Y-39804D01*
X62072Y-39814D01*
X62107Y-39832D01*
X62137Y-39856D01*
X62163Y-39885D01*
X62182Y-39919D01*
X62195Y-39956D01*
X62199Y-39995D01*
X62200Y-40000D01*
X61800Y-39800D02*
X62200Y-40200D01*
X62200Y-39800D02*
X61800Y-40200D01*
X64200Y-25500D02*
X64196Y-25538D01*
X64184Y-25576D01*
X64166Y-25610D01*
X64141Y-25640D01*
X64111Y-25665D01*
X64077Y-25684D01*
X64040Y-25695D01*
X64001Y-25699D01*
X63963Y-25696D01*
X63926Y-25685D01*
X63891Y-25667D01*
X63861Y-25642D01*
X63835Y-25612D01*
X63817Y-25578D01*
X63805Y-25541D01*
X63801Y-25502D01*
X63804Y-25464D01*
X63815Y-25427D01*
X63832Y-25392D01*
X63857Y-25362D01*
X63886Y-25336D01*
X63920Y-25317D01*
X63958Y-25305D01*
X63996Y-25301D01*
X64034Y-25304D01*
X64072Y-25314D01*
X64107Y-25332D01*
X64137Y-25356D01*
X64163Y-25385D01*
X64182Y-25419D01*
X64195Y-25456D01*
X64199Y-25495D01*
X64200Y-25500D01*
X63800Y-25300D02*
X64200Y-25700D01*
X64200Y-25300D02*
X63800Y-25700D01*
X64200Y-26500D02*
X64196Y-26538D01*
X64184Y-26576D01*
X64166Y-26610D01*
X64141Y-26640D01*
X64111Y-26665D01*
X64077Y-26684D01*
X64040Y-26695D01*
X64001Y-26699D01*
X63963Y-26696D01*
X63926Y-26685D01*
X63891Y-26667D01*
X63861Y-26642D01*
X63835Y-26612D01*
X63817Y-26578D01*
X63805Y-26541D01*
X63801Y-26502D01*
X63804Y-26464D01*
X63815Y-26427D01*
X63832Y-26392D01*
X63857Y-26362D01*
X63886Y-26336D01*
X63920Y-26317D01*
X63958Y-26305D01*
X63996Y-26301D01*
X64034Y-26304D01*
X64072Y-26314D01*
X64107Y-26332D01*
X64137Y-26356D01*
X64163Y-26385D01*
X64182Y-26419D01*
X64195Y-26456D01*
X64199Y-26495D01*
X64200Y-26500D01*
X63800Y-26300D02*
X64200Y-26700D01*
X64200Y-26300D02*
X63800Y-26700D01*
X64200Y-44250D02*
X64196Y-44288D01*
X64184Y-44326D01*
X64166Y-44360D01*
X64141Y-44390D01*
X64111Y-44415D01*
X64077Y-44434D01*
X64040Y-44445D01*
X64001Y-44449D01*
X63963Y-44446D01*
X63926Y-44435D01*
X63891Y-44417D01*
X63861Y-44392D01*
X63835Y-44362D01*
X63817Y-44328D01*
X63805Y-44291D01*
X63801Y-44252D01*
X63804Y-44214D01*
X63815Y-44177D01*
X63832Y-44142D01*
X63857Y-44112D01*
X63886Y-44086D01*
X63920Y-44067D01*
X63958Y-44055D01*
X63996Y-44051D01*
X64034Y-44054D01*
X64072Y-44064D01*
X64107Y-44082D01*
X64137Y-44106D01*
X64163Y-44135D01*
X64182Y-44169D01*
X64195Y-44206D01*
X64199Y-44245D01*
X64200Y-44250D01*
X63800Y-44050D02*
X64200Y-44450D01*
X64200Y-44050D02*
X63800Y-44450D01*
X65200Y-44250D02*
X65196Y-44288D01*
X65184Y-44326D01*
X65166Y-44360D01*
X65141Y-44390D01*
X65111Y-44415D01*
X65077Y-44434D01*
X65040Y-44445D01*
X65001Y-44449D01*
X64963Y-44446D01*
X64926Y-44435D01*
X64891Y-44417D01*
X64861Y-44392D01*
X64835Y-44362D01*
X64817Y-44328D01*
X64805Y-44291D01*
X64801Y-44252D01*
X64804Y-44214D01*
X64815Y-44177D01*
X64832Y-44142D01*
X64857Y-44112D01*
X64886Y-44086D01*
X64920Y-44067D01*
X64958Y-44055D01*
X64996Y-44051D01*
X65034Y-44054D01*
X65072Y-44064D01*
X65107Y-44082D01*
X65137Y-44106D01*
X65163Y-44135D01*
X65182Y-44169D01*
X65195Y-44206D01*
X65199Y-44245D01*
X65200Y-44250D01*
X64800Y-44050D02*
X65200Y-44450D01*
X65200Y-44050D02*
X64800Y-44450D01*
X40050Y-24500D02*
X40044Y-24558D01*
X40027Y-24614D01*
X39999Y-24666D01*
X39962Y-24711D01*
X39917Y-24748D01*
X39866Y-24776D01*
X39810Y-24793D01*
X39752Y-24799D01*
X39694Y-24794D01*
X39638Y-24778D01*
X39586Y-24751D01*
X39541Y-24714D01*
X39503Y-24669D01*
X39475Y-24618D01*
X39457Y-24562D01*
X39451Y-24504D01*
X39455Y-24446D01*
X39472Y-24390D01*
X39498Y-24338D01*
X39535Y-24292D01*
X39579Y-24254D01*
X39630Y-24226D01*
X39686Y-24207D01*
X39744Y-24201D01*
X39802Y-24205D01*
X39858Y-24221D01*
X39910Y-24247D01*
X39956Y-24283D01*
X39995Y-24328D01*
X40024Y-24378D01*
X40042Y-24434D01*
X40049Y-24492D01*
X40050Y-24500D01*
X39450Y-24500D02*
X40050Y-24500D01*
X40050Y-25500D02*
X40044Y-25558D01*
X40027Y-25614D01*
X39999Y-25666D01*
X39962Y-25711D01*
X39917Y-25748D01*
X39866Y-25776D01*
X39810Y-25793D01*
X39752Y-25799D01*
X39694Y-25794D01*
X39638Y-25778D01*
X39586Y-25751D01*
X39541Y-25714D01*
X39503Y-25669D01*
X39475Y-25618D01*
X39457Y-25562D01*
X39451Y-25504D01*
X39455Y-25446D01*
X39472Y-25390D01*
X39498Y-25338D01*
X39535Y-25292D01*
X39579Y-25254D01*
X39630Y-25226D01*
X39686Y-25207D01*
X39744Y-25201D01*
X39802Y-25205D01*
X39858Y-25221D01*
X39910Y-25247D01*
X39956Y-25283D01*
X39995Y-25328D01*
X40024Y-25378D01*
X40042Y-25434D01*
X40049Y-25492D01*
X40050Y-25500D01*
X39450Y-25500D02*
X40050Y-25500D01*
X41050Y-24500D02*
X41044Y-24558D01*
X41027Y-24614D01*
X40999Y-24666D01*
X40962Y-24711D01*
X40917Y-24748D01*
X40866Y-24776D01*
X40810Y-24793D01*
X40752Y-24799D01*
X40694Y-24794D01*
X40638Y-24778D01*
X40586Y-24751D01*
X40541Y-24714D01*
X40503Y-24669D01*
X40475Y-24618D01*
X40457Y-24562D01*
X40451Y-24504D01*
X40455Y-24446D01*
X40472Y-24390D01*
X40498Y-24338D01*
X40535Y-24292D01*
X40579Y-24254D01*
X40630Y-24226D01*
X40686Y-24207D01*
X40744Y-24201D01*
X40802Y-24205D01*
X40858Y-24221D01*
X40910Y-24247D01*
X40956Y-24283D01*
X40995Y-24328D01*
X41024Y-24378D01*
X41042Y-24434D01*
X41049Y-24492D01*
X41050Y-24500D01*
X40450Y-24500D02*
X41050Y-24500D01*
X42550Y-26500D02*
X42544Y-26558D01*
X42527Y-26614D01*
X42499Y-26666D01*
X42462Y-26711D01*
X42417Y-26748D01*
X42366Y-26776D01*
X42310Y-26793D01*
X42252Y-26799D01*
X42194Y-26794D01*
X42138Y-26778D01*
X42086Y-26751D01*
X42041Y-26714D01*
X42003Y-26669D01*
X41975Y-26618D01*
X41957Y-26562D01*
X41951Y-26504D01*
X41955Y-26446D01*
X41972Y-26390D01*
X41998Y-26338D01*
X42035Y-26292D01*
X42079Y-26254D01*
X42130Y-26226D01*
X42186Y-26207D01*
X42244Y-26201D01*
X42302Y-26205D01*
X42358Y-26221D01*
X42410Y-26247D01*
X42456Y-26283D01*
X42495Y-26328D01*
X42524Y-26378D01*
X42542Y-26434D01*
X42549Y-26492D01*
X42550Y-26500D01*
X41950Y-26500D02*
X42550Y-26500D01*
X42550Y-27500D02*
X42544Y-27558D01*
X42527Y-27614D01*
X42499Y-27666D01*
X42462Y-27711D01*
X42417Y-27748D01*
X42366Y-27776D01*
X42310Y-27793D01*
X42252Y-27799D01*
X42194Y-27794D01*
X42138Y-27778D01*
X42086Y-27751D01*
X42041Y-27714D01*
X42003Y-27669D01*
X41975Y-27618D01*
X41957Y-27562D01*
X41951Y-27504D01*
X41955Y-27446D01*
X41972Y-27390D01*
X41998Y-27338D01*
X42035Y-27292D01*
X42079Y-27254D01*
X42130Y-27226D01*
X42186Y-27207D01*
X42244Y-27201D01*
X42302Y-27205D01*
X42358Y-27221D01*
X42410Y-27247D01*
X42456Y-27283D01*
X42495Y-27328D01*
X42524Y-27378D01*
X42542Y-27434D01*
X42549Y-27492D01*
X42550Y-27500D01*
X41950Y-27500D02*
X42550Y-27500D01*
X43550Y-26500D02*
X43544Y-26558D01*
X43527Y-26614D01*
X43499Y-26666D01*
X43462Y-26711D01*
X43417Y-26748D01*
X43366Y-26776D01*
X43310Y-26793D01*
X43252Y-26799D01*
X43194Y-26794D01*
X43138Y-26778D01*
X43086Y-26751D01*
X43041Y-26714D01*
X43003Y-26669D01*
X42975Y-26618D01*
X42957Y-26562D01*
X42951Y-26504D01*
X42955Y-26446D01*
X42972Y-26390D01*
X42998Y-26338D01*
X43035Y-26292D01*
X43079Y-26254D01*
X43130Y-26226D01*
X43186Y-26207D01*
X43244Y-26201D01*
X43302Y-26205D01*
X43358Y-26221D01*
X43410Y-26247D01*
X43456Y-26283D01*
X43495Y-26328D01*
X43524Y-26378D01*
X43542Y-26434D01*
X43549Y-26492D01*
X43550Y-26500D01*
X42950Y-26500D02*
X43550Y-26500D01*
X43800Y-47500D02*
X43794Y-47558D01*
X43777Y-47614D01*
X43749Y-47666D01*
X43712Y-47711D01*
X43667Y-47748D01*
X43616Y-47776D01*
X43560Y-47793D01*
X43502Y-47799D01*
X43444Y-47794D01*
X43388Y-47778D01*
X43336Y-47751D01*
X43291Y-47714D01*
X43253Y-47669D01*
X43225Y-47618D01*
X43207Y-47562D01*
X43201Y-47504D01*
X43205Y-47446D01*
X43222Y-47390D01*
X43248Y-47338D01*
X43285Y-47292D01*
X43329Y-47254D01*
X43380Y-47226D01*
X43436Y-47207D01*
X43494Y-47201D01*
X43552Y-47205D01*
X43608Y-47221D01*
X43660Y-47247D01*
X43706Y-47283D01*
X43745Y-47328D01*
X43774Y-47378D01*
X43792Y-47434D01*
X43799Y-47492D01*
X43800Y-47500D01*
X43200Y-47500D02*
X43800Y-47500D01*
X43800Y-48500D02*
X43794Y-48558D01*
X43777Y-48614D01*
X43749Y-48666D01*
X43712Y-48711D01*
X43667Y-48748D01*
X43616Y-48776D01*
X43560Y-48793D01*
X43502Y-48799D01*
X43444Y-48794D01*
X43388Y-48778D01*
X43336Y-48751D01*
X43291Y-48714D01*
X43253Y-48669D01*
X43225Y-48618D01*
X43207Y-48562D01*
X43201Y-48504D01*
X43205Y-48446D01*
X43222Y-48390D01*
X43248Y-48338D01*
X43285Y-48292D01*
X43329Y-48254D01*
X43380Y-48226D01*
X43436Y-48207D01*
X43494Y-48201D01*
X43552Y-48205D01*
X43608Y-48221D01*
X43660Y-48247D01*
X43706Y-48283D01*
X43745Y-48328D01*
X43774Y-48378D01*
X43792Y-48434D01*
X43799Y-48492D01*
X43800Y-48500D01*
X43200Y-48500D02*
X43800Y-48500D01*
X44800Y-47500D02*
X44794Y-47558D01*
X44777Y-47614D01*
X44749Y-47666D01*
X44712Y-47711D01*
X44667Y-47748D01*
X44616Y-47776D01*
X44560Y-47793D01*
X44502Y-47799D01*
X44444Y-47794D01*
X44388Y-47778D01*
X44336Y-47751D01*
X44291Y-47714D01*
X44253Y-47669D01*
X44225Y-47618D01*
X44207Y-47562D01*
X44201Y-47504D01*
X44205Y-47446D01*
X44222Y-47390D01*
X44248Y-47338D01*
X44285Y-47292D01*
X44329Y-47254D01*
X44380Y-47226D01*
X44436Y-47207D01*
X44494Y-47201D01*
X44552Y-47205D01*
X44608Y-47221D01*
X44660Y-47247D01*
X44706Y-47283D01*
X44745Y-47328D01*
X44774Y-47378D01*
X44792Y-47434D01*
X44799Y-47492D01*
X44800Y-47500D01*
X44200Y-47500D02*
X44800Y-47500D01*
X45050Y-24500D02*
X45044Y-24558D01*
X45027Y-24614D01*
X44999Y-24666D01*
X44962Y-24711D01*
X44917Y-24748D01*
X44866Y-24776D01*
X44810Y-24793D01*
X44752Y-24799D01*
X44694Y-24794D01*
X44638Y-24778D01*
X44586Y-24751D01*
X44541Y-24714D01*
X44503Y-24669D01*
X44475Y-24618D01*
X44457Y-24562D01*
X44451Y-24504D01*
X44455Y-24446D01*
X44472Y-24390D01*
X44498Y-24338D01*
X44535Y-24292D01*
X44579Y-24254D01*
X44630Y-24226D01*
X44686Y-24207D01*
X44744Y-24201D01*
X44802Y-24205D01*
X44858Y-24221D01*
X44910Y-24247D01*
X44956Y-24283D01*
X44995Y-24328D01*
X45024Y-24378D01*
X45042Y-24434D01*
X45049Y-24492D01*
X45050Y-24500D01*
X44450Y-24500D02*
X45050Y-24500D01*
X45050Y-25500D02*
X45044Y-25558D01*
X45027Y-25614D01*
X44999Y-25666D01*
X44962Y-25711D01*
X44917Y-25748D01*
X44866Y-25776D01*
X44810Y-25793D01*
X44752Y-25799D01*
X44694Y-25794D01*
X44638Y-25778D01*
X44586Y-25751D01*
X44541Y-25714D01*
X44503Y-25669D01*
X44475Y-25618D01*
X44457Y-25562D01*
X44451Y-25504D01*
X44455Y-25446D01*
X44472Y-25390D01*
X44498Y-25338D01*
X44535Y-25292D01*
X44579Y-25254D01*
X44630Y-25226D01*
X44686Y-25207D01*
X44744Y-25201D01*
X44802Y-25205D01*
X44858Y-25221D01*
X44910Y-25247D01*
X44956Y-25283D01*
X44995Y-25328D01*
X45024Y-25378D01*
X45042Y-25434D01*
X45049Y-25492D01*
X45050Y-25500D01*
X44450Y-25500D02*
X45050Y-25500D01*
X46050Y-24500D02*
X46044Y-24558D01*
X46027Y-24614D01*
X45999Y-24666D01*
X45962Y-24711D01*
X45917Y-24748D01*
X45866Y-24776D01*
X45810Y-24793D01*
X45752Y-24799D01*
X45694Y-24794D01*
X45638Y-24778D01*
X45586Y-24751D01*
X45541Y-24714D01*
X45503Y-24669D01*
X45475Y-24618D01*
X45457Y-24562D01*
X45451Y-24504D01*
X45455Y-24446D01*
X45472Y-24390D01*
X45498Y-24338D01*
X45535Y-24292D01*
X45579Y-24254D01*
X45630Y-24226D01*
X45686Y-24207D01*
X45744Y-24201D01*
X45802Y-24205D01*
X45858Y-24221D01*
X45910Y-24247D01*
X45956Y-24283D01*
X45995Y-24328D01*
X46024Y-24378D01*
X46042Y-24434D01*
X46049Y-24492D01*
X46050Y-24500D01*
X45450Y-24500D02*
X46050Y-24500D01*
X47550Y-26500D02*
X47544Y-26558D01*
X47527Y-26614D01*
X47499Y-26666D01*
X47462Y-26711D01*
X47417Y-26748D01*
X47366Y-26776D01*
X47310Y-26793D01*
X47252Y-26799D01*
X47194Y-26794D01*
X47138Y-26778D01*
X47086Y-26751D01*
X47041Y-26714D01*
X47003Y-26669D01*
X46975Y-26618D01*
X46957Y-26562D01*
X46951Y-26504D01*
X46955Y-26446D01*
X46972Y-26390D01*
X46998Y-26338D01*
X47035Y-26292D01*
X47079Y-26254D01*
X47130Y-26226D01*
X47186Y-26207D01*
X47244Y-26201D01*
X47302Y-26205D01*
X47358Y-26221D01*
X47410Y-26247D01*
X47456Y-26283D01*
X47495Y-26328D01*
X47524Y-26378D01*
X47542Y-26434D01*
X47549Y-26492D01*
X47550Y-26500D01*
X46950Y-26500D02*
X47550Y-26500D01*
X47550Y-27500D02*
X47544Y-27558D01*
X47527Y-27614D01*
X47499Y-27666D01*
X47462Y-27711D01*
X47417Y-27748D01*
X47366Y-27776D01*
X47310Y-27793D01*
X47252Y-27799D01*
X47194Y-27794D01*
X47138Y-27778D01*
X47086Y-27751D01*
X47041Y-27714D01*
X47003Y-27669D01*
X46975Y-27618D01*
X46957Y-27562D01*
X46951Y-27504D01*
X46955Y-27446D01*
X46972Y-27390D01*
X46998Y-27338D01*
X47035Y-27292D01*
X47079Y-27254D01*
X47130Y-27226D01*
X47186Y-27207D01*
X47244Y-27201D01*
X47302Y-27205D01*
X47358Y-27221D01*
X47410Y-27247D01*
X47456Y-27283D01*
X47495Y-27328D01*
X47524Y-27378D01*
X47542Y-27434D01*
X47549Y-27492D01*
X47550Y-27500D01*
X46950Y-27500D02*
X47550Y-27500D01*
X47550Y-47500D02*
X47544Y-47558D01*
X47527Y-47614D01*
X47499Y-47666D01*
X47462Y-47711D01*
X47417Y-47748D01*
X47366Y-47776D01*
X47310Y-47793D01*
X47252Y-47799D01*
X47194Y-47794D01*
X47138Y-47778D01*
X47086Y-47751D01*
X47041Y-47714D01*
X47003Y-47669D01*
X46975Y-47618D01*
X46957Y-47562D01*
X46951Y-47504D01*
X46955Y-47446D01*
X46972Y-47390D01*
X46998Y-47338D01*
X47035Y-47292D01*
X47079Y-47254D01*
X47130Y-47226D01*
X47186Y-47207D01*
X47244Y-47201D01*
X47302Y-47205D01*
X47358Y-47221D01*
X47410Y-47247D01*
X47456Y-47283D01*
X47495Y-47328D01*
X47524Y-47378D01*
X47542Y-47434D01*
X47549Y-47492D01*
X47550Y-47500D01*
X46950Y-47500D02*
X47550Y-47500D01*
X47550Y-48500D02*
X47544Y-48558D01*
X47527Y-48614D01*
X47499Y-48666D01*
X47462Y-48711D01*
X47417Y-48748D01*
X47366Y-48776D01*
X47310Y-48793D01*
X47252Y-48799D01*
X47194Y-48794D01*
X47138Y-48778D01*
X47086Y-48751D01*
X47041Y-48714D01*
X47003Y-48669D01*
X46975Y-48618D01*
X46957Y-48562D01*
X46951Y-48504D01*
X46955Y-48446D01*
X46972Y-48390D01*
X46998Y-48338D01*
X47035Y-48292D01*
X47079Y-48254D01*
X47130Y-48226D01*
X47186Y-48207D01*
X47244Y-48201D01*
X47302Y-48205D01*
X47358Y-48221D01*
X47410Y-48247D01*
X47456Y-48283D01*
X47495Y-48328D01*
X47524Y-48378D01*
X47542Y-48434D01*
X47549Y-48492D01*
X47550Y-48500D01*
X46950Y-48500D02*
X47550Y-48500D01*
X48550Y-26500D02*
X48544Y-26558D01*
X48527Y-26614D01*
X48499Y-26666D01*
X48462Y-26711D01*
X48417Y-26748D01*
X48366Y-26776D01*
X48310Y-26793D01*
X48252Y-26799D01*
X48194Y-26794D01*
X48138Y-26778D01*
X48086Y-26751D01*
X48041Y-26714D01*
X48003Y-26669D01*
X47975Y-26618D01*
X47957Y-26562D01*
X47951Y-26504D01*
X47955Y-26446D01*
X47972Y-26390D01*
X47998Y-26338D01*
X48035Y-26292D01*
X48079Y-26254D01*
X48130Y-26226D01*
X48186Y-26207D01*
X48244Y-26201D01*
X48302Y-26205D01*
X48358Y-26221D01*
X48410Y-26247D01*
X48456Y-26283D01*
X48495Y-26328D01*
X48524Y-26378D01*
X48542Y-26434D01*
X48549Y-26492D01*
X48550Y-26500D01*
X47950Y-26500D02*
X48550Y-26500D01*
X48550Y-47500D02*
X48544Y-47558D01*
X48527Y-47614D01*
X48499Y-47666D01*
X48462Y-47711D01*
X48417Y-47748D01*
X48366Y-47776D01*
X48310Y-47793D01*
X48252Y-47799D01*
X48194Y-47794D01*
X48138Y-47778D01*
X48086Y-47751D01*
X48041Y-47714D01*
X48003Y-47669D01*
X47975Y-47618D01*
X47957Y-47562D01*
X47951Y-47504D01*
X47955Y-47446D01*
X47972Y-47390D01*
X47998Y-47338D01*
X48035Y-47292D01*
X48079Y-47254D01*
X48130Y-47226D01*
X48186Y-47207D01*
X48244Y-47201D01*
X48302Y-47205D01*
X48358Y-47221D01*
X48410Y-47247D01*
X48456Y-47283D01*
X48495Y-47328D01*
X48524Y-47378D01*
X48542Y-47434D01*
X48549Y-47492D01*
X48550Y-47500D01*
X47950Y-47500D02*
X48550Y-47500D01*
X49300Y-33250D02*
X49294Y-33308D01*
X49277Y-33364D01*
X49249Y-33416D01*
X49212Y-33461D01*
X49167Y-33498D01*
X49116Y-33526D01*
X49060Y-33543D01*
X49002Y-33549D01*
X48944Y-33544D01*
X48888Y-33528D01*
X48836Y-33501D01*
X48791Y-33464D01*
X48753Y-33419D01*
X48725Y-33368D01*
X48707Y-33312D01*
X48701Y-33254D01*
X48705Y-33196D01*
X48722Y-33140D01*
X48748Y-33088D01*
X48785Y-33042D01*
X48829Y-33004D01*
X48880Y-32976D01*
X48936Y-32957D01*
X48994Y-32951D01*
X49052Y-32955D01*
X49108Y-32971D01*
X49160Y-32997D01*
X49206Y-33033D01*
X49245Y-33078D01*
X49274Y-33128D01*
X49292Y-33184D01*
X49299Y-33242D01*
X49300Y-33250D01*
X48700Y-33250D02*
X49300Y-33250D01*
X49300Y-34250D02*
X49294Y-34308D01*
X49277Y-34364D01*
X49249Y-34416D01*
X49212Y-34461D01*
X49167Y-34498D01*
X49116Y-34526D01*
X49060Y-34543D01*
X49002Y-34549D01*
X48944Y-34544D01*
X48888Y-34528D01*
X48836Y-34501D01*
X48791Y-34464D01*
X48753Y-34419D01*
X48725Y-34368D01*
X48707Y-34312D01*
X48701Y-34254D01*
X48705Y-34196D01*
X48722Y-34140D01*
X48748Y-34088D01*
X48785Y-34042D01*
X48829Y-34004D01*
X48880Y-33976D01*
X48936Y-33957D01*
X48994Y-33951D01*
X49052Y-33955D01*
X49108Y-33971D01*
X49160Y-33997D01*
X49206Y-34033D01*
X49245Y-34078D01*
X49274Y-34128D01*
X49292Y-34184D01*
X49299Y-34242D01*
X49300Y-34250D01*
X48700Y-34250D02*
X49300Y-34250D01*
X49300Y-35250D02*
X49294Y-35308D01*
X49277Y-35364D01*
X49249Y-35416D01*
X49212Y-35461D01*
X49167Y-35498D01*
X49116Y-35526D01*
X49060Y-35543D01*
X49002Y-35549D01*
X48944Y-35544D01*
X48888Y-35528D01*
X48836Y-35501D01*
X48791Y-35464D01*
X48753Y-35419D01*
X48725Y-35368D01*
X48707Y-35312D01*
X48701Y-35254D01*
X48705Y-35196D01*
X48722Y-35140D01*
X48748Y-35088D01*
X48785Y-35042D01*
X48829Y-35004D01*
X48880Y-34976D01*
X48936Y-34957D01*
X48994Y-34951D01*
X49052Y-34955D01*
X49108Y-34971D01*
X49160Y-34997D01*
X49206Y-35033D01*
X49245Y-35078D01*
X49274Y-35128D01*
X49292Y-35184D01*
X49299Y-35242D01*
X49300Y-35250D01*
X48700Y-35250D02*
X49300Y-35250D01*
X50300Y-24500D02*
X50294Y-24558D01*
X50277Y-24614D01*
X50249Y-24666D01*
X50212Y-24711D01*
X50167Y-24748D01*
X50116Y-24776D01*
X50060Y-24793D01*
X50002Y-24799D01*
X49944Y-24794D01*
X49888Y-24778D01*
X49836Y-24751D01*
X49791Y-24714D01*
X49753Y-24669D01*
X49725Y-24618D01*
X49707Y-24562D01*
X49701Y-24504D01*
X49705Y-24446D01*
X49722Y-24390D01*
X49748Y-24338D01*
X49785Y-24292D01*
X49829Y-24254D01*
X49880Y-24226D01*
X49936Y-24207D01*
X49994Y-24201D01*
X50052Y-24205D01*
X50108Y-24221D01*
X50160Y-24247D01*
X50206Y-24283D01*
X50245Y-24328D01*
X50274Y-24378D01*
X50292Y-24434D01*
X50299Y-24492D01*
X50300Y-24500D01*
X49700Y-24500D02*
X50300Y-24500D01*
X50300Y-25500D02*
X50294Y-25558D01*
X50277Y-25614D01*
X50249Y-25666D01*
X50212Y-25711D01*
X50167Y-25748D01*
X50116Y-25776D01*
X50060Y-25793D01*
X50002Y-25799D01*
X49944Y-25794D01*
X49888Y-25778D01*
X49836Y-25751D01*
X49791Y-25714D01*
X49753Y-25669D01*
X49725Y-25618D01*
X49707Y-25562D01*
X49701Y-25504D01*
X49705Y-25446D01*
X49722Y-25390D01*
X49748Y-25338D01*
X49785Y-25292D01*
X49829Y-25254D01*
X49880Y-25226D01*
X49936Y-25207D01*
X49994Y-25201D01*
X50052Y-25205D01*
X50108Y-25221D01*
X50160Y-25247D01*
X50206Y-25283D01*
X50245Y-25328D01*
X50274Y-25378D01*
X50292Y-25434D01*
X50299Y-25492D01*
X50300Y-25500D01*
X49700Y-25500D02*
X50300Y-25500D01*
X51300Y-24500D02*
X51294Y-24558D01*
X51277Y-24614D01*
X51249Y-24666D01*
X51212Y-24711D01*
X51167Y-24748D01*
X51116Y-24776D01*
X51060Y-24793D01*
X51002Y-24799D01*
X50944Y-24794D01*
X50888Y-24778D01*
X50836Y-24751D01*
X50791Y-24714D01*
X50753Y-24669D01*
X50725Y-24618D01*
X50707Y-24562D01*
X50701Y-24504D01*
X50705Y-24446D01*
X50722Y-24390D01*
X50748Y-24338D01*
X50785Y-24292D01*
X50829Y-24254D01*
X50880Y-24226D01*
X50936Y-24207D01*
X50994Y-24201D01*
X51052Y-24205D01*
X51108Y-24221D01*
X51160Y-24247D01*
X51206Y-24283D01*
X51245Y-24328D01*
X51274Y-24378D01*
X51292Y-24434D01*
X51299Y-24492D01*
X51300Y-24500D01*
X50700Y-24500D02*
X51300Y-24500D01*
X51300Y-47500D02*
X51294Y-47558D01*
X51277Y-47614D01*
X51249Y-47666D01*
X51212Y-47711D01*
X51167Y-47748D01*
X51116Y-47776D01*
X51060Y-47793D01*
X51002Y-47799D01*
X50944Y-47794D01*
X50888Y-47778D01*
X50836Y-47751D01*
X50791Y-47714D01*
X50753Y-47669D01*
X50725Y-47618D01*
X50707Y-47562D01*
X50701Y-47504D01*
X50705Y-47446D01*
X50722Y-47390D01*
X50748Y-47338D01*
X50785Y-47292D01*
X50829Y-47254D01*
X50880Y-47226D01*
X50936Y-47207D01*
X50994Y-47201D01*
X51052Y-47205D01*
X51108Y-47221D01*
X51160Y-47247D01*
X51206Y-47283D01*
X51245Y-47328D01*
X51274Y-47378D01*
X51292Y-47434D01*
X51299Y-47492D01*
X51300Y-47500D01*
X50700Y-47500D02*
X51300Y-47500D01*
X51300Y-48500D02*
X51294Y-48558D01*
X51277Y-48614D01*
X51249Y-48666D01*
X51212Y-48711D01*
X51167Y-48748D01*
X51116Y-48776D01*
X51060Y-48793D01*
X51002Y-48799D01*
X50944Y-48794D01*
X50888Y-48778D01*
X50836Y-48751D01*
X50791Y-48714D01*
X50753Y-48669D01*
X50725Y-48618D01*
X50707Y-48562D01*
X50701Y-48504D01*
X50705Y-48446D01*
X50722Y-48390D01*
X50748Y-48338D01*
X50785Y-48292D01*
X50829Y-48254D01*
X50880Y-48226D01*
X50936Y-48207D01*
X50994Y-48201D01*
X51052Y-48205D01*
X51108Y-48221D01*
X51160Y-48247D01*
X51206Y-48283D01*
X51245Y-48328D01*
X51274Y-48378D01*
X51292Y-48434D01*
X51299Y-48492D01*
X51300Y-48500D01*
X50700Y-48500D02*
X51300Y-48500D01*
X52300Y-47500D02*
X52294Y-47558D01*
X52277Y-47614D01*
X52249Y-47666D01*
X52212Y-47711D01*
X52167Y-47748D01*
X52116Y-47776D01*
X52060Y-47793D01*
X52002Y-47799D01*
X51944Y-47794D01*
X51888Y-47778D01*
X51836Y-47751D01*
X51791Y-47714D01*
X51753Y-47669D01*
X51725Y-47618D01*
X51707Y-47562D01*
X51701Y-47504D01*
X51705Y-47446D01*
X51722Y-47390D01*
X51748Y-47338D01*
X51785Y-47292D01*
X51829Y-47254D01*
X51880Y-47226D01*
X51936Y-47207D01*
X51994Y-47201D01*
X52052Y-47205D01*
X52108Y-47221D01*
X52160Y-47247D01*
X52206Y-47283D01*
X52245Y-47328D01*
X52274Y-47378D01*
X52292Y-47434D01*
X52299Y-47492D01*
X52300Y-47500D01*
X51700Y-47500D02*
X52300Y-47500D01*
X23090Y-22500D02*
X23078Y-22614D01*
X23045Y-22724D01*
X22991Y-22826D01*
X22918Y-22915D01*
X22829Y-22989D01*
X22728Y-23043D01*
X22618Y-23077D01*
X22504Y-23089D01*
X22390Y-23079D01*
X22279Y-23047D01*
X22177Y-22993D01*
X22088Y-22921D01*
X22014Y-22833D01*
X21958Y-22732D01*
X21923Y-22622D01*
X21911Y-22508D01*
X21920Y-22394D01*
X21952Y-22283D01*
X22005Y-22181D01*
X22076Y-22091D01*
X22164Y-22016D01*
X22264Y-21960D01*
X22374Y-21924D01*
X22488Y-21911D01*
X22602Y-21919D01*
X22713Y-21950D01*
X22816Y-22002D01*
X22906Y-22073D01*
X22982Y-22160D01*
X23038Y-22261D01*
X23075Y-22370D01*
X23089Y-22484D01*
X23090Y-22500D01*
X22500Y-21910D02*
X22500Y-23090D01*
X23090Y-50000D02*
X23078Y-50114D01*
X23045Y-50224D01*
X22991Y-50326D01*
X22918Y-50415D01*
X22829Y-50489D01*
X22728Y-50543D01*
X22618Y-50577D01*
X22504Y-50589D01*
X22390Y-50579D01*
X22279Y-50547D01*
X22177Y-50493D01*
X22088Y-50421D01*
X22014Y-50333D01*
X21958Y-50232D01*
X21923Y-50122D01*
X21911Y-50008D01*
X21920Y-49894D01*
X21952Y-49783D01*
X22005Y-49681D01*
X22076Y-49591D01*
X22164Y-49516D01*
X22264Y-49460D01*
X22374Y-49424D01*
X22488Y-49411D01*
X22602Y-49419D01*
X22713Y-49450D01*
X22816Y-49502D01*
X22906Y-49573D01*
X22982Y-49660D01*
X23038Y-49761D01*
X23075Y-49870D01*
X23089Y-49984D01*
X23090Y-50000D01*
X22500Y-49410D02*
X22500Y-50590D01*
X25090Y-29500D02*
X25078Y-29614D01*
X25045Y-29724D01*
X24991Y-29826D01*
X24918Y-29915D01*
X24829Y-29989D01*
X24728Y-30043D01*
X24618Y-30077D01*
X24504Y-30089D01*
X24390Y-30079D01*
X24279Y-30047D01*
X24177Y-29993D01*
X24088Y-29921D01*
X24014Y-29833D01*
X23958Y-29732D01*
X23923Y-29622D01*
X23911Y-29508D01*
X23920Y-29394D01*
X23952Y-29283D01*
X24005Y-29181D01*
X24076Y-29091D01*
X24164Y-29016D01*
X24264Y-28960D01*
X24374Y-28924D01*
X24488Y-28911D01*
X24602Y-28919D01*
X24713Y-28950D01*
X24816Y-29002D01*
X24906Y-29073D01*
X24982Y-29160D01*
X25038Y-29261D01*
X25075Y-29370D01*
X25089Y-29484D01*
X25090Y-29500D01*
X24500Y-28910D02*
X24500Y-30090D01*
X25090Y-43500D02*
X25078Y-43614D01*
X25045Y-43724D01*
X24991Y-43826D01*
X24918Y-43915D01*
X24829Y-43989D01*
X24728Y-44043D01*
X24618Y-44077D01*
X24504Y-44089D01*
X24390Y-44079D01*
X24279Y-44047D01*
X24177Y-43993D01*
X24088Y-43921D01*
X24014Y-43833D01*
X23958Y-43732D01*
X23923Y-43622D01*
X23911Y-43508D01*
X23920Y-43394D01*
X23952Y-43283D01*
X24005Y-43181D01*
X24076Y-43091D01*
X24164Y-43016D01*
X24264Y-42960D01*
X24374Y-42924D01*
X24488Y-42911D01*
X24602Y-42919D01*
X24713Y-42950D01*
X24816Y-43002D01*
X24906Y-43073D01*
X24982Y-43160D01*
X25038Y-43261D01*
X25075Y-43370D01*
X25089Y-43484D01*
X25090Y-43500D01*
X24500Y-42910D02*
X24500Y-44090D01*
X55590Y-50000D02*
X55578Y-50114D01*
X55545Y-50224D01*
X55491Y-50326D01*
X55418Y-50415D01*
X55329Y-50489D01*
X55228Y-50543D01*
X55118Y-50577D01*
X55004Y-50589D01*
X54890Y-50579D01*
X54779Y-50547D01*
X54677Y-50493D01*
X54588Y-50421D01*
X54514Y-50333D01*
X54458Y-50232D01*
X54423Y-50122D01*
X54411Y-50008D01*
X54420Y-49894D01*
X54452Y-49783D01*
X54505Y-49681D01*
X54576Y-49591D01*
X54664Y-49516D01*
X54764Y-49460D01*
X54874Y-49424D01*
X54988Y-49411D01*
X55102Y-49419D01*
X55213Y-49450D01*
X55316Y-49502D01*
X55406Y-49573D01*
X55482Y-49660D01*
X55538Y-49761D01*
X55575Y-49870D01*
X55589Y-49984D01*
X55590Y-50000D01*
X55000Y-49410D02*
X55000Y-50590D01*
X56090Y-34250D02*
X56078Y-34364D01*
X56045Y-34474D01*
X55991Y-34576D01*
X55918Y-34665D01*
X55829Y-34739D01*
X55728Y-34793D01*
X55618Y-34827D01*
X55504Y-34839D01*
X55390Y-34829D01*
X55279Y-34797D01*
X55177Y-34743D01*
X55088Y-34671D01*
X55014Y-34583D01*
X54958Y-34482D01*
X54923Y-34372D01*
X54911Y-34258D01*
X54920Y-34144D01*
X54952Y-34033D01*
X55005Y-33931D01*
X55076Y-33841D01*
X55164Y-33766D01*
X55264Y-33710D01*
X55374Y-33674D01*
X55488Y-33661D01*
X55602Y-33669D01*
X55713Y-33700D01*
X55816Y-33752D01*
X55906Y-33823D01*
X55982Y-33910D01*
X56038Y-34011D01*
X56075Y-34120D01*
X56089Y-34234D01*
X56090Y-34250D01*
X55500Y-33660D02*
X55500Y-34840D01*
X62090Y-29500D02*
X62078Y-29614D01*
X62045Y-29724D01*
X61991Y-29826D01*
X61918Y-29915D01*
X61829Y-29989D01*
X61728Y-30043D01*
X61618Y-30077D01*
X61504Y-30089D01*
X61390Y-30079D01*
X61279Y-30047D01*
X61177Y-29993D01*
X61088Y-29921D01*
X61014Y-29833D01*
X60958Y-29732D01*
X60923Y-29622D01*
X60911Y-29508D01*
X60920Y-29394D01*
X60952Y-29283D01*
X61005Y-29181D01*
X61076Y-29091D01*
X61164Y-29016D01*
X61264Y-28960D01*
X61374Y-28924D01*
X61488Y-28911D01*
X61602Y-28919D01*
X61713Y-28950D01*
X61816Y-29002D01*
X61906Y-29073D01*
X61982Y-29160D01*
X62038Y-29261D01*
X62075Y-29370D01*
X62089Y-29484D01*
X62090Y-29500D01*
X61500Y-28910D02*
X61500Y-30090D01*
X62090Y-43500D02*
X62078Y-43614D01*
X62045Y-43724D01*
X61991Y-43826D01*
X61918Y-43915D01*
X61829Y-43989D01*
X61728Y-44043D01*
X61618Y-44077D01*
X61504Y-44089D01*
X61390Y-44079D01*
X61279Y-44047D01*
X61177Y-43993D01*
X61088Y-43921D01*
X61014Y-43833D01*
X60958Y-43732D01*
X60923Y-43622D01*
X60911Y-43508D01*
X60920Y-43394D01*
X60952Y-43283D01*
X61005Y-43181D01*
X61076Y-43091D01*
X61164Y-43016D01*
X61264Y-42960D01*
X61374Y-42924D01*
X61488Y-42911D01*
X61602Y-42919D01*
X61713Y-42950D01*
X61816Y-43002D01*
X61906Y-43073D01*
X61982Y-43160D01*
X62038Y-43261D01*
X62075Y-43370D01*
X62089Y-43484D01*
X62090Y-43500D01*
X61500Y-42910D02*
X61500Y-44090D01*
X64090Y-22500D02*
X64078Y-22614D01*
X64045Y-22724D01*
X63991Y-22826D01*
X63918Y-22915D01*
X63829Y-22989D01*
X63728Y-23043D01*
X63618Y-23077D01*
X63504Y-23089D01*
X63390Y-23079D01*
X63279Y-23047D01*
X63177Y-22993D01*
X63088Y-22921D01*
X63014Y-22833D01*
X62958Y-22732D01*
X62923Y-22622D01*
X62911Y-22508D01*
X62920Y-22394D01*
X62952Y-22283D01*
X63005Y-22181D01*
X63076Y-22091D01*
X63164Y-22016D01*
X63264Y-21960D01*
X63374Y-21924D01*
X63488Y-21911D01*
X63602Y-21919D01*
X63713Y-21950D01*
X63816Y-22002D01*
X63906Y-22073D01*
X63982Y-22160D01*
X64038Y-22261D01*
X64075Y-22370D01*
X64089Y-22484D01*
X64090Y-22500D01*
X63500Y-21910D02*
X63500Y-23090D01*
G54D12*
X12342Y-53855D02*
X12342Y-53055D01*
X12533Y-53055D01*
X12647Y-53093D01*
X12723Y-53169D01*
X12762Y-53245D01*
X12800Y-53398D01*
X12800Y-53512D01*
X12762Y-53664D01*
X12723Y-53741D01*
X12647Y-53817D01*
X12533Y-53855D01*
X12342Y-53855D01*
X13142Y-53855D02*
X13142Y-53321D01*
X13142Y-53474D02*
X13181Y-53398D01*
X13219Y-53360D01*
X13295Y-53321D01*
X13371Y-53321D01*
X13637Y-53855D02*
X13637Y-53321D01*
X13637Y-53055D02*
X13599Y-53093D01*
X13637Y-53131D01*
X13676Y-53093D01*
X13637Y-53055D01*
X13637Y-53131D01*
X14133Y-53855D02*
X14057Y-53817D01*
X14018Y-53741D01*
X14018Y-53055D01*
X14552Y-53855D02*
X14476Y-53817D01*
X14437Y-53741D01*
X14437Y-53055D01*
X15466Y-53855D02*
X15466Y-53055D01*
X15733Y-53626D01*
X16000Y-53055D01*
X16000Y-53855D01*
X16723Y-53855D02*
X16723Y-53436D01*
X16685Y-53360D01*
X16609Y-53321D01*
X16457Y-53321D01*
X16380Y-53360D01*
X16723Y-53817D02*
X16647Y-53855D01*
X16457Y-53855D01*
X16380Y-53817D01*
X16342Y-53741D01*
X16342Y-53664D01*
X16380Y-53588D01*
X16457Y-53550D01*
X16647Y-53550D01*
X16723Y-53512D01*
X17104Y-53321D02*
X17104Y-54121D01*
X17104Y-53360D02*
X17181Y-53321D01*
X17333Y-53321D01*
X17409Y-53360D01*
X17447Y-53398D01*
X17485Y-53474D01*
X17485Y-53702D01*
X17447Y-53779D01*
X17409Y-53817D01*
X17333Y-53855D01*
X17181Y-53855D01*
X17104Y-53817D01*
X17828Y-53779D02*
X17867Y-53817D01*
X17828Y-53855D01*
X17790Y-53817D01*
X17828Y-53779D01*
X17828Y-53855D01*
X17828Y-53360D02*
X17867Y-53398D01*
X17828Y-53436D01*
X17790Y-53398D01*
X17828Y-53360D01*
X17828Y-53436D01*
X11702Y-55086D02*
X11952Y-55336D01*
X11952Y-55086D02*
X11702Y-55336D01*
X12495Y-54735D02*
X12571Y-54735D01*
X12647Y-54773D01*
X12685Y-54811D01*
X12723Y-54887D01*
X12762Y-55040D01*
X12762Y-55230D01*
X12723Y-55382D01*
X12685Y-55459D01*
X12647Y-55497D01*
X12571Y-55535D01*
X12495Y-55535D01*
X12419Y-55497D01*
X12381Y-55459D01*
X12342Y-55382D01*
X12304Y-55230D01*
X12304Y-55040D01*
X12342Y-54887D01*
X12381Y-54811D01*
X12419Y-54773D01*
X12495Y-54735D01*
X13104Y-55459D02*
X13143Y-55497D01*
X13104Y-55535D01*
X13066Y-55497D01*
X13104Y-55459D01*
X13104Y-55535D01*
X13638Y-54735D02*
X13714Y-54735D01*
X13790Y-54773D01*
X13828Y-54811D01*
X13866Y-54887D01*
X13905Y-55040D01*
X13905Y-55230D01*
X13866Y-55382D01*
X13828Y-55459D01*
X13790Y-55497D01*
X13714Y-55535D01*
X13638Y-55535D01*
X13562Y-55497D01*
X13524Y-55459D01*
X13485Y-55382D01*
X13447Y-55230D01*
X13447Y-55040D01*
X13485Y-54887D01*
X13524Y-54811D01*
X13562Y-54773D01*
X13638Y-54735D01*
X14209Y-54811D02*
X14247Y-54773D01*
X14324Y-54735D01*
X14514Y-54735D01*
X14590Y-54773D01*
X14628Y-54811D01*
X14667Y-54887D01*
X14667Y-54963D01*
X14628Y-55078D01*
X14171Y-55535D01*
X14667Y-55535D01*
X15390Y-54735D02*
X15009Y-54735D01*
X14971Y-55116D01*
X15009Y-55078D01*
X15086Y-55040D01*
X15276Y-55040D01*
X15352Y-55078D01*
X15390Y-55116D01*
X15429Y-55192D01*
X15429Y-55382D01*
X15390Y-55459D01*
X15352Y-55497D01*
X15276Y-55535D01*
X15086Y-55535D01*
X15009Y-55497D01*
X14971Y-55459D01*
X15733Y-54735D02*
X15733Y-54887D01*
X16038Y-54735D02*
X16038Y-54887D01*
X17563Y-54697D02*
X16877Y-55725D01*
X18592Y-54735D02*
X18668Y-54735D01*
X18744Y-54773D01*
X18782Y-54811D01*
X18820Y-54887D01*
X18859Y-55040D01*
X18859Y-55230D01*
X18820Y-55382D01*
X18782Y-55459D01*
X18744Y-55497D01*
X18668Y-55535D01*
X18592Y-55535D01*
X18516Y-55497D01*
X18478Y-55459D01*
X18439Y-55382D01*
X18401Y-55230D01*
X18401Y-55040D01*
X18439Y-54887D01*
X18478Y-54811D01*
X18516Y-54773D01*
X18592Y-54735D01*
X19201Y-55459D02*
X19240Y-55497D01*
X19201Y-55535D01*
X19163Y-55497D01*
X19201Y-55459D01*
X19201Y-55535D01*
X19925Y-54735D02*
X19773Y-54735D01*
X19697Y-54773D01*
X19659Y-54811D01*
X19582Y-54925D01*
X19544Y-55078D01*
X19544Y-55382D01*
X19582Y-55459D01*
X19621Y-55497D01*
X19697Y-55535D01*
X19849Y-55535D01*
X19925Y-55497D01*
X19963Y-55459D01*
X20002Y-55382D01*
X20002Y-55192D01*
X19963Y-55116D01*
X19925Y-55078D01*
X19849Y-55040D01*
X19697Y-55040D01*
X19621Y-55078D01*
X19582Y-55116D01*
X19544Y-55192D01*
X20687Y-55001D02*
X20687Y-55535D01*
X20497Y-54697D02*
X20306Y-55268D01*
X20802Y-55268D01*
X21106Y-55535D02*
X21106Y-55001D01*
X21106Y-55078D02*
X21145Y-55040D01*
X21221Y-55001D01*
X21335Y-55001D01*
X21411Y-55040D01*
X21449Y-55116D01*
X21449Y-55535D01*
X21449Y-55116D02*
X21487Y-55040D01*
X21564Y-55001D01*
X21678Y-55001D01*
X21754Y-55040D01*
X21792Y-55116D01*
X21792Y-55535D01*
X22173Y-55535D02*
X22173Y-55001D01*
X22173Y-55078D02*
X22212Y-55040D01*
X22288Y-55001D01*
X22402Y-55001D01*
X22478Y-55040D01*
X22516Y-55116D01*
X22516Y-55535D01*
X22516Y-55116D02*
X22554Y-55040D01*
X22631Y-55001D01*
X22745Y-55001D01*
X22821Y-55040D01*
X22859Y-55116D01*
X22859Y-55535D01*
X24079Y-55840D02*
X24041Y-55801D01*
X23965Y-55687D01*
X23927Y-55611D01*
X23889Y-55497D01*
X23850Y-55306D01*
X23850Y-55154D01*
X23889Y-54963D01*
X23927Y-54849D01*
X23965Y-54773D01*
X24041Y-54659D01*
X24079Y-54621D01*
X24307Y-54735D02*
X24803Y-54735D01*
X24536Y-55040D01*
X24650Y-55040D01*
X24726Y-55078D01*
X24764Y-55116D01*
X24803Y-55192D01*
X24803Y-55382D01*
X24764Y-55459D01*
X24726Y-55497D01*
X24650Y-55535D01*
X24422Y-55535D01*
X24345Y-55497D01*
X24307Y-55459D01*
X25184Y-55535D02*
X25336Y-55535D01*
X25412Y-55497D01*
X25450Y-55459D01*
X25526Y-55344D01*
X25565Y-55192D01*
X25565Y-54887D01*
X25526Y-54811D01*
X25488Y-54773D01*
X25412Y-54735D01*
X25260Y-54735D01*
X25184Y-54773D01*
X25145Y-54811D01*
X25107Y-54887D01*
X25107Y-55078D01*
X25145Y-55154D01*
X25184Y-55192D01*
X25260Y-55230D01*
X25412Y-55230D01*
X25488Y-55192D01*
X25526Y-55154D01*
X25565Y-55078D01*
X26517Y-55535D02*
X26517Y-54735D01*
X26860Y-55535D02*
X26860Y-55116D01*
X26822Y-55040D01*
X26746Y-55001D01*
X26632Y-55001D01*
X26556Y-55040D01*
X26517Y-55078D01*
X27356Y-55535D02*
X27280Y-55497D01*
X27241Y-55459D01*
X27203Y-55382D01*
X27203Y-55154D01*
X27241Y-55078D01*
X27280Y-55040D01*
X27356Y-55001D01*
X27470Y-55001D01*
X27546Y-55040D01*
X27584Y-55078D01*
X27622Y-55154D01*
X27622Y-55382D01*
X27584Y-55459D01*
X27546Y-55497D01*
X27470Y-55535D01*
X27356Y-55535D01*
X28080Y-55535D02*
X28004Y-55497D01*
X27965Y-55421D01*
X27965Y-54735D01*
X28689Y-55497D02*
X28613Y-55535D01*
X28461Y-55535D01*
X28384Y-55497D01*
X28346Y-55421D01*
X28346Y-55116D01*
X28384Y-55040D01*
X28461Y-55001D01*
X28613Y-55001D01*
X28689Y-55040D01*
X28727Y-55116D01*
X28727Y-55192D01*
X28346Y-55268D01*
X29032Y-55497D02*
X29109Y-55535D01*
X29261Y-55535D01*
X29337Y-55497D01*
X29375Y-55421D01*
X29375Y-55382D01*
X29337Y-55306D01*
X29261Y-55268D01*
X29147Y-55268D01*
X29070Y-55230D01*
X29032Y-55154D01*
X29032Y-55116D01*
X29070Y-55040D01*
X29147Y-55001D01*
X29261Y-55001D01*
X29337Y-55040D01*
X29642Y-55840D02*
X29680Y-55801D01*
X29757Y-55687D01*
X29795Y-55611D01*
X29833Y-55497D01*
X29871Y-55306D01*
X29871Y-55154D01*
X29833Y-54963D01*
X29795Y-54849D01*
X29757Y-54773D01*
X29680Y-54659D01*
X29642Y-54621D01*
G54D10*
X11951Y-56266D02*
X11948Y-56296D01*
X11939Y-56325D01*
X11924Y-56352D01*
X11905Y-56376D01*
X11881Y-56396D01*
X11854Y-56410D01*
X11825Y-56419D01*
X11795Y-56422D01*
X11765Y-56420D01*
X11736Y-56411D01*
X11709Y-56397D01*
X11685Y-56378D01*
X11665Y-56354D01*
X11650Y-56327D01*
X11641Y-56298D01*
X11638Y-56268D01*
X11640Y-56238D01*
X11649Y-56209D01*
X11663Y-56181D01*
X11682Y-56157D01*
X11705Y-56138D01*
X11732Y-56123D01*
X11761Y-56113D01*
X11791Y-56110D01*
X11821Y-56112D01*
X11850Y-56120D01*
X11878Y-56134D01*
X11902Y-56153D01*
X11922Y-56176D01*
X11937Y-56203D01*
X11947Y-56232D01*
X11950Y-56262D01*
X11951Y-56266D01*
G54D12*
X12495Y-55790D02*
X12571Y-55790D01*
X12647Y-55828D01*
X12685Y-55866D01*
X12723Y-55942D01*
X12762Y-56095D01*
X12762Y-56285D01*
X12723Y-56437D01*
X12685Y-56514D01*
X12647Y-56552D01*
X12571Y-56590D01*
X12495Y-56590D01*
X12419Y-56552D01*
X12381Y-56514D01*
X12342Y-56437D01*
X12304Y-56285D01*
X12304Y-56095D01*
X12342Y-55942D01*
X12381Y-55866D01*
X12419Y-55828D01*
X12495Y-55790D01*
X13104Y-56514D02*
X13143Y-56552D01*
X13104Y-56590D01*
X13066Y-56552D01*
X13104Y-56514D01*
X13104Y-56590D01*
X13638Y-55790D02*
X13714Y-55790D01*
X13790Y-55828D01*
X13828Y-55866D01*
X13866Y-55942D01*
X13905Y-56095D01*
X13905Y-56285D01*
X13866Y-56437D01*
X13828Y-56514D01*
X13790Y-56552D01*
X13714Y-56590D01*
X13638Y-56590D01*
X13562Y-56552D01*
X13524Y-56514D01*
X13485Y-56437D01*
X13447Y-56285D01*
X13447Y-56095D01*
X13485Y-55942D01*
X13524Y-55866D01*
X13562Y-55828D01*
X13638Y-55790D01*
X14171Y-55790D02*
X14667Y-55790D01*
X14400Y-56095D01*
X14514Y-56095D01*
X14590Y-56133D01*
X14628Y-56171D01*
X14667Y-56247D01*
X14667Y-56437D01*
X14628Y-56514D01*
X14590Y-56552D01*
X14514Y-56590D01*
X14286Y-56590D01*
X14209Y-56552D01*
X14171Y-56514D01*
X14971Y-55866D02*
X15009Y-55828D01*
X15086Y-55790D01*
X15276Y-55790D01*
X15352Y-55828D01*
X15390Y-55866D01*
X15429Y-55942D01*
X15429Y-56018D01*
X15390Y-56133D01*
X14933Y-56590D01*
X15429Y-56590D01*
X15733Y-55790D02*
X15733Y-55942D01*
X16038Y-55790D02*
X16038Y-55942D01*
X17563Y-55752D02*
X16877Y-56780D01*
X18592Y-55790D02*
X18668Y-55790D01*
X18744Y-55828D01*
X18782Y-55866D01*
X18820Y-55942D01*
X18859Y-56095D01*
X18859Y-56285D01*
X18820Y-56437D01*
X18782Y-56514D01*
X18744Y-56552D01*
X18668Y-56590D01*
X18592Y-56590D01*
X18516Y-56552D01*
X18478Y-56514D01*
X18439Y-56437D01*
X18401Y-56285D01*
X18401Y-56095D01*
X18439Y-55942D01*
X18478Y-55866D01*
X18516Y-55828D01*
X18592Y-55790D01*
X19201Y-56514D02*
X19240Y-56552D01*
X19201Y-56590D01*
X19163Y-56552D01*
X19201Y-56514D01*
X19201Y-56590D01*
X19697Y-56133D02*
X19621Y-56095D01*
X19582Y-56056D01*
X19544Y-55980D01*
X19544Y-55942D01*
X19582Y-55866D01*
X19621Y-55828D01*
X19697Y-55790D01*
X19849Y-55790D01*
X19925Y-55828D01*
X19963Y-55866D01*
X20002Y-55942D01*
X20002Y-55980D01*
X19963Y-56056D01*
X19925Y-56095D01*
X19849Y-56133D01*
X19697Y-56133D01*
X19621Y-56171D01*
X19582Y-56209D01*
X19544Y-56285D01*
X19544Y-56437D01*
X19582Y-56514D01*
X19621Y-56552D01*
X19697Y-56590D01*
X19849Y-56590D01*
X19925Y-56552D01*
X19963Y-56514D01*
X20002Y-56437D01*
X20002Y-56285D01*
X19963Y-56209D01*
X19925Y-56171D01*
X19849Y-56133D01*
X20497Y-55790D02*
X20573Y-55790D01*
X20649Y-55828D01*
X20687Y-55866D01*
X20725Y-55942D01*
X20764Y-56095D01*
X20764Y-56285D01*
X20725Y-56437D01*
X20687Y-56514D01*
X20649Y-56552D01*
X20573Y-56590D01*
X20497Y-56590D01*
X20421Y-56552D01*
X20383Y-56514D01*
X20344Y-56437D01*
X20306Y-56285D01*
X20306Y-56095D01*
X20344Y-55942D01*
X20383Y-55866D01*
X20421Y-55828D01*
X20497Y-55790D01*
X21106Y-56590D02*
X21106Y-56056D01*
X21106Y-56133D02*
X21145Y-56095D01*
X21221Y-56056D01*
X21335Y-56056D01*
X21411Y-56095D01*
X21449Y-56171D01*
X21449Y-56590D01*
X21449Y-56171D02*
X21487Y-56095D01*
X21564Y-56056D01*
X21678Y-56056D01*
X21754Y-56095D01*
X21792Y-56171D01*
X21792Y-56590D01*
X22173Y-56590D02*
X22173Y-56056D01*
X22173Y-56133D02*
X22212Y-56095D01*
X22288Y-56056D01*
X22402Y-56056D01*
X22478Y-56095D01*
X22516Y-56171D01*
X22516Y-56590D01*
X22516Y-56171D02*
X22554Y-56095D01*
X22631Y-56056D01*
X22745Y-56056D01*
X22821Y-56095D01*
X22859Y-56171D01*
X22859Y-56590D01*
X24079Y-56895D02*
X24041Y-56856D01*
X23965Y-56742D01*
X23927Y-56666D01*
X23889Y-56552D01*
X23850Y-56361D01*
X23850Y-56209D01*
X23889Y-56018D01*
X23927Y-55904D01*
X23965Y-55828D01*
X24041Y-55714D01*
X24079Y-55676D01*
X24803Y-56590D02*
X24345Y-56590D01*
X24574Y-56590D02*
X24574Y-55790D01*
X24498Y-55904D01*
X24422Y-55980D01*
X24345Y-56018D01*
X25755Y-56590D02*
X25755Y-55790D01*
X26098Y-56590D02*
X26098Y-56171D01*
X26060Y-56095D01*
X25984Y-56056D01*
X25870Y-56056D01*
X25794Y-56095D01*
X25755Y-56133D01*
X26594Y-56590D02*
X26518Y-56552D01*
X26479Y-56514D01*
X26441Y-56437D01*
X26441Y-56209D01*
X26479Y-56133D01*
X26518Y-56095D01*
X26594Y-56056D01*
X26708Y-56056D01*
X26784Y-56095D01*
X26822Y-56133D01*
X26860Y-56209D01*
X26860Y-56437D01*
X26822Y-56514D01*
X26784Y-56552D01*
X26708Y-56590D01*
X26594Y-56590D01*
X27318Y-56590D02*
X27242Y-56552D01*
X27203Y-56476D01*
X27203Y-55790D01*
X27927Y-56552D02*
X27851Y-56590D01*
X27699Y-56590D01*
X27622Y-56552D01*
X27584Y-56476D01*
X27584Y-56171D01*
X27622Y-56095D01*
X27699Y-56056D01*
X27851Y-56056D01*
X27927Y-56095D01*
X27965Y-56171D01*
X27965Y-56247D01*
X27584Y-56323D01*
X28232Y-56895D02*
X28270Y-56856D01*
X28347Y-56742D01*
X28385Y-56666D01*
X28423Y-56552D01*
X28461Y-56361D01*
X28461Y-56209D01*
X28423Y-56018D01*
X28385Y-55904D01*
X28347Y-55828D01*
X28270Y-55714D01*
X28232Y-55676D01*
X11792Y-57161D02*
X11792Y-57481D01*
X11952Y-57321D02*
X11632Y-57321D01*
X12495Y-56845D02*
X12571Y-56845D01*
X12647Y-56883D01*
X12685Y-56921D01*
X12723Y-56997D01*
X12762Y-57150D01*
X12762Y-57340D01*
X12723Y-57492D01*
X12685Y-57569D01*
X12647Y-57607D01*
X12571Y-57645D01*
X12495Y-57645D01*
X12419Y-57607D01*
X12381Y-57569D01*
X12342Y-57492D01*
X12304Y-57340D01*
X12304Y-57150D01*
X12342Y-56997D01*
X12381Y-56921D01*
X12419Y-56883D01*
X12495Y-56845D01*
X13104Y-57569D02*
X13143Y-57607D01*
X13104Y-57645D01*
X13066Y-57607D01*
X13104Y-57569D01*
X13104Y-57645D01*
X13638Y-56845D02*
X13714Y-56845D01*
X13790Y-56883D01*
X13828Y-56921D01*
X13866Y-56997D01*
X13905Y-57150D01*
X13905Y-57340D01*
X13866Y-57492D01*
X13828Y-57569D01*
X13790Y-57607D01*
X13714Y-57645D01*
X13638Y-57645D01*
X13562Y-57607D01*
X13524Y-57569D01*
X13485Y-57492D01*
X13447Y-57340D01*
X13447Y-57150D01*
X13485Y-56997D01*
X13524Y-56921D01*
X13562Y-56883D01*
X13638Y-56845D01*
X14171Y-56845D02*
X14667Y-56845D01*
X14400Y-57150D01*
X14514Y-57150D01*
X14590Y-57188D01*
X14628Y-57226D01*
X14667Y-57302D01*
X14667Y-57492D01*
X14628Y-57569D01*
X14590Y-57607D01*
X14514Y-57645D01*
X14286Y-57645D01*
X14209Y-57607D01*
X14171Y-57569D01*
X14971Y-56921D02*
X15009Y-56883D01*
X15086Y-56845D01*
X15276Y-56845D01*
X15352Y-56883D01*
X15390Y-56921D01*
X15429Y-56997D01*
X15429Y-57073D01*
X15390Y-57188D01*
X14933Y-57645D01*
X15429Y-57645D01*
X15733Y-56845D02*
X15733Y-56997D01*
X16038Y-56845D02*
X16038Y-56997D01*
X17563Y-56807D02*
X16877Y-57835D01*
X18592Y-56845D02*
X18668Y-56845D01*
X18744Y-56883D01*
X18782Y-56921D01*
X18820Y-56997D01*
X18859Y-57150D01*
X18859Y-57340D01*
X18820Y-57492D01*
X18782Y-57569D01*
X18744Y-57607D01*
X18668Y-57645D01*
X18592Y-57645D01*
X18516Y-57607D01*
X18478Y-57569D01*
X18439Y-57492D01*
X18401Y-57340D01*
X18401Y-57150D01*
X18439Y-56997D01*
X18478Y-56921D01*
X18516Y-56883D01*
X18592Y-56845D01*
X19201Y-57569D02*
X19240Y-57607D01*
X19201Y-57645D01*
X19163Y-57607D01*
X19201Y-57569D01*
X19201Y-57645D01*
X19697Y-57188D02*
X19621Y-57150D01*
X19582Y-57111D01*
X19544Y-57035D01*
X19544Y-56997D01*
X19582Y-56921D01*
X19621Y-56883D01*
X19697Y-56845D01*
X19849Y-56845D01*
X19925Y-56883D01*
X19963Y-56921D01*
X20002Y-56997D01*
X20002Y-57035D01*
X19963Y-57111D01*
X19925Y-57150D01*
X19849Y-57188D01*
X19697Y-57188D01*
X19621Y-57226D01*
X19582Y-57264D01*
X19544Y-57340D01*
X19544Y-57492D01*
X19582Y-57569D01*
X19621Y-57607D01*
X19697Y-57645D01*
X19849Y-57645D01*
X19925Y-57607D01*
X19963Y-57569D01*
X20002Y-57492D01*
X20002Y-57340D01*
X19963Y-57264D01*
X19925Y-57226D01*
X19849Y-57188D01*
X20764Y-57645D02*
X20306Y-57645D01*
X20535Y-57645D02*
X20535Y-56845D01*
X20459Y-56959D01*
X20383Y-57035D01*
X20306Y-57073D01*
X21106Y-57645D02*
X21106Y-57111D01*
X21106Y-57188D02*
X21145Y-57150D01*
X21221Y-57111D01*
X21335Y-57111D01*
X21411Y-57150D01*
X21449Y-57226D01*
X21449Y-57645D01*
X21449Y-57226D02*
X21487Y-57150D01*
X21564Y-57111D01*
X21678Y-57111D01*
X21754Y-57150D01*
X21792Y-57226D01*
X21792Y-57645D01*
X22173Y-57645D02*
X22173Y-57111D01*
X22173Y-57188D02*
X22212Y-57150D01*
X22288Y-57111D01*
X22402Y-57111D01*
X22478Y-57150D01*
X22516Y-57226D01*
X22516Y-57645D01*
X22516Y-57226D02*
X22554Y-57150D01*
X22631Y-57111D01*
X22745Y-57111D01*
X22821Y-57150D01*
X22859Y-57226D01*
X22859Y-57645D01*
X24079Y-57950D02*
X24041Y-57911D01*
X23965Y-57797D01*
X23927Y-57721D01*
X23889Y-57607D01*
X23850Y-57416D01*
X23850Y-57264D01*
X23889Y-57073D01*
X23927Y-56959D01*
X23965Y-56883D01*
X24041Y-56769D01*
X24079Y-56731D01*
X24803Y-57645D02*
X24345Y-57645D01*
X24574Y-57645D02*
X24574Y-56845D01*
X24498Y-56959D01*
X24422Y-57035D01*
X24345Y-57073D01*
X25565Y-57645D02*
X25107Y-57645D01*
X25336Y-57645D02*
X25336Y-56845D01*
X25260Y-56959D01*
X25184Y-57035D01*
X25107Y-57073D01*
X26250Y-57111D02*
X26250Y-57645D01*
X26060Y-56807D02*
X25869Y-57378D01*
X26365Y-57378D01*
X27279Y-57645D02*
X27279Y-56845D01*
X27622Y-57645D02*
X27622Y-57226D01*
X27584Y-57150D01*
X27508Y-57111D01*
X27394Y-57111D01*
X27318Y-57150D01*
X27279Y-57188D01*
X28118Y-57645D02*
X28042Y-57607D01*
X28003Y-57569D01*
X27965Y-57492D01*
X27965Y-57264D01*
X28003Y-57188D01*
X28042Y-57150D01*
X28118Y-57111D01*
X28232Y-57111D01*
X28308Y-57150D01*
X28346Y-57188D01*
X28384Y-57264D01*
X28384Y-57492D01*
X28346Y-57569D01*
X28308Y-57607D01*
X28232Y-57645D01*
X28118Y-57645D01*
X28842Y-57645D02*
X28766Y-57607D01*
X28727Y-57531D01*
X28727Y-56845D01*
X29451Y-57607D02*
X29375Y-57645D01*
X29223Y-57645D01*
X29146Y-57607D01*
X29108Y-57531D01*
X29108Y-57226D01*
X29146Y-57150D01*
X29223Y-57111D01*
X29375Y-57111D01*
X29451Y-57150D01*
X29489Y-57226D01*
X29489Y-57302D01*
X29108Y-57378D01*
X29794Y-57607D02*
X29871Y-57645D01*
X30023Y-57645D01*
X30099Y-57607D01*
X30137Y-57531D01*
X30137Y-57492D01*
X30099Y-57416D01*
X30023Y-57378D01*
X29909Y-57378D01*
X29832Y-57340D01*
X29794Y-57264D01*
X29794Y-57226D01*
X29832Y-57150D01*
X29909Y-57111D01*
X30023Y-57111D01*
X30099Y-57150D01*
X30404Y-57950D02*
X30442Y-57911D01*
X30519Y-57797D01*
X30557Y-57721D01*
X30595Y-57607D01*
X30633Y-57416D01*
X30633Y-57264D01*
X30595Y-57073D01*
X30557Y-56959D01*
X30519Y-56883D01*
X30442Y-56769D01*
X30404Y-56731D01*
G54D10*
X11952Y-58376D02*
X11948Y-58414D01*
X11936Y-58452D01*
X11918Y-58486D01*
X11893Y-58516D01*
X11863Y-58541D01*
X11829Y-58560D01*
X11792Y-58571D01*
X11753Y-58575D01*
X11715Y-58572D01*
X11678Y-58561D01*
X11643Y-58543D01*
X11613Y-58518D01*
X11587Y-58488D01*
X11569Y-58454D01*
X11557Y-58417D01*
X11553Y-58378D01*
X11556Y-58340D01*
X11567Y-58303D01*
X11584Y-58268D01*
X11609Y-58238D01*
X11638Y-58212D01*
X11672Y-58193D01*
X11710Y-58181D01*
X11748Y-58177D01*
X11786Y-58180D01*
X11824Y-58190D01*
X11859Y-58208D01*
X11889Y-58232D01*
X11915Y-58261D01*
X11934Y-58295D01*
X11947Y-58332D01*
X11951Y-58371D01*
X11952Y-58376D01*
X11552Y-58176D02*
X11952Y-58576D01*
X11952Y-58176D02*
X11552Y-58576D01*
G54D12*
X12495Y-57900D02*
X12571Y-57900D01*
X12647Y-57938D01*
X12685Y-57976D01*
X12723Y-58052D01*
X12762Y-58205D01*
X12762Y-58395D01*
X12723Y-58547D01*
X12685Y-58624D01*
X12647Y-58662D01*
X12571Y-58700D01*
X12495Y-58700D01*
X12419Y-58662D01*
X12381Y-58624D01*
X12342Y-58547D01*
X12304Y-58395D01*
X12304Y-58205D01*
X12342Y-58052D01*
X12381Y-57976D01*
X12419Y-57938D01*
X12495Y-57900D01*
X13104Y-58624D02*
X13143Y-58662D01*
X13104Y-58700D01*
X13066Y-58662D01*
X13104Y-58624D01*
X13104Y-58700D01*
X13638Y-57900D02*
X13714Y-57900D01*
X13790Y-57938D01*
X13828Y-57976D01*
X13866Y-58052D01*
X13905Y-58205D01*
X13905Y-58395D01*
X13866Y-58547D01*
X13828Y-58624D01*
X13790Y-58662D01*
X13714Y-58700D01*
X13638Y-58700D01*
X13562Y-58662D01*
X13524Y-58624D01*
X13485Y-58547D01*
X13447Y-58395D01*
X13447Y-58205D01*
X13485Y-58052D01*
X13524Y-57976D01*
X13562Y-57938D01*
X13638Y-57900D01*
X14590Y-58166D02*
X14590Y-58700D01*
X14400Y-57862D02*
X14209Y-58433D01*
X14705Y-58433D01*
X15162Y-57900D02*
X15238Y-57900D01*
X15314Y-57938D01*
X15352Y-57976D01*
X15390Y-58052D01*
X15429Y-58205D01*
X15429Y-58395D01*
X15390Y-58547D01*
X15352Y-58624D01*
X15314Y-58662D01*
X15238Y-58700D01*
X15162Y-58700D01*
X15086Y-58662D01*
X15048Y-58624D01*
X15009Y-58547D01*
X14971Y-58395D01*
X14971Y-58205D01*
X15009Y-58052D01*
X15048Y-57976D01*
X15086Y-57938D01*
X15162Y-57900D01*
X15733Y-57900D02*
X15733Y-58052D01*
X16038Y-57900D02*
X16038Y-58052D01*
X17563Y-57862D02*
X16877Y-58890D01*
X18859Y-58700D02*
X18401Y-58700D01*
X18630Y-58700D02*
X18630Y-57900D01*
X18554Y-58014D01*
X18478Y-58090D01*
X18401Y-58128D01*
X19201Y-58624D02*
X19240Y-58662D01*
X19201Y-58700D01*
X19163Y-58662D01*
X19201Y-58624D01*
X19201Y-58700D01*
X19735Y-57900D02*
X19811Y-57900D01*
X19887Y-57938D01*
X19925Y-57976D01*
X19963Y-58052D01*
X20002Y-58205D01*
X20002Y-58395D01*
X19963Y-58547D01*
X19925Y-58624D01*
X19887Y-58662D01*
X19811Y-58700D01*
X19735Y-58700D01*
X19659Y-58662D01*
X19621Y-58624D01*
X19582Y-58547D01*
X19544Y-58395D01*
X19544Y-58205D01*
X19582Y-58052D01*
X19621Y-57976D01*
X19659Y-57938D01*
X19735Y-57900D01*
X20306Y-57976D02*
X20344Y-57938D01*
X20421Y-57900D01*
X20611Y-57900D01*
X20687Y-57938D01*
X20725Y-57976D01*
X20764Y-58052D01*
X20764Y-58128D01*
X20725Y-58243D01*
X20268Y-58700D01*
X20764Y-58700D01*
X21106Y-58700D02*
X21106Y-58166D01*
X21106Y-58243D02*
X21145Y-58205D01*
X21221Y-58166D01*
X21335Y-58166D01*
X21411Y-58205D01*
X21449Y-58281D01*
X21449Y-58700D01*
X21449Y-58281D02*
X21487Y-58205D01*
X21564Y-58166D01*
X21678Y-58166D01*
X21754Y-58205D01*
X21792Y-58281D01*
X21792Y-58700D01*
X22173Y-58700D02*
X22173Y-58166D01*
X22173Y-58243D02*
X22212Y-58205D01*
X22288Y-58166D01*
X22402Y-58166D01*
X22478Y-58205D01*
X22516Y-58281D01*
X22516Y-58700D01*
X22516Y-58281D02*
X22554Y-58205D01*
X22631Y-58166D01*
X22745Y-58166D01*
X22821Y-58205D01*
X22859Y-58281D01*
X22859Y-58700D01*
X24079Y-59005D02*
X24041Y-58966D01*
X23965Y-58852D01*
X23927Y-58776D01*
X23889Y-58662D01*
X23850Y-58471D01*
X23850Y-58319D01*
X23889Y-58128D01*
X23927Y-58014D01*
X23965Y-57938D01*
X24041Y-57824D01*
X24079Y-57786D01*
X24498Y-58243D02*
X24422Y-58205D01*
X24383Y-58166D01*
X24345Y-58090D01*
X24345Y-58052D01*
X24383Y-57976D01*
X24422Y-57938D01*
X24498Y-57900D01*
X24650Y-57900D01*
X24726Y-57938D01*
X24764Y-57976D01*
X24803Y-58052D01*
X24803Y-58090D01*
X24764Y-58166D01*
X24726Y-58205D01*
X24650Y-58243D01*
X24498Y-58243D01*
X24422Y-58281D01*
X24383Y-58319D01*
X24345Y-58395D01*
X24345Y-58547D01*
X24383Y-58624D01*
X24422Y-58662D01*
X24498Y-58700D01*
X24650Y-58700D01*
X24726Y-58662D01*
X24764Y-58624D01*
X24803Y-58547D01*
X24803Y-58395D01*
X24764Y-58319D01*
X24726Y-58281D01*
X24650Y-58243D01*
X25069Y-57900D02*
X25565Y-57900D01*
X25298Y-58205D01*
X25412Y-58205D01*
X25488Y-58243D01*
X25526Y-58281D01*
X25565Y-58357D01*
X25565Y-58547D01*
X25526Y-58624D01*
X25488Y-58662D01*
X25412Y-58700D01*
X25184Y-58700D01*
X25107Y-58662D01*
X25069Y-58624D01*
X26517Y-58700D02*
X26517Y-57900D01*
X26860Y-58700D02*
X26860Y-58281D01*
X26822Y-58205D01*
X26746Y-58166D01*
X26632Y-58166D01*
X26556Y-58205D01*
X26517Y-58243D01*
X27356Y-58700D02*
X27280Y-58662D01*
X27241Y-58624D01*
X27203Y-58547D01*
X27203Y-58319D01*
X27241Y-58243D01*
X27280Y-58205D01*
X27356Y-58166D01*
X27470Y-58166D01*
X27546Y-58205D01*
X27584Y-58243D01*
X27622Y-58319D01*
X27622Y-58547D01*
X27584Y-58624D01*
X27546Y-58662D01*
X27470Y-58700D01*
X27356Y-58700D01*
X28080Y-58700D02*
X28004Y-58662D01*
X27965Y-58586D01*
X27965Y-57900D01*
X28689Y-58662D02*
X28613Y-58700D01*
X28461Y-58700D01*
X28384Y-58662D01*
X28346Y-58586D01*
X28346Y-58281D01*
X28384Y-58205D01*
X28461Y-58166D01*
X28613Y-58166D01*
X28689Y-58205D01*
X28727Y-58281D01*
X28727Y-58357D01*
X28346Y-58433D01*
X29032Y-58662D02*
X29109Y-58700D01*
X29261Y-58700D01*
X29337Y-58662D01*
X29375Y-58586D01*
X29375Y-58547D01*
X29337Y-58471D01*
X29261Y-58433D01*
X29147Y-58433D01*
X29070Y-58395D01*
X29032Y-58319D01*
X29032Y-58281D01*
X29070Y-58205D01*
X29147Y-58166D01*
X29261Y-58166D01*
X29337Y-58205D01*
X29642Y-59005D02*
X29680Y-58966D01*
X29757Y-58852D01*
X29795Y-58776D01*
X29833Y-58662D01*
X29871Y-58471D01*
X29871Y-58319D01*
X29833Y-58128D01*
X29795Y-58014D01*
X29757Y-57938D01*
X29680Y-57824D01*
X29642Y-57786D01*
G54D10*
X11952Y-59431D02*
X11946Y-59489D01*
X11929Y-59545D01*
X11901Y-59597D01*
X11864Y-59642D01*
X11819Y-59679D01*
X11768Y-59707D01*
X11712Y-59724D01*
X11654Y-59730D01*
X11596Y-59725D01*
X11540Y-59709D01*
X11488Y-59682D01*
X11443Y-59645D01*
X11405Y-59600D01*
X11377Y-59549D01*
X11359Y-59493D01*
X11353Y-59435D01*
X11357Y-59377D01*
X11374Y-59321D01*
X11400Y-59269D01*
X11437Y-59223D01*
X11481Y-59185D01*
X11532Y-59157D01*
X11588Y-59138D01*
X11646Y-59132D01*
X11704Y-59136D01*
X11760Y-59152D01*
X11812Y-59178D01*
X11858Y-59214D01*
X11897Y-59259D01*
X11926Y-59309D01*
X11944Y-59365D01*
X11951Y-59423D01*
X11952Y-59431D01*
X11352Y-59431D02*
X11952Y-59431D01*
G54D12*
X12495Y-58955D02*
X12571Y-58955D01*
X12647Y-58993D01*
X12685Y-59031D01*
X12723Y-59107D01*
X12762Y-59260D01*
X12762Y-59450D01*
X12723Y-59602D01*
X12685Y-59679D01*
X12647Y-59717D01*
X12571Y-59755D01*
X12495Y-59755D01*
X12419Y-59717D01*
X12381Y-59679D01*
X12342Y-59602D01*
X12304Y-59450D01*
X12304Y-59260D01*
X12342Y-59107D01*
X12381Y-59031D01*
X12419Y-58993D01*
X12495Y-58955D01*
X13104Y-59679D02*
X13143Y-59717D01*
X13104Y-59755D01*
X13066Y-59717D01*
X13104Y-59679D01*
X13104Y-59755D01*
X13638Y-58955D02*
X13714Y-58955D01*
X13790Y-58993D01*
X13828Y-59031D01*
X13866Y-59107D01*
X13905Y-59260D01*
X13905Y-59450D01*
X13866Y-59602D01*
X13828Y-59679D01*
X13790Y-59717D01*
X13714Y-59755D01*
X13638Y-59755D01*
X13562Y-59717D01*
X13524Y-59679D01*
X13485Y-59602D01*
X13447Y-59450D01*
X13447Y-59260D01*
X13485Y-59107D01*
X13524Y-59031D01*
X13562Y-58993D01*
X13638Y-58955D01*
X14590Y-58955D02*
X14438Y-58955D01*
X14362Y-58993D01*
X14324Y-59031D01*
X14247Y-59145D01*
X14209Y-59298D01*
X14209Y-59602D01*
X14247Y-59679D01*
X14286Y-59717D01*
X14362Y-59755D01*
X14514Y-59755D01*
X14590Y-59717D01*
X14628Y-59679D01*
X14667Y-59602D01*
X14667Y-59412D01*
X14628Y-59336D01*
X14590Y-59298D01*
X14514Y-59260D01*
X14362Y-59260D01*
X14286Y-59298D01*
X14247Y-59336D01*
X14209Y-59412D01*
X15162Y-58955D02*
X15238Y-58955D01*
X15314Y-58993D01*
X15352Y-59031D01*
X15390Y-59107D01*
X15429Y-59260D01*
X15429Y-59450D01*
X15390Y-59602D01*
X15352Y-59679D01*
X15314Y-59717D01*
X15238Y-59755D01*
X15162Y-59755D01*
X15086Y-59717D01*
X15048Y-59679D01*
X15009Y-59602D01*
X14971Y-59450D01*
X14971Y-59260D01*
X15009Y-59107D01*
X15048Y-59031D01*
X15086Y-58993D01*
X15162Y-58955D01*
X15733Y-58955D02*
X15733Y-59107D01*
X16038Y-58955D02*
X16038Y-59107D01*
X17563Y-58917D02*
X16877Y-59945D01*
X18859Y-59755D02*
X18401Y-59755D01*
X18630Y-59755D02*
X18630Y-58955D01*
X18554Y-59069D01*
X18478Y-59145D01*
X18401Y-59183D01*
X19201Y-59679D02*
X19240Y-59717D01*
X19201Y-59755D01*
X19163Y-59717D01*
X19201Y-59679D01*
X19201Y-59755D01*
X19963Y-58955D02*
X19582Y-58955D01*
X19544Y-59336D01*
X19582Y-59298D01*
X19659Y-59260D01*
X19849Y-59260D01*
X19925Y-59298D01*
X19963Y-59336D01*
X20002Y-59412D01*
X20002Y-59602D01*
X19963Y-59679D01*
X19925Y-59717D01*
X19849Y-59755D01*
X19659Y-59755D01*
X19582Y-59717D01*
X19544Y-59679D01*
X20306Y-59031D02*
X20344Y-58993D01*
X20421Y-58955D01*
X20611Y-58955D01*
X20687Y-58993D01*
X20725Y-59031D01*
X20764Y-59107D01*
X20764Y-59183D01*
X20725Y-59298D01*
X20268Y-59755D01*
X20764Y-59755D01*
X21106Y-59755D02*
X21106Y-59221D01*
X21106Y-59298D02*
X21145Y-59260D01*
X21221Y-59221D01*
X21335Y-59221D01*
X21411Y-59260D01*
X21449Y-59336D01*
X21449Y-59755D01*
X21449Y-59336D02*
X21487Y-59260D01*
X21564Y-59221D01*
X21678Y-59221D01*
X21754Y-59260D01*
X21792Y-59336D01*
X21792Y-59755D01*
X22173Y-59755D02*
X22173Y-59221D01*
X22173Y-59298D02*
X22212Y-59260D01*
X22288Y-59221D01*
X22402Y-59221D01*
X22478Y-59260D01*
X22516Y-59336D01*
X22516Y-59755D01*
X22516Y-59336D02*
X22554Y-59260D01*
X22631Y-59221D01*
X22745Y-59221D01*
X22821Y-59260D01*
X22859Y-59336D01*
X22859Y-59755D01*
X24079Y-60060D02*
X24041Y-60021D01*
X23965Y-59907D01*
X23927Y-59831D01*
X23889Y-59717D01*
X23850Y-59526D01*
X23850Y-59374D01*
X23889Y-59183D01*
X23927Y-59069D01*
X23965Y-58993D01*
X24041Y-58879D01*
X24079Y-58841D01*
X24345Y-59031D02*
X24383Y-58993D01*
X24460Y-58955D01*
X24650Y-58955D01*
X24726Y-58993D01*
X24764Y-59031D01*
X24803Y-59107D01*
X24803Y-59183D01*
X24764Y-59298D01*
X24307Y-59755D01*
X24803Y-59755D01*
X25069Y-58955D02*
X25603Y-58955D01*
X25260Y-59755D01*
X26517Y-59755D02*
X26517Y-58955D01*
X26860Y-59755D02*
X26860Y-59336D01*
X26822Y-59260D01*
X26746Y-59221D01*
X26632Y-59221D01*
X26556Y-59260D01*
X26517Y-59298D01*
X27356Y-59755D02*
X27280Y-59717D01*
X27241Y-59679D01*
X27203Y-59602D01*
X27203Y-59374D01*
X27241Y-59298D01*
X27280Y-59260D01*
X27356Y-59221D01*
X27470Y-59221D01*
X27546Y-59260D01*
X27584Y-59298D01*
X27622Y-59374D01*
X27622Y-59602D01*
X27584Y-59679D01*
X27546Y-59717D01*
X27470Y-59755D01*
X27356Y-59755D01*
X28080Y-59755D02*
X28004Y-59717D01*
X27965Y-59641D01*
X27965Y-58955D01*
X28689Y-59717D02*
X28613Y-59755D01*
X28461Y-59755D01*
X28384Y-59717D01*
X28346Y-59641D01*
X28346Y-59336D01*
X28384Y-59260D01*
X28461Y-59221D01*
X28613Y-59221D01*
X28689Y-59260D01*
X28727Y-59336D01*
X28727Y-59412D01*
X28346Y-59488D01*
X29032Y-59717D02*
X29109Y-59755D01*
X29261Y-59755D01*
X29337Y-59717D01*
X29375Y-59641D01*
X29375Y-59602D01*
X29337Y-59526D01*
X29261Y-59488D01*
X29147Y-59488D01*
X29070Y-59450D01*
X29032Y-59374D01*
X29032Y-59336D01*
X29070Y-59260D01*
X29147Y-59221D01*
X29261Y-59221D01*
X29337Y-59260D01*
X29642Y-60060D02*
X29680Y-60021D01*
X29757Y-59907D01*
X29795Y-59831D01*
X29833Y-59717D01*
X29871Y-59526D01*
X29871Y-59374D01*
X29833Y-59183D01*
X29795Y-59069D01*
X29757Y-58993D01*
X29680Y-58879D01*
X29642Y-58841D01*
G54D10*
X11951Y-60486D02*
X11939Y-60600D01*
X11906Y-60710D01*
X11852Y-60812D01*
X11779Y-60901D01*
X11690Y-60975D01*
X11589Y-61029D01*
X11479Y-61063D01*
X11365Y-61075D01*
X11251Y-61065D01*
X11140Y-61033D01*
X11038Y-60979D01*
X10949Y-60907D01*
X10875Y-60819D01*
X10819Y-60718D01*
X10784Y-60608D01*
X10772Y-60494D01*
X10781Y-60380D01*
X10813Y-60269D01*
X10866Y-60167D01*
X10937Y-60077D01*
X11025Y-60002D01*
X11125Y-59946D01*
X11235Y-59910D01*
X11349Y-59897D01*
X11463Y-59905D01*
X11574Y-59936D01*
X11677Y-59988D01*
X11767Y-60059D01*
X11843Y-60146D01*
X11899Y-60247D01*
X11936Y-60356D01*
X11950Y-60470D01*
X11951Y-60486D01*
X11361Y-59896D02*
X11361Y-61076D01*
G54D12*
X12495Y-60010D02*
X12571Y-60010D01*
X12647Y-60048D01*
X12685Y-60086D01*
X12723Y-60162D01*
X12762Y-60315D01*
X12762Y-60505D01*
X12723Y-60657D01*
X12685Y-60734D01*
X12647Y-60772D01*
X12571Y-60810D01*
X12495Y-60810D01*
X12419Y-60772D01*
X12381Y-60734D01*
X12342Y-60657D01*
X12304Y-60505D01*
X12304Y-60315D01*
X12342Y-60162D01*
X12381Y-60086D01*
X12419Y-60048D01*
X12495Y-60010D01*
X13104Y-60734D02*
X13143Y-60772D01*
X13104Y-60810D01*
X13066Y-60772D01*
X13104Y-60734D01*
X13104Y-60810D01*
X13905Y-60810D02*
X13447Y-60810D01*
X13676Y-60810D02*
X13676Y-60010D01*
X13600Y-60124D01*
X13524Y-60200D01*
X13447Y-60238D01*
X14667Y-60810D02*
X14209Y-60810D01*
X14438Y-60810D02*
X14438Y-60010D01*
X14362Y-60124D01*
X14286Y-60200D01*
X14209Y-60238D01*
X15124Y-60353D02*
X15048Y-60315D01*
X15009Y-60276D01*
X14971Y-60200D01*
X14971Y-60162D01*
X15009Y-60086D01*
X15048Y-60048D01*
X15124Y-60010D01*
X15276Y-60010D01*
X15352Y-60048D01*
X15390Y-60086D01*
X15429Y-60162D01*
X15429Y-60200D01*
X15390Y-60276D01*
X15352Y-60315D01*
X15276Y-60353D01*
X15124Y-60353D01*
X15048Y-60391D01*
X15009Y-60429D01*
X14971Y-60505D01*
X14971Y-60657D01*
X15009Y-60734D01*
X15048Y-60772D01*
X15124Y-60810D01*
X15276Y-60810D01*
X15352Y-60772D01*
X15390Y-60734D01*
X15429Y-60657D01*
X15429Y-60505D01*
X15390Y-60429D01*
X15352Y-60391D01*
X15276Y-60353D01*
X15733Y-60010D02*
X15733Y-60162D01*
X16038Y-60010D02*
X16038Y-60162D01*
X17563Y-59972D02*
X16877Y-61000D01*
X18363Y-60010D02*
X18859Y-60010D01*
X18592Y-60315D01*
X18706Y-60315D01*
X18782Y-60353D01*
X18820Y-60391D01*
X18859Y-60467D01*
X18859Y-60657D01*
X18820Y-60734D01*
X18782Y-60772D01*
X18706Y-60810D01*
X18478Y-60810D01*
X18401Y-60772D01*
X18363Y-60734D01*
X19201Y-60734D02*
X19240Y-60772D01*
X19201Y-60810D01*
X19163Y-60772D01*
X19201Y-60734D01*
X19201Y-60810D01*
X19735Y-60010D02*
X19811Y-60010D01*
X19887Y-60048D01*
X19925Y-60086D01*
X19963Y-60162D01*
X20002Y-60315D01*
X20002Y-60505D01*
X19963Y-60657D01*
X19925Y-60734D01*
X19887Y-60772D01*
X19811Y-60810D01*
X19735Y-60810D01*
X19659Y-60772D01*
X19621Y-60734D01*
X19582Y-60657D01*
X19544Y-60505D01*
X19544Y-60315D01*
X19582Y-60162D01*
X19621Y-60086D01*
X19659Y-60048D01*
X19735Y-60010D01*
X20497Y-60010D02*
X20573Y-60010D01*
X20649Y-60048D01*
X20687Y-60086D01*
X20725Y-60162D01*
X20764Y-60315D01*
X20764Y-60505D01*
X20725Y-60657D01*
X20687Y-60734D01*
X20649Y-60772D01*
X20573Y-60810D01*
X20497Y-60810D01*
X20421Y-60772D01*
X20383Y-60734D01*
X20344Y-60657D01*
X20306Y-60505D01*
X20306Y-60315D01*
X20344Y-60162D01*
X20383Y-60086D01*
X20421Y-60048D01*
X20497Y-60010D01*
X21106Y-60810D02*
X21106Y-60276D01*
X21106Y-60353D02*
X21145Y-60315D01*
X21221Y-60276D01*
X21335Y-60276D01*
X21411Y-60315D01*
X21449Y-60391D01*
X21449Y-60810D01*
X21449Y-60391D02*
X21487Y-60315D01*
X21564Y-60276D01*
X21678Y-60276D01*
X21754Y-60315D01*
X21792Y-60391D01*
X21792Y-60810D01*
X22173Y-60810D02*
X22173Y-60276D01*
X22173Y-60353D02*
X22212Y-60315D01*
X22288Y-60276D01*
X22402Y-60276D01*
X22478Y-60315D01*
X22516Y-60391D01*
X22516Y-60810D01*
X22516Y-60391D02*
X22554Y-60315D01*
X22631Y-60276D01*
X22745Y-60276D01*
X22821Y-60315D01*
X22859Y-60391D01*
X22859Y-60810D01*
X24079Y-61115D02*
X24041Y-61076D01*
X23965Y-60962D01*
X23927Y-60886D01*
X23889Y-60772D01*
X23850Y-60581D01*
X23850Y-60429D01*
X23889Y-60238D01*
X23927Y-60124D01*
X23965Y-60048D01*
X24041Y-59934D01*
X24079Y-59896D01*
X24422Y-60810D02*
X24574Y-60810D01*
X24650Y-60772D01*
X24688Y-60734D01*
X24764Y-60619D01*
X24803Y-60467D01*
X24803Y-60162D01*
X24764Y-60086D01*
X24726Y-60048D01*
X24650Y-60010D01*
X24498Y-60010D01*
X24422Y-60048D01*
X24383Y-60086D01*
X24345Y-60162D01*
X24345Y-60353D01*
X24383Y-60429D01*
X24422Y-60467D01*
X24498Y-60505D01*
X24650Y-60505D01*
X24726Y-60467D01*
X24764Y-60429D01*
X24803Y-60353D01*
X25755Y-60810D02*
X25755Y-60010D01*
X26098Y-60810D02*
X26098Y-60391D01*
X26060Y-60315D01*
X25984Y-60276D01*
X25870Y-60276D01*
X25794Y-60315D01*
X25755Y-60353D01*
X26594Y-60810D02*
X26518Y-60772D01*
X26479Y-60734D01*
X26441Y-60657D01*
X26441Y-60429D01*
X26479Y-60353D01*
X26518Y-60315D01*
X26594Y-60276D01*
X26708Y-60276D01*
X26784Y-60315D01*
X26822Y-60353D01*
X26860Y-60429D01*
X26860Y-60657D01*
X26822Y-60734D01*
X26784Y-60772D01*
X26708Y-60810D01*
X26594Y-60810D01*
X27318Y-60810D02*
X27242Y-60772D01*
X27203Y-60696D01*
X27203Y-60010D01*
X27927Y-60772D02*
X27851Y-60810D01*
X27699Y-60810D01*
X27622Y-60772D01*
X27584Y-60696D01*
X27584Y-60391D01*
X27622Y-60315D01*
X27699Y-60276D01*
X27851Y-60276D01*
X27927Y-60315D01*
X27965Y-60391D01*
X27965Y-60467D01*
X27584Y-60543D01*
X28270Y-60772D02*
X28347Y-60810D01*
X28499Y-60810D01*
X28575Y-60772D01*
X28613Y-60696D01*
X28613Y-60657D01*
X28575Y-60581D01*
X28499Y-60543D01*
X28385Y-60543D01*
X28308Y-60505D01*
X28270Y-60429D01*
X28270Y-60391D01*
X28308Y-60315D01*
X28385Y-60276D01*
X28499Y-60276D01*
X28575Y-60315D01*
X28880Y-61115D02*
X28918Y-61076D01*
X28995Y-60962D01*
X29033Y-60886D01*
X29071Y-60772D01*
X29109Y-60581D01*
X29109Y-60429D01*
X29071Y-60238D01*
X29033Y-60124D01*
X28995Y-60048D01*
X28918Y-59934D01*
X28880Y-59896D01*
M02*
