M48
;DRILL file {Pcbnew (2012-01-19 BZR 3256)-stable} date 12/03/2013 15:32:27
;FORMAT={-:-/ absolute / metric / decimal}
FMAT,2
METRIC,TZ
T1C0.610
T2C0.813
T3C1.016
T4C1.397
T5C1.524
T6C3.000
T7C3.048
%
G90
G05
M71
T1
X100.330Y57.150
X100.330Y59.690
X105.410Y57.150
X105.410Y59.690
X128.270Y84.455
X128.270Y86.995
X130.810Y91.440
X130.810Y93.980
T2
X104.140Y81.915
X104.140Y100.330
X104.140Y120.015
X109.220Y67.945
X109.220Y75.565
X111.760Y81.915
X111.760Y100.330
X111.760Y120.015
X116.840Y67.310
X118.745Y91.440
X118.745Y93.980
X118.745Y96.520
X118.745Y99.060
X118.745Y101.600
X118.745Y104.140
X118.745Y106.680
X124.460Y67.310
X126.365Y91.440
X126.365Y93.980
X126.365Y96.520
X126.365Y99.060
X126.365Y101.600
X126.365Y104.140
X126.365Y106.680
T3
X69.215Y64.135
X71.755Y64.135
X92.710Y76.200
X92.710Y86.360
X92.710Y94.615
X92.710Y104.775
X92.710Y113.030
X92.710Y123.190
X109.220Y64.135
X111.760Y64.135
X114.300Y64.135
X116.840Y64.135
T4
X62.865Y76.200
X62.865Y83.820
X62.865Y94.615
X62.865Y102.235
X62.865Y113.030
X62.865Y120.650
X67.945Y76.200
X67.945Y83.820
X67.945Y94.615
X67.945Y102.235
X67.945Y113.030
X67.945Y120.650
X73.025Y76.200
X73.025Y83.820
X73.025Y94.615
X73.025Y102.235
X73.025Y113.030
X73.025Y120.650
X88.265Y76.200
X88.265Y83.820
X88.265Y94.615
X88.265Y102.235
X88.265Y113.030
X88.265Y120.650
X102.870Y64.770
X102.870Y67.310
X102.870Y69.850
T5
X55.880Y90.805
X55.880Y95.885
X55.880Y100.965
X55.880Y106.045
X96.520Y81.915
X96.520Y100.330
X96.520Y118.745
X99.060Y79.375
X99.060Y81.915
X99.060Y97.790
X99.060Y100.330
X99.060Y116.205
X99.060Y118.745
T6
X57.150Y127.000
X78.105Y57.150
X127.000Y57.150
X127.000Y127.000
T7
X86.360Y67.310
T0
M30
