G04 (created by PCBNEW (2012-01-19 BZR 3256)-stable) date 19/03/2013 15:20:12*
G01*
G70*
G90*
%MOIN*%
G04 Gerber Fmt 3.4, Leading zero omitted, Abs format*
%FSLAX34Y34*%
G04 APERTURE LIST*
%ADD10C,0.001000*%
%ADD11C,0.015000*%
%ADD12C,0.008000*%
G04 APERTURE END LIST*
G54D10*
G54D11*
X20000Y-27000D02*
X20750Y-27000D01*
X20000Y-51000D02*
X20000Y-27000D01*
X51000Y-52500D02*
X21500Y-52500D01*
X52500Y-21500D02*
X52500Y-51000D01*
X26500Y-20000D02*
X51000Y-20000D01*
X51000Y-20000D02*
X52500Y-21500D01*
X51000Y-52500D02*
X52500Y-51000D01*
X20000Y-51000D02*
X21500Y-52500D01*
X27250Y-27000D02*
X27250Y-20000D01*
X20750Y-27000D02*
X27250Y-27000D01*
G54D10*
X21125Y-42375D02*
X21375Y-42625D01*
X21375Y-42375D02*
X21125Y-42625D01*
X21125Y-43375D02*
X21375Y-43625D01*
X21375Y-43375D02*
X21125Y-43625D01*
X21625Y-28625D02*
X21875Y-28875D01*
X21875Y-28625D02*
X21625Y-28875D01*
X21625Y-33375D02*
X21875Y-33625D01*
X21875Y-33375D02*
X21625Y-33625D01*
X21625Y-35375D02*
X21875Y-35625D01*
X21875Y-35375D02*
X21625Y-35625D01*
X22625Y-33375D02*
X22875Y-33625D01*
X22875Y-33375D02*
X22625Y-33625D01*
X22625Y-35375D02*
X22875Y-35625D01*
X22875Y-35375D02*
X22625Y-35625D01*
X22875Y-42375D02*
X23125Y-42625D01*
X23125Y-42375D02*
X22875Y-42625D01*
X22875Y-43375D02*
X23125Y-43625D01*
X23125Y-43375D02*
X22875Y-43625D01*
X28375Y-26125D02*
X28625Y-26375D01*
X28625Y-26125D02*
X28375Y-26375D01*
X28375Y-45875D02*
X28625Y-46125D01*
X28625Y-45875D02*
X28375Y-46125D01*
X29375Y-30875D02*
X29625Y-31125D01*
X29625Y-30875D02*
X29375Y-31125D01*
X30625Y-30125D02*
X30875Y-30375D01*
X30875Y-30125D02*
X30625Y-30375D01*
X30625Y-37875D02*
X30875Y-38125D01*
X30875Y-37875D02*
X30625Y-38125D01*
X30625Y-44375D02*
X30875Y-44625D01*
X30875Y-44375D02*
X30625Y-44625D01*
X32125Y-24375D02*
X32375Y-24625D01*
X32375Y-24375D02*
X32125Y-24625D01*
X35125Y-47875D02*
X35375Y-48125D01*
X35375Y-47875D02*
X35125Y-48125D01*
X21910Y-37000D02*
X21906Y-37031D01*
X21897Y-37060D01*
X21883Y-37088D01*
X21863Y-37112D01*
X21839Y-37132D01*
X21812Y-37147D01*
X21782Y-37156D01*
X21751Y-37159D01*
X21721Y-37157D01*
X21691Y-37148D01*
X21663Y-37133D01*
X21639Y-37114D01*
X21618Y-37090D01*
X21603Y-37063D01*
X21594Y-37033D01*
X21591Y-37002D01*
X21593Y-36972D01*
X21602Y-36942D01*
X21616Y-36914D01*
X21635Y-36889D01*
X21659Y-36869D01*
X21686Y-36854D01*
X21716Y-36844D01*
X21747Y-36841D01*
X21777Y-36843D01*
X21807Y-36851D01*
X21835Y-36865D01*
X21860Y-36885D01*
X21880Y-36908D01*
X21896Y-36935D01*
X21906Y-36965D01*
X21909Y-36996D01*
X21910Y-37000D01*
X21910Y-40000D02*
X21906Y-40031D01*
X21897Y-40060D01*
X21883Y-40088D01*
X21863Y-40112D01*
X21839Y-40132D01*
X21812Y-40147D01*
X21782Y-40156D01*
X21751Y-40159D01*
X21721Y-40157D01*
X21691Y-40148D01*
X21663Y-40133D01*
X21639Y-40114D01*
X21618Y-40090D01*
X21603Y-40063D01*
X21594Y-40033D01*
X21591Y-40002D01*
X21593Y-39972D01*
X21602Y-39942D01*
X21616Y-39914D01*
X21635Y-39889D01*
X21659Y-39869D01*
X21686Y-39854D01*
X21716Y-39844D01*
X21747Y-39841D01*
X21777Y-39843D01*
X21807Y-39851D01*
X21835Y-39865D01*
X21860Y-39885D01*
X21880Y-39908D01*
X21896Y-39935D01*
X21906Y-39965D01*
X21909Y-39996D01*
X21910Y-40000D01*
X22910Y-37000D02*
X22906Y-37031D01*
X22897Y-37060D01*
X22883Y-37088D01*
X22863Y-37112D01*
X22839Y-37132D01*
X22812Y-37147D01*
X22782Y-37156D01*
X22751Y-37159D01*
X22721Y-37157D01*
X22691Y-37148D01*
X22663Y-37133D01*
X22639Y-37114D01*
X22618Y-37090D01*
X22603Y-37063D01*
X22594Y-37033D01*
X22591Y-37002D01*
X22593Y-36972D01*
X22602Y-36942D01*
X22616Y-36914D01*
X22635Y-36889D01*
X22659Y-36869D01*
X22686Y-36854D01*
X22716Y-36844D01*
X22747Y-36841D01*
X22777Y-36843D01*
X22807Y-36851D01*
X22835Y-36865D01*
X22860Y-36885D01*
X22880Y-36908D01*
X22896Y-36935D01*
X22906Y-36965D01*
X22909Y-36996D01*
X22910Y-37000D01*
X22910Y-40000D02*
X22906Y-40031D01*
X22897Y-40060D01*
X22883Y-40088D01*
X22863Y-40112D01*
X22839Y-40132D01*
X22812Y-40147D01*
X22782Y-40156D01*
X22751Y-40159D01*
X22721Y-40157D01*
X22691Y-40148D01*
X22663Y-40133D01*
X22639Y-40114D01*
X22618Y-40090D01*
X22603Y-40063D01*
X22594Y-40033D01*
X22591Y-40002D01*
X22593Y-39972D01*
X22602Y-39942D01*
X22616Y-39914D01*
X22635Y-39889D01*
X22659Y-39869D01*
X22686Y-39854D01*
X22716Y-39844D01*
X22747Y-39841D01*
X22777Y-39843D01*
X22807Y-39851D01*
X22835Y-39865D01*
X22860Y-39885D01*
X22880Y-39908D01*
X22896Y-39935D01*
X22906Y-39965D01*
X22909Y-39996D01*
X22910Y-40000D01*
X24160Y-31000D02*
X24156Y-31031D01*
X24147Y-31060D01*
X24133Y-31088D01*
X24113Y-31112D01*
X24089Y-31132D01*
X24062Y-31147D01*
X24032Y-31156D01*
X24001Y-31159D01*
X23971Y-31157D01*
X23941Y-31148D01*
X23913Y-31133D01*
X23889Y-31114D01*
X23868Y-31090D01*
X23853Y-31063D01*
X23844Y-31033D01*
X23841Y-31002D01*
X23843Y-30972D01*
X23852Y-30942D01*
X23866Y-30914D01*
X23885Y-30889D01*
X23909Y-30869D01*
X23936Y-30854D01*
X23966Y-30844D01*
X23997Y-30841D01*
X24027Y-30843D01*
X24057Y-30851D01*
X24085Y-30865D01*
X24110Y-30885D01*
X24130Y-30908D01*
X24146Y-30935D01*
X24156Y-30965D01*
X24159Y-30996D01*
X24160Y-31000D01*
X24160Y-32000D02*
X24156Y-32031D01*
X24147Y-32060D01*
X24133Y-32088D01*
X24113Y-32112D01*
X24089Y-32132D01*
X24062Y-32147D01*
X24032Y-32156D01*
X24001Y-32159D01*
X23971Y-32157D01*
X23941Y-32148D01*
X23913Y-32133D01*
X23889Y-32114D01*
X23868Y-32090D01*
X23853Y-32063D01*
X23844Y-32033D01*
X23841Y-32002D01*
X23843Y-31972D01*
X23852Y-31942D01*
X23866Y-31914D01*
X23885Y-31889D01*
X23909Y-31869D01*
X23936Y-31854D01*
X23966Y-31844D01*
X23997Y-31841D01*
X24027Y-31843D01*
X24057Y-31851D01*
X24085Y-31865D01*
X24110Y-31885D01*
X24130Y-31908D01*
X24146Y-31935D01*
X24156Y-31965D01*
X24159Y-31996D01*
X24160Y-32000D01*
X24160Y-33000D02*
X24156Y-33031D01*
X24147Y-33060D01*
X24133Y-33088D01*
X24113Y-33112D01*
X24089Y-33132D01*
X24062Y-33147D01*
X24032Y-33156D01*
X24001Y-33159D01*
X23971Y-33157D01*
X23941Y-33148D01*
X23913Y-33133D01*
X23889Y-33114D01*
X23868Y-33090D01*
X23853Y-33063D01*
X23844Y-33033D01*
X23841Y-33002D01*
X23843Y-32972D01*
X23852Y-32942D01*
X23866Y-32914D01*
X23885Y-32889D01*
X23909Y-32869D01*
X23936Y-32854D01*
X23966Y-32844D01*
X23997Y-32841D01*
X24027Y-32843D01*
X24057Y-32851D01*
X24085Y-32865D01*
X24110Y-32885D01*
X24130Y-32908D01*
X24146Y-32935D01*
X24156Y-32965D01*
X24159Y-32996D01*
X24160Y-33000D01*
X24160Y-34000D02*
X24156Y-34031D01*
X24147Y-34060D01*
X24133Y-34088D01*
X24113Y-34112D01*
X24089Y-34132D01*
X24062Y-34147D01*
X24032Y-34156D01*
X24001Y-34159D01*
X23971Y-34157D01*
X23941Y-34148D01*
X23913Y-34133D01*
X23889Y-34114D01*
X23868Y-34090D01*
X23853Y-34063D01*
X23844Y-34033D01*
X23841Y-34002D01*
X23843Y-33972D01*
X23852Y-33942D01*
X23866Y-33914D01*
X23885Y-33889D01*
X23909Y-33869D01*
X23936Y-33854D01*
X23966Y-33844D01*
X23997Y-33841D01*
X24027Y-33843D01*
X24057Y-33851D01*
X24085Y-33865D01*
X24110Y-33885D01*
X24130Y-33908D01*
X24146Y-33935D01*
X24156Y-33965D01*
X24159Y-33996D01*
X24160Y-34000D01*
X24160Y-35000D02*
X24156Y-35031D01*
X24147Y-35060D01*
X24133Y-35088D01*
X24113Y-35112D01*
X24089Y-35132D01*
X24062Y-35147D01*
X24032Y-35156D01*
X24001Y-35159D01*
X23971Y-35157D01*
X23941Y-35148D01*
X23913Y-35133D01*
X23889Y-35114D01*
X23868Y-35090D01*
X23853Y-35063D01*
X23844Y-35033D01*
X23841Y-35002D01*
X23843Y-34972D01*
X23852Y-34942D01*
X23866Y-34914D01*
X23885Y-34889D01*
X23909Y-34869D01*
X23936Y-34854D01*
X23966Y-34844D01*
X23997Y-34841D01*
X24027Y-34843D01*
X24057Y-34851D01*
X24085Y-34865D01*
X24110Y-34885D01*
X24130Y-34908D01*
X24146Y-34935D01*
X24156Y-34965D01*
X24159Y-34996D01*
X24160Y-35000D01*
X24160Y-36000D02*
X24156Y-36031D01*
X24147Y-36060D01*
X24133Y-36088D01*
X24113Y-36112D01*
X24089Y-36132D01*
X24062Y-36147D01*
X24032Y-36156D01*
X24001Y-36159D01*
X23971Y-36157D01*
X23941Y-36148D01*
X23913Y-36133D01*
X23889Y-36114D01*
X23868Y-36090D01*
X23853Y-36063D01*
X23844Y-36033D01*
X23841Y-36002D01*
X23843Y-35972D01*
X23852Y-35942D01*
X23866Y-35914D01*
X23885Y-35889D01*
X23909Y-35869D01*
X23936Y-35854D01*
X23966Y-35844D01*
X23997Y-35841D01*
X24027Y-35843D01*
X24057Y-35851D01*
X24085Y-35865D01*
X24110Y-35885D01*
X24130Y-35908D01*
X24146Y-35935D01*
X24156Y-35965D01*
X24159Y-35996D01*
X24160Y-36000D01*
X24160Y-37000D02*
X24156Y-37031D01*
X24147Y-37060D01*
X24133Y-37088D01*
X24113Y-37112D01*
X24089Y-37132D01*
X24062Y-37147D01*
X24032Y-37156D01*
X24001Y-37159D01*
X23971Y-37157D01*
X23941Y-37148D01*
X23913Y-37133D01*
X23889Y-37114D01*
X23868Y-37090D01*
X23853Y-37063D01*
X23844Y-37033D01*
X23841Y-37002D01*
X23843Y-36972D01*
X23852Y-36942D01*
X23866Y-36914D01*
X23885Y-36889D01*
X23909Y-36869D01*
X23936Y-36854D01*
X23966Y-36844D01*
X23997Y-36841D01*
X24027Y-36843D01*
X24057Y-36851D01*
X24085Y-36865D01*
X24110Y-36885D01*
X24130Y-36908D01*
X24146Y-36935D01*
X24156Y-36965D01*
X24159Y-36996D01*
X24160Y-37000D01*
X24160Y-39000D02*
X24156Y-39031D01*
X24147Y-39060D01*
X24133Y-39088D01*
X24113Y-39112D01*
X24089Y-39132D01*
X24062Y-39147D01*
X24032Y-39156D01*
X24001Y-39159D01*
X23971Y-39157D01*
X23941Y-39148D01*
X23913Y-39133D01*
X23889Y-39114D01*
X23868Y-39090D01*
X23853Y-39063D01*
X23844Y-39033D01*
X23841Y-39002D01*
X23843Y-38972D01*
X23852Y-38942D01*
X23866Y-38914D01*
X23885Y-38889D01*
X23909Y-38869D01*
X23936Y-38854D01*
X23966Y-38844D01*
X23997Y-38841D01*
X24027Y-38843D01*
X24057Y-38851D01*
X24085Y-38865D01*
X24110Y-38885D01*
X24130Y-38908D01*
X24146Y-38935D01*
X24156Y-38965D01*
X24159Y-38996D01*
X24160Y-39000D01*
X24160Y-40000D02*
X24156Y-40031D01*
X24147Y-40060D01*
X24133Y-40088D01*
X24113Y-40112D01*
X24089Y-40132D01*
X24062Y-40147D01*
X24032Y-40156D01*
X24001Y-40159D01*
X23971Y-40157D01*
X23941Y-40148D01*
X23913Y-40133D01*
X23889Y-40114D01*
X23868Y-40090D01*
X23853Y-40063D01*
X23844Y-40033D01*
X23841Y-40002D01*
X23843Y-39972D01*
X23852Y-39942D01*
X23866Y-39914D01*
X23885Y-39889D01*
X23909Y-39869D01*
X23936Y-39854D01*
X23966Y-39844D01*
X23997Y-39841D01*
X24027Y-39843D01*
X24057Y-39851D01*
X24085Y-39865D01*
X24110Y-39885D01*
X24130Y-39908D01*
X24146Y-39935D01*
X24156Y-39965D01*
X24159Y-39996D01*
X24160Y-40000D01*
X24160Y-41000D02*
X24156Y-41031D01*
X24147Y-41060D01*
X24133Y-41088D01*
X24113Y-41112D01*
X24089Y-41132D01*
X24062Y-41147D01*
X24032Y-41156D01*
X24001Y-41159D01*
X23971Y-41157D01*
X23941Y-41148D01*
X23913Y-41133D01*
X23889Y-41114D01*
X23868Y-41090D01*
X23853Y-41063D01*
X23844Y-41033D01*
X23841Y-41002D01*
X23843Y-40972D01*
X23852Y-40942D01*
X23866Y-40914D01*
X23885Y-40889D01*
X23909Y-40869D01*
X23936Y-40854D01*
X23966Y-40844D01*
X23997Y-40841D01*
X24027Y-40843D01*
X24057Y-40851D01*
X24085Y-40865D01*
X24110Y-40885D01*
X24130Y-40908D01*
X24146Y-40935D01*
X24156Y-40965D01*
X24159Y-40996D01*
X24160Y-41000D01*
X24160Y-42000D02*
X24156Y-42031D01*
X24147Y-42060D01*
X24133Y-42088D01*
X24113Y-42112D01*
X24089Y-42132D01*
X24062Y-42147D01*
X24032Y-42156D01*
X24001Y-42159D01*
X23971Y-42157D01*
X23941Y-42148D01*
X23913Y-42133D01*
X23889Y-42114D01*
X23868Y-42090D01*
X23853Y-42063D01*
X23844Y-42033D01*
X23841Y-42002D01*
X23843Y-41972D01*
X23852Y-41942D01*
X23866Y-41914D01*
X23885Y-41889D01*
X23909Y-41869D01*
X23936Y-41854D01*
X23966Y-41844D01*
X23997Y-41841D01*
X24027Y-41843D01*
X24057Y-41851D01*
X24085Y-41865D01*
X24110Y-41885D01*
X24130Y-41908D01*
X24146Y-41935D01*
X24156Y-41965D01*
X24159Y-41996D01*
X24160Y-42000D01*
X24660Y-45000D02*
X24656Y-45031D01*
X24647Y-45060D01*
X24633Y-45088D01*
X24613Y-45112D01*
X24589Y-45132D01*
X24562Y-45147D01*
X24532Y-45156D01*
X24501Y-45159D01*
X24471Y-45157D01*
X24441Y-45148D01*
X24413Y-45133D01*
X24389Y-45114D01*
X24368Y-45090D01*
X24353Y-45063D01*
X24344Y-45033D01*
X24341Y-45002D01*
X24343Y-44972D01*
X24352Y-44942D01*
X24366Y-44914D01*
X24385Y-44889D01*
X24409Y-44869D01*
X24436Y-44854D01*
X24466Y-44844D01*
X24497Y-44841D01*
X24527Y-44843D01*
X24557Y-44851D01*
X24585Y-44865D01*
X24610Y-44885D01*
X24630Y-44908D01*
X24646Y-44935D01*
X24656Y-44965D01*
X24659Y-44996D01*
X24660Y-45000D01*
X24660Y-47000D02*
X24656Y-47031D01*
X24647Y-47060D01*
X24633Y-47088D01*
X24613Y-47112D01*
X24589Y-47132D01*
X24562Y-47147D01*
X24532Y-47156D01*
X24501Y-47159D01*
X24471Y-47157D01*
X24441Y-47148D01*
X24413Y-47133D01*
X24389Y-47114D01*
X24368Y-47090D01*
X24353Y-47063D01*
X24344Y-47033D01*
X24341Y-47002D01*
X24343Y-46972D01*
X24352Y-46942D01*
X24366Y-46914D01*
X24385Y-46889D01*
X24409Y-46869D01*
X24436Y-46854D01*
X24466Y-46844D01*
X24497Y-46841D01*
X24527Y-46843D01*
X24557Y-46851D01*
X24585Y-46865D01*
X24610Y-46885D01*
X24630Y-46908D01*
X24646Y-46935D01*
X24656Y-46965D01*
X24659Y-46996D01*
X24660Y-47000D01*
X27160Y-31000D02*
X27156Y-31031D01*
X27147Y-31060D01*
X27133Y-31088D01*
X27113Y-31112D01*
X27089Y-31132D01*
X27062Y-31147D01*
X27032Y-31156D01*
X27001Y-31159D01*
X26971Y-31157D01*
X26941Y-31148D01*
X26913Y-31133D01*
X26889Y-31114D01*
X26868Y-31090D01*
X26853Y-31063D01*
X26844Y-31033D01*
X26841Y-31002D01*
X26843Y-30972D01*
X26852Y-30942D01*
X26866Y-30914D01*
X26885Y-30889D01*
X26909Y-30869D01*
X26936Y-30854D01*
X26966Y-30844D01*
X26997Y-30841D01*
X27027Y-30843D01*
X27057Y-30851D01*
X27085Y-30865D01*
X27110Y-30885D01*
X27130Y-30908D01*
X27146Y-30935D01*
X27156Y-30965D01*
X27159Y-30996D01*
X27160Y-31000D01*
X27160Y-32000D02*
X27156Y-32031D01*
X27147Y-32060D01*
X27133Y-32088D01*
X27113Y-32112D01*
X27089Y-32132D01*
X27062Y-32147D01*
X27032Y-32156D01*
X27001Y-32159D01*
X26971Y-32157D01*
X26941Y-32148D01*
X26913Y-32133D01*
X26889Y-32114D01*
X26868Y-32090D01*
X26853Y-32063D01*
X26844Y-32033D01*
X26841Y-32002D01*
X26843Y-31972D01*
X26852Y-31942D01*
X26866Y-31914D01*
X26885Y-31889D01*
X26909Y-31869D01*
X26936Y-31854D01*
X26966Y-31844D01*
X26997Y-31841D01*
X27027Y-31843D01*
X27057Y-31851D01*
X27085Y-31865D01*
X27110Y-31885D01*
X27130Y-31908D01*
X27146Y-31935D01*
X27156Y-31965D01*
X27159Y-31996D01*
X27160Y-32000D01*
X27160Y-33000D02*
X27156Y-33031D01*
X27147Y-33060D01*
X27133Y-33088D01*
X27113Y-33112D01*
X27089Y-33132D01*
X27062Y-33147D01*
X27032Y-33156D01*
X27001Y-33159D01*
X26971Y-33157D01*
X26941Y-33148D01*
X26913Y-33133D01*
X26889Y-33114D01*
X26868Y-33090D01*
X26853Y-33063D01*
X26844Y-33033D01*
X26841Y-33002D01*
X26843Y-32972D01*
X26852Y-32942D01*
X26866Y-32914D01*
X26885Y-32889D01*
X26909Y-32869D01*
X26936Y-32854D01*
X26966Y-32844D01*
X26997Y-32841D01*
X27027Y-32843D01*
X27057Y-32851D01*
X27085Y-32865D01*
X27110Y-32885D01*
X27130Y-32908D01*
X27146Y-32935D01*
X27156Y-32965D01*
X27159Y-32996D01*
X27160Y-33000D01*
X27160Y-34000D02*
X27156Y-34031D01*
X27147Y-34060D01*
X27133Y-34088D01*
X27113Y-34112D01*
X27089Y-34132D01*
X27062Y-34147D01*
X27032Y-34156D01*
X27001Y-34159D01*
X26971Y-34157D01*
X26941Y-34148D01*
X26913Y-34133D01*
X26889Y-34114D01*
X26868Y-34090D01*
X26853Y-34063D01*
X26844Y-34033D01*
X26841Y-34002D01*
X26843Y-33972D01*
X26852Y-33942D01*
X26866Y-33914D01*
X26885Y-33889D01*
X26909Y-33869D01*
X26936Y-33854D01*
X26966Y-33844D01*
X26997Y-33841D01*
X27027Y-33843D01*
X27057Y-33851D01*
X27085Y-33865D01*
X27110Y-33885D01*
X27130Y-33908D01*
X27146Y-33935D01*
X27156Y-33965D01*
X27159Y-33996D01*
X27160Y-34000D01*
X27160Y-35000D02*
X27156Y-35031D01*
X27147Y-35060D01*
X27133Y-35088D01*
X27113Y-35112D01*
X27089Y-35132D01*
X27062Y-35147D01*
X27032Y-35156D01*
X27001Y-35159D01*
X26971Y-35157D01*
X26941Y-35148D01*
X26913Y-35133D01*
X26889Y-35114D01*
X26868Y-35090D01*
X26853Y-35063D01*
X26844Y-35033D01*
X26841Y-35002D01*
X26843Y-34972D01*
X26852Y-34942D01*
X26866Y-34914D01*
X26885Y-34889D01*
X26909Y-34869D01*
X26936Y-34854D01*
X26966Y-34844D01*
X26997Y-34841D01*
X27027Y-34843D01*
X27057Y-34851D01*
X27085Y-34865D01*
X27110Y-34885D01*
X27130Y-34908D01*
X27146Y-34935D01*
X27156Y-34965D01*
X27159Y-34996D01*
X27160Y-35000D01*
X27160Y-36000D02*
X27156Y-36031D01*
X27147Y-36060D01*
X27133Y-36088D01*
X27113Y-36112D01*
X27089Y-36132D01*
X27062Y-36147D01*
X27032Y-36156D01*
X27001Y-36159D01*
X26971Y-36157D01*
X26941Y-36148D01*
X26913Y-36133D01*
X26889Y-36114D01*
X26868Y-36090D01*
X26853Y-36063D01*
X26844Y-36033D01*
X26841Y-36002D01*
X26843Y-35972D01*
X26852Y-35942D01*
X26866Y-35914D01*
X26885Y-35889D01*
X26909Y-35869D01*
X26936Y-35854D01*
X26966Y-35844D01*
X26997Y-35841D01*
X27027Y-35843D01*
X27057Y-35851D01*
X27085Y-35865D01*
X27110Y-35885D01*
X27130Y-35908D01*
X27146Y-35935D01*
X27156Y-35965D01*
X27159Y-35996D01*
X27160Y-36000D01*
X27160Y-37000D02*
X27156Y-37031D01*
X27147Y-37060D01*
X27133Y-37088D01*
X27113Y-37112D01*
X27089Y-37132D01*
X27062Y-37147D01*
X27032Y-37156D01*
X27001Y-37159D01*
X26971Y-37157D01*
X26941Y-37148D01*
X26913Y-37133D01*
X26889Y-37114D01*
X26868Y-37090D01*
X26853Y-37063D01*
X26844Y-37033D01*
X26841Y-37002D01*
X26843Y-36972D01*
X26852Y-36942D01*
X26866Y-36914D01*
X26885Y-36889D01*
X26909Y-36869D01*
X26936Y-36854D01*
X26966Y-36844D01*
X26997Y-36841D01*
X27027Y-36843D01*
X27057Y-36851D01*
X27085Y-36865D01*
X27110Y-36885D01*
X27130Y-36908D01*
X27146Y-36935D01*
X27156Y-36965D01*
X27159Y-36996D01*
X27160Y-37000D01*
X27160Y-39000D02*
X27156Y-39031D01*
X27147Y-39060D01*
X27133Y-39088D01*
X27113Y-39112D01*
X27089Y-39132D01*
X27062Y-39147D01*
X27032Y-39156D01*
X27001Y-39159D01*
X26971Y-39157D01*
X26941Y-39148D01*
X26913Y-39133D01*
X26889Y-39114D01*
X26868Y-39090D01*
X26853Y-39063D01*
X26844Y-39033D01*
X26841Y-39002D01*
X26843Y-38972D01*
X26852Y-38942D01*
X26866Y-38914D01*
X26885Y-38889D01*
X26909Y-38869D01*
X26936Y-38854D01*
X26966Y-38844D01*
X26997Y-38841D01*
X27027Y-38843D01*
X27057Y-38851D01*
X27085Y-38865D01*
X27110Y-38885D01*
X27130Y-38908D01*
X27146Y-38935D01*
X27156Y-38965D01*
X27159Y-38996D01*
X27160Y-39000D01*
X27160Y-40000D02*
X27156Y-40031D01*
X27147Y-40060D01*
X27133Y-40088D01*
X27113Y-40112D01*
X27089Y-40132D01*
X27062Y-40147D01*
X27032Y-40156D01*
X27001Y-40159D01*
X26971Y-40157D01*
X26941Y-40148D01*
X26913Y-40133D01*
X26889Y-40114D01*
X26868Y-40090D01*
X26853Y-40063D01*
X26844Y-40033D01*
X26841Y-40002D01*
X26843Y-39972D01*
X26852Y-39942D01*
X26866Y-39914D01*
X26885Y-39889D01*
X26909Y-39869D01*
X26936Y-39854D01*
X26966Y-39844D01*
X26997Y-39841D01*
X27027Y-39843D01*
X27057Y-39851D01*
X27085Y-39865D01*
X27110Y-39885D01*
X27130Y-39908D01*
X27146Y-39935D01*
X27156Y-39965D01*
X27159Y-39996D01*
X27160Y-40000D01*
X27160Y-41000D02*
X27156Y-41031D01*
X27147Y-41060D01*
X27133Y-41088D01*
X27113Y-41112D01*
X27089Y-41132D01*
X27062Y-41147D01*
X27032Y-41156D01*
X27001Y-41159D01*
X26971Y-41157D01*
X26941Y-41148D01*
X26913Y-41133D01*
X26889Y-41114D01*
X26868Y-41090D01*
X26853Y-41063D01*
X26844Y-41033D01*
X26841Y-41002D01*
X26843Y-40972D01*
X26852Y-40942D01*
X26866Y-40914D01*
X26885Y-40889D01*
X26909Y-40869D01*
X26936Y-40854D01*
X26966Y-40844D01*
X26997Y-40841D01*
X27027Y-40843D01*
X27057Y-40851D01*
X27085Y-40865D01*
X27110Y-40885D01*
X27130Y-40908D01*
X27146Y-40935D01*
X27156Y-40965D01*
X27159Y-40996D01*
X27160Y-41000D01*
X27160Y-42000D02*
X27156Y-42031D01*
X27147Y-42060D01*
X27133Y-42088D01*
X27113Y-42112D01*
X27089Y-42132D01*
X27062Y-42147D01*
X27032Y-42156D01*
X27001Y-42159D01*
X26971Y-42157D01*
X26941Y-42148D01*
X26913Y-42133D01*
X26889Y-42114D01*
X26868Y-42090D01*
X26853Y-42063D01*
X26844Y-42033D01*
X26841Y-42002D01*
X26843Y-41972D01*
X26852Y-41942D01*
X26866Y-41914D01*
X26885Y-41889D01*
X26909Y-41869D01*
X26936Y-41854D01*
X26966Y-41844D01*
X26997Y-41841D01*
X27027Y-41843D01*
X27057Y-41851D01*
X27085Y-41865D01*
X27110Y-41885D01*
X27130Y-41908D01*
X27146Y-41935D01*
X27156Y-41965D01*
X27159Y-41996D01*
X27160Y-42000D01*
X27660Y-45000D02*
X27656Y-45031D01*
X27647Y-45060D01*
X27633Y-45088D01*
X27613Y-45112D01*
X27589Y-45132D01*
X27562Y-45147D01*
X27532Y-45156D01*
X27501Y-45159D01*
X27471Y-45157D01*
X27441Y-45148D01*
X27413Y-45133D01*
X27389Y-45114D01*
X27368Y-45090D01*
X27353Y-45063D01*
X27344Y-45033D01*
X27341Y-45002D01*
X27343Y-44972D01*
X27352Y-44942D01*
X27366Y-44914D01*
X27385Y-44889D01*
X27409Y-44869D01*
X27436Y-44854D01*
X27466Y-44844D01*
X27497Y-44841D01*
X27527Y-44843D01*
X27557Y-44851D01*
X27585Y-44865D01*
X27610Y-44885D01*
X27630Y-44908D01*
X27646Y-44935D01*
X27656Y-44965D01*
X27659Y-44996D01*
X27660Y-45000D01*
X27660Y-47000D02*
X27656Y-47031D01*
X27647Y-47060D01*
X27633Y-47088D01*
X27613Y-47112D01*
X27589Y-47132D01*
X27562Y-47147D01*
X27532Y-47156D01*
X27501Y-47159D01*
X27471Y-47157D01*
X27441Y-47148D01*
X27413Y-47133D01*
X27389Y-47114D01*
X27368Y-47090D01*
X27353Y-47063D01*
X27344Y-47033D01*
X27341Y-47002D01*
X27343Y-46972D01*
X27352Y-46942D01*
X27366Y-46914D01*
X27385Y-46889D01*
X27409Y-46869D01*
X27436Y-46854D01*
X27466Y-46844D01*
X27497Y-46841D01*
X27527Y-46843D01*
X27557Y-46851D01*
X27585Y-46865D01*
X27610Y-46885D01*
X27630Y-46908D01*
X27646Y-46935D01*
X27656Y-46965D01*
X27659Y-46996D01*
X27660Y-47000D01*
X28660Y-38000D02*
X28656Y-38031D01*
X28647Y-38060D01*
X28633Y-38088D01*
X28613Y-38112D01*
X28589Y-38132D01*
X28562Y-38147D01*
X28532Y-38156D01*
X28501Y-38159D01*
X28471Y-38157D01*
X28441Y-38148D01*
X28413Y-38133D01*
X28389Y-38114D01*
X28368Y-38090D01*
X28353Y-38063D01*
X28344Y-38033D01*
X28341Y-38002D01*
X28343Y-37972D01*
X28352Y-37942D01*
X28366Y-37914D01*
X28385Y-37889D01*
X28409Y-37869D01*
X28436Y-37854D01*
X28466Y-37844D01*
X28497Y-37841D01*
X28527Y-37843D01*
X28557Y-37851D01*
X28585Y-37865D01*
X28610Y-37885D01*
X28630Y-37908D01*
X28646Y-37935D01*
X28656Y-37965D01*
X28659Y-37996D01*
X28660Y-38000D01*
X28660Y-41000D02*
X28656Y-41031D01*
X28647Y-41060D01*
X28633Y-41088D01*
X28613Y-41112D01*
X28589Y-41132D01*
X28562Y-41147D01*
X28532Y-41156D01*
X28501Y-41159D01*
X28471Y-41157D01*
X28441Y-41148D01*
X28413Y-41133D01*
X28389Y-41114D01*
X28368Y-41090D01*
X28353Y-41063D01*
X28344Y-41033D01*
X28341Y-41002D01*
X28343Y-40972D01*
X28352Y-40942D01*
X28366Y-40914D01*
X28385Y-40889D01*
X28409Y-40869D01*
X28436Y-40854D01*
X28466Y-40844D01*
X28497Y-40841D01*
X28527Y-40843D01*
X28557Y-40851D01*
X28585Y-40865D01*
X28610Y-40885D01*
X28630Y-40908D01*
X28646Y-40935D01*
X28656Y-40965D01*
X28659Y-40996D01*
X28660Y-41000D01*
X29660Y-38000D02*
X29656Y-38031D01*
X29647Y-38060D01*
X29633Y-38088D01*
X29613Y-38112D01*
X29589Y-38132D01*
X29562Y-38147D01*
X29532Y-38156D01*
X29501Y-38159D01*
X29471Y-38157D01*
X29441Y-38148D01*
X29413Y-38133D01*
X29389Y-38114D01*
X29368Y-38090D01*
X29353Y-38063D01*
X29344Y-38033D01*
X29341Y-38002D01*
X29343Y-37972D01*
X29352Y-37942D01*
X29366Y-37914D01*
X29385Y-37889D01*
X29409Y-37869D01*
X29436Y-37854D01*
X29466Y-37844D01*
X29497Y-37841D01*
X29527Y-37843D01*
X29557Y-37851D01*
X29585Y-37865D01*
X29610Y-37885D01*
X29630Y-37908D01*
X29646Y-37935D01*
X29656Y-37965D01*
X29659Y-37996D01*
X29660Y-38000D01*
X29660Y-41000D02*
X29656Y-41031D01*
X29647Y-41060D01*
X29633Y-41088D01*
X29613Y-41112D01*
X29589Y-41132D01*
X29562Y-41147D01*
X29532Y-41156D01*
X29501Y-41159D01*
X29471Y-41157D01*
X29441Y-41148D01*
X29413Y-41133D01*
X29389Y-41114D01*
X29368Y-41090D01*
X29353Y-41063D01*
X29344Y-41033D01*
X29341Y-41002D01*
X29343Y-40972D01*
X29352Y-40942D01*
X29366Y-40914D01*
X29385Y-40889D01*
X29409Y-40869D01*
X29436Y-40854D01*
X29466Y-40844D01*
X29497Y-40841D01*
X29527Y-40843D01*
X29557Y-40851D01*
X29585Y-40865D01*
X29610Y-40885D01*
X29630Y-40908D01*
X29646Y-40935D01*
X29656Y-40965D01*
X29659Y-40996D01*
X29660Y-41000D01*
X30910Y-25500D02*
X30906Y-25531D01*
X30897Y-25560D01*
X30883Y-25588D01*
X30863Y-25612D01*
X30839Y-25632D01*
X30812Y-25647D01*
X30782Y-25656D01*
X30751Y-25659D01*
X30721Y-25657D01*
X30691Y-25648D01*
X30663Y-25633D01*
X30639Y-25614D01*
X30618Y-25590D01*
X30603Y-25563D01*
X30594Y-25533D01*
X30591Y-25502D01*
X30593Y-25472D01*
X30602Y-25442D01*
X30616Y-25414D01*
X30635Y-25389D01*
X30659Y-25369D01*
X30686Y-25354D01*
X30716Y-25344D01*
X30747Y-25341D01*
X30777Y-25343D01*
X30807Y-25351D01*
X30835Y-25365D01*
X30860Y-25385D01*
X30880Y-25408D01*
X30896Y-25435D01*
X30906Y-25465D01*
X30909Y-25496D01*
X30910Y-25500D01*
X30910Y-31250D02*
X30906Y-31281D01*
X30897Y-31310D01*
X30883Y-31338D01*
X30863Y-31362D01*
X30839Y-31382D01*
X30812Y-31397D01*
X30782Y-31406D01*
X30751Y-31409D01*
X30721Y-31407D01*
X30691Y-31398D01*
X30663Y-31383D01*
X30639Y-31364D01*
X30618Y-31340D01*
X30603Y-31313D01*
X30594Y-31283D01*
X30591Y-31252D01*
X30593Y-31222D01*
X30602Y-31192D01*
X30616Y-31164D01*
X30635Y-31139D01*
X30659Y-31119D01*
X30686Y-31104D01*
X30716Y-31094D01*
X30747Y-31091D01*
X30777Y-31093D01*
X30807Y-31101D01*
X30835Y-31115D01*
X30860Y-31135D01*
X30880Y-31158D01*
X30896Y-31185D01*
X30906Y-31215D01*
X30909Y-31246D01*
X30910Y-31250D01*
X30910Y-37000D02*
X30906Y-37031D01*
X30897Y-37060D01*
X30883Y-37088D01*
X30863Y-37112D01*
X30839Y-37132D01*
X30812Y-37147D01*
X30782Y-37156D01*
X30751Y-37159D01*
X30721Y-37157D01*
X30691Y-37148D01*
X30663Y-37133D01*
X30639Y-37114D01*
X30618Y-37090D01*
X30603Y-37063D01*
X30594Y-37033D01*
X30591Y-37002D01*
X30593Y-36972D01*
X30602Y-36942D01*
X30616Y-36914D01*
X30635Y-36889D01*
X30659Y-36869D01*
X30686Y-36854D01*
X30716Y-36844D01*
X30747Y-36841D01*
X30777Y-36843D01*
X30807Y-36851D01*
X30835Y-36865D01*
X30860Y-36885D01*
X30880Y-36908D01*
X30896Y-36935D01*
X30906Y-36965D01*
X30909Y-36996D01*
X30910Y-37000D01*
X30910Y-42750D02*
X30906Y-42781D01*
X30897Y-42810D01*
X30883Y-42838D01*
X30863Y-42862D01*
X30839Y-42882D01*
X30812Y-42897D01*
X30782Y-42906D01*
X30751Y-42909D01*
X30721Y-42907D01*
X30691Y-42898D01*
X30663Y-42883D01*
X30639Y-42864D01*
X30618Y-42840D01*
X30603Y-42813D01*
X30594Y-42783D01*
X30591Y-42752D01*
X30593Y-42722D01*
X30602Y-42692D01*
X30616Y-42664D01*
X30635Y-42639D01*
X30659Y-42619D01*
X30686Y-42604D01*
X30716Y-42594D01*
X30747Y-42591D01*
X30777Y-42593D01*
X30807Y-42601D01*
X30835Y-42615D01*
X30860Y-42635D01*
X30880Y-42658D01*
X30896Y-42685D01*
X30906Y-42715D01*
X30909Y-42746D01*
X30910Y-42750D01*
X33910Y-25500D02*
X33906Y-25531D01*
X33897Y-25560D01*
X33883Y-25588D01*
X33863Y-25612D01*
X33839Y-25632D01*
X33812Y-25647D01*
X33782Y-25656D01*
X33751Y-25659D01*
X33721Y-25657D01*
X33691Y-25648D01*
X33663Y-25633D01*
X33639Y-25614D01*
X33618Y-25590D01*
X33603Y-25563D01*
X33594Y-25533D01*
X33591Y-25502D01*
X33593Y-25472D01*
X33602Y-25442D01*
X33616Y-25414D01*
X33635Y-25389D01*
X33659Y-25369D01*
X33686Y-25354D01*
X33716Y-25344D01*
X33747Y-25341D01*
X33777Y-25343D01*
X33807Y-25351D01*
X33835Y-25365D01*
X33860Y-25385D01*
X33880Y-25408D01*
X33896Y-25435D01*
X33906Y-25465D01*
X33909Y-25496D01*
X33910Y-25500D01*
X33910Y-31250D02*
X33906Y-31281D01*
X33897Y-31310D01*
X33883Y-31338D01*
X33863Y-31362D01*
X33839Y-31382D01*
X33812Y-31397D01*
X33782Y-31406D01*
X33751Y-31409D01*
X33721Y-31407D01*
X33691Y-31398D01*
X33663Y-31383D01*
X33639Y-31364D01*
X33618Y-31340D01*
X33603Y-31313D01*
X33594Y-31283D01*
X33591Y-31252D01*
X33593Y-31222D01*
X33602Y-31192D01*
X33616Y-31164D01*
X33635Y-31139D01*
X33659Y-31119D01*
X33686Y-31104D01*
X33716Y-31094D01*
X33747Y-31091D01*
X33777Y-31093D01*
X33807Y-31101D01*
X33835Y-31115D01*
X33860Y-31135D01*
X33880Y-31158D01*
X33896Y-31185D01*
X33906Y-31215D01*
X33909Y-31246D01*
X33910Y-31250D01*
X33910Y-37000D02*
X33906Y-37031D01*
X33897Y-37060D01*
X33883Y-37088D01*
X33863Y-37112D01*
X33839Y-37132D01*
X33812Y-37147D01*
X33782Y-37156D01*
X33751Y-37159D01*
X33721Y-37157D01*
X33691Y-37148D01*
X33663Y-37133D01*
X33639Y-37114D01*
X33618Y-37090D01*
X33603Y-37063D01*
X33594Y-37033D01*
X33591Y-37002D01*
X33593Y-36972D01*
X33602Y-36942D01*
X33616Y-36914D01*
X33635Y-36889D01*
X33659Y-36869D01*
X33686Y-36854D01*
X33716Y-36844D01*
X33747Y-36841D01*
X33777Y-36843D01*
X33807Y-36851D01*
X33835Y-36865D01*
X33860Y-36885D01*
X33880Y-36908D01*
X33896Y-36935D01*
X33906Y-36965D01*
X33909Y-36996D01*
X33910Y-37000D01*
X33910Y-42750D02*
X33906Y-42781D01*
X33897Y-42810D01*
X33883Y-42838D01*
X33863Y-42862D01*
X33839Y-42882D01*
X33812Y-42897D01*
X33782Y-42906D01*
X33751Y-42909D01*
X33721Y-42907D01*
X33691Y-42898D01*
X33663Y-42883D01*
X33639Y-42864D01*
X33618Y-42840D01*
X33603Y-42813D01*
X33594Y-42783D01*
X33591Y-42752D01*
X33593Y-42722D01*
X33602Y-42692D01*
X33616Y-42664D01*
X33635Y-42639D01*
X33659Y-42619D01*
X33686Y-42604D01*
X33716Y-42594D01*
X33747Y-42591D01*
X33777Y-42593D01*
X33807Y-42601D01*
X33835Y-42615D01*
X33860Y-42635D01*
X33880Y-42658D01*
X33896Y-42685D01*
X33906Y-42715D01*
X33909Y-42746D01*
X33910Y-42750D01*
X22750Y-44800D02*
X22750Y-45200D01*
X22950Y-45000D02*
X22550Y-45000D01*
X22750Y-45800D02*
X22750Y-46200D01*
X22950Y-46000D02*
X22550Y-46000D01*
X22750Y-46800D02*
X22750Y-47200D01*
X22950Y-47000D02*
X22550Y-47000D01*
X22750Y-47800D02*
X22750Y-48200D01*
X22950Y-48000D02*
X22550Y-48000D01*
X24000Y-28550D02*
X24000Y-28950D01*
X24200Y-28750D02*
X23800Y-28750D01*
X25000Y-28550D02*
X25000Y-28950D01*
X25200Y-28750D02*
X24800Y-28750D01*
X26000Y-28550D02*
X26000Y-28950D01*
X26200Y-28750D02*
X25800Y-28750D01*
X27000Y-28550D02*
X27000Y-28950D01*
X27200Y-28750D02*
X26800Y-28750D01*
X34250Y-21800D02*
X34250Y-22200D01*
X34450Y-22000D02*
X34050Y-22000D01*
X34250Y-22800D02*
X34250Y-23200D01*
X34450Y-23000D02*
X34050Y-23000D01*
X34250Y-49300D02*
X34250Y-49700D01*
X34450Y-49500D02*
X34050Y-49500D01*
X34250Y-50300D02*
X34250Y-50700D01*
X34450Y-50500D02*
X34050Y-50500D01*
X35000Y-25300D02*
X35000Y-25700D01*
X35200Y-25500D02*
X34800Y-25500D01*
X35000Y-29300D02*
X35000Y-29700D01*
X35200Y-29500D02*
X34800Y-29500D01*
X35000Y-31050D02*
X35000Y-31450D01*
X35200Y-31250D02*
X34800Y-31250D01*
X35000Y-35050D02*
X35000Y-35450D01*
X35200Y-35250D02*
X34800Y-35250D01*
X35000Y-36800D02*
X35000Y-37200D01*
X35200Y-37000D02*
X34800Y-37000D01*
X35000Y-40800D02*
X35000Y-41200D01*
X35200Y-41000D02*
X34800Y-41000D01*
X35000Y-42550D02*
X35000Y-42950D01*
X35200Y-42750D02*
X34800Y-42750D01*
X35000Y-46550D02*
X35000Y-46950D01*
X35200Y-46750D02*
X34800Y-46750D01*
X35250Y-21800D02*
X35250Y-22200D01*
X35450Y-22000D02*
X35050Y-22000D01*
X35250Y-22800D02*
X35250Y-23200D01*
X35450Y-23000D02*
X35050Y-23000D01*
X35250Y-49300D02*
X35250Y-49700D01*
X35450Y-49500D02*
X35050Y-49500D01*
X35250Y-50300D02*
X35250Y-50700D01*
X35450Y-50500D02*
X35050Y-50500D01*
X36250Y-21800D02*
X36250Y-22200D01*
X36450Y-22000D02*
X36050Y-22000D01*
X36250Y-22800D02*
X36250Y-23200D01*
X36450Y-23000D02*
X36050Y-23000D01*
X36250Y-49300D02*
X36250Y-49700D01*
X36450Y-49500D02*
X36050Y-49500D01*
X36250Y-50300D02*
X36250Y-50700D01*
X36450Y-50500D02*
X36050Y-50500D01*
X37250Y-21800D02*
X37250Y-22200D01*
X37450Y-22000D02*
X37050Y-22000D01*
X37250Y-22800D02*
X37250Y-23200D01*
X37450Y-23000D02*
X37050Y-23000D01*
X37250Y-49300D02*
X37250Y-49700D01*
X37450Y-49500D02*
X37050Y-49500D01*
X37250Y-50300D02*
X37250Y-50700D01*
X37450Y-50500D02*
X37050Y-50500D01*
X38250Y-21800D02*
X38250Y-22200D01*
X38450Y-22000D02*
X38050Y-22000D01*
X38250Y-22800D02*
X38250Y-23200D01*
X38450Y-23000D02*
X38050Y-23000D01*
X38250Y-49300D02*
X38250Y-49700D01*
X38450Y-49500D02*
X38050Y-49500D01*
X38250Y-50300D02*
X38250Y-50700D01*
X38450Y-50500D02*
X38050Y-50500D01*
X45750Y-49550D02*
X45750Y-49950D01*
X45950Y-49750D02*
X45550Y-49750D01*
X46750Y-49550D02*
X46750Y-49950D01*
X46950Y-49750D02*
X46550Y-49750D01*
X49250Y-26800D02*
X49250Y-27200D01*
X49450Y-27000D02*
X49050Y-27000D01*
X49250Y-27800D02*
X49250Y-28200D01*
X49450Y-28000D02*
X49050Y-28000D01*
X49250Y-31550D02*
X49250Y-31950D01*
X49450Y-31750D02*
X49050Y-31750D01*
X49250Y-32550D02*
X49250Y-32950D01*
X49450Y-32750D02*
X49050Y-32750D01*
X49250Y-33550D02*
X49250Y-33950D01*
X49450Y-33750D02*
X49050Y-33750D01*
X49250Y-34550D02*
X49250Y-34950D01*
X49450Y-34750D02*
X49050Y-34750D01*
X49250Y-43050D02*
X49250Y-43450D01*
X49450Y-43250D02*
X49050Y-43250D01*
X49250Y-44050D02*
X49250Y-44450D01*
X49450Y-44250D02*
X49050Y-44250D01*
X49250Y-45050D02*
X49250Y-45450D01*
X49450Y-45250D02*
X49050Y-45250D01*
X49250Y-46050D02*
X49250Y-46450D01*
X49450Y-46250D02*
X49050Y-46250D01*
X32300Y-27250D02*
X32294Y-27308D01*
X32277Y-27364D01*
X32249Y-27416D01*
X32212Y-27461D01*
X32167Y-27498D01*
X32116Y-27526D01*
X32060Y-27543D01*
X32002Y-27549D01*
X31944Y-27544D01*
X31888Y-27528D01*
X31836Y-27501D01*
X31791Y-27464D01*
X31753Y-27419D01*
X31725Y-27368D01*
X31707Y-27312D01*
X31701Y-27254D01*
X31705Y-27196D01*
X31722Y-27140D01*
X31748Y-27088D01*
X31785Y-27042D01*
X31829Y-27004D01*
X31880Y-26976D01*
X31936Y-26957D01*
X31994Y-26951D01*
X32052Y-26955D01*
X32108Y-26971D01*
X32160Y-26997D01*
X32206Y-27033D01*
X32245Y-27078D01*
X32274Y-27128D01*
X32292Y-27184D01*
X32299Y-27242D01*
X32300Y-27250D01*
X31700Y-26950D02*
X32300Y-27550D01*
X32300Y-26950D02*
X31700Y-27550D01*
X32300Y-33000D02*
X32294Y-33058D01*
X32277Y-33114D01*
X32249Y-33166D01*
X32212Y-33211D01*
X32167Y-33248D01*
X32116Y-33276D01*
X32060Y-33293D01*
X32002Y-33299D01*
X31944Y-33294D01*
X31888Y-33278D01*
X31836Y-33251D01*
X31791Y-33214D01*
X31753Y-33169D01*
X31725Y-33118D01*
X31707Y-33062D01*
X31701Y-33004D01*
X31705Y-32946D01*
X31722Y-32890D01*
X31748Y-32838D01*
X31785Y-32792D01*
X31829Y-32754D01*
X31880Y-32726D01*
X31936Y-32707D01*
X31994Y-32701D01*
X32052Y-32705D01*
X32108Y-32721D01*
X32160Y-32747D01*
X32206Y-32783D01*
X32245Y-32828D01*
X32274Y-32878D01*
X32292Y-32934D01*
X32299Y-32992D01*
X32300Y-33000D01*
X31700Y-32700D02*
X32300Y-33300D01*
X32300Y-32700D02*
X31700Y-33300D01*
X32300Y-38750D02*
X32294Y-38808D01*
X32277Y-38864D01*
X32249Y-38916D01*
X32212Y-38961D01*
X32167Y-38998D01*
X32116Y-39026D01*
X32060Y-39043D01*
X32002Y-39049D01*
X31944Y-39044D01*
X31888Y-39028D01*
X31836Y-39001D01*
X31791Y-38964D01*
X31753Y-38919D01*
X31725Y-38868D01*
X31707Y-38812D01*
X31701Y-38754D01*
X31705Y-38696D01*
X31722Y-38640D01*
X31748Y-38588D01*
X31785Y-38542D01*
X31829Y-38504D01*
X31880Y-38476D01*
X31936Y-38457D01*
X31994Y-38451D01*
X32052Y-38455D01*
X32108Y-38471D01*
X32160Y-38497D01*
X32206Y-38533D01*
X32245Y-38578D01*
X32274Y-38628D01*
X32292Y-38684D01*
X32299Y-38742D01*
X32300Y-38750D01*
X31700Y-38450D02*
X32300Y-39050D01*
X32300Y-38450D02*
X31700Y-39050D01*
X32300Y-44500D02*
X32294Y-44558D01*
X32277Y-44614D01*
X32249Y-44666D01*
X32212Y-44711D01*
X32167Y-44748D01*
X32116Y-44776D01*
X32060Y-44793D01*
X32002Y-44799D01*
X31944Y-44794D01*
X31888Y-44778D01*
X31836Y-44751D01*
X31791Y-44714D01*
X31753Y-44669D01*
X31725Y-44618D01*
X31707Y-44562D01*
X31701Y-44504D01*
X31705Y-44446D01*
X31722Y-44390D01*
X31748Y-44338D01*
X31785Y-44292D01*
X31829Y-44254D01*
X31880Y-44226D01*
X31936Y-44207D01*
X31994Y-44201D01*
X32052Y-44205D01*
X32108Y-44221D01*
X32160Y-44247D01*
X32206Y-44283D01*
X32245Y-44328D01*
X32274Y-44378D01*
X32292Y-44434D01*
X32299Y-44492D01*
X32300Y-44500D01*
X31700Y-44200D02*
X32300Y-44800D01*
X32300Y-44200D02*
X31700Y-44800D01*
X33300Y-27250D02*
X33294Y-27308D01*
X33277Y-27364D01*
X33249Y-27416D01*
X33212Y-27461D01*
X33167Y-27498D01*
X33116Y-27526D01*
X33060Y-27543D01*
X33002Y-27549D01*
X32944Y-27544D01*
X32888Y-27528D01*
X32836Y-27501D01*
X32791Y-27464D01*
X32753Y-27419D01*
X32725Y-27368D01*
X32707Y-27312D01*
X32701Y-27254D01*
X32705Y-27196D01*
X32722Y-27140D01*
X32748Y-27088D01*
X32785Y-27042D01*
X32829Y-27004D01*
X32880Y-26976D01*
X32936Y-26957D01*
X32994Y-26951D01*
X33052Y-26955D01*
X33108Y-26971D01*
X33160Y-26997D01*
X33206Y-27033D01*
X33245Y-27078D01*
X33274Y-27128D01*
X33292Y-27184D01*
X33299Y-27242D01*
X33300Y-27250D01*
X32700Y-26950D02*
X33300Y-27550D01*
X33300Y-26950D02*
X32700Y-27550D01*
X33300Y-28250D02*
X33294Y-28308D01*
X33277Y-28364D01*
X33249Y-28416D01*
X33212Y-28461D01*
X33167Y-28498D01*
X33116Y-28526D01*
X33060Y-28543D01*
X33002Y-28549D01*
X32944Y-28544D01*
X32888Y-28528D01*
X32836Y-28501D01*
X32791Y-28464D01*
X32753Y-28419D01*
X32725Y-28368D01*
X32707Y-28312D01*
X32701Y-28254D01*
X32705Y-28196D01*
X32722Y-28140D01*
X32748Y-28088D01*
X32785Y-28042D01*
X32829Y-28004D01*
X32880Y-27976D01*
X32936Y-27957D01*
X32994Y-27951D01*
X33052Y-27955D01*
X33108Y-27971D01*
X33160Y-27997D01*
X33206Y-28033D01*
X33245Y-28078D01*
X33274Y-28128D01*
X33292Y-28184D01*
X33299Y-28242D01*
X33300Y-28250D01*
X32700Y-27950D02*
X33300Y-28550D01*
X33300Y-27950D02*
X32700Y-28550D01*
X33300Y-33000D02*
X33294Y-33058D01*
X33277Y-33114D01*
X33249Y-33166D01*
X33212Y-33211D01*
X33167Y-33248D01*
X33116Y-33276D01*
X33060Y-33293D01*
X33002Y-33299D01*
X32944Y-33294D01*
X32888Y-33278D01*
X32836Y-33251D01*
X32791Y-33214D01*
X32753Y-33169D01*
X32725Y-33118D01*
X32707Y-33062D01*
X32701Y-33004D01*
X32705Y-32946D01*
X32722Y-32890D01*
X32748Y-32838D01*
X32785Y-32792D01*
X32829Y-32754D01*
X32880Y-32726D01*
X32936Y-32707D01*
X32994Y-32701D01*
X33052Y-32705D01*
X33108Y-32721D01*
X33160Y-32747D01*
X33206Y-32783D01*
X33245Y-32828D01*
X33274Y-32878D01*
X33292Y-32934D01*
X33299Y-32992D01*
X33300Y-33000D01*
X32700Y-32700D02*
X33300Y-33300D01*
X33300Y-32700D02*
X32700Y-33300D01*
X33300Y-34000D02*
X33294Y-34058D01*
X33277Y-34114D01*
X33249Y-34166D01*
X33212Y-34211D01*
X33167Y-34248D01*
X33116Y-34276D01*
X33060Y-34293D01*
X33002Y-34299D01*
X32944Y-34294D01*
X32888Y-34278D01*
X32836Y-34251D01*
X32791Y-34214D01*
X32753Y-34169D01*
X32725Y-34118D01*
X32707Y-34062D01*
X32701Y-34004D01*
X32705Y-33946D01*
X32722Y-33890D01*
X32748Y-33838D01*
X32785Y-33792D01*
X32829Y-33754D01*
X32880Y-33726D01*
X32936Y-33707D01*
X32994Y-33701D01*
X33052Y-33705D01*
X33108Y-33721D01*
X33160Y-33747D01*
X33206Y-33783D01*
X33245Y-33828D01*
X33274Y-33878D01*
X33292Y-33934D01*
X33299Y-33992D01*
X33300Y-34000D01*
X32700Y-33700D02*
X33300Y-34300D01*
X33300Y-33700D02*
X32700Y-34300D01*
X33300Y-38750D02*
X33294Y-38808D01*
X33277Y-38864D01*
X33249Y-38916D01*
X33212Y-38961D01*
X33167Y-38998D01*
X33116Y-39026D01*
X33060Y-39043D01*
X33002Y-39049D01*
X32944Y-39044D01*
X32888Y-39028D01*
X32836Y-39001D01*
X32791Y-38964D01*
X32753Y-38919D01*
X32725Y-38868D01*
X32707Y-38812D01*
X32701Y-38754D01*
X32705Y-38696D01*
X32722Y-38640D01*
X32748Y-38588D01*
X32785Y-38542D01*
X32829Y-38504D01*
X32880Y-38476D01*
X32936Y-38457D01*
X32994Y-38451D01*
X33052Y-38455D01*
X33108Y-38471D01*
X33160Y-38497D01*
X33206Y-38533D01*
X33245Y-38578D01*
X33274Y-38628D01*
X33292Y-38684D01*
X33299Y-38742D01*
X33300Y-38750D01*
X32700Y-38450D02*
X33300Y-39050D01*
X33300Y-38450D02*
X32700Y-39050D01*
X33300Y-39750D02*
X33294Y-39808D01*
X33277Y-39864D01*
X33249Y-39916D01*
X33212Y-39961D01*
X33167Y-39998D01*
X33116Y-40026D01*
X33060Y-40043D01*
X33002Y-40049D01*
X32944Y-40044D01*
X32888Y-40028D01*
X32836Y-40001D01*
X32791Y-39964D01*
X32753Y-39919D01*
X32725Y-39868D01*
X32707Y-39812D01*
X32701Y-39754D01*
X32705Y-39696D01*
X32722Y-39640D01*
X32748Y-39588D01*
X32785Y-39542D01*
X32829Y-39504D01*
X32880Y-39476D01*
X32936Y-39457D01*
X32994Y-39451D01*
X33052Y-39455D01*
X33108Y-39471D01*
X33160Y-39497D01*
X33206Y-39533D01*
X33245Y-39578D01*
X33274Y-39628D01*
X33292Y-39684D01*
X33299Y-39742D01*
X33300Y-39750D01*
X32700Y-39450D02*
X33300Y-40050D01*
X33300Y-39450D02*
X32700Y-40050D01*
X33300Y-44500D02*
X33294Y-44558D01*
X33277Y-44614D01*
X33249Y-44666D01*
X33212Y-44711D01*
X33167Y-44748D01*
X33116Y-44776D01*
X33060Y-44793D01*
X33002Y-44799D01*
X32944Y-44794D01*
X32888Y-44778D01*
X32836Y-44751D01*
X32791Y-44714D01*
X32753Y-44669D01*
X32725Y-44618D01*
X32707Y-44562D01*
X32701Y-44504D01*
X32705Y-44446D01*
X32722Y-44390D01*
X32748Y-44338D01*
X32785Y-44292D01*
X32829Y-44254D01*
X32880Y-44226D01*
X32936Y-44207D01*
X32994Y-44201D01*
X33052Y-44205D01*
X33108Y-44221D01*
X33160Y-44247D01*
X33206Y-44283D01*
X33245Y-44328D01*
X33274Y-44378D01*
X33292Y-44434D01*
X33299Y-44492D01*
X33300Y-44500D01*
X32700Y-44200D02*
X33300Y-44800D01*
X33300Y-44200D02*
X32700Y-44800D01*
X33300Y-45500D02*
X33294Y-45558D01*
X33277Y-45614D01*
X33249Y-45666D01*
X33212Y-45711D01*
X33167Y-45748D01*
X33116Y-45776D01*
X33060Y-45793D01*
X33002Y-45799D01*
X32944Y-45794D01*
X32888Y-45778D01*
X32836Y-45751D01*
X32791Y-45714D01*
X32753Y-45669D01*
X32725Y-45618D01*
X32707Y-45562D01*
X32701Y-45504D01*
X32705Y-45446D01*
X32722Y-45390D01*
X32748Y-45338D01*
X32785Y-45292D01*
X32829Y-45254D01*
X32880Y-45226D01*
X32936Y-45207D01*
X32994Y-45201D01*
X33052Y-45205D01*
X33108Y-45221D01*
X33160Y-45247D01*
X33206Y-45283D01*
X33245Y-45328D01*
X33274Y-45378D01*
X33292Y-45434D01*
X33299Y-45492D01*
X33300Y-45500D01*
X32700Y-45200D02*
X33300Y-45800D01*
X33300Y-45200D02*
X32700Y-45800D01*
X37050Y-26000D02*
X37044Y-26058D01*
X37027Y-26114D01*
X36999Y-26166D01*
X36962Y-26211D01*
X36917Y-26248D01*
X36866Y-26276D01*
X36810Y-26293D01*
X36752Y-26299D01*
X36694Y-26294D01*
X36638Y-26278D01*
X36586Y-26251D01*
X36541Y-26214D01*
X36503Y-26169D01*
X36475Y-26118D01*
X36457Y-26062D01*
X36451Y-26004D01*
X36455Y-25946D01*
X36472Y-25890D01*
X36498Y-25838D01*
X36535Y-25792D01*
X36579Y-25754D01*
X36630Y-25726D01*
X36686Y-25707D01*
X36744Y-25701D01*
X36802Y-25705D01*
X36858Y-25721D01*
X36910Y-25747D01*
X36956Y-25783D01*
X36995Y-25828D01*
X37024Y-25878D01*
X37042Y-25934D01*
X37049Y-25992D01*
X37050Y-26000D01*
X36450Y-25700D02*
X37050Y-26300D01*
X37050Y-25700D02*
X36450Y-26300D01*
X37050Y-29000D02*
X37044Y-29058D01*
X37027Y-29114D01*
X36999Y-29166D01*
X36962Y-29211D01*
X36917Y-29248D01*
X36866Y-29276D01*
X36810Y-29293D01*
X36752Y-29299D01*
X36694Y-29294D01*
X36638Y-29278D01*
X36586Y-29251D01*
X36541Y-29214D01*
X36503Y-29169D01*
X36475Y-29118D01*
X36457Y-29062D01*
X36451Y-29004D01*
X36455Y-28946D01*
X36472Y-28890D01*
X36498Y-28838D01*
X36535Y-28792D01*
X36579Y-28754D01*
X36630Y-28726D01*
X36686Y-28707D01*
X36744Y-28701D01*
X36802Y-28705D01*
X36858Y-28721D01*
X36910Y-28747D01*
X36956Y-28783D01*
X36995Y-28828D01*
X37024Y-28878D01*
X37042Y-28934D01*
X37049Y-28992D01*
X37050Y-29000D01*
X36450Y-28700D02*
X37050Y-29300D01*
X37050Y-28700D02*
X36450Y-29300D01*
X37050Y-31750D02*
X37044Y-31808D01*
X37027Y-31864D01*
X36999Y-31916D01*
X36962Y-31961D01*
X36917Y-31998D01*
X36866Y-32026D01*
X36810Y-32043D01*
X36752Y-32049D01*
X36694Y-32044D01*
X36638Y-32028D01*
X36586Y-32001D01*
X36541Y-31964D01*
X36503Y-31919D01*
X36475Y-31868D01*
X36457Y-31812D01*
X36451Y-31754D01*
X36455Y-31696D01*
X36472Y-31640D01*
X36498Y-31588D01*
X36535Y-31542D01*
X36579Y-31504D01*
X36630Y-31476D01*
X36686Y-31457D01*
X36744Y-31451D01*
X36802Y-31455D01*
X36858Y-31471D01*
X36910Y-31497D01*
X36956Y-31533D01*
X36995Y-31578D01*
X37024Y-31628D01*
X37042Y-31684D01*
X37049Y-31742D01*
X37050Y-31750D01*
X36450Y-31450D02*
X37050Y-32050D01*
X37050Y-31450D02*
X36450Y-32050D01*
X37050Y-34750D02*
X37044Y-34808D01*
X37027Y-34864D01*
X36999Y-34916D01*
X36962Y-34961D01*
X36917Y-34998D01*
X36866Y-35026D01*
X36810Y-35043D01*
X36752Y-35049D01*
X36694Y-35044D01*
X36638Y-35028D01*
X36586Y-35001D01*
X36541Y-34964D01*
X36503Y-34919D01*
X36475Y-34868D01*
X36457Y-34812D01*
X36451Y-34754D01*
X36455Y-34696D01*
X36472Y-34640D01*
X36498Y-34588D01*
X36535Y-34542D01*
X36579Y-34504D01*
X36630Y-34476D01*
X36686Y-34457D01*
X36744Y-34451D01*
X36802Y-34455D01*
X36858Y-34471D01*
X36910Y-34497D01*
X36956Y-34533D01*
X36995Y-34578D01*
X37024Y-34628D01*
X37042Y-34684D01*
X37049Y-34742D01*
X37050Y-34750D01*
X36450Y-34450D02*
X37050Y-35050D01*
X37050Y-34450D02*
X36450Y-35050D01*
X37050Y-37500D02*
X37044Y-37558D01*
X37027Y-37614D01*
X36999Y-37666D01*
X36962Y-37711D01*
X36917Y-37748D01*
X36866Y-37776D01*
X36810Y-37793D01*
X36752Y-37799D01*
X36694Y-37794D01*
X36638Y-37778D01*
X36586Y-37751D01*
X36541Y-37714D01*
X36503Y-37669D01*
X36475Y-37618D01*
X36457Y-37562D01*
X36451Y-37504D01*
X36455Y-37446D01*
X36472Y-37390D01*
X36498Y-37338D01*
X36535Y-37292D01*
X36579Y-37254D01*
X36630Y-37226D01*
X36686Y-37207D01*
X36744Y-37201D01*
X36802Y-37205D01*
X36858Y-37221D01*
X36910Y-37247D01*
X36956Y-37283D01*
X36995Y-37328D01*
X37024Y-37378D01*
X37042Y-37434D01*
X37049Y-37492D01*
X37050Y-37500D01*
X36450Y-37200D02*
X37050Y-37800D01*
X37050Y-37200D02*
X36450Y-37800D01*
X37050Y-40500D02*
X37044Y-40558D01*
X37027Y-40614D01*
X36999Y-40666D01*
X36962Y-40711D01*
X36917Y-40748D01*
X36866Y-40776D01*
X36810Y-40793D01*
X36752Y-40799D01*
X36694Y-40794D01*
X36638Y-40778D01*
X36586Y-40751D01*
X36541Y-40714D01*
X36503Y-40669D01*
X36475Y-40618D01*
X36457Y-40562D01*
X36451Y-40504D01*
X36455Y-40446D01*
X36472Y-40390D01*
X36498Y-40338D01*
X36535Y-40292D01*
X36579Y-40254D01*
X36630Y-40226D01*
X36686Y-40207D01*
X36744Y-40201D01*
X36802Y-40205D01*
X36858Y-40221D01*
X36910Y-40247D01*
X36956Y-40283D01*
X36995Y-40328D01*
X37024Y-40378D01*
X37042Y-40434D01*
X37049Y-40492D01*
X37050Y-40500D01*
X36450Y-40200D02*
X37050Y-40800D01*
X37050Y-40200D02*
X36450Y-40800D01*
X37050Y-43250D02*
X37044Y-43308D01*
X37027Y-43364D01*
X36999Y-43416D01*
X36962Y-43461D01*
X36917Y-43498D01*
X36866Y-43526D01*
X36810Y-43543D01*
X36752Y-43549D01*
X36694Y-43544D01*
X36638Y-43528D01*
X36586Y-43501D01*
X36541Y-43464D01*
X36503Y-43419D01*
X36475Y-43368D01*
X36457Y-43312D01*
X36451Y-43254D01*
X36455Y-43196D01*
X36472Y-43140D01*
X36498Y-43088D01*
X36535Y-43042D01*
X36579Y-43004D01*
X36630Y-42976D01*
X36686Y-42957D01*
X36744Y-42951D01*
X36802Y-42955D01*
X36858Y-42971D01*
X36910Y-42997D01*
X36956Y-43033D01*
X36995Y-43078D01*
X37024Y-43128D01*
X37042Y-43184D01*
X37049Y-43242D01*
X37050Y-43250D01*
X36450Y-42950D02*
X37050Y-43550D01*
X37050Y-42950D02*
X36450Y-43550D01*
X37050Y-46250D02*
X37044Y-46308D01*
X37027Y-46364D01*
X36999Y-46416D01*
X36962Y-46461D01*
X36917Y-46498D01*
X36866Y-46526D01*
X36810Y-46543D01*
X36752Y-46549D01*
X36694Y-46544D01*
X36638Y-46528D01*
X36586Y-46501D01*
X36541Y-46464D01*
X36503Y-46419D01*
X36475Y-46368D01*
X36457Y-46312D01*
X36451Y-46254D01*
X36455Y-46196D01*
X36472Y-46140D01*
X36498Y-46088D01*
X36535Y-46042D01*
X36579Y-46004D01*
X36630Y-45976D01*
X36686Y-45957D01*
X36744Y-45951D01*
X36802Y-45955D01*
X36858Y-45971D01*
X36910Y-45997D01*
X36956Y-46033D01*
X36995Y-46078D01*
X37024Y-46128D01*
X37042Y-46184D01*
X37049Y-46242D01*
X37050Y-46250D01*
X36450Y-45950D02*
X37050Y-46550D01*
X37050Y-45950D02*
X36450Y-46550D01*
X43546Y-29000D02*
X43540Y-29058D01*
X43523Y-29114D01*
X43495Y-29166D01*
X43458Y-29211D01*
X43413Y-29248D01*
X43362Y-29276D01*
X43306Y-29293D01*
X43248Y-29299D01*
X43190Y-29294D01*
X43134Y-29278D01*
X43082Y-29251D01*
X43037Y-29214D01*
X42999Y-29169D01*
X42971Y-29118D01*
X42953Y-29062D01*
X42947Y-29004D01*
X42951Y-28946D01*
X42968Y-28890D01*
X42994Y-28838D01*
X43031Y-28792D01*
X43075Y-28754D01*
X43126Y-28726D01*
X43182Y-28707D01*
X43240Y-28701D01*
X43298Y-28705D01*
X43354Y-28721D01*
X43406Y-28747D01*
X43452Y-28783D01*
X43491Y-28828D01*
X43520Y-28878D01*
X43538Y-28934D01*
X43545Y-28992D01*
X43546Y-29000D01*
X42946Y-28700D02*
X43546Y-29300D01*
X43546Y-28700D02*
X42946Y-29300D01*
X43546Y-34750D02*
X43540Y-34808D01*
X43523Y-34864D01*
X43495Y-34916D01*
X43458Y-34961D01*
X43413Y-34998D01*
X43362Y-35026D01*
X43306Y-35043D01*
X43248Y-35049D01*
X43190Y-35044D01*
X43134Y-35028D01*
X43082Y-35001D01*
X43037Y-34964D01*
X42999Y-34919D01*
X42971Y-34868D01*
X42953Y-34812D01*
X42947Y-34754D01*
X42951Y-34696D01*
X42968Y-34640D01*
X42994Y-34588D01*
X43031Y-34542D01*
X43075Y-34504D01*
X43126Y-34476D01*
X43182Y-34457D01*
X43240Y-34451D01*
X43298Y-34455D01*
X43354Y-34471D01*
X43406Y-34497D01*
X43452Y-34533D01*
X43491Y-34578D01*
X43520Y-34628D01*
X43538Y-34684D01*
X43545Y-34742D01*
X43546Y-34750D01*
X42946Y-34450D02*
X43546Y-35050D01*
X43546Y-34450D02*
X42946Y-35050D01*
X43546Y-40500D02*
X43540Y-40558D01*
X43523Y-40614D01*
X43495Y-40666D01*
X43458Y-40711D01*
X43413Y-40748D01*
X43362Y-40776D01*
X43306Y-40793D01*
X43248Y-40799D01*
X43190Y-40794D01*
X43134Y-40778D01*
X43082Y-40751D01*
X43037Y-40714D01*
X42999Y-40669D01*
X42971Y-40618D01*
X42953Y-40562D01*
X42947Y-40504D01*
X42951Y-40446D01*
X42968Y-40390D01*
X42994Y-40338D01*
X43031Y-40292D01*
X43075Y-40254D01*
X43126Y-40226D01*
X43182Y-40207D01*
X43240Y-40201D01*
X43298Y-40205D01*
X43354Y-40221D01*
X43406Y-40247D01*
X43452Y-40283D01*
X43491Y-40328D01*
X43520Y-40378D01*
X43538Y-40434D01*
X43545Y-40492D01*
X43546Y-40500D01*
X42946Y-40200D02*
X43546Y-40800D01*
X43546Y-40200D02*
X42946Y-40800D01*
X43546Y-46250D02*
X43540Y-46308D01*
X43523Y-46364D01*
X43495Y-46416D01*
X43458Y-46461D01*
X43413Y-46498D01*
X43362Y-46526D01*
X43306Y-46543D01*
X43248Y-46549D01*
X43190Y-46544D01*
X43134Y-46528D01*
X43082Y-46501D01*
X43037Y-46464D01*
X42999Y-46419D01*
X42971Y-46368D01*
X42953Y-46312D01*
X42947Y-46254D01*
X42951Y-46196D01*
X42968Y-46140D01*
X42994Y-46088D01*
X43031Y-46042D01*
X43075Y-46004D01*
X43126Y-45976D01*
X43182Y-45957D01*
X43240Y-45951D01*
X43298Y-45955D01*
X43354Y-45971D01*
X43406Y-45997D01*
X43452Y-46033D01*
X43491Y-46078D01*
X43520Y-46128D01*
X43538Y-46184D01*
X43545Y-46242D01*
X43546Y-46250D01*
X42946Y-45950D02*
X43546Y-46550D01*
X43546Y-45950D02*
X42946Y-46550D01*
X44924Y-26000D02*
X44918Y-26058D01*
X44901Y-26114D01*
X44873Y-26166D01*
X44836Y-26211D01*
X44791Y-26248D01*
X44740Y-26276D01*
X44684Y-26293D01*
X44626Y-26299D01*
X44568Y-26294D01*
X44512Y-26278D01*
X44460Y-26251D01*
X44415Y-26214D01*
X44377Y-26169D01*
X44349Y-26118D01*
X44331Y-26062D01*
X44325Y-26004D01*
X44329Y-25946D01*
X44346Y-25890D01*
X44372Y-25838D01*
X44409Y-25792D01*
X44453Y-25754D01*
X44504Y-25726D01*
X44560Y-25707D01*
X44618Y-25701D01*
X44676Y-25705D01*
X44732Y-25721D01*
X44784Y-25747D01*
X44830Y-25783D01*
X44869Y-25828D01*
X44898Y-25878D01*
X44916Y-25934D01*
X44923Y-25992D01*
X44924Y-26000D01*
X44324Y-25700D02*
X44924Y-26300D01*
X44924Y-25700D02*
X44324Y-26300D01*
X44924Y-31750D02*
X44918Y-31808D01*
X44901Y-31864D01*
X44873Y-31916D01*
X44836Y-31961D01*
X44791Y-31998D01*
X44740Y-32026D01*
X44684Y-32043D01*
X44626Y-32049D01*
X44568Y-32044D01*
X44512Y-32028D01*
X44460Y-32001D01*
X44415Y-31964D01*
X44377Y-31919D01*
X44349Y-31868D01*
X44331Y-31812D01*
X44325Y-31754D01*
X44329Y-31696D01*
X44346Y-31640D01*
X44372Y-31588D01*
X44409Y-31542D01*
X44453Y-31504D01*
X44504Y-31476D01*
X44560Y-31457D01*
X44618Y-31451D01*
X44676Y-31455D01*
X44732Y-31471D01*
X44784Y-31497D01*
X44830Y-31533D01*
X44869Y-31578D01*
X44898Y-31628D01*
X44916Y-31684D01*
X44923Y-31742D01*
X44924Y-31750D01*
X44324Y-31450D02*
X44924Y-32050D01*
X44924Y-31450D02*
X44324Y-32050D01*
X44924Y-37500D02*
X44918Y-37558D01*
X44901Y-37614D01*
X44873Y-37666D01*
X44836Y-37711D01*
X44791Y-37748D01*
X44740Y-37776D01*
X44684Y-37793D01*
X44626Y-37799D01*
X44568Y-37794D01*
X44512Y-37778D01*
X44460Y-37751D01*
X44415Y-37714D01*
X44377Y-37669D01*
X44349Y-37618D01*
X44331Y-37562D01*
X44325Y-37504D01*
X44329Y-37446D01*
X44346Y-37390D01*
X44372Y-37338D01*
X44409Y-37292D01*
X44453Y-37254D01*
X44504Y-37226D01*
X44560Y-37207D01*
X44618Y-37201D01*
X44676Y-37205D01*
X44732Y-37221D01*
X44784Y-37247D01*
X44830Y-37283D01*
X44869Y-37328D01*
X44898Y-37378D01*
X44916Y-37434D01*
X44923Y-37492D01*
X44924Y-37500D01*
X44324Y-37200D02*
X44924Y-37800D01*
X44924Y-37200D02*
X44324Y-37800D01*
X44924Y-43250D02*
X44918Y-43308D01*
X44901Y-43364D01*
X44873Y-43416D01*
X44836Y-43461D01*
X44791Y-43498D01*
X44740Y-43526D01*
X44684Y-43543D01*
X44626Y-43549D01*
X44568Y-43544D01*
X44512Y-43528D01*
X44460Y-43501D01*
X44415Y-43464D01*
X44377Y-43419D01*
X44349Y-43368D01*
X44331Y-43312D01*
X44325Y-43254D01*
X44329Y-43196D01*
X44346Y-43140D01*
X44372Y-43088D01*
X44409Y-43042D01*
X44453Y-43004D01*
X44504Y-42976D01*
X44560Y-42957D01*
X44618Y-42951D01*
X44676Y-42955D01*
X44732Y-42971D01*
X44784Y-42997D01*
X44830Y-43033D01*
X44869Y-43078D01*
X44898Y-43128D01*
X44916Y-43184D01*
X44923Y-43242D01*
X44924Y-43250D01*
X44324Y-42950D02*
X44924Y-43550D01*
X44924Y-42950D02*
X44324Y-43550D01*
X46302Y-29000D02*
X46296Y-29058D01*
X46279Y-29114D01*
X46251Y-29166D01*
X46214Y-29211D01*
X46169Y-29248D01*
X46118Y-29276D01*
X46062Y-29293D01*
X46004Y-29299D01*
X45946Y-29294D01*
X45890Y-29278D01*
X45838Y-29251D01*
X45793Y-29214D01*
X45755Y-29169D01*
X45727Y-29118D01*
X45709Y-29062D01*
X45703Y-29004D01*
X45707Y-28946D01*
X45724Y-28890D01*
X45750Y-28838D01*
X45787Y-28792D01*
X45831Y-28754D01*
X45882Y-28726D01*
X45938Y-28707D01*
X45996Y-28701D01*
X46054Y-28705D01*
X46110Y-28721D01*
X46162Y-28747D01*
X46208Y-28783D01*
X46247Y-28828D01*
X46276Y-28878D01*
X46294Y-28934D01*
X46301Y-28992D01*
X46302Y-29000D01*
X45702Y-28700D02*
X46302Y-29300D01*
X46302Y-28700D02*
X45702Y-29300D01*
X46302Y-34750D02*
X46296Y-34808D01*
X46279Y-34864D01*
X46251Y-34916D01*
X46214Y-34961D01*
X46169Y-34998D01*
X46118Y-35026D01*
X46062Y-35043D01*
X46004Y-35049D01*
X45946Y-35044D01*
X45890Y-35028D01*
X45838Y-35001D01*
X45793Y-34964D01*
X45755Y-34919D01*
X45727Y-34868D01*
X45709Y-34812D01*
X45703Y-34754D01*
X45707Y-34696D01*
X45724Y-34640D01*
X45750Y-34588D01*
X45787Y-34542D01*
X45831Y-34504D01*
X45882Y-34476D01*
X45938Y-34457D01*
X45996Y-34451D01*
X46054Y-34455D01*
X46110Y-34471D01*
X46162Y-34497D01*
X46208Y-34533D01*
X46247Y-34578D01*
X46276Y-34628D01*
X46294Y-34684D01*
X46301Y-34742D01*
X46302Y-34750D01*
X45702Y-34450D02*
X46302Y-35050D01*
X46302Y-34450D02*
X45702Y-35050D01*
X46302Y-40500D02*
X46296Y-40558D01*
X46279Y-40614D01*
X46251Y-40666D01*
X46214Y-40711D01*
X46169Y-40748D01*
X46118Y-40776D01*
X46062Y-40793D01*
X46004Y-40799D01*
X45946Y-40794D01*
X45890Y-40778D01*
X45838Y-40751D01*
X45793Y-40714D01*
X45755Y-40669D01*
X45727Y-40618D01*
X45709Y-40562D01*
X45703Y-40504D01*
X45707Y-40446D01*
X45724Y-40390D01*
X45750Y-40338D01*
X45787Y-40292D01*
X45831Y-40254D01*
X45882Y-40226D01*
X45938Y-40207D01*
X45996Y-40201D01*
X46054Y-40205D01*
X46110Y-40221D01*
X46162Y-40247D01*
X46208Y-40283D01*
X46247Y-40328D01*
X46276Y-40378D01*
X46294Y-40434D01*
X46301Y-40492D01*
X46302Y-40500D01*
X45702Y-40200D02*
X46302Y-40800D01*
X46302Y-40200D02*
X45702Y-40800D01*
X46302Y-46250D02*
X46296Y-46308D01*
X46279Y-46364D01*
X46251Y-46416D01*
X46214Y-46461D01*
X46169Y-46498D01*
X46118Y-46526D01*
X46062Y-46543D01*
X46004Y-46549D01*
X45946Y-46544D01*
X45890Y-46528D01*
X45838Y-46501D01*
X45793Y-46464D01*
X45755Y-46419D01*
X45727Y-46368D01*
X45709Y-46312D01*
X45703Y-46254D01*
X45707Y-46196D01*
X45724Y-46140D01*
X45750Y-46088D01*
X45787Y-46042D01*
X45831Y-46004D01*
X45882Y-45976D01*
X45938Y-45957D01*
X45996Y-45951D01*
X46054Y-45955D01*
X46110Y-45971D01*
X46162Y-45997D01*
X46208Y-46033D01*
X46247Y-46078D01*
X46276Y-46128D01*
X46294Y-46184D01*
X46301Y-46242D01*
X46302Y-46250D01*
X45702Y-45950D02*
X46302Y-46550D01*
X46302Y-45950D02*
X45702Y-46550D01*
X23090Y-50000D02*
X23078Y-50114D01*
X23045Y-50224D01*
X22991Y-50326D01*
X22918Y-50415D01*
X22829Y-50489D01*
X22728Y-50543D01*
X22618Y-50577D01*
X22504Y-50589D01*
X22390Y-50579D01*
X22279Y-50547D01*
X22177Y-50493D01*
X22088Y-50421D01*
X22014Y-50333D01*
X21958Y-50232D01*
X21923Y-50122D01*
X21911Y-50008D01*
X21920Y-49894D01*
X21952Y-49783D01*
X22005Y-49681D01*
X22076Y-49591D01*
X22164Y-49516D01*
X22264Y-49460D01*
X22374Y-49424D01*
X22488Y-49411D01*
X22602Y-49419D01*
X22713Y-49450D01*
X22816Y-49502D01*
X22906Y-49573D01*
X22982Y-49660D01*
X23038Y-49761D01*
X23075Y-49870D01*
X23089Y-49984D01*
X23090Y-50000D01*
X21910Y-50000D02*
X23090Y-50000D01*
X31340Y-22500D02*
X31328Y-22614D01*
X31295Y-22724D01*
X31241Y-22826D01*
X31168Y-22915D01*
X31079Y-22989D01*
X30978Y-23043D01*
X30868Y-23077D01*
X30754Y-23089D01*
X30640Y-23079D01*
X30529Y-23047D01*
X30427Y-22993D01*
X30338Y-22921D01*
X30264Y-22833D01*
X30208Y-22732D01*
X30173Y-22622D01*
X30161Y-22508D01*
X30170Y-22394D01*
X30202Y-22283D01*
X30255Y-22181D01*
X30326Y-22091D01*
X30414Y-22016D01*
X30514Y-21960D01*
X30624Y-21924D01*
X30738Y-21911D01*
X30852Y-21919D01*
X30963Y-21950D01*
X31066Y-22002D01*
X31156Y-22073D01*
X31232Y-22160D01*
X31288Y-22261D01*
X31325Y-22370D01*
X31339Y-22484D01*
X31340Y-22500D01*
X30160Y-22500D02*
X31340Y-22500D01*
X31340Y-50000D02*
X31328Y-50114D01*
X31295Y-50224D01*
X31241Y-50326D01*
X31168Y-50415D01*
X31079Y-50489D01*
X30978Y-50543D01*
X30868Y-50577D01*
X30754Y-50589D01*
X30640Y-50579D01*
X30529Y-50547D01*
X30427Y-50493D01*
X30338Y-50421D01*
X30264Y-50333D01*
X30208Y-50232D01*
X30173Y-50122D01*
X30161Y-50008D01*
X30170Y-49894D01*
X30202Y-49783D01*
X30255Y-49681D01*
X30326Y-49591D01*
X30414Y-49516D01*
X30514Y-49460D01*
X30624Y-49424D01*
X30738Y-49411D01*
X30852Y-49419D01*
X30963Y-49450D01*
X31066Y-49502D01*
X31156Y-49573D01*
X31232Y-49660D01*
X31288Y-49761D01*
X31325Y-49870D01*
X31339Y-49984D01*
X31340Y-50000D01*
X30160Y-50000D02*
X31340Y-50000D01*
X42340Y-22500D02*
X42328Y-22614D01*
X42295Y-22724D01*
X42241Y-22826D01*
X42168Y-22915D01*
X42079Y-22989D01*
X41978Y-23043D01*
X41868Y-23077D01*
X41754Y-23089D01*
X41640Y-23079D01*
X41529Y-23047D01*
X41427Y-22993D01*
X41338Y-22921D01*
X41264Y-22833D01*
X41208Y-22732D01*
X41173Y-22622D01*
X41161Y-22508D01*
X41170Y-22394D01*
X41202Y-22283D01*
X41255Y-22181D01*
X41326Y-22091D01*
X41414Y-22016D01*
X41514Y-21960D01*
X41624Y-21924D01*
X41738Y-21911D01*
X41852Y-21919D01*
X41963Y-21950D01*
X42066Y-22002D01*
X42156Y-22073D01*
X42232Y-22160D01*
X42288Y-22261D01*
X42325Y-22370D01*
X42339Y-22484D01*
X42340Y-22500D01*
X41160Y-22500D02*
X42340Y-22500D01*
X42340Y-50000D02*
X42328Y-50114D01*
X42295Y-50224D01*
X42241Y-50326D01*
X42168Y-50415D01*
X42079Y-50489D01*
X41978Y-50543D01*
X41868Y-50577D01*
X41754Y-50589D01*
X41640Y-50579D01*
X41529Y-50547D01*
X41427Y-50493D01*
X41338Y-50421D01*
X41264Y-50333D01*
X41208Y-50232D01*
X41173Y-50122D01*
X41161Y-50008D01*
X41170Y-49894D01*
X41202Y-49783D01*
X41255Y-49681D01*
X41326Y-49591D01*
X41414Y-49516D01*
X41514Y-49460D01*
X41624Y-49424D01*
X41738Y-49411D01*
X41852Y-49419D01*
X41963Y-49450D01*
X42066Y-49502D01*
X42156Y-49573D01*
X42232Y-49660D01*
X42288Y-49761D01*
X42325Y-49870D01*
X42339Y-49984D01*
X42340Y-50000D01*
X41160Y-50000D02*
X42340Y-50000D01*
X50590Y-22500D02*
X50578Y-22614D01*
X50545Y-22724D01*
X50491Y-22826D01*
X50418Y-22915D01*
X50329Y-22989D01*
X50228Y-23043D01*
X50118Y-23077D01*
X50004Y-23089D01*
X49890Y-23079D01*
X49779Y-23047D01*
X49677Y-22993D01*
X49588Y-22921D01*
X49514Y-22833D01*
X49458Y-22732D01*
X49423Y-22622D01*
X49411Y-22508D01*
X49420Y-22394D01*
X49452Y-22283D01*
X49505Y-22181D01*
X49576Y-22091D01*
X49664Y-22016D01*
X49764Y-21960D01*
X49874Y-21924D01*
X49988Y-21911D01*
X50102Y-21919D01*
X50213Y-21950D01*
X50316Y-22002D01*
X50406Y-22073D01*
X50482Y-22160D01*
X50538Y-22261D01*
X50575Y-22370D01*
X50589Y-22484D01*
X50590Y-22500D01*
X49410Y-22500D02*
X50590Y-22500D01*
X50590Y-50000D02*
X50578Y-50114D01*
X50545Y-50224D01*
X50491Y-50326D01*
X50418Y-50415D01*
X50329Y-50489D01*
X50228Y-50543D01*
X50118Y-50577D01*
X50004Y-50589D01*
X49890Y-50579D01*
X49779Y-50547D01*
X49677Y-50493D01*
X49588Y-50421D01*
X49514Y-50333D01*
X49458Y-50232D01*
X49423Y-50122D01*
X49411Y-50008D01*
X49420Y-49894D01*
X49452Y-49783D01*
X49505Y-49681D01*
X49576Y-49591D01*
X49664Y-49516D01*
X49764Y-49460D01*
X49874Y-49424D01*
X49988Y-49411D01*
X50102Y-49419D01*
X50213Y-49450D01*
X50316Y-49502D01*
X50406Y-49573D01*
X50482Y-49660D01*
X50538Y-49761D01*
X50575Y-49870D01*
X50589Y-49984D01*
X50590Y-50000D01*
X49410Y-50000D02*
X50590Y-50000D01*
G54D12*
X20239Y-54014D02*
X20239Y-53214D01*
X20430Y-53214D01*
X20544Y-53252D01*
X20620Y-53328D01*
X20659Y-53404D01*
X20697Y-53557D01*
X20697Y-53671D01*
X20659Y-53823D01*
X20620Y-53900D01*
X20544Y-53976D01*
X20430Y-54014D01*
X20239Y-54014D01*
X21039Y-54014D02*
X21039Y-53480D01*
X21039Y-53633D02*
X21078Y-53557D01*
X21116Y-53519D01*
X21192Y-53480D01*
X21268Y-53480D01*
X21534Y-54014D02*
X21534Y-53480D01*
X21534Y-53214D02*
X21496Y-53252D01*
X21534Y-53290D01*
X21573Y-53252D01*
X21534Y-53214D01*
X21534Y-53290D01*
X22030Y-54014D02*
X21954Y-53976D01*
X21915Y-53900D01*
X21915Y-53214D01*
X22449Y-54014D02*
X22373Y-53976D01*
X22334Y-53900D01*
X22334Y-53214D01*
X23363Y-54014D02*
X23363Y-53214D01*
X23630Y-53785D01*
X23897Y-53214D01*
X23897Y-54014D01*
X24620Y-54014D02*
X24620Y-53595D01*
X24582Y-53519D01*
X24506Y-53480D01*
X24354Y-53480D01*
X24277Y-53519D01*
X24620Y-53976D02*
X24544Y-54014D01*
X24354Y-54014D01*
X24277Y-53976D01*
X24239Y-53900D01*
X24239Y-53823D01*
X24277Y-53747D01*
X24354Y-53709D01*
X24544Y-53709D01*
X24620Y-53671D01*
X25001Y-53480D02*
X25001Y-54280D01*
X25001Y-53519D02*
X25078Y-53480D01*
X25230Y-53480D01*
X25306Y-53519D01*
X25344Y-53557D01*
X25382Y-53633D01*
X25382Y-53861D01*
X25344Y-53938D01*
X25306Y-53976D01*
X25230Y-54014D01*
X25078Y-54014D01*
X25001Y-53976D01*
X25725Y-53938D02*
X25764Y-53976D01*
X25725Y-54014D01*
X25687Y-53976D01*
X25725Y-53938D01*
X25725Y-54014D01*
X25725Y-53519D02*
X25764Y-53557D01*
X25725Y-53595D01*
X25687Y-53557D01*
X25725Y-53519D01*
X25725Y-53595D01*
X19599Y-55245D02*
X19849Y-55495D01*
X19849Y-55245D02*
X19599Y-55495D01*
X20392Y-54894D02*
X20468Y-54894D01*
X20544Y-54932D01*
X20582Y-54970D01*
X20620Y-55046D01*
X20659Y-55199D01*
X20659Y-55389D01*
X20620Y-55541D01*
X20582Y-55618D01*
X20544Y-55656D01*
X20468Y-55694D01*
X20392Y-55694D01*
X20316Y-55656D01*
X20278Y-55618D01*
X20239Y-55541D01*
X20201Y-55389D01*
X20201Y-55199D01*
X20239Y-55046D01*
X20278Y-54970D01*
X20316Y-54932D01*
X20392Y-54894D01*
X21001Y-55618D02*
X21040Y-55656D01*
X21001Y-55694D01*
X20963Y-55656D01*
X21001Y-55618D01*
X21001Y-55694D01*
X21725Y-54894D02*
X21573Y-54894D01*
X21497Y-54932D01*
X21459Y-54970D01*
X21382Y-55084D01*
X21344Y-55237D01*
X21344Y-55541D01*
X21382Y-55618D01*
X21421Y-55656D01*
X21497Y-55694D01*
X21649Y-55694D01*
X21725Y-55656D01*
X21763Y-55618D01*
X21802Y-55541D01*
X21802Y-55351D01*
X21763Y-55275D01*
X21725Y-55237D01*
X21649Y-55199D01*
X21497Y-55199D01*
X21421Y-55237D01*
X21382Y-55275D01*
X21344Y-55351D01*
X22487Y-55160D02*
X22487Y-55694D01*
X22297Y-54856D02*
X22106Y-55427D01*
X22602Y-55427D01*
X22906Y-55694D02*
X22906Y-55160D01*
X22906Y-55237D02*
X22945Y-55199D01*
X23021Y-55160D01*
X23135Y-55160D01*
X23211Y-55199D01*
X23249Y-55275D01*
X23249Y-55694D01*
X23249Y-55275D02*
X23287Y-55199D01*
X23364Y-55160D01*
X23478Y-55160D01*
X23554Y-55199D01*
X23592Y-55275D01*
X23592Y-55694D01*
X23973Y-55694D02*
X23973Y-55160D01*
X23973Y-55237D02*
X24012Y-55199D01*
X24088Y-55160D01*
X24202Y-55160D01*
X24278Y-55199D01*
X24316Y-55275D01*
X24316Y-55694D01*
X24316Y-55275D02*
X24354Y-55199D01*
X24431Y-55160D01*
X24545Y-55160D01*
X24621Y-55199D01*
X24659Y-55275D01*
X24659Y-55694D01*
X26222Y-54856D02*
X25536Y-55884D01*
X27251Y-54894D02*
X27327Y-54894D01*
X27403Y-54932D01*
X27441Y-54970D01*
X27479Y-55046D01*
X27518Y-55199D01*
X27518Y-55389D01*
X27479Y-55541D01*
X27441Y-55618D01*
X27403Y-55656D01*
X27327Y-55694D01*
X27251Y-55694D01*
X27175Y-55656D01*
X27137Y-55618D01*
X27098Y-55541D01*
X27060Y-55389D01*
X27060Y-55199D01*
X27098Y-55046D01*
X27137Y-54970D01*
X27175Y-54932D01*
X27251Y-54894D01*
X27860Y-55618D02*
X27899Y-55656D01*
X27860Y-55694D01*
X27822Y-55656D01*
X27860Y-55618D01*
X27860Y-55694D01*
X28394Y-54894D02*
X28470Y-54894D01*
X28546Y-54932D01*
X28584Y-54970D01*
X28622Y-55046D01*
X28661Y-55199D01*
X28661Y-55389D01*
X28622Y-55541D01*
X28584Y-55618D01*
X28546Y-55656D01*
X28470Y-55694D01*
X28394Y-55694D01*
X28318Y-55656D01*
X28280Y-55618D01*
X28241Y-55541D01*
X28203Y-55389D01*
X28203Y-55199D01*
X28241Y-55046D01*
X28280Y-54970D01*
X28318Y-54932D01*
X28394Y-54894D01*
X28965Y-54970D02*
X29003Y-54932D01*
X29080Y-54894D01*
X29270Y-54894D01*
X29346Y-54932D01*
X29384Y-54970D01*
X29423Y-55046D01*
X29423Y-55122D01*
X29384Y-55237D01*
X28927Y-55694D01*
X29423Y-55694D01*
X30146Y-54894D02*
X29765Y-54894D01*
X29727Y-55275D01*
X29765Y-55237D01*
X29842Y-55199D01*
X30032Y-55199D01*
X30108Y-55237D01*
X30146Y-55275D01*
X30185Y-55351D01*
X30185Y-55541D01*
X30146Y-55618D01*
X30108Y-55656D01*
X30032Y-55694D01*
X29842Y-55694D01*
X29765Y-55656D01*
X29727Y-55618D01*
X30489Y-54894D02*
X30489Y-55046D01*
X30794Y-54894D02*
X30794Y-55046D01*
X31976Y-55999D02*
X31938Y-55960D01*
X31862Y-55846D01*
X31824Y-55770D01*
X31786Y-55656D01*
X31747Y-55465D01*
X31747Y-55313D01*
X31786Y-55122D01*
X31824Y-55008D01*
X31862Y-54932D01*
X31938Y-54818D01*
X31976Y-54780D01*
X32700Y-55694D02*
X32242Y-55694D01*
X32471Y-55694D02*
X32471Y-54894D01*
X32395Y-55008D01*
X32319Y-55084D01*
X32242Y-55122D01*
X32966Y-54894D02*
X33500Y-54894D01*
X33157Y-55694D01*
X34414Y-55694D02*
X34414Y-54894D01*
X34757Y-55694D02*
X34757Y-55275D01*
X34719Y-55199D01*
X34643Y-55160D01*
X34529Y-55160D01*
X34453Y-55199D01*
X34414Y-55237D01*
X35253Y-55694D02*
X35177Y-55656D01*
X35138Y-55618D01*
X35100Y-55541D01*
X35100Y-55313D01*
X35138Y-55237D01*
X35177Y-55199D01*
X35253Y-55160D01*
X35367Y-55160D01*
X35443Y-55199D01*
X35481Y-55237D01*
X35519Y-55313D01*
X35519Y-55541D01*
X35481Y-55618D01*
X35443Y-55656D01*
X35367Y-55694D01*
X35253Y-55694D01*
X35977Y-55694D02*
X35901Y-55656D01*
X35862Y-55580D01*
X35862Y-54894D01*
X36586Y-55656D02*
X36510Y-55694D01*
X36358Y-55694D01*
X36281Y-55656D01*
X36243Y-55580D01*
X36243Y-55275D01*
X36281Y-55199D01*
X36358Y-55160D01*
X36510Y-55160D01*
X36586Y-55199D01*
X36624Y-55275D01*
X36624Y-55351D01*
X36243Y-55427D01*
X36929Y-55656D02*
X37006Y-55694D01*
X37158Y-55694D01*
X37234Y-55656D01*
X37272Y-55580D01*
X37272Y-55541D01*
X37234Y-55465D01*
X37158Y-55427D01*
X37044Y-55427D01*
X36967Y-55389D01*
X36929Y-55313D01*
X36929Y-55275D01*
X36967Y-55199D01*
X37044Y-55160D01*
X37158Y-55160D01*
X37234Y-55199D01*
X37539Y-55999D02*
X37577Y-55960D01*
X37654Y-55846D01*
X37692Y-55770D01*
X37730Y-55656D01*
X37768Y-55465D01*
X37768Y-55313D01*
X37730Y-55122D01*
X37692Y-55008D01*
X37654Y-54932D01*
X37577Y-54818D01*
X37539Y-54780D01*
G54D10*
X19849Y-56425D02*
X19845Y-56456D01*
X19836Y-56485D01*
X19822Y-56513D01*
X19802Y-56537D01*
X19778Y-56557D01*
X19751Y-56572D01*
X19721Y-56581D01*
X19690Y-56584D01*
X19660Y-56582D01*
X19630Y-56573D01*
X19602Y-56558D01*
X19578Y-56539D01*
X19557Y-56515D01*
X19542Y-56488D01*
X19533Y-56458D01*
X19530Y-56427D01*
X19532Y-56397D01*
X19541Y-56367D01*
X19555Y-56339D01*
X19574Y-56314D01*
X19598Y-56294D01*
X19625Y-56279D01*
X19655Y-56269D01*
X19686Y-56266D01*
X19716Y-56268D01*
X19746Y-56276D01*
X19774Y-56290D01*
X19799Y-56310D01*
X19819Y-56333D01*
X19835Y-56360D01*
X19845Y-56390D01*
X19848Y-56421D01*
X19849Y-56425D01*
G54D12*
X20392Y-55949D02*
X20468Y-55949D01*
X20544Y-55987D01*
X20582Y-56025D01*
X20620Y-56101D01*
X20659Y-56254D01*
X20659Y-56444D01*
X20620Y-56596D01*
X20582Y-56673D01*
X20544Y-56711D01*
X20468Y-56749D01*
X20392Y-56749D01*
X20316Y-56711D01*
X20278Y-56673D01*
X20239Y-56596D01*
X20201Y-56444D01*
X20201Y-56254D01*
X20239Y-56101D01*
X20278Y-56025D01*
X20316Y-55987D01*
X20392Y-55949D01*
X21001Y-56673D02*
X21040Y-56711D01*
X21001Y-56749D01*
X20963Y-56711D01*
X21001Y-56673D01*
X21001Y-56749D01*
X21497Y-56292D02*
X21421Y-56254D01*
X21382Y-56215D01*
X21344Y-56139D01*
X21344Y-56101D01*
X21382Y-56025D01*
X21421Y-55987D01*
X21497Y-55949D01*
X21649Y-55949D01*
X21725Y-55987D01*
X21763Y-56025D01*
X21802Y-56101D01*
X21802Y-56139D01*
X21763Y-56215D01*
X21725Y-56254D01*
X21649Y-56292D01*
X21497Y-56292D01*
X21421Y-56330D01*
X21382Y-56368D01*
X21344Y-56444D01*
X21344Y-56596D01*
X21382Y-56673D01*
X21421Y-56711D01*
X21497Y-56749D01*
X21649Y-56749D01*
X21725Y-56711D01*
X21763Y-56673D01*
X21802Y-56596D01*
X21802Y-56444D01*
X21763Y-56368D01*
X21725Y-56330D01*
X21649Y-56292D01*
X22564Y-56749D02*
X22106Y-56749D01*
X22335Y-56749D02*
X22335Y-55949D01*
X22259Y-56063D01*
X22183Y-56139D01*
X22106Y-56177D01*
X22906Y-56749D02*
X22906Y-56215D01*
X22906Y-56292D02*
X22945Y-56254D01*
X23021Y-56215D01*
X23135Y-56215D01*
X23211Y-56254D01*
X23249Y-56330D01*
X23249Y-56749D01*
X23249Y-56330D02*
X23287Y-56254D01*
X23364Y-56215D01*
X23478Y-56215D01*
X23554Y-56254D01*
X23592Y-56330D01*
X23592Y-56749D01*
X23973Y-56749D02*
X23973Y-56215D01*
X23973Y-56292D02*
X24012Y-56254D01*
X24088Y-56215D01*
X24202Y-56215D01*
X24278Y-56254D01*
X24316Y-56330D01*
X24316Y-56749D01*
X24316Y-56330D02*
X24354Y-56254D01*
X24431Y-56215D01*
X24545Y-56215D01*
X24621Y-56254D01*
X24659Y-56330D01*
X24659Y-56749D01*
X26222Y-55911D02*
X25536Y-56939D01*
X27251Y-55949D02*
X27327Y-55949D01*
X27403Y-55987D01*
X27441Y-56025D01*
X27479Y-56101D01*
X27518Y-56254D01*
X27518Y-56444D01*
X27479Y-56596D01*
X27441Y-56673D01*
X27403Y-56711D01*
X27327Y-56749D01*
X27251Y-56749D01*
X27175Y-56711D01*
X27137Y-56673D01*
X27098Y-56596D01*
X27060Y-56444D01*
X27060Y-56254D01*
X27098Y-56101D01*
X27137Y-56025D01*
X27175Y-55987D01*
X27251Y-55949D01*
X27860Y-56673D02*
X27899Y-56711D01*
X27860Y-56749D01*
X27822Y-56711D01*
X27860Y-56673D01*
X27860Y-56749D01*
X28394Y-55949D02*
X28470Y-55949D01*
X28546Y-55987D01*
X28584Y-56025D01*
X28622Y-56101D01*
X28661Y-56254D01*
X28661Y-56444D01*
X28622Y-56596D01*
X28584Y-56673D01*
X28546Y-56711D01*
X28470Y-56749D01*
X28394Y-56749D01*
X28318Y-56711D01*
X28280Y-56673D01*
X28241Y-56596D01*
X28203Y-56444D01*
X28203Y-56254D01*
X28241Y-56101D01*
X28280Y-56025D01*
X28318Y-55987D01*
X28394Y-55949D01*
X28927Y-55949D02*
X29423Y-55949D01*
X29156Y-56254D01*
X29270Y-56254D01*
X29346Y-56292D01*
X29384Y-56330D01*
X29423Y-56406D01*
X29423Y-56596D01*
X29384Y-56673D01*
X29346Y-56711D01*
X29270Y-56749D01*
X29042Y-56749D01*
X28965Y-56711D01*
X28927Y-56673D01*
X29727Y-56025D02*
X29765Y-55987D01*
X29842Y-55949D01*
X30032Y-55949D01*
X30108Y-55987D01*
X30146Y-56025D01*
X30185Y-56101D01*
X30185Y-56177D01*
X30146Y-56292D01*
X29689Y-56749D01*
X30185Y-56749D01*
X30489Y-55949D02*
X30489Y-56101D01*
X30794Y-55949D02*
X30794Y-56101D01*
X31976Y-57054D02*
X31938Y-57015D01*
X31862Y-56901D01*
X31824Y-56825D01*
X31786Y-56711D01*
X31747Y-56520D01*
X31747Y-56368D01*
X31786Y-56177D01*
X31824Y-56063D01*
X31862Y-55987D01*
X31938Y-55873D01*
X31976Y-55835D01*
X32623Y-56215D02*
X32623Y-56749D01*
X32433Y-55911D02*
X32242Y-56482D01*
X32738Y-56482D01*
X33004Y-56025D02*
X33042Y-55987D01*
X33119Y-55949D01*
X33309Y-55949D01*
X33385Y-55987D01*
X33423Y-56025D01*
X33462Y-56101D01*
X33462Y-56177D01*
X33423Y-56292D01*
X32966Y-56749D01*
X33462Y-56749D01*
X34414Y-56749D02*
X34414Y-55949D01*
X34757Y-56749D02*
X34757Y-56330D01*
X34719Y-56254D01*
X34643Y-56215D01*
X34529Y-56215D01*
X34453Y-56254D01*
X34414Y-56292D01*
X35253Y-56749D02*
X35177Y-56711D01*
X35138Y-56673D01*
X35100Y-56596D01*
X35100Y-56368D01*
X35138Y-56292D01*
X35177Y-56254D01*
X35253Y-56215D01*
X35367Y-56215D01*
X35443Y-56254D01*
X35481Y-56292D01*
X35519Y-56368D01*
X35519Y-56596D01*
X35481Y-56673D01*
X35443Y-56711D01*
X35367Y-56749D01*
X35253Y-56749D01*
X35977Y-56749D02*
X35901Y-56711D01*
X35862Y-56635D01*
X35862Y-55949D01*
X36586Y-56711D02*
X36510Y-56749D01*
X36358Y-56749D01*
X36281Y-56711D01*
X36243Y-56635D01*
X36243Y-56330D01*
X36281Y-56254D01*
X36358Y-56215D01*
X36510Y-56215D01*
X36586Y-56254D01*
X36624Y-56330D01*
X36624Y-56406D01*
X36243Y-56482D01*
X36929Y-56711D02*
X37006Y-56749D01*
X37158Y-56749D01*
X37234Y-56711D01*
X37272Y-56635D01*
X37272Y-56596D01*
X37234Y-56520D01*
X37158Y-56482D01*
X37044Y-56482D01*
X36967Y-56444D01*
X36929Y-56368D01*
X36929Y-56330D01*
X36967Y-56254D01*
X37044Y-56215D01*
X37158Y-56215D01*
X37234Y-56254D01*
X37539Y-57054D02*
X37577Y-57015D01*
X37654Y-56901D01*
X37692Y-56825D01*
X37730Y-56711D01*
X37768Y-56520D01*
X37768Y-56368D01*
X37730Y-56177D01*
X37692Y-56063D01*
X37654Y-55987D01*
X37577Y-55873D01*
X37539Y-55835D01*
X19649Y-57280D02*
X19649Y-57680D01*
X19849Y-57480D02*
X19449Y-57480D01*
X20659Y-57804D02*
X20201Y-57804D01*
X20430Y-57804D02*
X20430Y-57004D01*
X20354Y-57118D01*
X20278Y-57194D01*
X20201Y-57232D01*
X21001Y-57728D02*
X21040Y-57766D01*
X21001Y-57804D01*
X20963Y-57766D01*
X21001Y-57728D01*
X21001Y-57804D01*
X21535Y-57004D02*
X21611Y-57004D01*
X21687Y-57042D01*
X21725Y-57080D01*
X21763Y-57156D01*
X21802Y-57309D01*
X21802Y-57499D01*
X21763Y-57651D01*
X21725Y-57728D01*
X21687Y-57766D01*
X21611Y-57804D01*
X21535Y-57804D01*
X21459Y-57766D01*
X21421Y-57728D01*
X21382Y-57651D01*
X21344Y-57499D01*
X21344Y-57309D01*
X21382Y-57156D01*
X21421Y-57080D01*
X21459Y-57042D01*
X21535Y-57004D01*
X22106Y-57080D02*
X22144Y-57042D01*
X22221Y-57004D01*
X22411Y-57004D01*
X22487Y-57042D01*
X22525Y-57080D01*
X22564Y-57156D01*
X22564Y-57232D01*
X22525Y-57347D01*
X22068Y-57804D01*
X22564Y-57804D01*
X22906Y-57804D02*
X22906Y-57270D01*
X22906Y-57347D02*
X22945Y-57309D01*
X23021Y-57270D01*
X23135Y-57270D01*
X23211Y-57309D01*
X23249Y-57385D01*
X23249Y-57804D01*
X23249Y-57385D02*
X23287Y-57309D01*
X23364Y-57270D01*
X23478Y-57270D01*
X23554Y-57309D01*
X23592Y-57385D01*
X23592Y-57804D01*
X23973Y-57804D02*
X23973Y-57270D01*
X23973Y-57347D02*
X24012Y-57309D01*
X24088Y-57270D01*
X24202Y-57270D01*
X24278Y-57309D01*
X24316Y-57385D01*
X24316Y-57804D01*
X24316Y-57385D02*
X24354Y-57309D01*
X24431Y-57270D01*
X24545Y-57270D01*
X24621Y-57309D01*
X24659Y-57385D01*
X24659Y-57804D01*
X26222Y-56966D02*
X25536Y-57994D01*
X27251Y-57004D02*
X27327Y-57004D01*
X27403Y-57042D01*
X27441Y-57080D01*
X27479Y-57156D01*
X27518Y-57309D01*
X27518Y-57499D01*
X27479Y-57651D01*
X27441Y-57728D01*
X27403Y-57766D01*
X27327Y-57804D01*
X27251Y-57804D01*
X27175Y-57766D01*
X27137Y-57728D01*
X27098Y-57651D01*
X27060Y-57499D01*
X27060Y-57309D01*
X27098Y-57156D01*
X27137Y-57080D01*
X27175Y-57042D01*
X27251Y-57004D01*
X27860Y-57728D02*
X27899Y-57766D01*
X27860Y-57804D01*
X27822Y-57766D01*
X27860Y-57728D01*
X27860Y-57804D01*
X28394Y-57004D02*
X28470Y-57004D01*
X28546Y-57042D01*
X28584Y-57080D01*
X28622Y-57156D01*
X28661Y-57309D01*
X28661Y-57499D01*
X28622Y-57651D01*
X28584Y-57728D01*
X28546Y-57766D01*
X28470Y-57804D01*
X28394Y-57804D01*
X28318Y-57766D01*
X28280Y-57728D01*
X28241Y-57651D01*
X28203Y-57499D01*
X28203Y-57309D01*
X28241Y-57156D01*
X28280Y-57080D01*
X28318Y-57042D01*
X28394Y-57004D01*
X29346Y-57270D02*
X29346Y-57804D01*
X29156Y-56966D02*
X28965Y-57537D01*
X29461Y-57537D01*
X29918Y-57004D02*
X29994Y-57004D01*
X30070Y-57042D01*
X30108Y-57080D01*
X30146Y-57156D01*
X30185Y-57309D01*
X30185Y-57499D01*
X30146Y-57651D01*
X30108Y-57728D01*
X30070Y-57766D01*
X29994Y-57804D01*
X29918Y-57804D01*
X29842Y-57766D01*
X29804Y-57728D01*
X29765Y-57651D01*
X29727Y-57499D01*
X29727Y-57309D01*
X29765Y-57156D01*
X29804Y-57080D01*
X29842Y-57042D01*
X29918Y-57004D01*
X30489Y-57004D02*
X30489Y-57156D01*
X30794Y-57004D02*
X30794Y-57156D01*
X31976Y-58109D02*
X31938Y-58070D01*
X31862Y-57956D01*
X31824Y-57880D01*
X31786Y-57766D01*
X31747Y-57575D01*
X31747Y-57423D01*
X31786Y-57232D01*
X31824Y-57118D01*
X31862Y-57042D01*
X31938Y-56928D01*
X31976Y-56890D01*
X32623Y-57270D02*
X32623Y-57804D01*
X32433Y-56966D02*
X32242Y-57537D01*
X32738Y-57537D01*
X33157Y-57347D02*
X33081Y-57309D01*
X33042Y-57270D01*
X33004Y-57194D01*
X33004Y-57156D01*
X33042Y-57080D01*
X33081Y-57042D01*
X33157Y-57004D01*
X33309Y-57004D01*
X33385Y-57042D01*
X33423Y-57080D01*
X33462Y-57156D01*
X33462Y-57194D01*
X33423Y-57270D01*
X33385Y-57309D01*
X33309Y-57347D01*
X33157Y-57347D01*
X33081Y-57385D01*
X33042Y-57423D01*
X33004Y-57499D01*
X33004Y-57651D01*
X33042Y-57728D01*
X33081Y-57766D01*
X33157Y-57804D01*
X33309Y-57804D01*
X33385Y-57766D01*
X33423Y-57728D01*
X33462Y-57651D01*
X33462Y-57499D01*
X33423Y-57423D01*
X33385Y-57385D01*
X33309Y-57347D01*
X34414Y-57804D02*
X34414Y-57004D01*
X34757Y-57804D02*
X34757Y-57385D01*
X34719Y-57309D01*
X34643Y-57270D01*
X34529Y-57270D01*
X34453Y-57309D01*
X34414Y-57347D01*
X35253Y-57804D02*
X35177Y-57766D01*
X35138Y-57728D01*
X35100Y-57651D01*
X35100Y-57423D01*
X35138Y-57347D01*
X35177Y-57309D01*
X35253Y-57270D01*
X35367Y-57270D01*
X35443Y-57309D01*
X35481Y-57347D01*
X35519Y-57423D01*
X35519Y-57651D01*
X35481Y-57728D01*
X35443Y-57766D01*
X35367Y-57804D01*
X35253Y-57804D01*
X35977Y-57804D02*
X35901Y-57766D01*
X35862Y-57690D01*
X35862Y-57004D01*
X36586Y-57766D02*
X36510Y-57804D01*
X36358Y-57804D01*
X36281Y-57766D01*
X36243Y-57690D01*
X36243Y-57385D01*
X36281Y-57309D01*
X36358Y-57270D01*
X36510Y-57270D01*
X36586Y-57309D01*
X36624Y-57385D01*
X36624Y-57461D01*
X36243Y-57537D01*
X36929Y-57766D02*
X37006Y-57804D01*
X37158Y-57804D01*
X37234Y-57766D01*
X37272Y-57690D01*
X37272Y-57651D01*
X37234Y-57575D01*
X37158Y-57537D01*
X37044Y-57537D01*
X36967Y-57499D01*
X36929Y-57423D01*
X36929Y-57385D01*
X36967Y-57309D01*
X37044Y-57270D01*
X37158Y-57270D01*
X37234Y-57309D01*
X37539Y-58109D02*
X37577Y-58070D01*
X37654Y-57956D01*
X37692Y-57880D01*
X37730Y-57766D01*
X37768Y-57575D01*
X37768Y-57423D01*
X37730Y-57232D01*
X37692Y-57118D01*
X37654Y-57042D01*
X37577Y-56928D01*
X37539Y-56890D01*
G54D10*
X19849Y-58535D02*
X19843Y-58593D01*
X19826Y-58649D01*
X19798Y-58701D01*
X19761Y-58746D01*
X19716Y-58783D01*
X19665Y-58811D01*
X19609Y-58828D01*
X19551Y-58834D01*
X19493Y-58829D01*
X19437Y-58813D01*
X19385Y-58786D01*
X19340Y-58749D01*
X19302Y-58704D01*
X19274Y-58653D01*
X19256Y-58597D01*
X19250Y-58539D01*
X19254Y-58481D01*
X19271Y-58425D01*
X19297Y-58373D01*
X19334Y-58327D01*
X19378Y-58289D01*
X19429Y-58261D01*
X19485Y-58242D01*
X19543Y-58236D01*
X19601Y-58240D01*
X19657Y-58256D01*
X19709Y-58282D01*
X19755Y-58318D01*
X19794Y-58363D01*
X19823Y-58413D01*
X19841Y-58469D01*
X19848Y-58527D01*
X19849Y-58535D01*
X19249Y-58235D02*
X19849Y-58835D01*
X19849Y-58235D02*
X19249Y-58835D01*
G54D12*
X20659Y-58859D02*
X20201Y-58859D01*
X20430Y-58859D02*
X20430Y-58059D01*
X20354Y-58173D01*
X20278Y-58249D01*
X20201Y-58287D01*
X21001Y-58783D02*
X21040Y-58821D01*
X21001Y-58859D01*
X20963Y-58821D01*
X21001Y-58783D01*
X21001Y-58859D01*
X21763Y-58059D02*
X21382Y-58059D01*
X21344Y-58440D01*
X21382Y-58402D01*
X21459Y-58364D01*
X21649Y-58364D01*
X21725Y-58402D01*
X21763Y-58440D01*
X21802Y-58516D01*
X21802Y-58706D01*
X21763Y-58783D01*
X21725Y-58821D01*
X21649Y-58859D01*
X21459Y-58859D01*
X21382Y-58821D01*
X21344Y-58783D01*
X22106Y-58135D02*
X22144Y-58097D01*
X22221Y-58059D01*
X22411Y-58059D01*
X22487Y-58097D01*
X22525Y-58135D01*
X22564Y-58211D01*
X22564Y-58287D01*
X22525Y-58402D01*
X22068Y-58859D01*
X22564Y-58859D01*
X22906Y-58859D02*
X22906Y-58325D01*
X22906Y-58402D02*
X22945Y-58364D01*
X23021Y-58325D01*
X23135Y-58325D01*
X23211Y-58364D01*
X23249Y-58440D01*
X23249Y-58859D01*
X23249Y-58440D02*
X23287Y-58364D01*
X23364Y-58325D01*
X23478Y-58325D01*
X23554Y-58364D01*
X23592Y-58440D01*
X23592Y-58859D01*
X23973Y-58859D02*
X23973Y-58325D01*
X23973Y-58402D02*
X24012Y-58364D01*
X24088Y-58325D01*
X24202Y-58325D01*
X24278Y-58364D01*
X24316Y-58440D01*
X24316Y-58859D01*
X24316Y-58440D02*
X24354Y-58364D01*
X24431Y-58325D01*
X24545Y-58325D01*
X24621Y-58364D01*
X24659Y-58440D01*
X24659Y-58859D01*
X26222Y-58021D02*
X25536Y-59049D01*
X27251Y-58059D02*
X27327Y-58059D01*
X27403Y-58097D01*
X27441Y-58135D01*
X27479Y-58211D01*
X27518Y-58364D01*
X27518Y-58554D01*
X27479Y-58706D01*
X27441Y-58783D01*
X27403Y-58821D01*
X27327Y-58859D01*
X27251Y-58859D01*
X27175Y-58821D01*
X27137Y-58783D01*
X27098Y-58706D01*
X27060Y-58554D01*
X27060Y-58364D01*
X27098Y-58211D01*
X27137Y-58135D01*
X27175Y-58097D01*
X27251Y-58059D01*
X27860Y-58783D02*
X27899Y-58821D01*
X27860Y-58859D01*
X27822Y-58821D01*
X27860Y-58783D01*
X27860Y-58859D01*
X28394Y-58059D02*
X28470Y-58059D01*
X28546Y-58097D01*
X28584Y-58135D01*
X28622Y-58211D01*
X28661Y-58364D01*
X28661Y-58554D01*
X28622Y-58706D01*
X28584Y-58783D01*
X28546Y-58821D01*
X28470Y-58859D01*
X28394Y-58859D01*
X28318Y-58821D01*
X28280Y-58783D01*
X28241Y-58706D01*
X28203Y-58554D01*
X28203Y-58364D01*
X28241Y-58211D01*
X28280Y-58135D01*
X28318Y-58097D01*
X28394Y-58059D01*
X29346Y-58059D02*
X29194Y-58059D01*
X29118Y-58097D01*
X29080Y-58135D01*
X29003Y-58249D01*
X28965Y-58402D01*
X28965Y-58706D01*
X29003Y-58783D01*
X29042Y-58821D01*
X29118Y-58859D01*
X29270Y-58859D01*
X29346Y-58821D01*
X29384Y-58783D01*
X29423Y-58706D01*
X29423Y-58516D01*
X29384Y-58440D01*
X29346Y-58402D01*
X29270Y-58364D01*
X29118Y-58364D01*
X29042Y-58402D01*
X29003Y-58440D01*
X28965Y-58516D01*
X29918Y-58059D02*
X29994Y-58059D01*
X30070Y-58097D01*
X30108Y-58135D01*
X30146Y-58211D01*
X30185Y-58364D01*
X30185Y-58554D01*
X30146Y-58706D01*
X30108Y-58783D01*
X30070Y-58821D01*
X29994Y-58859D01*
X29918Y-58859D01*
X29842Y-58821D01*
X29804Y-58783D01*
X29765Y-58706D01*
X29727Y-58554D01*
X29727Y-58364D01*
X29765Y-58211D01*
X29804Y-58135D01*
X29842Y-58097D01*
X29918Y-58059D01*
X30489Y-58059D02*
X30489Y-58211D01*
X30794Y-58059D02*
X30794Y-58211D01*
X31976Y-59164D02*
X31938Y-59125D01*
X31862Y-59011D01*
X31824Y-58935D01*
X31786Y-58821D01*
X31747Y-58630D01*
X31747Y-58478D01*
X31786Y-58287D01*
X31824Y-58173D01*
X31862Y-58097D01*
X31938Y-57983D01*
X31976Y-57945D01*
X32204Y-58059D02*
X32700Y-58059D01*
X32433Y-58364D01*
X32547Y-58364D01*
X32623Y-58402D01*
X32661Y-58440D01*
X32700Y-58516D01*
X32700Y-58706D01*
X32661Y-58783D01*
X32623Y-58821D01*
X32547Y-58859D01*
X32319Y-58859D01*
X32242Y-58821D01*
X32204Y-58783D01*
X33004Y-58135D02*
X33042Y-58097D01*
X33119Y-58059D01*
X33309Y-58059D01*
X33385Y-58097D01*
X33423Y-58135D01*
X33462Y-58211D01*
X33462Y-58287D01*
X33423Y-58402D01*
X32966Y-58859D01*
X33462Y-58859D01*
X34414Y-58859D02*
X34414Y-58059D01*
X34757Y-58859D02*
X34757Y-58440D01*
X34719Y-58364D01*
X34643Y-58325D01*
X34529Y-58325D01*
X34453Y-58364D01*
X34414Y-58402D01*
X35253Y-58859D02*
X35177Y-58821D01*
X35138Y-58783D01*
X35100Y-58706D01*
X35100Y-58478D01*
X35138Y-58402D01*
X35177Y-58364D01*
X35253Y-58325D01*
X35367Y-58325D01*
X35443Y-58364D01*
X35481Y-58402D01*
X35519Y-58478D01*
X35519Y-58706D01*
X35481Y-58783D01*
X35443Y-58821D01*
X35367Y-58859D01*
X35253Y-58859D01*
X35977Y-58859D02*
X35901Y-58821D01*
X35862Y-58745D01*
X35862Y-58059D01*
X36586Y-58821D02*
X36510Y-58859D01*
X36358Y-58859D01*
X36281Y-58821D01*
X36243Y-58745D01*
X36243Y-58440D01*
X36281Y-58364D01*
X36358Y-58325D01*
X36510Y-58325D01*
X36586Y-58364D01*
X36624Y-58440D01*
X36624Y-58516D01*
X36243Y-58592D01*
X36929Y-58821D02*
X37006Y-58859D01*
X37158Y-58859D01*
X37234Y-58821D01*
X37272Y-58745D01*
X37272Y-58706D01*
X37234Y-58630D01*
X37158Y-58592D01*
X37044Y-58592D01*
X36967Y-58554D01*
X36929Y-58478D01*
X36929Y-58440D01*
X36967Y-58364D01*
X37044Y-58325D01*
X37158Y-58325D01*
X37234Y-58364D01*
X37539Y-59164D02*
X37577Y-59125D01*
X37654Y-59011D01*
X37692Y-58935D01*
X37730Y-58821D01*
X37768Y-58630D01*
X37768Y-58478D01*
X37730Y-58287D01*
X37692Y-58173D01*
X37654Y-58097D01*
X37577Y-57983D01*
X37539Y-57945D01*
G54D10*
X19848Y-59590D02*
X19836Y-59704D01*
X19803Y-59814D01*
X19749Y-59916D01*
X19676Y-60005D01*
X19587Y-60079D01*
X19486Y-60133D01*
X19376Y-60167D01*
X19262Y-60179D01*
X19148Y-60169D01*
X19037Y-60137D01*
X18935Y-60083D01*
X18846Y-60011D01*
X18772Y-59923D01*
X18716Y-59822D01*
X18681Y-59712D01*
X18669Y-59598D01*
X18678Y-59484D01*
X18710Y-59373D01*
X18763Y-59271D01*
X18834Y-59181D01*
X18922Y-59106D01*
X19022Y-59050D01*
X19132Y-59014D01*
X19246Y-59001D01*
X19360Y-59009D01*
X19471Y-59040D01*
X19574Y-59092D01*
X19664Y-59163D01*
X19740Y-59250D01*
X19796Y-59351D01*
X19833Y-59460D01*
X19847Y-59574D01*
X19848Y-59590D01*
X18668Y-59590D02*
X19848Y-59590D01*
G54D12*
X20163Y-59114D02*
X20659Y-59114D01*
X20392Y-59419D01*
X20506Y-59419D01*
X20582Y-59457D01*
X20620Y-59495D01*
X20659Y-59571D01*
X20659Y-59761D01*
X20620Y-59838D01*
X20582Y-59876D01*
X20506Y-59914D01*
X20278Y-59914D01*
X20201Y-59876D01*
X20163Y-59838D01*
X21001Y-59838D02*
X21040Y-59876D01*
X21001Y-59914D01*
X20963Y-59876D01*
X21001Y-59838D01*
X21001Y-59914D01*
X21535Y-59114D02*
X21611Y-59114D01*
X21687Y-59152D01*
X21725Y-59190D01*
X21763Y-59266D01*
X21802Y-59419D01*
X21802Y-59609D01*
X21763Y-59761D01*
X21725Y-59838D01*
X21687Y-59876D01*
X21611Y-59914D01*
X21535Y-59914D01*
X21459Y-59876D01*
X21421Y-59838D01*
X21382Y-59761D01*
X21344Y-59609D01*
X21344Y-59419D01*
X21382Y-59266D01*
X21421Y-59190D01*
X21459Y-59152D01*
X21535Y-59114D01*
X22297Y-59114D02*
X22373Y-59114D01*
X22449Y-59152D01*
X22487Y-59190D01*
X22525Y-59266D01*
X22564Y-59419D01*
X22564Y-59609D01*
X22525Y-59761D01*
X22487Y-59838D01*
X22449Y-59876D01*
X22373Y-59914D01*
X22297Y-59914D01*
X22221Y-59876D01*
X22183Y-59838D01*
X22144Y-59761D01*
X22106Y-59609D01*
X22106Y-59419D01*
X22144Y-59266D01*
X22183Y-59190D01*
X22221Y-59152D01*
X22297Y-59114D01*
X22906Y-59914D02*
X22906Y-59380D01*
X22906Y-59457D02*
X22945Y-59419D01*
X23021Y-59380D01*
X23135Y-59380D01*
X23211Y-59419D01*
X23249Y-59495D01*
X23249Y-59914D01*
X23249Y-59495D02*
X23287Y-59419D01*
X23364Y-59380D01*
X23478Y-59380D01*
X23554Y-59419D01*
X23592Y-59495D01*
X23592Y-59914D01*
X23973Y-59914D02*
X23973Y-59380D01*
X23973Y-59457D02*
X24012Y-59419D01*
X24088Y-59380D01*
X24202Y-59380D01*
X24278Y-59419D01*
X24316Y-59495D01*
X24316Y-59914D01*
X24316Y-59495D02*
X24354Y-59419D01*
X24431Y-59380D01*
X24545Y-59380D01*
X24621Y-59419D01*
X24659Y-59495D01*
X24659Y-59914D01*
X26222Y-59076D02*
X25536Y-60104D01*
X27251Y-59114D02*
X27327Y-59114D01*
X27403Y-59152D01*
X27441Y-59190D01*
X27479Y-59266D01*
X27518Y-59419D01*
X27518Y-59609D01*
X27479Y-59761D01*
X27441Y-59838D01*
X27403Y-59876D01*
X27327Y-59914D01*
X27251Y-59914D01*
X27175Y-59876D01*
X27137Y-59838D01*
X27098Y-59761D01*
X27060Y-59609D01*
X27060Y-59419D01*
X27098Y-59266D01*
X27137Y-59190D01*
X27175Y-59152D01*
X27251Y-59114D01*
X27860Y-59838D02*
X27899Y-59876D01*
X27860Y-59914D01*
X27822Y-59876D01*
X27860Y-59838D01*
X27860Y-59914D01*
X28661Y-59914D02*
X28203Y-59914D01*
X28432Y-59914D02*
X28432Y-59114D01*
X28356Y-59228D01*
X28280Y-59304D01*
X28203Y-59342D01*
X29423Y-59914D02*
X28965Y-59914D01*
X29194Y-59914D02*
X29194Y-59114D01*
X29118Y-59228D01*
X29042Y-59304D01*
X28965Y-59342D01*
X29880Y-59457D02*
X29804Y-59419D01*
X29765Y-59380D01*
X29727Y-59304D01*
X29727Y-59266D01*
X29765Y-59190D01*
X29804Y-59152D01*
X29880Y-59114D01*
X30032Y-59114D01*
X30108Y-59152D01*
X30146Y-59190D01*
X30185Y-59266D01*
X30185Y-59304D01*
X30146Y-59380D01*
X30108Y-59419D01*
X30032Y-59457D01*
X29880Y-59457D01*
X29804Y-59495D01*
X29765Y-59533D01*
X29727Y-59609D01*
X29727Y-59761D01*
X29765Y-59838D01*
X29804Y-59876D01*
X29880Y-59914D01*
X30032Y-59914D01*
X30108Y-59876D01*
X30146Y-59838D01*
X30185Y-59761D01*
X30185Y-59609D01*
X30146Y-59533D01*
X30108Y-59495D01*
X30032Y-59457D01*
X30489Y-59114D02*
X30489Y-59266D01*
X30794Y-59114D02*
X30794Y-59266D01*
X31976Y-60219D02*
X31938Y-60180D01*
X31862Y-60066D01*
X31824Y-59990D01*
X31786Y-59876D01*
X31747Y-59685D01*
X31747Y-59533D01*
X31786Y-59342D01*
X31824Y-59228D01*
X31862Y-59152D01*
X31938Y-59038D01*
X31976Y-59000D01*
X32204Y-59114D02*
X32738Y-59114D01*
X32395Y-59914D01*
X33652Y-59914D02*
X33652Y-59114D01*
X33995Y-59914D02*
X33995Y-59495D01*
X33957Y-59419D01*
X33881Y-59380D01*
X33767Y-59380D01*
X33691Y-59419D01*
X33652Y-59457D01*
X34491Y-59914D02*
X34415Y-59876D01*
X34376Y-59838D01*
X34338Y-59761D01*
X34338Y-59533D01*
X34376Y-59457D01*
X34415Y-59419D01*
X34491Y-59380D01*
X34605Y-59380D01*
X34681Y-59419D01*
X34719Y-59457D01*
X34757Y-59533D01*
X34757Y-59761D01*
X34719Y-59838D01*
X34681Y-59876D01*
X34605Y-59914D01*
X34491Y-59914D01*
X35215Y-59914D02*
X35139Y-59876D01*
X35100Y-59800D01*
X35100Y-59114D01*
X35824Y-59876D02*
X35748Y-59914D01*
X35596Y-59914D01*
X35519Y-59876D01*
X35481Y-59800D01*
X35481Y-59495D01*
X35519Y-59419D01*
X35596Y-59380D01*
X35748Y-59380D01*
X35824Y-59419D01*
X35862Y-59495D01*
X35862Y-59571D01*
X35481Y-59647D01*
X36167Y-59876D02*
X36244Y-59914D01*
X36396Y-59914D01*
X36472Y-59876D01*
X36510Y-59800D01*
X36510Y-59761D01*
X36472Y-59685D01*
X36396Y-59647D01*
X36282Y-59647D01*
X36205Y-59609D01*
X36167Y-59533D01*
X36167Y-59495D01*
X36205Y-59419D01*
X36282Y-59380D01*
X36396Y-59380D01*
X36472Y-59419D01*
X36777Y-60219D02*
X36815Y-60180D01*
X36892Y-60066D01*
X36930Y-59990D01*
X36968Y-59876D01*
X37006Y-59685D01*
X37006Y-59533D01*
X36968Y-59342D01*
X36930Y-59228D01*
X36892Y-59152D01*
X36815Y-59038D01*
X36777Y-59000D01*
M02*
