G04 (created by PCBNEW-RS274X (2012-01-19 BZR 3256)-stable) date 19/03/2013 15:02:58*
G01*
G70*
G90*
%MOIN*%
G04 Gerber Fmt 3.4, Leading zero omitted, Abs format*
%FSLAX34Y34*%
G04 APERTURE LIST*
%ADD10C,0.006000*%
%ADD11C,0.012000*%
%ADD12C,0.075000*%
%ADD13R,0.075000X0.075000*%
%ADD14C,0.215000*%
%ADD15C,0.085000*%
%ADD16R,0.055000X0.055000*%
%ADD17C,0.055000*%
%ADD18R,0.070000X0.070000*%
%ADD19C,0.070000*%
%ADD20C,0.275600*%
%ADD21R,0.090000X0.062000*%
%ADD22O,0.090000X0.062000*%
%ADD23C,0.030000*%
%ADD24C,0.045000*%
%ADD25C,0.010000*%
G04 APERTURE END LIST*
G54D10*
X04000Y-04000D02*
X113000Y-04000D01*
X113000Y-78670D01*
X04000Y-78670D01*
X04000Y-04000D01*
X04700Y-04700D02*
X112300Y-04700D01*
X112300Y-77970D01*
X04700Y-77970D01*
X04700Y-04700D01*
X25800Y-04000D02*
X25800Y-04700D01*
X15043Y-04552D02*
X14757Y-04552D01*
X14900Y-04552D02*
X14900Y-04052D01*
X14852Y-04124D01*
X14805Y-04171D01*
X14757Y-04195D01*
X25800Y-78670D02*
X25800Y-77970D01*
X15043Y-78522D02*
X14757Y-78522D01*
X14900Y-78522D02*
X14900Y-78022D01*
X14852Y-78094D01*
X14805Y-78141D01*
X14757Y-78165D01*
X47600Y-04000D02*
X47600Y-04700D01*
X36557Y-04100D02*
X36581Y-04076D01*
X36629Y-04052D01*
X36748Y-04052D01*
X36795Y-04076D01*
X36819Y-04100D01*
X36843Y-04148D01*
X36843Y-04195D01*
X36819Y-04267D01*
X36533Y-04552D01*
X36843Y-04552D01*
X47600Y-78670D02*
X47600Y-77970D01*
X36557Y-78070D02*
X36581Y-78046D01*
X36629Y-78022D01*
X36748Y-78022D01*
X36795Y-78046D01*
X36819Y-78070D01*
X36843Y-78118D01*
X36843Y-78165D01*
X36819Y-78237D01*
X36533Y-78522D01*
X36843Y-78522D01*
X69400Y-04000D02*
X69400Y-04700D01*
X58333Y-04052D02*
X58643Y-04052D01*
X58476Y-04243D01*
X58548Y-04243D01*
X58595Y-04267D01*
X58619Y-04290D01*
X58643Y-04338D01*
X58643Y-04457D01*
X58619Y-04505D01*
X58595Y-04529D01*
X58548Y-04552D01*
X58405Y-04552D01*
X58357Y-04529D01*
X58333Y-04505D01*
X69400Y-78670D02*
X69400Y-77970D01*
X58333Y-78022D02*
X58643Y-78022D01*
X58476Y-78213D01*
X58548Y-78213D01*
X58595Y-78237D01*
X58619Y-78260D01*
X58643Y-78308D01*
X58643Y-78427D01*
X58619Y-78475D01*
X58595Y-78499D01*
X58548Y-78522D01*
X58405Y-78522D01*
X58357Y-78499D01*
X58333Y-78475D01*
X91200Y-04000D02*
X91200Y-04700D01*
X80395Y-04219D02*
X80395Y-04552D01*
X80276Y-04029D02*
X80157Y-04386D01*
X80467Y-04386D01*
X91200Y-78670D02*
X91200Y-77970D01*
X80395Y-78189D02*
X80395Y-78522D01*
X80276Y-77999D02*
X80157Y-78356D01*
X80467Y-78356D01*
X102219Y-04052D02*
X101981Y-04052D01*
X101957Y-04290D01*
X101981Y-04267D01*
X102029Y-04243D01*
X102148Y-04243D01*
X102195Y-04267D01*
X102219Y-04290D01*
X102243Y-04338D01*
X102243Y-04457D01*
X102219Y-04505D01*
X102195Y-04529D01*
X102148Y-04552D01*
X102029Y-04552D01*
X101981Y-04529D01*
X101957Y-04505D01*
X102219Y-78022D02*
X101981Y-78022D01*
X101957Y-78260D01*
X101981Y-78237D01*
X102029Y-78213D01*
X102148Y-78213D01*
X102195Y-78237D01*
X102219Y-78260D01*
X102243Y-78308D01*
X102243Y-78427D01*
X102219Y-78475D01*
X102195Y-78499D01*
X102148Y-78522D01*
X102029Y-78522D01*
X101981Y-78499D01*
X101957Y-78475D01*
X04000Y-28890D02*
X04700Y-28890D01*
X04231Y-16510D02*
X04469Y-16510D01*
X04184Y-16652D02*
X04350Y-16152D01*
X04517Y-16652D01*
X113000Y-28890D02*
X112300Y-28890D01*
X112531Y-16510D02*
X112769Y-16510D01*
X112484Y-16652D02*
X112650Y-16152D01*
X112817Y-16652D01*
X04000Y-53780D02*
X04700Y-53780D01*
X04386Y-41280D02*
X04457Y-41304D01*
X04481Y-41328D01*
X04505Y-41376D01*
X04505Y-41447D01*
X04481Y-41495D01*
X04457Y-41519D01*
X04410Y-41542D01*
X04219Y-41542D01*
X04219Y-41042D01*
X04386Y-41042D01*
X04433Y-41066D01*
X04457Y-41090D01*
X04481Y-41138D01*
X04481Y-41185D01*
X04457Y-41233D01*
X04433Y-41257D01*
X04386Y-41280D01*
X04219Y-41280D01*
X113000Y-53780D02*
X112300Y-53780D01*
X112686Y-41280D02*
X112757Y-41304D01*
X112781Y-41328D01*
X112805Y-41376D01*
X112805Y-41447D01*
X112781Y-41495D01*
X112757Y-41519D01*
X112710Y-41542D01*
X112519Y-41542D01*
X112519Y-41042D01*
X112686Y-41042D01*
X112733Y-41066D01*
X112757Y-41090D01*
X112781Y-41138D01*
X112781Y-41185D01*
X112757Y-41233D01*
X112733Y-41257D01*
X112686Y-41280D01*
X112519Y-41280D01*
X04505Y-66385D02*
X04481Y-66409D01*
X04410Y-66432D01*
X04362Y-66432D01*
X04290Y-66409D01*
X04243Y-66361D01*
X04219Y-66313D01*
X04195Y-66218D01*
X04195Y-66147D01*
X04219Y-66051D01*
X04243Y-66004D01*
X04290Y-65956D01*
X04362Y-65932D01*
X04410Y-65932D01*
X04481Y-65956D01*
X04505Y-65980D01*
X112805Y-66385D02*
X112781Y-66409D01*
X112710Y-66432D01*
X112662Y-66432D01*
X112590Y-66409D01*
X112543Y-66361D01*
X112519Y-66313D01*
X112495Y-66218D01*
X112495Y-66147D01*
X112519Y-66051D01*
X112543Y-66004D01*
X112590Y-65956D01*
X112662Y-65932D01*
X112710Y-65932D01*
X112781Y-65956D01*
X112805Y-65980D01*
G54D11*
X79443Y-76413D02*
X79443Y-75813D01*
X79586Y-75813D01*
X79671Y-75841D01*
X79729Y-75899D01*
X79757Y-75956D01*
X79786Y-76070D01*
X79786Y-76156D01*
X79757Y-76270D01*
X79729Y-76327D01*
X79671Y-76384D01*
X79586Y-76413D01*
X79443Y-76413D01*
X80300Y-76413D02*
X80300Y-76099D01*
X80271Y-76041D01*
X80214Y-76013D01*
X80100Y-76013D01*
X80043Y-76041D01*
X80300Y-76384D02*
X80243Y-76413D01*
X80100Y-76413D01*
X80043Y-76384D01*
X80014Y-76327D01*
X80014Y-76270D01*
X80043Y-76213D01*
X80100Y-76184D01*
X80243Y-76184D01*
X80300Y-76156D01*
X80500Y-76013D02*
X80729Y-76013D01*
X80586Y-75813D02*
X80586Y-76327D01*
X80614Y-76384D01*
X80672Y-76413D01*
X80729Y-76413D01*
X81157Y-76384D02*
X81100Y-76413D01*
X80986Y-76413D01*
X80929Y-76384D01*
X80900Y-76327D01*
X80900Y-76099D01*
X80929Y-76041D01*
X80986Y-76013D01*
X81100Y-76013D01*
X81157Y-76041D01*
X81186Y-76099D01*
X81186Y-76156D01*
X80900Y-76213D01*
X81443Y-76356D02*
X81471Y-76384D01*
X81443Y-76413D01*
X81414Y-76384D01*
X81443Y-76356D01*
X81443Y-76413D01*
X81443Y-76041D02*
X81471Y-76070D01*
X81443Y-76099D01*
X81414Y-76070D01*
X81443Y-76041D01*
X81443Y-76099D01*
X82500Y-76413D02*
X82157Y-76413D01*
X82329Y-76413D02*
X82329Y-75813D01*
X82272Y-75899D01*
X82214Y-75956D01*
X82157Y-75984D01*
X82785Y-76413D02*
X82900Y-76413D01*
X82957Y-76384D01*
X82985Y-76356D01*
X83043Y-76270D01*
X83071Y-76156D01*
X83071Y-75927D01*
X83043Y-75870D01*
X83014Y-75841D01*
X82957Y-75813D01*
X82843Y-75813D01*
X82785Y-75841D01*
X82757Y-75870D01*
X82728Y-75927D01*
X82728Y-76070D01*
X82757Y-76127D01*
X82785Y-76156D01*
X82843Y-76184D01*
X82957Y-76184D01*
X83014Y-76156D01*
X83043Y-76127D01*
X83071Y-76070D01*
X83785Y-76413D02*
X83785Y-76013D01*
X83785Y-76070D02*
X83813Y-76041D01*
X83871Y-76013D01*
X83956Y-76013D01*
X84013Y-76041D01*
X84042Y-76099D01*
X84042Y-76413D01*
X84042Y-76099D02*
X84071Y-76041D01*
X84128Y-76013D01*
X84213Y-76013D01*
X84271Y-76041D01*
X84299Y-76099D01*
X84299Y-76413D01*
X84842Y-76413D02*
X84842Y-76099D01*
X84813Y-76041D01*
X84756Y-76013D01*
X84642Y-76013D01*
X84585Y-76041D01*
X84842Y-76384D02*
X84785Y-76413D01*
X84642Y-76413D01*
X84585Y-76384D01*
X84556Y-76327D01*
X84556Y-76270D01*
X84585Y-76213D01*
X84642Y-76184D01*
X84785Y-76184D01*
X84842Y-76156D01*
X85128Y-76413D02*
X85128Y-76013D01*
X85128Y-76127D02*
X85156Y-76070D01*
X85185Y-76041D01*
X85242Y-76013D01*
X85299Y-76013D01*
X85927Y-75870D02*
X85956Y-75841D01*
X86013Y-75813D01*
X86156Y-75813D01*
X86213Y-75841D01*
X86242Y-75870D01*
X86270Y-75927D01*
X86270Y-75984D01*
X86242Y-76070D01*
X85899Y-76413D01*
X86270Y-76413D01*
X86641Y-75813D02*
X86698Y-75813D01*
X86755Y-75841D01*
X86784Y-75870D01*
X86813Y-75927D01*
X86841Y-76041D01*
X86841Y-76184D01*
X86813Y-76299D01*
X86784Y-76356D01*
X86755Y-76384D01*
X86698Y-76413D01*
X86641Y-76413D01*
X86584Y-76384D01*
X86555Y-76356D01*
X86527Y-76299D01*
X86498Y-76184D01*
X86498Y-76041D01*
X86527Y-75927D01*
X86555Y-75870D01*
X86584Y-75841D01*
X86641Y-75813D01*
X87412Y-76413D02*
X87069Y-76413D01*
X87241Y-76413D02*
X87241Y-75813D01*
X87184Y-75899D01*
X87126Y-75956D01*
X87069Y-75984D01*
X87612Y-75813D02*
X87983Y-75813D01*
X87783Y-76041D01*
X87869Y-76041D01*
X87926Y-76070D01*
X87955Y-76099D01*
X87983Y-76156D01*
X87983Y-76299D01*
X87955Y-76356D01*
X87926Y-76384D01*
X87869Y-76413D01*
X87697Y-76413D01*
X87640Y-76384D01*
X87612Y-76356D01*
G54D10*
X71043Y-77613D02*
X71043Y-77013D01*
X71386Y-77613D02*
X71129Y-77270D01*
X71386Y-77013D02*
X71043Y-77356D01*
X71643Y-77613D02*
X71643Y-77213D01*
X71643Y-77013D02*
X71614Y-77041D01*
X71643Y-77070D01*
X71671Y-77041D01*
X71643Y-77013D01*
X71643Y-77070D01*
X72272Y-77556D02*
X72243Y-77584D01*
X72157Y-77613D01*
X72100Y-77613D01*
X72015Y-77584D01*
X71957Y-77527D01*
X71929Y-77470D01*
X71900Y-77356D01*
X71900Y-77270D01*
X71929Y-77156D01*
X71957Y-77099D01*
X72015Y-77041D01*
X72100Y-77013D01*
X72157Y-77013D01*
X72243Y-77041D01*
X72272Y-77070D01*
X72786Y-77613D02*
X72786Y-77299D01*
X72757Y-77241D01*
X72700Y-77213D01*
X72586Y-77213D01*
X72529Y-77241D01*
X72786Y-77584D02*
X72729Y-77613D01*
X72586Y-77613D01*
X72529Y-77584D01*
X72500Y-77527D01*
X72500Y-77470D01*
X72529Y-77413D01*
X72586Y-77384D01*
X72729Y-77384D01*
X72786Y-77356D01*
X73329Y-77613D02*
X73329Y-77013D01*
X73329Y-77584D02*
X73272Y-77613D01*
X73158Y-77613D01*
X73100Y-77584D01*
X73072Y-77556D01*
X73043Y-77499D01*
X73043Y-77327D01*
X73072Y-77270D01*
X73100Y-77241D01*
X73158Y-77213D01*
X73272Y-77213D01*
X73329Y-77241D01*
X74072Y-77299D02*
X74272Y-77299D01*
X74358Y-77613D02*
X74072Y-77613D01*
X74072Y-77013D01*
X74358Y-77013D01*
X74615Y-77556D02*
X74643Y-77584D01*
X74615Y-77613D01*
X74586Y-77584D01*
X74615Y-77556D01*
X74615Y-77613D01*
X74901Y-77613D02*
X74901Y-77013D01*
X75044Y-77013D01*
X75129Y-77041D01*
X75187Y-77099D01*
X75215Y-77156D01*
X75244Y-77270D01*
X75244Y-77356D01*
X75215Y-77470D01*
X75187Y-77527D01*
X75129Y-77584D01*
X75044Y-77613D01*
X74901Y-77613D01*
X75501Y-77556D02*
X75529Y-77584D01*
X75501Y-77613D01*
X75472Y-77584D01*
X75501Y-77556D01*
X75501Y-77613D01*
X75758Y-77441D02*
X76044Y-77441D01*
X75701Y-77613D02*
X75901Y-77013D01*
X76101Y-77613D01*
X76301Y-77556D02*
X76329Y-77584D01*
X76301Y-77613D01*
X76272Y-77584D01*
X76301Y-77556D01*
X76301Y-77613D01*
G54D11*
X104586Y-76413D02*
X104386Y-76127D01*
X104243Y-76413D02*
X104243Y-75813D01*
X104471Y-75813D01*
X104529Y-75841D01*
X104557Y-75870D01*
X104586Y-75927D01*
X104586Y-76013D01*
X104557Y-76070D01*
X104529Y-76099D01*
X104471Y-76127D01*
X104243Y-76127D01*
X105071Y-76384D02*
X105014Y-76413D01*
X104900Y-76413D01*
X104843Y-76384D01*
X104814Y-76327D01*
X104814Y-76099D01*
X104843Y-76041D01*
X104900Y-76013D01*
X105014Y-76013D01*
X105071Y-76041D01*
X105100Y-76099D01*
X105100Y-76156D01*
X104814Y-76213D01*
X105300Y-76013D02*
X105443Y-76413D01*
X105585Y-76013D01*
X105814Y-76356D02*
X105842Y-76384D01*
X105814Y-76413D01*
X105785Y-76384D01*
X105814Y-76356D01*
X105814Y-76413D01*
X105814Y-76041D02*
X105842Y-76070D01*
X105814Y-76099D01*
X105785Y-76070D01*
X105814Y-76041D01*
X105814Y-76099D01*
G54D10*
X71014Y-76384D02*
X71100Y-76413D01*
X71243Y-76413D01*
X71300Y-76384D01*
X71329Y-76356D01*
X71357Y-76299D01*
X71357Y-76241D01*
X71329Y-76184D01*
X71300Y-76156D01*
X71243Y-76127D01*
X71129Y-76099D01*
X71071Y-76070D01*
X71043Y-76041D01*
X71014Y-75984D01*
X71014Y-75927D01*
X71043Y-75870D01*
X71071Y-75841D01*
X71129Y-75813D01*
X71271Y-75813D01*
X71357Y-75841D01*
X71614Y-76413D02*
X71614Y-76013D01*
X71614Y-75813D02*
X71585Y-75841D01*
X71614Y-75870D01*
X71642Y-75841D01*
X71614Y-75813D01*
X71614Y-75870D01*
X71843Y-76013D02*
X72157Y-76013D01*
X71843Y-76413D01*
X72157Y-76413D01*
X72614Y-76384D02*
X72557Y-76413D01*
X72443Y-76413D01*
X72386Y-76384D01*
X72357Y-76327D01*
X72357Y-76099D01*
X72386Y-76041D01*
X72443Y-76013D01*
X72557Y-76013D01*
X72614Y-76041D01*
X72643Y-76099D01*
X72643Y-76156D01*
X72357Y-76213D01*
X72900Y-76356D02*
X72928Y-76384D01*
X72900Y-76413D01*
X72871Y-76384D01*
X72900Y-76356D01*
X72900Y-76413D01*
X72900Y-76041D02*
X72928Y-76070D01*
X72900Y-76099D01*
X72871Y-76070D01*
X72900Y-76041D01*
X72900Y-76099D01*
X73614Y-76241D02*
X73900Y-76241D01*
X73557Y-76413D02*
X73757Y-75813D01*
X73957Y-76413D01*
X74414Y-76013D02*
X74414Y-76413D01*
X74271Y-75784D02*
X74128Y-76213D01*
X74500Y-76213D01*
X104243Y-77613D02*
X104243Y-77013D01*
X104786Y-77613D02*
X104786Y-77013D01*
X104786Y-77584D02*
X104729Y-77613D01*
X104615Y-77613D01*
X104557Y-77584D01*
X104529Y-77556D01*
X104500Y-77499D01*
X104500Y-77327D01*
X104529Y-77270D01*
X104557Y-77241D01*
X104615Y-77213D01*
X104729Y-77213D01*
X104786Y-77241D01*
X105072Y-77556D02*
X105100Y-77584D01*
X105072Y-77613D01*
X105043Y-77584D01*
X105072Y-77556D01*
X105072Y-77613D01*
X105072Y-77241D02*
X105100Y-77270D01*
X105072Y-77299D01*
X105043Y-77270D01*
X105072Y-77241D01*
X105072Y-77299D01*
X106129Y-77613D02*
X105786Y-77613D01*
X105958Y-77613D02*
X105958Y-77013D01*
X105901Y-77099D01*
X105843Y-77156D01*
X105786Y-77184D01*
X106814Y-76984D02*
X106300Y-77756D01*
X107329Y-77613D02*
X106986Y-77613D01*
X107158Y-77613D02*
X107158Y-77013D01*
X107101Y-77099D01*
X107043Y-77156D01*
X106986Y-77184D01*
G54D11*
X70957Y-74613D02*
X71300Y-74613D01*
X71129Y-75213D02*
X71129Y-74613D01*
X71500Y-75213D02*
X71500Y-74813D01*
X71500Y-74613D02*
X71471Y-74641D01*
X71500Y-74670D01*
X71528Y-74641D01*
X71500Y-74613D01*
X71500Y-74670D01*
X71700Y-74813D02*
X71929Y-74813D01*
X71786Y-74613D02*
X71786Y-75127D01*
X71814Y-75184D01*
X71872Y-75213D01*
X71929Y-75213D01*
X72215Y-75213D02*
X72157Y-75184D01*
X72129Y-75127D01*
X72129Y-74613D01*
X72671Y-75184D02*
X72614Y-75213D01*
X72500Y-75213D01*
X72443Y-75184D01*
X72414Y-75127D01*
X72414Y-74899D01*
X72443Y-74841D01*
X72500Y-74813D01*
X72614Y-74813D01*
X72671Y-74841D01*
X72700Y-74899D01*
X72700Y-74956D01*
X72414Y-75013D01*
X72957Y-75156D02*
X72985Y-75184D01*
X72957Y-75213D01*
X72928Y-75184D01*
X72957Y-75156D01*
X72957Y-75213D01*
X72957Y-74841D02*
X72985Y-74870D01*
X72957Y-74899D01*
X72928Y-74870D01*
X72957Y-74841D01*
X72957Y-74899D01*
G54D10*
X71243Y-72499D02*
X71043Y-72499D01*
X71043Y-72813D02*
X71043Y-72213D01*
X71329Y-72213D01*
X71557Y-72813D02*
X71557Y-72413D01*
X71557Y-72213D02*
X71528Y-72241D01*
X71557Y-72270D01*
X71585Y-72241D01*
X71557Y-72213D01*
X71557Y-72270D01*
X71929Y-72813D02*
X71871Y-72784D01*
X71843Y-72727D01*
X71843Y-72213D01*
X72385Y-72784D02*
X72328Y-72813D01*
X72214Y-72813D01*
X72157Y-72784D01*
X72128Y-72727D01*
X72128Y-72499D01*
X72157Y-72441D01*
X72214Y-72413D01*
X72328Y-72413D01*
X72385Y-72441D01*
X72414Y-72499D01*
X72414Y-72556D01*
X72128Y-72613D01*
X72671Y-72756D02*
X72699Y-72784D01*
X72671Y-72813D01*
X72642Y-72784D01*
X72671Y-72756D01*
X72671Y-72813D01*
X72671Y-72441D02*
X72699Y-72470D01*
X72671Y-72499D01*
X72642Y-72470D01*
X72671Y-72441D01*
X72671Y-72499D01*
X73671Y-72784D02*
X73614Y-72813D01*
X73500Y-72813D01*
X73442Y-72784D01*
X73414Y-72756D01*
X73385Y-72699D01*
X73385Y-72527D01*
X73414Y-72470D01*
X73442Y-72441D01*
X73500Y-72413D01*
X73614Y-72413D01*
X73671Y-72441D01*
X74185Y-72813D02*
X74185Y-72499D01*
X74156Y-72441D01*
X74099Y-72413D01*
X73985Y-72413D01*
X73928Y-72441D01*
X74185Y-72784D02*
X74128Y-72813D01*
X73985Y-72813D01*
X73928Y-72784D01*
X73899Y-72727D01*
X73899Y-72670D01*
X73928Y-72613D01*
X73985Y-72584D01*
X74128Y-72584D01*
X74185Y-72556D01*
X74471Y-72813D02*
X74471Y-72413D01*
X74471Y-72527D02*
X74499Y-72470D01*
X74528Y-72441D01*
X74585Y-72413D01*
X74642Y-72413D01*
X74756Y-72413D02*
X74985Y-72413D01*
X74842Y-72213D02*
X74842Y-72727D01*
X74870Y-72784D01*
X74928Y-72813D01*
X74985Y-72813D01*
X75413Y-72784D02*
X75356Y-72813D01*
X75242Y-72813D01*
X75185Y-72784D01*
X75156Y-72727D01*
X75156Y-72499D01*
X75185Y-72441D01*
X75242Y-72413D01*
X75356Y-72413D01*
X75413Y-72441D01*
X75442Y-72499D01*
X75442Y-72556D01*
X75156Y-72613D01*
X75556Y-72870D02*
X76013Y-72870D01*
X76156Y-72813D02*
X76156Y-72413D01*
X76156Y-72470D02*
X76184Y-72441D01*
X76242Y-72413D01*
X76327Y-72413D01*
X76384Y-72441D01*
X76413Y-72499D01*
X76413Y-72813D01*
X76413Y-72499D02*
X76442Y-72441D01*
X76499Y-72413D01*
X76584Y-72413D01*
X76642Y-72441D01*
X76670Y-72499D01*
X76670Y-72813D01*
X77042Y-72813D02*
X76984Y-72784D01*
X76956Y-72756D01*
X76927Y-72699D01*
X76927Y-72527D01*
X76956Y-72470D01*
X76984Y-72441D01*
X77042Y-72413D01*
X77127Y-72413D01*
X77184Y-72441D01*
X77213Y-72470D01*
X77242Y-72527D01*
X77242Y-72699D01*
X77213Y-72756D01*
X77184Y-72784D01*
X77127Y-72813D01*
X77042Y-72813D01*
X77413Y-72413D02*
X77642Y-72413D01*
X77499Y-72213D02*
X77499Y-72727D01*
X77527Y-72784D01*
X77585Y-72813D01*
X77642Y-72813D01*
X78070Y-72784D02*
X78013Y-72813D01*
X77899Y-72813D01*
X77842Y-72784D01*
X77813Y-72727D01*
X77813Y-72499D01*
X77842Y-72441D01*
X77899Y-72413D01*
X78013Y-72413D01*
X78070Y-72441D01*
X78099Y-72499D01*
X78099Y-72556D01*
X77813Y-72613D01*
X78613Y-72413D02*
X78613Y-72813D01*
X78356Y-72413D02*
X78356Y-72727D01*
X78384Y-72784D01*
X78442Y-72813D01*
X78527Y-72813D01*
X78584Y-72784D01*
X78613Y-72756D01*
X78899Y-72813D02*
X78899Y-72413D01*
X78899Y-72527D02*
X78927Y-72470D01*
X78956Y-72441D01*
X79013Y-72413D01*
X79070Y-72413D01*
X79127Y-72870D02*
X79584Y-72870D01*
X79641Y-72413D02*
X79870Y-72413D01*
X79727Y-72213D02*
X79727Y-72727D01*
X79755Y-72784D01*
X79813Y-72813D01*
X79870Y-72813D01*
X80070Y-72813D02*
X80070Y-72213D01*
X80327Y-72813D02*
X80327Y-72499D01*
X80298Y-72441D01*
X80241Y-72413D01*
X80156Y-72413D01*
X80098Y-72441D01*
X80070Y-72470D01*
X80841Y-72784D02*
X80784Y-72813D01*
X80670Y-72813D01*
X80613Y-72784D01*
X80584Y-72727D01*
X80584Y-72499D01*
X80613Y-72441D01*
X80670Y-72413D01*
X80784Y-72413D01*
X80841Y-72441D01*
X80870Y-72499D01*
X80870Y-72556D01*
X80584Y-72613D01*
X81127Y-72813D02*
X81127Y-72413D01*
X81127Y-72527D02*
X81155Y-72470D01*
X81184Y-72441D01*
X81241Y-72413D01*
X81298Y-72413D01*
X81498Y-72813D02*
X81498Y-72413D01*
X81498Y-72470D02*
X81526Y-72441D01*
X81584Y-72413D01*
X81669Y-72413D01*
X81726Y-72441D01*
X81755Y-72499D01*
X81755Y-72813D01*
X81755Y-72499D02*
X81784Y-72441D01*
X81841Y-72413D01*
X81926Y-72413D01*
X81984Y-72441D01*
X82012Y-72499D01*
X82012Y-72813D01*
X82298Y-72813D02*
X82298Y-72413D01*
X82298Y-72213D02*
X82269Y-72241D01*
X82298Y-72270D01*
X82326Y-72241D01*
X82298Y-72213D01*
X82298Y-72270D01*
X82841Y-72413D02*
X82841Y-73013D01*
X82841Y-72784D02*
X82784Y-72813D01*
X82670Y-72813D01*
X82612Y-72784D01*
X82584Y-72756D01*
X82555Y-72699D01*
X82555Y-72527D01*
X82584Y-72470D01*
X82612Y-72441D01*
X82670Y-72413D01*
X82784Y-72413D01*
X82841Y-72441D01*
X83384Y-72413D02*
X83384Y-72813D01*
X83127Y-72413D02*
X83127Y-72727D01*
X83155Y-72784D01*
X83213Y-72813D01*
X83298Y-72813D01*
X83355Y-72784D01*
X83384Y-72756D01*
X83898Y-72784D02*
X83841Y-72813D01*
X83727Y-72813D01*
X83670Y-72784D01*
X83641Y-72727D01*
X83641Y-72499D01*
X83670Y-72441D01*
X83727Y-72413D01*
X83841Y-72413D01*
X83898Y-72441D01*
X83927Y-72499D01*
X83927Y-72556D01*
X83641Y-72613D01*
X84184Y-72756D02*
X84212Y-72784D01*
X84184Y-72813D01*
X84155Y-72784D01*
X84184Y-72756D01*
X84184Y-72813D01*
X84470Y-72813D02*
X84470Y-72213D01*
X84470Y-72441D02*
X84527Y-72413D01*
X84641Y-72413D01*
X84698Y-72441D01*
X84727Y-72470D01*
X84756Y-72527D01*
X84756Y-72699D01*
X84727Y-72756D01*
X84698Y-72784D01*
X84641Y-72813D01*
X84527Y-72813D01*
X84470Y-72784D01*
X85013Y-72813D02*
X85013Y-72413D01*
X85013Y-72527D02*
X85041Y-72470D01*
X85070Y-72441D01*
X85127Y-72413D01*
X85184Y-72413D01*
X85641Y-72813D02*
X85641Y-72213D01*
X85641Y-72784D02*
X85584Y-72813D01*
X85470Y-72813D01*
X85412Y-72784D01*
X85384Y-72756D01*
X85355Y-72699D01*
X85355Y-72527D01*
X85384Y-72470D01*
X85412Y-72441D01*
X85470Y-72413D01*
X85584Y-72413D01*
X85641Y-72441D01*
X71014Y-73984D02*
X71100Y-74013D01*
X71243Y-74013D01*
X71300Y-73984D01*
X71329Y-73956D01*
X71357Y-73899D01*
X71357Y-73841D01*
X71329Y-73784D01*
X71300Y-73756D01*
X71243Y-73727D01*
X71129Y-73699D01*
X71071Y-73670D01*
X71043Y-73641D01*
X71014Y-73584D01*
X71014Y-73527D01*
X71043Y-73470D01*
X71071Y-73441D01*
X71129Y-73413D01*
X71271Y-73413D01*
X71357Y-73441D01*
X71614Y-74013D02*
X71614Y-73413D01*
X71871Y-74013D02*
X71871Y-73699D01*
X71842Y-73641D01*
X71785Y-73613D01*
X71700Y-73613D01*
X71642Y-73641D01*
X71614Y-73670D01*
X72385Y-73984D02*
X72328Y-74013D01*
X72214Y-74013D01*
X72157Y-73984D01*
X72128Y-73927D01*
X72128Y-73699D01*
X72157Y-73641D01*
X72214Y-73613D01*
X72328Y-73613D01*
X72385Y-73641D01*
X72414Y-73699D01*
X72414Y-73756D01*
X72128Y-73813D01*
X72899Y-73984D02*
X72842Y-74013D01*
X72728Y-74013D01*
X72671Y-73984D01*
X72642Y-73927D01*
X72642Y-73699D01*
X72671Y-73641D01*
X72728Y-73613D01*
X72842Y-73613D01*
X72899Y-73641D01*
X72928Y-73699D01*
X72928Y-73756D01*
X72642Y-73813D01*
X73099Y-73613D02*
X73328Y-73613D01*
X73185Y-73413D02*
X73185Y-73927D01*
X73213Y-73984D01*
X73271Y-74013D01*
X73328Y-74013D01*
X73528Y-73956D02*
X73556Y-73984D01*
X73528Y-74013D01*
X73499Y-73984D01*
X73528Y-73956D01*
X73528Y-74013D01*
X73528Y-73641D02*
X73556Y-73670D01*
X73528Y-73699D01*
X73499Y-73670D01*
X73528Y-73641D01*
X73528Y-73699D01*
X74585Y-74013D02*
X74242Y-74013D01*
X74414Y-74013D02*
X74414Y-73413D01*
X74357Y-73499D01*
X74299Y-73556D01*
X74242Y-73584D01*
X75270Y-73384D02*
X74756Y-74156D01*
X75785Y-74013D02*
X75442Y-74013D01*
X75614Y-74013D02*
X75614Y-73413D01*
X75557Y-73499D01*
X75499Y-73556D01*
X75442Y-73584D01*
X70300Y-71970D02*
X70300Y-77970D01*
X70300Y-71970D02*
X112300Y-71970D01*
X70300Y-71970D02*
X112300Y-71970D01*
X70300Y-74370D02*
X112300Y-74370D01*
X103500Y-75570D02*
X103500Y-77970D01*
X70300Y-76770D02*
X112300Y-76770D01*
X70300Y-75570D02*
X112300Y-75570D01*
X76900Y-75570D02*
X76900Y-76770D01*
G54D11*
X25807Y-35498D02*
X25836Y-35536D01*
X25922Y-35574D01*
X25979Y-35574D01*
X26064Y-35536D01*
X26122Y-35460D01*
X26150Y-35383D01*
X26179Y-35231D01*
X26179Y-35117D01*
X26150Y-34964D01*
X26122Y-34888D01*
X26064Y-34812D01*
X25979Y-34774D01*
X25922Y-34774D01*
X25836Y-34812D01*
X25807Y-34850D01*
X25464Y-35574D02*
X25522Y-35536D01*
X25550Y-35498D01*
X25579Y-35421D01*
X25579Y-35193D01*
X25550Y-35117D01*
X25522Y-35079D01*
X25464Y-35040D01*
X25379Y-35040D01*
X25322Y-35079D01*
X25293Y-35117D01*
X25264Y-35193D01*
X25264Y-35421D01*
X25293Y-35498D01*
X25322Y-35536D01*
X25379Y-35574D01*
X25464Y-35574D01*
X25007Y-35574D02*
X25007Y-35040D01*
X25007Y-35117D02*
X24979Y-35079D01*
X24921Y-35040D01*
X24836Y-35040D01*
X24779Y-35079D01*
X24750Y-35155D01*
X24750Y-35574D01*
X24750Y-35155D02*
X24721Y-35079D01*
X24664Y-35040D01*
X24579Y-35040D01*
X24521Y-35079D01*
X24493Y-35155D01*
X24493Y-35574D01*
X24207Y-35040D02*
X24207Y-35840D01*
X24207Y-35079D02*
X24150Y-35040D01*
X24036Y-35040D01*
X23979Y-35079D01*
X23950Y-35117D01*
X23921Y-35193D01*
X23921Y-35421D01*
X23950Y-35498D01*
X23979Y-35536D01*
X24036Y-35574D01*
X24150Y-35574D01*
X24207Y-35536D01*
X23750Y-35040D02*
X23521Y-35040D01*
X23664Y-34774D02*
X23664Y-35460D01*
X23636Y-35536D01*
X23578Y-35574D01*
X23521Y-35574D01*
X23093Y-35536D02*
X23150Y-35574D01*
X23264Y-35574D01*
X23321Y-35536D01*
X23350Y-35460D01*
X23350Y-35155D01*
X23321Y-35079D01*
X23264Y-35040D01*
X23150Y-35040D01*
X23093Y-35079D01*
X23064Y-35155D01*
X23064Y-35231D01*
X23350Y-35307D01*
X22436Y-35040D02*
X22207Y-35040D01*
X22350Y-34774D02*
X22350Y-35460D01*
X22322Y-35536D01*
X22264Y-35574D01*
X22207Y-35574D01*
X21921Y-35574D02*
X21979Y-35536D01*
X22007Y-35498D01*
X22036Y-35421D01*
X22036Y-35193D01*
X22007Y-35117D01*
X21979Y-35079D01*
X21921Y-35040D01*
X21836Y-35040D01*
X21779Y-35079D01*
X21750Y-35117D01*
X21721Y-35193D01*
X21721Y-35421D01*
X21750Y-35498D01*
X21779Y-35536D01*
X21836Y-35574D01*
X21921Y-35574D01*
X21207Y-35040D02*
X21207Y-35574D01*
X21464Y-35040D02*
X21464Y-35460D01*
X21436Y-35536D01*
X21378Y-35574D01*
X21293Y-35574D01*
X21236Y-35536D01*
X21207Y-35498D01*
X20921Y-35574D02*
X20921Y-35040D01*
X20921Y-35193D02*
X20893Y-35117D01*
X20864Y-35079D01*
X20807Y-35040D01*
X20750Y-35040D01*
X20579Y-35536D02*
X20522Y-35574D01*
X20407Y-35574D01*
X20350Y-35536D01*
X20322Y-35460D01*
X20322Y-35421D01*
X20350Y-35345D01*
X20407Y-35307D01*
X20493Y-35307D01*
X20550Y-35269D01*
X20579Y-35193D01*
X20579Y-35155D01*
X20550Y-35079D01*
X20493Y-35040D01*
X20407Y-35040D01*
X20350Y-35079D01*
X32942Y-43998D02*
X32971Y-44036D01*
X33057Y-44074D01*
X33114Y-44074D01*
X33199Y-44036D01*
X33257Y-43960D01*
X33285Y-43883D01*
X33314Y-43731D01*
X33314Y-43617D01*
X33285Y-43464D01*
X33257Y-43388D01*
X33199Y-43312D01*
X33114Y-43274D01*
X33057Y-43274D01*
X32971Y-43312D01*
X32942Y-43350D01*
X32428Y-44074D02*
X32428Y-43655D01*
X32457Y-43579D01*
X32514Y-43540D01*
X32628Y-43540D01*
X32685Y-43579D01*
X32428Y-44036D02*
X32485Y-44074D01*
X32628Y-44074D01*
X32685Y-44036D01*
X32714Y-43960D01*
X32714Y-43883D01*
X32685Y-43807D01*
X32628Y-43769D01*
X32485Y-43769D01*
X32428Y-43731D01*
X32142Y-44074D02*
X32142Y-43540D01*
X32142Y-43693D02*
X32114Y-43617D01*
X32085Y-43579D01*
X32028Y-43540D01*
X31971Y-43540D01*
X31857Y-43540D02*
X31628Y-43540D01*
X31771Y-43274D02*
X31771Y-43960D01*
X31743Y-44036D01*
X31685Y-44074D01*
X31628Y-44074D01*
X31200Y-44036D02*
X31257Y-44074D01*
X31371Y-44074D01*
X31428Y-44036D01*
X31457Y-43960D01*
X31457Y-43655D01*
X31428Y-43579D01*
X31371Y-43540D01*
X31257Y-43540D01*
X31200Y-43579D01*
X31171Y-43655D01*
X31171Y-43731D01*
X31457Y-43807D01*
X30457Y-44074D02*
X30457Y-43274D01*
X30257Y-43845D01*
X30057Y-43274D01*
X30057Y-44074D01*
X29685Y-44074D02*
X29743Y-44036D01*
X29771Y-43998D01*
X29800Y-43921D01*
X29800Y-43693D01*
X29771Y-43617D01*
X29743Y-43579D01*
X29685Y-43540D01*
X29600Y-43540D01*
X29543Y-43579D01*
X29514Y-43617D01*
X29485Y-43693D01*
X29485Y-43921D01*
X29514Y-43998D01*
X29543Y-44036D01*
X29600Y-44074D01*
X29685Y-44074D01*
X29314Y-43540D02*
X29085Y-43540D01*
X29228Y-43274D02*
X29228Y-43960D01*
X29200Y-44036D01*
X29142Y-44074D01*
X29085Y-44074D01*
X28657Y-44036D02*
X28714Y-44074D01*
X28828Y-44074D01*
X28885Y-44036D01*
X28914Y-43960D01*
X28914Y-43655D01*
X28885Y-43579D01*
X28828Y-43540D01*
X28714Y-43540D01*
X28657Y-43579D01*
X28628Y-43655D01*
X28628Y-43731D01*
X28914Y-43807D01*
X28114Y-43540D02*
X28114Y-44074D01*
X28371Y-43540D02*
X28371Y-43960D01*
X28343Y-44036D01*
X28285Y-44074D01*
X28200Y-44074D01*
X28143Y-44036D01*
X28114Y-43998D01*
X27828Y-44074D02*
X27828Y-43540D01*
X27828Y-43693D02*
X27800Y-43617D01*
X27771Y-43579D01*
X27714Y-43540D01*
X27657Y-43540D01*
X27086Y-43274D02*
X26743Y-43274D01*
X26914Y-44074D02*
X26914Y-43274D01*
X26543Y-44074D02*
X26543Y-43274D01*
X26286Y-44074D02*
X26286Y-43655D01*
X26315Y-43579D01*
X26372Y-43540D01*
X26457Y-43540D01*
X26515Y-43579D01*
X26543Y-43617D01*
X25772Y-44036D02*
X25829Y-44074D01*
X25943Y-44074D01*
X26000Y-44036D01*
X26029Y-43960D01*
X26029Y-43655D01*
X26000Y-43579D01*
X25943Y-43540D01*
X25829Y-43540D01*
X25772Y-43579D01*
X25743Y-43655D01*
X25743Y-43731D01*
X26029Y-43807D01*
X25486Y-44074D02*
X25486Y-43540D01*
X25486Y-43693D02*
X25458Y-43617D01*
X25429Y-43579D01*
X25372Y-43540D01*
X25315Y-43540D01*
X25115Y-44074D02*
X25115Y-43540D01*
X25115Y-43617D02*
X25087Y-43579D01*
X25029Y-43540D01*
X24944Y-43540D01*
X24887Y-43579D01*
X24858Y-43655D01*
X24858Y-44074D01*
X24858Y-43655D02*
X24829Y-43579D01*
X24772Y-43540D01*
X24687Y-43540D01*
X24629Y-43579D01*
X24601Y-43655D01*
X24601Y-44074D01*
X24315Y-44074D02*
X24315Y-43540D01*
X24315Y-43274D02*
X24344Y-43312D01*
X24315Y-43350D01*
X24287Y-43312D01*
X24315Y-43274D01*
X24315Y-43350D01*
X23772Y-43540D02*
X23772Y-44340D01*
X23772Y-44036D02*
X23829Y-44074D01*
X23943Y-44074D01*
X24001Y-44036D01*
X24029Y-43998D01*
X24058Y-43921D01*
X24058Y-43693D01*
X24029Y-43617D01*
X24001Y-43579D01*
X23943Y-43540D01*
X23829Y-43540D01*
X23772Y-43579D01*
X23229Y-43540D02*
X23229Y-44074D01*
X23486Y-43540D02*
X23486Y-43960D01*
X23458Y-44036D01*
X23400Y-44074D01*
X23315Y-44074D01*
X23258Y-44036D01*
X23229Y-43998D01*
X22715Y-44036D02*
X22772Y-44074D01*
X22886Y-44074D01*
X22943Y-44036D01*
X22972Y-43960D01*
X22972Y-43655D01*
X22943Y-43579D01*
X22886Y-43540D01*
X22772Y-43540D01*
X22715Y-43579D01*
X22686Y-43655D01*
X22686Y-43731D01*
X22972Y-43807D01*
X30657Y-45009D02*
X30200Y-45009D01*
X29457Y-45314D02*
X29457Y-44514D01*
X29457Y-44895D02*
X29114Y-44895D01*
X29114Y-45314D02*
X29114Y-44514D01*
X28885Y-44780D02*
X28742Y-45314D01*
X28600Y-44780D02*
X28742Y-45314D01*
X28800Y-45504D01*
X28828Y-45542D01*
X28885Y-45580D01*
X28371Y-44780D02*
X28371Y-45580D01*
X28371Y-44819D02*
X28314Y-44780D01*
X28200Y-44780D01*
X28143Y-44819D01*
X28114Y-44857D01*
X28085Y-44933D01*
X28085Y-45161D01*
X28114Y-45238D01*
X28143Y-45276D01*
X28200Y-45314D01*
X28314Y-45314D01*
X28371Y-45276D01*
X27828Y-44780D02*
X27828Y-45314D01*
X27828Y-44857D02*
X27800Y-44819D01*
X27742Y-44780D01*
X27657Y-44780D01*
X27600Y-44819D01*
X27571Y-44895D01*
X27571Y-45314D01*
X27199Y-45314D02*
X27257Y-45276D01*
X27285Y-45238D01*
X27314Y-45161D01*
X27314Y-44933D01*
X27285Y-44857D01*
X27257Y-44819D01*
X27199Y-44780D01*
X27114Y-44780D01*
X27057Y-44819D01*
X27028Y-44857D01*
X26999Y-44933D01*
X26999Y-45161D01*
X27028Y-45238D01*
X27057Y-45276D01*
X27114Y-45314D01*
X27199Y-45314D01*
X26799Y-44780D02*
X26485Y-44780D01*
X26799Y-45314D01*
X26485Y-45314D01*
X25799Y-45009D02*
X25342Y-45009D01*
X32655Y-45754D02*
X32598Y-45754D01*
X32541Y-45792D01*
X32512Y-45830D01*
X32483Y-45906D01*
X32455Y-46059D01*
X32455Y-46249D01*
X32483Y-46401D01*
X32512Y-46478D01*
X32541Y-46516D01*
X32598Y-46554D01*
X32655Y-46554D01*
X32712Y-46516D01*
X32741Y-46478D01*
X32769Y-46401D01*
X32798Y-46249D01*
X32798Y-46059D01*
X32769Y-45906D01*
X32741Y-45830D01*
X32712Y-45792D01*
X32655Y-45754D01*
X32255Y-45754D02*
X31855Y-45754D01*
X32112Y-46554D01*
X31199Y-46325D02*
X30913Y-46325D01*
X31256Y-46554D02*
X31056Y-45754D01*
X30856Y-46554D01*
X30570Y-46554D02*
X30628Y-46516D01*
X30656Y-46478D01*
X30685Y-46401D01*
X30685Y-46173D01*
X30656Y-46097D01*
X30628Y-46059D01*
X30570Y-46020D01*
X30485Y-46020D01*
X30428Y-46059D01*
X30399Y-46097D01*
X30370Y-46173D01*
X30370Y-46401D01*
X30399Y-46478D01*
X30428Y-46516D01*
X30485Y-46554D01*
X30570Y-46554D01*
X29856Y-46020D02*
X29856Y-46554D01*
X30113Y-46020D02*
X30113Y-46440D01*
X30085Y-46516D01*
X30027Y-46554D01*
X29942Y-46554D01*
X29885Y-46516D01*
X29856Y-46478D01*
X29656Y-46020D02*
X29427Y-46020D01*
X29570Y-45754D02*
X29570Y-46440D01*
X29542Y-46516D01*
X29484Y-46554D01*
X29427Y-46554D01*
X28799Y-45830D02*
X28770Y-45792D01*
X28713Y-45754D01*
X28570Y-45754D01*
X28513Y-45792D01*
X28484Y-45830D01*
X28456Y-45906D01*
X28456Y-45982D01*
X28484Y-46097D01*
X28827Y-46554D01*
X28456Y-46554D01*
X28085Y-45754D02*
X28028Y-45754D01*
X27971Y-45792D01*
X27942Y-45830D01*
X27913Y-45906D01*
X27885Y-46059D01*
X27885Y-46249D01*
X27913Y-46401D01*
X27942Y-46478D01*
X27971Y-46516D01*
X28028Y-46554D01*
X28085Y-46554D01*
X28142Y-46516D01*
X28171Y-46478D01*
X28199Y-46401D01*
X28228Y-46249D01*
X28228Y-46059D01*
X28199Y-45906D01*
X28171Y-45830D01*
X28142Y-45792D01*
X28085Y-45754D01*
X27314Y-46554D02*
X27657Y-46554D01*
X27485Y-46554D02*
X27485Y-45754D01*
X27542Y-45868D01*
X27600Y-45944D01*
X27657Y-45982D01*
X26743Y-46554D02*
X27086Y-46554D01*
X26914Y-46554D02*
X26914Y-45754D01*
X26971Y-45868D01*
X27029Y-45944D01*
X27086Y-45982D01*
X26029Y-46249D02*
X25572Y-46249D01*
X24886Y-46020D02*
X24743Y-46554D01*
X24601Y-46020D01*
X24058Y-46554D02*
X24401Y-46554D01*
X24229Y-46554D02*
X24229Y-45754D01*
X24286Y-45868D01*
X24344Y-45944D01*
X24401Y-45982D01*
X23801Y-46478D02*
X23773Y-46516D01*
X23801Y-46554D01*
X23830Y-46516D01*
X23801Y-46478D01*
X23801Y-46554D01*
X23401Y-45754D02*
X23344Y-45754D01*
X23287Y-45792D01*
X23258Y-45830D01*
X23229Y-45906D01*
X23201Y-46059D01*
X23201Y-46249D01*
X23229Y-46401D01*
X23258Y-46478D01*
X23287Y-46516D01*
X23344Y-46554D01*
X23401Y-46554D01*
X23458Y-46516D01*
X23487Y-46478D01*
X23515Y-46401D01*
X23544Y-46249D01*
X23544Y-46059D01*
X23515Y-45906D01*
X23487Y-45830D01*
X23458Y-45792D01*
X23401Y-45754D01*
G54D12*
X37750Y-39000D03*
X34750Y-39000D03*
X34750Y-37500D03*
X37750Y-37500D03*
G54D13*
X22000Y-38250D03*
G54D12*
X22000Y-39250D03*
G54D14*
X41750Y-22500D03*
X30750Y-22500D03*
G54D15*
X38250Y-22000D03*
X38250Y-23000D03*
X37250Y-22000D03*
X37250Y-23000D03*
X36250Y-22000D03*
X36250Y-23000D03*
X35250Y-22000D03*
X35250Y-23000D03*
X34250Y-22000D03*
X34250Y-23000D03*
G54D14*
X30750Y-50000D03*
X41750Y-50000D03*
G54D15*
X34250Y-50500D03*
X34250Y-49500D03*
X35250Y-50500D03*
X35250Y-49500D03*
X36250Y-50500D03*
X36250Y-49500D03*
X37250Y-50500D03*
X37250Y-49500D03*
X38250Y-50500D03*
X38250Y-49500D03*
G54D16*
X28250Y-38250D03*
G54D17*
X25250Y-38250D03*
G54D18*
X39750Y-29500D03*
G54D19*
X38750Y-29500D03*
G54D12*
X38750Y-31500D03*
X39750Y-31500D03*
G54D20*
X22000Y-50250D03*
X50500Y-50250D03*
X50500Y-22000D03*
G54D21*
X37750Y-33000D03*
G54D22*
X37750Y-34000D03*
X37750Y-35000D03*
X37750Y-36000D03*
X40750Y-36000D03*
X40750Y-35000D03*
X40750Y-34000D03*
X40750Y-33000D03*
G54D21*
X34750Y-36000D03*
G54D22*
X34750Y-35000D03*
X34750Y-34000D03*
X34750Y-33000D03*
X31750Y-33000D03*
X31750Y-34000D03*
X31750Y-35000D03*
X31750Y-36000D03*
G54D18*
X33750Y-29500D03*
G54D19*
X32750Y-29500D03*
X32750Y-31500D03*
X33750Y-31500D03*
G54D12*
X37750Y-30500D03*
X34250Y-26250D03*
X32000Y-27000D03*
G54D23*
X37750Y-38250D02*
X38500Y-38250D01*
X38500Y-34000D02*
X37750Y-34000D01*
X39000Y-34500D02*
X38500Y-34000D01*
X39000Y-37750D02*
X39000Y-34500D01*
X37750Y-39000D02*
X37750Y-38250D01*
X37750Y-38250D02*
X37750Y-37500D01*
X38500Y-38250D02*
X39000Y-37750D01*
X37750Y-30500D02*
X37750Y-33000D01*
X25250Y-38250D02*
X22000Y-38250D01*
X34750Y-34000D02*
X34250Y-34000D01*
X31500Y-38250D02*
X28250Y-38250D01*
X33000Y-36750D02*
X31500Y-38250D01*
X33000Y-35250D02*
X33000Y-36750D01*
X34250Y-34000D02*
X33000Y-35250D01*
X34750Y-36000D02*
X34750Y-35000D01*
X34750Y-35000D02*
X37750Y-35000D01*
G54D24*
X36000Y-41500D02*
X41250Y-41500D01*
X33000Y-28000D02*
X32000Y-27000D01*
X33750Y-28000D02*
X33000Y-28000D01*
X41000Y-28000D02*
X39750Y-28000D01*
X44000Y-31000D02*
X41000Y-28000D01*
X44000Y-38750D02*
X44000Y-31000D01*
X41250Y-41500D02*
X44000Y-38750D01*
X39750Y-29500D02*
X39750Y-28000D01*
X39000Y-28000D02*
X33750Y-28000D01*
X33750Y-29500D02*
X33750Y-28000D01*
X34750Y-39000D02*
X34750Y-40250D01*
X34750Y-40250D02*
X36000Y-41500D01*
X39750Y-28000D02*
X39000Y-28000D01*
X33750Y-31500D02*
X33750Y-32500D01*
X40250Y-33000D02*
X40750Y-33000D01*
X39750Y-32500D02*
X40250Y-33000D01*
X33750Y-32500D02*
X34250Y-33000D01*
X34250Y-33000D02*
X34750Y-33000D01*
X33750Y-29500D02*
X33750Y-31500D01*
X39750Y-29500D02*
X39750Y-31500D01*
X39750Y-31500D02*
X39750Y-32500D01*
G54D10*
G36*
X52175Y-50865D02*
X51885Y-51155D01*
X52126Y-50575D01*
X52127Y-49928D01*
X51880Y-49330D01*
X51423Y-48872D01*
X50825Y-48624D01*
X50178Y-48623D01*
X49580Y-48870D01*
X49122Y-49327D01*
X48874Y-49925D01*
X48873Y-50572D01*
X49120Y-51170D01*
X49577Y-51628D01*
X50175Y-51876D01*
X50822Y-51877D01*
X51403Y-51636D01*
X51115Y-51925D01*
X44475Y-51925D01*
X44475Y-38750D01*
X44475Y-31000D01*
X44439Y-30818D01*
X44336Y-30664D01*
X44332Y-30661D01*
X43074Y-29402D01*
X43074Y-22238D01*
X42873Y-21751D01*
X42501Y-21379D01*
X42015Y-21177D01*
X41488Y-21176D01*
X41001Y-21377D01*
X40629Y-21749D01*
X40427Y-22235D01*
X40426Y-22762D01*
X40627Y-23249D01*
X40999Y-23621D01*
X41485Y-23823D01*
X42012Y-23824D01*
X42499Y-23623D01*
X42871Y-23251D01*
X43073Y-22765D01*
X43074Y-22238D01*
X43074Y-29402D01*
X41336Y-27664D01*
X41182Y-27561D01*
X41000Y-27525D01*
X39750Y-27525D01*
X39000Y-27525D01*
X38925Y-27525D01*
X38925Y-23135D01*
X38925Y-22866D01*
X38825Y-22626D01*
X38886Y-22566D01*
X38924Y-22475D01*
X38924Y-22376D01*
X38924Y-21526D01*
X38886Y-21434D01*
X38816Y-21364D01*
X38725Y-21326D01*
X38626Y-21326D01*
X37776Y-21326D01*
X37684Y-21364D01*
X37623Y-21424D01*
X37385Y-21325D01*
X37116Y-21325D01*
X36868Y-21428D01*
X36749Y-21545D01*
X36633Y-21428D01*
X36385Y-21325D01*
X36116Y-21325D01*
X35868Y-21428D01*
X35749Y-21545D01*
X35633Y-21428D01*
X35385Y-21325D01*
X35116Y-21325D01*
X34868Y-21428D01*
X34749Y-21545D01*
X34633Y-21428D01*
X34385Y-21325D01*
X34116Y-21325D01*
X33868Y-21428D01*
X33678Y-21617D01*
X33575Y-21865D01*
X33575Y-22134D01*
X33678Y-22382D01*
X33867Y-22572D01*
X33911Y-22590D01*
X34250Y-22929D01*
X34589Y-22589D01*
X34632Y-22572D01*
X34750Y-22454D01*
X34795Y-22500D01*
X34678Y-22617D01*
X34659Y-22661D01*
X34321Y-23000D01*
X34660Y-23339D01*
X34678Y-23382D01*
X34867Y-23572D01*
X35115Y-23675D01*
X35384Y-23675D01*
X35632Y-23572D01*
X35750Y-23454D01*
X35867Y-23572D01*
X36115Y-23675D01*
X36384Y-23675D01*
X36632Y-23572D01*
X36750Y-23454D01*
X36867Y-23572D01*
X37115Y-23675D01*
X37384Y-23675D01*
X37632Y-23572D01*
X37750Y-23454D01*
X37867Y-23572D01*
X38115Y-23675D01*
X38384Y-23675D01*
X38632Y-23572D01*
X38822Y-23383D01*
X38925Y-23135D01*
X38925Y-27525D01*
X34646Y-27525D01*
X34646Y-23467D01*
X34250Y-23071D01*
X34179Y-23142D01*
X34179Y-23000D01*
X33783Y-22604D01*
X33676Y-22645D01*
X33583Y-22892D01*
X33592Y-23156D01*
X33676Y-23355D01*
X33783Y-23396D01*
X34179Y-23000D01*
X34179Y-23142D01*
X33854Y-23467D01*
X33895Y-23574D01*
X34142Y-23667D01*
X34406Y-23658D01*
X34605Y-23574D01*
X34646Y-23467D01*
X34646Y-27525D01*
X33750Y-27525D01*
X33197Y-27525D01*
X32625Y-26953D01*
X32625Y-26876D01*
X32530Y-26646D01*
X32354Y-26470D01*
X32125Y-26375D01*
X32074Y-26375D01*
X32074Y-22238D01*
X31873Y-21751D01*
X31501Y-21379D01*
X31015Y-21177D01*
X30488Y-21176D01*
X30001Y-21377D01*
X29629Y-21749D01*
X29427Y-22235D01*
X29426Y-22762D01*
X29627Y-23249D01*
X29999Y-23621D01*
X30485Y-23823D01*
X31012Y-23824D01*
X31499Y-23623D01*
X31871Y-23251D01*
X32073Y-22765D01*
X32074Y-22238D01*
X32074Y-26375D01*
X31876Y-26375D01*
X31646Y-26470D01*
X31470Y-26646D01*
X31375Y-26875D01*
X31375Y-27124D01*
X31470Y-27354D01*
X31646Y-27530D01*
X31875Y-27625D01*
X31953Y-27625D01*
X32664Y-28336D01*
X32818Y-28439D01*
X33000Y-28475D01*
X33275Y-28475D01*
X33275Y-28932D01*
X33259Y-28939D01*
X33189Y-29009D01*
X33169Y-29056D01*
X33111Y-28998D01*
X33075Y-29033D01*
X33060Y-28987D01*
X32841Y-28907D01*
X32606Y-28918D01*
X32440Y-28987D01*
X32407Y-29086D01*
X32715Y-29394D01*
X32750Y-29429D01*
X32821Y-29500D01*
X32750Y-29571D01*
X32715Y-29606D01*
X32679Y-29642D01*
X32679Y-29500D01*
X32336Y-29157D01*
X32237Y-29190D01*
X32157Y-29409D01*
X32168Y-29644D01*
X32237Y-29810D01*
X32336Y-29843D01*
X32679Y-29500D01*
X32679Y-29642D01*
X32407Y-29914D01*
X32440Y-30013D01*
X32659Y-30093D01*
X32894Y-30082D01*
X33060Y-30013D01*
X33075Y-29966D01*
X33093Y-29984D01*
X33111Y-30002D01*
X33169Y-29943D01*
X33189Y-29991D01*
X33259Y-30061D01*
X33275Y-30067D01*
X33275Y-31128D01*
X33242Y-31161D01*
X33234Y-31180D01*
X33164Y-31157D01*
X33093Y-31228D01*
X33093Y-31086D01*
X33060Y-30987D01*
X32841Y-30907D01*
X32606Y-30918D01*
X32440Y-30987D01*
X32407Y-31086D01*
X32750Y-31429D01*
X33093Y-31086D01*
X33093Y-31228D01*
X32821Y-31500D01*
X33164Y-31843D01*
X33234Y-31819D01*
X33242Y-31839D01*
X33275Y-31872D01*
X33275Y-32500D01*
X33311Y-32682D01*
X33414Y-32836D01*
X33914Y-33336D01*
X34068Y-33439D01*
X34250Y-33475D01*
X34310Y-33475D01*
X34370Y-33500D01*
X34286Y-33535D01*
X34213Y-33607D01*
X34097Y-33630D01*
X33967Y-33717D01*
X33964Y-33720D01*
X33093Y-34591D01*
X33093Y-31914D01*
X32750Y-31571D01*
X32679Y-31642D01*
X32679Y-31500D01*
X32336Y-31157D01*
X32237Y-31190D01*
X32157Y-31409D01*
X32168Y-31644D01*
X32237Y-31810D01*
X32336Y-31843D01*
X32679Y-31500D01*
X32679Y-31642D01*
X32407Y-31914D01*
X32440Y-32013D01*
X32659Y-32093D01*
X32894Y-32082D01*
X33060Y-32013D01*
X33093Y-31914D01*
X33093Y-34591D01*
X32717Y-34967D01*
X32630Y-35097D01*
X32600Y-35250D01*
X32600Y-36584D01*
X32452Y-36732D01*
X32452Y-36109D01*
X32452Y-35891D01*
X32368Y-35689D01*
X32214Y-35535D01*
X32129Y-35500D01*
X32214Y-35465D01*
X32368Y-35311D01*
X32452Y-35109D01*
X32452Y-34891D01*
X32368Y-34689D01*
X32214Y-34535D01*
X32129Y-34500D01*
X32214Y-34465D01*
X32368Y-34311D01*
X32452Y-34109D01*
X32452Y-33891D01*
X32368Y-33689D01*
X32214Y-33535D01*
X32129Y-33500D01*
X32214Y-33465D01*
X32368Y-33311D01*
X32452Y-33109D01*
X32452Y-32891D01*
X32368Y-32689D01*
X32214Y-32535D01*
X32012Y-32451D01*
X31794Y-32451D01*
X31488Y-32451D01*
X31286Y-32535D01*
X31132Y-32689D01*
X31048Y-32891D01*
X31048Y-33109D01*
X31132Y-33311D01*
X31286Y-33465D01*
X31370Y-33500D01*
X31286Y-33535D01*
X31132Y-33689D01*
X31048Y-33891D01*
X31048Y-34109D01*
X31132Y-34311D01*
X31286Y-34465D01*
X31370Y-34500D01*
X31286Y-34535D01*
X31132Y-34689D01*
X31048Y-34891D01*
X31048Y-35109D01*
X31132Y-35311D01*
X31286Y-35465D01*
X31370Y-35500D01*
X31286Y-35535D01*
X31132Y-35689D01*
X31048Y-35891D01*
X31048Y-36109D01*
X31132Y-36311D01*
X31286Y-36465D01*
X31488Y-36549D01*
X31706Y-36549D01*
X32012Y-36549D01*
X32214Y-36465D01*
X32368Y-36311D01*
X32452Y-36109D01*
X32452Y-36732D01*
X31334Y-37850D01*
X28742Y-37850D01*
X28736Y-37834D01*
X28666Y-37764D01*
X28575Y-37726D01*
X28476Y-37726D01*
X27926Y-37726D01*
X27834Y-37764D01*
X27764Y-37834D01*
X27726Y-37925D01*
X27726Y-38024D01*
X27726Y-38574D01*
X27764Y-38666D01*
X27834Y-38736D01*
X27925Y-38774D01*
X28024Y-38774D01*
X28574Y-38774D01*
X28666Y-38736D01*
X28736Y-38666D01*
X28742Y-38650D01*
X31500Y-38650D01*
X31653Y-38620D01*
X31783Y-38533D01*
X33283Y-37033D01*
X33370Y-36904D01*
X33370Y-36903D01*
X33400Y-36750D01*
X33400Y-35415D01*
X34331Y-34483D01*
X34370Y-34500D01*
X34286Y-34535D01*
X34132Y-34689D01*
X34048Y-34891D01*
X34048Y-35109D01*
X34132Y-35311D01*
X34262Y-35441D01*
X34251Y-35441D01*
X34159Y-35479D01*
X34089Y-35549D01*
X34051Y-35640D01*
X34051Y-35739D01*
X34051Y-36359D01*
X34089Y-36451D01*
X34159Y-36521D01*
X34250Y-36559D01*
X34349Y-36559D01*
X35249Y-36559D01*
X35341Y-36521D01*
X35411Y-36451D01*
X35449Y-36360D01*
X35449Y-36261D01*
X35449Y-35641D01*
X35411Y-35549D01*
X35341Y-35479D01*
X35250Y-35441D01*
X35238Y-35441D01*
X35279Y-35400D01*
X37221Y-35400D01*
X37286Y-35465D01*
X37365Y-35498D01*
X37200Y-35618D01*
X37085Y-35804D01*
X37068Y-35863D01*
X37115Y-35950D01*
X37650Y-35950D01*
X37700Y-35950D01*
X37800Y-35950D01*
X37850Y-35950D01*
X38385Y-35950D01*
X38432Y-35863D01*
X38415Y-35804D01*
X38300Y-35618D01*
X38134Y-35498D01*
X38214Y-35465D01*
X38368Y-35311D01*
X38452Y-35109D01*
X38452Y-34891D01*
X38368Y-34689D01*
X38214Y-34535D01*
X38129Y-34500D01*
X38214Y-34465D01*
X38279Y-34400D01*
X38334Y-34400D01*
X38600Y-34666D01*
X38600Y-37584D01*
X38432Y-37752D01*
X38432Y-36137D01*
X38385Y-36050D01*
X37800Y-36050D01*
X37800Y-36560D01*
X37910Y-36560D01*
X38123Y-36510D01*
X38300Y-36382D01*
X38415Y-36196D01*
X38432Y-36137D01*
X38432Y-37752D01*
X38334Y-37850D01*
X38281Y-37850D01*
X38375Y-37625D01*
X38375Y-37376D01*
X38280Y-37146D01*
X38104Y-36970D01*
X37875Y-36875D01*
X37700Y-36875D01*
X37700Y-36560D01*
X37700Y-36050D01*
X37115Y-36050D01*
X37068Y-36137D01*
X37085Y-36196D01*
X37200Y-36382D01*
X37377Y-36510D01*
X37590Y-36560D01*
X37700Y-36560D01*
X37700Y-36875D01*
X37626Y-36875D01*
X37396Y-36970D01*
X37220Y-37146D01*
X37125Y-37375D01*
X37125Y-37624D01*
X37220Y-37854D01*
X37350Y-37984D01*
X37350Y-38250D01*
X37350Y-38516D01*
X37220Y-38646D01*
X37125Y-38875D01*
X37125Y-39124D01*
X37220Y-39354D01*
X37396Y-39530D01*
X37625Y-39625D01*
X37874Y-39625D01*
X38104Y-39530D01*
X38280Y-39354D01*
X38375Y-39125D01*
X38375Y-38876D01*
X38281Y-38650D01*
X38500Y-38650D01*
X38653Y-38620D01*
X38783Y-38533D01*
X39283Y-38033D01*
X39370Y-37904D01*
X39370Y-37903D01*
X39400Y-37750D01*
X39400Y-34500D01*
X39370Y-34347D01*
X39370Y-34346D01*
X39283Y-34217D01*
X39111Y-34045D01*
X39111Y-31931D01*
X38750Y-31571D01*
X38389Y-31931D01*
X38425Y-32033D01*
X38653Y-32117D01*
X38896Y-32107D01*
X39075Y-32033D01*
X39111Y-31931D01*
X39111Y-34045D01*
X38783Y-33717D01*
X38653Y-33630D01*
X38500Y-33600D01*
X38279Y-33600D01*
X38238Y-33559D01*
X38249Y-33559D01*
X38341Y-33521D01*
X38411Y-33451D01*
X38449Y-33360D01*
X38449Y-33261D01*
X38449Y-32641D01*
X38411Y-32549D01*
X38341Y-32479D01*
X38250Y-32441D01*
X38151Y-32441D01*
X38150Y-32441D01*
X38150Y-31662D01*
X38217Y-31825D01*
X38319Y-31861D01*
X38679Y-31500D01*
X38319Y-31139D01*
X38217Y-31175D01*
X38150Y-31356D01*
X38150Y-30984D01*
X38280Y-30854D01*
X38375Y-30625D01*
X38375Y-30376D01*
X38280Y-30146D01*
X38104Y-29970D01*
X37875Y-29875D01*
X37626Y-29875D01*
X37396Y-29970D01*
X37220Y-30146D01*
X37125Y-30375D01*
X37125Y-30624D01*
X37220Y-30854D01*
X37350Y-30984D01*
X37350Y-32441D01*
X37251Y-32441D01*
X37159Y-32479D01*
X37089Y-32549D01*
X37051Y-32640D01*
X37051Y-32739D01*
X37051Y-33359D01*
X37089Y-33451D01*
X37159Y-33521D01*
X37250Y-33559D01*
X37262Y-33559D01*
X37132Y-33689D01*
X37048Y-33891D01*
X37048Y-34109D01*
X37132Y-34311D01*
X37286Y-34465D01*
X37370Y-34500D01*
X37286Y-34535D01*
X37221Y-34600D01*
X35279Y-34600D01*
X35214Y-34535D01*
X35129Y-34500D01*
X35214Y-34465D01*
X35368Y-34311D01*
X35452Y-34109D01*
X35452Y-33891D01*
X35368Y-33689D01*
X35214Y-33535D01*
X35129Y-33500D01*
X35214Y-33465D01*
X35368Y-33311D01*
X35452Y-33109D01*
X35452Y-32891D01*
X35368Y-32689D01*
X35214Y-32535D01*
X35012Y-32451D01*
X34794Y-32451D01*
X34488Y-32451D01*
X34406Y-32484D01*
X34225Y-32303D01*
X34225Y-31872D01*
X34258Y-31839D01*
X34349Y-31619D01*
X34349Y-31381D01*
X34258Y-31161D01*
X34225Y-31128D01*
X34225Y-30067D01*
X34241Y-30061D01*
X34311Y-29991D01*
X34349Y-29900D01*
X34349Y-29801D01*
X34349Y-29101D01*
X34311Y-29009D01*
X34241Y-28939D01*
X34225Y-28932D01*
X34225Y-28475D01*
X39000Y-28475D01*
X39275Y-28475D01*
X39275Y-28897D01*
X39234Y-28914D01*
X39164Y-28984D01*
X39154Y-29005D01*
X39129Y-28980D01*
X39092Y-29016D01*
X39075Y-28967D01*
X38847Y-28883D01*
X38604Y-28893D01*
X38425Y-28967D01*
X38389Y-29069D01*
X38715Y-29394D01*
X38750Y-29429D01*
X38821Y-29500D01*
X38750Y-29571D01*
X38679Y-29641D01*
X38679Y-29500D01*
X38319Y-29139D01*
X38217Y-29175D01*
X38133Y-29403D01*
X38143Y-29646D01*
X38217Y-29825D01*
X38319Y-29861D01*
X38679Y-29500D01*
X38679Y-29641D01*
X38389Y-29931D01*
X38425Y-30033D01*
X38653Y-30117D01*
X38896Y-30107D01*
X39075Y-30033D01*
X39092Y-29983D01*
X39111Y-30002D01*
X39129Y-30020D01*
X39154Y-29994D01*
X39164Y-30016D01*
X39234Y-30086D01*
X39275Y-30103D01*
X39275Y-31091D01*
X39220Y-31146D01*
X39217Y-31151D01*
X39181Y-31139D01*
X39111Y-31209D01*
X39111Y-31069D01*
X39075Y-30967D01*
X38847Y-30883D01*
X38604Y-30893D01*
X38425Y-30967D01*
X38389Y-31069D01*
X38750Y-31429D01*
X39111Y-31069D01*
X39111Y-31209D01*
X38821Y-31500D01*
X39181Y-31861D01*
X39217Y-31848D01*
X39220Y-31854D01*
X39275Y-31909D01*
X39275Y-32500D01*
X39311Y-32682D01*
X39414Y-32836D01*
X39914Y-33336D01*
X40068Y-33439D01*
X40250Y-33475D01*
X40310Y-33475D01*
X40370Y-33500D01*
X40286Y-33535D01*
X40132Y-33689D01*
X40048Y-33891D01*
X40048Y-34109D01*
X40132Y-34311D01*
X40286Y-34465D01*
X40370Y-34500D01*
X40286Y-34535D01*
X40132Y-34689D01*
X40048Y-34891D01*
X40048Y-35109D01*
X40132Y-35311D01*
X40286Y-35465D01*
X40370Y-35500D01*
X40286Y-35535D01*
X40132Y-35689D01*
X40048Y-35891D01*
X40048Y-36109D01*
X40132Y-36311D01*
X40286Y-36465D01*
X40488Y-36549D01*
X40706Y-36549D01*
X41012Y-36549D01*
X41214Y-36465D01*
X41368Y-36311D01*
X41452Y-36109D01*
X41452Y-35891D01*
X41368Y-35689D01*
X41214Y-35535D01*
X41129Y-35500D01*
X41214Y-35465D01*
X41368Y-35311D01*
X41452Y-35109D01*
X41452Y-34891D01*
X41368Y-34689D01*
X41214Y-34535D01*
X41129Y-34500D01*
X41214Y-34465D01*
X41368Y-34311D01*
X41452Y-34109D01*
X41452Y-33891D01*
X41368Y-33689D01*
X41214Y-33535D01*
X41129Y-33500D01*
X41214Y-33465D01*
X41368Y-33311D01*
X41452Y-33109D01*
X41452Y-32891D01*
X41368Y-32689D01*
X41214Y-32535D01*
X41012Y-32451D01*
X40794Y-32451D01*
X40488Y-32451D01*
X40406Y-32484D01*
X40225Y-32303D01*
X40225Y-31909D01*
X40280Y-31854D01*
X40375Y-31625D01*
X40375Y-31376D01*
X40280Y-31146D01*
X40225Y-31091D01*
X40225Y-30102D01*
X40266Y-30086D01*
X40336Y-30016D01*
X40374Y-29925D01*
X40374Y-29826D01*
X40374Y-29076D01*
X40336Y-28984D01*
X40266Y-28914D01*
X40225Y-28896D01*
X40225Y-28475D01*
X40803Y-28475D01*
X43525Y-31196D01*
X43525Y-38553D01*
X41053Y-41025D01*
X36196Y-41025D01*
X35225Y-40053D01*
X35225Y-39409D01*
X35280Y-39354D01*
X35375Y-39125D01*
X35375Y-38876D01*
X35367Y-38856D01*
X35367Y-37597D01*
X35357Y-37354D01*
X35283Y-37175D01*
X35181Y-37139D01*
X35111Y-37209D01*
X35111Y-37069D01*
X35075Y-36967D01*
X34847Y-36883D01*
X34604Y-36893D01*
X34425Y-36967D01*
X34389Y-37069D01*
X34750Y-37429D01*
X35111Y-37069D01*
X35111Y-37209D01*
X34821Y-37500D01*
X35181Y-37861D01*
X35283Y-37825D01*
X35367Y-37597D01*
X35367Y-38856D01*
X35280Y-38646D01*
X35111Y-38477D01*
X35111Y-37931D01*
X34750Y-37571D01*
X34679Y-37641D01*
X34679Y-37500D01*
X34319Y-37139D01*
X34217Y-37175D01*
X34133Y-37403D01*
X34143Y-37646D01*
X34217Y-37825D01*
X34319Y-37861D01*
X34679Y-37500D01*
X34679Y-37641D01*
X34389Y-37931D01*
X34425Y-38033D01*
X34653Y-38117D01*
X34896Y-38107D01*
X35075Y-38033D01*
X35111Y-37931D01*
X35111Y-38477D01*
X35104Y-38470D01*
X34875Y-38375D01*
X34626Y-38375D01*
X34396Y-38470D01*
X34220Y-38646D01*
X34125Y-38875D01*
X34125Y-39124D01*
X34220Y-39354D01*
X34275Y-39409D01*
X34275Y-40250D01*
X34311Y-40432D01*
X34414Y-40586D01*
X35661Y-41832D01*
X35664Y-41836D01*
X35818Y-41939D01*
X35999Y-41975D01*
X35999Y-41974D01*
X36000Y-41975D01*
X41250Y-41975D01*
X41432Y-41939D01*
X41586Y-41836D01*
X44336Y-39086D01*
X44439Y-38932D01*
X44475Y-38750D01*
X44475Y-51925D01*
X43074Y-51925D01*
X43074Y-49738D01*
X42873Y-49251D01*
X42501Y-48879D01*
X42015Y-48677D01*
X41488Y-48676D01*
X41001Y-48877D01*
X40629Y-49249D01*
X40427Y-49735D01*
X40426Y-50262D01*
X40627Y-50749D01*
X40999Y-51121D01*
X41485Y-51323D01*
X42012Y-51324D01*
X42499Y-51123D01*
X42871Y-50751D01*
X43073Y-50265D01*
X43074Y-49738D01*
X43074Y-51925D01*
X38925Y-51925D01*
X38925Y-50635D01*
X38925Y-50366D01*
X38822Y-50118D01*
X38704Y-49999D01*
X38822Y-49883D01*
X38925Y-49635D01*
X38925Y-49366D01*
X38822Y-49118D01*
X38633Y-48928D01*
X38385Y-48825D01*
X38116Y-48825D01*
X37868Y-48928D01*
X37749Y-49045D01*
X37633Y-48928D01*
X37385Y-48825D01*
X37116Y-48825D01*
X36868Y-48928D01*
X36749Y-49045D01*
X36633Y-48928D01*
X36385Y-48825D01*
X36116Y-48825D01*
X35868Y-48928D01*
X35749Y-49045D01*
X35633Y-48928D01*
X35385Y-48825D01*
X35116Y-48825D01*
X34868Y-48928D01*
X34749Y-49045D01*
X34633Y-48928D01*
X34385Y-48825D01*
X34116Y-48825D01*
X33868Y-48928D01*
X33738Y-49057D01*
X33738Y-47100D01*
X33738Y-42760D01*
X25775Y-42760D01*
X25775Y-38355D01*
X25775Y-38146D01*
X25695Y-37953D01*
X25548Y-37805D01*
X25355Y-37725D01*
X25146Y-37725D01*
X24953Y-37805D01*
X24907Y-37850D01*
X22624Y-37850D01*
X22624Y-37826D01*
X22586Y-37734D01*
X22516Y-37664D01*
X22425Y-37626D01*
X22326Y-37626D01*
X21576Y-37626D01*
X21484Y-37664D01*
X21414Y-37734D01*
X21376Y-37825D01*
X21376Y-37924D01*
X21376Y-38674D01*
X21414Y-38766D01*
X21484Y-38836D01*
X21505Y-38845D01*
X21480Y-38871D01*
X21516Y-38907D01*
X21467Y-38925D01*
X21383Y-39153D01*
X21393Y-39396D01*
X21467Y-39575D01*
X21569Y-39611D01*
X21894Y-39285D01*
X21929Y-39250D01*
X22000Y-39179D01*
X22071Y-39250D01*
X22106Y-39285D01*
X22431Y-39611D01*
X22533Y-39575D01*
X22617Y-39347D01*
X22607Y-39104D01*
X22533Y-38925D01*
X22483Y-38907D01*
X22520Y-38871D01*
X22494Y-38845D01*
X22516Y-38836D01*
X22586Y-38766D01*
X22624Y-38675D01*
X22624Y-38650D01*
X24907Y-38650D01*
X24952Y-38695D01*
X25145Y-38775D01*
X25354Y-38775D01*
X25547Y-38695D01*
X25695Y-38548D01*
X25775Y-38355D01*
X25775Y-42760D01*
X22617Y-42760D01*
X22361Y-42760D01*
X22361Y-39681D01*
X22000Y-39321D01*
X21929Y-39391D01*
X21639Y-39681D01*
X21675Y-39783D01*
X21903Y-39867D01*
X22146Y-39857D01*
X22325Y-39783D01*
X22361Y-39681D01*
X22361Y-42760D01*
X22262Y-42760D01*
X22262Y-47100D01*
X33738Y-47100D01*
X33738Y-49057D01*
X33678Y-49117D01*
X33575Y-49365D01*
X33575Y-49634D01*
X33674Y-49873D01*
X33614Y-49934D01*
X33576Y-50025D01*
X33576Y-50124D01*
X33576Y-50974D01*
X33614Y-51066D01*
X33684Y-51136D01*
X33775Y-51174D01*
X33874Y-51174D01*
X34724Y-51174D01*
X34816Y-51136D01*
X34876Y-51075D01*
X35115Y-51175D01*
X35384Y-51175D01*
X35632Y-51072D01*
X35750Y-50954D01*
X35867Y-51072D01*
X36115Y-51175D01*
X36384Y-51175D01*
X36632Y-51072D01*
X36750Y-50954D01*
X36867Y-51072D01*
X37115Y-51175D01*
X37384Y-51175D01*
X37632Y-51072D01*
X37750Y-50954D01*
X37867Y-51072D01*
X38115Y-51175D01*
X38384Y-51175D01*
X38632Y-51072D01*
X38822Y-50883D01*
X38925Y-50635D01*
X38925Y-51925D01*
X32074Y-51925D01*
X32074Y-49738D01*
X31873Y-49251D01*
X31501Y-48879D01*
X31015Y-48677D01*
X30488Y-48676D01*
X30001Y-48877D01*
X29629Y-49249D01*
X29427Y-49735D01*
X29426Y-50262D01*
X29627Y-50749D01*
X29999Y-51121D01*
X30485Y-51323D01*
X31012Y-51324D01*
X31499Y-51123D01*
X31871Y-50751D01*
X32073Y-50265D01*
X32074Y-49738D01*
X32074Y-51925D01*
X21384Y-51925D01*
X21094Y-51635D01*
X21675Y-51876D01*
X22322Y-51877D01*
X22920Y-51630D01*
X23378Y-51173D01*
X23626Y-50575D01*
X23627Y-49928D01*
X23380Y-49330D01*
X22923Y-48872D01*
X22325Y-48624D01*
X21678Y-48623D01*
X21080Y-48870D01*
X20622Y-49327D01*
X20374Y-49925D01*
X20373Y-50572D01*
X20613Y-51153D01*
X20325Y-50865D01*
X20325Y-36120D01*
X26603Y-36120D01*
X26603Y-34260D01*
X20325Y-34260D01*
X20325Y-27325D01*
X26500Y-27325D01*
X26624Y-27300D01*
X26730Y-27230D01*
X26800Y-27124D01*
X26825Y-27000D01*
X26825Y-20325D01*
X50865Y-20325D01*
X50977Y-20437D01*
X50825Y-20374D01*
X50178Y-20373D01*
X49580Y-20620D01*
X49122Y-21077D01*
X48874Y-21675D01*
X48873Y-22322D01*
X49120Y-22920D01*
X49577Y-23378D01*
X50175Y-23626D01*
X50822Y-23627D01*
X51420Y-23380D01*
X51878Y-22923D01*
X52126Y-22325D01*
X52127Y-21678D01*
X52062Y-21522D01*
X52175Y-21635D01*
X52175Y-50865D01*
X52175Y-50865D01*
G37*
G54D25*
X52175Y-50865D02*
X51885Y-51155D01*
X52126Y-50575D01*
X52127Y-49928D01*
X51880Y-49330D01*
X51423Y-48872D01*
X50825Y-48624D01*
X50178Y-48623D01*
X49580Y-48870D01*
X49122Y-49327D01*
X48874Y-49925D01*
X48873Y-50572D01*
X49120Y-51170D01*
X49577Y-51628D01*
X50175Y-51876D01*
X50822Y-51877D01*
X51403Y-51636D01*
X51115Y-51925D01*
X44475Y-51925D01*
X44475Y-38750D01*
X44475Y-31000D01*
X44439Y-30818D01*
X44336Y-30664D01*
X44332Y-30661D01*
X43074Y-29402D01*
X43074Y-22238D01*
X42873Y-21751D01*
X42501Y-21379D01*
X42015Y-21177D01*
X41488Y-21176D01*
X41001Y-21377D01*
X40629Y-21749D01*
X40427Y-22235D01*
X40426Y-22762D01*
X40627Y-23249D01*
X40999Y-23621D01*
X41485Y-23823D01*
X42012Y-23824D01*
X42499Y-23623D01*
X42871Y-23251D01*
X43073Y-22765D01*
X43074Y-22238D01*
X43074Y-29402D01*
X41336Y-27664D01*
X41182Y-27561D01*
X41000Y-27525D01*
X39750Y-27525D01*
X39000Y-27525D01*
X38925Y-27525D01*
X38925Y-23135D01*
X38925Y-22866D01*
X38825Y-22626D01*
X38886Y-22566D01*
X38924Y-22475D01*
X38924Y-22376D01*
X38924Y-21526D01*
X38886Y-21434D01*
X38816Y-21364D01*
X38725Y-21326D01*
X38626Y-21326D01*
X37776Y-21326D01*
X37684Y-21364D01*
X37623Y-21424D01*
X37385Y-21325D01*
X37116Y-21325D01*
X36868Y-21428D01*
X36749Y-21545D01*
X36633Y-21428D01*
X36385Y-21325D01*
X36116Y-21325D01*
X35868Y-21428D01*
X35749Y-21545D01*
X35633Y-21428D01*
X35385Y-21325D01*
X35116Y-21325D01*
X34868Y-21428D01*
X34749Y-21545D01*
X34633Y-21428D01*
X34385Y-21325D01*
X34116Y-21325D01*
X33868Y-21428D01*
X33678Y-21617D01*
X33575Y-21865D01*
X33575Y-22134D01*
X33678Y-22382D01*
X33867Y-22572D01*
X33911Y-22590D01*
X34250Y-22929D01*
X34589Y-22589D01*
X34632Y-22572D01*
X34750Y-22454D01*
X34795Y-22500D01*
X34678Y-22617D01*
X34659Y-22661D01*
X34321Y-23000D01*
X34660Y-23339D01*
X34678Y-23382D01*
X34867Y-23572D01*
X35115Y-23675D01*
X35384Y-23675D01*
X35632Y-23572D01*
X35750Y-23454D01*
X35867Y-23572D01*
X36115Y-23675D01*
X36384Y-23675D01*
X36632Y-23572D01*
X36750Y-23454D01*
X36867Y-23572D01*
X37115Y-23675D01*
X37384Y-23675D01*
X37632Y-23572D01*
X37750Y-23454D01*
X37867Y-23572D01*
X38115Y-23675D01*
X38384Y-23675D01*
X38632Y-23572D01*
X38822Y-23383D01*
X38925Y-23135D01*
X38925Y-27525D01*
X34646Y-27525D01*
X34646Y-23467D01*
X34250Y-23071D01*
X34179Y-23142D01*
X34179Y-23000D01*
X33783Y-22604D01*
X33676Y-22645D01*
X33583Y-22892D01*
X33592Y-23156D01*
X33676Y-23355D01*
X33783Y-23396D01*
X34179Y-23000D01*
X34179Y-23142D01*
X33854Y-23467D01*
X33895Y-23574D01*
X34142Y-23667D01*
X34406Y-23658D01*
X34605Y-23574D01*
X34646Y-23467D01*
X34646Y-27525D01*
X33750Y-27525D01*
X33197Y-27525D01*
X32625Y-26953D01*
X32625Y-26876D01*
X32530Y-26646D01*
X32354Y-26470D01*
X32125Y-26375D01*
X32074Y-26375D01*
X32074Y-22238D01*
X31873Y-21751D01*
X31501Y-21379D01*
X31015Y-21177D01*
X30488Y-21176D01*
X30001Y-21377D01*
X29629Y-21749D01*
X29427Y-22235D01*
X29426Y-22762D01*
X29627Y-23249D01*
X29999Y-23621D01*
X30485Y-23823D01*
X31012Y-23824D01*
X31499Y-23623D01*
X31871Y-23251D01*
X32073Y-22765D01*
X32074Y-22238D01*
X32074Y-26375D01*
X31876Y-26375D01*
X31646Y-26470D01*
X31470Y-26646D01*
X31375Y-26875D01*
X31375Y-27124D01*
X31470Y-27354D01*
X31646Y-27530D01*
X31875Y-27625D01*
X31953Y-27625D01*
X32664Y-28336D01*
X32818Y-28439D01*
X33000Y-28475D01*
X33275Y-28475D01*
X33275Y-28932D01*
X33259Y-28939D01*
X33189Y-29009D01*
X33169Y-29056D01*
X33111Y-28998D01*
X33075Y-29033D01*
X33060Y-28987D01*
X32841Y-28907D01*
X32606Y-28918D01*
X32440Y-28987D01*
X32407Y-29086D01*
X32715Y-29394D01*
X32750Y-29429D01*
X32821Y-29500D01*
X32750Y-29571D01*
X32715Y-29606D01*
X32679Y-29642D01*
X32679Y-29500D01*
X32336Y-29157D01*
X32237Y-29190D01*
X32157Y-29409D01*
X32168Y-29644D01*
X32237Y-29810D01*
X32336Y-29843D01*
X32679Y-29500D01*
X32679Y-29642D01*
X32407Y-29914D01*
X32440Y-30013D01*
X32659Y-30093D01*
X32894Y-30082D01*
X33060Y-30013D01*
X33075Y-29966D01*
X33093Y-29984D01*
X33111Y-30002D01*
X33169Y-29943D01*
X33189Y-29991D01*
X33259Y-30061D01*
X33275Y-30067D01*
X33275Y-31128D01*
X33242Y-31161D01*
X33234Y-31180D01*
X33164Y-31157D01*
X33093Y-31228D01*
X33093Y-31086D01*
X33060Y-30987D01*
X32841Y-30907D01*
X32606Y-30918D01*
X32440Y-30987D01*
X32407Y-31086D01*
X32750Y-31429D01*
X33093Y-31086D01*
X33093Y-31228D01*
X32821Y-31500D01*
X33164Y-31843D01*
X33234Y-31819D01*
X33242Y-31839D01*
X33275Y-31872D01*
X33275Y-32500D01*
X33311Y-32682D01*
X33414Y-32836D01*
X33914Y-33336D01*
X34068Y-33439D01*
X34250Y-33475D01*
X34310Y-33475D01*
X34370Y-33500D01*
X34286Y-33535D01*
X34213Y-33607D01*
X34097Y-33630D01*
X33967Y-33717D01*
X33964Y-33720D01*
X33093Y-34591D01*
X33093Y-31914D01*
X32750Y-31571D01*
X32679Y-31642D01*
X32679Y-31500D01*
X32336Y-31157D01*
X32237Y-31190D01*
X32157Y-31409D01*
X32168Y-31644D01*
X32237Y-31810D01*
X32336Y-31843D01*
X32679Y-31500D01*
X32679Y-31642D01*
X32407Y-31914D01*
X32440Y-32013D01*
X32659Y-32093D01*
X32894Y-32082D01*
X33060Y-32013D01*
X33093Y-31914D01*
X33093Y-34591D01*
X32717Y-34967D01*
X32630Y-35097D01*
X32600Y-35250D01*
X32600Y-36584D01*
X32452Y-36732D01*
X32452Y-36109D01*
X32452Y-35891D01*
X32368Y-35689D01*
X32214Y-35535D01*
X32129Y-35500D01*
X32214Y-35465D01*
X32368Y-35311D01*
X32452Y-35109D01*
X32452Y-34891D01*
X32368Y-34689D01*
X32214Y-34535D01*
X32129Y-34500D01*
X32214Y-34465D01*
X32368Y-34311D01*
X32452Y-34109D01*
X32452Y-33891D01*
X32368Y-33689D01*
X32214Y-33535D01*
X32129Y-33500D01*
X32214Y-33465D01*
X32368Y-33311D01*
X32452Y-33109D01*
X32452Y-32891D01*
X32368Y-32689D01*
X32214Y-32535D01*
X32012Y-32451D01*
X31794Y-32451D01*
X31488Y-32451D01*
X31286Y-32535D01*
X31132Y-32689D01*
X31048Y-32891D01*
X31048Y-33109D01*
X31132Y-33311D01*
X31286Y-33465D01*
X31370Y-33500D01*
X31286Y-33535D01*
X31132Y-33689D01*
X31048Y-33891D01*
X31048Y-34109D01*
X31132Y-34311D01*
X31286Y-34465D01*
X31370Y-34500D01*
X31286Y-34535D01*
X31132Y-34689D01*
X31048Y-34891D01*
X31048Y-35109D01*
X31132Y-35311D01*
X31286Y-35465D01*
X31370Y-35500D01*
X31286Y-35535D01*
X31132Y-35689D01*
X31048Y-35891D01*
X31048Y-36109D01*
X31132Y-36311D01*
X31286Y-36465D01*
X31488Y-36549D01*
X31706Y-36549D01*
X32012Y-36549D01*
X32214Y-36465D01*
X32368Y-36311D01*
X32452Y-36109D01*
X32452Y-36732D01*
X31334Y-37850D01*
X28742Y-37850D01*
X28736Y-37834D01*
X28666Y-37764D01*
X28575Y-37726D01*
X28476Y-37726D01*
X27926Y-37726D01*
X27834Y-37764D01*
X27764Y-37834D01*
X27726Y-37925D01*
X27726Y-38024D01*
X27726Y-38574D01*
X27764Y-38666D01*
X27834Y-38736D01*
X27925Y-38774D01*
X28024Y-38774D01*
X28574Y-38774D01*
X28666Y-38736D01*
X28736Y-38666D01*
X28742Y-38650D01*
X31500Y-38650D01*
X31653Y-38620D01*
X31783Y-38533D01*
X33283Y-37033D01*
X33370Y-36904D01*
X33370Y-36903D01*
X33400Y-36750D01*
X33400Y-35415D01*
X34331Y-34483D01*
X34370Y-34500D01*
X34286Y-34535D01*
X34132Y-34689D01*
X34048Y-34891D01*
X34048Y-35109D01*
X34132Y-35311D01*
X34262Y-35441D01*
X34251Y-35441D01*
X34159Y-35479D01*
X34089Y-35549D01*
X34051Y-35640D01*
X34051Y-35739D01*
X34051Y-36359D01*
X34089Y-36451D01*
X34159Y-36521D01*
X34250Y-36559D01*
X34349Y-36559D01*
X35249Y-36559D01*
X35341Y-36521D01*
X35411Y-36451D01*
X35449Y-36360D01*
X35449Y-36261D01*
X35449Y-35641D01*
X35411Y-35549D01*
X35341Y-35479D01*
X35250Y-35441D01*
X35238Y-35441D01*
X35279Y-35400D01*
X37221Y-35400D01*
X37286Y-35465D01*
X37365Y-35498D01*
X37200Y-35618D01*
X37085Y-35804D01*
X37068Y-35863D01*
X37115Y-35950D01*
X37650Y-35950D01*
X37700Y-35950D01*
X37800Y-35950D01*
X37850Y-35950D01*
X38385Y-35950D01*
X38432Y-35863D01*
X38415Y-35804D01*
X38300Y-35618D01*
X38134Y-35498D01*
X38214Y-35465D01*
X38368Y-35311D01*
X38452Y-35109D01*
X38452Y-34891D01*
X38368Y-34689D01*
X38214Y-34535D01*
X38129Y-34500D01*
X38214Y-34465D01*
X38279Y-34400D01*
X38334Y-34400D01*
X38600Y-34666D01*
X38600Y-37584D01*
X38432Y-37752D01*
X38432Y-36137D01*
X38385Y-36050D01*
X37800Y-36050D01*
X37800Y-36560D01*
X37910Y-36560D01*
X38123Y-36510D01*
X38300Y-36382D01*
X38415Y-36196D01*
X38432Y-36137D01*
X38432Y-37752D01*
X38334Y-37850D01*
X38281Y-37850D01*
X38375Y-37625D01*
X38375Y-37376D01*
X38280Y-37146D01*
X38104Y-36970D01*
X37875Y-36875D01*
X37700Y-36875D01*
X37700Y-36560D01*
X37700Y-36050D01*
X37115Y-36050D01*
X37068Y-36137D01*
X37085Y-36196D01*
X37200Y-36382D01*
X37377Y-36510D01*
X37590Y-36560D01*
X37700Y-36560D01*
X37700Y-36875D01*
X37626Y-36875D01*
X37396Y-36970D01*
X37220Y-37146D01*
X37125Y-37375D01*
X37125Y-37624D01*
X37220Y-37854D01*
X37350Y-37984D01*
X37350Y-38250D01*
X37350Y-38516D01*
X37220Y-38646D01*
X37125Y-38875D01*
X37125Y-39124D01*
X37220Y-39354D01*
X37396Y-39530D01*
X37625Y-39625D01*
X37874Y-39625D01*
X38104Y-39530D01*
X38280Y-39354D01*
X38375Y-39125D01*
X38375Y-38876D01*
X38281Y-38650D01*
X38500Y-38650D01*
X38653Y-38620D01*
X38783Y-38533D01*
X39283Y-38033D01*
X39370Y-37904D01*
X39370Y-37903D01*
X39400Y-37750D01*
X39400Y-34500D01*
X39370Y-34347D01*
X39370Y-34346D01*
X39283Y-34217D01*
X39111Y-34045D01*
X39111Y-31931D01*
X38750Y-31571D01*
X38389Y-31931D01*
X38425Y-32033D01*
X38653Y-32117D01*
X38896Y-32107D01*
X39075Y-32033D01*
X39111Y-31931D01*
X39111Y-34045D01*
X38783Y-33717D01*
X38653Y-33630D01*
X38500Y-33600D01*
X38279Y-33600D01*
X38238Y-33559D01*
X38249Y-33559D01*
X38341Y-33521D01*
X38411Y-33451D01*
X38449Y-33360D01*
X38449Y-33261D01*
X38449Y-32641D01*
X38411Y-32549D01*
X38341Y-32479D01*
X38250Y-32441D01*
X38151Y-32441D01*
X38150Y-32441D01*
X38150Y-31662D01*
X38217Y-31825D01*
X38319Y-31861D01*
X38679Y-31500D01*
X38319Y-31139D01*
X38217Y-31175D01*
X38150Y-31356D01*
X38150Y-30984D01*
X38280Y-30854D01*
X38375Y-30625D01*
X38375Y-30376D01*
X38280Y-30146D01*
X38104Y-29970D01*
X37875Y-29875D01*
X37626Y-29875D01*
X37396Y-29970D01*
X37220Y-30146D01*
X37125Y-30375D01*
X37125Y-30624D01*
X37220Y-30854D01*
X37350Y-30984D01*
X37350Y-32441D01*
X37251Y-32441D01*
X37159Y-32479D01*
X37089Y-32549D01*
X37051Y-32640D01*
X37051Y-32739D01*
X37051Y-33359D01*
X37089Y-33451D01*
X37159Y-33521D01*
X37250Y-33559D01*
X37262Y-33559D01*
X37132Y-33689D01*
X37048Y-33891D01*
X37048Y-34109D01*
X37132Y-34311D01*
X37286Y-34465D01*
X37370Y-34500D01*
X37286Y-34535D01*
X37221Y-34600D01*
X35279Y-34600D01*
X35214Y-34535D01*
X35129Y-34500D01*
X35214Y-34465D01*
X35368Y-34311D01*
X35452Y-34109D01*
X35452Y-33891D01*
X35368Y-33689D01*
X35214Y-33535D01*
X35129Y-33500D01*
X35214Y-33465D01*
X35368Y-33311D01*
X35452Y-33109D01*
X35452Y-32891D01*
X35368Y-32689D01*
X35214Y-32535D01*
X35012Y-32451D01*
X34794Y-32451D01*
X34488Y-32451D01*
X34406Y-32484D01*
X34225Y-32303D01*
X34225Y-31872D01*
X34258Y-31839D01*
X34349Y-31619D01*
X34349Y-31381D01*
X34258Y-31161D01*
X34225Y-31128D01*
X34225Y-30067D01*
X34241Y-30061D01*
X34311Y-29991D01*
X34349Y-29900D01*
X34349Y-29801D01*
X34349Y-29101D01*
X34311Y-29009D01*
X34241Y-28939D01*
X34225Y-28932D01*
X34225Y-28475D01*
X39000Y-28475D01*
X39275Y-28475D01*
X39275Y-28897D01*
X39234Y-28914D01*
X39164Y-28984D01*
X39154Y-29005D01*
X39129Y-28980D01*
X39092Y-29016D01*
X39075Y-28967D01*
X38847Y-28883D01*
X38604Y-28893D01*
X38425Y-28967D01*
X38389Y-29069D01*
X38715Y-29394D01*
X38750Y-29429D01*
X38821Y-29500D01*
X38750Y-29571D01*
X38679Y-29641D01*
X38679Y-29500D01*
X38319Y-29139D01*
X38217Y-29175D01*
X38133Y-29403D01*
X38143Y-29646D01*
X38217Y-29825D01*
X38319Y-29861D01*
X38679Y-29500D01*
X38679Y-29641D01*
X38389Y-29931D01*
X38425Y-30033D01*
X38653Y-30117D01*
X38896Y-30107D01*
X39075Y-30033D01*
X39092Y-29983D01*
X39111Y-30002D01*
X39129Y-30020D01*
X39154Y-29994D01*
X39164Y-30016D01*
X39234Y-30086D01*
X39275Y-30103D01*
X39275Y-31091D01*
X39220Y-31146D01*
X39217Y-31151D01*
X39181Y-31139D01*
X39111Y-31209D01*
X39111Y-31069D01*
X39075Y-30967D01*
X38847Y-30883D01*
X38604Y-30893D01*
X38425Y-30967D01*
X38389Y-31069D01*
X38750Y-31429D01*
X39111Y-31069D01*
X39111Y-31209D01*
X38821Y-31500D01*
X39181Y-31861D01*
X39217Y-31848D01*
X39220Y-31854D01*
X39275Y-31909D01*
X39275Y-32500D01*
X39311Y-32682D01*
X39414Y-32836D01*
X39914Y-33336D01*
X40068Y-33439D01*
X40250Y-33475D01*
X40310Y-33475D01*
X40370Y-33500D01*
X40286Y-33535D01*
X40132Y-33689D01*
X40048Y-33891D01*
X40048Y-34109D01*
X40132Y-34311D01*
X40286Y-34465D01*
X40370Y-34500D01*
X40286Y-34535D01*
X40132Y-34689D01*
X40048Y-34891D01*
X40048Y-35109D01*
X40132Y-35311D01*
X40286Y-35465D01*
X40370Y-35500D01*
X40286Y-35535D01*
X40132Y-35689D01*
X40048Y-35891D01*
X40048Y-36109D01*
X40132Y-36311D01*
X40286Y-36465D01*
X40488Y-36549D01*
X40706Y-36549D01*
X41012Y-36549D01*
X41214Y-36465D01*
X41368Y-36311D01*
X41452Y-36109D01*
X41452Y-35891D01*
X41368Y-35689D01*
X41214Y-35535D01*
X41129Y-35500D01*
X41214Y-35465D01*
X41368Y-35311D01*
X41452Y-35109D01*
X41452Y-34891D01*
X41368Y-34689D01*
X41214Y-34535D01*
X41129Y-34500D01*
X41214Y-34465D01*
X41368Y-34311D01*
X41452Y-34109D01*
X41452Y-33891D01*
X41368Y-33689D01*
X41214Y-33535D01*
X41129Y-33500D01*
X41214Y-33465D01*
X41368Y-33311D01*
X41452Y-33109D01*
X41452Y-32891D01*
X41368Y-32689D01*
X41214Y-32535D01*
X41012Y-32451D01*
X40794Y-32451D01*
X40488Y-32451D01*
X40406Y-32484D01*
X40225Y-32303D01*
X40225Y-31909D01*
X40280Y-31854D01*
X40375Y-31625D01*
X40375Y-31376D01*
X40280Y-31146D01*
X40225Y-31091D01*
X40225Y-30102D01*
X40266Y-30086D01*
X40336Y-30016D01*
X40374Y-29925D01*
X40374Y-29826D01*
X40374Y-29076D01*
X40336Y-28984D01*
X40266Y-28914D01*
X40225Y-28896D01*
X40225Y-28475D01*
X40803Y-28475D01*
X43525Y-31196D01*
X43525Y-38553D01*
X41053Y-41025D01*
X36196Y-41025D01*
X35225Y-40053D01*
X35225Y-39409D01*
X35280Y-39354D01*
X35375Y-39125D01*
X35375Y-38876D01*
X35367Y-38856D01*
X35367Y-37597D01*
X35357Y-37354D01*
X35283Y-37175D01*
X35181Y-37139D01*
X35111Y-37209D01*
X35111Y-37069D01*
X35075Y-36967D01*
X34847Y-36883D01*
X34604Y-36893D01*
X34425Y-36967D01*
X34389Y-37069D01*
X34750Y-37429D01*
X35111Y-37069D01*
X35111Y-37209D01*
X34821Y-37500D01*
X35181Y-37861D01*
X35283Y-37825D01*
X35367Y-37597D01*
X35367Y-38856D01*
X35280Y-38646D01*
X35111Y-38477D01*
X35111Y-37931D01*
X34750Y-37571D01*
X34679Y-37641D01*
X34679Y-37500D01*
X34319Y-37139D01*
X34217Y-37175D01*
X34133Y-37403D01*
X34143Y-37646D01*
X34217Y-37825D01*
X34319Y-37861D01*
X34679Y-37500D01*
X34679Y-37641D01*
X34389Y-37931D01*
X34425Y-38033D01*
X34653Y-38117D01*
X34896Y-38107D01*
X35075Y-38033D01*
X35111Y-37931D01*
X35111Y-38477D01*
X35104Y-38470D01*
X34875Y-38375D01*
X34626Y-38375D01*
X34396Y-38470D01*
X34220Y-38646D01*
X34125Y-38875D01*
X34125Y-39124D01*
X34220Y-39354D01*
X34275Y-39409D01*
X34275Y-40250D01*
X34311Y-40432D01*
X34414Y-40586D01*
X35661Y-41832D01*
X35664Y-41836D01*
X35818Y-41939D01*
X35999Y-41975D01*
X35999Y-41974D01*
X36000Y-41975D01*
X41250Y-41975D01*
X41432Y-41939D01*
X41586Y-41836D01*
X44336Y-39086D01*
X44439Y-38932D01*
X44475Y-38750D01*
X44475Y-51925D01*
X43074Y-51925D01*
X43074Y-49738D01*
X42873Y-49251D01*
X42501Y-48879D01*
X42015Y-48677D01*
X41488Y-48676D01*
X41001Y-48877D01*
X40629Y-49249D01*
X40427Y-49735D01*
X40426Y-50262D01*
X40627Y-50749D01*
X40999Y-51121D01*
X41485Y-51323D01*
X42012Y-51324D01*
X42499Y-51123D01*
X42871Y-50751D01*
X43073Y-50265D01*
X43074Y-49738D01*
X43074Y-51925D01*
X38925Y-51925D01*
X38925Y-50635D01*
X38925Y-50366D01*
X38822Y-50118D01*
X38704Y-49999D01*
X38822Y-49883D01*
X38925Y-49635D01*
X38925Y-49366D01*
X38822Y-49118D01*
X38633Y-48928D01*
X38385Y-48825D01*
X38116Y-48825D01*
X37868Y-48928D01*
X37749Y-49045D01*
X37633Y-48928D01*
X37385Y-48825D01*
X37116Y-48825D01*
X36868Y-48928D01*
X36749Y-49045D01*
X36633Y-48928D01*
X36385Y-48825D01*
X36116Y-48825D01*
X35868Y-48928D01*
X35749Y-49045D01*
X35633Y-48928D01*
X35385Y-48825D01*
X35116Y-48825D01*
X34868Y-48928D01*
X34749Y-49045D01*
X34633Y-48928D01*
X34385Y-48825D01*
X34116Y-48825D01*
X33868Y-48928D01*
X33738Y-49057D01*
X33738Y-47100D01*
X33738Y-42760D01*
X25775Y-42760D01*
X25775Y-38355D01*
X25775Y-38146D01*
X25695Y-37953D01*
X25548Y-37805D01*
X25355Y-37725D01*
X25146Y-37725D01*
X24953Y-37805D01*
X24907Y-37850D01*
X22624Y-37850D01*
X22624Y-37826D01*
X22586Y-37734D01*
X22516Y-37664D01*
X22425Y-37626D01*
X22326Y-37626D01*
X21576Y-37626D01*
X21484Y-37664D01*
X21414Y-37734D01*
X21376Y-37825D01*
X21376Y-37924D01*
X21376Y-38674D01*
X21414Y-38766D01*
X21484Y-38836D01*
X21505Y-38845D01*
X21480Y-38871D01*
X21516Y-38907D01*
X21467Y-38925D01*
X21383Y-39153D01*
X21393Y-39396D01*
X21467Y-39575D01*
X21569Y-39611D01*
X21894Y-39285D01*
X21929Y-39250D01*
X22000Y-39179D01*
X22071Y-39250D01*
X22106Y-39285D01*
X22431Y-39611D01*
X22533Y-39575D01*
X22617Y-39347D01*
X22607Y-39104D01*
X22533Y-38925D01*
X22483Y-38907D01*
X22520Y-38871D01*
X22494Y-38845D01*
X22516Y-38836D01*
X22586Y-38766D01*
X22624Y-38675D01*
X22624Y-38650D01*
X24907Y-38650D01*
X24952Y-38695D01*
X25145Y-38775D01*
X25354Y-38775D01*
X25547Y-38695D01*
X25695Y-38548D01*
X25775Y-38355D01*
X25775Y-42760D01*
X22617Y-42760D01*
X22361Y-42760D01*
X22361Y-39681D01*
X22000Y-39321D01*
X21929Y-39391D01*
X21639Y-39681D01*
X21675Y-39783D01*
X21903Y-39867D01*
X22146Y-39857D01*
X22325Y-39783D01*
X22361Y-39681D01*
X22361Y-42760D01*
X22262Y-42760D01*
X22262Y-47100D01*
X33738Y-47100D01*
X33738Y-49057D01*
X33678Y-49117D01*
X33575Y-49365D01*
X33575Y-49634D01*
X33674Y-49873D01*
X33614Y-49934D01*
X33576Y-50025D01*
X33576Y-50124D01*
X33576Y-50974D01*
X33614Y-51066D01*
X33684Y-51136D01*
X33775Y-51174D01*
X33874Y-51174D01*
X34724Y-51174D01*
X34816Y-51136D01*
X34876Y-51075D01*
X35115Y-51175D01*
X35384Y-51175D01*
X35632Y-51072D01*
X35750Y-50954D01*
X35867Y-51072D01*
X36115Y-51175D01*
X36384Y-51175D01*
X36632Y-51072D01*
X36750Y-50954D01*
X36867Y-51072D01*
X37115Y-51175D01*
X37384Y-51175D01*
X37632Y-51072D01*
X37750Y-50954D01*
X37867Y-51072D01*
X38115Y-51175D01*
X38384Y-51175D01*
X38632Y-51072D01*
X38822Y-50883D01*
X38925Y-50635D01*
X38925Y-51925D01*
X32074Y-51925D01*
X32074Y-49738D01*
X31873Y-49251D01*
X31501Y-48879D01*
X31015Y-48677D01*
X30488Y-48676D01*
X30001Y-48877D01*
X29629Y-49249D01*
X29427Y-49735D01*
X29426Y-50262D01*
X29627Y-50749D01*
X29999Y-51121D01*
X30485Y-51323D01*
X31012Y-51324D01*
X31499Y-51123D01*
X31871Y-50751D01*
X32073Y-50265D01*
X32074Y-49738D01*
X32074Y-51925D01*
X21384Y-51925D01*
X21094Y-51635D01*
X21675Y-51876D01*
X22322Y-51877D01*
X22920Y-51630D01*
X23378Y-51173D01*
X23626Y-50575D01*
X23627Y-49928D01*
X23380Y-49330D01*
X22923Y-48872D01*
X22325Y-48624D01*
X21678Y-48623D01*
X21080Y-48870D01*
X20622Y-49327D01*
X20374Y-49925D01*
X20373Y-50572D01*
X20613Y-51153D01*
X20325Y-50865D01*
X20325Y-36120D01*
X26603Y-36120D01*
X26603Y-34260D01*
X20325Y-34260D01*
X20325Y-27325D01*
X26500Y-27325D01*
X26624Y-27300D01*
X26730Y-27230D01*
X26800Y-27124D01*
X26825Y-27000D01*
X26825Y-20325D01*
X50865Y-20325D01*
X50977Y-20437D01*
X50825Y-20374D01*
X50178Y-20373D01*
X49580Y-20620D01*
X49122Y-21077D01*
X48874Y-21675D01*
X48873Y-22322D01*
X49120Y-22920D01*
X49577Y-23378D01*
X50175Y-23626D01*
X50822Y-23627D01*
X51420Y-23380D01*
X51878Y-22923D01*
X52126Y-22325D01*
X52127Y-21678D01*
X52062Y-21522D01*
X52175Y-21635D01*
X52175Y-50865D01*
M02*
