M48
;DRILL file {Pcbnew (2012-01-19 BZR 3256)-stable} date 19/03/2013 14:37:55
;FORMAT={-:-/ absolute / metric / decimal}
FMAT,2
METRIC,TZ
T1C0.635
T2C0.813
T3C1.016
T4C3.000
%
G90
G05
M71
T1
X76.200Y73.025
X76.200Y75.565
X81.915Y73.025
X81.915Y75.565
X81.915Y93.345
X81.915Y98.425
X82.550Y66.040
X94.615Y107.950
X94.615Y112.395
X97.155Y107.950
X97.155Y112.395
X99.060Y120.650
X102.235Y120.650
X105.410Y120.650
X106.680Y65.405
X116.840Y58.420
X118.745Y69.850
T2
X55.880Y73.025
X55.880Y75.565
X55.880Y78.105
X55.880Y93.345
X55.880Y98.425
X55.880Y104.775
X55.880Y112.395
X62.230Y104.775
X62.230Y112.395
X71.120Y75.565
X71.120Y78.105
X71.120Y93.345
X71.120Y98.425
X85.090Y92.075
X85.090Y99.695
X88.900Y92.075
X88.900Y99.695
X92.075Y86.995
X92.075Y97.155
X92.075Y99.695
X92.075Y102.235
X92.075Y104.775
X94.615Y93.345
X99.695Y86.995
X99.695Y97.155
X99.695Y99.695
X99.695Y102.235
X99.695Y104.775
X102.235Y93.345
X107.315Y93.345
X107.315Y100.965
X114.300Y67.310
X116.205Y102.235
X116.205Y109.855
X118.110Y119.380
X121.920Y67.310
X123.825Y102.235
X123.825Y109.855
X125.730Y119.380
T3
X55.880Y115.570
X55.880Y118.110
X62.230Y115.570
X62.230Y118.110
X86.995Y55.880
X86.995Y58.420
X86.995Y125.730
X86.995Y128.270
X89.535Y55.880
X89.535Y58.420
X89.535Y125.730
X89.535Y128.270
X92.075Y55.880
X92.075Y58.420
X92.075Y125.730
X92.075Y128.270
X94.615Y55.880
X94.615Y58.420
X94.615Y125.730
X94.615Y128.270
X97.155Y55.880
X97.155Y58.420
X97.155Y125.730
X97.155Y128.270
X113.665Y95.885
X113.665Y99.060
X113.665Y113.030
X113.665Y116.205
X114.935Y128.270
X117.475Y128.270
X123.825Y95.885
X123.825Y99.060
X123.825Y113.030
X123.825Y116.205
X127.635Y104.775
X127.635Y107.315
X128.905Y65.405
X128.905Y67.945
X128.905Y71.755
X128.905Y74.295
X128.905Y79.375
X128.905Y81.915
X128.905Y84.455
X128.905Y86.995
T4
X57.150Y127.000
X78.105Y57.150
X78.105Y127.000
X106.045Y57.150
X106.045Y127.000
X127.000Y57.150
X127.635Y127.000
T0
M30
