G04 (created by PCBNEW-RS274X (2012-01-19 BZR 3256)-stable) date 19/03/2013 14:37:20*
G01*
G70*
G90*
%MOIN*%
G04 Gerber Fmt 3.4, Leading zero omitted, Abs format*
%FSLAX34Y34*%
G04 APERTURE LIST*
%ADD10C,0.006000*%
%ADD11C,0.012000*%
%ADD12C,0.215000*%
%ADD13R,0.085000X0.085000*%
%ADD14C,0.085000*%
%ADD15C,0.075000*%
%ADD16R,0.075000X0.075000*%
%ADD17C,0.070000*%
%ADD18R,0.090000X0.062000*%
%ADD19O,0.090000X0.062000*%
%ADD20C,0.250000*%
%ADD21C,0.030000*%
%ADD22C,0.010000*%
G04 APERTURE END LIST*
G54D10*
X04000Y-04000D02*
X113000Y-04000D01*
X113000Y-78670D01*
X04000Y-78670D01*
X04000Y-04000D01*
X04700Y-04700D02*
X112300Y-04700D01*
X112300Y-77970D01*
X04700Y-77970D01*
X04700Y-04700D01*
X25800Y-04000D02*
X25800Y-04700D01*
X15043Y-04552D02*
X14757Y-04552D01*
X14900Y-04552D02*
X14900Y-04052D01*
X14852Y-04124D01*
X14805Y-04171D01*
X14757Y-04195D01*
X25800Y-78670D02*
X25800Y-77970D01*
X15043Y-78522D02*
X14757Y-78522D01*
X14900Y-78522D02*
X14900Y-78022D01*
X14852Y-78094D01*
X14805Y-78141D01*
X14757Y-78165D01*
X47600Y-04000D02*
X47600Y-04700D01*
X36557Y-04100D02*
X36581Y-04076D01*
X36629Y-04052D01*
X36748Y-04052D01*
X36795Y-04076D01*
X36819Y-04100D01*
X36843Y-04148D01*
X36843Y-04195D01*
X36819Y-04267D01*
X36533Y-04552D01*
X36843Y-04552D01*
X47600Y-78670D02*
X47600Y-77970D01*
X36557Y-78070D02*
X36581Y-78046D01*
X36629Y-78022D01*
X36748Y-78022D01*
X36795Y-78046D01*
X36819Y-78070D01*
X36843Y-78118D01*
X36843Y-78165D01*
X36819Y-78237D01*
X36533Y-78522D01*
X36843Y-78522D01*
X69400Y-04000D02*
X69400Y-04700D01*
X58333Y-04052D02*
X58643Y-04052D01*
X58476Y-04243D01*
X58548Y-04243D01*
X58595Y-04267D01*
X58619Y-04290D01*
X58643Y-04338D01*
X58643Y-04457D01*
X58619Y-04505D01*
X58595Y-04529D01*
X58548Y-04552D01*
X58405Y-04552D01*
X58357Y-04529D01*
X58333Y-04505D01*
X69400Y-78670D02*
X69400Y-77970D01*
X58333Y-78022D02*
X58643Y-78022D01*
X58476Y-78213D01*
X58548Y-78213D01*
X58595Y-78237D01*
X58619Y-78260D01*
X58643Y-78308D01*
X58643Y-78427D01*
X58619Y-78475D01*
X58595Y-78499D01*
X58548Y-78522D01*
X58405Y-78522D01*
X58357Y-78499D01*
X58333Y-78475D01*
X91200Y-04000D02*
X91200Y-04700D01*
X80395Y-04219D02*
X80395Y-04552D01*
X80276Y-04029D02*
X80157Y-04386D01*
X80467Y-04386D01*
X91200Y-78670D02*
X91200Y-77970D01*
X80395Y-78189D02*
X80395Y-78522D01*
X80276Y-77999D02*
X80157Y-78356D01*
X80467Y-78356D01*
X102219Y-04052D02*
X101981Y-04052D01*
X101957Y-04290D01*
X101981Y-04267D01*
X102029Y-04243D01*
X102148Y-04243D01*
X102195Y-04267D01*
X102219Y-04290D01*
X102243Y-04338D01*
X102243Y-04457D01*
X102219Y-04505D01*
X102195Y-04529D01*
X102148Y-04552D01*
X102029Y-04552D01*
X101981Y-04529D01*
X101957Y-04505D01*
X102219Y-78022D02*
X101981Y-78022D01*
X101957Y-78260D01*
X101981Y-78237D01*
X102029Y-78213D01*
X102148Y-78213D01*
X102195Y-78237D01*
X102219Y-78260D01*
X102243Y-78308D01*
X102243Y-78427D01*
X102219Y-78475D01*
X102195Y-78499D01*
X102148Y-78522D01*
X102029Y-78522D01*
X101981Y-78499D01*
X101957Y-78475D01*
X04000Y-28890D02*
X04700Y-28890D01*
X04231Y-16510D02*
X04469Y-16510D01*
X04184Y-16652D02*
X04350Y-16152D01*
X04517Y-16652D01*
X113000Y-28890D02*
X112300Y-28890D01*
X112531Y-16510D02*
X112769Y-16510D01*
X112484Y-16652D02*
X112650Y-16152D01*
X112817Y-16652D01*
X04000Y-53780D02*
X04700Y-53780D01*
X04386Y-41280D02*
X04457Y-41304D01*
X04481Y-41328D01*
X04505Y-41376D01*
X04505Y-41447D01*
X04481Y-41495D01*
X04457Y-41519D01*
X04410Y-41542D01*
X04219Y-41542D01*
X04219Y-41042D01*
X04386Y-41042D01*
X04433Y-41066D01*
X04457Y-41090D01*
X04481Y-41138D01*
X04481Y-41185D01*
X04457Y-41233D01*
X04433Y-41257D01*
X04386Y-41280D01*
X04219Y-41280D01*
X113000Y-53780D02*
X112300Y-53780D01*
X112686Y-41280D02*
X112757Y-41304D01*
X112781Y-41328D01*
X112805Y-41376D01*
X112805Y-41447D01*
X112781Y-41495D01*
X112757Y-41519D01*
X112710Y-41542D01*
X112519Y-41542D01*
X112519Y-41042D01*
X112686Y-41042D01*
X112733Y-41066D01*
X112757Y-41090D01*
X112781Y-41138D01*
X112781Y-41185D01*
X112757Y-41233D01*
X112733Y-41257D01*
X112686Y-41280D01*
X112519Y-41280D01*
X04505Y-66385D02*
X04481Y-66409D01*
X04410Y-66432D01*
X04362Y-66432D01*
X04290Y-66409D01*
X04243Y-66361D01*
X04219Y-66313D01*
X04195Y-66218D01*
X04195Y-66147D01*
X04219Y-66051D01*
X04243Y-66004D01*
X04290Y-65956D01*
X04362Y-65932D01*
X04410Y-65932D01*
X04481Y-65956D01*
X04505Y-65980D01*
X112805Y-66385D02*
X112781Y-66409D01*
X112710Y-66432D01*
X112662Y-66432D01*
X112590Y-66409D01*
X112543Y-66361D01*
X112519Y-66313D01*
X112495Y-66218D01*
X112495Y-66147D01*
X112519Y-66051D01*
X112543Y-66004D01*
X112590Y-65956D01*
X112662Y-65932D01*
X112710Y-65932D01*
X112781Y-65956D01*
X112805Y-65980D01*
G54D11*
X79443Y-76413D02*
X79443Y-75813D01*
X79586Y-75813D01*
X79671Y-75841D01*
X79729Y-75899D01*
X79757Y-75956D01*
X79786Y-76070D01*
X79786Y-76156D01*
X79757Y-76270D01*
X79729Y-76327D01*
X79671Y-76384D01*
X79586Y-76413D01*
X79443Y-76413D01*
X80300Y-76413D02*
X80300Y-76099D01*
X80271Y-76041D01*
X80214Y-76013D01*
X80100Y-76013D01*
X80043Y-76041D01*
X80300Y-76384D02*
X80243Y-76413D01*
X80100Y-76413D01*
X80043Y-76384D01*
X80014Y-76327D01*
X80014Y-76270D01*
X80043Y-76213D01*
X80100Y-76184D01*
X80243Y-76184D01*
X80300Y-76156D01*
X80500Y-76013D02*
X80729Y-76013D01*
X80586Y-75813D02*
X80586Y-76327D01*
X80614Y-76384D01*
X80672Y-76413D01*
X80729Y-76413D01*
X81157Y-76384D02*
X81100Y-76413D01*
X80986Y-76413D01*
X80929Y-76384D01*
X80900Y-76327D01*
X80900Y-76099D01*
X80929Y-76041D01*
X80986Y-76013D01*
X81100Y-76013D01*
X81157Y-76041D01*
X81186Y-76099D01*
X81186Y-76156D01*
X80900Y-76213D01*
X81443Y-76356D02*
X81471Y-76384D01*
X81443Y-76413D01*
X81414Y-76384D01*
X81443Y-76356D01*
X81443Y-76413D01*
X81443Y-76041D02*
X81471Y-76070D01*
X81443Y-76099D01*
X81414Y-76070D01*
X81443Y-76041D01*
X81443Y-76099D01*
X82500Y-76413D02*
X82157Y-76413D01*
X82329Y-76413D02*
X82329Y-75813D01*
X82272Y-75899D01*
X82214Y-75956D01*
X82157Y-75984D01*
X82785Y-76413D02*
X82900Y-76413D01*
X82957Y-76384D01*
X82985Y-76356D01*
X83043Y-76270D01*
X83071Y-76156D01*
X83071Y-75927D01*
X83043Y-75870D01*
X83014Y-75841D01*
X82957Y-75813D01*
X82843Y-75813D01*
X82785Y-75841D01*
X82757Y-75870D01*
X82728Y-75927D01*
X82728Y-76070D01*
X82757Y-76127D01*
X82785Y-76156D01*
X82843Y-76184D01*
X82957Y-76184D01*
X83014Y-76156D01*
X83043Y-76127D01*
X83071Y-76070D01*
X83785Y-76413D02*
X83785Y-76013D01*
X83785Y-76070D02*
X83813Y-76041D01*
X83871Y-76013D01*
X83956Y-76013D01*
X84013Y-76041D01*
X84042Y-76099D01*
X84042Y-76413D01*
X84042Y-76099D02*
X84071Y-76041D01*
X84128Y-76013D01*
X84213Y-76013D01*
X84271Y-76041D01*
X84299Y-76099D01*
X84299Y-76413D01*
X84842Y-76413D02*
X84842Y-76099D01*
X84813Y-76041D01*
X84756Y-76013D01*
X84642Y-76013D01*
X84585Y-76041D01*
X84842Y-76384D02*
X84785Y-76413D01*
X84642Y-76413D01*
X84585Y-76384D01*
X84556Y-76327D01*
X84556Y-76270D01*
X84585Y-76213D01*
X84642Y-76184D01*
X84785Y-76184D01*
X84842Y-76156D01*
X85128Y-76413D02*
X85128Y-76013D01*
X85128Y-76127D02*
X85156Y-76070D01*
X85185Y-76041D01*
X85242Y-76013D01*
X85299Y-76013D01*
X85927Y-75870D02*
X85956Y-75841D01*
X86013Y-75813D01*
X86156Y-75813D01*
X86213Y-75841D01*
X86242Y-75870D01*
X86270Y-75927D01*
X86270Y-75984D01*
X86242Y-76070D01*
X85899Y-76413D01*
X86270Y-76413D01*
X86641Y-75813D02*
X86698Y-75813D01*
X86755Y-75841D01*
X86784Y-75870D01*
X86813Y-75927D01*
X86841Y-76041D01*
X86841Y-76184D01*
X86813Y-76299D01*
X86784Y-76356D01*
X86755Y-76384D01*
X86698Y-76413D01*
X86641Y-76413D01*
X86584Y-76384D01*
X86555Y-76356D01*
X86527Y-76299D01*
X86498Y-76184D01*
X86498Y-76041D01*
X86527Y-75927D01*
X86555Y-75870D01*
X86584Y-75841D01*
X86641Y-75813D01*
X87412Y-76413D02*
X87069Y-76413D01*
X87241Y-76413D02*
X87241Y-75813D01*
X87184Y-75899D01*
X87126Y-75956D01*
X87069Y-75984D01*
X87612Y-75813D02*
X87983Y-75813D01*
X87783Y-76041D01*
X87869Y-76041D01*
X87926Y-76070D01*
X87955Y-76099D01*
X87983Y-76156D01*
X87983Y-76299D01*
X87955Y-76356D01*
X87926Y-76384D01*
X87869Y-76413D01*
X87697Y-76413D01*
X87640Y-76384D01*
X87612Y-76356D01*
G54D10*
X71043Y-77613D02*
X71043Y-77013D01*
X71386Y-77613D02*
X71129Y-77270D01*
X71386Y-77013D02*
X71043Y-77356D01*
X71643Y-77613D02*
X71643Y-77213D01*
X71643Y-77013D02*
X71614Y-77041D01*
X71643Y-77070D01*
X71671Y-77041D01*
X71643Y-77013D01*
X71643Y-77070D01*
X72272Y-77556D02*
X72243Y-77584D01*
X72157Y-77613D01*
X72100Y-77613D01*
X72015Y-77584D01*
X71957Y-77527D01*
X71929Y-77470D01*
X71900Y-77356D01*
X71900Y-77270D01*
X71929Y-77156D01*
X71957Y-77099D01*
X72015Y-77041D01*
X72100Y-77013D01*
X72157Y-77013D01*
X72243Y-77041D01*
X72272Y-77070D01*
X72786Y-77613D02*
X72786Y-77299D01*
X72757Y-77241D01*
X72700Y-77213D01*
X72586Y-77213D01*
X72529Y-77241D01*
X72786Y-77584D02*
X72729Y-77613D01*
X72586Y-77613D01*
X72529Y-77584D01*
X72500Y-77527D01*
X72500Y-77470D01*
X72529Y-77413D01*
X72586Y-77384D01*
X72729Y-77384D01*
X72786Y-77356D01*
X73329Y-77613D02*
X73329Y-77013D01*
X73329Y-77584D02*
X73272Y-77613D01*
X73158Y-77613D01*
X73100Y-77584D01*
X73072Y-77556D01*
X73043Y-77499D01*
X73043Y-77327D01*
X73072Y-77270D01*
X73100Y-77241D01*
X73158Y-77213D01*
X73272Y-77213D01*
X73329Y-77241D01*
X74072Y-77299D02*
X74272Y-77299D01*
X74358Y-77613D02*
X74072Y-77613D01*
X74072Y-77013D01*
X74358Y-77013D01*
X74615Y-77556D02*
X74643Y-77584D01*
X74615Y-77613D01*
X74586Y-77584D01*
X74615Y-77556D01*
X74615Y-77613D01*
X74901Y-77613D02*
X74901Y-77013D01*
X75044Y-77013D01*
X75129Y-77041D01*
X75187Y-77099D01*
X75215Y-77156D01*
X75244Y-77270D01*
X75244Y-77356D01*
X75215Y-77470D01*
X75187Y-77527D01*
X75129Y-77584D01*
X75044Y-77613D01*
X74901Y-77613D01*
X75501Y-77556D02*
X75529Y-77584D01*
X75501Y-77613D01*
X75472Y-77584D01*
X75501Y-77556D01*
X75501Y-77613D01*
X75758Y-77441D02*
X76044Y-77441D01*
X75701Y-77613D02*
X75901Y-77013D01*
X76101Y-77613D01*
X76301Y-77556D02*
X76329Y-77584D01*
X76301Y-77613D01*
X76272Y-77584D01*
X76301Y-77556D01*
X76301Y-77613D01*
G54D11*
X104586Y-76413D02*
X104386Y-76127D01*
X104243Y-76413D02*
X104243Y-75813D01*
X104471Y-75813D01*
X104529Y-75841D01*
X104557Y-75870D01*
X104586Y-75927D01*
X104586Y-76013D01*
X104557Y-76070D01*
X104529Y-76099D01*
X104471Y-76127D01*
X104243Y-76127D01*
X105071Y-76384D02*
X105014Y-76413D01*
X104900Y-76413D01*
X104843Y-76384D01*
X104814Y-76327D01*
X104814Y-76099D01*
X104843Y-76041D01*
X104900Y-76013D01*
X105014Y-76013D01*
X105071Y-76041D01*
X105100Y-76099D01*
X105100Y-76156D01*
X104814Y-76213D01*
X105300Y-76013D02*
X105443Y-76413D01*
X105585Y-76013D01*
X105814Y-76356D02*
X105842Y-76384D01*
X105814Y-76413D01*
X105785Y-76384D01*
X105814Y-76356D01*
X105814Y-76413D01*
X105814Y-76041D02*
X105842Y-76070D01*
X105814Y-76099D01*
X105785Y-76070D01*
X105814Y-76041D01*
X105814Y-76099D01*
X106871Y-76413D02*
X106528Y-76413D01*
X106700Y-76413D02*
X106700Y-75813D01*
X106643Y-75899D01*
X106585Y-75956D01*
X106528Y-75984D01*
X107128Y-76356D02*
X107156Y-76384D01*
X107128Y-76413D01*
X107099Y-76384D01*
X107128Y-76356D01*
X107128Y-76413D01*
X107528Y-75813D02*
X107585Y-75813D01*
X107642Y-75841D01*
X107671Y-75870D01*
X107700Y-75927D01*
X107728Y-76041D01*
X107728Y-76184D01*
X107700Y-76299D01*
X107671Y-76356D01*
X107642Y-76384D01*
X107585Y-76413D01*
X107528Y-76413D01*
X107471Y-76384D01*
X107442Y-76356D01*
X107414Y-76299D01*
X107385Y-76184D01*
X107385Y-76041D01*
X107414Y-75927D01*
X107442Y-75870D01*
X107471Y-75841D01*
X107528Y-75813D01*
G54D10*
X71014Y-76384D02*
X71100Y-76413D01*
X71243Y-76413D01*
X71300Y-76384D01*
X71329Y-76356D01*
X71357Y-76299D01*
X71357Y-76241D01*
X71329Y-76184D01*
X71300Y-76156D01*
X71243Y-76127D01*
X71129Y-76099D01*
X71071Y-76070D01*
X71043Y-76041D01*
X71014Y-75984D01*
X71014Y-75927D01*
X71043Y-75870D01*
X71071Y-75841D01*
X71129Y-75813D01*
X71271Y-75813D01*
X71357Y-75841D01*
X71614Y-76413D02*
X71614Y-76013D01*
X71614Y-75813D02*
X71585Y-75841D01*
X71614Y-75870D01*
X71642Y-75841D01*
X71614Y-75813D01*
X71614Y-75870D01*
X71843Y-76013D02*
X72157Y-76013D01*
X71843Y-76413D01*
X72157Y-76413D01*
X72614Y-76384D02*
X72557Y-76413D01*
X72443Y-76413D01*
X72386Y-76384D01*
X72357Y-76327D01*
X72357Y-76099D01*
X72386Y-76041D01*
X72443Y-76013D01*
X72557Y-76013D01*
X72614Y-76041D01*
X72643Y-76099D01*
X72643Y-76156D01*
X72357Y-76213D01*
X72900Y-76356D02*
X72928Y-76384D01*
X72900Y-76413D01*
X72871Y-76384D01*
X72900Y-76356D01*
X72900Y-76413D01*
X72900Y-76041D02*
X72928Y-76070D01*
X72900Y-76099D01*
X72871Y-76070D01*
X72900Y-76041D01*
X72900Y-76099D01*
X73614Y-76241D02*
X73900Y-76241D01*
X73557Y-76413D02*
X73757Y-75813D01*
X73957Y-76413D01*
X74414Y-76013D02*
X74414Y-76413D01*
X74271Y-75784D02*
X74128Y-76213D01*
X74500Y-76213D01*
X104243Y-77613D02*
X104243Y-77013D01*
X104786Y-77613D02*
X104786Y-77013D01*
X104786Y-77584D02*
X104729Y-77613D01*
X104615Y-77613D01*
X104557Y-77584D01*
X104529Y-77556D01*
X104500Y-77499D01*
X104500Y-77327D01*
X104529Y-77270D01*
X104557Y-77241D01*
X104615Y-77213D01*
X104729Y-77213D01*
X104786Y-77241D01*
X105072Y-77556D02*
X105100Y-77584D01*
X105072Y-77613D01*
X105043Y-77584D01*
X105072Y-77556D01*
X105072Y-77613D01*
X105072Y-77241D02*
X105100Y-77270D01*
X105072Y-77299D01*
X105043Y-77270D01*
X105072Y-77241D01*
X105072Y-77299D01*
X106129Y-77613D02*
X105786Y-77613D01*
X105958Y-77613D02*
X105958Y-77013D01*
X105901Y-77099D01*
X105843Y-77156D01*
X105786Y-77184D01*
X106814Y-76984D02*
X106300Y-77756D01*
X107329Y-77613D02*
X106986Y-77613D01*
X107158Y-77613D02*
X107158Y-77013D01*
X107101Y-77099D01*
X107043Y-77156D01*
X106986Y-77184D01*
G54D11*
X70957Y-74613D02*
X71300Y-74613D01*
X71129Y-75213D02*
X71129Y-74613D01*
X71500Y-75213D02*
X71500Y-74813D01*
X71500Y-74613D02*
X71471Y-74641D01*
X71500Y-74670D01*
X71528Y-74641D01*
X71500Y-74613D01*
X71500Y-74670D01*
X71700Y-74813D02*
X71929Y-74813D01*
X71786Y-74613D02*
X71786Y-75127D01*
X71814Y-75184D01*
X71872Y-75213D01*
X71929Y-75213D01*
X72215Y-75213D02*
X72157Y-75184D01*
X72129Y-75127D01*
X72129Y-74613D01*
X72671Y-75184D02*
X72614Y-75213D01*
X72500Y-75213D01*
X72443Y-75184D01*
X72414Y-75127D01*
X72414Y-74899D01*
X72443Y-74841D01*
X72500Y-74813D01*
X72614Y-74813D01*
X72671Y-74841D01*
X72700Y-74899D01*
X72700Y-74956D01*
X72414Y-75013D01*
X72957Y-75156D02*
X72985Y-75184D01*
X72957Y-75213D01*
X72928Y-75184D01*
X72957Y-75156D01*
X72957Y-75213D01*
X72957Y-74841D02*
X72985Y-74870D01*
X72957Y-74899D01*
X72928Y-74870D01*
X72957Y-74841D01*
X72957Y-74899D01*
X74043Y-75156D02*
X74014Y-75184D01*
X73928Y-75213D01*
X73871Y-75213D01*
X73786Y-75184D01*
X73728Y-75127D01*
X73700Y-75070D01*
X73671Y-74956D01*
X73671Y-74870D01*
X73700Y-74756D01*
X73728Y-74699D01*
X73786Y-74641D01*
X73871Y-74613D01*
X73928Y-74613D01*
X74014Y-74641D01*
X74043Y-74670D01*
X74557Y-75213D02*
X74557Y-74899D01*
X74528Y-74841D01*
X74471Y-74813D01*
X74357Y-74813D01*
X74300Y-74841D01*
X74557Y-75184D02*
X74500Y-75213D01*
X74357Y-75213D01*
X74300Y-75184D01*
X74271Y-75127D01*
X74271Y-75070D01*
X74300Y-75013D01*
X74357Y-74984D01*
X74500Y-74984D01*
X74557Y-74956D01*
X74843Y-75213D02*
X74843Y-74813D01*
X74843Y-74927D02*
X74871Y-74870D01*
X74900Y-74841D01*
X74957Y-74813D01*
X75014Y-74813D01*
X75128Y-74813D02*
X75357Y-74813D01*
X75214Y-74613D02*
X75214Y-75127D01*
X75242Y-75184D01*
X75300Y-75213D01*
X75357Y-75213D01*
X75785Y-75184D02*
X75728Y-75213D01*
X75614Y-75213D01*
X75557Y-75184D01*
X75528Y-75127D01*
X75528Y-74899D01*
X75557Y-74841D01*
X75614Y-74813D01*
X75728Y-74813D01*
X75785Y-74841D01*
X75814Y-74899D01*
X75814Y-74956D01*
X75528Y-75013D01*
X76528Y-74813D02*
X76528Y-75413D01*
X76528Y-74841D02*
X76585Y-74813D01*
X76699Y-74813D01*
X76756Y-74841D01*
X76785Y-74870D01*
X76814Y-74927D01*
X76814Y-75099D01*
X76785Y-75156D01*
X76756Y-75184D01*
X76699Y-75213D01*
X76585Y-75213D01*
X76528Y-75184D01*
X77299Y-75184D02*
X77242Y-75213D01*
X77128Y-75213D01*
X77071Y-75184D01*
X77042Y-75127D01*
X77042Y-74899D01*
X77071Y-74841D01*
X77128Y-74813D01*
X77242Y-74813D01*
X77299Y-74841D01*
X77328Y-74899D01*
X77328Y-74956D01*
X77042Y-75013D01*
X77242Y-74584D02*
X77157Y-74670D01*
X77842Y-75213D02*
X77842Y-74613D01*
X77842Y-75184D02*
X77785Y-75213D01*
X77671Y-75213D01*
X77613Y-75184D01*
X77585Y-75156D01*
X77556Y-75099D01*
X77556Y-74927D01*
X77585Y-74870D01*
X77613Y-74841D01*
X77671Y-74813D01*
X77785Y-74813D01*
X77842Y-74841D01*
X78385Y-75213D02*
X78385Y-74899D01*
X78356Y-74841D01*
X78299Y-74813D01*
X78185Y-74813D01*
X78128Y-74841D01*
X78385Y-75184D02*
X78328Y-75213D01*
X78185Y-75213D01*
X78128Y-75184D01*
X78099Y-75127D01*
X78099Y-75070D01*
X78128Y-75013D01*
X78185Y-74984D01*
X78328Y-74984D01*
X78385Y-74956D01*
X78757Y-75213D02*
X78699Y-75184D01*
X78671Y-75127D01*
X78671Y-74613D01*
X78985Y-75213D02*
X78985Y-74813D01*
X78985Y-74613D02*
X78956Y-74641D01*
X78985Y-74670D01*
X79013Y-74641D01*
X78985Y-74613D01*
X78985Y-74670D01*
X79499Y-75184D02*
X79442Y-75213D01*
X79328Y-75213D01*
X79271Y-75184D01*
X79242Y-75127D01*
X79242Y-74899D01*
X79271Y-74841D01*
X79328Y-74813D01*
X79442Y-74813D01*
X79499Y-74841D01*
X79528Y-74899D01*
X79528Y-74956D01*
X79242Y-75013D01*
X79785Y-75213D02*
X79785Y-74813D01*
X79785Y-74927D02*
X79813Y-74870D01*
X79842Y-74841D01*
X79899Y-74813D01*
X79956Y-74813D01*
G54D10*
X71243Y-72499D02*
X71043Y-72499D01*
X71043Y-72813D02*
X71043Y-72213D01*
X71329Y-72213D01*
X71557Y-72813D02*
X71557Y-72413D01*
X71557Y-72213D02*
X71528Y-72241D01*
X71557Y-72270D01*
X71585Y-72241D01*
X71557Y-72213D01*
X71557Y-72270D01*
X71929Y-72813D02*
X71871Y-72784D01*
X71843Y-72727D01*
X71843Y-72213D01*
X72385Y-72784D02*
X72328Y-72813D01*
X72214Y-72813D01*
X72157Y-72784D01*
X72128Y-72727D01*
X72128Y-72499D01*
X72157Y-72441D01*
X72214Y-72413D01*
X72328Y-72413D01*
X72385Y-72441D01*
X72414Y-72499D01*
X72414Y-72556D01*
X72128Y-72613D01*
X72671Y-72756D02*
X72699Y-72784D01*
X72671Y-72813D01*
X72642Y-72784D01*
X72671Y-72756D01*
X72671Y-72813D01*
X72671Y-72441D02*
X72699Y-72470D01*
X72671Y-72499D01*
X72642Y-72470D01*
X72671Y-72441D01*
X72671Y-72499D01*
X73671Y-72784D02*
X73614Y-72813D01*
X73500Y-72813D01*
X73442Y-72784D01*
X73414Y-72756D01*
X73385Y-72699D01*
X73385Y-72527D01*
X73414Y-72470D01*
X73442Y-72441D01*
X73500Y-72413D01*
X73614Y-72413D01*
X73671Y-72441D01*
X74185Y-72813D02*
X74185Y-72499D01*
X74156Y-72441D01*
X74099Y-72413D01*
X73985Y-72413D01*
X73928Y-72441D01*
X74185Y-72784D02*
X74128Y-72813D01*
X73985Y-72813D01*
X73928Y-72784D01*
X73899Y-72727D01*
X73899Y-72670D01*
X73928Y-72613D01*
X73985Y-72584D01*
X74128Y-72584D01*
X74185Y-72556D01*
X74471Y-72813D02*
X74471Y-72413D01*
X74471Y-72527D02*
X74499Y-72470D01*
X74528Y-72441D01*
X74585Y-72413D01*
X74642Y-72413D01*
X74756Y-72413D02*
X74985Y-72413D01*
X74842Y-72213D02*
X74842Y-72727D01*
X74870Y-72784D01*
X74928Y-72813D01*
X74985Y-72813D01*
X75413Y-72784D02*
X75356Y-72813D01*
X75242Y-72813D01*
X75185Y-72784D01*
X75156Y-72727D01*
X75156Y-72499D01*
X75185Y-72441D01*
X75242Y-72413D01*
X75356Y-72413D01*
X75413Y-72441D01*
X75442Y-72499D01*
X75442Y-72556D01*
X75156Y-72613D01*
X75556Y-72870D02*
X76013Y-72870D01*
X76156Y-72413D02*
X76156Y-73013D01*
X76156Y-72441D02*
X76213Y-72413D01*
X76327Y-72413D01*
X76384Y-72441D01*
X76413Y-72470D01*
X76442Y-72527D01*
X76442Y-72699D01*
X76413Y-72756D01*
X76384Y-72784D01*
X76327Y-72813D01*
X76213Y-72813D01*
X76156Y-72784D01*
X76927Y-72784D02*
X76870Y-72813D01*
X76756Y-72813D01*
X76699Y-72784D01*
X76670Y-72727D01*
X76670Y-72499D01*
X76699Y-72441D01*
X76756Y-72413D01*
X76870Y-72413D01*
X76927Y-72441D01*
X76956Y-72499D01*
X76956Y-72556D01*
X76670Y-72613D01*
X77470Y-72813D02*
X77470Y-72213D01*
X77470Y-72784D02*
X77413Y-72813D01*
X77299Y-72813D01*
X77241Y-72784D01*
X77213Y-72756D01*
X77184Y-72699D01*
X77184Y-72527D01*
X77213Y-72470D01*
X77241Y-72441D01*
X77299Y-72413D01*
X77413Y-72413D01*
X77470Y-72441D01*
X78013Y-72813D02*
X78013Y-72499D01*
X77984Y-72441D01*
X77927Y-72413D01*
X77813Y-72413D01*
X77756Y-72441D01*
X78013Y-72784D02*
X77956Y-72813D01*
X77813Y-72813D01*
X77756Y-72784D01*
X77727Y-72727D01*
X77727Y-72670D01*
X77756Y-72613D01*
X77813Y-72584D01*
X77956Y-72584D01*
X78013Y-72556D01*
X78385Y-72813D02*
X78327Y-72784D01*
X78299Y-72727D01*
X78299Y-72213D01*
X78613Y-72813D02*
X78613Y-72413D01*
X78613Y-72213D02*
X78584Y-72241D01*
X78613Y-72270D01*
X78641Y-72241D01*
X78613Y-72213D01*
X78613Y-72270D01*
X79127Y-72784D02*
X79070Y-72813D01*
X78956Y-72813D01*
X78899Y-72784D01*
X78870Y-72727D01*
X78870Y-72499D01*
X78899Y-72441D01*
X78956Y-72413D01*
X79070Y-72413D01*
X79127Y-72441D01*
X79156Y-72499D01*
X79156Y-72556D01*
X78870Y-72613D01*
X79413Y-72813D02*
X79413Y-72413D01*
X79413Y-72527D02*
X79441Y-72470D01*
X79470Y-72441D01*
X79527Y-72413D01*
X79584Y-72413D01*
X79784Y-72756D02*
X79812Y-72784D01*
X79784Y-72813D01*
X79755Y-72784D01*
X79784Y-72756D01*
X79784Y-72813D01*
X80070Y-72813D02*
X80070Y-72213D01*
X80070Y-72441D02*
X80127Y-72413D01*
X80241Y-72413D01*
X80298Y-72441D01*
X80327Y-72470D01*
X80356Y-72527D01*
X80356Y-72699D01*
X80327Y-72756D01*
X80298Y-72784D01*
X80241Y-72813D01*
X80127Y-72813D01*
X80070Y-72784D01*
X80613Y-72813D02*
X80613Y-72413D01*
X80613Y-72527D02*
X80641Y-72470D01*
X80670Y-72441D01*
X80727Y-72413D01*
X80784Y-72413D01*
X81241Y-72813D02*
X81241Y-72213D01*
X81241Y-72784D02*
X81184Y-72813D01*
X81070Y-72813D01*
X81012Y-72784D01*
X80984Y-72756D01*
X80955Y-72699D01*
X80955Y-72527D01*
X80984Y-72470D01*
X81012Y-72441D01*
X81070Y-72413D01*
X81184Y-72413D01*
X81241Y-72441D01*
X71014Y-73984D02*
X71100Y-74013D01*
X71243Y-74013D01*
X71300Y-73984D01*
X71329Y-73956D01*
X71357Y-73899D01*
X71357Y-73841D01*
X71329Y-73784D01*
X71300Y-73756D01*
X71243Y-73727D01*
X71129Y-73699D01*
X71071Y-73670D01*
X71043Y-73641D01*
X71014Y-73584D01*
X71014Y-73527D01*
X71043Y-73470D01*
X71071Y-73441D01*
X71129Y-73413D01*
X71271Y-73413D01*
X71357Y-73441D01*
X71614Y-74013D02*
X71614Y-73413D01*
X71871Y-74013D02*
X71871Y-73699D01*
X71842Y-73641D01*
X71785Y-73613D01*
X71700Y-73613D01*
X71642Y-73641D01*
X71614Y-73670D01*
X72385Y-73984D02*
X72328Y-74013D01*
X72214Y-74013D01*
X72157Y-73984D01*
X72128Y-73927D01*
X72128Y-73699D01*
X72157Y-73641D01*
X72214Y-73613D01*
X72328Y-73613D01*
X72385Y-73641D01*
X72414Y-73699D01*
X72414Y-73756D01*
X72128Y-73813D01*
X72899Y-73984D02*
X72842Y-74013D01*
X72728Y-74013D01*
X72671Y-73984D01*
X72642Y-73927D01*
X72642Y-73699D01*
X72671Y-73641D01*
X72728Y-73613D01*
X72842Y-73613D01*
X72899Y-73641D01*
X72928Y-73699D01*
X72928Y-73756D01*
X72642Y-73813D01*
X73099Y-73613D02*
X73328Y-73613D01*
X73185Y-73413D02*
X73185Y-73927D01*
X73213Y-73984D01*
X73271Y-74013D01*
X73328Y-74013D01*
X73528Y-73956D02*
X73556Y-73984D01*
X73528Y-74013D01*
X73499Y-73984D01*
X73528Y-73956D01*
X73528Y-74013D01*
X73528Y-73641D02*
X73556Y-73670D01*
X73528Y-73699D01*
X73499Y-73670D01*
X73528Y-73641D01*
X73528Y-73699D01*
X74585Y-74013D02*
X74242Y-74013D01*
X74414Y-74013D02*
X74414Y-73413D01*
X74357Y-73499D01*
X74299Y-73556D01*
X74242Y-73584D01*
X75270Y-73384D02*
X74756Y-74156D01*
X75785Y-74013D02*
X75442Y-74013D01*
X75614Y-74013D02*
X75614Y-73413D01*
X75557Y-73499D01*
X75499Y-73556D01*
X75442Y-73584D01*
G54D11*
X71043Y-71299D02*
X71243Y-71299D01*
X71329Y-71613D02*
X71043Y-71613D01*
X71043Y-71013D01*
X71329Y-71013D01*
X71586Y-71613D02*
X71586Y-71013D01*
X71814Y-71013D01*
X71872Y-71041D01*
X71900Y-71070D01*
X71929Y-71127D01*
X71929Y-71213D01*
X71900Y-71270D01*
X71872Y-71299D01*
X71814Y-71327D01*
X71586Y-71327D01*
X72157Y-71584D02*
X72243Y-71613D01*
X72386Y-71613D01*
X72443Y-71584D01*
X72472Y-71556D01*
X72500Y-71499D01*
X72500Y-71441D01*
X72472Y-71384D01*
X72443Y-71356D01*
X72386Y-71327D01*
X72272Y-71299D01*
X72214Y-71270D01*
X72186Y-71241D01*
X72157Y-71184D01*
X72157Y-71127D01*
X72186Y-71070D01*
X72214Y-71041D01*
X72272Y-71013D01*
X72414Y-71013D01*
X72500Y-71041D01*
X72728Y-71441D02*
X73014Y-71441D01*
X72671Y-71613D02*
X72871Y-71013D01*
X73071Y-71613D01*
X73728Y-71384D02*
X74185Y-71384D01*
X74928Y-71613D02*
X74928Y-71013D01*
X74928Y-71299D02*
X75271Y-71299D01*
X75271Y-71613D02*
X75271Y-71013D01*
X75500Y-71213D02*
X75643Y-71613D01*
X75785Y-71213D02*
X75643Y-71613D01*
X75585Y-71756D01*
X75557Y-71784D01*
X75500Y-71813D01*
X76014Y-71213D02*
X76014Y-71813D01*
X76014Y-71241D02*
X76071Y-71213D01*
X76185Y-71213D01*
X76242Y-71241D01*
X76271Y-71270D01*
X76300Y-71327D01*
X76300Y-71499D01*
X76271Y-71556D01*
X76242Y-71584D01*
X76185Y-71613D01*
X76071Y-71613D01*
X76014Y-71584D01*
X76557Y-71213D02*
X76557Y-71613D01*
X76557Y-71270D02*
X76585Y-71241D01*
X76643Y-71213D01*
X76728Y-71213D01*
X76785Y-71241D01*
X76814Y-71299D01*
X76814Y-71613D01*
X77186Y-71613D02*
X77128Y-71584D01*
X77100Y-71556D01*
X77071Y-71499D01*
X77071Y-71327D01*
X77100Y-71270D01*
X77128Y-71241D01*
X77186Y-71213D01*
X77271Y-71213D01*
X77328Y-71241D01*
X77357Y-71270D01*
X77386Y-71327D01*
X77386Y-71499D01*
X77357Y-71556D01*
X77328Y-71584D01*
X77271Y-71613D01*
X77186Y-71613D01*
X77586Y-71013D02*
X77986Y-71013D01*
X77586Y-71613D01*
X77986Y-71613D01*
X70300Y-70770D02*
X70300Y-77970D01*
X70300Y-71970D02*
X112300Y-71970D01*
X70300Y-70770D02*
X112300Y-70770D01*
X70300Y-74370D02*
X112300Y-74370D01*
X103500Y-75570D02*
X103500Y-77970D01*
X70300Y-76770D02*
X112300Y-76770D01*
X70300Y-75570D02*
X112300Y-75570D01*
X76900Y-75570D02*
X76900Y-76770D01*
X45286Y-25155D02*
X45086Y-25155D01*
X45086Y-25574D02*
X45086Y-24774D01*
X45372Y-24774D01*
X45600Y-25574D02*
X45600Y-25040D01*
X45600Y-25193D02*
X45628Y-25117D01*
X45657Y-25079D01*
X45714Y-25040D01*
X45771Y-25040D01*
X46199Y-25536D02*
X46142Y-25574D01*
X46028Y-25574D01*
X45971Y-25536D01*
X45942Y-25460D01*
X45942Y-25155D01*
X45971Y-25079D01*
X46028Y-25040D01*
X46142Y-25040D01*
X46199Y-25079D01*
X46228Y-25155D01*
X46228Y-25231D01*
X45942Y-25307D01*
X46485Y-25574D02*
X46485Y-25040D01*
X46485Y-24774D02*
X46456Y-24812D01*
X46485Y-24850D01*
X46513Y-24812D01*
X46485Y-24774D01*
X46485Y-24850D01*
X46771Y-25040D02*
X46771Y-25574D01*
X46771Y-25117D02*
X46799Y-25079D01*
X46857Y-25040D01*
X46942Y-25040D01*
X46999Y-25079D01*
X47028Y-25155D01*
X47028Y-25574D01*
X47171Y-25650D02*
X47628Y-25650D01*
X47857Y-25574D02*
X47799Y-25536D01*
X47771Y-25498D01*
X47742Y-25421D01*
X47742Y-25193D01*
X47771Y-25117D01*
X47799Y-25079D01*
X47857Y-25040D01*
X47942Y-25040D01*
X47999Y-25079D01*
X48028Y-25117D01*
X48057Y-25193D01*
X48057Y-25421D01*
X48028Y-25498D01*
X47999Y-25536D01*
X47942Y-25574D01*
X47857Y-25574D01*
X48571Y-25040D02*
X48571Y-25574D01*
X48314Y-25040D02*
X48314Y-25460D01*
X48342Y-25536D01*
X48400Y-25574D01*
X48485Y-25574D01*
X48542Y-25536D01*
X48571Y-25498D01*
X48771Y-25040D02*
X49000Y-25040D01*
X48857Y-24774D02*
X48857Y-25460D01*
X48885Y-25536D01*
X48943Y-25574D01*
X49000Y-25574D01*
X45836Y-29155D02*
X45636Y-29155D01*
X45636Y-29574D02*
X45636Y-28774D01*
X45922Y-28774D01*
X46150Y-29574D02*
X46150Y-29040D01*
X46150Y-29193D02*
X46178Y-29117D01*
X46207Y-29079D01*
X46264Y-29040D01*
X46321Y-29040D01*
X46749Y-29536D02*
X46692Y-29574D01*
X46578Y-29574D01*
X46521Y-29536D01*
X46492Y-29460D01*
X46492Y-29155D01*
X46521Y-29079D01*
X46578Y-29040D01*
X46692Y-29040D01*
X46749Y-29079D01*
X46778Y-29155D01*
X46778Y-29231D01*
X46492Y-29307D01*
X47035Y-29574D02*
X47035Y-29040D01*
X47035Y-28774D02*
X47006Y-28812D01*
X47035Y-28850D01*
X47063Y-28812D01*
X47035Y-28774D01*
X47035Y-28850D01*
X47321Y-29040D02*
X47321Y-29574D01*
X47321Y-29117D02*
X47349Y-29079D01*
X47407Y-29040D01*
X47492Y-29040D01*
X47549Y-29079D01*
X47578Y-29155D01*
X47578Y-29574D01*
X47721Y-29650D02*
X48178Y-29650D01*
X48321Y-29574D02*
X48321Y-29040D01*
X48321Y-28774D02*
X48292Y-28812D01*
X48321Y-28850D01*
X48349Y-28812D01*
X48321Y-28774D01*
X48321Y-28850D01*
X48607Y-29040D02*
X48607Y-29574D01*
X48607Y-29117D02*
X48635Y-29079D01*
X48693Y-29040D01*
X48778Y-29040D01*
X48835Y-29079D01*
X48864Y-29155D01*
X48864Y-29574D01*
X51095Y-46600D02*
X51095Y-46314D01*
X51324Y-46657D02*
X50524Y-46457D01*
X51324Y-46257D01*
X51286Y-45800D02*
X51324Y-45857D01*
X51324Y-45971D01*
X51286Y-46029D01*
X51248Y-46057D01*
X51171Y-46086D01*
X50943Y-46086D01*
X50867Y-46057D01*
X50829Y-46029D01*
X50790Y-45971D01*
X50790Y-45857D01*
X50829Y-45800D01*
X51286Y-45286D02*
X51324Y-45343D01*
X51324Y-45457D01*
X51286Y-45515D01*
X51248Y-45543D01*
X51171Y-45572D01*
X50943Y-45572D01*
X50867Y-45543D01*
X50829Y-45515D01*
X50790Y-45457D01*
X50790Y-45343D01*
X50829Y-45286D01*
X51400Y-45172D02*
X51400Y-44715D01*
X51324Y-44486D02*
X51286Y-44544D01*
X51248Y-44572D01*
X51171Y-44601D01*
X50943Y-44601D01*
X50867Y-44572D01*
X50829Y-44544D01*
X50790Y-44486D01*
X50790Y-44401D01*
X50829Y-44344D01*
X50867Y-44315D01*
X50943Y-44286D01*
X51171Y-44286D01*
X51248Y-44315D01*
X51286Y-44344D01*
X51324Y-44401D01*
X51324Y-44486D01*
X50790Y-43772D02*
X51324Y-43772D01*
X50790Y-44029D02*
X51210Y-44029D01*
X51286Y-44001D01*
X51324Y-43943D01*
X51324Y-43858D01*
X51286Y-43801D01*
X51248Y-43772D01*
X50790Y-43572D02*
X50790Y-43343D01*
X50524Y-43486D02*
X51210Y-43486D01*
X51286Y-43458D01*
X51324Y-43400D01*
X51324Y-43343D01*
X51095Y-37800D02*
X51095Y-37514D01*
X51324Y-37857D02*
X50524Y-37657D01*
X51324Y-37457D01*
X51286Y-37000D02*
X51324Y-37057D01*
X51324Y-37171D01*
X51286Y-37229D01*
X51248Y-37257D01*
X51171Y-37286D01*
X50943Y-37286D01*
X50867Y-37257D01*
X50829Y-37229D01*
X50790Y-37171D01*
X50790Y-37057D01*
X50829Y-37000D01*
X51286Y-36486D02*
X51324Y-36543D01*
X51324Y-36657D01*
X51286Y-36715D01*
X51248Y-36743D01*
X51171Y-36772D01*
X50943Y-36772D01*
X50867Y-36743D01*
X50829Y-36715D01*
X50790Y-36657D01*
X50790Y-36543D01*
X50829Y-36486D01*
X51400Y-36372D02*
X51400Y-35915D01*
X51324Y-35772D02*
X50790Y-35772D01*
X50524Y-35772D02*
X50562Y-35801D01*
X50600Y-35772D01*
X50562Y-35744D01*
X50524Y-35772D01*
X50600Y-35772D01*
X50790Y-35486D02*
X51324Y-35486D01*
X50867Y-35486D02*
X50829Y-35458D01*
X50790Y-35400D01*
X50790Y-35315D01*
X50829Y-35258D01*
X50905Y-35229D01*
X51324Y-35229D01*
G54D12*
X30750Y-50000D03*
X41750Y-50000D03*
G54D13*
X34250Y-50500D03*
G54D14*
X34250Y-49500D03*
X35250Y-50500D03*
X35250Y-49500D03*
X36250Y-50500D03*
X36250Y-49500D03*
X37250Y-50500D03*
X37250Y-49500D03*
X38250Y-50500D03*
X38250Y-49500D03*
G54D12*
X41750Y-22500D03*
X30750Y-22500D03*
G54D13*
X38250Y-22000D03*
G54D14*
X38250Y-23000D03*
X37250Y-22000D03*
X37250Y-23000D03*
X36250Y-22000D03*
X36250Y-23000D03*
X35250Y-22000D03*
X35250Y-23000D03*
X34250Y-22000D03*
X34250Y-23000D03*
G54D15*
X37250Y-42500D03*
X38250Y-42500D03*
X30000Y-29750D03*
X30000Y-28750D03*
G54D16*
X37250Y-44250D03*
G54D15*
X38250Y-44250D03*
G54D16*
X32250Y-29750D03*
G54D15*
X32250Y-28750D03*
X32250Y-38750D03*
X32250Y-36750D03*
X48750Y-37750D03*
G54D16*
X44750Y-37750D03*
G54D15*
X48750Y-45750D03*
G54D16*
X44750Y-45750D03*
G54D15*
X48750Y-39000D03*
G54D16*
X44750Y-39000D03*
G54D15*
X48750Y-44500D03*
G54D16*
X44750Y-44500D03*
X50750Y-29250D03*
G54D15*
X50750Y-28250D03*
G54D16*
X50750Y-26750D03*
G54D15*
X50750Y-25750D03*
G54D16*
X45250Y-50500D03*
G54D15*
X46250Y-50500D03*
G54D16*
X50250Y-42250D03*
G54D15*
X50250Y-41250D03*
X50750Y-31250D03*
X50750Y-32250D03*
G54D16*
X50750Y-34250D03*
G54D15*
X50750Y-33250D03*
G54D16*
X22000Y-46500D03*
G54D15*
X22000Y-45500D03*
G54D16*
X24500Y-45500D03*
G54D15*
X24500Y-46500D03*
X24500Y-41250D03*
X24500Y-44250D03*
X46500Y-47000D03*
X49500Y-47000D03*
X48000Y-26500D03*
X45000Y-26500D03*
X22000Y-41250D03*
X22000Y-44250D03*
X40250Y-36750D03*
X37250Y-36750D03*
X48750Y-43250D03*
X45750Y-43250D03*
X48750Y-40250D03*
X45750Y-40250D03*
X35000Y-36250D03*
X35000Y-39250D03*
X33500Y-36250D03*
X33500Y-39250D03*
X36250Y-34250D03*
X39250Y-34250D03*
X42250Y-39750D03*
X42250Y-36750D03*
G54D17*
X22000Y-28750D03*
X22000Y-29750D03*
X22000Y-30750D03*
X22000Y-36750D03*
X22000Y-38750D03*
X28000Y-38750D03*
X28000Y-36750D03*
X28000Y-30750D03*
X28000Y-29750D03*
G54D18*
X39250Y-41250D03*
G54D19*
X39250Y-40250D03*
X39250Y-39250D03*
X39250Y-38250D03*
X36250Y-38250D03*
X36250Y-39250D03*
X36250Y-40250D03*
X36250Y-41250D03*
G54D20*
X50000Y-22500D03*
X50250Y-50000D03*
X22500Y-50000D03*
G54D15*
X46750Y-27500D03*
X39000Y-47500D03*
X42000Y-25750D03*
X40250Y-47500D03*
X32500Y-26000D03*
X41500Y-47500D03*
X46000Y-23000D03*
G54D21*
X41000Y-26750D02*
X41750Y-27500D01*
X38250Y-23000D02*
X38250Y-24000D01*
X38250Y-24000D02*
X41000Y-26750D01*
X41750Y-27500D02*
X46750Y-27500D01*
X36250Y-49000D02*
X37250Y-48000D01*
X38500Y-48000D02*
X39000Y-47500D01*
X36250Y-49500D02*
X36250Y-49000D01*
X37250Y-48000D02*
X38500Y-48000D01*
X38500Y-22000D02*
X38250Y-22000D01*
X42000Y-25500D02*
X42000Y-25750D01*
X38500Y-22000D02*
X42000Y-25500D01*
X34250Y-23000D02*
X34250Y-24250D01*
X34250Y-24250D02*
X32500Y-26000D01*
X38250Y-49500D02*
X40250Y-47500D01*
X34750Y-20750D02*
X35000Y-20750D01*
X27250Y-27750D02*
X26000Y-29000D01*
X26000Y-29000D02*
X26000Y-43250D01*
X26000Y-43250D02*
X28750Y-46000D01*
X34250Y-22000D02*
X34250Y-20750D01*
X28750Y-46000D02*
X40000Y-46000D01*
X40000Y-46000D02*
X41000Y-47000D01*
X34250Y-20750D02*
X34750Y-20750D01*
X40000Y-49000D02*
X41000Y-48000D01*
X41000Y-47500D02*
X41000Y-47000D01*
X34250Y-20750D02*
X29500Y-20750D01*
X29500Y-20750D02*
X27250Y-23000D01*
X27250Y-23000D02*
X27250Y-27750D01*
X35000Y-20750D02*
X43750Y-20750D01*
X43750Y-20750D02*
X46000Y-23000D01*
X38250Y-50500D02*
X38500Y-50500D01*
X38500Y-50500D02*
X40000Y-49000D01*
X41000Y-47500D02*
X41500Y-47500D01*
X41000Y-48000D02*
X41000Y-47500D01*
G54D10*
G36*
X52175Y-50865D02*
X51870Y-51170D01*
X51870Y-47024D01*
X51870Y-42976D01*
X51870Y-38224D01*
X51870Y-34776D01*
X51500Y-34776D01*
X51500Y-22353D01*
X51443Y-22064D01*
X51331Y-21792D01*
X51168Y-21547D01*
X50961Y-21339D01*
X50717Y-21174D01*
X50446Y-21060D01*
X50158Y-21001D01*
X49863Y-20999D01*
X49575Y-21054D01*
X49302Y-21164D01*
X49056Y-21325D01*
X48845Y-21531D01*
X48679Y-21774D01*
X48563Y-22044D01*
X48502Y-22332D01*
X48498Y-22626D01*
X48551Y-22915D01*
X48659Y-23189D01*
X48819Y-23436D01*
X49023Y-23648D01*
X49265Y-23816D01*
X49534Y-23933D01*
X49821Y-23997D01*
X50116Y-24003D01*
X50405Y-23952D01*
X50679Y-23845D01*
X50928Y-23688D01*
X51141Y-23485D01*
X51310Y-23245D01*
X51430Y-22976D01*
X51495Y-22689D01*
X51500Y-22353D01*
X51500Y-34776D01*
X51324Y-34776D01*
X51347Y-34742D01*
X51366Y-34697D01*
X51375Y-34649D01*
X51375Y-34362D01*
X51375Y-34138D01*
X51375Y-33851D01*
X51375Y-32189D01*
X51351Y-32069D01*
X51305Y-31955D01*
X51237Y-31853D01*
X51150Y-31766D01*
X51127Y-31750D01*
X51136Y-31745D01*
X51225Y-31661D01*
X51296Y-31560D01*
X51346Y-31448D01*
X51373Y-31329D01*
X51375Y-31189D01*
X51375Y-29652D01*
X51375Y-29603D01*
X51375Y-28851D01*
X51366Y-28803D01*
X51347Y-28758D01*
X51320Y-28717D01*
X51285Y-28682D01*
X51245Y-28654D01*
X51233Y-28649D01*
X51296Y-28560D01*
X51346Y-28448D01*
X51373Y-28329D01*
X51375Y-28189D01*
X51375Y-27152D01*
X51375Y-27103D01*
X51375Y-26351D01*
X51374Y-26345D01*
X51366Y-26303D01*
X51347Y-26258D01*
X51320Y-26217D01*
X51285Y-26182D01*
X51245Y-26154D01*
X51236Y-26150D01*
X51264Y-26123D01*
X51233Y-26092D01*
X51283Y-26075D01*
X51336Y-25966D01*
X51367Y-25848D01*
X51374Y-25726D01*
X51357Y-25605D01*
X51317Y-25490D01*
X51283Y-25425D01*
X51181Y-25389D01*
X51111Y-25459D01*
X51111Y-25319D01*
X51075Y-25217D01*
X50966Y-25164D01*
X50848Y-25133D01*
X50726Y-25126D01*
X50605Y-25143D01*
X50490Y-25183D01*
X50425Y-25217D01*
X50389Y-25319D01*
X50750Y-25679D01*
X51111Y-25319D01*
X51111Y-25459D01*
X50821Y-25750D01*
X50750Y-25821D01*
X50679Y-25750D01*
X50644Y-25715D01*
X50319Y-25389D01*
X50217Y-25425D01*
X50164Y-25534D01*
X50133Y-25652D01*
X50126Y-25774D01*
X50143Y-25895D01*
X50183Y-26010D01*
X50217Y-26075D01*
X50266Y-26092D01*
X50236Y-26123D01*
X50263Y-26150D01*
X50258Y-26153D01*
X50217Y-26180D01*
X50182Y-26215D01*
X50154Y-26255D01*
X50135Y-26300D01*
X50125Y-26348D01*
X50125Y-26397D01*
X50125Y-27149D01*
X50134Y-27197D01*
X50153Y-27242D01*
X50180Y-27283D01*
X50215Y-27318D01*
X50255Y-27346D01*
X50300Y-27365D01*
X50348Y-27375D01*
X50397Y-27375D01*
X51149Y-27375D01*
X51197Y-27366D01*
X51242Y-27347D01*
X51283Y-27320D01*
X51318Y-27285D01*
X51346Y-27245D01*
X51365Y-27200D01*
X51375Y-27152D01*
X51375Y-28189D01*
X51351Y-28069D01*
X51305Y-27955D01*
X51237Y-27853D01*
X51150Y-27766D01*
X51049Y-27698D01*
X50936Y-27650D01*
X50816Y-27625D01*
X50693Y-27625D01*
X50573Y-27648D01*
X50459Y-27693D01*
X50357Y-27760D01*
X50269Y-27846D01*
X50200Y-27947D01*
X50152Y-28060D01*
X50126Y-28180D01*
X50124Y-28302D01*
X50146Y-28423D01*
X50191Y-28537D01*
X50258Y-28640D01*
X50266Y-28649D01*
X50258Y-28653D01*
X50217Y-28680D01*
X50182Y-28715D01*
X50154Y-28755D01*
X50135Y-28800D01*
X50125Y-28848D01*
X50125Y-28897D01*
X50125Y-29649D01*
X50134Y-29697D01*
X50153Y-29742D01*
X50180Y-29783D01*
X50215Y-29818D01*
X50255Y-29846D01*
X50300Y-29865D01*
X50348Y-29875D01*
X50397Y-29875D01*
X51149Y-29875D01*
X51197Y-29866D01*
X51242Y-29847D01*
X51283Y-29820D01*
X51318Y-29785D01*
X51346Y-29745D01*
X51365Y-29700D01*
X51375Y-29652D01*
X51375Y-31189D01*
X51351Y-31069D01*
X51305Y-30955D01*
X51237Y-30853D01*
X51150Y-30766D01*
X51049Y-30698D01*
X50936Y-30650D01*
X50816Y-30625D01*
X50693Y-30625D01*
X50573Y-30648D01*
X50459Y-30693D01*
X50357Y-30760D01*
X50269Y-30846D01*
X50200Y-30947D01*
X50152Y-31060D01*
X50126Y-31180D01*
X50124Y-31302D01*
X50146Y-31423D01*
X50191Y-31537D01*
X50258Y-31640D01*
X50343Y-31728D01*
X50373Y-31749D01*
X50357Y-31760D01*
X50269Y-31846D01*
X50200Y-31947D01*
X50152Y-32060D01*
X50126Y-32180D01*
X50124Y-32302D01*
X50146Y-32423D01*
X50191Y-32537D01*
X50258Y-32640D01*
X50343Y-32728D01*
X50405Y-32771D01*
X50389Y-32819D01*
X50750Y-33179D01*
X51111Y-32819D01*
X51094Y-32771D01*
X51136Y-32745D01*
X51225Y-32661D01*
X51296Y-32560D01*
X51346Y-32448D01*
X51373Y-32329D01*
X51375Y-32189D01*
X51375Y-33851D01*
X51374Y-33845D01*
X51366Y-33803D01*
X51347Y-33758D01*
X51320Y-33717D01*
X51285Y-33682D01*
X51245Y-33654D01*
X51236Y-33650D01*
X51264Y-33623D01*
X51233Y-33592D01*
X51283Y-33575D01*
X51336Y-33466D01*
X51367Y-33348D01*
X51374Y-33226D01*
X51357Y-33105D01*
X51317Y-32990D01*
X51283Y-32925D01*
X51181Y-32889D01*
X50821Y-33250D01*
X50750Y-33321D01*
X50679Y-33250D01*
X50644Y-33215D01*
X50319Y-32889D01*
X50217Y-32925D01*
X50164Y-33034D01*
X50133Y-33152D01*
X50126Y-33274D01*
X50143Y-33395D01*
X50183Y-33510D01*
X50217Y-33575D01*
X50266Y-33592D01*
X50236Y-33623D01*
X50263Y-33650D01*
X50255Y-33654D01*
X50215Y-33682D01*
X50180Y-33717D01*
X50153Y-33758D01*
X50134Y-33803D01*
X50125Y-33851D01*
X50125Y-34138D01*
X50187Y-34200D01*
X50650Y-34200D01*
X50700Y-34200D01*
X50800Y-34200D01*
X50850Y-34200D01*
X51313Y-34200D01*
X51375Y-34138D01*
X51375Y-34362D01*
X51313Y-34300D01*
X50850Y-34300D01*
X50800Y-34300D01*
X50700Y-34300D01*
X50650Y-34300D01*
X50187Y-34300D01*
X50125Y-34362D01*
X50125Y-34649D01*
X50134Y-34697D01*
X50153Y-34742D01*
X50175Y-34776D01*
X50010Y-34776D01*
X50010Y-38224D01*
X51870Y-38224D01*
X51870Y-42976D01*
X50875Y-42976D01*
X50875Y-42652D01*
X50875Y-42603D01*
X50875Y-41851D01*
X50866Y-41803D01*
X50847Y-41758D01*
X50820Y-41717D01*
X50785Y-41682D01*
X50745Y-41654D01*
X50733Y-41649D01*
X50796Y-41560D01*
X50846Y-41448D01*
X50873Y-41329D01*
X50875Y-41189D01*
X50851Y-41069D01*
X50805Y-40955D01*
X50737Y-40853D01*
X50650Y-40766D01*
X50549Y-40698D01*
X50436Y-40650D01*
X50316Y-40625D01*
X50193Y-40625D01*
X50073Y-40648D01*
X49959Y-40693D01*
X49857Y-40760D01*
X49769Y-40846D01*
X49700Y-40947D01*
X49652Y-41060D01*
X49626Y-41180D01*
X49624Y-41302D01*
X49646Y-41423D01*
X49691Y-41537D01*
X49758Y-41640D01*
X49766Y-41649D01*
X49758Y-41653D01*
X49717Y-41680D01*
X49682Y-41715D01*
X49654Y-41755D01*
X49635Y-41800D01*
X49625Y-41848D01*
X49625Y-41897D01*
X49625Y-42649D01*
X49634Y-42697D01*
X49653Y-42742D01*
X49680Y-42783D01*
X49715Y-42818D01*
X49755Y-42846D01*
X49800Y-42865D01*
X49848Y-42875D01*
X49897Y-42875D01*
X50649Y-42875D01*
X50697Y-42866D01*
X50742Y-42847D01*
X50783Y-42820D01*
X50818Y-42785D01*
X50846Y-42745D01*
X50865Y-42700D01*
X50875Y-42652D01*
X50875Y-42976D01*
X50010Y-42976D01*
X50010Y-46666D01*
X49931Y-46639D01*
X49861Y-46709D01*
X49861Y-46569D01*
X49825Y-46467D01*
X49716Y-46414D01*
X49598Y-46383D01*
X49476Y-46376D01*
X49375Y-46390D01*
X49375Y-44439D01*
X49351Y-44319D01*
X49305Y-44205D01*
X49237Y-44103D01*
X49150Y-44016D01*
X49049Y-43948D01*
X48936Y-43900D01*
X48816Y-43875D01*
X48803Y-43875D01*
X48919Y-43855D01*
X49033Y-43811D01*
X49136Y-43745D01*
X49225Y-43661D01*
X49296Y-43560D01*
X49346Y-43448D01*
X49373Y-43329D01*
X49375Y-43189D01*
X49375Y-40189D01*
X49351Y-40069D01*
X49305Y-39955D01*
X49237Y-39853D01*
X49150Y-39766D01*
X49049Y-39698D01*
X48936Y-39650D01*
X48816Y-39625D01*
X48803Y-39625D01*
X48919Y-39605D01*
X49033Y-39561D01*
X49136Y-39495D01*
X49225Y-39411D01*
X49296Y-39310D01*
X49346Y-39198D01*
X49373Y-39079D01*
X49375Y-38939D01*
X49374Y-38934D01*
X49374Y-37726D01*
X49367Y-37676D01*
X49367Y-26120D01*
X49367Y-24260D01*
X44633Y-24260D01*
X44633Y-26120D01*
X44690Y-26120D01*
X44965Y-26394D01*
X45000Y-26429D01*
X45071Y-26500D01*
X45106Y-26535D01*
X45431Y-26861D01*
X45533Y-26825D01*
X45586Y-26716D01*
X45617Y-26598D01*
X45624Y-26476D01*
X45607Y-26355D01*
X45567Y-26240D01*
X45533Y-26175D01*
X45483Y-26157D01*
X45514Y-26127D01*
X45507Y-26120D01*
X47502Y-26120D01*
X47450Y-26197D01*
X47402Y-26310D01*
X47376Y-26430D01*
X47374Y-26552D01*
X47396Y-26673D01*
X47441Y-26787D01*
X47508Y-26890D01*
X47593Y-26978D01*
X47693Y-27048D01*
X47806Y-27097D01*
X47925Y-27124D01*
X48048Y-27126D01*
X48169Y-27105D01*
X48283Y-27061D01*
X48386Y-26995D01*
X48475Y-26911D01*
X48546Y-26810D01*
X48596Y-26698D01*
X48623Y-26579D01*
X48625Y-26439D01*
X48601Y-26319D01*
X48555Y-26205D01*
X48498Y-26120D01*
X49367Y-26120D01*
X49367Y-37676D01*
X49357Y-37605D01*
X49317Y-37490D01*
X49317Y-30120D01*
X49317Y-28260D01*
X47375Y-28260D01*
X47375Y-27439D01*
X47351Y-27319D01*
X47305Y-27205D01*
X47237Y-27103D01*
X47150Y-27016D01*
X47049Y-26948D01*
X46936Y-26900D01*
X46816Y-26875D01*
X46693Y-26875D01*
X46573Y-26898D01*
X46459Y-26943D01*
X46357Y-27010D01*
X46269Y-27096D01*
X46266Y-27100D01*
X45624Y-27100D01*
X45165Y-27100D01*
X45260Y-27067D01*
X45325Y-27033D01*
X45361Y-26931D01*
X45000Y-26571D01*
X44929Y-26641D01*
X44929Y-26500D01*
X44569Y-26139D01*
X44467Y-26175D01*
X44414Y-26284D01*
X44383Y-26402D01*
X44376Y-26524D01*
X44393Y-26645D01*
X44433Y-26760D01*
X44467Y-26825D01*
X44569Y-26861D01*
X44929Y-26500D01*
X44929Y-26641D01*
X44639Y-26931D01*
X44675Y-27033D01*
X44784Y-27086D01*
X44837Y-27100D01*
X43075Y-27100D01*
X43075Y-22370D01*
X43025Y-22115D01*
X42925Y-21875D01*
X42782Y-21658D01*
X42599Y-21474D01*
X42383Y-21329D01*
X42144Y-21228D01*
X41889Y-21176D01*
X41629Y-21174D01*
X41374Y-21223D01*
X41133Y-21320D01*
X40916Y-21462D01*
X40730Y-21644D01*
X40583Y-21859D01*
X40481Y-22098D01*
X40427Y-22352D01*
X40423Y-22611D01*
X40470Y-22867D01*
X40566Y-23109D01*
X40707Y-23327D01*
X40887Y-23514D01*
X41101Y-23662D01*
X41339Y-23766D01*
X41592Y-23822D01*
X41852Y-23827D01*
X42108Y-23782D01*
X42350Y-23688D01*
X42570Y-23549D01*
X42758Y-23370D01*
X42908Y-23158D01*
X43013Y-22920D01*
X43071Y-22667D01*
X43075Y-22370D01*
X43075Y-27100D01*
X41915Y-27100D01*
X41287Y-26471D01*
X41283Y-26467D01*
X38650Y-23834D01*
X38650Y-23545D01*
X38667Y-23535D01*
X38763Y-23443D01*
X38840Y-23335D01*
X38893Y-23214D01*
X38923Y-23085D01*
X38924Y-22990D01*
X41429Y-25494D01*
X41402Y-25560D01*
X41376Y-25680D01*
X41374Y-25802D01*
X41396Y-25923D01*
X41441Y-26037D01*
X41508Y-26140D01*
X41593Y-26228D01*
X41693Y-26298D01*
X41806Y-26347D01*
X41925Y-26374D01*
X42048Y-26376D01*
X42169Y-26355D01*
X42283Y-26311D01*
X42386Y-26245D01*
X42475Y-26161D01*
X42546Y-26060D01*
X42596Y-25948D01*
X42623Y-25829D01*
X42625Y-25689D01*
X42601Y-25569D01*
X42555Y-25455D01*
X42487Y-25353D01*
X42400Y-25266D01*
X42299Y-25198D01*
X42236Y-25171D01*
X38925Y-21859D01*
X38925Y-21551D01*
X38916Y-21503D01*
X38897Y-21458D01*
X38870Y-21417D01*
X38835Y-21382D01*
X38795Y-21354D01*
X38750Y-21335D01*
X38702Y-21325D01*
X38653Y-21325D01*
X37801Y-21325D01*
X37753Y-21334D01*
X37708Y-21353D01*
X37667Y-21380D01*
X37632Y-21415D01*
X37618Y-21434D01*
X37573Y-21403D01*
X37451Y-21352D01*
X37321Y-21326D01*
X37189Y-21325D01*
X37059Y-21349D01*
X36936Y-21399D01*
X36825Y-21471D01*
X36749Y-21545D01*
X36682Y-21478D01*
X36573Y-21403D01*
X36451Y-21352D01*
X36321Y-21326D01*
X36189Y-21325D01*
X36059Y-21349D01*
X35936Y-21399D01*
X35825Y-21471D01*
X35749Y-21545D01*
X35682Y-21478D01*
X35573Y-21403D01*
X35451Y-21352D01*
X35321Y-21326D01*
X35189Y-21325D01*
X35059Y-21349D01*
X34936Y-21399D01*
X34825Y-21471D01*
X34749Y-21545D01*
X34682Y-21478D01*
X34650Y-21455D01*
X34650Y-21150D01*
X34744Y-21150D01*
X34750Y-21150D01*
X34994Y-21150D01*
X35000Y-21150D01*
X43584Y-21150D01*
X45375Y-22941D01*
X45374Y-23052D01*
X45396Y-23173D01*
X45441Y-23287D01*
X45508Y-23390D01*
X45593Y-23478D01*
X45693Y-23548D01*
X45806Y-23597D01*
X45925Y-23624D01*
X46048Y-23626D01*
X46169Y-23605D01*
X46283Y-23561D01*
X46386Y-23495D01*
X46475Y-23411D01*
X46546Y-23310D01*
X46596Y-23198D01*
X46623Y-23079D01*
X46625Y-22939D01*
X46601Y-22819D01*
X46555Y-22705D01*
X46487Y-22603D01*
X46400Y-22516D01*
X46299Y-22448D01*
X46186Y-22400D01*
X46066Y-22375D01*
X45943Y-22375D01*
X45941Y-22375D01*
X44036Y-20470D01*
X44033Y-20467D01*
X44016Y-20453D01*
X43976Y-20420D01*
X43972Y-20418D01*
X43908Y-20382D01*
X43904Y-20381D01*
X43833Y-20359D01*
X43831Y-20358D01*
X43829Y-20358D01*
X43791Y-20354D01*
X43756Y-20350D01*
X43751Y-20350D01*
X43750Y-20350D01*
X35006Y-20350D01*
X35000Y-20350D01*
X34756Y-20350D01*
X34750Y-20350D01*
X34256Y-20350D01*
X34253Y-20350D01*
X34250Y-20350D01*
X29504Y-20350D01*
X29500Y-20350D01*
X29422Y-20358D01*
X29357Y-20377D01*
X29351Y-20379D01*
X29350Y-20379D01*
X29348Y-20380D01*
X29279Y-20417D01*
X29218Y-20466D01*
X29217Y-20467D01*
X29216Y-20468D01*
X26970Y-22714D01*
X26967Y-22717D01*
X26953Y-22733D01*
X26920Y-22774D01*
X26882Y-22842D01*
X26859Y-22917D01*
X26858Y-22918D01*
X26858Y-22921D01*
X26854Y-22958D01*
X26850Y-22994D01*
X26850Y-22999D01*
X26850Y-23000D01*
X26850Y-27584D01*
X25720Y-28713D01*
X25720Y-28714D01*
X25719Y-28714D01*
X25717Y-28717D01*
X25703Y-28733D01*
X25670Y-28774D01*
X25632Y-28842D01*
X25609Y-28917D01*
X25608Y-28918D01*
X25608Y-28921D01*
X25604Y-28958D01*
X25600Y-28994D01*
X25600Y-28999D01*
X25600Y-29000D01*
X25600Y-43246D01*
X25600Y-43250D01*
X25602Y-43278D01*
X25607Y-43324D01*
X25607Y-43327D01*
X25608Y-43328D01*
X25610Y-43338D01*
X25628Y-43398D01*
X25629Y-43401D01*
X25630Y-43402D01*
X25638Y-43416D01*
X25665Y-43468D01*
X25666Y-43469D01*
X25667Y-43471D01*
X25684Y-43493D01*
X25713Y-43529D01*
X25716Y-43532D01*
X25717Y-43533D01*
X28464Y-46280D01*
X28467Y-46283D01*
X28483Y-46296D01*
X28524Y-46330D01*
X28528Y-46332D01*
X28592Y-46368D01*
X28596Y-46369D01*
X28667Y-46391D01*
X28668Y-46391D01*
X28671Y-46392D01*
X28708Y-46395D01*
X28744Y-46400D01*
X28749Y-46400D01*
X28750Y-46400D01*
X39834Y-46400D01*
X40600Y-47166D01*
X40600Y-47494D01*
X40600Y-47497D01*
X40600Y-47500D01*
X40600Y-47834D01*
X39721Y-48713D01*
X39717Y-48717D01*
X38922Y-49511D01*
X38925Y-49477D01*
X38907Y-49347D01*
X38864Y-49222D01*
X38824Y-49145D01*
X38717Y-49104D01*
X38646Y-49175D01*
X38646Y-49033D01*
X38605Y-48926D01*
X38486Y-48868D01*
X38359Y-48834D01*
X38227Y-48825D01*
X38097Y-48843D01*
X37972Y-48886D01*
X37895Y-48926D01*
X37854Y-49033D01*
X38250Y-49429D01*
X38646Y-49033D01*
X38646Y-49175D01*
X38356Y-49465D01*
X38321Y-49500D01*
X38250Y-49571D01*
X37896Y-49924D01*
X37825Y-49971D01*
X37749Y-50045D01*
X37703Y-49999D01*
X37763Y-49943D01*
X37830Y-49848D01*
X38179Y-49500D01*
X37825Y-49146D01*
X37776Y-49071D01*
X37682Y-48978D01*
X37573Y-48903D01*
X37451Y-48852D01*
X37321Y-48826D01*
X37189Y-48825D01*
X37059Y-48849D01*
X36936Y-48899D01*
X36881Y-48934D01*
X37416Y-48400D01*
X38496Y-48400D01*
X38500Y-48400D01*
X38528Y-48397D01*
X38574Y-48393D01*
X38577Y-48392D01*
X38578Y-48392D01*
X38588Y-48389D01*
X38648Y-48372D01*
X38651Y-48370D01*
X38652Y-48370D01*
X38666Y-48362D01*
X38718Y-48335D01*
X38719Y-48333D01*
X38721Y-48333D01*
X38743Y-48315D01*
X38779Y-48287D01*
X38782Y-48284D01*
X38783Y-48283D01*
X38941Y-48124D01*
X39048Y-48126D01*
X39169Y-48105D01*
X39283Y-48061D01*
X39386Y-47995D01*
X39475Y-47911D01*
X39546Y-47810D01*
X39596Y-47698D01*
X39623Y-47579D01*
X39625Y-47439D01*
X39601Y-47319D01*
X39555Y-47205D01*
X39487Y-47103D01*
X39400Y-47016D01*
X39299Y-46948D01*
X39186Y-46900D01*
X39066Y-46875D01*
X38943Y-46875D01*
X38823Y-46898D01*
X38709Y-46943D01*
X38607Y-47010D01*
X38519Y-47096D01*
X38450Y-47197D01*
X38402Y-47310D01*
X38376Y-47430D01*
X38374Y-47552D01*
X38375Y-47558D01*
X38334Y-47600D01*
X37254Y-47600D01*
X37250Y-47600D01*
X37222Y-47602D01*
X37176Y-47607D01*
X37172Y-47607D01*
X37172Y-47608D01*
X37165Y-47610D01*
X37101Y-47628D01*
X37032Y-47665D01*
X37030Y-47666D01*
X37029Y-47667D01*
X37007Y-47684D01*
X36971Y-47713D01*
X36968Y-47716D01*
X36967Y-47717D01*
X35970Y-48714D01*
X35967Y-48717D01*
X35953Y-48733D01*
X35920Y-48774D01*
X35882Y-48842D01*
X35859Y-48917D01*
X35858Y-48918D01*
X35858Y-48921D01*
X35854Y-48951D01*
X35825Y-48971D01*
X35749Y-49045D01*
X35682Y-48978D01*
X35573Y-48903D01*
X35451Y-48852D01*
X35321Y-48826D01*
X35189Y-48825D01*
X35059Y-48849D01*
X34936Y-48899D01*
X34825Y-48971D01*
X34749Y-49045D01*
X34682Y-48978D01*
X34573Y-48903D01*
X34451Y-48852D01*
X34321Y-48826D01*
X34189Y-48825D01*
X34059Y-48849D01*
X33936Y-48899D01*
X33825Y-48971D01*
X33731Y-49064D01*
X33656Y-49173D01*
X33604Y-49295D01*
X33576Y-49424D01*
X33574Y-49557D01*
X33598Y-49687D01*
X33647Y-49810D01*
X33684Y-49868D01*
X33667Y-49880D01*
X33632Y-49915D01*
X33604Y-49955D01*
X33585Y-50000D01*
X33575Y-50048D01*
X33575Y-50097D01*
X33575Y-50949D01*
X33584Y-50997D01*
X33603Y-51042D01*
X33630Y-51083D01*
X33665Y-51118D01*
X33705Y-51146D01*
X33750Y-51165D01*
X33798Y-51175D01*
X33847Y-51175D01*
X34699Y-51175D01*
X34747Y-51166D01*
X34792Y-51147D01*
X34833Y-51120D01*
X34868Y-51085D01*
X34881Y-51065D01*
X34919Y-51092D01*
X35040Y-51145D01*
X35170Y-51173D01*
X35302Y-51176D01*
X35432Y-51153D01*
X35556Y-51105D01*
X35667Y-51035D01*
X35750Y-50954D01*
X35810Y-51016D01*
X35919Y-51092D01*
X36040Y-51145D01*
X36170Y-51173D01*
X36302Y-51176D01*
X36432Y-51153D01*
X36556Y-51105D01*
X36667Y-51035D01*
X36750Y-50954D01*
X36810Y-51016D01*
X36919Y-51092D01*
X37040Y-51145D01*
X37170Y-51173D01*
X37302Y-51176D01*
X37432Y-51153D01*
X37556Y-51105D01*
X37667Y-51035D01*
X37750Y-50954D01*
X37810Y-51016D01*
X37919Y-51092D01*
X38040Y-51145D01*
X38170Y-51173D01*
X38302Y-51176D01*
X38432Y-51153D01*
X38556Y-51105D01*
X38667Y-51035D01*
X38763Y-50943D01*
X38840Y-50835D01*
X38893Y-50714D01*
X38905Y-50660D01*
X40279Y-49287D01*
X40283Y-49283D01*
X41280Y-48286D01*
X41283Y-48283D01*
X41296Y-48266D01*
X41330Y-48226D01*
X41332Y-48222D01*
X41368Y-48158D01*
X41369Y-48154D01*
X41381Y-48114D01*
X41425Y-48124D01*
X41548Y-48126D01*
X41669Y-48105D01*
X41783Y-48061D01*
X41886Y-47995D01*
X41975Y-47911D01*
X42046Y-47810D01*
X42096Y-47698D01*
X42123Y-47579D01*
X42125Y-47439D01*
X42101Y-47319D01*
X42055Y-47205D01*
X41987Y-47103D01*
X41900Y-47016D01*
X41799Y-46948D01*
X41686Y-46900D01*
X41566Y-46875D01*
X41443Y-46875D01*
X41381Y-46886D01*
X41372Y-46851D01*
X41370Y-46848D01*
X41335Y-46782D01*
X41333Y-46780D01*
X41333Y-46779D01*
X41315Y-46757D01*
X41287Y-46721D01*
X41284Y-46718D01*
X41283Y-46717D01*
X40875Y-46309D01*
X40875Y-36689D01*
X40851Y-36569D01*
X40805Y-36455D01*
X40737Y-36353D01*
X40650Y-36266D01*
X40549Y-36198D01*
X40436Y-36150D01*
X40316Y-36125D01*
X40193Y-36125D01*
X40073Y-36148D01*
X39959Y-36193D01*
X39875Y-36248D01*
X39875Y-34189D01*
X39851Y-34069D01*
X39805Y-33955D01*
X39737Y-33853D01*
X39650Y-33766D01*
X39549Y-33698D01*
X39436Y-33650D01*
X39316Y-33625D01*
X39193Y-33625D01*
X39073Y-33648D01*
X38959Y-33693D01*
X38857Y-33760D01*
X38769Y-33846D01*
X38700Y-33947D01*
X38652Y-34060D01*
X38626Y-34180D01*
X38624Y-34302D01*
X38646Y-34423D01*
X38691Y-34537D01*
X38758Y-34640D01*
X38843Y-34728D01*
X38943Y-34798D01*
X39056Y-34847D01*
X39175Y-34874D01*
X39298Y-34876D01*
X39419Y-34855D01*
X39533Y-34811D01*
X39636Y-34745D01*
X39725Y-34661D01*
X39796Y-34560D01*
X39846Y-34448D01*
X39873Y-34329D01*
X39875Y-34189D01*
X39875Y-36248D01*
X39857Y-36260D01*
X39769Y-36346D01*
X39700Y-36447D01*
X39652Y-36560D01*
X39626Y-36680D01*
X39624Y-36802D01*
X39646Y-36923D01*
X39691Y-37037D01*
X39758Y-37140D01*
X39843Y-37228D01*
X39943Y-37298D01*
X40056Y-37347D01*
X40175Y-37374D01*
X40298Y-37376D01*
X40419Y-37355D01*
X40533Y-37311D01*
X40636Y-37245D01*
X40725Y-37161D01*
X40796Y-37060D01*
X40846Y-36948D01*
X40873Y-36829D01*
X40875Y-36689D01*
X40875Y-46309D01*
X40286Y-45720D01*
X40283Y-45717D01*
X40266Y-45703D01*
X40226Y-45670D01*
X40222Y-45668D01*
X40158Y-45632D01*
X40154Y-45631D01*
X40083Y-45609D01*
X40081Y-45608D01*
X40079Y-45608D01*
X40041Y-45604D01*
X40006Y-45600D01*
X40001Y-45600D01*
X40000Y-45600D01*
X39950Y-45600D01*
X39950Y-41587D01*
X39950Y-41538D01*
X39950Y-40916D01*
X39941Y-40868D01*
X39922Y-40823D01*
X39895Y-40782D01*
X39860Y-40747D01*
X39820Y-40719D01*
X39775Y-40700D01*
X39735Y-40691D01*
X39747Y-40684D01*
X39825Y-40606D01*
X39886Y-40516D01*
X39928Y-40415D01*
X39950Y-40308D01*
X39950Y-40199D01*
X39950Y-38308D01*
X39950Y-38199D01*
X39930Y-38092D01*
X39889Y-37990D01*
X39829Y-37899D01*
X39752Y-37821D01*
X39662Y-37759D01*
X39562Y-37716D01*
X39455Y-37694D01*
X39346Y-37692D01*
X39052Y-37693D01*
X38945Y-37714D01*
X38844Y-37756D01*
X38753Y-37816D01*
X38675Y-37894D01*
X38614Y-37984D01*
X38572Y-38085D01*
X38550Y-38192D01*
X38550Y-38301D01*
X38570Y-38408D01*
X38611Y-38510D01*
X38671Y-38601D01*
X38748Y-38679D01*
X38838Y-38741D01*
X38860Y-38750D01*
X38784Y-38795D01*
X38702Y-38867D01*
X38635Y-38954D01*
X38587Y-39052D01*
X38568Y-39113D01*
X38615Y-39200D01*
X39150Y-39200D01*
X39200Y-39200D01*
X39300Y-39200D01*
X39350Y-39200D01*
X39885Y-39200D01*
X39932Y-39113D01*
X39913Y-39052D01*
X39865Y-38954D01*
X39798Y-38867D01*
X39716Y-38795D01*
X39639Y-38750D01*
X39656Y-38744D01*
X39747Y-38684D01*
X39825Y-38606D01*
X39886Y-38516D01*
X39928Y-38415D01*
X39950Y-38308D01*
X39950Y-40199D01*
X39930Y-40092D01*
X39889Y-39990D01*
X39829Y-39899D01*
X39752Y-39821D01*
X39662Y-39759D01*
X39639Y-39749D01*
X39716Y-39705D01*
X39798Y-39633D01*
X39865Y-39546D01*
X39913Y-39448D01*
X39932Y-39387D01*
X39885Y-39300D01*
X39350Y-39300D01*
X39300Y-39300D01*
X39200Y-39300D01*
X39150Y-39300D01*
X38615Y-39300D01*
X38568Y-39387D01*
X38587Y-39448D01*
X38635Y-39546D01*
X38702Y-39633D01*
X38784Y-39705D01*
X38860Y-39749D01*
X38844Y-39756D01*
X38753Y-39816D01*
X38675Y-39894D01*
X38614Y-39984D01*
X38572Y-40085D01*
X38550Y-40192D01*
X38550Y-40301D01*
X38570Y-40408D01*
X38611Y-40510D01*
X38671Y-40601D01*
X38748Y-40679D01*
X38766Y-40691D01*
X38728Y-40699D01*
X38683Y-40718D01*
X38642Y-40745D01*
X38607Y-40780D01*
X38579Y-40820D01*
X38560Y-40865D01*
X38550Y-40913D01*
X38550Y-40962D01*
X38550Y-41584D01*
X38559Y-41632D01*
X38578Y-41677D01*
X38605Y-41718D01*
X38640Y-41753D01*
X38680Y-41781D01*
X38725Y-41800D01*
X38773Y-41810D01*
X38822Y-41810D01*
X39724Y-41810D01*
X39772Y-41801D01*
X39817Y-41782D01*
X39858Y-41755D01*
X39893Y-41720D01*
X39921Y-41680D01*
X39940Y-41635D01*
X39950Y-41587D01*
X39950Y-45600D01*
X38875Y-45600D01*
X38875Y-44189D01*
X38875Y-42439D01*
X38851Y-42319D01*
X38805Y-42205D01*
X38737Y-42103D01*
X38650Y-42016D01*
X38549Y-41948D01*
X38436Y-41900D01*
X38316Y-41875D01*
X38193Y-41875D01*
X38073Y-41898D01*
X37959Y-41943D01*
X37875Y-41998D01*
X37875Y-36689D01*
X37851Y-36569D01*
X37805Y-36455D01*
X37737Y-36353D01*
X37650Y-36266D01*
X37549Y-36198D01*
X37436Y-36150D01*
X37316Y-36125D01*
X37193Y-36125D01*
X37073Y-36148D01*
X36959Y-36193D01*
X36875Y-36248D01*
X36875Y-34189D01*
X36851Y-34069D01*
X36805Y-33955D01*
X36737Y-33853D01*
X36650Y-33766D01*
X36549Y-33698D01*
X36436Y-33650D01*
X36316Y-33625D01*
X36193Y-33625D01*
X36073Y-33648D01*
X35959Y-33693D01*
X35857Y-33760D01*
X35769Y-33846D01*
X35700Y-33947D01*
X35652Y-34060D01*
X35626Y-34180D01*
X35624Y-34302D01*
X35646Y-34423D01*
X35691Y-34537D01*
X35758Y-34640D01*
X35843Y-34728D01*
X35943Y-34798D01*
X36056Y-34847D01*
X36175Y-34874D01*
X36298Y-34876D01*
X36419Y-34855D01*
X36533Y-34811D01*
X36636Y-34745D01*
X36725Y-34661D01*
X36796Y-34560D01*
X36846Y-34448D01*
X36873Y-34329D01*
X36875Y-34189D01*
X36875Y-36248D01*
X36857Y-36260D01*
X36769Y-36346D01*
X36700Y-36447D01*
X36652Y-36560D01*
X36626Y-36680D01*
X36624Y-36802D01*
X36646Y-36923D01*
X36691Y-37037D01*
X36758Y-37140D01*
X36843Y-37228D01*
X36943Y-37298D01*
X37056Y-37347D01*
X37175Y-37374D01*
X37298Y-37376D01*
X37419Y-37355D01*
X37533Y-37311D01*
X37636Y-37245D01*
X37725Y-37161D01*
X37796Y-37060D01*
X37846Y-36948D01*
X37873Y-36829D01*
X37875Y-36689D01*
X37875Y-41998D01*
X37857Y-42010D01*
X37769Y-42096D01*
X37750Y-42123D01*
X37737Y-42103D01*
X37650Y-42016D01*
X37549Y-41948D01*
X37436Y-41900D01*
X37316Y-41875D01*
X37193Y-41875D01*
X37073Y-41898D01*
X36959Y-41943D01*
X36950Y-41948D01*
X36950Y-41308D01*
X36950Y-41199D01*
X36930Y-41092D01*
X36889Y-40990D01*
X36829Y-40899D01*
X36752Y-40821D01*
X36662Y-40759D01*
X36641Y-40750D01*
X36656Y-40744D01*
X36747Y-40684D01*
X36825Y-40606D01*
X36886Y-40516D01*
X36928Y-40415D01*
X36950Y-40308D01*
X36950Y-40199D01*
X36930Y-40092D01*
X36889Y-39990D01*
X36829Y-39899D01*
X36752Y-39821D01*
X36662Y-39759D01*
X36641Y-39750D01*
X36656Y-39744D01*
X36747Y-39684D01*
X36825Y-39606D01*
X36886Y-39516D01*
X36928Y-39415D01*
X36950Y-39308D01*
X36950Y-39199D01*
X36930Y-39092D01*
X36889Y-38990D01*
X36829Y-38899D01*
X36752Y-38821D01*
X36662Y-38759D01*
X36641Y-38750D01*
X36656Y-38744D01*
X36747Y-38684D01*
X36825Y-38606D01*
X36886Y-38516D01*
X36928Y-38415D01*
X36950Y-38308D01*
X36950Y-38199D01*
X36930Y-38092D01*
X36889Y-37990D01*
X36829Y-37899D01*
X36752Y-37821D01*
X36662Y-37759D01*
X36562Y-37716D01*
X36455Y-37694D01*
X36346Y-37692D01*
X36052Y-37693D01*
X35945Y-37714D01*
X35844Y-37756D01*
X35753Y-37816D01*
X35675Y-37894D01*
X35625Y-37967D01*
X35625Y-36189D01*
X35601Y-36069D01*
X35555Y-35955D01*
X35487Y-35853D01*
X35400Y-35766D01*
X35299Y-35698D01*
X35186Y-35650D01*
X35066Y-35625D01*
X34943Y-35625D01*
X34823Y-35648D01*
X34709Y-35693D01*
X34646Y-35734D01*
X34646Y-23467D01*
X34250Y-23071D01*
X34179Y-23142D01*
X34179Y-23000D01*
X33783Y-22604D01*
X33676Y-22645D01*
X33618Y-22764D01*
X33584Y-22891D01*
X33575Y-23023D01*
X33593Y-23153D01*
X33636Y-23278D01*
X33676Y-23355D01*
X33783Y-23396D01*
X34179Y-23000D01*
X34179Y-23142D01*
X33854Y-23467D01*
X33895Y-23574D01*
X34014Y-23632D01*
X34141Y-23666D01*
X34273Y-23675D01*
X34403Y-23657D01*
X34528Y-23614D01*
X34605Y-23574D01*
X34646Y-23467D01*
X34646Y-35734D01*
X34607Y-35760D01*
X34519Y-35846D01*
X34450Y-35947D01*
X34402Y-36060D01*
X34376Y-36180D01*
X34374Y-36302D01*
X34396Y-36423D01*
X34441Y-36537D01*
X34508Y-36640D01*
X34593Y-36728D01*
X34693Y-36798D01*
X34806Y-36847D01*
X34925Y-36874D01*
X35048Y-36876D01*
X35169Y-36855D01*
X35283Y-36811D01*
X35386Y-36745D01*
X35475Y-36661D01*
X35546Y-36560D01*
X35596Y-36448D01*
X35623Y-36329D01*
X35625Y-36189D01*
X35625Y-37967D01*
X35614Y-37984D01*
X35572Y-38085D01*
X35550Y-38192D01*
X35550Y-38301D01*
X35570Y-38408D01*
X35611Y-38510D01*
X35671Y-38601D01*
X35748Y-38679D01*
X35838Y-38741D01*
X35858Y-38749D01*
X35844Y-38756D01*
X35753Y-38816D01*
X35675Y-38894D01*
X35614Y-38984D01*
X35589Y-39041D01*
X35555Y-38955D01*
X35487Y-38853D01*
X35400Y-38766D01*
X35299Y-38698D01*
X35186Y-38650D01*
X35066Y-38625D01*
X34943Y-38625D01*
X34823Y-38648D01*
X34709Y-38693D01*
X34607Y-38760D01*
X34519Y-38846D01*
X34450Y-38947D01*
X34402Y-39060D01*
X34376Y-39180D01*
X34374Y-39302D01*
X34396Y-39423D01*
X34441Y-39537D01*
X34508Y-39640D01*
X34593Y-39728D01*
X34693Y-39798D01*
X34806Y-39847D01*
X34925Y-39874D01*
X35048Y-39876D01*
X35169Y-39855D01*
X35283Y-39811D01*
X35386Y-39745D01*
X35475Y-39661D01*
X35546Y-39560D01*
X35590Y-39459D01*
X35611Y-39510D01*
X35671Y-39601D01*
X35748Y-39679D01*
X35838Y-39741D01*
X35858Y-39749D01*
X35844Y-39756D01*
X35753Y-39816D01*
X35675Y-39894D01*
X35614Y-39984D01*
X35572Y-40085D01*
X35550Y-40192D01*
X35550Y-40301D01*
X35570Y-40408D01*
X35611Y-40510D01*
X35671Y-40601D01*
X35748Y-40679D01*
X35838Y-40741D01*
X35858Y-40749D01*
X35844Y-40756D01*
X35753Y-40816D01*
X35675Y-40894D01*
X35614Y-40984D01*
X35572Y-41085D01*
X35550Y-41192D01*
X35550Y-41301D01*
X35570Y-41408D01*
X35611Y-41510D01*
X35671Y-41601D01*
X35748Y-41679D01*
X35838Y-41741D01*
X35938Y-41784D01*
X36045Y-41806D01*
X36154Y-41808D01*
X36448Y-41807D01*
X36555Y-41786D01*
X36656Y-41744D01*
X36747Y-41684D01*
X36825Y-41606D01*
X36886Y-41516D01*
X36928Y-41415D01*
X36950Y-41308D01*
X36950Y-41948D01*
X36857Y-42010D01*
X36769Y-42096D01*
X36700Y-42197D01*
X36652Y-42310D01*
X36626Y-42430D01*
X36624Y-42552D01*
X36646Y-42673D01*
X36691Y-42787D01*
X36758Y-42890D01*
X36843Y-42978D01*
X36943Y-43048D01*
X37056Y-43097D01*
X37175Y-43124D01*
X37298Y-43126D01*
X37419Y-43105D01*
X37533Y-43061D01*
X37636Y-42995D01*
X37725Y-42911D01*
X37749Y-42876D01*
X37758Y-42890D01*
X37843Y-42978D01*
X37943Y-43048D01*
X38056Y-43097D01*
X38175Y-43124D01*
X38298Y-43126D01*
X38419Y-43105D01*
X38533Y-43061D01*
X38636Y-42995D01*
X38725Y-42911D01*
X38796Y-42810D01*
X38846Y-42698D01*
X38873Y-42579D01*
X38875Y-42439D01*
X38875Y-44189D01*
X38851Y-44069D01*
X38805Y-43955D01*
X38737Y-43853D01*
X38650Y-43766D01*
X38549Y-43698D01*
X38436Y-43650D01*
X38316Y-43625D01*
X38193Y-43625D01*
X38073Y-43648D01*
X37959Y-43693D01*
X37857Y-43760D01*
X37850Y-43766D01*
X37847Y-43758D01*
X37820Y-43717D01*
X37785Y-43682D01*
X37745Y-43654D01*
X37700Y-43635D01*
X37652Y-43625D01*
X37603Y-43625D01*
X36851Y-43625D01*
X36803Y-43634D01*
X36758Y-43653D01*
X36717Y-43680D01*
X36682Y-43715D01*
X36654Y-43755D01*
X36635Y-43800D01*
X36625Y-43848D01*
X36625Y-43897D01*
X36625Y-44649D01*
X36634Y-44697D01*
X36653Y-44742D01*
X36680Y-44783D01*
X36715Y-44818D01*
X36755Y-44846D01*
X36800Y-44865D01*
X36848Y-44875D01*
X36897Y-44875D01*
X37649Y-44875D01*
X37697Y-44866D01*
X37742Y-44847D01*
X37783Y-44820D01*
X37818Y-44785D01*
X37846Y-44745D01*
X37850Y-44733D01*
X37943Y-44798D01*
X38056Y-44847D01*
X38175Y-44874D01*
X38298Y-44876D01*
X38419Y-44855D01*
X38533Y-44811D01*
X38636Y-44745D01*
X38725Y-44661D01*
X38796Y-44560D01*
X38846Y-44448D01*
X38873Y-44329D01*
X38875Y-44189D01*
X38875Y-45600D01*
X34125Y-45600D01*
X34125Y-39189D01*
X34124Y-39184D01*
X34124Y-36226D01*
X34107Y-36105D01*
X34067Y-35990D01*
X34033Y-35925D01*
X33931Y-35889D01*
X33861Y-35959D01*
X33861Y-35819D01*
X33825Y-35717D01*
X33716Y-35664D01*
X33598Y-35633D01*
X33476Y-35626D01*
X33355Y-35643D01*
X33240Y-35683D01*
X33175Y-35717D01*
X33139Y-35819D01*
X33500Y-36179D01*
X33861Y-35819D01*
X33861Y-35959D01*
X33571Y-36250D01*
X33931Y-36611D01*
X34033Y-36575D01*
X34086Y-36466D01*
X34117Y-36348D01*
X34124Y-36226D01*
X34124Y-39184D01*
X34101Y-39069D01*
X34055Y-38955D01*
X33987Y-38853D01*
X33900Y-38766D01*
X33861Y-38739D01*
X33861Y-36681D01*
X33500Y-36321D01*
X33429Y-36391D01*
X33429Y-36250D01*
X33069Y-35889D01*
X32967Y-35925D01*
X32914Y-36034D01*
X32883Y-36152D01*
X32876Y-36274D01*
X32893Y-36395D01*
X32933Y-36510D01*
X32967Y-36575D01*
X33069Y-36611D01*
X33429Y-36250D01*
X33429Y-36391D01*
X33139Y-36681D01*
X33175Y-36783D01*
X33284Y-36836D01*
X33402Y-36867D01*
X33524Y-36874D01*
X33645Y-36857D01*
X33760Y-36817D01*
X33825Y-36783D01*
X33861Y-36681D01*
X33861Y-38739D01*
X33799Y-38698D01*
X33686Y-38650D01*
X33566Y-38625D01*
X33443Y-38625D01*
X33323Y-38648D01*
X33209Y-38693D01*
X33107Y-38760D01*
X33019Y-38846D01*
X32950Y-38947D01*
X32902Y-39060D01*
X32876Y-39180D01*
X32875Y-39241D01*
X32875Y-38689D01*
X32875Y-30152D01*
X32875Y-30103D01*
X32875Y-29351D01*
X32874Y-29345D01*
X32866Y-29303D01*
X32847Y-29258D01*
X32820Y-29217D01*
X32785Y-29182D01*
X32745Y-29154D01*
X32736Y-29150D01*
X32764Y-29123D01*
X32733Y-29092D01*
X32783Y-29075D01*
X32836Y-28966D01*
X32867Y-28848D01*
X32874Y-28726D01*
X32857Y-28605D01*
X32817Y-28490D01*
X32783Y-28425D01*
X32681Y-28389D01*
X32611Y-28459D01*
X32611Y-28319D01*
X32575Y-28217D01*
X32466Y-28164D01*
X32348Y-28133D01*
X32226Y-28126D01*
X32105Y-28143D01*
X32075Y-28153D01*
X32075Y-22370D01*
X32025Y-22115D01*
X31925Y-21875D01*
X31782Y-21658D01*
X31599Y-21474D01*
X31383Y-21329D01*
X31144Y-21228D01*
X30889Y-21176D01*
X30629Y-21174D01*
X30374Y-21223D01*
X30133Y-21320D01*
X29916Y-21462D01*
X29730Y-21644D01*
X29583Y-21859D01*
X29481Y-22098D01*
X29427Y-22352D01*
X29423Y-22611D01*
X29470Y-22867D01*
X29566Y-23109D01*
X29707Y-23327D01*
X29887Y-23514D01*
X30101Y-23662D01*
X30339Y-23766D01*
X30592Y-23822D01*
X30852Y-23827D01*
X31108Y-23782D01*
X31350Y-23688D01*
X31570Y-23549D01*
X31758Y-23370D01*
X31908Y-23158D01*
X32013Y-22920D01*
X32071Y-22667D01*
X32075Y-22370D01*
X32075Y-28153D01*
X31990Y-28183D01*
X31925Y-28217D01*
X31889Y-28319D01*
X32250Y-28679D01*
X32611Y-28319D01*
X32611Y-28459D01*
X32321Y-28750D01*
X32250Y-28821D01*
X32179Y-28750D01*
X32144Y-28715D01*
X31819Y-28389D01*
X31717Y-28425D01*
X31664Y-28534D01*
X31633Y-28652D01*
X31626Y-28774D01*
X31643Y-28895D01*
X31683Y-29010D01*
X31717Y-29075D01*
X31766Y-29092D01*
X31736Y-29123D01*
X31763Y-29150D01*
X31758Y-29153D01*
X31717Y-29180D01*
X31682Y-29215D01*
X31654Y-29255D01*
X31635Y-29300D01*
X31625Y-29348D01*
X31625Y-29397D01*
X31625Y-30149D01*
X31634Y-30197D01*
X31653Y-30242D01*
X31680Y-30283D01*
X31715Y-30318D01*
X31755Y-30346D01*
X31800Y-30365D01*
X31848Y-30375D01*
X31897Y-30375D01*
X32649Y-30375D01*
X32697Y-30366D01*
X32742Y-30347D01*
X32783Y-30320D01*
X32818Y-30285D01*
X32846Y-30245D01*
X32865Y-30200D01*
X32875Y-30152D01*
X32875Y-38689D01*
X32874Y-38684D01*
X32874Y-36726D01*
X32857Y-36605D01*
X32817Y-36490D01*
X32783Y-36425D01*
X32681Y-36389D01*
X32611Y-36459D01*
X32611Y-36319D01*
X32575Y-36217D01*
X32466Y-36164D01*
X32348Y-36133D01*
X32226Y-36126D01*
X32105Y-36143D01*
X31990Y-36183D01*
X31925Y-36217D01*
X31889Y-36319D01*
X32250Y-36679D01*
X32611Y-36319D01*
X32611Y-36459D01*
X32321Y-36750D01*
X32681Y-37111D01*
X32783Y-37075D01*
X32836Y-36966D01*
X32867Y-36848D01*
X32874Y-36726D01*
X32874Y-38684D01*
X32851Y-38569D01*
X32805Y-38455D01*
X32737Y-38353D01*
X32650Y-38266D01*
X32611Y-38239D01*
X32611Y-37181D01*
X32250Y-36821D01*
X32179Y-36891D01*
X32179Y-36750D01*
X31819Y-36389D01*
X31717Y-36425D01*
X31664Y-36534D01*
X31633Y-36652D01*
X31626Y-36774D01*
X31643Y-36895D01*
X31683Y-37010D01*
X31717Y-37075D01*
X31819Y-37111D01*
X32179Y-36750D01*
X32179Y-36891D01*
X31889Y-37181D01*
X31925Y-37283D01*
X32034Y-37336D01*
X32152Y-37367D01*
X32274Y-37374D01*
X32395Y-37357D01*
X32510Y-37317D01*
X32575Y-37283D01*
X32611Y-37181D01*
X32611Y-38239D01*
X32549Y-38198D01*
X32436Y-38150D01*
X32316Y-38125D01*
X32193Y-38125D01*
X32073Y-38148D01*
X31959Y-38193D01*
X31857Y-38260D01*
X31769Y-38346D01*
X31700Y-38447D01*
X31652Y-38560D01*
X31626Y-38680D01*
X31624Y-38802D01*
X31646Y-38923D01*
X31691Y-39037D01*
X31758Y-39140D01*
X31843Y-39228D01*
X31943Y-39298D01*
X32056Y-39347D01*
X32175Y-39374D01*
X32298Y-39376D01*
X32419Y-39355D01*
X32533Y-39311D01*
X32636Y-39245D01*
X32725Y-39161D01*
X32796Y-39060D01*
X32846Y-38948D01*
X32873Y-38829D01*
X32875Y-38689D01*
X32875Y-39241D01*
X32874Y-39302D01*
X32896Y-39423D01*
X32941Y-39537D01*
X33008Y-39640D01*
X33093Y-39728D01*
X33193Y-39798D01*
X33306Y-39847D01*
X33425Y-39874D01*
X33548Y-39876D01*
X33669Y-39855D01*
X33783Y-39811D01*
X33886Y-39745D01*
X33975Y-39661D01*
X34046Y-39560D01*
X34096Y-39448D01*
X34123Y-39329D01*
X34125Y-39189D01*
X34125Y-45600D01*
X30625Y-45600D01*
X30625Y-29689D01*
X30624Y-29684D01*
X30624Y-28726D01*
X30607Y-28605D01*
X30567Y-28490D01*
X30533Y-28425D01*
X30431Y-28389D01*
X30361Y-28459D01*
X30361Y-28319D01*
X30325Y-28217D01*
X30216Y-28164D01*
X30098Y-28133D01*
X29976Y-28126D01*
X29855Y-28143D01*
X29740Y-28183D01*
X29675Y-28217D01*
X29639Y-28319D01*
X30000Y-28679D01*
X30361Y-28319D01*
X30361Y-28459D01*
X30071Y-28750D01*
X30431Y-29111D01*
X30533Y-29075D01*
X30586Y-28966D01*
X30617Y-28848D01*
X30624Y-28726D01*
X30624Y-29684D01*
X30601Y-29569D01*
X30555Y-29455D01*
X30487Y-29353D01*
X30400Y-29266D01*
X30344Y-29228D01*
X30361Y-29181D01*
X30000Y-28821D01*
X29929Y-28891D01*
X29929Y-28750D01*
X29569Y-28389D01*
X29467Y-28425D01*
X29414Y-28534D01*
X29383Y-28652D01*
X29376Y-28774D01*
X29393Y-28895D01*
X29433Y-29010D01*
X29467Y-29075D01*
X29569Y-29111D01*
X29929Y-28750D01*
X29929Y-28891D01*
X29639Y-29181D01*
X29655Y-29228D01*
X29607Y-29260D01*
X29519Y-29346D01*
X29450Y-29447D01*
X29402Y-29560D01*
X29376Y-29680D01*
X29374Y-29802D01*
X29396Y-29923D01*
X29441Y-30037D01*
X29508Y-30140D01*
X29593Y-30228D01*
X29693Y-30298D01*
X29806Y-30347D01*
X29925Y-30374D01*
X30048Y-30376D01*
X30169Y-30355D01*
X30283Y-30311D01*
X30386Y-30245D01*
X30475Y-30161D01*
X30546Y-30060D01*
X30596Y-29948D01*
X30623Y-29829D01*
X30625Y-29689D01*
X30625Y-45600D01*
X28916Y-45600D01*
X28599Y-45283D01*
X28599Y-38691D01*
X28599Y-36725D01*
X28599Y-30691D01*
X28576Y-30576D01*
X28531Y-30467D01*
X28466Y-30369D01*
X28383Y-30286D01*
X28330Y-30250D01*
X28371Y-30224D01*
X28456Y-30143D01*
X28523Y-30047D01*
X28571Y-29940D01*
X28597Y-29825D01*
X28599Y-29691D01*
X28576Y-29576D01*
X28531Y-29467D01*
X28466Y-29369D01*
X28383Y-29286D01*
X28286Y-29220D01*
X28178Y-29175D01*
X28063Y-29151D01*
X27945Y-29151D01*
X27830Y-29173D01*
X27721Y-29217D01*
X27623Y-29281D01*
X27539Y-29363D01*
X27472Y-29460D01*
X27426Y-29568D01*
X27402Y-29683D01*
X27400Y-29801D01*
X27421Y-29916D01*
X27465Y-30025D01*
X27528Y-30124D01*
X27610Y-30209D01*
X27669Y-30250D01*
X27623Y-30281D01*
X27539Y-30363D01*
X27472Y-30460D01*
X27426Y-30568D01*
X27402Y-30683D01*
X27400Y-30801D01*
X27421Y-30916D01*
X27465Y-31025D01*
X27528Y-31124D01*
X27610Y-31209D01*
X27707Y-31276D01*
X27814Y-31323D01*
X27929Y-31348D01*
X28046Y-31350D01*
X28162Y-31330D01*
X28272Y-31287D01*
X28371Y-31224D01*
X28456Y-31143D01*
X28523Y-31047D01*
X28571Y-30940D01*
X28597Y-30825D01*
X28599Y-30691D01*
X28599Y-36725D01*
X28583Y-36610D01*
X28544Y-36500D01*
X28513Y-36440D01*
X28414Y-36407D01*
X28343Y-36478D01*
X28343Y-36336D01*
X28310Y-36237D01*
X28205Y-36187D01*
X28092Y-36157D01*
X27975Y-36151D01*
X27860Y-36167D01*
X27750Y-36206D01*
X27690Y-36237D01*
X27657Y-36336D01*
X28000Y-36679D01*
X28343Y-36336D01*
X28343Y-36478D01*
X28071Y-36750D01*
X28414Y-37093D01*
X28513Y-37060D01*
X28563Y-36955D01*
X28593Y-36842D01*
X28599Y-36725D01*
X28599Y-38691D01*
X28576Y-38576D01*
X28531Y-38467D01*
X28466Y-38369D01*
X28383Y-38286D01*
X28343Y-38258D01*
X28343Y-37164D01*
X28000Y-36821D01*
X27929Y-36892D01*
X27929Y-36750D01*
X27586Y-36407D01*
X27487Y-36440D01*
X27437Y-36545D01*
X27407Y-36658D01*
X27401Y-36775D01*
X27417Y-36890D01*
X27456Y-37000D01*
X27487Y-37060D01*
X27586Y-37093D01*
X27929Y-36750D01*
X27929Y-36892D01*
X27657Y-37164D01*
X27690Y-37263D01*
X27795Y-37313D01*
X27908Y-37343D01*
X28025Y-37349D01*
X28140Y-37333D01*
X28250Y-37294D01*
X28310Y-37263D01*
X28343Y-37164D01*
X28343Y-38258D01*
X28286Y-38220D01*
X28178Y-38175D01*
X28063Y-38151D01*
X27945Y-38151D01*
X27830Y-38173D01*
X27721Y-38217D01*
X27623Y-38281D01*
X27539Y-38363D01*
X27472Y-38460D01*
X27426Y-38568D01*
X27402Y-38683D01*
X27400Y-38801D01*
X27421Y-38916D01*
X27465Y-39025D01*
X27528Y-39124D01*
X27610Y-39209D01*
X27707Y-39276D01*
X27814Y-39323D01*
X27929Y-39348D01*
X28046Y-39350D01*
X28162Y-39330D01*
X28272Y-39287D01*
X28371Y-39224D01*
X28456Y-39143D01*
X28523Y-39047D01*
X28571Y-38940D01*
X28597Y-38825D01*
X28599Y-38691D01*
X28599Y-45283D01*
X26400Y-43084D01*
X26400Y-29165D01*
X27524Y-28040D01*
X27530Y-28036D01*
X27532Y-28033D01*
X27580Y-27976D01*
X27581Y-27974D01*
X27582Y-27973D01*
X27593Y-27951D01*
X27618Y-27908D01*
X27618Y-27905D01*
X27619Y-27905D01*
X27620Y-27899D01*
X27641Y-27833D01*
X27641Y-27830D01*
X27650Y-27756D01*
X27650Y-27752D01*
X27650Y-27750D01*
X27650Y-23166D01*
X29666Y-21150D01*
X33850Y-21150D01*
X33850Y-21454D01*
X33825Y-21471D01*
X33731Y-21564D01*
X33656Y-21673D01*
X33604Y-21795D01*
X33576Y-21924D01*
X33574Y-22057D01*
X33598Y-22187D01*
X33647Y-22310D01*
X33718Y-22421D01*
X33810Y-22516D01*
X33899Y-22578D01*
X34250Y-22929D01*
X34604Y-22574D01*
X34667Y-22535D01*
X34750Y-22454D01*
X34795Y-22500D01*
X34731Y-22564D01*
X34673Y-22647D01*
X34321Y-23000D01*
X34675Y-23354D01*
X34718Y-23421D01*
X34810Y-23516D01*
X34919Y-23592D01*
X35040Y-23645D01*
X35170Y-23673D01*
X35302Y-23676D01*
X35432Y-23653D01*
X35556Y-23605D01*
X35667Y-23535D01*
X35750Y-23454D01*
X35810Y-23516D01*
X35919Y-23592D01*
X36040Y-23645D01*
X36170Y-23673D01*
X36302Y-23676D01*
X36432Y-23653D01*
X36556Y-23605D01*
X36667Y-23535D01*
X36750Y-23454D01*
X36810Y-23516D01*
X36919Y-23592D01*
X37040Y-23645D01*
X37170Y-23673D01*
X37302Y-23676D01*
X37432Y-23653D01*
X37556Y-23605D01*
X37667Y-23535D01*
X37750Y-23454D01*
X37810Y-23516D01*
X37850Y-23543D01*
X37850Y-23996D01*
X37850Y-24000D01*
X37852Y-24028D01*
X37857Y-24074D01*
X37857Y-24077D01*
X37858Y-24078D01*
X37860Y-24088D01*
X37878Y-24148D01*
X37879Y-24151D01*
X37880Y-24152D01*
X37888Y-24166D01*
X37915Y-24218D01*
X37916Y-24219D01*
X37917Y-24221D01*
X37934Y-24243D01*
X37963Y-24279D01*
X37966Y-24282D01*
X37967Y-24283D01*
X40713Y-27029D01*
X40717Y-27033D01*
X41459Y-27774D01*
X41464Y-27780D01*
X41467Y-27782D01*
X41524Y-27830D01*
X41528Y-27832D01*
X41592Y-27868D01*
X41594Y-27868D01*
X41595Y-27869D01*
X41601Y-27870D01*
X41667Y-27891D01*
X41670Y-27891D01*
X41744Y-27900D01*
X41748Y-27900D01*
X41750Y-27900D01*
X46267Y-27900D01*
X46343Y-27978D01*
X46443Y-28048D01*
X46556Y-28097D01*
X46675Y-28124D01*
X46798Y-28126D01*
X46919Y-28105D01*
X47033Y-28061D01*
X47136Y-27995D01*
X47225Y-27911D01*
X47296Y-27810D01*
X47346Y-27698D01*
X47373Y-27579D01*
X47375Y-27439D01*
X47375Y-28260D01*
X45183Y-28260D01*
X45183Y-30120D01*
X49317Y-30120D01*
X49317Y-37490D01*
X49283Y-37425D01*
X49181Y-37389D01*
X49111Y-37459D01*
X49111Y-37319D01*
X49075Y-37217D01*
X48966Y-37164D01*
X48848Y-37133D01*
X48726Y-37126D01*
X48605Y-37143D01*
X48490Y-37183D01*
X48425Y-37217D01*
X48389Y-37319D01*
X48750Y-37679D01*
X49111Y-37319D01*
X49111Y-37459D01*
X48821Y-37750D01*
X49181Y-38111D01*
X49283Y-38075D01*
X49336Y-37966D01*
X49367Y-37848D01*
X49374Y-37726D01*
X49374Y-38934D01*
X49351Y-38819D01*
X49305Y-38705D01*
X49237Y-38603D01*
X49150Y-38516D01*
X49111Y-38489D01*
X49111Y-38181D01*
X48750Y-37821D01*
X48679Y-37891D01*
X48679Y-37750D01*
X48319Y-37389D01*
X48217Y-37425D01*
X48164Y-37534D01*
X48133Y-37652D01*
X48126Y-37774D01*
X48143Y-37895D01*
X48183Y-38010D01*
X48217Y-38075D01*
X48319Y-38111D01*
X48679Y-37750D01*
X48679Y-37891D01*
X48389Y-38181D01*
X48425Y-38283D01*
X48534Y-38336D01*
X48652Y-38367D01*
X48774Y-38374D01*
X48895Y-38357D01*
X49010Y-38317D01*
X49075Y-38283D01*
X49111Y-38181D01*
X49111Y-38489D01*
X49049Y-38448D01*
X48936Y-38400D01*
X48816Y-38375D01*
X48693Y-38375D01*
X48573Y-38398D01*
X48459Y-38443D01*
X48357Y-38510D01*
X48269Y-38596D01*
X48200Y-38697D01*
X48152Y-38810D01*
X48126Y-38930D01*
X48124Y-39052D01*
X48146Y-39173D01*
X48191Y-39287D01*
X48258Y-39390D01*
X48343Y-39478D01*
X48443Y-39548D01*
X48556Y-39597D01*
X48675Y-39624D01*
X48736Y-39625D01*
X48693Y-39625D01*
X48573Y-39648D01*
X48459Y-39693D01*
X48357Y-39760D01*
X48269Y-39846D01*
X48200Y-39947D01*
X48152Y-40060D01*
X48126Y-40180D01*
X48124Y-40302D01*
X48146Y-40423D01*
X48191Y-40537D01*
X48258Y-40640D01*
X48343Y-40728D01*
X48443Y-40798D01*
X48556Y-40847D01*
X48675Y-40874D01*
X48798Y-40876D01*
X48919Y-40855D01*
X49033Y-40811D01*
X49136Y-40745D01*
X49225Y-40661D01*
X49296Y-40560D01*
X49346Y-40448D01*
X49373Y-40329D01*
X49375Y-40189D01*
X49375Y-43189D01*
X49351Y-43069D01*
X49305Y-42955D01*
X49237Y-42853D01*
X49150Y-42766D01*
X49049Y-42698D01*
X48936Y-42650D01*
X48816Y-42625D01*
X48693Y-42625D01*
X48573Y-42648D01*
X48459Y-42693D01*
X48357Y-42760D01*
X48269Y-42846D01*
X48200Y-42947D01*
X48152Y-43060D01*
X48126Y-43180D01*
X48124Y-43302D01*
X48146Y-43423D01*
X48191Y-43537D01*
X48258Y-43640D01*
X48343Y-43728D01*
X48443Y-43798D01*
X48556Y-43847D01*
X48675Y-43874D01*
X48736Y-43875D01*
X48693Y-43875D01*
X48573Y-43898D01*
X48459Y-43943D01*
X48357Y-44010D01*
X48269Y-44096D01*
X48200Y-44197D01*
X48152Y-44310D01*
X48126Y-44430D01*
X48124Y-44552D01*
X48146Y-44673D01*
X48191Y-44787D01*
X48258Y-44890D01*
X48343Y-44978D01*
X48443Y-45048D01*
X48556Y-45097D01*
X48675Y-45124D01*
X48798Y-45126D01*
X48919Y-45105D01*
X49033Y-45061D01*
X49136Y-44995D01*
X49225Y-44911D01*
X49296Y-44810D01*
X49346Y-44698D01*
X49373Y-44579D01*
X49375Y-44439D01*
X49375Y-46390D01*
X49374Y-46390D01*
X49374Y-45726D01*
X49357Y-45605D01*
X49317Y-45490D01*
X49283Y-45425D01*
X49181Y-45389D01*
X49111Y-45459D01*
X49111Y-45319D01*
X49075Y-45217D01*
X48966Y-45164D01*
X48848Y-45133D01*
X48726Y-45126D01*
X48605Y-45143D01*
X48490Y-45183D01*
X48425Y-45217D01*
X48389Y-45319D01*
X48750Y-45679D01*
X49111Y-45319D01*
X49111Y-45459D01*
X48821Y-45750D01*
X49181Y-46111D01*
X49283Y-46075D01*
X49336Y-45966D01*
X49367Y-45848D01*
X49374Y-45726D01*
X49374Y-46390D01*
X49355Y-46393D01*
X49240Y-46433D01*
X49175Y-46467D01*
X49139Y-46569D01*
X49500Y-46929D01*
X49861Y-46569D01*
X49861Y-46709D01*
X49571Y-47000D01*
X49931Y-47361D01*
X50033Y-47325D01*
X50086Y-47216D01*
X50117Y-47098D01*
X50121Y-47024D01*
X51870Y-47024D01*
X51870Y-51170D01*
X51750Y-51290D01*
X51750Y-49853D01*
X51693Y-49564D01*
X51581Y-49292D01*
X51418Y-49047D01*
X51211Y-48839D01*
X50967Y-48674D01*
X50696Y-48560D01*
X50408Y-48501D01*
X50113Y-48499D01*
X49861Y-48547D01*
X49861Y-47431D01*
X49500Y-47071D01*
X49429Y-47141D01*
X49429Y-47000D01*
X49111Y-46681D01*
X49111Y-46181D01*
X48750Y-45821D01*
X48679Y-45891D01*
X48679Y-45750D01*
X48319Y-45389D01*
X48217Y-45425D01*
X48164Y-45534D01*
X48133Y-45652D01*
X48126Y-45774D01*
X48143Y-45895D01*
X48183Y-46010D01*
X48217Y-46075D01*
X48319Y-46111D01*
X48679Y-45750D01*
X48679Y-45891D01*
X48389Y-46181D01*
X48425Y-46283D01*
X48534Y-46336D01*
X48652Y-46367D01*
X48774Y-46374D01*
X48895Y-46357D01*
X49010Y-46317D01*
X49075Y-46283D01*
X49111Y-46181D01*
X49111Y-46681D01*
X49069Y-46639D01*
X48967Y-46675D01*
X48914Y-46784D01*
X48883Y-46902D01*
X48876Y-47024D01*
X48893Y-47145D01*
X48933Y-47260D01*
X48967Y-47325D01*
X49069Y-47361D01*
X49429Y-47000D01*
X49429Y-47141D01*
X49139Y-47431D01*
X49175Y-47533D01*
X49284Y-47586D01*
X49402Y-47617D01*
X49524Y-47624D01*
X49645Y-47607D01*
X49760Y-47567D01*
X49825Y-47533D01*
X49861Y-47431D01*
X49861Y-48547D01*
X49825Y-48554D01*
X49552Y-48664D01*
X49306Y-48825D01*
X49095Y-49031D01*
X48929Y-49274D01*
X48813Y-49544D01*
X48752Y-49832D01*
X48748Y-50126D01*
X48801Y-50415D01*
X48909Y-50689D01*
X49069Y-50936D01*
X49273Y-51148D01*
X49515Y-51316D01*
X49784Y-51433D01*
X50071Y-51497D01*
X50366Y-51503D01*
X50655Y-51452D01*
X50929Y-51345D01*
X51178Y-51188D01*
X51391Y-50985D01*
X51560Y-50745D01*
X51680Y-50476D01*
X51745Y-50189D01*
X51750Y-49853D01*
X51750Y-51290D01*
X50865Y-52175D01*
X47125Y-52175D01*
X47125Y-46939D01*
X47101Y-46819D01*
X47055Y-46705D01*
X46987Y-46603D01*
X46900Y-46516D01*
X46799Y-46448D01*
X46686Y-46400D01*
X46566Y-46375D01*
X46443Y-46375D01*
X46375Y-46388D01*
X46375Y-43189D01*
X46375Y-40189D01*
X46351Y-40069D01*
X46305Y-39955D01*
X46237Y-39853D01*
X46150Y-39766D01*
X46049Y-39698D01*
X45936Y-39650D01*
X45816Y-39625D01*
X45693Y-39625D01*
X45573Y-39648D01*
X45459Y-39693D01*
X45375Y-39748D01*
X45375Y-39402D01*
X45375Y-39353D01*
X45375Y-38601D01*
X45366Y-38553D01*
X45347Y-38508D01*
X45320Y-38467D01*
X45285Y-38432D01*
X45245Y-38404D01*
X45200Y-38385D01*
X45152Y-38375D01*
X45149Y-38375D01*
X45197Y-38366D01*
X45242Y-38347D01*
X45283Y-38320D01*
X45318Y-38285D01*
X45346Y-38245D01*
X45365Y-38200D01*
X45375Y-38152D01*
X45375Y-38103D01*
X45375Y-37351D01*
X45366Y-37303D01*
X45347Y-37258D01*
X45320Y-37217D01*
X45285Y-37182D01*
X45245Y-37154D01*
X45200Y-37135D01*
X45152Y-37125D01*
X45103Y-37125D01*
X44351Y-37125D01*
X44303Y-37134D01*
X44258Y-37153D01*
X44217Y-37180D01*
X44182Y-37215D01*
X44154Y-37255D01*
X44135Y-37300D01*
X44125Y-37348D01*
X44125Y-37397D01*
X44125Y-38149D01*
X44134Y-38197D01*
X44153Y-38242D01*
X44180Y-38283D01*
X44215Y-38318D01*
X44255Y-38346D01*
X44300Y-38365D01*
X44348Y-38375D01*
X44303Y-38384D01*
X44258Y-38403D01*
X44217Y-38430D01*
X44182Y-38465D01*
X44154Y-38505D01*
X44135Y-38550D01*
X44125Y-38598D01*
X44125Y-38647D01*
X44125Y-39399D01*
X44134Y-39447D01*
X44153Y-39492D01*
X44180Y-39533D01*
X44215Y-39568D01*
X44255Y-39596D01*
X44300Y-39615D01*
X44348Y-39625D01*
X44397Y-39625D01*
X45149Y-39625D01*
X45197Y-39616D01*
X45242Y-39597D01*
X45283Y-39570D01*
X45318Y-39535D01*
X45346Y-39495D01*
X45365Y-39450D01*
X45375Y-39402D01*
X45375Y-39748D01*
X45357Y-39760D01*
X45269Y-39846D01*
X45200Y-39947D01*
X45152Y-40060D01*
X45126Y-40180D01*
X45124Y-40302D01*
X45146Y-40423D01*
X45191Y-40537D01*
X45258Y-40640D01*
X45343Y-40728D01*
X45443Y-40798D01*
X45556Y-40847D01*
X45675Y-40874D01*
X45798Y-40876D01*
X45919Y-40855D01*
X46033Y-40811D01*
X46136Y-40745D01*
X46225Y-40661D01*
X46296Y-40560D01*
X46346Y-40448D01*
X46373Y-40329D01*
X46375Y-40189D01*
X46375Y-43189D01*
X46351Y-43069D01*
X46305Y-42955D01*
X46237Y-42853D01*
X46150Y-42766D01*
X46049Y-42698D01*
X45936Y-42650D01*
X45816Y-42625D01*
X45693Y-42625D01*
X45573Y-42648D01*
X45459Y-42693D01*
X45357Y-42760D01*
X45269Y-42846D01*
X45200Y-42947D01*
X45152Y-43060D01*
X45126Y-43180D01*
X45124Y-43302D01*
X45146Y-43423D01*
X45191Y-43537D01*
X45258Y-43640D01*
X45343Y-43728D01*
X45443Y-43798D01*
X45556Y-43847D01*
X45675Y-43874D01*
X45798Y-43876D01*
X45919Y-43855D01*
X46033Y-43811D01*
X46136Y-43745D01*
X46225Y-43661D01*
X46296Y-43560D01*
X46346Y-43448D01*
X46373Y-43329D01*
X46375Y-43189D01*
X46375Y-46388D01*
X46323Y-46398D01*
X46209Y-46443D01*
X46107Y-46510D01*
X46019Y-46596D01*
X45950Y-46697D01*
X45902Y-46810D01*
X45876Y-46930D01*
X45874Y-47052D01*
X45896Y-47173D01*
X45941Y-47287D01*
X46008Y-47390D01*
X46093Y-47478D01*
X46193Y-47548D01*
X46306Y-47597D01*
X46425Y-47624D01*
X46548Y-47626D01*
X46669Y-47605D01*
X46783Y-47561D01*
X46886Y-47495D01*
X46975Y-47411D01*
X47046Y-47310D01*
X47096Y-47198D01*
X47123Y-47079D01*
X47125Y-46939D01*
X47125Y-52175D01*
X46875Y-52175D01*
X46875Y-50439D01*
X46851Y-50319D01*
X46805Y-50205D01*
X46737Y-50103D01*
X46650Y-50016D01*
X46549Y-49948D01*
X46436Y-49900D01*
X46316Y-49875D01*
X46193Y-49875D01*
X46073Y-49898D01*
X45959Y-49943D01*
X45857Y-50010D01*
X45850Y-50016D01*
X45847Y-50008D01*
X45820Y-49967D01*
X45785Y-49932D01*
X45745Y-49904D01*
X45700Y-49885D01*
X45652Y-49875D01*
X45603Y-49875D01*
X45375Y-49875D01*
X45375Y-46152D01*
X45375Y-46103D01*
X45375Y-45351D01*
X45366Y-45303D01*
X45347Y-45258D01*
X45320Y-45217D01*
X45285Y-45182D01*
X45245Y-45154D01*
X45200Y-45135D01*
X45152Y-45125D01*
X45149Y-45125D01*
X45197Y-45116D01*
X45242Y-45097D01*
X45283Y-45070D01*
X45318Y-45035D01*
X45346Y-44995D01*
X45365Y-44950D01*
X45375Y-44902D01*
X45375Y-44853D01*
X45375Y-44101D01*
X45366Y-44053D01*
X45347Y-44008D01*
X45320Y-43967D01*
X45285Y-43932D01*
X45245Y-43904D01*
X45200Y-43885D01*
X45152Y-43875D01*
X45103Y-43875D01*
X44351Y-43875D01*
X44303Y-43884D01*
X44258Y-43903D01*
X44217Y-43930D01*
X44182Y-43965D01*
X44154Y-44005D01*
X44135Y-44050D01*
X44125Y-44098D01*
X44125Y-44147D01*
X44125Y-44899D01*
X44134Y-44947D01*
X44153Y-44992D01*
X44180Y-45033D01*
X44215Y-45068D01*
X44255Y-45096D01*
X44300Y-45115D01*
X44348Y-45125D01*
X44303Y-45134D01*
X44258Y-45153D01*
X44217Y-45180D01*
X44182Y-45215D01*
X44154Y-45255D01*
X44135Y-45300D01*
X44125Y-45348D01*
X44125Y-45397D01*
X44125Y-46149D01*
X44134Y-46197D01*
X44153Y-46242D01*
X44180Y-46283D01*
X44215Y-46318D01*
X44255Y-46346D01*
X44300Y-46365D01*
X44348Y-46375D01*
X44397Y-46375D01*
X45149Y-46375D01*
X45197Y-46366D01*
X45242Y-46347D01*
X45283Y-46320D01*
X45318Y-46285D01*
X45346Y-46245D01*
X45365Y-46200D01*
X45375Y-46152D01*
X45375Y-49875D01*
X44851Y-49875D01*
X44803Y-49884D01*
X44758Y-49903D01*
X44717Y-49930D01*
X44682Y-49965D01*
X44654Y-50005D01*
X44635Y-50050D01*
X44625Y-50098D01*
X44625Y-50147D01*
X44625Y-50899D01*
X44634Y-50947D01*
X44653Y-50992D01*
X44680Y-51033D01*
X44715Y-51068D01*
X44755Y-51096D01*
X44800Y-51115D01*
X44848Y-51125D01*
X44897Y-51125D01*
X45649Y-51125D01*
X45697Y-51116D01*
X45742Y-51097D01*
X45783Y-51070D01*
X45818Y-51035D01*
X45846Y-50995D01*
X45850Y-50983D01*
X45943Y-51048D01*
X46056Y-51097D01*
X46175Y-51124D01*
X46298Y-51126D01*
X46419Y-51105D01*
X46533Y-51061D01*
X46636Y-50995D01*
X46725Y-50911D01*
X46796Y-50810D01*
X46846Y-50698D01*
X46873Y-50579D01*
X46875Y-50439D01*
X46875Y-52175D01*
X43075Y-52175D01*
X43075Y-49870D01*
X43025Y-49615D01*
X42925Y-49375D01*
X42875Y-49299D01*
X42875Y-39689D01*
X42875Y-36689D01*
X42851Y-36569D01*
X42805Y-36455D01*
X42737Y-36353D01*
X42650Y-36266D01*
X42549Y-36198D01*
X42436Y-36150D01*
X42316Y-36125D01*
X42193Y-36125D01*
X42073Y-36148D01*
X41959Y-36193D01*
X41857Y-36260D01*
X41769Y-36346D01*
X41700Y-36447D01*
X41652Y-36560D01*
X41626Y-36680D01*
X41624Y-36802D01*
X41646Y-36923D01*
X41691Y-37037D01*
X41758Y-37140D01*
X41843Y-37228D01*
X41943Y-37298D01*
X42056Y-37347D01*
X42175Y-37374D01*
X42298Y-37376D01*
X42419Y-37355D01*
X42533Y-37311D01*
X42636Y-37245D01*
X42725Y-37161D01*
X42796Y-37060D01*
X42846Y-36948D01*
X42873Y-36829D01*
X42875Y-36689D01*
X42875Y-39689D01*
X42851Y-39569D01*
X42805Y-39455D01*
X42737Y-39353D01*
X42650Y-39266D01*
X42549Y-39198D01*
X42436Y-39150D01*
X42316Y-39125D01*
X42193Y-39125D01*
X42073Y-39148D01*
X41959Y-39193D01*
X41857Y-39260D01*
X41769Y-39346D01*
X41700Y-39447D01*
X41652Y-39560D01*
X41626Y-39680D01*
X41624Y-39802D01*
X41646Y-39923D01*
X41691Y-40037D01*
X41758Y-40140D01*
X41843Y-40228D01*
X41943Y-40298D01*
X42056Y-40347D01*
X42175Y-40374D01*
X42298Y-40376D01*
X42419Y-40355D01*
X42533Y-40311D01*
X42636Y-40245D01*
X42725Y-40161D01*
X42796Y-40060D01*
X42846Y-39948D01*
X42873Y-39829D01*
X42875Y-39689D01*
X42875Y-49299D01*
X42782Y-49158D01*
X42599Y-48974D01*
X42383Y-48829D01*
X42144Y-48728D01*
X41889Y-48676D01*
X41629Y-48674D01*
X41374Y-48723D01*
X41133Y-48820D01*
X40916Y-48962D01*
X40730Y-49144D01*
X40583Y-49359D01*
X40481Y-49598D01*
X40427Y-49852D01*
X40423Y-50111D01*
X40470Y-50367D01*
X40566Y-50609D01*
X40707Y-50827D01*
X40887Y-51014D01*
X41101Y-51162D01*
X41339Y-51266D01*
X41592Y-51322D01*
X41852Y-51327D01*
X42108Y-51282D01*
X42350Y-51188D01*
X42570Y-51049D01*
X42758Y-50870D01*
X42908Y-50658D01*
X43013Y-50420D01*
X43071Y-50167D01*
X43075Y-49870D01*
X43075Y-52175D01*
X32075Y-52175D01*
X32075Y-49870D01*
X32025Y-49615D01*
X31925Y-49375D01*
X31782Y-49158D01*
X31599Y-48974D01*
X31383Y-48829D01*
X31144Y-48728D01*
X30889Y-48676D01*
X30629Y-48674D01*
X30374Y-48723D01*
X30133Y-48820D01*
X29916Y-48962D01*
X29730Y-49144D01*
X29583Y-49359D01*
X29481Y-49598D01*
X29427Y-49852D01*
X29423Y-50111D01*
X29470Y-50367D01*
X29566Y-50609D01*
X29707Y-50827D01*
X29887Y-51014D01*
X30101Y-51162D01*
X30339Y-51266D01*
X30592Y-51322D01*
X30852Y-51327D01*
X31108Y-51282D01*
X31350Y-51188D01*
X31570Y-51049D01*
X31758Y-50870D01*
X31908Y-50658D01*
X32013Y-50420D01*
X32071Y-50167D01*
X32075Y-49870D01*
X32075Y-52175D01*
X25125Y-52175D01*
X25125Y-45902D01*
X25125Y-45853D01*
X25125Y-45101D01*
X25116Y-45053D01*
X25097Y-45008D01*
X25070Y-44967D01*
X25035Y-44932D01*
X24995Y-44904D01*
X24950Y-44885D01*
X24902Y-44875D01*
X24853Y-44875D01*
X24553Y-44875D01*
X24669Y-44855D01*
X24783Y-44811D01*
X24886Y-44745D01*
X24975Y-44661D01*
X25046Y-44560D01*
X25096Y-44448D01*
X25123Y-44329D01*
X25125Y-44189D01*
X25125Y-41189D01*
X25101Y-41069D01*
X25055Y-40955D01*
X24987Y-40853D01*
X24900Y-40766D01*
X24799Y-40698D01*
X24686Y-40650D01*
X24566Y-40625D01*
X24443Y-40625D01*
X24323Y-40648D01*
X24209Y-40693D01*
X24107Y-40760D01*
X24019Y-40846D01*
X23950Y-40947D01*
X23902Y-41060D01*
X23876Y-41180D01*
X23874Y-41302D01*
X23896Y-41423D01*
X23941Y-41537D01*
X24008Y-41640D01*
X24093Y-41728D01*
X24193Y-41798D01*
X24306Y-41847D01*
X24425Y-41874D01*
X24548Y-41876D01*
X24669Y-41855D01*
X24783Y-41811D01*
X24886Y-41745D01*
X24975Y-41661D01*
X25046Y-41560D01*
X25096Y-41448D01*
X25123Y-41329D01*
X25125Y-41189D01*
X25125Y-44189D01*
X25101Y-44069D01*
X25055Y-43955D01*
X24987Y-43853D01*
X24900Y-43766D01*
X24799Y-43698D01*
X24686Y-43650D01*
X24566Y-43625D01*
X24443Y-43625D01*
X24323Y-43648D01*
X24209Y-43693D01*
X24107Y-43760D01*
X24019Y-43846D01*
X23950Y-43947D01*
X23902Y-44060D01*
X23876Y-44180D01*
X23874Y-44302D01*
X23896Y-44423D01*
X23941Y-44537D01*
X24008Y-44640D01*
X24093Y-44728D01*
X24193Y-44798D01*
X24306Y-44847D01*
X24425Y-44874D01*
X24486Y-44875D01*
X24101Y-44875D01*
X24053Y-44884D01*
X24008Y-44903D01*
X23967Y-44930D01*
X23932Y-44965D01*
X23904Y-45005D01*
X23885Y-45050D01*
X23875Y-45098D01*
X23875Y-45147D01*
X23875Y-45899D01*
X23884Y-45947D01*
X23903Y-45992D01*
X23930Y-46033D01*
X23965Y-46068D01*
X24005Y-46096D01*
X24013Y-46099D01*
X23986Y-46127D01*
X24016Y-46157D01*
X23967Y-46175D01*
X23914Y-46284D01*
X23883Y-46402D01*
X23876Y-46524D01*
X23893Y-46645D01*
X23933Y-46760D01*
X23967Y-46825D01*
X24069Y-46861D01*
X24394Y-46535D01*
X24429Y-46500D01*
X24500Y-46429D01*
X24571Y-46500D01*
X24606Y-46535D01*
X24931Y-46861D01*
X25033Y-46825D01*
X25086Y-46716D01*
X25117Y-46598D01*
X25124Y-46476D01*
X25107Y-46355D01*
X25067Y-46240D01*
X25033Y-46175D01*
X24983Y-46157D01*
X25014Y-46127D01*
X24986Y-46099D01*
X24992Y-46097D01*
X25033Y-46070D01*
X25068Y-46035D01*
X25096Y-45995D01*
X25115Y-45950D01*
X25125Y-45902D01*
X25125Y-52175D01*
X25124Y-52175D01*
X24861Y-52175D01*
X24861Y-46931D01*
X24500Y-46571D01*
X24429Y-46641D01*
X24139Y-46931D01*
X24175Y-47033D01*
X24284Y-47086D01*
X24402Y-47117D01*
X24524Y-47124D01*
X24645Y-47107D01*
X24760Y-47067D01*
X24825Y-47033D01*
X24861Y-46931D01*
X24861Y-52175D01*
X24000Y-52175D01*
X24000Y-49853D01*
X23943Y-49564D01*
X23831Y-49292D01*
X23668Y-49047D01*
X23461Y-48839D01*
X23217Y-48674D01*
X22946Y-48560D01*
X22658Y-48501D01*
X22625Y-48500D01*
X22625Y-46899D01*
X22625Y-46612D01*
X22625Y-46388D01*
X22625Y-46101D01*
X22616Y-46053D01*
X22597Y-46008D01*
X22570Y-45967D01*
X22535Y-45932D01*
X22495Y-45904D01*
X22483Y-45899D01*
X22546Y-45810D01*
X22596Y-45698D01*
X22623Y-45579D01*
X22625Y-45439D01*
X22601Y-45319D01*
X22555Y-45205D01*
X22487Y-45103D01*
X22400Y-45016D01*
X22299Y-44948D01*
X22186Y-44900D01*
X22066Y-44875D01*
X22053Y-44875D01*
X22169Y-44855D01*
X22283Y-44811D01*
X22386Y-44745D01*
X22475Y-44661D01*
X22546Y-44560D01*
X22596Y-44448D01*
X22623Y-44329D01*
X22625Y-44189D01*
X22625Y-41189D01*
X22601Y-41069D01*
X22599Y-41064D01*
X22599Y-38691D01*
X22599Y-36725D01*
X22599Y-30725D01*
X22599Y-29725D01*
X22599Y-28691D01*
X22576Y-28576D01*
X22531Y-28467D01*
X22466Y-28369D01*
X22383Y-28286D01*
X22286Y-28220D01*
X22178Y-28175D01*
X22063Y-28151D01*
X21945Y-28151D01*
X21830Y-28173D01*
X21721Y-28217D01*
X21623Y-28281D01*
X21539Y-28363D01*
X21472Y-28460D01*
X21426Y-28568D01*
X21402Y-28683D01*
X21400Y-28801D01*
X21421Y-28916D01*
X21465Y-29025D01*
X21528Y-29124D01*
X21610Y-29209D01*
X21682Y-29259D01*
X21657Y-29336D01*
X22000Y-29679D01*
X22343Y-29336D01*
X22317Y-29258D01*
X22371Y-29224D01*
X22456Y-29143D01*
X22523Y-29047D01*
X22571Y-28940D01*
X22597Y-28825D01*
X22599Y-28691D01*
X22599Y-29725D01*
X22583Y-29610D01*
X22544Y-29500D01*
X22513Y-29440D01*
X22414Y-29407D01*
X22071Y-29750D01*
X22414Y-30093D01*
X22513Y-30060D01*
X22563Y-29955D01*
X22593Y-29842D01*
X22599Y-29725D01*
X22599Y-30725D01*
X22583Y-30610D01*
X22544Y-30500D01*
X22513Y-30440D01*
X22414Y-30407D01*
X22343Y-30478D01*
X22343Y-30336D01*
X22314Y-30250D01*
X22343Y-30164D01*
X22000Y-29821D01*
X21929Y-29892D01*
X21929Y-29750D01*
X21586Y-29407D01*
X21487Y-29440D01*
X21437Y-29545D01*
X21407Y-29658D01*
X21401Y-29775D01*
X21417Y-29890D01*
X21456Y-30000D01*
X21487Y-30060D01*
X21586Y-30093D01*
X21929Y-29750D01*
X21929Y-29892D01*
X21657Y-30164D01*
X21685Y-30250D01*
X21657Y-30336D01*
X22000Y-30679D01*
X22343Y-30336D01*
X22343Y-30478D01*
X22071Y-30750D01*
X22414Y-31093D01*
X22513Y-31060D01*
X22563Y-30955D01*
X22593Y-30842D01*
X22599Y-30725D01*
X22599Y-36725D01*
X22583Y-36610D01*
X22544Y-36500D01*
X22513Y-36440D01*
X22414Y-36407D01*
X22343Y-36478D01*
X22343Y-36336D01*
X22343Y-31164D01*
X22000Y-30821D01*
X21929Y-30892D01*
X21929Y-30750D01*
X21586Y-30407D01*
X21487Y-30440D01*
X21437Y-30545D01*
X21407Y-30658D01*
X21401Y-30775D01*
X21417Y-30890D01*
X21456Y-31000D01*
X21487Y-31060D01*
X21586Y-31093D01*
X21929Y-30750D01*
X21929Y-30892D01*
X21657Y-31164D01*
X21690Y-31263D01*
X21795Y-31313D01*
X21908Y-31343D01*
X22025Y-31349D01*
X22140Y-31333D01*
X22250Y-31294D01*
X22310Y-31263D01*
X22343Y-31164D01*
X22343Y-36336D01*
X22310Y-36237D01*
X22205Y-36187D01*
X22092Y-36157D01*
X21975Y-36151D01*
X21860Y-36167D01*
X21750Y-36206D01*
X21690Y-36237D01*
X21657Y-36336D01*
X22000Y-36679D01*
X22343Y-36336D01*
X22343Y-36478D01*
X22071Y-36750D01*
X22414Y-37093D01*
X22513Y-37060D01*
X22563Y-36955D01*
X22593Y-36842D01*
X22599Y-36725D01*
X22599Y-38691D01*
X22576Y-38576D01*
X22531Y-38467D01*
X22466Y-38369D01*
X22383Y-38286D01*
X22343Y-38258D01*
X22343Y-37164D01*
X22000Y-36821D01*
X21929Y-36892D01*
X21929Y-36750D01*
X21586Y-36407D01*
X21487Y-36440D01*
X21437Y-36545D01*
X21407Y-36658D01*
X21401Y-36775D01*
X21417Y-36890D01*
X21456Y-37000D01*
X21487Y-37060D01*
X21586Y-37093D01*
X21929Y-36750D01*
X21929Y-36892D01*
X21657Y-37164D01*
X21690Y-37263D01*
X21795Y-37313D01*
X21908Y-37343D01*
X22025Y-37349D01*
X22140Y-37333D01*
X22250Y-37294D01*
X22310Y-37263D01*
X22343Y-37164D01*
X22343Y-38258D01*
X22286Y-38220D01*
X22178Y-38175D01*
X22063Y-38151D01*
X21945Y-38151D01*
X21830Y-38173D01*
X21721Y-38217D01*
X21623Y-38281D01*
X21539Y-38363D01*
X21472Y-38460D01*
X21426Y-38568D01*
X21402Y-38683D01*
X21400Y-38801D01*
X21421Y-38916D01*
X21465Y-39025D01*
X21528Y-39124D01*
X21610Y-39209D01*
X21707Y-39276D01*
X21814Y-39323D01*
X21929Y-39348D01*
X22046Y-39350D01*
X22162Y-39330D01*
X22272Y-39287D01*
X22371Y-39224D01*
X22456Y-39143D01*
X22523Y-39047D01*
X22571Y-38940D01*
X22597Y-38825D01*
X22599Y-38691D01*
X22599Y-41064D01*
X22555Y-40955D01*
X22487Y-40853D01*
X22400Y-40766D01*
X22299Y-40698D01*
X22186Y-40650D01*
X22066Y-40625D01*
X21943Y-40625D01*
X21823Y-40648D01*
X21709Y-40693D01*
X21607Y-40760D01*
X21519Y-40846D01*
X21450Y-40947D01*
X21402Y-41060D01*
X21376Y-41180D01*
X21374Y-41302D01*
X21396Y-41423D01*
X21441Y-41537D01*
X21508Y-41640D01*
X21593Y-41728D01*
X21693Y-41798D01*
X21806Y-41847D01*
X21925Y-41874D01*
X22048Y-41876D01*
X22169Y-41855D01*
X22283Y-41811D01*
X22386Y-41745D01*
X22475Y-41661D01*
X22546Y-41560D01*
X22596Y-41448D01*
X22623Y-41329D01*
X22625Y-41189D01*
X22625Y-44189D01*
X22601Y-44069D01*
X22555Y-43955D01*
X22487Y-43853D01*
X22400Y-43766D01*
X22299Y-43698D01*
X22186Y-43650D01*
X22066Y-43625D01*
X21943Y-43625D01*
X21823Y-43648D01*
X21709Y-43693D01*
X21607Y-43760D01*
X21519Y-43846D01*
X21450Y-43947D01*
X21402Y-44060D01*
X21376Y-44180D01*
X21374Y-44302D01*
X21396Y-44423D01*
X21441Y-44537D01*
X21508Y-44640D01*
X21593Y-44728D01*
X21693Y-44798D01*
X21806Y-44847D01*
X21925Y-44874D01*
X21986Y-44875D01*
X21943Y-44875D01*
X21823Y-44898D01*
X21709Y-44943D01*
X21607Y-45010D01*
X21519Y-45096D01*
X21450Y-45197D01*
X21402Y-45310D01*
X21376Y-45430D01*
X21374Y-45552D01*
X21396Y-45673D01*
X21441Y-45787D01*
X21508Y-45890D01*
X21516Y-45899D01*
X21505Y-45904D01*
X21465Y-45932D01*
X21430Y-45967D01*
X21403Y-46008D01*
X21384Y-46053D01*
X21375Y-46101D01*
X21375Y-46388D01*
X21437Y-46450D01*
X21900Y-46450D01*
X21950Y-46450D01*
X22050Y-46450D01*
X22100Y-46450D01*
X22563Y-46450D01*
X22625Y-46388D01*
X22625Y-46612D01*
X22563Y-46550D01*
X22050Y-46550D01*
X22050Y-47063D01*
X22112Y-47125D01*
X22353Y-47125D01*
X22402Y-47125D01*
X22450Y-47115D01*
X22495Y-47096D01*
X22535Y-47068D01*
X22570Y-47033D01*
X22597Y-46992D01*
X22616Y-46947D01*
X22625Y-46899D01*
X22625Y-48500D01*
X22363Y-48499D01*
X22075Y-48554D01*
X21950Y-48604D01*
X21950Y-47063D01*
X21950Y-46550D01*
X21437Y-46550D01*
X21375Y-46612D01*
X21375Y-46899D01*
X21384Y-46947D01*
X21403Y-46992D01*
X21430Y-47033D01*
X21465Y-47068D01*
X21505Y-47096D01*
X21550Y-47115D01*
X21598Y-47125D01*
X21647Y-47125D01*
X21888Y-47125D01*
X21950Y-47063D01*
X21950Y-48604D01*
X21802Y-48664D01*
X21556Y-48825D01*
X21345Y-49031D01*
X21179Y-49274D01*
X21063Y-49544D01*
X21002Y-49832D01*
X20998Y-50126D01*
X21051Y-50415D01*
X21159Y-50689D01*
X21319Y-50936D01*
X21523Y-51148D01*
X21765Y-51316D01*
X22034Y-51433D01*
X22321Y-51497D01*
X22616Y-51503D01*
X22905Y-51452D01*
X23179Y-51345D01*
X23428Y-51188D01*
X23641Y-50985D01*
X23810Y-50745D01*
X23930Y-50476D01*
X23995Y-50189D01*
X24000Y-49853D01*
X24000Y-52175D01*
X21635Y-52175D01*
X20325Y-50865D01*
X20325Y-27325D01*
X26498Y-27325D01*
X26500Y-27325D01*
X26561Y-27319D01*
X26563Y-27319D01*
X26599Y-27307D01*
X26622Y-27301D01*
X26623Y-27300D01*
X26624Y-27300D01*
X26678Y-27272D01*
X26680Y-27271D01*
X26727Y-27232D01*
X26729Y-27231D01*
X26753Y-27200D01*
X26768Y-27184D01*
X26769Y-27182D01*
X26799Y-27128D01*
X26799Y-27127D01*
X26800Y-27126D01*
X26805Y-27109D01*
X26818Y-27068D01*
X26818Y-27065D01*
X26825Y-27005D01*
X26825Y-27002D01*
X26825Y-27000D01*
X26825Y-20325D01*
X50865Y-20325D01*
X52175Y-21635D01*
X52175Y-50865D01*
X52175Y-50865D01*
G37*
G54D22*
X52175Y-50865D02*
X51870Y-51170D01*
X51870Y-47024D01*
X51870Y-42976D01*
X51870Y-38224D01*
X51870Y-34776D01*
X51500Y-34776D01*
X51500Y-22353D01*
X51443Y-22064D01*
X51331Y-21792D01*
X51168Y-21547D01*
X50961Y-21339D01*
X50717Y-21174D01*
X50446Y-21060D01*
X50158Y-21001D01*
X49863Y-20999D01*
X49575Y-21054D01*
X49302Y-21164D01*
X49056Y-21325D01*
X48845Y-21531D01*
X48679Y-21774D01*
X48563Y-22044D01*
X48502Y-22332D01*
X48498Y-22626D01*
X48551Y-22915D01*
X48659Y-23189D01*
X48819Y-23436D01*
X49023Y-23648D01*
X49265Y-23816D01*
X49534Y-23933D01*
X49821Y-23997D01*
X50116Y-24003D01*
X50405Y-23952D01*
X50679Y-23845D01*
X50928Y-23688D01*
X51141Y-23485D01*
X51310Y-23245D01*
X51430Y-22976D01*
X51495Y-22689D01*
X51500Y-22353D01*
X51500Y-34776D01*
X51324Y-34776D01*
X51347Y-34742D01*
X51366Y-34697D01*
X51375Y-34649D01*
X51375Y-34362D01*
X51375Y-34138D01*
X51375Y-33851D01*
X51375Y-32189D01*
X51351Y-32069D01*
X51305Y-31955D01*
X51237Y-31853D01*
X51150Y-31766D01*
X51127Y-31750D01*
X51136Y-31745D01*
X51225Y-31661D01*
X51296Y-31560D01*
X51346Y-31448D01*
X51373Y-31329D01*
X51375Y-31189D01*
X51375Y-29652D01*
X51375Y-29603D01*
X51375Y-28851D01*
X51366Y-28803D01*
X51347Y-28758D01*
X51320Y-28717D01*
X51285Y-28682D01*
X51245Y-28654D01*
X51233Y-28649D01*
X51296Y-28560D01*
X51346Y-28448D01*
X51373Y-28329D01*
X51375Y-28189D01*
X51375Y-27152D01*
X51375Y-27103D01*
X51375Y-26351D01*
X51374Y-26345D01*
X51366Y-26303D01*
X51347Y-26258D01*
X51320Y-26217D01*
X51285Y-26182D01*
X51245Y-26154D01*
X51236Y-26150D01*
X51264Y-26123D01*
X51233Y-26092D01*
X51283Y-26075D01*
X51336Y-25966D01*
X51367Y-25848D01*
X51374Y-25726D01*
X51357Y-25605D01*
X51317Y-25490D01*
X51283Y-25425D01*
X51181Y-25389D01*
X51111Y-25459D01*
X51111Y-25319D01*
X51075Y-25217D01*
X50966Y-25164D01*
X50848Y-25133D01*
X50726Y-25126D01*
X50605Y-25143D01*
X50490Y-25183D01*
X50425Y-25217D01*
X50389Y-25319D01*
X50750Y-25679D01*
X51111Y-25319D01*
X51111Y-25459D01*
X50821Y-25750D01*
X50750Y-25821D01*
X50679Y-25750D01*
X50644Y-25715D01*
X50319Y-25389D01*
X50217Y-25425D01*
X50164Y-25534D01*
X50133Y-25652D01*
X50126Y-25774D01*
X50143Y-25895D01*
X50183Y-26010D01*
X50217Y-26075D01*
X50266Y-26092D01*
X50236Y-26123D01*
X50263Y-26150D01*
X50258Y-26153D01*
X50217Y-26180D01*
X50182Y-26215D01*
X50154Y-26255D01*
X50135Y-26300D01*
X50125Y-26348D01*
X50125Y-26397D01*
X50125Y-27149D01*
X50134Y-27197D01*
X50153Y-27242D01*
X50180Y-27283D01*
X50215Y-27318D01*
X50255Y-27346D01*
X50300Y-27365D01*
X50348Y-27375D01*
X50397Y-27375D01*
X51149Y-27375D01*
X51197Y-27366D01*
X51242Y-27347D01*
X51283Y-27320D01*
X51318Y-27285D01*
X51346Y-27245D01*
X51365Y-27200D01*
X51375Y-27152D01*
X51375Y-28189D01*
X51351Y-28069D01*
X51305Y-27955D01*
X51237Y-27853D01*
X51150Y-27766D01*
X51049Y-27698D01*
X50936Y-27650D01*
X50816Y-27625D01*
X50693Y-27625D01*
X50573Y-27648D01*
X50459Y-27693D01*
X50357Y-27760D01*
X50269Y-27846D01*
X50200Y-27947D01*
X50152Y-28060D01*
X50126Y-28180D01*
X50124Y-28302D01*
X50146Y-28423D01*
X50191Y-28537D01*
X50258Y-28640D01*
X50266Y-28649D01*
X50258Y-28653D01*
X50217Y-28680D01*
X50182Y-28715D01*
X50154Y-28755D01*
X50135Y-28800D01*
X50125Y-28848D01*
X50125Y-28897D01*
X50125Y-29649D01*
X50134Y-29697D01*
X50153Y-29742D01*
X50180Y-29783D01*
X50215Y-29818D01*
X50255Y-29846D01*
X50300Y-29865D01*
X50348Y-29875D01*
X50397Y-29875D01*
X51149Y-29875D01*
X51197Y-29866D01*
X51242Y-29847D01*
X51283Y-29820D01*
X51318Y-29785D01*
X51346Y-29745D01*
X51365Y-29700D01*
X51375Y-29652D01*
X51375Y-31189D01*
X51351Y-31069D01*
X51305Y-30955D01*
X51237Y-30853D01*
X51150Y-30766D01*
X51049Y-30698D01*
X50936Y-30650D01*
X50816Y-30625D01*
X50693Y-30625D01*
X50573Y-30648D01*
X50459Y-30693D01*
X50357Y-30760D01*
X50269Y-30846D01*
X50200Y-30947D01*
X50152Y-31060D01*
X50126Y-31180D01*
X50124Y-31302D01*
X50146Y-31423D01*
X50191Y-31537D01*
X50258Y-31640D01*
X50343Y-31728D01*
X50373Y-31749D01*
X50357Y-31760D01*
X50269Y-31846D01*
X50200Y-31947D01*
X50152Y-32060D01*
X50126Y-32180D01*
X50124Y-32302D01*
X50146Y-32423D01*
X50191Y-32537D01*
X50258Y-32640D01*
X50343Y-32728D01*
X50405Y-32771D01*
X50389Y-32819D01*
X50750Y-33179D01*
X51111Y-32819D01*
X51094Y-32771D01*
X51136Y-32745D01*
X51225Y-32661D01*
X51296Y-32560D01*
X51346Y-32448D01*
X51373Y-32329D01*
X51375Y-32189D01*
X51375Y-33851D01*
X51374Y-33845D01*
X51366Y-33803D01*
X51347Y-33758D01*
X51320Y-33717D01*
X51285Y-33682D01*
X51245Y-33654D01*
X51236Y-33650D01*
X51264Y-33623D01*
X51233Y-33592D01*
X51283Y-33575D01*
X51336Y-33466D01*
X51367Y-33348D01*
X51374Y-33226D01*
X51357Y-33105D01*
X51317Y-32990D01*
X51283Y-32925D01*
X51181Y-32889D01*
X50821Y-33250D01*
X50750Y-33321D01*
X50679Y-33250D01*
X50644Y-33215D01*
X50319Y-32889D01*
X50217Y-32925D01*
X50164Y-33034D01*
X50133Y-33152D01*
X50126Y-33274D01*
X50143Y-33395D01*
X50183Y-33510D01*
X50217Y-33575D01*
X50266Y-33592D01*
X50236Y-33623D01*
X50263Y-33650D01*
X50255Y-33654D01*
X50215Y-33682D01*
X50180Y-33717D01*
X50153Y-33758D01*
X50134Y-33803D01*
X50125Y-33851D01*
X50125Y-34138D01*
X50187Y-34200D01*
X50650Y-34200D01*
X50700Y-34200D01*
X50800Y-34200D01*
X50850Y-34200D01*
X51313Y-34200D01*
X51375Y-34138D01*
X51375Y-34362D01*
X51313Y-34300D01*
X50850Y-34300D01*
X50800Y-34300D01*
X50700Y-34300D01*
X50650Y-34300D01*
X50187Y-34300D01*
X50125Y-34362D01*
X50125Y-34649D01*
X50134Y-34697D01*
X50153Y-34742D01*
X50175Y-34776D01*
X50010Y-34776D01*
X50010Y-38224D01*
X51870Y-38224D01*
X51870Y-42976D01*
X50875Y-42976D01*
X50875Y-42652D01*
X50875Y-42603D01*
X50875Y-41851D01*
X50866Y-41803D01*
X50847Y-41758D01*
X50820Y-41717D01*
X50785Y-41682D01*
X50745Y-41654D01*
X50733Y-41649D01*
X50796Y-41560D01*
X50846Y-41448D01*
X50873Y-41329D01*
X50875Y-41189D01*
X50851Y-41069D01*
X50805Y-40955D01*
X50737Y-40853D01*
X50650Y-40766D01*
X50549Y-40698D01*
X50436Y-40650D01*
X50316Y-40625D01*
X50193Y-40625D01*
X50073Y-40648D01*
X49959Y-40693D01*
X49857Y-40760D01*
X49769Y-40846D01*
X49700Y-40947D01*
X49652Y-41060D01*
X49626Y-41180D01*
X49624Y-41302D01*
X49646Y-41423D01*
X49691Y-41537D01*
X49758Y-41640D01*
X49766Y-41649D01*
X49758Y-41653D01*
X49717Y-41680D01*
X49682Y-41715D01*
X49654Y-41755D01*
X49635Y-41800D01*
X49625Y-41848D01*
X49625Y-41897D01*
X49625Y-42649D01*
X49634Y-42697D01*
X49653Y-42742D01*
X49680Y-42783D01*
X49715Y-42818D01*
X49755Y-42846D01*
X49800Y-42865D01*
X49848Y-42875D01*
X49897Y-42875D01*
X50649Y-42875D01*
X50697Y-42866D01*
X50742Y-42847D01*
X50783Y-42820D01*
X50818Y-42785D01*
X50846Y-42745D01*
X50865Y-42700D01*
X50875Y-42652D01*
X50875Y-42976D01*
X50010Y-42976D01*
X50010Y-46666D01*
X49931Y-46639D01*
X49861Y-46709D01*
X49861Y-46569D01*
X49825Y-46467D01*
X49716Y-46414D01*
X49598Y-46383D01*
X49476Y-46376D01*
X49375Y-46390D01*
X49375Y-44439D01*
X49351Y-44319D01*
X49305Y-44205D01*
X49237Y-44103D01*
X49150Y-44016D01*
X49049Y-43948D01*
X48936Y-43900D01*
X48816Y-43875D01*
X48803Y-43875D01*
X48919Y-43855D01*
X49033Y-43811D01*
X49136Y-43745D01*
X49225Y-43661D01*
X49296Y-43560D01*
X49346Y-43448D01*
X49373Y-43329D01*
X49375Y-43189D01*
X49375Y-40189D01*
X49351Y-40069D01*
X49305Y-39955D01*
X49237Y-39853D01*
X49150Y-39766D01*
X49049Y-39698D01*
X48936Y-39650D01*
X48816Y-39625D01*
X48803Y-39625D01*
X48919Y-39605D01*
X49033Y-39561D01*
X49136Y-39495D01*
X49225Y-39411D01*
X49296Y-39310D01*
X49346Y-39198D01*
X49373Y-39079D01*
X49375Y-38939D01*
X49374Y-38934D01*
X49374Y-37726D01*
X49367Y-37676D01*
X49367Y-26120D01*
X49367Y-24260D01*
X44633Y-24260D01*
X44633Y-26120D01*
X44690Y-26120D01*
X44965Y-26394D01*
X45000Y-26429D01*
X45071Y-26500D01*
X45106Y-26535D01*
X45431Y-26861D01*
X45533Y-26825D01*
X45586Y-26716D01*
X45617Y-26598D01*
X45624Y-26476D01*
X45607Y-26355D01*
X45567Y-26240D01*
X45533Y-26175D01*
X45483Y-26157D01*
X45514Y-26127D01*
X45507Y-26120D01*
X47502Y-26120D01*
X47450Y-26197D01*
X47402Y-26310D01*
X47376Y-26430D01*
X47374Y-26552D01*
X47396Y-26673D01*
X47441Y-26787D01*
X47508Y-26890D01*
X47593Y-26978D01*
X47693Y-27048D01*
X47806Y-27097D01*
X47925Y-27124D01*
X48048Y-27126D01*
X48169Y-27105D01*
X48283Y-27061D01*
X48386Y-26995D01*
X48475Y-26911D01*
X48546Y-26810D01*
X48596Y-26698D01*
X48623Y-26579D01*
X48625Y-26439D01*
X48601Y-26319D01*
X48555Y-26205D01*
X48498Y-26120D01*
X49367Y-26120D01*
X49367Y-37676D01*
X49357Y-37605D01*
X49317Y-37490D01*
X49317Y-30120D01*
X49317Y-28260D01*
X47375Y-28260D01*
X47375Y-27439D01*
X47351Y-27319D01*
X47305Y-27205D01*
X47237Y-27103D01*
X47150Y-27016D01*
X47049Y-26948D01*
X46936Y-26900D01*
X46816Y-26875D01*
X46693Y-26875D01*
X46573Y-26898D01*
X46459Y-26943D01*
X46357Y-27010D01*
X46269Y-27096D01*
X46266Y-27100D01*
X45624Y-27100D01*
X45165Y-27100D01*
X45260Y-27067D01*
X45325Y-27033D01*
X45361Y-26931D01*
X45000Y-26571D01*
X44929Y-26641D01*
X44929Y-26500D01*
X44569Y-26139D01*
X44467Y-26175D01*
X44414Y-26284D01*
X44383Y-26402D01*
X44376Y-26524D01*
X44393Y-26645D01*
X44433Y-26760D01*
X44467Y-26825D01*
X44569Y-26861D01*
X44929Y-26500D01*
X44929Y-26641D01*
X44639Y-26931D01*
X44675Y-27033D01*
X44784Y-27086D01*
X44837Y-27100D01*
X43075Y-27100D01*
X43075Y-22370D01*
X43025Y-22115D01*
X42925Y-21875D01*
X42782Y-21658D01*
X42599Y-21474D01*
X42383Y-21329D01*
X42144Y-21228D01*
X41889Y-21176D01*
X41629Y-21174D01*
X41374Y-21223D01*
X41133Y-21320D01*
X40916Y-21462D01*
X40730Y-21644D01*
X40583Y-21859D01*
X40481Y-22098D01*
X40427Y-22352D01*
X40423Y-22611D01*
X40470Y-22867D01*
X40566Y-23109D01*
X40707Y-23327D01*
X40887Y-23514D01*
X41101Y-23662D01*
X41339Y-23766D01*
X41592Y-23822D01*
X41852Y-23827D01*
X42108Y-23782D01*
X42350Y-23688D01*
X42570Y-23549D01*
X42758Y-23370D01*
X42908Y-23158D01*
X43013Y-22920D01*
X43071Y-22667D01*
X43075Y-22370D01*
X43075Y-27100D01*
X41915Y-27100D01*
X41287Y-26471D01*
X41283Y-26467D01*
X38650Y-23834D01*
X38650Y-23545D01*
X38667Y-23535D01*
X38763Y-23443D01*
X38840Y-23335D01*
X38893Y-23214D01*
X38923Y-23085D01*
X38924Y-22990D01*
X41429Y-25494D01*
X41402Y-25560D01*
X41376Y-25680D01*
X41374Y-25802D01*
X41396Y-25923D01*
X41441Y-26037D01*
X41508Y-26140D01*
X41593Y-26228D01*
X41693Y-26298D01*
X41806Y-26347D01*
X41925Y-26374D01*
X42048Y-26376D01*
X42169Y-26355D01*
X42283Y-26311D01*
X42386Y-26245D01*
X42475Y-26161D01*
X42546Y-26060D01*
X42596Y-25948D01*
X42623Y-25829D01*
X42625Y-25689D01*
X42601Y-25569D01*
X42555Y-25455D01*
X42487Y-25353D01*
X42400Y-25266D01*
X42299Y-25198D01*
X42236Y-25171D01*
X38925Y-21859D01*
X38925Y-21551D01*
X38916Y-21503D01*
X38897Y-21458D01*
X38870Y-21417D01*
X38835Y-21382D01*
X38795Y-21354D01*
X38750Y-21335D01*
X38702Y-21325D01*
X38653Y-21325D01*
X37801Y-21325D01*
X37753Y-21334D01*
X37708Y-21353D01*
X37667Y-21380D01*
X37632Y-21415D01*
X37618Y-21434D01*
X37573Y-21403D01*
X37451Y-21352D01*
X37321Y-21326D01*
X37189Y-21325D01*
X37059Y-21349D01*
X36936Y-21399D01*
X36825Y-21471D01*
X36749Y-21545D01*
X36682Y-21478D01*
X36573Y-21403D01*
X36451Y-21352D01*
X36321Y-21326D01*
X36189Y-21325D01*
X36059Y-21349D01*
X35936Y-21399D01*
X35825Y-21471D01*
X35749Y-21545D01*
X35682Y-21478D01*
X35573Y-21403D01*
X35451Y-21352D01*
X35321Y-21326D01*
X35189Y-21325D01*
X35059Y-21349D01*
X34936Y-21399D01*
X34825Y-21471D01*
X34749Y-21545D01*
X34682Y-21478D01*
X34650Y-21455D01*
X34650Y-21150D01*
X34744Y-21150D01*
X34750Y-21150D01*
X34994Y-21150D01*
X35000Y-21150D01*
X43584Y-21150D01*
X45375Y-22941D01*
X45374Y-23052D01*
X45396Y-23173D01*
X45441Y-23287D01*
X45508Y-23390D01*
X45593Y-23478D01*
X45693Y-23548D01*
X45806Y-23597D01*
X45925Y-23624D01*
X46048Y-23626D01*
X46169Y-23605D01*
X46283Y-23561D01*
X46386Y-23495D01*
X46475Y-23411D01*
X46546Y-23310D01*
X46596Y-23198D01*
X46623Y-23079D01*
X46625Y-22939D01*
X46601Y-22819D01*
X46555Y-22705D01*
X46487Y-22603D01*
X46400Y-22516D01*
X46299Y-22448D01*
X46186Y-22400D01*
X46066Y-22375D01*
X45943Y-22375D01*
X45941Y-22375D01*
X44036Y-20470D01*
X44033Y-20467D01*
X44016Y-20453D01*
X43976Y-20420D01*
X43972Y-20418D01*
X43908Y-20382D01*
X43904Y-20381D01*
X43833Y-20359D01*
X43831Y-20358D01*
X43829Y-20358D01*
X43791Y-20354D01*
X43756Y-20350D01*
X43751Y-20350D01*
X43750Y-20350D01*
X35006Y-20350D01*
X35000Y-20350D01*
X34756Y-20350D01*
X34750Y-20350D01*
X34256Y-20350D01*
X34253Y-20350D01*
X34250Y-20350D01*
X29504Y-20350D01*
X29500Y-20350D01*
X29422Y-20358D01*
X29357Y-20377D01*
X29351Y-20379D01*
X29350Y-20379D01*
X29348Y-20380D01*
X29279Y-20417D01*
X29218Y-20466D01*
X29217Y-20467D01*
X29216Y-20468D01*
X26970Y-22714D01*
X26967Y-22717D01*
X26953Y-22733D01*
X26920Y-22774D01*
X26882Y-22842D01*
X26859Y-22917D01*
X26858Y-22918D01*
X26858Y-22921D01*
X26854Y-22958D01*
X26850Y-22994D01*
X26850Y-22999D01*
X26850Y-23000D01*
X26850Y-27584D01*
X25720Y-28713D01*
X25720Y-28714D01*
X25719Y-28714D01*
X25717Y-28717D01*
X25703Y-28733D01*
X25670Y-28774D01*
X25632Y-28842D01*
X25609Y-28917D01*
X25608Y-28918D01*
X25608Y-28921D01*
X25604Y-28958D01*
X25600Y-28994D01*
X25600Y-28999D01*
X25600Y-29000D01*
X25600Y-43246D01*
X25600Y-43250D01*
X25602Y-43278D01*
X25607Y-43324D01*
X25607Y-43327D01*
X25608Y-43328D01*
X25610Y-43338D01*
X25628Y-43398D01*
X25629Y-43401D01*
X25630Y-43402D01*
X25638Y-43416D01*
X25665Y-43468D01*
X25666Y-43469D01*
X25667Y-43471D01*
X25684Y-43493D01*
X25713Y-43529D01*
X25716Y-43532D01*
X25717Y-43533D01*
X28464Y-46280D01*
X28467Y-46283D01*
X28483Y-46296D01*
X28524Y-46330D01*
X28528Y-46332D01*
X28592Y-46368D01*
X28596Y-46369D01*
X28667Y-46391D01*
X28668Y-46391D01*
X28671Y-46392D01*
X28708Y-46395D01*
X28744Y-46400D01*
X28749Y-46400D01*
X28750Y-46400D01*
X39834Y-46400D01*
X40600Y-47166D01*
X40600Y-47494D01*
X40600Y-47497D01*
X40600Y-47500D01*
X40600Y-47834D01*
X39721Y-48713D01*
X39717Y-48717D01*
X38922Y-49511D01*
X38925Y-49477D01*
X38907Y-49347D01*
X38864Y-49222D01*
X38824Y-49145D01*
X38717Y-49104D01*
X38646Y-49175D01*
X38646Y-49033D01*
X38605Y-48926D01*
X38486Y-48868D01*
X38359Y-48834D01*
X38227Y-48825D01*
X38097Y-48843D01*
X37972Y-48886D01*
X37895Y-48926D01*
X37854Y-49033D01*
X38250Y-49429D01*
X38646Y-49033D01*
X38646Y-49175D01*
X38356Y-49465D01*
X38321Y-49500D01*
X38250Y-49571D01*
X37896Y-49924D01*
X37825Y-49971D01*
X37749Y-50045D01*
X37703Y-49999D01*
X37763Y-49943D01*
X37830Y-49848D01*
X38179Y-49500D01*
X37825Y-49146D01*
X37776Y-49071D01*
X37682Y-48978D01*
X37573Y-48903D01*
X37451Y-48852D01*
X37321Y-48826D01*
X37189Y-48825D01*
X37059Y-48849D01*
X36936Y-48899D01*
X36881Y-48934D01*
X37416Y-48400D01*
X38496Y-48400D01*
X38500Y-48400D01*
X38528Y-48397D01*
X38574Y-48393D01*
X38577Y-48392D01*
X38578Y-48392D01*
X38588Y-48389D01*
X38648Y-48372D01*
X38651Y-48370D01*
X38652Y-48370D01*
X38666Y-48362D01*
X38718Y-48335D01*
X38719Y-48333D01*
X38721Y-48333D01*
X38743Y-48315D01*
X38779Y-48287D01*
X38782Y-48284D01*
X38783Y-48283D01*
X38941Y-48124D01*
X39048Y-48126D01*
X39169Y-48105D01*
X39283Y-48061D01*
X39386Y-47995D01*
X39475Y-47911D01*
X39546Y-47810D01*
X39596Y-47698D01*
X39623Y-47579D01*
X39625Y-47439D01*
X39601Y-47319D01*
X39555Y-47205D01*
X39487Y-47103D01*
X39400Y-47016D01*
X39299Y-46948D01*
X39186Y-46900D01*
X39066Y-46875D01*
X38943Y-46875D01*
X38823Y-46898D01*
X38709Y-46943D01*
X38607Y-47010D01*
X38519Y-47096D01*
X38450Y-47197D01*
X38402Y-47310D01*
X38376Y-47430D01*
X38374Y-47552D01*
X38375Y-47558D01*
X38334Y-47600D01*
X37254Y-47600D01*
X37250Y-47600D01*
X37222Y-47602D01*
X37176Y-47607D01*
X37172Y-47607D01*
X37172Y-47608D01*
X37165Y-47610D01*
X37101Y-47628D01*
X37032Y-47665D01*
X37030Y-47666D01*
X37029Y-47667D01*
X37007Y-47684D01*
X36971Y-47713D01*
X36968Y-47716D01*
X36967Y-47717D01*
X35970Y-48714D01*
X35967Y-48717D01*
X35953Y-48733D01*
X35920Y-48774D01*
X35882Y-48842D01*
X35859Y-48917D01*
X35858Y-48918D01*
X35858Y-48921D01*
X35854Y-48951D01*
X35825Y-48971D01*
X35749Y-49045D01*
X35682Y-48978D01*
X35573Y-48903D01*
X35451Y-48852D01*
X35321Y-48826D01*
X35189Y-48825D01*
X35059Y-48849D01*
X34936Y-48899D01*
X34825Y-48971D01*
X34749Y-49045D01*
X34682Y-48978D01*
X34573Y-48903D01*
X34451Y-48852D01*
X34321Y-48826D01*
X34189Y-48825D01*
X34059Y-48849D01*
X33936Y-48899D01*
X33825Y-48971D01*
X33731Y-49064D01*
X33656Y-49173D01*
X33604Y-49295D01*
X33576Y-49424D01*
X33574Y-49557D01*
X33598Y-49687D01*
X33647Y-49810D01*
X33684Y-49868D01*
X33667Y-49880D01*
X33632Y-49915D01*
X33604Y-49955D01*
X33585Y-50000D01*
X33575Y-50048D01*
X33575Y-50097D01*
X33575Y-50949D01*
X33584Y-50997D01*
X33603Y-51042D01*
X33630Y-51083D01*
X33665Y-51118D01*
X33705Y-51146D01*
X33750Y-51165D01*
X33798Y-51175D01*
X33847Y-51175D01*
X34699Y-51175D01*
X34747Y-51166D01*
X34792Y-51147D01*
X34833Y-51120D01*
X34868Y-51085D01*
X34881Y-51065D01*
X34919Y-51092D01*
X35040Y-51145D01*
X35170Y-51173D01*
X35302Y-51176D01*
X35432Y-51153D01*
X35556Y-51105D01*
X35667Y-51035D01*
X35750Y-50954D01*
X35810Y-51016D01*
X35919Y-51092D01*
X36040Y-51145D01*
X36170Y-51173D01*
X36302Y-51176D01*
X36432Y-51153D01*
X36556Y-51105D01*
X36667Y-51035D01*
X36750Y-50954D01*
X36810Y-51016D01*
X36919Y-51092D01*
X37040Y-51145D01*
X37170Y-51173D01*
X37302Y-51176D01*
X37432Y-51153D01*
X37556Y-51105D01*
X37667Y-51035D01*
X37750Y-50954D01*
X37810Y-51016D01*
X37919Y-51092D01*
X38040Y-51145D01*
X38170Y-51173D01*
X38302Y-51176D01*
X38432Y-51153D01*
X38556Y-51105D01*
X38667Y-51035D01*
X38763Y-50943D01*
X38840Y-50835D01*
X38893Y-50714D01*
X38905Y-50660D01*
X40279Y-49287D01*
X40283Y-49283D01*
X41280Y-48286D01*
X41283Y-48283D01*
X41296Y-48266D01*
X41330Y-48226D01*
X41332Y-48222D01*
X41368Y-48158D01*
X41369Y-48154D01*
X41381Y-48114D01*
X41425Y-48124D01*
X41548Y-48126D01*
X41669Y-48105D01*
X41783Y-48061D01*
X41886Y-47995D01*
X41975Y-47911D01*
X42046Y-47810D01*
X42096Y-47698D01*
X42123Y-47579D01*
X42125Y-47439D01*
X42101Y-47319D01*
X42055Y-47205D01*
X41987Y-47103D01*
X41900Y-47016D01*
X41799Y-46948D01*
X41686Y-46900D01*
X41566Y-46875D01*
X41443Y-46875D01*
X41381Y-46886D01*
X41372Y-46851D01*
X41370Y-46848D01*
X41335Y-46782D01*
X41333Y-46780D01*
X41333Y-46779D01*
X41315Y-46757D01*
X41287Y-46721D01*
X41284Y-46718D01*
X41283Y-46717D01*
X40875Y-46309D01*
X40875Y-36689D01*
X40851Y-36569D01*
X40805Y-36455D01*
X40737Y-36353D01*
X40650Y-36266D01*
X40549Y-36198D01*
X40436Y-36150D01*
X40316Y-36125D01*
X40193Y-36125D01*
X40073Y-36148D01*
X39959Y-36193D01*
X39875Y-36248D01*
X39875Y-34189D01*
X39851Y-34069D01*
X39805Y-33955D01*
X39737Y-33853D01*
X39650Y-33766D01*
X39549Y-33698D01*
X39436Y-33650D01*
X39316Y-33625D01*
X39193Y-33625D01*
X39073Y-33648D01*
X38959Y-33693D01*
X38857Y-33760D01*
X38769Y-33846D01*
X38700Y-33947D01*
X38652Y-34060D01*
X38626Y-34180D01*
X38624Y-34302D01*
X38646Y-34423D01*
X38691Y-34537D01*
X38758Y-34640D01*
X38843Y-34728D01*
X38943Y-34798D01*
X39056Y-34847D01*
X39175Y-34874D01*
X39298Y-34876D01*
X39419Y-34855D01*
X39533Y-34811D01*
X39636Y-34745D01*
X39725Y-34661D01*
X39796Y-34560D01*
X39846Y-34448D01*
X39873Y-34329D01*
X39875Y-34189D01*
X39875Y-36248D01*
X39857Y-36260D01*
X39769Y-36346D01*
X39700Y-36447D01*
X39652Y-36560D01*
X39626Y-36680D01*
X39624Y-36802D01*
X39646Y-36923D01*
X39691Y-37037D01*
X39758Y-37140D01*
X39843Y-37228D01*
X39943Y-37298D01*
X40056Y-37347D01*
X40175Y-37374D01*
X40298Y-37376D01*
X40419Y-37355D01*
X40533Y-37311D01*
X40636Y-37245D01*
X40725Y-37161D01*
X40796Y-37060D01*
X40846Y-36948D01*
X40873Y-36829D01*
X40875Y-36689D01*
X40875Y-46309D01*
X40286Y-45720D01*
X40283Y-45717D01*
X40266Y-45703D01*
X40226Y-45670D01*
X40222Y-45668D01*
X40158Y-45632D01*
X40154Y-45631D01*
X40083Y-45609D01*
X40081Y-45608D01*
X40079Y-45608D01*
X40041Y-45604D01*
X40006Y-45600D01*
X40001Y-45600D01*
X40000Y-45600D01*
X39950Y-45600D01*
X39950Y-41587D01*
X39950Y-41538D01*
X39950Y-40916D01*
X39941Y-40868D01*
X39922Y-40823D01*
X39895Y-40782D01*
X39860Y-40747D01*
X39820Y-40719D01*
X39775Y-40700D01*
X39735Y-40691D01*
X39747Y-40684D01*
X39825Y-40606D01*
X39886Y-40516D01*
X39928Y-40415D01*
X39950Y-40308D01*
X39950Y-40199D01*
X39950Y-38308D01*
X39950Y-38199D01*
X39930Y-38092D01*
X39889Y-37990D01*
X39829Y-37899D01*
X39752Y-37821D01*
X39662Y-37759D01*
X39562Y-37716D01*
X39455Y-37694D01*
X39346Y-37692D01*
X39052Y-37693D01*
X38945Y-37714D01*
X38844Y-37756D01*
X38753Y-37816D01*
X38675Y-37894D01*
X38614Y-37984D01*
X38572Y-38085D01*
X38550Y-38192D01*
X38550Y-38301D01*
X38570Y-38408D01*
X38611Y-38510D01*
X38671Y-38601D01*
X38748Y-38679D01*
X38838Y-38741D01*
X38860Y-38750D01*
X38784Y-38795D01*
X38702Y-38867D01*
X38635Y-38954D01*
X38587Y-39052D01*
X38568Y-39113D01*
X38615Y-39200D01*
X39150Y-39200D01*
X39200Y-39200D01*
X39300Y-39200D01*
X39350Y-39200D01*
X39885Y-39200D01*
X39932Y-39113D01*
X39913Y-39052D01*
X39865Y-38954D01*
X39798Y-38867D01*
X39716Y-38795D01*
X39639Y-38750D01*
X39656Y-38744D01*
X39747Y-38684D01*
X39825Y-38606D01*
X39886Y-38516D01*
X39928Y-38415D01*
X39950Y-38308D01*
X39950Y-40199D01*
X39930Y-40092D01*
X39889Y-39990D01*
X39829Y-39899D01*
X39752Y-39821D01*
X39662Y-39759D01*
X39639Y-39749D01*
X39716Y-39705D01*
X39798Y-39633D01*
X39865Y-39546D01*
X39913Y-39448D01*
X39932Y-39387D01*
X39885Y-39300D01*
X39350Y-39300D01*
X39300Y-39300D01*
X39200Y-39300D01*
X39150Y-39300D01*
X38615Y-39300D01*
X38568Y-39387D01*
X38587Y-39448D01*
X38635Y-39546D01*
X38702Y-39633D01*
X38784Y-39705D01*
X38860Y-39749D01*
X38844Y-39756D01*
X38753Y-39816D01*
X38675Y-39894D01*
X38614Y-39984D01*
X38572Y-40085D01*
X38550Y-40192D01*
X38550Y-40301D01*
X38570Y-40408D01*
X38611Y-40510D01*
X38671Y-40601D01*
X38748Y-40679D01*
X38766Y-40691D01*
X38728Y-40699D01*
X38683Y-40718D01*
X38642Y-40745D01*
X38607Y-40780D01*
X38579Y-40820D01*
X38560Y-40865D01*
X38550Y-40913D01*
X38550Y-40962D01*
X38550Y-41584D01*
X38559Y-41632D01*
X38578Y-41677D01*
X38605Y-41718D01*
X38640Y-41753D01*
X38680Y-41781D01*
X38725Y-41800D01*
X38773Y-41810D01*
X38822Y-41810D01*
X39724Y-41810D01*
X39772Y-41801D01*
X39817Y-41782D01*
X39858Y-41755D01*
X39893Y-41720D01*
X39921Y-41680D01*
X39940Y-41635D01*
X39950Y-41587D01*
X39950Y-45600D01*
X38875Y-45600D01*
X38875Y-44189D01*
X38875Y-42439D01*
X38851Y-42319D01*
X38805Y-42205D01*
X38737Y-42103D01*
X38650Y-42016D01*
X38549Y-41948D01*
X38436Y-41900D01*
X38316Y-41875D01*
X38193Y-41875D01*
X38073Y-41898D01*
X37959Y-41943D01*
X37875Y-41998D01*
X37875Y-36689D01*
X37851Y-36569D01*
X37805Y-36455D01*
X37737Y-36353D01*
X37650Y-36266D01*
X37549Y-36198D01*
X37436Y-36150D01*
X37316Y-36125D01*
X37193Y-36125D01*
X37073Y-36148D01*
X36959Y-36193D01*
X36875Y-36248D01*
X36875Y-34189D01*
X36851Y-34069D01*
X36805Y-33955D01*
X36737Y-33853D01*
X36650Y-33766D01*
X36549Y-33698D01*
X36436Y-33650D01*
X36316Y-33625D01*
X36193Y-33625D01*
X36073Y-33648D01*
X35959Y-33693D01*
X35857Y-33760D01*
X35769Y-33846D01*
X35700Y-33947D01*
X35652Y-34060D01*
X35626Y-34180D01*
X35624Y-34302D01*
X35646Y-34423D01*
X35691Y-34537D01*
X35758Y-34640D01*
X35843Y-34728D01*
X35943Y-34798D01*
X36056Y-34847D01*
X36175Y-34874D01*
X36298Y-34876D01*
X36419Y-34855D01*
X36533Y-34811D01*
X36636Y-34745D01*
X36725Y-34661D01*
X36796Y-34560D01*
X36846Y-34448D01*
X36873Y-34329D01*
X36875Y-34189D01*
X36875Y-36248D01*
X36857Y-36260D01*
X36769Y-36346D01*
X36700Y-36447D01*
X36652Y-36560D01*
X36626Y-36680D01*
X36624Y-36802D01*
X36646Y-36923D01*
X36691Y-37037D01*
X36758Y-37140D01*
X36843Y-37228D01*
X36943Y-37298D01*
X37056Y-37347D01*
X37175Y-37374D01*
X37298Y-37376D01*
X37419Y-37355D01*
X37533Y-37311D01*
X37636Y-37245D01*
X37725Y-37161D01*
X37796Y-37060D01*
X37846Y-36948D01*
X37873Y-36829D01*
X37875Y-36689D01*
X37875Y-41998D01*
X37857Y-42010D01*
X37769Y-42096D01*
X37750Y-42123D01*
X37737Y-42103D01*
X37650Y-42016D01*
X37549Y-41948D01*
X37436Y-41900D01*
X37316Y-41875D01*
X37193Y-41875D01*
X37073Y-41898D01*
X36959Y-41943D01*
X36950Y-41948D01*
X36950Y-41308D01*
X36950Y-41199D01*
X36930Y-41092D01*
X36889Y-40990D01*
X36829Y-40899D01*
X36752Y-40821D01*
X36662Y-40759D01*
X36641Y-40750D01*
X36656Y-40744D01*
X36747Y-40684D01*
X36825Y-40606D01*
X36886Y-40516D01*
X36928Y-40415D01*
X36950Y-40308D01*
X36950Y-40199D01*
X36930Y-40092D01*
X36889Y-39990D01*
X36829Y-39899D01*
X36752Y-39821D01*
X36662Y-39759D01*
X36641Y-39750D01*
X36656Y-39744D01*
X36747Y-39684D01*
X36825Y-39606D01*
X36886Y-39516D01*
X36928Y-39415D01*
X36950Y-39308D01*
X36950Y-39199D01*
X36930Y-39092D01*
X36889Y-38990D01*
X36829Y-38899D01*
X36752Y-38821D01*
X36662Y-38759D01*
X36641Y-38750D01*
X36656Y-38744D01*
X36747Y-38684D01*
X36825Y-38606D01*
X36886Y-38516D01*
X36928Y-38415D01*
X36950Y-38308D01*
X36950Y-38199D01*
X36930Y-38092D01*
X36889Y-37990D01*
X36829Y-37899D01*
X36752Y-37821D01*
X36662Y-37759D01*
X36562Y-37716D01*
X36455Y-37694D01*
X36346Y-37692D01*
X36052Y-37693D01*
X35945Y-37714D01*
X35844Y-37756D01*
X35753Y-37816D01*
X35675Y-37894D01*
X35625Y-37967D01*
X35625Y-36189D01*
X35601Y-36069D01*
X35555Y-35955D01*
X35487Y-35853D01*
X35400Y-35766D01*
X35299Y-35698D01*
X35186Y-35650D01*
X35066Y-35625D01*
X34943Y-35625D01*
X34823Y-35648D01*
X34709Y-35693D01*
X34646Y-35734D01*
X34646Y-23467D01*
X34250Y-23071D01*
X34179Y-23142D01*
X34179Y-23000D01*
X33783Y-22604D01*
X33676Y-22645D01*
X33618Y-22764D01*
X33584Y-22891D01*
X33575Y-23023D01*
X33593Y-23153D01*
X33636Y-23278D01*
X33676Y-23355D01*
X33783Y-23396D01*
X34179Y-23000D01*
X34179Y-23142D01*
X33854Y-23467D01*
X33895Y-23574D01*
X34014Y-23632D01*
X34141Y-23666D01*
X34273Y-23675D01*
X34403Y-23657D01*
X34528Y-23614D01*
X34605Y-23574D01*
X34646Y-23467D01*
X34646Y-35734D01*
X34607Y-35760D01*
X34519Y-35846D01*
X34450Y-35947D01*
X34402Y-36060D01*
X34376Y-36180D01*
X34374Y-36302D01*
X34396Y-36423D01*
X34441Y-36537D01*
X34508Y-36640D01*
X34593Y-36728D01*
X34693Y-36798D01*
X34806Y-36847D01*
X34925Y-36874D01*
X35048Y-36876D01*
X35169Y-36855D01*
X35283Y-36811D01*
X35386Y-36745D01*
X35475Y-36661D01*
X35546Y-36560D01*
X35596Y-36448D01*
X35623Y-36329D01*
X35625Y-36189D01*
X35625Y-37967D01*
X35614Y-37984D01*
X35572Y-38085D01*
X35550Y-38192D01*
X35550Y-38301D01*
X35570Y-38408D01*
X35611Y-38510D01*
X35671Y-38601D01*
X35748Y-38679D01*
X35838Y-38741D01*
X35858Y-38749D01*
X35844Y-38756D01*
X35753Y-38816D01*
X35675Y-38894D01*
X35614Y-38984D01*
X35589Y-39041D01*
X35555Y-38955D01*
X35487Y-38853D01*
X35400Y-38766D01*
X35299Y-38698D01*
X35186Y-38650D01*
X35066Y-38625D01*
X34943Y-38625D01*
X34823Y-38648D01*
X34709Y-38693D01*
X34607Y-38760D01*
X34519Y-38846D01*
X34450Y-38947D01*
X34402Y-39060D01*
X34376Y-39180D01*
X34374Y-39302D01*
X34396Y-39423D01*
X34441Y-39537D01*
X34508Y-39640D01*
X34593Y-39728D01*
X34693Y-39798D01*
X34806Y-39847D01*
X34925Y-39874D01*
X35048Y-39876D01*
X35169Y-39855D01*
X35283Y-39811D01*
X35386Y-39745D01*
X35475Y-39661D01*
X35546Y-39560D01*
X35590Y-39459D01*
X35611Y-39510D01*
X35671Y-39601D01*
X35748Y-39679D01*
X35838Y-39741D01*
X35858Y-39749D01*
X35844Y-39756D01*
X35753Y-39816D01*
X35675Y-39894D01*
X35614Y-39984D01*
X35572Y-40085D01*
X35550Y-40192D01*
X35550Y-40301D01*
X35570Y-40408D01*
X35611Y-40510D01*
X35671Y-40601D01*
X35748Y-40679D01*
X35838Y-40741D01*
X35858Y-40749D01*
X35844Y-40756D01*
X35753Y-40816D01*
X35675Y-40894D01*
X35614Y-40984D01*
X35572Y-41085D01*
X35550Y-41192D01*
X35550Y-41301D01*
X35570Y-41408D01*
X35611Y-41510D01*
X35671Y-41601D01*
X35748Y-41679D01*
X35838Y-41741D01*
X35938Y-41784D01*
X36045Y-41806D01*
X36154Y-41808D01*
X36448Y-41807D01*
X36555Y-41786D01*
X36656Y-41744D01*
X36747Y-41684D01*
X36825Y-41606D01*
X36886Y-41516D01*
X36928Y-41415D01*
X36950Y-41308D01*
X36950Y-41948D01*
X36857Y-42010D01*
X36769Y-42096D01*
X36700Y-42197D01*
X36652Y-42310D01*
X36626Y-42430D01*
X36624Y-42552D01*
X36646Y-42673D01*
X36691Y-42787D01*
X36758Y-42890D01*
X36843Y-42978D01*
X36943Y-43048D01*
X37056Y-43097D01*
X37175Y-43124D01*
X37298Y-43126D01*
X37419Y-43105D01*
X37533Y-43061D01*
X37636Y-42995D01*
X37725Y-42911D01*
X37749Y-42876D01*
X37758Y-42890D01*
X37843Y-42978D01*
X37943Y-43048D01*
X38056Y-43097D01*
X38175Y-43124D01*
X38298Y-43126D01*
X38419Y-43105D01*
X38533Y-43061D01*
X38636Y-42995D01*
X38725Y-42911D01*
X38796Y-42810D01*
X38846Y-42698D01*
X38873Y-42579D01*
X38875Y-42439D01*
X38875Y-44189D01*
X38851Y-44069D01*
X38805Y-43955D01*
X38737Y-43853D01*
X38650Y-43766D01*
X38549Y-43698D01*
X38436Y-43650D01*
X38316Y-43625D01*
X38193Y-43625D01*
X38073Y-43648D01*
X37959Y-43693D01*
X37857Y-43760D01*
X37850Y-43766D01*
X37847Y-43758D01*
X37820Y-43717D01*
X37785Y-43682D01*
X37745Y-43654D01*
X37700Y-43635D01*
X37652Y-43625D01*
X37603Y-43625D01*
X36851Y-43625D01*
X36803Y-43634D01*
X36758Y-43653D01*
X36717Y-43680D01*
X36682Y-43715D01*
X36654Y-43755D01*
X36635Y-43800D01*
X36625Y-43848D01*
X36625Y-43897D01*
X36625Y-44649D01*
X36634Y-44697D01*
X36653Y-44742D01*
X36680Y-44783D01*
X36715Y-44818D01*
X36755Y-44846D01*
X36800Y-44865D01*
X36848Y-44875D01*
X36897Y-44875D01*
X37649Y-44875D01*
X37697Y-44866D01*
X37742Y-44847D01*
X37783Y-44820D01*
X37818Y-44785D01*
X37846Y-44745D01*
X37850Y-44733D01*
X37943Y-44798D01*
X38056Y-44847D01*
X38175Y-44874D01*
X38298Y-44876D01*
X38419Y-44855D01*
X38533Y-44811D01*
X38636Y-44745D01*
X38725Y-44661D01*
X38796Y-44560D01*
X38846Y-44448D01*
X38873Y-44329D01*
X38875Y-44189D01*
X38875Y-45600D01*
X34125Y-45600D01*
X34125Y-39189D01*
X34124Y-39184D01*
X34124Y-36226D01*
X34107Y-36105D01*
X34067Y-35990D01*
X34033Y-35925D01*
X33931Y-35889D01*
X33861Y-35959D01*
X33861Y-35819D01*
X33825Y-35717D01*
X33716Y-35664D01*
X33598Y-35633D01*
X33476Y-35626D01*
X33355Y-35643D01*
X33240Y-35683D01*
X33175Y-35717D01*
X33139Y-35819D01*
X33500Y-36179D01*
X33861Y-35819D01*
X33861Y-35959D01*
X33571Y-36250D01*
X33931Y-36611D01*
X34033Y-36575D01*
X34086Y-36466D01*
X34117Y-36348D01*
X34124Y-36226D01*
X34124Y-39184D01*
X34101Y-39069D01*
X34055Y-38955D01*
X33987Y-38853D01*
X33900Y-38766D01*
X33861Y-38739D01*
X33861Y-36681D01*
X33500Y-36321D01*
X33429Y-36391D01*
X33429Y-36250D01*
X33069Y-35889D01*
X32967Y-35925D01*
X32914Y-36034D01*
X32883Y-36152D01*
X32876Y-36274D01*
X32893Y-36395D01*
X32933Y-36510D01*
X32967Y-36575D01*
X33069Y-36611D01*
X33429Y-36250D01*
X33429Y-36391D01*
X33139Y-36681D01*
X33175Y-36783D01*
X33284Y-36836D01*
X33402Y-36867D01*
X33524Y-36874D01*
X33645Y-36857D01*
X33760Y-36817D01*
X33825Y-36783D01*
X33861Y-36681D01*
X33861Y-38739D01*
X33799Y-38698D01*
X33686Y-38650D01*
X33566Y-38625D01*
X33443Y-38625D01*
X33323Y-38648D01*
X33209Y-38693D01*
X33107Y-38760D01*
X33019Y-38846D01*
X32950Y-38947D01*
X32902Y-39060D01*
X32876Y-39180D01*
X32875Y-39241D01*
X32875Y-38689D01*
X32875Y-30152D01*
X32875Y-30103D01*
X32875Y-29351D01*
X32874Y-29345D01*
X32866Y-29303D01*
X32847Y-29258D01*
X32820Y-29217D01*
X32785Y-29182D01*
X32745Y-29154D01*
X32736Y-29150D01*
X32764Y-29123D01*
X32733Y-29092D01*
X32783Y-29075D01*
X32836Y-28966D01*
X32867Y-28848D01*
X32874Y-28726D01*
X32857Y-28605D01*
X32817Y-28490D01*
X32783Y-28425D01*
X32681Y-28389D01*
X32611Y-28459D01*
X32611Y-28319D01*
X32575Y-28217D01*
X32466Y-28164D01*
X32348Y-28133D01*
X32226Y-28126D01*
X32105Y-28143D01*
X32075Y-28153D01*
X32075Y-22370D01*
X32025Y-22115D01*
X31925Y-21875D01*
X31782Y-21658D01*
X31599Y-21474D01*
X31383Y-21329D01*
X31144Y-21228D01*
X30889Y-21176D01*
X30629Y-21174D01*
X30374Y-21223D01*
X30133Y-21320D01*
X29916Y-21462D01*
X29730Y-21644D01*
X29583Y-21859D01*
X29481Y-22098D01*
X29427Y-22352D01*
X29423Y-22611D01*
X29470Y-22867D01*
X29566Y-23109D01*
X29707Y-23327D01*
X29887Y-23514D01*
X30101Y-23662D01*
X30339Y-23766D01*
X30592Y-23822D01*
X30852Y-23827D01*
X31108Y-23782D01*
X31350Y-23688D01*
X31570Y-23549D01*
X31758Y-23370D01*
X31908Y-23158D01*
X32013Y-22920D01*
X32071Y-22667D01*
X32075Y-22370D01*
X32075Y-28153D01*
X31990Y-28183D01*
X31925Y-28217D01*
X31889Y-28319D01*
X32250Y-28679D01*
X32611Y-28319D01*
X32611Y-28459D01*
X32321Y-28750D01*
X32250Y-28821D01*
X32179Y-28750D01*
X32144Y-28715D01*
X31819Y-28389D01*
X31717Y-28425D01*
X31664Y-28534D01*
X31633Y-28652D01*
X31626Y-28774D01*
X31643Y-28895D01*
X31683Y-29010D01*
X31717Y-29075D01*
X31766Y-29092D01*
X31736Y-29123D01*
X31763Y-29150D01*
X31758Y-29153D01*
X31717Y-29180D01*
X31682Y-29215D01*
X31654Y-29255D01*
X31635Y-29300D01*
X31625Y-29348D01*
X31625Y-29397D01*
X31625Y-30149D01*
X31634Y-30197D01*
X31653Y-30242D01*
X31680Y-30283D01*
X31715Y-30318D01*
X31755Y-30346D01*
X31800Y-30365D01*
X31848Y-30375D01*
X31897Y-30375D01*
X32649Y-30375D01*
X32697Y-30366D01*
X32742Y-30347D01*
X32783Y-30320D01*
X32818Y-30285D01*
X32846Y-30245D01*
X32865Y-30200D01*
X32875Y-30152D01*
X32875Y-38689D01*
X32874Y-38684D01*
X32874Y-36726D01*
X32857Y-36605D01*
X32817Y-36490D01*
X32783Y-36425D01*
X32681Y-36389D01*
X32611Y-36459D01*
X32611Y-36319D01*
X32575Y-36217D01*
X32466Y-36164D01*
X32348Y-36133D01*
X32226Y-36126D01*
X32105Y-36143D01*
X31990Y-36183D01*
X31925Y-36217D01*
X31889Y-36319D01*
X32250Y-36679D01*
X32611Y-36319D01*
X32611Y-36459D01*
X32321Y-36750D01*
X32681Y-37111D01*
X32783Y-37075D01*
X32836Y-36966D01*
X32867Y-36848D01*
X32874Y-36726D01*
X32874Y-38684D01*
X32851Y-38569D01*
X32805Y-38455D01*
X32737Y-38353D01*
X32650Y-38266D01*
X32611Y-38239D01*
X32611Y-37181D01*
X32250Y-36821D01*
X32179Y-36891D01*
X32179Y-36750D01*
X31819Y-36389D01*
X31717Y-36425D01*
X31664Y-36534D01*
X31633Y-36652D01*
X31626Y-36774D01*
X31643Y-36895D01*
X31683Y-37010D01*
X31717Y-37075D01*
X31819Y-37111D01*
X32179Y-36750D01*
X32179Y-36891D01*
X31889Y-37181D01*
X31925Y-37283D01*
X32034Y-37336D01*
X32152Y-37367D01*
X32274Y-37374D01*
X32395Y-37357D01*
X32510Y-37317D01*
X32575Y-37283D01*
X32611Y-37181D01*
X32611Y-38239D01*
X32549Y-38198D01*
X32436Y-38150D01*
X32316Y-38125D01*
X32193Y-38125D01*
X32073Y-38148D01*
X31959Y-38193D01*
X31857Y-38260D01*
X31769Y-38346D01*
X31700Y-38447D01*
X31652Y-38560D01*
X31626Y-38680D01*
X31624Y-38802D01*
X31646Y-38923D01*
X31691Y-39037D01*
X31758Y-39140D01*
X31843Y-39228D01*
X31943Y-39298D01*
X32056Y-39347D01*
X32175Y-39374D01*
X32298Y-39376D01*
X32419Y-39355D01*
X32533Y-39311D01*
X32636Y-39245D01*
X32725Y-39161D01*
X32796Y-39060D01*
X32846Y-38948D01*
X32873Y-38829D01*
X32875Y-38689D01*
X32875Y-39241D01*
X32874Y-39302D01*
X32896Y-39423D01*
X32941Y-39537D01*
X33008Y-39640D01*
X33093Y-39728D01*
X33193Y-39798D01*
X33306Y-39847D01*
X33425Y-39874D01*
X33548Y-39876D01*
X33669Y-39855D01*
X33783Y-39811D01*
X33886Y-39745D01*
X33975Y-39661D01*
X34046Y-39560D01*
X34096Y-39448D01*
X34123Y-39329D01*
X34125Y-39189D01*
X34125Y-45600D01*
X30625Y-45600D01*
X30625Y-29689D01*
X30624Y-29684D01*
X30624Y-28726D01*
X30607Y-28605D01*
X30567Y-28490D01*
X30533Y-28425D01*
X30431Y-28389D01*
X30361Y-28459D01*
X30361Y-28319D01*
X30325Y-28217D01*
X30216Y-28164D01*
X30098Y-28133D01*
X29976Y-28126D01*
X29855Y-28143D01*
X29740Y-28183D01*
X29675Y-28217D01*
X29639Y-28319D01*
X30000Y-28679D01*
X30361Y-28319D01*
X30361Y-28459D01*
X30071Y-28750D01*
X30431Y-29111D01*
X30533Y-29075D01*
X30586Y-28966D01*
X30617Y-28848D01*
X30624Y-28726D01*
X30624Y-29684D01*
X30601Y-29569D01*
X30555Y-29455D01*
X30487Y-29353D01*
X30400Y-29266D01*
X30344Y-29228D01*
X30361Y-29181D01*
X30000Y-28821D01*
X29929Y-28891D01*
X29929Y-28750D01*
X29569Y-28389D01*
X29467Y-28425D01*
X29414Y-28534D01*
X29383Y-28652D01*
X29376Y-28774D01*
X29393Y-28895D01*
X29433Y-29010D01*
X29467Y-29075D01*
X29569Y-29111D01*
X29929Y-28750D01*
X29929Y-28891D01*
X29639Y-29181D01*
X29655Y-29228D01*
X29607Y-29260D01*
X29519Y-29346D01*
X29450Y-29447D01*
X29402Y-29560D01*
X29376Y-29680D01*
X29374Y-29802D01*
X29396Y-29923D01*
X29441Y-30037D01*
X29508Y-30140D01*
X29593Y-30228D01*
X29693Y-30298D01*
X29806Y-30347D01*
X29925Y-30374D01*
X30048Y-30376D01*
X30169Y-30355D01*
X30283Y-30311D01*
X30386Y-30245D01*
X30475Y-30161D01*
X30546Y-30060D01*
X30596Y-29948D01*
X30623Y-29829D01*
X30625Y-29689D01*
X30625Y-45600D01*
X28916Y-45600D01*
X28599Y-45283D01*
X28599Y-38691D01*
X28599Y-36725D01*
X28599Y-30691D01*
X28576Y-30576D01*
X28531Y-30467D01*
X28466Y-30369D01*
X28383Y-30286D01*
X28330Y-30250D01*
X28371Y-30224D01*
X28456Y-30143D01*
X28523Y-30047D01*
X28571Y-29940D01*
X28597Y-29825D01*
X28599Y-29691D01*
X28576Y-29576D01*
X28531Y-29467D01*
X28466Y-29369D01*
X28383Y-29286D01*
X28286Y-29220D01*
X28178Y-29175D01*
X28063Y-29151D01*
X27945Y-29151D01*
X27830Y-29173D01*
X27721Y-29217D01*
X27623Y-29281D01*
X27539Y-29363D01*
X27472Y-29460D01*
X27426Y-29568D01*
X27402Y-29683D01*
X27400Y-29801D01*
X27421Y-29916D01*
X27465Y-30025D01*
X27528Y-30124D01*
X27610Y-30209D01*
X27669Y-30250D01*
X27623Y-30281D01*
X27539Y-30363D01*
X27472Y-30460D01*
X27426Y-30568D01*
X27402Y-30683D01*
X27400Y-30801D01*
X27421Y-30916D01*
X27465Y-31025D01*
X27528Y-31124D01*
X27610Y-31209D01*
X27707Y-31276D01*
X27814Y-31323D01*
X27929Y-31348D01*
X28046Y-31350D01*
X28162Y-31330D01*
X28272Y-31287D01*
X28371Y-31224D01*
X28456Y-31143D01*
X28523Y-31047D01*
X28571Y-30940D01*
X28597Y-30825D01*
X28599Y-30691D01*
X28599Y-36725D01*
X28583Y-36610D01*
X28544Y-36500D01*
X28513Y-36440D01*
X28414Y-36407D01*
X28343Y-36478D01*
X28343Y-36336D01*
X28310Y-36237D01*
X28205Y-36187D01*
X28092Y-36157D01*
X27975Y-36151D01*
X27860Y-36167D01*
X27750Y-36206D01*
X27690Y-36237D01*
X27657Y-36336D01*
X28000Y-36679D01*
X28343Y-36336D01*
X28343Y-36478D01*
X28071Y-36750D01*
X28414Y-37093D01*
X28513Y-37060D01*
X28563Y-36955D01*
X28593Y-36842D01*
X28599Y-36725D01*
X28599Y-38691D01*
X28576Y-38576D01*
X28531Y-38467D01*
X28466Y-38369D01*
X28383Y-38286D01*
X28343Y-38258D01*
X28343Y-37164D01*
X28000Y-36821D01*
X27929Y-36892D01*
X27929Y-36750D01*
X27586Y-36407D01*
X27487Y-36440D01*
X27437Y-36545D01*
X27407Y-36658D01*
X27401Y-36775D01*
X27417Y-36890D01*
X27456Y-37000D01*
X27487Y-37060D01*
X27586Y-37093D01*
X27929Y-36750D01*
X27929Y-36892D01*
X27657Y-37164D01*
X27690Y-37263D01*
X27795Y-37313D01*
X27908Y-37343D01*
X28025Y-37349D01*
X28140Y-37333D01*
X28250Y-37294D01*
X28310Y-37263D01*
X28343Y-37164D01*
X28343Y-38258D01*
X28286Y-38220D01*
X28178Y-38175D01*
X28063Y-38151D01*
X27945Y-38151D01*
X27830Y-38173D01*
X27721Y-38217D01*
X27623Y-38281D01*
X27539Y-38363D01*
X27472Y-38460D01*
X27426Y-38568D01*
X27402Y-38683D01*
X27400Y-38801D01*
X27421Y-38916D01*
X27465Y-39025D01*
X27528Y-39124D01*
X27610Y-39209D01*
X27707Y-39276D01*
X27814Y-39323D01*
X27929Y-39348D01*
X28046Y-39350D01*
X28162Y-39330D01*
X28272Y-39287D01*
X28371Y-39224D01*
X28456Y-39143D01*
X28523Y-39047D01*
X28571Y-38940D01*
X28597Y-38825D01*
X28599Y-38691D01*
X28599Y-45283D01*
X26400Y-43084D01*
X26400Y-29165D01*
X27524Y-28040D01*
X27530Y-28036D01*
X27532Y-28033D01*
X27580Y-27976D01*
X27581Y-27974D01*
X27582Y-27973D01*
X27593Y-27951D01*
X27618Y-27908D01*
X27618Y-27905D01*
X27619Y-27905D01*
X27620Y-27899D01*
X27641Y-27833D01*
X27641Y-27830D01*
X27650Y-27756D01*
X27650Y-27752D01*
X27650Y-27750D01*
X27650Y-23166D01*
X29666Y-21150D01*
X33850Y-21150D01*
X33850Y-21454D01*
X33825Y-21471D01*
X33731Y-21564D01*
X33656Y-21673D01*
X33604Y-21795D01*
X33576Y-21924D01*
X33574Y-22057D01*
X33598Y-22187D01*
X33647Y-22310D01*
X33718Y-22421D01*
X33810Y-22516D01*
X33899Y-22578D01*
X34250Y-22929D01*
X34604Y-22574D01*
X34667Y-22535D01*
X34750Y-22454D01*
X34795Y-22500D01*
X34731Y-22564D01*
X34673Y-22647D01*
X34321Y-23000D01*
X34675Y-23354D01*
X34718Y-23421D01*
X34810Y-23516D01*
X34919Y-23592D01*
X35040Y-23645D01*
X35170Y-23673D01*
X35302Y-23676D01*
X35432Y-23653D01*
X35556Y-23605D01*
X35667Y-23535D01*
X35750Y-23454D01*
X35810Y-23516D01*
X35919Y-23592D01*
X36040Y-23645D01*
X36170Y-23673D01*
X36302Y-23676D01*
X36432Y-23653D01*
X36556Y-23605D01*
X36667Y-23535D01*
X36750Y-23454D01*
X36810Y-23516D01*
X36919Y-23592D01*
X37040Y-23645D01*
X37170Y-23673D01*
X37302Y-23676D01*
X37432Y-23653D01*
X37556Y-23605D01*
X37667Y-23535D01*
X37750Y-23454D01*
X37810Y-23516D01*
X37850Y-23543D01*
X37850Y-23996D01*
X37850Y-24000D01*
X37852Y-24028D01*
X37857Y-24074D01*
X37857Y-24077D01*
X37858Y-24078D01*
X37860Y-24088D01*
X37878Y-24148D01*
X37879Y-24151D01*
X37880Y-24152D01*
X37888Y-24166D01*
X37915Y-24218D01*
X37916Y-24219D01*
X37917Y-24221D01*
X37934Y-24243D01*
X37963Y-24279D01*
X37966Y-24282D01*
X37967Y-24283D01*
X40713Y-27029D01*
X40717Y-27033D01*
X41459Y-27774D01*
X41464Y-27780D01*
X41467Y-27782D01*
X41524Y-27830D01*
X41528Y-27832D01*
X41592Y-27868D01*
X41594Y-27868D01*
X41595Y-27869D01*
X41601Y-27870D01*
X41667Y-27891D01*
X41670Y-27891D01*
X41744Y-27900D01*
X41748Y-27900D01*
X41750Y-27900D01*
X46267Y-27900D01*
X46343Y-27978D01*
X46443Y-28048D01*
X46556Y-28097D01*
X46675Y-28124D01*
X46798Y-28126D01*
X46919Y-28105D01*
X47033Y-28061D01*
X47136Y-27995D01*
X47225Y-27911D01*
X47296Y-27810D01*
X47346Y-27698D01*
X47373Y-27579D01*
X47375Y-27439D01*
X47375Y-28260D01*
X45183Y-28260D01*
X45183Y-30120D01*
X49317Y-30120D01*
X49317Y-37490D01*
X49283Y-37425D01*
X49181Y-37389D01*
X49111Y-37459D01*
X49111Y-37319D01*
X49075Y-37217D01*
X48966Y-37164D01*
X48848Y-37133D01*
X48726Y-37126D01*
X48605Y-37143D01*
X48490Y-37183D01*
X48425Y-37217D01*
X48389Y-37319D01*
X48750Y-37679D01*
X49111Y-37319D01*
X49111Y-37459D01*
X48821Y-37750D01*
X49181Y-38111D01*
X49283Y-38075D01*
X49336Y-37966D01*
X49367Y-37848D01*
X49374Y-37726D01*
X49374Y-38934D01*
X49351Y-38819D01*
X49305Y-38705D01*
X49237Y-38603D01*
X49150Y-38516D01*
X49111Y-38489D01*
X49111Y-38181D01*
X48750Y-37821D01*
X48679Y-37891D01*
X48679Y-37750D01*
X48319Y-37389D01*
X48217Y-37425D01*
X48164Y-37534D01*
X48133Y-37652D01*
X48126Y-37774D01*
X48143Y-37895D01*
X48183Y-38010D01*
X48217Y-38075D01*
X48319Y-38111D01*
X48679Y-37750D01*
X48679Y-37891D01*
X48389Y-38181D01*
X48425Y-38283D01*
X48534Y-38336D01*
X48652Y-38367D01*
X48774Y-38374D01*
X48895Y-38357D01*
X49010Y-38317D01*
X49075Y-38283D01*
X49111Y-38181D01*
X49111Y-38489D01*
X49049Y-38448D01*
X48936Y-38400D01*
X48816Y-38375D01*
X48693Y-38375D01*
X48573Y-38398D01*
X48459Y-38443D01*
X48357Y-38510D01*
X48269Y-38596D01*
X48200Y-38697D01*
X48152Y-38810D01*
X48126Y-38930D01*
X48124Y-39052D01*
X48146Y-39173D01*
X48191Y-39287D01*
X48258Y-39390D01*
X48343Y-39478D01*
X48443Y-39548D01*
X48556Y-39597D01*
X48675Y-39624D01*
X48736Y-39625D01*
X48693Y-39625D01*
X48573Y-39648D01*
X48459Y-39693D01*
X48357Y-39760D01*
X48269Y-39846D01*
X48200Y-39947D01*
X48152Y-40060D01*
X48126Y-40180D01*
X48124Y-40302D01*
X48146Y-40423D01*
X48191Y-40537D01*
X48258Y-40640D01*
X48343Y-40728D01*
X48443Y-40798D01*
X48556Y-40847D01*
X48675Y-40874D01*
X48798Y-40876D01*
X48919Y-40855D01*
X49033Y-40811D01*
X49136Y-40745D01*
X49225Y-40661D01*
X49296Y-40560D01*
X49346Y-40448D01*
X49373Y-40329D01*
X49375Y-40189D01*
X49375Y-43189D01*
X49351Y-43069D01*
X49305Y-42955D01*
X49237Y-42853D01*
X49150Y-42766D01*
X49049Y-42698D01*
X48936Y-42650D01*
X48816Y-42625D01*
X48693Y-42625D01*
X48573Y-42648D01*
X48459Y-42693D01*
X48357Y-42760D01*
X48269Y-42846D01*
X48200Y-42947D01*
X48152Y-43060D01*
X48126Y-43180D01*
X48124Y-43302D01*
X48146Y-43423D01*
X48191Y-43537D01*
X48258Y-43640D01*
X48343Y-43728D01*
X48443Y-43798D01*
X48556Y-43847D01*
X48675Y-43874D01*
X48736Y-43875D01*
X48693Y-43875D01*
X48573Y-43898D01*
X48459Y-43943D01*
X48357Y-44010D01*
X48269Y-44096D01*
X48200Y-44197D01*
X48152Y-44310D01*
X48126Y-44430D01*
X48124Y-44552D01*
X48146Y-44673D01*
X48191Y-44787D01*
X48258Y-44890D01*
X48343Y-44978D01*
X48443Y-45048D01*
X48556Y-45097D01*
X48675Y-45124D01*
X48798Y-45126D01*
X48919Y-45105D01*
X49033Y-45061D01*
X49136Y-44995D01*
X49225Y-44911D01*
X49296Y-44810D01*
X49346Y-44698D01*
X49373Y-44579D01*
X49375Y-44439D01*
X49375Y-46390D01*
X49374Y-46390D01*
X49374Y-45726D01*
X49357Y-45605D01*
X49317Y-45490D01*
X49283Y-45425D01*
X49181Y-45389D01*
X49111Y-45459D01*
X49111Y-45319D01*
X49075Y-45217D01*
X48966Y-45164D01*
X48848Y-45133D01*
X48726Y-45126D01*
X48605Y-45143D01*
X48490Y-45183D01*
X48425Y-45217D01*
X48389Y-45319D01*
X48750Y-45679D01*
X49111Y-45319D01*
X49111Y-45459D01*
X48821Y-45750D01*
X49181Y-46111D01*
X49283Y-46075D01*
X49336Y-45966D01*
X49367Y-45848D01*
X49374Y-45726D01*
X49374Y-46390D01*
X49355Y-46393D01*
X49240Y-46433D01*
X49175Y-46467D01*
X49139Y-46569D01*
X49500Y-46929D01*
X49861Y-46569D01*
X49861Y-46709D01*
X49571Y-47000D01*
X49931Y-47361D01*
X50033Y-47325D01*
X50086Y-47216D01*
X50117Y-47098D01*
X50121Y-47024D01*
X51870Y-47024D01*
X51870Y-51170D01*
X51750Y-51290D01*
X51750Y-49853D01*
X51693Y-49564D01*
X51581Y-49292D01*
X51418Y-49047D01*
X51211Y-48839D01*
X50967Y-48674D01*
X50696Y-48560D01*
X50408Y-48501D01*
X50113Y-48499D01*
X49861Y-48547D01*
X49861Y-47431D01*
X49500Y-47071D01*
X49429Y-47141D01*
X49429Y-47000D01*
X49111Y-46681D01*
X49111Y-46181D01*
X48750Y-45821D01*
X48679Y-45891D01*
X48679Y-45750D01*
X48319Y-45389D01*
X48217Y-45425D01*
X48164Y-45534D01*
X48133Y-45652D01*
X48126Y-45774D01*
X48143Y-45895D01*
X48183Y-46010D01*
X48217Y-46075D01*
X48319Y-46111D01*
X48679Y-45750D01*
X48679Y-45891D01*
X48389Y-46181D01*
X48425Y-46283D01*
X48534Y-46336D01*
X48652Y-46367D01*
X48774Y-46374D01*
X48895Y-46357D01*
X49010Y-46317D01*
X49075Y-46283D01*
X49111Y-46181D01*
X49111Y-46681D01*
X49069Y-46639D01*
X48967Y-46675D01*
X48914Y-46784D01*
X48883Y-46902D01*
X48876Y-47024D01*
X48893Y-47145D01*
X48933Y-47260D01*
X48967Y-47325D01*
X49069Y-47361D01*
X49429Y-47000D01*
X49429Y-47141D01*
X49139Y-47431D01*
X49175Y-47533D01*
X49284Y-47586D01*
X49402Y-47617D01*
X49524Y-47624D01*
X49645Y-47607D01*
X49760Y-47567D01*
X49825Y-47533D01*
X49861Y-47431D01*
X49861Y-48547D01*
X49825Y-48554D01*
X49552Y-48664D01*
X49306Y-48825D01*
X49095Y-49031D01*
X48929Y-49274D01*
X48813Y-49544D01*
X48752Y-49832D01*
X48748Y-50126D01*
X48801Y-50415D01*
X48909Y-50689D01*
X49069Y-50936D01*
X49273Y-51148D01*
X49515Y-51316D01*
X49784Y-51433D01*
X50071Y-51497D01*
X50366Y-51503D01*
X50655Y-51452D01*
X50929Y-51345D01*
X51178Y-51188D01*
X51391Y-50985D01*
X51560Y-50745D01*
X51680Y-50476D01*
X51745Y-50189D01*
X51750Y-49853D01*
X51750Y-51290D01*
X50865Y-52175D01*
X47125Y-52175D01*
X47125Y-46939D01*
X47101Y-46819D01*
X47055Y-46705D01*
X46987Y-46603D01*
X46900Y-46516D01*
X46799Y-46448D01*
X46686Y-46400D01*
X46566Y-46375D01*
X46443Y-46375D01*
X46375Y-46388D01*
X46375Y-43189D01*
X46375Y-40189D01*
X46351Y-40069D01*
X46305Y-39955D01*
X46237Y-39853D01*
X46150Y-39766D01*
X46049Y-39698D01*
X45936Y-39650D01*
X45816Y-39625D01*
X45693Y-39625D01*
X45573Y-39648D01*
X45459Y-39693D01*
X45375Y-39748D01*
X45375Y-39402D01*
X45375Y-39353D01*
X45375Y-38601D01*
X45366Y-38553D01*
X45347Y-38508D01*
X45320Y-38467D01*
X45285Y-38432D01*
X45245Y-38404D01*
X45200Y-38385D01*
X45152Y-38375D01*
X45149Y-38375D01*
X45197Y-38366D01*
X45242Y-38347D01*
X45283Y-38320D01*
X45318Y-38285D01*
X45346Y-38245D01*
X45365Y-38200D01*
X45375Y-38152D01*
X45375Y-38103D01*
X45375Y-37351D01*
X45366Y-37303D01*
X45347Y-37258D01*
X45320Y-37217D01*
X45285Y-37182D01*
X45245Y-37154D01*
X45200Y-37135D01*
X45152Y-37125D01*
X45103Y-37125D01*
X44351Y-37125D01*
X44303Y-37134D01*
X44258Y-37153D01*
X44217Y-37180D01*
X44182Y-37215D01*
X44154Y-37255D01*
X44135Y-37300D01*
X44125Y-37348D01*
X44125Y-37397D01*
X44125Y-38149D01*
X44134Y-38197D01*
X44153Y-38242D01*
X44180Y-38283D01*
X44215Y-38318D01*
X44255Y-38346D01*
X44300Y-38365D01*
X44348Y-38375D01*
X44303Y-38384D01*
X44258Y-38403D01*
X44217Y-38430D01*
X44182Y-38465D01*
X44154Y-38505D01*
X44135Y-38550D01*
X44125Y-38598D01*
X44125Y-38647D01*
X44125Y-39399D01*
X44134Y-39447D01*
X44153Y-39492D01*
X44180Y-39533D01*
X44215Y-39568D01*
X44255Y-39596D01*
X44300Y-39615D01*
X44348Y-39625D01*
X44397Y-39625D01*
X45149Y-39625D01*
X45197Y-39616D01*
X45242Y-39597D01*
X45283Y-39570D01*
X45318Y-39535D01*
X45346Y-39495D01*
X45365Y-39450D01*
X45375Y-39402D01*
X45375Y-39748D01*
X45357Y-39760D01*
X45269Y-39846D01*
X45200Y-39947D01*
X45152Y-40060D01*
X45126Y-40180D01*
X45124Y-40302D01*
X45146Y-40423D01*
X45191Y-40537D01*
X45258Y-40640D01*
X45343Y-40728D01*
X45443Y-40798D01*
X45556Y-40847D01*
X45675Y-40874D01*
X45798Y-40876D01*
X45919Y-40855D01*
X46033Y-40811D01*
X46136Y-40745D01*
X46225Y-40661D01*
X46296Y-40560D01*
X46346Y-40448D01*
X46373Y-40329D01*
X46375Y-40189D01*
X46375Y-43189D01*
X46351Y-43069D01*
X46305Y-42955D01*
X46237Y-42853D01*
X46150Y-42766D01*
X46049Y-42698D01*
X45936Y-42650D01*
X45816Y-42625D01*
X45693Y-42625D01*
X45573Y-42648D01*
X45459Y-42693D01*
X45357Y-42760D01*
X45269Y-42846D01*
X45200Y-42947D01*
X45152Y-43060D01*
X45126Y-43180D01*
X45124Y-43302D01*
X45146Y-43423D01*
X45191Y-43537D01*
X45258Y-43640D01*
X45343Y-43728D01*
X45443Y-43798D01*
X45556Y-43847D01*
X45675Y-43874D01*
X45798Y-43876D01*
X45919Y-43855D01*
X46033Y-43811D01*
X46136Y-43745D01*
X46225Y-43661D01*
X46296Y-43560D01*
X46346Y-43448D01*
X46373Y-43329D01*
X46375Y-43189D01*
X46375Y-46388D01*
X46323Y-46398D01*
X46209Y-46443D01*
X46107Y-46510D01*
X46019Y-46596D01*
X45950Y-46697D01*
X45902Y-46810D01*
X45876Y-46930D01*
X45874Y-47052D01*
X45896Y-47173D01*
X45941Y-47287D01*
X46008Y-47390D01*
X46093Y-47478D01*
X46193Y-47548D01*
X46306Y-47597D01*
X46425Y-47624D01*
X46548Y-47626D01*
X46669Y-47605D01*
X46783Y-47561D01*
X46886Y-47495D01*
X46975Y-47411D01*
X47046Y-47310D01*
X47096Y-47198D01*
X47123Y-47079D01*
X47125Y-46939D01*
X47125Y-52175D01*
X46875Y-52175D01*
X46875Y-50439D01*
X46851Y-50319D01*
X46805Y-50205D01*
X46737Y-50103D01*
X46650Y-50016D01*
X46549Y-49948D01*
X46436Y-49900D01*
X46316Y-49875D01*
X46193Y-49875D01*
X46073Y-49898D01*
X45959Y-49943D01*
X45857Y-50010D01*
X45850Y-50016D01*
X45847Y-50008D01*
X45820Y-49967D01*
X45785Y-49932D01*
X45745Y-49904D01*
X45700Y-49885D01*
X45652Y-49875D01*
X45603Y-49875D01*
X45375Y-49875D01*
X45375Y-46152D01*
X45375Y-46103D01*
X45375Y-45351D01*
X45366Y-45303D01*
X45347Y-45258D01*
X45320Y-45217D01*
X45285Y-45182D01*
X45245Y-45154D01*
X45200Y-45135D01*
X45152Y-45125D01*
X45149Y-45125D01*
X45197Y-45116D01*
X45242Y-45097D01*
X45283Y-45070D01*
X45318Y-45035D01*
X45346Y-44995D01*
X45365Y-44950D01*
X45375Y-44902D01*
X45375Y-44853D01*
X45375Y-44101D01*
X45366Y-44053D01*
X45347Y-44008D01*
X45320Y-43967D01*
X45285Y-43932D01*
X45245Y-43904D01*
X45200Y-43885D01*
X45152Y-43875D01*
X45103Y-43875D01*
X44351Y-43875D01*
X44303Y-43884D01*
X44258Y-43903D01*
X44217Y-43930D01*
X44182Y-43965D01*
X44154Y-44005D01*
X44135Y-44050D01*
X44125Y-44098D01*
X44125Y-44147D01*
X44125Y-44899D01*
X44134Y-44947D01*
X44153Y-44992D01*
X44180Y-45033D01*
X44215Y-45068D01*
X44255Y-45096D01*
X44300Y-45115D01*
X44348Y-45125D01*
X44303Y-45134D01*
X44258Y-45153D01*
X44217Y-45180D01*
X44182Y-45215D01*
X44154Y-45255D01*
X44135Y-45300D01*
X44125Y-45348D01*
X44125Y-45397D01*
X44125Y-46149D01*
X44134Y-46197D01*
X44153Y-46242D01*
X44180Y-46283D01*
X44215Y-46318D01*
X44255Y-46346D01*
X44300Y-46365D01*
X44348Y-46375D01*
X44397Y-46375D01*
X45149Y-46375D01*
X45197Y-46366D01*
X45242Y-46347D01*
X45283Y-46320D01*
X45318Y-46285D01*
X45346Y-46245D01*
X45365Y-46200D01*
X45375Y-46152D01*
X45375Y-49875D01*
X44851Y-49875D01*
X44803Y-49884D01*
X44758Y-49903D01*
X44717Y-49930D01*
X44682Y-49965D01*
X44654Y-50005D01*
X44635Y-50050D01*
X44625Y-50098D01*
X44625Y-50147D01*
X44625Y-50899D01*
X44634Y-50947D01*
X44653Y-50992D01*
X44680Y-51033D01*
X44715Y-51068D01*
X44755Y-51096D01*
X44800Y-51115D01*
X44848Y-51125D01*
X44897Y-51125D01*
X45649Y-51125D01*
X45697Y-51116D01*
X45742Y-51097D01*
X45783Y-51070D01*
X45818Y-51035D01*
X45846Y-50995D01*
X45850Y-50983D01*
X45943Y-51048D01*
X46056Y-51097D01*
X46175Y-51124D01*
X46298Y-51126D01*
X46419Y-51105D01*
X46533Y-51061D01*
X46636Y-50995D01*
X46725Y-50911D01*
X46796Y-50810D01*
X46846Y-50698D01*
X46873Y-50579D01*
X46875Y-50439D01*
X46875Y-52175D01*
X43075Y-52175D01*
X43075Y-49870D01*
X43025Y-49615D01*
X42925Y-49375D01*
X42875Y-49299D01*
X42875Y-39689D01*
X42875Y-36689D01*
X42851Y-36569D01*
X42805Y-36455D01*
X42737Y-36353D01*
X42650Y-36266D01*
X42549Y-36198D01*
X42436Y-36150D01*
X42316Y-36125D01*
X42193Y-36125D01*
X42073Y-36148D01*
X41959Y-36193D01*
X41857Y-36260D01*
X41769Y-36346D01*
X41700Y-36447D01*
X41652Y-36560D01*
X41626Y-36680D01*
X41624Y-36802D01*
X41646Y-36923D01*
X41691Y-37037D01*
X41758Y-37140D01*
X41843Y-37228D01*
X41943Y-37298D01*
X42056Y-37347D01*
X42175Y-37374D01*
X42298Y-37376D01*
X42419Y-37355D01*
X42533Y-37311D01*
X42636Y-37245D01*
X42725Y-37161D01*
X42796Y-37060D01*
X42846Y-36948D01*
X42873Y-36829D01*
X42875Y-36689D01*
X42875Y-39689D01*
X42851Y-39569D01*
X42805Y-39455D01*
X42737Y-39353D01*
X42650Y-39266D01*
X42549Y-39198D01*
X42436Y-39150D01*
X42316Y-39125D01*
X42193Y-39125D01*
X42073Y-39148D01*
X41959Y-39193D01*
X41857Y-39260D01*
X41769Y-39346D01*
X41700Y-39447D01*
X41652Y-39560D01*
X41626Y-39680D01*
X41624Y-39802D01*
X41646Y-39923D01*
X41691Y-40037D01*
X41758Y-40140D01*
X41843Y-40228D01*
X41943Y-40298D01*
X42056Y-40347D01*
X42175Y-40374D01*
X42298Y-40376D01*
X42419Y-40355D01*
X42533Y-40311D01*
X42636Y-40245D01*
X42725Y-40161D01*
X42796Y-40060D01*
X42846Y-39948D01*
X42873Y-39829D01*
X42875Y-39689D01*
X42875Y-49299D01*
X42782Y-49158D01*
X42599Y-48974D01*
X42383Y-48829D01*
X42144Y-48728D01*
X41889Y-48676D01*
X41629Y-48674D01*
X41374Y-48723D01*
X41133Y-48820D01*
X40916Y-48962D01*
X40730Y-49144D01*
X40583Y-49359D01*
X40481Y-49598D01*
X40427Y-49852D01*
X40423Y-50111D01*
X40470Y-50367D01*
X40566Y-50609D01*
X40707Y-50827D01*
X40887Y-51014D01*
X41101Y-51162D01*
X41339Y-51266D01*
X41592Y-51322D01*
X41852Y-51327D01*
X42108Y-51282D01*
X42350Y-51188D01*
X42570Y-51049D01*
X42758Y-50870D01*
X42908Y-50658D01*
X43013Y-50420D01*
X43071Y-50167D01*
X43075Y-49870D01*
X43075Y-52175D01*
X32075Y-52175D01*
X32075Y-49870D01*
X32025Y-49615D01*
X31925Y-49375D01*
X31782Y-49158D01*
X31599Y-48974D01*
X31383Y-48829D01*
X31144Y-48728D01*
X30889Y-48676D01*
X30629Y-48674D01*
X30374Y-48723D01*
X30133Y-48820D01*
X29916Y-48962D01*
X29730Y-49144D01*
X29583Y-49359D01*
X29481Y-49598D01*
X29427Y-49852D01*
X29423Y-50111D01*
X29470Y-50367D01*
X29566Y-50609D01*
X29707Y-50827D01*
X29887Y-51014D01*
X30101Y-51162D01*
X30339Y-51266D01*
X30592Y-51322D01*
X30852Y-51327D01*
X31108Y-51282D01*
X31350Y-51188D01*
X31570Y-51049D01*
X31758Y-50870D01*
X31908Y-50658D01*
X32013Y-50420D01*
X32071Y-50167D01*
X32075Y-49870D01*
X32075Y-52175D01*
X25125Y-52175D01*
X25125Y-45902D01*
X25125Y-45853D01*
X25125Y-45101D01*
X25116Y-45053D01*
X25097Y-45008D01*
X25070Y-44967D01*
X25035Y-44932D01*
X24995Y-44904D01*
X24950Y-44885D01*
X24902Y-44875D01*
X24853Y-44875D01*
X24553Y-44875D01*
X24669Y-44855D01*
X24783Y-44811D01*
X24886Y-44745D01*
X24975Y-44661D01*
X25046Y-44560D01*
X25096Y-44448D01*
X25123Y-44329D01*
X25125Y-44189D01*
X25125Y-41189D01*
X25101Y-41069D01*
X25055Y-40955D01*
X24987Y-40853D01*
X24900Y-40766D01*
X24799Y-40698D01*
X24686Y-40650D01*
X24566Y-40625D01*
X24443Y-40625D01*
X24323Y-40648D01*
X24209Y-40693D01*
X24107Y-40760D01*
X24019Y-40846D01*
X23950Y-40947D01*
X23902Y-41060D01*
X23876Y-41180D01*
X23874Y-41302D01*
X23896Y-41423D01*
X23941Y-41537D01*
X24008Y-41640D01*
X24093Y-41728D01*
X24193Y-41798D01*
X24306Y-41847D01*
X24425Y-41874D01*
X24548Y-41876D01*
X24669Y-41855D01*
X24783Y-41811D01*
X24886Y-41745D01*
X24975Y-41661D01*
X25046Y-41560D01*
X25096Y-41448D01*
X25123Y-41329D01*
X25125Y-41189D01*
X25125Y-44189D01*
X25101Y-44069D01*
X25055Y-43955D01*
X24987Y-43853D01*
X24900Y-43766D01*
X24799Y-43698D01*
X24686Y-43650D01*
X24566Y-43625D01*
X24443Y-43625D01*
X24323Y-43648D01*
X24209Y-43693D01*
X24107Y-43760D01*
X24019Y-43846D01*
X23950Y-43947D01*
X23902Y-44060D01*
X23876Y-44180D01*
X23874Y-44302D01*
X23896Y-44423D01*
X23941Y-44537D01*
X24008Y-44640D01*
X24093Y-44728D01*
X24193Y-44798D01*
X24306Y-44847D01*
X24425Y-44874D01*
X24486Y-44875D01*
X24101Y-44875D01*
X24053Y-44884D01*
X24008Y-44903D01*
X23967Y-44930D01*
X23932Y-44965D01*
X23904Y-45005D01*
X23885Y-45050D01*
X23875Y-45098D01*
X23875Y-45147D01*
X23875Y-45899D01*
X23884Y-45947D01*
X23903Y-45992D01*
X23930Y-46033D01*
X23965Y-46068D01*
X24005Y-46096D01*
X24013Y-46099D01*
X23986Y-46127D01*
X24016Y-46157D01*
X23967Y-46175D01*
X23914Y-46284D01*
X23883Y-46402D01*
X23876Y-46524D01*
X23893Y-46645D01*
X23933Y-46760D01*
X23967Y-46825D01*
X24069Y-46861D01*
X24394Y-46535D01*
X24429Y-46500D01*
X24500Y-46429D01*
X24571Y-46500D01*
X24606Y-46535D01*
X24931Y-46861D01*
X25033Y-46825D01*
X25086Y-46716D01*
X25117Y-46598D01*
X25124Y-46476D01*
X25107Y-46355D01*
X25067Y-46240D01*
X25033Y-46175D01*
X24983Y-46157D01*
X25014Y-46127D01*
X24986Y-46099D01*
X24992Y-46097D01*
X25033Y-46070D01*
X25068Y-46035D01*
X25096Y-45995D01*
X25115Y-45950D01*
X25125Y-45902D01*
X25125Y-52175D01*
X25124Y-52175D01*
X24861Y-52175D01*
X24861Y-46931D01*
X24500Y-46571D01*
X24429Y-46641D01*
X24139Y-46931D01*
X24175Y-47033D01*
X24284Y-47086D01*
X24402Y-47117D01*
X24524Y-47124D01*
X24645Y-47107D01*
X24760Y-47067D01*
X24825Y-47033D01*
X24861Y-46931D01*
X24861Y-52175D01*
X24000Y-52175D01*
X24000Y-49853D01*
X23943Y-49564D01*
X23831Y-49292D01*
X23668Y-49047D01*
X23461Y-48839D01*
X23217Y-48674D01*
X22946Y-48560D01*
X22658Y-48501D01*
X22625Y-48500D01*
X22625Y-46899D01*
X22625Y-46612D01*
X22625Y-46388D01*
X22625Y-46101D01*
X22616Y-46053D01*
X22597Y-46008D01*
X22570Y-45967D01*
X22535Y-45932D01*
X22495Y-45904D01*
X22483Y-45899D01*
X22546Y-45810D01*
X22596Y-45698D01*
X22623Y-45579D01*
X22625Y-45439D01*
X22601Y-45319D01*
X22555Y-45205D01*
X22487Y-45103D01*
X22400Y-45016D01*
X22299Y-44948D01*
X22186Y-44900D01*
X22066Y-44875D01*
X22053Y-44875D01*
X22169Y-44855D01*
X22283Y-44811D01*
X22386Y-44745D01*
X22475Y-44661D01*
X22546Y-44560D01*
X22596Y-44448D01*
X22623Y-44329D01*
X22625Y-44189D01*
X22625Y-41189D01*
X22601Y-41069D01*
X22599Y-41064D01*
X22599Y-38691D01*
X22599Y-36725D01*
X22599Y-30725D01*
X22599Y-29725D01*
X22599Y-28691D01*
X22576Y-28576D01*
X22531Y-28467D01*
X22466Y-28369D01*
X22383Y-28286D01*
X22286Y-28220D01*
X22178Y-28175D01*
X22063Y-28151D01*
X21945Y-28151D01*
X21830Y-28173D01*
X21721Y-28217D01*
X21623Y-28281D01*
X21539Y-28363D01*
X21472Y-28460D01*
X21426Y-28568D01*
X21402Y-28683D01*
X21400Y-28801D01*
X21421Y-28916D01*
X21465Y-29025D01*
X21528Y-29124D01*
X21610Y-29209D01*
X21682Y-29259D01*
X21657Y-29336D01*
X22000Y-29679D01*
X22343Y-29336D01*
X22317Y-29258D01*
X22371Y-29224D01*
X22456Y-29143D01*
X22523Y-29047D01*
X22571Y-28940D01*
X22597Y-28825D01*
X22599Y-28691D01*
X22599Y-29725D01*
X22583Y-29610D01*
X22544Y-29500D01*
X22513Y-29440D01*
X22414Y-29407D01*
X22071Y-29750D01*
X22414Y-30093D01*
X22513Y-30060D01*
X22563Y-29955D01*
X22593Y-29842D01*
X22599Y-29725D01*
X22599Y-30725D01*
X22583Y-30610D01*
X22544Y-30500D01*
X22513Y-30440D01*
X22414Y-30407D01*
X22343Y-30478D01*
X22343Y-30336D01*
X22314Y-30250D01*
X22343Y-30164D01*
X22000Y-29821D01*
X21929Y-29892D01*
X21929Y-29750D01*
X21586Y-29407D01*
X21487Y-29440D01*
X21437Y-29545D01*
X21407Y-29658D01*
X21401Y-29775D01*
X21417Y-29890D01*
X21456Y-30000D01*
X21487Y-30060D01*
X21586Y-30093D01*
X21929Y-29750D01*
X21929Y-29892D01*
X21657Y-30164D01*
X21685Y-30250D01*
X21657Y-30336D01*
X22000Y-30679D01*
X22343Y-30336D01*
X22343Y-30478D01*
X22071Y-30750D01*
X22414Y-31093D01*
X22513Y-31060D01*
X22563Y-30955D01*
X22593Y-30842D01*
X22599Y-30725D01*
X22599Y-36725D01*
X22583Y-36610D01*
X22544Y-36500D01*
X22513Y-36440D01*
X22414Y-36407D01*
X22343Y-36478D01*
X22343Y-36336D01*
X22343Y-31164D01*
X22000Y-30821D01*
X21929Y-30892D01*
X21929Y-30750D01*
X21586Y-30407D01*
X21487Y-30440D01*
X21437Y-30545D01*
X21407Y-30658D01*
X21401Y-30775D01*
X21417Y-30890D01*
X21456Y-31000D01*
X21487Y-31060D01*
X21586Y-31093D01*
X21929Y-30750D01*
X21929Y-30892D01*
X21657Y-31164D01*
X21690Y-31263D01*
X21795Y-31313D01*
X21908Y-31343D01*
X22025Y-31349D01*
X22140Y-31333D01*
X22250Y-31294D01*
X22310Y-31263D01*
X22343Y-31164D01*
X22343Y-36336D01*
X22310Y-36237D01*
X22205Y-36187D01*
X22092Y-36157D01*
X21975Y-36151D01*
X21860Y-36167D01*
X21750Y-36206D01*
X21690Y-36237D01*
X21657Y-36336D01*
X22000Y-36679D01*
X22343Y-36336D01*
X22343Y-36478D01*
X22071Y-36750D01*
X22414Y-37093D01*
X22513Y-37060D01*
X22563Y-36955D01*
X22593Y-36842D01*
X22599Y-36725D01*
X22599Y-38691D01*
X22576Y-38576D01*
X22531Y-38467D01*
X22466Y-38369D01*
X22383Y-38286D01*
X22343Y-38258D01*
X22343Y-37164D01*
X22000Y-36821D01*
X21929Y-36892D01*
X21929Y-36750D01*
X21586Y-36407D01*
X21487Y-36440D01*
X21437Y-36545D01*
X21407Y-36658D01*
X21401Y-36775D01*
X21417Y-36890D01*
X21456Y-37000D01*
X21487Y-37060D01*
X21586Y-37093D01*
X21929Y-36750D01*
X21929Y-36892D01*
X21657Y-37164D01*
X21690Y-37263D01*
X21795Y-37313D01*
X21908Y-37343D01*
X22025Y-37349D01*
X22140Y-37333D01*
X22250Y-37294D01*
X22310Y-37263D01*
X22343Y-37164D01*
X22343Y-38258D01*
X22286Y-38220D01*
X22178Y-38175D01*
X22063Y-38151D01*
X21945Y-38151D01*
X21830Y-38173D01*
X21721Y-38217D01*
X21623Y-38281D01*
X21539Y-38363D01*
X21472Y-38460D01*
X21426Y-38568D01*
X21402Y-38683D01*
X21400Y-38801D01*
X21421Y-38916D01*
X21465Y-39025D01*
X21528Y-39124D01*
X21610Y-39209D01*
X21707Y-39276D01*
X21814Y-39323D01*
X21929Y-39348D01*
X22046Y-39350D01*
X22162Y-39330D01*
X22272Y-39287D01*
X22371Y-39224D01*
X22456Y-39143D01*
X22523Y-39047D01*
X22571Y-38940D01*
X22597Y-38825D01*
X22599Y-38691D01*
X22599Y-41064D01*
X22555Y-40955D01*
X22487Y-40853D01*
X22400Y-40766D01*
X22299Y-40698D01*
X22186Y-40650D01*
X22066Y-40625D01*
X21943Y-40625D01*
X21823Y-40648D01*
X21709Y-40693D01*
X21607Y-40760D01*
X21519Y-40846D01*
X21450Y-40947D01*
X21402Y-41060D01*
X21376Y-41180D01*
X21374Y-41302D01*
X21396Y-41423D01*
X21441Y-41537D01*
X21508Y-41640D01*
X21593Y-41728D01*
X21693Y-41798D01*
X21806Y-41847D01*
X21925Y-41874D01*
X22048Y-41876D01*
X22169Y-41855D01*
X22283Y-41811D01*
X22386Y-41745D01*
X22475Y-41661D01*
X22546Y-41560D01*
X22596Y-41448D01*
X22623Y-41329D01*
X22625Y-41189D01*
X22625Y-44189D01*
X22601Y-44069D01*
X22555Y-43955D01*
X22487Y-43853D01*
X22400Y-43766D01*
X22299Y-43698D01*
X22186Y-43650D01*
X22066Y-43625D01*
X21943Y-43625D01*
X21823Y-43648D01*
X21709Y-43693D01*
X21607Y-43760D01*
X21519Y-43846D01*
X21450Y-43947D01*
X21402Y-44060D01*
X21376Y-44180D01*
X21374Y-44302D01*
X21396Y-44423D01*
X21441Y-44537D01*
X21508Y-44640D01*
X21593Y-44728D01*
X21693Y-44798D01*
X21806Y-44847D01*
X21925Y-44874D01*
X21986Y-44875D01*
X21943Y-44875D01*
X21823Y-44898D01*
X21709Y-44943D01*
X21607Y-45010D01*
X21519Y-45096D01*
X21450Y-45197D01*
X21402Y-45310D01*
X21376Y-45430D01*
X21374Y-45552D01*
X21396Y-45673D01*
X21441Y-45787D01*
X21508Y-45890D01*
X21516Y-45899D01*
X21505Y-45904D01*
X21465Y-45932D01*
X21430Y-45967D01*
X21403Y-46008D01*
X21384Y-46053D01*
X21375Y-46101D01*
X21375Y-46388D01*
X21437Y-46450D01*
X21900Y-46450D01*
X21950Y-46450D01*
X22050Y-46450D01*
X22100Y-46450D01*
X22563Y-46450D01*
X22625Y-46388D01*
X22625Y-46612D01*
X22563Y-46550D01*
X22050Y-46550D01*
X22050Y-47063D01*
X22112Y-47125D01*
X22353Y-47125D01*
X22402Y-47125D01*
X22450Y-47115D01*
X22495Y-47096D01*
X22535Y-47068D01*
X22570Y-47033D01*
X22597Y-46992D01*
X22616Y-46947D01*
X22625Y-46899D01*
X22625Y-48500D01*
X22363Y-48499D01*
X22075Y-48554D01*
X21950Y-48604D01*
X21950Y-47063D01*
X21950Y-46550D01*
X21437Y-46550D01*
X21375Y-46612D01*
X21375Y-46899D01*
X21384Y-46947D01*
X21403Y-46992D01*
X21430Y-47033D01*
X21465Y-47068D01*
X21505Y-47096D01*
X21550Y-47115D01*
X21598Y-47125D01*
X21647Y-47125D01*
X21888Y-47125D01*
X21950Y-47063D01*
X21950Y-48604D01*
X21802Y-48664D01*
X21556Y-48825D01*
X21345Y-49031D01*
X21179Y-49274D01*
X21063Y-49544D01*
X21002Y-49832D01*
X20998Y-50126D01*
X21051Y-50415D01*
X21159Y-50689D01*
X21319Y-50936D01*
X21523Y-51148D01*
X21765Y-51316D01*
X22034Y-51433D01*
X22321Y-51497D01*
X22616Y-51503D01*
X22905Y-51452D01*
X23179Y-51345D01*
X23428Y-51188D01*
X23641Y-50985D01*
X23810Y-50745D01*
X23930Y-50476D01*
X23995Y-50189D01*
X24000Y-49853D01*
X24000Y-52175D01*
X21635Y-52175D01*
X20325Y-50865D01*
X20325Y-27325D01*
X26498Y-27325D01*
X26500Y-27325D01*
X26561Y-27319D01*
X26563Y-27319D01*
X26599Y-27307D01*
X26622Y-27301D01*
X26623Y-27300D01*
X26624Y-27300D01*
X26678Y-27272D01*
X26680Y-27271D01*
X26727Y-27232D01*
X26729Y-27231D01*
X26753Y-27200D01*
X26768Y-27184D01*
X26769Y-27182D01*
X26799Y-27128D01*
X26799Y-27127D01*
X26800Y-27126D01*
X26805Y-27109D01*
X26818Y-27068D01*
X26818Y-27065D01*
X26825Y-27005D01*
X26825Y-27002D01*
X26825Y-27000D01*
X26825Y-20325D01*
X50865Y-20325D01*
X52175Y-21635D01*
X52175Y-50865D01*
M02*
