G04 (created by PCBNEW-RS274X (2012-01-19 BZR 3256)-stable) date 19/03/2013 14:49:39*
G01*
G70*
G90*
%MOIN*%
G04 Gerber Fmt 3.4, Leading zero omitted, Abs format*
%FSLAX34Y34*%
G04 APERTURE LIST*
%ADD10C,0.006000*%
%ADD11C,0.012000*%
%ADD12C,0.015000*%
%ADD13C,0.010000*%
%ADD14C,0.008000*%
%ADD15C,0.235000*%
%ADD16R,0.105000X0.105000*%
%ADD17C,0.105000*%
%ADD18C,0.270000*%
%ADD19C,0.100000*%
%ADD20R,0.110000X0.110000*%
%ADD21C,0.110000*%
%ADD22C,0.090000*%
%ADD23R,0.095000X0.095000*%
%ADD24C,0.095000*%
%ADD25C,0.170000*%
%ADD26R,0.120000X0.120000*%
%ADD27C,0.120000*%
G04 APERTURE END LIST*
G54D10*
X04000Y-04000D02*
X113000Y-04000D01*
X113000Y-78670D01*
X04000Y-78670D01*
X04000Y-04000D01*
X04700Y-04700D02*
X112300Y-04700D01*
X112300Y-77970D01*
X04700Y-77970D01*
X04700Y-04700D01*
X25800Y-04000D02*
X25800Y-04700D01*
X15043Y-04552D02*
X14757Y-04552D01*
X14900Y-04552D02*
X14900Y-04052D01*
X14852Y-04124D01*
X14805Y-04171D01*
X14757Y-04195D01*
X25800Y-78670D02*
X25800Y-77970D01*
X15043Y-78522D02*
X14757Y-78522D01*
X14900Y-78522D02*
X14900Y-78022D01*
X14852Y-78094D01*
X14805Y-78141D01*
X14757Y-78165D01*
X47600Y-04000D02*
X47600Y-04700D01*
X36557Y-04100D02*
X36581Y-04076D01*
X36629Y-04052D01*
X36748Y-04052D01*
X36795Y-04076D01*
X36819Y-04100D01*
X36843Y-04148D01*
X36843Y-04195D01*
X36819Y-04267D01*
X36533Y-04552D01*
X36843Y-04552D01*
X47600Y-78670D02*
X47600Y-77970D01*
X36557Y-78070D02*
X36581Y-78046D01*
X36629Y-78022D01*
X36748Y-78022D01*
X36795Y-78046D01*
X36819Y-78070D01*
X36843Y-78118D01*
X36843Y-78165D01*
X36819Y-78237D01*
X36533Y-78522D01*
X36843Y-78522D01*
X69400Y-04000D02*
X69400Y-04700D01*
X58333Y-04052D02*
X58643Y-04052D01*
X58476Y-04243D01*
X58548Y-04243D01*
X58595Y-04267D01*
X58619Y-04290D01*
X58643Y-04338D01*
X58643Y-04457D01*
X58619Y-04505D01*
X58595Y-04529D01*
X58548Y-04552D01*
X58405Y-04552D01*
X58357Y-04529D01*
X58333Y-04505D01*
X69400Y-78670D02*
X69400Y-77970D01*
X58333Y-78022D02*
X58643Y-78022D01*
X58476Y-78213D01*
X58548Y-78213D01*
X58595Y-78237D01*
X58619Y-78260D01*
X58643Y-78308D01*
X58643Y-78427D01*
X58619Y-78475D01*
X58595Y-78499D01*
X58548Y-78522D01*
X58405Y-78522D01*
X58357Y-78499D01*
X58333Y-78475D01*
X91200Y-04000D02*
X91200Y-04700D01*
X80395Y-04219D02*
X80395Y-04552D01*
X80276Y-04029D02*
X80157Y-04386D01*
X80467Y-04386D01*
X91200Y-78670D02*
X91200Y-77970D01*
X80395Y-78189D02*
X80395Y-78522D01*
X80276Y-77999D02*
X80157Y-78356D01*
X80467Y-78356D01*
X102219Y-04052D02*
X101981Y-04052D01*
X101957Y-04290D01*
X101981Y-04267D01*
X102029Y-04243D01*
X102148Y-04243D01*
X102195Y-04267D01*
X102219Y-04290D01*
X102243Y-04338D01*
X102243Y-04457D01*
X102219Y-04505D01*
X102195Y-04529D01*
X102148Y-04552D01*
X102029Y-04552D01*
X101981Y-04529D01*
X101957Y-04505D01*
X102219Y-78022D02*
X101981Y-78022D01*
X101957Y-78260D01*
X101981Y-78237D01*
X102029Y-78213D01*
X102148Y-78213D01*
X102195Y-78237D01*
X102219Y-78260D01*
X102243Y-78308D01*
X102243Y-78427D01*
X102219Y-78475D01*
X102195Y-78499D01*
X102148Y-78522D01*
X102029Y-78522D01*
X101981Y-78499D01*
X101957Y-78475D01*
X04000Y-28890D02*
X04700Y-28890D01*
X04231Y-16510D02*
X04469Y-16510D01*
X04184Y-16652D02*
X04350Y-16152D01*
X04517Y-16652D01*
X113000Y-28890D02*
X112300Y-28890D01*
X112531Y-16510D02*
X112769Y-16510D01*
X112484Y-16652D02*
X112650Y-16152D01*
X112817Y-16652D01*
X04000Y-53780D02*
X04700Y-53780D01*
X04386Y-41280D02*
X04457Y-41304D01*
X04481Y-41328D01*
X04505Y-41376D01*
X04505Y-41447D01*
X04481Y-41495D01*
X04457Y-41519D01*
X04410Y-41542D01*
X04219Y-41542D01*
X04219Y-41042D01*
X04386Y-41042D01*
X04433Y-41066D01*
X04457Y-41090D01*
X04481Y-41138D01*
X04481Y-41185D01*
X04457Y-41233D01*
X04433Y-41257D01*
X04386Y-41280D01*
X04219Y-41280D01*
X113000Y-53780D02*
X112300Y-53780D01*
X112686Y-41280D02*
X112757Y-41304D01*
X112781Y-41328D01*
X112805Y-41376D01*
X112805Y-41447D01*
X112781Y-41495D01*
X112757Y-41519D01*
X112710Y-41542D01*
X112519Y-41542D01*
X112519Y-41042D01*
X112686Y-41042D01*
X112733Y-41066D01*
X112757Y-41090D01*
X112781Y-41138D01*
X112781Y-41185D01*
X112757Y-41233D01*
X112733Y-41257D01*
X112686Y-41280D01*
X112519Y-41280D01*
X04505Y-66385D02*
X04481Y-66409D01*
X04410Y-66432D01*
X04362Y-66432D01*
X04290Y-66409D01*
X04243Y-66361D01*
X04219Y-66313D01*
X04195Y-66218D01*
X04195Y-66147D01*
X04219Y-66051D01*
X04243Y-66004D01*
X04290Y-65956D01*
X04362Y-65932D01*
X04410Y-65932D01*
X04481Y-65956D01*
X04505Y-65980D01*
X112805Y-66385D02*
X112781Y-66409D01*
X112710Y-66432D01*
X112662Y-66432D01*
X112590Y-66409D01*
X112543Y-66361D01*
X112519Y-66313D01*
X112495Y-66218D01*
X112495Y-66147D01*
X112519Y-66051D01*
X112543Y-66004D01*
X112590Y-65956D01*
X112662Y-65932D01*
X112710Y-65932D01*
X112781Y-65956D01*
X112805Y-65980D01*
G54D11*
X79443Y-76413D02*
X79443Y-75813D01*
X79586Y-75813D01*
X79671Y-75841D01*
X79729Y-75899D01*
X79757Y-75956D01*
X79786Y-76070D01*
X79786Y-76156D01*
X79757Y-76270D01*
X79729Y-76327D01*
X79671Y-76384D01*
X79586Y-76413D01*
X79443Y-76413D01*
X80300Y-76413D02*
X80300Y-76099D01*
X80271Y-76041D01*
X80214Y-76013D01*
X80100Y-76013D01*
X80043Y-76041D01*
X80300Y-76384D02*
X80243Y-76413D01*
X80100Y-76413D01*
X80043Y-76384D01*
X80014Y-76327D01*
X80014Y-76270D01*
X80043Y-76213D01*
X80100Y-76184D01*
X80243Y-76184D01*
X80300Y-76156D01*
X80500Y-76013D02*
X80729Y-76013D01*
X80586Y-75813D02*
X80586Y-76327D01*
X80614Y-76384D01*
X80672Y-76413D01*
X80729Y-76413D01*
X81157Y-76384D02*
X81100Y-76413D01*
X80986Y-76413D01*
X80929Y-76384D01*
X80900Y-76327D01*
X80900Y-76099D01*
X80929Y-76041D01*
X80986Y-76013D01*
X81100Y-76013D01*
X81157Y-76041D01*
X81186Y-76099D01*
X81186Y-76156D01*
X80900Y-76213D01*
X81443Y-76356D02*
X81471Y-76384D01*
X81443Y-76413D01*
X81414Y-76384D01*
X81443Y-76356D01*
X81443Y-76413D01*
X81443Y-76041D02*
X81471Y-76070D01*
X81443Y-76099D01*
X81414Y-76070D01*
X81443Y-76041D01*
X81443Y-76099D01*
X82500Y-76413D02*
X82157Y-76413D01*
X82329Y-76413D02*
X82329Y-75813D01*
X82272Y-75899D01*
X82214Y-75956D01*
X82157Y-75984D01*
X82785Y-76413D02*
X82900Y-76413D01*
X82957Y-76384D01*
X82985Y-76356D01*
X83043Y-76270D01*
X83071Y-76156D01*
X83071Y-75927D01*
X83043Y-75870D01*
X83014Y-75841D01*
X82957Y-75813D01*
X82843Y-75813D01*
X82785Y-75841D01*
X82757Y-75870D01*
X82728Y-75927D01*
X82728Y-76070D01*
X82757Y-76127D01*
X82785Y-76156D01*
X82843Y-76184D01*
X82957Y-76184D01*
X83014Y-76156D01*
X83043Y-76127D01*
X83071Y-76070D01*
X83785Y-76413D02*
X83785Y-76013D01*
X83785Y-76070D02*
X83813Y-76041D01*
X83871Y-76013D01*
X83956Y-76013D01*
X84013Y-76041D01*
X84042Y-76099D01*
X84042Y-76413D01*
X84042Y-76099D02*
X84071Y-76041D01*
X84128Y-76013D01*
X84213Y-76013D01*
X84271Y-76041D01*
X84299Y-76099D01*
X84299Y-76413D01*
X84842Y-76413D02*
X84842Y-76099D01*
X84813Y-76041D01*
X84756Y-76013D01*
X84642Y-76013D01*
X84585Y-76041D01*
X84842Y-76384D02*
X84785Y-76413D01*
X84642Y-76413D01*
X84585Y-76384D01*
X84556Y-76327D01*
X84556Y-76270D01*
X84585Y-76213D01*
X84642Y-76184D01*
X84785Y-76184D01*
X84842Y-76156D01*
X85128Y-76413D02*
X85128Y-76013D01*
X85128Y-76127D02*
X85156Y-76070D01*
X85185Y-76041D01*
X85242Y-76013D01*
X85299Y-76013D01*
X85927Y-75870D02*
X85956Y-75841D01*
X86013Y-75813D01*
X86156Y-75813D01*
X86213Y-75841D01*
X86242Y-75870D01*
X86270Y-75927D01*
X86270Y-75984D01*
X86242Y-76070D01*
X85899Y-76413D01*
X86270Y-76413D01*
X86641Y-75813D02*
X86698Y-75813D01*
X86755Y-75841D01*
X86784Y-75870D01*
X86813Y-75927D01*
X86841Y-76041D01*
X86841Y-76184D01*
X86813Y-76299D01*
X86784Y-76356D01*
X86755Y-76384D01*
X86698Y-76413D01*
X86641Y-76413D01*
X86584Y-76384D01*
X86555Y-76356D01*
X86527Y-76299D01*
X86498Y-76184D01*
X86498Y-76041D01*
X86527Y-75927D01*
X86555Y-75870D01*
X86584Y-75841D01*
X86641Y-75813D01*
X87412Y-76413D02*
X87069Y-76413D01*
X87241Y-76413D02*
X87241Y-75813D01*
X87184Y-75899D01*
X87126Y-75956D01*
X87069Y-75984D01*
X87612Y-75813D02*
X87983Y-75813D01*
X87783Y-76041D01*
X87869Y-76041D01*
X87926Y-76070D01*
X87955Y-76099D01*
X87983Y-76156D01*
X87983Y-76299D01*
X87955Y-76356D01*
X87926Y-76384D01*
X87869Y-76413D01*
X87697Y-76413D01*
X87640Y-76384D01*
X87612Y-76356D01*
G54D10*
X71043Y-77613D02*
X71043Y-77013D01*
X71386Y-77613D02*
X71129Y-77270D01*
X71386Y-77013D02*
X71043Y-77356D01*
X71643Y-77613D02*
X71643Y-77213D01*
X71643Y-77013D02*
X71614Y-77041D01*
X71643Y-77070D01*
X71671Y-77041D01*
X71643Y-77013D01*
X71643Y-77070D01*
X72272Y-77556D02*
X72243Y-77584D01*
X72157Y-77613D01*
X72100Y-77613D01*
X72015Y-77584D01*
X71957Y-77527D01*
X71929Y-77470D01*
X71900Y-77356D01*
X71900Y-77270D01*
X71929Y-77156D01*
X71957Y-77099D01*
X72015Y-77041D01*
X72100Y-77013D01*
X72157Y-77013D01*
X72243Y-77041D01*
X72272Y-77070D01*
X72786Y-77613D02*
X72786Y-77299D01*
X72757Y-77241D01*
X72700Y-77213D01*
X72586Y-77213D01*
X72529Y-77241D01*
X72786Y-77584D02*
X72729Y-77613D01*
X72586Y-77613D01*
X72529Y-77584D01*
X72500Y-77527D01*
X72500Y-77470D01*
X72529Y-77413D01*
X72586Y-77384D01*
X72729Y-77384D01*
X72786Y-77356D01*
X73329Y-77613D02*
X73329Y-77013D01*
X73329Y-77584D02*
X73272Y-77613D01*
X73158Y-77613D01*
X73100Y-77584D01*
X73072Y-77556D01*
X73043Y-77499D01*
X73043Y-77327D01*
X73072Y-77270D01*
X73100Y-77241D01*
X73158Y-77213D01*
X73272Y-77213D01*
X73329Y-77241D01*
X74072Y-77299D02*
X74272Y-77299D01*
X74358Y-77613D02*
X74072Y-77613D01*
X74072Y-77013D01*
X74358Y-77013D01*
X74615Y-77556D02*
X74643Y-77584D01*
X74615Y-77613D01*
X74586Y-77584D01*
X74615Y-77556D01*
X74615Y-77613D01*
X74901Y-77613D02*
X74901Y-77013D01*
X75044Y-77013D01*
X75129Y-77041D01*
X75187Y-77099D01*
X75215Y-77156D01*
X75244Y-77270D01*
X75244Y-77356D01*
X75215Y-77470D01*
X75187Y-77527D01*
X75129Y-77584D01*
X75044Y-77613D01*
X74901Y-77613D01*
X75501Y-77556D02*
X75529Y-77584D01*
X75501Y-77613D01*
X75472Y-77584D01*
X75501Y-77556D01*
X75501Y-77613D01*
X75758Y-77441D02*
X76044Y-77441D01*
X75701Y-77613D02*
X75901Y-77013D01*
X76101Y-77613D01*
X76301Y-77556D02*
X76329Y-77584D01*
X76301Y-77613D01*
X76272Y-77584D01*
X76301Y-77556D01*
X76301Y-77613D01*
G54D11*
X104586Y-76413D02*
X104386Y-76127D01*
X104243Y-76413D02*
X104243Y-75813D01*
X104471Y-75813D01*
X104529Y-75841D01*
X104557Y-75870D01*
X104586Y-75927D01*
X104586Y-76013D01*
X104557Y-76070D01*
X104529Y-76099D01*
X104471Y-76127D01*
X104243Y-76127D01*
X105071Y-76384D02*
X105014Y-76413D01*
X104900Y-76413D01*
X104843Y-76384D01*
X104814Y-76327D01*
X104814Y-76099D01*
X104843Y-76041D01*
X104900Y-76013D01*
X105014Y-76013D01*
X105071Y-76041D01*
X105100Y-76099D01*
X105100Y-76156D01*
X104814Y-76213D01*
X105300Y-76013D02*
X105443Y-76413D01*
X105585Y-76013D01*
X105814Y-76356D02*
X105842Y-76384D01*
X105814Y-76413D01*
X105785Y-76384D01*
X105814Y-76356D01*
X105814Y-76413D01*
X105814Y-76041D02*
X105842Y-76070D01*
X105814Y-76099D01*
X105785Y-76070D01*
X105814Y-76041D01*
X105814Y-76099D01*
X106871Y-76413D02*
X106528Y-76413D01*
X106700Y-76413D02*
X106700Y-75813D01*
X106643Y-75899D01*
X106585Y-75956D01*
X106528Y-75984D01*
X107128Y-76356D02*
X107156Y-76384D01*
X107128Y-76413D01*
X107099Y-76384D01*
X107128Y-76356D01*
X107128Y-76413D01*
X107528Y-75813D02*
X107585Y-75813D01*
X107642Y-75841D01*
X107671Y-75870D01*
X107700Y-75927D01*
X107728Y-76041D01*
X107728Y-76184D01*
X107700Y-76299D01*
X107671Y-76356D01*
X107642Y-76384D01*
X107585Y-76413D01*
X107528Y-76413D01*
X107471Y-76384D01*
X107442Y-76356D01*
X107414Y-76299D01*
X107385Y-76184D01*
X107385Y-76041D01*
X107414Y-75927D01*
X107442Y-75870D01*
X107471Y-75841D01*
X107528Y-75813D01*
G54D10*
X71014Y-76384D02*
X71100Y-76413D01*
X71243Y-76413D01*
X71300Y-76384D01*
X71329Y-76356D01*
X71357Y-76299D01*
X71357Y-76241D01*
X71329Y-76184D01*
X71300Y-76156D01*
X71243Y-76127D01*
X71129Y-76099D01*
X71071Y-76070D01*
X71043Y-76041D01*
X71014Y-75984D01*
X71014Y-75927D01*
X71043Y-75870D01*
X71071Y-75841D01*
X71129Y-75813D01*
X71271Y-75813D01*
X71357Y-75841D01*
X71614Y-76413D02*
X71614Y-76013D01*
X71614Y-75813D02*
X71585Y-75841D01*
X71614Y-75870D01*
X71642Y-75841D01*
X71614Y-75813D01*
X71614Y-75870D01*
X71843Y-76013D02*
X72157Y-76013D01*
X71843Y-76413D01*
X72157Y-76413D01*
X72614Y-76384D02*
X72557Y-76413D01*
X72443Y-76413D01*
X72386Y-76384D01*
X72357Y-76327D01*
X72357Y-76099D01*
X72386Y-76041D01*
X72443Y-76013D01*
X72557Y-76013D01*
X72614Y-76041D01*
X72643Y-76099D01*
X72643Y-76156D01*
X72357Y-76213D01*
X72900Y-76356D02*
X72928Y-76384D01*
X72900Y-76413D01*
X72871Y-76384D01*
X72900Y-76356D01*
X72900Y-76413D01*
X72900Y-76041D02*
X72928Y-76070D01*
X72900Y-76099D01*
X72871Y-76070D01*
X72900Y-76041D01*
X72900Y-76099D01*
X73614Y-76241D02*
X73900Y-76241D01*
X73557Y-76413D02*
X73757Y-75813D01*
X73957Y-76413D01*
X74414Y-76013D02*
X74414Y-76413D01*
X74271Y-75784D02*
X74128Y-76213D01*
X74500Y-76213D01*
X104243Y-77613D02*
X104243Y-77013D01*
X104786Y-77613D02*
X104786Y-77013D01*
X104786Y-77584D02*
X104729Y-77613D01*
X104615Y-77613D01*
X104557Y-77584D01*
X104529Y-77556D01*
X104500Y-77499D01*
X104500Y-77327D01*
X104529Y-77270D01*
X104557Y-77241D01*
X104615Y-77213D01*
X104729Y-77213D01*
X104786Y-77241D01*
X105072Y-77556D02*
X105100Y-77584D01*
X105072Y-77613D01*
X105043Y-77584D01*
X105072Y-77556D01*
X105072Y-77613D01*
X105072Y-77241D02*
X105100Y-77270D01*
X105072Y-77299D01*
X105043Y-77270D01*
X105072Y-77241D01*
X105072Y-77299D01*
X106129Y-77613D02*
X105786Y-77613D01*
X105958Y-77613D02*
X105958Y-77013D01*
X105901Y-77099D01*
X105843Y-77156D01*
X105786Y-77184D01*
X106814Y-76984D02*
X106300Y-77756D01*
X107329Y-77613D02*
X106986Y-77613D01*
X107158Y-77613D02*
X107158Y-77013D01*
X107101Y-77099D01*
X107043Y-77156D01*
X106986Y-77184D01*
G54D11*
X70957Y-74613D02*
X71300Y-74613D01*
X71129Y-75213D02*
X71129Y-74613D01*
X71500Y-75213D02*
X71500Y-74813D01*
X71500Y-74613D02*
X71471Y-74641D01*
X71500Y-74670D01*
X71528Y-74641D01*
X71500Y-74613D01*
X71500Y-74670D01*
X71700Y-74813D02*
X71929Y-74813D01*
X71786Y-74613D02*
X71786Y-75127D01*
X71814Y-75184D01*
X71872Y-75213D01*
X71929Y-75213D01*
X72215Y-75213D02*
X72157Y-75184D01*
X72129Y-75127D01*
X72129Y-74613D01*
X72671Y-75184D02*
X72614Y-75213D01*
X72500Y-75213D01*
X72443Y-75184D01*
X72414Y-75127D01*
X72414Y-74899D01*
X72443Y-74841D01*
X72500Y-74813D01*
X72614Y-74813D01*
X72671Y-74841D01*
X72700Y-74899D01*
X72700Y-74956D01*
X72414Y-75013D01*
X72957Y-75156D02*
X72985Y-75184D01*
X72957Y-75213D01*
X72928Y-75184D01*
X72957Y-75156D01*
X72957Y-75213D01*
X72957Y-74841D02*
X72985Y-74870D01*
X72957Y-74899D01*
X72928Y-74870D01*
X72957Y-74841D01*
X72957Y-74899D01*
X74043Y-75156D02*
X74014Y-75184D01*
X73928Y-75213D01*
X73871Y-75213D01*
X73786Y-75184D01*
X73728Y-75127D01*
X73700Y-75070D01*
X73671Y-74956D01*
X73671Y-74870D01*
X73700Y-74756D01*
X73728Y-74699D01*
X73786Y-74641D01*
X73871Y-74613D01*
X73928Y-74613D01*
X74014Y-74641D01*
X74043Y-74670D01*
X74557Y-75213D02*
X74557Y-74899D01*
X74528Y-74841D01*
X74471Y-74813D01*
X74357Y-74813D01*
X74300Y-74841D01*
X74557Y-75184D02*
X74500Y-75213D01*
X74357Y-75213D01*
X74300Y-75184D01*
X74271Y-75127D01*
X74271Y-75070D01*
X74300Y-75013D01*
X74357Y-74984D01*
X74500Y-74984D01*
X74557Y-74956D01*
X74843Y-75213D02*
X74843Y-74813D01*
X74843Y-74927D02*
X74871Y-74870D01*
X74900Y-74841D01*
X74957Y-74813D01*
X75014Y-74813D01*
X75128Y-74813D02*
X75357Y-74813D01*
X75214Y-74613D02*
X75214Y-75127D01*
X75242Y-75184D01*
X75300Y-75213D01*
X75357Y-75213D01*
X75785Y-75184D02*
X75728Y-75213D01*
X75614Y-75213D01*
X75557Y-75184D01*
X75528Y-75127D01*
X75528Y-74899D01*
X75557Y-74841D01*
X75614Y-74813D01*
X75728Y-74813D01*
X75785Y-74841D01*
X75814Y-74899D01*
X75814Y-74956D01*
X75528Y-75013D01*
X75928Y-75270D02*
X76385Y-75270D01*
X76785Y-75213D02*
X76785Y-74899D01*
X76756Y-74841D01*
X76699Y-74813D01*
X76585Y-74813D01*
X76528Y-74841D01*
X76785Y-75184D02*
X76728Y-75213D01*
X76585Y-75213D01*
X76528Y-75184D01*
X76499Y-75127D01*
X76499Y-75070D01*
X76528Y-75013D01*
X76585Y-74984D01*
X76728Y-74984D01*
X76785Y-74956D01*
X77157Y-75213D02*
X77099Y-75184D01*
X77071Y-75127D01*
X77071Y-74613D01*
X77385Y-75213D02*
X77385Y-74813D01*
X77385Y-74613D02*
X77356Y-74641D01*
X77385Y-74670D01*
X77413Y-74641D01*
X77385Y-74613D01*
X77385Y-74670D01*
X77671Y-75213D02*
X77671Y-74813D01*
X77671Y-74870D02*
X77699Y-74841D01*
X77757Y-74813D01*
X77842Y-74813D01*
X77899Y-74841D01*
X77928Y-74899D01*
X77928Y-75213D01*
X77928Y-74899D02*
X77957Y-74841D01*
X78014Y-74813D01*
X78099Y-74813D01*
X78157Y-74841D01*
X78185Y-74899D01*
X78185Y-75213D01*
X78699Y-75184D02*
X78642Y-75213D01*
X78528Y-75213D01*
X78471Y-75184D01*
X78442Y-75127D01*
X78442Y-74899D01*
X78471Y-74841D01*
X78528Y-74813D01*
X78642Y-74813D01*
X78699Y-74841D01*
X78728Y-74899D01*
X78728Y-74956D01*
X78442Y-75013D01*
X78985Y-74813D02*
X78985Y-75213D01*
X78985Y-74870D02*
X79013Y-74841D01*
X79071Y-74813D01*
X79156Y-74813D01*
X79213Y-74841D01*
X79242Y-74899D01*
X79242Y-75213D01*
X79442Y-74813D02*
X79671Y-74813D01*
X79528Y-74613D02*
X79528Y-75127D01*
X79556Y-75184D01*
X79614Y-75213D01*
X79671Y-75213D01*
X80128Y-75213D02*
X80128Y-74899D01*
X80099Y-74841D01*
X80042Y-74813D01*
X79928Y-74813D01*
X79871Y-74841D01*
X80128Y-75184D02*
X80071Y-75213D01*
X79928Y-75213D01*
X79871Y-75184D01*
X79842Y-75127D01*
X79842Y-75070D01*
X79871Y-75013D01*
X79928Y-74984D01*
X80071Y-74984D01*
X80128Y-74956D01*
X80328Y-74813D02*
X80557Y-74813D01*
X80414Y-74613D02*
X80414Y-75127D01*
X80442Y-75184D01*
X80500Y-75213D01*
X80557Y-75213D01*
X80757Y-75213D02*
X80757Y-74813D01*
X80757Y-74613D02*
X80728Y-74641D01*
X80757Y-74670D01*
X80785Y-74641D01*
X80757Y-74613D01*
X80757Y-74670D01*
X81129Y-75213D02*
X81071Y-75184D01*
X81043Y-75156D01*
X81014Y-75099D01*
X81014Y-74927D01*
X81043Y-74870D01*
X81071Y-74841D01*
X81129Y-74813D01*
X81214Y-74813D01*
X81271Y-74841D01*
X81300Y-74870D01*
X81329Y-74927D01*
X81329Y-75099D01*
X81300Y-75156D01*
X81271Y-75184D01*
X81214Y-75213D01*
X81129Y-75213D01*
X81586Y-74813D02*
X81586Y-75213D01*
X81586Y-74870D02*
X81614Y-74841D01*
X81672Y-74813D01*
X81757Y-74813D01*
X81814Y-74841D01*
X81843Y-74899D01*
X81843Y-75213D01*
G54D10*
X71243Y-72499D02*
X71043Y-72499D01*
X71043Y-72813D02*
X71043Y-72213D01*
X71329Y-72213D01*
X71557Y-72813D02*
X71557Y-72413D01*
X71557Y-72213D02*
X71528Y-72241D01*
X71557Y-72270D01*
X71585Y-72241D01*
X71557Y-72213D01*
X71557Y-72270D01*
X71929Y-72813D02*
X71871Y-72784D01*
X71843Y-72727D01*
X71843Y-72213D01*
X72385Y-72784D02*
X72328Y-72813D01*
X72214Y-72813D01*
X72157Y-72784D01*
X72128Y-72727D01*
X72128Y-72499D01*
X72157Y-72441D01*
X72214Y-72413D01*
X72328Y-72413D01*
X72385Y-72441D01*
X72414Y-72499D01*
X72414Y-72556D01*
X72128Y-72613D01*
X72671Y-72756D02*
X72699Y-72784D01*
X72671Y-72813D01*
X72642Y-72784D01*
X72671Y-72756D01*
X72671Y-72813D01*
X72671Y-72441D02*
X72699Y-72470D01*
X72671Y-72499D01*
X72642Y-72470D01*
X72671Y-72441D01*
X72671Y-72499D01*
X73671Y-72784D02*
X73614Y-72813D01*
X73500Y-72813D01*
X73442Y-72784D01*
X73414Y-72756D01*
X73385Y-72699D01*
X73385Y-72527D01*
X73414Y-72470D01*
X73442Y-72441D01*
X73500Y-72413D01*
X73614Y-72413D01*
X73671Y-72441D01*
X74185Y-72813D02*
X74185Y-72499D01*
X74156Y-72441D01*
X74099Y-72413D01*
X73985Y-72413D01*
X73928Y-72441D01*
X74185Y-72784D02*
X74128Y-72813D01*
X73985Y-72813D01*
X73928Y-72784D01*
X73899Y-72727D01*
X73899Y-72670D01*
X73928Y-72613D01*
X73985Y-72584D01*
X74128Y-72584D01*
X74185Y-72556D01*
X74471Y-72813D02*
X74471Y-72413D01*
X74471Y-72527D02*
X74499Y-72470D01*
X74528Y-72441D01*
X74585Y-72413D01*
X74642Y-72413D01*
X74756Y-72413D02*
X74985Y-72413D01*
X74842Y-72213D02*
X74842Y-72727D01*
X74870Y-72784D01*
X74928Y-72813D01*
X74985Y-72813D01*
X75413Y-72784D02*
X75356Y-72813D01*
X75242Y-72813D01*
X75185Y-72784D01*
X75156Y-72727D01*
X75156Y-72499D01*
X75185Y-72441D01*
X75242Y-72413D01*
X75356Y-72413D01*
X75413Y-72441D01*
X75442Y-72499D01*
X75442Y-72556D01*
X75156Y-72613D01*
X75556Y-72870D02*
X76013Y-72870D01*
X76413Y-72813D02*
X76413Y-72499D01*
X76384Y-72441D01*
X76327Y-72413D01*
X76213Y-72413D01*
X76156Y-72441D01*
X76413Y-72784D02*
X76356Y-72813D01*
X76213Y-72813D01*
X76156Y-72784D01*
X76127Y-72727D01*
X76127Y-72670D01*
X76156Y-72613D01*
X76213Y-72584D01*
X76356Y-72584D01*
X76413Y-72556D01*
X76785Y-72813D02*
X76727Y-72784D01*
X76699Y-72727D01*
X76699Y-72213D01*
X77013Y-72813D02*
X77013Y-72413D01*
X77013Y-72213D02*
X76984Y-72241D01*
X77013Y-72270D01*
X77041Y-72241D01*
X77013Y-72213D01*
X77013Y-72270D01*
X77299Y-72813D02*
X77299Y-72413D01*
X77299Y-72470D02*
X77327Y-72441D01*
X77385Y-72413D01*
X77470Y-72413D01*
X77527Y-72441D01*
X77556Y-72499D01*
X77556Y-72813D01*
X77556Y-72499D02*
X77585Y-72441D01*
X77642Y-72413D01*
X77727Y-72413D01*
X77785Y-72441D01*
X77813Y-72499D01*
X77813Y-72813D01*
X78327Y-72784D02*
X78270Y-72813D01*
X78156Y-72813D01*
X78099Y-72784D01*
X78070Y-72727D01*
X78070Y-72499D01*
X78099Y-72441D01*
X78156Y-72413D01*
X78270Y-72413D01*
X78327Y-72441D01*
X78356Y-72499D01*
X78356Y-72556D01*
X78070Y-72613D01*
X78613Y-72413D02*
X78613Y-72813D01*
X78613Y-72470D02*
X78641Y-72441D01*
X78699Y-72413D01*
X78784Y-72413D01*
X78841Y-72441D01*
X78870Y-72499D01*
X78870Y-72813D01*
X79070Y-72413D02*
X79299Y-72413D01*
X79156Y-72213D02*
X79156Y-72727D01*
X79184Y-72784D01*
X79242Y-72813D01*
X79299Y-72813D01*
X79756Y-72813D02*
X79756Y-72499D01*
X79727Y-72441D01*
X79670Y-72413D01*
X79556Y-72413D01*
X79499Y-72441D01*
X79756Y-72784D02*
X79699Y-72813D01*
X79556Y-72813D01*
X79499Y-72784D01*
X79470Y-72727D01*
X79470Y-72670D01*
X79499Y-72613D01*
X79556Y-72584D01*
X79699Y-72584D01*
X79756Y-72556D01*
X79956Y-72413D02*
X80185Y-72413D01*
X80042Y-72213D02*
X80042Y-72727D01*
X80070Y-72784D01*
X80128Y-72813D01*
X80185Y-72813D01*
X80385Y-72813D02*
X80385Y-72413D01*
X80385Y-72213D02*
X80356Y-72241D01*
X80385Y-72270D01*
X80413Y-72241D01*
X80385Y-72213D01*
X80385Y-72270D01*
X80757Y-72813D02*
X80699Y-72784D01*
X80671Y-72756D01*
X80642Y-72699D01*
X80642Y-72527D01*
X80671Y-72470D01*
X80699Y-72441D01*
X80757Y-72413D01*
X80842Y-72413D01*
X80899Y-72441D01*
X80928Y-72470D01*
X80957Y-72527D01*
X80957Y-72699D01*
X80928Y-72756D01*
X80899Y-72784D01*
X80842Y-72813D01*
X80757Y-72813D01*
X81214Y-72413D02*
X81214Y-72813D01*
X81214Y-72470D02*
X81242Y-72441D01*
X81300Y-72413D01*
X81385Y-72413D01*
X81442Y-72441D01*
X81471Y-72499D01*
X81471Y-72813D01*
X81757Y-72756D02*
X81785Y-72784D01*
X81757Y-72813D01*
X81728Y-72784D01*
X81757Y-72756D01*
X81757Y-72813D01*
X82043Y-72813D02*
X82043Y-72213D01*
X82043Y-72441D02*
X82100Y-72413D01*
X82214Y-72413D01*
X82271Y-72441D01*
X82300Y-72470D01*
X82329Y-72527D01*
X82329Y-72699D01*
X82300Y-72756D01*
X82271Y-72784D01*
X82214Y-72813D01*
X82100Y-72813D01*
X82043Y-72784D01*
X82586Y-72813D02*
X82586Y-72413D01*
X82586Y-72527D02*
X82614Y-72470D01*
X82643Y-72441D01*
X82700Y-72413D01*
X82757Y-72413D01*
X83214Y-72813D02*
X83214Y-72213D01*
X83214Y-72784D02*
X83157Y-72813D01*
X83043Y-72813D01*
X82985Y-72784D01*
X82957Y-72756D01*
X82928Y-72699D01*
X82928Y-72527D01*
X82957Y-72470D01*
X82985Y-72441D01*
X83043Y-72413D01*
X83157Y-72413D01*
X83214Y-72441D01*
X71014Y-73984D02*
X71100Y-74013D01*
X71243Y-74013D01*
X71300Y-73984D01*
X71329Y-73956D01*
X71357Y-73899D01*
X71357Y-73841D01*
X71329Y-73784D01*
X71300Y-73756D01*
X71243Y-73727D01*
X71129Y-73699D01*
X71071Y-73670D01*
X71043Y-73641D01*
X71014Y-73584D01*
X71014Y-73527D01*
X71043Y-73470D01*
X71071Y-73441D01*
X71129Y-73413D01*
X71271Y-73413D01*
X71357Y-73441D01*
X71614Y-74013D02*
X71614Y-73413D01*
X71871Y-74013D02*
X71871Y-73699D01*
X71842Y-73641D01*
X71785Y-73613D01*
X71700Y-73613D01*
X71642Y-73641D01*
X71614Y-73670D01*
X72385Y-73984D02*
X72328Y-74013D01*
X72214Y-74013D01*
X72157Y-73984D01*
X72128Y-73927D01*
X72128Y-73699D01*
X72157Y-73641D01*
X72214Y-73613D01*
X72328Y-73613D01*
X72385Y-73641D01*
X72414Y-73699D01*
X72414Y-73756D01*
X72128Y-73813D01*
X72899Y-73984D02*
X72842Y-74013D01*
X72728Y-74013D01*
X72671Y-73984D01*
X72642Y-73927D01*
X72642Y-73699D01*
X72671Y-73641D01*
X72728Y-73613D01*
X72842Y-73613D01*
X72899Y-73641D01*
X72928Y-73699D01*
X72928Y-73756D01*
X72642Y-73813D01*
X73099Y-73613D02*
X73328Y-73613D01*
X73185Y-73413D02*
X73185Y-73927D01*
X73213Y-73984D01*
X73271Y-74013D01*
X73328Y-74013D01*
X73528Y-73956D02*
X73556Y-73984D01*
X73528Y-74013D01*
X73499Y-73984D01*
X73528Y-73956D01*
X73528Y-74013D01*
X73528Y-73641D02*
X73556Y-73670D01*
X73528Y-73699D01*
X73499Y-73670D01*
X73528Y-73641D01*
X73528Y-73699D01*
X74585Y-74013D02*
X74242Y-74013D01*
X74414Y-74013D02*
X74414Y-73413D01*
X74357Y-73499D01*
X74299Y-73556D01*
X74242Y-73584D01*
X75270Y-73384D02*
X74756Y-74156D01*
X75785Y-74013D02*
X75442Y-74013D01*
X75614Y-74013D02*
X75614Y-73413D01*
X75557Y-73499D01*
X75499Y-73556D01*
X75442Y-73584D01*
G54D11*
X71043Y-71299D02*
X71243Y-71299D01*
X71329Y-71613D02*
X71043Y-71613D01*
X71043Y-71013D01*
X71329Y-71013D01*
X71586Y-71613D02*
X71586Y-71013D01*
X71814Y-71013D01*
X71872Y-71041D01*
X71900Y-71070D01*
X71929Y-71127D01*
X71929Y-71213D01*
X71900Y-71270D01*
X71872Y-71299D01*
X71814Y-71327D01*
X71586Y-71327D01*
X72157Y-71584D02*
X72243Y-71613D01*
X72386Y-71613D01*
X72443Y-71584D01*
X72472Y-71556D01*
X72500Y-71499D01*
X72500Y-71441D01*
X72472Y-71384D01*
X72443Y-71356D01*
X72386Y-71327D01*
X72272Y-71299D01*
X72214Y-71270D01*
X72186Y-71241D01*
X72157Y-71184D01*
X72157Y-71127D01*
X72186Y-71070D01*
X72214Y-71041D01*
X72272Y-71013D01*
X72414Y-71013D01*
X72500Y-71041D01*
X72728Y-71441D02*
X73014Y-71441D01*
X72671Y-71613D02*
X72871Y-71013D01*
X73071Y-71613D01*
X73728Y-71384D02*
X74185Y-71384D01*
X74928Y-71613D02*
X74928Y-71013D01*
X74928Y-71299D02*
X75271Y-71299D01*
X75271Y-71613D02*
X75271Y-71013D01*
X75500Y-71213D02*
X75643Y-71613D01*
X75785Y-71213D02*
X75643Y-71613D01*
X75585Y-71756D01*
X75557Y-71784D01*
X75500Y-71813D01*
X76014Y-71213D02*
X76014Y-71813D01*
X76014Y-71241D02*
X76071Y-71213D01*
X76185Y-71213D01*
X76242Y-71241D01*
X76271Y-71270D01*
X76300Y-71327D01*
X76300Y-71499D01*
X76271Y-71556D01*
X76242Y-71584D01*
X76185Y-71613D01*
X76071Y-71613D01*
X76014Y-71584D01*
X76557Y-71213D02*
X76557Y-71613D01*
X76557Y-71270D02*
X76585Y-71241D01*
X76643Y-71213D01*
X76728Y-71213D01*
X76785Y-71241D01*
X76814Y-71299D01*
X76814Y-71613D01*
X77186Y-71613D02*
X77128Y-71584D01*
X77100Y-71556D01*
X77071Y-71499D01*
X77071Y-71327D01*
X77100Y-71270D01*
X77128Y-71241D01*
X77186Y-71213D01*
X77271Y-71213D01*
X77328Y-71241D01*
X77357Y-71270D01*
X77386Y-71327D01*
X77386Y-71499D01*
X77357Y-71556D01*
X77328Y-71584D01*
X77271Y-71613D01*
X77186Y-71613D01*
X77586Y-71213D02*
X77900Y-71213D01*
X77586Y-71613D01*
X77900Y-71613D01*
X70300Y-70770D02*
X70300Y-77970D01*
X70300Y-71970D02*
X112300Y-71970D01*
X70300Y-70770D02*
X112300Y-70770D01*
X70300Y-74370D02*
X112300Y-74370D01*
X103500Y-75570D02*
X103500Y-77970D01*
X70300Y-76770D02*
X112300Y-76770D01*
X70300Y-75570D02*
X112300Y-75570D01*
X76900Y-75570D02*
X76900Y-76770D01*
G54D12*
X50900Y-22500D02*
X50882Y-22674D01*
X50832Y-22842D01*
X50749Y-22998D01*
X50638Y-23134D01*
X50503Y-23246D01*
X50348Y-23329D01*
X50180Y-23381D01*
X50006Y-23399D01*
X49832Y-23384D01*
X49663Y-23334D01*
X49508Y-23253D01*
X49371Y-23143D01*
X49258Y-23008D01*
X49173Y-22854D01*
X49120Y-22687D01*
X49101Y-22512D01*
X49115Y-22338D01*
X49164Y-22169D01*
X49244Y-22013D01*
X49353Y-21875D01*
X49487Y-21761D01*
X49640Y-21676D01*
X49807Y-21621D01*
X49982Y-21601D01*
X50156Y-21614D01*
X50325Y-21661D01*
X50482Y-21741D01*
X50620Y-21849D01*
X50735Y-21982D01*
X50822Y-22134D01*
X50877Y-22301D01*
X50899Y-22475D01*
X50900Y-22500D01*
X50900Y-50000D02*
X50882Y-50174D01*
X50832Y-50342D01*
X50749Y-50498D01*
X50638Y-50634D01*
X50503Y-50746D01*
X50348Y-50829D01*
X50180Y-50881D01*
X50006Y-50899D01*
X49832Y-50884D01*
X49663Y-50834D01*
X49508Y-50753D01*
X49371Y-50643D01*
X49258Y-50508D01*
X49173Y-50354D01*
X49120Y-50187D01*
X49101Y-50012D01*
X49115Y-49838D01*
X49164Y-49669D01*
X49244Y-49513D01*
X49353Y-49375D01*
X49487Y-49261D01*
X49640Y-49176D01*
X49807Y-49121D01*
X49982Y-49101D01*
X50156Y-49114D01*
X50325Y-49161D01*
X50482Y-49241D01*
X50620Y-49349D01*
X50735Y-49482D01*
X50822Y-49634D01*
X50877Y-49801D01*
X50899Y-49975D01*
X50900Y-50000D01*
X23400Y-50000D02*
X23382Y-50174D01*
X23332Y-50342D01*
X23249Y-50498D01*
X23138Y-50634D01*
X23003Y-50746D01*
X22848Y-50829D01*
X22680Y-50881D01*
X22506Y-50899D01*
X22332Y-50884D01*
X22163Y-50834D01*
X22008Y-50753D01*
X21871Y-50643D01*
X21758Y-50508D01*
X21673Y-50354D01*
X21620Y-50187D01*
X21601Y-50012D01*
X21615Y-49838D01*
X21664Y-49669D01*
X21744Y-49513D01*
X21853Y-49375D01*
X21987Y-49261D01*
X22140Y-49176D01*
X22307Y-49121D01*
X22482Y-49101D01*
X22656Y-49114D01*
X22825Y-49161D01*
X22982Y-49241D01*
X23120Y-49349D01*
X23235Y-49482D01*
X23322Y-49634D01*
X23377Y-49801D01*
X23399Y-49975D01*
X23400Y-50000D01*
G54D11*
X26500Y-45000D02*
X31000Y-45000D01*
X31000Y-45000D02*
X32000Y-46000D01*
X32000Y-46000D02*
X32000Y-47000D01*
X32000Y-47000D02*
X31000Y-48000D01*
X31000Y-48000D02*
X26500Y-48000D01*
X26500Y-48000D02*
X26500Y-45000D01*
X29800Y-45000D02*
X30250Y-45000D01*
X30150Y-48000D02*
X29800Y-48000D01*
X28500Y-46300D02*
X31450Y-46300D01*
X28500Y-46700D02*
X31450Y-46700D01*
X31520Y-46500D02*
X31491Y-46795D01*
X31405Y-47079D01*
X31266Y-47341D01*
X31078Y-47571D01*
X30849Y-47760D01*
X30589Y-47901D01*
X30305Y-47988D01*
X30010Y-48019D01*
X29716Y-47993D01*
X29431Y-47909D01*
X29168Y-47771D01*
X28937Y-47585D01*
X28746Y-47358D01*
X28603Y-47098D01*
X28514Y-46816D01*
X28481Y-46521D01*
X28505Y-46226D01*
X28587Y-45941D01*
X28723Y-45677D01*
X28907Y-45445D01*
X29133Y-45252D01*
X29392Y-45108D01*
X29674Y-45016D01*
X29969Y-44981D01*
X30263Y-45004D01*
X30549Y-45083D01*
X30814Y-45217D01*
X31048Y-45400D01*
X31242Y-45624D01*
X31388Y-45882D01*
X31482Y-46164D01*
X31519Y-46458D01*
X31520Y-46500D01*
G54D12*
X29500Y-42000D02*
X29500Y-30500D01*
X29500Y-30500D02*
X34500Y-30500D01*
X34500Y-30500D02*
X34500Y-42000D01*
X34500Y-42000D02*
X29500Y-42000D01*
G54D11*
X39500Y-26250D02*
X39300Y-26250D01*
X36500Y-26250D02*
X36700Y-26250D01*
X36700Y-26250D02*
X36700Y-26650D01*
X36700Y-26650D02*
X39300Y-26650D01*
X39300Y-26650D02*
X39300Y-25850D01*
X39300Y-25850D02*
X36700Y-25850D01*
X36700Y-25850D02*
X36700Y-26250D01*
X39300Y-26450D02*
X39100Y-26650D01*
X36500Y-27250D02*
X36700Y-27250D01*
X39500Y-27250D02*
X39300Y-27250D01*
X39300Y-27250D02*
X39300Y-26850D01*
X39300Y-26850D02*
X36700Y-26850D01*
X36700Y-26850D02*
X36700Y-27650D01*
X36700Y-27650D02*
X39300Y-27650D01*
X39300Y-27650D02*
X39300Y-27250D01*
X36700Y-27050D02*
X36900Y-26850D01*
G54D12*
X23500Y-36250D02*
X23250Y-36250D01*
X23250Y-36250D02*
X23250Y-37750D01*
X23250Y-37750D02*
X23500Y-37750D01*
X23500Y-36000D02*
X21250Y-36000D01*
X21250Y-36000D02*
X21250Y-38000D01*
X21250Y-38000D02*
X23500Y-38000D01*
X23500Y-38000D02*
X23500Y-36000D01*
G54D10*
X22000Y-36000D02*
X23000Y-36000D01*
X23000Y-38000D02*
X22000Y-38000D01*
G54D12*
X49000Y-30500D02*
X49250Y-30500D01*
X49250Y-30500D02*
X49250Y-29000D01*
X49250Y-29000D02*
X49000Y-29000D01*
X49000Y-30750D02*
X51250Y-30750D01*
X51250Y-30750D02*
X51250Y-28750D01*
X51250Y-28750D02*
X49000Y-28750D01*
X49000Y-28750D02*
X49000Y-30750D01*
G54D10*
X50500Y-30750D02*
X49500Y-30750D01*
X49500Y-28750D02*
X50500Y-28750D01*
G54D12*
X49000Y-32500D02*
X49250Y-32500D01*
X49250Y-32500D02*
X49250Y-31000D01*
X49250Y-31000D02*
X49000Y-31000D01*
X49000Y-32750D02*
X51250Y-32750D01*
X51250Y-32750D02*
X51250Y-30750D01*
X51250Y-30750D02*
X49000Y-30750D01*
X49000Y-30750D02*
X49000Y-32750D01*
G54D10*
X50500Y-32750D02*
X49500Y-32750D01*
X49500Y-30750D02*
X50500Y-30750D01*
G54D11*
X27750Y-28000D02*
X27750Y-38000D01*
X27750Y-38000D02*
X25750Y-38000D01*
X25750Y-38000D02*
X25750Y-28000D01*
X25750Y-28000D02*
X27750Y-28000D01*
X27750Y-31000D02*
X25750Y-31000D01*
X27750Y-35000D02*
X25750Y-35000D01*
X38750Y-30250D02*
X38750Y-30750D01*
X38250Y-31250D02*
X38250Y-30750D01*
X38250Y-30750D02*
X39250Y-30750D01*
X39250Y-30750D02*
X39250Y-31250D01*
X40250Y-31250D02*
X40250Y-41750D01*
X40250Y-41750D02*
X37250Y-41750D01*
X37250Y-41750D02*
X37250Y-31250D01*
X38750Y-41750D02*
X38750Y-42250D01*
X40250Y-32250D02*
X37250Y-32250D01*
X40250Y-32750D02*
X37250Y-32750D01*
X40250Y-31250D02*
X37250Y-31250D01*
X44750Y-30250D02*
X44750Y-30750D01*
X44250Y-31250D02*
X44250Y-30750D01*
X44250Y-30750D02*
X45250Y-30750D01*
X45250Y-30750D02*
X45250Y-31250D01*
X46250Y-31250D02*
X46250Y-41750D01*
X46250Y-41750D02*
X43250Y-41750D01*
X43250Y-41750D02*
X43250Y-31250D01*
X44750Y-41750D02*
X44750Y-42250D01*
X46250Y-32250D02*
X43250Y-32250D01*
X46250Y-32750D02*
X43250Y-32750D01*
X46250Y-31250D02*
X43250Y-31250D01*
G54D12*
X49000Y-34500D02*
X49250Y-34500D01*
X49250Y-34500D02*
X49250Y-33000D01*
X49250Y-33000D02*
X49000Y-33000D01*
X49000Y-34750D02*
X51250Y-34750D01*
X51250Y-34750D02*
X51250Y-32750D01*
X51250Y-32750D02*
X49000Y-32750D01*
X49000Y-32750D02*
X49000Y-34750D01*
G54D10*
X50500Y-34750D02*
X49500Y-34750D01*
X49500Y-32750D02*
X50500Y-32750D01*
G54D12*
X49000Y-38000D02*
X49250Y-38000D01*
X49250Y-38000D02*
X49250Y-36500D01*
X49250Y-36500D02*
X49000Y-36500D01*
X49000Y-38250D02*
X51250Y-38250D01*
X51250Y-38250D02*
X51250Y-36250D01*
X51250Y-36250D02*
X49000Y-36250D01*
X49000Y-36250D02*
X49000Y-38250D01*
G54D10*
X50500Y-38250D02*
X49500Y-38250D01*
X49500Y-36250D02*
X50500Y-36250D01*
G54D12*
X49000Y-40000D02*
X49250Y-40000D01*
X49250Y-40000D02*
X49250Y-38500D01*
X49250Y-38500D02*
X49000Y-38500D01*
X49000Y-40250D02*
X51250Y-40250D01*
X51250Y-40250D02*
X51250Y-38250D01*
X51250Y-38250D02*
X49000Y-38250D01*
X49000Y-38250D02*
X49000Y-40250D01*
G54D10*
X50500Y-40250D02*
X49500Y-40250D01*
X49500Y-38250D02*
X50500Y-38250D01*
G54D12*
X49000Y-42000D02*
X49250Y-42000D01*
X49250Y-42000D02*
X49250Y-40500D01*
X49250Y-40500D02*
X49000Y-40500D01*
X49000Y-42250D02*
X51250Y-42250D01*
X51250Y-42250D02*
X51250Y-40250D01*
X51250Y-40250D02*
X49000Y-40250D01*
X49000Y-40250D02*
X49000Y-42250D01*
G54D10*
X50500Y-42250D02*
X49500Y-42250D01*
X49500Y-40250D02*
X50500Y-40250D01*
G54D11*
X30500Y-43000D02*
X33500Y-43000D01*
X33500Y-43000D02*
X33500Y-44000D01*
X33500Y-44000D02*
X30500Y-44000D01*
X30500Y-44000D02*
X30500Y-43000D01*
X33250Y-43000D02*
X33250Y-44000D01*
X33000Y-44000D02*
X33000Y-43000D01*
X30500Y-43500D02*
X30000Y-43500D01*
X33500Y-43500D02*
X34000Y-43500D01*
X21500Y-32000D02*
X21500Y-28000D01*
X21000Y-32000D02*
X24000Y-32000D01*
X24000Y-32000D02*
X24000Y-28000D01*
X24000Y-28000D02*
X21000Y-28000D01*
X21000Y-28000D02*
X21000Y-32000D01*
G54D13*
X48885Y-22412D02*
X48885Y-22012D01*
X49019Y-22298D01*
X49152Y-22012D01*
X49152Y-22412D01*
X49304Y-22012D02*
X49552Y-22012D01*
X49418Y-22164D01*
X49476Y-22164D01*
X49514Y-22183D01*
X49533Y-22202D01*
X49552Y-22240D01*
X49552Y-22336D01*
X49533Y-22374D01*
X49514Y-22393D01*
X49476Y-22412D01*
X49361Y-22412D01*
X49323Y-22393D01*
X49304Y-22374D01*
X49628Y-22450D02*
X49933Y-22450D01*
X50028Y-22412D02*
X50028Y-22012D01*
X50200Y-22412D02*
X50200Y-22202D01*
X50181Y-22164D01*
X50143Y-22145D01*
X50085Y-22145D01*
X50047Y-22164D01*
X50028Y-22183D01*
X50447Y-22412D02*
X50409Y-22393D01*
X50390Y-22374D01*
X50371Y-22336D01*
X50371Y-22221D01*
X50390Y-22183D01*
X50409Y-22164D01*
X50447Y-22145D01*
X50505Y-22145D01*
X50543Y-22164D01*
X50562Y-22183D01*
X50581Y-22221D01*
X50581Y-22336D01*
X50562Y-22374D01*
X50543Y-22393D01*
X50505Y-22412D01*
X50447Y-22412D01*
X50809Y-22412D02*
X50771Y-22393D01*
X50752Y-22355D01*
X50752Y-22012D01*
X51115Y-22393D02*
X51077Y-22412D01*
X51000Y-22412D01*
X50962Y-22393D01*
X50943Y-22355D01*
X50943Y-22202D01*
X50962Y-22164D01*
X51000Y-22145D01*
X51077Y-22145D01*
X51115Y-22164D01*
X51134Y-22202D01*
X51134Y-22240D01*
X50943Y-22279D01*
X48885Y-49912D02*
X48885Y-49512D01*
X49019Y-49798D01*
X49152Y-49512D01*
X49152Y-49912D01*
X49304Y-49512D02*
X49552Y-49512D01*
X49418Y-49664D01*
X49476Y-49664D01*
X49514Y-49683D01*
X49533Y-49702D01*
X49552Y-49740D01*
X49552Y-49836D01*
X49533Y-49874D01*
X49514Y-49893D01*
X49476Y-49912D01*
X49361Y-49912D01*
X49323Y-49893D01*
X49304Y-49874D01*
X49628Y-49950D02*
X49933Y-49950D01*
X50028Y-49912D02*
X50028Y-49512D01*
X50200Y-49912D02*
X50200Y-49702D01*
X50181Y-49664D01*
X50143Y-49645D01*
X50085Y-49645D01*
X50047Y-49664D01*
X50028Y-49683D01*
X50447Y-49912D02*
X50409Y-49893D01*
X50390Y-49874D01*
X50371Y-49836D01*
X50371Y-49721D01*
X50390Y-49683D01*
X50409Y-49664D01*
X50447Y-49645D01*
X50505Y-49645D01*
X50543Y-49664D01*
X50562Y-49683D01*
X50581Y-49721D01*
X50581Y-49836D01*
X50562Y-49874D01*
X50543Y-49893D01*
X50505Y-49912D01*
X50447Y-49912D01*
X50809Y-49912D02*
X50771Y-49893D01*
X50752Y-49855D01*
X50752Y-49512D01*
X51115Y-49893D02*
X51077Y-49912D01*
X51000Y-49912D01*
X50962Y-49893D01*
X50943Y-49855D01*
X50943Y-49702D01*
X50962Y-49664D01*
X51000Y-49645D01*
X51077Y-49645D01*
X51115Y-49664D01*
X51134Y-49702D01*
X51134Y-49740D01*
X50943Y-49779D01*
X21385Y-49912D02*
X21385Y-49512D01*
X21519Y-49798D01*
X21652Y-49512D01*
X21652Y-49912D01*
X21804Y-49512D02*
X22052Y-49512D01*
X21918Y-49664D01*
X21976Y-49664D01*
X22014Y-49683D01*
X22033Y-49702D01*
X22052Y-49740D01*
X22052Y-49836D01*
X22033Y-49874D01*
X22014Y-49893D01*
X21976Y-49912D01*
X21861Y-49912D01*
X21823Y-49893D01*
X21804Y-49874D01*
X22128Y-49950D02*
X22433Y-49950D01*
X22528Y-49912D02*
X22528Y-49512D01*
X22700Y-49912D02*
X22700Y-49702D01*
X22681Y-49664D01*
X22643Y-49645D01*
X22585Y-49645D01*
X22547Y-49664D01*
X22528Y-49683D01*
X22947Y-49912D02*
X22909Y-49893D01*
X22890Y-49874D01*
X22871Y-49836D01*
X22871Y-49721D01*
X22890Y-49683D01*
X22909Y-49664D01*
X22947Y-49645D01*
X23005Y-49645D01*
X23043Y-49664D01*
X23062Y-49683D01*
X23081Y-49721D01*
X23081Y-49836D01*
X23062Y-49874D01*
X23043Y-49893D01*
X23005Y-49912D01*
X22947Y-49912D01*
X23309Y-49912D02*
X23271Y-49893D01*
X23252Y-49855D01*
X23252Y-49512D01*
X23615Y-49893D02*
X23577Y-49912D01*
X23500Y-49912D01*
X23462Y-49893D01*
X23443Y-49855D01*
X23443Y-49702D01*
X23462Y-49664D01*
X23500Y-49645D01*
X23577Y-49645D01*
X23615Y-49664D01*
X23634Y-49702D01*
X23634Y-49740D01*
X23443Y-49779D01*
G54D14*
X28203Y-44723D02*
X28036Y-44461D01*
X27917Y-44723D02*
X27917Y-44173D01*
X28108Y-44173D01*
X28155Y-44199D01*
X28179Y-44225D01*
X28203Y-44277D01*
X28203Y-44356D01*
X28179Y-44408D01*
X28155Y-44435D01*
X28108Y-44461D01*
X27917Y-44461D01*
X28346Y-44173D02*
X28512Y-44723D01*
X28679Y-44173D01*
X29108Y-44723D02*
X28822Y-44723D01*
X28965Y-44723D02*
X28965Y-44173D01*
X28917Y-44251D01*
X28870Y-44304D01*
X28822Y-44330D01*
X28374Y-48323D02*
X28540Y-48873D01*
X28707Y-48323D01*
X28874Y-48663D02*
X29255Y-48663D01*
G54D11*
X32743Y-36692D02*
X32143Y-36692D01*
X32743Y-36349D02*
X32400Y-36606D01*
X32143Y-36349D02*
X32486Y-36692D01*
X32743Y-35778D02*
X32743Y-36121D01*
X32743Y-35949D02*
X32143Y-35949D01*
X32229Y-36006D01*
X32286Y-36064D01*
X32314Y-36121D01*
X31743Y-37964D02*
X31457Y-38164D01*
X31743Y-38307D02*
X31143Y-38307D01*
X31143Y-38079D01*
X31171Y-38021D01*
X31200Y-37993D01*
X31257Y-37964D01*
X31343Y-37964D01*
X31400Y-37993D01*
X31429Y-38021D01*
X31457Y-38079D01*
X31457Y-38307D01*
X31714Y-37479D02*
X31743Y-37536D01*
X31743Y-37650D01*
X31714Y-37707D01*
X31657Y-37736D01*
X31429Y-37736D01*
X31371Y-37707D01*
X31343Y-37650D01*
X31343Y-37536D01*
X31371Y-37479D01*
X31429Y-37450D01*
X31486Y-37450D01*
X31543Y-37736D01*
X31743Y-37107D02*
X31714Y-37165D01*
X31657Y-37193D01*
X31143Y-37193D01*
X31743Y-36622D02*
X31429Y-36622D01*
X31371Y-36651D01*
X31343Y-36708D01*
X31343Y-36822D01*
X31371Y-36879D01*
X31714Y-36622D02*
X31743Y-36679D01*
X31743Y-36822D01*
X31714Y-36879D01*
X31657Y-36908D01*
X31600Y-36908D01*
X31543Y-36879D01*
X31514Y-36822D01*
X31514Y-36679D01*
X31486Y-36622D01*
X31743Y-36336D02*
X31343Y-36336D01*
X31143Y-36336D02*
X31171Y-36365D01*
X31200Y-36336D01*
X31171Y-36308D01*
X31143Y-36336D01*
X31200Y-36336D01*
X31714Y-36079D02*
X31743Y-36022D01*
X31743Y-35907D01*
X31714Y-35850D01*
X31657Y-35822D01*
X31629Y-35822D01*
X31571Y-35850D01*
X31543Y-35907D01*
X31543Y-35993D01*
X31514Y-36050D01*
X31457Y-36079D01*
X31429Y-36079D01*
X31371Y-36050D01*
X31343Y-35993D01*
X31343Y-35907D01*
X31371Y-35850D01*
X31800Y-35707D02*
X31800Y-35250D01*
X31429Y-34907D02*
X31457Y-34821D01*
X31486Y-34793D01*
X31543Y-34764D01*
X31629Y-34764D01*
X31686Y-34793D01*
X31714Y-34821D01*
X31743Y-34879D01*
X31743Y-35107D01*
X31143Y-35107D01*
X31143Y-34907D01*
X31171Y-34850D01*
X31200Y-34821D01*
X31257Y-34793D01*
X31314Y-34793D01*
X31371Y-34821D01*
X31400Y-34850D01*
X31429Y-34907D01*
X31429Y-35107D01*
X31743Y-34507D02*
X31143Y-34507D01*
X31143Y-34279D01*
X31171Y-34221D01*
X31200Y-34193D01*
X31257Y-34164D01*
X31343Y-34164D01*
X31400Y-34193D01*
X31429Y-34221D01*
X31457Y-34279D01*
X31457Y-34507D01*
G54D14*
X37917Y-25723D02*
X37750Y-25461D01*
X37631Y-25723D02*
X37631Y-25173D01*
X37822Y-25173D01*
X37869Y-25199D01*
X37893Y-25225D01*
X37917Y-25277D01*
X37917Y-25356D01*
X37893Y-25408D01*
X37869Y-25435D01*
X37822Y-25461D01*
X37631Y-25461D01*
X38393Y-25723D02*
X38107Y-25723D01*
X38250Y-25723D02*
X38250Y-25173D01*
X38202Y-25251D01*
X38155Y-25304D01*
X38107Y-25330D01*
X37560Y-25923D02*
X37322Y-25923D01*
X37298Y-26185D01*
X37322Y-26158D01*
X37370Y-26132D01*
X37489Y-26132D01*
X37536Y-26158D01*
X37560Y-26185D01*
X37584Y-26237D01*
X37584Y-26368D01*
X37560Y-26420D01*
X37536Y-26446D01*
X37489Y-26473D01*
X37370Y-26473D01*
X37322Y-26446D01*
X37298Y-26420D01*
X37798Y-26420D02*
X37822Y-26446D01*
X37798Y-26473D01*
X37774Y-26446D01*
X37798Y-26420D01*
X37798Y-26473D01*
X38250Y-25923D02*
X38155Y-25923D01*
X38107Y-25949D01*
X38084Y-25975D01*
X38036Y-26054D01*
X38012Y-26158D01*
X38012Y-26368D01*
X38036Y-26420D01*
X38060Y-26446D01*
X38107Y-26473D01*
X38203Y-26473D01*
X38250Y-26446D01*
X38274Y-26420D01*
X38298Y-26368D01*
X38298Y-26237D01*
X38274Y-26185D01*
X38250Y-26158D01*
X38203Y-26132D01*
X38107Y-26132D01*
X38060Y-26158D01*
X38036Y-26185D01*
X38012Y-26237D01*
X38512Y-26473D02*
X38512Y-25923D01*
X38560Y-26263D02*
X38703Y-26473D01*
X38703Y-26106D02*
X38512Y-26315D01*
X37917Y-28723D02*
X37750Y-28461D01*
X37631Y-28723D02*
X37631Y-28173D01*
X37822Y-28173D01*
X37869Y-28199D01*
X37893Y-28225D01*
X37917Y-28277D01*
X37917Y-28356D01*
X37893Y-28408D01*
X37869Y-28435D01*
X37822Y-28461D01*
X37631Y-28461D01*
X38107Y-28225D02*
X38131Y-28199D01*
X38179Y-28173D01*
X38298Y-28173D01*
X38345Y-28199D01*
X38369Y-28225D01*
X38393Y-28277D01*
X38393Y-28330D01*
X38369Y-28408D01*
X38083Y-28723D01*
X38393Y-28723D01*
X37893Y-27106D02*
X37893Y-27473D01*
X37774Y-26896D02*
X37655Y-27289D01*
X37965Y-27289D01*
X38155Y-27473D02*
X38155Y-26923D01*
X38203Y-27263D02*
X38346Y-27473D01*
X38346Y-27106D02*
X38155Y-27315D01*
G54D10*
X21871Y-37222D02*
X21571Y-37222D01*
X21571Y-37107D01*
X21586Y-37079D01*
X21600Y-37064D01*
X21629Y-37050D01*
X21671Y-37050D01*
X21700Y-37064D01*
X21714Y-37079D01*
X21729Y-37107D01*
X21729Y-37222D01*
X21871Y-36764D02*
X21871Y-36936D01*
X21871Y-36850D02*
X21571Y-36850D01*
X21614Y-36879D01*
X21643Y-36907D01*
X21657Y-36936D01*
X23821Y-38827D02*
X23821Y-38656D01*
X24121Y-38742D02*
X23821Y-38742D01*
X24121Y-38427D02*
X23964Y-38427D01*
X23936Y-38441D01*
X23921Y-38470D01*
X23921Y-38527D01*
X23936Y-38556D01*
X24107Y-38427D02*
X24121Y-38456D01*
X24121Y-38527D01*
X24107Y-38556D01*
X24079Y-38570D01*
X24050Y-38570D01*
X24021Y-38556D01*
X24007Y-38527D01*
X24007Y-38456D01*
X23993Y-38427D01*
X24121Y-38285D02*
X23821Y-38285D01*
X23936Y-38285D02*
X23921Y-38256D01*
X23921Y-38199D01*
X23936Y-38170D01*
X23950Y-38156D01*
X23979Y-38142D01*
X24064Y-38142D01*
X24093Y-38156D01*
X24107Y-38170D01*
X24121Y-38199D01*
X24121Y-38256D01*
X24107Y-38285D01*
X24121Y-37971D02*
X24107Y-37999D01*
X24079Y-38014D01*
X23821Y-38014D01*
X24107Y-37742D02*
X24121Y-37771D01*
X24121Y-37828D01*
X24107Y-37857D01*
X24079Y-37871D01*
X23964Y-37871D01*
X23936Y-37857D01*
X23921Y-37828D01*
X23921Y-37771D01*
X23936Y-37742D01*
X23964Y-37728D01*
X23993Y-37728D01*
X24021Y-37871D01*
X24121Y-37471D02*
X23964Y-37471D01*
X23936Y-37485D01*
X23921Y-37514D01*
X23921Y-37571D01*
X23936Y-37600D01*
X24107Y-37471D02*
X24121Y-37500D01*
X24121Y-37571D01*
X24107Y-37600D01*
X24079Y-37614D01*
X24050Y-37614D01*
X24021Y-37600D01*
X24007Y-37571D01*
X24007Y-37500D01*
X23993Y-37471D01*
X23921Y-37200D02*
X24121Y-37200D01*
X23921Y-37329D02*
X24079Y-37329D01*
X24107Y-37314D01*
X24121Y-37286D01*
X24121Y-37243D01*
X24107Y-37214D01*
X24093Y-37200D01*
X24150Y-37129D02*
X24150Y-36900D01*
X24121Y-36700D02*
X23821Y-36700D01*
X24107Y-36700D02*
X24121Y-36729D01*
X24121Y-36786D01*
X24107Y-36814D01*
X24093Y-36829D01*
X24064Y-36843D01*
X23979Y-36843D01*
X23950Y-36829D01*
X23936Y-36814D01*
X23921Y-36786D01*
X23921Y-36729D01*
X23936Y-36700D01*
X24107Y-36443D02*
X24121Y-36472D01*
X24121Y-36529D01*
X24107Y-36558D01*
X24079Y-36572D01*
X23964Y-36572D01*
X23936Y-36558D01*
X23921Y-36529D01*
X23921Y-36472D01*
X23936Y-36443D01*
X23964Y-36429D01*
X23993Y-36429D01*
X24021Y-36572D01*
X24150Y-36372D02*
X24150Y-36143D01*
X24121Y-36072D02*
X23821Y-36072D01*
X23936Y-36072D02*
X23921Y-36043D01*
X23921Y-35986D01*
X23936Y-35957D01*
X23950Y-35943D01*
X23979Y-35929D01*
X24064Y-35929D01*
X24093Y-35943D01*
X24107Y-35957D01*
X24121Y-35986D01*
X24121Y-36043D01*
X24107Y-36072D01*
X24121Y-35758D02*
X24107Y-35786D01*
X24093Y-35801D01*
X24064Y-35815D01*
X23979Y-35815D01*
X23950Y-35801D01*
X23936Y-35786D01*
X23921Y-35758D01*
X23921Y-35715D01*
X23936Y-35686D01*
X23950Y-35672D01*
X23979Y-35658D01*
X24064Y-35658D01*
X24093Y-35672D01*
X24107Y-35686D01*
X24121Y-35715D01*
X24121Y-35758D01*
X24121Y-35530D02*
X23921Y-35530D01*
X23979Y-35530D02*
X23950Y-35515D01*
X23936Y-35501D01*
X23921Y-35472D01*
X23921Y-35444D01*
X24121Y-35215D02*
X23821Y-35215D01*
X24107Y-35215D02*
X24121Y-35244D01*
X24121Y-35301D01*
X24107Y-35329D01*
X24093Y-35344D01*
X24064Y-35358D01*
X23979Y-35358D01*
X23950Y-35344D01*
X23936Y-35329D01*
X23921Y-35301D01*
X23921Y-35244D01*
X23936Y-35215D01*
X50871Y-29972D02*
X50571Y-29972D01*
X50571Y-29857D01*
X50586Y-29829D01*
X50600Y-29814D01*
X50629Y-29800D01*
X50671Y-29800D01*
X50700Y-29814D01*
X50714Y-29829D01*
X50729Y-29857D01*
X50729Y-29972D01*
X50571Y-29700D02*
X50571Y-29514D01*
X50686Y-29614D01*
X50686Y-29572D01*
X50700Y-29543D01*
X50714Y-29529D01*
X50743Y-29514D01*
X50814Y-29514D01*
X50843Y-29529D01*
X50857Y-29543D01*
X50871Y-29572D01*
X50871Y-29657D01*
X50857Y-29686D01*
X50843Y-29700D01*
X48536Y-30222D02*
X48536Y-30079D01*
X48621Y-30250D02*
X48321Y-30150D01*
X48621Y-30050D01*
X48621Y-29808D02*
X48621Y-29951D01*
X48321Y-29951D01*
X48621Y-29708D02*
X48321Y-29708D01*
X48621Y-29565D02*
X48321Y-29565D01*
X48536Y-29465D01*
X48321Y-29365D01*
X48621Y-29365D01*
X48621Y-29064D02*
X48621Y-29236D01*
X48621Y-29150D02*
X48321Y-29150D01*
X48364Y-29179D01*
X48393Y-29207D01*
X48407Y-29236D01*
X48621Y-28778D02*
X48621Y-28950D01*
X48621Y-28864D02*
X48321Y-28864D01*
X48364Y-28893D01*
X48393Y-28921D01*
X48407Y-28950D01*
X50871Y-31972D02*
X50571Y-31972D01*
X50571Y-31857D01*
X50586Y-31829D01*
X50600Y-31814D01*
X50629Y-31800D01*
X50671Y-31800D01*
X50700Y-31814D01*
X50714Y-31829D01*
X50729Y-31857D01*
X50729Y-31972D01*
X50671Y-31543D02*
X50871Y-31543D01*
X50557Y-31614D02*
X50771Y-31686D01*
X50771Y-31500D01*
X48536Y-32222D02*
X48536Y-32079D01*
X48621Y-32250D02*
X48321Y-32150D01*
X48621Y-32050D01*
X48621Y-31808D02*
X48621Y-31951D01*
X48321Y-31951D01*
X48621Y-31708D02*
X48321Y-31708D01*
X48621Y-31565D02*
X48321Y-31565D01*
X48536Y-31465D01*
X48321Y-31365D01*
X48621Y-31365D01*
X48621Y-31064D02*
X48621Y-31236D01*
X48621Y-31150D02*
X48321Y-31150D01*
X48364Y-31179D01*
X48393Y-31207D01*
X48407Y-31236D01*
X48350Y-30950D02*
X48336Y-30936D01*
X48321Y-30907D01*
X48321Y-30836D01*
X48336Y-30807D01*
X48350Y-30793D01*
X48379Y-30778D01*
X48407Y-30778D01*
X48450Y-30793D01*
X48621Y-30964D01*
X48621Y-30778D01*
G54D11*
X24617Y-33609D02*
X24617Y-33818D01*
X25202Y-33818D02*
X24086Y-33818D01*
X24086Y-33519D01*
X25202Y-32952D02*
X25202Y-33310D01*
X25202Y-33131D02*
X24086Y-33131D01*
X24245Y-33191D01*
X24351Y-33251D01*
X24405Y-33310D01*
X28631Y-34548D02*
X28631Y-34815D01*
X29155Y-34815D02*
X28155Y-34815D01*
X28155Y-34434D01*
X28155Y-34129D02*
X28964Y-34129D01*
X29060Y-34090D01*
X29107Y-34052D01*
X29155Y-33976D01*
X29155Y-33824D01*
X29107Y-33748D01*
X29060Y-33709D01*
X28964Y-33671D01*
X28155Y-33671D01*
X29107Y-33329D02*
X29155Y-33214D01*
X29155Y-33024D01*
X29107Y-32948D01*
X29060Y-32910D01*
X28964Y-32871D01*
X28869Y-32871D01*
X28774Y-32910D01*
X28726Y-32948D01*
X28679Y-33024D01*
X28631Y-33176D01*
X28583Y-33252D01*
X28536Y-33291D01*
X28440Y-33329D01*
X28345Y-33329D01*
X28250Y-33291D01*
X28202Y-33252D01*
X28155Y-33176D01*
X28155Y-32986D01*
X28202Y-32871D01*
X28631Y-32529D02*
X28631Y-32262D01*
X29155Y-32148D02*
X29155Y-32529D01*
X28155Y-32529D01*
X28155Y-32148D01*
X38279Y-36916D02*
X38321Y-36964D01*
X38364Y-37107D01*
X38364Y-37202D01*
X38321Y-37345D01*
X38236Y-37440D01*
X38150Y-37488D01*
X37979Y-37536D01*
X37850Y-37536D01*
X37679Y-37488D01*
X37593Y-37440D01*
X37507Y-37345D01*
X37464Y-37202D01*
X37464Y-37107D01*
X37507Y-36964D01*
X37550Y-36916D01*
X38364Y-35964D02*
X38364Y-36536D01*
X38364Y-36250D02*
X37464Y-36250D01*
X37593Y-36345D01*
X37679Y-36440D01*
X37721Y-36536D01*
X39864Y-37755D02*
X39864Y-38115D01*
X39864Y-37935D02*
X38964Y-37935D01*
X39093Y-37995D01*
X39179Y-38055D01*
X39221Y-38115D01*
X38964Y-37365D02*
X38964Y-37305D01*
X39007Y-37245D01*
X39050Y-37215D01*
X39136Y-37185D01*
X39307Y-37155D01*
X39521Y-37155D01*
X39693Y-37185D01*
X39779Y-37215D01*
X39821Y-37245D01*
X39864Y-37305D01*
X39864Y-37365D01*
X39821Y-37425D01*
X39779Y-37455D01*
X39693Y-37485D01*
X39521Y-37515D01*
X39307Y-37515D01*
X39136Y-37485D01*
X39050Y-37455D01*
X39007Y-37425D01*
X38964Y-37365D01*
X38964Y-36765D02*
X38964Y-36705D01*
X39007Y-36645D01*
X39050Y-36615D01*
X39136Y-36585D01*
X39307Y-36555D01*
X39521Y-36555D01*
X39693Y-36585D01*
X39779Y-36615D01*
X39821Y-36645D01*
X39864Y-36705D01*
X39864Y-36765D01*
X39821Y-36825D01*
X39779Y-36855D01*
X39693Y-36885D01*
X39521Y-36915D01*
X39307Y-36915D01*
X39136Y-36885D01*
X39050Y-36855D01*
X39007Y-36825D01*
X38964Y-36765D01*
X38964Y-36165D02*
X38964Y-36105D01*
X39007Y-36045D01*
X39050Y-36015D01*
X39136Y-35985D01*
X39307Y-35955D01*
X39521Y-35955D01*
X39693Y-35985D01*
X39779Y-36015D01*
X39821Y-36045D01*
X39864Y-36105D01*
X39864Y-36165D01*
X39821Y-36225D01*
X39779Y-36255D01*
X39693Y-36285D01*
X39521Y-36315D01*
X39307Y-36315D01*
X39136Y-36285D01*
X39050Y-36255D01*
X39007Y-36225D01*
X38964Y-36165D01*
X39264Y-35415D02*
X39864Y-35415D01*
X39264Y-35685D02*
X39736Y-35685D01*
X39821Y-35655D01*
X39864Y-35595D01*
X39864Y-35505D01*
X39821Y-35445D01*
X39779Y-35415D01*
X44279Y-36916D02*
X44321Y-36964D01*
X44364Y-37107D01*
X44364Y-37202D01*
X44321Y-37345D01*
X44236Y-37440D01*
X44150Y-37488D01*
X43979Y-37536D01*
X43850Y-37536D01*
X43679Y-37488D01*
X43593Y-37440D01*
X43507Y-37345D01*
X43464Y-37202D01*
X43464Y-37107D01*
X43507Y-36964D01*
X43550Y-36916D01*
X43550Y-36536D02*
X43507Y-36488D01*
X43464Y-36393D01*
X43464Y-36155D01*
X43507Y-36059D01*
X43550Y-36012D01*
X43636Y-35964D01*
X43721Y-35964D01*
X43850Y-36012D01*
X44364Y-36583D01*
X44364Y-35964D01*
X45864Y-37755D02*
X45864Y-38115D01*
X45864Y-37935D02*
X44964Y-37935D01*
X45093Y-37995D01*
X45179Y-38055D01*
X45221Y-38115D01*
X44964Y-37365D02*
X44964Y-37305D01*
X45007Y-37245D01*
X45050Y-37215D01*
X45136Y-37185D01*
X45307Y-37155D01*
X45521Y-37155D01*
X45693Y-37185D01*
X45779Y-37215D01*
X45821Y-37245D01*
X45864Y-37305D01*
X45864Y-37365D01*
X45821Y-37425D01*
X45779Y-37455D01*
X45693Y-37485D01*
X45521Y-37515D01*
X45307Y-37515D01*
X45136Y-37485D01*
X45050Y-37455D01*
X45007Y-37425D01*
X44964Y-37365D01*
X44964Y-36765D02*
X44964Y-36705D01*
X45007Y-36645D01*
X45050Y-36615D01*
X45136Y-36585D01*
X45307Y-36555D01*
X45521Y-36555D01*
X45693Y-36585D01*
X45779Y-36615D01*
X45821Y-36645D01*
X45864Y-36705D01*
X45864Y-36765D01*
X45821Y-36825D01*
X45779Y-36855D01*
X45693Y-36885D01*
X45521Y-36915D01*
X45307Y-36915D01*
X45136Y-36885D01*
X45050Y-36855D01*
X45007Y-36825D01*
X44964Y-36765D01*
X44964Y-36165D02*
X44964Y-36105D01*
X45007Y-36045D01*
X45050Y-36015D01*
X45136Y-35985D01*
X45307Y-35955D01*
X45521Y-35955D01*
X45693Y-35985D01*
X45779Y-36015D01*
X45821Y-36045D01*
X45864Y-36105D01*
X45864Y-36165D01*
X45821Y-36225D01*
X45779Y-36255D01*
X45693Y-36285D01*
X45521Y-36315D01*
X45307Y-36315D01*
X45136Y-36285D01*
X45050Y-36255D01*
X45007Y-36225D01*
X44964Y-36165D01*
X45264Y-35415D02*
X45864Y-35415D01*
X45264Y-35685D02*
X45736Y-35685D01*
X45821Y-35655D01*
X45864Y-35595D01*
X45864Y-35505D01*
X45821Y-35445D01*
X45779Y-35415D01*
G54D10*
X50871Y-33972D02*
X50571Y-33972D01*
X50571Y-33857D01*
X50586Y-33829D01*
X50600Y-33814D01*
X50629Y-33800D01*
X50671Y-33800D01*
X50700Y-33814D01*
X50714Y-33829D01*
X50729Y-33857D01*
X50729Y-33972D01*
X50571Y-33529D02*
X50571Y-33672D01*
X50714Y-33686D01*
X50700Y-33672D01*
X50686Y-33643D01*
X50686Y-33572D01*
X50700Y-33543D01*
X50714Y-33529D01*
X50743Y-33514D01*
X50814Y-33514D01*
X50843Y-33529D01*
X50857Y-33543D01*
X50871Y-33572D01*
X50871Y-33643D01*
X50857Y-33672D01*
X50843Y-33686D01*
X48536Y-34222D02*
X48536Y-34079D01*
X48621Y-34250D02*
X48321Y-34150D01*
X48621Y-34050D01*
X48621Y-33808D02*
X48621Y-33951D01*
X48321Y-33951D01*
X48621Y-33708D02*
X48321Y-33708D01*
X48621Y-33565D02*
X48321Y-33565D01*
X48536Y-33465D01*
X48321Y-33365D01*
X48621Y-33365D01*
X48621Y-33064D02*
X48621Y-33236D01*
X48621Y-33150D02*
X48321Y-33150D01*
X48364Y-33179D01*
X48393Y-33207D01*
X48407Y-33236D01*
X48321Y-32964D02*
X48321Y-32778D01*
X48436Y-32878D01*
X48436Y-32836D01*
X48450Y-32807D01*
X48464Y-32793D01*
X48493Y-32778D01*
X48564Y-32778D01*
X48593Y-32793D01*
X48607Y-32807D01*
X48621Y-32836D01*
X48621Y-32921D01*
X48607Y-32950D01*
X48593Y-32964D01*
X50871Y-37472D02*
X50571Y-37472D01*
X50571Y-37357D01*
X50586Y-37329D01*
X50600Y-37314D01*
X50629Y-37300D01*
X50671Y-37300D01*
X50700Y-37314D01*
X50714Y-37329D01*
X50729Y-37357D01*
X50729Y-37472D01*
X50571Y-37043D02*
X50571Y-37100D01*
X50586Y-37129D01*
X50600Y-37143D01*
X50643Y-37172D01*
X50700Y-37186D01*
X50814Y-37186D01*
X50843Y-37172D01*
X50857Y-37157D01*
X50871Y-37129D01*
X50871Y-37072D01*
X50857Y-37043D01*
X50843Y-37029D01*
X50814Y-37014D01*
X50743Y-37014D01*
X50714Y-37029D01*
X50700Y-37043D01*
X50686Y-37072D01*
X50686Y-37129D01*
X50700Y-37157D01*
X50714Y-37172D01*
X50743Y-37186D01*
X48536Y-37722D02*
X48536Y-37579D01*
X48621Y-37750D02*
X48321Y-37650D01*
X48621Y-37550D01*
X48621Y-37308D02*
X48621Y-37451D01*
X48321Y-37451D01*
X48621Y-37208D02*
X48321Y-37208D01*
X48621Y-37065D02*
X48321Y-37065D01*
X48536Y-36965D01*
X48321Y-36865D01*
X48621Y-36865D01*
X48350Y-36736D02*
X48336Y-36722D01*
X48321Y-36693D01*
X48321Y-36622D01*
X48336Y-36593D01*
X48350Y-36579D01*
X48379Y-36564D01*
X48407Y-36564D01*
X48450Y-36579D01*
X48621Y-36750D01*
X48621Y-36564D01*
X48621Y-36278D02*
X48621Y-36450D01*
X48621Y-36364D02*
X48321Y-36364D01*
X48364Y-36393D01*
X48393Y-36421D01*
X48407Y-36450D01*
X50871Y-39472D02*
X50571Y-39472D01*
X50571Y-39357D01*
X50586Y-39329D01*
X50600Y-39314D01*
X50629Y-39300D01*
X50671Y-39300D01*
X50700Y-39314D01*
X50714Y-39329D01*
X50729Y-39357D01*
X50729Y-39472D01*
X50571Y-39200D02*
X50571Y-39000D01*
X50871Y-39129D01*
X48536Y-39722D02*
X48536Y-39579D01*
X48621Y-39750D02*
X48321Y-39650D01*
X48621Y-39550D01*
X48621Y-39308D02*
X48621Y-39451D01*
X48321Y-39451D01*
X48621Y-39208D02*
X48321Y-39208D01*
X48621Y-39065D02*
X48321Y-39065D01*
X48536Y-38965D01*
X48321Y-38865D01*
X48621Y-38865D01*
X48350Y-38736D02*
X48336Y-38722D01*
X48321Y-38693D01*
X48321Y-38622D01*
X48336Y-38593D01*
X48350Y-38579D01*
X48379Y-38564D01*
X48407Y-38564D01*
X48450Y-38579D01*
X48621Y-38750D01*
X48621Y-38564D01*
X48350Y-38450D02*
X48336Y-38436D01*
X48321Y-38407D01*
X48321Y-38336D01*
X48336Y-38307D01*
X48350Y-38293D01*
X48379Y-38278D01*
X48407Y-38278D01*
X48450Y-38293D01*
X48621Y-38464D01*
X48621Y-38278D01*
X50871Y-41472D02*
X50571Y-41472D01*
X50571Y-41357D01*
X50586Y-41329D01*
X50600Y-41314D01*
X50629Y-41300D01*
X50671Y-41300D01*
X50700Y-41314D01*
X50714Y-41329D01*
X50729Y-41357D01*
X50729Y-41472D01*
X50700Y-41129D02*
X50686Y-41157D01*
X50671Y-41172D01*
X50643Y-41186D01*
X50629Y-41186D01*
X50600Y-41172D01*
X50586Y-41157D01*
X50571Y-41129D01*
X50571Y-41072D01*
X50586Y-41043D01*
X50600Y-41029D01*
X50629Y-41014D01*
X50643Y-41014D01*
X50671Y-41029D01*
X50686Y-41043D01*
X50700Y-41072D01*
X50700Y-41129D01*
X50714Y-41157D01*
X50729Y-41172D01*
X50757Y-41186D01*
X50814Y-41186D01*
X50843Y-41172D01*
X50857Y-41157D01*
X50871Y-41129D01*
X50871Y-41072D01*
X50857Y-41043D01*
X50843Y-41029D01*
X50814Y-41014D01*
X50757Y-41014D01*
X50729Y-41029D01*
X50714Y-41043D01*
X50700Y-41072D01*
X48536Y-41722D02*
X48536Y-41579D01*
X48621Y-41750D02*
X48321Y-41650D01*
X48621Y-41550D01*
X48621Y-41308D02*
X48621Y-41451D01*
X48321Y-41451D01*
X48621Y-41208D02*
X48321Y-41208D01*
X48621Y-41065D02*
X48321Y-41065D01*
X48536Y-40965D01*
X48321Y-40865D01*
X48621Y-40865D01*
X48350Y-40736D02*
X48336Y-40722D01*
X48321Y-40693D01*
X48321Y-40622D01*
X48336Y-40593D01*
X48350Y-40579D01*
X48379Y-40564D01*
X48407Y-40564D01*
X48450Y-40579D01*
X48621Y-40750D01*
X48621Y-40564D01*
X48321Y-40464D02*
X48321Y-40278D01*
X48436Y-40378D01*
X48436Y-40336D01*
X48450Y-40307D01*
X48464Y-40293D01*
X48493Y-40278D01*
X48564Y-40278D01*
X48593Y-40293D01*
X48607Y-40307D01*
X48621Y-40336D01*
X48621Y-40421D01*
X48607Y-40450D01*
X48593Y-40464D01*
G54D14*
X31705Y-43702D02*
X31705Y-43202D01*
X31800Y-43202D01*
X31858Y-43226D01*
X31896Y-43274D01*
X31915Y-43321D01*
X31934Y-43417D01*
X31934Y-43488D01*
X31915Y-43583D01*
X31896Y-43631D01*
X31858Y-43679D01*
X31800Y-43702D01*
X31705Y-43702D01*
X32315Y-43702D02*
X32086Y-43702D01*
X32200Y-43702D02*
X32200Y-43202D01*
X32162Y-43274D01*
X32124Y-43321D01*
X32086Y-43345D01*
G54D11*
X24743Y-30442D02*
X24143Y-30442D01*
X24143Y-30214D01*
X24171Y-30156D01*
X24200Y-30128D01*
X24257Y-30099D01*
X24343Y-30099D01*
X24400Y-30128D01*
X24429Y-30156D01*
X24457Y-30214D01*
X24457Y-30442D01*
X24200Y-29871D02*
X24171Y-29842D01*
X24143Y-29785D01*
X24143Y-29642D01*
X24171Y-29585D01*
X24200Y-29556D01*
X24257Y-29528D01*
X24314Y-29528D01*
X24400Y-29556D01*
X24743Y-29899D01*
X24743Y-29528D01*
X20571Y-30843D02*
X20571Y-30557D01*
X20743Y-30900D02*
X20143Y-30700D01*
X20743Y-30500D01*
X20743Y-30214D02*
X20714Y-30272D01*
X20657Y-30300D01*
X20143Y-30300D01*
X20743Y-29986D02*
X20343Y-29986D01*
X20143Y-29986D02*
X20171Y-30015D01*
X20200Y-29986D01*
X20171Y-29958D01*
X20143Y-29986D01*
X20200Y-29986D01*
X20743Y-29700D02*
X20343Y-29700D01*
X20400Y-29700D02*
X20371Y-29672D01*
X20343Y-29614D01*
X20343Y-29529D01*
X20371Y-29472D01*
X20429Y-29443D01*
X20743Y-29443D01*
X20429Y-29443D02*
X20371Y-29414D01*
X20343Y-29357D01*
X20343Y-29272D01*
X20371Y-29214D01*
X20429Y-29186D01*
X20743Y-29186D01*
%LPC*%
G54D15*
X30750Y-50000D03*
X41750Y-50000D03*
G54D16*
X34250Y-50500D03*
G54D17*
X34250Y-49500D03*
X35250Y-50500D03*
X35250Y-49500D03*
X36250Y-50500D03*
X36250Y-49500D03*
X37250Y-50500D03*
X37250Y-49500D03*
X38250Y-50500D03*
X38250Y-49500D03*
G54D15*
X41750Y-22500D03*
X30750Y-22500D03*
G54D16*
X38250Y-22000D03*
G54D17*
X38250Y-23000D03*
X37250Y-22000D03*
X37250Y-23000D03*
X36250Y-22000D03*
X36250Y-23000D03*
X35250Y-22000D03*
X35250Y-23000D03*
X34250Y-22000D03*
X34250Y-23000D03*
G54D18*
X50000Y-22500D03*
X50000Y-50000D03*
X22500Y-50000D03*
G54D19*
X27500Y-45500D03*
X31500Y-46500D03*
X27500Y-47500D03*
G54D20*
X30500Y-41250D03*
G54D21*
X33500Y-41250D03*
X33500Y-34754D03*
X33500Y-31998D03*
X30500Y-33376D03*
G54D22*
X39500Y-26250D03*
X36500Y-26250D03*
X36500Y-27250D03*
X39500Y-27250D03*
G54D23*
X22500Y-36500D03*
G54D24*
X22500Y-37500D03*
G54D23*
X50000Y-30250D03*
G54D24*
X50000Y-29250D03*
G54D23*
X50000Y-32250D03*
G54D24*
X50000Y-31250D03*
G54D25*
X26750Y-29000D03*
X26750Y-31000D03*
X26750Y-35000D03*
X26750Y-37000D03*
G54D20*
X38750Y-30250D03*
G54D21*
X38750Y-42250D03*
G54D20*
X44750Y-30250D03*
G54D21*
X44750Y-42250D03*
G54D23*
X50000Y-34250D03*
G54D24*
X50000Y-33250D03*
G54D23*
X50000Y-37750D03*
G54D24*
X50000Y-36750D03*
G54D23*
X50000Y-39750D03*
G54D24*
X50000Y-38750D03*
G54D23*
X50000Y-41750D03*
G54D24*
X50000Y-40750D03*
X30000Y-43500D03*
G54D23*
X34000Y-43500D03*
G54D26*
X22500Y-29000D03*
G54D27*
X22500Y-31000D03*
G54D21*
X37250Y-47000D03*
X35250Y-25000D03*
G54D22*
X33000Y-47000D03*
X39500Y-25000D03*
G54D21*
X38250Y-48000D03*
X32000Y-25250D03*
M02*
