G04 (created by PCBNEW (2012-01-19 BZR 3256)-stable) date 19/03/2013 15:01:47*
G01*
G70*
G90*
%MOIN*%
G04 Gerber Fmt 3.4, Leading zero omitted, Abs format*
%FSLAX34Y34*%
G04 APERTURE LIST*
%ADD10C,0.001000*%
%ADD11C,0.015000*%
%ADD12C,0.008000*%
G04 APERTURE END LIST*
G54D10*
G54D11*
X26000Y-27000D02*
X20000Y-27000D01*
X26000Y-20000D02*
X26000Y-27000D01*
X51000Y-20000D02*
X26000Y-20000D01*
X52500Y-21500D02*
X51000Y-20000D01*
X52500Y-51000D02*
X52500Y-21500D01*
X51000Y-52500D02*
X52500Y-51000D01*
X21500Y-52500D02*
X51000Y-52500D01*
X20000Y-51000D02*
X21500Y-52500D01*
X20000Y-27000D02*
X20000Y-51000D01*
G54D10*
X30375Y-22875D02*
X30625Y-23125D01*
X30625Y-22875D02*
X30375Y-23125D01*
X30625Y-25375D02*
X30875Y-25625D01*
X30875Y-25375D02*
X30625Y-25625D01*
X31666Y-20643D02*
X31916Y-20893D01*
X31916Y-20643D02*
X31666Y-20893D01*
X33125Y-27125D02*
X33375Y-27375D01*
X33375Y-27125D02*
X33125Y-27375D01*
X33625Y-25125D02*
X33875Y-25375D01*
X33875Y-25125D02*
X33625Y-25375D01*
X36625Y-24375D02*
X36875Y-24625D01*
X36875Y-24375D02*
X36625Y-24625D01*
X39125Y-24875D02*
X39375Y-25125D01*
X39375Y-24875D02*
X39125Y-25125D01*
X40125Y-49625D02*
X40375Y-49875D01*
X40375Y-49625D02*
X40125Y-49875D01*
X40375Y-24625D02*
X40625Y-24875D01*
X40625Y-24625D02*
X40375Y-24875D01*
X42375Y-25375D02*
X42625Y-25625D01*
X42625Y-25375D02*
X42375Y-25625D01*
X42625Y-21875D02*
X42875Y-22125D01*
X42875Y-21875D02*
X42625Y-22125D01*
X44954Y-47218D02*
X45204Y-47468D01*
X45204Y-47218D02*
X44954Y-47468D01*
X45375Y-25375D02*
X45625Y-25625D01*
X45625Y-25375D02*
X45375Y-25625D01*
X45375Y-26625D02*
X45625Y-26875D01*
X45625Y-26625D02*
X45375Y-26875D01*
X47316Y-23989D02*
X47566Y-24239D01*
X47566Y-23989D02*
X47316Y-24239D01*
X48375Y-24875D02*
X48625Y-25125D01*
X48625Y-24875D02*
X48375Y-25125D01*
X49375Y-24875D02*
X49625Y-25125D01*
X49625Y-24875D02*
X49375Y-25125D01*
X49375Y-43875D02*
X49625Y-44125D01*
X49625Y-43875D02*
X49375Y-44125D01*
X49375Y-45375D02*
X49625Y-45625D01*
X49625Y-45375D02*
X49375Y-45625D01*
X50375Y-43875D02*
X50625Y-44125D01*
X50625Y-43875D02*
X50375Y-44125D01*
X50375Y-45375D02*
X50625Y-45625D01*
X50625Y-45375D02*
X50375Y-45625D01*
X51375Y-24375D02*
X51625Y-24625D01*
X51625Y-24375D02*
X51375Y-24625D01*
X51375Y-25375D02*
X51625Y-25625D01*
X51625Y-25375D02*
X51375Y-25625D01*
X26219Y-48130D02*
X26215Y-48161D01*
X26206Y-48190D01*
X26192Y-48218D01*
X26172Y-48242D01*
X26148Y-48262D01*
X26121Y-48277D01*
X26091Y-48286D01*
X26060Y-48289D01*
X26030Y-48287D01*
X26000Y-48278D01*
X25972Y-48263D01*
X25948Y-48244D01*
X25927Y-48220D01*
X25912Y-48193D01*
X25903Y-48163D01*
X25900Y-48132D01*
X25902Y-48102D01*
X25911Y-48072D01*
X25925Y-48044D01*
X25944Y-48019D01*
X25968Y-47999D01*
X25995Y-47984D01*
X26025Y-47974D01*
X26056Y-47971D01*
X26086Y-47973D01*
X26116Y-47981D01*
X26144Y-47995D01*
X26169Y-48015D01*
X26189Y-48038D01*
X26205Y-48065D01*
X26215Y-48095D01*
X26218Y-48126D01*
X26219Y-48130D01*
X27160Y-24500D02*
X27156Y-24531D01*
X27147Y-24560D01*
X27133Y-24588D01*
X27113Y-24612D01*
X27089Y-24632D01*
X27062Y-24647D01*
X27032Y-24656D01*
X27001Y-24659D01*
X26971Y-24657D01*
X26941Y-24648D01*
X26913Y-24633D01*
X26889Y-24614D01*
X26868Y-24590D01*
X26853Y-24563D01*
X26844Y-24533D01*
X26841Y-24502D01*
X26843Y-24472D01*
X26852Y-24442D01*
X26866Y-24414D01*
X26885Y-24389D01*
X26909Y-24369D01*
X26936Y-24354D01*
X26966Y-24344D01*
X26997Y-24341D01*
X27027Y-24343D01*
X27057Y-24351D01*
X27085Y-24365D01*
X27110Y-24385D01*
X27130Y-24408D01*
X27146Y-24435D01*
X27156Y-24465D01*
X27159Y-24496D01*
X27160Y-24500D01*
X29219Y-48130D02*
X29215Y-48161D01*
X29206Y-48190D01*
X29192Y-48218D01*
X29172Y-48242D01*
X29148Y-48262D01*
X29121Y-48277D01*
X29091Y-48286D01*
X29060Y-48289D01*
X29030Y-48287D01*
X29000Y-48278D01*
X28972Y-48263D01*
X28948Y-48244D01*
X28927Y-48220D01*
X28912Y-48193D01*
X28903Y-48163D01*
X28900Y-48132D01*
X28902Y-48102D01*
X28911Y-48072D01*
X28925Y-48044D01*
X28944Y-48019D01*
X28968Y-47999D01*
X28995Y-47984D01*
X29025Y-47974D01*
X29056Y-47971D01*
X29086Y-47973D01*
X29116Y-47981D01*
X29144Y-47995D01*
X29169Y-48015D01*
X29189Y-48038D01*
X29205Y-48065D01*
X29215Y-48095D01*
X29218Y-48126D01*
X29219Y-48130D01*
X30160Y-24500D02*
X30156Y-24531D01*
X30147Y-24560D01*
X30133Y-24588D01*
X30113Y-24612D01*
X30089Y-24632D01*
X30062Y-24647D01*
X30032Y-24656D01*
X30001Y-24659D01*
X29971Y-24657D01*
X29941Y-24648D01*
X29913Y-24633D01*
X29889Y-24614D01*
X29868Y-24590D01*
X29853Y-24563D01*
X29844Y-24533D01*
X29841Y-24502D01*
X29843Y-24472D01*
X29852Y-24442D01*
X29866Y-24414D01*
X29885Y-24389D01*
X29909Y-24369D01*
X29936Y-24354D01*
X29966Y-24344D01*
X29997Y-24341D01*
X30027Y-24343D01*
X30057Y-24351D01*
X30085Y-24365D01*
X30110Y-24385D01*
X30130Y-24408D01*
X30146Y-24435D01*
X30156Y-24465D01*
X30159Y-24496D01*
X30160Y-24500D01*
X41672Y-49508D02*
X41668Y-49539D01*
X41659Y-49568D01*
X41645Y-49596D01*
X41625Y-49620D01*
X41601Y-49640D01*
X41574Y-49655D01*
X41544Y-49664D01*
X41513Y-49667D01*
X41483Y-49665D01*
X41453Y-49656D01*
X41425Y-49641D01*
X41401Y-49622D01*
X41380Y-49598D01*
X41365Y-49571D01*
X41356Y-49541D01*
X41353Y-49510D01*
X41355Y-49480D01*
X41364Y-49450D01*
X41378Y-49422D01*
X41397Y-49397D01*
X41421Y-49377D01*
X41448Y-49362D01*
X41478Y-49352D01*
X41509Y-49349D01*
X41539Y-49351D01*
X41569Y-49359D01*
X41597Y-49373D01*
X41622Y-49393D01*
X41642Y-49416D01*
X41658Y-49443D01*
X41668Y-49473D01*
X41671Y-49504D01*
X41672Y-49508D01*
X44672Y-49508D02*
X44668Y-49539D01*
X44659Y-49568D01*
X44645Y-49596D01*
X44625Y-49620D01*
X44601Y-49640D01*
X44574Y-49655D01*
X44544Y-49664D01*
X44513Y-49667D01*
X44483Y-49665D01*
X44453Y-49656D01*
X44425Y-49641D01*
X44401Y-49622D01*
X44380Y-49598D01*
X44365Y-49571D01*
X44356Y-49541D01*
X44353Y-49510D01*
X44355Y-49480D01*
X44364Y-49450D01*
X44378Y-49422D01*
X44397Y-49397D01*
X44421Y-49377D01*
X44448Y-49362D01*
X44478Y-49352D01*
X44509Y-49349D01*
X44539Y-49351D01*
X44569Y-49359D01*
X44597Y-49373D01*
X44622Y-49393D01*
X44642Y-49416D01*
X44658Y-49443D01*
X44668Y-49473D01*
X44671Y-49504D01*
X44672Y-49508D01*
X47577Y-34941D02*
X47573Y-34972D01*
X47564Y-35001D01*
X47550Y-35029D01*
X47530Y-35053D01*
X47506Y-35073D01*
X47479Y-35088D01*
X47449Y-35097D01*
X47418Y-35100D01*
X47388Y-35098D01*
X47358Y-35089D01*
X47330Y-35074D01*
X47306Y-35055D01*
X47285Y-35031D01*
X47270Y-35004D01*
X47261Y-34974D01*
X47258Y-34943D01*
X47260Y-34913D01*
X47269Y-34883D01*
X47283Y-34855D01*
X47302Y-34830D01*
X47326Y-34810D01*
X47353Y-34795D01*
X47383Y-34785D01*
X47414Y-34782D01*
X47444Y-34784D01*
X47474Y-34792D01*
X47502Y-34806D01*
X47527Y-34826D01*
X47547Y-34849D01*
X47563Y-34876D01*
X47573Y-34906D01*
X47576Y-34937D01*
X47577Y-34941D01*
X47660Y-27000D02*
X47656Y-27031D01*
X47647Y-27060D01*
X47633Y-27088D01*
X47613Y-27112D01*
X47589Y-27132D01*
X47562Y-27147D01*
X47532Y-27156D01*
X47501Y-27159D01*
X47471Y-27157D01*
X47441Y-27148D01*
X47413Y-27133D01*
X47389Y-27114D01*
X47368Y-27090D01*
X47353Y-27063D01*
X47344Y-27033D01*
X47341Y-27002D01*
X47343Y-26972D01*
X47352Y-26942D01*
X47366Y-26914D01*
X47385Y-26889D01*
X47409Y-26869D01*
X47436Y-26854D01*
X47466Y-26844D01*
X47497Y-26841D01*
X47527Y-26843D01*
X47557Y-26851D01*
X47585Y-26865D01*
X47610Y-26885D01*
X47630Y-26908D01*
X47646Y-26935D01*
X47656Y-26965D01*
X47659Y-26996D01*
X47660Y-27000D01*
X47660Y-28000D02*
X47656Y-28031D01*
X47647Y-28060D01*
X47633Y-28088D01*
X47613Y-28112D01*
X47589Y-28132D01*
X47562Y-28147D01*
X47532Y-28156D01*
X47501Y-28159D01*
X47471Y-28157D01*
X47441Y-28148D01*
X47413Y-28133D01*
X47389Y-28114D01*
X47368Y-28090D01*
X47353Y-28063D01*
X47344Y-28033D01*
X47341Y-28002D01*
X47343Y-27972D01*
X47352Y-27942D01*
X47366Y-27914D01*
X47385Y-27889D01*
X47409Y-27869D01*
X47436Y-27854D01*
X47466Y-27844D01*
X47497Y-27841D01*
X47527Y-27843D01*
X47557Y-27851D01*
X47585Y-27865D01*
X47610Y-27885D01*
X47630Y-27908D01*
X47646Y-27935D01*
X47656Y-27965D01*
X47659Y-27996D01*
X47660Y-28000D01*
X47660Y-29000D02*
X47656Y-29031D01*
X47647Y-29060D01*
X47633Y-29088D01*
X47613Y-29112D01*
X47589Y-29132D01*
X47562Y-29147D01*
X47532Y-29156D01*
X47501Y-29159D01*
X47471Y-29157D01*
X47441Y-29148D01*
X47413Y-29133D01*
X47389Y-29114D01*
X47368Y-29090D01*
X47353Y-29063D01*
X47344Y-29033D01*
X47341Y-29002D01*
X47343Y-28972D01*
X47352Y-28942D01*
X47366Y-28914D01*
X47385Y-28889D01*
X47409Y-28869D01*
X47436Y-28854D01*
X47466Y-28844D01*
X47497Y-28841D01*
X47527Y-28843D01*
X47557Y-28851D01*
X47585Y-28865D01*
X47610Y-28885D01*
X47630Y-28908D01*
X47646Y-28935D01*
X47656Y-28965D01*
X47659Y-28996D01*
X47660Y-29000D01*
X47660Y-30000D02*
X47656Y-30031D01*
X47647Y-30060D01*
X47633Y-30088D01*
X47613Y-30112D01*
X47589Y-30132D01*
X47562Y-30147D01*
X47532Y-30156D01*
X47501Y-30159D01*
X47471Y-30157D01*
X47441Y-30148D01*
X47413Y-30133D01*
X47389Y-30114D01*
X47368Y-30090D01*
X47353Y-30063D01*
X47344Y-30033D01*
X47341Y-30002D01*
X47343Y-29972D01*
X47352Y-29942D01*
X47366Y-29914D01*
X47385Y-29889D01*
X47409Y-29869D01*
X47436Y-29854D01*
X47466Y-29844D01*
X47497Y-29841D01*
X47527Y-29843D01*
X47557Y-29851D01*
X47585Y-29865D01*
X47610Y-29885D01*
X47630Y-29908D01*
X47646Y-29935D01*
X47656Y-29965D01*
X47659Y-29996D01*
X47660Y-30000D01*
X47660Y-31000D02*
X47656Y-31031D01*
X47647Y-31060D01*
X47633Y-31088D01*
X47613Y-31112D01*
X47589Y-31132D01*
X47562Y-31147D01*
X47532Y-31156D01*
X47501Y-31159D01*
X47471Y-31157D01*
X47441Y-31148D01*
X47413Y-31133D01*
X47389Y-31114D01*
X47368Y-31090D01*
X47353Y-31063D01*
X47344Y-31033D01*
X47341Y-31002D01*
X47343Y-30972D01*
X47352Y-30942D01*
X47366Y-30914D01*
X47385Y-30889D01*
X47409Y-30869D01*
X47436Y-30854D01*
X47466Y-30844D01*
X47497Y-30841D01*
X47527Y-30843D01*
X47557Y-30851D01*
X47585Y-30865D01*
X47610Y-30885D01*
X47630Y-30908D01*
X47646Y-30935D01*
X47656Y-30965D01*
X47659Y-30996D01*
X47660Y-31000D01*
X47660Y-32000D02*
X47656Y-32031D01*
X47647Y-32060D01*
X47633Y-32088D01*
X47613Y-32112D01*
X47589Y-32132D01*
X47562Y-32147D01*
X47532Y-32156D01*
X47501Y-32159D01*
X47471Y-32157D01*
X47441Y-32148D01*
X47413Y-32133D01*
X47389Y-32114D01*
X47368Y-32090D01*
X47353Y-32063D01*
X47344Y-32033D01*
X47341Y-32002D01*
X47343Y-31972D01*
X47352Y-31942D01*
X47366Y-31914D01*
X47385Y-31889D01*
X47409Y-31869D01*
X47436Y-31854D01*
X47466Y-31844D01*
X47497Y-31841D01*
X47527Y-31843D01*
X47557Y-31851D01*
X47585Y-31865D01*
X47610Y-31885D01*
X47630Y-31908D01*
X47646Y-31935D01*
X47656Y-31965D01*
X47659Y-31996D01*
X47660Y-32000D01*
X47660Y-33000D02*
X47656Y-33031D01*
X47647Y-33060D01*
X47633Y-33088D01*
X47613Y-33112D01*
X47589Y-33132D01*
X47562Y-33147D01*
X47532Y-33156D01*
X47501Y-33159D01*
X47471Y-33157D01*
X47441Y-33148D01*
X47413Y-33133D01*
X47389Y-33114D01*
X47368Y-33090D01*
X47353Y-33063D01*
X47344Y-33033D01*
X47341Y-33002D01*
X47343Y-32972D01*
X47352Y-32942D01*
X47366Y-32914D01*
X47385Y-32889D01*
X47409Y-32869D01*
X47436Y-32854D01*
X47466Y-32844D01*
X47497Y-32841D01*
X47527Y-32843D01*
X47557Y-32851D01*
X47585Y-32865D01*
X47610Y-32885D01*
X47630Y-32908D01*
X47646Y-32935D01*
X47656Y-32965D01*
X47659Y-32996D01*
X47660Y-33000D01*
X47660Y-36500D02*
X47656Y-36531D01*
X47647Y-36560D01*
X47633Y-36588D01*
X47613Y-36612D01*
X47589Y-36632D01*
X47562Y-36647D01*
X47532Y-36656D01*
X47501Y-36659D01*
X47471Y-36657D01*
X47441Y-36648D01*
X47413Y-36633D01*
X47389Y-36614D01*
X47368Y-36590D01*
X47353Y-36563D01*
X47344Y-36533D01*
X47341Y-36502D01*
X47343Y-36472D01*
X47352Y-36442D01*
X47366Y-36414D01*
X47385Y-36389D01*
X47409Y-36369D01*
X47436Y-36354D01*
X47466Y-36344D01*
X47497Y-36341D01*
X47527Y-36343D01*
X47557Y-36351D01*
X47585Y-36365D01*
X47610Y-36385D01*
X47630Y-36408D01*
X47646Y-36435D01*
X47656Y-36465D01*
X47659Y-36496D01*
X47660Y-36500D01*
X47660Y-37500D02*
X47656Y-37531D01*
X47647Y-37560D01*
X47633Y-37588D01*
X47613Y-37612D01*
X47589Y-37632D01*
X47562Y-37647D01*
X47532Y-37656D01*
X47501Y-37659D01*
X47471Y-37657D01*
X47441Y-37648D01*
X47413Y-37633D01*
X47389Y-37614D01*
X47368Y-37590D01*
X47353Y-37563D01*
X47344Y-37533D01*
X47341Y-37502D01*
X47343Y-37472D01*
X47352Y-37442D01*
X47366Y-37414D01*
X47385Y-37389D01*
X47409Y-37369D01*
X47436Y-37354D01*
X47466Y-37344D01*
X47497Y-37341D01*
X47527Y-37343D01*
X47557Y-37351D01*
X47585Y-37365D01*
X47610Y-37385D01*
X47630Y-37408D01*
X47646Y-37435D01*
X47656Y-37465D01*
X47659Y-37496D01*
X47660Y-37500D01*
X47660Y-38500D02*
X47656Y-38531D01*
X47647Y-38560D01*
X47633Y-38588D01*
X47613Y-38612D01*
X47589Y-38632D01*
X47562Y-38647D01*
X47532Y-38656D01*
X47501Y-38659D01*
X47471Y-38657D01*
X47441Y-38648D01*
X47413Y-38633D01*
X47389Y-38614D01*
X47368Y-38590D01*
X47353Y-38563D01*
X47344Y-38533D01*
X47341Y-38502D01*
X47343Y-38472D01*
X47352Y-38442D01*
X47366Y-38414D01*
X47385Y-38389D01*
X47409Y-38369D01*
X47436Y-38354D01*
X47466Y-38344D01*
X47497Y-38341D01*
X47527Y-38343D01*
X47557Y-38351D01*
X47585Y-38365D01*
X47610Y-38385D01*
X47630Y-38408D01*
X47646Y-38435D01*
X47656Y-38465D01*
X47659Y-38496D01*
X47660Y-38500D01*
X47660Y-39500D02*
X47656Y-39531D01*
X47647Y-39560D01*
X47633Y-39588D01*
X47613Y-39612D01*
X47589Y-39632D01*
X47562Y-39647D01*
X47532Y-39656D01*
X47501Y-39659D01*
X47471Y-39657D01*
X47441Y-39648D01*
X47413Y-39633D01*
X47389Y-39614D01*
X47368Y-39590D01*
X47353Y-39563D01*
X47344Y-39533D01*
X47341Y-39502D01*
X47343Y-39472D01*
X47352Y-39442D01*
X47366Y-39414D01*
X47385Y-39389D01*
X47409Y-39369D01*
X47436Y-39354D01*
X47466Y-39344D01*
X47497Y-39341D01*
X47527Y-39343D01*
X47557Y-39351D01*
X47585Y-39365D01*
X47610Y-39385D01*
X47630Y-39408D01*
X47646Y-39435D01*
X47656Y-39465D01*
X47659Y-39496D01*
X47660Y-39500D01*
X47660Y-41500D02*
X47656Y-41531D01*
X47647Y-41560D01*
X47633Y-41588D01*
X47613Y-41612D01*
X47589Y-41632D01*
X47562Y-41647D01*
X47532Y-41656D01*
X47501Y-41659D01*
X47471Y-41657D01*
X47441Y-41648D01*
X47413Y-41633D01*
X47389Y-41614D01*
X47368Y-41590D01*
X47353Y-41563D01*
X47344Y-41533D01*
X47341Y-41502D01*
X47343Y-41472D01*
X47352Y-41442D01*
X47366Y-41414D01*
X47385Y-41389D01*
X47409Y-41369D01*
X47436Y-41354D01*
X47466Y-41344D01*
X47497Y-41341D01*
X47527Y-41343D01*
X47557Y-41351D01*
X47585Y-41365D01*
X47610Y-41385D01*
X47630Y-41408D01*
X47646Y-41435D01*
X47656Y-41465D01*
X47659Y-41496D01*
X47660Y-41500D01*
X47660Y-42500D02*
X47656Y-42531D01*
X47647Y-42560D01*
X47633Y-42588D01*
X47613Y-42612D01*
X47589Y-42632D01*
X47562Y-42647D01*
X47532Y-42656D01*
X47501Y-42659D01*
X47471Y-42657D01*
X47441Y-42648D01*
X47413Y-42633D01*
X47389Y-42614D01*
X47368Y-42590D01*
X47353Y-42563D01*
X47344Y-42533D01*
X47341Y-42502D01*
X47343Y-42472D01*
X47352Y-42442D01*
X47366Y-42414D01*
X47385Y-42389D01*
X47409Y-42369D01*
X47436Y-42354D01*
X47466Y-42344D01*
X47497Y-42341D01*
X47527Y-42343D01*
X47557Y-42351D01*
X47585Y-42365D01*
X47610Y-42385D01*
X47630Y-42408D01*
X47646Y-42435D01*
X47656Y-42465D01*
X47659Y-42496D01*
X47660Y-42500D01*
X48758Y-47047D02*
X48754Y-47078D01*
X48745Y-47107D01*
X48731Y-47135D01*
X48711Y-47159D01*
X48687Y-47179D01*
X48660Y-47194D01*
X48630Y-47203D01*
X48599Y-47206D01*
X48569Y-47204D01*
X48539Y-47195D01*
X48511Y-47180D01*
X48487Y-47161D01*
X48466Y-47137D01*
X48451Y-47110D01*
X48442Y-47080D01*
X48439Y-47049D01*
X48441Y-47019D01*
X48450Y-46989D01*
X48464Y-46961D01*
X48483Y-46936D01*
X48507Y-46916D01*
X48534Y-46901D01*
X48564Y-46891D01*
X48595Y-46888D01*
X48625Y-46890D01*
X48655Y-46898D01*
X48683Y-46912D01*
X48708Y-46932D01*
X48728Y-46955D01*
X48744Y-46982D01*
X48754Y-47012D01*
X48757Y-47043D01*
X48758Y-47047D01*
X50577Y-34941D02*
X50573Y-34972D01*
X50564Y-35001D01*
X50550Y-35029D01*
X50530Y-35053D01*
X50506Y-35073D01*
X50479Y-35088D01*
X50449Y-35097D01*
X50418Y-35100D01*
X50388Y-35098D01*
X50358Y-35089D01*
X50330Y-35074D01*
X50306Y-35055D01*
X50285Y-35031D01*
X50270Y-35004D01*
X50261Y-34974D01*
X50258Y-34943D01*
X50260Y-34913D01*
X50269Y-34883D01*
X50283Y-34855D01*
X50302Y-34830D01*
X50326Y-34810D01*
X50353Y-34795D01*
X50383Y-34785D01*
X50414Y-34782D01*
X50444Y-34784D01*
X50474Y-34792D01*
X50502Y-34806D01*
X50527Y-34826D01*
X50547Y-34849D01*
X50563Y-34876D01*
X50573Y-34906D01*
X50576Y-34937D01*
X50577Y-34941D01*
X50660Y-27000D02*
X50656Y-27031D01*
X50647Y-27060D01*
X50633Y-27088D01*
X50613Y-27112D01*
X50589Y-27132D01*
X50562Y-27147D01*
X50532Y-27156D01*
X50501Y-27159D01*
X50471Y-27157D01*
X50441Y-27148D01*
X50413Y-27133D01*
X50389Y-27114D01*
X50368Y-27090D01*
X50353Y-27063D01*
X50344Y-27033D01*
X50341Y-27002D01*
X50343Y-26972D01*
X50352Y-26942D01*
X50366Y-26914D01*
X50385Y-26889D01*
X50409Y-26869D01*
X50436Y-26854D01*
X50466Y-26844D01*
X50497Y-26841D01*
X50527Y-26843D01*
X50557Y-26851D01*
X50585Y-26865D01*
X50610Y-26885D01*
X50630Y-26908D01*
X50646Y-26935D01*
X50656Y-26965D01*
X50659Y-26996D01*
X50660Y-27000D01*
X50660Y-28000D02*
X50656Y-28031D01*
X50647Y-28060D01*
X50633Y-28088D01*
X50613Y-28112D01*
X50589Y-28132D01*
X50562Y-28147D01*
X50532Y-28156D01*
X50501Y-28159D01*
X50471Y-28157D01*
X50441Y-28148D01*
X50413Y-28133D01*
X50389Y-28114D01*
X50368Y-28090D01*
X50353Y-28063D01*
X50344Y-28033D01*
X50341Y-28002D01*
X50343Y-27972D01*
X50352Y-27942D01*
X50366Y-27914D01*
X50385Y-27889D01*
X50409Y-27869D01*
X50436Y-27854D01*
X50466Y-27844D01*
X50497Y-27841D01*
X50527Y-27843D01*
X50557Y-27851D01*
X50585Y-27865D01*
X50610Y-27885D01*
X50630Y-27908D01*
X50646Y-27935D01*
X50656Y-27965D01*
X50659Y-27996D01*
X50660Y-28000D01*
X50660Y-29000D02*
X50656Y-29031D01*
X50647Y-29060D01*
X50633Y-29088D01*
X50613Y-29112D01*
X50589Y-29132D01*
X50562Y-29147D01*
X50532Y-29156D01*
X50501Y-29159D01*
X50471Y-29157D01*
X50441Y-29148D01*
X50413Y-29133D01*
X50389Y-29114D01*
X50368Y-29090D01*
X50353Y-29063D01*
X50344Y-29033D01*
X50341Y-29002D01*
X50343Y-28972D01*
X50352Y-28942D01*
X50366Y-28914D01*
X50385Y-28889D01*
X50409Y-28869D01*
X50436Y-28854D01*
X50466Y-28844D01*
X50497Y-28841D01*
X50527Y-28843D01*
X50557Y-28851D01*
X50585Y-28865D01*
X50610Y-28885D01*
X50630Y-28908D01*
X50646Y-28935D01*
X50656Y-28965D01*
X50659Y-28996D01*
X50660Y-29000D01*
X50660Y-30000D02*
X50656Y-30031D01*
X50647Y-30060D01*
X50633Y-30088D01*
X50613Y-30112D01*
X50589Y-30132D01*
X50562Y-30147D01*
X50532Y-30156D01*
X50501Y-30159D01*
X50471Y-30157D01*
X50441Y-30148D01*
X50413Y-30133D01*
X50389Y-30114D01*
X50368Y-30090D01*
X50353Y-30063D01*
X50344Y-30033D01*
X50341Y-30002D01*
X50343Y-29972D01*
X50352Y-29942D01*
X50366Y-29914D01*
X50385Y-29889D01*
X50409Y-29869D01*
X50436Y-29854D01*
X50466Y-29844D01*
X50497Y-29841D01*
X50527Y-29843D01*
X50557Y-29851D01*
X50585Y-29865D01*
X50610Y-29885D01*
X50630Y-29908D01*
X50646Y-29935D01*
X50656Y-29965D01*
X50659Y-29996D01*
X50660Y-30000D01*
X50660Y-31000D02*
X50656Y-31031D01*
X50647Y-31060D01*
X50633Y-31088D01*
X50613Y-31112D01*
X50589Y-31132D01*
X50562Y-31147D01*
X50532Y-31156D01*
X50501Y-31159D01*
X50471Y-31157D01*
X50441Y-31148D01*
X50413Y-31133D01*
X50389Y-31114D01*
X50368Y-31090D01*
X50353Y-31063D01*
X50344Y-31033D01*
X50341Y-31002D01*
X50343Y-30972D01*
X50352Y-30942D01*
X50366Y-30914D01*
X50385Y-30889D01*
X50409Y-30869D01*
X50436Y-30854D01*
X50466Y-30844D01*
X50497Y-30841D01*
X50527Y-30843D01*
X50557Y-30851D01*
X50585Y-30865D01*
X50610Y-30885D01*
X50630Y-30908D01*
X50646Y-30935D01*
X50656Y-30965D01*
X50659Y-30996D01*
X50660Y-31000D01*
X50660Y-32000D02*
X50656Y-32031D01*
X50647Y-32060D01*
X50633Y-32088D01*
X50613Y-32112D01*
X50589Y-32132D01*
X50562Y-32147D01*
X50532Y-32156D01*
X50501Y-32159D01*
X50471Y-32157D01*
X50441Y-32148D01*
X50413Y-32133D01*
X50389Y-32114D01*
X50368Y-32090D01*
X50353Y-32063D01*
X50344Y-32033D01*
X50341Y-32002D01*
X50343Y-31972D01*
X50352Y-31942D01*
X50366Y-31914D01*
X50385Y-31889D01*
X50409Y-31869D01*
X50436Y-31854D01*
X50466Y-31844D01*
X50497Y-31841D01*
X50527Y-31843D01*
X50557Y-31851D01*
X50585Y-31865D01*
X50610Y-31885D01*
X50630Y-31908D01*
X50646Y-31935D01*
X50656Y-31965D01*
X50659Y-31996D01*
X50660Y-32000D01*
X50660Y-33000D02*
X50656Y-33031D01*
X50647Y-33060D01*
X50633Y-33088D01*
X50613Y-33112D01*
X50589Y-33132D01*
X50562Y-33147D01*
X50532Y-33156D01*
X50501Y-33159D01*
X50471Y-33157D01*
X50441Y-33148D01*
X50413Y-33133D01*
X50389Y-33114D01*
X50368Y-33090D01*
X50353Y-33063D01*
X50344Y-33033D01*
X50341Y-33002D01*
X50343Y-32972D01*
X50352Y-32942D01*
X50366Y-32914D01*
X50385Y-32889D01*
X50409Y-32869D01*
X50436Y-32854D01*
X50466Y-32844D01*
X50497Y-32841D01*
X50527Y-32843D01*
X50557Y-32851D01*
X50585Y-32865D01*
X50610Y-32885D01*
X50630Y-32908D01*
X50646Y-32935D01*
X50656Y-32965D01*
X50659Y-32996D01*
X50660Y-33000D01*
X50660Y-36500D02*
X50656Y-36531D01*
X50647Y-36560D01*
X50633Y-36588D01*
X50613Y-36612D01*
X50589Y-36632D01*
X50562Y-36647D01*
X50532Y-36656D01*
X50501Y-36659D01*
X50471Y-36657D01*
X50441Y-36648D01*
X50413Y-36633D01*
X50389Y-36614D01*
X50368Y-36590D01*
X50353Y-36563D01*
X50344Y-36533D01*
X50341Y-36502D01*
X50343Y-36472D01*
X50352Y-36442D01*
X50366Y-36414D01*
X50385Y-36389D01*
X50409Y-36369D01*
X50436Y-36354D01*
X50466Y-36344D01*
X50497Y-36341D01*
X50527Y-36343D01*
X50557Y-36351D01*
X50585Y-36365D01*
X50610Y-36385D01*
X50630Y-36408D01*
X50646Y-36435D01*
X50656Y-36465D01*
X50659Y-36496D01*
X50660Y-36500D01*
X50660Y-37500D02*
X50656Y-37531D01*
X50647Y-37560D01*
X50633Y-37588D01*
X50613Y-37612D01*
X50589Y-37632D01*
X50562Y-37647D01*
X50532Y-37656D01*
X50501Y-37659D01*
X50471Y-37657D01*
X50441Y-37648D01*
X50413Y-37633D01*
X50389Y-37614D01*
X50368Y-37590D01*
X50353Y-37563D01*
X50344Y-37533D01*
X50341Y-37502D01*
X50343Y-37472D01*
X50352Y-37442D01*
X50366Y-37414D01*
X50385Y-37389D01*
X50409Y-37369D01*
X50436Y-37354D01*
X50466Y-37344D01*
X50497Y-37341D01*
X50527Y-37343D01*
X50557Y-37351D01*
X50585Y-37365D01*
X50610Y-37385D01*
X50630Y-37408D01*
X50646Y-37435D01*
X50656Y-37465D01*
X50659Y-37496D01*
X50660Y-37500D01*
X50660Y-38500D02*
X50656Y-38531D01*
X50647Y-38560D01*
X50633Y-38588D01*
X50613Y-38612D01*
X50589Y-38632D01*
X50562Y-38647D01*
X50532Y-38656D01*
X50501Y-38659D01*
X50471Y-38657D01*
X50441Y-38648D01*
X50413Y-38633D01*
X50389Y-38614D01*
X50368Y-38590D01*
X50353Y-38563D01*
X50344Y-38533D01*
X50341Y-38502D01*
X50343Y-38472D01*
X50352Y-38442D01*
X50366Y-38414D01*
X50385Y-38389D01*
X50409Y-38369D01*
X50436Y-38354D01*
X50466Y-38344D01*
X50497Y-38341D01*
X50527Y-38343D01*
X50557Y-38351D01*
X50585Y-38365D01*
X50610Y-38385D01*
X50630Y-38408D01*
X50646Y-38435D01*
X50656Y-38465D01*
X50659Y-38496D01*
X50660Y-38500D01*
X50660Y-39500D02*
X50656Y-39531D01*
X50647Y-39560D01*
X50633Y-39588D01*
X50613Y-39612D01*
X50589Y-39632D01*
X50562Y-39647D01*
X50532Y-39656D01*
X50501Y-39659D01*
X50471Y-39657D01*
X50441Y-39648D01*
X50413Y-39633D01*
X50389Y-39614D01*
X50368Y-39590D01*
X50353Y-39563D01*
X50344Y-39533D01*
X50341Y-39502D01*
X50343Y-39472D01*
X50352Y-39442D01*
X50366Y-39414D01*
X50385Y-39389D01*
X50409Y-39369D01*
X50436Y-39354D01*
X50466Y-39344D01*
X50497Y-39341D01*
X50527Y-39343D01*
X50557Y-39351D01*
X50585Y-39365D01*
X50610Y-39385D01*
X50630Y-39408D01*
X50646Y-39435D01*
X50656Y-39465D01*
X50659Y-39496D01*
X50660Y-39500D01*
X50660Y-41500D02*
X50656Y-41531D01*
X50647Y-41560D01*
X50633Y-41588D01*
X50613Y-41612D01*
X50589Y-41632D01*
X50562Y-41647D01*
X50532Y-41656D01*
X50501Y-41659D01*
X50471Y-41657D01*
X50441Y-41648D01*
X50413Y-41633D01*
X50389Y-41614D01*
X50368Y-41590D01*
X50353Y-41563D01*
X50344Y-41533D01*
X50341Y-41502D01*
X50343Y-41472D01*
X50352Y-41442D01*
X50366Y-41414D01*
X50385Y-41389D01*
X50409Y-41369D01*
X50436Y-41354D01*
X50466Y-41344D01*
X50497Y-41341D01*
X50527Y-41343D01*
X50557Y-41351D01*
X50585Y-41365D01*
X50610Y-41385D01*
X50630Y-41408D01*
X50646Y-41435D01*
X50656Y-41465D01*
X50659Y-41496D01*
X50660Y-41500D01*
X50660Y-42500D02*
X50656Y-42531D01*
X50647Y-42560D01*
X50633Y-42588D01*
X50613Y-42612D01*
X50589Y-42632D01*
X50562Y-42647D01*
X50532Y-42656D01*
X50501Y-42659D01*
X50471Y-42657D01*
X50441Y-42648D01*
X50413Y-42633D01*
X50389Y-42614D01*
X50368Y-42590D01*
X50353Y-42563D01*
X50344Y-42533D01*
X50341Y-42502D01*
X50343Y-42472D01*
X50352Y-42442D01*
X50366Y-42414D01*
X50385Y-42389D01*
X50409Y-42369D01*
X50436Y-42354D01*
X50466Y-42344D01*
X50497Y-42341D01*
X50527Y-42343D01*
X50557Y-42351D01*
X50585Y-42365D01*
X50610Y-42385D01*
X50630Y-42408D01*
X50646Y-42435D01*
X50656Y-42465D01*
X50659Y-42496D01*
X50660Y-42500D01*
X51758Y-47047D02*
X51754Y-47078D01*
X51745Y-47107D01*
X51731Y-47135D01*
X51711Y-47159D01*
X51687Y-47179D01*
X51660Y-47194D01*
X51630Y-47203D01*
X51599Y-47206D01*
X51569Y-47204D01*
X51539Y-47195D01*
X51511Y-47180D01*
X51487Y-47161D01*
X51466Y-47137D01*
X51451Y-47110D01*
X51442Y-47080D01*
X51439Y-47049D01*
X51441Y-47019D01*
X51450Y-46989D01*
X51464Y-46961D01*
X51483Y-46936D01*
X51507Y-46916D01*
X51534Y-46901D01*
X51564Y-46891D01*
X51595Y-46888D01*
X51625Y-46890D01*
X51655Y-46898D01*
X51683Y-46912D01*
X51708Y-46932D01*
X51728Y-46955D01*
X51744Y-46982D01*
X51754Y-47012D01*
X51757Y-47043D01*
X51758Y-47047D01*
X52160Y-30500D02*
X52156Y-30531D01*
X52147Y-30560D01*
X52133Y-30588D01*
X52113Y-30612D01*
X52089Y-30632D01*
X52062Y-30647D01*
X52032Y-30656D01*
X52001Y-30659D01*
X51971Y-30657D01*
X51941Y-30648D01*
X51913Y-30633D01*
X51889Y-30614D01*
X51868Y-30590D01*
X51853Y-30563D01*
X51844Y-30533D01*
X51841Y-30502D01*
X51843Y-30472D01*
X51852Y-30442D01*
X51866Y-30414D01*
X51885Y-30389D01*
X51909Y-30369D01*
X51936Y-30354D01*
X51966Y-30344D01*
X51997Y-30341D01*
X52027Y-30343D01*
X52057Y-30351D01*
X52085Y-30365D01*
X52110Y-30385D01*
X52130Y-30408D01*
X52146Y-30435D01*
X52156Y-30465D01*
X52159Y-30496D01*
X52160Y-30500D01*
X52160Y-33500D02*
X52156Y-33531D01*
X52147Y-33560D01*
X52133Y-33588D01*
X52113Y-33612D01*
X52089Y-33632D01*
X52062Y-33647D01*
X52032Y-33656D01*
X52001Y-33659D01*
X51971Y-33657D01*
X51941Y-33648D01*
X51913Y-33633D01*
X51889Y-33614D01*
X51868Y-33590D01*
X51853Y-33563D01*
X51844Y-33533D01*
X51841Y-33502D01*
X51843Y-33472D01*
X51852Y-33442D01*
X51866Y-33414D01*
X51885Y-33389D01*
X51909Y-33369D01*
X51936Y-33354D01*
X51966Y-33344D01*
X51997Y-33341D01*
X52027Y-33343D01*
X52057Y-33351D01*
X52085Y-33365D01*
X52110Y-33385D01*
X52130Y-33408D01*
X52146Y-33435D01*
X52156Y-33465D01*
X52159Y-33496D01*
X52160Y-33500D01*
X52160Y-36500D02*
X52156Y-36531D01*
X52147Y-36560D01*
X52133Y-36588D01*
X52113Y-36612D01*
X52089Y-36632D01*
X52062Y-36647D01*
X52032Y-36656D01*
X52001Y-36659D01*
X51971Y-36657D01*
X51941Y-36648D01*
X51913Y-36633D01*
X51889Y-36614D01*
X51868Y-36590D01*
X51853Y-36563D01*
X51844Y-36533D01*
X51841Y-36502D01*
X51843Y-36472D01*
X51852Y-36442D01*
X51866Y-36414D01*
X51885Y-36389D01*
X51909Y-36369D01*
X51936Y-36354D01*
X51966Y-36344D01*
X51997Y-36341D01*
X52027Y-36343D01*
X52057Y-36351D01*
X52085Y-36365D01*
X52110Y-36385D01*
X52130Y-36408D01*
X52146Y-36435D01*
X52156Y-36465D01*
X52159Y-36496D01*
X52160Y-36500D01*
X52160Y-39500D02*
X52156Y-39531D01*
X52147Y-39560D01*
X52133Y-39588D01*
X52113Y-39612D01*
X52089Y-39632D01*
X52062Y-39647D01*
X52032Y-39656D01*
X52001Y-39659D01*
X51971Y-39657D01*
X51941Y-39648D01*
X51913Y-39633D01*
X51889Y-39614D01*
X51868Y-39590D01*
X51853Y-39563D01*
X51844Y-39533D01*
X51841Y-39502D01*
X51843Y-39472D01*
X51852Y-39442D01*
X51866Y-39414D01*
X51885Y-39389D01*
X51909Y-39369D01*
X51936Y-39354D01*
X51966Y-39344D01*
X51997Y-39341D01*
X52027Y-39343D01*
X52057Y-39351D01*
X52085Y-39365D01*
X52110Y-39385D01*
X52130Y-39408D01*
X52146Y-39435D01*
X52156Y-39465D01*
X52159Y-39496D01*
X52160Y-39500D01*
X21000Y-28800D02*
X21000Y-29200D01*
X21200Y-29000D02*
X20800Y-29000D01*
X21000Y-31800D02*
X21000Y-32200D01*
X21200Y-32000D02*
X20800Y-32000D01*
X21000Y-34300D02*
X21000Y-34700D01*
X21200Y-34500D02*
X20800Y-34500D01*
X21000Y-37300D02*
X21000Y-37700D01*
X21200Y-37500D02*
X20800Y-37500D01*
X21000Y-39800D02*
X21000Y-40200D01*
X21200Y-40000D02*
X20800Y-40000D01*
X21000Y-42800D02*
X21000Y-43200D01*
X21200Y-43000D02*
X20800Y-43000D01*
X23500Y-45300D02*
X23500Y-45700D01*
X23700Y-45500D02*
X23300Y-45500D01*
X24500Y-45300D02*
X24500Y-45700D01*
X24700Y-45500D02*
X24300Y-45500D01*
X26000Y-45300D02*
X26000Y-45700D01*
X26200Y-45500D02*
X25800Y-45500D01*
X27000Y-45300D02*
X27000Y-45700D01*
X27200Y-45500D02*
X26800Y-45500D01*
X27500Y-20800D02*
X27500Y-21200D01*
X27700Y-21000D02*
X27300Y-21000D01*
X27500Y-21800D02*
X27500Y-22200D01*
X27700Y-22000D02*
X27300Y-22000D01*
X28500Y-45300D02*
X28500Y-45700D01*
X28700Y-45500D02*
X28300Y-45500D01*
X29500Y-45300D02*
X29500Y-45700D01*
X29700Y-45500D02*
X29300Y-45500D01*
X31000Y-45300D02*
X31000Y-45700D01*
X31200Y-45500D02*
X30800Y-45500D01*
X32000Y-45300D02*
X32000Y-45700D01*
X32200Y-45500D02*
X31800Y-45500D01*
X33752Y-46257D02*
X33752Y-46657D01*
X33952Y-46457D02*
X33552Y-46457D01*
X34250Y-21800D02*
X34250Y-22200D01*
X34450Y-22000D02*
X34050Y-22000D01*
X34250Y-22800D02*
X34250Y-23200D01*
X34450Y-23000D02*
X34050Y-23000D01*
X34250Y-49300D02*
X34250Y-49700D01*
X34450Y-49500D02*
X34050Y-49500D01*
X34250Y-50300D02*
X34250Y-50700D01*
X34450Y-50500D02*
X34050Y-50500D01*
X34752Y-46257D02*
X34752Y-46657D01*
X34952Y-46457D02*
X34552Y-46457D01*
X35250Y-21800D02*
X35250Y-22200D01*
X35450Y-22000D02*
X35050Y-22000D01*
X35250Y-22800D02*
X35250Y-23200D01*
X35450Y-23000D02*
X35050Y-23000D01*
X35250Y-49300D02*
X35250Y-49700D01*
X35450Y-49500D02*
X35050Y-49500D01*
X35250Y-50300D02*
X35250Y-50700D01*
X35450Y-50500D02*
X35050Y-50500D01*
X36250Y-21800D02*
X36250Y-22200D01*
X36450Y-22000D02*
X36050Y-22000D01*
X36250Y-22800D02*
X36250Y-23200D01*
X36450Y-23000D02*
X36050Y-23000D01*
X36250Y-49300D02*
X36250Y-49700D01*
X36450Y-49500D02*
X36050Y-49500D01*
X36250Y-50300D02*
X36250Y-50700D01*
X36450Y-50500D02*
X36050Y-50500D01*
X37250Y-21800D02*
X37250Y-22200D01*
X37450Y-22000D02*
X37050Y-22000D01*
X37250Y-22800D02*
X37250Y-23200D01*
X37450Y-23000D02*
X37050Y-23000D01*
X37250Y-49300D02*
X37250Y-49700D01*
X37450Y-49500D02*
X37050Y-49500D01*
X37250Y-50300D02*
X37250Y-50700D01*
X37450Y-50500D02*
X37050Y-50500D01*
X38250Y-21800D02*
X38250Y-22200D01*
X38450Y-22000D02*
X38050Y-22000D01*
X38250Y-22800D02*
X38250Y-23200D01*
X38450Y-23000D02*
X38050Y-23000D01*
X38250Y-49300D02*
X38250Y-49700D01*
X38450Y-49500D02*
X38050Y-49500D01*
X38250Y-50300D02*
X38250Y-50700D01*
X38450Y-50500D02*
X38050Y-50500D01*
X38476Y-45371D02*
X38476Y-45771D01*
X38676Y-45571D02*
X38276Y-45571D01*
X39476Y-45371D02*
X39476Y-45771D01*
X39676Y-45571D02*
X39276Y-45571D01*
X41035Y-45371D02*
X41035Y-45771D01*
X41235Y-45571D02*
X40835Y-45571D01*
X42035Y-45371D02*
X42035Y-45771D01*
X42235Y-45571D02*
X41835Y-45571D01*
X43500Y-45300D02*
X43500Y-45700D01*
X43700Y-45500D02*
X43300Y-45500D01*
X44000Y-22300D02*
X44000Y-22700D01*
X44200Y-22500D02*
X43800Y-22500D01*
X44500Y-45300D02*
X44500Y-45700D01*
X44700Y-45500D02*
X44300Y-45500D01*
X45000Y-22300D02*
X45000Y-22700D01*
X45200Y-22500D02*
X44800Y-22500D01*
X46000Y-22300D02*
X46000Y-22700D01*
X46200Y-22500D02*
X45800Y-22500D01*
X46000Y-28800D02*
X46000Y-29200D01*
X46200Y-29000D02*
X45800Y-29000D01*
X46000Y-31800D02*
X46000Y-32200D01*
X46200Y-32000D02*
X45800Y-32000D01*
X46000Y-34300D02*
X46000Y-34700D01*
X46200Y-34500D02*
X45800Y-34500D01*
X46000Y-37300D02*
X46000Y-37700D01*
X46200Y-37500D02*
X45800Y-37500D01*
X46000Y-39800D02*
X46000Y-40200D01*
X46200Y-40000D02*
X45800Y-40000D01*
X46000Y-42800D02*
X46000Y-43200D01*
X46200Y-43000D02*
X45800Y-43000D01*
X46457Y-49202D02*
X46457Y-49602D01*
X46657Y-49402D02*
X46257Y-49402D01*
X46457Y-50202D02*
X46457Y-50602D01*
X46657Y-50402D02*
X46257Y-50402D01*
X46547Y-44780D02*
X46547Y-45180D01*
X46747Y-44980D02*
X46347Y-44980D01*
X46547Y-47241D02*
X46547Y-47641D01*
X46747Y-47441D02*
X46347Y-47441D01*
X47000Y-22300D02*
X47000Y-22700D01*
X47200Y-22500D02*
X46800Y-22500D01*
X47547Y-44780D02*
X47547Y-45180D01*
X47747Y-44980D02*
X47347Y-44980D01*
X47547Y-47241D02*
X47547Y-47641D01*
X47747Y-47441D02*
X47347Y-47441D01*
X22800Y-29000D02*
X22794Y-29058D01*
X22777Y-29114D01*
X22749Y-29166D01*
X22712Y-29211D01*
X22667Y-29248D01*
X22616Y-29276D01*
X22560Y-29293D01*
X22502Y-29299D01*
X22444Y-29294D01*
X22388Y-29278D01*
X22336Y-29251D01*
X22291Y-29214D01*
X22253Y-29169D01*
X22225Y-29118D01*
X22207Y-29062D01*
X22201Y-29004D01*
X22205Y-28946D01*
X22222Y-28890D01*
X22248Y-28838D01*
X22285Y-28792D01*
X22329Y-28754D01*
X22380Y-28726D01*
X22436Y-28707D01*
X22494Y-28701D01*
X22552Y-28705D01*
X22608Y-28721D01*
X22660Y-28747D01*
X22706Y-28783D01*
X22745Y-28828D01*
X22774Y-28878D01*
X22792Y-28934D01*
X22799Y-28992D01*
X22800Y-29000D01*
X22200Y-28700D02*
X22800Y-29300D01*
X22800Y-28700D02*
X22200Y-29300D01*
X22800Y-32000D02*
X22794Y-32058D01*
X22777Y-32114D01*
X22749Y-32166D01*
X22712Y-32211D01*
X22667Y-32248D01*
X22616Y-32276D01*
X22560Y-32293D01*
X22502Y-32299D01*
X22444Y-32294D01*
X22388Y-32278D01*
X22336Y-32251D01*
X22291Y-32214D01*
X22253Y-32169D01*
X22225Y-32118D01*
X22207Y-32062D01*
X22201Y-32004D01*
X22205Y-31946D01*
X22222Y-31890D01*
X22248Y-31838D01*
X22285Y-31792D01*
X22329Y-31754D01*
X22380Y-31726D01*
X22436Y-31707D01*
X22494Y-31701D01*
X22552Y-31705D01*
X22608Y-31721D01*
X22660Y-31747D01*
X22706Y-31783D01*
X22745Y-31828D01*
X22774Y-31878D01*
X22792Y-31934D01*
X22799Y-31992D01*
X22800Y-32000D01*
X22200Y-31700D02*
X22800Y-32300D01*
X22800Y-31700D02*
X22200Y-32300D01*
X22800Y-34500D02*
X22794Y-34558D01*
X22777Y-34614D01*
X22749Y-34666D01*
X22712Y-34711D01*
X22667Y-34748D01*
X22616Y-34776D01*
X22560Y-34793D01*
X22502Y-34799D01*
X22444Y-34794D01*
X22388Y-34778D01*
X22336Y-34751D01*
X22291Y-34714D01*
X22253Y-34669D01*
X22225Y-34618D01*
X22207Y-34562D01*
X22201Y-34504D01*
X22205Y-34446D01*
X22222Y-34390D01*
X22248Y-34338D01*
X22285Y-34292D01*
X22329Y-34254D01*
X22380Y-34226D01*
X22436Y-34207D01*
X22494Y-34201D01*
X22552Y-34205D01*
X22608Y-34221D01*
X22660Y-34247D01*
X22706Y-34283D01*
X22745Y-34328D01*
X22774Y-34378D01*
X22792Y-34434D01*
X22799Y-34492D01*
X22800Y-34500D01*
X22200Y-34200D02*
X22800Y-34800D01*
X22800Y-34200D02*
X22200Y-34800D01*
X22800Y-37500D02*
X22794Y-37558D01*
X22777Y-37614D01*
X22749Y-37666D01*
X22712Y-37711D01*
X22667Y-37748D01*
X22616Y-37776D01*
X22560Y-37793D01*
X22502Y-37799D01*
X22444Y-37794D01*
X22388Y-37778D01*
X22336Y-37751D01*
X22291Y-37714D01*
X22253Y-37669D01*
X22225Y-37618D01*
X22207Y-37562D01*
X22201Y-37504D01*
X22205Y-37446D01*
X22222Y-37390D01*
X22248Y-37338D01*
X22285Y-37292D01*
X22329Y-37254D01*
X22380Y-37226D01*
X22436Y-37207D01*
X22494Y-37201D01*
X22552Y-37205D01*
X22608Y-37221D01*
X22660Y-37247D01*
X22706Y-37283D01*
X22745Y-37328D01*
X22774Y-37378D01*
X22792Y-37434D01*
X22799Y-37492D01*
X22800Y-37500D01*
X22200Y-37200D02*
X22800Y-37800D01*
X22800Y-37200D02*
X22200Y-37800D01*
X22800Y-40000D02*
X22794Y-40058D01*
X22777Y-40114D01*
X22749Y-40166D01*
X22712Y-40211D01*
X22667Y-40248D01*
X22616Y-40276D01*
X22560Y-40293D01*
X22502Y-40299D01*
X22444Y-40294D01*
X22388Y-40278D01*
X22336Y-40251D01*
X22291Y-40214D01*
X22253Y-40169D01*
X22225Y-40118D01*
X22207Y-40062D01*
X22201Y-40004D01*
X22205Y-39946D01*
X22222Y-39890D01*
X22248Y-39838D01*
X22285Y-39792D01*
X22329Y-39754D01*
X22380Y-39726D01*
X22436Y-39707D01*
X22494Y-39701D01*
X22552Y-39705D01*
X22608Y-39721D01*
X22660Y-39747D01*
X22706Y-39783D01*
X22745Y-39828D01*
X22774Y-39878D01*
X22792Y-39934D01*
X22799Y-39992D01*
X22800Y-40000D01*
X22200Y-39700D02*
X22800Y-40300D01*
X22800Y-39700D02*
X22200Y-40300D01*
X22800Y-43000D02*
X22794Y-43058D01*
X22777Y-43114D01*
X22749Y-43166D01*
X22712Y-43211D01*
X22667Y-43248D01*
X22616Y-43276D01*
X22560Y-43293D01*
X22502Y-43299D01*
X22444Y-43294D01*
X22388Y-43278D01*
X22336Y-43251D01*
X22291Y-43214D01*
X22253Y-43169D01*
X22225Y-43118D01*
X22207Y-43062D01*
X22201Y-43004D01*
X22205Y-42946D01*
X22222Y-42890D01*
X22248Y-42838D01*
X22285Y-42792D01*
X22329Y-42754D01*
X22380Y-42726D01*
X22436Y-42707D01*
X22494Y-42701D01*
X22552Y-42705D01*
X22608Y-42721D01*
X22660Y-42747D01*
X22706Y-42783D01*
X22745Y-42828D01*
X22774Y-42878D01*
X22792Y-42934D01*
X22799Y-42992D01*
X22800Y-43000D01*
X22200Y-42700D02*
X22800Y-43300D01*
X22800Y-42700D02*
X22200Y-43300D01*
X28300Y-26500D02*
X28294Y-26558D01*
X28277Y-26614D01*
X28249Y-26666D01*
X28212Y-26711D01*
X28167Y-26748D01*
X28116Y-26776D01*
X28060Y-26793D01*
X28002Y-26799D01*
X27944Y-26794D01*
X27888Y-26778D01*
X27836Y-26751D01*
X27791Y-26714D01*
X27753Y-26669D01*
X27725Y-26618D01*
X27707Y-26562D01*
X27701Y-26504D01*
X27705Y-26446D01*
X27722Y-26390D01*
X27748Y-26338D01*
X27785Y-26292D01*
X27829Y-26254D01*
X27880Y-26226D01*
X27936Y-26207D01*
X27994Y-26201D01*
X28052Y-26205D01*
X28108Y-26221D01*
X28160Y-26247D01*
X28206Y-26283D01*
X28245Y-26328D01*
X28274Y-26378D01*
X28292Y-26434D01*
X28299Y-26492D01*
X28300Y-26500D01*
X27700Y-26200D02*
X28300Y-26800D01*
X28300Y-26200D02*
X27700Y-26800D01*
X28800Y-29000D02*
X28794Y-29058D01*
X28777Y-29114D01*
X28749Y-29166D01*
X28712Y-29211D01*
X28667Y-29248D01*
X28616Y-29276D01*
X28560Y-29293D01*
X28502Y-29299D01*
X28444Y-29294D01*
X28388Y-29278D01*
X28336Y-29251D01*
X28291Y-29214D01*
X28253Y-29169D01*
X28225Y-29118D01*
X28207Y-29062D01*
X28201Y-29004D01*
X28205Y-28946D01*
X28222Y-28890D01*
X28248Y-28838D01*
X28285Y-28792D01*
X28329Y-28754D01*
X28380Y-28726D01*
X28436Y-28707D01*
X28494Y-28701D01*
X28552Y-28705D01*
X28608Y-28721D01*
X28660Y-28747D01*
X28706Y-28783D01*
X28745Y-28828D01*
X28774Y-28878D01*
X28792Y-28934D01*
X28799Y-28992D01*
X28800Y-29000D01*
X28200Y-28700D02*
X28800Y-29300D01*
X28800Y-28700D02*
X28200Y-29300D01*
X28800Y-32000D02*
X28794Y-32058D01*
X28777Y-32114D01*
X28749Y-32166D01*
X28712Y-32211D01*
X28667Y-32248D01*
X28616Y-32276D01*
X28560Y-32293D01*
X28502Y-32299D01*
X28444Y-32294D01*
X28388Y-32278D01*
X28336Y-32251D01*
X28291Y-32214D01*
X28253Y-32169D01*
X28225Y-32118D01*
X28207Y-32062D01*
X28201Y-32004D01*
X28205Y-31946D01*
X28222Y-31890D01*
X28248Y-31838D01*
X28285Y-31792D01*
X28329Y-31754D01*
X28380Y-31726D01*
X28436Y-31707D01*
X28494Y-31701D01*
X28552Y-31705D01*
X28608Y-31721D01*
X28660Y-31747D01*
X28706Y-31783D01*
X28745Y-31828D01*
X28774Y-31878D01*
X28792Y-31934D01*
X28799Y-31992D01*
X28800Y-32000D01*
X28200Y-31700D02*
X28800Y-32300D01*
X28800Y-31700D02*
X28200Y-32300D01*
X28800Y-34500D02*
X28794Y-34558D01*
X28777Y-34614D01*
X28749Y-34666D01*
X28712Y-34711D01*
X28667Y-34748D01*
X28616Y-34776D01*
X28560Y-34793D01*
X28502Y-34799D01*
X28444Y-34794D01*
X28388Y-34778D01*
X28336Y-34751D01*
X28291Y-34714D01*
X28253Y-34669D01*
X28225Y-34618D01*
X28207Y-34562D01*
X28201Y-34504D01*
X28205Y-34446D01*
X28222Y-34390D01*
X28248Y-34338D01*
X28285Y-34292D01*
X28329Y-34254D01*
X28380Y-34226D01*
X28436Y-34207D01*
X28494Y-34201D01*
X28552Y-34205D01*
X28608Y-34221D01*
X28660Y-34247D01*
X28706Y-34283D01*
X28745Y-34328D01*
X28774Y-34378D01*
X28792Y-34434D01*
X28799Y-34492D01*
X28800Y-34500D01*
X28200Y-34200D02*
X28800Y-34800D01*
X28800Y-34200D02*
X28200Y-34800D01*
X28800Y-37500D02*
X28794Y-37558D01*
X28777Y-37614D01*
X28749Y-37666D01*
X28712Y-37711D01*
X28667Y-37748D01*
X28616Y-37776D01*
X28560Y-37793D01*
X28502Y-37799D01*
X28444Y-37794D01*
X28388Y-37778D01*
X28336Y-37751D01*
X28291Y-37714D01*
X28253Y-37669D01*
X28225Y-37618D01*
X28207Y-37562D01*
X28201Y-37504D01*
X28205Y-37446D01*
X28222Y-37390D01*
X28248Y-37338D01*
X28285Y-37292D01*
X28329Y-37254D01*
X28380Y-37226D01*
X28436Y-37207D01*
X28494Y-37201D01*
X28552Y-37205D01*
X28608Y-37221D01*
X28660Y-37247D01*
X28706Y-37283D01*
X28745Y-37328D01*
X28774Y-37378D01*
X28792Y-37434D01*
X28799Y-37492D01*
X28800Y-37500D01*
X28200Y-37200D02*
X28800Y-37800D01*
X28800Y-37200D02*
X28200Y-37800D01*
X28800Y-40000D02*
X28794Y-40058D01*
X28777Y-40114D01*
X28749Y-40166D01*
X28712Y-40211D01*
X28667Y-40248D01*
X28616Y-40276D01*
X28560Y-40293D01*
X28502Y-40299D01*
X28444Y-40294D01*
X28388Y-40278D01*
X28336Y-40251D01*
X28291Y-40214D01*
X28253Y-40169D01*
X28225Y-40118D01*
X28207Y-40062D01*
X28201Y-40004D01*
X28205Y-39946D01*
X28222Y-39890D01*
X28248Y-39838D01*
X28285Y-39792D01*
X28329Y-39754D01*
X28380Y-39726D01*
X28436Y-39707D01*
X28494Y-39701D01*
X28552Y-39705D01*
X28608Y-39721D01*
X28660Y-39747D01*
X28706Y-39783D01*
X28745Y-39828D01*
X28774Y-39878D01*
X28792Y-39934D01*
X28799Y-39992D01*
X28800Y-40000D01*
X28200Y-39700D02*
X28800Y-40300D01*
X28800Y-39700D02*
X28200Y-40300D01*
X28800Y-43000D02*
X28794Y-43058D01*
X28777Y-43114D01*
X28749Y-43166D01*
X28712Y-43211D01*
X28667Y-43248D01*
X28616Y-43276D01*
X28560Y-43293D01*
X28502Y-43299D01*
X28444Y-43294D01*
X28388Y-43278D01*
X28336Y-43251D01*
X28291Y-43214D01*
X28253Y-43169D01*
X28225Y-43118D01*
X28207Y-43062D01*
X28201Y-43004D01*
X28205Y-42946D01*
X28222Y-42890D01*
X28248Y-42838D01*
X28285Y-42792D01*
X28329Y-42754D01*
X28380Y-42726D01*
X28436Y-42707D01*
X28494Y-42701D01*
X28552Y-42705D01*
X28608Y-42721D01*
X28660Y-42747D01*
X28706Y-42783D01*
X28745Y-42828D01*
X28774Y-42878D01*
X28792Y-42934D01*
X28799Y-42992D01*
X28800Y-43000D01*
X28200Y-42700D02*
X28800Y-43300D01*
X28800Y-42700D02*
X28200Y-43300D01*
X29300Y-25500D02*
X29294Y-25558D01*
X29277Y-25614D01*
X29249Y-25666D01*
X29212Y-25711D01*
X29167Y-25748D01*
X29116Y-25776D01*
X29060Y-25793D01*
X29002Y-25799D01*
X28944Y-25794D01*
X28888Y-25778D01*
X28836Y-25751D01*
X28791Y-25714D01*
X28753Y-25669D01*
X28725Y-25618D01*
X28707Y-25562D01*
X28701Y-25504D01*
X28705Y-25446D01*
X28722Y-25390D01*
X28748Y-25338D01*
X28785Y-25292D01*
X28829Y-25254D01*
X28880Y-25226D01*
X28936Y-25207D01*
X28994Y-25201D01*
X29052Y-25205D01*
X29108Y-25221D01*
X29160Y-25247D01*
X29206Y-25283D01*
X29245Y-25328D01*
X29274Y-25378D01*
X29292Y-25434D01*
X29299Y-25492D01*
X29300Y-25500D01*
X28700Y-25200D02*
X29300Y-25800D01*
X29300Y-25200D02*
X28700Y-25800D01*
X29300Y-26500D02*
X29294Y-26558D01*
X29277Y-26614D01*
X29249Y-26666D01*
X29212Y-26711D01*
X29167Y-26748D01*
X29116Y-26776D01*
X29060Y-26793D01*
X29002Y-26799D01*
X28944Y-26794D01*
X28888Y-26778D01*
X28836Y-26751D01*
X28791Y-26714D01*
X28753Y-26669D01*
X28725Y-26618D01*
X28707Y-26562D01*
X28701Y-26504D01*
X28705Y-26446D01*
X28722Y-26390D01*
X28748Y-26338D01*
X28785Y-26292D01*
X28829Y-26254D01*
X28880Y-26226D01*
X28936Y-26207D01*
X28994Y-26201D01*
X29052Y-26205D01*
X29108Y-26221D01*
X29160Y-26247D01*
X29206Y-26283D01*
X29245Y-26328D01*
X29274Y-26378D01*
X29292Y-26434D01*
X29299Y-26492D01*
X29300Y-26500D01*
X28700Y-26200D02*
X29300Y-26800D01*
X29300Y-26200D02*
X28700Y-26800D01*
X30800Y-29000D02*
X30794Y-29058D01*
X30777Y-29114D01*
X30749Y-29166D01*
X30712Y-29211D01*
X30667Y-29248D01*
X30616Y-29276D01*
X30560Y-29293D01*
X30502Y-29299D01*
X30444Y-29294D01*
X30388Y-29278D01*
X30336Y-29251D01*
X30291Y-29214D01*
X30253Y-29169D01*
X30225Y-29118D01*
X30207Y-29062D01*
X30201Y-29004D01*
X30205Y-28946D01*
X30222Y-28890D01*
X30248Y-28838D01*
X30285Y-28792D01*
X30329Y-28754D01*
X30380Y-28726D01*
X30436Y-28707D01*
X30494Y-28701D01*
X30552Y-28705D01*
X30608Y-28721D01*
X30660Y-28747D01*
X30706Y-28783D01*
X30745Y-28828D01*
X30774Y-28878D01*
X30792Y-28934D01*
X30799Y-28992D01*
X30800Y-29000D01*
X30200Y-28700D02*
X30800Y-29300D01*
X30800Y-28700D02*
X30200Y-29300D01*
X30800Y-32000D02*
X30794Y-32058D01*
X30777Y-32114D01*
X30749Y-32166D01*
X30712Y-32211D01*
X30667Y-32248D01*
X30616Y-32276D01*
X30560Y-32293D01*
X30502Y-32299D01*
X30444Y-32294D01*
X30388Y-32278D01*
X30336Y-32251D01*
X30291Y-32214D01*
X30253Y-32169D01*
X30225Y-32118D01*
X30207Y-32062D01*
X30201Y-32004D01*
X30205Y-31946D01*
X30222Y-31890D01*
X30248Y-31838D01*
X30285Y-31792D01*
X30329Y-31754D01*
X30380Y-31726D01*
X30436Y-31707D01*
X30494Y-31701D01*
X30552Y-31705D01*
X30608Y-31721D01*
X30660Y-31747D01*
X30706Y-31783D01*
X30745Y-31828D01*
X30774Y-31878D01*
X30792Y-31934D01*
X30799Y-31992D01*
X30800Y-32000D01*
X30200Y-31700D02*
X30800Y-32300D01*
X30800Y-31700D02*
X30200Y-32300D01*
X30800Y-34500D02*
X30794Y-34558D01*
X30777Y-34614D01*
X30749Y-34666D01*
X30712Y-34711D01*
X30667Y-34748D01*
X30616Y-34776D01*
X30560Y-34793D01*
X30502Y-34799D01*
X30444Y-34794D01*
X30388Y-34778D01*
X30336Y-34751D01*
X30291Y-34714D01*
X30253Y-34669D01*
X30225Y-34618D01*
X30207Y-34562D01*
X30201Y-34504D01*
X30205Y-34446D01*
X30222Y-34390D01*
X30248Y-34338D01*
X30285Y-34292D01*
X30329Y-34254D01*
X30380Y-34226D01*
X30436Y-34207D01*
X30494Y-34201D01*
X30552Y-34205D01*
X30608Y-34221D01*
X30660Y-34247D01*
X30706Y-34283D01*
X30745Y-34328D01*
X30774Y-34378D01*
X30792Y-34434D01*
X30799Y-34492D01*
X30800Y-34500D01*
X30200Y-34200D02*
X30800Y-34800D01*
X30800Y-34200D02*
X30200Y-34800D01*
X30800Y-37500D02*
X30794Y-37558D01*
X30777Y-37614D01*
X30749Y-37666D01*
X30712Y-37711D01*
X30667Y-37748D01*
X30616Y-37776D01*
X30560Y-37793D01*
X30502Y-37799D01*
X30444Y-37794D01*
X30388Y-37778D01*
X30336Y-37751D01*
X30291Y-37714D01*
X30253Y-37669D01*
X30225Y-37618D01*
X30207Y-37562D01*
X30201Y-37504D01*
X30205Y-37446D01*
X30222Y-37390D01*
X30248Y-37338D01*
X30285Y-37292D01*
X30329Y-37254D01*
X30380Y-37226D01*
X30436Y-37207D01*
X30494Y-37201D01*
X30552Y-37205D01*
X30608Y-37221D01*
X30660Y-37247D01*
X30706Y-37283D01*
X30745Y-37328D01*
X30774Y-37378D01*
X30792Y-37434D01*
X30799Y-37492D01*
X30800Y-37500D01*
X30200Y-37200D02*
X30800Y-37800D01*
X30800Y-37200D02*
X30200Y-37800D01*
X30800Y-40000D02*
X30794Y-40058D01*
X30777Y-40114D01*
X30749Y-40166D01*
X30712Y-40211D01*
X30667Y-40248D01*
X30616Y-40276D01*
X30560Y-40293D01*
X30502Y-40299D01*
X30444Y-40294D01*
X30388Y-40278D01*
X30336Y-40251D01*
X30291Y-40214D01*
X30253Y-40169D01*
X30225Y-40118D01*
X30207Y-40062D01*
X30201Y-40004D01*
X30205Y-39946D01*
X30222Y-39890D01*
X30248Y-39838D01*
X30285Y-39792D01*
X30329Y-39754D01*
X30380Y-39726D01*
X30436Y-39707D01*
X30494Y-39701D01*
X30552Y-39705D01*
X30608Y-39721D01*
X30660Y-39747D01*
X30706Y-39783D01*
X30745Y-39828D01*
X30774Y-39878D01*
X30792Y-39934D01*
X30799Y-39992D01*
X30800Y-40000D01*
X30200Y-39700D02*
X30800Y-40300D01*
X30800Y-39700D02*
X30200Y-40300D01*
X30800Y-43000D02*
X30794Y-43058D01*
X30777Y-43114D01*
X30749Y-43166D01*
X30712Y-43211D01*
X30667Y-43248D01*
X30616Y-43276D01*
X30560Y-43293D01*
X30502Y-43299D01*
X30444Y-43294D01*
X30388Y-43278D01*
X30336Y-43251D01*
X30291Y-43214D01*
X30253Y-43169D01*
X30225Y-43118D01*
X30207Y-43062D01*
X30201Y-43004D01*
X30205Y-42946D01*
X30222Y-42890D01*
X30248Y-42838D01*
X30285Y-42792D01*
X30329Y-42754D01*
X30380Y-42726D01*
X30436Y-42707D01*
X30494Y-42701D01*
X30552Y-42705D01*
X30608Y-42721D01*
X30660Y-42747D01*
X30706Y-42783D01*
X30745Y-42828D01*
X30774Y-42878D01*
X30792Y-42934D01*
X30799Y-42992D01*
X30800Y-43000D01*
X30200Y-42700D02*
X30800Y-43300D01*
X30800Y-42700D02*
X30200Y-43300D01*
X31300Y-26500D02*
X31294Y-26558D01*
X31277Y-26614D01*
X31249Y-26666D01*
X31212Y-26711D01*
X31167Y-26748D01*
X31116Y-26776D01*
X31060Y-26793D01*
X31002Y-26799D01*
X30944Y-26794D01*
X30888Y-26778D01*
X30836Y-26751D01*
X30791Y-26714D01*
X30753Y-26669D01*
X30725Y-26618D01*
X30707Y-26562D01*
X30701Y-26504D01*
X30705Y-26446D01*
X30722Y-26390D01*
X30748Y-26338D01*
X30785Y-26292D01*
X30829Y-26254D01*
X30880Y-26226D01*
X30936Y-26207D01*
X30994Y-26201D01*
X31052Y-26205D01*
X31108Y-26221D01*
X31160Y-26247D01*
X31206Y-26283D01*
X31245Y-26328D01*
X31274Y-26378D01*
X31292Y-26434D01*
X31299Y-26492D01*
X31300Y-26500D01*
X30700Y-26200D02*
X31300Y-26800D01*
X31300Y-26200D02*
X30700Y-26800D01*
X32300Y-25500D02*
X32294Y-25558D01*
X32277Y-25614D01*
X32249Y-25666D01*
X32212Y-25711D01*
X32167Y-25748D01*
X32116Y-25776D01*
X32060Y-25793D01*
X32002Y-25799D01*
X31944Y-25794D01*
X31888Y-25778D01*
X31836Y-25751D01*
X31791Y-25714D01*
X31753Y-25669D01*
X31725Y-25618D01*
X31707Y-25562D01*
X31701Y-25504D01*
X31705Y-25446D01*
X31722Y-25390D01*
X31748Y-25338D01*
X31785Y-25292D01*
X31829Y-25254D01*
X31880Y-25226D01*
X31936Y-25207D01*
X31994Y-25201D01*
X32052Y-25205D01*
X32108Y-25221D01*
X32160Y-25247D01*
X32206Y-25283D01*
X32245Y-25328D01*
X32274Y-25378D01*
X32292Y-25434D01*
X32299Y-25492D01*
X32300Y-25500D01*
X31700Y-25200D02*
X32300Y-25800D01*
X32300Y-25200D02*
X31700Y-25800D01*
X32300Y-26500D02*
X32294Y-26558D01*
X32277Y-26614D01*
X32249Y-26666D01*
X32212Y-26711D01*
X32167Y-26748D01*
X32116Y-26776D01*
X32060Y-26793D01*
X32002Y-26799D01*
X31944Y-26794D01*
X31888Y-26778D01*
X31836Y-26751D01*
X31791Y-26714D01*
X31753Y-26669D01*
X31725Y-26618D01*
X31707Y-26562D01*
X31701Y-26504D01*
X31705Y-26446D01*
X31722Y-26390D01*
X31748Y-26338D01*
X31785Y-26292D01*
X31829Y-26254D01*
X31880Y-26226D01*
X31936Y-26207D01*
X31994Y-26201D01*
X32052Y-26205D01*
X32108Y-26221D01*
X32160Y-26247D01*
X32206Y-26283D01*
X32245Y-26328D01*
X32274Y-26378D01*
X32292Y-26434D01*
X32299Y-26492D01*
X32300Y-26500D01*
X31700Y-26200D02*
X32300Y-26800D01*
X32300Y-26200D02*
X31700Y-26800D01*
X32800Y-29000D02*
X32794Y-29058D01*
X32777Y-29114D01*
X32749Y-29166D01*
X32712Y-29211D01*
X32667Y-29248D01*
X32616Y-29276D01*
X32560Y-29293D01*
X32502Y-29299D01*
X32444Y-29294D01*
X32388Y-29278D01*
X32336Y-29251D01*
X32291Y-29214D01*
X32253Y-29169D01*
X32225Y-29118D01*
X32207Y-29062D01*
X32201Y-29004D01*
X32205Y-28946D01*
X32222Y-28890D01*
X32248Y-28838D01*
X32285Y-28792D01*
X32329Y-28754D01*
X32380Y-28726D01*
X32436Y-28707D01*
X32494Y-28701D01*
X32552Y-28705D01*
X32608Y-28721D01*
X32660Y-28747D01*
X32706Y-28783D01*
X32745Y-28828D01*
X32774Y-28878D01*
X32792Y-28934D01*
X32799Y-28992D01*
X32800Y-29000D01*
X32200Y-28700D02*
X32800Y-29300D01*
X32800Y-28700D02*
X32200Y-29300D01*
X32800Y-32000D02*
X32794Y-32058D01*
X32777Y-32114D01*
X32749Y-32166D01*
X32712Y-32211D01*
X32667Y-32248D01*
X32616Y-32276D01*
X32560Y-32293D01*
X32502Y-32299D01*
X32444Y-32294D01*
X32388Y-32278D01*
X32336Y-32251D01*
X32291Y-32214D01*
X32253Y-32169D01*
X32225Y-32118D01*
X32207Y-32062D01*
X32201Y-32004D01*
X32205Y-31946D01*
X32222Y-31890D01*
X32248Y-31838D01*
X32285Y-31792D01*
X32329Y-31754D01*
X32380Y-31726D01*
X32436Y-31707D01*
X32494Y-31701D01*
X32552Y-31705D01*
X32608Y-31721D01*
X32660Y-31747D01*
X32706Y-31783D01*
X32745Y-31828D01*
X32774Y-31878D01*
X32792Y-31934D01*
X32799Y-31992D01*
X32800Y-32000D01*
X32200Y-31700D02*
X32800Y-32300D01*
X32800Y-31700D02*
X32200Y-32300D01*
X32800Y-34500D02*
X32794Y-34558D01*
X32777Y-34614D01*
X32749Y-34666D01*
X32712Y-34711D01*
X32667Y-34748D01*
X32616Y-34776D01*
X32560Y-34793D01*
X32502Y-34799D01*
X32444Y-34794D01*
X32388Y-34778D01*
X32336Y-34751D01*
X32291Y-34714D01*
X32253Y-34669D01*
X32225Y-34618D01*
X32207Y-34562D01*
X32201Y-34504D01*
X32205Y-34446D01*
X32222Y-34390D01*
X32248Y-34338D01*
X32285Y-34292D01*
X32329Y-34254D01*
X32380Y-34226D01*
X32436Y-34207D01*
X32494Y-34201D01*
X32552Y-34205D01*
X32608Y-34221D01*
X32660Y-34247D01*
X32706Y-34283D01*
X32745Y-34328D01*
X32774Y-34378D01*
X32792Y-34434D01*
X32799Y-34492D01*
X32800Y-34500D01*
X32200Y-34200D02*
X32800Y-34800D01*
X32800Y-34200D02*
X32200Y-34800D01*
X32800Y-37500D02*
X32794Y-37558D01*
X32777Y-37614D01*
X32749Y-37666D01*
X32712Y-37711D01*
X32667Y-37748D01*
X32616Y-37776D01*
X32560Y-37793D01*
X32502Y-37799D01*
X32444Y-37794D01*
X32388Y-37778D01*
X32336Y-37751D01*
X32291Y-37714D01*
X32253Y-37669D01*
X32225Y-37618D01*
X32207Y-37562D01*
X32201Y-37504D01*
X32205Y-37446D01*
X32222Y-37390D01*
X32248Y-37338D01*
X32285Y-37292D01*
X32329Y-37254D01*
X32380Y-37226D01*
X32436Y-37207D01*
X32494Y-37201D01*
X32552Y-37205D01*
X32608Y-37221D01*
X32660Y-37247D01*
X32706Y-37283D01*
X32745Y-37328D01*
X32774Y-37378D01*
X32792Y-37434D01*
X32799Y-37492D01*
X32800Y-37500D01*
X32200Y-37200D02*
X32800Y-37800D01*
X32800Y-37200D02*
X32200Y-37800D01*
X32800Y-40000D02*
X32794Y-40058D01*
X32777Y-40114D01*
X32749Y-40166D01*
X32712Y-40211D01*
X32667Y-40248D01*
X32616Y-40276D01*
X32560Y-40293D01*
X32502Y-40299D01*
X32444Y-40294D01*
X32388Y-40278D01*
X32336Y-40251D01*
X32291Y-40214D01*
X32253Y-40169D01*
X32225Y-40118D01*
X32207Y-40062D01*
X32201Y-40004D01*
X32205Y-39946D01*
X32222Y-39890D01*
X32248Y-39838D01*
X32285Y-39792D01*
X32329Y-39754D01*
X32380Y-39726D01*
X32436Y-39707D01*
X32494Y-39701D01*
X32552Y-39705D01*
X32608Y-39721D01*
X32660Y-39747D01*
X32706Y-39783D01*
X32745Y-39828D01*
X32774Y-39878D01*
X32792Y-39934D01*
X32799Y-39992D01*
X32800Y-40000D01*
X32200Y-39700D02*
X32800Y-40300D01*
X32800Y-39700D02*
X32200Y-40300D01*
X32800Y-43000D02*
X32794Y-43058D01*
X32777Y-43114D01*
X32749Y-43166D01*
X32712Y-43211D01*
X32667Y-43248D01*
X32616Y-43276D01*
X32560Y-43293D01*
X32502Y-43299D01*
X32444Y-43294D01*
X32388Y-43278D01*
X32336Y-43251D01*
X32291Y-43214D01*
X32253Y-43169D01*
X32225Y-43118D01*
X32207Y-43062D01*
X32201Y-43004D01*
X32205Y-42946D01*
X32222Y-42890D01*
X32248Y-42838D01*
X32285Y-42792D01*
X32329Y-42754D01*
X32380Y-42726D01*
X32436Y-42707D01*
X32494Y-42701D01*
X32552Y-42705D01*
X32608Y-42721D01*
X32660Y-42747D01*
X32706Y-42783D01*
X32745Y-42828D01*
X32774Y-42878D01*
X32792Y-42934D01*
X32799Y-42992D01*
X32800Y-43000D01*
X32200Y-42700D02*
X32800Y-43300D01*
X32800Y-42700D02*
X32200Y-43300D01*
X34300Y-26500D02*
X34294Y-26558D01*
X34277Y-26614D01*
X34249Y-26666D01*
X34212Y-26711D01*
X34167Y-26748D01*
X34116Y-26776D01*
X34060Y-26793D01*
X34002Y-26799D01*
X33944Y-26794D01*
X33888Y-26778D01*
X33836Y-26751D01*
X33791Y-26714D01*
X33753Y-26669D01*
X33725Y-26618D01*
X33707Y-26562D01*
X33701Y-26504D01*
X33705Y-26446D01*
X33722Y-26390D01*
X33748Y-26338D01*
X33785Y-26292D01*
X33829Y-26254D01*
X33880Y-26226D01*
X33936Y-26207D01*
X33994Y-26201D01*
X34052Y-26205D01*
X34108Y-26221D01*
X34160Y-26247D01*
X34206Y-26283D01*
X34245Y-26328D01*
X34274Y-26378D01*
X34292Y-26434D01*
X34299Y-26492D01*
X34300Y-26500D01*
X33700Y-26200D02*
X34300Y-26800D01*
X34300Y-26200D02*
X33700Y-26800D01*
X34800Y-29000D02*
X34794Y-29058D01*
X34777Y-29114D01*
X34749Y-29166D01*
X34712Y-29211D01*
X34667Y-29248D01*
X34616Y-29276D01*
X34560Y-29293D01*
X34502Y-29299D01*
X34444Y-29294D01*
X34388Y-29278D01*
X34336Y-29251D01*
X34291Y-29214D01*
X34253Y-29169D01*
X34225Y-29118D01*
X34207Y-29062D01*
X34201Y-29004D01*
X34205Y-28946D01*
X34222Y-28890D01*
X34248Y-28838D01*
X34285Y-28792D01*
X34329Y-28754D01*
X34380Y-28726D01*
X34436Y-28707D01*
X34494Y-28701D01*
X34552Y-28705D01*
X34608Y-28721D01*
X34660Y-28747D01*
X34706Y-28783D01*
X34745Y-28828D01*
X34774Y-28878D01*
X34792Y-28934D01*
X34799Y-28992D01*
X34800Y-29000D01*
X34200Y-28700D02*
X34800Y-29300D01*
X34800Y-28700D02*
X34200Y-29300D01*
X34800Y-32000D02*
X34794Y-32058D01*
X34777Y-32114D01*
X34749Y-32166D01*
X34712Y-32211D01*
X34667Y-32248D01*
X34616Y-32276D01*
X34560Y-32293D01*
X34502Y-32299D01*
X34444Y-32294D01*
X34388Y-32278D01*
X34336Y-32251D01*
X34291Y-32214D01*
X34253Y-32169D01*
X34225Y-32118D01*
X34207Y-32062D01*
X34201Y-32004D01*
X34205Y-31946D01*
X34222Y-31890D01*
X34248Y-31838D01*
X34285Y-31792D01*
X34329Y-31754D01*
X34380Y-31726D01*
X34436Y-31707D01*
X34494Y-31701D01*
X34552Y-31705D01*
X34608Y-31721D01*
X34660Y-31747D01*
X34706Y-31783D01*
X34745Y-31828D01*
X34774Y-31878D01*
X34792Y-31934D01*
X34799Y-31992D01*
X34800Y-32000D01*
X34200Y-31700D02*
X34800Y-32300D01*
X34800Y-31700D02*
X34200Y-32300D01*
X34800Y-34500D02*
X34794Y-34558D01*
X34777Y-34614D01*
X34749Y-34666D01*
X34712Y-34711D01*
X34667Y-34748D01*
X34616Y-34776D01*
X34560Y-34793D01*
X34502Y-34799D01*
X34444Y-34794D01*
X34388Y-34778D01*
X34336Y-34751D01*
X34291Y-34714D01*
X34253Y-34669D01*
X34225Y-34618D01*
X34207Y-34562D01*
X34201Y-34504D01*
X34205Y-34446D01*
X34222Y-34390D01*
X34248Y-34338D01*
X34285Y-34292D01*
X34329Y-34254D01*
X34380Y-34226D01*
X34436Y-34207D01*
X34494Y-34201D01*
X34552Y-34205D01*
X34608Y-34221D01*
X34660Y-34247D01*
X34706Y-34283D01*
X34745Y-34328D01*
X34774Y-34378D01*
X34792Y-34434D01*
X34799Y-34492D01*
X34800Y-34500D01*
X34200Y-34200D02*
X34800Y-34800D01*
X34800Y-34200D02*
X34200Y-34800D01*
X34800Y-37500D02*
X34794Y-37558D01*
X34777Y-37614D01*
X34749Y-37666D01*
X34712Y-37711D01*
X34667Y-37748D01*
X34616Y-37776D01*
X34560Y-37793D01*
X34502Y-37799D01*
X34444Y-37794D01*
X34388Y-37778D01*
X34336Y-37751D01*
X34291Y-37714D01*
X34253Y-37669D01*
X34225Y-37618D01*
X34207Y-37562D01*
X34201Y-37504D01*
X34205Y-37446D01*
X34222Y-37390D01*
X34248Y-37338D01*
X34285Y-37292D01*
X34329Y-37254D01*
X34380Y-37226D01*
X34436Y-37207D01*
X34494Y-37201D01*
X34552Y-37205D01*
X34608Y-37221D01*
X34660Y-37247D01*
X34706Y-37283D01*
X34745Y-37328D01*
X34774Y-37378D01*
X34792Y-37434D01*
X34799Y-37492D01*
X34800Y-37500D01*
X34200Y-37200D02*
X34800Y-37800D01*
X34800Y-37200D02*
X34200Y-37800D01*
X34800Y-40000D02*
X34794Y-40058D01*
X34777Y-40114D01*
X34749Y-40166D01*
X34712Y-40211D01*
X34667Y-40248D01*
X34616Y-40276D01*
X34560Y-40293D01*
X34502Y-40299D01*
X34444Y-40294D01*
X34388Y-40278D01*
X34336Y-40251D01*
X34291Y-40214D01*
X34253Y-40169D01*
X34225Y-40118D01*
X34207Y-40062D01*
X34201Y-40004D01*
X34205Y-39946D01*
X34222Y-39890D01*
X34248Y-39838D01*
X34285Y-39792D01*
X34329Y-39754D01*
X34380Y-39726D01*
X34436Y-39707D01*
X34494Y-39701D01*
X34552Y-39705D01*
X34608Y-39721D01*
X34660Y-39747D01*
X34706Y-39783D01*
X34745Y-39828D01*
X34774Y-39878D01*
X34792Y-39934D01*
X34799Y-39992D01*
X34800Y-40000D01*
X34200Y-39700D02*
X34800Y-40300D01*
X34800Y-39700D02*
X34200Y-40300D01*
X34800Y-43000D02*
X34794Y-43058D01*
X34777Y-43114D01*
X34749Y-43166D01*
X34712Y-43211D01*
X34667Y-43248D01*
X34616Y-43276D01*
X34560Y-43293D01*
X34502Y-43299D01*
X34444Y-43294D01*
X34388Y-43278D01*
X34336Y-43251D01*
X34291Y-43214D01*
X34253Y-43169D01*
X34225Y-43118D01*
X34207Y-43062D01*
X34201Y-43004D01*
X34205Y-42946D01*
X34222Y-42890D01*
X34248Y-42838D01*
X34285Y-42792D01*
X34329Y-42754D01*
X34380Y-42726D01*
X34436Y-42707D01*
X34494Y-42701D01*
X34552Y-42705D01*
X34608Y-42721D01*
X34660Y-42747D01*
X34706Y-42783D01*
X34745Y-42828D01*
X34774Y-42878D01*
X34792Y-42934D01*
X34799Y-42992D01*
X34800Y-43000D01*
X34200Y-42700D02*
X34800Y-43300D01*
X34800Y-42700D02*
X34200Y-43300D01*
X35300Y-25500D02*
X35294Y-25558D01*
X35277Y-25614D01*
X35249Y-25666D01*
X35212Y-25711D01*
X35167Y-25748D01*
X35116Y-25776D01*
X35060Y-25793D01*
X35002Y-25799D01*
X34944Y-25794D01*
X34888Y-25778D01*
X34836Y-25751D01*
X34791Y-25714D01*
X34753Y-25669D01*
X34725Y-25618D01*
X34707Y-25562D01*
X34701Y-25504D01*
X34705Y-25446D01*
X34722Y-25390D01*
X34748Y-25338D01*
X34785Y-25292D01*
X34829Y-25254D01*
X34880Y-25226D01*
X34936Y-25207D01*
X34994Y-25201D01*
X35052Y-25205D01*
X35108Y-25221D01*
X35160Y-25247D01*
X35206Y-25283D01*
X35245Y-25328D01*
X35274Y-25378D01*
X35292Y-25434D01*
X35299Y-25492D01*
X35300Y-25500D01*
X34700Y-25200D02*
X35300Y-25800D01*
X35300Y-25200D02*
X34700Y-25800D01*
X35300Y-26500D02*
X35294Y-26558D01*
X35277Y-26614D01*
X35249Y-26666D01*
X35212Y-26711D01*
X35167Y-26748D01*
X35116Y-26776D01*
X35060Y-26793D01*
X35002Y-26799D01*
X34944Y-26794D01*
X34888Y-26778D01*
X34836Y-26751D01*
X34791Y-26714D01*
X34753Y-26669D01*
X34725Y-26618D01*
X34707Y-26562D01*
X34701Y-26504D01*
X34705Y-26446D01*
X34722Y-26390D01*
X34748Y-26338D01*
X34785Y-26292D01*
X34829Y-26254D01*
X34880Y-26226D01*
X34936Y-26207D01*
X34994Y-26201D01*
X35052Y-26205D01*
X35108Y-26221D01*
X35160Y-26247D01*
X35206Y-26283D01*
X35245Y-26328D01*
X35274Y-26378D01*
X35292Y-26434D01*
X35299Y-26492D01*
X35300Y-26500D01*
X34700Y-26200D02*
X35300Y-26800D01*
X35300Y-26200D02*
X34700Y-26800D01*
X36800Y-29000D02*
X36794Y-29058D01*
X36777Y-29114D01*
X36749Y-29166D01*
X36712Y-29211D01*
X36667Y-29248D01*
X36616Y-29276D01*
X36560Y-29293D01*
X36502Y-29299D01*
X36444Y-29294D01*
X36388Y-29278D01*
X36336Y-29251D01*
X36291Y-29214D01*
X36253Y-29169D01*
X36225Y-29118D01*
X36207Y-29062D01*
X36201Y-29004D01*
X36205Y-28946D01*
X36222Y-28890D01*
X36248Y-28838D01*
X36285Y-28792D01*
X36329Y-28754D01*
X36380Y-28726D01*
X36436Y-28707D01*
X36494Y-28701D01*
X36552Y-28705D01*
X36608Y-28721D01*
X36660Y-28747D01*
X36706Y-28783D01*
X36745Y-28828D01*
X36774Y-28878D01*
X36792Y-28934D01*
X36799Y-28992D01*
X36800Y-29000D01*
X36200Y-28700D02*
X36800Y-29300D01*
X36800Y-28700D02*
X36200Y-29300D01*
X36800Y-32000D02*
X36794Y-32058D01*
X36777Y-32114D01*
X36749Y-32166D01*
X36712Y-32211D01*
X36667Y-32248D01*
X36616Y-32276D01*
X36560Y-32293D01*
X36502Y-32299D01*
X36444Y-32294D01*
X36388Y-32278D01*
X36336Y-32251D01*
X36291Y-32214D01*
X36253Y-32169D01*
X36225Y-32118D01*
X36207Y-32062D01*
X36201Y-32004D01*
X36205Y-31946D01*
X36222Y-31890D01*
X36248Y-31838D01*
X36285Y-31792D01*
X36329Y-31754D01*
X36380Y-31726D01*
X36436Y-31707D01*
X36494Y-31701D01*
X36552Y-31705D01*
X36608Y-31721D01*
X36660Y-31747D01*
X36706Y-31783D01*
X36745Y-31828D01*
X36774Y-31878D01*
X36792Y-31934D01*
X36799Y-31992D01*
X36800Y-32000D01*
X36200Y-31700D02*
X36800Y-32300D01*
X36800Y-31700D02*
X36200Y-32300D01*
X36800Y-34500D02*
X36794Y-34558D01*
X36777Y-34614D01*
X36749Y-34666D01*
X36712Y-34711D01*
X36667Y-34748D01*
X36616Y-34776D01*
X36560Y-34793D01*
X36502Y-34799D01*
X36444Y-34794D01*
X36388Y-34778D01*
X36336Y-34751D01*
X36291Y-34714D01*
X36253Y-34669D01*
X36225Y-34618D01*
X36207Y-34562D01*
X36201Y-34504D01*
X36205Y-34446D01*
X36222Y-34390D01*
X36248Y-34338D01*
X36285Y-34292D01*
X36329Y-34254D01*
X36380Y-34226D01*
X36436Y-34207D01*
X36494Y-34201D01*
X36552Y-34205D01*
X36608Y-34221D01*
X36660Y-34247D01*
X36706Y-34283D01*
X36745Y-34328D01*
X36774Y-34378D01*
X36792Y-34434D01*
X36799Y-34492D01*
X36800Y-34500D01*
X36200Y-34200D02*
X36800Y-34800D01*
X36800Y-34200D02*
X36200Y-34800D01*
X36800Y-37500D02*
X36794Y-37558D01*
X36777Y-37614D01*
X36749Y-37666D01*
X36712Y-37711D01*
X36667Y-37748D01*
X36616Y-37776D01*
X36560Y-37793D01*
X36502Y-37799D01*
X36444Y-37794D01*
X36388Y-37778D01*
X36336Y-37751D01*
X36291Y-37714D01*
X36253Y-37669D01*
X36225Y-37618D01*
X36207Y-37562D01*
X36201Y-37504D01*
X36205Y-37446D01*
X36222Y-37390D01*
X36248Y-37338D01*
X36285Y-37292D01*
X36329Y-37254D01*
X36380Y-37226D01*
X36436Y-37207D01*
X36494Y-37201D01*
X36552Y-37205D01*
X36608Y-37221D01*
X36660Y-37247D01*
X36706Y-37283D01*
X36745Y-37328D01*
X36774Y-37378D01*
X36792Y-37434D01*
X36799Y-37492D01*
X36800Y-37500D01*
X36200Y-37200D02*
X36800Y-37800D01*
X36800Y-37200D02*
X36200Y-37800D01*
X36800Y-40000D02*
X36794Y-40058D01*
X36777Y-40114D01*
X36749Y-40166D01*
X36712Y-40211D01*
X36667Y-40248D01*
X36616Y-40276D01*
X36560Y-40293D01*
X36502Y-40299D01*
X36444Y-40294D01*
X36388Y-40278D01*
X36336Y-40251D01*
X36291Y-40214D01*
X36253Y-40169D01*
X36225Y-40118D01*
X36207Y-40062D01*
X36201Y-40004D01*
X36205Y-39946D01*
X36222Y-39890D01*
X36248Y-39838D01*
X36285Y-39792D01*
X36329Y-39754D01*
X36380Y-39726D01*
X36436Y-39707D01*
X36494Y-39701D01*
X36552Y-39705D01*
X36608Y-39721D01*
X36660Y-39747D01*
X36706Y-39783D01*
X36745Y-39828D01*
X36774Y-39878D01*
X36792Y-39934D01*
X36799Y-39992D01*
X36800Y-40000D01*
X36200Y-39700D02*
X36800Y-40300D01*
X36800Y-39700D02*
X36200Y-40300D01*
X36800Y-43000D02*
X36794Y-43058D01*
X36777Y-43114D01*
X36749Y-43166D01*
X36712Y-43211D01*
X36667Y-43248D01*
X36616Y-43276D01*
X36560Y-43293D01*
X36502Y-43299D01*
X36444Y-43294D01*
X36388Y-43278D01*
X36336Y-43251D01*
X36291Y-43214D01*
X36253Y-43169D01*
X36225Y-43118D01*
X36207Y-43062D01*
X36201Y-43004D01*
X36205Y-42946D01*
X36222Y-42890D01*
X36248Y-42838D01*
X36285Y-42792D01*
X36329Y-42754D01*
X36380Y-42726D01*
X36436Y-42707D01*
X36494Y-42701D01*
X36552Y-42705D01*
X36608Y-42721D01*
X36660Y-42747D01*
X36706Y-42783D01*
X36745Y-42828D01*
X36774Y-42878D01*
X36792Y-42934D01*
X36799Y-42992D01*
X36800Y-43000D01*
X36200Y-42700D02*
X36800Y-43300D01*
X36800Y-42700D02*
X36200Y-43300D01*
X37300Y-26500D02*
X37294Y-26558D01*
X37277Y-26614D01*
X37249Y-26666D01*
X37212Y-26711D01*
X37167Y-26748D01*
X37116Y-26776D01*
X37060Y-26793D01*
X37002Y-26799D01*
X36944Y-26794D01*
X36888Y-26778D01*
X36836Y-26751D01*
X36791Y-26714D01*
X36753Y-26669D01*
X36725Y-26618D01*
X36707Y-26562D01*
X36701Y-26504D01*
X36705Y-26446D01*
X36722Y-26390D01*
X36748Y-26338D01*
X36785Y-26292D01*
X36829Y-26254D01*
X36880Y-26226D01*
X36936Y-26207D01*
X36994Y-26201D01*
X37052Y-26205D01*
X37108Y-26221D01*
X37160Y-26247D01*
X37206Y-26283D01*
X37245Y-26328D01*
X37274Y-26378D01*
X37292Y-26434D01*
X37299Y-26492D01*
X37300Y-26500D01*
X36700Y-26200D02*
X37300Y-26800D01*
X37300Y-26200D02*
X36700Y-26800D01*
X38300Y-25500D02*
X38294Y-25558D01*
X38277Y-25614D01*
X38249Y-25666D01*
X38212Y-25711D01*
X38167Y-25748D01*
X38116Y-25776D01*
X38060Y-25793D01*
X38002Y-25799D01*
X37944Y-25794D01*
X37888Y-25778D01*
X37836Y-25751D01*
X37791Y-25714D01*
X37753Y-25669D01*
X37725Y-25618D01*
X37707Y-25562D01*
X37701Y-25504D01*
X37705Y-25446D01*
X37722Y-25390D01*
X37748Y-25338D01*
X37785Y-25292D01*
X37829Y-25254D01*
X37880Y-25226D01*
X37936Y-25207D01*
X37994Y-25201D01*
X38052Y-25205D01*
X38108Y-25221D01*
X38160Y-25247D01*
X38206Y-25283D01*
X38245Y-25328D01*
X38274Y-25378D01*
X38292Y-25434D01*
X38299Y-25492D01*
X38300Y-25500D01*
X37700Y-25200D02*
X38300Y-25800D01*
X38300Y-25200D02*
X37700Y-25800D01*
X38300Y-26500D02*
X38294Y-26558D01*
X38277Y-26614D01*
X38249Y-26666D01*
X38212Y-26711D01*
X38167Y-26748D01*
X38116Y-26776D01*
X38060Y-26793D01*
X38002Y-26799D01*
X37944Y-26794D01*
X37888Y-26778D01*
X37836Y-26751D01*
X37791Y-26714D01*
X37753Y-26669D01*
X37725Y-26618D01*
X37707Y-26562D01*
X37701Y-26504D01*
X37705Y-26446D01*
X37722Y-26390D01*
X37748Y-26338D01*
X37785Y-26292D01*
X37829Y-26254D01*
X37880Y-26226D01*
X37936Y-26207D01*
X37994Y-26201D01*
X38052Y-26205D01*
X38108Y-26221D01*
X38160Y-26247D01*
X38206Y-26283D01*
X38245Y-26328D01*
X38274Y-26378D01*
X38292Y-26434D01*
X38299Y-26492D01*
X38300Y-26500D01*
X37700Y-26200D02*
X38300Y-26800D01*
X38300Y-26200D02*
X37700Y-26800D01*
X38800Y-29000D02*
X38794Y-29058D01*
X38777Y-29114D01*
X38749Y-29166D01*
X38712Y-29211D01*
X38667Y-29248D01*
X38616Y-29276D01*
X38560Y-29293D01*
X38502Y-29299D01*
X38444Y-29294D01*
X38388Y-29278D01*
X38336Y-29251D01*
X38291Y-29214D01*
X38253Y-29169D01*
X38225Y-29118D01*
X38207Y-29062D01*
X38201Y-29004D01*
X38205Y-28946D01*
X38222Y-28890D01*
X38248Y-28838D01*
X38285Y-28792D01*
X38329Y-28754D01*
X38380Y-28726D01*
X38436Y-28707D01*
X38494Y-28701D01*
X38552Y-28705D01*
X38608Y-28721D01*
X38660Y-28747D01*
X38706Y-28783D01*
X38745Y-28828D01*
X38774Y-28878D01*
X38792Y-28934D01*
X38799Y-28992D01*
X38800Y-29000D01*
X38200Y-28700D02*
X38800Y-29300D01*
X38800Y-28700D02*
X38200Y-29300D01*
X38800Y-32000D02*
X38794Y-32058D01*
X38777Y-32114D01*
X38749Y-32166D01*
X38712Y-32211D01*
X38667Y-32248D01*
X38616Y-32276D01*
X38560Y-32293D01*
X38502Y-32299D01*
X38444Y-32294D01*
X38388Y-32278D01*
X38336Y-32251D01*
X38291Y-32214D01*
X38253Y-32169D01*
X38225Y-32118D01*
X38207Y-32062D01*
X38201Y-32004D01*
X38205Y-31946D01*
X38222Y-31890D01*
X38248Y-31838D01*
X38285Y-31792D01*
X38329Y-31754D01*
X38380Y-31726D01*
X38436Y-31707D01*
X38494Y-31701D01*
X38552Y-31705D01*
X38608Y-31721D01*
X38660Y-31747D01*
X38706Y-31783D01*
X38745Y-31828D01*
X38774Y-31878D01*
X38792Y-31934D01*
X38799Y-31992D01*
X38800Y-32000D01*
X38200Y-31700D02*
X38800Y-32300D01*
X38800Y-31700D02*
X38200Y-32300D01*
X38800Y-34500D02*
X38794Y-34558D01*
X38777Y-34614D01*
X38749Y-34666D01*
X38712Y-34711D01*
X38667Y-34748D01*
X38616Y-34776D01*
X38560Y-34793D01*
X38502Y-34799D01*
X38444Y-34794D01*
X38388Y-34778D01*
X38336Y-34751D01*
X38291Y-34714D01*
X38253Y-34669D01*
X38225Y-34618D01*
X38207Y-34562D01*
X38201Y-34504D01*
X38205Y-34446D01*
X38222Y-34390D01*
X38248Y-34338D01*
X38285Y-34292D01*
X38329Y-34254D01*
X38380Y-34226D01*
X38436Y-34207D01*
X38494Y-34201D01*
X38552Y-34205D01*
X38608Y-34221D01*
X38660Y-34247D01*
X38706Y-34283D01*
X38745Y-34328D01*
X38774Y-34378D01*
X38792Y-34434D01*
X38799Y-34492D01*
X38800Y-34500D01*
X38200Y-34200D02*
X38800Y-34800D01*
X38800Y-34200D02*
X38200Y-34800D01*
X38800Y-37500D02*
X38794Y-37558D01*
X38777Y-37614D01*
X38749Y-37666D01*
X38712Y-37711D01*
X38667Y-37748D01*
X38616Y-37776D01*
X38560Y-37793D01*
X38502Y-37799D01*
X38444Y-37794D01*
X38388Y-37778D01*
X38336Y-37751D01*
X38291Y-37714D01*
X38253Y-37669D01*
X38225Y-37618D01*
X38207Y-37562D01*
X38201Y-37504D01*
X38205Y-37446D01*
X38222Y-37390D01*
X38248Y-37338D01*
X38285Y-37292D01*
X38329Y-37254D01*
X38380Y-37226D01*
X38436Y-37207D01*
X38494Y-37201D01*
X38552Y-37205D01*
X38608Y-37221D01*
X38660Y-37247D01*
X38706Y-37283D01*
X38745Y-37328D01*
X38774Y-37378D01*
X38792Y-37434D01*
X38799Y-37492D01*
X38800Y-37500D01*
X38200Y-37200D02*
X38800Y-37800D01*
X38800Y-37200D02*
X38200Y-37800D01*
X38800Y-40000D02*
X38794Y-40058D01*
X38777Y-40114D01*
X38749Y-40166D01*
X38712Y-40211D01*
X38667Y-40248D01*
X38616Y-40276D01*
X38560Y-40293D01*
X38502Y-40299D01*
X38444Y-40294D01*
X38388Y-40278D01*
X38336Y-40251D01*
X38291Y-40214D01*
X38253Y-40169D01*
X38225Y-40118D01*
X38207Y-40062D01*
X38201Y-40004D01*
X38205Y-39946D01*
X38222Y-39890D01*
X38248Y-39838D01*
X38285Y-39792D01*
X38329Y-39754D01*
X38380Y-39726D01*
X38436Y-39707D01*
X38494Y-39701D01*
X38552Y-39705D01*
X38608Y-39721D01*
X38660Y-39747D01*
X38706Y-39783D01*
X38745Y-39828D01*
X38774Y-39878D01*
X38792Y-39934D01*
X38799Y-39992D01*
X38800Y-40000D01*
X38200Y-39700D02*
X38800Y-40300D01*
X38800Y-39700D02*
X38200Y-40300D01*
X38800Y-43000D02*
X38794Y-43058D01*
X38777Y-43114D01*
X38749Y-43166D01*
X38712Y-43211D01*
X38667Y-43248D01*
X38616Y-43276D01*
X38560Y-43293D01*
X38502Y-43299D01*
X38444Y-43294D01*
X38388Y-43278D01*
X38336Y-43251D01*
X38291Y-43214D01*
X38253Y-43169D01*
X38225Y-43118D01*
X38207Y-43062D01*
X38201Y-43004D01*
X38205Y-42946D01*
X38222Y-42890D01*
X38248Y-42838D01*
X38285Y-42792D01*
X38329Y-42754D01*
X38380Y-42726D01*
X38436Y-42707D01*
X38494Y-42701D01*
X38552Y-42705D01*
X38608Y-42721D01*
X38660Y-42747D01*
X38706Y-42783D01*
X38745Y-42828D01*
X38774Y-42878D01*
X38792Y-42934D01*
X38799Y-42992D01*
X38800Y-43000D01*
X38200Y-42700D02*
X38800Y-43300D01*
X38800Y-42700D02*
X38200Y-43300D01*
X40300Y-26500D02*
X40294Y-26558D01*
X40277Y-26614D01*
X40249Y-26666D01*
X40212Y-26711D01*
X40167Y-26748D01*
X40116Y-26776D01*
X40060Y-26793D01*
X40002Y-26799D01*
X39944Y-26794D01*
X39888Y-26778D01*
X39836Y-26751D01*
X39791Y-26714D01*
X39753Y-26669D01*
X39725Y-26618D01*
X39707Y-26562D01*
X39701Y-26504D01*
X39705Y-26446D01*
X39722Y-26390D01*
X39748Y-26338D01*
X39785Y-26292D01*
X39829Y-26254D01*
X39880Y-26226D01*
X39936Y-26207D01*
X39994Y-26201D01*
X40052Y-26205D01*
X40108Y-26221D01*
X40160Y-26247D01*
X40206Y-26283D01*
X40245Y-26328D01*
X40274Y-26378D01*
X40292Y-26434D01*
X40299Y-26492D01*
X40300Y-26500D01*
X39700Y-26200D02*
X40300Y-26800D01*
X40300Y-26200D02*
X39700Y-26800D01*
X41300Y-25500D02*
X41294Y-25558D01*
X41277Y-25614D01*
X41249Y-25666D01*
X41212Y-25711D01*
X41167Y-25748D01*
X41116Y-25776D01*
X41060Y-25793D01*
X41002Y-25799D01*
X40944Y-25794D01*
X40888Y-25778D01*
X40836Y-25751D01*
X40791Y-25714D01*
X40753Y-25669D01*
X40725Y-25618D01*
X40707Y-25562D01*
X40701Y-25504D01*
X40705Y-25446D01*
X40722Y-25390D01*
X40748Y-25338D01*
X40785Y-25292D01*
X40829Y-25254D01*
X40880Y-25226D01*
X40936Y-25207D01*
X40994Y-25201D01*
X41052Y-25205D01*
X41108Y-25221D01*
X41160Y-25247D01*
X41206Y-25283D01*
X41245Y-25328D01*
X41274Y-25378D01*
X41292Y-25434D01*
X41299Y-25492D01*
X41300Y-25500D01*
X40700Y-25200D02*
X41300Y-25800D01*
X41300Y-25200D02*
X40700Y-25800D01*
X41300Y-26500D02*
X41294Y-26558D01*
X41277Y-26614D01*
X41249Y-26666D01*
X41212Y-26711D01*
X41167Y-26748D01*
X41116Y-26776D01*
X41060Y-26793D01*
X41002Y-26799D01*
X40944Y-26794D01*
X40888Y-26778D01*
X40836Y-26751D01*
X40791Y-26714D01*
X40753Y-26669D01*
X40725Y-26618D01*
X40707Y-26562D01*
X40701Y-26504D01*
X40705Y-26446D01*
X40722Y-26390D01*
X40748Y-26338D01*
X40785Y-26292D01*
X40829Y-26254D01*
X40880Y-26226D01*
X40936Y-26207D01*
X40994Y-26201D01*
X41052Y-26205D01*
X41108Y-26221D01*
X41160Y-26247D01*
X41206Y-26283D01*
X41245Y-26328D01*
X41274Y-26378D01*
X41292Y-26434D01*
X41299Y-26492D01*
X41300Y-26500D01*
X40700Y-26200D02*
X41300Y-26800D01*
X41300Y-26200D02*
X40700Y-26800D01*
X43300Y-26500D02*
X43294Y-26558D01*
X43277Y-26614D01*
X43249Y-26666D01*
X43212Y-26711D01*
X43167Y-26748D01*
X43116Y-26776D01*
X43060Y-26793D01*
X43002Y-26799D01*
X42944Y-26794D01*
X42888Y-26778D01*
X42836Y-26751D01*
X42791Y-26714D01*
X42753Y-26669D01*
X42725Y-26618D01*
X42707Y-26562D01*
X42701Y-26504D01*
X42705Y-26446D01*
X42722Y-26390D01*
X42748Y-26338D01*
X42785Y-26292D01*
X42829Y-26254D01*
X42880Y-26226D01*
X42936Y-26207D01*
X42994Y-26201D01*
X43052Y-26205D01*
X43108Y-26221D01*
X43160Y-26247D01*
X43206Y-26283D01*
X43245Y-26328D01*
X43274Y-26378D01*
X43292Y-26434D01*
X43299Y-26492D01*
X43300Y-26500D01*
X42700Y-26200D02*
X43300Y-26800D01*
X43300Y-26200D02*
X42700Y-26800D01*
X44300Y-25500D02*
X44294Y-25558D01*
X44277Y-25614D01*
X44249Y-25666D01*
X44212Y-25711D01*
X44167Y-25748D01*
X44116Y-25776D01*
X44060Y-25793D01*
X44002Y-25799D01*
X43944Y-25794D01*
X43888Y-25778D01*
X43836Y-25751D01*
X43791Y-25714D01*
X43753Y-25669D01*
X43725Y-25618D01*
X43707Y-25562D01*
X43701Y-25504D01*
X43705Y-25446D01*
X43722Y-25390D01*
X43748Y-25338D01*
X43785Y-25292D01*
X43829Y-25254D01*
X43880Y-25226D01*
X43936Y-25207D01*
X43994Y-25201D01*
X44052Y-25205D01*
X44108Y-25221D01*
X44160Y-25247D01*
X44206Y-25283D01*
X44245Y-25328D01*
X44274Y-25378D01*
X44292Y-25434D01*
X44299Y-25492D01*
X44300Y-25500D01*
X43700Y-25200D02*
X44300Y-25800D01*
X44300Y-25200D02*
X43700Y-25800D01*
X44300Y-26500D02*
X44294Y-26558D01*
X44277Y-26614D01*
X44249Y-26666D01*
X44212Y-26711D01*
X44167Y-26748D01*
X44116Y-26776D01*
X44060Y-26793D01*
X44002Y-26799D01*
X43944Y-26794D01*
X43888Y-26778D01*
X43836Y-26751D01*
X43791Y-26714D01*
X43753Y-26669D01*
X43725Y-26618D01*
X43707Y-26562D01*
X43701Y-26504D01*
X43705Y-26446D01*
X43722Y-26390D01*
X43748Y-26338D01*
X43785Y-26292D01*
X43829Y-26254D01*
X43880Y-26226D01*
X43936Y-26207D01*
X43994Y-26201D01*
X44052Y-26205D01*
X44108Y-26221D01*
X44160Y-26247D01*
X44206Y-26283D01*
X44245Y-26328D01*
X44274Y-26378D01*
X44292Y-26434D01*
X44299Y-26492D01*
X44300Y-26500D01*
X43700Y-26200D02*
X44300Y-26800D01*
X44300Y-26200D02*
X43700Y-26800D01*
X44800Y-29000D02*
X44794Y-29058D01*
X44777Y-29114D01*
X44749Y-29166D01*
X44712Y-29211D01*
X44667Y-29248D01*
X44616Y-29276D01*
X44560Y-29293D01*
X44502Y-29299D01*
X44444Y-29294D01*
X44388Y-29278D01*
X44336Y-29251D01*
X44291Y-29214D01*
X44253Y-29169D01*
X44225Y-29118D01*
X44207Y-29062D01*
X44201Y-29004D01*
X44205Y-28946D01*
X44222Y-28890D01*
X44248Y-28838D01*
X44285Y-28792D01*
X44329Y-28754D01*
X44380Y-28726D01*
X44436Y-28707D01*
X44494Y-28701D01*
X44552Y-28705D01*
X44608Y-28721D01*
X44660Y-28747D01*
X44706Y-28783D01*
X44745Y-28828D01*
X44774Y-28878D01*
X44792Y-28934D01*
X44799Y-28992D01*
X44800Y-29000D01*
X44200Y-28700D02*
X44800Y-29300D01*
X44800Y-28700D02*
X44200Y-29300D01*
X44800Y-32000D02*
X44794Y-32058D01*
X44777Y-32114D01*
X44749Y-32166D01*
X44712Y-32211D01*
X44667Y-32248D01*
X44616Y-32276D01*
X44560Y-32293D01*
X44502Y-32299D01*
X44444Y-32294D01*
X44388Y-32278D01*
X44336Y-32251D01*
X44291Y-32214D01*
X44253Y-32169D01*
X44225Y-32118D01*
X44207Y-32062D01*
X44201Y-32004D01*
X44205Y-31946D01*
X44222Y-31890D01*
X44248Y-31838D01*
X44285Y-31792D01*
X44329Y-31754D01*
X44380Y-31726D01*
X44436Y-31707D01*
X44494Y-31701D01*
X44552Y-31705D01*
X44608Y-31721D01*
X44660Y-31747D01*
X44706Y-31783D01*
X44745Y-31828D01*
X44774Y-31878D01*
X44792Y-31934D01*
X44799Y-31992D01*
X44800Y-32000D01*
X44200Y-31700D02*
X44800Y-32300D01*
X44800Y-31700D02*
X44200Y-32300D01*
X44800Y-34500D02*
X44794Y-34558D01*
X44777Y-34614D01*
X44749Y-34666D01*
X44712Y-34711D01*
X44667Y-34748D01*
X44616Y-34776D01*
X44560Y-34793D01*
X44502Y-34799D01*
X44444Y-34794D01*
X44388Y-34778D01*
X44336Y-34751D01*
X44291Y-34714D01*
X44253Y-34669D01*
X44225Y-34618D01*
X44207Y-34562D01*
X44201Y-34504D01*
X44205Y-34446D01*
X44222Y-34390D01*
X44248Y-34338D01*
X44285Y-34292D01*
X44329Y-34254D01*
X44380Y-34226D01*
X44436Y-34207D01*
X44494Y-34201D01*
X44552Y-34205D01*
X44608Y-34221D01*
X44660Y-34247D01*
X44706Y-34283D01*
X44745Y-34328D01*
X44774Y-34378D01*
X44792Y-34434D01*
X44799Y-34492D01*
X44800Y-34500D01*
X44200Y-34200D02*
X44800Y-34800D01*
X44800Y-34200D02*
X44200Y-34800D01*
X44800Y-37500D02*
X44794Y-37558D01*
X44777Y-37614D01*
X44749Y-37666D01*
X44712Y-37711D01*
X44667Y-37748D01*
X44616Y-37776D01*
X44560Y-37793D01*
X44502Y-37799D01*
X44444Y-37794D01*
X44388Y-37778D01*
X44336Y-37751D01*
X44291Y-37714D01*
X44253Y-37669D01*
X44225Y-37618D01*
X44207Y-37562D01*
X44201Y-37504D01*
X44205Y-37446D01*
X44222Y-37390D01*
X44248Y-37338D01*
X44285Y-37292D01*
X44329Y-37254D01*
X44380Y-37226D01*
X44436Y-37207D01*
X44494Y-37201D01*
X44552Y-37205D01*
X44608Y-37221D01*
X44660Y-37247D01*
X44706Y-37283D01*
X44745Y-37328D01*
X44774Y-37378D01*
X44792Y-37434D01*
X44799Y-37492D01*
X44800Y-37500D01*
X44200Y-37200D02*
X44800Y-37800D01*
X44800Y-37200D02*
X44200Y-37800D01*
X44800Y-40000D02*
X44794Y-40058D01*
X44777Y-40114D01*
X44749Y-40166D01*
X44712Y-40211D01*
X44667Y-40248D01*
X44616Y-40276D01*
X44560Y-40293D01*
X44502Y-40299D01*
X44444Y-40294D01*
X44388Y-40278D01*
X44336Y-40251D01*
X44291Y-40214D01*
X44253Y-40169D01*
X44225Y-40118D01*
X44207Y-40062D01*
X44201Y-40004D01*
X44205Y-39946D01*
X44222Y-39890D01*
X44248Y-39838D01*
X44285Y-39792D01*
X44329Y-39754D01*
X44380Y-39726D01*
X44436Y-39707D01*
X44494Y-39701D01*
X44552Y-39705D01*
X44608Y-39721D01*
X44660Y-39747D01*
X44706Y-39783D01*
X44745Y-39828D01*
X44774Y-39878D01*
X44792Y-39934D01*
X44799Y-39992D01*
X44800Y-40000D01*
X44200Y-39700D02*
X44800Y-40300D01*
X44800Y-39700D02*
X44200Y-40300D01*
X44800Y-43000D02*
X44794Y-43058D01*
X44777Y-43114D01*
X44749Y-43166D01*
X44712Y-43211D01*
X44667Y-43248D01*
X44616Y-43276D01*
X44560Y-43293D01*
X44502Y-43299D01*
X44444Y-43294D01*
X44388Y-43278D01*
X44336Y-43251D01*
X44291Y-43214D01*
X44253Y-43169D01*
X44225Y-43118D01*
X44207Y-43062D01*
X44201Y-43004D01*
X44205Y-42946D01*
X44222Y-42890D01*
X44248Y-42838D01*
X44285Y-42792D01*
X44329Y-42754D01*
X44380Y-42726D01*
X44436Y-42707D01*
X44494Y-42701D01*
X44552Y-42705D01*
X44608Y-42721D01*
X44660Y-42747D01*
X44706Y-42783D01*
X44745Y-42828D01*
X44774Y-42878D01*
X44792Y-42934D01*
X44799Y-42992D01*
X44800Y-43000D01*
X44200Y-42700D02*
X44800Y-43300D01*
X44800Y-42700D02*
X44200Y-43300D01*
X23484Y-50000D02*
X23465Y-50191D01*
X23409Y-50374D01*
X23319Y-50544D01*
X23198Y-50693D01*
X23050Y-50815D01*
X22881Y-50907D01*
X22697Y-50963D01*
X22506Y-50983D01*
X22316Y-50966D01*
X22132Y-50912D01*
X21962Y-50823D01*
X21812Y-50703D01*
X21689Y-50555D01*
X21596Y-50387D01*
X21538Y-50204D01*
X21517Y-50013D01*
X21533Y-49823D01*
X21586Y-49638D01*
X21673Y-49467D01*
X21793Y-49317D01*
X21939Y-49192D01*
X22107Y-49099D01*
X22289Y-49039D01*
X22480Y-49017D01*
X22670Y-49031D01*
X22855Y-49083D01*
X23027Y-49170D01*
X23178Y-49288D01*
X23304Y-49433D01*
X23398Y-49600D01*
X23459Y-49782D01*
X23483Y-49973D01*
X23484Y-50000D01*
X21516Y-50000D02*
X23484Y-50000D01*
X50984Y-22500D02*
X50965Y-22691D01*
X50909Y-22874D01*
X50819Y-23044D01*
X50698Y-23193D01*
X50550Y-23315D01*
X50381Y-23407D01*
X50197Y-23463D01*
X50006Y-23483D01*
X49816Y-23466D01*
X49632Y-23412D01*
X49462Y-23323D01*
X49312Y-23203D01*
X49189Y-23055D01*
X49096Y-22887D01*
X49038Y-22704D01*
X49017Y-22513D01*
X49033Y-22323D01*
X49086Y-22138D01*
X49173Y-21967D01*
X49293Y-21817D01*
X49439Y-21692D01*
X49607Y-21599D01*
X49789Y-21539D01*
X49980Y-21517D01*
X50170Y-21531D01*
X50355Y-21583D01*
X50527Y-21670D01*
X50678Y-21788D01*
X50804Y-21933D01*
X50898Y-22100D01*
X50959Y-22282D01*
X50983Y-22473D01*
X50984Y-22500D01*
X49016Y-22500D02*
X50984Y-22500D01*
X50984Y-50000D02*
X50965Y-50191D01*
X50909Y-50374D01*
X50819Y-50544D01*
X50698Y-50693D01*
X50550Y-50815D01*
X50381Y-50907D01*
X50197Y-50963D01*
X50006Y-50983D01*
X49816Y-50966D01*
X49632Y-50912D01*
X49462Y-50823D01*
X49312Y-50703D01*
X49189Y-50555D01*
X49096Y-50387D01*
X49038Y-50204D01*
X49017Y-50013D01*
X49033Y-49823D01*
X49086Y-49638D01*
X49173Y-49467D01*
X49293Y-49317D01*
X49439Y-49192D01*
X49607Y-49099D01*
X49789Y-49039D01*
X49980Y-49017D01*
X50170Y-49031D01*
X50355Y-49083D01*
X50527Y-49170D01*
X50678Y-49288D01*
X50804Y-49433D01*
X50898Y-49600D01*
X50959Y-49782D01*
X50983Y-49973D01*
X50984Y-50000D01*
X49016Y-50000D02*
X50984Y-50000D01*
G54D12*
X18992Y-67984D02*
X18992Y-67184D01*
X19183Y-67184D01*
X19297Y-67222D01*
X19373Y-67298D01*
X19412Y-67374D01*
X19450Y-67527D01*
X19450Y-67641D01*
X19412Y-67793D01*
X19373Y-67870D01*
X19297Y-67946D01*
X19183Y-67984D01*
X18992Y-67984D01*
X19792Y-67984D02*
X19792Y-67450D01*
X19792Y-67603D02*
X19831Y-67527D01*
X19869Y-67489D01*
X19945Y-67450D01*
X20021Y-67450D01*
X20287Y-67984D02*
X20287Y-67450D01*
X20287Y-67184D02*
X20249Y-67222D01*
X20287Y-67260D01*
X20326Y-67222D01*
X20287Y-67184D01*
X20287Y-67260D01*
X20783Y-67984D02*
X20707Y-67946D01*
X20668Y-67870D01*
X20668Y-67184D01*
X21202Y-67984D02*
X21126Y-67946D01*
X21087Y-67870D01*
X21087Y-67184D01*
X22116Y-67984D02*
X22116Y-67184D01*
X22383Y-67755D01*
X22650Y-67184D01*
X22650Y-67984D01*
X23373Y-67984D02*
X23373Y-67565D01*
X23335Y-67489D01*
X23259Y-67450D01*
X23107Y-67450D01*
X23030Y-67489D01*
X23373Y-67946D02*
X23297Y-67984D01*
X23107Y-67984D01*
X23030Y-67946D01*
X22992Y-67870D01*
X22992Y-67793D01*
X23030Y-67717D01*
X23107Y-67679D01*
X23297Y-67679D01*
X23373Y-67641D01*
X23754Y-67450D02*
X23754Y-68250D01*
X23754Y-67489D02*
X23831Y-67450D01*
X23983Y-67450D01*
X24059Y-67489D01*
X24097Y-67527D01*
X24135Y-67603D01*
X24135Y-67831D01*
X24097Y-67908D01*
X24059Y-67946D01*
X23983Y-67984D01*
X23831Y-67984D01*
X23754Y-67946D01*
X24478Y-67908D02*
X24517Y-67946D01*
X24478Y-67984D01*
X24440Y-67946D01*
X24478Y-67908D01*
X24478Y-67984D01*
X24478Y-67489D02*
X24517Y-67527D01*
X24478Y-67565D01*
X24440Y-67527D01*
X24478Y-67489D01*
X24478Y-67565D01*
X18352Y-69215D02*
X18602Y-69465D01*
X18602Y-69215D02*
X18352Y-69465D01*
X19145Y-68864D02*
X19221Y-68864D01*
X19297Y-68902D01*
X19335Y-68940D01*
X19373Y-69016D01*
X19412Y-69169D01*
X19412Y-69359D01*
X19373Y-69511D01*
X19335Y-69588D01*
X19297Y-69626D01*
X19221Y-69664D01*
X19145Y-69664D01*
X19069Y-69626D01*
X19031Y-69588D01*
X18992Y-69511D01*
X18954Y-69359D01*
X18954Y-69169D01*
X18992Y-69016D01*
X19031Y-68940D01*
X19069Y-68902D01*
X19145Y-68864D01*
X19754Y-69588D02*
X19793Y-69626D01*
X19754Y-69664D01*
X19716Y-69626D01*
X19754Y-69588D01*
X19754Y-69664D01*
X20478Y-68864D02*
X20326Y-68864D01*
X20250Y-68902D01*
X20212Y-68940D01*
X20135Y-69054D01*
X20097Y-69207D01*
X20097Y-69511D01*
X20135Y-69588D01*
X20174Y-69626D01*
X20250Y-69664D01*
X20402Y-69664D01*
X20478Y-69626D01*
X20516Y-69588D01*
X20555Y-69511D01*
X20555Y-69321D01*
X20516Y-69245D01*
X20478Y-69207D01*
X20402Y-69169D01*
X20250Y-69169D01*
X20174Y-69207D01*
X20135Y-69245D01*
X20097Y-69321D01*
X21240Y-69130D02*
X21240Y-69664D01*
X21050Y-68826D02*
X20859Y-69397D01*
X21355Y-69397D01*
X21659Y-69664D02*
X21659Y-69130D01*
X21659Y-69207D02*
X21698Y-69169D01*
X21774Y-69130D01*
X21888Y-69130D01*
X21964Y-69169D01*
X22002Y-69245D01*
X22002Y-69664D01*
X22002Y-69245D02*
X22040Y-69169D01*
X22117Y-69130D01*
X22231Y-69130D01*
X22307Y-69169D01*
X22345Y-69245D01*
X22345Y-69664D01*
X22726Y-69664D02*
X22726Y-69130D01*
X22726Y-69207D02*
X22765Y-69169D01*
X22841Y-69130D01*
X22955Y-69130D01*
X23031Y-69169D01*
X23069Y-69245D01*
X23069Y-69664D01*
X23069Y-69245D02*
X23107Y-69169D01*
X23184Y-69130D01*
X23298Y-69130D01*
X23374Y-69169D01*
X23412Y-69245D01*
X23412Y-69664D01*
X24975Y-68826D02*
X24289Y-69854D01*
X26004Y-68864D02*
X26080Y-68864D01*
X26156Y-68902D01*
X26194Y-68940D01*
X26232Y-69016D01*
X26271Y-69169D01*
X26271Y-69359D01*
X26232Y-69511D01*
X26194Y-69588D01*
X26156Y-69626D01*
X26080Y-69664D01*
X26004Y-69664D01*
X25928Y-69626D01*
X25890Y-69588D01*
X25851Y-69511D01*
X25813Y-69359D01*
X25813Y-69169D01*
X25851Y-69016D01*
X25890Y-68940D01*
X25928Y-68902D01*
X26004Y-68864D01*
X26613Y-69588D02*
X26652Y-69626D01*
X26613Y-69664D01*
X26575Y-69626D01*
X26613Y-69588D01*
X26613Y-69664D01*
X27147Y-68864D02*
X27223Y-68864D01*
X27299Y-68902D01*
X27337Y-68940D01*
X27375Y-69016D01*
X27414Y-69169D01*
X27414Y-69359D01*
X27375Y-69511D01*
X27337Y-69588D01*
X27299Y-69626D01*
X27223Y-69664D01*
X27147Y-69664D01*
X27071Y-69626D01*
X27033Y-69588D01*
X26994Y-69511D01*
X26956Y-69359D01*
X26956Y-69169D01*
X26994Y-69016D01*
X27033Y-68940D01*
X27071Y-68902D01*
X27147Y-68864D01*
X27718Y-68940D02*
X27756Y-68902D01*
X27833Y-68864D01*
X28023Y-68864D01*
X28099Y-68902D01*
X28137Y-68940D01*
X28176Y-69016D01*
X28176Y-69092D01*
X28137Y-69207D01*
X27680Y-69664D01*
X28176Y-69664D01*
X28899Y-68864D02*
X28518Y-68864D01*
X28480Y-69245D01*
X28518Y-69207D01*
X28595Y-69169D01*
X28785Y-69169D01*
X28861Y-69207D01*
X28899Y-69245D01*
X28938Y-69321D01*
X28938Y-69511D01*
X28899Y-69588D01*
X28861Y-69626D01*
X28785Y-69664D01*
X28595Y-69664D01*
X28518Y-69626D01*
X28480Y-69588D01*
X29242Y-68864D02*
X29242Y-69016D01*
X29547Y-68864D02*
X29547Y-69016D01*
X30729Y-69969D02*
X30691Y-69930D01*
X30615Y-69816D01*
X30577Y-69740D01*
X30539Y-69626D01*
X30500Y-69435D01*
X30500Y-69283D01*
X30539Y-69092D01*
X30577Y-68978D01*
X30615Y-68902D01*
X30691Y-68788D01*
X30729Y-68750D01*
X30995Y-68940D02*
X31033Y-68902D01*
X31110Y-68864D01*
X31300Y-68864D01*
X31376Y-68902D01*
X31414Y-68940D01*
X31453Y-69016D01*
X31453Y-69092D01*
X31414Y-69207D01*
X30957Y-69664D01*
X31453Y-69664D01*
X31719Y-68864D02*
X32215Y-68864D01*
X31948Y-69169D01*
X32062Y-69169D01*
X32138Y-69207D01*
X32176Y-69245D01*
X32215Y-69321D01*
X32215Y-69511D01*
X32176Y-69588D01*
X32138Y-69626D01*
X32062Y-69664D01*
X31834Y-69664D01*
X31757Y-69626D01*
X31719Y-69588D01*
X33167Y-69664D02*
X33167Y-68864D01*
X33510Y-69664D02*
X33510Y-69245D01*
X33472Y-69169D01*
X33396Y-69130D01*
X33282Y-69130D01*
X33206Y-69169D01*
X33167Y-69207D01*
X34006Y-69664D02*
X33930Y-69626D01*
X33891Y-69588D01*
X33853Y-69511D01*
X33853Y-69283D01*
X33891Y-69207D01*
X33930Y-69169D01*
X34006Y-69130D01*
X34120Y-69130D01*
X34196Y-69169D01*
X34234Y-69207D01*
X34272Y-69283D01*
X34272Y-69511D01*
X34234Y-69588D01*
X34196Y-69626D01*
X34120Y-69664D01*
X34006Y-69664D01*
X34730Y-69664D02*
X34654Y-69626D01*
X34615Y-69550D01*
X34615Y-68864D01*
X35339Y-69626D02*
X35263Y-69664D01*
X35111Y-69664D01*
X35034Y-69626D01*
X34996Y-69550D01*
X34996Y-69245D01*
X35034Y-69169D01*
X35111Y-69130D01*
X35263Y-69130D01*
X35339Y-69169D01*
X35377Y-69245D01*
X35377Y-69321D01*
X34996Y-69397D01*
X35682Y-69626D02*
X35759Y-69664D01*
X35911Y-69664D01*
X35987Y-69626D01*
X36025Y-69550D01*
X36025Y-69511D01*
X35987Y-69435D01*
X35911Y-69397D01*
X35797Y-69397D01*
X35720Y-69359D01*
X35682Y-69283D01*
X35682Y-69245D01*
X35720Y-69169D01*
X35797Y-69130D01*
X35911Y-69130D01*
X35987Y-69169D01*
X36292Y-69969D02*
X36330Y-69930D01*
X36407Y-69816D01*
X36445Y-69740D01*
X36483Y-69626D01*
X36521Y-69435D01*
X36521Y-69283D01*
X36483Y-69092D01*
X36445Y-68978D01*
X36407Y-68902D01*
X36330Y-68788D01*
X36292Y-68750D01*
G54D10*
X18602Y-70395D02*
X18598Y-70426D01*
X18589Y-70455D01*
X18575Y-70483D01*
X18555Y-70507D01*
X18531Y-70527D01*
X18504Y-70542D01*
X18474Y-70551D01*
X18443Y-70554D01*
X18413Y-70552D01*
X18383Y-70543D01*
X18355Y-70528D01*
X18331Y-70509D01*
X18310Y-70485D01*
X18295Y-70458D01*
X18286Y-70428D01*
X18283Y-70397D01*
X18285Y-70367D01*
X18294Y-70337D01*
X18308Y-70309D01*
X18327Y-70284D01*
X18351Y-70264D01*
X18378Y-70249D01*
X18408Y-70239D01*
X18439Y-70236D01*
X18469Y-70238D01*
X18499Y-70246D01*
X18527Y-70260D01*
X18552Y-70280D01*
X18572Y-70303D01*
X18588Y-70330D01*
X18598Y-70360D01*
X18601Y-70391D01*
X18602Y-70395D01*
G54D12*
X19145Y-69919D02*
X19221Y-69919D01*
X19297Y-69957D01*
X19335Y-69995D01*
X19373Y-70071D01*
X19412Y-70224D01*
X19412Y-70414D01*
X19373Y-70566D01*
X19335Y-70643D01*
X19297Y-70681D01*
X19221Y-70719D01*
X19145Y-70719D01*
X19069Y-70681D01*
X19031Y-70643D01*
X18992Y-70566D01*
X18954Y-70414D01*
X18954Y-70224D01*
X18992Y-70071D01*
X19031Y-69995D01*
X19069Y-69957D01*
X19145Y-69919D01*
X19754Y-70643D02*
X19793Y-70681D01*
X19754Y-70719D01*
X19716Y-70681D01*
X19754Y-70643D01*
X19754Y-70719D01*
X20250Y-70262D02*
X20174Y-70224D01*
X20135Y-70185D01*
X20097Y-70109D01*
X20097Y-70071D01*
X20135Y-69995D01*
X20174Y-69957D01*
X20250Y-69919D01*
X20402Y-69919D01*
X20478Y-69957D01*
X20516Y-69995D01*
X20555Y-70071D01*
X20555Y-70109D01*
X20516Y-70185D01*
X20478Y-70224D01*
X20402Y-70262D01*
X20250Y-70262D01*
X20174Y-70300D01*
X20135Y-70338D01*
X20097Y-70414D01*
X20097Y-70566D01*
X20135Y-70643D01*
X20174Y-70681D01*
X20250Y-70719D01*
X20402Y-70719D01*
X20478Y-70681D01*
X20516Y-70643D01*
X20555Y-70566D01*
X20555Y-70414D01*
X20516Y-70338D01*
X20478Y-70300D01*
X20402Y-70262D01*
X21317Y-70719D02*
X20859Y-70719D01*
X21088Y-70719D02*
X21088Y-69919D01*
X21012Y-70033D01*
X20936Y-70109D01*
X20859Y-70147D01*
X21659Y-70719D02*
X21659Y-70185D01*
X21659Y-70262D02*
X21698Y-70224D01*
X21774Y-70185D01*
X21888Y-70185D01*
X21964Y-70224D01*
X22002Y-70300D01*
X22002Y-70719D01*
X22002Y-70300D02*
X22040Y-70224D01*
X22117Y-70185D01*
X22231Y-70185D01*
X22307Y-70224D01*
X22345Y-70300D01*
X22345Y-70719D01*
X22726Y-70719D02*
X22726Y-70185D01*
X22726Y-70262D02*
X22765Y-70224D01*
X22841Y-70185D01*
X22955Y-70185D01*
X23031Y-70224D01*
X23069Y-70300D01*
X23069Y-70719D01*
X23069Y-70300D02*
X23107Y-70224D01*
X23184Y-70185D01*
X23298Y-70185D01*
X23374Y-70224D01*
X23412Y-70300D01*
X23412Y-70719D01*
X24975Y-69881D02*
X24289Y-70909D01*
X26004Y-69919D02*
X26080Y-69919D01*
X26156Y-69957D01*
X26194Y-69995D01*
X26232Y-70071D01*
X26271Y-70224D01*
X26271Y-70414D01*
X26232Y-70566D01*
X26194Y-70643D01*
X26156Y-70681D01*
X26080Y-70719D01*
X26004Y-70719D01*
X25928Y-70681D01*
X25890Y-70643D01*
X25851Y-70566D01*
X25813Y-70414D01*
X25813Y-70224D01*
X25851Y-70071D01*
X25890Y-69995D01*
X25928Y-69957D01*
X26004Y-69919D01*
X26613Y-70643D02*
X26652Y-70681D01*
X26613Y-70719D01*
X26575Y-70681D01*
X26613Y-70643D01*
X26613Y-70719D01*
X27147Y-69919D02*
X27223Y-69919D01*
X27299Y-69957D01*
X27337Y-69995D01*
X27375Y-70071D01*
X27414Y-70224D01*
X27414Y-70414D01*
X27375Y-70566D01*
X27337Y-70643D01*
X27299Y-70681D01*
X27223Y-70719D01*
X27147Y-70719D01*
X27071Y-70681D01*
X27033Y-70643D01*
X26994Y-70566D01*
X26956Y-70414D01*
X26956Y-70224D01*
X26994Y-70071D01*
X27033Y-69995D01*
X27071Y-69957D01*
X27147Y-69919D01*
X27680Y-69919D02*
X28176Y-69919D01*
X27909Y-70224D01*
X28023Y-70224D01*
X28099Y-70262D01*
X28137Y-70300D01*
X28176Y-70376D01*
X28176Y-70566D01*
X28137Y-70643D01*
X28099Y-70681D01*
X28023Y-70719D01*
X27795Y-70719D01*
X27718Y-70681D01*
X27680Y-70643D01*
X28480Y-69995D02*
X28518Y-69957D01*
X28595Y-69919D01*
X28785Y-69919D01*
X28861Y-69957D01*
X28899Y-69995D01*
X28938Y-70071D01*
X28938Y-70147D01*
X28899Y-70262D01*
X28442Y-70719D01*
X28938Y-70719D01*
X29242Y-69919D02*
X29242Y-70071D01*
X29547Y-69919D02*
X29547Y-70071D01*
X30729Y-71024D02*
X30691Y-70985D01*
X30615Y-70871D01*
X30577Y-70795D01*
X30539Y-70681D01*
X30500Y-70490D01*
X30500Y-70338D01*
X30539Y-70147D01*
X30577Y-70033D01*
X30615Y-69957D01*
X30691Y-69843D01*
X30729Y-69805D01*
X31376Y-70185D02*
X31376Y-70719D01*
X31186Y-69881D02*
X30995Y-70452D01*
X31491Y-70452D01*
X31948Y-69919D02*
X32024Y-69919D01*
X32100Y-69957D01*
X32138Y-69995D01*
X32176Y-70071D01*
X32215Y-70224D01*
X32215Y-70414D01*
X32176Y-70566D01*
X32138Y-70643D01*
X32100Y-70681D01*
X32024Y-70719D01*
X31948Y-70719D01*
X31872Y-70681D01*
X31834Y-70643D01*
X31795Y-70566D01*
X31757Y-70414D01*
X31757Y-70224D01*
X31795Y-70071D01*
X31834Y-69995D01*
X31872Y-69957D01*
X31948Y-69919D01*
X33167Y-70719D02*
X33167Y-69919D01*
X33510Y-70719D02*
X33510Y-70300D01*
X33472Y-70224D01*
X33396Y-70185D01*
X33282Y-70185D01*
X33206Y-70224D01*
X33167Y-70262D01*
X34006Y-70719D02*
X33930Y-70681D01*
X33891Y-70643D01*
X33853Y-70566D01*
X33853Y-70338D01*
X33891Y-70262D01*
X33930Y-70224D01*
X34006Y-70185D01*
X34120Y-70185D01*
X34196Y-70224D01*
X34234Y-70262D01*
X34272Y-70338D01*
X34272Y-70566D01*
X34234Y-70643D01*
X34196Y-70681D01*
X34120Y-70719D01*
X34006Y-70719D01*
X34730Y-70719D02*
X34654Y-70681D01*
X34615Y-70605D01*
X34615Y-69919D01*
X35339Y-70681D02*
X35263Y-70719D01*
X35111Y-70719D01*
X35034Y-70681D01*
X34996Y-70605D01*
X34996Y-70300D01*
X35034Y-70224D01*
X35111Y-70185D01*
X35263Y-70185D01*
X35339Y-70224D01*
X35377Y-70300D01*
X35377Y-70376D01*
X34996Y-70452D01*
X35682Y-70681D02*
X35759Y-70719D01*
X35911Y-70719D01*
X35987Y-70681D01*
X36025Y-70605D01*
X36025Y-70566D01*
X35987Y-70490D01*
X35911Y-70452D01*
X35797Y-70452D01*
X35720Y-70414D01*
X35682Y-70338D01*
X35682Y-70300D01*
X35720Y-70224D01*
X35797Y-70185D01*
X35911Y-70185D01*
X35987Y-70224D01*
X36292Y-71024D02*
X36330Y-70985D01*
X36407Y-70871D01*
X36445Y-70795D01*
X36483Y-70681D01*
X36521Y-70490D01*
X36521Y-70338D01*
X36483Y-70147D01*
X36445Y-70033D01*
X36407Y-69957D01*
X36330Y-69843D01*
X36292Y-69805D01*
X18402Y-71250D02*
X18402Y-71650D01*
X18602Y-71450D02*
X18202Y-71450D01*
X19412Y-71774D02*
X18954Y-71774D01*
X19183Y-71774D02*
X19183Y-70974D01*
X19107Y-71088D01*
X19031Y-71164D01*
X18954Y-71202D01*
X19754Y-71698D02*
X19793Y-71736D01*
X19754Y-71774D01*
X19716Y-71736D01*
X19754Y-71698D01*
X19754Y-71774D01*
X20288Y-70974D02*
X20364Y-70974D01*
X20440Y-71012D01*
X20478Y-71050D01*
X20516Y-71126D01*
X20555Y-71279D01*
X20555Y-71469D01*
X20516Y-71621D01*
X20478Y-71698D01*
X20440Y-71736D01*
X20364Y-71774D01*
X20288Y-71774D01*
X20212Y-71736D01*
X20174Y-71698D01*
X20135Y-71621D01*
X20097Y-71469D01*
X20097Y-71279D01*
X20135Y-71126D01*
X20174Y-71050D01*
X20212Y-71012D01*
X20288Y-70974D01*
X20859Y-71050D02*
X20897Y-71012D01*
X20974Y-70974D01*
X21164Y-70974D01*
X21240Y-71012D01*
X21278Y-71050D01*
X21317Y-71126D01*
X21317Y-71202D01*
X21278Y-71317D01*
X20821Y-71774D01*
X21317Y-71774D01*
X21659Y-71774D02*
X21659Y-71240D01*
X21659Y-71317D02*
X21698Y-71279D01*
X21774Y-71240D01*
X21888Y-71240D01*
X21964Y-71279D01*
X22002Y-71355D01*
X22002Y-71774D01*
X22002Y-71355D02*
X22040Y-71279D01*
X22117Y-71240D01*
X22231Y-71240D01*
X22307Y-71279D01*
X22345Y-71355D01*
X22345Y-71774D01*
X22726Y-71774D02*
X22726Y-71240D01*
X22726Y-71317D02*
X22765Y-71279D01*
X22841Y-71240D01*
X22955Y-71240D01*
X23031Y-71279D01*
X23069Y-71355D01*
X23069Y-71774D01*
X23069Y-71355D02*
X23107Y-71279D01*
X23184Y-71240D01*
X23298Y-71240D01*
X23374Y-71279D01*
X23412Y-71355D01*
X23412Y-71774D01*
X24975Y-70936D02*
X24289Y-71964D01*
X26004Y-70974D02*
X26080Y-70974D01*
X26156Y-71012D01*
X26194Y-71050D01*
X26232Y-71126D01*
X26271Y-71279D01*
X26271Y-71469D01*
X26232Y-71621D01*
X26194Y-71698D01*
X26156Y-71736D01*
X26080Y-71774D01*
X26004Y-71774D01*
X25928Y-71736D01*
X25890Y-71698D01*
X25851Y-71621D01*
X25813Y-71469D01*
X25813Y-71279D01*
X25851Y-71126D01*
X25890Y-71050D01*
X25928Y-71012D01*
X26004Y-70974D01*
X26613Y-71698D02*
X26652Y-71736D01*
X26613Y-71774D01*
X26575Y-71736D01*
X26613Y-71698D01*
X26613Y-71774D01*
X27147Y-70974D02*
X27223Y-70974D01*
X27299Y-71012D01*
X27337Y-71050D01*
X27375Y-71126D01*
X27414Y-71279D01*
X27414Y-71469D01*
X27375Y-71621D01*
X27337Y-71698D01*
X27299Y-71736D01*
X27223Y-71774D01*
X27147Y-71774D01*
X27071Y-71736D01*
X27033Y-71698D01*
X26994Y-71621D01*
X26956Y-71469D01*
X26956Y-71279D01*
X26994Y-71126D01*
X27033Y-71050D01*
X27071Y-71012D01*
X27147Y-70974D01*
X28099Y-71240D02*
X28099Y-71774D01*
X27909Y-70936D02*
X27718Y-71507D01*
X28214Y-71507D01*
X28671Y-70974D02*
X28747Y-70974D01*
X28823Y-71012D01*
X28861Y-71050D01*
X28899Y-71126D01*
X28938Y-71279D01*
X28938Y-71469D01*
X28899Y-71621D01*
X28861Y-71698D01*
X28823Y-71736D01*
X28747Y-71774D01*
X28671Y-71774D01*
X28595Y-71736D01*
X28557Y-71698D01*
X28518Y-71621D01*
X28480Y-71469D01*
X28480Y-71279D01*
X28518Y-71126D01*
X28557Y-71050D01*
X28595Y-71012D01*
X28671Y-70974D01*
X29242Y-70974D02*
X29242Y-71126D01*
X29547Y-70974D02*
X29547Y-71126D01*
X30729Y-72079D02*
X30691Y-72040D01*
X30615Y-71926D01*
X30577Y-71850D01*
X30539Y-71736D01*
X30500Y-71545D01*
X30500Y-71393D01*
X30539Y-71202D01*
X30577Y-71088D01*
X30615Y-71012D01*
X30691Y-70898D01*
X30729Y-70860D01*
X31376Y-70974D02*
X31224Y-70974D01*
X31148Y-71012D01*
X31110Y-71050D01*
X31033Y-71164D01*
X30995Y-71317D01*
X30995Y-71621D01*
X31033Y-71698D01*
X31072Y-71736D01*
X31148Y-71774D01*
X31300Y-71774D01*
X31376Y-71736D01*
X31414Y-71698D01*
X31453Y-71621D01*
X31453Y-71431D01*
X31414Y-71355D01*
X31376Y-71317D01*
X31300Y-71279D01*
X31148Y-71279D01*
X31072Y-71317D01*
X31033Y-71355D01*
X30995Y-71431D01*
X31948Y-70974D02*
X32024Y-70974D01*
X32100Y-71012D01*
X32138Y-71050D01*
X32176Y-71126D01*
X32215Y-71279D01*
X32215Y-71469D01*
X32176Y-71621D01*
X32138Y-71698D01*
X32100Y-71736D01*
X32024Y-71774D01*
X31948Y-71774D01*
X31872Y-71736D01*
X31834Y-71698D01*
X31795Y-71621D01*
X31757Y-71469D01*
X31757Y-71279D01*
X31795Y-71126D01*
X31834Y-71050D01*
X31872Y-71012D01*
X31948Y-70974D01*
X33167Y-71774D02*
X33167Y-70974D01*
X33510Y-71774D02*
X33510Y-71355D01*
X33472Y-71279D01*
X33396Y-71240D01*
X33282Y-71240D01*
X33206Y-71279D01*
X33167Y-71317D01*
X34006Y-71774D02*
X33930Y-71736D01*
X33891Y-71698D01*
X33853Y-71621D01*
X33853Y-71393D01*
X33891Y-71317D01*
X33930Y-71279D01*
X34006Y-71240D01*
X34120Y-71240D01*
X34196Y-71279D01*
X34234Y-71317D01*
X34272Y-71393D01*
X34272Y-71621D01*
X34234Y-71698D01*
X34196Y-71736D01*
X34120Y-71774D01*
X34006Y-71774D01*
X34730Y-71774D02*
X34654Y-71736D01*
X34615Y-71660D01*
X34615Y-70974D01*
X35339Y-71736D02*
X35263Y-71774D01*
X35111Y-71774D01*
X35034Y-71736D01*
X34996Y-71660D01*
X34996Y-71355D01*
X35034Y-71279D01*
X35111Y-71240D01*
X35263Y-71240D01*
X35339Y-71279D01*
X35377Y-71355D01*
X35377Y-71431D01*
X34996Y-71507D01*
X35682Y-71736D02*
X35759Y-71774D01*
X35911Y-71774D01*
X35987Y-71736D01*
X36025Y-71660D01*
X36025Y-71621D01*
X35987Y-71545D01*
X35911Y-71507D01*
X35797Y-71507D01*
X35720Y-71469D01*
X35682Y-71393D01*
X35682Y-71355D01*
X35720Y-71279D01*
X35797Y-71240D01*
X35911Y-71240D01*
X35987Y-71279D01*
X36292Y-72079D02*
X36330Y-72040D01*
X36407Y-71926D01*
X36445Y-71850D01*
X36483Y-71736D01*
X36521Y-71545D01*
X36521Y-71393D01*
X36483Y-71202D01*
X36445Y-71088D01*
X36407Y-71012D01*
X36330Y-70898D01*
X36292Y-70860D01*
G54D10*
X18602Y-72505D02*
X18596Y-72563D01*
X18579Y-72619D01*
X18551Y-72671D01*
X18514Y-72716D01*
X18469Y-72753D01*
X18418Y-72781D01*
X18362Y-72798D01*
X18304Y-72804D01*
X18246Y-72799D01*
X18190Y-72783D01*
X18138Y-72756D01*
X18093Y-72719D01*
X18055Y-72674D01*
X18027Y-72623D01*
X18009Y-72567D01*
X18003Y-72509D01*
X18007Y-72451D01*
X18024Y-72395D01*
X18050Y-72343D01*
X18087Y-72297D01*
X18131Y-72259D01*
X18182Y-72231D01*
X18238Y-72212D01*
X18296Y-72206D01*
X18354Y-72210D01*
X18410Y-72226D01*
X18462Y-72252D01*
X18508Y-72288D01*
X18547Y-72333D01*
X18576Y-72383D01*
X18594Y-72439D01*
X18601Y-72497D01*
X18602Y-72505D01*
X18002Y-72205D02*
X18602Y-72805D01*
X18602Y-72205D02*
X18002Y-72805D01*
G54D12*
X19412Y-72829D02*
X18954Y-72829D01*
X19183Y-72829D02*
X19183Y-72029D01*
X19107Y-72143D01*
X19031Y-72219D01*
X18954Y-72257D01*
X19754Y-72753D02*
X19793Y-72791D01*
X19754Y-72829D01*
X19716Y-72791D01*
X19754Y-72753D01*
X19754Y-72829D01*
X20516Y-72029D02*
X20135Y-72029D01*
X20097Y-72410D01*
X20135Y-72372D01*
X20212Y-72334D01*
X20402Y-72334D01*
X20478Y-72372D01*
X20516Y-72410D01*
X20555Y-72486D01*
X20555Y-72676D01*
X20516Y-72753D01*
X20478Y-72791D01*
X20402Y-72829D01*
X20212Y-72829D01*
X20135Y-72791D01*
X20097Y-72753D01*
X20859Y-72105D02*
X20897Y-72067D01*
X20974Y-72029D01*
X21164Y-72029D01*
X21240Y-72067D01*
X21278Y-72105D01*
X21317Y-72181D01*
X21317Y-72257D01*
X21278Y-72372D01*
X20821Y-72829D01*
X21317Y-72829D01*
X21659Y-72829D02*
X21659Y-72295D01*
X21659Y-72372D02*
X21698Y-72334D01*
X21774Y-72295D01*
X21888Y-72295D01*
X21964Y-72334D01*
X22002Y-72410D01*
X22002Y-72829D01*
X22002Y-72410D02*
X22040Y-72334D01*
X22117Y-72295D01*
X22231Y-72295D01*
X22307Y-72334D01*
X22345Y-72410D01*
X22345Y-72829D01*
X22726Y-72829D02*
X22726Y-72295D01*
X22726Y-72372D02*
X22765Y-72334D01*
X22841Y-72295D01*
X22955Y-72295D01*
X23031Y-72334D01*
X23069Y-72410D01*
X23069Y-72829D01*
X23069Y-72410D02*
X23107Y-72334D01*
X23184Y-72295D01*
X23298Y-72295D01*
X23374Y-72334D01*
X23412Y-72410D01*
X23412Y-72829D01*
X24975Y-71991D02*
X24289Y-73019D01*
X26004Y-72029D02*
X26080Y-72029D01*
X26156Y-72067D01*
X26194Y-72105D01*
X26232Y-72181D01*
X26271Y-72334D01*
X26271Y-72524D01*
X26232Y-72676D01*
X26194Y-72753D01*
X26156Y-72791D01*
X26080Y-72829D01*
X26004Y-72829D01*
X25928Y-72791D01*
X25890Y-72753D01*
X25851Y-72676D01*
X25813Y-72524D01*
X25813Y-72334D01*
X25851Y-72181D01*
X25890Y-72105D01*
X25928Y-72067D01*
X26004Y-72029D01*
X26613Y-72753D02*
X26652Y-72791D01*
X26613Y-72829D01*
X26575Y-72791D01*
X26613Y-72753D01*
X26613Y-72829D01*
X27147Y-72029D02*
X27223Y-72029D01*
X27299Y-72067D01*
X27337Y-72105D01*
X27375Y-72181D01*
X27414Y-72334D01*
X27414Y-72524D01*
X27375Y-72676D01*
X27337Y-72753D01*
X27299Y-72791D01*
X27223Y-72829D01*
X27147Y-72829D01*
X27071Y-72791D01*
X27033Y-72753D01*
X26994Y-72676D01*
X26956Y-72524D01*
X26956Y-72334D01*
X26994Y-72181D01*
X27033Y-72105D01*
X27071Y-72067D01*
X27147Y-72029D01*
X28099Y-72029D02*
X27947Y-72029D01*
X27871Y-72067D01*
X27833Y-72105D01*
X27756Y-72219D01*
X27718Y-72372D01*
X27718Y-72676D01*
X27756Y-72753D01*
X27795Y-72791D01*
X27871Y-72829D01*
X28023Y-72829D01*
X28099Y-72791D01*
X28137Y-72753D01*
X28176Y-72676D01*
X28176Y-72486D01*
X28137Y-72410D01*
X28099Y-72372D01*
X28023Y-72334D01*
X27871Y-72334D01*
X27795Y-72372D01*
X27756Y-72410D01*
X27718Y-72486D01*
X28671Y-72029D02*
X28747Y-72029D01*
X28823Y-72067D01*
X28861Y-72105D01*
X28899Y-72181D01*
X28938Y-72334D01*
X28938Y-72524D01*
X28899Y-72676D01*
X28861Y-72753D01*
X28823Y-72791D01*
X28747Y-72829D01*
X28671Y-72829D01*
X28595Y-72791D01*
X28557Y-72753D01*
X28518Y-72676D01*
X28480Y-72524D01*
X28480Y-72334D01*
X28518Y-72181D01*
X28557Y-72105D01*
X28595Y-72067D01*
X28671Y-72029D01*
X29242Y-72029D02*
X29242Y-72181D01*
X29547Y-72029D02*
X29547Y-72181D01*
X30729Y-73134D02*
X30691Y-73095D01*
X30615Y-72981D01*
X30577Y-72905D01*
X30539Y-72791D01*
X30500Y-72600D01*
X30500Y-72448D01*
X30539Y-72257D01*
X30577Y-72143D01*
X30615Y-72067D01*
X30691Y-71953D01*
X30729Y-71915D01*
X31376Y-72029D02*
X31224Y-72029D01*
X31148Y-72067D01*
X31110Y-72105D01*
X31033Y-72219D01*
X30995Y-72372D01*
X30995Y-72676D01*
X31033Y-72753D01*
X31072Y-72791D01*
X31148Y-72829D01*
X31300Y-72829D01*
X31376Y-72791D01*
X31414Y-72753D01*
X31453Y-72676D01*
X31453Y-72486D01*
X31414Y-72410D01*
X31376Y-72372D01*
X31300Y-72334D01*
X31148Y-72334D01*
X31072Y-72372D01*
X31033Y-72410D01*
X30995Y-72486D01*
X32138Y-72029D02*
X31986Y-72029D01*
X31910Y-72067D01*
X31872Y-72105D01*
X31795Y-72219D01*
X31757Y-72372D01*
X31757Y-72676D01*
X31795Y-72753D01*
X31834Y-72791D01*
X31910Y-72829D01*
X32062Y-72829D01*
X32138Y-72791D01*
X32176Y-72753D01*
X32215Y-72676D01*
X32215Y-72486D01*
X32176Y-72410D01*
X32138Y-72372D01*
X32062Y-72334D01*
X31910Y-72334D01*
X31834Y-72372D01*
X31795Y-72410D01*
X31757Y-72486D01*
X33167Y-72829D02*
X33167Y-72029D01*
X33510Y-72829D02*
X33510Y-72410D01*
X33472Y-72334D01*
X33396Y-72295D01*
X33282Y-72295D01*
X33206Y-72334D01*
X33167Y-72372D01*
X34006Y-72829D02*
X33930Y-72791D01*
X33891Y-72753D01*
X33853Y-72676D01*
X33853Y-72448D01*
X33891Y-72372D01*
X33930Y-72334D01*
X34006Y-72295D01*
X34120Y-72295D01*
X34196Y-72334D01*
X34234Y-72372D01*
X34272Y-72448D01*
X34272Y-72676D01*
X34234Y-72753D01*
X34196Y-72791D01*
X34120Y-72829D01*
X34006Y-72829D01*
X34730Y-72829D02*
X34654Y-72791D01*
X34615Y-72715D01*
X34615Y-72029D01*
X35339Y-72791D02*
X35263Y-72829D01*
X35111Y-72829D01*
X35034Y-72791D01*
X34996Y-72715D01*
X34996Y-72410D01*
X35034Y-72334D01*
X35111Y-72295D01*
X35263Y-72295D01*
X35339Y-72334D01*
X35377Y-72410D01*
X35377Y-72486D01*
X34996Y-72562D01*
X35682Y-72791D02*
X35759Y-72829D01*
X35911Y-72829D01*
X35987Y-72791D01*
X36025Y-72715D01*
X36025Y-72676D01*
X35987Y-72600D01*
X35911Y-72562D01*
X35797Y-72562D01*
X35720Y-72524D01*
X35682Y-72448D01*
X35682Y-72410D01*
X35720Y-72334D01*
X35797Y-72295D01*
X35911Y-72295D01*
X35987Y-72334D01*
X36292Y-73134D02*
X36330Y-73095D01*
X36407Y-72981D01*
X36445Y-72905D01*
X36483Y-72791D01*
X36521Y-72600D01*
X36521Y-72448D01*
X36483Y-72257D01*
X36445Y-72143D01*
X36407Y-72067D01*
X36330Y-71953D01*
X36292Y-71915D01*
G54D10*
X18601Y-73560D02*
X18582Y-73751D01*
X18526Y-73934D01*
X18436Y-74104D01*
X18315Y-74253D01*
X18167Y-74375D01*
X17998Y-74467D01*
X17814Y-74523D01*
X17623Y-74543D01*
X17433Y-74526D01*
X17249Y-74472D01*
X17079Y-74383D01*
X16929Y-74263D01*
X16806Y-74115D01*
X16713Y-73947D01*
X16655Y-73764D01*
X16634Y-73573D01*
X16650Y-73383D01*
X16703Y-73198D01*
X16790Y-73027D01*
X16910Y-72877D01*
X17056Y-72752D01*
X17224Y-72659D01*
X17406Y-72599D01*
X17597Y-72577D01*
X17787Y-72591D01*
X17972Y-72643D01*
X18144Y-72730D01*
X18295Y-72848D01*
X18421Y-72993D01*
X18515Y-73160D01*
X18576Y-73342D01*
X18600Y-73533D01*
X18601Y-73560D01*
X16633Y-73560D02*
X18601Y-73560D01*
G54D12*
X19373Y-73084D02*
X18992Y-73084D01*
X18954Y-73465D01*
X18992Y-73427D01*
X19069Y-73389D01*
X19259Y-73389D01*
X19335Y-73427D01*
X19373Y-73465D01*
X19412Y-73541D01*
X19412Y-73731D01*
X19373Y-73808D01*
X19335Y-73846D01*
X19259Y-73884D01*
X19069Y-73884D01*
X18992Y-73846D01*
X18954Y-73808D01*
X19754Y-73808D02*
X19793Y-73846D01*
X19754Y-73884D01*
X19716Y-73846D01*
X19754Y-73808D01*
X19754Y-73884D01*
X20288Y-73084D02*
X20364Y-73084D01*
X20440Y-73122D01*
X20478Y-73160D01*
X20516Y-73236D01*
X20555Y-73389D01*
X20555Y-73579D01*
X20516Y-73731D01*
X20478Y-73808D01*
X20440Y-73846D01*
X20364Y-73884D01*
X20288Y-73884D01*
X20212Y-73846D01*
X20174Y-73808D01*
X20135Y-73731D01*
X20097Y-73579D01*
X20097Y-73389D01*
X20135Y-73236D01*
X20174Y-73160D01*
X20212Y-73122D01*
X20288Y-73084D01*
X21050Y-73084D02*
X21126Y-73084D01*
X21202Y-73122D01*
X21240Y-73160D01*
X21278Y-73236D01*
X21317Y-73389D01*
X21317Y-73579D01*
X21278Y-73731D01*
X21240Y-73808D01*
X21202Y-73846D01*
X21126Y-73884D01*
X21050Y-73884D01*
X20974Y-73846D01*
X20936Y-73808D01*
X20897Y-73731D01*
X20859Y-73579D01*
X20859Y-73389D01*
X20897Y-73236D01*
X20936Y-73160D01*
X20974Y-73122D01*
X21050Y-73084D01*
X21659Y-73884D02*
X21659Y-73350D01*
X21659Y-73427D02*
X21698Y-73389D01*
X21774Y-73350D01*
X21888Y-73350D01*
X21964Y-73389D01*
X22002Y-73465D01*
X22002Y-73884D01*
X22002Y-73465D02*
X22040Y-73389D01*
X22117Y-73350D01*
X22231Y-73350D01*
X22307Y-73389D01*
X22345Y-73465D01*
X22345Y-73884D01*
X22726Y-73884D02*
X22726Y-73350D01*
X22726Y-73427D02*
X22765Y-73389D01*
X22841Y-73350D01*
X22955Y-73350D01*
X23031Y-73389D01*
X23069Y-73465D01*
X23069Y-73884D01*
X23069Y-73465D02*
X23107Y-73389D01*
X23184Y-73350D01*
X23298Y-73350D01*
X23374Y-73389D01*
X23412Y-73465D01*
X23412Y-73884D01*
X24975Y-73046D02*
X24289Y-74074D01*
X26004Y-73084D02*
X26080Y-73084D01*
X26156Y-73122D01*
X26194Y-73160D01*
X26232Y-73236D01*
X26271Y-73389D01*
X26271Y-73579D01*
X26232Y-73731D01*
X26194Y-73808D01*
X26156Y-73846D01*
X26080Y-73884D01*
X26004Y-73884D01*
X25928Y-73846D01*
X25890Y-73808D01*
X25851Y-73731D01*
X25813Y-73579D01*
X25813Y-73389D01*
X25851Y-73236D01*
X25890Y-73160D01*
X25928Y-73122D01*
X26004Y-73084D01*
X26613Y-73808D02*
X26652Y-73846D01*
X26613Y-73884D01*
X26575Y-73846D01*
X26613Y-73808D01*
X26613Y-73884D01*
X27414Y-73884D02*
X26956Y-73884D01*
X27185Y-73884D02*
X27185Y-73084D01*
X27109Y-73198D01*
X27033Y-73274D01*
X26956Y-73312D01*
X27795Y-73884D02*
X27947Y-73884D01*
X28023Y-73846D01*
X28061Y-73808D01*
X28137Y-73693D01*
X28176Y-73541D01*
X28176Y-73236D01*
X28137Y-73160D01*
X28099Y-73122D01*
X28023Y-73084D01*
X27871Y-73084D01*
X27795Y-73122D01*
X27756Y-73160D01*
X27718Y-73236D01*
X27718Y-73427D01*
X27756Y-73503D01*
X27795Y-73541D01*
X27871Y-73579D01*
X28023Y-73579D01*
X28099Y-73541D01*
X28137Y-73503D01*
X28176Y-73427D01*
X28442Y-73084D02*
X28976Y-73084D01*
X28633Y-73884D01*
X29242Y-73084D02*
X29242Y-73236D01*
X29547Y-73084D02*
X29547Y-73236D01*
X30729Y-74189D02*
X30691Y-74150D01*
X30615Y-74036D01*
X30577Y-73960D01*
X30539Y-73846D01*
X30500Y-73655D01*
X30500Y-73503D01*
X30539Y-73312D01*
X30577Y-73198D01*
X30615Y-73122D01*
X30691Y-73008D01*
X30729Y-72970D01*
X30957Y-73084D02*
X31453Y-73084D01*
X31186Y-73389D01*
X31300Y-73389D01*
X31376Y-73427D01*
X31414Y-73465D01*
X31453Y-73541D01*
X31453Y-73731D01*
X31414Y-73808D01*
X31376Y-73846D01*
X31300Y-73884D01*
X31072Y-73884D01*
X30995Y-73846D01*
X30957Y-73808D01*
X32405Y-73884D02*
X32405Y-73084D01*
X32748Y-73884D02*
X32748Y-73465D01*
X32710Y-73389D01*
X32634Y-73350D01*
X32520Y-73350D01*
X32444Y-73389D01*
X32405Y-73427D01*
X33244Y-73884D02*
X33168Y-73846D01*
X33129Y-73808D01*
X33091Y-73731D01*
X33091Y-73503D01*
X33129Y-73427D01*
X33168Y-73389D01*
X33244Y-73350D01*
X33358Y-73350D01*
X33434Y-73389D01*
X33472Y-73427D01*
X33510Y-73503D01*
X33510Y-73731D01*
X33472Y-73808D01*
X33434Y-73846D01*
X33358Y-73884D01*
X33244Y-73884D01*
X33968Y-73884D02*
X33892Y-73846D01*
X33853Y-73770D01*
X33853Y-73084D01*
X34577Y-73846D02*
X34501Y-73884D01*
X34349Y-73884D01*
X34272Y-73846D01*
X34234Y-73770D01*
X34234Y-73465D01*
X34272Y-73389D01*
X34349Y-73350D01*
X34501Y-73350D01*
X34577Y-73389D01*
X34615Y-73465D01*
X34615Y-73541D01*
X34234Y-73617D01*
X34920Y-73846D02*
X34997Y-73884D01*
X35149Y-73884D01*
X35225Y-73846D01*
X35263Y-73770D01*
X35263Y-73731D01*
X35225Y-73655D01*
X35149Y-73617D01*
X35035Y-73617D01*
X34958Y-73579D01*
X34920Y-73503D01*
X34920Y-73465D01*
X34958Y-73389D01*
X35035Y-73350D01*
X35149Y-73350D01*
X35225Y-73389D01*
X35530Y-74189D02*
X35568Y-74150D01*
X35645Y-74036D01*
X35683Y-73960D01*
X35721Y-73846D01*
X35759Y-73655D01*
X35759Y-73503D01*
X35721Y-73312D01*
X35683Y-73198D01*
X35645Y-73122D01*
X35568Y-73008D01*
X35530Y-72970D01*
M02*
