G04 (created by PCBNEW-RS274X (2012-01-19 BZR 3256)-stable) date 19/03/2013 15:01:36*
G01*
G70*
G90*
%MOIN*%
G04 Gerber Fmt 3.4, Leading zero omitted, Abs format*
%FSLAX34Y34*%
G04 APERTURE LIST*
%ADD10C,0.006000*%
%ADD11C,0.012000*%
%ADD12C,0.005000*%
%ADD13C,0.015000*%
%ADD14C,0.008000*%
%ADD15C,0.011300*%
%ADD16C,0.010000*%
%ADD17C,0.095000*%
%ADD18R,0.095000X0.095000*%
%ADD19R,0.110000X0.082000*%
%ADD20O,0.110000X0.082000*%
%ADD21C,0.295600*%
%ADD22R,0.110000X0.110000*%
%ADD23C,0.110000*%
%ADD24R,0.075000X0.075000*%
%ADD25C,0.075000*%
%ADD26R,0.105000X0.105000*%
%ADD27C,0.105000*%
G04 APERTURE END LIST*
G54D10*
X04000Y-04000D02*
X113000Y-04000D01*
X113000Y-78670D01*
X04000Y-78670D01*
X04000Y-04000D01*
X04700Y-04700D02*
X112300Y-04700D01*
X112300Y-77970D01*
X04700Y-77970D01*
X04700Y-04700D01*
X25800Y-04000D02*
X25800Y-04700D01*
X15043Y-04552D02*
X14757Y-04552D01*
X14900Y-04552D02*
X14900Y-04052D01*
X14852Y-04124D01*
X14805Y-04171D01*
X14757Y-04195D01*
X25800Y-78670D02*
X25800Y-77970D01*
X15043Y-78522D02*
X14757Y-78522D01*
X14900Y-78522D02*
X14900Y-78022D01*
X14852Y-78094D01*
X14805Y-78141D01*
X14757Y-78165D01*
X47600Y-04000D02*
X47600Y-04700D01*
X36557Y-04100D02*
X36581Y-04076D01*
X36629Y-04052D01*
X36748Y-04052D01*
X36795Y-04076D01*
X36819Y-04100D01*
X36843Y-04148D01*
X36843Y-04195D01*
X36819Y-04267D01*
X36533Y-04552D01*
X36843Y-04552D01*
X47600Y-78670D02*
X47600Y-77970D01*
X36557Y-78070D02*
X36581Y-78046D01*
X36629Y-78022D01*
X36748Y-78022D01*
X36795Y-78046D01*
X36819Y-78070D01*
X36843Y-78118D01*
X36843Y-78165D01*
X36819Y-78237D01*
X36533Y-78522D01*
X36843Y-78522D01*
X69400Y-04000D02*
X69400Y-04700D01*
X58333Y-04052D02*
X58643Y-04052D01*
X58476Y-04243D01*
X58548Y-04243D01*
X58595Y-04267D01*
X58619Y-04290D01*
X58643Y-04338D01*
X58643Y-04457D01*
X58619Y-04505D01*
X58595Y-04529D01*
X58548Y-04552D01*
X58405Y-04552D01*
X58357Y-04529D01*
X58333Y-04505D01*
X69400Y-78670D02*
X69400Y-77970D01*
X58333Y-78022D02*
X58643Y-78022D01*
X58476Y-78213D01*
X58548Y-78213D01*
X58595Y-78237D01*
X58619Y-78260D01*
X58643Y-78308D01*
X58643Y-78427D01*
X58619Y-78475D01*
X58595Y-78499D01*
X58548Y-78522D01*
X58405Y-78522D01*
X58357Y-78499D01*
X58333Y-78475D01*
X91200Y-04000D02*
X91200Y-04700D01*
X80395Y-04219D02*
X80395Y-04552D01*
X80276Y-04029D02*
X80157Y-04386D01*
X80467Y-04386D01*
X91200Y-78670D02*
X91200Y-77970D01*
X80395Y-78189D02*
X80395Y-78522D01*
X80276Y-77999D02*
X80157Y-78356D01*
X80467Y-78356D01*
X102219Y-04052D02*
X101981Y-04052D01*
X101957Y-04290D01*
X101981Y-04267D01*
X102029Y-04243D01*
X102148Y-04243D01*
X102195Y-04267D01*
X102219Y-04290D01*
X102243Y-04338D01*
X102243Y-04457D01*
X102219Y-04505D01*
X102195Y-04529D01*
X102148Y-04552D01*
X102029Y-04552D01*
X101981Y-04529D01*
X101957Y-04505D01*
X102219Y-78022D02*
X101981Y-78022D01*
X101957Y-78260D01*
X101981Y-78237D01*
X102029Y-78213D01*
X102148Y-78213D01*
X102195Y-78237D01*
X102219Y-78260D01*
X102243Y-78308D01*
X102243Y-78427D01*
X102219Y-78475D01*
X102195Y-78499D01*
X102148Y-78522D01*
X102029Y-78522D01*
X101981Y-78499D01*
X101957Y-78475D01*
X04000Y-28890D02*
X04700Y-28890D01*
X04231Y-16510D02*
X04469Y-16510D01*
X04184Y-16652D02*
X04350Y-16152D01*
X04517Y-16652D01*
X113000Y-28890D02*
X112300Y-28890D01*
X112531Y-16510D02*
X112769Y-16510D01*
X112484Y-16652D02*
X112650Y-16152D01*
X112817Y-16652D01*
X04000Y-53780D02*
X04700Y-53780D01*
X04386Y-41280D02*
X04457Y-41304D01*
X04481Y-41328D01*
X04505Y-41376D01*
X04505Y-41447D01*
X04481Y-41495D01*
X04457Y-41519D01*
X04410Y-41542D01*
X04219Y-41542D01*
X04219Y-41042D01*
X04386Y-41042D01*
X04433Y-41066D01*
X04457Y-41090D01*
X04481Y-41138D01*
X04481Y-41185D01*
X04457Y-41233D01*
X04433Y-41257D01*
X04386Y-41280D01*
X04219Y-41280D01*
X113000Y-53780D02*
X112300Y-53780D01*
X112686Y-41280D02*
X112757Y-41304D01*
X112781Y-41328D01*
X112805Y-41376D01*
X112805Y-41447D01*
X112781Y-41495D01*
X112757Y-41519D01*
X112710Y-41542D01*
X112519Y-41542D01*
X112519Y-41042D01*
X112686Y-41042D01*
X112733Y-41066D01*
X112757Y-41090D01*
X112781Y-41138D01*
X112781Y-41185D01*
X112757Y-41233D01*
X112733Y-41257D01*
X112686Y-41280D01*
X112519Y-41280D01*
X04505Y-66385D02*
X04481Y-66409D01*
X04410Y-66432D01*
X04362Y-66432D01*
X04290Y-66409D01*
X04243Y-66361D01*
X04219Y-66313D01*
X04195Y-66218D01*
X04195Y-66147D01*
X04219Y-66051D01*
X04243Y-66004D01*
X04290Y-65956D01*
X04362Y-65932D01*
X04410Y-65932D01*
X04481Y-65956D01*
X04505Y-65980D01*
X112805Y-66385D02*
X112781Y-66409D01*
X112710Y-66432D01*
X112662Y-66432D01*
X112590Y-66409D01*
X112543Y-66361D01*
X112519Y-66313D01*
X112495Y-66218D01*
X112495Y-66147D01*
X112519Y-66051D01*
X112543Y-66004D01*
X112590Y-65956D01*
X112662Y-65932D01*
X112710Y-65932D01*
X112781Y-65956D01*
X112805Y-65980D01*
G54D11*
X79443Y-76413D02*
X79443Y-75813D01*
X79586Y-75813D01*
X79671Y-75841D01*
X79729Y-75899D01*
X79757Y-75956D01*
X79786Y-76070D01*
X79786Y-76156D01*
X79757Y-76270D01*
X79729Y-76327D01*
X79671Y-76384D01*
X79586Y-76413D01*
X79443Y-76413D01*
X80300Y-76413D02*
X80300Y-76099D01*
X80271Y-76041D01*
X80214Y-76013D01*
X80100Y-76013D01*
X80043Y-76041D01*
X80300Y-76384D02*
X80243Y-76413D01*
X80100Y-76413D01*
X80043Y-76384D01*
X80014Y-76327D01*
X80014Y-76270D01*
X80043Y-76213D01*
X80100Y-76184D01*
X80243Y-76184D01*
X80300Y-76156D01*
X80500Y-76013D02*
X80729Y-76013D01*
X80586Y-75813D02*
X80586Y-76327D01*
X80614Y-76384D01*
X80672Y-76413D01*
X80729Y-76413D01*
X81157Y-76384D02*
X81100Y-76413D01*
X80986Y-76413D01*
X80929Y-76384D01*
X80900Y-76327D01*
X80900Y-76099D01*
X80929Y-76041D01*
X80986Y-76013D01*
X81100Y-76013D01*
X81157Y-76041D01*
X81186Y-76099D01*
X81186Y-76156D01*
X80900Y-76213D01*
X81443Y-76356D02*
X81471Y-76384D01*
X81443Y-76413D01*
X81414Y-76384D01*
X81443Y-76356D01*
X81443Y-76413D01*
X81443Y-76041D02*
X81471Y-76070D01*
X81443Y-76099D01*
X81414Y-76070D01*
X81443Y-76041D01*
X81443Y-76099D01*
X82500Y-76413D02*
X82157Y-76413D01*
X82329Y-76413D02*
X82329Y-75813D01*
X82272Y-75899D01*
X82214Y-75956D01*
X82157Y-75984D01*
X82785Y-76413D02*
X82900Y-76413D01*
X82957Y-76384D01*
X82985Y-76356D01*
X83043Y-76270D01*
X83071Y-76156D01*
X83071Y-75927D01*
X83043Y-75870D01*
X83014Y-75841D01*
X82957Y-75813D01*
X82843Y-75813D01*
X82785Y-75841D01*
X82757Y-75870D01*
X82728Y-75927D01*
X82728Y-76070D01*
X82757Y-76127D01*
X82785Y-76156D01*
X82843Y-76184D01*
X82957Y-76184D01*
X83014Y-76156D01*
X83043Y-76127D01*
X83071Y-76070D01*
X83785Y-76413D02*
X83785Y-76013D01*
X83785Y-76070D02*
X83813Y-76041D01*
X83871Y-76013D01*
X83956Y-76013D01*
X84013Y-76041D01*
X84042Y-76099D01*
X84042Y-76413D01*
X84042Y-76099D02*
X84071Y-76041D01*
X84128Y-76013D01*
X84213Y-76013D01*
X84271Y-76041D01*
X84299Y-76099D01*
X84299Y-76413D01*
X84842Y-76413D02*
X84842Y-76099D01*
X84813Y-76041D01*
X84756Y-76013D01*
X84642Y-76013D01*
X84585Y-76041D01*
X84842Y-76384D02*
X84785Y-76413D01*
X84642Y-76413D01*
X84585Y-76384D01*
X84556Y-76327D01*
X84556Y-76270D01*
X84585Y-76213D01*
X84642Y-76184D01*
X84785Y-76184D01*
X84842Y-76156D01*
X85128Y-76413D02*
X85128Y-76013D01*
X85128Y-76127D02*
X85156Y-76070D01*
X85185Y-76041D01*
X85242Y-76013D01*
X85299Y-76013D01*
X85927Y-75870D02*
X85956Y-75841D01*
X86013Y-75813D01*
X86156Y-75813D01*
X86213Y-75841D01*
X86242Y-75870D01*
X86270Y-75927D01*
X86270Y-75984D01*
X86242Y-76070D01*
X85899Y-76413D01*
X86270Y-76413D01*
X86641Y-75813D02*
X86698Y-75813D01*
X86755Y-75841D01*
X86784Y-75870D01*
X86813Y-75927D01*
X86841Y-76041D01*
X86841Y-76184D01*
X86813Y-76299D01*
X86784Y-76356D01*
X86755Y-76384D01*
X86698Y-76413D01*
X86641Y-76413D01*
X86584Y-76384D01*
X86555Y-76356D01*
X86527Y-76299D01*
X86498Y-76184D01*
X86498Y-76041D01*
X86527Y-75927D01*
X86555Y-75870D01*
X86584Y-75841D01*
X86641Y-75813D01*
X87412Y-76413D02*
X87069Y-76413D01*
X87241Y-76413D02*
X87241Y-75813D01*
X87184Y-75899D01*
X87126Y-75956D01*
X87069Y-75984D01*
X87612Y-75813D02*
X87983Y-75813D01*
X87783Y-76041D01*
X87869Y-76041D01*
X87926Y-76070D01*
X87955Y-76099D01*
X87983Y-76156D01*
X87983Y-76299D01*
X87955Y-76356D01*
X87926Y-76384D01*
X87869Y-76413D01*
X87697Y-76413D01*
X87640Y-76384D01*
X87612Y-76356D01*
G54D10*
X71043Y-77613D02*
X71043Y-77013D01*
X71386Y-77613D02*
X71129Y-77270D01*
X71386Y-77013D02*
X71043Y-77356D01*
X71643Y-77613D02*
X71643Y-77213D01*
X71643Y-77013D02*
X71614Y-77041D01*
X71643Y-77070D01*
X71671Y-77041D01*
X71643Y-77013D01*
X71643Y-77070D01*
X72272Y-77556D02*
X72243Y-77584D01*
X72157Y-77613D01*
X72100Y-77613D01*
X72015Y-77584D01*
X71957Y-77527D01*
X71929Y-77470D01*
X71900Y-77356D01*
X71900Y-77270D01*
X71929Y-77156D01*
X71957Y-77099D01*
X72015Y-77041D01*
X72100Y-77013D01*
X72157Y-77013D01*
X72243Y-77041D01*
X72272Y-77070D01*
X72786Y-77613D02*
X72786Y-77299D01*
X72757Y-77241D01*
X72700Y-77213D01*
X72586Y-77213D01*
X72529Y-77241D01*
X72786Y-77584D02*
X72729Y-77613D01*
X72586Y-77613D01*
X72529Y-77584D01*
X72500Y-77527D01*
X72500Y-77470D01*
X72529Y-77413D01*
X72586Y-77384D01*
X72729Y-77384D01*
X72786Y-77356D01*
X73329Y-77613D02*
X73329Y-77013D01*
X73329Y-77584D02*
X73272Y-77613D01*
X73158Y-77613D01*
X73100Y-77584D01*
X73072Y-77556D01*
X73043Y-77499D01*
X73043Y-77327D01*
X73072Y-77270D01*
X73100Y-77241D01*
X73158Y-77213D01*
X73272Y-77213D01*
X73329Y-77241D01*
X74072Y-77299D02*
X74272Y-77299D01*
X74358Y-77613D02*
X74072Y-77613D01*
X74072Y-77013D01*
X74358Y-77013D01*
X74615Y-77556D02*
X74643Y-77584D01*
X74615Y-77613D01*
X74586Y-77584D01*
X74615Y-77556D01*
X74615Y-77613D01*
X74901Y-77613D02*
X74901Y-77013D01*
X75044Y-77013D01*
X75129Y-77041D01*
X75187Y-77099D01*
X75215Y-77156D01*
X75244Y-77270D01*
X75244Y-77356D01*
X75215Y-77470D01*
X75187Y-77527D01*
X75129Y-77584D01*
X75044Y-77613D01*
X74901Y-77613D01*
X75501Y-77556D02*
X75529Y-77584D01*
X75501Y-77613D01*
X75472Y-77584D01*
X75501Y-77556D01*
X75501Y-77613D01*
X75758Y-77441D02*
X76044Y-77441D01*
X75701Y-77613D02*
X75901Y-77013D01*
X76101Y-77613D01*
X76301Y-77556D02*
X76329Y-77584D01*
X76301Y-77613D01*
X76272Y-77584D01*
X76301Y-77556D01*
X76301Y-77613D01*
G54D11*
X104586Y-76413D02*
X104386Y-76127D01*
X104243Y-76413D02*
X104243Y-75813D01*
X104471Y-75813D01*
X104529Y-75841D01*
X104557Y-75870D01*
X104586Y-75927D01*
X104586Y-76013D01*
X104557Y-76070D01*
X104529Y-76099D01*
X104471Y-76127D01*
X104243Y-76127D01*
X105071Y-76384D02*
X105014Y-76413D01*
X104900Y-76413D01*
X104843Y-76384D01*
X104814Y-76327D01*
X104814Y-76099D01*
X104843Y-76041D01*
X104900Y-76013D01*
X105014Y-76013D01*
X105071Y-76041D01*
X105100Y-76099D01*
X105100Y-76156D01*
X104814Y-76213D01*
X105300Y-76013D02*
X105443Y-76413D01*
X105585Y-76013D01*
X105814Y-76356D02*
X105842Y-76384D01*
X105814Y-76413D01*
X105785Y-76384D01*
X105814Y-76356D01*
X105814Y-76413D01*
X105814Y-76041D02*
X105842Y-76070D01*
X105814Y-76099D01*
X105785Y-76070D01*
X105814Y-76041D01*
X105814Y-76099D01*
X106871Y-76413D02*
X106528Y-76413D01*
X106700Y-76413D02*
X106700Y-75813D01*
X106643Y-75899D01*
X106585Y-75956D01*
X106528Y-75984D01*
X107128Y-76356D02*
X107156Y-76384D01*
X107128Y-76413D01*
X107099Y-76384D01*
X107128Y-76356D01*
X107128Y-76413D01*
X107528Y-75813D02*
X107585Y-75813D01*
X107642Y-75841D01*
X107671Y-75870D01*
X107700Y-75927D01*
X107728Y-76041D01*
X107728Y-76184D01*
X107700Y-76299D01*
X107671Y-76356D01*
X107642Y-76384D01*
X107585Y-76413D01*
X107528Y-76413D01*
X107471Y-76384D01*
X107442Y-76356D01*
X107414Y-76299D01*
X107385Y-76184D01*
X107385Y-76041D01*
X107414Y-75927D01*
X107442Y-75870D01*
X107471Y-75841D01*
X107528Y-75813D01*
G54D10*
X71014Y-76384D02*
X71100Y-76413D01*
X71243Y-76413D01*
X71300Y-76384D01*
X71329Y-76356D01*
X71357Y-76299D01*
X71357Y-76241D01*
X71329Y-76184D01*
X71300Y-76156D01*
X71243Y-76127D01*
X71129Y-76099D01*
X71071Y-76070D01*
X71043Y-76041D01*
X71014Y-75984D01*
X71014Y-75927D01*
X71043Y-75870D01*
X71071Y-75841D01*
X71129Y-75813D01*
X71271Y-75813D01*
X71357Y-75841D01*
X71614Y-76413D02*
X71614Y-76013D01*
X71614Y-75813D02*
X71585Y-75841D01*
X71614Y-75870D01*
X71642Y-75841D01*
X71614Y-75813D01*
X71614Y-75870D01*
X71843Y-76013D02*
X72157Y-76013D01*
X71843Y-76413D01*
X72157Y-76413D01*
X72614Y-76384D02*
X72557Y-76413D01*
X72443Y-76413D01*
X72386Y-76384D01*
X72357Y-76327D01*
X72357Y-76099D01*
X72386Y-76041D01*
X72443Y-76013D01*
X72557Y-76013D01*
X72614Y-76041D01*
X72643Y-76099D01*
X72643Y-76156D01*
X72357Y-76213D01*
X72900Y-76356D02*
X72928Y-76384D01*
X72900Y-76413D01*
X72871Y-76384D01*
X72900Y-76356D01*
X72900Y-76413D01*
X72900Y-76041D02*
X72928Y-76070D01*
X72900Y-76099D01*
X72871Y-76070D01*
X72900Y-76041D01*
X72900Y-76099D01*
X73614Y-76241D02*
X73900Y-76241D01*
X73557Y-76413D02*
X73757Y-75813D01*
X73957Y-76413D01*
X74414Y-76013D02*
X74414Y-76413D01*
X74271Y-75784D02*
X74128Y-76213D01*
X74500Y-76213D01*
X104243Y-77613D02*
X104243Y-77013D01*
X104786Y-77613D02*
X104786Y-77013D01*
X104786Y-77584D02*
X104729Y-77613D01*
X104615Y-77613D01*
X104557Y-77584D01*
X104529Y-77556D01*
X104500Y-77499D01*
X104500Y-77327D01*
X104529Y-77270D01*
X104557Y-77241D01*
X104615Y-77213D01*
X104729Y-77213D01*
X104786Y-77241D01*
X105072Y-77556D02*
X105100Y-77584D01*
X105072Y-77613D01*
X105043Y-77584D01*
X105072Y-77556D01*
X105072Y-77613D01*
X105072Y-77241D02*
X105100Y-77270D01*
X105072Y-77299D01*
X105043Y-77270D01*
X105072Y-77241D01*
X105072Y-77299D01*
X106129Y-77613D02*
X105786Y-77613D01*
X105958Y-77613D02*
X105958Y-77013D01*
X105901Y-77099D01*
X105843Y-77156D01*
X105786Y-77184D01*
X106814Y-76984D02*
X106300Y-77756D01*
X107329Y-77613D02*
X106986Y-77613D01*
X107158Y-77613D02*
X107158Y-77013D01*
X107101Y-77099D01*
X107043Y-77156D01*
X106986Y-77184D01*
G54D11*
X70957Y-74613D02*
X71300Y-74613D01*
X71129Y-75213D02*
X71129Y-74613D01*
X71500Y-75213D02*
X71500Y-74813D01*
X71500Y-74613D02*
X71471Y-74641D01*
X71500Y-74670D01*
X71528Y-74641D01*
X71500Y-74613D01*
X71500Y-74670D01*
X71700Y-74813D02*
X71929Y-74813D01*
X71786Y-74613D02*
X71786Y-75127D01*
X71814Y-75184D01*
X71872Y-75213D01*
X71929Y-75213D01*
X72215Y-75213D02*
X72157Y-75184D01*
X72129Y-75127D01*
X72129Y-74613D01*
X72671Y-75184D02*
X72614Y-75213D01*
X72500Y-75213D01*
X72443Y-75184D01*
X72414Y-75127D01*
X72414Y-74899D01*
X72443Y-74841D01*
X72500Y-74813D01*
X72614Y-74813D01*
X72671Y-74841D01*
X72700Y-74899D01*
X72700Y-74956D01*
X72414Y-75013D01*
X72957Y-75156D02*
X72985Y-75184D01*
X72957Y-75213D01*
X72928Y-75184D01*
X72957Y-75156D01*
X72957Y-75213D01*
X72957Y-74841D02*
X72985Y-74870D01*
X72957Y-74899D01*
X72928Y-74870D01*
X72957Y-74841D01*
X72957Y-74899D01*
X74043Y-75156D02*
X74014Y-75184D01*
X73928Y-75213D01*
X73871Y-75213D01*
X73786Y-75184D01*
X73728Y-75127D01*
X73700Y-75070D01*
X73671Y-74956D01*
X73671Y-74870D01*
X73700Y-74756D01*
X73728Y-74699D01*
X73786Y-74641D01*
X73871Y-74613D01*
X73928Y-74613D01*
X74014Y-74641D01*
X74043Y-74670D01*
X74557Y-75213D02*
X74557Y-74899D01*
X74528Y-74841D01*
X74471Y-74813D01*
X74357Y-74813D01*
X74300Y-74841D01*
X74557Y-75184D02*
X74500Y-75213D01*
X74357Y-75213D01*
X74300Y-75184D01*
X74271Y-75127D01*
X74271Y-75070D01*
X74300Y-75013D01*
X74357Y-74984D01*
X74500Y-74984D01*
X74557Y-74956D01*
X74843Y-75213D02*
X74843Y-74813D01*
X74843Y-74927D02*
X74871Y-74870D01*
X74900Y-74841D01*
X74957Y-74813D01*
X75014Y-74813D01*
X75128Y-74813D02*
X75357Y-74813D01*
X75214Y-74613D02*
X75214Y-75127D01*
X75242Y-75184D01*
X75300Y-75213D01*
X75357Y-75213D01*
X75785Y-75184D02*
X75728Y-75213D01*
X75614Y-75213D01*
X75557Y-75184D01*
X75528Y-75127D01*
X75528Y-74899D01*
X75557Y-74841D01*
X75614Y-74813D01*
X75728Y-74813D01*
X75785Y-74841D01*
X75814Y-74899D01*
X75814Y-74956D01*
X75528Y-75013D01*
X76471Y-74813D02*
X76614Y-75213D01*
X76756Y-74813D01*
X76985Y-75213D02*
X76985Y-74813D01*
X76985Y-74613D02*
X76956Y-74641D01*
X76985Y-74670D01*
X77013Y-74641D01*
X76985Y-74613D01*
X76985Y-74670D01*
X77185Y-74813D02*
X77414Y-74813D01*
X77271Y-74613D02*
X77271Y-75127D01*
X77299Y-75184D01*
X77357Y-75213D01*
X77414Y-75213D01*
X77842Y-75184D02*
X77785Y-75213D01*
X77671Y-75213D01*
X77614Y-75184D01*
X77585Y-75127D01*
X77585Y-74899D01*
X77614Y-74841D01*
X77671Y-74813D01*
X77785Y-74813D01*
X77842Y-74841D01*
X77871Y-74899D01*
X77871Y-74956D01*
X77585Y-75013D01*
X78099Y-75184D02*
X78156Y-75213D01*
X78271Y-75213D01*
X78328Y-75184D01*
X78356Y-75127D01*
X78356Y-75099D01*
X78328Y-75041D01*
X78271Y-75013D01*
X78185Y-75013D01*
X78128Y-74984D01*
X78099Y-74927D01*
X78099Y-74899D01*
X78128Y-74841D01*
X78185Y-74813D01*
X78271Y-74813D01*
X78328Y-74841D01*
X78585Y-75184D02*
X78642Y-75213D01*
X78757Y-75213D01*
X78814Y-75184D01*
X78842Y-75127D01*
X78842Y-75099D01*
X78814Y-75041D01*
X78757Y-75013D01*
X78671Y-75013D01*
X78614Y-74984D01*
X78585Y-74927D01*
X78585Y-74899D01*
X78614Y-74841D01*
X78671Y-74813D01*
X78757Y-74813D01*
X78814Y-74841D01*
X79328Y-75184D02*
X79271Y-75213D01*
X79157Y-75213D01*
X79100Y-75184D01*
X79071Y-75127D01*
X79071Y-74899D01*
X79100Y-74841D01*
X79157Y-74813D01*
X79271Y-74813D01*
X79328Y-74841D01*
X79357Y-74899D01*
X79357Y-74956D01*
X79071Y-75013D01*
X80071Y-74813D02*
X80071Y-75413D01*
X80071Y-74841D02*
X80128Y-74813D01*
X80242Y-74813D01*
X80299Y-74841D01*
X80328Y-74870D01*
X80357Y-74927D01*
X80357Y-75099D01*
X80328Y-75156D01*
X80299Y-75184D01*
X80242Y-75213D01*
X80128Y-75213D01*
X80071Y-75184D01*
X80614Y-75213D02*
X80614Y-74613D01*
X80871Y-75213D02*
X80871Y-74899D01*
X80842Y-74841D01*
X80785Y-74813D01*
X80700Y-74813D01*
X80642Y-74841D01*
X80614Y-74870D01*
X81414Y-75213D02*
X81414Y-74899D01*
X81385Y-74841D01*
X81328Y-74813D01*
X81214Y-74813D01*
X81157Y-74841D01*
X81414Y-75184D02*
X81357Y-75213D01*
X81214Y-75213D01*
X81157Y-75184D01*
X81128Y-75127D01*
X81128Y-75070D01*
X81157Y-75013D01*
X81214Y-74984D01*
X81357Y-74984D01*
X81414Y-74956D01*
X81700Y-75213D02*
X81700Y-74813D01*
X81700Y-74927D02*
X81728Y-74870D01*
X81757Y-74841D01*
X81814Y-74813D01*
X81871Y-74813D01*
X82299Y-75184D02*
X82242Y-75213D01*
X82128Y-75213D01*
X82071Y-75184D01*
X82042Y-75127D01*
X82042Y-74899D01*
X82071Y-74841D01*
X82128Y-74813D01*
X82242Y-74813D01*
X82299Y-74841D01*
X82328Y-74899D01*
X82328Y-74956D01*
X82042Y-75013D01*
X82556Y-75184D02*
X82613Y-75213D01*
X82728Y-75213D01*
X82785Y-75184D01*
X82813Y-75127D01*
X82813Y-75099D01*
X82785Y-75041D01*
X82728Y-75013D01*
X82642Y-75013D01*
X82585Y-74984D01*
X82556Y-74927D01*
X82556Y-74899D01*
X82585Y-74841D01*
X82642Y-74813D01*
X82728Y-74813D01*
X82785Y-74841D01*
X83785Y-75213D02*
X83785Y-74899D01*
X83756Y-74841D01*
X83699Y-74813D01*
X83585Y-74813D01*
X83528Y-74841D01*
X83785Y-75184D02*
X83728Y-75213D01*
X83585Y-75213D01*
X83528Y-75184D01*
X83499Y-75127D01*
X83499Y-75070D01*
X83528Y-75013D01*
X83585Y-74984D01*
X83728Y-74984D01*
X83785Y-74956D01*
X84014Y-74813D02*
X84157Y-75213D01*
X84299Y-74813D01*
X84528Y-75156D02*
X84556Y-75184D01*
X84528Y-75213D01*
X84499Y-75184D01*
X84528Y-75156D01*
X84528Y-75213D01*
G54D10*
X71243Y-72499D02*
X71043Y-72499D01*
X71043Y-72813D02*
X71043Y-72213D01*
X71329Y-72213D01*
X71557Y-72813D02*
X71557Y-72413D01*
X71557Y-72213D02*
X71528Y-72241D01*
X71557Y-72270D01*
X71585Y-72241D01*
X71557Y-72213D01*
X71557Y-72270D01*
X71929Y-72813D02*
X71871Y-72784D01*
X71843Y-72727D01*
X71843Y-72213D01*
X72385Y-72784D02*
X72328Y-72813D01*
X72214Y-72813D01*
X72157Y-72784D01*
X72128Y-72727D01*
X72128Y-72499D01*
X72157Y-72441D01*
X72214Y-72413D01*
X72328Y-72413D01*
X72385Y-72441D01*
X72414Y-72499D01*
X72414Y-72556D01*
X72128Y-72613D01*
X72671Y-72756D02*
X72699Y-72784D01*
X72671Y-72813D01*
X72642Y-72784D01*
X72671Y-72756D01*
X72671Y-72813D01*
X72671Y-72441D02*
X72699Y-72470D01*
X72671Y-72499D01*
X72642Y-72470D01*
X72671Y-72441D01*
X72671Y-72499D01*
X73671Y-72784D02*
X73614Y-72813D01*
X73500Y-72813D01*
X73442Y-72784D01*
X73414Y-72756D01*
X73385Y-72699D01*
X73385Y-72527D01*
X73414Y-72470D01*
X73442Y-72441D01*
X73500Y-72413D01*
X73614Y-72413D01*
X73671Y-72441D01*
X74185Y-72813D02*
X74185Y-72499D01*
X74156Y-72441D01*
X74099Y-72413D01*
X73985Y-72413D01*
X73928Y-72441D01*
X74185Y-72784D02*
X74128Y-72813D01*
X73985Y-72813D01*
X73928Y-72784D01*
X73899Y-72727D01*
X73899Y-72670D01*
X73928Y-72613D01*
X73985Y-72584D01*
X74128Y-72584D01*
X74185Y-72556D01*
X74471Y-72813D02*
X74471Y-72413D01*
X74471Y-72527D02*
X74499Y-72470D01*
X74528Y-72441D01*
X74585Y-72413D01*
X74642Y-72413D01*
X74756Y-72413D02*
X74985Y-72413D01*
X74842Y-72213D02*
X74842Y-72727D01*
X74870Y-72784D01*
X74928Y-72813D01*
X74985Y-72813D01*
X75413Y-72784D02*
X75356Y-72813D01*
X75242Y-72813D01*
X75185Y-72784D01*
X75156Y-72727D01*
X75156Y-72499D01*
X75185Y-72441D01*
X75242Y-72413D01*
X75356Y-72413D01*
X75413Y-72441D01*
X75442Y-72499D01*
X75442Y-72556D01*
X75156Y-72613D01*
X75556Y-72870D02*
X76013Y-72870D01*
X76099Y-72413D02*
X76242Y-72813D01*
X76384Y-72413D01*
X76613Y-72813D02*
X76613Y-72413D01*
X76613Y-72213D02*
X76584Y-72241D01*
X76613Y-72270D01*
X76641Y-72241D01*
X76613Y-72213D01*
X76613Y-72270D01*
X76813Y-72413D02*
X77042Y-72413D01*
X76899Y-72213D02*
X76899Y-72727D01*
X76927Y-72784D01*
X76985Y-72813D01*
X77042Y-72813D01*
X77470Y-72784D02*
X77413Y-72813D01*
X77299Y-72813D01*
X77242Y-72784D01*
X77213Y-72727D01*
X77213Y-72499D01*
X77242Y-72441D01*
X77299Y-72413D01*
X77413Y-72413D01*
X77470Y-72441D01*
X77499Y-72499D01*
X77499Y-72556D01*
X77213Y-72613D01*
X77727Y-72784D02*
X77784Y-72813D01*
X77899Y-72813D01*
X77956Y-72784D01*
X77984Y-72727D01*
X77984Y-72699D01*
X77956Y-72641D01*
X77899Y-72613D01*
X77813Y-72613D01*
X77756Y-72584D01*
X77727Y-72527D01*
X77727Y-72499D01*
X77756Y-72441D01*
X77813Y-72413D01*
X77899Y-72413D01*
X77956Y-72441D01*
X78213Y-72784D02*
X78270Y-72813D01*
X78385Y-72813D01*
X78442Y-72784D01*
X78470Y-72727D01*
X78470Y-72699D01*
X78442Y-72641D01*
X78385Y-72613D01*
X78299Y-72613D01*
X78242Y-72584D01*
X78213Y-72527D01*
X78213Y-72499D01*
X78242Y-72441D01*
X78299Y-72413D01*
X78385Y-72413D01*
X78442Y-72441D01*
X78956Y-72784D02*
X78899Y-72813D01*
X78785Y-72813D01*
X78728Y-72784D01*
X78699Y-72727D01*
X78699Y-72499D01*
X78728Y-72441D01*
X78785Y-72413D01*
X78899Y-72413D01*
X78956Y-72441D01*
X78985Y-72499D01*
X78985Y-72556D01*
X78699Y-72613D01*
X79099Y-72870D02*
X79556Y-72870D01*
X79613Y-72413D02*
X79842Y-72413D01*
X79699Y-72813D02*
X79699Y-72299D01*
X79727Y-72241D01*
X79785Y-72213D01*
X79842Y-72213D01*
X80270Y-72784D02*
X80213Y-72813D01*
X80099Y-72813D01*
X80042Y-72784D01*
X80013Y-72727D01*
X80013Y-72499D01*
X80042Y-72441D01*
X80099Y-72413D01*
X80213Y-72413D01*
X80270Y-72441D01*
X80299Y-72499D01*
X80299Y-72556D01*
X80013Y-72613D01*
X80813Y-72413D02*
X80813Y-72813D01*
X80556Y-72413D02*
X80556Y-72727D01*
X80584Y-72784D01*
X80642Y-72813D01*
X80727Y-72813D01*
X80784Y-72784D01*
X80813Y-72756D01*
X81042Y-72813D02*
X81356Y-72413D01*
X81042Y-72413D02*
X81356Y-72813D01*
X81442Y-72870D02*
X81899Y-72870D01*
X82299Y-72813D02*
X82299Y-72499D01*
X82270Y-72441D01*
X82213Y-72413D01*
X82099Y-72413D01*
X82042Y-72441D01*
X82299Y-72784D02*
X82242Y-72813D01*
X82099Y-72813D01*
X82042Y-72784D01*
X82013Y-72727D01*
X82013Y-72670D01*
X82042Y-72613D01*
X82099Y-72584D01*
X82242Y-72584D01*
X82299Y-72556D01*
X82528Y-72413D02*
X82671Y-72813D01*
X82813Y-72413D01*
X83042Y-72756D02*
X83070Y-72784D01*
X83042Y-72813D01*
X83013Y-72784D01*
X83042Y-72756D01*
X83042Y-72813D01*
X83328Y-72813D02*
X83328Y-72213D01*
X83328Y-72441D02*
X83385Y-72413D01*
X83499Y-72413D01*
X83556Y-72441D01*
X83585Y-72470D01*
X83614Y-72527D01*
X83614Y-72699D01*
X83585Y-72756D01*
X83556Y-72784D01*
X83499Y-72813D01*
X83385Y-72813D01*
X83328Y-72784D01*
X83871Y-72813D02*
X83871Y-72413D01*
X83871Y-72527D02*
X83899Y-72470D01*
X83928Y-72441D01*
X83985Y-72413D01*
X84042Y-72413D01*
X84499Y-72813D02*
X84499Y-72213D01*
X84499Y-72784D02*
X84442Y-72813D01*
X84328Y-72813D01*
X84270Y-72784D01*
X84242Y-72756D01*
X84213Y-72699D01*
X84213Y-72527D01*
X84242Y-72470D01*
X84270Y-72441D01*
X84328Y-72413D01*
X84442Y-72413D01*
X84499Y-72441D01*
X71014Y-73984D02*
X71100Y-74013D01*
X71243Y-74013D01*
X71300Y-73984D01*
X71329Y-73956D01*
X71357Y-73899D01*
X71357Y-73841D01*
X71329Y-73784D01*
X71300Y-73756D01*
X71243Y-73727D01*
X71129Y-73699D01*
X71071Y-73670D01*
X71043Y-73641D01*
X71014Y-73584D01*
X71014Y-73527D01*
X71043Y-73470D01*
X71071Y-73441D01*
X71129Y-73413D01*
X71271Y-73413D01*
X71357Y-73441D01*
X71614Y-74013D02*
X71614Y-73413D01*
X71871Y-74013D02*
X71871Y-73699D01*
X71842Y-73641D01*
X71785Y-73613D01*
X71700Y-73613D01*
X71642Y-73641D01*
X71614Y-73670D01*
X72385Y-73984D02*
X72328Y-74013D01*
X72214Y-74013D01*
X72157Y-73984D01*
X72128Y-73927D01*
X72128Y-73699D01*
X72157Y-73641D01*
X72214Y-73613D01*
X72328Y-73613D01*
X72385Y-73641D01*
X72414Y-73699D01*
X72414Y-73756D01*
X72128Y-73813D01*
X72899Y-73984D02*
X72842Y-74013D01*
X72728Y-74013D01*
X72671Y-73984D01*
X72642Y-73927D01*
X72642Y-73699D01*
X72671Y-73641D01*
X72728Y-73613D01*
X72842Y-73613D01*
X72899Y-73641D01*
X72928Y-73699D01*
X72928Y-73756D01*
X72642Y-73813D01*
X73099Y-73613D02*
X73328Y-73613D01*
X73185Y-73413D02*
X73185Y-73927D01*
X73213Y-73984D01*
X73271Y-74013D01*
X73328Y-74013D01*
X73528Y-73956D02*
X73556Y-73984D01*
X73528Y-74013D01*
X73499Y-73984D01*
X73528Y-73956D01*
X73528Y-74013D01*
X73528Y-73641D02*
X73556Y-73670D01*
X73528Y-73699D01*
X73499Y-73670D01*
X73528Y-73641D01*
X73528Y-73699D01*
X74585Y-74013D02*
X74242Y-74013D01*
X74414Y-74013D02*
X74414Y-73413D01*
X74357Y-73499D01*
X74299Y-73556D01*
X74242Y-73584D01*
X75270Y-73384D02*
X74756Y-74156D01*
X75785Y-74013D02*
X75442Y-74013D01*
X75614Y-74013D02*
X75614Y-73413D01*
X75557Y-73499D01*
X75499Y-73556D01*
X75442Y-73584D01*
G54D11*
X71043Y-71299D02*
X71243Y-71299D01*
X71329Y-71613D02*
X71043Y-71613D01*
X71043Y-71013D01*
X71329Y-71013D01*
X71586Y-71613D02*
X71586Y-71013D01*
X71814Y-71013D01*
X71872Y-71041D01*
X71900Y-71070D01*
X71929Y-71127D01*
X71929Y-71213D01*
X71900Y-71270D01*
X71872Y-71299D01*
X71814Y-71327D01*
X71586Y-71327D01*
X72157Y-71584D02*
X72243Y-71613D01*
X72386Y-71613D01*
X72443Y-71584D01*
X72472Y-71556D01*
X72500Y-71499D01*
X72500Y-71441D01*
X72472Y-71384D01*
X72443Y-71356D01*
X72386Y-71327D01*
X72272Y-71299D01*
X72214Y-71270D01*
X72186Y-71241D01*
X72157Y-71184D01*
X72157Y-71127D01*
X72186Y-71070D01*
X72214Y-71041D01*
X72272Y-71013D01*
X72414Y-71013D01*
X72500Y-71041D01*
X72728Y-71441D02*
X73014Y-71441D01*
X72671Y-71613D02*
X72871Y-71013D01*
X73071Y-71613D01*
X73728Y-71384D02*
X74185Y-71384D01*
X74842Y-71013D02*
X75042Y-71613D01*
X75242Y-71013D01*
X75442Y-71613D02*
X75442Y-71213D01*
X75442Y-71013D02*
X75413Y-71041D01*
X75442Y-71070D01*
X75470Y-71041D01*
X75442Y-71013D01*
X75442Y-71070D01*
X75728Y-71613D02*
X75728Y-71213D01*
X75728Y-71327D02*
X75756Y-71270D01*
X75785Y-71241D01*
X75842Y-71213D01*
X75899Y-71213D01*
X76013Y-71213D02*
X76242Y-71213D01*
X76099Y-71013D02*
X76099Y-71527D01*
X76127Y-71584D01*
X76185Y-71613D01*
X76242Y-71613D01*
X76699Y-71213D02*
X76699Y-71613D01*
X76442Y-71213D02*
X76442Y-71527D01*
X76470Y-71584D01*
X76528Y-71613D01*
X76613Y-71613D01*
X76670Y-71584D01*
X76699Y-71556D01*
X77071Y-71613D02*
X77013Y-71584D01*
X76985Y-71556D01*
X76956Y-71499D01*
X76956Y-71327D01*
X76985Y-71270D01*
X77013Y-71241D01*
X77071Y-71213D01*
X77156Y-71213D01*
X77213Y-71241D01*
X77242Y-71270D01*
X77271Y-71327D01*
X77271Y-71499D01*
X77242Y-71556D01*
X77213Y-71584D01*
X77156Y-71613D01*
X77071Y-71613D01*
X77471Y-71013D02*
X77871Y-71013D01*
X77471Y-71613D01*
X77871Y-71613D01*
X70300Y-70770D02*
X70300Y-77970D01*
X70300Y-71970D02*
X112300Y-71970D01*
X70300Y-70770D02*
X112300Y-70770D01*
X70300Y-74370D02*
X112300Y-74370D01*
X103500Y-75570D02*
X103500Y-77970D01*
X70300Y-76770D02*
X112300Y-76770D01*
X70300Y-75570D02*
X112300Y-75570D01*
X76900Y-75570D02*
X76900Y-76770D01*
X48020Y-24500D02*
X50000Y-24500D01*
X50000Y-24500D02*
X50000Y-25500D01*
X50000Y-25500D02*
X48000Y-25500D01*
X48000Y-25500D02*
X48000Y-24500D01*
X48000Y-24750D02*
X48250Y-24500D01*
X49020Y-45000D02*
X51000Y-45000D01*
X51000Y-45000D02*
X51000Y-46000D01*
X51000Y-46000D02*
X49000Y-46000D01*
X49000Y-46000D02*
X49000Y-45000D01*
X49000Y-45250D02*
X49250Y-45000D01*
G54D12*
X51001Y-44000D02*
X50981Y-44194D01*
X50925Y-44381D01*
X50833Y-44553D01*
X50710Y-44705D01*
X50559Y-44829D01*
X50387Y-44922D01*
X50201Y-44980D01*
X50006Y-45000D01*
X49813Y-44983D01*
X49626Y-44928D01*
X49452Y-44837D01*
X49300Y-44715D01*
X49175Y-44565D01*
X49080Y-44394D01*
X49021Y-44208D01*
X49000Y-44013D01*
X49016Y-43820D01*
X49070Y-43632D01*
X49159Y-43458D01*
X49280Y-43305D01*
X49429Y-43179D01*
X49600Y-43083D01*
X49786Y-43023D01*
X49980Y-43000D01*
X50173Y-43015D01*
X50361Y-43067D01*
X50536Y-43155D01*
X50690Y-43276D01*
X50817Y-43423D01*
X50914Y-43593D01*
X50976Y-43779D01*
X51000Y-43973D01*
X51001Y-44000D01*
X52501Y-25000D02*
X52481Y-25194D01*
X52425Y-25381D01*
X52333Y-25553D01*
X52210Y-25705D01*
X52059Y-25829D01*
X51887Y-25922D01*
X51701Y-25980D01*
X51506Y-26000D01*
X51313Y-25983D01*
X51126Y-25928D01*
X50952Y-25837D01*
X50800Y-25715D01*
X50675Y-25565D01*
X50580Y-25394D01*
X50521Y-25208D01*
X50500Y-25013D01*
X50516Y-24820D01*
X50570Y-24632D01*
X50659Y-24458D01*
X50780Y-24305D01*
X50929Y-24179D01*
X51100Y-24083D01*
X51286Y-24023D01*
X51480Y-24000D01*
X51673Y-24015D01*
X51861Y-24067D01*
X52036Y-24155D01*
X52190Y-24276D01*
X52317Y-24423D01*
X52414Y-24593D01*
X52476Y-24779D01*
X52500Y-24973D01*
X52501Y-25000D01*
G54D13*
X50000Y-26000D02*
X50000Y-34000D01*
X48000Y-34000D02*
X48000Y-26000D01*
X48000Y-26000D02*
X50000Y-26000D01*
X49500Y-26000D02*
X49500Y-26500D01*
X49500Y-26500D02*
X48500Y-26500D01*
X48500Y-26500D02*
X48500Y-26000D01*
X50000Y-34000D02*
X48000Y-34000D01*
X48500Y-40000D02*
X48500Y-39500D01*
X48500Y-39500D02*
X49500Y-39500D01*
X49500Y-39500D02*
X49500Y-40000D01*
X48000Y-40000D02*
X48000Y-36000D01*
X48000Y-36000D02*
X50000Y-36000D01*
X50000Y-36000D02*
X50000Y-40000D01*
X50000Y-40000D02*
X48000Y-40000D01*
X38226Y-44571D02*
X38226Y-44821D01*
X38226Y-44821D02*
X39726Y-44821D01*
X39726Y-44821D02*
X39726Y-44571D01*
X37976Y-44571D02*
X37976Y-46821D01*
X37976Y-46821D02*
X39976Y-46821D01*
X39976Y-46821D02*
X39976Y-44571D01*
X39976Y-44571D02*
X37976Y-44571D01*
G54D10*
X37976Y-46071D02*
X37976Y-45071D01*
X39976Y-45071D02*
X39976Y-46071D01*
G54D13*
X46297Y-46441D02*
X46297Y-46691D01*
X46297Y-46691D02*
X47797Y-46691D01*
X47797Y-46691D02*
X47797Y-46441D01*
X46047Y-46441D02*
X46047Y-48691D01*
X46047Y-48691D02*
X48047Y-48691D01*
X48047Y-48691D02*
X48047Y-46441D01*
X48047Y-46441D02*
X46047Y-46441D01*
G54D10*
X46047Y-47941D02*
X46047Y-46941D01*
X48047Y-46941D02*
X48047Y-47941D01*
G54D13*
X25750Y-44500D02*
X25750Y-44750D01*
X25750Y-44750D02*
X27250Y-44750D01*
X27250Y-44750D02*
X27250Y-44500D01*
X25500Y-44500D02*
X25500Y-46750D01*
X25500Y-46750D02*
X27500Y-46750D01*
X27500Y-46750D02*
X27500Y-44500D01*
X27500Y-44500D02*
X25500Y-44500D01*
G54D10*
X25500Y-46000D02*
X25500Y-45000D01*
X27500Y-45000D02*
X27500Y-46000D01*
G54D13*
X46297Y-43980D02*
X46297Y-44230D01*
X46297Y-44230D02*
X47797Y-44230D01*
X47797Y-44230D02*
X47797Y-43980D01*
X46047Y-43980D02*
X46047Y-46230D01*
X46047Y-46230D02*
X48047Y-46230D01*
X48047Y-46230D02*
X48047Y-43980D01*
X48047Y-43980D02*
X46047Y-43980D01*
G54D10*
X46047Y-45480D02*
X46047Y-44480D01*
X48047Y-44480D02*
X48047Y-45480D01*
G54D13*
X40785Y-44571D02*
X40785Y-44821D01*
X40785Y-44821D02*
X42285Y-44821D01*
X42285Y-44821D02*
X42285Y-44571D01*
X40535Y-44571D02*
X40535Y-46821D01*
X40535Y-46821D02*
X42535Y-46821D01*
X42535Y-46821D02*
X42535Y-44571D01*
X42535Y-44571D02*
X40535Y-44571D01*
G54D10*
X40535Y-46071D02*
X40535Y-45071D01*
X42535Y-45071D02*
X42535Y-46071D01*
G54D13*
X23250Y-44500D02*
X23250Y-44750D01*
X23250Y-44750D02*
X24750Y-44750D01*
X24750Y-44750D02*
X24750Y-44500D01*
X23000Y-44500D02*
X23000Y-46750D01*
X23000Y-46750D02*
X25000Y-46750D01*
X25000Y-46750D02*
X25000Y-44500D01*
X25000Y-44500D02*
X23000Y-44500D01*
G54D10*
X23000Y-46000D02*
X23000Y-45000D01*
X25000Y-45000D02*
X25000Y-46000D01*
G54D13*
X43250Y-44500D02*
X43250Y-44750D01*
X43250Y-44750D02*
X44750Y-44750D01*
X44750Y-44750D02*
X44750Y-44500D01*
X43000Y-44500D02*
X43000Y-46750D01*
X43000Y-46750D02*
X45000Y-46750D01*
X45000Y-46750D02*
X45000Y-44500D01*
X45000Y-44500D02*
X43000Y-44500D01*
G54D10*
X43000Y-46000D02*
X43000Y-45000D01*
X45000Y-45000D02*
X45000Y-46000D01*
G54D13*
X28250Y-44500D02*
X28250Y-44750D01*
X28250Y-44750D02*
X29750Y-44750D01*
X29750Y-44750D02*
X29750Y-44500D01*
X28000Y-44500D02*
X28000Y-46750D01*
X28000Y-46750D02*
X30000Y-46750D01*
X30000Y-46750D02*
X30000Y-44500D01*
X30000Y-44500D02*
X28000Y-44500D01*
G54D10*
X28000Y-46000D02*
X28000Y-45000D01*
X30000Y-45000D02*
X30000Y-46000D01*
G54D13*
X30750Y-44500D02*
X30750Y-44750D01*
X30750Y-44750D02*
X32250Y-44750D01*
X32250Y-44750D02*
X32250Y-44500D01*
X30500Y-44500D02*
X30500Y-46750D01*
X30500Y-46750D02*
X32500Y-46750D01*
X32500Y-46750D02*
X32500Y-44500D01*
X32500Y-44500D02*
X30500Y-44500D01*
G54D10*
X30500Y-46000D02*
X30500Y-45000D01*
X32500Y-45000D02*
X32500Y-46000D01*
G54D13*
X43500Y-21250D02*
X43500Y-23500D01*
X47500Y-23500D02*
X47500Y-21250D01*
X43750Y-23250D02*
X45750Y-23250D01*
X43500Y-23500D02*
X45500Y-23500D01*
X45500Y-21250D02*
X43500Y-21250D01*
X43750Y-23250D02*
X43750Y-23500D01*
X47250Y-23500D02*
X47250Y-23250D01*
X47250Y-23250D02*
X45750Y-23250D01*
X47500Y-21250D02*
X45500Y-21250D01*
X45500Y-23500D02*
X47500Y-23500D01*
G54D11*
X47457Y-49902D02*
X47437Y-50096D01*
X47381Y-50283D01*
X47289Y-50455D01*
X47166Y-50606D01*
X47016Y-50731D01*
X46844Y-50823D01*
X46658Y-50881D01*
X46463Y-50901D01*
X46270Y-50884D01*
X46083Y-50829D01*
X45910Y-50738D01*
X45758Y-50616D01*
X45632Y-50466D01*
X45538Y-50295D01*
X45479Y-50109D01*
X45458Y-49915D01*
X45474Y-49722D01*
X45528Y-49534D01*
X45617Y-49361D01*
X45738Y-49208D01*
X45887Y-49081D01*
X46057Y-48986D01*
X46243Y-48926D01*
X46437Y-48903D01*
X46630Y-48918D01*
X46818Y-48970D01*
X46992Y-49058D01*
X47146Y-49178D01*
X47274Y-49326D01*
X47370Y-49496D01*
X47432Y-49681D01*
X47456Y-49875D01*
X47457Y-49902D01*
X46707Y-50902D02*
X46707Y-50652D01*
X46707Y-50652D02*
X46207Y-50652D01*
X46207Y-50652D02*
X46207Y-50902D01*
X28500Y-21500D02*
X28480Y-21694D01*
X28424Y-21881D01*
X28332Y-22053D01*
X28209Y-22204D01*
X28059Y-22329D01*
X27887Y-22421D01*
X27701Y-22479D01*
X27506Y-22499D01*
X27313Y-22482D01*
X27126Y-22427D01*
X26953Y-22336D01*
X26801Y-22214D01*
X26675Y-22064D01*
X26581Y-21893D01*
X26522Y-21707D01*
X26501Y-21513D01*
X26517Y-21320D01*
X26571Y-21132D01*
X26660Y-20959D01*
X26781Y-20806D01*
X26930Y-20679D01*
X27100Y-20584D01*
X27286Y-20524D01*
X27480Y-20501D01*
X27673Y-20516D01*
X27861Y-20568D01*
X28035Y-20656D01*
X28189Y-20776D01*
X28317Y-20924D01*
X28413Y-21094D01*
X28475Y-21279D01*
X28499Y-21473D01*
X28500Y-21500D01*
X27750Y-22500D02*
X27750Y-22250D01*
X27750Y-22250D02*
X27250Y-22250D01*
X27250Y-22250D02*
X27250Y-22500D01*
X48598Y-47047D02*
X48798Y-47047D01*
X51598Y-47047D02*
X51398Y-47047D01*
X51398Y-47047D02*
X51398Y-46647D01*
X51398Y-46647D02*
X48798Y-46647D01*
X48798Y-46647D02*
X48798Y-47447D01*
X48798Y-47447D02*
X51398Y-47447D01*
X51398Y-47447D02*
X51398Y-47047D01*
X48798Y-46847D02*
X48998Y-46647D01*
X52000Y-30500D02*
X52000Y-30700D01*
X52000Y-33500D02*
X52000Y-33300D01*
X52000Y-33300D02*
X52400Y-33300D01*
X52400Y-33300D02*
X52400Y-30700D01*
X52400Y-30700D02*
X51600Y-30700D01*
X51600Y-30700D02*
X51600Y-33300D01*
X51600Y-33300D02*
X52000Y-33300D01*
X52200Y-30700D02*
X52400Y-30900D01*
X50417Y-34941D02*
X50217Y-34941D01*
X47417Y-34941D02*
X47617Y-34941D01*
X47617Y-34941D02*
X47617Y-35341D01*
X47617Y-35341D02*
X50217Y-35341D01*
X50217Y-35341D02*
X50217Y-34541D01*
X50217Y-34541D02*
X47617Y-34541D01*
X47617Y-34541D02*
X47617Y-34941D01*
X50217Y-35141D02*
X50017Y-35341D01*
X41512Y-49508D02*
X41712Y-49508D01*
X44512Y-49508D02*
X44312Y-49508D01*
X44312Y-49508D02*
X44312Y-49108D01*
X44312Y-49108D02*
X41712Y-49108D01*
X41712Y-49108D02*
X41712Y-49908D01*
X41712Y-49908D02*
X44312Y-49908D01*
X44312Y-49908D02*
X44312Y-49508D01*
X41712Y-49308D02*
X41912Y-49108D01*
X30000Y-24500D02*
X29800Y-24500D01*
X27000Y-24500D02*
X27200Y-24500D01*
X27200Y-24500D02*
X27200Y-24900D01*
X27200Y-24900D02*
X29800Y-24900D01*
X29800Y-24900D02*
X29800Y-24100D01*
X29800Y-24100D02*
X27200Y-24100D01*
X27200Y-24100D02*
X27200Y-24500D01*
X29800Y-24700D02*
X29600Y-24900D01*
X50500Y-41500D02*
X50300Y-41500D01*
X47500Y-41500D02*
X47700Y-41500D01*
X47700Y-41500D02*
X47700Y-41900D01*
X47700Y-41900D02*
X50300Y-41900D01*
X50300Y-41900D02*
X50300Y-41100D01*
X50300Y-41100D02*
X47700Y-41100D01*
X47700Y-41100D02*
X47700Y-41500D01*
X50300Y-41700D02*
X50100Y-41900D01*
X47500Y-42500D02*
X47700Y-42500D01*
X50500Y-42500D02*
X50300Y-42500D01*
X50300Y-42500D02*
X50300Y-42100D01*
X50300Y-42100D02*
X47700Y-42100D01*
X47700Y-42100D02*
X47700Y-42900D01*
X47700Y-42900D02*
X50300Y-42900D01*
X50300Y-42900D02*
X50300Y-42500D01*
X47700Y-42300D02*
X47900Y-42100D01*
X52000Y-36500D02*
X52000Y-36700D01*
X52000Y-39500D02*
X52000Y-39300D01*
X52000Y-39300D02*
X52400Y-39300D01*
X52400Y-39300D02*
X52400Y-36700D01*
X52400Y-36700D02*
X51600Y-36700D01*
X51600Y-36700D02*
X51600Y-39300D01*
X51600Y-39300D02*
X52000Y-39300D01*
X52200Y-36700D02*
X52400Y-36900D01*
X35252Y-46457D02*
X35232Y-46651D01*
X35176Y-46838D01*
X35084Y-47010D01*
X34961Y-47161D01*
X34811Y-47286D01*
X34639Y-47378D01*
X34453Y-47436D01*
X34258Y-47456D01*
X34065Y-47439D01*
X33878Y-47384D01*
X33705Y-47293D01*
X33553Y-47171D01*
X33427Y-47021D01*
X33333Y-46850D01*
X33274Y-46664D01*
X33253Y-46470D01*
X33269Y-46277D01*
X33323Y-46089D01*
X33412Y-45916D01*
X33533Y-45763D01*
X33682Y-45636D01*
X33852Y-45541D01*
X34038Y-45481D01*
X34232Y-45458D01*
X34425Y-45473D01*
X34613Y-45525D01*
X34787Y-45613D01*
X34941Y-45733D01*
X35069Y-45881D01*
X35165Y-46051D01*
X35227Y-46236D01*
X35251Y-46430D01*
X35252Y-46457D01*
X33252Y-46707D02*
X33502Y-46707D01*
X33502Y-46707D02*
X33502Y-46207D01*
X33502Y-46207D02*
X33252Y-46207D01*
X26059Y-48130D02*
X26259Y-48130D01*
X29059Y-48130D02*
X28859Y-48130D01*
X28859Y-48130D02*
X28859Y-47730D01*
X28859Y-47730D02*
X26259Y-47730D01*
X26259Y-47730D02*
X26259Y-48530D01*
X26259Y-48530D02*
X28859Y-48530D01*
X28859Y-48530D02*
X28859Y-48130D01*
X26259Y-47930D02*
X26459Y-47730D01*
X38000Y-25000D02*
X36500Y-26500D01*
X36500Y-26500D02*
X36500Y-27000D01*
X36500Y-27000D02*
X37000Y-27500D01*
X37000Y-27500D02*
X38000Y-27500D01*
X38000Y-27500D02*
X39000Y-26500D01*
X39000Y-26500D02*
X39000Y-25500D01*
X39000Y-25500D02*
X38500Y-25000D01*
X38500Y-25000D02*
X38000Y-25000D01*
X32000Y-25000D02*
X30500Y-26500D01*
X30500Y-26500D02*
X30500Y-27000D01*
X30500Y-27000D02*
X31000Y-27500D01*
X31000Y-27500D02*
X32000Y-27500D01*
X32000Y-27500D02*
X33000Y-26500D01*
X33000Y-26500D02*
X33000Y-25500D01*
X33000Y-25500D02*
X32500Y-25000D01*
X32500Y-25000D02*
X32000Y-25000D01*
X41000Y-25000D02*
X39500Y-26500D01*
X39500Y-26500D02*
X39500Y-27000D01*
X39500Y-27000D02*
X40000Y-27500D01*
X40000Y-27500D02*
X41000Y-27500D01*
X41000Y-27500D02*
X42000Y-26500D01*
X42000Y-26500D02*
X42000Y-25500D01*
X42000Y-25500D02*
X41500Y-25000D01*
X41500Y-25000D02*
X41000Y-25000D01*
X35000Y-25000D02*
X33500Y-26500D01*
X33500Y-26500D02*
X33500Y-27000D01*
X33500Y-27000D02*
X34000Y-27500D01*
X34000Y-27500D02*
X35000Y-27500D01*
X35000Y-27500D02*
X36000Y-26500D01*
X36000Y-26500D02*
X36000Y-25500D01*
X36000Y-25500D02*
X35500Y-25000D01*
X35500Y-25000D02*
X35000Y-25000D01*
X44000Y-25000D02*
X42500Y-26500D01*
X42500Y-26500D02*
X42500Y-27000D01*
X42500Y-27000D02*
X43000Y-27500D01*
X43000Y-27500D02*
X44000Y-27500D01*
X44000Y-27500D02*
X45000Y-26500D01*
X45000Y-26500D02*
X45000Y-25500D01*
X45000Y-25500D02*
X44500Y-25000D01*
X44500Y-25000D02*
X44000Y-25000D01*
X29000Y-25000D02*
X27500Y-26500D01*
X27500Y-26500D02*
X27500Y-27000D01*
X27500Y-27000D02*
X28000Y-27500D01*
X28000Y-27500D02*
X29000Y-27500D01*
X29000Y-27500D02*
X30000Y-26500D01*
X30000Y-26500D02*
X30000Y-25500D01*
X30000Y-25500D02*
X29500Y-25000D01*
X29500Y-25000D02*
X29000Y-25000D01*
G54D13*
X50900Y-50000D02*
X50882Y-50174D01*
X50832Y-50342D01*
X50749Y-50498D01*
X50638Y-50634D01*
X50503Y-50746D01*
X50348Y-50829D01*
X50180Y-50881D01*
X50006Y-50899D01*
X49832Y-50884D01*
X49663Y-50834D01*
X49508Y-50753D01*
X49371Y-50643D01*
X49258Y-50508D01*
X49173Y-50354D01*
X49120Y-50187D01*
X49101Y-50012D01*
X49115Y-49838D01*
X49164Y-49669D01*
X49244Y-49513D01*
X49353Y-49375D01*
X49487Y-49261D01*
X49640Y-49176D01*
X49807Y-49121D01*
X49982Y-49101D01*
X50156Y-49114D01*
X50325Y-49161D01*
X50482Y-49241D01*
X50620Y-49349D01*
X50735Y-49482D01*
X50822Y-49634D01*
X50877Y-49801D01*
X50899Y-49975D01*
X50900Y-50000D01*
X50900Y-22500D02*
X50882Y-22674D01*
X50832Y-22842D01*
X50749Y-22998D01*
X50638Y-23134D01*
X50503Y-23246D01*
X50348Y-23329D01*
X50180Y-23381D01*
X50006Y-23399D01*
X49832Y-23384D01*
X49663Y-23334D01*
X49508Y-23253D01*
X49371Y-23143D01*
X49258Y-23008D01*
X49173Y-22854D01*
X49120Y-22687D01*
X49101Y-22512D01*
X49115Y-22338D01*
X49164Y-22169D01*
X49244Y-22013D01*
X49353Y-21875D01*
X49487Y-21761D01*
X49640Y-21676D01*
X49807Y-21621D01*
X49982Y-21601D01*
X50156Y-21614D01*
X50325Y-21661D01*
X50482Y-21741D01*
X50620Y-21849D01*
X50735Y-21982D01*
X50822Y-22134D01*
X50877Y-22301D01*
X50899Y-22475D01*
X50900Y-22500D01*
X23400Y-50000D02*
X23382Y-50174D01*
X23332Y-50342D01*
X23249Y-50498D01*
X23138Y-50634D01*
X23003Y-50746D01*
X22848Y-50829D01*
X22680Y-50881D01*
X22506Y-50899D01*
X22332Y-50884D01*
X22163Y-50834D01*
X22008Y-50753D01*
X21871Y-50643D01*
X21758Y-50508D01*
X21673Y-50354D01*
X21620Y-50187D01*
X21601Y-50012D01*
X21615Y-49838D01*
X21664Y-49669D01*
X21744Y-49513D01*
X21853Y-49375D01*
X21987Y-49261D01*
X22140Y-49176D01*
X22307Y-49121D01*
X22482Y-49101D01*
X22656Y-49114D01*
X22825Y-49161D01*
X22982Y-49241D01*
X23120Y-49349D01*
X23235Y-49482D01*
X23322Y-49634D01*
X23377Y-49801D01*
X23399Y-49975D01*
X23400Y-50000D01*
X45250Y-44000D02*
X33750Y-44000D01*
X33750Y-44000D02*
X33750Y-39000D01*
X33750Y-39000D02*
X45250Y-39000D01*
X45250Y-39000D02*
X45250Y-44000D01*
X45250Y-38500D02*
X33750Y-38500D01*
X33750Y-38500D02*
X33750Y-33500D01*
X33750Y-33500D02*
X45250Y-33500D01*
X45250Y-33500D02*
X45250Y-38500D01*
X45250Y-33000D02*
X33750Y-33000D01*
X33750Y-33000D02*
X33750Y-28000D01*
X33750Y-28000D02*
X45250Y-28000D01*
X45250Y-28000D02*
X45250Y-33000D01*
X21750Y-39000D02*
X33250Y-39000D01*
X33250Y-39000D02*
X33250Y-44000D01*
X33250Y-44000D02*
X21750Y-44000D01*
X21750Y-44000D02*
X21750Y-39000D01*
X21750Y-33500D02*
X33250Y-33500D01*
X33250Y-33500D02*
X33250Y-38500D01*
X33250Y-38500D02*
X21750Y-38500D01*
X21750Y-38500D02*
X21750Y-33500D01*
X21750Y-28000D02*
X33250Y-28000D01*
X33250Y-28000D02*
X33250Y-33000D01*
X33250Y-33000D02*
X21750Y-33000D01*
X21750Y-33000D02*
X21750Y-28000D01*
G54D11*
X46000Y-40000D02*
X46000Y-40300D01*
X46000Y-40300D02*
X45600Y-40300D01*
X45600Y-40300D02*
X45600Y-42700D01*
X45600Y-42700D02*
X46000Y-42700D01*
X46000Y-42700D02*
X46000Y-43000D01*
X46000Y-42700D02*
X46400Y-42700D01*
X46400Y-42700D02*
X46400Y-40300D01*
X46400Y-40300D02*
X46000Y-40300D01*
X45600Y-40500D02*
X46400Y-40500D01*
X46400Y-40600D02*
X45600Y-40600D01*
X46000Y-34500D02*
X46000Y-34800D01*
X46000Y-34800D02*
X45600Y-34800D01*
X45600Y-34800D02*
X45600Y-37200D01*
X45600Y-37200D02*
X46000Y-37200D01*
X46000Y-37200D02*
X46000Y-37500D01*
X46000Y-37200D02*
X46400Y-37200D01*
X46400Y-37200D02*
X46400Y-34800D01*
X46400Y-34800D02*
X46000Y-34800D01*
X45600Y-35000D02*
X46400Y-35000D01*
X46400Y-35100D02*
X45600Y-35100D01*
X46000Y-29000D02*
X46000Y-29300D01*
X46000Y-29300D02*
X45600Y-29300D01*
X45600Y-29300D02*
X45600Y-31700D01*
X45600Y-31700D02*
X46000Y-31700D01*
X46000Y-31700D02*
X46000Y-32000D01*
X46000Y-31700D02*
X46400Y-31700D01*
X46400Y-31700D02*
X46400Y-29300D01*
X46400Y-29300D02*
X46000Y-29300D01*
X45600Y-29500D02*
X46400Y-29500D01*
X46400Y-29600D02*
X45600Y-29600D01*
X21000Y-43000D02*
X21000Y-42700D01*
X21000Y-42700D02*
X21400Y-42700D01*
X21400Y-42700D02*
X21400Y-40300D01*
X21400Y-40300D02*
X21000Y-40300D01*
X21000Y-40300D02*
X21000Y-40000D01*
X21000Y-40300D02*
X20600Y-40300D01*
X20600Y-40300D02*
X20600Y-42700D01*
X20600Y-42700D02*
X21000Y-42700D01*
X21400Y-42500D02*
X20600Y-42500D01*
X20600Y-42400D02*
X21400Y-42400D01*
X21000Y-37500D02*
X21000Y-37200D01*
X21000Y-37200D02*
X21400Y-37200D01*
X21400Y-37200D02*
X21400Y-34800D01*
X21400Y-34800D02*
X21000Y-34800D01*
X21000Y-34800D02*
X21000Y-34500D01*
X21000Y-34800D02*
X20600Y-34800D01*
X20600Y-34800D02*
X20600Y-37200D01*
X20600Y-37200D02*
X21000Y-37200D01*
X21400Y-37000D02*
X20600Y-37000D01*
X20600Y-36900D02*
X21400Y-36900D01*
X21000Y-32000D02*
X21000Y-31700D01*
X21000Y-31700D02*
X21400Y-31700D01*
X21400Y-31700D02*
X21400Y-29300D01*
X21400Y-29300D02*
X21000Y-29300D01*
X21000Y-29300D02*
X21000Y-29000D01*
X21000Y-29300D02*
X20600Y-29300D01*
X20600Y-29300D02*
X20600Y-31700D01*
X20600Y-31700D02*
X21000Y-31700D01*
X21400Y-31500D02*
X20600Y-31500D01*
X20600Y-31400D02*
X21400Y-31400D01*
G54D14*
X47434Y-25124D02*
X47415Y-25143D01*
X47358Y-25162D01*
X47320Y-25162D01*
X47262Y-25143D01*
X47224Y-25105D01*
X47205Y-25067D01*
X47186Y-24990D01*
X47186Y-24933D01*
X47205Y-24857D01*
X47224Y-24819D01*
X47262Y-24781D01*
X47320Y-24762D01*
X47358Y-24762D01*
X47415Y-24781D01*
X47434Y-24800D01*
X47586Y-24800D02*
X47605Y-24781D01*
X47643Y-24762D01*
X47739Y-24762D01*
X47777Y-24781D01*
X47796Y-24800D01*
X47815Y-24838D01*
X47815Y-24876D01*
X47796Y-24933D01*
X47567Y-25162D01*
X47815Y-25162D01*
X48743Y-24262D02*
X48514Y-24262D01*
X48628Y-24262D02*
X48628Y-23862D01*
X48590Y-23919D01*
X48552Y-23957D01*
X48514Y-23976D01*
X48876Y-23862D02*
X49143Y-23862D01*
X48971Y-24262D01*
X49295Y-23995D02*
X49295Y-24395D01*
X49295Y-24014D02*
X49333Y-23995D01*
X49410Y-23995D01*
X49448Y-24014D01*
X49467Y-24033D01*
X49486Y-24071D01*
X49486Y-24186D01*
X49467Y-24224D01*
X49448Y-24243D01*
X49410Y-24262D01*
X49333Y-24262D01*
X49295Y-24243D01*
X48434Y-45624D02*
X48415Y-45643D01*
X48358Y-45662D01*
X48320Y-45662D01*
X48262Y-45643D01*
X48224Y-45605D01*
X48205Y-45567D01*
X48186Y-45490D01*
X48186Y-45433D01*
X48205Y-45357D01*
X48224Y-45319D01*
X48262Y-45281D01*
X48320Y-45262D01*
X48358Y-45262D01*
X48415Y-45281D01*
X48434Y-45300D01*
X48777Y-45395D02*
X48777Y-45662D01*
X48681Y-45243D02*
X48586Y-45529D01*
X48834Y-45529D01*
X51243Y-45662D02*
X51014Y-45662D01*
X51128Y-45662D02*
X51128Y-45262D01*
X51090Y-45319D01*
X51052Y-45357D01*
X51014Y-45376D01*
X51376Y-45262D02*
X51643Y-45262D01*
X51471Y-45662D01*
X51795Y-45395D02*
X51795Y-45795D01*
X51795Y-45414D02*
X51833Y-45395D01*
X51910Y-45395D01*
X51948Y-45414D01*
X51967Y-45433D01*
X51986Y-45471D01*
X51986Y-45586D01*
X51967Y-45624D01*
X51948Y-45643D01*
X51910Y-45662D01*
X51833Y-45662D01*
X51795Y-45643D01*
G54D12*
X49950Y-43594D02*
X49936Y-43608D01*
X49893Y-43622D01*
X49864Y-43622D01*
X49821Y-43608D01*
X49793Y-43580D01*
X49778Y-43551D01*
X49764Y-43494D01*
X49764Y-43451D01*
X49778Y-43394D01*
X49793Y-43365D01*
X49821Y-43337D01*
X49864Y-43322D01*
X49893Y-43322D01*
X49936Y-43337D01*
X49950Y-43351D01*
X50050Y-43322D02*
X50236Y-43322D01*
X50136Y-43437D01*
X50178Y-43437D01*
X50207Y-43451D01*
X50221Y-43465D01*
X50236Y-43494D01*
X50236Y-43565D01*
X50221Y-43594D01*
X50207Y-43608D01*
X50178Y-43622D01*
X50093Y-43622D01*
X50064Y-43608D01*
X50050Y-43594D01*
X49958Y-44621D02*
X49816Y-44621D01*
X49887Y-44621D02*
X49887Y-44321D01*
X49863Y-44364D01*
X49839Y-44393D01*
X49816Y-44407D01*
X50173Y-44421D02*
X50173Y-44621D01*
X50066Y-44421D02*
X50066Y-44579D01*
X50077Y-44607D01*
X50101Y-44621D01*
X50137Y-44621D01*
X50161Y-44607D01*
X50173Y-44593D01*
X51094Y-25050D02*
X51108Y-25064D01*
X51122Y-25107D01*
X51122Y-25136D01*
X51108Y-25179D01*
X51080Y-25207D01*
X51051Y-25222D01*
X50994Y-25236D01*
X50951Y-25236D01*
X50894Y-25222D01*
X50865Y-25207D01*
X50837Y-25179D01*
X50822Y-25136D01*
X50822Y-25107D01*
X50837Y-25064D01*
X50851Y-25050D01*
X51122Y-24764D02*
X51122Y-24936D01*
X51122Y-24850D02*
X50822Y-24850D01*
X50865Y-24879D01*
X50894Y-24907D01*
X50908Y-24936D01*
X52121Y-25042D02*
X52121Y-25184D01*
X52121Y-25113D02*
X51821Y-25113D01*
X51864Y-25137D01*
X51893Y-25161D01*
X51907Y-25184D01*
X51921Y-24827D02*
X52121Y-24827D01*
X51921Y-24934D02*
X52079Y-24934D01*
X52107Y-24923D01*
X52121Y-24899D01*
X52121Y-24863D01*
X52107Y-24839D01*
X52093Y-24827D01*
G54D15*
X49143Y-28343D02*
X49629Y-28343D01*
X49686Y-28321D01*
X49714Y-28300D01*
X49743Y-28257D01*
X49743Y-28171D01*
X49714Y-28129D01*
X49686Y-28107D01*
X49629Y-28086D01*
X49143Y-28086D01*
X49200Y-27893D02*
X49171Y-27872D01*
X49143Y-27829D01*
X49143Y-27722D01*
X49171Y-27679D01*
X49200Y-27658D01*
X49257Y-27636D01*
X49314Y-27636D01*
X49400Y-27658D01*
X49743Y-27915D01*
X49743Y-27636D01*
X48343Y-31058D02*
X48743Y-31058D01*
X48114Y-31165D02*
X48543Y-31272D01*
X48543Y-30994D01*
X48143Y-30736D02*
X48143Y-30693D01*
X48171Y-30650D01*
X48200Y-30629D01*
X48257Y-30608D01*
X48371Y-30586D01*
X48514Y-30586D01*
X48629Y-30608D01*
X48686Y-30629D01*
X48714Y-30650D01*
X48743Y-30693D01*
X48743Y-30736D01*
X48714Y-30779D01*
X48686Y-30800D01*
X48629Y-30822D01*
X48514Y-30843D01*
X48371Y-30843D01*
X48257Y-30822D01*
X48200Y-30800D01*
X48171Y-30779D01*
X48143Y-30736D01*
X48143Y-30200D02*
X48143Y-30286D01*
X48171Y-30329D01*
X48200Y-30350D01*
X48286Y-30393D01*
X48400Y-30414D01*
X48629Y-30414D01*
X48686Y-30393D01*
X48714Y-30371D01*
X48743Y-30329D01*
X48743Y-30243D01*
X48714Y-30200D01*
X48686Y-30179D01*
X48629Y-30157D01*
X48486Y-30157D01*
X48429Y-30179D01*
X48400Y-30200D01*
X48371Y-30243D01*
X48371Y-30329D01*
X48400Y-30371D01*
X48429Y-30393D01*
X48486Y-30414D01*
X48743Y-29942D02*
X48743Y-29857D01*
X48714Y-29814D01*
X48686Y-29792D01*
X48600Y-29750D01*
X48486Y-29728D01*
X48257Y-29728D01*
X48200Y-29750D01*
X48171Y-29771D01*
X48143Y-29814D01*
X48143Y-29900D01*
X48171Y-29942D01*
X48200Y-29964D01*
X48257Y-29985D01*
X48400Y-29985D01*
X48457Y-29964D01*
X48486Y-29942D01*
X48514Y-29900D01*
X48514Y-29814D01*
X48486Y-29771D01*
X48457Y-29750D01*
X48400Y-29728D01*
X48657Y-40083D02*
X48657Y-40650D01*
X48679Y-40717D01*
X48700Y-40750D01*
X48743Y-40783D01*
X48829Y-40783D01*
X48871Y-40750D01*
X48893Y-40717D01*
X48914Y-40650D01*
X48914Y-40083D01*
X49364Y-40783D02*
X49107Y-40783D01*
X49235Y-40783D02*
X49235Y-40083D01*
X49192Y-40183D01*
X49150Y-40250D01*
X49107Y-40283D01*
G54D16*
X48583Y-38848D02*
X48583Y-38619D01*
X49283Y-38734D02*
X48583Y-38734D01*
X49283Y-38295D02*
X49283Y-38486D01*
X48583Y-38486D01*
X48583Y-38086D02*
X48583Y-38047D01*
X48617Y-38009D01*
X48650Y-37990D01*
X48717Y-37971D01*
X48850Y-37952D01*
X49017Y-37952D01*
X49150Y-37971D01*
X49217Y-37990D01*
X49250Y-38009D01*
X49283Y-38047D01*
X49283Y-38086D01*
X49250Y-38124D01*
X49217Y-38143D01*
X49150Y-38162D01*
X49017Y-38181D01*
X48850Y-38181D01*
X48717Y-38162D01*
X48650Y-38143D01*
X48617Y-38124D01*
X48583Y-38086D01*
X48883Y-37724D02*
X48850Y-37762D01*
X48817Y-37781D01*
X48750Y-37800D01*
X48717Y-37800D01*
X48650Y-37781D01*
X48617Y-37762D01*
X48583Y-37724D01*
X48583Y-37647D01*
X48617Y-37609D01*
X48650Y-37590D01*
X48717Y-37571D01*
X48750Y-37571D01*
X48817Y-37590D01*
X48850Y-37609D01*
X48883Y-37647D01*
X48883Y-37724D01*
X48917Y-37762D01*
X48950Y-37781D01*
X49017Y-37800D01*
X49150Y-37800D01*
X49217Y-37781D01*
X49250Y-37762D01*
X49283Y-37724D01*
X49283Y-37647D01*
X49250Y-37609D01*
X49217Y-37590D01*
X49150Y-37571D01*
X49017Y-37571D01*
X48950Y-37590D01*
X48917Y-37609D01*
X48883Y-37647D01*
X48650Y-37419D02*
X48617Y-37400D01*
X48583Y-37362D01*
X48583Y-37266D01*
X48617Y-37228D01*
X48650Y-37209D01*
X48717Y-37190D01*
X48783Y-37190D01*
X48883Y-37209D01*
X49283Y-37438D01*
X49283Y-37190D01*
G54D10*
X38754Y-46442D02*
X38754Y-46142D01*
X38869Y-46142D01*
X38897Y-46157D01*
X38912Y-46171D01*
X38926Y-46200D01*
X38926Y-46242D01*
X38912Y-46271D01*
X38897Y-46285D01*
X38869Y-46300D01*
X38754Y-46300D01*
X39040Y-46171D02*
X39054Y-46157D01*
X39083Y-46142D01*
X39154Y-46142D01*
X39183Y-46157D01*
X39197Y-46171D01*
X39212Y-46200D01*
X39212Y-46228D01*
X39197Y-46271D01*
X39026Y-46442D01*
X39212Y-46442D01*
X38283Y-44942D02*
X38283Y-44642D01*
X38398Y-44642D01*
X38426Y-44657D01*
X38441Y-44671D01*
X38455Y-44700D01*
X38455Y-44742D01*
X38441Y-44771D01*
X38426Y-44785D01*
X38398Y-44800D01*
X38283Y-44800D01*
X38583Y-44942D02*
X38583Y-44642D01*
X38712Y-44942D02*
X38712Y-44785D01*
X38698Y-44757D01*
X38669Y-44742D01*
X38626Y-44742D01*
X38598Y-44757D01*
X38583Y-44771D01*
X38983Y-44942D02*
X38983Y-44785D01*
X38969Y-44757D01*
X38940Y-44742D01*
X38883Y-44742D01*
X38854Y-44757D01*
X38983Y-44928D02*
X38954Y-44942D01*
X38883Y-44942D01*
X38854Y-44928D01*
X38840Y-44900D01*
X38840Y-44871D01*
X38854Y-44842D01*
X38883Y-44828D01*
X38954Y-44828D01*
X38983Y-44814D01*
X39125Y-44942D02*
X39125Y-44742D01*
X39125Y-44800D02*
X39140Y-44771D01*
X39154Y-44757D01*
X39183Y-44742D01*
X39211Y-44742D01*
X39426Y-44928D02*
X39397Y-44942D01*
X39340Y-44942D01*
X39311Y-44928D01*
X39297Y-44900D01*
X39297Y-44785D01*
X39311Y-44757D01*
X39340Y-44742D01*
X39397Y-44742D01*
X39426Y-44757D01*
X39440Y-44785D01*
X39440Y-44814D01*
X39297Y-44842D01*
X39554Y-44928D02*
X39583Y-44942D01*
X39640Y-44942D01*
X39668Y-44928D01*
X39683Y-44900D01*
X39683Y-44885D01*
X39668Y-44857D01*
X39640Y-44842D01*
X39597Y-44842D01*
X39568Y-44828D01*
X39554Y-44800D01*
X39554Y-44785D01*
X39568Y-44757D01*
X39597Y-44742D01*
X39640Y-44742D01*
X39668Y-44757D01*
X46825Y-48312D02*
X46825Y-48012D01*
X46940Y-48012D01*
X46968Y-48027D01*
X46983Y-48041D01*
X46997Y-48070D01*
X46997Y-48112D01*
X46983Y-48141D01*
X46968Y-48155D01*
X46940Y-48170D01*
X46825Y-48170D01*
X47283Y-48312D02*
X47111Y-48312D01*
X47197Y-48312D02*
X47197Y-48012D01*
X47168Y-48055D01*
X47140Y-48084D01*
X47111Y-48098D01*
X26278Y-46371D02*
X26278Y-46071D01*
X26393Y-46071D01*
X26421Y-46086D01*
X26436Y-46100D01*
X26450Y-46129D01*
X26450Y-46171D01*
X26436Y-46200D01*
X26421Y-46214D01*
X26393Y-46229D01*
X26278Y-46229D01*
X26550Y-46071D02*
X26736Y-46071D01*
X26636Y-46186D01*
X26678Y-46186D01*
X26707Y-46200D01*
X26721Y-46214D01*
X26736Y-46243D01*
X26736Y-46314D01*
X26721Y-46343D01*
X26707Y-46357D01*
X26678Y-46371D01*
X26593Y-46371D01*
X26564Y-46357D01*
X26550Y-46343D01*
X25807Y-44871D02*
X25807Y-44571D01*
X25922Y-44571D01*
X25950Y-44586D01*
X25965Y-44600D01*
X25979Y-44629D01*
X25979Y-44671D01*
X25965Y-44700D01*
X25950Y-44714D01*
X25922Y-44729D01*
X25807Y-44729D01*
X26107Y-44871D02*
X26107Y-44571D01*
X26236Y-44871D02*
X26236Y-44714D01*
X26222Y-44686D01*
X26193Y-44671D01*
X26150Y-44671D01*
X26122Y-44686D01*
X26107Y-44700D01*
X26507Y-44871D02*
X26507Y-44714D01*
X26493Y-44686D01*
X26464Y-44671D01*
X26407Y-44671D01*
X26378Y-44686D01*
X26507Y-44857D02*
X26478Y-44871D01*
X26407Y-44871D01*
X26378Y-44857D01*
X26364Y-44829D01*
X26364Y-44800D01*
X26378Y-44771D01*
X26407Y-44757D01*
X26478Y-44757D01*
X26507Y-44743D01*
X26649Y-44871D02*
X26649Y-44671D01*
X26649Y-44729D02*
X26664Y-44700D01*
X26678Y-44686D01*
X26707Y-44671D01*
X26735Y-44671D01*
X26950Y-44857D02*
X26921Y-44871D01*
X26864Y-44871D01*
X26835Y-44857D01*
X26821Y-44829D01*
X26821Y-44714D01*
X26835Y-44686D01*
X26864Y-44671D01*
X26921Y-44671D01*
X26950Y-44686D01*
X26964Y-44714D01*
X26964Y-44743D01*
X26821Y-44771D01*
X27078Y-44857D02*
X27107Y-44871D01*
X27164Y-44871D01*
X27192Y-44857D01*
X27207Y-44829D01*
X27207Y-44814D01*
X27192Y-44786D01*
X27164Y-44771D01*
X27121Y-44771D01*
X27092Y-44757D01*
X27078Y-44729D01*
X27078Y-44714D01*
X27092Y-44686D01*
X27121Y-44671D01*
X27164Y-44671D01*
X27192Y-44686D01*
X46825Y-45851D02*
X46825Y-45551D01*
X46940Y-45551D01*
X46968Y-45566D01*
X46983Y-45580D01*
X46997Y-45609D01*
X46997Y-45651D01*
X46983Y-45680D01*
X46968Y-45694D01*
X46940Y-45709D01*
X46825Y-45709D01*
X47254Y-45651D02*
X47254Y-45851D01*
X47183Y-45537D02*
X47111Y-45751D01*
X47297Y-45751D01*
X41313Y-46442D02*
X41313Y-46142D01*
X41428Y-46142D01*
X41456Y-46157D01*
X41471Y-46171D01*
X41485Y-46200D01*
X41485Y-46242D01*
X41471Y-46271D01*
X41456Y-46285D01*
X41428Y-46300D01*
X41313Y-46300D01*
X41756Y-46142D02*
X41613Y-46142D01*
X41599Y-46285D01*
X41613Y-46271D01*
X41642Y-46257D01*
X41713Y-46257D01*
X41742Y-46271D01*
X41756Y-46285D01*
X41771Y-46314D01*
X41771Y-46385D01*
X41756Y-46414D01*
X41742Y-46428D01*
X41713Y-46442D01*
X41642Y-46442D01*
X41613Y-46428D01*
X41599Y-46414D01*
X40842Y-44942D02*
X40842Y-44642D01*
X40957Y-44642D01*
X40985Y-44657D01*
X41000Y-44671D01*
X41014Y-44700D01*
X41014Y-44742D01*
X41000Y-44771D01*
X40985Y-44785D01*
X40957Y-44800D01*
X40842Y-44800D01*
X41142Y-44942D02*
X41142Y-44642D01*
X41271Y-44942D02*
X41271Y-44785D01*
X41257Y-44757D01*
X41228Y-44742D01*
X41185Y-44742D01*
X41157Y-44757D01*
X41142Y-44771D01*
X41542Y-44942D02*
X41542Y-44785D01*
X41528Y-44757D01*
X41499Y-44742D01*
X41442Y-44742D01*
X41413Y-44757D01*
X41542Y-44928D02*
X41513Y-44942D01*
X41442Y-44942D01*
X41413Y-44928D01*
X41399Y-44900D01*
X41399Y-44871D01*
X41413Y-44842D01*
X41442Y-44828D01*
X41513Y-44828D01*
X41542Y-44814D01*
X41684Y-44942D02*
X41684Y-44742D01*
X41684Y-44800D02*
X41699Y-44771D01*
X41713Y-44757D01*
X41742Y-44742D01*
X41770Y-44742D01*
X41985Y-44928D02*
X41956Y-44942D01*
X41899Y-44942D01*
X41870Y-44928D01*
X41856Y-44900D01*
X41856Y-44785D01*
X41870Y-44757D01*
X41899Y-44742D01*
X41956Y-44742D01*
X41985Y-44757D01*
X41999Y-44785D01*
X41999Y-44814D01*
X41856Y-44842D01*
X42113Y-44928D02*
X42142Y-44942D01*
X42199Y-44942D01*
X42227Y-44928D01*
X42242Y-44900D01*
X42242Y-44885D01*
X42227Y-44857D01*
X42199Y-44842D01*
X42156Y-44842D01*
X42127Y-44828D01*
X42113Y-44800D01*
X42113Y-44785D01*
X42127Y-44757D01*
X42156Y-44742D01*
X42199Y-44742D01*
X42227Y-44757D01*
X23778Y-46371D02*
X23778Y-46071D01*
X23893Y-46071D01*
X23921Y-46086D01*
X23936Y-46100D01*
X23950Y-46129D01*
X23950Y-46171D01*
X23936Y-46200D01*
X23921Y-46214D01*
X23893Y-46229D01*
X23778Y-46229D01*
X24207Y-46071D02*
X24150Y-46071D01*
X24121Y-46086D01*
X24107Y-46100D01*
X24078Y-46143D01*
X24064Y-46200D01*
X24064Y-46314D01*
X24078Y-46343D01*
X24093Y-46357D01*
X24121Y-46371D01*
X24178Y-46371D01*
X24207Y-46357D01*
X24221Y-46343D01*
X24236Y-46314D01*
X24236Y-46243D01*
X24221Y-46214D01*
X24207Y-46200D01*
X24178Y-46186D01*
X24121Y-46186D01*
X24093Y-46200D01*
X24078Y-46214D01*
X24064Y-46243D01*
X23307Y-44871D02*
X23307Y-44571D01*
X23422Y-44571D01*
X23450Y-44586D01*
X23465Y-44600D01*
X23479Y-44629D01*
X23479Y-44671D01*
X23465Y-44700D01*
X23450Y-44714D01*
X23422Y-44729D01*
X23307Y-44729D01*
X23607Y-44871D02*
X23607Y-44571D01*
X23736Y-44871D02*
X23736Y-44714D01*
X23722Y-44686D01*
X23693Y-44671D01*
X23650Y-44671D01*
X23622Y-44686D01*
X23607Y-44700D01*
X24007Y-44871D02*
X24007Y-44714D01*
X23993Y-44686D01*
X23964Y-44671D01*
X23907Y-44671D01*
X23878Y-44686D01*
X24007Y-44857D02*
X23978Y-44871D01*
X23907Y-44871D01*
X23878Y-44857D01*
X23864Y-44829D01*
X23864Y-44800D01*
X23878Y-44771D01*
X23907Y-44757D01*
X23978Y-44757D01*
X24007Y-44743D01*
X24149Y-44871D02*
X24149Y-44671D01*
X24149Y-44729D02*
X24164Y-44700D01*
X24178Y-44686D01*
X24207Y-44671D01*
X24235Y-44671D01*
X24450Y-44857D02*
X24421Y-44871D01*
X24364Y-44871D01*
X24335Y-44857D01*
X24321Y-44829D01*
X24321Y-44714D01*
X24335Y-44686D01*
X24364Y-44671D01*
X24421Y-44671D01*
X24450Y-44686D01*
X24464Y-44714D01*
X24464Y-44743D01*
X24321Y-44771D01*
X24578Y-44857D02*
X24607Y-44871D01*
X24664Y-44871D01*
X24692Y-44857D01*
X24707Y-44829D01*
X24707Y-44814D01*
X24692Y-44786D01*
X24664Y-44771D01*
X24621Y-44771D01*
X24592Y-44757D01*
X24578Y-44729D01*
X24578Y-44714D01*
X24592Y-44686D01*
X24621Y-44671D01*
X24664Y-44671D01*
X24692Y-44686D01*
X43778Y-46371D02*
X43778Y-46071D01*
X43893Y-46071D01*
X43921Y-46086D01*
X43936Y-46100D01*
X43950Y-46129D01*
X43950Y-46171D01*
X43936Y-46200D01*
X43921Y-46214D01*
X43893Y-46229D01*
X43778Y-46229D01*
X44121Y-46200D02*
X44093Y-46186D01*
X44078Y-46171D01*
X44064Y-46143D01*
X44064Y-46129D01*
X44078Y-46100D01*
X44093Y-46086D01*
X44121Y-46071D01*
X44178Y-46071D01*
X44207Y-46086D01*
X44221Y-46100D01*
X44236Y-46129D01*
X44236Y-46143D01*
X44221Y-46171D01*
X44207Y-46186D01*
X44178Y-46200D01*
X44121Y-46200D01*
X44093Y-46214D01*
X44078Y-46229D01*
X44064Y-46257D01*
X44064Y-46314D01*
X44078Y-46343D01*
X44093Y-46357D01*
X44121Y-46371D01*
X44178Y-46371D01*
X44207Y-46357D01*
X44221Y-46343D01*
X44236Y-46314D01*
X44236Y-46257D01*
X44221Y-46229D01*
X44207Y-46214D01*
X44178Y-46200D01*
X43307Y-44871D02*
X43307Y-44571D01*
X43422Y-44571D01*
X43450Y-44586D01*
X43465Y-44600D01*
X43479Y-44629D01*
X43479Y-44671D01*
X43465Y-44700D01*
X43450Y-44714D01*
X43422Y-44729D01*
X43307Y-44729D01*
X43607Y-44871D02*
X43607Y-44571D01*
X43736Y-44871D02*
X43736Y-44714D01*
X43722Y-44686D01*
X43693Y-44671D01*
X43650Y-44671D01*
X43622Y-44686D01*
X43607Y-44700D01*
X44007Y-44871D02*
X44007Y-44714D01*
X43993Y-44686D01*
X43964Y-44671D01*
X43907Y-44671D01*
X43878Y-44686D01*
X44007Y-44857D02*
X43978Y-44871D01*
X43907Y-44871D01*
X43878Y-44857D01*
X43864Y-44829D01*
X43864Y-44800D01*
X43878Y-44771D01*
X43907Y-44757D01*
X43978Y-44757D01*
X44007Y-44743D01*
X44149Y-44871D02*
X44149Y-44671D01*
X44149Y-44729D02*
X44164Y-44700D01*
X44178Y-44686D01*
X44207Y-44671D01*
X44235Y-44671D01*
X44450Y-44857D02*
X44421Y-44871D01*
X44364Y-44871D01*
X44335Y-44857D01*
X44321Y-44829D01*
X44321Y-44714D01*
X44335Y-44686D01*
X44364Y-44671D01*
X44421Y-44671D01*
X44450Y-44686D01*
X44464Y-44714D01*
X44464Y-44743D01*
X44321Y-44771D01*
X44578Y-44857D02*
X44607Y-44871D01*
X44664Y-44871D01*
X44692Y-44857D01*
X44707Y-44829D01*
X44707Y-44814D01*
X44692Y-44786D01*
X44664Y-44771D01*
X44621Y-44771D01*
X44592Y-44757D01*
X44578Y-44729D01*
X44578Y-44714D01*
X44592Y-44686D01*
X44621Y-44671D01*
X44664Y-44671D01*
X44692Y-44686D01*
X28778Y-46371D02*
X28778Y-46071D01*
X28893Y-46071D01*
X28921Y-46086D01*
X28936Y-46100D01*
X28950Y-46129D01*
X28950Y-46171D01*
X28936Y-46200D01*
X28921Y-46214D01*
X28893Y-46229D01*
X28778Y-46229D01*
X29093Y-46371D02*
X29150Y-46371D01*
X29178Y-46357D01*
X29193Y-46343D01*
X29221Y-46300D01*
X29236Y-46243D01*
X29236Y-46129D01*
X29221Y-46100D01*
X29207Y-46086D01*
X29178Y-46071D01*
X29121Y-46071D01*
X29093Y-46086D01*
X29078Y-46100D01*
X29064Y-46129D01*
X29064Y-46200D01*
X29078Y-46229D01*
X29093Y-46243D01*
X29121Y-46257D01*
X29178Y-46257D01*
X29207Y-46243D01*
X29221Y-46229D01*
X29236Y-46200D01*
X28307Y-44871D02*
X28307Y-44571D01*
X28422Y-44571D01*
X28450Y-44586D01*
X28465Y-44600D01*
X28479Y-44629D01*
X28479Y-44671D01*
X28465Y-44700D01*
X28450Y-44714D01*
X28422Y-44729D01*
X28307Y-44729D01*
X28607Y-44871D02*
X28607Y-44571D01*
X28736Y-44871D02*
X28736Y-44714D01*
X28722Y-44686D01*
X28693Y-44671D01*
X28650Y-44671D01*
X28622Y-44686D01*
X28607Y-44700D01*
X29007Y-44871D02*
X29007Y-44714D01*
X28993Y-44686D01*
X28964Y-44671D01*
X28907Y-44671D01*
X28878Y-44686D01*
X29007Y-44857D02*
X28978Y-44871D01*
X28907Y-44871D01*
X28878Y-44857D01*
X28864Y-44829D01*
X28864Y-44800D01*
X28878Y-44771D01*
X28907Y-44757D01*
X28978Y-44757D01*
X29007Y-44743D01*
X29149Y-44871D02*
X29149Y-44671D01*
X29149Y-44729D02*
X29164Y-44700D01*
X29178Y-44686D01*
X29207Y-44671D01*
X29235Y-44671D01*
X29450Y-44857D02*
X29421Y-44871D01*
X29364Y-44871D01*
X29335Y-44857D01*
X29321Y-44829D01*
X29321Y-44714D01*
X29335Y-44686D01*
X29364Y-44671D01*
X29421Y-44671D01*
X29450Y-44686D01*
X29464Y-44714D01*
X29464Y-44743D01*
X29321Y-44771D01*
X29578Y-44857D02*
X29607Y-44871D01*
X29664Y-44871D01*
X29692Y-44857D01*
X29707Y-44829D01*
X29707Y-44814D01*
X29692Y-44786D01*
X29664Y-44771D01*
X29621Y-44771D01*
X29592Y-44757D01*
X29578Y-44729D01*
X29578Y-44714D01*
X29592Y-44686D01*
X29621Y-44671D01*
X29664Y-44671D01*
X29692Y-44686D01*
X31135Y-46371D02*
X31135Y-46071D01*
X31250Y-46071D01*
X31278Y-46086D01*
X31293Y-46100D01*
X31307Y-46129D01*
X31307Y-46171D01*
X31293Y-46200D01*
X31278Y-46214D01*
X31250Y-46229D01*
X31135Y-46229D01*
X31593Y-46371D02*
X31421Y-46371D01*
X31507Y-46371D02*
X31507Y-46071D01*
X31478Y-46114D01*
X31450Y-46143D01*
X31421Y-46157D01*
X31779Y-46071D02*
X31807Y-46071D01*
X31836Y-46086D01*
X31850Y-46100D01*
X31864Y-46129D01*
X31879Y-46186D01*
X31879Y-46257D01*
X31864Y-46314D01*
X31850Y-46343D01*
X31836Y-46357D01*
X31807Y-46371D01*
X31779Y-46371D01*
X31750Y-46357D01*
X31736Y-46343D01*
X31721Y-46314D01*
X31707Y-46257D01*
X31707Y-46186D01*
X31721Y-46129D01*
X31736Y-46100D01*
X31750Y-46086D01*
X31779Y-46071D01*
X30629Y-44871D02*
X30629Y-44714D01*
X30615Y-44686D01*
X30586Y-44671D01*
X30529Y-44671D01*
X30500Y-44686D01*
X30629Y-44857D02*
X30600Y-44871D01*
X30529Y-44871D01*
X30500Y-44857D01*
X30486Y-44829D01*
X30486Y-44800D01*
X30500Y-44771D01*
X30529Y-44757D01*
X30600Y-44757D01*
X30629Y-44743D01*
X30814Y-44871D02*
X30786Y-44857D01*
X30771Y-44829D01*
X30771Y-44571D01*
X30928Y-44871D02*
X30928Y-44671D01*
X30928Y-44571D02*
X30914Y-44586D01*
X30928Y-44600D01*
X30943Y-44586D01*
X30928Y-44571D01*
X30928Y-44600D01*
X31071Y-44871D02*
X31071Y-44671D01*
X31071Y-44700D02*
X31086Y-44686D01*
X31114Y-44671D01*
X31157Y-44671D01*
X31186Y-44686D01*
X31200Y-44714D01*
X31200Y-44871D01*
X31200Y-44714D02*
X31214Y-44686D01*
X31243Y-44671D01*
X31286Y-44671D01*
X31314Y-44686D01*
X31329Y-44714D01*
X31329Y-44871D01*
X31400Y-44900D02*
X31629Y-44900D01*
X31658Y-44671D02*
X31772Y-44671D01*
X31700Y-44871D02*
X31700Y-44614D01*
X31715Y-44586D01*
X31743Y-44571D01*
X31772Y-44571D01*
X31986Y-44857D02*
X31957Y-44871D01*
X31900Y-44871D01*
X31871Y-44857D01*
X31857Y-44829D01*
X31857Y-44714D01*
X31871Y-44686D01*
X31900Y-44671D01*
X31957Y-44671D01*
X31986Y-44686D01*
X32000Y-44714D01*
X32000Y-44743D01*
X31857Y-44771D01*
X32257Y-44671D02*
X32257Y-44871D01*
X32128Y-44671D02*
X32128Y-44829D01*
X32143Y-44857D01*
X32171Y-44871D01*
X32214Y-44871D01*
X32243Y-44857D01*
X32257Y-44843D01*
X32371Y-44871D02*
X32528Y-44671D01*
X32371Y-44671D02*
X32528Y-44871D01*
X45278Y-21871D02*
X45278Y-21571D01*
X45393Y-21571D01*
X45421Y-21586D01*
X45436Y-21600D01*
X45450Y-21629D01*
X45450Y-21671D01*
X45436Y-21700D01*
X45421Y-21714D01*
X45393Y-21729D01*
X45278Y-21729D01*
X45550Y-21571D02*
X45750Y-21571D01*
X45621Y-21871D01*
X44059Y-23357D02*
X44030Y-23371D01*
X43973Y-23371D01*
X43945Y-23357D01*
X43930Y-23343D01*
X43916Y-23314D01*
X43916Y-23229D01*
X43930Y-23200D01*
X43945Y-23186D01*
X43973Y-23171D01*
X44030Y-23171D01*
X44059Y-23186D01*
X44230Y-23371D02*
X44202Y-23357D01*
X44187Y-23343D01*
X44173Y-23314D01*
X44173Y-23229D01*
X44187Y-23200D01*
X44202Y-23186D01*
X44230Y-23171D01*
X44273Y-23171D01*
X44302Y-23186D01*
X44316Y-23200D01*
X44330Y-23229D01*
X44330Y-23314D01*
X44316Y-23343D01*
X44302Y-23357D01*
X44273Y-23371D01*
X44230Y-23371D01*
X44458Y-23171D02*
X44458Y-23371D01*
X44458Y-23200D02*
X44473Y-23186D01*
X44501Y-23171D01*
X44544Y-23171D01*
X44573Y-23186D01*
X44587Y-23214D01*
X44587Y-23371D01*
X44729Y-23171D02*
X44729Y-23371D01*
X44729Y-23200D02*
X44744Y-23186D01*
X44772Y-23171D01*
X44815Y-23171D01*
X44844Y-23186D01*
X44858Y-23214D01*
X44858Y-23371D01*
X44929Y-23400D02*
X45158Y-23400D01*
X45229Y-23371D02*
X45229Y-23171D01*
X45229Y-23071D02*
X45215Y-23086D01*
X45229Y-23100D01*
X45244Y-23086D01*
X45229Y-23071D01*
X45229Y-23100D01*
X45372Y-23171D02*
X45372Y-23371D01*
X45372Y-23200D02*
X45387Y-23186D01*
X45415Y-23171D01*
X45458Y-23171D01*
X45487Y-23186D01*
X45501Y-23214D01*
X45501Y-23371D01*
X45601Y-23171D02*
X45715Y-23171D01*
X45643Y-23071D02*
X45643Y-23329D01*
X45658Y-23357D01*
X45686Y-23371D01*
X45715Y-23371D01*
X45929Y-23357D02*
X45900Y-23371D01*
X45843Y-23371D01*
X45814Y-23357D01*
X45800Y-23329D01*
X45800Y-23214D01*
X45814Y-23186D01*
X45843Y-23171D01*
X45900Y-23171D01*
X45929Y-23186D01*
X45943Y-23214D01*
X45943Y-23243D01*
X45800Y-23271D01*
X46071Y-23371D02*
X46071Y-23171D01*
X46071Y-23229D02*
X46086Y-23200D01*
X46100Y-23186D01*
X46129Y-23171D01*
X46157Y-23171D01*
X46215Y-23171D02*
X46329Y-23171D01*
X46257Y-23371D02*
X46257Y-23114D01*
X46272Y-23086D01*
X46300Y-23071D01*
X46329Y-23071D01*
X46557Y-23371D02*
X46557Y-23214D01*
X46543Y-23186D01*
X46514Y-23171D01*
X46457Y-23171D01*
X46428Y-23186D01*
X46557Y-23357D02*
X46528Y-23371D01*
X46457Y-23371D01*
X46428Y-23357D01*
X46414Y-23329D01*
X46414Y-23300D01*
X46428Y-23271D01*
X46457Y-23257D01*
X46528Y-23257D01*
X46557Y-23243D01*
X46828Y-23357D02*
X46799Y-23371D01*
X46742Y-23371D01*
X46714Y-23357D01*
X46699Y-23343D01*
X46685Y-23314D01*
X46685Y-23229D01*
X46699Y-23200D01*
X46714Y-23186D01*
X46742Y-23171D01*
X46799Y-23171D01*
X46828Y-23186D01*
X47071Y-23357D02*
X47042Y-23371D01*
X46985Y-23371D01*
X46956Y-23357D01*
X46942Y-23329D01*
X46942Y-23214D01*
X46956Y-23186D01*
X46985Y-23171D01*
X47042Y-23171D01*
X47071Y-23186D01*
X47085Y-23214D01*
X47085Y-23243D01*
X46942Y-23271D01*
G54D11*
X45743Y-50442D02*
X45143Y-50442D01*
X45143Y-50299D01*
X45171Y-50214D01*
X45229Y-50156D01*
X45286Y-50128D01*
X45400Y-50099D01*
X45486Y-50099D01*
X45600Y-50128D01*
X45657Y-50156D01*
X45714Y-50214D01*
X45743Y-50299D01*
X45743Y-50442D01*
X45743Y-49528D02*
X45743Y-49871D01*
X45743Y-49699D02*
X45143Y-49699D01*
X45229Y-49756D01*
X45286Y-49814D01*
X45314Y-49871D01*
X47457Y-51415D02*
X47743Y-51415D01*
X47143Y-51615D02*
X47457Y-51415D01*
X47143Y-51215D01*
X47429Y-51015D02*
X47429Y-50815D01*
X47743Y-50729D02*
X47743Y-51015D01*
X47143Y-51015D01*
X47143Y-50729D01*
X47743Y-50186D02*
X47743Y-50472D01*
X47143Y-50472D01*
X47743Y-49700D02*
X47743Y-49986D01*
X47143Y-49986D01*
X47143Y-49386D02*
X47143Y-49272D01*
X47171Y-49214D01*
X47229Y-49157D01*
X47343Y-49129D01*
X47543Y-49129D01*
X47657Y-49157D01*
X47714Y-49214D01*
X47743Y-49272D01*
X47743Y-49386D01*
X47714Y-49443D01*
X47657Y-49500D01*
X47543Y-49529D01*
X47343Y-49529D01*
X47229Y-49500D01*
X47171Y-49443D01*
X47143Y-49386D01*
X47143Y-48928D02*
X47743Y-48785D01*
X47314Y-48671D01*
X47743Y-48557D01*
X47143Y-48414D01*
X27058Y-23243D02*
X27058Y-22643D01*
X27201Y-22643D01*
X27286Y-22671D01*
X27344Y-22729D01*
X27372Y-22786D01*
X27401Y-22900D01*
X27401Y-22986D01*
X27372Y-23100D01*
X27344Y-23157D01*
X27286Y-23214D01*
X27201Y-23243D01*
X27058Y-23243D01*
X27629Y-22700D02*
X27658Y-22671D01*
X27715Y-22643D01*
X27858Y-22643D01*
X27915Y-22671D01*
X27944Y-22700D01*
X27972Y-22757D01*
X27972Y-22814D01*
X27944Y-22900D01*
X27601Y-23243D01*
X27972Y-23243D01*
X29243Y-21885D02*
X28957Y-22085D01*
X29243Y-22228D02*
X28643Y-22228D01*
X28643Y-22000D01*
X28671Y-21942D01*
X28700Y-21914D01*
X28757Y-21885D01*
X28843Y-21885D01*
X28900Y-21914D01*
X28929Y-21942D01*
X28957Y-22000D01*
X28957Y-22228D01*
X28929Y-21628D02*
X28929Y-21428D01*
X29243Y-21342D02*
X29243Y-21628D01*
X28643Y-21628D01*
X28643Y-21342D01*
X29243Y-21085D02*
X28643Y-21085D01*
X28643Y-20942D01*
X28671Y-20857D01*
X28729Y-20799D01*
X28786Y-20771D01*
X28900Y-20742D01*
X28986Y-20742D01*
X29100Y-20771D01*
X29157Y-20799D01*
X29214Y-20857D01*
X29243Y-20942D01*
X29243Y-21085D01*
G54D14*
X50015Y-47270D02*
X49848Y-47008D01*
X49729Y-47270D02*
X49729Y-46720D01*
X49920Y-46720D01*
X49967Y-46746D01*
X49991Y-46772D01*
X50015Y-46824D01*
X50015Y-46903D01*
X49991Y-46955D01*
X49967Y-46982D01*
X49920Y-47008D01*
X49729Y-47008D01*
X50181Y-46720D02*
X50491Y-46720D01*
X50324Y-46929D01*
X50396Y-46929D01*
X50443Y-46955D01*
X50467Y-46982D01*
X50491Y-47034D01*
X50491Y-47165D01*
X50467Y-47217D01*
X50443Y-47243D01*
X50396Y-47270D01*
X50253Y-47270D01*
X50205Y-47243D01*
X50181Y-47217D01*
X52223Y-32083D02*
X51961Y-32250D01*
X52223Y-32369D02*
X51673Y-32369D01*
X51673Y-32178D01*
X51699Y-32131D01*
X51725Y-32107D01*
X51777Y-32083D01*
X51856Y-32083D01*
X51908Y-32107D01*
X51935Y-32131D01*
X51961Y-32178D01*
X51961Y-32369D01*
X51725Y-31893D02*
X51699Y-31869D01*
X51673Y-31821D01*
X51673Y-31702D01*
X51699Y-31655D01*
X51725Y-31631D01*
X51777Y-31607D01*
X51830Y-31607D01*
X51908Y-31631D01*
X52223Y-31917D01*
X52223Y-31607D01*
X48917Y-35223D02*
X48750Y-34961D01*
X48631Y-35223D02*
X48631Y-34673D01*
X48822Y-34673D01*
X48869Y-34699D01*
X48893Y-34725D01*
X48917Y-34777D01*
X48917Y-34856D01*
X48893Y-34908D01*
X48869Y-34935D01*
X48822Y-34961D01*
X48631Y-34961D01*
X49345Y-34673D02*
X49250Y-34673D01*
X49202Y-34699D01*
X49179Y-34725D01*
X49131Y-34804D01*
X49107Y-34908D01*
X49107Y-35118D01*
X49131Y-35170D01*
X49155Y-35196D01*
X49202Y-35223D01*
X49298Y-35223D01*
X49345Y-35196D01*
X49369Y-35170D01*
X49393Y-35118D01*
X49393Y-34987D01*
X49369Y-34935D01*
X49345Y-34908D01*
X49298Y-34882D01*
X49202Y-34882D01*
X49155Y-34908D01*
X49131Y-34935D01*
X49107Y-34987D01*
X42917Y-50723D02*
X42750Y-50461D01*
X42631Y-50723D02*
X42631Y-50173D01*
X42822Y-50173D01*
X42869Y-50199D01*
X42893Y-50225D01*
X42917Y-50277D01*
X42917Y-50356D01*
X42893Y-50408D01*
X42869Y-50435D01*
X42822Y-50461D01*
X42631Y-50461D01*
X43083Y-50173D02*
X43417Y-50173D01*
X43202Y-50723D01*
X42953Y-49731D02*
X42667Y-49731D01*
X42810Y-49731D02*
X42810Y-49181D01*
X42762Y-49259D01*
X42715Y-49312D01*
X42667Y-49338D01*
X43167Y-49731D02*
X43167Y-49181D01*
X43215Y-49521D02*
X43358Y-49731D01*
X43358Y-49364D02*
X43167Y-49573D01*
X28417Y-23723D02*
X28250Y-23461D01*
X28131Y-23723D02*
X28131Y-23173D01*
X28322Y-23173D01*
X28369Y-23199D01*
X28393Y-23225D01*
X28417Y-23277D01*
X28417Y-23356D01*
X28393Y-23408D01*
X28369Y-23435D01*
X28322Y-23461D01*
X28131Y-23461D01*
X28702Y-23408D02*
X28655Y-23382D01*
X28631Y-23356D01*
X28607Y-23304D01*
X28607Y-23277D01*
X28631Y-23225D01*
X28655Y-23199D01*
X28702Y-23173D01*
X28798Y-23173D01*
X28845Y-23199D01*
X28869Y-23225D01*
X28893Y-23277D01*
X28893Y-23304D01*
X28869Y-23356D01*
X28845Y-23382D01*
X28798Y-23408D01*
X28702Y-23408D01*
X28655Y-23435D01*
X28631Y-23461D01*
X28607Y-23513D01*
X28607Y-23618D01*
X28631Y-23670D01*
X28655Y-23696D01*
X28702Y-23723D01*
X28798Y-23723D01*
X28845Y-23696D01*
X28869Y-23670D01*
X28893Y-23618D01*
X28893Y-23513D01*
X28869Y-23461D01*
X28845Y-23435D01*
X28798Y-23408D01*
X28441Y-24723D02*
X28155Y-24723D01*
X28298Y-24723D02*
X28298Y-24173D01*
X28250Y-24251D01*
X28203Y-24304D01*
X28155Y-24330D01*
X28655Y-24723D02*
X28655Y-24173D01*
X28703Y-24513D02*
X28846Y-24723D01*
X28846Y-24356D02*
X28655Y-24565D01*
X48917Y-41723D02*
X48750Y-41461D01*
X48631Y-41723D02*
X48631Y-41173D01*
X48822Y-41173D01*
X48869Y-41199D01*
X48893Y-41225D01*
X48917Y-41277D01*
X48917Y-41356D01*
X48893Y-41408D01*
X48869Y-41435D01*
X48822Y-41461D01*
X48631Y-41461D01*
X49369Y-41173D02*
X49131Y-41173D01*
X49107Y-41435D01*
X49131Y-41408D01*
X49179Y-41382D01*
X49298Y-41382D01*
X49345Y-41408D01*
X49369Y-41435D01*
X49393Y-41487D01*
X49393Y-41618D01*
X49369Y-41670D01*
X49345Y-41696D01*
X49298Y-41723D01*
X49179Y-41723D01*
X49131Y-41696D01*
X49107Y-41670D01*
X48917Y-42723D02*
X48750Y-42461D01*
X48631Y-42723D02*
X48631Y-42173D01*
X48822Y-42173D01*
X48869Y-42199D01*
X48893Y-42225D01*
X48917Y-42277D01*
X48917Y-42356D01*
X48893Y-42408D01*
X48869Y-42435D01*
X48822Y-42461D01*
X48631Y-42461D01*
X49345Y-42356D02*
X49345Y-42723D01*
X49226Y-42146D02*
X49107Y-42539D01*
X49417Y-42539D01*
X52223Y-38083D02*
X51961Y-38250D01*
X52223Y-38369D02*
X51673Y-38369D01*
X51673Y-38178D01*
X51699Y-38131D01*
X51725Y-38107D01*
X51777Y-38083D01*
X51856Y-38083D01*
X51908Y-38107D01*
X51935Y-38131D01*
X51961Y-38178D01*
X51961Y-38369D01*
X52223Y-37607D02*
X52223Y-37893D01*
X52223Y-37750D02*
X51673Y-37750D01*
X51751Y-37798D01*
X51804Y-37845D01*
X51830Y-37893D01*
G54D11*
X33558Y-45743D02*
X33558Y-45143D01*
X33701Y-45143D01*
X33786Y-45171D01*
X33844Y-45229D01*
X33872Y-45286D01*
X33901Y-45400D01*
X33901Y-45486D01*
X33872Y-45600D01*
X33844Y-45657D01*
X33786Y-45714D01*
X33701Y-45743D01*
X33558Y-45743D01*
X34101Y-45143D02*
X34472Y-45143D01*
X34272Y-45371D01*
X34358Y-45371D01*
X34415Y-45400D01*
X34444Y-45429D01*
X34472Y-45486D01*
X34472Y-45629D01*
X34444Y-45686D01*
X34415Y-45714D01*
X34358Y-45743D01*
X34186Y-45743D01*
X34129Y-45714D01*
X34101Y-45686D01*
X33085Y-47457D02*
X33085Y-47743D01*
X32885Y-47143D02*
X33085Y-47457D01*
X33285Y-47143D01*
X33485Y-47429D02*
X33685Y-47429D01*
X33771Y-47743D02*
X33485Y-47743D01*
X33485Y-47143D01*
X33771Y-47143D01*
X34314Y-47743D02*
X34028Y-47743D01*
X34028Y-47143D01*
X34800Y-47743D02*
X34514Y-47743D01*
X34514Y-47143D01*
X35114Y-47143D02*
X35228Y-47143D01*
X35286Y-47171D01*
X35343Y-47229D01*
X35371Y-47343D01*
X35371Y-47543D01*
X35343Y-47657D01*
X35286Y-47714D01*
X35228Y-47743D01*
X35114Y-47743D01*
X35057Y-47714D01*
X35000Y-47657D01*
X34971Y-47543D01*
X34971Y-47343D01*
X35000Y-47229D01*
X35057Y-47171D01*
X35114Y-47143D01*
X35572Y-47143D02*
X35715Y-47743D01*
X35829Y-47314D01*
X35943Y-47743D01*
X36086Y-47143D01*
G54D14*
X27417Y-49223D02*
X27250Y-48961D01*
X27131Y-49223D02*
X27131Y-48673D01*
X27322Y-48673D01*
X27369Y-48699D01*
X27393Y-48725D01*
X27417Y-48777D01*
X27417Y-48856D01*
X27393Y-48908D01*
X27369Y-48935D01*
X27322Y-48961D01*
X27131Y-48961D01*
X27655Y-49223D02*
X27750Y-49223D01*
X27798Y-49196D01*
X27822Y-49170D01*
X27869Y-49092D01*
X27893Y-48987D01*
X27893Y-48777D01*
X27869Y-48725D01*
X27845Y-48699D01*
X27798Y-48673D01*
X27702Y-48673D01*
X27655Y-48699D01*
X27631Y-48725D01*
X27607Y-48777D01*
X27607Y-48908D01*
X27631Y-48961D01*
X27655Y-48987D01*
X27702Y-49013D01*
X27798Y-49013D01*
X27845Y-48987D01*
X27869Y-48961D01*
X27893Y-48908D01*
X27500Y-48353D02*
X27214Y-48353D01*
X27357Y-48353D02*
X27357Y-47803D01*
X27309Y-47881D01*
X27262Y-47934D01*
X27214Y-47960D01*
X27714Y-48353D02*
X27714Y-47803D01*
X27762Y-48143D02*
X27905Y-48353D01*
X27905Y-47986D02*
X27714Y-48195D01*
X37962Y-24700D02*
X37924Y-24681D01*
X37886Y-24643D01*
X37829Y-24586D01*
X37790Y-24567D01*
X37752Y-24567D01*
X37771Y-24662D02*
X37733Y-24643D01*
X37695Y-24605D01*
X37676Y-24529D01*
X37676Y-24395D01*
X37695Y-24319D01*
X37733Y-24281D01*
X37771Y-24262D01*
X37848Y-24262D01*
X37886Y-24281D01*
X37924Y-24319D01*
X37943Y-24395D01*
X37943Y-24529D01*
X37924Y-24605D01*
X37886Y-24643D01*
X37848Y-24662D01*
X37771Y-24662D01*
X38305Y-24262D02*
X38114Y-24262D01*
X38095Y-24452D01*
X38114Y-24433D01*
X38152Y-24414D01*
X38248Y-24414D01*
X38286Y-24433D01*
X38305Y-24452D01*
X38324Y-24490D01*
X38324Y-24586D01*
X38305Y-24624D01*
X38286Y-24643D01*
X38248Y-24662D01*
X38152Y-24662D01*
X38114Y-24643D01*
X38095Y-24624D01*
X37362Y-27952D02*
X37228Y-27952D01*
X37228Y-28162D02*
X37228Y-27762D01*
X37419Y-27762D01*
X37571Y-27952D02*
X37705Y-27952D01*
X37762Y-28162D02*
X37571Y-28162D01*
X37571Y-27762D01*
X37762Y-27762D01*
X37876Y-27762D02*
X38105Y-27762D01*
X37990Y-28162D02*
X37990Y-27762D01*
X38143Y-28200D02*
X38448Y-28200D01*
X38543Y-28162D02*
X38543Y-27762D01*
X38772Y-28162D01*
X38772Y-27762D01*
X31962Y-24700D02*
X31924Y-24681D01*
X31886Y-24643D01*
X31829Y-24586D01*
X31790Y-24567D01*
X31752Y-24567D01*
X31771Y-24662D02*
X31733Y-24643D01*
X31695Y-24605D01*
X31676Y-24529D01*
X31676Y-24395D01*
X31695Y-24319D01*
X31733Y-24281D01*
X31771Y-24262D01*
X31848Y-24262D01*
X31886Y-24281D01*
X31924Y-24319D01*
X31943Y-24395D01*
X31943Y-24529D01*
X31924Y-24605D01*
X31886Y-24643D01*
X31848Y-24662D01*
X31771Y-24662D01*
X32095Y-24300D02*
X32114Y-24281D01*
X32152Y-24262D01*
X32248Y-24262D01*
X32286Y-24281D01*
X32305Y-24300D01*
X32324Y-24338D01*
X32324Y-24376D01*
X32305Y-24433D01*
X32076Y-24662D01*
X32324Y-24662D01*
X31362Y-27952D02*
X31228Y-27952D01*
X31228Y-28162D02*
X31228Y-27762D01*
X31419Y-27762D01*
X31571Y-27952D02*
X31705Y-27952D01*
X31762Y-28162D02*
X31571Y-28162D01*
X31571Y-27762D01*
X31762Y-27762D01*
X31876Y-27762D02*
X32105Y-27762D01*
X31990Y-28162D02*
X31990Y-27762D01*
X32143Y-28200D02*
X32448Y-28200D01*
X32543Y-28162D02*
X32543Y-27762D01*
X32772Y-28162D01*
X32772Y-27762D01*
X40962Y-24700D02*
X40924Y-24681D01*
X40886Y-24643D01*
X40829Y-24586D01*
X40790Y-24567D01*
X40752Y-24567D01*
X40771Y-24662D02*
X40733Y-24643D01*
X40695Y-24605D01*
X40676Y-24529D01*
X40676Y-24395D01*
X40695Y-24319D01*
X40733Y-24281D01*
X40771Y-24262D01*
X40848Y-24262D01*
X40886Y-24281D01*
X40924Y-24319D01*
X40943Y-24395D01*
X40943Y-24529D01*
X40924Y-24605D01*
X40886Y-24643D01*
X40848Y-24662D01*
X40771Y-24662D01*
X41324Y-24662D02*
X41095Y-24662D01*
X41209Y-24662D02*
X41209Y-24262D01*
X41171Y-24319D01*
X41133Y-24357D01*
X41095Y-24376D01*
X40362Y-27952D02*
X40228Y-27952D01*
X40228Y-28162D02*
X40228Y-27762D01*
X40419Y-27762D01*
X40571Y-27952D02*
X40705Y-27952D01*
X40762Y-28162D02*
X40571Y-28162D01*
X40571Y-27762D01*
X40762Y-27762D01*
X40876Y-27762D02*
X41105Y-27762D01*
X40990Y-28162D02*
X40990Y-27762D01*
X41143Y-28200D02*
X41448Y-28200D01*
X41543Y-28162D02*
X41543Y-27762D01*
X41772Y-28162D01*
X41772Y-27762D01*
X34962Y-24700D02*
X34924Y-24681D01*
X34886Y-24643D01*
X34829Y-24586D01*
X34790Y-24567D01*
X34752Y-24567D01*
X34771Y-24662D02*
X34733Y-24643D01*
X34695Y-24605D01*
X34676Y-24529D01*
X34676Y-24395D01*
X34695Y-24319D01*
X34733Y-24281D01*
X34771Y-24262D01*
X34848Y-24262D01*
X34886Y-24281D01*
X34924Y-24319D01*
X34943Y-24395D01*
X34943Y-24529D01*
X34924Y-24605D01*
X34886Y-24643D01*
X34848Y-24662D01*
X34771Y-24662D01*
X35286Y-24262D02*
X35209Y-24262D01*
X35171Y-24281D01*
X35152Y-24300D01*
X35114Y-24357D01*
X35095Y-24433D01*
X35095Y-24586D01*
X35114Y-24624D01*
X35133Y-24643D01*
X35171Y-24662D01*
X35248Y-24662D01*
X35286Y-24643D01*
X35305Y-24624D01*
X35324Y-24586D01*
X35324Y-24490D01*
X35305Y-24452D01*
X35286Y-24433D01*
X35248Y-24414D01*
X35171Y-24414D01*
X35133Y-24433D01*
X35114Y-24452D01*
X35095Y-24490D01*
X34362Y-27952D02*
X34228Y-27952D01*
X34228Y-28162D02*
X34228Y-27762D01*
X34419Y-27762D01*
X34571Y-27952D02*
X34705Y-27952D01*
X34762Y-28162D02*
X34571Y-28162D01*
X34571Y-27762D01*
X34762Y-27762D01*
X34876Y-27762D02*
X35105Y-27762D01*
X34990Y-28162D02*
X34990Y-27762D01*
X35143Y-28200D02*
X35448Y-28200D01*
X35543Y-28162D02*
X35543Y-27762D01*
X35772Y-28162D01*
X35772Y-27762D01*
X43962Y-24700D02*
X43924Y-24681D01*
X43886Y-24643D01*
X43829Y-24586D01*
X43790Y-24567D01*
X43752Y-24567D01*
X43771Y-24662D02*
X43733Y-24643D01*
X43695Y-24605D01*
X43676Y-24529D01*
X43676Y-24395D01*
X43695Y-24319D01*
X43733Y-24281D01*
X43771Y-24262D01*
X43848Y-24262D01*
X43886Y-24281D01*
X43924Y-24319D01*
X43943Y-24395D01*
X43943Y-24529D01*
X43924Y-24605D01*
X43886Y-24643D01*
X43848Y-24662D01*
X43771Y-24662D01*
X44076Y-24262D02*
X44324Y-24262D01*
X44190Y-24414D01*
X44248Y-24414D01*
X44286Y-24433D01*
X44305Y-24452D01*
X44324Y-24490D01*
X44324Y-24586D01*
X44305Y-24624D01*
X44286Y-24643D01*
X44248Y-24662D01*
X44133Y-24662D01*
X44095Y-24643D01*
X44076Y-24624D01*
X43362Y-27952D02*
X43228Y-27952D01*
X43228Y-28162D02*
X43228Y-27762D01*
X43419Y-27762D01*
X43571Y-27952D02*
X43705Y-27952D01*
X43762Y-28162D02*
X43571Y-28162D01*
X43571Y-27762D01*
X43762Y-27762D01*
X43876Y-27762D02*
X44105Y-27762D01*
X43990Y-28162D02*
X43990Y-27762D01*
X44143Y-28200D02*
X44448Y-28200D01*
X44543Y-28162D02*
X44543Y-27762D01*
X44772Y-28162D01*
X44772Y-27762D01*
X27962Y-25700D02*
X27924Y-25681D01*
X27886Y-25643D01*
X27829Y-25586D01*
X27790Y-25567D01*
X27752Y-25567D01*
X27771Y-25662D02*
X27733Y-25643D01*
X27695Y-25605D01*
X27676Y-25529D01*
X27676Y-25395D01*
X27695Y-25319D01*
X27733Y-25281D01*
X27771Y-25262D01*
X27848Y-25262D01*
X27886Y-25281D01*
X27924Y-25319D01*
X27943Y-25395D01*
X27943Y-25529D01*
X27924Y-25605D01*
X27886Y-25643D01*
X27848Y-25662D01*
X27771Y-25662D01*
X28286Y-25395D02*
X28286Y-25662D01*
X28190Y-25243D02*
X28095Y-25529D01*
X28343Y-25529D01*
X28362Y-27952D02*
X28228Y-27952D01*
X28228Y-28162D02*
X28228Y-27762D01*
X28419Y-27762D01*
X28571Y-27952D02*
X28705Y-27952D01*
X28762Y-28162D02*
X28571Y-28162D01*
X28571Y-27762D01*
X28762Y-27762D01*
X28876Y-27762D02*
X29105Y-27762D01*
X28990Y-28162D02*
X28990Y-27762D01*
X29143Y-28200D02*
X29448Y-28200D01*
X29543Y-28162D02*
X29543Y-27762D01*
X29772Y-28162D01*
X29772Y-27762D01*
G54D16*
X49124Y-48962D02*
X49124Y-48562D01*
X49258Y-48848D01*
X49391Y-48562D01*
X49391Y-48962D01*
X49581Y-48752D02*
X49715Y-48752D01*
X49772Y-48962D02*
X49581Y-48962D01*
X49581Y-48562D01*
X49772Y-48562D01*
X50172Y-48924D02*
X50153Y-48943D01*
X50096Y-48962D01*
X50058Y-48962D01*
X50000Y-48943D01*
X49962Y-48905D01*
X49943Y-48867D01*
X49924Y-48790D01*
X49924Y-48733D01*
X49943Y-48657D01*
X49962Y-48619D01*
X50000Y-48581D01*
X50058Y-48562D01*
X50096Y-48562D01*
X50153Y-48581D01*
X50172Y-48600D01*
X50324Y-48848D02*
X50515Y-48848D01*
X50286Y-48962D02*
X50419Y-48562D01*
X50553Y-48962D01*
X50667Y-48600D02*
X50686Y-48581D01*
X50724Y-48562D01*
X50820Y-48562D01*
X50858Y-48581D01*
X50877Y-48600D01*
X50896Y-48638D01*
X50896Y-48676D01*
X50877Y-48733D01*
X50648Y-48962D01*
X50896Y-48962D01*
X49124Y-21462D02*
X49124Y-21062D01*
X49258Y-21348D01*
X49391Y-21062D01*
X49391Y-21462D01*
X49581Y-21252D02*
X49715Y-21252D01*
X49772Y-21462D02*
X49581Y-21462D01*
X49581Y-21062D01*
X49772Y-21062D01*
X50172Y-21424D02*
X50153Y-21443D01*
X50096Y-21462D01*
X50058Y-21462D01*
X50000Y-21443D01*
X49962Y-21405D01*
X49943Y-21367D01*
X49924Y-21290D01*
X49924Y-21233D01*
X49943Y-21157D01*
X49962Y-21119D01*
X50000Y-21081D01*
X50058Y-21062D01*
X50096Y-21062D01*
X50153Y-21081D01*
X50172Y-21100D01*
X50324Y-21348D02*
X50515Y-21348D01*
X50286Y-21462D02*
X50419Y-21062D01*
X50553Y-21462D01*
X50896Y-21462D02*
X50667Y-21462D01*
X50781Y-21462D02*
X50781Y-21062D01*
X50743Y-21119D01*
X50705Y-21157D01*
X50667Y-21176D01*
X21624Y-48962D02*
X21624Y-48562D01*
X21758Y-48848D01*
X21891Y-48562D01*
X21891Y-48962D01*
X22081Y-48752D02*
X22215Y-48752D01*
X22272Y-48962D02*
X22081Y-48962D01*
X22081Y-48562D01*
X22272Y-48562D01*
X22672Y-48924D02*
X22653Y-48943D01*
X22596Y-48962D01*
X22558Y-48962D01*
X22500Y-48943D01*
X22462Y-48905D01*
X22443Y-48867D01*
X22424Y-48790D01*
X22424Y-48733D01*
X22443Y-48657D01*
X22462Y-48619D01*
X22500Y-48581D01*
X22558Y-48562D01*
X22596Y-48562D01*
X22653Y-48581D01*
X22672Y-48600D01*
X22824Y-48848D02*
X23015Y-48848D01*
X22786Y-48962D02*
X22919Y-48562D01*
X23053Y-48962D01*
X23148Y-48562D02*
X23396Y-48562D01*
X23262Y-48714D01*
X23320Y-48714D01*
X23358Y-48733D01*
X23377Y-48752D01*
X23396Y-48790D01*
X23396Y-48886D01*
X23377Y-48924D01*
X23358Y-48943D01*
X23320Y-48962D01*
X23205Y-48962D01*
X23167Y-48943D01*
X23148Y-48924D01*
G54D11*
X39058Y-41243D02*
X39058Y-40643D01*
X39401Y-41243D02*
X39144Y-40900D01*
X39401Y-40643D02*
X39058Y-40986D01*
X39972Y-41243D02*
X39629Y-41243D01*
X39801Y-41243D02*
X39801Y-40643D01*
X39744Y-40729D01*
X39686Y-40786D01*
X39629Y-40814D01*
X36986Y-42243D02*
X36786Y-41957D01*
X36643Y-42243D02*
X36643Y-41643D01*
X36871Y-41643D01*
X36929Y-41671D01*
X36957Y-41700D01*
X36986Y-41757D01*
X36986Y-41843D01*
X36957Y-41900D01*
X36929Y-41929D01*
X36871Y-41957D01*
X36643Y-41957D01*
X37243Y-41929D02*
X37443Y-41929D01*
X37529Y-42243D02*
X37243Y-42243D01*
X37243Y-41643D01*
X37529Y-41643D01*
X38072Y-42243D02*
X37786Y-42243D01*
X37786Y-41643D01*
X38243Y-42071D02*
X38529Y-42071D01*
X38186Y-42243D02*
X38386Y-41643D01*
X38586Y-42243D01*
X38786Y-42243D02*
X38786Y-41643D01*
X39043Y-42214D02*
X39129Y-42243D01*
X39272Y-42243D01*
X39329Y-42214D01*
X39358Y-42186D01*
X39386Y-42129D01*
X39386Y-42071D01*
X39358Y-42014D01*
X39329Y-41986D01*
X39272Y-41957D01*
X39158Y-41929D01*
X39100Y-41900D01*
X39072Y-41871D01*
X39043Y-41814D01*
X39043Y-41757D01*
X39072Y-41700D01*
X39100Y-41671D01*
X39158Y-41643D01*
X39300Y-41643D01*
X39386Y-41671D01*
X39643Y-42014D02*
X40100Y-42014D01*
X40386Y-42243D02*
X40386Y-41643D01*
X40529Y-41643D01*
X40614Y-41671D01*
X40672Y-41729D01*
X40700Y-41786D01*
X40729Y-41900D01*
X40729Y-41986D01*
X40700Y-42100D01*
X40672Y-42157D01*
X40614Y-42214D01*
X40529Y-42243D01*
X40386Y-42243D01*
X40986Y-42243D02*
X40986Y-41643D01*
X41214Y-41643D01*
X41272Y-41671D01*
X41300Y-41700D01*
X41329Y-41757D01*
X41329Y-41843D01*
X41300Y-41900D01*
X41272Y-41929D01*
X41214Y-41957D01*
X40986Y-41957D01*
X41586Y-42243D02*
X41586Y-41643D01*
X41729Y-41643D01*
X41814Y-41671D01*
X41872Y-41729D01*
X41900Y-41786D01*
X41929Y-41900D01*
X41929Y-41986D01*
X41900Y-42100D01*
X41872Y-42157D01*
X41814Y-42214D01*
X41729Y-42243D01*
X41586Y-42243D01*
X42100Y-41643D02*
X42443Y-41643D01*
X42272Y-42243D02*
X42272Y-41643D01*
X39058Y-35743D02*
X39058Y-35143D01*
X39401Y-35743D02*
X39144Y-35400D01*
X39401Y-35143D02*
X39058Y-35486D01*
X39629Y-35200D02*
X39658Y-35171D01*
X39715Y-35143D01*
X39858Y-35143D01*
X39915Y-35171D01*
X39944Y-35200D01*
X39972Y-35257D01*
X39972Y-35314D01*
X39944Y-35400D01*
X39601Y-35743D01*
X39972Y-35743D01*
X36986Y-36743D02*
X36786Y-36457D01*
X36643Y-36743D02*
X36643Y-36143D01*
X36871Y-36143D01*
X36929Y-36171D01*
X36957Y-36200D01*
X36986Y-36257D01*
X36986Y-36343D01*
X36957Y-36400D01*
X36929Y-36429D01*
X36871Y-36457D01*
X36643Y-36457D01*
X37243Y-36429D02*
X37443Y-36429D01*
X37529Y-36743D02*
X37243Y-36743D01*
X37243Y-36143D01*
X37529Y-36143D01*
X38072Y-36743D02*
X37786Y-36743D01*
X37786Y-36143D01*
X38243Y-36571D02*
X38529Y-36571D01*
X38186Y-36743D02*
X38386Y-36143D01*
X38586Y-36743D01*
X38786Y-36743D02*
X38786Y-36143D01*
X39043Y-36714D02*
X39129Y-36743D01*
X39272Y-36743D01*
X39329Y-36714D01*
X39358Y-36686D01*
X39386Y-36629D01*
X39386Y-36571D01*
X39358Y-36514D01*
X39329Y-36486D01*
X39272Y-36457D01*
X39158Y-36429D01*
X39100Y-36400D01*
X39072Y-36371D01*
X39043Y-36314D01*
X39043Y-36257D01*
X39072Y-36200D01*
X39100Y-36171D01*
X39158Y-36143D01*
X39300Y-36143D01*
X39386Y-36171D01*
X39643Y-36514D02*
X40100Y-36514D01*
X40386Y-36743D02*
X40386Y-36143D01*
X40529Y-36143D01*
X40614Y-36171D01*
X40672Y-36229D01*
X40700Y-36286D01*
X40729Y-36400D01*
X40729Y-36486D01*
X40700Y-36600D01*
X40672Y-36657D01*
X40614Y-36714D01*
X40529Y-36743D01*
X40386Y-36743D01*
X40986Y-36743D02*
X40986Y-36143D01*
X41214Y-36143D01*
X41272Y-36171D01*
X41300Y-36200D01*
X41329Y-36257D01*
X41329Y-36343D01*
X41300Y-36400D01*
X41272Y-36429D01*
X41214Y-36457D01*
X40986Y-36457D01*
X41586Y-36743D02*
X41586Y-36143D01*
X41729Y-36143D01*
X41814Y-36171D01*
X41872Y-36229D01*
X41900Y-36286D01*
X41929Y-36400D01*
X41929Y-36486D01*
X41900Y-36600D01*
X41872Y-36657D01*
X41814Y-36714D01*
X41729Y-36743D01*
X41586Y-36743D01*
X42100Y-36143D02*
X42443Y-36143D01*
X42272Y-36743D02*
X42272Y-36143D01*
X39058Y-30243D02*
X39058Y-29643D01*
X39401Y-30243D02*
X39144Y-29900D01*
X39401Y-29643D02*
X39058Y-29986D01*
X39601Y-29643D02*
X39972Y-29643D01*
X39772Y-29871D01*
X39858Y-29871D01*
X39915Y-29900D01*
X39944Y-29929D01*
X39972Y-29986D01*
X39972Y-30129D01*
X39944Y-30186D01*
X39915Y-30214D01*
X39858Y-30243D01*
X39686Y-30243D01*
X39629Y-30214D01*
X39601Y-30186D01*
X36986Y-31243D02*
X36786Y-30957D01*
X36643Y-31243D02*
X36643Y-30643D01*
X36871Y-30643D01*
X36929Y-30671D01*
X36957Y-30700D01*
X36986Y-30757D01*
X36986Y-30843D01*
X36957Y-30900D01*
X36929Y-30929D01*
X36871Y-30957D01*
X36643Y-30957D01*
X37243Y-30929D02*
X37443Y-30929D01*
X37529Y-31243D02*
X37243Y-31243D01*
X37243Y-30643D01*
X37529Y-30643D01*
X38072Y-31243D02*
X37786Y-31243D01*
X37786Y-30643D01*
X38243Y-31071D02*
X38529Y-31071D01*
X38186Y-31243D02*
X38386Y-30643D01*
X38586Y-31243D01*
X38786Y-31243D02*
X38786Y-30643D01*
X39043Y-31214D02*
X39129Y-31243D01*
X39272Y-31243D01*
X39329Y-31214D01*
X39358Y-31186D01*
X39386Y-31129D01*
X39386Y-31071D01*
X39358Y-31014D01*
X39329Y-30986D01*
X39272Y-30957D01*
X39158Y-30929D01*
X39100Y-30900D01*
X39072Y-30871D01*
X39043Y-30814D01*
X39043Y-30757D01*
X39072Y-30700D01*
X39100Y-30671D01*
X39158Y-30643D01*
X39300Y-30643D01*
X39386Y-30671D01*
X39643Y-31014D02*
X40100Y-31014D01*
X40386Y-31243D02*
X40386Y-30643D01*
X40529Y-30643D01*
X40614Y-30671D01*
X40672Y-30729D01*
X40700Y-30786D01*
X40729Y-30900D01*
X40729Y-30986D01*
X40700Y-31100D01*
X40672Y-31157D01*
X40614Y-31214D01*
X40529Y-31243D01*
X40386Y-31243D01*
X40986Y-31243D02*
X40986Y-30643D01*
X41214Y-30643D01*
X41272Y-30671D01*
X41300Y-30700D01*
X41329Y-30757D01*
X41329Y-30843D01*
X41300Y-30900D01*
X41272Y-30929D01*
X41214Y-30957D01*
X40986Y-30957D01*
X41586Y-31243D02*
X41586Y-30643D01*
X41729Y-30643D01*
X41814Y-30671D01*
X41872Y-30729D01*
X41900Y-30786D01*
X41929Y-30900D01*
X41929Y-30986D01*
X41900Y-31100D01*
X41872Y-31157D01*
X41814Y-31214D01*
X41729Y-31243D01*
X41586Y-31243D01*
X42100Y-30643D02*
X42443Y-30643D01*
X42272Y-31243D02*
X42272Y-30643D01*
X27058Y-42243D02*
X27058Y-41643D01*
X27401Y-42243D02*
X27144Y-41900D01*
X27401Y-41643D02*
X27058Y-41986D01*
X27915Y-41843D02*
X27915Y-42243D01*
X27772Y-41614D02*
X27629Y-42043D01*
X28001Y-42043D01*
X24986Y-41243D02*
X24786Y-40957D01*
X24643Y-41243D02*
X24643Y-40643D01*
X24871Y-40643D01*
X24929Y-40671D01*
X24957Y-40700D01*
X24986Y-40757D01*
X24986Y-40843D01*
X24957Y-40900D01*
X24929Y-40929D01*
X24871Y-40957D01*
X24643Y-40957D01*
X25243Y-40929D02*
X25443Y-40929D01*
X25529Y-41243D02*
X25243Y-41243D01*
X25243Y-40643D01*
X25529Y-40643D01*
X26072Y-41243D02*
X25786Y-41243D01*
X25786Y-40643D01*
X26243Y-41071D02*
X26529Y-41071D01*
X26186Y-41243D02*
X26386Y-40643D01*
X26586Y-41243D01*
X26786Y-41243D02*
X26786Y-40643D01*
X27043Y-41214D02*
X27129Y-41243D01*
X27272Y-41243D01*
X27329Y-41214D01*
X27358Y-41186D01*
X27386Y-41129D01*
X27386Y-41071D01*
X27358Y-41014D01*
X27329Y-40986D01*
X27272Y-40957D01*
X27158Y-40929D01*
X27100Y-40900D01*
X27072Y-40871D01*
X27043Y-40814D01*
X27043Y-40757D01*
X27072Y-40700D01*
X27100Y-40671D01*
X27158Y-40643D01*
X27300Y-40643D01*
X27386Y-40671D01*
X27643Y-41014D02*
X28100Y-41014D01*
X28386Y-41243D02*
X28386Y-40643D01*
X28529Y-40643D01*
X28614Y-40671D01*
X28672Y-40729D01*
X28700Y-40786D01*
X28729Y-40900D01*
X28729Y-40986D01*
X28700Y-41100D01*
X28672Y-41157D01*
X28614Y-41214D01*
X28529Y-41243D01*
X28386Y-41243D01*
X28986Y-41243D02*
X28986Y-40643D01*
X29214Y-40643D01*
X29272Y-40671D01*
X29300Y-40700D01*
X29329Y-40757D01*
X29329Y-40843D01*
X29300Y-40900D01*
X29272Y-40929D01*
X29214Y-40957D01*
X28986Y-40957D01*
X29586Y-41243D02*
X29586Y-40643D01*
X29729Y-40643D01*
X29814Y-40671D01*
X29872Y-40729D01*
X29900Y-40786D01*
X29929Y-40900D01*
X29929Y-40986D01*
X29900Y-41100D01*
X29872Y-41157D01*
X29814Y-41214D01*
X29729Y-41243D01*
X29586Y-41243D01*
X30100Y-40643D02*
X30443Y-40643D01*
X30272Y-41243D02*
X30272Y-40643D01*
X27058Y-36743D02*
X27058Y-36143D01*
X27401Y-36743D02*
X27144Y-36400D01*
X27401Y-36143D02*
X27058Y-36486D01*
X27944Y-36143D02*
X27658Y-36143D01*
X27629Y-36429D01*
X27658Y-36400D01*
X27715Y-36371D01*
X27858Y-36371D01*
X27915Y-36400D01*
X27944Y-36429D01*
X27972Y-36486D01*
X27972Y-36629D01*
X27944Y-36686D01*
X27915Y-36714D01*
X27858Y-36743D01*
X27715Y-36743D01*
X27658Y-36714D01*
X27629Y-36686D01*
X24986Y-35743D02*
X24786Y-35457D01*
X24643Y-35743D02*
X24643Y-35143D01*
X24871Y-35143D01*
X24929Y-35171D01*
X24957Y-35200D01*
X24986Y-35257D01*
X24986Y-35343D01*
X24957Y-35400D01*
X24929Y-35429D01*
X24871Y-35457D01*
X24643Y-35457D01*
X25243Y-35429D02*
X25443Y-35429D01*
X25529Y-35743D02*
X25243Y-35743D01*
X25243Y-35143D01*
X25529Y-35143D01*
X26072Y-35743D02*
X25786Y-35743D01*
X25786Y-35143D01*
X26243Y-35571D02*
X26529Y-35571D01*
X26186Y-35743D02*
X26386Y-35143D01*
X26586Y-35743D01*
X26786Y-35743D02*
X26786Y-35143D01*
X27043Y-35714D02*
X27129Y-35743D01*
X27272Y-35743D01*
X27329Y-35714D01*
X27358Y-35686D01*
X27386Y-35629D01*
X27386Y-35571D01*
X27358Y-35514D01*
X27329Y-35486D01*
X27272Y-35457D01*
X27158Y-35429D01*
X27100Y-35400D01*
X27072Y-35371D01*
X27043Y-35314D01*
X27043Y-35257D01*
X27072Y-35200D01*
X27100Y-35171D01*
X27158Y-35143D01*
X27300Y-35143D01*
X27386Y-35171D01*
X27643Y-35514D02*
X28100Y-35514D01*
X28386Y-35743D02*
X28386Y-35143D01*
X28529Y-35143D01*
X28614Y-35171D01*
X28672Y-35229D01*
X28700Y-35286D01*
X28729Y-35400D01*
X28729Y-35486D01*
X28700Y-35600D01*
X28672Y-35657D01*
X28614Y-35714D01*
X28529Y-35743D01*
X28386Y-35743D01*
X28986Y-35743D02*
X28986Y-35143D01*
X29214Y-35143D01*
X29272Y-35171D01*
X29300Y-35200D01*
X29329Y-35257D01*
X29329Y-35343D01*
X29300Y-35400D01*
X29272Y-35429D01*
X29214Y-35457D01*
X28986Y-35457D01*
X29586Y-35743D02*
X29586Y-35143D01*
X29729Y-35143D01*
X29814Y-35171D01*
X29872Y-35229D01*
X29900Y-35286D01*
X29929Y-35400D01*
X29929Y-35486D01*
X29900Y-35600D01*
X29872Y-35657D01*
X29814Y-35714D01*
X29729Y-35743D01*
X29586Y-35743D01*
X30100Y-35143D02*
X30443Y-35143D01*
X30272Y-35743D02*
X30272Y-35143D01*
X27058Y-31243D02*
X27058Y-30643D01*
X27401Y-31243D02*
X27144Y-30900D01*
X27401Y-30643D02*
X27058Y-30986D01*
X27915Y-30643D02*
X27801Y-30643D01*
X27744Y-30671D01*
X27715Y-30700D01*
X27658Y-30786D01*
X27629Y-30900D01*
X27629Y-31129D01*
X27658Y-31186D01*
X27686Y-31214D01*
X27744Y-31243D01*
X27858Y-31243D01*
X27915Y-31214D01*
X27944Y-31186D01*
X27972Y-31129D01*
X27972Y-30986D01*
X27944Y-30929D01*
X27915Y-30900D01*
X27858Y-30871D01*
X27744Y-30871D01*
X27686Y-30900D01*
X27658Y-30929D01*
X27629Y-30986D01*
X24986Y-30243D02*
X24786Y-29957D01*
X24643Y-30243D02*
X24643Y-29643D01*
X24871Y-29643D01*
X24929Y-29671D01*
X24957Y-29700D01*
X24986Y-29757D01*
X24986Y-29843D01*
X24957Y-29900D01*
X24929Y-29929D01*
X24871Y-29957D01*
X24643Y-29957D01*
X25243Y-29929D02*
X25443Y-29929D01*
X25529Y-30243D02*
X25243Y-30243D01*
X25243Y-29643D01*
X25529Y-29643D01*
X26072Y-30243D02*
X25786Y-30243D01*
X25786Y-29643D01*
X26243Y-30071D02*
X26529Y-30071D01*
X26186Y-30243D02*
X26386Y-29643D01*
X26586Y-30243D01*
X26786Y-30243D02*
X26786Y-29643D01*
X27043Y-30214D02*
X27129Y-30243D01*
X27272Y-30243D01*
X27329Y-30214D01*
X27358Y-30186D01*
X27386Y-30129D01*
X27386Y-30071D01*
X27358Y-30014D01*
X27329Y-29986D01*
X27272Y-29957D01*
X27158Y-29929D01*
X27100Y-29900D01*
X27072Y-29871D01*
X27043Y-29814D01*
X27043Y-29757D01*
X27072Y-29700D01*
X27100Y-29671D01*
X27158Y-29643D01*
X27300Y-29643D01*
X27386Y-29671D01*
X27643Y-30014D02*
X28100Y-30014D01*
X28386Y-30243D02*
X28386Y-29643D01*
X28529Y-29643D01*
X28614Y-29671D01*
X28672Y-29729D01*
X28700Y-29786D01*
X28729Y-29900D01*
X28729Y-29986D01*
X28700Y-30100D01*
X28672Y-30157D01*
X28614Y-30214D01*
X28529Y-30243D01*
X28386Y-30243D01*
X28986Y-30243D02*
X28986Y-29643D01*
X29214Y-29643D01*
X29272Y-29671D01*
X29300Y-29700D01*
X29329Y-29757D01*
X29329Y-29843D01*
X29300Y-29900D01*
X29272Y-29929D01*
X29214Y-29957D01*
X28986Y-29957D01*
X29586Y-30243D02*
X29586Y-29643D01*
X29729Y-29643D01*
X29814Y-29671D01*
X29872Y-29729D01*
X29900Y-29786D01*
X29929Y-29900D01*
X29929Y-29986D01*
X29900Y-30100D01*
X29872Y-30157D01*
X29814Y-30214D01*
X29729Y-30243D01*
X29586Y-30243D01*
X30100Y-29643D02*
X30443Y-29643D01*
X30272Y-30243D02*
X30272Y-29643D01*
G54D14*
X45662Y-41795D02*
X45262Y-41795D01*
X45262Y-41700D01*
X45281Y-41642D01*
X45319Y-41604D01*
X45357Y-41585D01*
X45433Y-41566D01*
X45490Y-41566D01*
X45567Y-41585D01*
X45605Y-41604D01*
X45643Y-41642D01*
X45662Y-41700D01*
X45662Y-41795D01*
X45395Y-41223D02*
X45662Y-41223D01*
X45243Y-41319D02*
X45529Y-41414D01*
X45529Y-41166D01*
X46162Y-42290D02*
X45762Y-42290D01*
X45762Y-42195D01*
X45781Y-42137D01*
X45819Y-42099D01*
X45857Y-42080D01*
X45933Y-42061D01*
X45990Y-42061D01*
X46067Y-42080D01*
X46105Y-42099D01*
X46143Y-42137D01*
X46162Y-42195D01*
X46162Y-42290D01*
X46162Y-41890D02*
X45762Y-41890D01*
X45762Y-41624D02*
X45762Y-41547D01*
X45781Y-41509D01*
X45819Y-41471D01*
X45895Y-41452D01*
X46029Y-41452D01*
X46105Y-41471D01*
X46143Y-41509D01*
X46162Y-41547D01*
X46162Y-41624D01*
X46143Y-41662D01*
X46105Y-41700D01*
X46029Y-41719D01*
X45895Y-41719D01*
X45819Y-41700D01*
X45781Y-41662D01*
X45762Y-41624D01*
X46162Y-41281D02*
X45762Y-41281D01*
X45762Y-41186D01*
X45781Y-41128D01*
X45819Y-41090D01*
X45857Y-41071D01*
X45933Y-41052D01*
X45990Y-41052D01*
X46067Y-41071D01*
X46105Y-41090D01*
X46143Y-41128D01*
X46162Y-41186D01*
X46162Y-41281D01*
X45952Y-40881D02*
X45952Y-40747D01*
X46162Y-40690D02*
X46162Y-40881D01*
X45762Y-40881D01*
X45762Y-40690D01*
X45662Y-36295D02*
X45262Y-36295D01*
X45262Y-36200D01*
X45281Y-36142D01*
X45319Y-36104D01*
X45357Y-36085D01*
X45433Y-36066D01*
X45490Y-36066D01*
X45567Y-36085D01*
X45605Y-36104D01*
X45643Y-36142D01*
X45662Y-36200D01*
X45662Y-36295D01*
X45262Y-35704D02*
X45262Y-35895D01*
X45452Y-35914D01*
X45433Y-35895D01*
X45414Y-35857D01*
X45414Y-35761D01*
X45433Y-35723D01*
X45452Y-35704D01*
X45490Y-35685D01*
X45586Y-35685D01*
X45624Y-35704D01*
X45643Y-35723D01*
X45662Y-35761D01*
X45662Y-35857D01*
X45643Y-35895D01*
X45624Y-35914D01*
X46162Y-36790D02*
X45762Y-36790D01*
X45762Y-36695D01*
X45781Y-36637D01*
X45819Y-36599D01*
X45857Y-36580D01*
X45933Y-36561D01*
X45990Y-36561D01*
X46067Y-36580D01*
X46105Y-36599D01*
X46143Y-36637D01*
X46162Y-36695D01*
X46162Y-36790D01*
X46162Y-36390D02*
X45762Y-36390D01*
X45762Y-36124D02*
X45762Y-36047D01*
X45781Y-36009D01*
X45819Y-35971D01*
X45895Y-35952D01*
X46029Y-35952D01*
X46105Y-35971D01*
X46143Y-36009D01*
X46162Y-36047D01*
X46162Y-36124D01*
X46143Y-36162D01*
X46105Y-36200D01*
X46029Y-36219D01*
X45895Y-36219D01*
X45819Y-36200D01*
X45781Y-36162D01*
X45762Y-36124D01*
X46162Y-35781D02*
X45762Y-35781D01*
X45762Y-35686D01*
X45781Y-35628D01*
X45819Y-35590D01*
X45857Y-35571D01*
X45933Y-35552D01*
X45990Y-35552D01*
X46067Y-35571D01*
X46105Y-35590D01*
X46143Y-35628D01*
X46162Y-35686D01*
X46162Y-35781D01*
X45952Y-35381D02*
X45952Y-35247D01*
X46162Y-35190D02*
X46162Y-35381D01*
X45762Y-35381D01*
X45762Y-35190D01*
X45662Y-30795D02*
X45262Y-30795D01*
X45262Y-30700D01*
X45281Y-30642D01*
X45319Y-30604D01*
X45357Y-30585D01*
X45433Y-30566D01*
X45490Y-30566D01*
X45567Y-30585D01*
X45605Y-30604D01*
X45643Y-30642D01*
X45662Y-30700D01*
X45662Y-30795D01*
X45262Y-30223D02*
X45262Y-30300D01*
X45281Y-30338D01*
X45300Y-30357D01*
X45357Y-30395D01*
X45433Y-30414D01*
X45586Y-30414D01*
X45624Y-30395D01*
X45643Y-30376D01*
X45662Y-30338D01*
X45662Y-30261D01*
X45643Y-30223D01*
X45624Y-30204D01*
X45586Y-30185D01*
X45490Y-30185D01*
X45452Y-30204D01*
X45433Y-30223D01*
X45414Y-30261D01*
X45414Y-30338D01*
X45433Y-30376D01*
X45452Y-30395D01*
X45490Y-30414D01*
X46162Y-31290D02*
X45762Y-31290D01*
X45762Y-31195D01*
X45781Y-31137D01*
X45819Y-31099D01*
X45857Y-31080D01*
X45933Y-31061D01*
X45990Y-31061D01*
X46067Y-31080D01*
X46105Y-31099D01*
X46143Y-31137D01*
X46162Y-31195D01*
X46162Y-31290D01*
X46162Y-30890D02*
X45762Y-30890D01*
X45762Y-30624D02*
X45762Y-30547D01*
X45781Y-30509D01*
X45819Y-30471D01*
X45895Y-30452D01*
X46029Y-30452D01*
X46105Y-30471D01*
X46143Y-30509D01*
X46162Y-30547D01*
X46162Y-30624D01*
X46143Y-30662D01*
X46105Y-30700D01*
X46029Y-30719D01*
X45895Y-30719D01*
X45819Y-30700D01*
X45781Y-30662D01*
X45762Y-30624D01*
X46162Y-30281D02*
X45762Y-30281D01*
X45762Y-30186D01*
X45781Y-30128D01*
X45819Y-30090D01*
X45857Y-30071D01*
X45933Y-30052D01*
X45990Y-30052D01*
X46067Y-30071D01*
X46105Y-30090D01*
X46143Y-30128D01*
X46162Y-30186D01*
X46162Y-30281D01*
X45952Y-29881D02*
X45952Y-29747D01*
X46162Y-29690D02*
X46162Y-29881D01*
X45762Y-29881D01*
X45762Y-29690D01*
X20662Y-41795D02*
X20262Y-41795D01*
X20262Y-41700D01*
X20281Y-41642D01*
X20319Y-41604D01*
X20357Y-41585D01*
X20433Y-41566D01*
X20490Y-41566D01*
X20567Y-41585D01*
X20605Y-41604D01*
X20643Y-41642D01*
X20662Y-41700D01*
X20662Y-41795D01*
X20262Y-41433D02*
X20262Y-41166D01*
X20662Y-41338D01*
X21162Y-42290D02*
X20762Y-42290D01*
X20762Y-42195D01*
X20781Y-42137D01*
X20819Y-42099D01*
X20857Y-42080D01*
X20933Y-42061D01*
X20990Y-42061D01*
X21067Y-42080D01*
X21105Y-42099D01*
X21143Y-42137D01*
X21162Y-42195D01*
X21162Y-42290D01*
X21162Y-41890D02*
X20762Y-41890D01*
X20762Y-41624D02*
X20762Y-41547D01*
X20781Y-41509D01*
X20819Y-41471D01*
X20895Y-41452D01*
X21029Y-41452D01*
X21105Y-41471D01*
X21143Y-41509D01*
X21162Y-41547D01*
X21162Y-41624D01*
X21143Y-41662D01*
X21105Y-41700D01*
X21029Y-41719D01*
X20895Y-41719D01*
X20819Y-41700D01*
X20781Y-41662D01*
X20762Y-41624D01*
X21162Y-41281D02*
X20762Y-41281D01*
X20762Y-41186D01*
X20781Y-41128D01*
X20819Y-41090D01*
X20857Y-41071D01*
X20933Y-41052D01*
X20990Y-41052D01*
X21067Y-41071D01*
X21105Y-41090D01*
X21143Y-41128D01*
X21162Y-41186D01*
X21162Y-41281D01*
X20952Y-40881D02*
X20952Y-40747D01*
X21162Y-40690D02*
X21162Y-40881D01*
X20762Y-40881D01*
X20762Y-40690D01*
X20662Y-36295D02*
X20262Y-36295D01*
X20262Y-36200D01*
X20281Y-36142D01*
X20319Y-36104D01*
X20357Y-36085D01*
X20433Y-36066D01*
X20490Y-36066D01*
X20567Y-36085D01*
X20605Y-36104D01*
X20643Y-36142D01*
X20662Y-36200D01*
X20662Y-36295D01*
X20433Y-35838D02*
X20414Y-35876D01*
X20395Y-35895D01*
X20357Y-35914D01*
X20338Y-35914D01*
X20300Y-35895D01*
X20281Y-35876D01*
X20262Y-35838D01*
X20262Y-35761D01*
X20281Y-35723D01*
X20300Y-35704D01*
X20338Y-35685D01*
X20357Y-35685D01*
X20395Y-35704D01*
X20414Y-35723D01*
X20433Y-35761D01*
X20433Y-35838D01*
X20452Y-35876D01*
X20471Y-35895D01*
X20510Y-35914D01*
X20586Y-35914D01*
X20624Y-35895D01*
X20643Y-35876D01*
X20662Y-35838D01*
X20662Y-35761D01*
X20643Y-35723D01*
X20624Y-35704D01*
X20586Y-35685D01*
X20510Y-35685D01*
X20471Y-35704D01*
X20452Y-35723D01*
X20433Y-35761D01*
X21162Y-36790D02*
X20762Y-36790D01*
X20762Y-36695D01*
X20781Y-36637D01*
X20819Y-36599D01*
X20857Y-36580D01*
X20933Y-36561D01*
X20990Y-36561D01*
X21067Y-36580D01*
X21105Y-36599D01*
X21143Y-36637D01*
X21162Y-36695D01*
X21162Y-36790D01*
X21162Y-36390D02*
X20762Y-36390D01*
X20762Y-36124D02*
X20762Y-36047D01*
X20781Y-36009D01*
X20819Y-35971D01*
X20895Y-35952D01*
X21029Y-35952D01*
X21105Y-35971D01*
X21143Y-36009D01*
X21162Y-36047D01*
X21162Y-36124D01*
X21143Y-36162D01*
X21105Y-36200D01*
X21029Y-36219D01*
X20895Y-36219D01*
X20819Y-36200D01*
X20781Y-36162D01*
X20762Y-36124D01*
X21162Y-35781D02*
X20762Y-35781D01*
X20762Y-35686D01*
X20781Y-35628D01*
X20819Y-35590D01*
X20857Y-35571D01*
X20933Y-35552D01*
X20990Y-35552D01*
X21067Y-35571D01*
X21105Y-35590D01*
X21143Y-35628D01*
X21162Y-35686D01*
X21162Y-35781D01*
X20952Y-35381D02*
X20952Y-35247D01*
X21162Y-35190D02*
X21162Y-35381D01*
X20762Y-35381D01*
X20762Y-35190D01*
X20662Y-30795D02*
X20262Y-30795D01*
X20262Y-30700D01*
X20281Y-30642D01*
X20319Y-30604D01*
X20357Y-30585D01*
X20433Y-30566D01*
X20490Y-30566D01*
X20567Y-30585D01*
X20605Y-30604D01*
X20643Y-30642D01*
X20662Y-30700D01*
X20662Y-30795D01*
X20662Y-30376D02*
X20662Y-30300D01*
X20643Y-30261D01*
X20624Y-30242D01*
X20567Y-30204D01*
X20490Y-30185D01*
X20338Y-30185D01*
X20300Y-30204D01*
X20281Y-30223D01*
X20262Y-30261D01*
X20262Y-30338D01*
X20281Y-30376D01*
X20300Y-30395D01*
X20338Y-30414D01*
X20433Y-30414D01*
X20471Y-30395D01*
X20490Y-30376D01*
X20510Y-30338D01*
X20510Y-30261D01*
X20490Y-30223D01*
X20471Y-30204D01*
X20433Y-30185D01*
X21162Y-31290D02*
X20762Y-31290D01*
X20762Y-31195D01*
X20781Y-31137D01*
X20819Y-31099D01*
X20857Y-31080D01*
X20933Y-31061D01*
X20990Y-31061D01*
X21067Y-31080D01*
X21105Y-31099D01*
X21143Y-31137D01*
X21162Y-31195D01*
X21162Y-31290D01*
X21162Y-30890D02*
X20762Y-30890D01*
X20762Y-30624D02*
X20762Y-30547D01*
X20781Y-30509D01*
X20819Y-30471D01*
X20895Y-30452D01*
X21029Y-30452D01*
X21105Y-30471D01*
X21143Y-30509D01*
X21162Y-30547D01*
X21162Y-30624D01*
X21143Y-30662D01*
X21105Y-30700D01*
X21029Y-30719D01*
X20895Y-30719D01*
X20819Y-30700D01*
X20781Y-30662D01*
X20762Y-30624D01*
X21162Y-30281D02*
X20762Y-30281D01*
X20762Y-30186D01*
X20781Y-30128D01*
X20819Y-30090D01*
X20857Y-30071D01*
X20933Y-30052D01*
X20990Y-30052D01*
X21067Y-30071D01*
X21105Y-30090D01*
X21143Y-30128D01*
X21162Y-30186D01*
X21162Y-30281D01*
X20952Y-29881D02*
X20952Y-29747D01*
X21162Y-29690D02*
X21162Y-29881D01*
X20762Y-29881D01*
X20762Y-29690D01*
%LPC*%
G54D17*
X48500Y-25000D03*
X49500Y-25000D03*
X49500Y-45500D03*
X50500Y-45500D03*
G54D18*
X49500Y-44000D03*
G54D17*
X50500Y-44000D03*
G54D18*
X51500Y-25500D03*
G54D17*
X51500Y-24500D03*
G54D19*
X47500Y-27000D03*
G54D20*
X47500Y-28000D03*
X47500Y-29000D03*
X47500Y-30000D03*
X47500Y-31000D03*
X47500Y-32000D03*
X47500Y-33000D03*
X50500Y-33000D03*
X50500Y-32000D03*
X50500Y-31000D03*
X50500Y-30000D03*
X50500Y-29000D03*
X50500Y-28000D03*
X50500Y-27000D03*
G54D19*
X50500Y-39500D03*
G54D20*
X50500Y-38500D03*
X50500Y-37500D03*
X50500Y-36500D03*
X47500Y-36500D03*
X47500Y-37500D03*
X47500Y-38500D03*
X47500Y-39500D03*
G54D18*
X38476Y-45571D03*
G54D17*
X39476Y-45571D03*
G54D18*
X46547Y-47441D03*
G54D17*
X47547Y-47441D03*
G54D18*
X26000Y-45500D03*
G54D17*
X27000Y-45500D03*
G54D18*
X46547Y-44980D03*
G54D17*
X47547Y-44980D03*
G54D18*
X41035Y-45571D03*
G54D17*
X42035Y-45571D03*
G54D18*
X23500Y-45500D03*
G54D17*
X24500Y-45500D03*
G54D18*
X43500Y-45500D03*
G54D17*
X44500Y-45500D03*
G54D18*
X28500Y-45500D03*
G54D17*
X29500Y-45500D03*
G54D18*
X31000Y-45500D03*
G54D17*
X32000Y-45500D03*
X44000Y-22500D03*
X45000Y-22500D03*
G54D18*
X47000Y-22500D03*
G54D17*
X46000Y-22500D03*
G54D18*
X46457Y-49402D03*
G54D17*
X46457Y-50402D03*
G54D18*
X27500Y-21000D03*
G54D17*
X27500Y-22000D03*
X48598Y-47047D03*
X51598Y-47047D03*
X52000Y-30500D03*
X52000Y-33500D03*
X50417Y-34941D03*
X47417Y-34941D03*
X41512Y-49508D03*
X44512Y-49508D03*
X30000Y-24500D03*
X27000Y-24500D03*
X50500Y-41500D03*
X47500Y-41500D03*
X47500Y-42500D03*
X50500Y-42500D03*
X52000Y-36500D03*
X52000Y-39500D03*
G54D18*
X34752Y-46457D03*
G54D17*
X33752Y-46457D03*
X26059Y-48130D03*
X29059Y-48130D03*
G54D18*
X37000Y-26500D03*
G54D17*
X38000Y-26500D03*
X38000Y-25500D03*
G54D18*
X31000Y-26500D03*
G54D17*
X32000Y-26500D03*
X32000Y-25500D03*
G54D18*
X40000Y-26500D03*
G54D17*
X41000Y-26500D03*
X41000Y-25500D03*
G54D18*
X34000Y-26500D03*
G54D17*
X35000Y-26500D03*
X35000Y-25500D03*
G54D18*
X43000Y-26500D03*
G54D17*
X44000Y-26500D03*
X44000Y-25500D03*
G54D18*
X28000Y-26500D03*
G54D17*
X29000Y-26500D03*
X29000Y-25500D03*
G54D21*
X50000Y-50000D03*
X50000Y-22500D03*
X22500Y-50000D03*
G54D22*
X44500Y-43000D03*
G54D23*
X44500Y-40000D03*
X38500Y-43000D03*
X38500Y-40000D03*
X36500Y-43000D03*
X36500Y-40000D03*
X34500Y-43000D03*
X34500Y-40000D03*
G54D22*
X44500Y-37500D03*
G54D23*
X44500Y-34500D03*
X38500Y-37500D03*
X38500Y-34500D03*
X36500Y-37500D03*
X36500Y-34500D03*
X34500Y-37500D03*
X34500Y-34500D03*
G54D22*
X44500Y-32000D03*
G54D23*
X44500Y-29000D03*
X38500Y-32000D03*
X38500Y-29000D03*
X36500Y-32000D03*
X36500Y-29000D03*
X34500Y-32000D03*
X34500Y-29000D03*
G54D22*
X22500Y-40000D03*
G54D23*
X22500Y-43000D03*
X28500Y-40000D03*
X28500Y-43000D03*
X30500Y-40000D03*
X30500Y-43000D03*
X32500Y-40000D03*
X32500Y-43000D03*
G54D22*
X22500Y-34500D03*
G54D23*
X22500Y-37500D03*
X28500Y-34500D03*
X28500Y-37500D03*
X30500Y-34500D03*
X30500Y-37500D03*
X32500Y-34500D03*
X32500Y-37500D03*
G54D22*
X22500Y-29000D03*
G54D23*
X22500Y-32000D03*
X28500Y-29000D03*
X28500Y-32000D03*
X30500Y-29000D03*
X30500Y-32000D03*
X32500Y-29000D03*
X32500Y-32000D03*
G54D24*
X46000Y-40000D03*
G54D25*
X46000Y-43000D03*
G54D24*
X46000Y-34500D03*
G54D25*
X46000Y-37500D03*
G54D24*
X46000Y-29000D03*
G54D25*
X46000Y-32000D03*
G54D24*
X21000Y-43000D03*
G54D25*
X21000Y-40000D03*
G54D24*
X21000Y-37500D03*
G54D25*
X21000Y-34500D03*
G54D24*
X21000Y-32000D03*
G54D25*
X21000Y-29000D03*
G54D26*
X38250Y-22000D03*
G54D27*
X38250Y-23000D03*
X37250Y-22000D03*
X37250Y-23000D03*
X36250Y-22000D03*
X36250Y-23000D03*
X35250Y-22000D03*
X35250Y-23000D03*
X34250Y-22000D03*
X34250Y-23000D03*
G54D26*
X34250Y-50500D03*
G54D27*
X34250Y-49500D03*
X35250Y-50500D03*
X35250Y-49500D03*
X36250Y-50500D03*
X36250Y-49500D03*
X37250Y-50500D03*
X37250Y-49500D03*
X38250Y-50500D03*
X38250Y-49500D03*
G54D17*
X40250Y-49750D03*
X45079Y-47343D03*
X33250Y-27250D03*
X40500Y-24750D03*
X30750Y-25500D03*
X45500Y-26750D03*
X33750Y-25250D03*
X42500Y-25500D03*
X47441Y-24114D03*
X42750Y-22000D03*
X36750Y-24500D03*
X30500Y-23000D03*
X39250Y-25000D03*
X45500Y-25500D03*
X31791Y-20768D03*
M02*
