G04 (created by PCBNEW-RS274X (2012-01-19 BZR 3256)-stable) date 19/03/2013 15:46:17*
G01*
G70*
G90*
%MOIN*%
G04 Gerber Fmt 3.4, Leading zero omitted, Abs format*
%FSLAX34Y34*%
G04 APERTURE LIST*
%ADD10C,0.006000*%
%ADD11C,0.012000*%
%ADD12C,0.015000*%
%ADD13C,0.008000*%
%ADD14C,0.010000*%
%ADD15C,0.011300*%
%ADD16C,0.005000*%
%ADD17C,0.090000*%
%ADD18R,0.090000X0.090000*%
%ADD19C,0.100000*%
%ADD20R,0.110000X0.110000*%
%ADD21C,0.110000*%
%ADD22C,0.095000*%
%ADD23R,0.095000X0.095000*%
%ADD24R,0.110000X0.082000*%
%ADD25O,0.110000X0.082000*%
%ADD26C,0.085000*%
%ADD27C,0.270000*%
%ADD28R,0.370000X0.370000*%
%ADD29R,0.120000X0.120000*%
%ADD30C,0.120000*%
G04 APERTURE END LIST*
G54D10*
X04000Y-04000D02*
X113000Y-04000D01*
X113000Y-78670D01*
X04000Y-78670D01*
X04000Y-04000D01*
X04700Y-04700D02*
X112300Y-04700D01*
X112300Y-77970D01*
X04700Y-77970D01*
X04700Y-04700D01*
X25800Y-04000D02*
X25800Y-04700D01*
X15043Y-04552D02*
X14757Y-04552D01*
X14900Y-04552D02*
X14900Y-04052D01*
X14852Y-04124D01*
X14805Y-04171D01*
X14757Y-04195D01*
X25800Y-78670D02*
X25800Y-77970D01*
X15043Y-78522D02*
X14757Y-78522D01*
X14900Y-78522D02*
X14900Y-78022D01*
X14852Y-78094D01*
X14805Y-78141D01*
X14757Y-78165D01*
X47600Y-04000D02*
X47600Y-04700D01*
X36557Y-04100D02*
X36581Y-04076D01*
X36629Y-04052D01*
X36748Y-04052D01*
X36795Y-04076D01*
X36819Y-04100D01*
X36843Y-04148D01*
X36843Y-04195D01*
X36819Y-04267D01*
X36533Y-04552D01*
X36843Y-04552D01*
X47600Y-78670D02*
X47600Y-77970D01*
X36557Y-78070D02*
X36581Y-78046D01*
X36629Y-78022D01*
X36748Y-78022D01*
X36795Y-78046D01*
X36819Y-78070D01*
X36843Y-78118D01*
X36843Y-78165D01*
X36819Y-78237D01*
X36533Y-78522D01*
X36843Y-78522D01*
X69400Y-04000D02*
X69400Y-04700D01*
X58333Y-04052D02*
X58643Y-04052D01*
X58476Y-04243D01*
X58548Y-04243D01*
X58595Y-04267D01*
X58619Y-04290D01*
X58643Y-04338D01*
X58643Y-04457D01*
X58619Y-04505D01*
X58595Y-04529D01*
X58548Y-04552D01*
X58405Y-04552D01*
X58357Y-04529D01*
X58333Y-04505D01*
X69400Y-78670D02*
X69400Y-77970D01*
X58333Y-78022D02*
X58643Y-78022D01*
X58476Y-78213D01*
X58548Y-78213D01*
X58595Y-78237D01*
X58619Y-78260D01*
X58643Y-78308D01*
X58643Y-78427D01*
X58619Y-78475D01*
X58595Y-78499D01*
X58548Y-78522D01*
X58405Y-78522D01*
X58357Y-78499D01*
X58333Y-78475D01*
X91200Y-04000D02*
X91200Y-04700D01*
X80395Y-04219D02*
X80395Y-04552D01*
X80276Y-04029D02*
X80157Y-04386D01*
X80467Y-04386D01*
X91200Y-78670D02*
X91200Y-77970D01*
X80395Y-78189D02*
X80395Y-78522D01*
X80276Y-77999D02*
X80157Y-78356D01*
X80467Y-78356D01*
X102219Y-04052D02*
X101981Y-04052D01*
X101957Y-04290D01*
X101981Y-04267D01*
X102029Y-04243D01*
X102148Y-04243D01*
X102195Y-04267D01*
X102219Y-04290D01*
X102243Y-04338D01*
X102243Y-04457D01*
X102219Y-04505D01*
X102195Y-04529D01*
X102148Y-04552D01*
X102029Y-04552D01*
X101981Y-04529D01*
X101957Y-04505D01*
X102219Y-78022D02*
X101981Y-78022D01*
X101957Y-78260D01*
X101981Y-78237D01*
X102029Y-78213D01*
X102148Y-78213D01*
X102195Y-78237D01*
X102219Y-78260D01*
X102243Y-78308D01*
X102243Y-78427D01*
X102219Y-78475D01*
X102195Y-78499D01*
X102148Y-78522D01*
X102029Y-78522D01*
X101981Y-78499D01*
X101957Y-78475D01*
X04000Y-28890D02*
X04700Y-28890D01*
X04231Y-16510D02*
X04469Y-16510D01*
X04184Y-16652D02*
X04350Y-16152D01*
X04517Y-16652D01*
X113000Y-28890D02*
X112300Y-28890D01*
X112531Y-16510D02*
X112769Y-16510D01*
X112484Y-16652D02*
X112650Y-16152D01*
X112817Y-16652D01*
X04000Y-53780D02*
X04700Y-53780D01*
X04386Y-41280D02*
X04457Y-41304D01*
X04481Y-41328D01*
X04505Y-41376D01*
X04505Y-41447D01*
X04481Y-41495D01*
X04457Y-41519D01*
X04410Y-41542D01*
X04219Y-41542D01*
X04219Y-41042D01*
X04386Y-41042D01*
X04433Y-41066D01*
X04457Y-41090D01*
X04481Y-41138D01*
X04481Y-41185D01*
X04457Y-41233D01*
X04433Y-41257D01*
X04386Y-41280D01*
X04219Y-41280D01*
X113000Y-53780D02*
X112300Y-53780D01*
X112686Y-41280D02*
X112757Y-41304D01*
X112781Y-41328D01*
X112805Y-41376D01*
X112805Y-41447D01*
X112781Y-41495D01*
X112757Y-41519D01*
X112710Y-41542D01*
X112519Y-41542D01*
X112519Y-41042D01*
X112686Y-41042D01*
X112733Y-41066D01*
X112757Y-41090D01*
X112781Y-41138D01*
X112781Y-41185D01*
X112757Y-41233D01*
X112733Y-41257D01*
X112686Y-41280D01*
X112519Y-41280D01*
X04505Y-66385D02*
X04481Y-66409D01*
X04410Y-66432D01*
X04362Y-66432D01*
X04290Y-66409D01*
X04243Y-66361D01*
X04219Y-66313D01*
X04195Y-66218D01*
X04195Y-66147D01*
X04219Y-66051D01*
X04243Y-66004D01*
X04290Y-65956D01*
X04362Y-65932D01*
X04410Y-65932D01*
X04481Y-65956D01*
X04505Y-65980D01*
X112805Y-66385D02*
X112781Y-66409D01*
X112710Y-66432D01*
X112662Y-66432D01*
X112590Y-66409D01*
X112543Y-66361D01*
X112519Y-66313D01*
X112495Y-66218D01*
X112495Y-66147D01*
X112519Y-66051D01*
X112543Y-66004D01*
X112590Y-65956D01*
X112662Y-65932D01*
X112710Y-65932D01*
X112781Y-65956D01*
X112805Y-65980D01*
G54D11*
X79443Y-76413D02*
X79443Y-75813D01*
X79586Y-75813D01*
X79671Y-75841D01*
X79729Y-75899D01*
X79757Y-75956D01*
X79786Y-76070D01*
X79786Y-76156D01*
X79757Y-76270D01*
X79729Y-76327D01*
X79671Y-76384D01*
X79586Y-76413D01*
X79443Y-76413D01*
X80300Y-76413D02*
X80300Y-76099D01*
X80271Y-76041D01*
X80214Y-76013D01*
X80100Y-76013D01*
X80043Y-76041D01*
X80300Y-76384D02*
X80243Y-76413D01*
X80100Y-76413D01*
X80043Y-76384D01*
X80014Y-76327D01*
X80014Y-76270D01*
X80043Y-76213D01*
X80100Y-76184D01*
X80243Y-76184D01*
X80300Y-76156D01*
X80500Y-76013D02*
X80729Y-76013D01*
X80586Y-75813D02*
X80586Y-76327D01*
X80614Y-76384D01*
X80672Y-76413D01*
X80729Y-76413D01*
X81157Y-76384D02*
X81100Y-76413D01*
X80986Y-76413D01*
X80929Y-76384D01*
X80900Y-76327D01*
X80900Y-76099D01*
X80929Y-76041D01*
X80986Y-76013D01*
X81100Y-76013D01*
X81157Y-76041D01*
X81186Y-76099D01*
X81186Y-76156D01*
X80900Y-76213D01*
X81443Y-76356D02*
X81471Y-76384D01*
X81443Y-76413D01*
X81414Y-76384D01*
X81443Y-76356D01*
X81443Y-76413D01*
X81443Y-76041D02*
X81471Y-76070D01*
X81443Y-76099D01*
X81414Y-76070D01*
X81443Y-76041D01*
X81443Y-76099D01*
X82500Y-76413D02*
X82157Y-76413D01*
X82329Y-76413D02*
X82329Y-75813D01*
X82272Y-75899D01*
X82214Y-75956D01*
X82157Y-75984D01*
X82785Y-76413D02*
X82900Y-76413D01*
X82957Y-76384D01*
X82985Y-76356D01*
X83043Y-76270D01*
X83071Y-76156D01*
X83071Y-75927D01*
X83043Y-75870D01*
X83014Y-75841D01*
X82957Y-75813D01*
X82843Y-75813D01*
X82785Y-75841D01*
X82757Y-75870D01*
X82728Y-75927D01*
X82728Y-76070D01*
X82757Y-76127D01*
X82785Y-76156D01*
X82843Y-76184D01*
X82957Y-76184D01*
X83014Y-76156D01*
X83043Y-76127D01*
X83071Y-76070D01*
X83785Y-76413D02*
X83785Y-76013D01*
X83785Y-76070D02*
X83813Y-76041D01*
X83871Y-76013D01*
X83956Y-76013D01*
X84013Y-76041D01*
X84042Y-76099D01*
X84042Y-76413D01*
X84042Y-76099D02*
X84071Y-76041D01*
X84128Y-76013D01*
X84213Y-76013D01*
X84271Y-76041D01*
X84299Y-76099D01*
X84299Y-76413D01*
X84842Y-76413D02*
X84842Y-76099D01*
X84813Y-76041D01*
X84756Y-76013D01*
X84642Y-76013D01*
X84585Y-76041D01*
X84842Y-76384D02*
X84785Y-76413D01*
X84642Y-76413D01*
X84585Y-76384D01*
X84556Y-76327D01*
X84556Y-76270D01*
X84585Y-76213D01*
X84642Y-76184D01*
X84785Y-76184D01*
X84842Y-76156D01*
X85128Y-76413D02*
X85128Y-76013D01*
X85128Y-76127D02*
X85156Y-76070D01*
X85185Y-76041D01*
X85242Y-76013D01*
X85299Y-76013D01*
X85927Y-75870D02*
X85956Y-75841D01*
X86013Y-75813D01*
X86156Y-75813D01*
X86213Y-75841D01*
X86242Y-75870D01*
X86270Y-75927D01*
X86270Y-75984D01*
X86242Y-76070D01*
X85899Y-76413D01*
X86270Y-76413D01*
X86641Y-75813D02*
X86698Y-75813D01*
X86755Y-75841D01*
X86784Y-75870D01*
X86813Y-75927D01*
X86841Y-76041D01*
X86841Y-76184D01*
X86813Y-76299D01*
X86784Y-76356D01*
X86755Y-76384D01*
X86698Y-76413D01*
X86641Y-76413D01*
X86584Y-76384D01*
X86555Y-76356D01*
X86527Y-76299D01*
X86498Y-76184D01*
X86498Y-76041D01*
X86527Y-75927D01*
X86555Y-75870D01*
X86584Y-75841D01*
X86641Y-75813D01*
X87412Y-76413D02*
X87069Y-76413D01*
X87241Y-76413D02*
X87241Y-75813D01*
X87184Y-75899D01*
X87126Y-75956D01*
X87069Y-75984D01*
X87612Y-75813D02*
X87983Y-75813D01*
X87783Y-76041D01*
X87869Y-76041D01*
X87926Y-76070D01*
X87955Y-76099D01*
X87983Y-76156D01*
X87983Y-76299D01*
X87955Y-76356D01*
X87926Y-76384D01*
X87869Y-76413D01*
X87697Y-76413D01*
X87640Y-76384D01*
X87612Y-76356D01*
G54D10*
X71043Y-77613D02*
X71043Y-77013D01*
X71386Y-77613D02*
X71129Y-77270D01*
X71386Y-77013D02*
X71043Y-77356D01*
X71643Y-77613D02*
X71643Y-77213D01*
X71643Y-77013D02*
X71614Y-77041D01*
X71643Y-77070D01*
X71671Y-77041D01*
X71643Y-77013D01*
X71643Y-77070D01*
X72272Y-77556D02*
X72243Y-77584D01*
X72157Y-77613D01*
X72100Y-77613D01*
X72015Y-77584D01*
X71957Y-77527D01*
X71929Y-77470D01*
X71900Y-77356D01*
X71900Y-77270D01*
X71929Y-77156D01*
X71957Y-77099D01*
X72015Y-77041D01*
X72100Y-77013D01*
X72157Y-77013D01*
X72243Y-77041D01*
X72272Y-77070D01*
X72786Y-77613D02*
X72786Y-77299D01*
X72757Y-77241D01*
X72700Y-77213D01*
X72586Y-77213D01*
X72529Y-77241D01*
X72786Y-77584D02*
X72729Y-77613D01*
X72586Y-77613D01*
X72529Y-77584D01*
X72500Y-77527D01*
X72500Y-77470D01*
X72529Y-77413D01*
X72586Y-77384D01*
X72729Y-77384D01*
X72786Y-77356D01*
X73329Y-77613D02*
X73329Y-77013D01*
X73329Y-77584D02*
X73272Y-77613D01*
X73158Y-77613D01*
X73100Y-77584D01*
X73072Y-77556D01*
X73043Y-77499D01*
X73043Y-77327D01*
X73072Y-77270D01*
X73100Y-77241D01*
X73158Y-77213D01*
X73272Y-77213D01*
X73329Y-77241D01*
X74072Y-77299D02*
X74272Y-77299D01*
X74358Y-77613D02*
X74072Y-77613D01*
X74072Y-77013D01*
X74358Y-77013D01*
X74615Y-77556D02*
X74643Y-77584D01*
X74615Y-77613D01*
X74586Y-77584D01*
X74615Y-77556D01*
X74615Y-77613D01*
X74901Y-77613D02*
X74901Y-77013D01*
X75044Y-77013D01*
X75129Y-77041D01*
X75187Y-77099D01*
X75215Y-77156D01*
X75244Y-77270D01*
X75244Y-77356D01*
X75215Y-77470D01*
X75187Y-77527D01*
X75129Y-77584D01*
X75044Y-77613D01*
X74901Y-77613D01*
X75501Y-77556D02*
X75529Y-77584D01*
X75501Y-77613D01*
X75472Y-77584D01*
X75501Y-77556D01*
X75501Y-77613D01*
X75758Y-77441D02*
X76044Y-77441D01*
X75701Y-77613D02*
X75901Y-77013D01*
X76101Y-77613D01*
X76301Y-77556D02*
X76329Y-77584D01*
X76301Y-77613D01*
X76272Y-77584D01*
X76301Y-77556D01*
X76301Y-77613D01*
G54D11*
X104586Y-76413D02*
X104386Y-76127D01*
X104243Y-76413D02*
X104243Y-75813D01*
X104471Y-75813D01*
X104529Y-75841D01*
X104557Y-75870D01*
X104586Y-75927D01*
X104586Y-76013D01*
X104557Y-76070D01*
X104529Y-76099D01*
X104471Y-76127D01*
X104243Y-76127D01*
X105071Y-76384D02*
X105014Y-76413D01*
X104900Y-76413D01*
X104843Y-76384D01*
X104814Y-76327D01*
X104814Y-76099D01*
X104843Y-76041D01*
X104900Y-76013D01*
X105014Y-76013D01*
X105071Y-76041D01*
X105100Y-76099D01*
X105100Y-76156D01*
X104814Y-76213D01*
X105300Y-76013D02*
X105443Y-76413D01*
X105585Y-76013D01*
X105814Y-76356D02*
X105842Y-76384D01*
X105814Y-76413D01*
X105785Y-76384D01*
X105814Y-76356D01*
X105814Y-76413D01*
X105814Y-76041D02*
X105842Y-76070D01*
X105814Y-76099D01*
X105785Y-76070D01*
X105814Y-76041D01*
X105814Y-76099D01*
X106500Y-76013D02*
X106643Y-76413D01*
X106785Y-76013D01*
X107328Y-76413D02*
X106985Y-76413D01*
X107157Y-76413D02*
X107157Y-75813D01*
X107100Y-75899D01*
X107042Y-75956D01*
X106985Y-75984D01*
X107585Y-76356D02*
X107613Y-76384D01*
X107585Y-76413D01*
X107556Y-76384D01*
X107585Y-76356D01*
X107585Y-76413D01*
X107985Y-75813D02*
X108042Y-75813D01*
X108099Y-75841D01*
X108128Y-75870D01*
X108157Y-75927D01*
X108185Y-76041D01*
X108185Y-76184D01*
X108157Y-76299D01*
X108128Y-76356D01*
X108099Y-76384D01*
X108042Y-76413D01*
X107985Y-76413D01*
X107928Y-76384D01*
X107899Y-76356D01*
X107871Y-76299D01*
X107842Y-76184D01*
X107842Y-76041D01*
X107871Y-75927D01*
X107899Y-75870D01*
X107928Y-75841D01*
X107985Y-75813D01*
G54D10*
X71014Y-76384D02*
X71100Y-76413D01*
X71243Y-76413D01*
X71300Y-76384D01*
X71329Y-76356D01*
X71357Y-76299D01*
X71357Y-76241D01*
X71329Y-76184D01*
X71300Y-76156D01*
X71243Y-76127D01*
X71129Y-76099D01*
X71071Y-76070D01*
X71043Y-76041D01*
X71014Y-75984D01*
X71014Y-75927D01*
X71043Y-75870D01*
X71071Y-75841D01*
X71129Y-75813D01*
X71271Y-75813D01*
X71357Y-75841D01*
X71614Y-76413D02*
X71614Y-76013D01*
X71614Y-75813D02*
X71585Y-75841D01*
X71614Y-75870D01*
X71642Y-75841D01*
X71614Y-75813D01*
X71614Y-75870D01*
X71843Y-76013D02*
X72157Y-76013D01*
X71843Y-76413D01*
X72157Y-76413D01*
X72614Y-76384D02*
X72557Y-76413D01*
X72443Y-76413D01*
X72386Y-76384D01*
X72357Y-76327D01*
X72357Y-76099D01*
X72386Y-76041D01*
X72443Y-76013D01*
X72557Y-76013D01*
X72614Y-76041D01*
X72643Y-76099D01*
X72643Y-76156D01*
X72357Y-76213D01*
X72900Y-76356D02*
X72928Y-76384D01*
X72900Y-76413D01*
X72871Y-76384D01*
X72900Y-76356D01*
X72900Y-76413D01*
X72900Y-76041D02*
X72928Y-76070D01*
X72900Y-76099D01*
X72871Y-76070D01*
X72900Y-76041D01*
X72900Y-76099D01*
X73614Y-76241D02*
X73900Y-76241D01*
X73557Y-76413D02*
X73757Y-75813D01*
X73957Y-76413D01*
X74414Y-76013D02*
X74414Y-76413D01*
X74271Y-75784D02*
X74128Y-76213D01*
X74500Y-76213D01*
X104243Y-77613D02*
X104243Y-77013D01*
X104786Y-77613D02*
X104786Y-77013D01*
X104786Y-77584D02*
X104729Y-77613D01*
X104615Y-77613D01*
X104557Y-77584D01*
X104529Y-77556D01*
X104500Y-77499D01*
X104500Y-77327D01*
X104529Y-77270D01*
X104557Y-77241D01*
X104615Y-77213D01*
X104729Y-77213D01*
X104786Y-77241D01*
X105072Y-77556D02*
X105100Y-77584D01*
X105072Y-77613D01*
X105043Y-77584D01*
X105072Y-77556D01*
X105072Y-77613D01*
X105072Y-77241D02*
X105100Y-77270D01*
X105072Y-77299D01*
X105043Y-77270D01*
X105072Y-77241D01*
X105072Y-77299D01*
X106129Y-77613D02*
X105786Y-77613D01*
X105958Y-77613D02*
X105958Y-77013D01*
X105901Y-77099D01*
X105843Y-77156D01*
X105786Y-77184D01*
X106814Y-76984D02*
X106300Y-77756D01*
X107329Y-77613D02*
X106986Y-77613D01*
X107158Y-77613D02*
X107158Y-77013D01*
X107101Y-77099D01*
X107043Y-77156D01*
X106986Y-77184D01*
G54D11*
X70957Y-74613D02*
X71300Y-74613D01*
X71129Y-75213D02*
X71129Y-74613D01*
X71500Y-75213D02*
X71500Y-74813D01*
X71500Y-74613D02*
X71471Y-74641D01*
X71500Y-74670D01*
X71528Y-74641D01*
X71500Y-74613D01*
X71500Y-74670D01*
X71700Y-74813D02*
X71929Y-74813D01*
X71786Y-74613D02*
X71786Y-75127D01*
X71814Y-75184D01*
X71872Y-75213D01*
X71929Y-75213D01*
X72215Y-75213D02*
X72157Y-75184D01*
X72129Y-75127D01*
X72129Y-74613D01*
X72671Y-75184D02*
X72614Y-75213D01*
X72500Y-75213D01*
X72443Y-75184D01*
X72414Y-75127D01*
X72414Y-74899D01*
X72443Y-74841D01*
X72500Y-74813D01*
X72614Y-74813D01*
X72671Y-74841D01*
X72700Y-74899D01*
X72700Y-74956D01*
X72414Y-75013D01*
X72957Y-75156D02*
X72985Y-75184D01*
X72957Y-75213D01*
X72928Y-75184D01*
X72957Y-75156D01*
X72957Y-75213D01*
X72957Y-74841D02*
X72985Y-74870D01*
X72957Y-74899D01*
X72928Y-74870D01*
X72957Y-74841D01*
X72957Y-74899D01*
X73700Y-74899D02*
X73900Y-74899D01*
X73986Y-75213D02*
X73700Y-75213D01*
X73700Y-74613D01*
X73986Y-74613D01*
X74243Y-75213D02*
X74243Y-74613D01*
X74471Y-74613D01*
X74529Y-74641D01*
X74557Y-74670D01*
X74586Y-74727D01*
X74586Y-74813D01*
X74557Y-74870D01*
X74529Y-74899D01*
X74471Y-74927D01*
X74243Y-74927D01*
X74814Y-75184D02*
X74900Y-75213D01*
X75043Y-75213D01*
X75100Y-75184D01*
X75129Y-75156D01*
X75157Y-75099D01*
X75157Y-75041D01*
X75129Y-74984D01*
X75100Y-74956D01*
X75043Y-74927D01*
X74929Y-74899D01*
X74871Y-74870D01*
X74843Y-74841D01*
X74814Y-74784D01*
X74814Y-74727D01*
X74843Y-74670D01*
X74871Y-74641D01*
X74929Y-74613D01*
X75071Y-74613D01*
X75157Y-74641D01*
X75385Y-75041D02*
X75671Y-75041D01*
X75328Y-75213D02*
X75528Y-74613D01*
X75728Y-75213D01*
X76385Y-74984D02*
X76842Y-74984D01*
X77928Y-75156D02*
X77899Y-75184D01*
X77813Y-75213D01*
X77756Y-75213D01*
X77671Y-75184D01*
X77613Y-75127D01*
X77585Y-75070D01*
X77556Y-74956D01*
X77556Y-74870D01*
X77585Y-74756D01*
X77613Y-74699D01*
X77671Y-74641D01*
X77756Y-74613D01*
X77813Y-74613D01*
X77899Y-74641D01*
X77928Y-74670D01*
X78185Y-75213D02*
X78185Y-74613D01*
X78442Y-75213D02*
X78442Y-74899D01*
X78413Y-74841D01*
X78356Y-74813D01*
X78271Y-74813D01*
X78213Y-74841D01*
X78185Y-74870D01*
X78985Y-75213D02*
X78985Y-74899D01*
X78956Y-74841D01*
X78899Y-74813D01*
X78785Y-74813D01*
X78728Y-74841D01*
X78985Y-75184D02*
X78928Y-75213D01*
X78785Y-75213D01*
X78728Y-75184D01*
X78699Y-75127D01*
X78699Y-75070D01*
X78728Y-75013D01*
X78785Y-74984D01*
X78928Y-74984D01*
X78985Y-74956D01*
X79271Y-75213D02*
X79271Y-74813D01*
X79271Y-74927D02*
X79299Y-74870D01*
X79328Y-74841D01*
X79385Y-74813D01*
X79442Y-74813D01*
X79899Y-74813D02*
X79899Y-75299D01*
X79870Y-75356D01*
X79842Y-75384D01*
X79785Y-75413D01*
X79699Y-75413D01*
X79642Y-75384D01*
X79899Y-75184D02*
X79842Y-75213D01*
X79728Y-75213D01*
X79670Y-75184D01*
X79642Y-75156D01*
X79613Y-75099D01*
X79613Y-74927D01*
X79642Y-74870D01*
X79670Y-74841D01*
X79728Y-74813D01*
X79842Y-74813D01*
X79899Y-74841D01*
X80413Y-75184D02*
X80356Y-75213D01*
X80242Y-75213D01*
X80185Y-75184D01*
X80156Y-75127D01*
X80156Y-74899D01*
X80185Y-74841D01*
X80242Y-74813D01*
X80356Y-74813D01*
X80413Y-74841D01*
X80442Y-74899D01*
X80442Y-74956D01*
X80156Y-75013D01*
X80956Y-74813D02*
X80956Y-75213D01*
X80699Y-74813D02*
X80699Y-75127D01*
X80727Y-75184D01*
X80785Y-75213D01*
X80870Y-75213D01*
X80927Y-75184D01*
X80956Y-75156D01*
X81242Y-75213D02*
X81242Y-74813D01*
X81242Y-74927D02*
X81270Y-74870D01*
X81299Y-74841D01*
X81356Y-74813D01*
X81413Y-74813D01*
X82041Y-75184D02*
X82098Y-75213D01*
X82213Y-75213D01*
X82270Y-75184D01*
X82298Y-75127D01*
X82298Y-75099D01*
X82270Y-75041D01*
X82213Y-75013D01*
X82127Y-75013D01*
X82070Y-74984D01*
X82041Y-74927D01*
X82041Y-74899D01*
X82070Y-74841D01*
X82127Y-74813D01*
X82213Y-74813D01*
X82270Y-74841D01*
X82813Y-74813D02*
X82813Y-75213D01*
X82556Y-74813D02*
X82556Y-75127D01*
X82584Y-75184D01*
X82642Y-75213D01*
X82727Y-75213D01*
X82784Y-75184D01*
X82813Y-75156D01*
X83099Y-74813D02*
X83099Y-75413D01*
X83099Y-74841D02*
X83156Y-74813D01*
X83270Y-74813D01*
X83327Y-74841D01*
X83356Y-74870D01*
X83385Y-74927D01*
X83385Y-75099D01*
X83356Y-75156D01*
X83327Y-75184D01*
X83270Y-75213D01*
X83156Y-75213D01*
X83099Y-75184D01*
X83870Y-75184D02*
X83813Y-75213D01*
X83699Y-75213D01*
X83642Y-75184D01*
X83613Y-75127D01*
X83613Y-74899D01*
X83642Y-74841D01*
X83699Y-74813D01*
X83813Y-74813D01*
X83870Y-74841D01*
X83899Y-74899D01*
X83899Y-74956D01*
X83613Y-75013D01*
X84156Y-75213D02*
X84156Y-74813D01*
X84156Y-74927D02*
X84184Y-74870D01*
X84213Y-74841D01*
X84270Y-74813D01*
X84327Y-74813D01*
X84784Y-75184D02*
X84727Y-75213D01*
X84613Y-75213D01*
X84555Y-75184D01*
X84527Y-75156D01*
X84498Y-75099D01*
X84498Y-74927D01*
X84527Y-74870D01*
X84555Y-74841D01*
X84613Y-74813D01*
X84727Y-74813D01*
X84784Y-74841D01*
X85298Y-75213D02*
X85298Y-74899D01*
X85269Y-74841D01*
X85212Y-74813D01*
X85098Y-74813D01*
X85041Y-74841D01*
X85298Y-75184D02*
X85241Y-75213D01*
X85098Y-75213D01*
X85041Y-75184D01*
X85012Y-75127D01*
X85012Y-75070D01*
X85041Y-75013D01*
X85098Y-74984D01*
X85241Y-74984D01*
X85298Y-74956D01*
X85584Y-74813D02*
X85584Y-75413D01*
X85584Y-74841D02*
X85641Y-74813D01*
X85755Y-74813D01*
X85812Y-74841D01*
X85841Y-74870D01*
X85870Y-74927D01*
X85870Y-75099D01*
X85841Y-75156D01*
X85812Y-75184D01*
X85755Y-75213D01*
X85641Y-75213D01*
X85584Y-75184D01*
X86384Y-75213D02*
X86384Y-74899D01*
X86355Y-74841D01*
X86298Y-74813D01*
X86184Y-74813D01*
X86127Y-74841D01*
X86384Y-75184D02*
X86327Y-75213D01*
X86184Y-75213D01*
X86127Y-75184D01*
X86098Y-75127D01*
X86098Y-75070D01*
X86127Y-75013D01*
X86184Y-74984D01*
X86327Y-74984D01*
X86384Y-74956D01*
X86641Y-75184D02*
X86698Y-75213D01*
X86813Y-75213D01*
X86870Y-75184D01*
X86898Y-75127D01*
X86898Y-75099D01*
X86870Y-75041D01*
X86813Y-75013D01*
X86727Y-75013D01*
X86670Y-74984D01*
X86641Y-74927D01*
X86641Y-74899D01*
X86670Y-74841D01*
X86727Y-74813D01*
X86813Y-74813D01*
X86870Y-74841D01*
G54D10*
X71243Y-72499D02*
X71043Y-72499D01*
X71043Y-72813D02*
X71043Y-72213D01*
X71329Y-72213D01*
X71557Y-72813D02*
X71557Y-72413D01*
X71557Y-72213D02*
X71528Y-72241D01*
X71557Y-72270D01*
X71585Y-72241D01*
X71557Y-72213D01*
X71557Y-72270D01*
X71929Y-72813D02*
X71871Y-72784D01*
X71843Y-72727D01*
X71843Y-72213D01*
X72385Y-72784D02*
X72328Y-72813D01*
X72214Y-72813D01*
X72157Y-72784D01*
X72128Y-72727D01*
X72128Y-72499D01*
X72157Y-72441D01*
X72214Y-72413D01*
X72328Y-72413D01*
X72385Y-72441D01*
X72414Y-72499D01*
X72414Y-72556D01*
X72128Y-72613D01*
X72671Y-72756D02*
X72699Y-72784D01*
X72671Y-72813D01*
X72642Y-72784D01*
X72671Y-72756D01*
X72671Y-72813D01*
X72671Y-72441D02*
X72699Y-72470D01*
X72671Y-72499D01*
X72642Y-72470D01*
X72671Y-72441D01*
X72671Y-72499D01*
X73671Y-72784D02*
X73614Y-72813D01*
X73500Y-72813D01*
X73442Y-72784D01*
X73414Y-72756D01*
X73385Y-72699D01*
X73385Y-72527D01*
X73414Y-72470D01*
X73442Y-72441D01*
X73500Y-72413D01*
X73614Y-72413D01*
X73671Y-72441D01*
X74185Y-72813D02*
X74185Y-72499D01*
X74156Y-72441D01*
X74099Y-72413D01*
X73985Y-72413D01*
X73928Y-72441D01*
X74185Y-72784D02*
X74128Y-72813D01*
X73985Y-72813D01*
X73928Y-72784D01*
X73899Y-72727D01*
X73899Y-72670D01*
X73928Y-72613D01*
X73985Y-72584D01*
X74128Y-72584D01*
X74185Y-72556D01*
X74471Y-72813D02*
X74471Y-72413D01*
X74471Y-72527D02*
X74499Y-72470D01*
X74528Y-72441D01*
X74585Y-72413D01*
X74642Y-72413D01*
X74756Y-72413D02*
X74985Y-72413D01*
X74842Y-72213D02*
X74842Y-72727D01*
X74870Y-72784D01*
X74928Y-72813D01*
X74985Y-72813D01*
X75413Y-72784D02*
X75356Y-72813D01*
X75242Y-72813D01*
X75185Y-72784D01*
X75156Y-72727D01*
X75156Y-72499D01*
X75185Y-72441D01*
X75242Y-72413D01*
X75356Y-72413D01*
X75413Y-72441D01*
X75442Y-72499D01*
X75442Y-72556D01*
X75156Y-72613D01*
X75556Y-72870D02*
X76013Y-72870D01*
X76413Y-72784D02*
X76356Y-72813D01*
X76242Y-72813D01*
X76184Y-72784D01*
X76156Y-72756D01*
X76127Y-72699D01*
X76127Y-72527D01*
X76156Y-72470D01*
X76184Y-72441D01*
X76242Y-72413D01*
X76356Y-72413D01*
X76413Y-72441D01*
X76670Y-72813D02*
X76670Y-72213D01*
X76927Y-72813D02*
X76927Y-72499D01*
X76898Y-72441D01*
X76841Y-72413D01*
X76756Y-72413D01*
X76698Y-72441D01*
X76670Y-72470D01*
X77470Y-72813D02*
X77470Y-72499D01*
X77441Y-72441D01*
X77384Y-72413D01*
X77270Y-72413D01*
X77213Y-72441D01*
X77470Y-72784D02*
X77413Y-72813D01*
X77270Y-72813D01*
X77213Y-72784D01*
X77184Y-72727D01*
X77184Y-72670D01*
X77213Y-72613D01*
X77270Y-72584D01*
X77413Y-72584D01*
X77470Y-72556D01*
X77756Y-72813D02*
X77756Y-72413D01*
X77756Y-72527D02*
X77784Y-72470D01*
X77813Y-72441D01*
X77870Y-72413D01*
X77927Y-72413D01*
X78384Y-72413D02*
X78384Y-72899D01*
X78355Y-72956D01*
X78327Y-72984D01*
X78270Y-73013D01*
X78184Y-73013D01*
X78127Y-72984D01*
X78384Y-72784D02*
X78327Y-72813D01*
X78213Y-72813D01*
X78155Y-72784D01*
X78127Y-72756D01*
X78098Y-72699D01*
X78098Y-72527D01*
X78127Y-72470D01*
X78155Y-72441D01*
X78213Y-72413D01*
X78327Y-72413D01*
X78384Y-72441D01*
X78898Y-72784D02*
X78841Y-72813D01*
X78727Y-72813D01*
X78670Y-72784D01*
X78641Y-72727D01*
X78641Y-72499D01*
X78670Y-72441D01*
X78727Y-72413D01*
X78841Y-72413D01*
X78898Y-72441D01*
X78927Y-72499D01*
X78927Y-72556D01*
X78641Y-72613D01*
X79441Y-72413D02*
X79441Y-72813D01*
X79184Y-72413D02*
X79184Y-72727D01*
X79212Y-72784D01*
X79270Y-72813D01*
X79355Y-72813D01*
X79412Y-72784D01*
X79441Y-72756D01*
X79727Y-72813D02*
X79727Y-72413D01*
X79727Y-72527D02*
X79755Y-72470D01*
X79784Y-72441D01*
X79841Y-72413D01*
X79898Y-72413D01*
X79955Y-72870D02*
X80412Y-72870D01*
X80526Y-72784D02*
X80583Y-72813D01*
X80698Y-72813D01*
X80755Y-72784D01*
X80783Y-72727D01*
X80783Y-72699D01*
X80755Y-72641D01*
X80698Y-72613D01*
X80612Y-72613D01*
X80555Y-72584D01*
X80526Y-72527D01*
X80526Y-72499D01*
X80555Y-72441D01*
X80612Y-72413D01*
X80698Y-72413D01*
X80755Y-72441D01*
X81298Y-72413D02*
X81298Y-72813D01*
X81041Y-72413D02*
X81041Y-72727D01*
X81069Y-72784D01*
X81127Y-72813D01*
X81212Y-72813D01*
X81269Y-72784D01*
X81298Y-72756D01*
X81584Y-72413D02*
X81584Y-73013D01*
X81584Y-72441D02*
X81641Y-72413D01*
X81755Y-72413D01*
X81812Y-72441D01*
X81841Y-72470D01*
X81870Y-72527D01*
X81870Y-72699D01*
X81841Y-72756D01*
X81812Y-72784D01*
X81755Y-72813D01*
X81641Y-72813D01*
X81584Y-72784D01*
X82355Y-72784D02*
X82298Y-72813D01*
X82184Y-72813D01*
X82127Y-72784D01*
X82098Y-72727D01*
X82098Y-72499D01*
X82127Y-72441D01*
X82184Y-72413D01*
X82298Y-72413D01*
X82355Y-72441D01*
X82384Y-72499D01*
X82384Y-72556D01*
X82098Y-72613D01*
X82641Y-72813D02*
X82641Y-72413D01*
X82641Y-72527D02*
X82669Y-72470D01*
X82698Y-72441D01*
X82755Y-72413D01*
X82812Y-72413D01*
X83269Y-72784D02*
X83212Y-72813D01*
X83098Y-72813D01*
X83040Y-72784D01*
X83012Y-72756D01*
X82983Y-72699D01*
X82983Y-72527D01*
X83012Y-72470D01*
X83040Y-72441D01*
X83098Y-72413D01*
X83212Y-72413D01*
X83269Y-72441D01*
X83783Y-72813D02*
X83783Y-72499D01*
X83754Y-72441D01*
X83697Y-72413D01*
X83583Y-72413D01*
X83526Y-72441D01*
X83783Y-72784D02*
X83726Y-72813D01*
X83583Y-72813D01*
X83526Y-72784D01*
X83497Y-72727D01*
X83497Y-72670D01*
X83526Y-72613D01*
X83583Y-72584D01*
X83726Y-72584D01*
X83783Y-72556D01*
X84069Y-72413D02*
X84069Y-73013D01*
X84069Y-72441D02*
X84126Y-72413D01*
X84240Y-72413D01*
X84297Y-72441D01*
X84326Y-72470D01*
X84355Y-72527D01*
X84355Y-72699D01*
X84326Y-72756D01*
X84297Y-72784D01*
X84240Y-72813D01*
X84126Y-72813D01*
X84069Y-72784D01*
X84869Y-72813D02*
X84869Y-72499D01*
X84840Y-72441D01*
X84783Y-72413D01*
X84669Y-72413D01*
X84612Y-72441D01*
X84869Y-72784D02*
X84812Y-72813D01*
X84669Y-72813D01*
X84612Y-72784D01*
X84583Y-72727D01*
X84583Y-72670D01*
X84612Y-72613D01*
X84669Y-72584D01*
X84812Y-72584D01*
X84869Y-72556D01*
X85126Y-72784D02*
X85183Y-72813D01*
X85298Y-72813D01*
X85355Y-72784D01*
X85383Y-72727D01*
X85383Y-72699D01*
X85355Y-72641D01*
X85298Y-72613D01*
X85212Y-72613D01*
X85155Y-72584D01*
X85126Y-72527D01*
X85126Y-72499D01*
X85155Y-72441D01*
X85212Y-72413D01*
X85298Y-72413D01*
X85355Y-72441D01*
X85641Y-72756D02*
X85669Y-72784D01*
X85641Y-72813D01*
X85612Y-72784D01*
X85641Y-72756D01*
X85641Y-72813D01*
X85927Y-72813D02*
X85927Y-72213D01*
X85927Y-72441D02*
X85984Y-72413D01*
X86098Y-72413D01*
X86155Y-72441D01*
X86184Y-72470D01*
X86213Y-72527D01*
X86213Y-72699D01*
X86184Y-72756D01*
X86155Y-72784D01*
X86098Y-72813D01*
X85984Y-72813D01*
X85927Y-72784D01*
X86470Y-72813D02*
X86470Y-72413D01*
X86470Y-72527D02*
X86498Y-72470D01*
X86527Y-72441D01*
X86584Y-72413D01*
X86641Y-72413D01*
X87098Y-72813D02*
X87098Y-72213D01*
X87098Y-72784D02*
X87041Y-72813D01*
X86927Y-72813D01*
X86869Y-72784D01*
X86841Y-72756D01*
X86812Y-72699D01*
X86812Y-72527D01*
X86841Y-72470D01*
X86869Y-72441D01*
X86927Y-72413D01*
X87041Y-72413D01*
X87098Y-72441D01*
X71014Y-73984D02*
X71100Y-74013D01*
X71243Y-74013D01*
X71300Y-73984D01*
X71329Y-73956D01*
X71357Y-73899D01*
X71357Y-73841D01*
X71329Y-73784D01*
X71300Y-73756D01*
X71243Y-73727D01*
X71129Y-73699D01*
X71071Y-73670D01*
X71043Y-73641D01*
X71014Y-73584D01*
X71014Y-73527D01*
X71043Y-73470D01*
X71071Y-73441D01*
X71129Y-73413D01*
X71271Y-73413D01*
X71357Y-73441D01*
X71614Y-74013D02*
X71614Y-73413D01*
X71871Y-74013D02*
X71871Y-73699D01*
X71842Y-73641D01*
X71785Y-73613D01*
X71700Y-73613D01*
X71642Y-73641D01*
X71614Y-73670D01*
X72385Y-73984D02*
X72328Y-74013D01*
X72214Y-74013D01*
X72157Y-73984D01*
X72128Y-73927D01*
X72128Y-73699D01*
X72157Y-73641D01*
X72214Y-73613D01*
X72328Y-73613D01*
X72385Y-73641D01*
X72414Y-73699D01*
X72414Y-73756D01*
X72128Y-73813D01*
X72899Y-73984D02*
X72842Y-74013D01*
X72728Y-74013D01*
X72671Y-73984D01*
X72642Y-73927D01*
X72642Y-73699D01*
X72671Y-73641D01*
X72728Y-73613D01*
X72842Y-73613D01*
X72899Y-73641D01*
X72928Y-73699D01*
X72928Y-73756D01*
X72642Y-73813D01*
X73099Y-73613D02*
X73328Y-73613D01*
X73185Y-73413D02*
X73185Y-73927D01*
X73213Y-73984D01*
X73271Y-74013D01*
X73328Y-74013D01*
X73528Y-73956D02*
X73556Y-73984D01*
X73528Y-74013D01*
X73499Y-73984D01*
X73528Y-73956D01*
X73528Y-74013D01*
X73528Y-73641D02*
X73556Y-73670D01*
X73528Y-73699D01*
X73499Y-73670D01*
X73528Y-73641D01*
X73528Y-73699D01*
X74585Y-74013D02*
X74242Y-74013D01*
X74414Y-74013D02*
X74414Y-73413D01*
X74357Y-73499D01*
X74299Y-73556D01*
X74242Y-73584D01*
X75270Y-73384D02*
X74756Y-74156D01*
X75785Y-74013D02*
X75442Y-74013D01*
X75614Y-74013D02*
X75614Y-73413D01*
X75557Y-73499D01*
X75499Y-73556D01*
X75442Y-73584D01*
X70300Y-71970D02*
X70300Y-77970D01*
X70300Y-71970D02*
X112300Y-71970D01*
X70300Y-71970D02*
X112300Y-71970D01*
X70300Y-74370D02*
X112300Y-74370D01*
X103500Y-75570D02*
X103500Y-77970D01*
X70300Y-76770D02*
X112300Y-76770D01*
X70300Y-75570D02*
X112300Y-75570D01*
X76900Y-75570D02*
X76900Y-76770D01*
G54D12*
X53750Y-40750D02*
X53750Y-53250D01*
X53750Y-53250D02*
X61750Y-53250D01*
X61750Y-53250D02*
X61750Y-40750D01*
X61750Y-40750D02*
X53750Y-40750D01*
G54D11*
X84750Y-27750D02*
X83250Y-26250D01*
X83250Y-26250D02*
X82750Y-26250D01*
X82750Y-26250D02*
X82250Y-26750D01*
X82250Y-26750D02*
X82250Y-27750D01*
X82250Y-27750D02*
X83250Y-28750D01*
X83250Y-28750D02*
X84250Y-28750D01*
X84250Y-28750D02*
X84750Y-28250D01*
X84750Y-28250D02*
X84750Y-27750D01*
X84750Y-21750D02*
X83250Y-20250D01*
X83250Y-20250D02*
X82750Y-20250D01*
X82750Y-20250D02*
X82250Y-20750D01*
X82250Y-20750D02*
X82250Y-21750D01*
X82250Y-21750D02*
X83250Y-22750D01*
X83250Y-22750D02*
X84250Y-22750D01*
X84250Y-22750D02*
X84750Y-22250D01*
X84750Y-22250D02*
X84750Y-21750D01*
X84750Y-39750D02*
X83250Y-38250D01*
X83250Y-38250D02*
X82750Y-38250D01*
X82750Y-38250D02*
X82250Y-38750D01*
X82250Y-38750D02*
X82250Y-39750D01*
X82250Y-39750D02*
X83250Y-40750D01*
X83250Y-40750D02*
X84250Y-40750D01*
X84250Y-40750D02*
X84750Y-40250D01*
X84750Y-40250D02*
X84750Y-39750D01*
X66500Y-18750D02*
X66500Y-23250D01*
X66500Y-23250D02*
X65500Y-24250D01*
X65500Y-24250D02*
X64500Y-24250D01*
X64500Y-24250D02*
X63500Y-23250D01*
X63500Y-23250D02*
X63500Y-18750D01*
X63500Y-18750D02*
X66500Y-18750D01*
X66500Y-22050D02*
X66500Y-22500D01*
X63500Y-22400D02*
X63500Y-22050D01*
X65200Y-20750D02*
X65200Y-23700D01*
X64800Y-20750D02*
X64800Y-23700D01*
X66520Y-22250D02*
X66491Y-22545D01*
X66405Y-22829D01*
X66266Y-23091D01*
X66078Y-23321D01*
X65849Y-23510D01*
X65589Y-23651D01*
X65305Y-23738D01*
X65010Y-23769D01*
X64716Y-23743D01*
X64431Y-23659D01*
X64168Y-23521D01*
X63937Y-23335D01*
X63746Y-23108D01*
X63603Y-22848D01*
X63514Y-22566D01*
X63481Y-22271D01*
X63505Y-21976D01*
X63587Y-21691D01*
X63723Y-21427D01*
X63907Y-21195D01*
X64133Y-21002D01*
X64392Y-20858D01*
X64674Y-20766D01*
X64969Y-20731D01*
X65263Y-20754D01*
X65549Y-20833D01*
X65814Y-20967D01*
X66048Y-21150D01*
X66242Y-21374D01*
X66388Y-21632D01*
X66482Y-21914D01*
X66519Y-22208D01*
X66520Y-22250D01*
X58500Y-27000D02*
X54000Y-27000D01*
X54000Y-27000D02*
X53000Y-26000D01*
X53000Y-26000D02*
X53000Y-25000D01*
X53000Y-25000D02*
X54000Y-24000D01*
X54000Y-24000D02*
X58500Y-24000D01*
X58500Y-24000D02*
X58500Y-27000D01*
X55200Y-27000D02*
X54750Y-27000D01*
X54850Y-24000D02*
X55200Y-24000D01*
X56500Y-25700D02*
X53550Y-25700D01*
X56500Y-25300D02*
X53550Y-25300D01*
X56520Y-25500D02*
X56491Y-25795D01*
X56405Y-26079D01*
X56266Y-26341D01*
X56078Y-26571D01*
X55849Y-26760D01*
X55589Y-26901D01*
X55305Y-26988D01*
X55010Y-27019D01*
X54716Y-26993D01*
X54431Y-26909D01*
X54168Y-26771D01*
X53937Y-26585D01*
X53746Y-26358D01*
X53603Y-26098D01*
X53514Y-25816D01*
X53481Y-25521D01*
X53505Y-25226D01*
X53587Y-24941D01*
X53723Y-24677D01*
X53907Y-24445D01*
X54133Y-24252D01*
X54392Y-24108D01*
X54674Y-24016D01*
X54969Y-23981D01*
X55263Y-24004D01*
X55549Y-24083D01*
X55814Y-24217D01*
X56048Y-24400D01*
X56242Y-24624D01*
X56388Y-24882D01*
X56482Y-25164D01*
X56519Y-25458D01*
X56520Y-25500D01*
X58500Y-23750D02*
X54000Y-23750D01*
X54000Y-23750D02*
X53000Y-22750D01*
X53000Y-22750D02*
X53000Y-21750D01*
X53000Y-21750D02*
X54000Y-20750D01*
X54000Y-20750D02*
X58500Y-20750D01*
X58500Y-20750D02*
X58500Y-23750D01*
X55200Y-23750D02*
X54750Y-23750D01*
X54850Y-20750D02*
X55200Y-20750D01*
X56500Y-22450D02*
X53550Y-22450D01*
X56500Y-22050D02*
X53550Y-22050D01*
X56520Y-22250D02*
X56491Y-22545D01*
X56405Y-22829D01*
X56266Y-23091D01*
X56078Y-23321D01*
X55849Y-23510D01*
X55589Y-23651D01*
X55305Y-23738D01*
X55010Y-23769D01*
X54716Y-23743D01*
X54431Y-23659D01*
X54168Y-23521D01*
X53937Y-23335D01*
X53746Y-23108D01*
X53603Y-22848D01*
X53514Y-22566D01*
X53481Y-22271D01*
X53505Y-21976D01*
X53587Y-21691D01*
X53723Y-21427D01*
X53907Y-21195D01*
X54133Y-21002D01*
X54392Y-20858D01*
X54674Y-20766D01*
X54969Y-20731D01*
X55263Y-20754D01*
X55549Y-20833D01*
X55814Y-20967D01*
X56048Y-21150D01*
X56242Y-21374D01*
X56388Y-21632D01*
X56482Y-21914D01*
X56519Y-22208D01*
X56520Y-22250D01*
X58500Y-33500D02*
X54000Y-33500D01*
X54000Y-33500D02*
X53000Y-32500D01*
X53000Y-32500D02*
X53000Y-31500D01*
X53000Y-31500D02*
X54000Y-30500D01*
X54000Y-30500D02*
X58500Y-30500D01*
X58500Y-30500D02*
X58500Y-33500D01*
X55200Y-33500D02*
X54750Y-33500D01*
X54850Y-30500D02*
X55200Y-30500D01*
X56500Y-32200D02*
X53550Y-32200D01*
X56500Y-31800D02*
X53550Y-31800D01*
X56520Y-32000D02*
X56491Y-32295D01*
X56405Y-32579D01*
X56266Y-32841D01*
X56078Y-33071D01*
X55849Y-33260D01*
X55589Y-33401D01*
X55305Y-33488D01*
X55010Y-33519D01*
X54716Y-33493D01*
X54431Y-33409D01*
X54168Y-33271D01*
X53937Y-33085D01*
X53746Y-32858D01*
X53603Y-32598D01*
X53514Y-32316D01*
X53481Y-32021D01*
X53505Y-31726D01*
X53587Y-31441D01*
X53723Y-31177D01*
X53907Y-30945D01*
X54133Y-30752D01*
X54392Y-30608D01*
X54674Y-30516D01*
X54969Y-30481D01*
X55263Y-30504D01*
X55549Y-30583D01*
X55814Y-30717D01*
X56048Y-30900D01*
X56242Y-31124D01*
X56388Y-31382D01*
X56482Y-31664D01*
X56519Y-31958D01*
X56520Y-32000D01*
X58500Y-30250D02*
X54000Y-30250D01*
X54000Y-30250D02*
X53000Y-29250D01*
X53000Y-29250D02*
X53000Y-28250D01*
X53000Y-28250D02*
X54000Y-27250D01*
X54000Y-27250D02*
X58500Y-27250D01*
X58500Y-27250D02*
X58500Y-30250D01*
X55200Y-30250D02*
X54750Y-30250D01*
X54850Y-27250D02*
X55200Y-27250D01*
X56500Y-28950D02*
X53550Y-28950D01*
X56500Y-28550D02*
X53550Y-28550D01*
X56520Y-28750D02*
X56491Y-29045D01*
X56405Y-29329D01*
X56266Y-29591D01*
X56078Y-29821D01*
X55849Y-30010D01*
X55589Y-30151D01*
X55305Y-30238D01*
X55010Y-30269D01*
X54716Y-30243D01*
X54431Y-30159D01*
X54168Y-30021D01*
X53937Y-29835D01*
X53746Y-29608D01*
X53603Y-29348D01*
X53514Y-29066D01*
X53481Y-28771D01*
X53505Y-28476D01*
X53587Y-28191D01*
X53723Y-27927D01*
X53907Y-27695D01*
X54133Y-27502D01*
X54392Y-27358D01*
X54674Y-27266D01*
X54969Y-27231D01*
X55263Y-27254D01*
X55549Y-27333D01*
X55814Y-27467D01*
X56048Y-27650D01*
X56242Y-27874D01*
X56388Y-28132D01*
X56482Y-28414D01*
X56519Y-28708D01*
X56520Y-28750D01*
X58500Y-36750D02*
X54000Y-36750D01*
X54000Y-36750D02*
X53000Y-35750D01*
X53000Y-35750D02*
X53000Y-34750D01*
X53000Y-34750D02*
X54000Y-33750D01*
X54000Y-33750D02*
X58500Y-33750D01*
X58500Y-33750D02*
X58500Y-36750D01*
X55200Y-36750D02*
X54750Y-36750D01*
X54850Y-33750D02*
X55200Y-33750D01*
X56500Y-35450D02*
X53550Y-35450D01*
X56500Y-35050D02*
X53550Y-35050D01*
X56520Y-35250D02*
X56491Y-35545D01*
X56405Y-35829D01*
X56266Y-36091D01*
X56078Y-36321D01*
X55849Y-36510D01*
X55589Y-36651D01*
X55305Y-36738D01*
X55010Y-36769D01*
X54716Y-36743D01*
X54431Y-36659D01*
X54168Y-36521D01*
X53937Y-36335D01*
X53746Y-36108D01*
X53603Y-35848D01*
X53514Y-35566D01*
X53481Y-35271D01*
X53505Y-34976D01*
X53587Y-34691D01*
X53723Y-34427D01*
X53907Y-34195D01*
X54133Y-34002D01*
X54392Y-33858D01*
X54674Y-33766D01*
X54969Y-33731D01*
X55263Y-33754D01*
X55549Y-33833D01*
X55814Y-33967D01*
X56048Y-34150D01*
X56242Y-34374D01*
X56388Y-34632D01*
X56482Y-34914D01*
X56519Y-35208D01*
X56520Y-35250D01*
X69750Y-18750D02*
X69750Y-23250D01*
X69750Y-23250D02*
X68750Y-24250D01*
X68750Y-24250D02*
X67750Y-24250D01*
X67750Y-24250D02*
X66750Y-23250D01*
X66750Y-23250D02*
X66750Y-18750D01*
X66750Y-18750D02*
X69750Y-18750D01*
X69750Y-22050D02*
X69750Y-22500D01*
X66750Y-22400D02*
X66750Y-22050D01*
X68450Y-20750D02*
X68450Y-23700D01*
X68050Y-20750D02*
X68050Y-23700D01*
X69770Y-22250D02*
X69741Y-22545D01*
X69655Y-22829D01*
X69516Y-23091D01*
X69328Y-23321D01*
X69099Y-23510D01*
X68839Y-23651D01*
X68555Y-23738D01*
X68260Y-23769D01*
X67966Y-23743D01*
X67681Y-23659D01*
X67418Y-23521D01*
X67187Y-23335D01*
X66996Y-23108D01*
X66853Y-22848D01*
X66764Y-22566D01*
X66731Y-22271D01*
X66755Y-21976D01*
X66837Y-21691D01*
X66973Y-21427D01*
X67157Y-21195D01*
X67383Y-21002D01*
X67642Y-20858D01*
X67924Y-20766D01*
X68219Y-20731D01*
X68513Y-20754D01*
X68799Y-20833D01*
X69064Y-20967D01*
X69298Y-21150D01*
X69492Y-21374D01*
X69638Y-21632D01*
X69732Y-21914D01*
X69769Y-22208D01*
X69770Y-22250D01*
X58500Y-40000D02*
X54000Y-40000D01*
X54000Y-40000D02*
X53000Y-39000D01*
X53000Y-39000D02*
X53000Y-38000D01*
X53000Y-38000D02*
X54000Y-37000D01*
X54000Y-37000D02*
X58500Y-37000D01*
X58500Y-37000D02*
X58500Y-40000D01*
X55200Y-40000D02*
X54750Y-40000D01*
X54850Y-37000D02*
X55200Y-37000D01*
X56500Y-38700D02*
X53550Y-38700D01*
X56500Y-38300D02*
X53550Y-38300D01*
X56520Y-38500D02*
X56491Y-38795D01*
X56405Y-39079D01*
X56266Y-39341D01*
X56078Y-39571D01*
X55849Y-39760D01*
X55589Y-39901D01*
X55305Y-39988D01*
X55010Y-40019D01*
X54716Y-39993D01*
X54431Y-39909D01*
X54168Y-39771D01*
X53937Y-39585D01*
X53746Y-39358D01*
X53603Y-39098D01*
X53514Y-38816D01*
X53481Y-38521D01*
X53505Y-38226D01*
X53587Y-37941D01*
X53723Y-37677D01*
X53907Y-37445D01*
X54133Y-37252D01*
X54392Y-37108D01*
X54674Y-37016D01*
X54969Y-36981D01*
X55263Y-37004D01*
X55549Y-37083D01*
X55814Y-37217D01*
X56048Y-37400D01*
X56242Y-37624D01*
X56388Y-37882D01*
X56482Y-38164D01*
X56519Y-38458D01*
X56520Y-38500D01*
G54D12*
X86750Y-50250D02*
X98250Y-50250D01*
X98250Y-50250D02*
X98250Y-55250D01*
X98250Y-55250D02*
X86750Y-55250D01*
X86750Y-55250D02*
X86750Y-50250D01*
X86750Y-32250D02*
X98250Y-32250D01*
X98250Y-32250D02*
X98250Y-37250D01*
X98250Y-37250D02*
X86750Y-37250D01*
X86750Y-37250D02*
X86750Y-32250D01*
X86750Y-38250D02*
X98250Y-38250D01*
X98250Y-38250D02*
X98250Y-43250D01*
X98250Y-43250D02*
X86750Y-43250D01*
X86750Y-43250D02*
X86750Y-38250D01*
X86750Y-20250D02*
X98250Y-20250D01*
X98250Y-20250D02*
X98250Y-25250D01*
X98250Y-25250D02*
X86750Y-25250D01*
X86750Y-25250D02*
X86750Y-20250D01*
X86750Y-26250D02*
X98250Y-26250D01*
X98250Y-26250D02*
X98250Y-31250D01*
X98250Y-31250D02*
X86750Y-31250D01*
X86750Y-31250D02*
X86750Y-26250D01*
G54D11*
X62750Y-54750D02*
X62750Y-54750D01*
X62750Y-54750D02*
X62750Y-54750D01*
X69000Y-54750D02*
X69750Y-54750D01*
X69750Y-54750D02*
X69750Y-54750D01*
X69000Y-55750D02*
X63500Y-55750D01*
X63500Y-53750D02*
X69000Y-53750D01*
X63500Y-54250D02*
X64000Y-53750D01*
X69000Y-53750D02*
X69000Y-55750D01*
X63500Y-53750D02*
X63500Y-55750D01*
X62750Y-54750D02*
X63500Y-54750D01*
X67500Y-40500D02*
X67700Y-40500D01*
X70500Y-40500D02*
X70300Y-40500D01*
X70300Y-40500D02*
X70300Y-40100D01*
X70300Y-40100D02*
X67700Y-40100D01*
X67700Y-40100D02*
X67700Y-40900D01*
X67700Y-40900D02*
X70300Y-40900D01*
X70300Y-40900D02*
X70300Y-40500D01*
X67700Y-40300D02*
X67900Y-40100D01*
G54D12*
X72625Y-52925D02*
X72625Y-41425D01*
X72625Y-41425D02*
X62375Y-41425D01*
X62375Y-41425D02*
X62375Y-52925D01*
X62375Y-52925D02*
X72625Y-52925D01*
X52250Y-31000D02*
X52250Y-31500D01*
X52500Y-33250D02*
X52500Y-31250D01*
X50250Y-31250D02*
X50250Y-33250D01*
X52250Y-31500D02*
X52250Y-33000D01*
X52250Y-35000D02*
X52500Y-35000D01*
X50250Y-33250D02*
X50250Y-35250D01*
X52500Y-35250D02*
X52500Y-33250D01*
X52250Y-35000D02*
X52250Y-33000D01*
X50250Y-35250D02*
X52500Y-35250D01*
X52500Y-27250D02*
X50250Y-27250D01*
X52250Y-31000D02*
X52250Y-29000D01*
X52500Y-31250D02*
X52500Y-29250D01*
X50250Y-29250D02*
X50250Y-31250D01*
X52500Y-27500D02*
X52250Y-27500D01*
X52250Y-27500D02*
X52250Y-29000D01*
X50250Y-27250D02*
X50250Y-29250D01*
X52500Y-29250D02*
X52500Y-27250D01*
X63750Y-37000D02*
X63750Y-29000D01*
X65750Y-29000D02*
X65750Y-37000D01*
X65750Y-37000D02*
X63750Y-37000D01*
X64250Y-37000D02*
X64250Y-36500D01*
X64250Y-36500D02*
X65250Y-36500D01*
X65250Y-36500D02*
X65250Y-37000D01*
X63750Y-29000D02*
X65750Y-29000D01*
G54D11*
X79500Y-28250D02*
X79500Y-25250D01*
X79500Y-25250D02*
X80500Y-25250D01*
X80500Y-25250D02*
X80500Y-28250D01*
X80500Y-28250D02*
X79500Y-28250D01*
X79500Y-25500D02*
X80500Y-25500D01*
X80500Y-25750D02*
X79500Y-25750D01*
X80000Y-28250D02*
X80000Y-28750D01*
X80000Y-25250D02*
X80000Y-24750D01*
X86250Y-27250D02*
X86250Y-30250D01*
X86250Y-30250D02*
X85250Y-30250D01*
X85250Y-30250D02*
X85250Y-27250D01*
X85250Y-27250D02*
X86250Y-27250D01*
X86250Y-30000D02*
X85250Y-30000D01*
X85250Y-29750D02*
X86250Y-29750D01*
X85750Y-27250D02*
X85750Y-26750D01*
X85750Y-30250D02*
X85750Y-30750D01*
X86250Y-21250D02*
X86250Y-24250D01*
X86250Y-24250D02*
X85250Y-24250D01*
X85250Y-24250D02*
X85250Y-21250D01*
X85250Y-21250D02*
X86250Y-21250D01*
X86250Y-24000D02*
X85250Y-24000D01*
X85250Y-23750D02*
X86250Y-23750D01*
X85750Y-21250D02*
X85750Y-20750D01*
X85750Y-24250D02*
X85750Y-24750D01*
X86250Y-51250D02*
X86250Y-54250D01*
X86250Y-54250D02*
X85250Y-54250D01*
X85250Y-54250D02*
X85250Y-51250D01*
X85250Y-51250D02*
X86250Y-51250D01*
X86250Y-54000D02*
X85250Y-54000D01*
X85250Y-53750D02*
X86250Y-53750D01*
X85750Y-51250D02*
X85750Y-50750D01*
X85750Y-54250D02*
X85750Y-54750D01*
X86250Y-39250D02*
X86250Y-42250D01*
X86250Y-42250D02*
X85250Y-42250D01*
X85250Y-42250D02*
X85250Y-39250D01*
X85250Y-39250D02*
X86250Y-39250D01*
X86250Y-42000D02*
X85250Y-42000D01*
X85250Y-41750D02*
X86250Y-41750D01*
X85750Y-39250D02*
X85750Y-38750D01*
X85750Y-42250D02*
X85750Y-42750D01*
G54D13*
X62100Y-55250D02*
X62069Y-55560D01*
X61979Y-55859D01*
X61832Y-56135D01*
X61635Y-56377D01*
X61394Y-56576D01*
X61120Y-56724D01*
X60821Y-56817D01*
X60511Y-56849D01*
X60201Y-56821D01*
X59901Y-56733D01*
X59624Y-56588D01*
X59381Y-56393D01*
X59180Y-56153D01*
X59030Y-55880D01*
X58935Y-55582D01*
X58901Y-55272D01*
X58927Y-54962D01*
X59013Y-54662D01*
X59156Y-54384D01*
X59350Y-54139D01*
X59587Y-53937D01*
X59860Y-53784D01*
X60157Y-53688D01*
X60467Y-53651D01*
X60777Y-53675D01*
X61078Y-53759D01*
X61357Y-53900D01*
X61603Y-54092D01*
X61807Y-54328D01*
X61961Y-54600D01*
X62060Y-54896D01*
X62099Y-55206D01*
X62100Y-55250D01*
G54D14*
X71001Y-33500D02*
X70981Y-33694D01*
X70925Y-33881D01*
X70833Y-34053D01*
X70710Y-34205D01*
X70559Y-34329D01*
X70387Y-34422D01*
X70201Y-34480D01*
X70006Y-34500D01*
X69813Y-34483D01*
X69626Y-34428D01*
X69452Y-34337D01*
X69300Y-34215D01*
X69175Y-34065D01*
X69080Y-33894D01*
X69021Y-33708D01*
X69000Y-33513D01*
X69016Y-33320D01*
X69070Y-33132D01*
X69159Y-32958D01*
X69280Y-32805D01*
X69429Y-32679D01*
X69600Y-32583D01*
X69786Y-32523D01*
X69980Y-32500D01*
X70173Y-32515D01*
X70361Y-32567D01*
X70536Y-32655D01*
X70690Y-32776D01*
X70817Y-32923D01*
X70914Y-33093D01*
X70976Y-33279D01*
X71000Y-33473D01*
X71001Y-33500D01*
G54D11*
X58000Y-54270D02*
X58000Y-56250D01*
X58000Y-56250D02*
X57000Y-56250D01*
X57000Y-56250D02*
X57000Y-54250D01*
X57000Y-54250D02*
X58000Y-54250D01*
X57750Y-54250D02*
X58000Y-54500D01*
X68750Y-32520D02*
X68750Y-34500D01*
X68750Y-34500D02*
X67750Y-34500D01*
X67750Y-34500D02*
X67750Y-32500D01*
X67750Y-32500D02*
X68750Y-32500D01*
X68500Y-32500D02*
X68750Y-32750D01*
X86250Y-45250D02*
X86250Y-48250D01*
X86250Y-48250D02*
X85250Y-48250D01*
X85250Y-48250D02*
X85250Y-45250D01*
X85250Y-45250D02*
X86250Y-45250D01*
X86250Y-48000D02*
X85250Y-48000D01*
X85250Y-47750D02*
X86250Y-47750D01*
X85750Y-45250D02*
X85750Y-44750D01*
X85750Y-48250D02*
X85750Y-48750D01*
X73000Y-25000D02*
X74500Y-23500D01*
X74500Y-23500D02*
X74500Y-23000D01*
X74500Y-23000D02*
X74000Y-22500D01*
X74000Y-22500D02*
X73000Y-22500D01*
X73000Y-22500D02*
X72000Y-23500D01*
X72000Y-23500D02*
X72000Y-24500D01*
X72000Y-24500D02*
X72500Y-25000D01*
X72500Y-25000D02*
X73000Y-25000D01*
X63250Y-18750D02*
X63250Y-23250D01*
X63250Y-23250D02*
X62250Y-24250D01*
X62250Y-24250D02*
X61250Y-24250D01*
X61250Y-24250D02*
X60250Y-23250D01*
X60250Y-23250D02*
X60250Y-18750D01*
X60250Y-18750D02*
X63250Y-18750D01*
X63250Y-22050D02*
X63250Y-22500D01*
X60250Y-22400D02*
X60250Y-22050D01*
X61950Y-20750D02*
X61950Y-23700D01*
X61550Y-20750D02*
X61550Y-23700D01*
X63270Y-22250D02*
X63241Y-22545D01*
X63155Y-22829D01*
X63016Y-23091D01*
X62828Y-23321D01*
X62599Y-23510D01*
X62339Y-23651D01*
X62055Y-23738D01*
X61760Y-23769D01*
X61466Y-23743D01*
X61181Y-23659D01*
X60918Y-23521D01*
X60687Y-23335D01*
X60496Y-23108D01*
X60353Y-22848D01*
X60264Y-22566D01*
X60231Y-22271D01*
X60255Y-21976D01*
X60337Y-21691D01*
X60473Y-21427D01*
X60657Y-21195D01*
X60883Y-21002D01*
X61142Y-20858D01*
X61424Y-20766D01*
X61719Y-20731D01*
X62013Y-20754D01*
X62299Y-20833D01*
X62564Y-20967D01*
X62798Y-21150D01*
X62992Y-21374D01*
X63138Y-21632D01*
X63232Y-21914D01*
X63269Y-22208D01*
X63270Y-22250D01*
X84500Y-24750D02*
X84300Y-24750D01*
X81500Y-24750D02*
X81700Y-24750D01*
X81700Y-24750D02*
X81700Y-25150D01*
X81700Y-25150D02*
X84300Y-25150D01*
X84300Y-25150D02*
X84300Y-24350D01*
X84300Y-24350D02*
X81700Y-24350D01*
X81700Y-24350D02*
X81700Y-24750D01*
X84300Y-24950D02*
X84100Y-25150D01*
X78500Y-24250D02*
X78300Y-24250D01*
X75500Y-24250D02*
X75700Y-24250D01*
X75700Y-24250D02*
X75700Y-24650D01*
X75700Y-24650D02*
X78300Y-24650D01*
X78300Y-24650D02*
X78300Y-23850D01*
X78300Y-23850D02*
X75700Y-23850D01*
X75700Y-23850D02*
X75700Y-24250D01*
X78300Y-24450D02*
X78100Y-24650D01*
X84500Y-36750D02*
X84300Y-36750D01*
X81500Y-36750D02*
X81700Y-36750D01*
X81700Y-36750D02*
X81700Y-37150D01*
X81700Y-37150D02*
X84300Y-37150D01*
X84300Y-37150D02*
X84300Y-36350D01*
X84300Y-36350D02*
X81700Y-36350D01*
X81700Y-36350D02*
X81700Y-36750D01*
X84300Y-36950D02*
X84100Y-37150D01*
X93250Y-57500D02*
X90250Y-57500D01*
X90250Y-57500D02*
X90250Y-56500D01*
X90250Y-56500D02*
X93250Y-56500D01*
X93250Y-56500D02*
X93250Y-57500D01*
X90500Y-57500D02*
X90500Y-56500D01*
X90750Y-56500D02*
X90750Y-57500D01*
X93250Y-57000D02*
X93750Y-57000D01*
X90250Y-57000D02*
X89750Y-57000D01*
X93250Y-60750D02*
X90250Y-60750D01*
X90250Y-60750D02*
X90250Y-59750D01*
X90250Y-59750D02*
X93250Y-59750D01*
X93250Y-59750D02*
X93250Y-60750D01*
X90500Y-60750D02*
X90500Y-59750D01*
X90750Y-59750D02*
X90750Y-60750D01*
X93250Y-60250D02*
X93750Y-60250D01*
X90250Y-60250D02*
X89750Y-60250D01*
G54D12*
X86750Y-44250D02*
X98250Y-44250D01*
X98250Y-44250D02*
X98250Y-49250D01*
X98250Y-49250D02*
X86750Y-49250D01*
X86750Y-49250D02*
X86750Y-44250D01*
G54D11*
X84750Y-33750D02*
X83250Y-32250D01*
X83250Y-32250D02*
X82750Y-32250D01*
X82750Y-32250D02*
X82250Y-32750D01*
X82250Y-32750D02*
X82250Y-33750D01*
X82250Y-33750D02*
X83250Y-34750D01*
X83250Y-34750D02*
X84250Y-34750D01*
X84250Y-34750D02*
X84750Y-34250D01*
X84750Y-34250D02*
X84750Y-33750D01*
X81500Y-21750D02*
X80000Y-20250D01*
X80000Y-20250D02*
X79500Y-20250D01*
X79500Y-20250D02*
X79000Y-20750D01*
X79000Y-20750D02*
X79000Y-21750D01*
X79000Y-21750D02*
X80000Y-22750D01*
X80000Y-22750D02*
X81000Y-22750D01*
X81000Y-22750D02*
X81500Y-22250D01*
X81500Y-22250D02*
X81500Y-21750D01*
X75500Y-23250D02*
X75700Y-23250D01*
X78500Y-23250D02*
X78300Y-23250D01*
X78300Y-23250D02*
X78300Y-22850D01*
X78300Y-22850D02*
X75700Y-22850D01*
X75700Y-22850D02*
X75700Y-23650D01*
X75700Y-23650D02*
X78300Y-23650D01*
X78300Y-23650D02*
X78300Y-23250D01*
X75700Y-23050D02*
X75900Y-22850D01*
X84500Y-42750D02*
X84300Y-42750D01*
X81500Y-42750D02*
X81700Y-42750D01*
X81700Y-42750D02*
X81700Y-43150D01*
X81700Y-43150D02*
X84300Y-43150D01*
X84300Y-43150D02*
X84300Y-42350D01*
X84300Y-42350D02*
X81700Y-42350D01*
X81700Y-42350D02*
X81700Y-42750D01*
X84300Y-42950D02*
X84100Y-43150D01*
X71250Y-23500D02*
X71250Y-23700D01*
X71250Y-26500D02*
X71250Y-26300D01*
X71250Y-26300D02*
X71650Y-26300D01*
X71650Y-26300D02*
X71650Y-23700D01*
X71650Y-23700D02*
X70850Y-23700D01*
X70850Y-23700D02*
X70850Y-26300D01*
X70850Y-26300D02*
X71250Y-26300D01*
X71450Y-23700D02*
X71650Y-23900D01*
X84500Y-30750D02*
X84300Y-30750D01*
X81500Y-30750D02*
X81700Y-30750D01*
X81700Y-30750D02*
X81700Y-31150D01*
X81700Y-31150D02*
X84300Y-31150D01*
X84300Y-31150D02*
X84300Y-30350D01*
X84300Y-30350D02*
X81700Y-30350D01*
X81700Y-30350D02*
X81700Y-30750D01*
X84300Y-30950D02*
X84100Y-31150D01*
G54D12*
X76500Y-29000D02*
X76500Y-37000D01*
X74500Y-37000D02*
X74500Y-29000D01*
X74500Y-29000D02*
X76500Y-29000D01*
X76000Y-29000D02*
X76000Y-29500D01*
X76000Y-29500D02*
X75000Y-29500D01*
X75000Y-29500D02*
X75000Y-29000D01*
X76500Y-37000D02*
X74500Y-37000D01*
X76500Y-37500D02*
X76500Y-45500D01*
X74500Y-45500D02*
X74500Y-37500D01*
X74500Y-37500D02*
X76500Y-37500D01*
X76000Y-37500D02*
X76000Y-38000D01*
X76000Y-38000D02*
X75000Y-38000D01*
X75000Y-38000D02*
X75000Y-37500D01*
X76500Y-45500D02*
X74500Y-45500D01*
G54D11*
X86250Y-33250D02*
X86250Y-36250D01*
X86250Y-36250D02*
X85250Y-36250D01*
X85250Y-36250D02*
X85250Y-33250D01*
X85250Y-33250D02*
X86250Y-33250D01*
X86250Y-36000D02*
X85250Y-36000D01*
X85250Y-35750D02*
X86250Y-35750D01*
X85750Y-33250D02*
X85750Y-32750D01*
X85750Y-36250D02*
X85750Y-36750D01*
X84695Y-46000D02*
X84653Y-46426D01*
X84529Y-46836D01*
X84328Y-47214D01*
X84057Y-47546D01*
X83727Y-47819D01*
X83350Y-48023D01*
X82941Y-48150D01*
X82515Y-48194D01*
X82089Y-48156D01*
X81678Y-48035D01*
X81299Y-47836D01*
X80965Y-47568D01*
X80689Y-47240D01*
X80483Y-46864D01*
X80353Y-46456D01*
X80306Y-46030D01*
X80342Y-45604D01*
X80460Y-45192D01*
X80655Y-44811D01*
X80922Y-44476D01*
X81248Y-44198D01*
X81622Y-43989D01*
X82029Y-43857D01*
X82455Y-43806D01*
X82881Y-43839D01*
X83293Y-43954D01*
X83676Y-44147D01*
X84013Y-44411D01*
X84293Y-44735D01*
X84505Y-45108D01*
X84640Y-45514D01*
X84694Y-45939D01*
X84695Y-46000D01*
G54D14*
X80750Y-48750D02*
X80726Y-48992D01*
X80655Y-49226D01*
X80541Y-49441D01*
X80386Y-49630D01*
X80198Y-49786D01*
X79984Y-49902D01*
X79751Y-49974D01*
X79508Y-49999D01*
X79266Y-49977D01*
X79032Y-49908D01*
X78816Y-49795D01*
X78626Y-49643D01*
X78469Y-49456D01*
X78352Y-49242D01*
X78278Y-49009D01*
X78251Y-48767D01*
X78271Y-48525D01*
X78338Y-48290D01*
X78450Y-48073D01*
X78601Y-47882D01*
X78787Y-47724D01*
X79000Y-47605D01*
X79232Y-47530D01*
X79474Y-47501D01*
X79717Y-47519D01*
X79952Y-47585D01*
X80169Y-47695D01*
X80362Y-47845D01*
X80521Y-48030D01*
X80641Y-48242D01*
X80718Y-48474D01*
X80749Y-48716D01*
X80750Y-48750D01*
X76501Y-48250D02*
X76481Y-48444D01*
X76425Y-48631D01*
X76333Y-48803D01*
X76210Y-48955D01*
X76059Y-49079D01*
X75887Y-49172D01*
X75701Y-49230D01*
X75506Y-49250D01*
X75313Y-49233D01*
X75126Y-49178D01*
X74952Y-49087D01*
X74800Y-48965D01*
X74675Y-48815D01*
X74580Y-48644D01*
X74521Y-48458D01*
X74500Y-48263D01*
X74516Y-48070D01*
X74570Y-47882D01*
X74659Y-47708D01*
X74780Y-47555D01*
X74929Y-47429D01*
X75100Y-47333D01*
X75286Y-47273D01*
X75480Y-47250D01*
X75673Y-47265D01*
X75861Y-47317D01*
X76036Y-47405D01*
X76190Y-47526D01*
X76317Y-47673D01*
X76414Y-47843D01*
X76476Y-48029D01*
X76500Y-48223D01*
X76501Y-48250D01*
X76501Y-26250D02*
X76481Y-26444D01*
X76425Y-26631D01*
X76333Y-26803D01*
X76210Y-26955D01*
X76059Y-27079D01*
X75887Y-27172D01*
X75701Y-27230D01*
X75506Y-27250D01*
X75313Y-27233D01*
X75126Y-27178D01*
X74952Y-27087D01*
X74800Y-26965D01*
X74675Y-26815D01*
X74580Y-26644D01*
X74521Y-26458D01*
X74500Y-26263D01*
X74516Y-26070D01*
X74570Y-25882D01*
X74659Y-25708D01*
X74780Y-25555D01*
X74929Y-25429D01*
X75100Y-25333D01*
X75286Y-25273D01*
X75480Y-25250D01*
X75673Y-25265D01*
X75861Y-25317D01*
X76036Y-25405D01*
X76190Y-25526D01*
X76317Y-25673D01*
X76414Y-25843D01*
X76476Y-26029D01*
X76500Y-26223D01*
X76501Y-26250D01*
G54D11*
X76480Y-47000D02*
X74500Y-47000D01*
X74500Y-47000D02*
X74500Y-46000D01*
X74500Y-46000D02*
X76500Y-46000D01*
X76500Y-46000D02*
X76500Y-47000D01*
X76500Y-46750D02*
X76250Y-47000D01*
X76480Y-28500D02*
X74500Y-28500D01*
X74500Y-28500D02*
X74500Y-27500D01*
X74500Y-27500D02*
X76500Y-27500D01*
X76500Y-27500D02*
X76500Y-28500D01*
X76500Y-28250D02*
X76250Y-28500D01*
X77000Y-49730D02*
X77000Y-47750D01*
X77000Y-47750D02*
X78000Y-47750D01*
X78000Y-47750D02*
X78000Y-49750D01*
X78000Y-49750D02*
X77000Y-49750D01*
X77250Y-49750D02*
X77000Y-49500D01*
X79000Y-46730D02*
X79000Y-44750D01*
X79000Y-44750D02*
X80000Y-44750D01*
X80000Y-44750D02*
X80000Y-46750D01*
X80000Y-46750D02*
X79000Y-46750D01*
X79250Y-46750D02*
X79000Y-46500D01*
G54D12*
X97400Y-60000D02*
X97382Y-60174D01*
X97332Y-60342D01*
X97249Y-60498D01*
X97138Y-60634D01*
X97003Y-60746D01*
X96848Y-60829D01*
X96680Y-60881D01*
X96506Y-60899D01*
X96332Y-60884D01*
X96163Y-60834D01*
X96008Y-60753D01*
X95871Y-60643D01*
X95758Y-60508D01*
X95673Y-60354D01*
X95620Y-60187D01*
X95601Y-60012D01*
X95615Y-59838D01*
X95664Y-59669D01*
X95744Y-59513D01*
X95853Y-59375D01*
X95987Y-59261D01*
X96140Y-59176D01*
X96307Y-59121D01*
X96482Y-59101D01*
X96656Y-59114D01*
X96825Y-59161D01*
X96982Y-59241D01*
X97120Y-59349D01*
X97235Y-59482D01*
X97322Y-59634D01*
X97377Y-59801D01*
X97399Y-59975D01*
X97400Y-60000D01*
X97400Y-18750D02*
X97382Y-18924D01*
X97332Y-19092D01*
X97249Y-19248D01*
X97138Y-19384D01*
X97003Y-19496D01*
X96848Y-19579D01*
X96680Y-19631D01*
X96506Y-19649D01*
X96332Y-19634D01*
X96163Y-19584D01*
X96008Y-19503D01*
X95871Y-19393D01*
X95758Y-19258D01*
X95673Y-19104D01*
X95620Y-18937D01*
X95601Y-18762D01*
X95615Y-18588D01*
X95664Y-18419D01*
X95744Y-18263D01*
X95853Y-18125D01*
X95987Y-18011D01*
X96140Y-17926D01*
X96307Y-17871D01*
X96482Y-17851D01*
X96656Y-17864D01*
X96825Y-17911D01*
X96982Y-17991D01*
X97120Y-18099D01*
X97235Y-18232D01*
X97322Y-18384D01*
X97377Y-18551D01*
X97399Y-18725D01*
X97400Y-18750D01*
X52900Y-18750D02*
X52882Y-18924D01*
X52832Y-19092D01*
X52749Y-19248D01*
X52638Y-19384D01*
X52503Y-19496D01*
X52348Y-19579D01*
X52180Y-19631D01*
X52006Y-19649D01*
X51832Y-19634D01*
X51663Y-19584D01*
X51508Y-19503D01*
X51371Y-19393D01*
X51258Y-19258D01*
X51173Y-19104D01*
X51120Y-18937D01*
X51101Y-18762D01*
X51115Y-18588D01*
X51164Y-18419D01*
X51244Y-18263D01*
X51353Y-18125D01*
X51487Y-18011D01*
X51640Y-17926D01*
X51807Y-17871D01*
X51982Y-17851D01*
X52156Y-17864D01*
X52325Y-17911D01*
X52482Y-17991D01*
X52620Y-18099D01*
X52735Y-18232D01*
X52822Y-18384D01*
X52877Y-18551D01*
X52899Y-18725D01*
X52900Y-18750D01*
X52900Y-60000D02*
X52882Y-60174D01*
X52832Y-60342D01*
X52749Y-60498D01*
X52638Y-60634D01*
X52503Y-60746D01*
X52348Y-60829D01*
X52180Y-60881D01*
X52006Y-60899D01*
X51832Y-60884D01*
X51663Y-60834D01*
X51508Y-60753D01*
X51371Y-60643D01*
X51258Y-60508D01*
X51173Y-60354D01*
X51120Y-60187D01*
X51101Y-60012D01*
X51115Y-59838D01*
X51164Y-59669D01*
X51244Y-59513D01*
X51353Y-59375D01*
X51487Y-59261D01*
X51640Y-59176D01*
X51807Y-59121D01*
X51982Y-59101D01*
X52156Y-59114D01*
X52325Y-59161D01*
X52482Y-59241D01*
X52620Y-59349D01*
X52735Y-59482D01*
X52822Y-59634D01*
X52877Y-59801D01*
X52899Y-59975D01*
X52900Y-60000D01*
G54D11*
X83500Y-49250D02*
X83500Y-51250D01*
X82500Y-49250D02*
X82500Y-51250D01*
X81500Y-49250D02*
X81500Y-51250D01*
X84000Y-51250D02*
X80500Y-51250D01*
X80500Y-51250D02*
X80500Y-57250D01*
X80500Y-57250D02*
X84500Y-57250D01*
X84000Y-51250D02*
X84500Y-51250D01*
X81000Y-54250D02*
X84500Y-54250D01*
X81000Y-54250D02*
X80500Y-54250D01*
X84500Y-51250D02*
X84500Y-57250D01*
X100000Y-57250D02*
X100000Y-53250D01*
X99500Y-57250D02*
X102500Y-57250D01*
X102500Y-57250D02*
X102500Y-53250D01*
X102500Y-53250D02*
X99500Y-53250D01*
X99500Y-53250D02*
X99500Y-57250D01*
X100000Y-29250D02*
X100000Y-25250D01*
X99500Y-29250D02*
X102500Y-29250D01*
X102500Y-29250D02*
X102500Y-25250D01*
X102500Y-25250D02*
X99500Y-25250D01*
X99500Y-25250D02*
X99500Y-29250D01*
X100000Y-53250D02*
X100000Y-49250D01*
X99500Y-53250D02*
X102500Y-53250D01*
X102500Y-53250D02*
X102500Y-49250D01*
X102500Y-49250D02*
X99500Y-49250D01*
X99500Y-49250D02*
X99500Y-53250D01*
X100000Y-21250D02*
X100000Y-17250D01*
X99500Y-21250D02*
X102500Y-21250D01*
X102500Y-21250D02*
X102500Y-17250D01*
X102500Y-17250D02*
X99500Y-17250D01*
X99500Y-17250D02*
X99500Y-21250D01*
X64500Y-57500D02*
X68500Y-57500D01*
X64500Y-57000D02*
X64500Y-60000D01*
X64500Y-60000D02*
X68500Y-60000D01*
X68500Y-60000D02*
X68500Y-57000D01*
X68500Y-57000D02*
X64500Y-57000D01*
X100000Y-61250D02*
X100000Y-57250D01*
X99500Y-61250D02*
X102500Y-61250D01*
X102500Y-61250D02*
X102500Y-57250D01*
X102500Y-57250D02*
X99500Y-57250D01*
X99500Y-57250D02*
X99500Y-61250D01*
X75500Y-19500D02*
X71500Y-19500D01*
X75500Y-20000D02*
X75500Y-17000D01*
X75500Y-17000D02*
X71500Y-17000D01*
X71500Y-17000D02*
X71500Y-20000D01*
X71500Y-20000D02*
X75500Y-20000D01*
X94750Y-19500D02*
X90750Y-19500D01*
X94750Y-20000D02*
X94750Y-17000D01*
X94750Y-17000D02*
X90750Y-17000D01*
X90750Y-17000D02*
X90750Y-20000D01*
X90750Y-20000D02*
X94750Y-20000D01*
X100000Y-49250D02*
X100000Y-45250D01*
X99500Y-49250D02*
X102500Y-49250D01*
X102500Y-49250D02*
X102500Y-45250D01*
X102500Y-45250D02*
X99500Y-45250D01*
X99500Y-45250D02*
X99500Y-49250D01*
X100000Y-25250D02*
X100000Y-21250D01*
X99500Y-25250D02*
X102500Y-25250D01*
X102500Y-25250D02*
X102500Y-21250D01*
X102500Y-21250D02*
X99500Y-21250D01*
X99500Y-21250D02*
X99500Y-25250D01*
X100000Y-33250D02*
X100000Y-29250D01*
X99500Y-33250D02*
X102500Y-33250D01*
X102500Y-33250D02*
X102500Y-29250D01*
X102500Y-29250D02*
X99500Y-29250D01*
X99500Y-29250D02*
X99500Y-33250D01*
X79500Y-19500D02*
X75500Y-19500D01*
X79500Y-20000D02*
X79500Y-17000D01*
X79500Y-17000D02*
X75500Y-17000D01*
X75500Y-17000D02*
X75500Y-20000D01*
X75500Y-20000D02*
X79500Y-20000D01*
X100000Y-45250D02*
X100000Y-41250D01*
X99500Y-45250D02*
X102500Y-45250D01*
X102500Y-45250D02*
X102500Y-41250D01*
X102500Y-41250D02*
X99500Y-41250D01*
X99500Y-41250D02*
X99500Y-45250D01*
X100000Y-41250D02*
X100000Y-37250D01*
X99500Y-41250D02*
X102500Y-41250D01*
X102500Y-41250D02*
X102500Y-37250D01*
X102500Y-37250D02*
X99500Y-37250D01*
X99500Y-37250D02*
X99500Y-41250D01*
X100000Y-37250D02*
X100000Y-33250D01*
X99500Y-37250D02*
X102500Y-37250D01*
X102500Y-37250D02*
X102500Y-33250D01*
X102500Y-33250D02*
X99500Y-33250D01*
X99500Y-33250D02*
X99500Y-37250D01*
X74500Y-57500D02*
X78500Y-57500D01*
X74500Y-57000D02*
X74500Y-60000D01*
X74500Y-60000D02*
X78500Y-60000D01*
X78500Y-60000D02*
X78500Y-57000D01*
X78500Y-57000D02*
X74500Y-57000D01*
X70500Y-57500D02*
X74500Y-57500D01*
X70500Y-57000D02*
X70500Y-60000D01*
X70500Y-60000D02*
X74500Y-60000D01*
X74500Y-60000D02*
X74500Y-57000D01*
X74500Y-57000D02*
X70500Y-57000D01*
X55643Y-47457D02*
X56129Y-47457D01*
X56186Y-47429D01*
X56214Y-47400D01*
X56243Y-47343D01*
X56243Y-47229D01*
X56214Y-47171D01*
X56186Y-47143D01*
X56129Y-47114D01*
X55643Y-47114D01*
X55700Y-46857D02*
X55671Y-46828D01*
X55643Y-46771D01*
X55643Y-46628D01*
X55671Y-46571D01*
X55700Y-46542D01*
X55757Y-46514D01*
X55814Y-46514D01*
X55900Y-46542D01*
X56243Y-46885D01*
X56243Y-46514D01*
X57143Y-51349D02*
X57143Y-51006D01*
X57743Y-51177D02*
X57143Y-51177D01*
X57743Y-50463D02*
X57457Y-50663D01*
X57743Y-50806D02*
X57143Y-50806D01*
X57143Y-50578D01*
X57171Y-50520D01*
X57200Y-50492D01*
X57257Y-50463D01*
X57343Y-50463D01*
X57400Y-50492D01*
X57429Y-50520D01*
X57457Y-50578D01*
X57457Y-50806D01*
X57571Y-50235D02*
X57571Y-49949D01*
X57743Y-50292D02*
X57143Y-50092D01*
X57743Y-49892D01*
X57686Y-49349D02*
X57714Y-49378D01*
X57743Y-49464D01*
X57743Y-49521D01*
X57714Y-49606D01*
X57657Y-49664D01*
X57600Y-49692D01*
X57486Y-49721D01*
X57400Y-49721D01*
X57286Y-49692D01*
X57229Y-49664D01*
X57171Y-49606D01*
X57143Y-49521D01*
X57143Y-49464D01*
X57171Y-49378D01*
X57200Y-49349D01*
X57143Y-48978D02*
X57143Y-48864D01*
X57171Y-48806D01*
X57229Y-48749D01*
X57343Y-48721D01*
X57543Y-48721D01*
X57657Y-48749D01*
X57714Y-48806D01*
X57743Y-48864D01*
X57743Y-48978D01*
X57714Y-49035D01*
X57657Y-49092D01*
X57543Y-49121D01*
X57343Y-49121D01*
X57229Y-49092D01*
X57171Y-49035D01*
X57143Y-48978D01*
X57800Y-48606D02*
X57800Y-48149D01*
X57400Y-47920D02*
X57371Y-47978D01*
X57343Y-48006D01*
X57286Y-48035D01*
X57257Y-48035D01*
X57200Y-48006D01*
X57171Y-47978D01*
X57143Y-47920D01*
X57143Y-47806D01*
X57171Y-47749D01*
X57200Y-47720D01*
X57257Y-47692D01*
X57286Y-47692D01*
X57343Y-47720D01*
X57371Y-47749D01*
X57400Y-47806D01*
X57400Y-47920D01*
X57429Y-47978D01*
X57457Y-48006D01*
X57514Y-48035D01*
X57629Y-48035D01*
X57686Y-48006D01*
X57714Y-47978D01*
X57743Y-47920D01*
X57743Y-47806D01*
X57714Y-47749D01*
X57686Y-47720D01*
X57629Y-47692D01*
X57514Y-47692D01*
X57457Y-47720D01*
X57429Y-47749D01*
X57400Y-47806D01*
X57143Y-47492D02*
X57743Y-47349D01*
X57314Y-47235D01*
X57743Y-47121D01*
X57143Y-46978D01*
X57800Y-46892D02*
X57800Y-46435D01*
X57743Y-45978D02*
X57743Y-46321D01*
X57743Y-46149D02*
X57143Y-46149D01*
X57229Y-46206D01*
X57286Y-46264D01*
X57314Y-46321D01*
X57200Y-45750D02*
X57171Y-45721D01*
X57143Y-45664D01*
X57143Y-45521D01*
X57171Y-45464D01*
X57200Y-45435D01*
X57257Y-45407D01*
X57314Y-45407D01*
X57400Y-45435D01*
X57743Y-45778D01*
X57743Y-45407D01*
X57143Y-45236D02*
X57743Y-45036D01*
X57143Y-44836D01*
X57800Y-44779D02*
X57800Y-44322D01*
X57743Y-44179D02*
X57143Y-44179D01*
X57143Y-44036D01*
X57171Y-43951D01*
X57229Y-43893D01*
X57286Y-43865D01*
X57400Y-43836D01*
X57486Y-43836D01*
X57600Y-43865D01*
X57657Y-43893D01*
X57714Y-43951D01*
X57743Y-44036D01*
X57743Y-44179D01*
X57143Y-43579D02*
X57629Y-43579D01*
X57686Y-43551D01*
X57714Y-43522D01*
X57743Y-43465D01*
X57743Y-43351D01*
X57714Y-43293D01*
X57686Y-43265D01*
X57629Y-43236D01*
X57143Y-43236D01*
X57571Y-42979D02*
X57571Y-42693D01*
X57743Y-43036D02*
X57143Y-42836D01*
X57743Y-42636D01*
X57743Y-42150D02*
X57743Y-42436D01*
X57143Y-42436D01*
G54D13*
X84462Y-26700D02*
X84424Y-26681D01*
X84386Y-26643D01*
X84329Y-26586D01*
X84290Y-26567D01*
X84252Y-26567D01*
X84271Y-26662D02*
X84233Y-26643D01*
X84195Y-26605D01*
X84176Y-26529D01*
X84176Y-26395D01*
X84195Y-26319D01*
X84233Y-26281D01*
X84271Y-26262D01*
X84348Y-26262D01*
X84386Y-26281D01*
X84424Y-26319D01*
X84443Y-26395D01*
X84443Y-26529D01*
X84424Y-26605D01*
X84386Y-26643D01*
X84348Y-26662D01*
X84271Y-26662D01*
X84824Y-26662D02*
X84595Y-26662D01*
X84709Y-26662D02*
X84709Y-26262D01*
X84671Y-26319D01*
X84633Y-26357D01*
X84595Y-26376D01*
X82862Y-29452D02*
X82728Y-29452D01*
X82728Y-29662D02*
X82728Y-29262D01*
X82919Y-29262D01*
X83071Y-29452D02*
X83205Y-29452D01*
X83262Y-29662D02*
X83071Y-29662D01*
X83071Y-29262D01*
X83262Y-29262D01*
X83376Y-29262D02*
X83605Y-29262D01*
X83490Y-29662D02*
X83490Y-29262D01*
X83643Y-29700D02*
X83948Y-29700D01*
X84043Y-29662D02*
X84043Y-29262D01*
X84272Y-29662D01*
X84272Y-29262D01*
X84462Y-21200D02*
X84424Y-21181D01*
X84386Y-21143D01*
X84329Y-21086D01*
X84290Y-21067D01*
X84252Y-21067D01*
X84271Y-21162D02*
X84233Y-21143D01*
X84195Y-21105D01*
X84176Y-21029D01*
X84176Y-20895D01*
X84195Y-20819D01*
X84233Y-20781D01*
X84271Y-20762D01*
X84348Y-20762D01*
X84386Y-20781D01*
X84424Y-20819D01*
X84443Y-20895D01*
X84443Y-21029D01*
X84424Y-21105D01*
X84386Y-21143D01*
X84348Y-21162D01*
X84271Y-21162D01*
X84595Y-20800D02*
X84614Y-20781D01*
X84652Y-20762D01*
X84748Y-20762D01*
X84786Y-20781D01*
X84805Y-20800D01*
X84824Y-20838D01*
X84824Y-20876D01*
X84805Y-20933D01*
X84576Y-21162D01*
X84824Y-21162D01*
X82862Y-22952D02*
X82728Y-22952D01*
X82728Y-23162D02*
X82728Y-22762D01*
X82919Y-22762D01*
X83071Y-22952D02*
X83205Y-22952D01*
X83262Y-23162D02*
X83071Y-23162D01*
X83071Y-22762D01*
X83262Y-22762D01*
X83376Y-22762D02*
X83605Y-22762D01*
X83490Y-23162D02*
X83490Y-22762D01*
X83643Y-23200D02*
X83948Y-23200D01*
X84043Y-23162D02*
X84043Y-22762D01*
X84272Y-23162D01*
X84272Y-22762D01*
X84462Y-38700D02*
X84424Y-38681D01*
X84386Y-38643D01*
X84329Y-38586D01*
X84290Y-38567D01*
X84252Y-38567D01*
X84271Y-38662D02*
X84233Y-38643D01*
X84195Y-38605D01*
X84176Y-38529D01*
X84176Y-38395D01*
X84195Y-38319D01*
X84233Y-38281D01*
X84271Y-38262D01*
X84348Y-38262D01*
X84386Y-38281D01*
X84424Y-38319D01*
X84443Y-38395D01*
X84443Y-38529D01*
X84424Y-38605D01*
X84386Y-38643D01*
X84348Y-38662D01*
X84271Y-38662D01*
X84576Y-38262D02*
X84824Y-38262D01*
X84690Y-38414D01*
X84748Y-38414D01*
X84786Y-38433D01*
X84805Y-38452D01*
X84824Y-38490D01*
X84824Y-38586D01*
X84805Y-38624D01*
X84786Y-38643D01*
X84748Y-38662D01*
X84633Y-38662D01*
X84595Y-38643D01*
X84576Y-38624D01*
X83362Y-41452D02*
X83228Y-41452D01*
X83228Y-41662D02*
X83228Y-41262D01*
X83419Y-41262D01*
X83571Y-41452D02*
X83705Y-41452D01*
X83762Y-41662D02*
X83571Y-41662D01*
X83571Y-41262D01*
X83762Y-41262D01*
X83876Y-41262D02*
X84105Y-41262D01*
X83990Y-41662D02*
X83990Y-41262D01*
X84143Y-41700D02*
X84448Y-41700D01*
X84543Y-41662D02*
X84543Y-41262D01*
X84772Y-41662D01*
X84772Y-41262D01*
X64703Y-25223D02*
X64536Y-24961D01*
X64417Y-25223D02*
X64417Y-24673D01*
X64608Y-24673D01*
X64655Y-24699D01*
X64679Y-24725D01*
X64703Y-24777D01*
X64703Y-24856D01*
X64679Y-24908D01*
X64655Y-24935D01*
X64608Y-24961D01*
X64417Y-24961D01*
X64846Y-24673D02*
X65012Y-25223D01*
X65179Y-24673D01*
X65417Y-24908D02*
X65370Y-24882D01*
X65346Y-24856D01*
X65322Y-24804D01*
X65322Y-24777D01*
X65346Y-24725D01*
X65370Y-24699D01*
X65417Y-24673D01*
X65513Y-24673D01*
X65560Y-24699D01*
X65584Y-24725D01*
X65608Y-24777D01*
X65608Y-24804D01*
X65584Y-24856D01*
X65560Y-24882D01*
X65513Y-24908D01*
X65417Y-24908D01*
X65370Y-24935D01*
X65346Y-24961D01*
X65322Y-25013D01*
X65322Y-25118D01*
X65346Y-25170D01*
X65370Y-25196D01*
X65417Y-25223D01*
X65513Y-25223D01*
X65560Y-25196D01*
X65584Y-25170D01*
X65608Y-25118D01*
X65608Y-25013D01*
X65584Y-24961D01*
X65560Y-24935D01*
X65513Y-24908D01*
X64155Y-18223D02*
X63988Y-17961D01*
X63869Y-18223D02*
X63869Y-17673D01*
X64060Y-17673D01*
X64107Y-17699D01*
X64131Y-17725D01*
X64155Y-17777D01*
X64155Y-17856D01*
X64131Y-17908D01*
X64107Y-17935D01*
X64060Y-17961D01*
X63869Y-17961D01*
X64560Y-18196D02*
X64512Y-18223D01*
X64417Y-18223D01*
X64369Y-18196D01*
X64345Y-18144D01*
X64345Y-17935D01*
X64369Y-17882D01*
X64417Y-17856D01*
X64512Y-17856D01*
X64560Y-17882D01*
X64583Y-17935D01*
X64583Y-17987D01*
X64345Y-18039D01*
X65012Y-17856D02*
X65012Y-18301D01*
X64989Y-18354D01*
X64965Y-18380D01*
X64917Y-18406D01*
X64846Y-18406D01*
X64798Y-18380D01*
X65012Y-18196D02*
X64965Y-18223D01*
X64869Y-18223D01*
X64822Y-18196D01*
X64798Y-18170D01*
X64774Y-18118D01*
X64774Y-17961D01*
X64798Y-17908D01*
X64822Y-17882D01*
X64869Y-17856D01*
X64965Y-17856D01*
X65012Y-17882D01*
X65321Y-18223D02*
X65274Y-18196D01*
X65250Y-18144D01*
X65250Y-17673D01*
X65393Y-18275D02*
X65774Y-18275D01*
X65869Y-17725D02*
X65893Y-17699D01*
X65941Y-17673D01*
X66060Y-17673D01*
X66107Y-17699D01*
X66131Y-17725D01*
X66155Y-17777D01*
X66155Y-17830D01*
X66131Y-17908D01*
X65845Y-18223D01*
X66155Y-18223D01*
X51703Y-25723D02*
X51536Y-25461D01*
X51417Y-25723D02*
X51417Y-25173D01*
X51608Y-25173D01*
X51655Y-25199D01*
X51679Y-25225D01*
X51703Y-25277D01*
X51703Y-25356D01*
X51679Y-25408D01*
X51655Y-25435D01*
X51608Y-25461D01*
X51417Y-25461D01*
X51846Y-25173D02*
X52012Y-25723D01*
X52179Y-25173D01*
X52298Y-25173D02*
X52632Y-25173D01*
X52417Y-25723D01*
X59196Y-29262D02*
X59223Y-29190D01*
X59223Y-29071D01*
X59196Y-29024D01*
X59170Y-29000D01*
X59118Y-28976D01*
X59065Y-28976D01*
X59013Y-29000D01*
X58987Y-29024D01*
X58961Y-29071D01*
X58935Y-29167D01*
X58908Y-29214D01*
X58882Y-29238D01*
X58830Y-29262D01*
X58777Y-29262D01*
X58725Y-29238D01*
X58699Y-29214D01*
X58673Y-29167D01*
X58673Y-29047D01*
X58699Y-28976D01*
X59196Y-28571D02*
X59223Y-28619D01*
X59223Y-28714D01*
X59196Y-28762D01*
X59144Y-28786D01*
X58935Y-28786D01*
X58882Y-28762D01*
X58856Y-28714D01*
X58856Y-28619D01*
X58882Y-28571D01*
X58935Y-28548D01*
X58987Y-28548D01*
X59039Y-28786D01*
X58856Y-28119D02*
X59223Y-28119D01*
X58856Y-28333D02*
X59144Y-28333D01*
X59196Y-28309D01*
X59223Y-28262D01*
X59223Y-28190D01*
X59196Y-28142D01*
X59170Y-28119D01*
X59223Y-27881D02*
X58856Y-27881D01*
X58673Y-27881D02*
X58699Y-27905D01*
X58725Y-27881D01*
X58699Y-27857D01*
X58673Y-27881D01*
X58725Y-27881D01*
X59223Y-27572D02*
X59196Y-27619D01*
X59144Y-27643D01*
X58673Y-27643D01*
X59275Y-27500D02*
X59275Y-27119D01*
X58725Y-27024D02*
X58699Y-27000D01*
X58673Y-26952D01*
X58673Y-26833D01*
X58699Y-26786D01*
X58725Y-26762D01*
X58777Y-26738D01*
X58830Y-26738D01*
X58908Y-26762D01*
X59223Y-27048D01*
X59223Y-26738D01*
X51703Y-22723D02*
X51536Y-22461D01*
X51417Y-22723D02*
X51417Y-22173D01*
X51608Y-22173D01*
X51655Y-22199D01*
X51679Y-22225D01*
X51703Y-22277D01*
X51703Y-22356D01*
X51679Y-22408D01*
X51655Y-22435D01*
X51608Y-22461D01*
X51417Y-22461D01*
X51846Y-22173D02*
X52012Y-22723D01*
X52179Y-22173D01*
X52560Y-22173D02*
X52465Y-22173D01*
X52417Y-22199D01*
X52394Y-22225D01*
X52346Y-22304D01*
X52322Y-22408D01*
X52322Y-22618D01*
X52346Y-22670D01*
X52370Y-22696D01*
X52417Y-22723D01*
X52513Y-22723D01*
X52560Y-22696D01*
X52584Y-22670D01*
X52608Y-22618D01*
X52608Y-22487D01*
X52584Y-22435D01*
X52560Y-22408D01*
X52513Y-22382D01*
X52417Y-22382D01*
X52370Y-22408D01*
X52346Y-22435D01*
X52322Y-22487D01*
X54888Y-20296D02*
X54960Y-20323D01*
X55079Y-20323D01*
X55126Y-20296D01*
X55150Y-20270D01*
X55174Y-20218D01*
X55174Y-20165D01*
X55150Y-20113D01*
X55126Y-20087D01*
X55079Y-20061D01*
X54983Y-20035D01*
X54936Y-20008D01*
X54912Y-19982D01*
X54888Y-19930D01*
X54888Y-19877D01*
X54912Y-19825D01*
X54936Y-19799D01*
X54983Y-19773D01*
X55103Y-19773D01*
X55174Y-19799D01*
X55579Y-20296D02*
X55531Y-20323D01*
X55436Y-20323D01*
X55388Y-20296D01*
X55364Y-20244D01*
X55364Y-20035D01*
X55388Y-19982D01*
X55436Y-19956D01*
X55531Y-19956D01*
X55579Y-19982D01*
X55602Y-20035D01*
X55602Y-20087D01*
X55364Y-20139D01*
X56031Y-19956D02*
X56031Y-20323D01*
X55817Y-19956D02*
X55817Y-20244D01*
X55841Y-20296D01*
X55888Y-20323D01*
X55960Y-20323D01*
X56008Y-20296D01*
X56031Y-20270D01*
X56269Y-20323D02*
X56269Y-19956D01*
X56269Y-19773D02*
X56245Y-19799D01*
X56269Y-19825D01*
X56293Y-19799D01*
X56269Y-19773D01*
X56269Y-19825D01*
X56578Y-20323D02*
X56531Y-20296D01*
X56507Y-20244D01*
X56507Y-19773D01*
X56650Y-20375D02*
X57031Y-20375D01*
X57412Y-20323D02*
X57126Y-20323D01*
X57269Y-20323D02*
X57269Y-19773D01*
X57221Y-19851D01*
X57174Y-19904D01*
X57126Y-19930D01*
X54703Y-31723D02*
X54536Y-31461D01*
X54417Y-31723D02*
X54417Y-31173D01*
X54608Y-31173D01*
X54655Y-31199D01*
X54679Y-31225D01*
X54703Y-31277D01*
X54703Y-31356D01*
X54679Y-31408D01*
X54655Y-31435D01*
X54608Y-31461D01*
X54417Y-31461D01*
X54846Y-31173D02*
X55012Y-31723D01*
X55179Y-31173D01*
X55584Y-31173D02*
X55346Y-31173D01*
X55322Y-31435D01*
X55346Y-31408D01*
X55394Y-31382D01*
X55513Y-31382D01*
X55560Y-31408D01*
X55584Y-31435D01*
X55608Y-31487D01*
X55608Y-31618D01*
X55584Y-31670D01*
X55560Y-31696D01*
X55513Y-31723D01*
X55394Y-31723D01*
X55346Y-31696D01*
X55322Y-31670D01*
X59196Y-32762D02*
X59223Y-32690D01*
X59223Y-32571D01*
X59196Y-32524D01*
X59170Y-32500D01*
X59118Y-32476D01*
X59065Y-32476D01*
X59013Y-32500D01*
X58987Y-32524D01*
X58961Y-32571D01*
X58935Y-32667D01*
X58908Y-32714D01*
X58882Y-32738D01*
X58830Y-32762D01*
X58777Y-32762D01*
X58725Y-32738D01*
X58699Y-32714D01*
X58673Y-32667D01*
X58673Y-32547D01*
X58699Y-32476D01*
X59196Y-32071D02*
X59223Y-32119D01*
X59223Y-32214D01*
X59196Y-32262D01*
X59144Y-32286D01*
X58935Y-32286D01*
X58882Y-32262D01*
X58856Y-32214D01*
X58856Y-32119D01*
X58882Y-32071D01*
X58935Y-32048D01*
X58987Y-32048D01*
X59039Y-32286D01*
X58856Y-31619D02*
X59223Y-31619D01*
X58856Y-31833D02*
X59144Y-31833D01*
X59196Y-31809D01*
X59223Y-31762D01*
X59223Y-31690D01*
X59196Y-31642D01*
X59170Y-31619D01*
X59223Y-31381D02*
X58856Y-31381D01*
X58673Y-31381D02*
X58699Y-31405D01*
X58725Y-31381D01*
X58699Y-31357D01*
X58673Y-31381D01*
X58725Y-31381D01*
X59223Y-31072D02*
X59196Y-31119D01*
X59144Y-31143D01*
X58673Y-31143D01*
X59275Y-31000D02*
X59275Y-30619D01*
X58856Y-30286D02*
X59223Y-30286D01*
X58646Y-30405D02*
X59039Y-30524D01*
X59039Y-30214D01*
X54703Y-28223D02*
X54536Y-27961D01*
X54417Y-28223D02*
X54417Y-27673D01*
X54608Y-27673D01*
X54655Y-27699D01*
X54679Y-27725D01*
X54703Y-27777D01*
X54703Y-27856D01*
X54679Y-27908D01*
X54655Y-27935D01*
X54608Y-27961D01*
X54417Y-27961D01*
X54846Y-27673D02*
X55012Y-28223D01*
X55179Y-27673D01*
X55560Y-27856D02*
X55560Y-28223D01*
X55441Y-27646D02*
X55322Y-28039D01*
X55632Y-28039D01*
X59196Y-26262D02*
X59223Y-26190D01*
X59223Y-26071D01*
X59196Y-26024D01*
X59170Y-26000D01*
X59118Y-25976D01*
X59065Y-25976D01*
X59013Y-26000D01*
X58987Y-26024D01*
X58961Y-26071D01*
X58935Y-26167D01*
X58908Y-26214D01*
X58882Y-26238D01*
X58830Y-26262D01*
X58777Y-26262D01*
X58725Y-26238D01*
X58699Y-26214D01*
X58673Y-26167D01*
X58673Y-26047D01*
X58699Y-25976D01*
X59196Y-25571D02*
X59223Y-25619D01*
X59223Y-25714D01*
X59196Y-25762D01*
X59144Y-25786D01*
X58935Y-25786D01*
X58882Y-25762D01*
X58856Y-25714D01*
X58856Y-25619D01*
X58882Y-25571D01*
X58935Y-25548D01*
X58987Y-25548D01*
X59039Y-25786D01*
X58856Y-25119D02*
X59223Y-25119D01*
X58856Y-25333D02*
X59144Y-25333D01*
X59196Y-25309D01*
X59223Y-25262D01*
X59223Y-25190D01*
X59196Y-25142D01*
X59170Y-25119D01*
X59223Y-24881D02*
X58856Y-24881D01*
X58673Y-24881D02*
X58699Y-24905D01*
X58725Y-24881D01*
X58699Y-24857D01*
X58673Y-24881D01*
X58725Y-24881D01*
X59223Y-24572D02*
X59196Y-24619D01*
X59144Y-24643D01*
X58673Y-24643D01*
X59275Y-24500D02*
X59275Y-24119D01*
X58673Y-24048D02*
X58673Y-23738D01*
X58882Y-23905D01*
X58882Y-23833D01*
X58908Y-23786D01*
X58935Y-23762D01*
X58987Y-23738D01*
X59118Y-23738D01*
X59170Y-23762D01*
X59196Y-23786D01*
X59223Y-23833D01*
X59223Y-23976D01*
X59196Y-24024D01*
X59170Y-24048D01*
X54703Y-34723D02*
X54536Y-34461D01*
X54417Y-34723D02*
X54417Y-34173D01*
X54608Y-34173D01*
X54655Y-34199D01*
X54679Y-34225D01*
X54703Y-34277D01*
X54703Y-34356D01*
X54679Y-34408D01*
X54655Y-34435D01*
X54608Y-34461D01*
X54417Y-34461D01*
X54846Y-34173D02*
X55012Y-34723D01*
X55179Y-34173D01*
X55298Y-34173D02*
X55608Y-34173D01*
X55441Y-34382D01*
X55513Y-34382D01*
X55560Y-34408D01*
X55584Y-34435D01*
X55608Y-34487D01*
X55608Y-34618D01*
X55584Y-34670D01*
X55560Y-34696D01*
X55513Y-34723D01*
X55370Y-34723D01*
X55322Y-34696D01*
X55298Y-34670D01*
X59196Y-36262D02*
X59223Y-36190D01*
X59223Y-36071D01*
X59196Y-36024D01*
X59170Y-36000D01*
X59118Y-35976D01*
X59065Y-35976D01*
X59013Y-36000D01*
X58987Y-36024D01*
X58961Y-36071D01*
X58935Y-36167D01*
X58908Y-36214D01*
X58882Y-36238D01*
X58830Y-36262D01*
X58777Y-36262D01*
X58725Y-36238D01*
X58699Y-36214D01*
X58673Y-36167D01*
X58673Y-36047D01*
X58699Y-35976D01*
X59196Y-35571D02*
X59223Y-35619D01*
X59223Y-35714D01*
X59196Y-35762D01*
X59144Y-35786D01*
X58935Y-35786D01*
X58882Y-35762D01*
X58856Y-35714D01*
X58856Y-35619D01*
X58882Y-35571D01*
X58935Y-35548D01*
X58987Y-35548D01*
X59039Y-35786D01*
X58856Y-35119D02*
X59223Y-35119D01*
X58856Y-35333D02*
X59144Y-35333D01*
X59196Y-35309D01*
X59223Y-35262D01*
X59223Y-35190D01*
X59196Y-35142D01*
X59170Y-35119D01*
X59223Y-34881D02*
X58856Y-34881D01*
X58673Y-34881D02*
X58699Y-34905D01*
X58725Y-34881D01*
X58699Y-34857D01*
X58673Y-34881D01*
X58725Y-34881D01*
X59223Y-34572D02*
X59196Y-34619D01*
X59144Y-34643D01*
X58673Y-34643D01*
X59275Y-34500D02*
X59275Y-34119D01*
X58673Y-33762D02*
X58673Y-34000D01*
X58935Y-34024D01*
X58908Y-34000D01*
X58882Y-33952D01*
X58882Y-33833D01*
X58908Y-33786D01*
X58935Y-33762D01*
X58987Y-33738D01*
X59118Y-33738D01*
X59170Y-33762D01*
X59196Y-33786D01*
X59223Y-33833D01*
X59223Y-33952D01*
X59196Y-34000D01*
X59170Y-34024D01*
X68203Y-25223D02*
X68036Y-24961D01*
X67917Y-25223D02*
X67917Y-24673D01*
X68108Y-24673D01*
X68155Y-24699D01*
X68179Y-24725D01*
X68203Y-24777D01*
X68203Y-24856D01*
X68179Y-24908D01*
X68155Y-24935D01*
X68108Y-24961D01*
X67917Y-24961D01*
X68346Y-24673D02*
X68512Y-25223D01*
X68679Y-24673D01*
X69108Y-25223D02*
X68822Y-25223D01*
X68965Y-25223D02*
X68965Y-24673D01*
X68917Y-24751D01*
X68870Y-24804D01*
X68822Y-24830D01*
X67655Y-18223D02*
X67488Y-17961D01*
X67369Y-18223D02*
X67369Y-17673D01*
X67560Y-17673D01*
X67607Y-17699D01*
X67631Y-17725D01*
X67655Y-17777D01*
X67655Y-17856D01*
X67631Y-17908D01*
X67607Y-17935D01*
X67560Y-17961D01*
X67369Y-17961D01*
X68060Y-18196D02*
X68012Y-18223D01*
X67917Y-18223D01*
X67869Y-18196D01*
X67845Y-18144D01*
X67845Y-17935D01*
X67869Y-17882D01*
X67917Y-17856D01*
X68012Y-17856D01*
X68060Y-17882D01*
X68083Y-17935D01*
X68083Y-17987D01*
X67845Y-18039D01*
X68512Y-17856D02*
X68512Y-18301D01*
X68489Y-18354D01*
X68465Y-18380D01*
X68417Y-18406D01*
X68346Y-18406D01*
X68298Y-18380D01*
X68512Y-18196D02*
X68465Y-18223D01*
X68369Y-18223D01*
X68322Y-18196D01*
X68298Y-18170D01*
X68274Y-18118D01*
X68274Y-17961D01*
X68298Y-17908D01*
X68322Y-17882D01*
X68369Y-17856D01*
X68465Y-17856D01*
X68512Y-17882D01*
X68821Y-18223D02*
X68774Y-18196D01*
X68750Y-18144D01*
X68750Y-17673D01*
X68893Y-18275D02*
X69274Y-18275D01*
X69655Y-18223D02*
X69369Y-18223D01*
X69512Y-18223D02*
X69512Y-17673D01*
X69464Y-17751D01*
X69417Y-17804D01*
X69369Y-17830D01*
X51703Y-38723D02*
X51536Y-38461D01*
X51417Y-38723D02*
X51417Y-38173D01*
X51608Y-38173D01*
X51655Y-38199D01*
X51679Y-38225D01*
X51703Y-38277D01*
X51703Y-38356D01*
X51679Y-38408D01*
X51655Y-38435D01*
X51608Y-38461D01*
X51417Y-38461D01*
X51846Y-38173D02*
X52012Y-38723D01*
X52179Y-38173D01*
X52322Y-38225D02*
X52346Y-38199D01*
X52394Y-38173D01*
X52513Y-38173D01*
X52560Y-38199D01*
X52584Y-38225D01*
X52608Y-38277D01*
X52608Y-38330D01*
X52584Y-38408D01*
X52298Y-38723D01*
X52608Y-38723D01*
X59196Y-39762D02*
X59223Y-39690D01*
X59223Y-39571D01*
X59196Y-39524D01*
X59170Y-39500D01*
X59118Y-39476D01*
X59065Y-39476D01*
X59013Y-39500D01*
X58987Y-39524D01*
X58961Y-39571D01*
X58935Y-39667D01*
X58908Y-39714D01*
X58882Y-39738D01*
X58830Y-39762D01*
X58777Y-39762D01*
X58725Y-39738D01*
X58699Y-39714D01*
X58673Y-39667D01*
X58673Y-39547D01*
X58699Y-39476D01*
X59196Y-39071D02*
X59223Y-39119D01*
X59223Y-39214D01*
X59196Y-39262D01*
X59144Y-39286D01*
X58935Y-39286D01*
X58882Y-39262D01*
X58856Y-39214D01*
X58856Y-39119D01*
X58882Y-39071D01*
X58935Y-39048D01*
X58987Y-39048D01*
X59039Y-39286D01*
X58856Y-38619D02*
X59223Y-38619D01*
X58856Y-38833D02*
X59144Y-38833D01*
X59196Y-38809D01*
X59223Y-38762D01*
X59223Y-38690D01*
X59196Y-38642D01*
X59170Y-38619D01*
X59223Y-38381D02*
X58856Y-38381D01*
X58673Y-38381D02*
X58699Y-38405D01*
X58725Y-38381D01*
X58699Y-38357D01*
X58673Y-38381D01*
X58725Y-38381D01*
X59223Y-38072D02*
X59196Y-38119D01*
X59144Y-38143D01*
X58673Y-38143D01*
X59275Y-38000D02*
X59275Y-37619D01*
X58673Y-37286D02*
X58673Y-37381D01*
X58699Y-37429D01*
X58725Y-37452D01*
X58804Y-37500D01*
X58908Y-37524D01*
X59118Y-37524D01*
X59170Y-37500D01*
X59196Y-37476D01*
X59223Y-37429D01*
X59223Y-37333D01*
X59196Y-37286D01*
X59170Y-37262D01*
X59118Y-37238D01*
X58987Y-37238D01*
X58935Y-37262D01*
X58908Y-37286D01*
X58882Y-37333D01*
X58882Y-37429D01*
X58908Y-37476D01*
X58935Y-37500D01*
X58987Y-37524D01*
G54D11*
X92058Y-53493D02*
X92058Y-52893D01*
X92401Y-53493D02*
X92144Y-53150D01*
X92401Y-52893D02*
X92058Y-53236D01*
X92601Y-52893D02*
X92972Y-52893D01*
X92772Y-53121D01*
X92858Y-53121D01*
X92915Y-53150D01*
X92944Y-53179D01*
X92972Y-53236D01*
X92972Y-53379D01*
X92944Y-53436D01*
X92915Y-53464D01*
X92858Y-53493D01*
X92686Y-53493D01*
X92629Y-53464D01*
X92601Y-53436D01*
X90001Y-52493D02*
X89801Y-52207D01*
X89658Y-52493D02*
X89658Y-51893D01*
X89886Y-51893D01*
X89944Y-51921D01*
X89972Y-51950D01*
X90001Y-52007D01*
X90001Y-52093D01*
X89972Y-52150D01*
X89944Y-52179D01*
X89886Y-52207D01*
X89658Y-52207D01*
X90258Y-52179D02*
X90458Y-52179D01*
X90544Y-52493D02*
X90258Y-52493D01*
X90258Y-51893D01*
X90544Y-51893D01*
X91087Y-52493D02*
X90801Y-52493D01*
X90801Y-51893D01*
X91258Y-52321D02*
X91544Y-52321D01*
X91201Y-52493D02*
X91401Y-51893D01*
X91601Y-52493D01*
X91801Y-52493D02*
X91801Y-51893D01*
X92058Y-52464D02*
X92144Y-52493D01*
X92287Y-52493D01*
X92344Y-52464D01*
X92373Y-52436D01*
X92401Y-52379D01*
X92401Y-52321D01*
X92373Y-52264D01*
X92344Y-52236D01*
X92287Y-52207D01*
X92173Y-52179D01*
X92115Y-52150D01*
X92087Y-52121D01*
X92058Y-52064D01*
X92058Y-52007D01*
X92087Y-51950D01*
X92115Y-51921D01*
X92173Y-51893D01*
X92315Y-51893D01*
X92401Y-51921D01*
X92658Y-52264D02*
X93115Y-52264D01*
X93372Y-52464D02*
X93458Y-52493D01*
X93601Y-52493D01*
X93658Y-52464D01*
X93687Y-52436D01*
X93715Y-52379D01*
X93715Y-52321D01*
X93687Y-52264D01*
X93658Y-52236D01*
X93601Y-52207D01*
X93487Y-52179D01*
X93429Y-52150D01*
X93401Y-52121D01*
X93372Y-52064D01*
X93372Y-52007D01*
X93401Y-51950D01*
X93429Y-51921D01*
X93487Y-51893D01*
X93629Y-51893D01*
X93715Y-51921D01*
X93972Y-52493D02*
X93972Y-51893D01*
X94200Y-51893D01*
X94258Y-51921D01*
X94286Y-51950D01*
X94315Y-52007D01*
X94315Y-52093D01*
X94286Y-52150D01*
X94258Y-52179D01*
X94200Y-52207D01*
X93972Y-52207D01*
X94572Y-52493D02*
X94572Y-51893D01*
X94715Y-51893D01*
X94800Y-51921D01*
X94858Y-51979D01*
X94886Y-52036D01*
X94915Y-52150D01*
X94915Y-52236D01*
X94886Y-52350D01*
X94858Y-52407D01*
X94800Y-52464D01*
X94715Y-52493D01*
X94572Y-52493D01*
X95086Y-51893D02*
X95429Y-51893D01*
X95258Y-52493D02*
X95258Y-51893D01*
X92058Y-35493D02*
X92058Y-34893D01*
X92401Y-35493D02*
X92144Y-35150D01*
X92401Y-34893D02*
X92058Y-35236D01*
X92915Y-34893D02*
X92801Y-34893D01*
X92744Y-34921D01*
X92715Y-34950D01*
X92658Y-35036D01*
X92629Y-35150D01*
X92629Y-35379D01*
X92658Y-35436D01*
X92686Y-35464D01*
X92744Y-35493D01*
X92858Y-35493D01*
X92915Y-35464D01*
X92944Y-35436D01*
X92972Y-35379D01*
X92972Y-35236D01*
X92944Y-35179D01*
X92915Y-35150D01*
X92858Y-35121D01*
X92744Y-35121D01*
X92686Y-35150D01*
X92658Y-35179D01*
X92629Y-35236D01*
X90001Y-34493D02*
X89801Y-34207D01*
X89658Y-34493D02*
X89658Y-33893D01*
X89886Y-33893D01*
X89944Y-33921D01*
X89972Y-33950D01*
X90001Y-34007D01*
X90001Y-34093D01*
X89972Y-34150D01*
X89944Y-34179D01*
X89886Y-34207D01*
X89658Y-34207D01*
X90258Y-34179D02*
X90458Y-34179D01*
X90544Y-34493D02*
X90258Y-34493D01*
X90258Y-33893D01*
X90544Y-33893D01*
X91087Y-34493D02*
X90801Y-34493D01*
X90801Y-33893D01*
X91258Y-34321D02*
X91544Y-34321D01*
X91201Y-34493D02*
X91401Y-33893D01*
X91601Y-34493D01*
X91801Y-34493D02*
X91801Y-33893D01*
X92058Y-34464D02*
X92144Y-34493D01*
X92287Y-34493D01*
X92344Y-34464D01*
X92373Y-34436D01*
X92401Y-34379D01*
X92401Y-34321D01*
X92373Y-34264D01*
X92344Y-34236D01*
X92287Y-34207D01*
X92173Y-34179D01*
X92115Y-34150D01*
X92087Y-34121D01*
X92058Y-34064D01*
X92058Y-34007D01*
X92087Y-33950D01*
X92115Y-33921D01*
X92173Y-33893D01*
X92315Y-33893D01*
X92401Y-33921D01*
X92658Y-34264D02*
X93115Y-34264D01*
X93372Y-34464D02*
X93458Y-34493D01*
X93601Y-34493D01*
X93658Y-34464D01*
X93687Y-34436D01*
X93715Y-34379D01*
X93715Y-34321D01*
X93687Y-34264D01*
X93658Y-34236D01*
X93601Y-34207D01*
X93487Y-34179D01*
X93429Y-34150D01*
X93401Y-34121D01*
X93372Y-34064D01*
X93372Y-34007D01*
X93401Y-33950D01*
X93429Y-33921D01*
X93487Y-33893D01*
X93629Y-33893D01*
X93715Y-33921D01*
X93972Y-34493D02*
X93972Y-33893D01*
X94200Y-33893D01*
X94258Y-33921D01*
X94286Y-33950D01*
X94315Y-34007D01*
X94315Y-34093D01*
X94286Y-34150D01*
X94258Y-34179D01*
X94200Y-34207D01*
X93972Y-34207D01*
X94572Y-34493D02*
X94572Y-33893D01*
X94715Y-33893D01*
X94800Y-33921D01*
X94858Y-33979D01*
X94886Y-34036D01*
X94915Y-34150D01*
X94915Y-34236D01*
X94886Y-34350D01*
X94858Y-34407D01*
X94800Y-34464D01*
X94715Y-34493D01*
X94572Y-34493D01*
X95086Y-33893D02*
X95429Y-33893D01*
X95258Y-34493D02*
X95258Y-33893D01*
X92058Y-41493D02*
X92058Y-40893D01*
X92401Y-41493D02*
X92144Y-41150D01*
X92401Y-40893D02*
X92058Y-41236D01*
X92944Y-40893D02*
X92658Y-40893D01*
X92629Y-41179D01*
X92658Y-41150D01*
X92715Y-41121D01*
X92858Y-41121D01*
X92915Y-41150D01*
X92944Y-41179D01*
X92972Y-41236D01*
X92972Y-41379D01*
X92944Y-41436D01*
X92915Y-41464D01*
X92858Y-41493D01*
X92715Y-41493D01*
X92658Y-41464D01*
X92629Y-41436D01*
X90001Y-40493D02*
X89801Y-40207D01*
X89658Y-40493D02*
X89658Y-39893D01*
X89886Y-39893D01*
X89944Y-39921D01*
X89972Y-39950D01*
X90001Y-40007D01*
X90001Y-40093D01*
X89972Y-40150D01*
X89944Y-40179D01*
X89886Y-40207D01*
X89658Y-40207D01*
X90258Y-40179D02*
X90458Y-40179D01*
X90544Y-40493D02*
X90258Y-40493D01*
X90258Y-39893D01*
X90544Y-39893D01*
X91087Y-40493D02*
X90801Y-40493D01*
X90801Y-39893D01*
X91258Y-40321D02*
X91544Y-40321D01*
X91201Y-40493D02*
X91401Y-39893D01*
X91601Y-40493D01*
X91801Y-40493D02*
X91801Y-39893D01*
X92058Y-40464D02*
X92144Y-40493D01*
X92287Y-40493D01*
X92344Y-40464D01*
X92373Y-40436D01*
X92401Y-40379D01*
X92401Y-40321D01*
X92373Y-40264D01*
X92344Y-40236D01*
X92287Y-40207D01*
X92173Y-40179D01*
X92115Y-40150D01*
X92087Y-40121D01*
X92058Y-40064D01*
X92058Y-40007D01*
X92087Y-39950D01*
X92115Y-39921D01*
X92173Y-39893D01*
X92315Y-39893D01*
X92401Y-39921D01*
X92658Y-40264D02*
X93115Y-40264D01*
X93372Y-40464D02*
X93458Y-40493D01*
X93601Y-40493D01*
X93658Y-40464D01*
X93687Y-40436D01*
X93715Y-40379D01*
X93715Y-40321D01*
X93687Y-40264D01*
X93658Y-40236D01*
X93601Y-40207D01*
X93487Y-40179D01*
X93429Y-40150D01*
X93401Y-40121D01*
X93372Y-40064D01*
X93372Y-40007D01*
X93401Y-39950D01*
X93429Y-39921D01*
X93487Y-39893D01*
X93629Y-39893D01*
X93715Y-39921D01*
X93972Y-40493D02*
X93972Y-39893D01*
X94200Y-39893D01*
X94258Y-39921D01*
X94286Y-39950D01*
X94315Y-40007D01*
X94315Y-40093D01*
X94286Y-40150D01*
X94258Y-40179D01*
X94200Y-40207D01*
X93972Y-40207D01*
X94572Y-40493D02*
X94572Y-39893D01*
X94715Y-39893D01*
X94800Y-39921D01*
X94858Y-39979D01*
X94886Y-40036D01*
X94915Y-40150D01*
X94915Y-40236D01*
X94886Y-40350D01*
X94858Y-40407D01*
X94800Y-40464D01*
X94715Y-40493D01*
X94572Y-40493D01*
X95086Y-39893D02*
X95429Y-39893D01*
X95258Y-40493D02*
X95258Y-39893D01*
X92058Y-23493D02*
X92058Y-22893D01*
X92401Y-23493D02*
X92144Y-23150D01*
X92401Y-22893D02*
X92058Y-23236D01*
X92629Y-22950D02*
X92658Y-22921D01*
X92715Y-22893D01*
X92858Y-22893D01*
X92915Y-22921D01*
X92944Y-22950D01*
X92972Y-23007D01*
X92972Y-23064D01*
X92944Y-23150D01*
X92601Y-23493D01*
X92972Y-23493D01*
X90001Y-22493D02*
X89801Y-22207D01*
X89658Y-22493D02*
X89658Y-21893D01*
X89886Y-21893D01*
X89944Y-21921D01*
X89972Y-21950D01*
X90001Y-22007D01*
X90001Y-22093D01*
X89972Y-22150D01*
X89944Y-22179D01*
X89886Y-22207D01*
X89658Y-22207D01*
X90258Y-22179D02*
X90458Y-22179D01*
X90544Y-22493D02*
X90258Y-22493D01*
X90258Y-21893D01*
X90544Y-21893D01*
X91087Y-22493D02*
X90801Y-22493D01*
X90801Y-21893D01*
X91258Y-22321D02*
X91544Y-22321D01*
X91201Y-22493D02*
X91401Y-21893D01*
X91601Y-22493D01*
X91801Y-22493D02*
X91801Y-21893D01*
X92058Y-22464D02*
X92144Y-22493D01*
X92287Y-22493D01*
X92344Y-22464D01*
X92373Y-22436D01*
X92401Y-22379D01*
X92401Y-22321D01*
X92373Y-22264D01*
X92344Y-22236D01*
X92287Y-22207D01*
X92173Y-22179D01*
X92115Y-22150D01*
X92087Y-22121D01*
X92058Y-22064D01*
X92058Y-22007D01*
X92087Y-21950D01*
X92115Y-21921D01*
X92173Y-21893D01*
X92315Y-21893D01*
X92401Y-21921D01*
X92658Y-22264D02*
X93115Y-22264D01*
X93372Y-22464D02*
X93458Y-22493D01*
X93601Y-22493D01*
X93658Y-22464D01*
X93687Y-22436D01*
X93715Y-22379D01*
X93715Y-22321D01*
X93687Y-22264D01*
X93658Y-22236D01*
X93601Y-22207D01*
X93487Y-22179D01*
X93429Y-22150D01*
X93401Y-22121D01*
X93372Y-22064D01*
X93372Y-22007D01*
X93401Y-21950D01*
X93429Y-21921D01*
X93487Y-21893D01*
X93629Y-21893D01*
X93715Y-21921D01*
X93972Y-22493D02*
X93972Y-21893D01*
X94200Y-21893D01*
X94258Y-21921D01*
X94286Y-21950D01*
X94315Y-22007D01*
X94315Y-22093D01*
X94286Y-22150D01*
X94258Y-22179D01*
X94200Y-22207D01*
X93972Y-22207D01*
X94572Y-22493D02*
X94572Y-21893D01*
X94715Y-21893D01*
X94800Y-21921D01*
X94858Y-21979D01*
X94886Y-22036D01*
X94915Y-22150D01*
X94915Y-22236D01*
X94886Y-22350D01*
X94858Y-22407D01*
X94800Y-22464D01*
X94715Y-22493D01*
X94572Y-22493D01*
X95086Y-21893D02*
X95429Y-21893D01*
X95258Y-22493D02*
X95258Y-21893D01*
X92058Y-29493D02*
X92058Y-28893D01*
X92401Y-29493D02*
X92144Y-29150D01*
X92401Y-28893D02*
X92058Y-29236D01*
X92972Y-29493D02*
X92629Y-29493D01*
X92801Y-29493D02*
X92801Y-28893D01*
X92744Y-28979D01*
X92686Y-29036D01*
X92629Y-29064D01*
X90001Y-28493D02*
X89801Y-28207D01*
X89658Y-28493D02*
X89658Y-27893D01*
X89886Y-27893D01*
X89944Y-27921D01*
X89972Y-27950D01*
X90001Y-28007D01*
X90001Y-28093D01*
X89972Y-28150D01*
X89944Y-28179D01*
X89886Y-28207D01*
X89658Y-28207D01*
X90258Y-28179D02*
X90458Y-28179D01*
X90544Y-28493D02*
X90258Y-28493D01*
X90258Y-27893D01*
X90544Y-27893D01*
X91087Y-28493D02*
X90801Y-28493D01*
X90801Y-27893D01*
X91258Y-28321D02*
X91544Y-28321D01*
X91201Y-28493D02*
X91401Y-27893D01*
X91601Y-28493D01*
X91801Y-28493D02*
X91801Y-27893D01*
X92058Y-28464D02*
X92144Y-28493D01*
X92287Y-28493D01*
X92344Y-28464D01*
X92373Y-28436D01*
X92401Y-28379D01*
X92401Y-28321D01*
X92373Y-28264D01*
X92344Y-28236D01*
X92287Y-28207D01*
X92173Y-28179D01*
X92115Y-28150D01*
X92087Y-28121D01*
X92058Y-28064D01*
X92058Y-28007D01*
X92087Y-27950D01*
X92115Y-27921D01*
X92173Y-27893D01*
X92315Y-27893D01*
X92401Y-27921D01*
X92658Y-28264D02*
X93115Y-28264D01*
X93372Y-28464D02*
X93458Y-28493D01*
X93601Y-28493D01*
X93658Y-28464D01*
X93687Y-28436D01*
X93715Y-28379D01*
X93715Y-28321D01*
X93687Y-28264D01*
X93658Y-28236D01*
X93601Y-28207D01*
X93487Y-28179D01*
X93429Y-28150D01*
X93401Y-28121D01*
X93372Y-28064D01*
X93372Y-28007D01*
X93401Y-27950D01*
X93429Y-27921D01*
X93487Y-27893D01*
X93629Y-27893D01*
X93715Y-27921D01*
X93972Y-28493D02*
X93972Y-27893D01*
X94200Y-27893D01*
X94258Y-27921D01*
X94286Y-27950D01*
X94315Y-28007D01*
X94315Y-28093D01*
X94286Y-28150D01*
X94258Y-28179D01*
X94200Y-28207D01*
X93972Y-28207D01*
X94572Y-28493D02*
X94572Y-27893D01*
X94715Y-27893D01*
X94800Y-27921D01*
X94858Y-27979D01*
X94886Y-28036D01*
X94915Y-28150D01*
X94915Y-28236D01*
X94886Y-28350D01*
X94858Y-28407D01*
X94800Y-28464D01*
X94715Y-28493D01*
X94572Y-28493D01*
X95086Y-27893D02*
X95429Y-27893D01*
X95258Y-28493D02*
X95258Y-27893D01*
G54D13*
X65417Y-54723D02*
X65250Y-54461D01*
X65131Y-54723D02*
X65131Y-54173D01*
X65322Y-54173D01*
X65369Y-54199D01*
X65393Y-54225D01*
X65417Y-54277D01*
X65417Y-54356D01*
X65393Y-54408D01*
X65369Y-54435D01*
X65322Y-54461D01*
X65131Y-54461D01*
X65893Y-54723D02*
X65607Y-54723D01*
X65750Y-54723D02*
X65750Y-54173D01*
X65702Y-54251D01*
X65655Y-54304D01*
X65607Y-54330D01*
X66917Y-54225D02*
X66941Y-54199D01*
X66989Y-54173D01*
X67108Y-54173D01*
X67155Y-54199D01*
X67179Y-54225D01*
X67203Y-54277D01*
X67203Y-54330D01*
X67179Y-54408D01*
X66893Y-54723D01*
X67203Y-54723D01*
X67369Y-54173D02*
X67703Y-54173D01*
X67488Y-54723D01*
X67893Y-54723D02*
X67893Y-54173D01*
X67941Y-54513D02*
X68084Y-54723D01*
X68084Y-54356D02*
X67893Y-54565D01*
X68917Y-39723D02*
X68750Y-39461D01*
X68631Y-39723D02*
X68631Y-39173D01*
X68822Y-39173D01*
X68869Y-39199D01*
X68893Y-39225D01*
X68917Y-39277D01*
X68917Y-39356D01*
X68893Y-39408D01*
X68869Y-39435D01*
X68822Y-39461D01*
X68631Y-39461D01*
X69107Y-39225D02*
X69131Y-39199D01*
X69179Y-39173D01*
X69298Y-39173D01*
X69345Y-39199D01*
X69369Y-39225D01*
X69393Y-39277D01*
X69393Y-39330D01*
X69369Y-39408D01*
X69083Y-39723D01*
X69393Y-39723D01*
X68381Y-40225D02*
X68405Y-40199D01*
X68453Y-40173D01*
X68572Y-40173D01*
X68619Y-40199D01*
X68643Y-40225D01*
X68667Y-40277D01*
X68667Y-40330D01*
X68643Y-40408D01*
X68357Y-40723D01*
X68667Y-40723D01*
X68976Y-40173D02*
X69024Y-40173D01*
X69072Y-40199D01*
X69095Y-40225D01*
X69119Y-40277D01*
X69143Y-40382D01*
X69143Y-40513D01*
X69119Y-40618D01*
X69095Y-40670D01*
X69072Y-40696D01*
X69024Y-40723D01*
X68976Y-40723D01*
X68929Y-40696D01*
X68905Y-40670D01*
X68881Y-40618D01*
X68857Y-40513D01*
X68857Y-40382D01*
X68881Y-40277D01*
X68905Y-40225D01*
X68929Y-40199D01*
X68976Y-40173D01*
X69452Y-40173D02*
X69500Y-40173D01*
X69548Y-40199D01*
X69571Y-40225D01*
X69595Y-40277D01*
X69619Y-40382D01*
X69619Y-40513D01*
X69595Y-40618D01*
X69571Y-40670D01*
X69548Y-40696D01*
X69500Y-40723D01*
X69452Y-40723D01*
X69405Y-40696D01*
X69381Y-40670D01*
X69357Y-40618D01*
X69333Y-40513D01*
X69333Y-40382D01*
X69357Y-40277D01*
X69381Y-40225D01*
X69405Y-40199D01*
X69452Y-40173D01*
G54D11*
X67043Y-48143D02*
X67043Y-48629D01*
X67071Y-48686D01*
X67100Y-48714D01*
X67157Y-48743D01*
X67271Y-48743D01*
X67329Y-48714D01*
X67357Y-48686D01*
X67386Y-48629D01*
X67386Y-48143D01*
X67615Y-48143D02*
X67986Y-48143D01*
X67786Y-48371D01*
X67872Y-48371D01*
X67929Y-48400D01*
X67958Y-48429D01*
X67986Y-48486D01*
X67986Y-48629D01*
X67958Y-48686D01*
X67929Y-48714D01*
X67872Y-48743D01*
X67700Y-48743D01*
X67643Y-48714D01*
X67615Y-48686D01*
X67072Y-46743D02*
X66786Y-46743D01*
X66786Y-46143D01*
X67272Y-46429D02*
X67472Y-46429D01*
X67558Y-46743D02*
X67272Y-46743D01*
X67272Y-46143D01*
X67558Y-46143D01*
X67815Y-46743D02*
X67815Y-46143D01*
X68015Y-46571D01*
X68215Y-46143D01*
X68215Y-46743D01*
G54D10*
X50871Y-31472D02*
X50571Y-31472D01*
X50571Y-31357D01*
X50586Y-31329D01*
X50600Y-31314D01*
X50629Y-31300D01*
X50671Y-31300D01*
X50700Y-31314D01*
X50714Y-31329D01*
X50729Y-31357D01*
X50729Y-31472D01*
X50571Y-31029D02*
X50571Y-31172D01*
X50714Y-31186D01*
X50700Y-31172D01*
X50686Y-31143D01*
X50686Y-31072D01*
X50700Y-31043D01*
X50714Y-31029D01*
X50743Y-31014D01*
X50814Y-31014D01*
X50843Y-31029D01*
X50857Y-31043D01*
X50871Y-31072D01*
X50871Y-31143D01*
X50857Y-31172D01*
X50843Y-31186D01*
G54D15*
X64643Y-35343D02*
X65129Y-35343D01*
X65186Y-35321D01*
X65214Y-35300D01*
X65243Y-35257D01*
X65243Y-35171D01*
X65214Y-35129D01*
X65186Y-35107D01*
X65129Y-35086D01*
X64643Y-35086D01*
X65243Y-34636D02*
X65243Y-34893D01*
X65243Y-34765D02*
X64643Y-34765D01*
X64729Y-34808D01*
X64786Y-34850D01*
X64814Y-34893D01*
X65243Y-32761D02*
X65243Y-32975D01*
X64643Y-32975D01*
X65243Y-32611D02*
X64643Y-32611D01*
X65071Y-32461D01*
X64643Y-32311D01*
X65243Y-32311D01*
X64643Y-32140D02*
X64643Y-31861D01*
X64871Y-32011D01*
X64871Y-31947D01*
X64900Y-31904D01*
X64929Y-31883D01*
X64986Y-31861D01*
X65129Y-31861D01*
X65186Y-31883D01*
X65214Y-31904D01*
X65243Y-31947D01*
X65243Y-32075D01*
X65214Y-32118D01*
X65186Y-32140D01*
X64700Y-31689D02*
X64671Y-31668D01*
X64643Y-31625D01*
X64643Y-31518D01*
X64671Y-31475D01*
X64700Y-31454D01*
X64757Y-31432D01*
X64814Y-31432D01*
X64900Y-31454D01*
X65243Y-31711D01*
X65243Y-31432D01*
X64843Y-31046D02*
X65243Y-31046D01*
X64614Y-31153D02*
X65043Y-31260D01*
X65043Y-30982D01*
G54D13*
X80202Y-27045D02*
X79702Y-27045D01*
X79702Y-26950D01*
X79726Y-26892D01*
X79774Y-26854D01*
X79821Y-26835D01*
X79917Y-26816D01*
X79988Y-26816D01*
X80083Y-26835D01*
X80131Y-26854D01*
X80179Y-26892D01*
X80202Y-26950D01*
X80202Y-27045D01*
X79702Y-26454D02*
X79702Y-26645D01*
X79940Y-26664D01*
X79917Y-26645D01*
X79893Y-26607D01*
X79893Y-26511D01*
X79917Y-26473D01*
X79940Y-26454D01*
X79988Y-26435D01*
X80107Y-26435D01*
X80155Y-26454D01*
X80179Y-26473D01*
X80202Y-26511D01*
X80202Y-26607D01*
X80179Y-26645D01*
X80155Y-26664D01*
X85952Y-29045D02*
X85452Y-29045D01*
X85452Y-28950D01*
X85476Y-28892D01*
X85524Y-28854D01*
X85571Y-28835D01*
X85667Y-28816D01*
X85738Y-28816D01*
X85833Y-28835D01*
X85881Y-28854D01*
X85929Y-28892D01*
X85952Y-28950D01*
X85952Y-29045D01*
X85952Y-28435D02*
X85952Y-28664D01*
X85952Y-28550D02*
X85452Y-28550D01*
X85524Y-28588D01*
X85571Y-28626D01*
X85595Y-28664D01*
X85952Y-23045D02*
X85452Y-23045D01*
X85452Y-22950D01*
X85476Y-22892D01*
X85524Y-22854D01*
X85571Y-22835D01*
X85667Y-22816D01*
X85738Y-22816D01*
X85833Y-22835D01*
X85881Y-22854D01*
X85929Y-22892D01*
X85952Y-22950D01*
X85952Y-23045D01*
X85500Y-22664D02*
X85476Y-22645D01*
X85452Y-22607D01*
X85452Y-22511D01*
X85476Y-22473D01*
X85500Y-22454D01*
X85548Y-22435D01*
X85595Y-22435D01*
X85667Y-22454D01*
X85952Y-22683D01*
X85952Y-22435D01*
X85952Y-53045D02*
X85452Y-53045D01*
X85452Y-52950D01*
X85476Y-52892D01*
X85524Y-52854D01*
X85571Y-52835D01*
X85667Y-52816D01*
X85738Y-52816D01*
X85833Y-52835D01*
X85881Y-52854D01*
X85929Y-52892D01*
X85952Y-52950D01*
X85952Y-53045D01*
X85452Y-52683D02*
X85452Y-52435D01*
X85643Y-52569D01*
X85643Y-52511D01*
X85667Y-52473D01*
X85690Y-52454D01*
X85738Y-52435D01*
X85857Y-52435D01*
X85905Y-52454D01*
X85929Y-52473D01*
X85952Y-52511D01*
X85952Y-52626D01*
X85929Y-52664D01*
X85905Y-52683D01*
X85952Y-41045D02*
X85452Y-41045D01*
X85452Y-40950D01*
X85476Y-40892D01*
X85524Y-40854D01*
X85571Y-40835D01*
X85667Y-40816D01*
X85738Y-40816D01*
X85833Y-40835D01*
X85881Y-40854D01*
X85929Y-40892D01*
X85952Y-40950D01*
X85952Y-41045D01*
X85619Y-40473D02*
X85952Y-40473D01*
X85429Y-40569D02*
X85786Y-40664D01*
X85786Y-40416D01*
X59874Y-55558D02*
X59893Y-55574D01*
X59912Y-55624D01*
X59912Y-55658D01*
X59893Y-55708D01*
X59855Y-55741D01*
X59817Y-55758D01*
X59740Y-55774D01*
X59683Y-55774D01*
X59607Y-55758D01*
X59569Y-55741D01*
X59531Y-55708D01*
X59512Y-55658D01*
X59512Y-55624D01*
X59531Y-55574D01*
X59550Y-55558D01*
X59512Y-55441D02*
X59512Y-55224D01*
X59664Y-55341D01*
X59664Y-55291D01*
X59683Y-55258D01*
X59702Y-55241D01*
X59740Y-55224D01*
X59836Y-55224D01*
X59874Y-55241D01*
X59893Y-55258D01*
X59912Y-55291D01*
X59912Y-55391D01*
X59893Y-55424D01*
X59874Y-55441D01*
X61662Y-55391D02*
X61662Y-55591D01*
X61662Y-55491D02*
X61262Y-55491D01*
X61319Y-55525D01*
X61357Y-55558D01*
X61376Y-55591D01*
X61262Y-55175D02*
X61262Y-55142D01*
X61281Y-55108D01*
X61300Y-55092D01*
X61338Y-55075D01*
X61414Y-55058D01*
X61510Y-55058D01*
X61586Y-55075D01*
X61624Y-55092D01*
X61643Y-55108D01*
X61662Y-55142D01*
X61662Y-55175D01*
X61643Y-55208D01*
X61624Y-55225D01*
X61586Y-55242D01*
X61510Y-55258D01*
X61414Y-55258D01*
X61338Y-55242D01*
X61300Y-55225D01*
X61281Y-55208D01*
X61262Y-55175D01*
X61262Y-54842D02*
X61262Y-54809D01*
X61281Y-54775D01*
X61300Y-54759D01*
X61338Y-54742D01*
X61414Y-54725D01*
X61510Y-54725D01*
X61586Y-54742D01*
X61624Y-54759D01*
X61643Y-54775D01*
X61662Y-54809D01*
X61662Y-54842D01*
X61643Y-54875D01*
X61624Y-54892D01*
X61586Y-54909D01*
X61510Y-54925D01*
X61414Y-54925D01*
X61338Y-54909D01*
X61300Y-54892D01*
X61281Y-54875D01*
X61262Y-54842D01*
X61395Y-54426D02*
X61662Y-54426D01*
X61395Y-54576D02*
X61605Y-54576D01*
X61643Y-54559D01*
X61662Y-54526D01*
X61662Y-54476D01*
X61643Y-54442D01*
X61624Y-54426D01*
G54D16*
X69950Y-32093D02*
X69936Y-32107D01*
X69893Y-32121D01*
X69864Y-32121D01*
X69821Y-32107D01*
X69793Y-32079D01*
X69778Y-32050D01*
X69764Y-31993D01*
X69764Y-31950D01*
X69778Y-31893D01*
X69793Y-31864D01*
X69821Y-31836D01*
X69864Y-31821D01*
X69893Y-31821D01*
X69936Y-31836D01*
X69950Y-31850D01*
X70064Y-31850D02*
X70078Y-31836D01*
X70107Y-31821D01*
X70178Y-31821D01*
X70207Y-31836D01*
X70221Y-31850D01*
X70236Y-31879D01*
X70236Y-31907D01*
X70221Y-31950D01*
X70050Y-32121D01*
X70236Y-32121D01*
X70958Y-35121D02*
X70816Y-35121D01*
X70887Y-35121D02*
X70887Y-34821D01*
X70863Y-34864D01*
X70839Y-34893D01*
X70816Y-34907D01*
X71173Y-34921D02*
X71173Y-35121D01*
X71066Y-34921D02*
X71066Y-35079D01*
X71077Y-35107D01*
X71101Y-35121D01*
X71137Y-35121D01*
X71161Y-35107D01*
X71173Y-35093D01*
G54D13*
X56624Y-55066D02*
X56643Y-55085D01*
X56662Y-55142D01*
X56662Y-55180D01*
X56643Y-55238D01*
X56605Y-55276D01*
X56567Y-55295D01*
X56490Y-55314D01*
X56433Y-55314D01*
X56357Y-55295D01*
X56319Y-55276D01*
X56281Y-55238D01*
X56262Y-55180D01*
X56262Y-55142D01*
X56281Y-55085D01*
X56300Y-55066D01*
X56395Y-54723D02*
X56662Y-54723D01*
X56243Y-54819D02*
X56529Y-54914D01*
X56529Y-54666D01*
X58200Y-55736D02*
X58181Y-55717D01*
X58162Y-55679D01*
X58162Y-55583D01*
X58181Y-55545D01*
X58200Y-55526D01*
X58238Y-55507D01*
X58276Y-55507D01*
X58333Y-55526D01*
X58562Y-55755D01*
X58562Y-55507D01*
X58162Y-55374D02*
X58162Y-55107D01*
X58562Y-55279D01*
X58295Y-54955D02*
X58695Y-54955D01*
X58314Y-54955D02*
X58295Y-54917D01*
X58295Y-54840D01*
X58314Y-54802D01*
X58333Y-54783D01*
X58371Y-54764D01*
X58486Y-54764D01*
X58524Y-54783D01*
X58543Y-54802D01*
X58562Y-54840D01*
X58562Y-54917D01*
X58543Y-54955D01*
X67934Y-32124D02*
X67915Y-32143D01*
X67858Y-32162D01*
X67820Y-32162D01*
X67762Y-32143D01*
X67724Y-32105D01*
X67705Y-32067D01*
X67686Y-31990D01*
X67686Y-31933D01*
X67705Y-31857D01*
X67724Y-31819D01*
X67762Y-31781D01*
X67820Y-31762D01*
X67858Y-31762D01*
X67915Y-31781D01*
X67934Y-31800D01*
X68315Y-32162D02*
X68086Y-32162D01*
X68200Y-32162D02*
X68200Y-31762D01*
X68162Y-31819D01*
X68124Y-31857D01*
X68086Y-31876D01*
X67514Y-34800D02*
X67533Y-34781D01*
X67571Y-34762D01*
X67667Y-34762D01*
X67705Y-34781D01*
X67724Y-34800D01*
X67743Y-34838D01*
X67743Y-34876D01*
X67724Y-34933D01*
X67495Y-35162D01*
X67743Y-35162D01*
X67876Y-34762D02*
X68143Y-34762D01*
X67971Y-35162D01*
X68295Y-34895D02*
X68295Y-35295D01*
X68295Y-34914D02*
X68333Y-34895D01*
X68410Y-34895D01*
X68448Y-34914D01*
X68467Y-34933D01*
X68486Y-34971D01*
X68486Y-35086D01*
X68467Y-35124D01*
X68448Y-35143D01*
X68410Y-35162D01*
X68333Y-35162D01*
X68295Y-35143D01*
X85952Y-47045D02*
X85452Y-47045D01*
X85452Y-46950D01*
X85476Y-46892D01*
X85524Y-46854D01*
X85571Y-46835D01*
X85667Y-46816D01*
X85738Y-46816D01*
X85833Y-46835D01*
X85881Y-46854D01*
X85929Y-46892D01*
X85952Y-46950D01*
X85952Y-47045D01*
X85452Y-46473D02*
X85452Y-46550D01*
X85476Y-46588D01*
X85500Y-46607D01*
X85571Y-46645D01*
X85667Y-46664D01*
X85857Y-46664D01*
X85905Y-46645D01*
X85929Y-46626D01*
X85952Y-46588D01*
X85952Y-46511D01*
X85929Y-46473D01*
X85905Y-46454D01*
X85857Y-46435D01*
X85738Y-46435D01*
X85690Y-46454D01*
X85667Y-46473D01*
X85643Y-46511D01*
X85643Y-46588D01*
X85667Y-46626D01*
X85690Y-46645D01*
X85738Y-46664D01*
X72962Y-25700D02*
X72924Y-25681D01*
X72886Y-25643D01*
X72829Y-25586D01*
X72790Y-25567D01*
X72752Y-25567D01*
X72771Y-25662D02*
X72733Y-25643D01*
X72695Y-25605D01*
X72676Y-25529D01*
X72676Y-25395D01*
X72695Y-25319D01*
X72733Y-25281D01*
X72771Y-25262D01*
X72848Y-25262D01*
X72886Y-25281D01*
X72924Y-25319D01*
X72943Y-25395D01*
X72943Y-25529D01*
X72924Y-25605D01*
X72886Y-25643D01*
X72848Y-25662D01*
X72771Y-25662D01*
X73286Y-25395D02*
X73286Y-25662D01*
X73190Y-25243D02*
X73095Y-25529D01*
X73343Y-25529D01*
X72362Y-21952D02*
X72228Y-21952D01*
X72228Y-22162D02*
X72228Y-21762D01*
X72419Y-21762D01*
X72571Y-21952D02*
X72705Y-21952D01*
X72762Y-22162D02*
X72571Y-22162D01*
X72571Y-21762D01*
X72762Y-21762D01*
X72876Y-21762D02*
X73105Y-21762D01*
X72990Y-22162D02*
X72990Y-21762D01*
X73143Y-22200D02*
X73448Y-22200D01*
X73543Y-22162D02*
X73543Y-21762D01*
X73772Y-22162D01*
X73772Y-21762D01*
X61203Y-25223D02*
X61036Y-24961D01*
X60917Y-25223D02*
X60917Y-24673D01*
X61108Y-24673D01*
X61155Y-24699D01*
X61179Y-24725D01*
X61203Y-24777D01*
X61203Y-24856D01*
X61179Y-24908D01*
X61155Y-24935D01*
X61108Y-24961D01*
X60917Y-24961D01*
X61346Y-24673D02*
X61512Y-25223D01*
X61679Y-24673D01*
X61870Y-25223D02*
X61965Y-25223D01*
X62013Y-25196D01*
X62037Y-25170D01*
X62084Y-25092D01*
X62108Y-24987D01*
X62108Y-24777D01*
X62084Y-24725D01*
X62060Y-24699D01*
X62013Y-24673D01*
X61917Y-24673D01*
X61870Y-24699D01*
X61846Y-24725D01*
X61822Y-24777D01*
X61822Y-24908D01*
X61846Y-24961D01*
X61870Y-24987D01*
X61917Y-25013D01*
X62013Y-25013D01*
X62060Y-24987D01*
X62084Y-24961D01*
X62108Y-24908D01*
X60012Y-18223D02*
X59845Y-17961D01*
X59726Y-18223D02*
X59726Y-17673D01*
X59917Y-17673D01*
X59964Y-17699D01*
X59988Y-17725D01*
X60012Y-17777D01*
X60012Y-17856D01*
X59988Y-17908D01*
X59964Y-17935D01*
X59917Y-17961D01*
X59726Y-17961D01*
X60417Y-18196D02*
X60369Y-18223D01*
X60274Y-18223D01*
X60226Y-18196D01*
X60202Y-18144D01*
X60202Y-17935D01*
X60226Y-17882D01*
X60274Y-17856D01*
X60369Y-17856D01*
X60417Y-17882D01*
X60440Y-17935D01*
X60440Y-17987D01*
X60202Y-18039D01*
X60869Y-17856D02*
X60869Y-18301D01*
X60846Y-18354D01*
X60822Y-18380D01*
X60774Y-18406D01*
X60703Y-18406D01*
X60655Y-18380D01*
X60869Y-18196D02*
X60822Y-18223D01*
X60726Y-18223D01*
X60679Y-18196D01*
X60655Y-18170D01*
X60631Y-18118D01*
X60631Y-17961D01*
X60655Y-17908D01*
X60679Y-17882D01*
X60726Y-17856D01*
X60822Y-17856D01*
X60869Y-17882D01*
X61178Y-18223D02*
X61131Y-18196D01*
X61107Y-18144D01*
X61107Y-17673D01*
X61250Y-18275D02*
X61631Y-18275D01*
X61964Y-18223D02*
X61964Y-17673D01*
X61964Y-18196D02*
X61917Y-18223D01*
X61821Y-18223D01*
X61774Y-18196D01*
X61750Y-18170D01*
X61726Y-18118D01*
X61726Y-17961D01*
X61750Y-17908D01*
X61774Y-17882D01*
X61821Y-17856D01*
X61917Y-17856D01*
X61964Y-17882D01*
X62393Y-18196D02*
X62345Y-18223D01*
X62250Y-18223D01*
X62202Y-18196D01*
X62178Y-18144D01*
X62178Y-17935D01*
X62202Y-17882D01*
X62250Y-17856D01*
X62345Y-17856D01*
X62393Y-17882D01*
X62416Y-17935D01*
X62416Y-17987D01*
X62178Y-18039D01*
X62845Y-18196D02*
X62798Y-18223D01*
X62702Y-18223D01*
X62655Y-18196D01*
X62631Y-18170D01*
X62607Y-18118D01*
X62607Y-17961D01*
X62631Y-17908D01*
X62655Y-17882D01*
X62702Y-17856D01*
X62798Y-17856D01*
X62845Y-17882D01*
X63060Y-18223D02*
X63060Y-17673D01*
X63274Y-18223D02*
X63274Y-17935D01*
X63251Y-17882D01*
X63203Y-17856D01*
X63131Y-17856D01*
X63084Y-17882D01*
X63060Y-17908D01*
X82917Y-24223D02*
X82750Y-23961D01*
X82631Y-24223D02*
X82631Y-23673D01*
X82822Y-23673D01*
X82869Y-23699D01*
X82893Y-23725D01*
X82917Y-23777D01*
X82917Y-23856D01*
X82893Y-23908D01*
X82869Y-23935D01*
X82822Y-23961D01*
X82631Y-23961D01*
X83083Y-23673D02*
X83393Y-23673D01*
X83226Y-23882D01*
X83298Y-23882D01*
X83345Y-23908D01*
X83369Y-23935D01*
X83393Y-23987D01*
X83393Y-24118D01*
X83369Y-24170D01*
X83345Y-24196D01*
X83298Y-24223D01*
X83155Y-24223D01*
X83107Y-24196D01*
X83083Y-24170D01*
X82667Y-24973D02*
X82381Y-24973D01*
X82524Y-24973D02*
X82524Y-24423D01*
X82476Y-24501D01*
X82429Y-24554D01*
X82381Y-24580D01*
X82857Y-24475D02*
X82881Y-24449D01*
X82929Y-24423D01*
X83048Y-24423D01*
X83095Y-24449D01*
X83119Y-24475D01*
X83143Y-24527D01*
X83143Y-24580D01*
X83119Y-24658D01*
X82833Y-24973D01*
X83143Y-24973D01*
X83452Y-24423D02*
X83500Y-24423D01*
X83548Y-24449D01*
X83571Y-24475D01*
X83595Y-24527D01*
X83619Y-24632D01*
X83619Y-24763D01*
X83595Y-24868D01*
X83571Y-24920D01*
X83548Y-24946D01*
X83500Y-24973D01*
X83452Y-24973D01*
X83405Y-24946D01*
X83381Y-24920D01*
X83357Y-24868D01*
X83333Y-24763D01*
X83333Y-24632D01*
X83357Y-24527D01*
X83381Y-24475D01*
X83405Y-24449D01*
X83452Y-24423D01*
X76917Y-25723D02*
X76750Y-25461D01*
X76631Y-25723D02*
X76631Y-25173D01*
X76822Y-25173D01*
X76869Y-25199D01*
X76893Y-25225D01*
X76917Y-25277D01*
X76917Y-25356D01*
X76893Y-25408D01*
X76869Y-25435D01*
X76822Y-25461D01*
X76631Y-25461D01*
X77345Y-25356D02*
X77345Y-25723D01*
X77226Y-25146D02*
X77107Y-25539D01*
X77417Y-25539D01*
X76667Y-24473D02*
X76381Y-24473D01*
X76524Y-24473D02*
X76524Y-23923D01*
X76476Y-24001D01*
X76429Y-24054D01*
X76381Y-24080D01*
X76857Y-23975D02*
X76881Y-23949D01*
X76929Y-23923D01*
X77048Y-23923D01*
X77095Y-23949D01*
X77119Y-23975D01*
X77143Y-24027D01*
X77143Y-24080D01*
X77119Y-24158D01*
X76833Y-24473D01*
X77143Y-24473D01*
X77452Y-23923D02*
X77500Y-23923D01*
X77548Y-23949D01*
X77571Y-23975D01*
X77595Y-24027D01*
X77619Y-24132D01*
X77619Y-24263D01*
X77595Y-24368D01*
X77571Y-24420D01*
X77548Y-24446D01*
X77500Y-24473D01*
X77452Y-24473D01*
X77405Y-24446D01*
X77381Y-24420D01*
X77357Y-24368D01*
X77333Y-24263D01*
X77333Y-24132D01*
X77357Y-24027D01*
X77381Y-23975D01*
X77405Y-23949D01*
X77452Y-23923D01*
X81917Y-36223D02*
X81750Y-35961D01*
X81631Y-36223D02*
X81631Y-35673D01*
X81822Y-35673D01*
X81869Y-35699D01*
X81893Y-35725D01*
X81917Y-35777D01*
X81917Y-35856D01*
X81893Y-35908D01*
X81869Y-35935D01*
X81822Y-35961D01*
X81631Y-35961D01*
X82369Y-35673D02*
X82131Y-35673D01*
X82107Y-35935D01*
X82131Y-35908D01*
X82179Y-35882D01*
X82298Y-35882D01*
X82345Y-35908D01*
X82369Y-35935D01*
X82393Y-35987D01*
X82393Y-36118D01*
X82369Y-36170D01*
X82345Y-36196D01*
X82298Y-36223D01*
X82179Y-36223D01*
X82131Y-36196D01*
X82107Y-36170D01*
X82667Y-36973D02*
X82381Y-36973D01*
X82524Y-36973D02*
X82524Y-36423D01*
X82476Y-36501D01*
X82429Y-36554D01*
X82381Y-36580D01*
X82857Y-36475D02*
X82881Y-36449D01*
X82929Y-36423D01*
X83048Y-36423D01*
X83095Y-36449D01*
X83119Y-36475D01*
X83143Y-36527D01*
X83143Y-36580D01*
X83119Y-36658D01*
X82833Y-36973D01*
X83143Y-36973D01*
X83452Y-36423D02*
X83500Y-36423D01*
X83548Y-36449D01*
X83571Y-36475D01*
X83595Y-36527D01*
X83619Y-36632D01*
X83619Y-36763D01*
X83595Y-36868D01*
X83571Y-36920D01*
X83548Y-36946D01*
X83500Y-36973D01*
X83452Y-36973D01*
X83405Y-36946D01*
X83381Y-36920D01*
X83357Y-36868D01*
X83333Y-36763D01*
X83333Y-36632D01*
X83357Y-36527D01*
X83381Y-36475D01*
X83405Y-36449D01*
X83452Y-36423D01*
X91455Y-57202D02*
X91455Y-56702D01*
X91550Y-56702D01*
X91608Y-56726D01*
X91646Y-56774D01*
X91665Y-56821D01*
X91684Y-56917D01*
X91684Y-56988D01*
X91665Y-57083D01*
X91646Y-57131D01*
X91608Y-57179D01*
X91550Y-57202D01*
X91455Y-57202D01*
X91817Y-56702D02*
X92084Y-56702D01*
X91912Y-57202D01*
X91455Y-60452D02*
X91455Y-59952D01*
X91550Y-59952D01*
X91608Y-59976D01*
X91646Y-60024D01*
X91665Y-60071D01*
X91684Y-60167D01*
X91684Y-60238D01*
X91665Y-60333D01*
X91646Y-60381D01*
X91608Y-60429D01*
X91550Y-60452D01*
X91455Y-60452D01*
X91912Y-60167D02*
X91874Y-60143D01*
X91855Y-60119D01*
X91836Y-60071D01*
X91836Y-60048D01*
X91855Y-60000D01*
X91874Y-59976D01*
X91912Y-59952D01*
X91989Y-59952D01*
X92027Y-59976D01*
X92046Y-60000D01*
X92065Y-60048D01*
X92065Y-60071D01*
X92046Y-60119D01*
X92027Y-60143D01*
X91989Y-60167D01*
X91912Y-60167D01*
X91874Y-60190D01*
X91855Y-60214D01*
X91836Y-60262D01*
X91836Y-60357D01*
X91855Y-60405D01*
X91874Y-60429D01*
X91912Y-60452D01*
X91989Y-60452D01*
X92027Y-60429D01*
X92046Y-60405D01*
X92065Y-60357D01*
X92065Y-60262D01*
X92046Y-60214D01*
X92027Y-60190D01*
X91989Y-60167D01*
G54D11*
X92058Y-47493D02*
X92058Y-46893D01*
X92401Y-47493D02*
X92144Y-47150D01*
X92401Y-46893D02*
X92058Y-47236D01*
X92915Y-47093D02*
X92915Y-47493D01*
X92772Y-46864D02*
X92629Y-47293D01*
X93001Y-47293D01*
X89986Y-46493D02*
X89786Y-46207D01*
X89643Y-46493D02*
X89643Y-45893D01*
X89871Y-45893D01*
X89929Y-45921D01*
X89957Y-45950D01*
X89986Y-46007D01*
X89986Y-46093D01*
X89957Y-46150D01*
X89929Y-46179D01*
X89871Y-46207D01*
X89643Y-46207D01*
X90243Y-46179D02*
X90443Y-46179D01*
X90529Y-46493D02*
X90243Y-46493D01*
X90243Y-45893D01*
X90529Y-45893D01*
X91072Y-46493D02*
X90786Y-46493D01*
X90786Y-45893D01*
X91243Y-46321D02*
X91529Y-46321D01*
X91186Y-46493D02*
X91386Y-45893D01*
X91586Y-46493D01*
X91786Y-46493D02*
X91786Y-45893D01*
X92043Y-46464D02*
X92129Y-46493D01*
X92272Y-46493D01*
X92329Y-46464D01*
X92358Y-46436D01*
X92386Y-46379D01*
X92386Y-46321D01*
X92358Y-46264D01*
X92329Y-46236D01*
X92272Y-46207D01*
X92158Y-46179D01*
X92100Y-46150D01*
X92072Y-46121D01*
X92043Y-46064D01*
X92043Y-46007D01*
X92072Y-45950D01*
X92100Y-45921D01*
X92158Y-45893D01*
X92300Y-45893D01*
X92386Y-45921D01*
X92643Y-46264D02*
X93100Y-46264D01*
X93386Y-46493D02*
X93386Y-45893D01*
X93529Y-45893D01*
X93614Y-45921D01*
X93672Y-45979D01*
X93700Y-46036D01*
X93729Y-46150D01*
X93729Y-46236D01*
X93700Y-46350D01*
X93672Y-46407D01*
X93614Y-46464D01*
X93529Y-46493D01*
X93386Y-46493D01*
X93986Y-46493D02*
X93986Y-45893D01*
X94214Y-45893D01*
X94272Y-45921D01*
X94300Y-45950D01*
X94329Y-46007D01*
X94329Y-46093D01*
X94300Y-46150D01*
X94272Y-46179D01*
X94214Y-46207D01*
X93986Y-46207D01*
X94586Y-46493D02*
X94586Y-45893D01*
X94729Y-45893D01*
X94814Y-45921D01*
X94872Y-45979D01*
X94900Y-46036D01*
X94929Y-46150D01*
X94929Y-46236D01*
X94900Y-46350D01*
X94872Y-46407D01*
X94814Y-46464D01*
X94729Y-46493D01*
X94586Y-46493D01*
X95100Y-45893D02*
X95443Y-45893D01*
X95272Y-46493D02*
X95272Y-45893D01*
G54D13*
X84462Y-32700D02*
X84424Y-32681D01*
X84386Y-32643D01*
X84329Y-32586D01*
X84290Y-32567D01*
X84252Y-32567D01*
X84271Y-32662D02*
X84233Y-32643D01*
X84195Y-32605D01*
X84176Y-32529D01*
X84176Y-32395D01*
X84195Y-32319D01*
X84233Y-32281D01*
X84271Y-32262D01*
X84348Y-32262D01*
X84386Y-32281D01*
X84424Y-32319D01*
X84443Y-32395D01*
X84443Y-32529D01*
X84424Y-32605D01*
X84386Y-32643D01*
X84348Y-32662D01*
X84271Y-32662D01*
X84786Y-32262D02*
X84709Y-32262D01*
X84671Y-32281D01*
X84652Y-32300D01*
X84614Y-32357D01*
X84595Y-32433D01*
X84595Y-32586D01*
X84614Y-32624D01*
X84633Y-32643D01*
X84671Y-32662D01*
X84748Y-32662D01*
X84786Y-32643D01*
X84805Y-32624D01*
X84824Y-32586D01*
X84824Y-32490D01*
X84805Y-32452D01*
X84786Y-32433D01*
X84748Y-32414D01*
X84671Y-32414D01*
X84633Y-32433D01*
X84614Y-32452D01*
X84595Y-32490D01*
X83362Y-35452D02*
X83228Y-35452D01*
X83228Y-35662D02*
X83228Y-35262D01*
X83419Y-35262D01*
X83571Y-35452D02*
X83705Y-35452D01*
X83762Y-35662D02*
X83571Y-35662D01*
X83571Y-35262D01*
X83762Y-35262D01*
X83876Y-35262D02*
X84105Y-35262D01*
X83990Y-35662D02*
X83990Y-35262D01*
X84143Y-35700D02*
X84448Y-35700D01*
X84543Y-35662D02*
X84543Y-35262D01*
X84772Y-35662D01*
X84772Y-35262D01*
X81462Y-21200D02*
X81424Y-21181D01*
X81386Y-21143D01*
X81329Y-21086D01*
X81290Y-21067D01*
X81252Y-21067D01*
X81271Y-21162D02*
X81233Y-21143D01*
X81195Y-21105D01*
X81176Y-21029D01*
X81176Y-20895D01*
X81195Y-20819D01*
X81233Y-20781D01*
X81271Y-20762D01*
X81348Y-20762D01*
X81386Y-20781D01*
X81424Y-20819D01*
X81443Y-20895D01*
X81443Y-21029D01*
X81424Y-21105D01*
X81386Y-21143D01*
X81348Y-21162D01*
X81271Y-21162D01*
X81805Y-20762D02*
X81614Y-20762D01*
X81595Y-20952D01*
X81614Y-20933D01*
X81652Y-20914D01*
X81748Y-20914D01*
X81786Y-20933D01*
X81805Y-20952D01*
X81824Y-20990D01*
X81824Y-21086D01*
X81805Y-21124D01*
X81786Y-21143D01*
X81748Y-21162D01*
X81652Y-21162D01*
X81614Y-21143D01*
X81595Y-21124D01*
X79872Y-22952D02*
X79738Y-22952D01*
X79738Y-23162D02*
X79738Y-22762D01*
X79929Y-22762D01*
X80081Y-22952D02*
X80215Y-22952D01*
X80272Y-23162D02*
X80081Y-23162D01*
X80081Y-22762D01*
X80272Y-22762D01*
X80386Y-22762D02*
X80615Y-22762D01*
X80500Y-23162D02*
X80500Y-22762D01*
X80653Y-23200D02*
X80958Y-23200D01*
X81053Y-23162D02*
X81053Y-22762D01*
X81206Y-22762D01*
X81244Y-22781D01*
X81263Y-22800D01*
X81282Y-22838D01*
X81282Y-22895D01*
X81263Y-22933D01*
X81244Y-22952D01*
X81206Y-22971D01*
X81053Y-22971D01*
X76679Y-22723D02*
X76512Y-22461D01*
X76393Y-22723D02*
X76393Y-22173D01*
X76584Y-22173D01*
X76631Y-22199D01*
X76655Y-22225D01*
X76679Y-22277D01*
X76679Y-22356D01*
X76655Y-22408D01*
X76631Y-22435D01*
X76584Y-22461D01*
X76393Y-22461D01*
X77155Y-22723D02*
X76869Y-22723D01*
X77012Y-22723D02*
X77012Y-22173D01*
X76964Y-22251D01*
X76917Y-22304D01*
X76869Y-22330D01*
X77631Y-22723D02*
X77345Y-22723D01*
X77488Y-22723D02*
X77488Y-22173D01*
X77440Y-22251D01*
X77393Y-22304D01*
X77345Y-22330D01*
X76941Y-23473D02*
X76655Y-23473D01*
X76798Y-23473D02*
X76798Y-22923D01*
X76750Y-23001D01*
X76703Y-23054D01*
X76655Y-23080D01*
X77155Y-23473D02*
X77155Y-22923D01*
X77203Y-23263D02*
X77346Y-23473D01*
X77346Y-23106D02*
X77155Y-23315D01*
X81917Y-42223D02*
X81750Y-41961D01*
X81631Y-42223D02*
X81631Y-41673D01*
X81822Y-41673D01*
X81869Y-41699D01*
X81893Y-41725D01*
X81917Y-41777D01*
X81917Y-41856D01*
X81893Y-41908D01*
X81869Y-41935D01*
X81822Y-41961D01*
X81631Y-41961D01*
X82155Y-42223D02*
X82250Y-42223D01*
X82298Y-42196D01*
X82322Y-42170D01*
X82369Y-42092D01*
X82393Y-41987D01*
X82393Y-41777D01*
X82369Y-41725D01*
X82345Y-41699D01*
X82298Y-41673D01*
X82202Y-41673D01*
X82155Y-41699D01*
X82131Y-41725D01*
X82107Y-41777D01*
X82107Y-41908D01*
X82131Y-41961D01*
X82155Y-41987D01*
X82202Y-42013D01*
X82298Y-42013D01*
X82345Y-41987D01*
X82369Y-41961D01*
X82393Y-41908D01*
X82667Y-42973D02*
X82381Y-42973D01*
X82524Y-42973D02*
X82524Y-42423D01*
X82476Y-42501D01*
X82429Y-42554D01*
X82381Y-42580D01*
X82857Y-42475D02*
X82881Y-42449D01*
X82929Y-42423D01*
X83048Y-42423D01*
X83095Y-42449D01*
X83119Y-42475D01*
X83143Y-42527D01*
X83143Y-42580D01*
X83119Y-42658D01*
X82833Y-42973D01*
X83143Y-42973D01*
X83452Y-42423D02*
X83500Y-42423D01*
X83548Y-42449D01*
X83571Y-42475D01*
X83595Y-42527D01*
X83619Y-42632D01*
X83619Y-42763D01*
X83595Y-42868D01*
X83571Y-42920D01*
X83548Y-42946D01*
X83500Y-42973D01*
X83452Y-42973D01*
X83405Y-42946D01*
X83381Y-42920D01*
X83357Y-42868D01*
X83333Y-42763D01*
X83333Y-42632D01*
X83357Y-42527D01*
X83381Y-42475D01*
X83405Y-42449D01*
X83452Y-42423D01*
X70723Y-25083D02*
X70461Y-25250D01*
X70723Y-25369D02*
X70173Y-25369D01*
X70173Y-25178D01*
X70199Y-25131D01*
X70225Y-25107D01*
X70277Y-25083D01*
X70356Y-25083D01*
X70408Y-25107D01*
X70435Y-25131D01*
X70461Y-25178D01*
X70461Y-25369D01*
X70408Y-24798D02*
X70382Y-24845D01*
X70356Y-24869D01*
X70304Y-24893D01*
X70277Y-24893D01*
X70225Y-24869D01*
X70199Y-24845D01*
X70173Y-24798D01*
X70173Y-24702D01*
X70199Y-24655D01*
X70225Y-24631D01*
X70277Y-24607D01*
X70304Y-24607D01*
X70356Y-24631D01*
X70382Y-24655D01*
X70408Y-24702D01*
X70408Y-24798D01*
X70435Y-24845D01*
X70461Y-24869D01*
X70513Y-24893D01*
X70618Y-24893D01*
X70670Y-24869D01*
X70696Y-24845D01*
X70723Y-24798D01*
X70723Y-24702D01*
X70696Y-24655D01*
X70670Y-24631D01*
X70618Y-24607D01*
X70513Y-24607D01*
X70461Y-24631D01*
X70435Y-24655D01*
X70408Y-24702D01*
X71473Y-25333D02*
X71473Y-25619D01*
X71473Y-25476D02*
X70923Y-25476D01*
X71001Y-25524D01*
X71054Y-25571D01*
X71080Y-25619D01*
X70975Y-25143D02*
X70949Y-25119D01*
X70923Y-25071D01*
X70923Y-24952D01*
X70949Y-24905D01*
X70975Y-24881D01*
X71027Y-24857D01*
X71080Y-24857D01*
X71158Y-24881D01*
X71473Y-25167D01*
X71473Y-24857D01*
X70923Y-24548D02*
X70923Y-24500D01*
X70949Y-24452D01*
X70975Y-24429D01*
X71027Y-24405D01*
X71132Y-24381D01*
X71263Y-24381D01*
X71368Y-24405D01*
X71420Y-24429D01*
X71446Y-24452D01*
X71473Y-24500D01*
X71473Y-24548D01*
X71446Y-24595D01*
X71420Y-24619D01*
X71368Y-24643D01*
X71263Y-24667D01*
X71132Y-24667D01*
X71027Y-24643D01*
X70975Y-24619D01*
X70949Y-24595D01*
X70923Y-24548D01*
X83417Y-31723D02*
X83250Y-31461D01*
X83131Y-31723D02*
X83131Y-31173D01*
X83322Y-31173D01*
X83369Y-31199D01*
X83393Y-31225D01*
X83417Y-31277D01*
X83417Y-31356D01*
X83393Y-31408D01*
X83369Y-31435D01*
X83322Y-31461D01*
X83131Y-31461D01*
X83583Y-31173D02*
X83917Y-31173D01*
X83702Y-31723D01*
X82667Y-30973D02*
X82381Y-30973D01*
X82524Y-30973D02*
X82524Y-30423D01*
X82476Y-30501D01*
X82429Y-30554D01*
X82381Y-30580D01*
X82857Y-30475D02*
X82881Y-30449D01*
X82929Y-30423D01*
X83048Y-30423D01*
X83095Y-30449D01*
X83119Y-30475D01*
X83143Y-30527D01*
X83143Y-30580D01*
X83119Y-30658D01*
X82833Y-30973D01*
X83143Y-30973D01*
X83452Y-30423D02*
X83500Y-30423D01*
X83548Y-30449D01*
X83571Y-30475D01*
X83595Y-30527D01*
X83619Y-30632D01*
X83619Y-30763D01*
X83595Y-30868D01*
X83571Y-30920D01*
X83548Y-30946D01*
X83500Y-30973D01*
X83452Y-30973D01*
X83405Y-30946D01*
X83381Y-30920D01*
X83357Y-30868D01*
X83333Y-30763D01*
X83333Y-30632D01*
X83357Y-30527D01*
X83381Y-30475D01*
X83405Y-30449D01*
X83452Y-30423D01*
G54D15*
X75143Y-35343D02*
X75629Y-35343D01*
X75686Y-35321D01*
X75714Y-35300D01*
X75743Y-35257D01*
X75743Y-35171D01*
X75714Y-35129D01*
X75686Y-35107D01*
X75629Y-35086D01*
X75143Y-35086D01*
X75143Y-34679D02*
X75143Y-34765D01*
X75171Y-34808D01*
X75200Y-34829D01*
X75286Y-34872D01*
X75400Y-34893D01*
X75629Y-34893D01*
X75686Y-34872D01*
X75714Y-34850D01*
X75743Y-34808D01*
X75743Y-34722D01*
X75714Y-34679D01*
X75686Y-34658D01*
X75629Y-34636D01*
X75486Y-34636D01*
X75429Y-34658D01*
X75400Y-34679D01*
X75371Y-34722D01*
X75371Y-34808D01*
X75400Y-34850D01*
X75429Y-34872D01*
X75486Y-34893D01*
X75343Y-32558D02*
X75743Y-32558D01*
X75114Y-32665D02*
X75543Y-32772D01*
X75543Y-32494D01*
X75143Y-32236D02*
X75143Y-32193D01*
X75171Y-32150D01*
X75200Y-32129D01*
X75257Y-32108D01*
X75371Y-32086D01*
X75514Y-32086D01*
X75629Y-32108D01*
X75686Y-32129D01*
X75714Y-32150D01*
X75743Y-32193D01*
X75743Y-32236D01*
X75714Y-32279D01*
X75686Y-32300D01*
X75629Y-32322D01*
X75514Y-32343D01*
X75371Y-32343D01*
X75257Y-32322D01*
X75200Y-32300D01*
X75171Y-32279D01*
X75143Y-32236D01*
X75143Y-31807D02*
X75143Y-31764D01*
X75171Y-31721D01*
X75200Y-31700D01*
X75257Y-31679D01*
X75371Y-31657D01*
X75514Y-31657D01*
X75629Y-31679D01*
X75686Y-31700D01*
X75714Y-31721D01*
X75743Y-31764D01*
X75743Y-31807D01*
X75714Y-31850D01*
X75686Y-31871D01*
X75629Y-31893D01*
X75514Y-31914D01*
X75371Y-31914D01*
X75257Y-31893D01*
X75200Y-31871D01*
X75171Y-31850D01*
X75143Y-31807D01*
X75743Y-31228D02*
X75743Y-31485D01*
X75743Y-31357D02*
X75143Y-31357D01*
X75229Y-31400D01*
X75286Y-31442D01*
X75314Y-31485D01*
X75643Y-39843D02*
X76129Y-39843D01*
X76186Y-39821D01*
X76214Y-39800D01*
X76243Y-39757D01*
X76243Y-39671D01*
X76214Y-39629D01*
X76186Y-39607D01*
X76129Y-39586D01*
X75643Y-39586D01*
X75643Y-39158D02*
X75643Y-39372D01*
X75929Y-39393D01*
X75900Y-39372D01*
X75871Y-39329D01*
X75871Y-39222D01*
X75900Y-39179D01*
X75929Y-39158D01*
X75986Y-39136D01*
X76129Y-39136D01*
X76186Y-39158D01*
X76214Y-39179D01*
X76243Y-39222D01*
X76243Y-39329D01*
X76214Y-39372D01*
X76186Y-39393D01*
X74843Y-42558D02*
X75243Y-42558D01*
X74614Y-42665D02*
X75043Y-42772D01*
X75043Y-42494D01*
X74643Y-42236D02*
X74643Y-42193D01*
X74671Y-42150D01*
X74700Y-42129D01*
X74757Y-42108D01*
X74871Y-42086D01*
X75014Y-42086D01*
X75129Y-42108D01*
X75186Y-42129D01*
X75214Y-42150D01*
X75243Y-42193D01*
X75243Y-42236D01*
X75214Y-42279D01*
X75186Y-42300D01*
X75129Y-42322D01*
X75014Y-42343D01*
X74871Y-42343D01*
X74757Y-42322D01*
X74700Y-42300D01*
X74671Y-42279D01*
X74643Y-42236D01*
X74643Y-41807D02*
X74643Y-41764D01*
X74671Y-41721D01*
X74700Y-41700D01*
X74757Y-41679D01*
X74871Y-41657D01*
X75014Y-41657D01*
X75129Y-41679D01*
X75186Y-41700D01*
X75214Y-41721D01*
X75243Y-41764D01*
X75243Y-41807D01*
X75214Y-41850D01*
X75186Y-41871D01*
X75129Y-41893D01*
X75014Y-41914D01*
X74871Y-41914D01*
X74757Y-41893D01*
X74700Y-41871D01*
X74671Y-41850D01*
X74643Y-41807D01*
X75243Y-41228D02*
X75243Y-41485D01*
X75243Y-41357D02*
X74643Y-41357D01*
X74729Y-41400D01*
X74786Y-41442D01*
X74814Y-41485D01*
G54D13*
X85952Y-35045D02*
X85452Y-35045D01*
X85452Y-34950D01*
X85476Y-34892D01*
X85524Y-34854D01*
X85571Y-34835D01*
X85667Y-34816D01*
X85738Y-34816D01*
X85833Y-34835D01*
X85881Y-34854D01*
X85929Y-34892D01*
X85952Y-34950D01*
X85952Y-35045D01*
X85952Y-34626D02*
X85952Y-34550D01*
X85929Y-34511D01*
X85905Y-34492D01*
X85833Y-34454D01*
X85738Y-34435D01*
X85548Y-34435D01*
X85500Y-34454D01*
X85476Y-34473D01*
X85452Y-34511D01*
X85452Y-34588D01*
X85476Y-34626D01*
X85500Y-34645D01*
X85548Y-34664D01*
X85667Y-34664D01*
X85714Y-34645D01*
X85738Y-34626D01*
X85762Y-34588D01*
X85762Y-34511D01*
X85738Y-34473D01*
X85714Y-34454D01*
X85667Y-34435D01*
G54D14*
X83655Y-46083D02*
X83679Y-46107D01*
X83702Y-46178D01*
X83702Y-46226D01*
X83679Y-46298D01*
X83631Y-46345D01*
X83583Y-46369D01*
X83488Y-46393D01*
X83417Y-46393D01*
X83321Y-46369D01*
X83274Y-46345D01*
X83226Y-46298D01*
X83202Y-46226D01*
X83202Y-46178D01*
X83226Y-46107D01*
X83250Y-46083D01*
X83202Y-45631D02*
X83202Y-45869D01*
X83440Y-45893D01*
X83417Y-45869D01*
X83393Y-45821D01*
X83393Y-45702D01*
X83417Y-45655D01*
X83440Y-45631D01*
X83488Y-45607D01*
X83607Y-45607D01*
X83655Y-45631D01*
X83679Y-45655D01*
X83702Y-45702D01*
X83702Y-45821D01*
X83679Y-45869D01*
X83655Y-45893D01*
X81702Y-46559D02*
X81702Y-46845D01*
X81702Y-46702D02*
X81202Y-46702D01*
X81274Y-46750D01*
X81321Y-46797D01*
X81345Y-46845D01*
X81202Y-46250D02*
X81202Y-46202D01*
X81226Y-46154D01*
X81250Y-46131D01*
X81298Y-46107D01*
X81393Y-46083D01*
X81512Y-46083D01*
X81607Y-46107D01*
X81655Y-46131D01*
X81679Y-46154D01*
X81702Y-46202D01*
X81702Y-46250D01*
X81679Y-46297D01*
X81655Y-46321D01*
X81607Y-46345D01*
X81512Y-46369D01*
X81393Y-46369D01*
X81298Y-46345D01*
X81250Y-46321D01*
X81226Y-46297D01*
X81202Y-46250D01*
X81202Y-45774D02*
X81202Y-45726D01*
X81226Y-45678D01*
X81250Y-45655D01*
X81298Y-45631D01*
X81393Y-45607D01*
X81512Y-45607D01*
X81607Y-45631D01*
X81655Y-45655D01*
X81679Y-45678D01*
X81702Y-45726D01*
X81702Y-45774D01*
X81679Y-45821D01*
X81655Y-45845D01*
X81607Y-45869D01*
X81512Y-45893D01*
X81393Y-45893D01*
X81298Y-45869D01*
X81250Y-45845D01*
X81226Y-45821D01*
X81202Y-45774D01*
X81369Y-45179D02*
X81702Y-45179D01*
X81369Y-45393D02*
X81631Y-45393D01*
X81679Y-45369D01*
X81702Y-45322D01*
X81702Y-45250D01*
X81679Y-45202D01*
X81655Y-45179D01*
G54D13*
X80439Y-48808D02*
X80461Y-48824D01*
X80482Y-48874D01*
X80482Y-48908D01*
X80461Y-48958D01*
X80418Y-48991D01*
X80375Y-49008D01*
X80289Y-49024D01*
X80225Y-49024D01*
X80139Y-49008D01*
X80096Y-48991D01*
X80054Y-48958D01*
X80032Y-48908D01*
X80032Y-48874D01*
X80054Y-48824D01*
X80075Y-48808D01*
X80225Y-48608D02*
X80204Y-48641D01*
X80182Y-48658D01*
X80139Y-48674D01*
X80118Y-48674D01*
X80075Y-48658D01*
X80054Y-48641D01*
X80032Y-48608D01*
X80032Y-48541D01*
X80054Y-48508D01*
X80075Y-48491D01*
X80118Y-48474D01*
X80139Y-48474D01*
X80182Y-48491D01*
X80204Y-48508D01*
X80225Y-48541D01*
X80225Y-48608D01*
X80246Y-48641D01*
X80268Y-48658D01*
X80311Y-48674D01*
X80396Y-48674D01*
X80439Y-48658D01*
X80461Y-48641D01*
X80482Y-48608D01*
X80482Y-48541D01*
X80461Y-48508D01*
X80439Y-48491D01*
X80396Y-48474D01*
X80311Y-48474D01*
X80268Y-48491D01*
X80246Y-48508D01*
X80225Y-48541D01*
X78982Y-48974D02*
X78982Y-49174D01*
X78982Y-49074D02*
X78532Y-49074D01*
X78596Y-49108D01*
X78639Y-49141D01*
X78661Y-49174D01*
X78532Y-48758D02*
X78532Y-48725D01*
X78554Y-48691D01*
X78575Y-48675D01*
X78618Y-48658D01*
X78704Y-48641D01*
X78811Y-48641D01*
X78896Y-48658D01*
X78939Y-48675D01*
X78961Y-48691D01*
X78982Y-48725D01*
X78982Y-48758D01*
X78961Y-48791D01*
X78939Y-48808D01*
X78896Y-48825D01*
X78811Y-48841D01*
X78704Y-48841D01*
X78618Y-48825D01*
X78575Y-48808D01*
X78554Y-48791D01*
X78532Y-48758D01*
X78682Y-48342D02*
X78982Y-48342D01*
X78682Y-48492D02*
X78918Y-48492D01*
X78961Y-48475D01*
X78982Y-48442D01*
X78982Y-48392D01*
X78961Y-48358D01*
X78939Y-48342D01*
G54D16*
X75307Y-48842D02*
X75293Y-48856D01*
X75250Y-48870D01*
X75221Y-48870D01*
X75178Y-48856D01*
X75150Y-48828D01*
X75135Y-48799D01*
X75121Y-48742D01*
X75121Y-48699D01*
X75135Y-48642D01*
X75150Y-48613D01*
X75178Y-48585D01*
X75221Y-48570D01*
X75250Y-48570D01*
X75293Y-48585D01*
X75307Y-48599D01*
X75593Y-48870D02*
X75421Y-48870D01*
X75507Y-48870D02*
X75507Y-48570D01*
X75478Y-48613D01*
X75450Y-48642D01*
X75421Y-48656D01*
X75707Y-48599D02*
X75721Y-48585D01*
X75750Y-48570D01*
X75821Y-48570D01*
X75850Y-48585D01*
X75864Y-48599D01*
X75879Y-48628D01*
X75879Y-48656D01*
X75864Y-48699D01*
X75693Y-48870D01*
X75879Y-48870D01*
X75458Y-47871D02*
X75316Y-47871D01*
X75387Y-47871D02*
X75387Y-47571D01*
X75363Y-47614D01*
X75339Y-47643D01*
X75316Y-47657D01*
X75673Y-47671D02*
X75673Y-47871D01*
X75566Y-47671D02*
X75566Y-47829D01*
X75577Y-47857D01*
X75601Y-47871D01*
X75637Y-47871D01*
X75661Y-47857D01*
X75673Y-47843D01*
X73807Y-26093D02*
X73793Y-26107D01*
X73750Y-26121D01*
X73721Y-26121D01*
X73678Y-26107D01*
X73650Y-26079D01*
X73635Y-26050D01*
X73621Y-25993D01*
X73621Y-25950D01*
X73635Y-25893D01*
X73650Y-25864D01*
X73678Y-25836D01*
X73721Y-25821D01*
X73750Y-25821D01*
X73793Y-25836D01*
X73807Y-25850D01*
X74093Y-26121D02*
X73921Y-26121D01*
X74007Y-26121D02*
X74007Y-25821D01*
X73978Y-25864D01*
X73950Y-25893D01*
X73921Y-25907D01*
X74279Y-25821D02*
X74307Y-25821D01*
X74336Y-25836D01*
X74350Y-25850D01*
X74364Y-25879D01*
X74379Y-25936D01*
X74379Y-26007D01*
X74364Y-26064D01*
X74350Y-26093D01*
X74336Y-26107D01*
X74307Y-26121D01*
X74279Y-26121D01*
X74250Y-26107D01*
X74236Y-26093D01*
X74221Y-26064D01*
X74207Y-26007D01*
X74207Y-25936D01*
X74221Y-25879D01*
X74236Y-25850D01*
X74250Y-25836D01*
X74279Y-25821D01*
X76958Y-27121D02*
X76816Y-27121D01*
X76887Y-27121D02*
X76887Y-26821D01*
X76863Y-26864D01*
X76839Y-26893D01*
X76816Y-26907D01*
X77173Y-26921D02*
X77173Y-27121D01*
X77066Y-26921D02*
X77066Y-27079D01*
X77077Y-27107D01*
X77101Y-27121D01*
X77137Y-27121D01*
X77161Y-27107D01*
X77173Y-27093D01*
G54D13*
X73243Y-46624D02*
X73224Y-46643D01*
X73167Y-46662D01*
X73129Y-46662D01*
X73071Y-46643D01*
X73033Y-46605D01*
X73014Y-46567D01*
X72995Y-46490D01*
X72995Y-46433D01*
X73014Y-46357D01*
X73033Y-46319D01*
X73071Y-46281D01*
X73129Y-46262D01*
X73167Y-46262D01*
X73224Y-46281D01*
X73243Y-46300D01*
X73624Y-46662D02*
X73395Y-46662D01*
X73509Y-46662D02*
X73509Y-46262D01*
X73471Y-46319D01*
X73433Y-46357D01*
X73395Y-46376D01*
X74005Y-46662D02*
X73776Y-46662D01*
X73890Y-46662D02*
X73890Y-46262D01*
X73852Y-46319D01*
X73814Y-46357D01*
X73776Y-46376D01*
X76514Y-46300D02*
X76533Y-46281D01*
X76571Y-46262D01*
X76667Y-46262D01*
X76705Y-46281D01*
X76724Y-46300D01*
X76743Y-46338D01*
X76743Y-46376D01*
X76724Y-46433D01*
X76495Y-46662D01*
X76743Y-46662D01*
X76876Y-46262D02*
X77143Y-46262D01*
X76971Y-46662D01*
X77295Y-46395D02*
X77295Y-46795D01*
X77295Y-46414D02*
X77333Y-46395D01*
X77410Y-46395D01*
X77448Y-46414D01*
X77467Y-46433D01*
X77486Y-46471D01*
X77486Y-46586D01*
X77467Y-46624D01*
X77448Y-46643D01*
X77410Y-46662D01*
X77333Y-46662D01*
X77295Y-46643D01*
X73934Y-28124D02*
X73915Y-28143D01*
X73858Y-28162D01*
X73820Y-28162D01*
X73762Y-28143D01*
X73724Y-28105D01*
X73705Y-28067D01*
X73686Y-27990D01*
X73686Y-27933D01*
X73705Y-27857D01*
X73724Y-27819D01*
X73762Y-27781D01*
X73820Y-27762D01*
X73858Y-27762D01*
X73915Y-27781D01*
X73934Y-27800D01*
X74124Y-28162D02*
X74200Y-28162D01*
X74239Y-28143D01*
X74258Y-28124D01*
X74296Y-28067D01*
X74315Y-27990D01*
X74315Y-27838D01*
X74296Y-27800D01*
X74277Y-27781D01*
X74239Y-27762D01*
X74162Y-27762D01*
X74124Y-27781D01*
X74105Y-27800D01*
X74086Y-27838D01*
X74086Y-27933D01*
X74105Y-27971D01*
X74124Y-27990D01*
X74162Y-28010D01*
X74239Y-28010D01*
X74277Y-27990D01*
X74296Y-27971D01*
X74315Y-27933D01*
X76514Y-27800D02*
X76533Y-27781D01*
X76571Y-27762D01*
X76667Y-27762D01*
X76705Y-27781D01*
X76724Y-27800D01*
X76743Y-27838D01*
X76743Y-27876D01*
X76724Y-27933D01*
X76495Y-28162D01*
X76743Y-28162D01*
X76876Y-27762D02*
X77143Y-27762D01*
X76971Y-28162D01*
X77295Y-27895D02*
X77295Y-28295D01*
X77295Y-27914D02*
X77333Y-27895D01*
X77410Y-27895D01*
X77448Y-27914D01*
X77467Y-27933D01*
X77486Y-27971D01*
X77486Y-28086D01*
X77467Y-28124D01*
X77448Y-28143D01*
X77410Y-28162D01*
X77333Y-28162D01*
X77295Y-28143D01*
X74124Y-48066D02*
X74143Y-48085D01*
X74162Y-48142D01*
X74162Y-48180D01*
X74143Y-48238D01*
X74105Y-48276D01*
X74067Y-48295D01*
X73990Y-48314D01*
X73933Y-48314D01*
X73857Y-48295D01*
X73819Y-48276D01*
X73781Y-48238D01*
X73762Y-48180D01*
X73762Y-48142D01*
X73781Y-48085D01*
X73800Y-48066D01*
X73762Y-47933D02*
X73762Y-47666D01*
X74162Y-47838D01*
X76300Y-49986D02*
X76281Y-49967D01*
X76262Y-49929D01*
X76262Y-49833D01*
X76281Y-49795D01*
X76300Y-49776D01*
X76338Y-49757D01*
X76376Y-49757D01*
X76433Y-49776D01*
X76662Y-50005D01*
X76662Y-49757D01*
X76262Y-49624D02*
X76262Y-49357D01*
X76662Y-49529D01*
X76395Y-49205D02*
X76795Y-49205D01*
X76414Y-49205D02*
X76395Y-49167D01*
X76395Y-49090D01*
X76414Y-49052D01*
X76433Y-49033D01*
X76471Y-49014D01*
X76586Y-49014D01*
X76624Y-49033D01*
X76643Y-49052D01*
X76662Y-49090D01*
X76662Y-49167D01*
X76643Y-49205D01*
X78724Y-45716D02*
X78743Y-45735D01*
X78762Y-45792D01*
X78762Y-45830D01*
X78743Y-45888D01*
X78705Y-45926D01*
X78667Y-45945D01*
X78590Y-45964D01*
X78533Y-45964D01*
X78457Y-45945D01*
X78419Y-45926D01*
X78381Y-45888D01*
X78362Y-45830D01*
X78362Y-45792D01*
X78381Y-45735D01*
X78400Y-45716D01*
X78362Y-45373D02*
X78362Y-45450D01*
X78381Y-45488D01*
X78400Y-45507D01*
X78457Y-45545D01*
X78533Y-45564D01*
X78686Y-45564D01*
X78724Y-45545D01*
X78743Y-45526D01*
X78762Y-45488D01*
X78762Y-45411D01*
X78743Y-45373D01*
X78724Y-45354D01*
X78686Y-45335D01*
X78590Y-45335D01*
X78552Y-45354D01*
X78533Y-45373D01*
X78514Y-45411D01*
X78514Y-45488D01*
X78533Y-45526D01*
X78552Y-45545D01*
X78590Y-45564D01*
G54D14*
X95385Y-59912D02*
X95385Y-59512D01*
X95519Y-59798D01*
X95652Y-59512D01*
X95652Y-59912D01*
X95804Y-59512D02*
X96052Y-59512D01*
X95918Y-59664D01*
X95976Y-59664D01*
X96014Y-59683D01*
X96033Y-59702D01*
X96052Y-59740D01*
X96052Y-59836D01*
X96033Y-59874D01*
X96014Y-59893D01*
X95976Y-59912D01*
X95861Y-59912D01*
X95823Y-59893D01*
X95804Y-59874D01*
X96128Y-59950D02*
X96433Y-59950D01*
X96528Y-59912D02*
X96528Y-59512D01*
X96700Y-59912D02*
X96700Y-59702D01*
X96681Y-59664D01*
X96643Y-59645D01*
X96585Y-59645D01*
X96547Y-59664D01*
X96528Y-59683D01*
X96947Y-59912D02*
X96909Y-59893D01*
X96890Y-59874D01*
X96871Y-59836D01*
X96871Y-59721D01*
X96890Y-59683D01*
X96909Y-59664D01*
X96947Y-59645D01*
X97005Y-59645D01*
X97043Y-59664D01*
X97062Y-59683D01*
X97081Y-59721D01*
X97081Y-59836D01*
X97062Y-59874D01*
X97043Y-59893D01*
X97005Y-59912D01*
X96947Y-59912D01*
X97309Y-59912D02*
X97271Y-59893D01*
X97252Y-59855D01*
X97252Y-59512D01*
X97615Y-59893D02*
X97577Y-59912D01*
X97500Y-59912D01*
X97462Y-59893D01*
X97443Y-59855D01*
X97443Y-59702D01*
X97462Y-59664D01*
X97500Y-59645D01*
X97577Y-59645D01*
X97615Y-59664D01*
X97634Y-59702D01*
X97634Y-59740D01*
X97443Y-59779D01*
X95385Y-18662D02*
X95385Y-18262D01*
X95519Y-18548D01*
X95652Y-18262D01*
X95652Y-18662D01*
X95804Y-18262D02*
X96052Y-18262D01*
X95918Y-18414D01*
X95976Y-18414D01*
X96014Y-18433D01*
X96033Y-18452D01*
X96052Y-18490D01*
X96052Y-18586D01*
X96033Y-18624D01*
X96014Y-18643D01*
X95976Y-18662D01*
X95861Y-18662D01*
X95823Y-18643D01*
X95804Y-18624D01*
X96128Y-18700D02*
X96433Y-18700D01*
X96528Y-18662D02*
X96528Y-18262D01*
X96700Y-18662D02*
X96700Y-18452D01*
X96681Y-18414D01*
X96643Y-18395D01*
X96585Y-18395D01*
X96547Y-18414D01*
X96528Y-18433D01*
X96947Y-18662D02*
X96909Y-18643D01*
X96890Y-18624D01*
X96871Y-18586D01*
X96871Y-18471D01*
X96890Y-18433D01*
X96909Y-18414D01*
X96947Y-18395D01*
X97005Y-18395D01*
X97043Y-18414D01*
X97062Y-18433D01*
X97081Y-18471D01*
X97081Y-18586D01*
X97062Y-18624D01*
X97043Y-18643D01*
X97005Y-18662D01*
X96947Y-18662D01*
X97309Y-18662D02*
X97271Y-18643D01*
X97252Y-18605D01*
X97252Y-18262D01*
X97615Y-18643D02*
X97577Y-18662D01*
X97500Y-18662D01*
X97462Y-18643D01*
X97443Y-18605D01*
X97443Y-18452D01*
X97462Y-18414D01*
X97500Y-18395D01*
X97577Y-18395D01*
X97615Y-18414D01*
X97634Y-18452D01*
X97634Y-18490D01*
X97443Y-18529D01*
X50885Y-18662D02*
X50885Y-18262D01*
X51019Y-18548D01*
X51152Y-18262D01*
X51152Y-18662D01*
X51304Y-18262D02*
X51552Y-18262D01*
X51418Y-18414D01*
X51476Y-18414D01*
X51514Y-18433D01*
X51533Y-18452D01*
X51552Y-18490D01*
X51552Y-18586D01*
X51533Y-18624D01*
X51514Y-18643D01*
X51476Y-18662D01*
X51361Y-18662D01*
X51323Y-18643D01*
X51304Y-18624D01*
X51628Y-18700D02*
X51933Y-18700D01*
X52028Y-18662D02*
X52028Y-18262D01*
X52200Y-18662D02*
X52200Y-18452D01*
X52181Y-18414D01*
X52143Y-18395D01*
X52085Y-18395D01*
X52047Y-18414D01*
X52028Y-18433D01*
X52447Y-18662D02*
X52409Y-18643D01*
X52390Y-18624D01*
X52371Y-18586D01*
X52371Y-18471D01*
X52390Y-18433D01*
X52409Y-18414D01*
X52447Y-18395D01*
X52505Y-18395D01*
X52543Y-18414D01*
X52562Y-18433D01*
X52581Y-18471D01*
X52581Y-18586D01*
X52562Y-18624D01*
X52543Y-18643D01*
X52505Y-18662D01*
X52447Y-18662D01*
X52809Y-18662D02*
X52771Y-18643D01*
X52752Y-18605D01*
X52752Y-18262D01*
X53115Y-18643D02*
X53077Y-18662D01*
X53000Y-18662D01*
X52962Y-18643D01*
X52943Y-18605D01*
X52943Y-18452D01*
X52962Y-18414D01*
X53000Y-18395D01*
X53077Y-18395D01*
X53115Y-18414D01*
X53134Y-18452D01*
X53134Y-18490D01*
X52943Y-18529D01*
X50885Y-59912D02*
X50885Y-59512D01*
X51019Y-59798D01*
X51152Y-59512D01*
X51152Y-59912D01*
X51304Y-59512D02*
X51552Y-59512D01*
X51418Y-59664D01*
X51476Y-59664D01*
X51514Y-59683D01*
X51533Y-59702D01*
X51552Y-59740D01*
X51552Y-59836D01*
X51533Y-59874D01*
X51514Y-59893D01*
X51476Y-59912D01*
X51361Y-59912D01*
X51323Y-59893D01*
X51304Y-59874D01*
X51628Y-59950D02*
X51933Y-59950D01*
X52028Y-59912D02*
X52028Y-59512D01*
X52200Y-59912D02*
X52200Y-59702D01*
X52181Y-59664D01*
X52143Y-59645D01*
X52085Y-59645D01*
X52047Y-59664D01*
X52028Y-59683D01*
X52447Y-59912D02*
X52409Y-59893D01*
X52390Y-59874D01*
X52371Y-59836D01*
X52371Y-59721D01*
X52390Y-59683D01*
X52409Y-59664D01*
X52447Y-59645D01*
X52505Y-59645D01*
X52543Y-59664D01*
X52562Y-59683D01*
X52581Y-59721D01*
X52581Y-59836D01*
X52562Y-59874D01*
X52543Y-59893D01*
X52505Y-59912D01*
X52447Y-59912D01*
X52809Y-59912D02*
X52771Y-59893D01*
X52752Y-59855D01*
X52752Y-59512D01*
X53115Y-59893D02*
X53077Y-59912D01*
X53000Y-59912D01*
X52962Y-59893D01*
X52943Y-59855D01*
X52943Y-59702D01*
X52962Y-59664D01*
X53000Y-59645D01*
X53077Y-59645D01*
X53115Y-59664D01*
X53134Y-59702D01*
X53134Y-59740D01*
X52943Y-59779D01*
G54D13*
X82195Y-51893D02*
X82195Y-52379D01*
X82214Y-52436D01*
X82233Y-52464D01*
X82271Y-52493D01*
X82348Y-52493D01*
X82386Y-52464D01*
X82405Y-52436D01*
X82424Y-52379D01*
X82424Y-51893D01*
X82786Y-52093D02*
X82786Y-52493D01*
X82690Y-51864D02*
X82595Y-52293D01*
X82843Y-52293D01*
X81745Y-53093D02*
X82012Y-53093D01*
X81840Y-53693D01*
X82221Y-53350D02*
X82183Y-53321D01*
X82164Y-53293D01*
X82145Y-53236D01*
X82145Y-53207D01*
X82164Y-53150D01*
X82183Y-53121D01*
X82221Y-53093D01*
X82298Y-53093D01*
X82336Y-53121D01*
X82355Y-53150D01*
X82374Y-53207D01*
X82374Y-53236D01*
X82355Y-53293D01*
X82336Y-53321D01*
X82298Y-53350D01*
X82221Y-53350D01*
X82183Y-53379D01*
X82164Y-53407D01*
X82145Y-53464D01*
X82145Y-53579D01*
X82164Y-53636D01*
X82183Y-53664D01*
X82221Y-53693D01*
X82298Y-53693D01*
X82336Y-53664D01*
X82355Y-53636D01*
X82374Y-53579D01*
X82374Y-53464D01*
X82355Y-53407D01*
X82336Y-53379D01*
X82298Y-53350D01*
X82621Y-53093D02*
X82660Y-53093D01*
X82698Y-53121D01*
X82717Y-53150D01*
X82736Y-53207D01*
X82755Y-53321D01*
X82755Y-53464D01*
X82736Y-53579D01*
X82717Y-53636D01*
X82698Y-53664D01*
X82660Y-53693D01*
X82621Y-53693D01*
X82583Y-53664D01*
X82564Y-53636D01*
X82545Y-53579D01*
X82526Y-53464D01*
X82526Y-53321D01*
X82545Y-53207D01*
X82564Y-53150D01*
X82583Y-53121D01*
X82621Y-53093D01*
X83117Y-53093D02*
X82926Y-53093D01*
X82907Y-53379D01*
X82926Y-53350D01*
X82964Y-53321D01*
X83060Y-53321D01*
X83098Y-53350D01*
X83117Y-53379D01*
X83136Y-53436D01*
X83136Y-53579D01*
X83117Y-53636D01*
X83098Y-53664D01*
X83060Y-53693D01*
X82964Y-53693D01*
X82926Y-53664D01*
X82907Y-53636D01*
G54D11*
X103243Y-55692D02*
X102643Y-55692D01*
X102643Y-55464D01*
X102671Y-55406D01*
X102700Y-55378D01*
X102757Y-55349D01*
X102843Y-55349D01*
X102900Y-55378D01*
X102929Y-55406D01*
X102957Y-55464D01*
X102957Y-55692D01*
X103243Y-54778D02*
X103243Y-55121D01*
X103243Y-54949D02*
X102643Y-54949D01*
X102729Y-55006D01*
X102786Y-55064D01*
X102814Y-55121D01*
X98929Y-56664D02*
X98957Y-56578D01*
X98986Y-56550D01*
X99043Y-56521D01*
X99129Y-56521D01*
X99186Y-56550D01*
X99214Y-56578D01*
X99243Y-56636D01*
X99243Y-56864D01*
X98643Y-56864D01*
X98643Y-56664D01*
X98671Y-56607D01*
X98700Y-56578D01*
X98757Y-56550D01*
X98814Y-56550D01*
X98871Y-56578D01*
X98900Y-56607D01*
X98929Y-56664D01*
X98929Y-56864D01*
X99243Y-56007D02*
X98929Y-56007D01*
X98871Y-56036D01*
X98843Y-56093D01*
X98843Y-56207D01*
X98871Y-56264D01*
X99214Y-56007D02*
X99243Y-56064D01*
X99243Y-56207D01*
X99214Y-56264D01*
X99157Y-56293D01*
X99100Y-56293D01*
X99043Y-56264D01*
X99014Y-56207D01*
X99014Y-56064D01*
X98986Y-56007D01*
X98843Y-55807D02*
X98843Y-55578D01*
X98643Y-55721D02*
X99157Y-55721D01*
X99214Y-55693D01*
X99243Y-55635D01*
X99243Y-55578D01*
X98843Y-55464D02*
X98843Y-55235D01*
X98643Y-55378D02*
X99157Y-55378D01*
X99214Y-55350D01*
X99243Y-55292D01*
X99243Y-55235D01*
X99214Y-54807D02*
X99243Y-54864D01*
X99243Y-54978D01*
X99214Y-55035D01*
X99157Y-55064D01*
X98929Y-55064D01*
X98871Y-55035D01*
X98843Y-54978D01*
X98843Y-54864D01*
X98871Y-54807D01*
X98929Y-54778D01*
X98986Y-54778D01*
X99043Y-55064D01*
X99243Y-54521D02*
X98843Y-54521D01*
X98957Y-54521D02*
X98900Y-54493D01*
X98871Y-54464D01*
X98843Y-54407D01*
X98843Y-54350D01*
X99243Y-54150D02*
X98843Y-54150D01*
X98643Y-54150D02*
X98671Y-54179D01*
X98700Y-54150D01*
X98671Y-54122D01*
X98643Y-54150D01*
X98700Y-54150D01*
X99214Y-53636D02*
X99243Y-53693D01*
X99243Y-53807D01*
X99214Y-53864D01*
X99157Y-53893D01*
X98929Y-53893D01*
X98871Y-53864D01*
X98843Y-53807D01*
X98843Y-53693D01*
X98871Y-53636D01*
X98929Y-53607D01*
X98986Y-53607D01*
X99043Y-53893D01*
X103243Y-27692D02*
X102643Y-27692D01*
X102643Y-27464D01*
X102671Y-27406D01*
X102700Y-27378D01*
X102757Y-27349D01*
X102843Y-27349D01*
X102900Y-27378D01*
X102929Y-27406D01*
X102957Y-27464D01*
X102957Y-27692D01*
X102700Y-27121D02*
X102671Y-27092D01*
X102643Y-27035D01*
X102643Y-26892D01*
X102671Y-26835D01*
X102700Y-26806D01*
X102757Y-26778D01*
X102814Y-26778D01*
X102900Y-26806D01*
X103243Y-27149D01*
X103243Y-26778D01*
X99243Y-29949D02*
X98957Y-30149D01*
X99243Y-30292D02*
X98643Y-30292D01*
X98643Y-30064D01*
X98671Y-30006D01*
X98700Y-29978D01*
X98757Y-29949D01*
X98843Y-29949D01*
X98900Y-29978D01*
X98929Y-30006D01*
X98957Y-30064D01*
X98957Y-30292D01*
X99214Y-29464D02*
X99243Y-29521D01*
X99243Y-29635D01*
X99214Y-29692D01*
X99157Y-29721D01*
X98929Y-29721D01*
X98871Y-29692D01*
X98843Y-29635D01*
X98843Y-29521D01*
X98871Y-29464D01*
X98929Y-29435D01*
X98986Y-29435D01*
X99043Y-29721D01*
X99243Y-29092D02*
X99214Y-29150D01*
X99157Y-29178D01*
X98643Y-29178D01*
X99243Y-28607D02*
X98929Y-28607D01*
X98871Y-28636D01*
X98843Y-28693D01*
X98843Y-28807D01*
X98871Y-28864D01*
X99214Y-28607D02*
X99243Y-28664D01*
X99243Y-28807D01*
X99214Y-28864D01*
X99157Y-28893D01*
X99100Y-28893D01*
X99043Y-28864D01*
X99014Y-28807D01*
X99014Y-28664D01*
X98986Y-28607D01*
X99243Y-28321D02*
X98843Y-28321D01*
X98643Y-28321D02*
X98671Y-28350D01*
X98700Y-28321D01*
X98671Y-28293D01*
X98643Y-28321D01*
X98700Y-28321D01*
X99214Y-28064D02*
X99243Y-28007D01*
X99243Y-27892D01*
X99214Y-27835D01*
X99157Y-27807D01*
X99129Y-27807D01*
X99071Y-27835D01*
X99043Y-27892D01*
X99043Y-27978D01*
X99014Y-28035D01*
X98957Y-28064D01*
X98929Y-28064D01*
X98871Y-28035D01*
X98843Y-27978D01*
X98843Y-27892D01*
X98871Y-27835D01*
X99300Y-27692D02*
X99300Y-27235D01*
X99214Y-27121D02*
X99243Y-27064D01*
X99243Y-26949D01*
X99214Y-26892D01*
X99157Y-26864D01*
X99129Y-26864D01*
X99071Y-26892D01*
X99043Y-26949D01*
X99043Y-27035D01*
X99014Y-27092D01*
X98957Y-27121D01*
X98929Y-27121D01*
X98871Y-27092D01*
X98843Y-27035D01*
X98843Y-26949D01*
X98871Y-26892D01*
X99214Y-26378D02*
X99243Y-26435D01*
X99243Y-26549D01*
X99214Y-26606D01*
X99157Y-26635D01*
X98929Y-26635D01*
X98871Y-26606D01*
X98843Y-26549D01*
X98843Y-26435D01*
X98871Y-26378D01*
X98929Y-26349D01*
X98986Y-26349D01*
X99043Y-26635D01*
X98843Y-25835D02*
X99243Y-25835D01*
X98843Y-26092D02*
X99157Y-26092D01*
X99214Y-26064D01*
X99243Y-26006D01*
X99243Y-25921D01*
X99214Y-25864D01*
X99186Y-25835D01*
X99243Y-25549D02*
X98843Y-25549D01*
X98643Y-25549D02*
X98671Y-25578D01*
X98700Y-25549D01*
X98671Y-25521D01*
X98643Y-25549D01*
X98700Y-25549D01*
X99243Y-25177D02*
X99214Y-25235D01*
X99157Y-25263D01*
X98643Y-25263D01*
X99300Y-25092D02*
X99300Y-24635D01*
X99243Y-24178D02*
X99243Y-24521D01*
X99243Y-24349D02*
X98643Y-24349D01*
X98729Y-24406D01*
X98786Y-24464D01*
X98814Y-24521D01*
X103243Y-51692D02*
X102643Y-51692D01*
X102643Y-51464D01*
X102671Y-51406D01*
X102700Y-51378D01*
X102757Y-51349D01*
X102843Y-51349D01*
X102900Y-51378D01*
X102929Y-51406D01*
X102957Y-51464D01*
X102957Y-51692D01*
X102643Y-51149D02*
X102643Y-50778D01*
X102871Y-50978D01*
X102871Y-50892D01*
X102900Y-50835D01*
X102929Y-50806D01*
X102986Y-50778D01*
X103129Y-50778D01*
X103186Y-50806D01*
X103214Y-50835D01*
X103243Y-50892D01*
X103243Y-51064D01*
X103214Y-51121D01*
X103186Y-51149D01*
X99071Y-53536D02*
X99071Y-53250D01*
X99243Y-53593D02*
X98643Y-53393D01*
X99243Y-53193D01*
X99243Y-52736D02*
X98643Y-52736D01*
X99214Y-52736D02*
X99243Y-52793D01*
X99243Y-52907D01*
X99214Y-52965D01*
X99186Y-52993D01*
X99129Y-53022D01*
X98957Y-53022D01*
X98900Y-52993D01*
X98871Y-52965D01*
X98843Y-52907D01*
X98843Y-52793D01*
X98871Y-52736D01*
X99243Y-52193D02*
X98929Y-52193D01*
X98871Y-52222D01*
X98843Y-52279D01*
X98843Y-52393D01*
X98871Y-52450D01*
X99214Y-52193D02*
X99243Y-52250D01*
X99243Y-52393D01*
X99214Y-52450D01*
X99157Y-52479D01*
X99100Y-52479D01*
X99043Y-52450D01*
X99014Y-52393D01*
X99014Y-52250D01*
X98986Y-52193D01*
X98843Y-51907D02*
X99443Y-51907D01*
X98871Y-51907D02*
X98843Y-51850D01*
X98843Y-51736D01*
X98871Y-51679D01*
X98900Y-51650D01*
X98957Y-51621D01*
X99129Y-51621D01*
X99186Y-51650D01*
X99214Y-51679D01*
X99243Y-51736D01*
X99243Y-51850D01*
X99214Y-51907D01*
X98843Y-51450D02*
X98843Y-51221D01*
X98643Y-51364D02*
X99157Y-51364D01*
X99214Y-51336D01*
X99243Y-51278D01*
X99243Y-51221D01*
X99300Y-51164D02*
X99300Y-50707D01*
X99214Y-50593D02*
X99243Y-50536D01*
X99243Y-50421D01*
X99214Y-50364D01*
X99157Y-50336D01*
X99129Y-50336D01*
X99071Y-50364D01*
X99043Y-50421D01*
X99043Y-50507D01*
X99014Y-50564D01*
X98957Y-50593D01*
X98929Y-50593D01*
X98871Y-50564D01*
X98843Y-50507D01*
X98843Y-50421D01*
X98871Y-50364D01*
X99214Y-49850D02*
X99243Y-49907D01*
X99243Y-50021D01*
X99214Y-50078D01*
X99157Y-50107D01*
X98929Y-50107D01*
X98871Y-50078D01*
X98843Y-50021D01*
X98843Y-49907D01*
X98871Y-49850D01*
X98929Y-49821D01*
X98986Y-49821D01*
X99043Y-50107D01*
X99214Y-49307D02*
X99243Y-49364D01*
X99243Y-49478D01*
X99214Y-49536D01*
X99186Y-49564D01*
X99129Y-49593D01*
X98957Y-49593D01*
X98900Y-49564D01*
X98871Y-49536D01*
X98843Y-49478D01*
X98843Y-49364D01*
X98871Y-49307D01*
X98843Y-49136D02*
X98843Y-48907D01*
X98643Y-49050D02*
X99157Y-49050D01*
X99214Y-49022D01*
X99243Y-48964D01*
X99243Y-48907D01*
X103243Y-19692D02*
X102643Y-19692D01*
X102643Y-19464D01*
X102671Y-19406D01*
X102700Y-19378D01*
X102757Y-19349D01*
X102843Y-19349D01*
X102900Y-19378D01*
X102929Y-19406D01*
X102957Y-19464D01*
X102957Y-19692D01*
X102843Y-18835D02*
X103243Y-18835D01*
X102614Y-18978D02*
X103043Y-19121D01*
X103043Y-18749D01*
X99243Y-22207D02*
X98957Y-22407D01*
X99243Y-22550D02*
X98643Y-22550D01*
X98643Y-22322D01*
X98671Y-22264D01*
X98700Y-22236D01*
X98757Y-22207D01*
X98843Y-22207D01*
X98900Y-22236D01*
X98929Y-22264D01*
X98957Y-22322D01*
X98957Y-22550D01*
X99214Y-21722D02*
X99243Y-21779D01*
X99243Y-21893D01*
X99214Y-21950D01*
X99157Y-21979D01*
X98929Y-21979D01*
X98871Y-21950D01*
X98843Y-21893D01*
X98843Y-21779D01*
X98871Y-21722D01*
X98929Y-21693D01*
X98986Y-21693D01*
X99043Y-21979D01*
X99243Y-21350D02*
X99214Y-21408D01*
X99157Y-21436D01*
X98643Y-21436D01*
X99243Y-20865D02*
X98929Y-20865D01*
X98871Y-20894D01*
X98843Y-20951D01*
X98843Y-21065D01*
X98871Y-21122D01*
X99214Y-20865D02*
X99243Y-20922D01*
X99243Y-21065D01*
X99214Y-21122D01*
X99157Y-21151D01*
X99100Y-21151D01*
X99043Y-21122D01*
X99014Y-21065D01*
X99014Y-20922D01*
X98986Y-20865D01*
X99243Y-20579D02*
X98843Y-20579D01*
X98643Y-20579D02*
X98671Y-20608D01*
X98700Y-20579D01*
X98671Y-20551D01*
X98643Y-20579D01*
X98700Y-20579D01*
X99214Y-20322D02*
X99243Y-20265D01*
X99243Y-20150D01*
X99214Y-20093D01*
X99157Y-20065D01*
X99129Y-20065D01*
X99071Y-20093D01*
X99043Y-20150D01*
X99043Y-20236D01*
X99014Y-20293D01*
X98957Y-20322D01*
X98929Y-20322D01*
X98871Y-20293D01*
X98843Y-20236D01*
X98843Y-20150D01*
X98871Y-20093D01*
X99300Y-19950D02*
X99300Y-19493D01*
X99214Y-19379D02*
X99243Y-19322D01*
X99243Y-19207D01*
X99214Y-19150D01*
X99157Y-19122D01*
X99129Y-19122D01*
X99071Y-19150D01*
X99043Y-19207D01*
X99043Y-19293D01*
X99014Y-19350D01*
X98957Y-19379D01*
X98929Y-19379D01*
X98871Y-19350D01*
X98843Y-19293D01*
X98843Y-19207D01*
X98871Y-19150D01*
X99214Y-18636D02*
X99243Y-18693D01*
X99243Y-18807D01*
X99214Y-18864D01*
X99157Y-18893D01*
X98929Y-18893D01*
X98871Y-18864D01*
X98843Y-18807D01*
X98843Y-18693D01*
X98871Y-18636D01*
X98929Y-18607D01*
X98986Y-18607D01*
X99043Y-18893D01*
X98843Y-18093D02*
X99243Y-18093D01*
X98843Y-18350D02*
X99157Y-18350D01*
X99214Y-18322D01*
X99243Y-18264D01*
X99243Y-18179D01*
X99214Y-18122D01*
X99186Y-18093D01*
X99243Y-17807D02*
X98843Y-17807D01*
X98643Y-17807D02*
X98671Y-17836D01*
X98700Y-17807D01*
X98671Y-17779D01*
X98643Y-17807D01*
X98700Y-17807D01*
X99243Y-17435D02*
X99214Y-17493D01*
X99157Y-17521D01*
X98643Y-17521D01*
X99300Y-17350D02*
X99300Y-16893D01*
X99243Y-16664D02*
X99214Y-16722D01*
X99186Y-16750D01*
X99129Y-16779D01*
X98957Y-16779D01*
X98900Y-16750D01*
X98871Y-16722D01*
X98843Y-16664D01*
X98843Y-16579D01*
X98871Y-16522D01*
X98900Y-16493D01*
X98957Y-16464D01*
X99129Y-16464D01*
X99186Y-16493D01*
X99214Y-16522D01*
X99243Y-16579D01*
X99243Y-16664D01*
X99243Y-16121D02*
X99214Y-16179D01*
X99186Y-16207D01*
X99129Y-16236D01*
X98957Y-16236D01*
X98900Y-16207D01*
X98871Y-16179D01*
X98843Y-16121D01*
X98843Y-16036D01*
X98871Y-15979D01*
X98900Y-15950D01*
X98957Y-15921D01*
X99129Y-15921D01*
X99186Y-15950D01*
X99214Y-15979D01*
X99243Y-16036D01*
X99243Y-16121D01*
X66058Y-60743D02*
X66058Y-60143D01*
X66286Y-60143D01*
X66344Y-60171D01*
X66372Y-60200D01*
X66401Y-60257D01*
X66401Y-60343D01*
X66372Y-60400D01*
X66344Y-60429D01*
X66286Y-60457D01*
X66058Y-60457D01*
X66915Y-60143D02*
X66801Y-60143D01*
X66744Y-60171D01*
X66715Y-60200D01*
X66658Y-60286D01*
X66629Y-60400D01*
X66629Y-60629D01*
X66658Y-60686D01*
X66686Y-60714D01*
X66744Y-60743D01*
X66858Y-60743D01*
X66915Y-60714D01*
X66944Y-60686D01*
X66972Y-60629D01*
X66972Y-60486D01*
X66944Y-60429D01*
X66915Y-60400D01*
X66858Y-60371D01*
X66744Y-60371D01*
X66686Y-60400D01*
X66658Y-60429D01*
X66629Y-60486D01*
X66029Y-56714D02*
X66115Y-56743D01*
X66258Y-56743D01*
X66315Y-56714D01*
X66344Y-56686D01*
X66372Y-56629D01*
X66372Y-56571D01*
X66344Y-56514D01*
X66315Y-56486D01*
X66258Y-56457D01*
X66144Y-56429D01*
X66086Y-56400D01*
X66058Y-56371D01*
X66029Y-56314D01*
X66029Y-56257D01*
X66058Y-56200D01*
X66086Y-56171D01*
X66144Y-56143D01*
X66286Y-56143D01*
X66372Y-56171D01*
X66972Y-56686D02*
X66943Y-56714D01*
X66857Y-56743D01*
X66800Y-56743D01*
X66715Y-56714D01*
X66657Y-56657D01*
X66629Y-56600D01*
X66600Y-56486D01*
X66600Y-56400D01*
X66629Y-56286D01*
X66657Y-56229D01*
X66715Y-56171D01*
X66800Y-56143D01*
X66857Y-56143D01*
X66943Y-56171D01*
X66972Y-56200D01*
X103243Y-59692D02*
X102643Y-59692D01*
X102643Y-59464D01*
X102671Y-59406D01*
X102700Y-59378D01*
X102757Y-59349D01*
X102843Y-59349D01*
X102900Y-59378D01*
X102929Y-59406D01*
X102957Y-59464D01*
X102957Y-59692D01*
X102643Y-59149D02*
X102643Y-58749D01*
X103243Y-59006D01*
X98643Y-60551D02*
X98643Y-60437D01*
X98671Y-60379D01*
X98729Y-60322D01*
X98843Y-60294D01*
X99043Y-60294D01*
X99157Y-60322D01*
X99214Y-60379D01*
X99243Y-60437D01*
X99243Y-60551D01*
X99214Y-60608D01*
X99157Y-60665D01*
X99043Y-60694D01*
X98843Y-60694D01*
X98729Y-60665D01*
X98671Y-60608D01*
X98643Y-60551D01*
X98843Y-60036D02*
X99243Y-60036D01*
X98900Y-60036D02*
X98871Y-60008D01*
X98843Y-59950D01*
X98843Y-59865D01*
X98871Y-59808D01*
X98929Y-59779D01*
X99243Y-59779D01*
X98614Y-59065D02*
X99386Y-59579D01*
X98643Y-58750D02*
X98643Y-58636D01*
X98671Y-58578D01*
X98729Y-58521D01*
X98843Y-58493D01*
X99043Y-58493D01*
X99157Y-58521D01*
X99214Y-58578D01*
X99243Y-58636D01*
X99243Y-58750D01*
X99214Y-58807D01*
X99157Y-58864D01*
X99043Y-58893D01*
X98843Y-58893D01*
X98729Y-58864D01*
X98671Y-58807D01*
X98643Y-58750D01*
X98843Y-58321D02*
X98843Y-58092D01*
X99243Y-58235D02*
X98729Y-58235D01*
X98671Y-58207D01*
X98643Y-58149D01*
X98643Y-58092D01*
X98843Y-57978D02*
X98843Y-57749D01*
X99243Y-57892D02*
X98729Y-57892D01*
X98671Y-57864D01*
X98643Y-57806D01*
X98643Y-57749D01*
X73058Y-17743D02*
X73058Y-17143D01*
X73286Y-17143D01*
X73344Y-17171D01*
X73372Y-17200D01*
X73401Y-17257D01*
X73401Y-17343D01*
X73372Y-17400D01*
X73344Y-17429D01*
X73286Y-17457D01*
X73058Y-17457D01*
X73744Y-17400D02*
X73686Y-17371D01*
X73658Y-17343D01*
X73629Y-17286D01*
X73629Y-17257D01*
X73658Y-17200D01*
X73686Y-17171D01*
X73744Y-17143D01*
X73858Y-17143D01*
X73915Y-17171D01*
X73944Y-17200D01*
X73972Y-17257D01*
X73972Y-17286D01*
X73944Y-17343D01*
X73915Y-17371D01*
X73858Y-17400D01*
X73744Y-17400D01*
X73686Y-17429D01*
X73658Y-17457D01*
X73629Y-17514D01*
X73629Y-17629D01*
X73658Y-17686D01*
X73686Y-17714D01*
X73744Y-17743D01*
X73858Y-17743D01*
X73915Y-17714D01*
X73944Y-17686D01*
X73972Y-17629D01*
X73972Y-17514D01*
X73944Y-17457D01*
X73915Y-17429D01*
X73858Y-17400D01*
X72015Y-20686D02*
X71986Y-20714D01*
X71900Y-20743D01*
X71843Y-20743D01*
X71758Y-20714D01*
X71700Y-20657D01*
X71672Y-20600D01*
X71643Y-20486D01*
X71643Y-20400D01*
X71672Y-20286D01*
X71700Y-20229D01*
X71758Y-20171D01*
X71843Y-20143D01*
X71900Y-20143D01*
X71986Y-20171D01*
X72015Y-20200D01*
X72272Y-20743D02*
X72272Y-20143D01*
X72529Y-20743D02*
X72529Y-20429D01*
X72500Y-20371D01*
X72443Y-20343D01*
X72358Y-20343D01*
X72300Y-20371D01*
X72272Y-20400D01*
X73243Y-20114D02*
X72729Y-20886D01*
X73444Y-20743D02*
X73444Y-20143D01*
X73587Y-20143D01*
X73672Y-20171D01*
X73730Y-20229D01*
X73758Y-20286D01*
X73787Y-20400D01*
X73787Y-20486D01*
X73758Y-20600D01*
X73730Y-20657D01*
X73672Y-20714D01*
X73587Y-20743D01*
X73444Y-20743D01*
X74272Y-20714D02*
X74215Y-20743D01*
X74101Y-20743D01*
X74044Y-20714D01*
X74015Y-20657D01*
X74015Y-20429D01*
X74044Y-20371D01*
X74101Y-20343D01*
X74215Y-20343D01*
X74272Y-20371D01*
X74301Y-20429D01*
X74301Y-20486D01*
X74015Y-20543D01*
X74815Y-20714D02*
X74758Y-20743D01*
X74644Y-20743D01*
X74586Y-20714D01*
X74558Y-20686D01*
X74529Y-20629D01*
X74529Y-20457D01*
X74558Y-20400D01*
X74586Y-20371D01*
X74644Y-20343D01*
X74758Y-20343D01*
X74815Y-20371D01*
X75072Y-20743D02*
X75072Y-20143D01*
X75329Y-20743D02*
X75329Y-20429D01*
X75300Y-20371D01*
X75243Y-20343D01*
X75158Y-20343D01*
X75100Y-20371D01*
X75072Y-20400D01*
X92558Y-17743D02*
X92558Y-17143D01*
X92786Y-17143D01*
X92844Y-17171D01*
X92872Y-17200D01*
X92901Y-17257D01*
X92901Y-17343D01*
X92872Y-17400D01*
X92844Y-17429D01*
X92786Y-17457D01*
X92558Y-17457D01*
X93186Y-17743D02*
X93301Y-17743D01*
X93358Y-17714D01*
X93386Y-17686D01*
X93444Y-17600D01*
X93472Y-17486D01*
X93472Y-17257D01*
X93444Y-17200D01*
X93415Y-17171D01*
X93358Y-17143D01*
X93244Y-17143D01*
X93186Y-17171D01*
X93158Y-17200D01*
X93129Y-17257D01*
X93129Y-17400D01*
X93158Y-17457D01*
X93186Y-17486D01*
X93244Y-17514D01*
X93358Y-17514D01*
X93415Y-17486D01*
X93444Y-17457D01*
X93472Y-17400D01*
X81743Y-18643D02*
X81943Y-19243D01*
X82143Y-18643D01*
X82429Y-19243D02*
X82371Y-19214D01*
X82343Y-19186D01*
X82314Y-19129D01*
X82314Y-18957D01*
X82343Y-18900D01*
X82371Y-18871D01*
X82429Y-18843D01*
X82514Y-18843D01*
X82571Y-18871D01*
X82600Y-18900D01*
X82629Y-18957D01*
X82629Y-19129D01*
X82600Y-19186D01*
X82571Y-19214D01*
X82514Y-19243D01*
X82429Y-19243D01*
X82829Y-18843D02*
X82972Y-19243D01*
X83114Y-18843D02*
X82972Y-19243D01*
X82914Y-19386D01*
X82886Y-19414D01*
X82829Y-19443D01*
X83600Y-19243D02*
X83600Y-18929D01*
X83571Y-18871D01*
X83514Y-18843D01*
X83400Y-18843D01*
X83343Y-18871D01*
X83600Y-19214D02*
X83543Y-19243D01*
X83400Y-19243D01*
X83343Y-19214D01*
X83314Y-19157D01*
X83314Y-19100D01*
X83343Y-19043D01*
X83400Y-19014D01*
X83543Y-19014D01*
X83600Y-18986D01*
X83886Y-18843D02*
X83886Y-19243D01*
X83886Y-18900D02*
X83914Y-18871D01*
X83972Y-18843D01*
X84057Y-18843D01*
X84114Y-18871D01*
X84143Y-18929D01*
X84143Y-19243D01*
X84343Y-18843D02*
X84572Y-18843D01*
X84429Y-18643D02*
X84429Y-19157D01*
X84457Y-19214D01*
X84515Y-19243D01*
X84572Y-19243D01*
X84629Y-19300D02*
X85086Y-19300D01*
X85486Y-19214D02*
X85429Y-19243D01*
X85315Y-19243D01*
X85257Y-19214D01*
X85229Y-19186D01*
X85200Y-19129D01*
X85200Y-18957D01*
X85229Y-18900D01*
X85257Y-18871D01*
X85315Y-18843D01*
X85429Y-18843D01*
X85486Y-18871D01*
X85743Y-19243D02*
X85743Y-18643D01*
X86000Y-19243D02*
X86000Y-18929D01*
X85971Y-18871D01*
X85914Y-18843D01*
X85829Y-18843D01*
X85771Y-18871D01*
X85743Y-18900D01*
X86543Y-19243D02*
X86543Y-18929D01*
X86514Y-18871D01*
X86457Y-18843D01*
X86343Y-18843D01*
X86286Y-18871D01*
X86543Y-19214D02*
X86486Y-19243D01*
X86343Y-19243D01*
X86286Y-19214D01*
X86257Y-19157D01*
X86257Y-19100D01*
X86286Y-19043D01*
X86343Y-19014D01*
X86486Y-19014D01*
X86543Y-18986D01*
X86829Y-19243D02*
X86829Y-18843D01*
X86829Y-18957D02*
X86857Y-18900D01*
X86886Y-18871D01*
X86943Y-18843D01*
X87000Y-18843D01*
X87457Y-18843D02*
X87457Y-19329D01*
X87428Y-19386D01*
X87400Y-19414D01*
X87343Y-19443D01*
X87257Y-19443D01*
X87200Y-19414D01*
X87457Y-19214D02*
X87400Y-19243D01*
X87286Y-19243D01*
X87228Y-19214D01*
X87200Y-19186D01*
X87171Y-19129D01*
X87171Y-18957D01*
X87200Y-18900D01*
X87228Y-18871D01*
X87286Y-18843D01*
X87400Y-18843D01*
X87457Y-18871D01*
X87971Y-19214D02*
X87914Y-19243D01*
X87800Y-19243D01*
X87743Y-19214D01*
X87714Y-19157D01*
X87714Y-18929D01*
X87743Y-18871D01*
X87800Y-18843D01*
X87914Y-18843D01*
X87971Y-18871D01*
X88000Y-18929D01*
X88000Y-18986D01*
X87714Y-19043D01*
X88257Y-19243D02*
X88257Y-18843D01*
X88257Y-18900D02*
X88285Y-18871D01*
X88343Y-18843D01*
X88428Y-18843D01*
X88485Y-18871D01*
X88514Y-18929D01*
X88514Y-19243D01*
X88514Y-18929D02*
X88543Y-18871D01*
X88600Y-18843D01*
X88685Y-18843D01*
X88743Y-18871D01*
X88771Y-18929D01*
X88771Y-19243D01*
X89285Y-19214D02*
X89228Y-19243D01*
X89114Y-19243D01*
X89057Y-19214D01*
X89028Y-19157D01*
X89028Y-18929D01*
X89057Y-18871D01*
X89114Y-18843D01*
X89228Y-18843D01*
X89285Y-18871D01*
X89314Y-18929D01*
X89314Y-18986D01*
X89028Y-19043D01*
X89571Y-18843D02*
X89571Y-19243D01*
X89571Y-18900D02*
X89599Y-18871D01*
X89657Y-18843D01*
X89742Y-18843D01*
X89799Y-18871D01*
X89828Y-18929D01*
X89828Y-19243D01*
X90028Y-18843D02*
X90257Y-18843D01*
X90114Y-18643D02*
X90114Y-19157D01*
X90142Y-19214D01*
X90200Y-19243D01*
X90257Y-19243D01*
X103243Y-47978D02*
X102643Y-47978D01*
X102643Y-47750D01*
X102671Y-47692D01*
X102700Y-47664D01*
X102757Y-47635D01*
X102843Y-47635D01*
X102900Y-47664D01*
X102929Y-47692D01*
X102957Y-47750D01*
X102957Y-47978D01*
X103243Y-47064D02*
X103243Y-47407D01*
X103243Y-47235D02*
X102643Y-47235D01*
X102729Y-47292D01*
X102786Y-47350D01*
X102814Y-47407D01*
X102643Y-46693D02*
X102643Y-46636D01*
X102671Y-46579D01*
X102700Y-46550D01*
X102757Y-46521D01*
X102871Y-46493D01*
X103014Y-46493D01*
X103129Y-46521D01*
X103186Y-46550D01*
X103214Y-46579D01*
X103243Y-46636D01*
X103243Y-46693D01*
X103214Y-46750D01*
X103186Y-46779D01*
X103129Y-46807D01*
X103014Y-46836D01*
X102871Y-46836D01*
X102757Y-46807D01*
X102700Y-46779D01*
X102671Y-46750D01*
X102643Y-46693D01*
X99243Y-49949D02*
X98957Y-50149D01*
X99243Y-50292D02*
X98643Y-50292D01*
X98643Y-50064D01*
X98671Y-50006D01*
X98700Y-49978D01*
X98757Y-49949D01*
X98843Y-49949D01*
X98900Y-49978D01*
X98929Y-50006D01*
X98957Y-50064D01*
X98957Y-50292D01*
X99214Y-49464D02*
X99243Y-49521D01*
X99243Y-49635D01*
X99214Y-49692D01*
X99157Y-49721D01*
X98929Y-49721D01*
X98871Y-49692D01*
X98843Y-49635D01*
X98843Y-49521D01*
X98871Y-49464D01*
X98929Y-49435D01*
X98986Y-49435D01*
X99043Y-49721D01*
X99243Y-49092D02*
X99214Y-49150D01*
X99157Y-49178D01*
X98643Y-49178D01*
X99243Y-48607D02*
X98929Y-48607D01*
X98871Y-48636D01*
X98843Y-48693D01*
X98843Y-48807D01*
X98871Y-48864D01*
X99214Y-48607D02*
X99243Y-48664D01*
X99243Y-48807D01*
X99214Y-48864D01*
X99157Y-48893D01*
X99100Y-48893D01*
X99043Y-48864D01*
X99014Y-48807D01*
X99014Y-48664D01*
X98986Y-48607D01*
X99243Y-48321D02*
X98843Y-48321D01*
X98643Y-48321D02*
X98671Y-48350D01*
X98700Y-48321D01*
X98671Y-48293D01*
X98643Y-48321D01*
X98700Y-48321D01*
X99214Y-48064D02*
X99243Y-48007D01*
X99243Y-47892D01*
X99214Y-47835D01*
X99157Y-47807D01*
X99129Y-47807D01*
X99071Y-47835D01*
X99043Y-47892D01*
X99043Y-47978D01*
X99014Y-48035D01*
X98957Y-48064D01*
X98929Y-48064D01*
X98871Y-48035D01*
X98843Y-47978D01*
X98843Y-47892D01*
X98871Y-47835D01*
X99300Y-47692D02*
X99300Y-47235D01*
X99214Y-47121D02*
X99243Y-47064D01*
X99243Y-46949D01*
X99214Y-46892D01*
X99157Y-46864D01*
X99129Y-46864D01*
X99071Y-46892D01*
X99043Y-46949D01*
X99043Y-47035D01*
X99014Y-47092D01*
X98957Y-47121D01*
X98929Y-47121D01*
X98871Y-47092D01*
X98843Y-47035D01*
X98843Y-46949D01*
X98871Y-46892D01*
X99214Y-46378D02*
X99243Y-46435D01*
X99243Y-46549D01*
X99214Y-46606D01*
X99157Y-46635D01*
X98929Y-46635D01*
X98871Y-46606D01*
X98843Y-46549D01*
X98843Y-46435D01*
X98871Y-46378D01*
X98929Y-46349D01*
X98986Y-46349D01*
X99043Y-46635D01*
X98843Y-45835D02*
X99243Y-45835D01*
X98843Y-46092D02*
X99157Y-46092D01*
X99214Y-46064D01*
X99243Y-46006D01*
X99243Y-45921D01*
X99214Y-45864D01*
X99186Y-45835D01*
X99243Y-45549D02*
X98843Y-45549D01*
X98643Y-45549D02*
X98671Y-45578D01*
X98700Y-45549D01*
X98671Y-45521D01*
X98643Y-45549D01*
X98700Y-45549D01*
X99243Y-45177D02*
X99214Y-45235D01*
X99157Y-45263D01*
X98643Y-45263D01*
X99300Y-45092D02*
X99300Y-44635D01*
X98700Y-44521D02*
X98671Y-44492D01*
X98643Y-44435D01*
X98643Y-44292D01*
X98671Y-44235D01*
X98700Y-44206D01*
X98757Y-44178D01*
X98814Y-44178D01*
X98900Y-44206D01*
X99243Y-44549D01*
X99243Y-44178D01*
X103243Y-23978D02*
X102643Y-23978D01*
X102643Y-23750D01*
X102671Y-23692D01*
X102700Y-23664D01*
X102757Y-23635D01*
X102843Y-23635D01*
X102900Y-23664D01*
X102929Y-23692D01*
X102957Y-23750D01*
X102957Y-23978D01*
X103243Y-23064D02*
X103243Y-23407D01*
X103243Y-23235D02*
X102643Y-23235D01*
X102729Y-23292D01*
X102786Y-23350D01*
X102814Y-23407D01*
X103243Y-22493D02*
X103243Y-22836D01*
X103243Y-22664D02*
X102643Y-22664D01*
X102729Y-22721D01*
X102786Y-22779D01*
X102814Y-22836D01*
X98643Y-26736D02*
X99243Y-26536D01*
X98643Y-26336D01*
X99243Y-26050D02*
X99214Y-26108D01*
X99186Y-26136D01*
X99129Y-26165D01*
X98957Y-26165D01*
X98900Y-26136D01*
X98871Y-26108D01*
X98843Y-26050D01*
X98843Y-25965D01*
X98871Y-25908D01*
X98900Y-25879D01*
X98957Y-25850D01*
X99129Y-25850D01*
X99186Y-25879D01*
X99214Y-25908D01*
X99243Y-25965D01*
X99243Y-26050D01*
X98843Y-25650D02*
X99243Y-25507D01*
X98843Y-25365D02*
X99243Y-25507D01*
X99386Y-25565D01*
X99414Y-25593D01*
X99443Y-25650D01*
X99243Y-24879D02*
X98929Y-24879D01*
X98871Y-24908D01*
X98843Y-24965D01*
X98843Y-25079D01*
X98871Y-25136D01*
X99214Y-24879D02*
X99243Y-24936D01*
X99243Y-25079D01*
X99214Y-25136D01*
X99157Y-25165D01*
X99100Y-25165D01*
X99043Y-25136D01*
X99014Y-25079D01*
X99014Y-24936D01*
X98986Y-24879D01*
X98843Y-24593D02*
X99243Y-24593D01*
X98900Y-24593D02*
X98871Y-24565D01*
X98843Y-24507D01*
X98843Y-24422D01*
X98871Y-24365D01*
X98929Y-24336D01*
X99243Y-24336D01*
X98843Y-24136D02*
X98843Y-23907D01*
X98643Y-24050D02*
X99157Y-24050D01*
X99214Y-24022D01*
X99243Y-23964D01*
X99243Y-23907D01*
X99300Y-23850D02*
X99300Y-23393D01*
X99214Y-23279D02*
X99243Y-23222D01*
X99243Y-23107D01*
X99214Y-23050D01*
X99157Y-23022D01*
X99129Y-23022D01*
X99071Y-23050D01*
X99043Y-23107D01*
X99043Y-23193D01*
X99014Y-23250D01*
X98957Y-23279D01*
X98929Y-23279D01*
X98871Y-23250D01*
X98843Y-23193D01*
X98843Y-23107D01*
X98871Y-23050D01*
X99214Y-22536D02*
X99243Y-22593D01*
X99243Y-22707D01*
X99214Y-22764D01*
X99157Y-22793D01*
X98929Y-22793D01*
X98871Y-22764D01*
X98843Y-22707D01*
X98843Y-22593D01*
X98871Y-22536D01*
X98929Y-22507D01*
X98986Y-22507D01*
X99043Y-22793D01*
X98843Y-21993D02*
X99243Y-21993D01*
X98843Y-22250D02*
X99157Y-22250D01*
X99214Y-22222D01*
X99243Y-22164D01*
X99243Y-22079D01*
X99214Y-22022D01*
X99186Y-21993D01*
X99243Y-21707D02*
X98843Y-21707D01*
X98643Y-21707D02*
X98671Y-21736D01*
X98700Y-21707D01*
X98671Y-21679D01*
X98643Y-21707D01*
X98700Y-21707D01*
X99243Y-21335D02*
X99214Y-21393D01*
X99157Y-21421D01*
X98643Y-21421D01*
X99300Y-21250D02*
X99300Y-20793D01*
X99243Y-20564D02*
X99214Y-20622D01*
X99186Y-20650D01*
X99129Y-20679D01*
X98957Y-20679D01*
X98900Y-20650D01*
X98871Y-20622D01*
X98843Y-20564D01*
X98843Y-20479D01*
X98871Y-20422D01*
X98900Y-20393D01*
X98957Y-20364D01*
X99129Y-20364D01*
X99186Y-20393D01*
X99214Y-20422D01*
X99243Y-20479D01*
X99243Y-20564D01*
X99243Y-20021D02*
X99214Y-20079D01*
X99186Y-20107D01*
X99129Y-20136D01*
X98957Y-20136D01*
X98900Y-20107D01*
X98871Y-20079D01*
X98843Y-20021D01*
X98843Y-19936D01*
X98871Y-19879D01*
X98900Y-19850D01*
X98957Y-19821D01*
X99129Y-19821D01*
X99186Y-19850D01*
X99214Y-19879D01*
X99243Y-19936D01*
X99243Y-20021D01*
X103243Y-31978D02*
X102643Y-31978D01*
X102643Y-31750D01*
X102671Y-31692D01*
X102700Y-31664D01*
X102757Y-31635D01*
X102843Y-31635D01*
X102900Y-31664D01*
X102929Y-31692D01*
X102957Y-31750D01*
X102957Y-31978D01*
X103243Y-31064D02*
X103243Y-31407D01*
X103243Y-31235D02*
X102643Y-31235D01*
X102729Y-31292D01*
X102786Y-31350D01*
X102814Y-31407D01*
X102700Y-30836D02*
X102671Y-30807D01*
X102643Y-30750D01*
X102643Y-30607D01*
X102671Y-30550D01*
X102700Y-30521D01*
X102757Y-30493D01*
X102814Y-30493D01*
X102900Y-30521D01*
X103243Y-30864D01*
X103243Y-30493D01*
X98643Y-34478D02*
X99243Y-34278D01*
X98643Y-34078D01*
X99243Y-33792D02*
X99214Y-33850D01*
X99186Y-33878D01*
X99129Y-33907D01*
X98957Y-33907D01*
X98900Y-33878D01*
X98871Y-33850D01*
X98843Y-33792D01*
X98843Y-33707D01*
X98871Y-33650D01*
X98900Y-33621D01*
X98957Y-33592D01*
X99129Y-33592D01*
X99186Y-33621D01*
X99214Y-33650D01*
X99243Y-33707D01*
X99243Y-33792D01*
X98843Y-33392D02*
X99243Y-33249D01*
X98843Y-33107D02*
X99243Y-33249D01*
X99386Y-33307D01*
X99414Y-33335D01*
X99443Y-33392D01*
X99243Y-32621D02*
X98929Y-32621D01*
X98871Y-32650D01*
X98843Y-32707D01*
X98843Y-32821D01*
X98871Y-32878D01*
X99214Y-32621D02*
X99243Y-32678D01*
X99243Y-32821D01*
X99214Y-32878D01*
X99157Y-32907D01*
X99100Y-32907D01*
X99043Y-32878D01*
X99014Y-32821D01*
X99014Y-32678D01*
X98986Y-32621D01*
X98843Y-32335D02*
X99243Y-32335D01*
X98900Y-32335D02*
X98871Y-32307D01*
X98843Y-32249D01*
X98843Y-32164D01*
X98871Y-32107D01*
X98929Y-32078D01*
X99243Y-32078D01*
X98843Y-31878D02*
X98843Y-31649D01*
X98643Y-31792D02*
X99157Y-31792D01*
X99214Y-31764D01*
X99243Y-31706D01*
X99243Y-31649D01*
X99300Y-31592D02*
X99300Y-31135D01*
X99214Y-31021D02*
X99243Y-30964D01*
X99243Y-30849D01*
X99214Y-30792D01*
X99157Y-30764D01*
X99129Y-30764D01*
X99071Y-30792D01*
X99043Y-30849D01*
X99043Y-30935D01*
X99014Y-30992D01*
X98957Y-31021D01*
X98929Y-31021D01*
X98871Y-30992D01*
X98843Y-30935D01*
X98843Y-30849D01*
X98871Y-30792D01*
X99214Y-30278D02*
X99243Y-30335D01*
X99243Y-30449D01*
X99214Y-30506D01*
X99157Y-30535D01*
X98929Y-30535D01*
X98871Y-30506D01*
X98843Y-30449D01*
X98843Y-30335D01*
X98871Y-30278D01*
X98929Y-30249D01*
X98986Y-30249D01*
X99043Y-30535D01*
X98843Y-29735D02*
X99243Y-29735D01*
X98843Y-29992D02*
X99157Y-29992D01*
X99214Y-29964D01*
X99243Y-29906D01*
X99243Y-29821D01*
X99214Y-29764D01*
X99186Y-29735D01*
X99243Y-29449D02*
X98843Y-29449D01*
X98643Y-29449D02*
X98671Y-29478D01*
X98700Y-29449D01*
X98671Y-29421D01*
X98643Y-29449D01*
X98700Y-29449D01*
X99243Y-29077D02*
X99214Y-29135D01*
X99157Y-29163D01*
X98643Y-29163D01*
X99300Y-28992D02*
X99300Y-28535D01*
X99243Y-28078D02*
X99243Y-28421D01*
X99243Y-28249D02*
X98643Y-28249D01*
X98729Y-28306D01*
X98786Y-28364D01*
X98814Y-28421D01*
X76772Y-17743D02*
X76772Y-17143D01*
X77000Y-17143D01*
X77058Y-17171D01*
X77086Y-17200D01*
X77115Y-17257D01*
X77115Y-17343D01*
X77086Y-17400D01*
X77058Y-17429D01*
X77000Y-17457D01*
X76772Y-17457D01*
X77686Y-17743D02*
X77343Y-17743D01*
X77515Y-17743D02*
X77515Y-17143D01*
X77458Y-17229D01*
X77400Y-17286D01*
X77343Y-17314D01*
X77886Y-17143D02*
X78257Y-17143D01*
X78057Y-17371D01*
X78143Y-17371D01*
X78200Y-17400D01*
X78229Y-17429D01*
X78257Y-17486D01*
X78257Y-17629D01*
X78229Y-17686D01*
X78200Y-17714D01*
X78143Y-17743D01*
X77971Y-17743D01*
X77914Y-17714D01*
X77886Y-17686D01*
X79643Y-17143D02*
X79843Y-17743D01*
X80043Y-17143D01*
X80329Y-17743D02*
X80271Y-17714D01*
X80243Y-17686D01*
X80214Y-17629D01*
X80214Y-17457D01*
X80243Y-17400D01*
X80271Y-17371D01*
X80329Y-17343D01*
X80414Y-17343D01*
X80471Y-17371D01*
X80500Y-17400D01*
X80529Y-17457D01*
X80529Y-17629D01*
X80500Y-17686D01*
X80471Y-17714D01*
X80414Y-17743D01*
X80329Y-17743D01*
X80729Y-17343D02*
X80872Y-17743D01*
X81014Y-17343D02*
X80872Y-17743D01*
X80814Y-17886D01*
X80786Y-17914D01*
X80729Y-17943D01*
X81500Y-17743D02*
X81500Y-17429D01*
X81471Y-17371D01*
X81414Y-17343D01*
X81300Y-17343D01*
X81243Y-17371D01*
X81500Y-17714D02*
X81443Y-17743D01*
X81300Y-17743D01*
X81243Y-17714D01*
X81214Y-17657D01*
X81214Y-17600D01*
X81243Y-17543D01*
X81300Y-17514D01*
X81443Y-17514D01*
X81500Y-17486D01*
X81786Y-17343D02*
X81786Y-17743D01*
X81786Y-17400D02*
X81814Y-17371D01*
X81872Y-17343D01*
X81957Y-17343D01*
X82014Y-17371D01*
X82043Y-17429D01*
X82043Y-17743D01*
X82243Y-17343D02*
X82472Y-17343D01*
X82329Y-17143D02*
X82329Y-17657D01*
X82357Y-17714D01*
X82415Y-17743D01*
X82472Y-17743D01*
X82529Y-17800D02*
X82986Y-17800D01*
X83100Y-17714D02*
X83186Y-17743D01*
X83329Y-17743D01*
X83386Y-17714D01*
X83415Y-17686D01*
X83443Y-17629D01*
X83443Y-17571D01*
X83415Y-17514D01*
X83386Y-17486D01*
X83329Y-17457D01*
X83215Y-17429D01*
X83157Y-17400D01*
X83129Y-17371D01*
X83100Y-17314D01*
X83100Y-17257D01*
X83129Y-17200D01*
X83157Y-17171D01*
X83215Y-17143D01*
X83357Y-17143D01*
X83443Y-17171D01*
X84043Y-17686D02*
X84014Y-17714D01*
X83928Y-17743D01*
X83871Y-17743D01*
X83786Y-17714D01*
X83728Y-17657D01*
X83700Y-17600D01*
X83671Y-17486D01*
X83671Y-17400D01*
X83700Y-17286D01*
X83728Y-17229D01*
X83786Y-17171D01*
X83871Y-17143D01*
X83928Y-17143D01*
X84014Y-17171D01*
X84043Y-17200D01*
X84157Y-17800D02*
X84614Y-17800D01*
X84700Y-17343D02*
X84843Y-17743D01*
X84985Y-17343D01*
X85214Y-17743D02*
X85214Y-17343D01*
X85214Y-17143D02*
X85185Y-17171D01*
X85214Y-17200D01*
X85242Y-17171D01*
X85214Y-17143D01*
X85214Y-17200D01*
X85757Y-17743D02*
X85757Y-17143D01*
X85757Y-17714D02*
X85700Y-17743D01*
X85586Y-17743D01*
X85528Y-17714D01*
X85500Y-17686D01*
X85471Y-17629D01*
X85471Y-17457D01*
X85500Y-17400D01*
X85528Y-17371D01*
X85586Y-17343D01*
X85700Y-17343D01*
X85757Y-17371D01*
X86271Y-17714D02*
X86214Y-17743D01*
X86100Y-17743D01*
X86043Y-17714D01*
X86014Y-17657D01*
X86014Y-17429D01*
X86043Y-17371D01*
X86100Y-17343D01*
X86214Y-17343D01*
X86271Y-17371D01*
X86300Y-17429D01*
X86300Y-17486D01*
X86014Y-17543D01*
X103243Y-43978D02*
X102643Y-43978D01*
X102643Y-43750D01*
X102671Y-43692D01*
X102700Y-43664D01*
X102757Y-43635D01*
X102843Y-43635D01*
X102900Y-43664D01*
X102929Y-43692D01*
X102957Y-43750D01*
X102957Y-43978D01*
X103243Y-43064D02*
X103243Y-43407D01*
X103243Y-43235D02*
X102643Y-43235D01*
X102729Y-43292D01*
X102786Y-43350D01*
X102814Y-43407D01*
X102843Y-42550D02*
X103243Y-42550D01*
X102614Y-42693D02*
X103043Y-42836D01*
X103043Y-42464D01*
X98643Y-46478D02*
X99243Y-46278D01*
X98643Y-46078D01*
X99243Y-45792D02*
X99214Y-45850D01*
X99186Y-45878D01*
X99129Y-45907D01*
X98957Y-45907D01*
X98900Y-45878D01*
X98871Y-45850D01*
X98843Y-45792D01*
X98843Y-45707D01*
X98871Y-45650D01*
X98900Y-45621D01*
X98957Y-45592D01*
X99129Y-45592D01*
X99186Y-45621D01*
X99214Y-45650D01*
X99243Y-45707D01*
X99243Y-45792D01*
X98843Y-45392D02*
X99243Y-45249D01*
X98843Y-45107D02*
X99243Y-45249D01*
X99386Y-45307D01*
X99414Y-45335D01*
X99443Y-45392D01*
X99243Y-44621D02*
X98929Y-44621D01*
X98871Y-44650D01*
X98843Y-44707D01*
X98843Y-44821D01*
X98871Y-44878D01*
X99214Y-44621D02*
X99243Y-44678D01*
X99243Y-44821D01*
X99214Y-44878D01*
X99157Y-44907D01*
X99100Y-44907D01*
X99043Y-44878D01*
X99014Y-44821D01*
X99014Y-44678D01*
X98986Y-44621D01*
X98843Y-44335D02*
X99243Y-44335D01*
X98900Y-44335D02*
X98871Y-44307D01*
X98843Y-44249D01*
X98843Y-44164D01*
X98871Y-44107D01*
X98929Y-44078D01*
X99243Y-44078D01*
X98843Y-43878D02*
X98843Y-43649D01*
X98643Y-43792D02*
X99157Y-43792D01*
X99214Y-43764D01*
X99243Y-43706D01*
X99243Y-43649D01*
X99300Y-43592D02*
X99300Y-43135D01*
X99214Y-43021D02*
X99243Y-42964D01*
X99243Y-42849D01*
X99214Y-42792D01*
X99157Y-42764D01*
X99129Y-42764D01*
X99071Y-42792D01*
X99043Y-42849D01*
X99043Y-42935D01*
X99014Y-42992D01*
X98957Y-43021D01*
X98929Y-43021D01*
X98871Y-42992D01*
X98843Y-42935D01*
X98843Y-42849D01*
X98871Y-42792D01*
X99214Y-42278D02*
X99243Y-42335D01*
X99243Y-42449D01*
X99214Y-42506D01*
X99157Y-42535D01*
X98929Y-42535D01*
X98871Y-42506D01*
X98843Y-42449D01*
X98843Y-42335D01*
X98871Y-42278D01*
X98929Y-42249D01*
X98986Y-42249D01*
X99043Y-42535D01*
X98843Y-41735D02*
X99243Y-41735D01*
X98843Y-41992D02*
X99157Y-41992D01*
X99214Y-41964D01*
X99243Y-41906D01*
X99243Y-41821D01*
X99214Y-41764D01*
X99186Y-41735D01*
X99243Y-41449D02*
X98843Y-41449D01*
X98643Y-41449D02*
X98671Y-41478D01*
X98700Y-41449D01*
X98671Y-41421D01*
X98643Y-41449D01*
X98700Y-41449D01*
X99243Y-41077D02*
X99214Y-41135D01*
X99157Y-41163D01*
X98643Y-41163D01*
X99300Y-40992D02*
X99300Y-40535D01*
X98700Y-40421D02*
X98671Y-40392D01*
X98643Y-40335D01*
X98643Y-40192D01*
X98671Y-40135D01*
X98700Y-40106D01*
X98757Y-40078D01*
X98814Y-40078D01*
X98900Y-40106D01*
X99243Y-40449D01*
X99243Y-40078D01*
X103243Y-39978D02*
X102643Y-39978D01*
X102643Y-39750D01*
X102671Y-39692D01*
X102700Y-39664D01*
X102757Y-39635D01*
X102843Y-39635D01*
X102900Y-39664D01*
X102929Y-39692D01*
X102957Y-39750D01*
X102957Y-39978D01*
X103243Y-39064D02*
X103243Y-39407D01*
X103243Y-39235D02*
X102643Y-39235D01*
X102729Y-39292D01*
X102786Y-39350D01*
X102814Y-39407D01*
X102643Y-38521D02*
X102643Y-38807D01*
X102929Y-38836D01*
X102900Y-38807D01*
X102871Y-38750D01*
X102871Y-38607D01*
X102900Y-38550D01*
X102929Y-38521D01*
X102986Y-38493D01*
X103129Y-38493D01*
X103186Y-38521D01*
X103214Y-38550D01*
X103243Y-38607D01*
X103243Y-38750D01*
X103214Y-38807D01*
X103186Y-38836D01*
X98643Y-42407D02*
X99243Y-42207D01*
X98643Y-42007D01*
X99243Y-41721D02*
X99214Y-41779D01*
X99186Y-41807D01*
X99129Y-41836D01*
X98957Y-41836D01*
X98900Y-41807D01*
X98871Y-41779D01*
X98843Y-41721D01*
X98843Y-41636D01*
X98871Y-41579D01*
X98900Y-41550D01*
X98957Y-41521D01*
X99129Y-41521D01*
X99186Y-41550D01*
X99214Y-41579D01*
X99243Y-41636D01*
X99243Y-41721D01*
X98843Y-41321D02*
X99243Y-41178D01*
X98843Y-41036D02*
X99243Y-41178D01*
X99386Y-41236D01*
X99414Y-41264D01*
X99443Y-41321D01*
X99243Y-40550D02*
X98929Y-40550D01*
X98871Y-40579D01*
X98843Y-40636D01*
X98843Y-40750D01*
X98871Y-40807D01*
X99214Y-40550D02*
X99243Y-40607D01*
X99243Y-40750D01*
X99214Y-40807D01*
X99157Y-40836D01*
X99100Y-40836D01*
X99043Y-40807D01*
X99014Y-40750D01*
X99014Y-40607D01*
X98986Y-40550D01*
X98843Y-40264D02*
X99243Y-40264D01*
X98900Y-40264D02*
X98871Y-40236D01*
X98843Y-40178D01*
X98843Y-40093D01*
X98871Y-40036D01*
X98929Y-40007D01*
X99243Y-40007D01*
X98843Y-39807D02*
X98843Y-39578D01*
X98643Y-39721D02*
X99157Y-39721D01*
X99214Y-39693D01*
X99243Y-39635D01*
X99243Y-39578D01*
X99300Y-39521D02*
X99300Y-39064D01*
X99214Y-38664D02*
X99243Y-38721D01*
X99243Y-38835D01*
X99214Y-38893D01*
X99186Y-38921D01*
X99129Y-38950D01*
X98957Y-38950D01*
X98900Y-38921D01*
X98871Y-38893D01*
X98843Y-38835D01*
X98843Y-38721D01*
X98871Y-38664D01*
X99243Y-38407D02*
X98643Y-38407D01*
X99243Y-38150D02*
X98929Y-38150D01*
X98871Y-38179D01*
X98843Y-38236D01*
X98843Y-38321D01*
X98871Y-38379D01*
X98900Y-38407D01*
X99243Y-37607D02*
X98929Y-37607D01*
X98871Y-37636D01*
X98843Y-37693D01*
X98843Y-37807D01*
X98871Y-37864D01*
X99214Y-37607D02*
X99243Y-37664D01*
X99243Y-37807D01*
X99214Y-37864D01*
X99157Y-37893D01*
X99100Y-37893D01*
X99043Y-37864D01*
X99014Y-37807D01*
X99014Y-37664D01*
X98986Y-37607D01*
X99243Y-37321D02*
X98843Y-37321D01*
X98957Y-37321D02*
X98900Y-37293D01*
X98871Y-37264D01*
X98843Y-37207D01*
X98843Y-37150D01*
X98843Y-36693D02*
X99329Y-36693D01*
X99386Y-36722D01*
X99414Y-36750D01*
X99443Y-36807D01*
X99443Y-36893D01*
X99414Y-36950D01*
X99214Y-36693D02*
X99243Y-36750D01*
X99243Y-36864D01*
X99214Y-36922D01*
X99186Y-36950D01*
X99129Y-36979D01*
X98957Y-36979D01*
X98900Y-36950D01*
X98871Y-36922D01*
X98843Y-36864D01*
X98843Y-36750D01*
X98871Y-36693D01*
X99214Y-36179D02*
X99243Y-36236D01*
X99243Y-36350D01*
X99214Y-36407D01*
X99157Y-36436D01*
X98929Y-36436D01*
X98871Y-36407D01*
X98843Y-36350D01*
X98843Y-36236D01*
X98871Y-36179D01*
X98929Y-36150D01*
X98986Y-36150D01*
X99043Y-36436D01*
X103243Y-35978D02*
X102643Y-35978D01*
X102643Y-35750D01*
X102671Y-35692D01*
X102700Y-35664D01*
X102757Y-35635D01*
X102843Y-35635D01*
X102900Y-35664D01*
X102929Y-35692D01*
X102957Y-35750D01*
X102957Y-35978D01*
X103243Y-35064D02*
X103243Y-35407D01*
X103243Y-35235D02*
X102643Y-35235D01*
X102729Y-35292D01*
X102786Y-35350D01*
X102814Y-35407D01*
X102643Y-34550D02*
X102643Y-34664D01*
X102671Y-34721D01*
X102700Y-34750D01*
X102786Y-34807D01*
X102900Y-34836D01*
X103129Y-34836D01*
X103186Y-34807D01*
X103214Y-34779D01*
X103243Y-34721D01*
X103243Y-34607D01*
X103214Y-34550D01*
X103186Y-34521D01*
X103129Y-34493D01*
X102986Y-34493D01*
X102929Y-34521D01*
X102900Y-34550D01*
X102871Y-34607D01*
X102871Y-34721D01*
X102900Y-34779D01*
X102929Y-34807D01*
X102986Y-34836D01*
X98643Y-38935D02*
X99243Y-38735D01*
X98643Y-38535D01*
X99243Y-38249D02*
X99214Y-38307D01*
X99186Y-38335D01*
X99129Y-38364D01*
X98957Y-38364D01*
X98900Y-38335D01*
X98871Y-38307D01*
X98843Y-38249D01*
X98843Y-38164D01*
X98871Y-38107D01*
X98900Y-38078D01*
X98957Y-38049D01*
X99129Y-38049D01*
X99186Y-38078D01*
X99214Y-38107D01*
X99243Y-38164D01*
X99243Y-38249D01*
X98843Y-37849D02*
X99243Y-37706D01*
X98843Y-37564D02*
X99243Y-37706D01*
X99386Y-37764D01*
X99414Y-37792D01*
X99443Y-37849D01*
X99243Y-37078D02*
X98929Y-37078D01*
X98871Y-37107D01*
X98843Y-37164D01*
X98843Y-37278D01*
X98871Y-37335D01*
X99214Y-37078D02*
X99243Y-37135D01*
X99243Y-37278D01*
X99214Y-37335D01*
X99157Y-37364D01*
X99100Y-37364D01*
X99043Y-37335D01*
X99014Y-37278D01*
X99014Y-37135D01*
X98986Y-37078D01*
X98843Y-36792D02*
X99243Y-36792D01*
X98900Y-36792D02*
X98871Y-36764D01*
X98843Y-36706D01*
X98843Y-36621D01*
X98871Y-36564D01*
X98929Y-36535D01*
X99243Y-36535D01*
X98843Y-36335D02*
X98843Y-36106D01*
X98643Y-36249D02*
X99157Y-36249D01*
X99214Y-36221D01*
X99243Y-36163D01*
X99243Y-36106D01*
X99300Y-36049D02*
X99300Y-35592D01*
X99243Y-35192D02*
X98643Y-35192D01*
X99214Y-35192D02*
X99243Y-35249D01*
X99243Y-35363D01*
X99214Y-35421D01*
X99186Y-35449D01*
X99129Y-35478D01*
X98957Y-35478D01*
X98900Y-35449D01*
X98871Y-35421D01*
X98843Y-35363D01*
X98843Y-35249D01*
X98871Y-35192D01*
X99214Y-34678D02*
X99243Y-34735D01*
X99243Y-34849D01*
X99214Y-34906D01*
X99157Y-34935D01*
X98929Y-34935D01*
X98871Y-34906D01*
X98843Y-34849D01*
X98843Y-34735D01*
X98871Y-34678D01*
X98929Y-34649D01*
X98986Y-34649D01*
X99043Y-34935D01*
X99214Y-34135D02*
X99243Y-34192D01*
X99243Y-34306D01*
X99214Y-34364D01*
X99186Y-34392D01*
X99129Y-34421D01*
X98957Y-34421D01*
X98900Y-34392D01*
X98871Y-34364D01*
X98843Y-34306D01*
X98843Y-34192D01*
X98871Y-34135D01*
X99243Y-33878D02*
X98643Y-33878D01*
X99243Y-33621D02*
X98929Y-33621D01*
X98871Y-33650D01*
X98843Y-33707D01*
X98843Y-33792D01*
X98871Y-33850D01*
X98900Y-33878D01*
X99243Y-33078D02*
X98929Y-33078D01*
X98871Y-33107D01*
X98843Y-33164D01*
X98843Y-33278D01*
X98871Y-33335D01*
X99214Y-33078D02*
X99243Y-33135D01*
X99243Y-33278D01*
X99214Y-33335D01*
X99157Y-33364D01*
X99100Y-33364D01*
X99043Y-33335D01*
X99014Y-33278D01*
X99014Y-33135D01*
X98986Y-33078D01*
X99243Y-32792D02*
X98843Y-32792D01*
X98957Y-32792D02*
X98900Y-32764D01*
X98871Y-32735D01*
X98843Y-32678D01*
X98843Y-32621D01*
X98843Y-32164D02*
X99329Y-32164D01*
X99386Y-32193D01*
X99414Y-32221D01*
X99443Y-32278D01*
X99443Y-32364D01*
X99414Y-32421D01*
X99214Y-32164D02*
X99243Y-32221D01*
X99243Y-32335D01*
X99214Y-32393D01*
X99186Y-32421D01*
X99129Y-32450D01*
X98957Y-32450D01*
X98900Y-32421D01*
X98871Y-32393D01*
X98843Y-32335D01*
X98843Y-32221D01*
X98871Y-32164D01*
X99214Y-31650D02*
X99243Y-31707D01*
X99243Y-31821D01*
X99214Y-31878D01*
X99157Y-31907D01*
X98929Y-31907D01*
X98871Y-31878D01*
X98843Y-31821D01*
X98843Y-31707D01*
X98871Y-31650D01*
X98929Y-31621D01*
X98986Y-31621D01*
X99043Y-31907D01*
X75772Y-60743D02*
X75772Y-60143D01*
X76000Y-60143D01*
X76058Y-60171D01*
X76086Y-60200D01*
X76115Y-60257D01*
X76115Y-60343D01*
X76086Y-60400D01*
X76058Y-60429D01*
X76000Y-60457D01*
X75772Y-60457D01*
X76686Y-60743D02*
X76343Y-60743D01*
X76515Y-60743D02*
X76515Y-60143D01*
X76458Y-60229D01*
X76400Y-60286D01*
X76343Y-60314D01*
X76886Y-60143D02*
X77286Y-60143D01*
X77029Y-60743D01*
X73886Y-56143D02*
X74086Y-56743D01*
X74286Y-56143D01*
X74572Y-56743D02*
X74514Y-56714D01*
X74486Y-56686D01*
X74457Y-56629D01*
X74457Y-56457D01*
X74486Y-56400D01*
X74514Y-56371D01*
X74572Y-56343D01*
X74657Y-56343D01*
X74714Y-56371D01*
X74743Y-56400D01*
X74772Y-56457D01*
X74772Y-56629D01*
X74743Y-56686D01*
X74714Y-56714D01*
X74657Y-56743D01*
X74572Y-56743D01*
X74972Y-56343D02*
X75115Y-56743D01*
X75257Y-56343D02*
X75115Y-56743D01*
X75057Y-56886D01*
X75029Y-56914D01*
X74972Y-56943D01*
X75743Y-56743D02*
X75743Y-56429D01*
X75714Y-56371D01*
X75657Y-56343D01*
X75543Y-56343D01*
X75486Y-56371D01*
X75743Y-56714D02*
X75686Y-56743D01*
X75543Y-56743D01*
X75486Y-56714D01*
X75457Y-56657D01*
X75457Y-56600D01*
X75486Y-56543D01*
X75543Y-56514D01*
X75686Y-56514D01*
X75743Y-56486D01*
X76029Y-56343D02*
X76029Y-56743D01*
X76029Y-56400D02*
X76057Y-56371D01*
X76115Y-56343D01*
X76200Y-56343D01*
X76257Y-56371D01*
X76286Y-56429D01*
X76286Y-56743D01*
X76486Y-56343D02*
X76715Y-56343D01*
X76572Y-56143D02*
X76572Y-56657D01*
X76600Y-56714D01*
X76658Y-56743D01*
X76715Y-56743D01*
X76772Y-56800D02*
X77229Y-56800D01*
X77629Y-56743D02*
X77629Y-56429D01*
X77600Y-56371D01*
X77543Y-56343D01*
X77429Y-56343D01*
X77372Y-56371D01*
X77629Y-56714D02*
X77572Y-56743D01*
X77429Y-56743D01*
X77372Y-56714D01*
X77343Y-56657D01*
X77343Y-56600D01*
X77372Y-56543D01*
X77429Y-56514D01*
X77572Y-56514D01*
X77629Y-56486D01*
X78001Y-56743D02*
X77943Y-56714D01*
X77915Y-56657D01*
X77915Y-56143D01*
X78229Y-56743D02*
X78229Y-56343D01*
X78229Y-56143D02*
X78200Y-56171D01*
X78229Y-56200D01*
X78257Y-56171D01*
X78229Y-56143D01*
X78229Y-56200D01*
X78515Y-56743D02*
X78515Y-56343D01*
X78515Y-56400D02*
X78543Y-56371D01*
X78601Y-56343D01*
X78686Y-56343D01*
X78743Y-56371D01*
X78772Y-56429D01*
X78772Y-56743D01*
X78772Y-56429D02*
X78801Y-56371D01*
X78858Y-56343D01*
X78943Y-56343D01*
X79001Y-56371D01*
X79029Y-56429D01*
X79029Y-56743D01*
X71772Y-60743D02*
X71772Y-60143D01*
X72000Y-60143D01*
X72058Y-60171D01*
X72086Y-60200D01*
X72115Y-60257D01*
X72115Y-60343D01*
X72086Y-60400D01*
X72058Y-60429D01*
X72000Y-60457D01*
X71772Y-60457D01*
X72686Y-60743D02*
X72343Y-60743D01*
X72515Y-60743D02*
X72515Y-60143D01*
X72458Y-60229D01*
X72400Y-60286D01*
X72343Y-60314D01*
X73029Y-60400D02*
X72971Y-60371D01*
X72943Y-60343D01*
X72914Y-60286D01*
X72914Y-60257D01*
X72943Y-60200D01*
X72971Y-60171D01*
X73029Y-60143D01*
X73143Y-60143D01*
X73200Y-60171D01*
X73229Y-60200D01*
X73257Y-60257D01*
X73257Y-60286D01*
X73229Y-60343D01*
X73200Y-60371D01*
X73143Y-60400D01*
X73029Y-60400D01*
X72971Y-60429D01*
X72943Y-60457D01*
X72914Y-60514D01*
X72914Y-60629D01*
X72943Y-60686D01*
X72971Y-60714D01*
X73029Y-60743D01*
X73143Y-60743D01*
X73200Y-60714D01*
X73229Y-60686D01*
X73257Y-60629D01*
X73257Y-60514D01*
X73229Y-60457D01*
X73200Y-60429D01*
X73143Y-60400D01*
X69272Y-61143D02*
X69472Y-61743D01*
X69672Y-61143D01*
X69958Y-61743D02*
X69900Y-61714D01*
X69872Y-61686D01*
X69843Y-61629D01*
X69843Y-61457D01*
X69872Y-61400D01*
X69900Y-61371D01*
X69958Y-61343D01*
X70043Y-61343D01*
X70100Y-61371D01*
X70129Y-61400D01*
X70158Y-61457D01*
X70158Y-61629D01*
X70129Y-61686D01*
X70100Y-61714D01*
X70043Y-61743D01*
X69958Y-61743D01*
X70358Y-61343D02*
X70501Y-61743D01*
X70643Y-61343D02*
X70501Y-61743D01*
X70443Y-61886D01*
X70415Y-61914D01*
X70358Y-61943D01*
X71129Y-61743D02*
X71129Y-61429D01*
X71100Y-61371D01*
X71043Y-61343D01*
X70929Y-61343D01*
X70872Y-61371D01*
X71129Y-61714D02*
X71072Y-61743D01*
X70929Y-61743D01*
X70872Y-61714D01*
X70843Y-61657D01*
X70843Y-61600D01*
X70872Y-61543D01*
X70929Y-61514D01*
X71072Y-61514D01*
X71129Y-61486D01*
X71415Y-61343D02*
X71415Y-61743D01*
X71415Y-61400D02*
X71443Y-61371D01*
X71501Y-61343D01*
X71586Y-61343D01*
X71643Y-61371D01*
X71672Y-61429D01*
X71672Y-61743D01*
X71872Y-61343D02*
X72101Y-61343D01*
X71958Y-61143D02*
X71958Y-61657D01*
X71986Y-61714D01*
X72044Y-61743D01*
X72101Y-61743D01*
X72158Y-61800D02*
X72615Y-61800D01*
X72729Y-61714D02*
X72786Y-61743D01*
X72901Y-61743D01*
X72958Y-61714D01*
X72986Y-61657D01*
X72986Y-61629D01*
X72958Y-61571D01*
X72901Y-61543D01*
X72815Y-61543D01*
X72758Y-61514D01*
X72729Y-61457D01*
X72729Y-61429D01*
X72758Y-61371D01*
X72815Y-61343D01*
X72901Y-61343D01*
X72958Y-61371D01*
X73472Y-61714D02*
X73415Y-61743D01*
X73301Y-61743D01*
X73244Y-61714D01*
X73215Y-61657D01*
X73215Y-61429D01*
X73244Y-61371D01*
X73301Y-61343D01*
X73415Y-61343D01*
X73472Y-61371D01*
X73501Y-61429D01*
X73501Y-61486D01*
X73215Y-61543D01*
X74015Y-61343D02*
X74015Y-61743D01*
X73758Y-61343D02*
X73758Y-61657D01*
X73786Y-61714D01*
X73844Y-61743D01*
X73929Y-61743D01*
X73986Y-61714D01*
X74015Y-61686D01*
X74301Y-61743D02*
X74301Y-61343D01*
X74301Y-61143D02*
X74272Y-61171D01*
X74301Y-61200D01*
X74329Y-61171D01*
X74301Y-61143D01*
X74301Y-61200D01*
X74673Y-61743D02*
X74615Y-61714D01*
X74587Y-61657D01*
X74587Y-61143D01*
X74758Y-61800D02*
X75215Y-61800D01*
X75472Y-61143D02*
X75529Y-61143D01*
X75586Y-61171D01*
X75615Y-61200D01*
X75644Y-61257D01*
X75672Y-61371D01*
X75672Y-61514D01*
X75644Y-61629D01*
X75615Y-61686D01*
X75586Y-61714D01*
X75529Y-61743D01*
X75472Y-61743D01*
X75415Y-61714D01*
X75386Y-61686D01*
X75358Y-61629D01*
X75329Y-61514D01*
X75329Y-61371D01*
X75358Y-61257D01*
X75386Y-61200D01*
X75415Y-61171D01*
X75472Y-61143D01*
%LPC*%
G54D17*
X60750Y-52250D03*
X60750Y-51250D03*
X60750Y-50250D03*
X60750Y-44250D03*
X60750Y-42250D03*
X54750Y-42250D03*
X54750Y-44250D03*
X54750Y-50250D03*
X54750Y-51250D03*
G54D18*
X83250Y-26750D03*
G54D17*
X83250Y-27750D03*
X84250Y-27750D03*
G54D18*
X83250Y-20750D03*
G54D17*
X83250Y-21750D03*
X84250Y-21750D03*
G54D18*
X83250Y-38750D03*
G54D17*
X83250Y-39750D03*
X84250Y-39750D03*
G54D19*
X66000Y-19750D03*
X65000Y-23750D03*
X64000Y-19750D03*
X57500Y-26500D03*
X53500Y-25500D03*
X57500Y-24500D03*
X57500Y-23250D03*
X53500Y-22250D03*
X57500Y-21250D03*
X57500Y-33000D03*
X53500Y-32000D03*
X57500Y-31000D03*
X57500Y-29750D03*
X53500Y-28750D03*
X57500Y-27750D03*
X57500Y-36250D03*
X53500Y-35250D03*
X57500Y-34250D03*
X69250Y-19750D03*
X68250Y-23750D03*
X67250Y-19750D03*
X57500Y-39500D03*
X53500Y-38500D03*
X57500Y-37500D03*
G54D20*
X87500Y-51250D03*
G54D21*
X87500Y-54250D03*
X93996Y-54250D03*
X96752Y-54250D03*
X95374Y-51250D03*
G54D20*
X87500Y-33250D03*
G54D21*
X87500Y-36250D03*
X93996Y-36250D03*
X96752Y-36250D03*
X95374Y-33250D03*
G54D20*
X87500Y-39250D03*
G54D21*
X87500Y-42250D03*
X93996Y-42250D03*
X96752Y-42250D03*
X95374Y-39250D03*
G54D20*
X87500Y-21250D03*
G54D21*
X87500Y-24250D03*
X93996Y-24250D03*
X96752Y-24250D03*
X95374Y-21250D03*
G54D20*
X87500Y-27250D03*
G54D21*
X87500Y-30250D03*
X93996Y-30250D03*
X96752Y-30250D03*
X95374Y-27250D03*
G54D17*
X62750Y-54750D03*
X69750Y-54750D03*
X67500Y-40500D03*
X70500Y-40500D03*
G54D22*
X64500Y-51500D03*
X70500Y-51500D03*
X64500Y-43500D03*
X67500Y-43500D03*
G54D23*
X70500Y-43500D03*
G54D22*
X51500Y-32750D03*
X51500Y-31750D03*
X51500Y-33750D03*
X51500Y-34750D03*
X51500Y-30750D03*
X51500Y-29750D03*
G54D23*
X51500Y-27750D03*
G54D22*
X51500Y-28750D03*
G54D24*
X66250Y-36000D03*
G54D25*
X66250Y-35000D03*
X66250Y-34000D03*
X66250Y-33000D03*
X66250Y-32000D03*
X66250Y-31000D03*
X66250Y-30000D03*
X63250Y-30000D03*
X63250Y-31000D03*
X63250Y-32000D03*
X63250Y-33000D03*
X63250Y-34000D03*
X63250Y-35000D03*
X63250Y-36000D03*
G54D22*
X80000Y-28750D03*
G54D23*
X80000Y-24750D03*
G54D22*
X85750Y-26750D03*
G54D23*
X85750Y-30750D03*
G54D22*
X85750Y-20750D03*
G54D23*
X85750Y-24750D03*
G54D22*
X85750Y-50750D03*
G54D23*
X85750Y-54750D03*
G54D22*
X85750Y-38750D03*
G54D23*
X85750Y-42750D03*
G54D18*
X60500Y-54750D03*
G54D26*
X60500Y-55750D03*
G54D18*
X70000Y-33000D03*
G54D17*
X70000Y-34000D03*
G54D26*
X57500Y-54750D03*
X57500Y-55750D03*
G54D17*
X68250Y-33000D03*
X68250Y-34000D03*
G54D22*
X85750Y-44750D03*
G54D23*
X85750Y-48750D03*
G54D18*
X74000Y-23500D03*
G54D17*
X73000Y-23500D03*
X73000Y-24500D03*
G54D19*
X62750Y-19750D03*
X61750Y-23750D03*
X60750Y-19750D03*
G54D17*
X84500Y-24750D03*
X81500Y-24750D03*
X78500Y-24250D03*
X75500Y-24250D03*
X84500Y-36750D03*
X81500Y-36750D03*
G54D22*
X93750Y-57000D03*
G54D23*
X89750Y-57000D03*
G54D22*
X93750Y-60250D03*
G54D23*
X89750Y-60250D03*
G54D20*
X87500Y-45250D03*
G54D21*
X87500Y-48250D03*
X93500Y-45250D03*
X93500Y-48250D03*
X95500Y-45250D03*
X95500Y-48250D03*
X97500Y-45250D03*
X97500Y-48250D03*
G54D18*
X83250Y-32750D03*
G54D17*
X83250Y-33750D03*
X84250Y-33750D03*
G54D18*
X80000Y-20750D03*
G54D17*
X80000Y-21750D03*
X81000Y-21750D03*
X75500Y-23250D03*
X78500Y-23250D03*
X84500Y-42750D03*
X81500Y-42750D03*
X71250Y-23500D03*
X71250Y-26500D03*
X84500Y-30750D03*
X81500Y-30750D03*
G54D24*
X74000Y-30000D03*
G54D25*
X74000Y-31000D03*
X74000Y-32000D03*
X74000Y-33000D03*
X74000Y-34000D03*
X74000Y-35000D03*
X74000Y-36000D03*
X77000Y-36000D03*
X77000Y-35000D03*
X77000Y-34000D03*
X77000Y-33000D03*
X77000Y-32000D03*
X77000Y-31000D03*
X77000Y-30000D03*
G54D24*
X74000Y-38500D03*
G54D25*
X74000Y-39500D03*
X74000Y-40500D03*
X74000Y-41500D03*
X74000Y-42500D03*
X74000Y-43500D03*
X74000Y-44500D03*
X77000Y-44500D03*
X77000Y-43500D03*
X77000Y-42500D03*
X77000Y-41500D03*
X77000Y-40500D03*
X77000Y-39500D03*
X77000Y-38500D03*
G54D22*
X85750Y-32750D03*
G54D23*
X85750Y-36750D03*
G54D18*
X82500Y-47000D03*
G54D17*
X82500Y-45000D03*
G54D18*
X79500Y-49250D03*
G54D17*
X79500Y-48250D03*
X76000Y-48250D03*
X75000Y-48250D03*
G54D18*
X76000Y-26250D03*
G54D17*
X75000Y-26250D03*
X76000Y-46500D03*
X75000Y-46500D03*
X76000Y-28000D03*
X75000Y-28000D03*
X77500Y-49250D03*
X77500Y-48250D03*
X79500Y-46250D03*
X79500Y-45250D03*
G54D27*
X96500Y-60000D03*
X96500Y-18750D03*
X52000Y-18750D03*
X52000Y-60000D03*
G54D28*
X82500Y-55750D03*
G54D17*
X83500Y-49250D03*
G54D23*
X82500Y-49250D03*
G54D17*
X81500Y-49250D03*
G54D29*
X101000Y-54250D03*
G54D30*
X101000Y-56250D03*
G54D29*
X101000Y-26250D03*
G54D30*
X101000Y-28250D03*
G54D29*
X101000Y-50250D03*
G54D30*
X101000Y-52250D03*
G54D29*
X101000Y-18250D03*
G54D30*
X101000Y-20250D03*
G54D29*
X67500Y-58500D03*
G54D30*
X65500Y-58500D03*
G54D29*
X101000Y-58250D03*
G54D30*
X101000Y-60250D03*
G54D29*
X72500Y-18500D03*
G54D30*
X74500Y-18500D03*
G54D29*
X91750Y-18500D03*
G54D30*
X93750Y-18500D03*
G54D29*
X101000Y-46250D03*
G54D30*
X101000Y-48250D03*
G54D29*
X101000Y-22250D03*
G54D30*
X101000Y-24250D03*
G54D29*
X101000Y-30250D03*
G54D30*
X101000Y-32250D03*
G54D29*
X76500Y-18500D03*
G54D30*
X78500Y-18500D03*
G54D29*
X101000Y-42250D03*
G54D30*
X101000Y-44250D03*
G54D29*
X101000Y-38250D03*
G54D30*
X101000Y-40250D03*
G54D29*
X101000Y-34250D03*
G54D30*
X101000Y-36250D03*
G54D29*
X77500Y-58500D03*
G54D30*
X75500Y-58500D03*
G54D29*
X73500Y-58500D03*
G54D30*
X71500Y-58500D03*
G54D22*
X81000Y-19750D03*
X70500Y-19750D03*
X78000Y-43250D03*
X79750Y-34250D03*
X72750Y-32000D03*
X80500Y-42750D03*
X78250Y-36000D03*
X67500Y-27750D03*
X78250Y-40500D03*
X64000Y-28000D03*
X78750Y-30000D03*
X67250Y-37000D03*
X78500Y-22250D03*
X62000Y-32250D03*
X74000Y-27000D03*
X70000Y-35250D03*
X79250Y-51500D03*
X72000Y-36500D03*
X80500Y-43750D03*
M02*
