G04 (created by PCBNEW-RS274X (2011-04-29 BZR 2986)-stable) date 21/02/2012 16:57:22*
G01*
G70*
G90*
%MOIN*%
G04 Gerber Fmt 3.4, Leading zero omitted, Abs format*
%FSLAX34Y34*%
G04 APERTURE LIST*
%ADD10C,0.006000*%
%ADD11C,0.012000*%
%ADD12C,0.075000*%
%ADD13R,0.090000X0.062000*%
%ADD14O,0.090000X0.062000*%
%ADD15O,0.062000X0.090000*%
%ADD16R,0.062000X0.090000*%
%ADD17C,0.070000*%
%ADD18R,0.075000X0.075000*%
%ADD19O,0.060000X0.090000*%
%ADD20C,0.128000*%
%ADD21C,0.250000*%
%ADD22C,0.215000*%
%ADD23R,0.070000X0.070000*%
%ADD24C,0.055000*%
%ADD25C,0.050000*%
%ADD26C,0.035000*%
%ADD27C,0.017000*%
%ADD28C,0.030000*%
%ADD29C,0.020000*%
G04 APERTURE END LIST*
G54D10*
G54D11*
X21498Y-35365D02*
X21536Y-35336D01*
X21574Y-35250D01*
X21574Y-35193D01*
X21536Y-35108D01*
X21460Y-35050D01*
X21383Y-35022D01*
X21231Y-34993D01*
X21117Y-34993D01*
X20964Y-35022D01*
X20888Y-35050D01*
X20812Y-35108D01*
X20774Y-35193D01*
X20774Y-35250D01*
X20812Y-35336D01*
X20850Y-35365D01*
X21345Y-35593D02*
X21345Y-35879D01*
X21574Y-35536D02*
X20774Y-35736D01*
X21574Y-35936D01*
X21574Y-36136D02*
X20774Y-36136D01*
X21574Y-36479D01*
X20774Y-36479D01*
X21498Y-44615D02*
X21536Y-44586D01*
X21574Y-44500D01*
X21574Y-44443D01*
X21536Y-44358D01*
X21460Y-44300D01*
X21383Y-44272D01*
X21231Y-44243D01*
X21117Y-44243D01*
X20964Y-44272D01*
X20888Y-44300D01*
X20812Y-44358D01*
X20774Y-44443D01*
X20774Y-44500D01*
X20812Y-44586D01*
X20850Y-44615D01*
X21345Y-44843D02*
X21345Y-45129D01*
X21574Y-44786D02*
X20774Y-44986D01*
X21574Y-45186D01*
X21574Y-45386D02*
X20774Y-45386D01*
X21574Y-45729D01*
X20774Y-45729D01*
X21345Y-30878D02*
X21345Y-31164D01*
X21574Y-30821D02*
X20774Y-31021D01*
X21574Y-31221D01*
X21574Y-31707D02*
X21574Y-31421D01*
X20774Y-31421D01*
X21574Y-31907D02*
X20774Y-31907D01*
X21574Y-32193D02*
X20774Y-32193D01*
X21345Y-32393D01*
X20774Y-32593D01*
X21574Y-32593D01*
X51824Y-27294D02*
X51443Y-27094D01*
X51824Y-26951D02*
X51024Y-26951D01*
X51024Y-27179D01*
X51062Y-27237D01*
X51100Y-27265D01*
X51176Y-27294D01*
X51290Y-27294D01*
X51367Y-27265D01*
X51405Y-27237D01*
X51443Y-27179D01*
X51443Y-26951D01*
X51786Y-27522D02*
X51824Y-27608D01*
X51824Y-27751D01*
X51786Y-27808D01*
X51748Y-27837D01*
X51671Y-27865D01*
X51595Y-27865D01*
X51519Y-27837D01*
X51481Y-27808D01*
X51443Y-27751D01*
X51405Y-27637D01*
X51367Y-27579D01*
X51329Y-27551D01*
X51252Y-27522D01*
X51176Y-27522D01*
X51100Y-27551D01*
X51062Y-27579D01*
X51024Y-27637D01*
X51024Y-27779D01*
X51062Y-27865D01*
X51100Y-28093D02*
X51062Y-28122D01*
X51024Y-28179D01*
X51024Y-28322D01*
X51062Y-28379D01*
X51100Y-28408D01*
X51176Y-28436D01*
X51252Y-28436D01*
X51367Y-28408D01*
X51824Y-28065D01*
X51824Y-28436D01*
X51024Y-28636D02*
X51024Y-29007D01*
X51329Y-28807D01*
X51329Y-28893D01*
X51367Y-28950D01*
X51405Y-28979D01*
X51481Y-29007D01*
X51671Y-29007D01*
X51748Y-28979D01*
X51786Y-28950D01*
X51824Y-28893D01*
X51824Y-28721D01*
X51786Y-28664D01*
X51748Y-28636D01*
X51100Y-29235D02*
X51062Y-29264D01*
X51024Y-29321D01*
X51024Y-29464D01*
X51062Y-29521D01*
X51100Y-29550D01*
X51176Y-29578D01*
X51252Y-29578D01*
X51367Y-29550D01*
X51824Y-29207D01*
X51824Y-29578D01*
X21345Y-40128D02*
X21345Y-40414D01*
X21574Y-40071D02*
X20774Y-40271D01*
X21574Y-40471D01*
X21574Y-40957D02*
X21574Y-40671D01*
X20774Y-40671D01*
X21574Y-41157D02*
X20774Y-41157D01*
X21574Y-41443D02*
X20774Y-41443D01*
X21345Y-41643D01*
X20774Y-41843D01*
X21574Y-41843D01*
X27221Y-50155D02*
X27021Y-50155D01*
X26935Y-50574D02*
X27221Y-50574D01*
X27221Y-49774D01*
X26935Y-49774D01*
X26678Y-50574D02*
X26678Y-49774D01*
X26450Y-49774D01*
X26392Y-49812D01*
X26364Y-49850D01*
X26335Y-49926D01*
X26335Y-50040D01*
X26364Y-50117D01*
X26392Y-50155D01*
X26450Y-50193D01*
X26678Y-50193D01*
X26107Y-50536D02*
X26021Y-50574D01*
X25878Y-50574D01*
X25821Y-50536D01*
X25792Y-50498D01*
X25764Y-50421D01*
X25764Y-50345D01*
X25792Y-50269D01*
X25821Y-50231D01*
X25878Y-50193D01*
X25992Y-50155D01*
X26050Y-50117D01*
X26078Y-50079D01*
X26107Y-50002D01*
X26107Y-49926D01*
X26078Y-49850D01*
X26050Y-49812D01*
X25992Y-49774D01*
X25850Y-49774D01*
X25764Y-49812D01*
X25536Y-50345D02*
X25250Y-50345D01*
X25593Y-50574D02*
X25393Y-49774D01*
X25193Y-50574D01*
X28007Y-51052D02*
X28064Y-51014D01*
X28150Y-51014D01*
X28235Y-51052D01*
X28293Y-51128D01*
X28321Y-51204D01*
X28350Y-51357D01*
X28350Y-51471D01*
X28321Y-51623D01*
X28293Y-51700D01*
X28235Y-51776D01*
X28150Y-51814D01*
X28093Y-51814D01*
X28007Y-51776D01*
X27978Y-51738D01*
X27978Y-51471D01*
X28093Y-51471D01*
X27493Y-51776D02*
X27550Y-51814D01*
X27664Y-51814D01*
X27721Y-51776D01*
X27750Y-51700D01*
X27750Y-51395D01*
X27721Y-51319D01*
X27664Y-51280D01*
X27550Y-51280D01*
X27493Y-51319D01*
X27464Y-51395D01*
X27464Y-51471D01*
X27750Y-51547D01*
X27550Y-50976D02*
X27635Y-51090D01*
X27207Y-51280D02*
X27207Y-51814D01*
X27207Y-51357D02*
X27179Y-51319D01*
X27121Y-51280D01*
X27036Y-51280D01*
X26979Y-51319D01*
X26950Y-51395D01*
X26950Y-51814D01*
X26436Y-51776D02*
X26493Y-51814D01*
X26607Y-51814D01*
X26664Y-51776D01*
X26693Y-51700D01*
X26693Y-51395D01*
X26664Y-51319D01*
X26607Y-51280D01*
X26493Y-51280D01*
X26436Y-51319D01*
X26407Y-51395D01*
X26407Y-51471D01*
X26693Y-51547D01*
X26493Y-50976D02*
X26578Y-51090D01*
X26150Y-51814D02*
X26150Y-51280D01*
X26150Y-51433D02*
X26122Y-51357D01*
X26093Y-51319D01*
X26036Y-51280D01*
X25979Y-51280D01*
X25779Y-51814D02*
X25779Y-51280D01*
X25779Y-51014D02*
X25808Y-51052D01*
X25779Y-51090D01*
X25751Y-51052D01*
X25779Y-51014D01*
X25779Y-51090D01*
X25236Y-51280D02*
X25236Y-52080D01*
X25236Y-51776D02*
X25293Y-51814D01*
X25407Y-51814D01*
X25465Y-51776D01*
X25493Y-51738D01*
X25522Y-51661D01*
X25522Y-51433D01*
X25493Y-51357D01*
X25465Y-51319D01*
X25407Y-51280D01*
X25293Y-51280D01*
X25236Y-51319D01*
X24693Y-51280D02*
X24693Y-51814D01*
X24950Y-51280D02*
X24950Y-51700D01*
X24922Y-51776D01*
X24864Y-51814D01*
X24779Y-51814D01*
X24722Y-51776D01*
X24693Y-51738D01*
X24179Y-51776D02*
X24236Y-51814D01*
X24350Y-51814D01*
X24407Y-51776D01*
X24436Y-51700D01*
X24436Y-51395D01*
X24407Y-51319D01*
X24350Y-51280D01*
X24236Y-51280D01*
X24179Y-51319D01*
X24150Y-51395D01*
X24150Y-51471D01*
X24436Y-51547D01*
G54D12*
X41500Y-43750D03*
X43500Y-43750D03*
G54D13*
X36750Y-31250D03*
G54D14*
X36750Y-30250D03*
X36750Y-29250D03*
X36750Y-28250D03*
X33750Y-28250D03*
X33750Y-29250D03*
X33750Y-30250D03*
X33750Y-31250D03*
G54D13*
X44750Y-26750D03*
G54D14*
X44750Y-27750D03*
X44750Y-28750D03*
X44750Y-29750D03*
X44750Y-30750D03*
X44750Y-31750D03*
X44750Y-32750D03*
X44750Y-33750D03*
X47750Y-33750D03*
X47750Y-32750D03*
X47750Y-31750D03*
X47750Y-30750D03*
X47750Y-29750D03*
X47750Y-28750D03*
X47750Y-27750D03*
X47750Y-26750D03*
G54D15*
X35000Y-42000D03*
X36000Y-42000D03*
X37000Y-42000D03*
X38000Y-42000D03*
X39000Y-42000D03*
X40000Y-42000D03*
X41000Y-42000D03*
X42000Y-42000D03*
X43000Y-42000D03*
X44000Y-42000D03*
X45000Y-42000D03*
X46000Y-42000D03*
X47000Y-42000D03*
G54D16*
X34000Y-42000D03*
G54D15*
X47000Y-39000D03*
X46000Y-39000D03*
X45000Y-39000D03*
X44000Y-39000D03*
X43000Y-39000D03*
X42000Y-39000D03*
X41000Y-39000D03*
X40000Y-39000D03*
X39000Y-39000D03*
X38000Y-39000D03*
X37000Y-39000D03*
X36000Y-39000D03*
X35000Y-39000D03*
X34000Y-39000D03*
G54D17*
X27750Y-41250D03*
X27750Y-42250D03*
X28000Y-36250D03*
X28000Y-37250D03*
X46250Y-24750D03*
X46250Y-23750D03*
X38500Y-30000D03*
X38500Y-31000D03*
X41750Y-45500D03*
X40750Y-45500D03*
X43250Y-45500D03*
X44250Y-45500D03*
X42000Y-35500D03*
X43000Y-35500D03*
X27500Y-45500D03*
X27500Y-48500D03*
X33750Y-45500D03*
X36750Y-45500D03*
X32500Y-28250D03*
X32500Y-31250D03*
X34000Y-43250D03*
X31000Y-43250D03*
G54D18*
X31000Y-45500D03*
G54D12*
X32000Y-45500D03*
G54D19*
X21500Y-25000D03*
X22500Y-25000D03*
X23500Y-25000D03*
X22000Y-26000D03*
X23000Y-26000D03*
X24000Y-26000D03*
G54D20*
X21000Y-22500D03*
X25000Y-22500D03*
G54D21*
X50000Y-22500D03*
X50000Y-50000D03*
X22500Y-50000D03*
G54D22*
X30750Y-50000D03*
X41750Y-50000D03*
G54D18*
X34250Y-50500D03*
G54D12*
X34250Y-49500D03*
X35250Y-50500D03*
X35250Y-49500D03*
X36250Y-50500D03*
X36250Y-49500D03*
X37250Y-50500D03*
X37250Y-49500D03*
X38250Y-50500D03*
X38250Y-49500D03*
G54D22*
X41750Y-22500D03*
X30750Y-22500D03*
G54D18*
X38250Y-22000D03*
G54D12*
X38250Y-23000D03*
X37250Y-22000D03*
X37250Y-23000D03*
X36250Y-22000D03*
X36250Y-23000D03*
X35250Y-22000D03*
X35250Y-23000D03*
X34250Y-22000D03*
X34250Y-23000D03*
G54D18*
X49500Y-29750D03*
G54D12*
X49500Y-28750D03*
X49500Y-27750D03*
X49500Y-26750D03*
G54D18*
X24750Y-29250D03*
G54D12*
X24750Y-30250D03*
G54D18*
X24750Y-31250D03*
G54D12*
X24750Y-32250D03*
G54D18*
X24750Y-33250D03*
G54D12*
X24750Y-34250D03*
G54D18*
X24750Y-44500D03*
G54D12*
X24750Y-45500D03*
G54D18*
X24750Y-42500D03*
G54D12*
X24750Y-43500D03*
G54D18*
X24750Y-40500D03*
G54D12*
X24750Y-41500D03*
G54D18*
X24750Y-38500D03*
G54D12*
X24750Y-39500D03*
G54D18*
X24750Y-35250D03*
G54D12*
X24750Y-36250D03*
G54D18*
X24750Y-47500D03*
G54D12*
X25750Y-47500D03*
G54D18*
X29750Y-40500D03*
G54D12*
X29750Y-39500D03*
X29750Y-37500D03*
X29750Y-35500D03*
G54D23*
X38500Y-28750D03*
G54D17*
X38500Y-27750D03*
G54D23*
X47750Y-24750D03*
G54D17*
X48750Y-24750D03*
G54D23*
X43000Y-27500D03*
G54D17*
X43000Y-28500D03*
G54D23*
X43000Y-29750D03*
G54D17*
X43000Y-30750D03*
G54D23*
X42000Y-37250D03*
G54D17*
X43000Y-37250D03*
G54D23*
X43500Y-25750D03*
G54D17*
X42500Y-25750D03*
G54D23*
X43000Y-33000D03*
G54D17*
X43000Y-32000D03*
G54D23*
X28000Y-34750D03*
G54D17*
X28000Y-33750D03*
G54D23*
X27750Y-39750D03*
G54D17*
X27750Y-38750D03*
G54D24*
X37250Y-47500D03*
G54D25*
X25750Y-34000D03*
X26750Y-28750D03*
X36000Y-26250D03*
X48000Y-37250D03*
X47000Y-49250D03*
G54D24*
X27500Y-30250D03*
G54D26*
X24750Y-38500D02*
X23000Y-38500D01*
X24750Y-40500D02*
X23000Y-40500D01*
X24750Y-42500D02*
X24000Y-42500D01*
X24000Y-42500D02*
X23000Y-41500D01*
X27750Y-39750D02*
X27750Y-40500D01*
X23000Y-31250D02*
X23000Y-33250D01*
X23000Y-33250D02*
X23000Y-38500D01*
X37250Y-49500D02*
X37250Y-47500D01*
X24750Y-33250D02*
X23000Y-33250D01*
X24750Y-31250D02*
X23000Y-31250D01*
X24750Y-29250D02*
X23750Y-29250D01*
X23750Y-29250D02*
X23000Y-30000D01*
X23000Y-30000D02*
X23000Y-31250D01*
X23000Y-38500D02*
X23000Y-40500D01*
X23000Y-40500D02*
X23000Y-41500D01*
X29750Y-40500D02*
X27750Y-40500D01*
X27750Y-40500D02*
X27750Y-41250D01*
G54D27*
X24750Y-44500D02*
X25750Y-44500D01*
X25750Y-44500D02*
X26250Y-44000D01*
X26250Y-35750D02*
X25750Y-35250D01*
X25750Y-35250D02*
X25750Y-34000D01*
X26250Y-44000D02*
X26250Y-35750D01*
X24750Y-35250D02*
X25750Y-35250D01*
X36250Y-28250D02*
X36750Y-28250D01*
X38000Y-39000D02*
X38000Y-34250D01*
X35750Y-28750D02*
X36250Y-28250D01*
X38000Y-34250D02*
X35750Y-32000D01*
X35750Y-32000D02*
X35750Y-28750D01*
X39000Y-39000D02*
X39000Y-33500D01*
X39000Y-33500D02*
X36750Y-31250D01*
X34000Y-41250D02*
X32250Y-39500D01*
X32250Y-34250D02*
X32250Y-39500D01*
X32250Y-34250D02*
X26750Y-28750D01*
X34000Y-43250D02*
X34000Y-42000D01*
X34000Y-42000D02*
X34000Y-41250D01*
X39250Y-22500D02*
X38750Y-22000D01*
X38750Y-22000D02*
X38250Y-22000D01*
X36000Y-26250D02*
X37500Y-26250D01*
X37500Y-26250D02*
X39250Y-24500D01*
X39250Y-24500D02*
X39250Y-22500D01*
X38250Y-24000D02*
X38250Y-23000D01*
X34750Y-35500D02*
X34750Y-26500D01*
X36000Y-25250D02*
X37000Y-25250D01*
X34750Y-26500D02*
X36000Y-25250D01*
X36000Y-41000D02*
X36500Y-40500D01*
X37000Y-25250D02*
X38250Y-24000D01*
X36500Y-37250D02*
X34750Y-35500D01*
X36500Y-40500D02*
X36500Y-37250D01*
X36000Y-42000D02*
X36000Y-41000D01*
X33250Y-47250D02*
X33250Y-50000D01*
X33250Y-50000D02*
X33750Y-50500D01*
X37000Y-43500D02*
X33250Y-47250D01*
X37000Y-42000D02*
X37000Y-43500D01*
X33750Y-50500D02*
X34250Y-50500D01*
X34250Y-46750D02*
X34250Y-49500D01*
X38000Y-42000D02*
X38000Y-43000D01*
X38000Y-43000D02*
X34250Y-46750D01*
X39000Y-41250D02*
X39000Y-42000D01*
X35250Y-35250D02*
X37500Y-37500D01*
X37500Y-37500D02*
X37500Y-39750D01*
X37500Y-39750D02*
X39000Y-41250D01*
X37250Y-27000D02*
X36250Y-27000D01*
X39750Y-24500D02*
X37250Y-27000D01*
X39750Y-22000D02*
X39750Y-24500D01*
X37250Y-22000D02*
X37250Y-21500D01*
X36250Y-27000D02*
X35250Y-28000D01*
X35250Y-28000D02*
X35250Y-35250D01*
X37250Y-21500D02*
X37500Y-21250D01*
X37500Y-21250D02*
X39000Y-21250D01*
X39000Y-21250D02*
X39750Y-22000D01*
X32750Y-39500D02*
X33750Y-40500D01*
X33750Y-40500D02*
X35250Y-40500D01*
X35250Y-40500D02*
X36000Y-39750D01*
X23000Y-28250D02*
X27000Y-28250D01*
X21500Y-25000D02*
X21500Y-26750D01*
X21500Y-26750D02*
X23000Y-28250D01*
X36000Y-39750D02*
X36000Y-39000D01*
X32750Y-39500D02*
X32750Y-34000D01*
X32750Y-34000D02*
X27000Y-28250D01*
X22000Y-26000D02*
X22000Y-26750D01*
X35000Y-39000D02*
X35000Y-39500D01*
X33250Y-39500D02*
X33750Y-40000D01*
X22000Y-26750D02*
X23000Y-27750D01*
X35000Y-39500D02*
X34500Y-40000D01*
X27000Y-27750D02*
X33250Y-34000D01*
X33250Y-34000D02*
X33250Y-39500D01*
X23000Y-27750D02*
X27000Y-27750D01*
X33750Y-40000D02*
X34500Y-40000D01*
X23000Y-27250D02*
X27000Y-27250D01*
X22500Y-26750D02*
X22500Y-25000D01*
X22500Y-26750D02*
X23000Y-27250D01*
X34000Y-39000D02*
X34000Y-34250D01*
X27000Y-27250D02*
X34000Y-34250D01*
X45000Y-42500D02*
X45500Y-43000D01*
X45500Y-46250D02*
X45500Y-43000D01*
X45000Y-42000D02*
X45000Y-42500D01*
X36625Y-46875D02*
X44875Y-46875D01*
X45500Y-46250D02*
X44875Y-46875D01*
X36625Y-46875D02*
X35250Y-48250D01*
X35250Y-49500D02*
X35250Y-48250D01*
X48000Y-39500D02*
X48000Y-37250D01*
X48000Y-39500D02*
X46000Y-41500D01*
X46000Y-41500D02*
X46000Y-42000D01*
X47000Y-42000D02*
X47000Y-49250D01*
X46750Y-30750D02*
X47750Y-30750D01*
X44000Y-39000D02*
X44000Y-36500D01*
X46000Y-34500D02*
X46000Y-31500D01*
X46000Y-31500D02*
X46750Y-30750D01*
X44000Y-36500D02*
X46000Y-34500D01*
X46500Y-34750D02*
X46500Y-32250D01*
X45000Y-36250D02*
X46500Y-34750D01*
X46500Y-32250D02*
X47000Y-31750D01*
X45000Y-39000D02*
X45000Y-36250D01*
X47000Y-31750D02*
X47750Y-31750D01*
G54D28*
X24750Y-43500D02*
X25250Y-43500D01*
X25250Y-46500D02*
X23750Y-46500D01*
X25750Y-47000D02*
X25250Y-46500D01*
X24750Y-39500D02*
X25750Y-39500D01*
X23750Y-34750D02*
X23750Y-36500D01*
X25750Y-47500D02*
X25750Y-47000D01*
X25750Y-38000D02*
X25000Y-37250D01*
X24250Y-34250D02*
X24750Y-34250D01*
X24500Y-37250D02*
X25000Y-37250D01*
X23750Y-36500D02*
X24500Y-37250D01*
X26000Y-31750D02*
X25500Y-32250D01*
X25500Y-30250D02*
X26000Y-30750D01*
X23000Y-26250D02*
X23500Y-26750D01*
X23500Y-26750D02*
X30500Y-26750D01*
X30500Y-26750D02*
X34250Y-23000D01*
X23000Y-26000D02*
X23000Y-26250D01*
X26000Y-30750D02*
X26000Y-31750D01*
X24750Y-41500D02*
X25750Y-41500D01*
X25750Y-41500D02*
X25750Y-43000D01*
X25250Y-43500D02*
X25750Y-43000D01*
X25500Y-32250D02*
X24750Y-32250D01*
X24750Y-30250D02*
X25500Y-30250D01*
X23000Y-44250D02*
X23000Y-45750D01*
X24750Y-43500D02*
X23750Y-43500D01*
X23000Y-45750D02*
X23750Y-46500D01*
X23750Y-43500D02*
X23000Y-44250D01*
X25750Y-39500D02*
X25750Y-38000D01*
X24250Y-34250D02*
X23750Y-34750D01*
X49500Y-27750D02*
X47750Y-27750D01*
X25750Y-41500D02*
X25750Y-39500D01*
G54D27*
X43750Y-28500D02*
X44000Y-28750D01*
X44000Y-28750D02*
X44750Y-28750D01*
X43000Y-28500D02*
X43750Y-28500D01*
X43500Y-27500D02*
X43000Y-27500D01*
X44250Y-26750D02*
X43500Y-27500D01*
X44750Y-26750D02*
X44250Y-26750D01*
X44750Y-30750D02*
X43000Y-30750D01*
X43000Y-29750D02*
X44750Y-29750D01*
X44000Y-31750D02*
X43750Y-32000D01*
X43750Y-32000D02*
X43000Y-32000D01*
X44750Y-31750D02*
X44000Y-31750D01*
X43500Y-25750D02*
X45250Y-25750D01*
X45750Y-26250D02*
X45750Y-27250D01*
X45250Y-27750D02*
X44750Y-27750D01*
X45750Y-27250D02*
X45250Y-27750D01*
X45250Y-25750D02*
X45750Y-26250D01*
X47750Y-28750D02*
X49500Y-28750D01*
X43000Y-42000D02*
X43000Y-43750D01*
X43000Y-43750D02*
X43000Y-45250D01*
X43500Y-43750D02*
X43000Y-43750D01*
X43000Y-45250D02*
X43250Y-45500D01*
X41500Y-43750D02*
X42000Y-43750D01*
X42000Y-42000D02*
X42000Y-43750D01*
X42000Y-43750D02*
X42000Y-45250D01*
X42000Y-45250D02*
X41750Y-45500D01*
X49500Y-29750D02*
X47750Y-29750D01*
X33750Y-31250D02*
X32500Y-31250D01*
G54D26*
X25250Y-48500D02*
X24750Y-48000D01*
X27500Y-48500D02*
X25250Y-48500D01*
X24750Y-48000D02*
X24750Y-47500D01*
X32000Y-45500D02*
X33750Y-45500D01*
X29750Y-35500D02*
X31000Y-35500D01*
X31000Y-45500D02*
X27500Y-45500D01*
X31000Y-45500D02*
X31000Y-47500D01*
X31000Y-47500D02*
X32500Y-49000D01*
X31000Y-43250D02*
X31000Y-45500D01*
X32500Y-50500D02*
X32500Y-49000D01*
X37750Y-51500D02*
X33500Y-51500D01*
X32500Y-50500D02*
X33500Y-51500D01*
X38250Y-51000D02*
X38250Y-50500D01*
X42000Y-37250D02*
X42000Y-35500D01*
X28000Y-34750D02*
X28000Y-35500D01*
X28000Y-35500D02*
X29750Y-35500D01*
X31000Y-33750D02*
X27500Y-30250D01*
X37750Y-51500D02*
X38250Y-51000D01*
X28000Y-35500D02*
X28000Y-36250D01*
X31000Y-43250D02*
X31000Y-35500D01*
X31000Y-35500D02*
X31000Y-33750D01*
X23500Y-25000D02*
X23500Y-22000D01*
X38500Y-30000D02*
X38500Y-29250D01*
X42000Y-35500D02*
X42000Y-29250D01*
X38500Y-29250D02*
X42000Y-29250D01*
X44500Y-24750D02*
X46250Y-24750D01*
X42750Y-24750D02*
X42000Y-25500D01*
X42000Y-25500D02*
X42000Y-25750D01*
X44500Y-24750D02*
X42750Y-24750D01*
X42500Y-25750D02*
X42000Y-25750D01*
X46250Y-24750D02*
X47750Y-24750D01*
X44500Y-22000D02*
X44500Y-24750D01*
X23500Y-22000D02*
X24750Y-20750D01*
X42000Y-29250D02*
X42000Y-25750D01*
X47750Y-26750D02*
X47750Y-24750D01*
X38500Y-28750D02*
X38500Y-29250D01*
X34250Y-22000D02*
X34250Y-20750D01*
X36750Y-29250D02*
X38500Y-29250D01*
X42000Y-39000D02*
X42000Y-37250D01*
X43250Y-20750D02*
X44500Y-22000D01*
X24750Y-20750D02*
X34250Y-20750D01*
X34250Y-20750D02*
X43250Y-20750D01*
G54D10*
G36*
X23005Y-26005D02*
X22995Y-26005D01*
X22995Y-25995D01*
X23005Y-25995D01*
X23005Y-26005D01*
X23005Y-26005D01*
G37*
G54D29*
X23005Y-26005D02*
X22995Y-26005D01*
X22995Y-25995D01*
X23005Y-25995D01*
X23005Y-26005D01*
G54D10*
G36*
X24757Y-30250D02*
X24750Y-30257D01*
X24743Y-30250D01*
X24750Y-30243D01*
X24757Y-30250D01*
X24757Y-30250D01*
G37*
G54D29*
X24757Y-30250D02*
X24750Y-30257D01*
X24743Y-30250D01*
X24750Y-30243D01*
X24757Y-30250D01*
G54D10*
G36*
X24757Y-32250D02*
X24750Y-32257D01*
X24743Y-32250D01*
X24750Y-32243D01*
X24757Y-32250D01*
X24757Y-32250D01*
G37*
G54D29*
X24757Y-32250D02*
X24750Y-32257D01*
X24743Y-32250D01*
X24750Y-32243D01*
X24757Y-32250D01*
G54D10*
G36*
X24757Y-34250D02*
X24750Y-34257D01*
X24743Y-34250D01*
X24750Y-34243D01*
X24757Y-34250D01*
X24757Y-34250D01*
G37*
G54D29*
X24757Y-34250D02*
X24750Y-34257D01*
X24743Y-34250D01*
X24750Y-34243D01*
X24757Y-34250D01*
G54D10*
G36*
X24757Y-39500D02*
X24750Y-39507D01*
X24743Y-39500D01*
X24750Y-39493D01*
X24757Y-39500D01*
X24757Y-39500D01*
G37*
G54D29*
X24757Y-39500D02*
X24750Y-39507D01*
X24743Y-39500D01*
X24750Y-39493D01*
X24757Y-39500D01*
G54D10*
G36*
X24757Y-41500D02*
X24750Y-41507D01*
X24743Y-41500D01*
X24750Y-41493D01*
X24757Y-41500D01*
X24757Y-41500D01*
G37*
G54D29*
X24757Y-41500D02*
X24750Y-41507D01*
X24743Y-41500D01*
X24750Y-41493D01*
X24757Y-41500D01*
G54D10*
G36*
X24757Y-43500D02*
X24750Y-43507D01*
X24743Y-43500D01*
X24750Y-43493D01*
X24757Y-43500D01*
X24757Y-43500D01*
G37*
G54D29*
X24757Y-43500D02*
X24750Y-43507D01*
X24743Y-43500D01*
X24750Y-43493D01*
X24757Y-43500D01*
G54D10*
G36*
X25815Y-43819D02*
X25569Y-44065D01*
X25468Y-44065D01*
X25461Y-44024D01*
X25435Y-43961D01*
X25397Y-43904D01*
X25349Y-43855D01*
X25327Y-43840D01*
X25364Y-43779D01*
X25406Y-43654D01*
X25424Y-43523D01*
X25415Y-43392D01*
X25381Y-43265D01*
X25329Y-43157D01*
X25346Y-43147D01*
X25395Y-43099D01*
X25433Y-43042D01*
X25460Y-42979D01*
X25474Y-42912D01*
X25474Y-42843D01*
X25474Y-42091D01*
X25461Y-42024D01*
X25435Y-41961D01*
X25397Y-41904D01*
X25349Y-41855D01*
X25327Y-41840D01*
X25364Y-41779D01*
X25406Y-41654D01*
X25424Y-41523D01*
X25415Y-41392D01*
X25381Y-41265D01*
X25329Y-41157D01*
X25346Y-41147D01*
X25395Y-41099D01*
X25433Y-41042D01*
X25460Y-40979D01*
X25474Y-40912D01*
X25474Y-40843D01*
X25474Y-40091D01*
X25461Y-40024D01*
X25435Y-39961D01*
X25397Y-39904D01*
X25349Y-39855D01*
X25327Y-39840D01*
X25364Y-39779D01*
X25406Y-39654D01*
X25424Y-39523D01*
X25415Y-39392D01*
X25381Y-39265D01*
X25329Y-39157D01*
X25346Y-39147D01*
X25395Y-39099D01*
X25433Y-39042D01*
X25460Y-38979D01*
X25474Y-38912D01*
X25474Y-38843D01*
X25474Y-38091D01*
X25461Y-38024D01*
X25435Y-37961D01*
X25397Y-37904D01*
X25349Y-37855D01*
X25292Y-37817D01*
X25229Y-37790D01*
X25162Y-37776D01*
X25093Y-37776D01*
X24341Y-37776D01*
X24274Y-37789D01*
X24211Y-37815D01*
X24154Y-37853D01*
X24105Y-37901D01*
X24067Y-37958D01*
X24059Y-37975D01*
X23525Y-37975D01*
X23525Y-33775D01*
X24059Y-33775D01*
X24065Y-33789D01*
X24103Y-33846D01*
X24151Y-33895D01*
X24172Y-33909D01*
X24136Y-33971D01*
X24094Y-34096D01*
X24076Y-34227D01*
X24085Y-34358D01*
X24119Y-34485D01*
X24170Y-34592D01*
X24154Y-34603D01*
X24105Y-34651D01*
X24067Y-34708D01*
X24040Y-34771D01*
X24026Y-34838D01*
X24026Y-34907D01*
X24026Y-35659D01*
X24039Y-35726D01*
X24065Y-35789D01*
X24103Y-35846D01*
X24129Y-35873D01*
X24112Y-35899D01*
X24056Y-36030D01*
X24026Y-36169D01*
X24024Y-36311D01*
X24050Y-36451D01*
X24102Y-36583D01*
X24179Y-36702D01*
X24278Y-36805D01*
X24395Y-36886D01*
X24525Y-36943D01*
X24664Y-36973D01*
X24806Y-36976D01*
X24946Y-36952D01*
X25078Y-36900D01*
X25198Y-36824D01*
X25301Y-36726D01*
X25383Y-36610D01*
X25441Y-36480D01*
X25473Y-36341D01*
X25475Y-36179D01*
X25447Y-36040D01*
X25393Y-35908D01*
X25370Y-35873D01*
X25395Y-35849D01*
X25433Y-35792D01*
X25460Y-35729D01*
X25469Y-35685D01*
X25569Y-35685D01*
X25815Y-35931D01*
X25815Y-43819D01*
X25815Y-43819D01*
G37*
G54D29*
X25815Y-43819D02*
X25569Y-44065D01*
X25468Y-44065D01*
X25461Y-44024D01*
X25435Y-43961D01*
X25397Y-43904D01*
X25349Y-43855D01*
X25327Y-43840D01*
X25364Y-43779D01*
X25406Y-43654D01*
X25424Y-43523D01*
X25415Y-43392D01*
X25381Y-43265D01*
X25329Y-43157D01*
X25346Y-43147D01*
X25395Y-43099D01*
X25433Y-43042D01*
X25460Y-42979D01*
X25474Y-42912D01*
X25474Y-42843D01*
X25474Y-42091D01*
X25461Y-42024D01*
X25435Y-41961D01*
X25397Y-41904D01*
X25349Y-41855D01*
X25327Y-41840D01*
X25364Y-41779D01*
X25406Y-41654D01*
X25424Y-41523D01*
X25415Y-41392D01*
X25381Y-41265D01*
X25329Y-41157D01*
X25346Y-41147D01*
X25395Y-41099D01*
X25433Y-41042D01*
X25460Y-40979D01*
X25474Y-40912D01*
X25474Y-40843D01*
X25474Y-40091D01*
X25461Y-40024D01*
X25435Y-39961D01*
X25397Y-39904D01*
X25349Y-39855D01*
X25327Y-39840D01*
X25364Y-39779D01*
X25406Y-39654D01*
X25424Y-39523D01*
X25415Y-39392D01*
X25381Y-39265D01*
X25329Y-39157D01*
X25346Y-39147D01*
X25395Y-39099D01*
X25433Y-39042D01*
X25460Y-38979D01*
X25474Y-38912D01*
X25474Y-38843D01*
X25474Y-38091D01*
X25461Y-38024D01*
X25435Y-37961D01*
X25397Y-37904D01*
X25349Y-37855D01*
X25292Y-37817D01*
X25229Y-37790D01*
X25162Y-37776D01*
X25093Y-37776D01*
X24341Y-37776D01*
X24274Y-37789D01*
X24211Y-37815D01*
X24154Y-37853D01*
X24105Y-37901D01*
X24067Y-37958D01*
X24059Y-37975D01*
X23525Y-37975D01*
X23525Y-33775D01*
X24059Y-33775D01*
X24065Y-33789D01*
X24103Y-33846D01*
X24151Y-33895D01*
X24172Y-33909D01*
X24136Y-33971D01*
X24094Y-34096D01*
X24076Y-34227D01*
X24085Y-34358D01*
X24119Y-34485D01*
X24170Y-34592D01*
X24154Y-34603D01*
X24105Y-34651D01*
X24067Y-34708D01*
X24040Y-34771D01*
X24026Y-34838D01*
X24026Y-34907D01*
X24026Y-35659D01*
X24039Y-35726D01*
X24065Y-35789D01*
X24103Y-35846D01*
X24129Y-35873D01*
X24112Y-35899D01*
X24056Y-36030D01*
X24026Y-36169D01*
X24024Y-36311D01*
X24050Y-36451D01*
X24102Y-36583D01*
X24179Y-36702D01*
X24278Y-36805D01*
X24395Y-36886D01*
X24525Y-36943D01*
X24664Y-36973D01*
X24806Y-36976D01*
X24946Y-36952D01*
X25078Y-36900D01*
X25198Y-36824D01*
X25301Y-36726D01*
X25383Y-36610D01*
X25441Y-36480D01*
X25473Y-36341D01*
X25475Y-36179D01*
X25447Y-36040D01*
X25393Y-35908D01*
X25370Y-35873D01*
X25395Y-35849D01*
X25433Y-35792D01*
X25460Y-35729D01*
X25469Y-35685D01*
X25569Y-35685D01*
X25815Y-35931D01*
X25815Y-43819D01*
G54D10*
G36*
X37815Y-23819D02*
X36819Y-24815D01*
X36000Y-24815D01*
X35916Y-24823D01*
X35834Y-24848D01*
X35759Y-24888D01*
X35693Y-24941D01*
X35688Y-24946D01*
X34442Y-26192D01*
X34403Y-26239D01*
X34391Y-26254D01*
X34390Y-26255D01*
X34389Y-26257D01*
X34362Y-26307D01*
X34350Y-26329D01*
X34349Y-26329D01*
X34348Y-26333D01*
X34329Y-26395D01*
X34325Y-26410D01*
X34324Y-26411D01*
X34324Y-26414D01*
X34314Y-26499D01*
X34315Y-26508D01*
X34315Y-27812D01*
X34281Y-27778D01*
X34182Y-27711D01*
X34072Y-27664D01*
X33955Y-27640D01*
X33755Y-27640D01*
X33755Y-28145D01*
X33755Y-28245D01*
X33755Y-28255D01*
X33745Y-28255D01*
X33745Y-28245D01*
X33745Y-28145D01*
X33745Y-27640D01*
X33545Y-27640D01*
X33428Y-27664D01*
X33318Y-27711D01*
X33219Y-27778D01*
X33135Y-27863D01*
X33074Y-27954D01*
X33052Y-27908D01*
X33028Y-27872D01*
X32909Y-27848D01*
X32902Y-27855D01*
X32902Y-27841D01*
X32878Y-27722D01*
X32768Y-27660D01*
X32648Y-27619D01*
X32522Y-27602D01*
X32395Y-27609D01*
X32272Y-27642D01*
X32158Y-27698D01*
X32122Y-27722D01*
X32098Y-27841D01*
X32500Y-28243D01*
X32902Y-27841D01*
X32902Y-27855D01*
X32507Y-28250D01*
X32909Y-28652D01*
X33028Y-28628D01*
X33074Y-28545D01*
X33135Y-28637D01*
X33217Y-28720D01*
X33190Y-28738D01*
X33099Y-28829D01*
X33027Y-28936D01*
X32977Y-29054D01*
X32951Y-29181D01*
X32950Y-29309D01*
X32974Y-29436D01*
X33022Y-29555D01*
X33092Y-29663D01*
X33177Y-29750D01*
X33099Y-29829D01*
X33027Y-29936D01*
X32977Y-30054D01*
X32951Y-30181D01*
X32950Y-30309D01*
X32974Y-30436D01*
X33022Y-30555D01*
X33092Y-30663D01*
X33177Y-30750D01*
X33113Y-30815D01*
X33051Y-30815D01*
X33045Y-30805D01*
X32948Y-30708D01*
X32902Y-30676D01*
X32902Y-28659D01*
X32500Y-28257D01*
X32493Y-28264D01*
X32493Y-28250D01*
X32091Y-27848D01*
X31972Y-27872D01*
X31910Y-27982D01*
X31869Y-28102D01*
X31852Y-28228D01*
X31859Y-28355D01*
X31892Y-28478D01*
X31948Y-28592D01*
X31972Y-28628D01*
X32091Y-28652D01*
X32493Y-28250D01*
X32493Y-28264D01*
X32098Y-28659D01*
X32122Y-28778D01*
X32232Y-28840D01*
X32352Y-28881D01*
X32478Y-28898D01*
X32605Y-28891D01*
X32728Y-28858D01*
X32842Y-28802D01*
X32878Y-28778D01*
X32902Y-28659D01*
X32902Y-30676D01*
X32834Y-30631D01*
X32708Y-30578D01*
X32573Y-30550D01*
X32436Y-30550D01*
X32301Y-30575D01*
X32174Y-30627D01*
X32059Y-30702D01*
X31961Y-30798D01*
X31883Y-30911D01*
X31829Y-31038D01*
X31801Y-31172D01*
X31799Y-31309D01*
X31824Y-31444D01*
X31833Y-31468D01*
X27311Y-26946D01*
X27308Y-26942D01*
X27260Y-26903D01*
X27246Y-26891D01*
X27244Y-26890D01*
X27243Y-26889D01*
X27192Y-26862D01*
X27171Y-26850D01*
X27170Y-26849D01*
X27167Y-26848D01*
X27105Y-26829D01*
X27090Y-26825D01*
X27088Y-26824D01*
X27086Y-26824D01*
X27001Y-26814D01*
X26991Y-26815D01*
X23181Y-26815D01*
X23105Y-26739D01*
X23168Y-26730D01*
X23277Y-26686D01*
X23376Y-26622D01*
X23461Y-26540D01*
X23470Y-26525D01*
X23496Y-26564D01*
X23585Y-26654D01*
X23690Y-26725D01*
X23807Y-26774D01*
X23932Y-26799D01*
X24058Y-26800D01*
X24183Y-26777D01*
X24301Y-26729D01*
X24407Y-26660D01*
X24498Y-26571D01*
X24569Y-26467D01*
X24619Y-26350D01*
X24646Y-26226D01*
X24648Y-26099D01*
X24647Y-25784D01*
X24622Y-25660D01*
X24574Y-25542D01*
X24504Y-25436D01*
X24415Y-25346D01*
X24310Y-25275D01*
X24193Y-25226D01*
X24146Y-25216D01*
X24148Y-25099D01*
X24147Y-24784D01*
X24122Y-24660D01*
X24074Y-24542D01*
X24025Y-24467D01*
X24025Y-22664D01*
X24045Y-22774D01*
X24116Y-22954D01*
X24221Y-23117D01*
X24356Y-23257D01*
X24515Y-23367D01*
X24693Y-23445D01*
X24882Y-23487D01*
X25076Y-23491D01*
X25267Y-23457D01*
X25448Y-23387D01*
X25612Y-23283D01*
X25752Y-23149D01*
X25864Y-22991D01*
X25943Y-22814D01*
X25986Y-22625D01*
X25989Y-22403D01*
X25951Y-22213D01*
X25877Y-22033D01*
X25770Y-21872D01*
X25633Y-21734D01*
X25473Y-21626D01*
X25294Y-21551D01*
X25104Y-21512D01*
X24910Y-21510D01*
X24719Y-21547D01*
X24679Y-21562D01*
X24967Y-21275D01*
X30021Y-21275D01*
X29853Y-21385D01*
X29654Y-21581D01*
X29496Y-21811D01*
X29386Y-22068D01*
X29328Y-22341D01*
X29324Y-22620D01*
X29375Y-22895D01*
X29478Y-23154D01*
X29629Y-23389D01*
X29823Y-23590D01*
X30052Y-23749D01*
X30308Y-23861D01*
X30581Y-23921D01*
X30860Y-23927D01*
X31135Y-23878D01*
X31395Y-23777D01*
X31631Y-23627D01*
X31833Y-23435D01*
X31994Y-23206D01*
X32108Y-22951D01*
X32170Y-22679D01*
X32174Y-22360D01*
X32120Y-22086D01*
X32013Y-21828D01*
X31859Y-21595D01*
X31662Y-21397D01*
X31480Y-21275D01*
X33725Y-21275D01*
X33725Y-21499D01*
X33692Y-21532D01*
X33612Y-21649D01*
X33556Y-21780D01*
X33526Y-21919D01*
X33524Y-22061D01*
X33550Y-22201D01*
X33602Y-22333D01*
X33679Y-22452D01*
X33758Y-22534D01*
X33697Y-22596D01*
X33707Y-22606D01*
X33702Y-22608D01*
X33636Y-22721D01*
X33594Y-22846D01*
X33576Y-22977D01*
X33585Y-23108D01*
X33619Y-23235D01*
X33676Y-23354D01*
X33702Y-23392D01*
X33823Y-23420D01*
X34172Y-23071D01*
X34243Y-23000D01*
X34250Y-22993D01*
X34257Y-23000D01*
X34250Y-23007D01*
X34179Y-23078D01*
X33830Y-23427D01*
X33858Y-23548D01*
X33971Y-23614D01*
X34096Y-23656D01*
X34227Y-23674D01*
X34358Y-23665D01*
X34485Y-23631D01*
X34604Y-23574D01*
X34642Y-23548D01*
X34643Y-23542D01*
X34654Y-23553D01*
X34716Y-23490D01*
X34778Y-23555D01*
X34895Y-23636D01*
X35025Y-23693D01*
X35164Y-23723D01*
X35306Y-23726D01*
X35446Y-23702D01*
X35578Y-23650D01*
X35698Y-23574D01*
X35749Y-23525D01*
X35778Y-23555D01*
X35895Y-23636D01*
X36025Y-23693D01*
X36164Y-23723D01*
X36306Y-23726D01*
X36446Y-23702D01*
X36578Y-23650D01*
X36698Y-23574D01*
X36749Y-23525D01*
X36778Y-23555D01*
X36895Y-23636D01*
X37025Y-23693D01*
X37164Y-23723D01*
X37306Y-23726D01*
X37446Y-23702D01*
X37578Y-23650D01*
X37698Y-23574D01*
X37749Y-23525D01*
X37778Y-23555D01*
X37815Y-23580D01*
X37815Y-23819D01*
X37815Y-23819D01*
G37*
G54D29*
X37815Y-23819D02*
X36819Y-24815D01*
X36000Y-24815D01*
X35916Y-24823D01*
X35834Y-24848D01*
X35759Y-24888D01*
X35693Y-24941D01*
X35688Y-24946D01*
X34442Y-26192D01*
X34403Y-26239D01*
X34391Y-26254D01*
X34390Y-26255D01*
X34389Y-26257D01*
X34362Y-26307D01*
X34350Y-26329D01*
X34349Y-26329D01*
X34348Y-26333D01*
X34329Y-26395D01*
X34325Y-26410D01*
X34324Y-26411D01*
X34324Y-26414D01*
X34314Y-26499D01*
X34315Y-26508D01*
X34315Y-27812D01*
X34281Y-27778D01*
X34182Y-27711D01*
X34072Y-27664D01*
X33955Y-27640D01*
X33755Y-27640D01*
X33755Y-28145D01*
X33755Y-28245D01*
X33755Y-28255D01*
X33745Y-28255D01*
X33745Y-28245D01*
X33745Y-28145D01*
X33745Y-27640D01*
X33545Y-27640D01*
X33428Y-27664D01*
X33318Y-27711D01*
X33219Y-27778D01*
X33135Y-27863D01*
X33074Y-27954D01*
X33052Y-27908D01*
X33028Y-27872D01*
X32909Y-27848D01*
X32902Y-27855D01*
X32902Y-27841D01*
X32878Y-27722D01*
X32768Y-27660D01*
X32648Y-27619D01*
X32522Y-27602D01*
X32395Y-27609D01*
X32272Y-27642D01*
X32158Y-27698D01*
X32122Y-27722D01*
X32098Y-27841D01*
X32500Y-28243D01*
X32902Y-27841D01*
X32902Y-27855D01*
X32507Y-28250D01*
X32909Y-28652D01*
X33028Y-28628D01*
X33074Y-28545D01*
X33135Y-28637D01*
X33217Y-28720D01*
X33190Y-28738D01*
X33099Y-28829D01*
X33027Y-28936D01*
X32977Y-29054D01*
X32951Y-29181D01*
X32950Y-29309D01*
X32974Y-29436D01*
X33022Y-29555D01*
X33092Y-29663D01*
X33177Y-29750D01*
X33099Y-29829D01*
X33027Y-29936D01*
X32977Y-30054D01*
X32951Y-30181D01*
X32950Y-30309D01*
X32974Y-30436D01*
X33022Y-30555D01*
X33092Y-30663D01*
X33177Y-30750D01*
X33113Y-30815D01*
X33051Y-30815D01*
X33045Y-30805D01*
X32948Y-30708D01*
X32902Y-30676D01*
X32902Y-28659D01*
X32500Y-28257D01*
X32493Y-28264D01*
X32493Y-28250D01*
X32091Y-27848D01*
X31972Y-27872D01*
X31910Y-27982D01*
X31869Y-28102D01*
X31852Y-28228D01*
X31859Y-28355D01*
X31892Y-28478D01*
X31948Y-28592D01*
X31972Y-28628D01*
X32091Y-28652D01*
X32493Y-28250D01*
X32493Y-28264D01*
X32098Y-28659D01*
X32122Y-28778D01*
X32232Y-28840D01*
X32352Y-28881D01*
X32478Y-28898D01*
X32605Y-28891D01*
X32728Y-28858D01*
X32842Y-28802D01*
X32878Y-28778D01*
X32902Y-28659D01*
X32902Y-30676D01*
X32834Y-30631D01*
X32708Y-30578D01*
X32573Y-30550D01*
X32436Y-30550D01*
X32301Y-30575D01*
X32174Y-30627D01*
X32059Y-30702D01*
X31961Y-30798D01*
X31883Y-30911D01*
X31829Y-31038D01*
X31801Y-31172D01*
X31799Y-31309D01*
X31824Y-31444D01*
X31833Y-31468D01*
X27311Y-26946D01*
X27308Y-26942D01*
X27260Y-26903D01*
X27246Y-26891D01*
X27244Y-26890D01*
X27243Y-26889D01*
X27192Y-26862D01*
X27171Y-26850D01*
X27170Y-26849D01*
X27167Y-26848D01*
X27105Y-26829D01*
X27090Y-26825D01*
X27088Y-26824D01*
X27086Y-26824D01*
X27001Y-26814D01*
X26991Y-26815D01*
X23181Y-26815D01*
X23105Y-26739D01*
X23168Y-26730D01*
X23277Y-26686D01*
X23376Y-26622D01*
X23461Y-26540D01*
X23470Y-26525D01*
X23496Y-26564D01*
X23585Y-26654D01*
X23690Y-26725D01*
X23807Y-26774D01*
X23932Y-26799D01*
X24058Y-26800D01*
X24183Y-26777D01*
X24301Y-26729D01*
X24407Y-26660D01*
X24498Y-26571D01*
X24569Y-26467D01*
X24619Y-26350D01*
X24646Y-26226D01*
X24648Y-26099D01*
X24647Y-25784D01*
X24622Y-25660D01*
X24574Y-25542D01*
X24504Y-25436D01*
X24415Y-25346D01*
X24310Y-25275D01*
X24193Y-25226D01*
X24146Y-25216D01*
X24148Y-25099D01*
X24147Y-24784D01*
X24122Y-24660D01*
X24074Y-24542D01*
X24025Y-24467D01*
X24025Y-22664D01*
X24045Y-22774D01*
X24116Y-22954D01*
X24221Y-23117D01*
X24356Y-23257D01*
X24515Y-23367D01*
X24693Y-23445D01*
X24882Y-23487D01*
X25076Y-23491D01*
X25267Y-23457D01*
X25448Y-23387D01*
X25612Y-23283D01*
X25752Y-23149D01*
X25864Y-22991D01*
X25943Y-22814D01*
X25986Y-22625D01*
X25989Y-22403D01*
X25951Y-22213D01*
X25877Y-22033D01*
X25770Y-21872D01*
X25633Y-21734D01*
X25473Y-21626D01*
X25294Y-21551D01*
X25104Y-21512D01*
X24910Y-21510D01*
X24719Y-21547D01*
X24679Y-21562D01*
X24967Y-21275D01*
X30021Y-21275D01*
X29853Y-21385D01*
X29654Y-21581D01*
X29496Y-21811D01*
X29386Y-22068D01*
X29328Y-22341D01*
X29324Y-22620D01*
X29375Y-22895D01*
X29478Y-23154D01*
X29629Y-23389D01*
X29823Y-23590D01*
X30052Y-23749D01*
X30308Y-23861D01*
X30581Y-23921D01*
X30860Y-23927D01*
X31135Y-23878D01*
X31395Y-23777D01*
X31631Y-23627D01*
X31833Y-23435D01*
X31994Y-23206D01*
X32108Y-22951D01*
X32170Y-22679D01*
X32174Y-22360D01*
X32120Y-22086D01*
X32013Y-21828D01*
X31859Y-21595D01*
X31662Y-21397D01*
X31480Y-21275D01*
X33725Y-21275D01*
X33725Y-21499D01*
X33692Y-21532D01*
X33612Y-21649D01*
X33556Y-21780D01*
X33526Y-21919D01*
X33524Y-22061D01*
X33550Y-22201D01*
X33602Y-22333D01*
X33679Y-22452D01*
X33758Y-22534D01*
X33697Y-22596D01*
X33707Y-22606D01*
X33702Y-22608D01*
X33636Y-22721D01*
X33594Y-22846D01*
X33576Y-22977D01*
X33585Y-23108D01*
X33619Y-23235D01*
X33676Y-23354D01*
X33702Y-23392D01*
X33823Y-23420D01*
X34172Y-23071D01*
X34243Y-23000D01*
X34250Y-22993D01*
X34257Y-23000D01*
X34250Y-23007D01*
X34179Y-23078D01*
X33830Y-23427D01*
X33858Y-23548D01*
X33971Y-23614D01*
X34096Y-23656D01*
X34227Y-23674D01*
X34358Y-23665D01*
X34485Y-23631D01*
X34604Y-23574D01*
X34642Y-23548D01*
X34643Y-23542D01*
X34654Y-23553D01*
X34716Y-23490D01*
X34778Y-23555D01*
X34895Y-23636D01*
X35025Y-23693D01*
X35164Y-23723D01*
X35306Y-23726D01*
X35446Y-23702D01*
X35578Y-23650D01*
X35698Y-23574D01*
X35749Y-23525D01*
X35778Y-23555D01*
X35895Y-23636D01*
X36025Y-23693D01*
X36164Y-23723D01*
X36306Y-23726D01*
X36446Y-23702D01*
X36578Y-23650D01*
X36698Y-23574D01*
X36749Y-23525D01*
X36778Y-23555D01*
X36895Y-23636D01*
X37025Y-23693D01*
X37164Y-23723D01*
X37306Y-23726D01*
X37446Y-23702D01*
X37578Y-23650D01*
X37698Y-23574D01*
X37749Y-23525D01*
X37778Y-23555D01*
X37815Y-23580D01*
X37815Y-23819D01*
G54D10*
G36*
X41475Y-38403D02*
X41421Y-38349D01*
X41314Y-38277D01*
X41196Y-38227D01*
X41069Y-38201D01*
X40941Y-38200D01*
X40814Y-38224D01*
X40695Y-38272D01*
X40587Y-38342D01*
X40499Y-38427D01*
X40421Y-38349D01*
X40314Y-38277D01*
X40196Y-38227D01*
X40069Y-38201D01*
X39941Y-38200D01*
X39814Y-38224D01*
X39695Y-38272D01*
X39587Y-38342D01*
X39499Y-38427D01*
X39435Y-38363D01*
X39435Y-33500D01*
X39427Y-33419D01*
X39427Y-33416D01*
X39405Y-33344D01*
X39403Y-33337D01*
X39402Y-33336D01*
X39402Y-33334D01*
X39363Y-33262D01*
X39362Y-33259D01*
X39311Y-33196D01*
X39309Y-33193D01*
X39307Y-33192D01*
X39303Y-33188D01*
X39148Y-33032D01*
X39148Y-31022D01*
X39141Y-30895D01*
X39108Y-30772D01*
X39052Y-30658D01*
X39028Y-30622D01*
X38909Y-30598D01*
X38507Y-31000D01*
X38909Y-31402D01*
X39028Y-31378D01*
X39090Y-31268D01*
X39131Y-31148D01*
X39148Y-31022D01*
X39148Y-33032D01*
X38902Y-32786D01*
X38902Y-31409D01*
X38500Y-31007D01*
X38493Y-31014D01*
X38493Y-31000D01*
X38091Y-30598D01*
X37972Y-30622D01*
X37910Y-30732D01*
X37869Y-30852D01*
X37852Y-30978D01*
X37859Y-31105D01*
X37892Y-31228D01*
X37948Y-31342D01*
X37972Y-31378D01*
X38091Y-31402D01*
X38493Y-31000D01*
X38493Y-31014D01*
X38098Y-31409D01*
X38122Y-31528D01*
X38232Y-31590D01*
X38352Y-31631D01*
X38478Y-31648D01*
X38605Y-31641D01*
X38728Y-31608D01*
X38842Y-31552D01*
X38878Y-31528D01*
X38902Y-31409D01*
X38902Y-32786D01*
X37549Y-31433D01*
X37549Y-30906D01*
X37536Y-30839D01*
X37510Y-30776D01*
X37472Y-30719D01*
X37424Y-30670D01*
X37367Y-30632D01*
X37431Y-30537D01*
X37476Y-30426D01*
X37491Y-30350D01*
X37424Y-30255D01*
X36855Y-30255D01*
X36755Y-30255D01*
X36745Y-30255D01*
X36745Y-30245D01*
X36755Y-30245D01*
X36855Y-30245D01*
X37424Y-30245D01*
X37491Y-30150D01*
X37476Y-30074D01*
X37431Y-29963D01*
X37365Y-29863D01*
X37282Y-29779D01*
X37290Y-29775D01*
X37834Y-29775D01*
X37829Y-29788D01*
X37801Y-29922D01*
X37799Y-30059D01*
X37824Y-30194D01*
X37875Y-30322D01*
X37949Y-30437D01*
X38044Y-30536D01*
X38101Y-30575D01*
X38098Y-30591D01*
X38500Y-30993D01*
X38902Y-30591D01*
X38898Y-30575D01*
X38933Y-30554D01*
X39033Y-30459D01*
X39112Y-30347D01*
X39168Y-30222D01*
X39198Y-30088D01*
X39200Y-29931D01*
X39173Y-29796D01*
X39164Y-29775D01*
X41475Y-29775D01*
X41475Y-35034D01*
X41461Y-35048D01*
X41383Y-35161D01*
X41329Y-35288D01*
X41301Y-35422D01*
X41299Y-35559D01*
X41324Y-35694D01*
X41375Y-35822D01*
X41449Y-35937D01*
X41475Y-35964D01*
X41475Y-36597D01*
X41429Y-36628D01*
X41380Y-36676D01*
X41342Y-36733D01*
X41315Y-36796D01*
X41301Y-36863D01*
X41301Y-36932D01*
X41301Y-37634D01*
X41314Y-37701D01*
X41340Y-37764D01*
X41378Y-37821D01*
X41426Y-37870D01*
X41475Y-37902D01*
X41475Y-38403D01*
X41475Y-38403D01*
G37*
G54D29*
X41475Y-38403D02*
X41421Y-38349D01*
X41314Y-38277D01*
X41196Y-38227D01*
X41069Y-38201D01*
X40941Y-38200D01*
X40814Y-38224D01*
X40695Y-38272D01*
X40587Y-38342D01*
X40499Y-38427D01*
X40421Y-38349D01*
X40314Y-38277D01*
X40196Y-38227D01*
X40069Y-38201D01*
X39941Y-38200D01*
X39814Y-38224D01*
X39695Y-38272D01*
X39587Y-38342D01*
X39499Y-38427D01*
X39435Y-38363D01*
X39435Y-33500D01*
X39427Y-33419D01*
X39427Y-33416D01*
X39405Y-33344D01*
X39403Y-33337D01*
X39402Y-33336D01*
X39402Y-33334D01*
X39363Y-33262D01*
X39362Y-33259D01*
X39311Y-33196D01*
X39309Y-33193D01*
X39307Y-33192D01*
X39303Y-33188D01*
X39148Y-33032D01*
X39148Y-31022D01*
X39141Y-30895D01*
X39108Y-30772D01*
X39052Y-30658D01*
X39028Y-30622D01*
X38909Y-30598D01*
X38507Y-31000D01*
X38909Y-31402D01*
X39028Y-31378D01*
X39090Y-31268D01*
X39131Y-31148D01*
X39148Y-31022D01*
X39148Y-33032D01*
X38902Y-32786D01*
X38902Y-31409D01*
X38500Y-31007D01*
X38493Y-31014D01*
X38493Y-31000D01*
X38091Y-30598D01*
X37972Y-30622D01*
X37910Y-30732D01*
X37869Y-30852D01*
X37852Y-30978D01*
X37859Y-31105D01*
X37892Y-31228D01*
X37948Y-31342D01*
X37972Y-31378D01*
X38091Y-31402D01*
X38493Y-31000D01*
X38493Y-31014D01*
X38098Y-31409D01*
X38122Y-31528D01*
X38232Y-31590D01*
X38352Y-31631D01*
X38478Y-31648D01*
X38605Y-31641D01*
X38728Y-31608D01*
X38842Y-31552D01*
X38878Y-31528D01*
X38902Y-31409D01*
X38902Y-32786D01*
X37549Y-31433D01*
X37549Y-30906D01*
X37536Y-30839D01*
X37510Y-30776D01*
X37472Y-30719D01*
X37424Y-30670D01*
X37367Y-30632D01*
X37431Y-30537D01*
X37476Y-30426D01*
X37491Y-30350D01*
X37424Y-30255D01*
X36855Y-30255D01*
X36755Y-30255D01*
X36745Y-30255D01*
X36745Y-30245D01*
X36755Y-30245D01*
X36855Y-30245D01*
X37424Y-30245D01*
X37491Y-30150D01*
X37476Y-30074D01*
X37431Y-29963D01*
X37365Y-29863D01*
X37282Y-29779D01*
X37290Y-29775D01*
X37834Y-29775D01*
X37829Y-29788D01*
X37801Y-29922D01*
X37799Y-30059D01*
X37824Y-30194D01*
X37875Y-30322D01*
X37949Y-30437D01*
X38044Y-30536D01*
X38101Y-30575D01*
X38098Y-30591D01*
X38500Y-30993D01*
X38902Y-30591D01*
X38898Y-30575D01*
X38933Y-30554D01*
X39033Y-30459D01*
X39112Y-30347D01*
X39168Y-30222D01*
X39198Y-30088D01*
X39200Y-29931D01*
X39173Y-29796D01*
X39164Y-29775D01*
X41475Y-29775D01*
X41475Y-35034D01*
X41461Y-35048D01*
X41383Y-35161D01*
X41329Y-35288D01*
X41301Y-35422D01*
X41299Y-35559D01*
X41324Y-35694D01*
X41375Y-35822D01*
X41449Y-35937D01*
X41475Y-35964D01*
X41475Y-36597D01*
X41429Y-36628D01*
X41380Y-36676D01*
X41342Y-36733D01*
X41315Y-36796D01*
X41301Y-36863D01*
X41301Y-36932D01*
X41301Y-37634D01*
X41314Y-37701D01*
X41340Y-37764D01*
X41378Y-37821D01*
X41426Y-37870D01*
X41475Y-37902D01*
X41475Y-38403D01*
G54D10*
G36*
X43975Y-24225D02*
X42750Y-24225D01*
X42679Y-24231D01*
X42653Y-24234D01*
X42650Y-24234D01*
X42648Y-24235D01*
X42612Y-24245D01*
X42554Y-24263D01*
X42550Y-24264D01*
X42550Y-24265D01*
X42544Y-24268D01*
X42463Y-24310D01*
X42459Y-24312D01*
X42459Y-24313D01*
X42439Y-24329D01*
X42383Y-24374D01*
X42380Y-24377D01*
X42378Y-24379D01*
X41629Y-25129D01*
X41607Y-25155D01*
X41567Y-25203D01*
X41564Y-25207D01*
X41564Y-25208D01*
X41558Y-25218D01*
X41517Y-25293D01*
X41486Y-25391D01*
X41485Y-25395D01*
X41485Y-25397D01*
X41481Y-25436D01*
X41475Y-25493D01*
X41475Y-25498D01*
X41475Y-25500D01*
X41475Y-25743D01*
X41475Y-25746D01*
X41475Y-25750D01*
X41475Y-28725D01*
X39199Y-28725D01*
X39199Y-28366D01*
X39186Y-28299D01*
X39160Y-28236D01*
X39122Y-28179D01*
X39074Y-28130D01*
X39039Y-28107D01*
X39090Y-28018D01*
X39131Y-27898D01*
X39148Y-27772D01*
X39141Y-27645D01*
X39108Y-27522D01*
X39052Y-27408D01*
X39028Y-27372D01*
X38909Y-27348D01*
X38902Y-27355D01*
X38902Y-27341D01*
X38878Y-27222D01*
X38768Y-27160D01*
X38648Y-27119D01*
X38522Y-27102D01*
X38395Y-27109D01*
X38272Y-27142D01*
X38158Y-27198D01*
X38122Y-27222D01*
X38098Y-27341D01*
X38500Y-27743D01*
X38902Y-27341D01*
X38902Y-27355D01*
X38578Y-27679D01*
X38507Y-27750D01*
X38500Y-27757D01*
X38493Y-27750D01*
X38422Y-27679D01*
X38091Y-27348D01*
X37972Y-27372D01*
X37910Y-27482D01*
X37869Y-27602D01*
X37852Y-27728D01*
X37859Y-27855D01*
X37892Y-27978D01*
X37948Y-28092D01*
X37958Y-28108D01*
X37929Y-28128D01*
X37880Y-28176D01*
X37842Y-28233D01*
X37815Y-28296D01*
X37801Y-28363D01*
X37801Y-28432D01*
X37801Y-28725D01*
X37347Y-28725D01*
X37401Y-28671D01*
X37473Y-28564D01*
X37523Y-28446D01*
X37549Y-28319D01*
X37550Y-28191D01*
X37526Y-28064D01*
X37478Y-27945D01*
X37408Y-27837D01*
X37318Y-27745D01*
X37211Y-27672D01*
X37093Y-27621D01*
X36967Y-27594D01*
X36838Y-27592D01*
X36543Y-27593D01*
X36417Y-27618D01*
X36297Y-27667D01*
X36190Y-27738D01*
X36099Y-27829D01*
X36087Y-27846D01*
X36086Y-27847D01*
X36084Y-27847D01*
X36084Y-27848D01*
X36009Y-27888D01*
X35943Y-27941D01*
X35942Y-27941D01*
X35942Y-27942D01*
X35685Y-28199D01*
X35685Y-28180D01*
X36430Y-27435D01*
X37245Y-27435D01*
X37250Y-27435D01*
X37281Y-27431D01*
X37330Y-27428D01*
X37333Y-27427D01*
X37334Y-27427D01*
X37348Y-27422D01*
X37412Y-27404D01*
X37415Y-27402D01*
X37416Y-27402D01*
X37487Y-27364D01*
X37491Y-27362D01*
X37553Y-27312D01*
X37557Y-27309D01*
X37557Y-27308D01*
X37558Y-27308D01*
X40054Y-24811D01*
X40057Y-24808D01*
X40081Y-24778D01*
X40109Y-24746D01*
X40109Y-24744D01*
X40111Y-24743D01*
X40120Y-24725D01*
X40150Y-24671D01*
X40151Y-24667D01*
X40175Y-24590D01*
X40175Y-24588D01*
X40176Y-24586D01*
X40180Y-24542D01*
X40185Y-24506D01*
X40185Y-24502D01*
X40185Y-24500D01*
X40185Y-22000D01*
X40177Y-21920D01*
X40177Y-21916D01*
X40153Y-21838D01*
X40152Y-21834D01*
X40114Y-21763D01*
X40112Y-21759D01*
X40061Y-21696D01*
X40059Y-21693D01*
X40057Y-21692D01*
X40053Y-21688D01*
X39640Y-21275D01*
X41021Y-21275D01*
X40853Y-21385D01*
X40654Y-21581D01*
X40496Y-21811D01*
X40386Y-22068D01*
X40328Y-22341D01*
X40324Y-22620D01*
X40375Y-22895D01*
X40478Y-23154D01*
X40629Y-23389D01*
X40823Y-23590D01*
X41052Y-23749D01*
X41308Y-23861D01*
X41581Y-23921D01*
X41860Y-23927D01*
X42135Y-23878D01*
X42395Y-23777D01*
X42631Y-23627D01*
X42833Y-23435D01*
X42994Y-23206D01*
X43108Y-22951D01*
X43170Y-22679D01*
X43174Y-22360D01*
X43120Y-22086D01*
X43013Y-21828D01*
X42859Y-21595D01*
X42662Y-21397D01*
X42480Y-21275D01*
X43032Y-21275D01*
X43975Y-22217D01*
X43975Y-24225D01*
X43975Y-24225D01*
G37*
G54D29*
X43975Y-24225D02*
X42750Y-24225D01*
X42679Y-24231D01*
X42653Y-24234D01*
X42650Y-24234D01*
X42648Y-24235D01*
X42612Y-24245D01*
X42554Y-24263D01*
X42550Y-24264D01*
X42550Y-24265D01*
X42544Y-24268D01*
X42463Y-24310D01*
X42459Y-24312D01*
X42459Y-24313D01*
X42439Y-24329D01*
X42383Y-24374D01*
X42380Y-24377D01*
X42378Y-24379D01*
X41629Y-25129D01*
X41607Y-25155D01*
X41567Y-25203D01*
X41564Y-25207D01*
X41564Y-25208D01*
X41558Y-25218D01*
X41517Y-25293D01*
X41486Y-25391D01*
X41485Y-25395D01*
X41485Y-25397D01*
X41481Y-25436D01*
X41475Y-25493D01*
X41475Y-25498D01*
X41475Y-25500D01*
X41475Y-25743D01*
X41475Y-25746D01*
X41475Y-25750D01*
X41475Y-28725D01*
X39199Y-28725D01*
X39199Y-28366D01*
X39186Y-28299D01*
X39160Y-28236D01*
X39122Y-28179D01*
X39074Y-28130D01*
X39039Y-28107D01*
X39090Y-28018D01*
X39131Y-27898D01*
X39148Y-27772D01*
X39141Y-27645D01*
X39108Y-27522D01*
X39052Y-27408D01*
X39028Y-27372D01*
X38909Y-27348D01*
X38902Y-27355D01*
X38902Y-27341D01*
X38878Y-27222D01*
X38768Y-27160D01*
X38648Y-27119D01*
X38522Y-27102D01*
X38395Y-27109D01*
X38272Y-27142D01*
X38158Y-27198D01*
X38122Y-27222D01*
X38098Y-27341D01*
X38500Y-27743D01*
X38902Y-27341D01*
X38902Y-27355D01*
X38578Y-27679D01*
X38507Y-27750D01*
X38500Y-27757D01*
X38493Y-27750D01*
X38422Y-27679D01*
X38091Y-27348D01*
X37972Y-27372D01*
X37910Y-27482D01*
X37869Y-27602D01*
X37852Y-27728D01*
X37859Y-27855D01*
X37892Y-27978D01*
X37948Y-28092D01*
X37958Y-28108D01*
X37929Y-28128D01*
X37880Y-28176D01*
X37842Y-28233D01*
X37815Y-28296D01*
X37801Y-28363D01*
X37801Y-28432D01*
X37801Y-28725D01*
X37347Y-28725D01*
X37401Y-28671D01*
X37473Y-28564D01*
X37523Y-28446D01*
X37549Y-28319D01*
X37550Y-28191D01*
X37526Y-28064D01*
X37478Y-27945D01*
X37408Y-27837D01*
X37318Y-27745D01*
X37211Y-27672D01*
X37093Y-27621D01*
X36967Y-27594D01*
X36838Y-27592D01*
X36543Y-27593D01*
X36417Y-27618D01*
X36297Y-27667D01*
X36190Y-27738D01*
X36099Y-27829D01*
X36087Y-27846D01*
X36086Y-27847D01*
X36084Y-27847D01*
X36084Y-27848D01*
X36009Y-27888D01*
X35943Y-27941D01*
X35942Y-27941D01*
X35942Y-27942D01*
X35685Y-28199D01*
X35685Y-28180D01*
X36430Y-27435D01*
X37245Y-27435D01*
X37250Y-27435D01*
X37281Y-27431D01*
X37330Y-27428D01*
X37333Y-27427D01*
X37334Y-27427D01*
X37348Y-27422D01*
X37412Y-27404D01*
X37415Y-27402D01*
X37416Y-27402D01*
X37487Y-27364D01*
X37491Y-27362D01*
X37553Y-27312D01*
X37557Y-27309D01*
X37557Y-27308D01*
X37558Y-27308D01*
X40054Y-24811D01*
X40057Y-24808D01*
X40081Y-24778D01*
X40109Y-24746D01*
X40109Y-24744D01*
X40111Y-24743D01*
X40120Y-24725D01*
X40150Y-24671D01*
X40151Y-24667D01*
X40175Y-24590D01*
X40175Y-24588D01*
X40176Y-24586D01*
X40180Y-24542D01*
X40185Y-24506D01*
X40185Y-24502D01*
X40185Y-24500D01*
X40185Y-22000D01*
X40177Y-21920D01*
X40177Y-21916D01*
X40153Y-21838D01*
X40152Y-21834D01*
X40114Y-21763D01*
X40112Y-21759D01*
X40061Y-21696D01*
X40059Y-21693D01*
X40057Y-21692D01*
X40053Y-21688D01*
X39640Y-21275D01*
X41021Y-21275D01*
X40853Y-21385D01*
X40654Y-21581D01*
X40496Y-21811D01*
X40386Y-22068D01*
X40328Y-22341D01*
X40324Y-22620D01*
X40375Y-22895D01*
X40478Y-23154D01*
X40629Y-23389D01*
X40823Y-23590D01*
X41052Y-23749D01*
X41308Y-23861D01*
X41581Y-23921D01*
X41860Y-23927D01*
X42135Y-23878D01*
X42395Y-23777D01*
X42631Y-23627D01*
X42833Y-23435D01*
X42994Y-23206D01*
X43108Y-22951D01*
X43170Y-22679D01*
X43174Y-22360D01*
X43120Y-22086D01*
X43013Y-21828D01*
X42859Y-21595D01*
X42662Y-21397D01*
X42480Y-21275D01*
X43032Y-21275D01*
X43975Y-22217D01*
X43975Y-24225D01*
G54D10*
G36*
X49507Y-27750D02*
X49500Y-27757D01*
X49493Y-27750D01*
X49500Y-27743D01*
X49507Y-27750D01*
X49507Y-27750D01*
G37*
G54D29*
X49507Y-27750D02*
X49500Y-27757D01*
X49493Y-27750D01*
X49500Y-27743D01*
X49507Y-27750D01*
G54D10*
G36*
X52075Y-50823D02*
X51599Y-51299D01*
X51599Y-49843D01*
X51538Y-49535D01*
X51419Y-49246D01*
X51245Y-48984D01*
X51024Y-48762D01*
X50764Y-48587D01*
X50475Y-48465D01*
X50168Y-48402D01*
X49854Y-48400D01*
X49546Y-48459D01*
X49255Y-48576D01*
X48993Y-48748D01*
X48769Y-48967D01*
X48592Y-49226D01*
X48468Y-49514D01*
X48403Y-49821D01*
X48399Y-50135D01*
X48456Y-50443D01*
X48571Y-50735D01*
X48741Y-50998D01*
X48959Y-51224D01*
X49216Y-51403D01*
X49504Y-51528D01*
X49810Y-51595D01*
X50123Y-51602D01*
X50432Y-51547D01*
X50725Y-51434D01*
X50989Y-51266D01*
X51216Y-51050D01*
X51397Y-50793D01*
X51525Y-50507D01*
X51594Y-50201D01*
X51599Y-49843D01*
X51599Y-51299D01*
X50823Y-52075D01*
X43174Y-52075D01*
X43174Y-49860D01*
X43120Y-49586D01*
X43013Y-49328D01*
X42859Y-49095D01*
X42662Y-48897D01*
X42430Y-48741D01*
X42173Y-48633D01*
X41899Y-48577D01*
X41620Y-48575D01*
X41346Y-48627D01*
X41087Y-48732D01*
X40853Y-48885D01*
X40654Y-49081D01*
X40496Y-49311D01*
X40386Y-49568D01*
X40328Y-49841D01*
X40324Y-50120D01*
X40375Y-50395D01*
X40478Y-50654D01*
X40629Y-50889D01*
X40823Y-51090D01*
X41052Y-51249D01*
X41308Y-51361D01*
X41581Y-51421D01*
X41860Y-51427D01*
X42135Y-51378D01*
X42395Y-51277D01*
X42631Y-51127D01*
X42833Y-50935D01*
X42994Y-50706D01*
X43108Y-50451D01*
X43170Y-50179D01*
X43174Y-49860D01*
X43174Y-52075D01*
X28874Y-52075D01*
X28874Y-49160D01*
X27734Y-49160D01*
X27817Y-49128D01*
X27933Y-49054D01*
X28033Y-48959D01*
X28112Y-48847D01*
X28168Y-48722D01*
X28198Y-48588D01*
X28200Y-48431D01*
X28173Y-48296D01*
X28121Y-48169D01*
X28045Y-48055D01*
X27948Y-47958D01*
X27834Y-47881D01*
X27708Y-47828D01*
X27573Y-47800D01*
X27436Y-47800D01*
X27301Y-47825D01*
X27174Y-47877D01*
X27059Y-47952D01*
X27035Y-47975D01*
X26424Y-47975D01*
X26232Y-47975D01*
X26303Y-47904D01*
X26292Y-47893D01*
X26298Y-47892D01*
X26364Y-47779D01*
X26406Y-47654D01*
X26424Y-47523D01*
X26415Y-47392D01*
X26381Y-47265D01*
X26324Y-47146D01*
X26298Y-47108D01*
X26177Y-47080D01*
X25828Y-47429D01*
X25757Y-47500D01*
X25750Y-47507D01*
X25743Y-47500D01*
X25750Y-47493D01*
X25821Y-47422D01*
X26170Y-47073D01*
X26142Y-46952D01*
X26029Y-46886D01*
X25904Y-46844D01*
X25773Y-46826D01*
X25642Y-46835D01*
X25515Y-46869D01*
X25407Y-46920D01*
X25397Y-46904D01*
X25349Y-46855D01*
X25292Y-46817D01*
X25229Y-46790D01*
X25162Y-46776D01*
X25093Y-46776D01*
X24341Y-46776D01*
X24274Y-46789D01*
X24211Y-46815D01*
X24154Y-46853D01*
X24105Y-46901D01*
X24067Y-46958D01*
X24040Y-47021D01*
X24026Y-47088D01*
X24026Y-47157D01*
X24026Y-47909D01*
X24039Y-47976D01*
X24065Y-48039D01*
X24103Y-48096D01*
X24151Y-48145D01*
X24208Y-48183D01*
X24269Y-48209D01*
X24309Y-48286D01*
X24312Y-48290D01*
X24313Y-48291D01*
X24374Y-48366D01*
X24377Y-48370D01*
X24379Y-48371D01*
X24382Y-48374D01*
X24875Y-48867D01*
X24879Y-48871D01*
X24905Y-48892D01*
X24953Y-48933D01*
X24957Y-48935D01*
X24958Y-48936D01*
X24968Y-48941D01*
X25043Y-48983D01*
X25048Y-48984D01*
X25141Y-49014D01*
X25145Y-49014D01*
X25147Y-49015D01*
X25186Y-49018D01*
X25243Y-49025D01*
X25248Y-49025D01*
X25250Y-49025D01*
X27033Y-49025D01*
X27044Y-49036D01*
X27157Y-49114D01*
X27262Y-49160D01*
X23861Y-49160D01*
X23745Y-48984D01*
X23524Y-48762D01*
X23264Y-48587D01*
X22975Y-48465D01*
X22668Y-48402D01*
X22354Y-48400D01*
X22046Y-48459D01*
X21755Y-48576D01*
X21493Y-48748D01*
X21269Y-48967D01*
X21092Y-49226D01*
X20968Y-49514D01*
X20903Y-49821D01*
X20899Y-50135D01*
X20956Y-50443D01*
X21071Y-50735D01*
X21241Y-50998D01*
X21459Y-51224D01*
X21716Y-51403D01*
X22004Y-51528D01*
X22310Y-51595D01*
X22623Y-51602D01*
X22932Y-51547D01*
X23225Y-51434D01*
X23489Y-51266D01*
X23626Y-51135D01*
X23626Y-52075D01*
X21676Y-52075D01*
X20425Y-50823D01*
X20425Y-46281D01*
X22220Y-46281D01*
X22220Y-43718D01*
X20425Y-43718D01*
X20425Y-42396D01*
X22220Y-42396D01*
X22220Y-39604D01*
X20425Y-39604D01*
X20425Y-37031D01*
X22220Y-37031D01*
X22220Y-34468D01*
X20425Y-34468D01*
X20425Y-33146D01*
X22220Y-33146D01*
X22220Y-30354D01*
X20425Y-30354D01*
X20425Y-23304D01*
X20515Y-23367D01*
X20693Y-23445D01*
X20882Y-23487D01*
X21076Y-23491D01*
X21267Y-23457D01*
X21448Y-23387D01*
X21612Y-23283D01*
X21752Y-23149D01*
X21864Y-22991D01*
X21943Y-22814D01*
X21986Y-22625D01*
X21989Y-22403D01*
X21951Y-22213D01*
X21877Y-22033D01*
X21770Y-21872D01*
X21633Y-21734D01*
X21473Y-21626D01*
X21294Y-21551D01*
X21104Y-21512D01*
X20910Y-21510D01*
X20719Y-21547D01*
X20540Y-21619D01*
X20425Y-21694D01*
X20425Y-21676D01*
X21676Y-20425D01*
X24332Y-20425D01*
X23129Y-21629D01*
X23107Y-21655D01*
X23067Y-21703D01*
X23064Y-21707D01*
X23064Y-21708D01*
X23058Y-21718D01*
X23017Y-21793D01*
X22986Y-21891D01*
X22985Y-21895D01*
X22985Y-21897D01*
X22981Y-21936D01*
X22975Y-21993D01*
X22975Y-21998D01*
X22975Y-22000D01*
X22975Y-24406D01*
X22915Y-24346D01*
X22810Y-24275D01*
X22693Y-24226D01*
X22568Y-24201D01*
X22442Y-24200D01*
X22317Y-24223D01*
X22199Y-24271D01*
X22093Y-24340D01*
X22002Y-24429D01*
X21999Y-24431D01*
X21915Y-24346D01*
X21810Y-24275D01*
X21693Y-24226D01*
X21568Y-24201D01*
X21442Y-24200D01*
X21317Y-24223D01*
X21199Y-24271D01*
X21093Y-24340D01*
X21002Y-24429D01*
X20931Y-24533D01*
X20881Y-24650D01*
X20854Y-24774D01*
X20852Y-24901D01*
X20853Y-25216D01*
X20878Y-25340D01*
X20926Y-25458D01*
X20996Y-25564D01*
X21065Y-25633D01*
X21065Y-26745D01*
X21065Y-26750D01*
X21068Y-26781D01*
X21072Y-26830D01*
X21072Y-26833D01*
X21073Y-26834D01*
X21077Y-26848D01*
X21096Y-26912D01*
X21097Y-26915D01*
X21098Y-26916D01*
X21136Y-26987D01*
X21138Y-26991D01*
X21188Y-27053D01*
X21191Y-27057D01*
X21192Y-27058D01*
X22689Y-28554D01*
X22692Y-28557D01*
X22722Y-28581D01*
X22754Y-28609D01*
X22755Y-28609D01*
X22757Y-28611D01*
X22774Y-28620D01*
X22829Y-28650D01*
X22833Y-28651D01*
X22910Y-28675D01*
X22911Y-28675D01*
X22914Y-28676D01*
X22958Y-28680D01*
X22994Y-28685D01*
X22998Y-28685D01*
X23000Y-28685D01*
X24082Y-28685D01*
X24067Y-28708D01*
X24059Y-28725D01*
X23750Y-28725D01*
X23679Y-28731D01*
X23653Y-28734D01*
X23650Y-28734D01*
X23648Y-28735D01*
X23612Y-28745D01*
X23554Y-28763D01*
X23550Y-28764D01*
X23550Y-28765D01*
X23544Y-28768D01*
X23463Y-28810D01*
X23459Y-28812D01*
X23459Y-28813D01*
X23439Y-28829D01*
X23383Y-28874D01*
X23380Y-28877D01*
X23378Y-28879D01*
X22629Y-29629D01*
X22607Y-29655D01*
X22567Y-29703D01*
X22564Y-29707D01*
X22564Y-29708D01*
X22558Y-29718D01*
X22517Y-29793D01*
X22486Y-29891D01*
X22485Y-29895D01*
X22485Y-29897D01*
X22481Y-29936D01*
X22475Y-29993D01*
X22475Y-29998D01*
X22475Y-30000D01*
X22475Y-31243D01*
X22475Y-31246D01*
X22475Y-31250D01*
X22475Y-33243D01*
X22475Y-33246D01*
X22475Y-33250D01*
X22475Y-38493D01*
X22475Y-38496D01*
X22475Y-38500D01*
X22475Y-40493D01*
X22475Y-40496D01*
X22475Y-40500D01*
X22475Y-41494D01*
X22475Y-41500D01*
X22480Y-41554D01*
X22484Y-41596D01*
X22484Y-41598D01*
X22485Y-41602D01*
X22494Y-41631D01*
X22512Y-41695D01*
X22515Y-41700D01*
X22559Y-41786D01*
X22562Y-41790D01*
X22563Y-41791D01*
X22624Y-41866D01*
X22627Y-41870D01*
X22629Y-41871D01*
X22632Y-41874D01*
X23625Y-42867D01*
X23629Y-42871D01*
X23655Y-42892D01*
X23703Y-42933D01*
X23707Y-42935D01*
X23708Y-42936D01*
X23718Y-42941D01*
X23793Y-42983D01*
X23798Y-42984D01*
X23891Y-43014D01*
X23895Y-43014D01*
X23897Y-43015D01*
X23936Y-43018D01*
X23993Y-43025D01*
X23998Y-43025D01*
X24000Y-43025D01*
X24059Y-43025D01*
X24065Y-43039D01*
X24103Y-43096D01*
X24151Y-43145D01*
X24172Y-43159D01*
X24136Y-43221D01*
X24094Y-43346D01*
X24076Y-43477D01*
X24085Y-43608D01*
X24119Y-43735D01*
X24170Y-43842D01*
X24154Y-43853D01*
X24105Y-43901D01*
X24067Y-43958D01*
X24040Y-44021D01*
X24026Y-44088D01*
X24026Y-44157D01*
X24026Y-44909D01*
X24039Y-44976D01*
X24065Y-45039D01*
X24103Y-45096D01*
X24129Y-45123D01*
X24112Y-45149D01*
X24056Y-45280D01*
X24026Y-45419D01*
X24024Y-45561D01*
X24050Y-45701D01*
X24102Y-45833D01*
X24179Y-45952D01*
X24278Y-46055D01*
X24395Y-46136D01*
X24525Y-46193D01*
X24664Y-46223D01*
X24806Y-46226D01*
X24946Y-46202D01*
X25078Y-46150D01*
X25198Y-46074D01*
X25301Y-45976D01*
X25383Y-45860D01*
X25441Y-45730D01*
X25473Y-45591D01*
X25475Y-45429D01*
X25447Y-45290D01*
X25393Y-45158D01*
X25370Y-45123D01*
X25395Y-45099D01*
X25433Y-45042D01*
X25460Y-44979D01*
X25469Y-44935D01*
X25745Y-44935D01*
X25750Y-44935D01*
X25781Y-44931D01*
X25830Y-44928D01*
X25833Y-44927D01*
X25834Y-44927D01*
X25848Y-44922D01*
X25912Y-44904D01*
X25915Y-44902D01*
X25916Y-44902D01*
X25987Y-44864D01*
X25991Y-44862D01*
X26053Y-44812D01*
X26057Y-44809D01*
X26057Y-44808D01*
X26058Y-44808D01*
X26554Y-44311D01*
X26558Y-44308D01*
X26596Y-44260D01*
X26609Y-44246D01*
X26609Y-44244D01*
X26611Y-44243D01*
X26638Y-44192D01*
X26650Y-44171D01*
X26650Y-44170D01*
X26652Y-44167D01*
X26670Y-44105D01*
X26675Y-44090D01*
X26675Y-44088D01*
X26676Y-44086D01*
X26685Y-44006D01*
X26686Y-44001D01*
X26685Y-44000D01*
X26685Y-43991D01*
X26685Y-35755D01*
X26685Y-35750D01*
X26681Y-35718D01*
X26678Y-35670D01*
X26677Y-35666D01*
X26672Y-35652D01*
X26654Y-35588D01*
X26652Y-35584D01*
X26614Y-35513D01*
X26612Y-35509D01*
X26562Y-35447D01*
X26559Y-35443D01*
X26558Y-35442D01*
X26185Y-35069D01*
X26185Y-34413D01*
X26206Y-34393D01*
X26273Y-34297D01*
X26321Y-34190D01*
X26347Y-34075D01*
X26349Y-33941D01*
X26326Y-33826D01*
X26281Y-33717D01*
X26216Y-33619D01*
X26133Y-33536D01*
X26036Y-33470D01*
X25928Y-33425D01*
X25813Y-33401D01*
X25695Y-33401D01*
X25580Y-33423D01*
X25474Y-33465D01*
X25474Y-32841D01*
X25461Y-32774D01*
X25435Y-32711D01*
X25397Y-32654D01*
X25349Y-32605D01*
X25327Y-32590D01*
X25364Y-32529D01*
X25406Y-32404D01*
X25424Y-32273D01*
X25415Y-32142D01*
X25381Y-32015D01*
X25329Y-31907D01*
X25346Y-31897D01*
X25395Y-31849D01*
X25433Y-31792D01*
X25460Y-31729D01*
X25474Y-31662D01*
X25474Y-31593D01*
X25474Y-30841D01*
X25461Y-30774D01*
X25435Y-30711D01*
X25397Y-30654D01*
X25349Y-30605D01*
X25327Y-30590D01*
X25364Y-30529D01*
X25406Y-30404D01*
X25424Y-30273D01*
X25415Y-30142D01*
X25381Y-30015D01*
X25329Y-29907D01*
X25346Y-29897D01*
X25395Y-29849D01*
X25433Y-29792D01*
X25460Y-29729D01*
X25474Y-29662D01*
X25474Y-29593D01*
X25474Y-28841D01*
X25461Y-28774D01*
X25435Y-28711D01*
X25417Y-28685D01*
X26151Y-28685D01*
X26150Y-28801D01*
X26171Y-28916D01*
X26215Y-29025D01*
X26278Y-29124D01*
X26360Y-29209D01*
X26457Y-29276D01*
X26564Y-29323D01*
X26679Y-29348D01*
X26732Y-29348D01*
X27129Y-29745D01*
X27107Y-29760D01*
X27019Y-29846D01*
X26950Y-29947D01*
X26902Y-30060D01*
X26876Y-30180D01*
X26874Y-30302D01*
X26896Y-30423D01*
X26941Y-30537D01*
X27008Y-30640D01*
X27093Y-30728D01*
X27193Y-30798D01*
X27306Y-30847D01*
X27369Y-30861D01*
X30475Y-33967D01*
X30475Y-34975D01*
X30250Y-34975D01*
X30214Y-34939D01*
X30097Y-34859D01*
X29965Y-34804D01*
X29826Y-34776D01*
X29684Y-34775D01*
X29544Y-34801D01*
X29413Y-34854D01*
X29294Y-34932D01*
X29250Y-34975D01*
X28699Y-34975D01*
X28699Y-34366D01*
X28686Y-34299D01*
X28660Y-34236D01*
X28622Y-34179D01*
X28574Y-34130D01*
X28539Y-34107D01*
X28590Y-34018D01*
X28631Y-33898D01*
X28648Y-33772D01*
X28641Y-33645D01*
X28608Y-33522D01*
X28552Y-33408D01*
X28528Y-33372D01*
X28409Y-33348D01*
X28402Y-33355D01*
X28402Y-33341D01*
X28378Y-33222D01*
X28268Y-33160D01*
X28148Y-33119D01*
X28022Y-33102D01*
X27895Y-33109D01*
X27772Y-33142D01*
X27658Y-33198D01*
X27622Y-33222D01*
X27598Y-33341D01*
X28000Y-33743D01*
X28402Y-33341D01*
X28402Y-33355D01*
X28078Y-33679D01*
X28007Y-33750D01*
X28000Y-33757D01*
X27993Y-33750D01*
X27922Y-33679D01*
X27591Y-33348D01*
X27472Y-33372D01*
X27410Y-33482D01*
X27369Y-33602D01*
X27352Y-33728D01*
X27359Y-33855D01*
X27392Y-33978D01*
X27448Y-34092D01*
X27458Y-34108D01*
X27429Y-34128D01*
X27380Y-34176D01*
X27342Y-34233D01*
X27315Y-34296D01*
X27301Y-34363D01*
X27301Y-34432D01*
X27301Y-35134D01*
X27314Y-35201D01*
X27340Y-35264D01*
X27378Y-35321D01*
X27426Y-35370D01*
X27475Y-35402D01*
X27475Y-35493D01*
X27475Y-35496D01*
X27475Y-35500D01*
X27475Y-35784D01*
X27461Y-35798D01*
X27383Y-35911D01*
X27329Y-36038D01*
X27301Y-36172D01*
X27299Y-36309D01*
X27324Y-36444D01*
X27375Y-36572D01*
X27449Y-36687D01*
X27544Y-36786D01*
X27601Y-36825D01*
X27598Y-36841D01*
X28000Y-37243D01*
X28402Y-36841D01*
X28398Y-36825D01*
X28433Y-36804D01*
X28533Y-36709D01*
X28612Y-36597D01*
X28668Y-36472D01*
X28698Y-36338D01*
X28700Y-36181D01*
X28673Y-36046D01*
X28664Y-36025D01*
X29249Y-36025D01*
X29278Y-36055D01*
X29395Y-36136D01*
X29525Y-36193D01*
X29664Y-36223D01*
X29806Y-36226D01*
X29946Y-36202D01*
X30078Y-36150D01*
X30198Y-36074D01*
X30249Y-36025D01*
X30475Y-36025D01*
X30475Y-42784D01*
X30474Y-42785D01*
X30474Y-40912D01*
X30474Y-40843D01*
X30474Y-40091D01*
X30461Y-40024D01*
X30435Y-39961D01*
X30397Y-39904D01*
X30349Y-39855D01*
X30327Y-39840D01*
X30364Y-39779D01*
X30406Y-39654D01*
X30424Y-39523D01*
X30424Y-37523D01*
X30415Y-37392D01*
X30381Y-37265D01*
X30324Y-37146D01*
X30298Y-37108D01*
X30177Y-37080D01*
X30170Y-37087D01*
X30170Y-37073D01*
X30142Y-36952D01*
X30029Y-36886D01*
X29904Y-36844D01*
X29773Y-36826D01*
X29642Y-36835D01*
X29515Y-36869D01*
X29396Y-36926D01*
X29358Y-36952D01*
X29330Y-37073D01*
X29750Y-37493D01*
X30170Y-37073D01*
X30170Y-37087D01*
X29757Y-37500D01*
X30177Y-37920D01*
X30298Y-37892D01*
X30364Y-37779D01*
X30406Y-37654D01*
X30424Y-37523D01*
X30424Y-39523D01*
X30415Y-39392D01*
X30381Y-39265D01*
X30324Y-39146D01*
X30298Y-39108D01*
X30177Y-39080D01*
X30170Y-39087D01*
X30170Y-39073D01*
X30170Y-37927D01*
X29750Y-37507D01*
X29743Y-37514D01*
X29743Y-37500D01*
X29323Y-37080D01*
X29202Y-37108D01*
X29136Y-37221D01*
X29094Y-37346D01*
X29076Y-37477D01*
X29085Y-37608D01*
X29119Y-37735D01*
X29176Y-37854D01*
X29202Y-37892D01*
X29323Y-37920D01*
X29743Y-37500D01*
X29743Y-37514D01*
X29330Y-37927D01*
X29358Y-38048D01*
X29471Y-38114D01*
X29596Y-38156D01*
X29727Y-38174D01*
X29858Y-38165D01*
X29985Y-38131D01*
X30104Y-38074D01*
X30142Y-38048D01*
X30170Y-37927D01*
X30170Y-39073D01*
X30142Y-38952D01*
X30029Y-38886D01*
X29904Y-38844D01*
X29773Y-38826D01*
X29642Y-38835D01*
X29515Y-38869D01*
X29396Y-38926D01*
X29358Y-38952D01*
X29330Y-39073D01*
X29750Y-39493D01*
X30170Y-39073D01*
X30170Y-39087D01*
X29828Y-39429D01*
X29757Y-39500D01*
X29750Y-39507D01*
X29743Y-39500D01*
X29672Y-39429D01*
X29323Y-39080D01*
X29202Y-39108D01*
X29136Y-39221D01*
X29094Y-39346D01*
X29076Y-39477D01*
X29085Y-39608D01*
X29119Y-39735D01*
X29170Y-39842D01*
X29154Y-39853D01*
X29105Y-39901D01*
X29067Y-39958D01*
X29059Y-39975D01*
X28648Y-39975D01*
X28648Y-37272D01*
X28641Y-37145D01*
X28608Y-37022D01*
X28552Y-36908D01*
X28528Y-36872D01*
X28409Y-36848D01*
X28007Y-37250D01*
X28409Y-37652D01*
X28528Y-37628D01*
X28590Y-37518D01*
X28631Y-37398D01*
X28648Y-37272D01*
X28648Y-39975D01*
X28449Y-39975D01*
X28449Y-39366D01*
X28436Y-39299D01*
X28410Y-39236D01*
X28402Y-39224D01*
X28402Y-37659D01*
X28000Y-37257D01*
X27993Y-37264D01*
X27993Y-37250D01*
X27591Y-36848D01*
X27472Y-36872D01*
X27410Y-36982D01*
X27369Y-37102D01*
X27352Y-37228D01*
X27359Y-37355D01*
X27392Y-37478D01*
X27448Y-37592D01*
X27472Y-37628D01*
X27591Y-37652D01*
X27993Y-37250D01*
X27993Y-37264D01*
X27598Y-37659D01*
X27622Y-37778D01*
X27732Y-37840D01*
X27852Y-37881D01*
X27978Y-37898D01*
X28105Y-37891D01*
X28228Y-37858D01*
X28342Y-37802D01*
X28378Y-37778D01*
X28402Y-37659D01*
X28402Y-39224D01*
X28372Y-39179D01*
X28324Y-39130D01*
X28289Y-39107D01*
X28340Y-39018D01*
X28381Y-38898D01*
X28398Y-38772D01*
X28391Y-38645D01*
X28358Y-38522D01*
X28302Y-38408D01*
X28278Y-38372D01*
X28159Y-38348D01*
X28152Y-38355D01*
X28152Y-38341D01*
X28128Y-38222D01*
X28018Y-38160D01*
X27898Y-38119D01*
X27772Y-38102D01*
X27645Y-38109D01*
X27522Y-38142D01*
X27408Y-38198D01*
X27372Y-38222D01*
X27348Y-38341D01*
X27750Y-38743D01*
X28152Y-38341D01*
X28152Y-38355D01*
X27828Y-38679D01*
X27757Y-38750D01*
X27750Y-38757D01*
X27743Y-38750D01*
X27672Y-38679D01*
X27341Y-38348D01*
X27222Y-38372D01*
X27160Y-38482D01*
X27119Y-38602D01*
X27102Y-38728D01*
X27109Y-38855D01*
X27142Y-38978D01*
X27198Y-39092D01*
X27208Y-39108D01*
X27179Y-39128D01*
X27130Y-39176D01*
X27092Y-39233D01*
X27065Y-39296D01*
X27051Y-39363D01*
X27051Y-39432D01*
X27051Y-40134D01*
X27064Y-40201D01*
X27090Y-40264D01*
X27128Y-40321D01*
X27176Y-40370D01*
X27225Y-40402D01*
X27225Y-40493D01*
X27225Y-40496D01*
X27225Y-40500D01*
X27225Y-40784D01*
X27211Y-40798D01*
X27133Y-40911D01*
X27079Y-41038D01*
X27051Y-41172D01*
X27049Y-41309D01*
X27074Y-41444D01*
X27125Y-41572D01*
X27199Y-41687D01*
X27294Y-41786D01*
X27351Y-41825D01*
X27348Y-41841D01*
X27750Y-42243D01*
X28152Y-41841D01*
X28148Y-41825D01*
X28183Y-41804D01*
X28283Y-41709D01*
X28362Y-41597D01*
X28418Y-41472D01*
X28448Y-41338D01*
X28450Y-41181D01*
X28423Y-41046D01*
X28414Y-41025D01*
X29059Y-41025D01*
X29065Y-41039D01*
X29103Y-41096D01*
X29151Y-41145D01*
X29208Y-41183D01*
X29271Y-41210D01*
X29338Y-41224D01*
X29407Y-41224D01*
X30159Y-41224D01*
X30226Y-41211D01*
X30289Y-41185D01*
X30346Y-41147D01*
X30395Y-41099D01*
X30433Y-41042D01*
X30460Y-40979D01*
X30474Y-40912D01*
X30474Y-42785D01*
X30461Y-42798D01*
X30383Y-42911D01*
X30329Y-43038D01*
X30301Y-43172D01*
X30299Y-43309D01*
X30324Y-43444D01*
X30375Y-43572D01*
X30449Y-43687D01*
X30475Y-43714D01*
X30475Y-44809D01*
X30461Y-44815D01*
X30404Y-44853D01*
X30355Y-44901D01*
X30317Y-44958D01*
X30309Y-44975D01*
X28398Y-44975D01*
X28398Y-42272D01*
X28391Y-42145D01*
X28358Y-42022D01*
X28302Y-41908D01*
X28278Y-41872D01*
X28159Y-41848D01*
X27757Y-42250D01*
X28159Y-42652D01*
X28278Y-42628D01*
X28340Y-42518D01*
X28381Y-42398D01*
X28398Y-42272D01*
X28398Y-44975D01*
X28152Y-44975D01*
X28152Y-42659D01*
X27750Y-42257D01*
X27743Y-42264D01*
X27743Y-42250D01*
X27341Y-41848D01*
X27222Y-41872D01*
X27160Y-41982D01*
X27119Y-42102D01*
X27102Y-42228D01*
X27109Y-42355D01*
X27142Y-42478D01*
X27198Y-42592D01*
X27222Y-42628D01*
X27341Y-42652D01*
X27743Y-42250D01*
X27743Y-42264D01*
X27348Y-42659D01*
X27372Y-42778D01*
X27482Y-42840D01*
X27602Y-42881D01*
X27728Y-42898D01*
X27855Y-42891D01*
X27978Y-42858D01*
X28092Y-42802D01*
X28128Y-42778D01*
X28152Y-42659D01*
X28152Y-44975D01*
X27965Y-44975D01*
X27948Y-44958D01*
X27834Y-44881D01*
X27708Y-44828D01*
X27573Y-44800D01*
X27436Y-44800D01*
X27301Y-44825D01*
X27174Y-44877D01*
X27059Y-44952D01*
X26961Y-45048D01*
X26883Y-45161D01*
X26829Y-45288D01*
X26801Y-45422D01*
X26799Y-45559D01*
X26824Y-45694D01*
X26875Y-45822D01*
X26949Y-45937D01*
X27044Y-46036D01*
X27157Y-46114D01*
X27283Y-46169D01*
X27417Y-46198D01*
X27554Y-46201D01*
X27690Y-46177D01*
X27817Y-46128D01*
X27933Y-46054D01*
X27963Y-46025D01*
X30309Y-46025D01*
X30315Y-46039D01*
X30353Y-46096D01*
X30401Y-46145D01*
X30458Y-46183D01*
X30475Y-46190D01*
X30475Y-47494D01*
X30475Y-47500D01*
X30480Y-47554D01*
X30484Y-47596D01*
X30484Y-47598D01*
X30485Y-47602D01*
X30494Y-47631D01*
X30512Y-47695D01*
X30515Y-47700D01*
X30559Y-47786D01*
X30562Y-47790D01*
X30563Y-47791D01*
X30624Y-47866D01*
X30627Y-47870D01*
X30629Y-47871D01*
X30632Y-47874D01*
X31640Y-48882D01*
X31430Y-48741D01*
X31173Y-48633D01*
X30899Y-48577D01*
X30620Y-48575D01*
X30346Y-48627D01*
X30087Y-48732D01*
X29853Y-48885D01*
X29654Y-49081D01*
X29496Y-49311D01*
X29386Y-49568D01*
X29328Y-49841D01*
X29324Y-50120D01*
X29375Y-50395D01*
X29478Y-50654D01*
X29629Y-50889D01*
X29823Y-51090D01*
X30052Y-51249D01*
X30308Y-51361D01*
X30581Y-51421D01*
X30860Y-51427D01*
X31135Y-51378D01*
X31395Y-51277D01*
X31631Y-51127D01*
X31833Y-50935D01*
X31994Y-50706D01*
X32006Y-50677D01*
X32012Y-50695D01*
X32015Y-50700D01*
X32059Y-50786D01*
X32062Y-50790D01*
X32063Y-50791D01*
X32124Y-50866D01*
X32127Y-50870D01*
X32129Y-50871D01*
X32132Y-50874D01*
X33125Y-51867D01*
X33129Y-51871D01*
X33155Y-51892D01*
X33203Y-51933D01*
X33207Y-51935D01*
X33208Y-51936D01*
X33218Y-51941D01*
X33293Y-51983D01*
X33298Y-51984D01*
X33391Y-52014D01*
X33395Y-52014D01*
X33397Y-52015D01*
X33436Y-52018D01*
X33493Y-52025D01*
X33498Y-52025D01*
X33500Y-52025D01*
X37744Y-52025D01*
X37750Y-52025D01*
X37804Y-52019D01*
X37846Y-52016D01*
X37848Y-52015D01*
X37852Y-52015D01*
X37881Y-52005D01*
X37945Y-51988D01*
X37950Y-51985D01*
X38036Y-51941D01*
X38040Y-51937D01*
X38041Y-51937D01*
X38116Y-51876D01*
X38120Y-51873D01*
X38121Y-51871D01*
X38124Y-51867D01*
X38617Y-51375D01*
X38621Y-51371D01*
X38642Y-51344D01*
X38683Y-51297D01*
X38685Y-51292D01*
X38686Y-51292D01*
X38691Y-51282D01*
X38733Y-51207D01*
X38734Y-51202D01*
X38764Y-51109D01*
X38764Y-51104D01*
X38765Y-51103D01*
X38768Y-51063D01*
X38775Y-51007D01*
X38775Y-51002D01*
X38775Y-51000D01*
X38801Y-50976D01*
X38883Y-50860D01*
X38941Y-50730D01*
X38973Y-50591D01*
X38975Y-50429D01*
X38947Y-50290D01*
X38893Y-50158D01*
X38815Y-50040D01*
X38741Y-49966D01*
X38803Y-49904D01*
X38792Y-49893D01*
X38798Y-49892D01*
X38864Y-49779D01*
X38906Y-49654D01*
X38924Y-49523D01*
X38915Y-49392D01*
X38881Y-49265D01*
X38824Y-49146D01*
X38798Y-49108D01*
X38677Y-49080D01*
X38328Y-49429D01*
X38257Y-49500D01*
X38250Y-49507D01*
X38243Y-49500D01*
X38250Y-49493D01*
X38321Y-49422D01*
X38670Y-49073D01*
X38642Y-48952D01*
X38529Y-48886D01*
X38404Y-48844D01*
X38273Y-48826D01*
X38142Y-48835D01*
X38015Y-48869D01*
X37896Y-48926D01*
X37858Y-48952D01*
X37856Y-48957D01*
X37846Y-48947D01*
X37784Y-49009D01*
X37775Y-49000D01*
X37775Y-47839D01*
X37796Y-47810D01*
X37846Y-47698D01*
X37873Y-47579D01*
X37875Y-47439D01*
X37851Y-47319D01*
X37847Y-47310D01*
X44870Y-47310D01*
X44875Y-47310D01*
X44906Y-47306D01*
X44955Y-47303D01*
X44958Y-47302D01*
X44959Y-47302D01*
X44973Y-47297D01*
X45037Y-47279D01*
X45040Y-47277D01*
X45041Y-47277D01*
X45112Y-47239D01*
X45116Y-47237D01*
X45178Y-47187D01*
X45182Y-47184D01*
X45182Y-47183D01*
X45183Y-47183D01*
X45804Y-46561D01*
X45807Y-46558D01*
X45831Y-46528D01*
X45859Y-46496D01*
X45859Y-46494D01*
X45861Y-46493D01*
X45875Y-46466D01*
X45900Y-46421D01*
X45900Y-46418D01*
X45901Y-46418D01*
X45907Y-46398D01*
X45925Y-46340D01*
X45925Y-46338D01*
X45926Y-46336D01*
X45930Y-46292D01*
X45935Y-46256D01*
X45935Y-46252D01*
X45935Y-46250D01*
X45935Y-43005D01*
X45935Y-43000D01*
X45931Y-42968D01*
X45928Y-42920D01*
X45927Y-42916D01*
X45922Y-42902D01*
X45904Y-42838D01*
X45902Y-42834D01*
X45877Y-42788D01*
X45931Y-42799D01*
X46059Y-42800D01*
X46186Y-42776D01*
X46305Y-42728D01*
X46413Y-42658D01*
X46500Y-42572D01*
X46565Y-42637D01*
X46565Y-48837D01*
X46539Y-48863D01*
X46472Y-48960D01*
X46426Y-49068D01*
X46402Y-49183D01*
X46400Y-49301D01*
X46421Y-49416D01*
X46465Y-49525D01*
X46528Y-49624D01*
X46610Y-49709D01*
X46707Y-49776D01*
X46814Y-49823D01*
X46929Y-49848D01*
X47046Y-49850D01*
X47162Y-49830D01*
X47272Y-49787D01*
X47371Y-49724D01*
X47456Y-49643D01*
X47523Y-49547D01*
X47571Y-49440D01*
X47597Y-49325D01*
X47599Y-49191D01*
X47576Y-49076D01*
X47531Y-48967D01*
X47466Y-48869D01*
X47435Y-48838D01*
X47435Y-42636D01*
X47505Y-42568D01*
X47578Y-42461D01*
X47629Y-42343D01*
X47656Y-42217D01*
X47658Y-42088D01*
X47657Y-41793D01*
X47632Y-41667D01*
X47583Y-41547D01*
X47512Y-41440D01*
X47421Y-41349D01*
X47314Y-41277D01*
X47196Y-41227D01*
X47069Y-41201D01*
X46941Y-41200D01*
X46909Y-41205D01*
X48304Y-39811D01*
X48307Y-39808D01*
X48331Y-39778D01*
X48359Y-39746D01*
X48359Y-39744D01*
X48361Y-39743D01*
X48370Y-39725D01*
X48400Y-39671D01*
X48401Y-39667D01*
X48425Y-39590D01*
X48425Y-39588D01*
X48426Y-39586D01*
X48430Y-39542D01*
X48435Y-39506D01*
X48435Y-39502D01*
X48435Y-39500D01*
X48435Y-37663D01*
X48456Y-37643D01*
X48523Y-37547D01*
X48571Y-37440D01*
X48597Y-37325D01*
X48599Y-37191D01*
X48576Y-37076D01*
X48531Y-36967D01*
X48466Y-36869D01*
X48383Y-36786D01*
X48286Y-36720D01*
X48178Y-36675D01*
X48063Y-36651D01*
X47945Y-36651D01*
X47830Y-36673D01*
X47721Y-36717D01*
X47623Y-36781D01*
X47539Y-36863D01*
X47472Y-36960D01*
X47426Y-37068D01*
X47402Y-37183D01*
X47400Y-37301D01*
X47421Y-37416D01*
X47465Y-37525D01*
X47528Y-37624D01*
X47565Y-37662D01*
X47565Y-38519D01*
X47512Y-38440D01*
X47421Y-38349D01*
X47314Y-38277D01*
X47196Y-38227D01*
X47069Y-38201D01*
X46941Y-38200D01*
X46814Y-38224D01*
X46695Y-38272D01*
X46587Y-38342D01*
X46499Y-38427D01*
X46421Y-38349D01*
X46314Y-38277D01*
X46196Y-38227D01*
X46069Y-38201D01*
X45941Y-38200D01*
X45814Y-38224D01*
X45695Y-38272D01*
X45587Y-38342D01*
X45499Y-38427D01*
X45435Y-38363D01*
X45435Y-36430D01*
X46804Y-35061D01*
X46807Y-35058D01*
X46831Y-35028D01*
X46859Y-34996D01*
X46859Y-34994D01*
X46861Y-34993D01*
X46870Y-34975D01*
X46900Y-34921D01*
X46901Y-34917D01*
X46925Y-34840D01*
X46925Y-34838D01*
X46926Y-34836D01*
X46930Y-34792D01*
X46935Y-34756D01*
X46935Y-34752D01*
X46935Y-34750D01*
X46935Y-32431D01*
X47146Y-32219D01*
X47177Y-32250D01*
X47099Y-32329D01*
X47027Y-32436D01*
X46977Y-32554D01*
X46951Y-32681D01*
X46950Y-32809D01*
X46974Y-32936D01*
X47022Y-33055D01*
X47092Y-33163D01*
X47177Y-33250D01*
X47099Y-33329D01*
X47027Y-33436D01*
X46977Y-33554D01*
X46951Y-33681D01*
X46950Y-33809D01*
X46974Y-33936D01*
X47022Y-34055D01*
X47092Y-34163D01*
X47182Y-34255D01*
X47289Y-34328D01*
X47407Y-34379D01*
X47533Y-34406D01*
X47662Y-34408D01*
X47957Y-34407D01*
X48083Y-34382D01*
X48203Y-34333D01*
X48310Y-34262D01*
X48401Y-34171D01*
X48473Y-34064D01*
X48523Y-33946D01*
X48549Y-33819D01*
X48550Y-33691D01*
X48526Y-33564D01*
X48478Y-33445D01*
X48408Y-33337D01*
X48322Y-33249D01*
X48401Y-33171D01*
X48473Y-33064D01*
X48523Y-32946D01*
X48549Y-32819D01*
X48550Y-32691D01*
X48526Y-32564D01*
X48478Y-32445D01*
X48408Y-32337D01*
X48322Y-32249D01*
X48401Y-32171D01*
X48473Y-32064D01*
X48523Y-31946D01*
X48549Y-31819D01*
X48550Y-31691D01*
X48526Y-31564D01*
X48478Y-31445D01*
X48408Y-31337D01*
X48322Y-31249D01*
X48401Y-31171D01*
X48473Y-31064D01*
X48523Y-30946D01*
X48549Y-30819D01*
X48550Y-30691D01*
X48526Y-30564D01*
X48478Y-30445D01*
X48408Y-30337D01*
X48322Y-30249D01*
X48387Y-30185D01*
X48781Y-30185D01*
X48789Y-30226D01*
X48815Y-30289D01*
X48853Y-30346D01*
X48901Y-30395D01*
X48958Y-30433D01*
X49021Y-30460D01*
X49088Y-30474D01*
X49157Y-30474D01*
X49909Y-30474D01*
X49976Y-30461D01*
X50039Y-30435D01*
X50096Y-30397D01*
X50145Y-30349D01*
X50183Y-30292D01*
X50210Y-30229D01*
X50224Y-30162D01*
X50224Y-30093D01*
X50224Y-29341D01*
X50211Y-29274D01*
X50185Y-29211D01*
X50147Y-29154D01*
X50120Y-29127D01*
X50133Y-29110D01*
X50191Y-28980D01*
X50223Y-28841D01*
X50225Y-28679D01*
X50197Y-28540D01*
X50143Y-28408D01*
X50065Y-28290D01*
X49991Y-28216D01*
X50053Y-28154D01*
X50042Y-28143D01*
X50048Y-28142D01*
X50114Y-28029D01*
X50156Y-27904D01*
X50174Y-27773D01*
X50165Y-27642D01*
X50131Y-27515D01*
X50074Y-27396D01*
X50048Y-27358D01*
X50042Y-27356D01*
X50053Y-27346D01*
X49990Y-27283D01*
X50051Y-27226D01*
X50133Y-27110D01*
X50191Y-26980D01*
X50223Y-26841D01*
X50225Y-26679D01*
X50197Y-26540D01*
X50143Y-26408D01*
X50065Y-26290D01*
X49964Y-26189D01*
X49847Y-26109D01*
X49715Y-26054D01*
X49576Y-26026D01*
X49434Y-26025D01*
X49398Y-26031D01*
X49398Y-24772D01*
X49391Y-24645D01*
X49358Y-24522D01*
X49302Y-24408D01*
X49278Y-24372D01*
X49159Y-24348D01*
X48757Y-24750D01*
X49159Y-25152D01*
X49278Y-25128D01*
X49340Y-25018D01*
X49381Y-24898D01*
X49398Y-24772D01*
X49398Y-26031D01*
X49294Y-26051D01*
X49163Y-26104D01*
X49044Y-26182D01*
X48942Y-26282D01*
X48862Y-26399D01*
X48806Y-26530D01*
X48776Y-26669D01*
X48774Y-26811D01*
X48800Y-26951D01*
X48852Y-27083D01*
X48929Y-27202D01*
X49008Y-27284D01*
X48947Y-27346D01*
X48957Y-27356D01*
X48952Y-27358D01*
X48886Y-27471D01*
X48844Y-27596D01*
X48826Y-27727D01*
X48835Y-27858D01*
X48869Y-27985D01*
X48926Y-28104D01*
X48952Y-28142D01*
X48957Y-28143D01*
X48947Y-28154D01*
X49009Y-28216D01*
X48942Y-28282D01*
X48919Y-28315D01*
X48386Y-28315D01*
X48318Y-28245D01*
X48282Y-28220D01*
X48365Y-28137D01*
X48431Y-28037D01*
X48476Y-27926D01*
X48491Y-27850D01*
X48424Y-27755D01*
X47855Y-27755D01*
X47755Y-27755D01*
X47745Y-27755D01*
X47645Y-27755D01*
X47076Y-27755D01*
X47009Y-27850D01*
X47024Y-27926D01*
X47069Y-28037D01*
X47135Y-28137D01*
X47217Y-28220D01*
X47190Y-28238D01*
X47099Y-28329D01*
X47027Y-28436D01*
X46977Y-28554D01*
X46951Y-28681D01*
X46950Y-28809D01*
X46974Y-28936D01*
X47022Y-29055D01*
X47092Y-29163D01*
X47177Y-29250D01*
X47099Y-29329D01*
X47027Y-29436D01*
X46977Y-29554D01*
X46951Y-29681D01*
X46950Y-29809D01*
X46974Y-29936D01*
X47022Y-30055D01*
X47092Y-30163D01*
X47177Y-30250D01*
X47113Y-30315D01*
X46750Y-30315D01*
X46666Y-30323D01*
X46584Y-30348D01*
X46509Y-30388D01*
X46443Y-30441D01*
X46438Y-30446D01*
X45692Y-31192D01*
X45653Y-31239D01*
X45641Y-31254D01*
X45640Y-31255D01*
X45639Y-31257D01*
X45612Y-31307D01*
X45600Y-31329D01*
X45599Y-31329D01*
X45598Y-31333D01*
X45579Y-31395D01*
X45575Y-31410D01*
X45574Y-31411D01*
X45574Y-31414D01*
X45564Y-31499D01*
X45565Y-31508D01*
X45565Y-34319D01*
X43692Y-36192D01*
X43653Y-36239D01*
X43650Y-36242D01*
X43650Y-33379D01*
X43650Y-33080D01*
X43575Y-33005D01*
X43005Y-33005D01*
X43005Y-33575D01*
X43080Y-33650D01*
X43323Y-33650D01*
X43382Y-33650D01*
X43440Y-33638D01*
X43494Y-33615D01*
X43542Y-33582D01*
X43584Y-33540D01*
X43616Y-33491D01*
X43639Y-33437D01*
X43650Y-33379D01*
X43650Y-36242D01*
X43648Y-36245D01*
X43648Y-35522D01*
X43641Y-35395D01*
X43608Y-35272D01*
X43552Y-35158D01*
X43528Y-35122D01*
X43409Y-35098D01*
X43402Y-35105D01*
X43402Y-35091D01*
X43378Y-34972D01*
X43268Y-34910D01*
X43148Y-34869D01*
X43022Y-34852D01*
X42895Y-34859D01*
X42772Y-34892D01*
X42658Y-34948D01*
X42622Y-34972D01*
X42598Y-35091D01*
X43000Y-35493D01*
X43402Y-35091D01*
X43402Y-35105D01*
X43007Y-35500D01*
X43409Y-35902D01*
X43528Y-35878D01*
X43590Y-35768D01*
X43631Y-35648D01*
X43648Y-35522D01*
X43648Y-36245D01*
X43641Y-36254D01*
X43640Y-36255D01*
X43639Y-36257D01*
X43612Y-36307D01*
X43600Y-36329D01*
X43599Y-36329D01*
X43598Y-36333D01*
X43579Y-36395D01*
X43575Y-36410D01*
X43574Y-36411D01*
X43574Y-36414D01*
X43564Y-36499D01*
X43565Y-36508D01*
X43565Y-36934D01*
X43552Y-36908D01*
X43528Y-36872D01*
X43409Y-36848D01*
X43007Y-37250D01*
X43409Y-37652D01*
X43528Y-37628D01*
X43565Y-37562D01*
X43565Y-38363D01*
X43495Y-38432D01*
X43470Y-38467D01*
X43387Y-38385D01*
X43287Y-38319D01*
X43176Y-38274D01*
X43100Y-38259D01*
X43005Y-38326D01*
X43005Y-38895D01*
X43005Y-38995D01*
X43005Y-39005D01*
X43005Y-39105D01*
X43005Y-39674D01*
X43100Y-39741D01*
X43176Y-39726D01*
X43287Y-39681D01*
X43387Y-39615D01*
X43470Y-39532D01*
X43488Y-39560D01*
X43579Y-39651D01*
X43686Y-39723D01*
X43804Y-39773D01*
X43931Y-39799D01*
X44059Y-39800D01*
X44186Y-39776D01*
X44305Y-39728D01*
X44413Y-39658D01*
X44500Y-39572D01*
X44579Y-39651D01*
X44686Y-39723D01*
X44804Y-39773D01*
X44931Y-39799D01*
X45059Y-39800D01*
X45186Y-39776D01*
X45305Y-39728D01*
X45413Y-39658D01*
X45500Y-39572D01*
X45579Y-39651D01*
X45686Y-39723D01*
X45804Y-39773D01*
X45931Y-39799D01*
X46059Y-39800D01*
X46186Y-39776D01*
X46305Y-39728D01*
X46413Y-39658D01*
X46500Y-39572D01*
X46579Y-39651D01*
X46686Y-39723D01*
X46804Y-39773D01*
X46931Y-39799D01*
X47059Y-39800D01*
X47090Y-39794D01*
X45692Y-41192D01*
X45653Y-41239D01*
X45641Y-41254D01*
X45640Y-41255D01*
X45639Y-41257D01*
X45612Y-41307D01*
X45600Y-41329D01*
X45599Y-41329D01*
X45598Y-41333D01*
X45597Y-41335D01*
X45587Y-41342D01*
X45499Y-41427D01*
X45421Y-41349D01*
X45314Y-41277D01*
X45196Y-41227D01*
X45069Y-41201D01*
X44941Y-41200D01*
X44814Y-41224D01*
X44695Y-41272D01*
X44587Y-41342D01*
X44499Y-41427D01*
X44421Y-41349D01*
X44314Y-41277D01*
X44196Y-41227D01*
X44069Y-41201D01*
X43941Y-41200D01*
X43814Y-41224D01*
X43695Y-41272D01*
X43587Y-41342D01*
X43499Y-41427D01*
X43421Y-41349D01*
X43314Y-41277D01*
X43196Y-41227D01*
X43069Y-41201D01*
X42941Y-41200D01*
X42814Y-41224D01*
X42695Y-41272D01*
X42587Y-41342D01*
X42499Y-41427D01*
X42421Y-41349D01*
X42314Y-41277D01*
X42196Y-41227D01*
X42069Y-41201D01*
X41941Y-41200D01*
X41814Y-41224D01*
X41695Y-41272D01*
X41587Y-41342D01*
X41495Y-41432D01*
X41470Y-41467D01*
X41387Y-41385D01*
X41287Y-41319D01*
X41176Y-41274D01*
X41100Y-41259D01*
X41005Y-41326D01*
X41005Y-41895D01*
X41005Y-41995D01*
X41005Y-42005D01*
X41005Y-42105D01*
X41005Y-42674D01*
X41100Y-42741D01*
X41176Y-42726D01*
X41287Y-42681D01*
X41387Y-42615D01*
X41470Y-42532D01*
X41488Y-42560D01*
X41565Y-42637D01*
X41565Y-43025D01*
X41434Y-43025D01*
X41294Y-43051D01*
X41163Y-43104D01*
X41044Y-43182D01*
X40942Y-43282D01*
X40862Y-43399D01*
X40806Y-43530D01*
X40776Y-43669D01*
X40774Y-43811D01*
X40800Y-43951D01*
X40852Y-44083D01*
X40929Y-44202D01*
X41028Y-44305D01*
X41145Y-44386D01*
X41275Y-44443D01*
X41414Y-44473D01*
X41556Y-44476D01*
X41565Y-44474D01*
X41565Y-44822D01*
X41551Y-44825D01*
X41424Y-44877D01*
X41309Y-44952D01*
X41211Y-45048D01*
X41174Y-45101D01*
X41159Y-45098D01*
X41152Y-45105D01*
X41152Y-45091D01*
X41128Y-44972D01*
X41018Y-44910D01*
X40898Y-44869D01*
X40772Y-44852D01*
X40645Y-44859D01*
X40522Y-44892D01*
X40408Y-44948D01*
X40372Y-44972D01*
X40348Y-45091D01*
X40750Y-45493D01*
X41152Y-45091D01*
X41152Y-45105D01*
X40757Y-45500D01*
X41159Y-45902D01*
X41174Y-45898D01*
X41199Y-45937D01*
X41294Y-46036D01*
X41407Y-46114D01*
X41533Y-46169D01*
X41667Y-46198D01*
X41804Y-46201D01*
X41940Y-46177D01*
X42067Y-46128D01*
X42183Y-46054D01*
X42283Y-45959D01*
X42362Y-45847D01*
X42418Y-45722D01*
X42448Y-45588D01*
X42450Y-45431D01*
X42427Y-45319D01*
X42427Y-45318D01*
X42430Y-45292D01*
X42435Y-45256D01*
X42435Y-45252D01*
X42435Y-45250D01*
X42435Y-43756D01*
X42435Y-43753D01*
X42435Y-43750D01*
X42435Y-42636D01*
X42500Y-42572D01*
X42565Y-42637D01*
X42565Y-43744D01*
X42565Y-43747D01*
X42565Y-43750D01*
X42565Y-45245D01*
X42565Y-45250D01*
X42568Y-45281D01*
X42571Y-45322D01*
X42571Y-45323D01*
X42551Y-45422D01*
X42549Y-45559D01*
X42574Y-45694D01*
X42625Y-45822D01*
X42699Y-45937D01*
X42794Y-46036D01*
X42907Y-46114D01*
X43033Y-46169D01*
X43167Y-46198D01*
X43304Y-46201D01*
X43440Y-46177D01*
X43567Y-46128D01*
X43683Y-46054D01*
X43783Y-45959D01*
X43825Y-45898D01*
X43841Y-45902D01*
X44243Y-45500D01*
X43841Y-45098D01*
X43825Y-45101D01*
X43795Y-45055D01*
X43698Y-44958D01*
X43584Y-44881D01*
X43458Y-44828D01*
X43435Y-44823D01*
X43435Y-44473D01*
X43556Y-44476D01*
X43696Y-44452D01*
X43828Y-44400D01*
X43948Y-44324D01*
X44051Y-44226D01*
X44133Y-44110D01*
X44191Y-43980D01*
X44223Y-43841D01*
X44225Y-43679D01*
X44197Y-43540D01*
X44143Y-43408D01*
X44065Y-43290D01*
X43964Y-43189D01*
X43847Y-43109D01*
X43715Y-43054D01*
X43576Y-43026D01*
X43435Y-43025D01*
X43435Y-42636D01*
X43500Y-42572D01*
X43579Y-42651D01*
X43686Y-42723D01*
X43804Y-42773D01*
X43931Y-42799D01*
X44059Y-42800D01*
X44186Y-42776D01*
X44305Y-42728D01*
X44413Y-42658D01*
X44500Y-42572D01*
X44579Y-42651D01*
X44596Y-42662D01*
X44597Y-42663D01*
X44597Y-42665D01*
X44598Y-42666D01*
X44636Y-42737D01*
X44638Y-42741D01*
X44688Y-42803D01*
X44691Y-42807D01*
X44692Y-42808D01*
X45065Y-43181D01*
X45065Y-46069D01*
X44898Y-46236D01*
X44898Y-45522D01*
X44891Y-45395D01*
X44858Y-45272D01*
X44802Y-45158D01*
X44778Y-45122D01*
X44659Y-45098D01*
X44652Y-45105D01*
X44652Y-45091D01*
X44628Y-44972D01*
X44518Y-44910D01*
X44398Y-44869D01*
X44272Y-44852D01*
X44145Y-44859D01*
X44022Y-44892D01*
X43908Y-44948D01*
X43872Y-44972D01*
X43848Y-45091D01*
X44250Y-45493D01*
X44652Y-45091D01*
X44652Y-45105D01*
X44257Y-45500D01*
X44659Y-45902D01*
X44778Y-45878D01*
X44840Y-45768D01*
X44881Y-45648D01*
X44898Y-45522D01*
X44898Y-46236D01*
X44694Y-46440D01*
X44652Y-46440D01*
X44652Y-45909D01*
X44250Y-45507D01*
X43848Y-45909D01*
X43872Y-46028D01*
X43982Y-46090D01*
X44102Y-46131D01*
X44228Y-46148D01*
X44355Y-46141D01*
X44478Y-46108D01*
X44592Y-46052D01*
X44628Y-46028D01*
X44652Y-45909D01*
X44652Y-46440D01*
X41152Y-46440D01*
X41152Y-45909D01*
X40750Y-45507D01*
X40743Y-45514D01*
X40743Y-45500D01*
X40341Y-45098D01*
X40222Y-45122D01*
X40160Y-45232D01*
X40119Y-45352D01*
X40102Y-45478D01*
X40109Y-45605D01*
X40142Y-45728D01*
X40198Y-45842D01*
X40222Y-45878D01*
X40341Y-45902D01*
X40743Y-45500D01*
X40743Y-45514D01*
X40348Y-45909D01*
X40372Y-46028D01*
X40482Y-46090D01*
X40602Y-46131D01*
X40728Y-46148D01*
X40855Y-46141D01*
X40978Y-46108D01*
X41092Y-46052D01*
X41128Y-46028D01*
X41152Y-45909D01*
X41152Y-46440D01*
X37398Y-46440D01*
X37398Y-45522D01*
X37391Y-45395D01*
X37358Y-45272D01*
X37302Y-45158D01*
X37278Y-45122D01*
X37159Y-45098D01*
X36757Y-45500D01*
X37159Y-45902D01*
X37278Y-45878D01*
X37340Y-45768D01*
X37381Y-45648D01*
X37398Y-45522D01*
X37398Y-46440D01*
X37152Y-46440D01*
X37152Y-45909D01*
X36750Y-45507D01*
X36348Y-45909D01*
X36372Y-46028D01*
X36482Y-46090D01*
X36602Y-46131D01*
X36728Y-46148D01*
X36855Y-46141D01*
X36978Y-46108D01*
X37092Y-46052D01*
X37128Y-46028D01*
X37152Y-45909D01*
X37152Y-46440D01*
X36625Y-46440D01*
X36541Y-46448D01*
X36459Y-46473D01*
X36384Y-46513D01*
X36318Y-46566D01*
X36313Y-46571D01*
X34942Y-47942D01*
X34903Y-47989D01*
X34891Y-48004D01*
X34890Y-48005D01*
X34889Y-48007D01*
X34862Y-48057D01*
X34850Y-48079D01*
X34849Y-48079D01*
X34848Y-48083D01*
X34829Y-48145D01*
X34825Y-48160D01*
X34824Y-48161D01*
X34824Y-48164D01*
X34814Y-48249D01*
X34815Y-48258D01*
X34815Y-48918D01*
X34794Y-48932D01*
X34750Y-48975D01*
X34714Y-48939D01*
X34685Y-48919D01*
X34685Y-46930D01*
X36103Y-45511D01*
X36109Y-45605D01*
X36142Y-45728D01*
X36198Y-45842D01*
X36222Y-45878D01*
X36341Y-45902D01*
X36672Y-45571D01*
X36743Y-45500D01*
X36750Y-45493D01*
X36821Y-45422D01*
X37152Y-45091D01*
X37128Y-44972D01*
X37018Y-44910D01*
X36898Y-44869D01*
X36772Y-44852D01*
X36762Y-44852D01*
X38304Y-43311D01*
X38307Y-43308D01*
X38331Y-43278D01*
X38359Y-43246D01*
X38359Y-43244D01*
X38361Y-43243D01*
X38370Y-43225D01*
X38400Y-43171D01*
X38401Y-43167D01*
X38425Y-43090D01*
X38425Y-43088D01*
X38426Y-43086D01*
X38430Y-43042D01*
X38435Y-43006D01*
X38435Y-43002D01*
X38435Y-43000D01*
X38435Y-42636D01*
X38500Y-42572D01*
X38579Y-42651D01*
X38686Y-42723D01*
X38804Y-42773D01*
X38931Y-42799D01*
X39059Y-42800D01*
X39186Y-42776D01*
X39305Y-42728D01*
X39413Y-42658D01*
X39500Y-42572D01*
X39579Y-42651D01*
X39686Y-42723D01*
X39804Y-42773D01*
X39931Y-42799D01*
X40059Y-42800D01*
X40186Y-42776D01*
X40305Y-42728D01*
X40413Y-42658D01*
X40505Y-42568D01*
X40529Y-42532D01*
X40613Y-42615D01*
X40713Y-42681D01*
X40824Y-42726D01*
X40900Y-42741D01*
X40995Y-42674D01*
X40995Y-42105D01*
X40995Y-42005D01*
X40995Y-41995D01*
X40995Y-41895D01*
X40995Y-41326D01*
X40900Y-41259D01*
X40824Y-41274D01*
X40713Y-41319D01*
X40613Y-41385D01*
X40529Y-41467D01*
X40512Y-41440D01*
X40421Y-41349D01*
X40314Y-41277D01*
X40196Y-41227D01*
X40069Y-41201D01*
X39941Y-41200D01*
X39814Y-41224D01*
X39695Y-41272D01*
X39587Y-41342D01*
X39499Y-41427D01*
X39435Y-41363D01*
X39435Y-41255D01*
X39435Y-41250D01*
X39431Y-41218D01*
X39428Y-41170D01*
X39427Y-41166D01*
X39422Y-41152D01*
X39404Y-41088D01*
X39402Y-41084D01*
X39364Y-41013D01*
X39362Y-41009D01*
X39329Y-40967D01*
X39312Y-40946D01*
X39310Y-40944D01*
X39309Y-40943D01*
X39307Y-40942D01*
X39303Y-40938D01*
X38148Y-39783D01*
X38186Y-39776D01*
X38305Y-39728D01*
X38413Y-39658D01*
X38500Y-39572D01*
X38579Y-39651D01*
X38686Y-39723D01*
X38804Y-39773D01*
X38931Y-39799D01*
X39059Y-39800D01*
X39186Y-39776D01*
X39305Y-39728D01*
X39413Y-39658D01*
X39500Y-39572D01*
X39579Y-39651D01*
X39686Y-39723D01*
X39804Y-39773D01*
X39931Y-39799D01*
X40059Y-39800D01*
X40186Y-39776D01*
X40305Y-39728D01*
X40413Y-39658D01*
X40500Y-39572D01*
X40579Y-39651D01*
X40686Y-39723D01*
X40804Y-39773D01*
X40931Y-39799D01*
X41059Y-39800D01*
X41186Y-39776D01*
X41305Y-39728D01*
X41413Y-39658D01*
X41500Y-39572D01*
X41579Y-39651D01*
X41686Y-39723D01*
X41804Y-39773D01*
X41931Y-39799D01*
X42059Y-39800D01*
X42186Y-39776D01*
X42305Y-39728D01*
X42413Y-39658D01*
X42505Y-39568D01*
X42529Y-39532D01*
X42613Y-39615D01*
X42713Y-39681D01*
X42824Y-39726D01*
X42900Y-39741D01*
X42995Y-39674D01*
X42995Y-39105D01*
X42995Y-39005D01*
X42995Y-38995D01*
X42995Y-38895D01*
X42995Y-38326D01*
X42900Y-38259D01*
X42824Y-38274D01*
X42713Y-38319D01*
X42613Y-38385D01*
X42529Y-38467D01*
X42525Y-38459D01*
X42525Y-37902D01*
X42571Y-37872D01*
X42620Y-37824D01*
X42642Y-37789D01*
X42732Y-37840D01*
X42852Y-37881D01*
X42978Y-37898D01*
X43105Y-37891D01*
X43228Y-37858D01*
X43342Y-37802D01*
X43378Y-37778D01*
X43402Y-37659D01*
X43071Y-37328D01*
X43000Y-37257D01*
X42993Y-37250D01*
X43000Y-37243D01*
X43071Y-37172D01*
X43402Y-36841D01*
X43402Y-35909D01*
X43000Y-35507D01*
X42598Y-35909D01*
X42622Y-36028D01*
X42732Y-36090D01*
X42852Y-36131D01*
X42978Y-36148D01*
X43105Y-36141D01*
X43228Y-36108D01*
X43342Y-36052D01*
X43378Y-36028D01*
X43402Y-35909D01*
X43402Y-36841D01*
X43378Y-36722D01*
X43268Y-36660D01*
X43148Y-36619D01*
X43022Y-36602D01*
X42895Y-36609D01*
X42772Y-36642D01*
X42658Y-36698D01*
X42641Y-36708D01*
X42622Y-36679D01*
X42574Y-36630D01*
X42525Y-36597D01*
X42525Y-35966D01*
X42533Y-35959D01*
X42575Y-35898D01*
X42591Y-35902D01*
X42993Y-35500D01*
X42591Y-35098D01*
X42575Y-35101D01*
X42545Y-35055D01*
X42525Y-35035D01*
X42525Y-33623D01*
X42560Y-33638D01*
X42618Y-33650D01*
X42677Y-33650D01*
X42920Y-33650D01*
X42995Y-33575D01*
X42995Y-33105D01*
X42995Y-33005D01*
X42995Y-32995D01*
X43005Y-32995D01*
X43105Y-32995D01*
X43575Y-32995D01*
X43650Y-32920D01*
X43650Y-32621D01*
X43639Y-32563D01*
X43616Y-32509D01*
X43584Y-32460D01*
X43559Y-32435D01*
X43745Y-32435D01*
X43750Y-32435D01*
X43781Y-32431D01*
X43830Y-32428D01*
X43833Y-32427D01*
X43834Y-32427D01*
X43848Y-32422D01*
X43912Y-32404D01*
X43915Y-32402D01*
X43916Y-32402D01*
X43987Y-32364D01*
X43991Y-32362D01*
X44053Y-32312D01*
X44057Y-32309D01*
X44057Y-32308D01*
X44058Y-32308D01*
X44146Y-32218D01*
X44177Y-32250D01*
X44099Y-32329D01*
X44027Y-32436D01*
X43977Y-32554D01*
X43951Y-32681D01*
X43950Y-32809D01*
X43974Y-32936D01*
X44022Y-33055D01*
X44092Y-33163D01*
X44177Y-33250D01*
X44099Y-33329D01*
X44027Y-33436D01*
X43977Y-33554D01*
X43951Y-33681D01*
X43950Y-33809D01*
X43974Y-33936D01*
X44022Y-34055D01*
X44092Y-34163D01*
X44182Y-34255D01*
X44289Y-34328D01*
X44407Y-34379D01*
X44533Y-34406D01*
X44662Y-34408D01*
X44957Y-34407D01*
X45083Y-34382D01*
X45203Y-34333D01*
X45310Y-34262D01*
X45401Y-34171D01*
X45473Y-34064D01*
X45523Y-33946D01*
X45549Y-33819D01*
X45550Y-33691D01*
X45526Y-33564D01*
X45478Y-33445D01*
X45408Y-33337D01*
X45322Y-33249D01*
X45401Y-33171D01*
X45473Y-33064D01*
X45523Y-32946D01*
X45549Y-32819D01*
X45550Y-32691D01*
X45526Y-32564D01*
X45478Y-32445D01*
X45408Y-32337D01*
X45322Y-32249D01*
X45401Y-32171D01*
X45473Y-32064D01*
X45523Y-31946D01*
X45549Y-31819D01*
X45550Y-31691D01*
X45526Y-31564D01*
X45478Y-31445D01*
X45408Y-31337D01*
X45322Y-31249D01*
X45401Y-31171D01*
X45473Y-31064D01*
X45523Y-30946D01*
X45549Y-30819D01*
X45550Y-30691D01*
X45526Y-30564D01*
X45478Y-30445D01*
X45408Y-30337D01*
X45322Y-30249D01*
X45401Y-30171D01*
X45473Y-30064D01*
X45523Y-29946D01*
X45549Y-29819D01*
X45550Y-29691D01*
X45526Y-29564D01*
X45478Y-29445D01*
X45408Y-29337D01*
X45322Y-29249D01*
X45401Y-29171D01*
X45473Y-29064D01*
X45523Y-28946D01*
X45549Y-28819D01*
X45550Y-28691D01*
X45526Y-28564D01*
X45478Y-28445D01*
X45408Y-28337D01*
X45322Y-28249D01*
X45401Y-28171D01*
X45412Y-28154D01*
X45412Y-28153D01*
X45413Y-28152D01*
X45415Y-28152D01*
X45416Y-28152D01*
X45487Y-28114D01*
X45491Y-28112D01*
X45553Y-28062D01*
X45557Y-28059D01*
X45557Y-28058D01*
X45558Y-28058D01*
X46054Y-27561D01*
X46058Y-27558D01*
X46096Y-27510D01*
X46109Y-27496D01*
X46109Y-27494D01*
X46111Y-27493D01*
X46138Y-27442D01*
X46150Y-27421D01*
X46150Y-27420D01*
X46152Y-27417D01*
X46170Y-27355D01*
X46175Y-27340D01*
X46175Y-27338D01*
X46176Y-27336D01*
X46185Y-27256D01*
X46186Y-27251D01*
X46185Y-27250D01*
X46185Y-27241D01*
X46185Y-26255D01*
X46185Y-26250D01*
X46181Y-26218D01*
X46178Y-26170D01*
X46177Y-26166D01*
X46172Y-26152D01*
X46154Y-26088D01*
X46152Y-26084D01*
X46114Y-26013D01*
X46112Y-26009D01*
X46062Y-25947D01*
X46059Y-25943D01*
X46058Y-25942D01*
X45558Y-25442D01*
X45510Y-25403D01*
X45496Y-25391D01*
X45494Y-25390D01*
X45493Y-25389D01*
X45442Y-25362D01*
X45421Y-25350D01*
X45420Y-25349D01*
X45417Y-25348D01*
X45355Y-25329D01*
X45340Y-25325D01*
X45338Y-25324D01*
X45336Y-25324D01*
X45251Y-25314D01*
X45241Y-25315D01*
X44189Y-25315D01*
X44186Y-25299D01*
X44176Y-25275D01*
X44493Y-25275D01*
X44496Y-25275D01*
X44500Y-25275D01*
X45783Y-25275D01*
X45794Y-25286D01*
X45907Y-25364D01*
X46033Y-25419D01*
X46167Y-25448D01*
X46304Y-25451D01*
X46440Y-25427D01*
X46567Y-25378D01*
X46683Y-25304D01*
X46713Y-25275D01*
X47097Y-25275D01*
X47128Y-25321D01*
X47176Y-25370D01*
X47225Y-25402D01*
X47225Y-26214D01*
X47190Y-26238D01*
X47099Y-26329D01*
X47027Y-26436D01*
X46977Y-26554D01*
X46951Y-26681D01*
X46950Y-26809D01*
X46974Y-26936D01*
X47022Y-27055D01*
X47092Y-27163D01*
X47182Y-27255D01*
X47217Y-27279D01*
X47135Y-27363D01*
X47069Y-27463D01*
X47024Y-27574D01*
X47009Y-27650D01*
X47076Y-27745D01*
X47645Y-27745D01*
X47745Y-27745D01*
X47755Y-27745D01*
X47855Y-27745D01*
X48424Y-27745D01*
X48491Y-27650D01*
X48476Y-27574D01*
X48431Y-27463D01*
X48365Y-27363D01*
X48282Y-27279D01*
X48310Y-27262D01*
X48401Y-27171D01*
X48473Y-27064D01*
X48523Y-26946D01*
X48549Y-26819D01*
X48550Y-26691D01*
X48526Y-26564D01*
X48478Y-26445D01*
X48408Y-26337D01*
X48318Y-26245D01*
X48275Y-26215D01*
X48275Y-25402D01*
X48321Y-25372D01*
X48370Y-25324D01*
X48392Y-25289D01*
X48482Y-25340D01*
X48602Y-25381D01*
X48728Y-25398D01*
X48855Y-25391D01*
X48978Y-25358D01*
X49092Y-25302D01*
X49128Y-25278D01*
X49152Y-25159D01*
X48821Y-24828D01*
X48750Y-24757D01*
X48743Y-24750D01*
X48750Y-24743D01*
X48821Y-24672D01*
X49152Y-24341D01*
X49128Y-24222D01*
X49018Y-24160D01*
X48898Y-24119D01*
X48772Y-24102D01*
X48645Y-24109D01*
X48522Y-24142D01*
X48408Y-24198D01*
X48391Y-24208D01*
X48372Y-24179D01*
X48324Y-24130D01*
X48267Y-24092D01*
X48204Y-24065D01*
X48137Y-24051D01*
X48068Y-24051D01*
X47366Y-24051D01*
X47299Y-24064D01*
X47236Y-24090D01*
X47179Y-24128D01*
X47130Y-24176D01*
X47097Y-24225D01*
X46898Y-24225D01*
X46898Y-23772D01*
X46891Y-23645D01*
X46858Y-23522D01*
X46802Y-23408D01*
X46778Y-23372D01*
X46659Y-23348D01*
X46652Y-23355D01*
X46652Y-23341D01*
X46628Y-23222D01*
X46518Y-23160D01*
X46398Y-23119D01*
X46272Y-23102D01*
X46145Y-23109D01*
X46022Y-23142D01*
X45908Y-23198D01*
X45872Y-23222D01*
X45848Y-23341D01*
X46250Y-23743D01*
X46652Y-23341D01*
X46652Y-23355D01*
X46257Y-23750D01*
X46659Y-24152D01*
X46778Y-24128D01*
X46840Y-24018D01*
X46881Y-23898D01*
X46898Y-23772D01*
X46898Y-24225D01*
X46715Y-24225D01*
X46698Y-24208D01*
X46648Y-24174D01*
X46652Y-24159D01*
X46250Y-23757D01*
X46243Y-23764D01*
X46243Y-23750D01*
X45841Y-23348D01*
X45722Y-23372D01*
X45660Y-23482D01*
X45619Y-23602D01*
X45602Y-23728D01*
X45609Y-23855D01*
X45642Y-23978D01*
X45698Y-24092D01*
X45722Y-24128D01*
X45841Y-24152D01*
X46243Y-23750D01*
X46243Y-23764D01*
X45848Y-24159D01*
X45851Y-24174D01*
X45809Y-24202D01*
X45785Y-24225D01*
X45025Y-24225D01*
X45025Y-22000D01*
X45018Y-21929D01*
X45016Y-21903D01*
X45015Y-21900D01*
X45015Y-21898D01*
X45004Y-21862D01*
X44987Y-21804D01*
X44985Y-21800D01*
X44981Y-21794D01*
X44940Y-21713D01*
X44937Y-21709D01*
X44921Y-21689D01*
X44876Y-21633D01*
X44873Y-21630D01*
X44871Y-21628D01*
X43667Y-20425D01*
X50823Y-20425D01*
X52075Y-21676D01*
X52075Y-26398D01*
X51599Y-26398D01*
X51599Y-22343D01*
X51538Y-22035D01*
X51419Y-21746D01*
X51245Y-21484D01*
X51024Y-21262D01*
X50764Y-21087D01*
X50475Y-20965D01*
X50168Y-20902D01*
X49854Y-20900D01*
X49546Y-20959D01*
X49255Y-21076D01*
X48993Y-21248D01*
X48769Y-21467D01*
X48592Y-21726D01*
X48468Y-22014D01*
X48403Y-22321D01*
X48399Y-22635D01*
X48456Y-22943D01*
X48571Y-23235D01*
X48741Y-23498D01*
X48959Y-23724D01*
X49216Y-23903D01*
X49504Y-24028D01*
X49810Y-24095D01*
X50123Y-24102D01*
X50432Y-24047D01*
X50725Y-23934D01*
X50989Y-23766D01*
X51216Y-23550D01*
X51397Y-23293D01*
X51525Y-23007D01*
X51594Y-22701D01*
X51599Y-22343D01*
X51599Y-26398D01*
X50410Y-26398D01*
X50410Y-30102D01*
X52075Y-30102D01*
X52075Y-50823D01*
X52075Y-50823D01*
G37*
G54D29*
X52075Y-50823D02*
X51599Y-51299D01*
X51599Y-49843D01*
X51538Y-49535D01*
X51419Y-49246D01*
X51245Y-48984D01*
X51024Y-48762D01*
X50764Y-48587D01*
X50475Y-48465D01*
X50168Y-48402D01*
X49854Y-48400D01*
X49546Y-48459D01*
X49255Y-48576D01*
X48993Y-48748D01*
X48769Y-48967D01*
X48592Y-49226D01*
X48468Y-49514D01*
X48403Y-49821D01*
X48399Y-50135D01*
X48456Y-50443D01*
X48571Y-50735D01*
X48741Y-50998D01*
X48959Y-51224D01*
X49216Y-51403D01*
X49504Y-51528D01*
X49810Y-51595D01*
X50123Y-51602D01*
X50432Y-51547D01*
X50725Y-51434D01*
X50989Y-51266D01*
X51216Y-51050D01*
X51397Y-50793D01*
X51525Y-50507D01*
X51594Y-50201D01*
X51599Y-49843D01*
X51599Y-51299D01*
X50823Y-52075D01*
X43174Y-52075D01*
X43174Y-49860D01*
X43120Y-49586D01*
X43013Y-49328D01*
X42859Y-49095D01*
X42662Y-48897D01*
X42430Y-48741D01*
X42173Y-48633D01*
X41899Y-48577D01*
X41620Y-48575D01*
X41346Y-48627D01*
X41087Y-48732D01*
X40853Y-48885D01*
X40654Y-49081D01*
X40496Y-49311D01*
X40386Y-49568D01*
X40328Y-49841D01*
X40324Y-50120D01*
X40375Y-50395D01*
X40478Y-50654D01*
X40629Y-50889D01*
X40823Y-51090D01*
X41052Y-51249D01*
X41308Y-51361D01*
X41581Y-51421D01*
X41860Y-51427D01*
X42135Y-51378D01*
X42395Y-51277D01*
X42631Y-51127D01*
X42833Y-50935D01*
X42994Y-50706D01*
X43108Y-50451D01*
X43170Y-50179D01*
X43174Y-49860D01*
X43174Y-52075D01*
X28874Y-52075D01*
X28874Y-49160D01*
X27734Y-49160D01*
X27817Y-49128D01*
X27933Y-49054D01*
X28033Y-48959D01*
X28112Y-48847D01*
X28168Y-48722D01*
X28198Y-48588D01*
X28200Y-48431D01*
X28173Y-48296D01*
X28121Y-48169D01*
X28045Y-48055D01*
X27948Y-47958D01*
X27834Y-47881D01*
X27708Y-47828D01*
X27573Y-47800D01*
X27436Y-47800D01*
X27301Y-47825D01*
X27174Y-47877D01*
X27059Y-47952D01*
X27035Y-47975D01*
X26424Y-47975D01*
X26232Y-47975D01*
X26303Y-47904D01*
X26292Y-47893D01*
X26298Y-47892D01*
X26364Y-47779D01*
X26406Y-47654D01*
X26424Y-47523D01*
X26415Y-47392D01*
X26381Y-47265D01*
X26324Y-47146D01*
X26298Y-47108D01*
X26177Y-47080D01*
X25828Y-47429D01*
X25757Y-47500D01*
X25750Y-47507D01*
X25743Y-47500D01*
X25750Y-47493D01*
X25821Y-47422D01*
X26170Y-47073D01*
X26142Y-46952D01*
X26029Y-46886D01*
X25904Y-46844D01*
X25773Y-46826D01*
X25642Y-46835D01*
X25515Y-46869D01*
X25407Y-46920D01*
X25397Y-46904D01*
X25349Y-46855D01*
X25292Y-46817D01*
X25229Y-46790D01*
X25162Y-46776D01*
X25093Y-46776D01*
X24341Y-46776D01*
X24274Y-46789D01*
X24211Y-46815D01*
X24154Y-46853D01*
X24105Y-46901D01*
X24067Y-46958D01*
X24040Y-47021D01*
X24026Y-47088D01*
X24026Y-47157D01*
X24026Y-47909D01*
X24039Y-47976D01*
X24065Y-48039D01*
X24103Y-48096D01*
X24151Y-48145D01*
X24208Y-48183D01*
X24269Y-48209D01*
X24309Y-48286D01*
X24312Y-48290D01*
X24313Y-48291D01*
X24374Y-48366D01*
X24377Y-48370D01*
X24379Y-48371D01*
X24382Y-48374D01*
X24875Y-48867D01*
X24879Y-48871D01*
X24905Y-48892D01*
X24953Y-48933D01*
X24957Y-48935D01*
X24958Y-48936D01*
X24968Y-48941D01*
X25043Y-48983D01*
X25048Y-48984D01*
X25141Y-49014D01*
X25145Y-49014D01*
X25147Y-49015D01*
X25186Y-49018D01*
X25243Y-49025D01*
X25248Y-49025D01*
X25250Y-49025D01*
X27033Y-49025D01*
X27044Y-49036D01*
X27157Y-49114D01*
X27262Y-49160D01*
X23861Y-49160D01*
X23745Y-48984D01*
X23524Y-48762D01*
X23264Y-48587D01*
X22975Y-48465D01*
X22668Y-48402D01*
X22354Y-48400D01*
X22046Y-48459D01*
X21755Y-48576D01*
X21493Y-48748D01*
X21269Y-48967D01*
X21092Y-49226D01*
X20968Y-49514D01*
X20903Y-49821D01*
X20899Y-50135D01*
X20956Y-50443D01*
X21071Y-50735D01*
X21241Y-50998D01*
X21459Y-51224D01*
X21716Y-51403D01*
X22004Y-51528D01*
X22310Y-51595D01*
X22623Y-51602D01*
X22932Y-51547D01*
X23225Y-51434D01*
X23489Y-51266D01*
X23626Y-51135D01*
X23626Y-52075D01*
X21676Y-52075D01*
X20425Y-50823D01*
X20425Y-46281D01*
X22220Y-46281D01*
X22220Y-43718D01*
X20425Y-43718D01*
X20425Y-42396D01*
X22220Y-42396D01*
X22220Y-39604D01*
X20425Y-39604D01*
X20425Y-37031D01*
X22220Y-37031D01*
X22220Y-34468D01*
X20425Y-34468D01*
X20425Y-33146D01*
X22220Y-33146D01*
X22220Y-30354D01*
X20425Y-30354D01*
X20425Y-23304D01*
X20515Y-23367D01*
X20693Y-23445D01*
X20882Y-23487D01*
X21076Y-23491D01*
X21267Y-23457D01*
X21448Y-23387D01*
X21612Y-23283D01*
X21752Y-23149D01*
X21864Y-22991D01*
X21943Y-22814D01*
X21986Y-22625D01*
X21989Y-22403D01*
X21951Y-22213D01*
X21877Y-22033D01*
X21770Y-21872D01*
X21633Y-21734D01*
X21473Y-21626D01*
X21294Y-21551D01*
X21104Y-21512D01*
X20910Y-21510D01*
X20719Y-21547D01*
X20540Y-21619D01*
X20425Y-21694D01*
X20425Y-21676D01*
X21676Y-20425D01*
X24332Y-20425D01*
X23129Y-21629D01*
X23107Y-21655D01*
X23067Y-21703D01*
X23064Y-21707D01*
X23064Y-21708D01*
X23058Y-21718D01*
X23017Y-21793D01*
X22986Y-21891D01*
X22985Y-21895D01*
X22985Y-21897D01*
X22981Y-21936D01*
X22975Y-21993D01*
X22975Y-21998D01*
X22975Y-22000D01*
X22975Y-24406D01*
X22915Y-24346D01*
X22810Y-24275D01*
X22693Y-24226D01*
X22568Y-24201D01*
X22442Y-24200D01*
X22317Y-24223D01*
X22199Y-24271D01*
X22093Y-24340D01*
X22002Y-24429D01*
X21999Y-24431D01*
X21915Y-24346D01*
X21810Y-24275D01*
X21693Y-24226D01*
X21568Y-24201D01*
X21442Y-24200D01*
X21317Y-24223D01*
X21199Y-24271D01*
X21093Y-24340D01*
X21002Y-24429D01*
X20931Y-24533D01*
X20881Y-24650D01*
X20854Y-24774D01*
X20852Y-24901D01*
X20853Y-25216D01*
X20878Y-25340D01*
X20926Y-25458D01*
X20996Y-25564D01*
X21065Y-25633D01*
X21065Y-26745D01*
X21065Y-26750D01*
X21068Y-26781D01*
X21072Y-26830D01*
X21072Y-26833D01*
X21073Y-26834D01*
X21077Y-26848D01*
X21096Y-26912D01*
X21097Y-26915D01*
X21098Y-26916D01*
X21136Y-26987D01*
X21138Y-26991D01*
X21188Y-27053D01*
X21191Y-27057D01*
X21192Y-27058D01*
X22689Y-28554D01*
X22692Y-28557D01*
X22722Y-28581D01*
X22754Y-28609D01*
X22755Y-28609D01*
X22757Y-28611D01*
X22774Y-28620D01*
X22829Y-28650D01*
X22833Y-28651D01*
X22910Y-28675D01*
X22911Y-28675D01*
X22914Y-28676D01*
X22958Y-28680D01*
X22994Y-28685D01*
X22998Y-28685D01*
X23000Y-28685D01*
X24082Y-28685D01*
X24067Y-28708D01*
X24059Y-28725D01*
X23750Y-28725D01*
X23679Y-28731D01*
X23653Y-28734D01*
X23650Y-28734D01*
X23648Y-28735D01*
X23612Y-28745D01*
X23554Y-28763D01*
X23550Y-28764D01*
X23550Y-28765D01*
X23544Y-28768D01*
X23463Y-28810D01*
X23459Y-28812D01*
X23459Y-28813D01*
X23439Y-28829D01*
X23383Y-28874D01*
X23380Y-28877D01*
X23378Y-28879D01*
X22629Y-29629D01*
X22607Y-29655D01*
X22567Y-29703D01*
X22564Y-29707D01*
X22564Y-29708D01*
X22558Y-29718D01*
X22517Y-29793D01*
X22486Y-29891D01*
X22485Y-29895D01*
X22485Y-29897D01*
X22481Y-29936D01*
X22475Y-29993D01*
X22475Y-29998D01*
X22475Y-30000D01*
X22475Y-31243D01*
X22475Y-31246D01*
X22475Y-31250D01*
X22475Y-33243D01*
X22475Y-33246D01*
X22475Y-33250D01*
X22475Y-38493D01*
X22475Y-38496D01*
X22475Y-38500D01*
X22475Y-40493D01*
X22475Y-40496D01*
X22475Y-40500D01*
X22475Y-41494D01*
X22475Y-41500D01*
X22480Y-41554D01*
X22484Y-41596D01*
X22484Y-41598D01*
X22485Y-41602D01*
X22494Y-41631D01*
X22512Y-41695D01*
X22515Y-41700D01*
X22559Y-41786D01*
X22562Y-41790D01*
X22563Y-41791D01*
X22624Y-41866D01*
X22627Y-41870D01*
X22629Y-41871D01*
X22632Y-41874D01*
X23625Y-42867D01*
X23629Y-42871D01*
X23655Y-42892D01*
X23703Y-42933D01*
X23707Y-42935D01*
X23708Y-42936D01*
X23718Y-42941D01*
X23793Y-42983D01*
X23798Y-42984D01*
X23891Y-43014D01*
X23895Y-43014D01*
X23897Y-43015D01*
X23936Y-43018D01*
X23993Y-43025D01*
X23998Y-43025D01*
X24000Y-43025D01*
X24059Y-43025D01*
X24065Y-43039D01*
X24103Y-43096D01*
X24151Y-43145D01*
X24172Y-43159D01*
X24136Y-43221D01*
X24094Y-43346D01*
X24076Y-43477D01*
X24085Y-43608D01*
X24119Y-43735D01*
X24170Y-43842D01*
X24154Y-43853D01*
X24105Y-43901D01*
X24067Y-43958D01*
X24040Y-44021D01*
X24026Y-44088D01*
X24026Y-44157D01*
X24026Y-44909D01*
X24039Y-44976D01*
X24065Y-45039D01*
X24103Y-45096D01*
X24129Y-45123D01*
X24112Y-45149D01*
X24056Y-45280D01*
X24026Y-45419D01*
X24024Y-45561D01*
X24050Y-45701D01*
X24102Y-45833D01*
X24179Y-45952D01*
X24278Y-46055D01*
X24395Y-46136D01*
X24525Y-46193D01*
X24664Y-46223D01*
X24806Y-46226D01*
X24946Y-46202D01*
X25078Y-46150D01*
X25198Y-46074D01*
X25301Y-45976D01*
X25383Y-45860D01*
X25441Y-45730D01*
X25473Y-45591D01*
X25475Y-45429D01*
X25447Y-45290D01*
X25393Y-45158D01*
X25370Y-45123D01*
X25395Y-45099D01*
X25433Y-45042D01*
X25460Y-44979D01*
X25469Y-44935D01*
X25745Y-44935D01*
X25750Y-44935D01*
X25781Y-44931D01*
X25830Y-44928D01*
X25833Y-44927D01*
X25834Y-44927D01*
X25848Y-44922D01*
X25912Y-44904D01*
X25915Y-44902D01*
X25916Y-44902D01*
X25987Y-44864D01*
X25991Y-44862D01*
X26053Y-44812D01*
X26057Y-44809D01*
X26057Y-44808D01*
X26058Y-44808D01*
X26554Y-44311D01*
X26558Y-44308D01*
X26596Y-44260D01*
X26609Y-44246D01*
X26609Y-44244D01*
X26611Y-44243D01*
X26638Y-44192D01*
X26650Y-44171D01*
X26650Y-44170D01*
X26652Y-44167D01*
X26670Y-44105D01*
X26675Y-44090D01*
X26675Y-44088D01*
X26676Y-44086D01*
X26685Y-44006D01*
X26686Y-44001D01*
X26685Y-44000D01*
X26685Y-43991D01*
X26685Y-35755D01*
X26685Y-35750D01*
X26681Y-35718D01*
X26678Y-35670D01*
X26677Y-35666D01*
X26672Y-35652D01*
X26654Y-35588D01*
X26652Y-35584D01*
X26614Y-35513D01*
X26612Y-35509D01*
X26562Y-35447D01*
X26559Y-35443D01*
X26558Y-35442D01*
X26185Y-35069D01*
X26185Y-34413D01*
X26206Y-34393D01*
X26273Y-34297D01*
X26321Y-34190D01*
X26347Y-34075D01*
X26349Y-33941D01*
X26326Y-33826D01*
X26281Y-33717D01*
X26216Y-33619D01*
X26133Y-33536D01*
X26036Y-33470D01*
X25928Y-33425D01*
X25813Y-33401D01*
X25695Y-33401D01*
X25580Y-33423D01*
X25474Y-33465D01*
X25474Y-32841D01*
X25461Y-32774D01*
X25435Y-32711D01*
X25397Y-32654D01*
X25349Y-32605D01*
X25327Y-32590D01*
X25364Y-32529D01*
X25406Y-32404D01*
X25424Y-32273D01*
X25415Y-32142D01*
X25381Y-32015D01*
X25329Y-31907D01*
X25346Y-31897D01*
X25395Y-31849D01*
X25433Y-31792D01*
X25460Y-31729D01*
X25474Y-31662D01*
X25474Y-31593D01*
X25474Y-30841D01*
X25461Y-30774D01*
X25435Y-30711D01*
X25397Y-30654D01*
X25349Y-30605D01*
X25327Y-30590D01*
X25364Y-30529D01*
X25406Y-30404D01*
X25424Y-30273D01*
X25415Y-30142D01*
X25381Y-30015D01*
X25329Y-29907D01*
X25346Y-29897D01*
X25395Y-29849D01*
X25433Y-29792D01*
X25460Y-29729D01*
X25474Y-29662D01*
X25474Y-29593D01*
X25474Y-28841D01*
X25461Y-28774D01*
X25435Y-28711D01*
X25417Y-28685D01*
X26151Y-28685D01*
X26150Y-28801D01*
X26171Y-28916D01*
X26215Y-29025D01*
X26278Y-29124D01*
X26360Y-29209D01*
X26457Y-29276D01*
X26564Y-29323D01*
X26679Y-29348D01*
X26732Y-29348D01*
X27129Y-29745D01*
X27107Y-29760D01*
X27019Y-29846D01*
X26950Y-29947D01*
X26902Y-30060D01*
X26876Y-30180D01*
X26874Y-30302D01*
X26896Y-30423D01*
X26941Y-30537D01*
X27008Y-30640D01*
X27093Y-30728D01*
X27193Y-30798D01*
X27306Y-30847D01*
X27369Y-30861D01*
X30475Y-33967D01*
X30475Y-34975D01*
X30250Y-34975D01*
X30214Y-34939D01*
X30097Y-34859D01*
X29965Y-34804D01*
X29826Y-34776D01*
X29684Y-34775D01*
X29544Y-34801D01*
X29413Y-34854D01*
X29294Y-34932D01*
X29250Y-34975D01*
X28699Y-34975D01*
X28699Y-34366D01*
X28686Y-34299D01*
X28660Y-34236D01*
X28622Y-34179D01*
X28574Y-34130D01*
X28539Y-34107D01*
X28590Y-34018D01*
X28631Y-33898D01*
X28648Y-33772D01*
X28641Y-33645D01*
X28608Y-33522D01*
X28552Y-33408D01*
X28528Y-33372D01*
X28409Y-33348D01*
X28402Y-33355D01*
X28402Y-33341D01*
X28378Y-33222D01*
X28268Y-33160D01*
X28148Y-33119D01*
X28022Y-33102D01*
X27895Y-33109D01*
X27772Y-33142D01*
X27658Y-33198D01*
X27622Y-33222D01*
X27598Y-33341D01*
X28000Y-33743D01*
X28402Y-33341D01*
X28402Y-33355D01*
X28078Y-33679D01*
X28007Y-33750D01*
X28000Y-33757D01*
X27993Y-33750D01*
X27922Y-33679D01*
X27591Y-33348D01*
X27472Y-33372D01*
X27410Y-33482D01*
X27369Y-33602D01*
X27352Y-33728D01*
X27359Y-33855D01*
X27392Y-33978D01*
X27448Y-34092D01*
X27458Y-34108D01*
X27429Y-34128D01*
X27380Y-34176D01*
X27342Y-34233D01*
X27315Y-34296D01*
X27301Y-34363D01*
X27301Y-34432D01*
X27301Y-35134D01*
X27314Y-35201D01*
X27340Y-35264D01*
X27378Y-35321D01*
X27426Y-35370D01*
X27475Y-35402D01*
X27475Y-35493D01*
X27475Y-35496D01*
X27475Y-35500D01*
X27475Y-35784D01*
X27461Y-35798D01*
X27383Y-35911D01*
X27329Y-36038D01*
X27301Y-36172D01*
X27299Y-36309D01*
X27324Y-36444D01*
X27375Y-36572D01*
X27449Y-36687D01*
X27544Y-36786D01*
X27601Y-36825D01*
X27598Y-36841D01*
X28000Y-37243D01*
X28402Y-36841D01*
X28398Y-36825D01*
X28433Y-36804D01*
X28533Y-36709D01*
X28612Y-36597D01*
X28668Y-36472D01*
X28698Y-36338D01*
X28700Y-36181D01*
X28673Y-36046D01*
X28664Y-36025D01*
X29249Y-36025D01*
X29278Y-36055D01*
X29395Y-36136D01*
X29525Y-36193D01*
X29664Y-36223D01*
X29806Y-36226D01*
X29946Y-36202D01*
X30078Y-36150D01*
X30198Y-36074D01*
X30249Y-36025D01*
X30475Y-36025D01*
X30475Y-42784D01*
X30474Y-42785D01*
X30474Y-40912D01*
X30474Y-40843D01*
X30474Y-40091D01*
X30461Y-40024D01*
X30435Y-39961D01*
X30397Y-39904D01*
X30349Y-39855D01*
X30327Y-39840D01*
X30364Y-39779D01*
X30406Y-39654D01*
X30424Y-39523D01*
X30424Y-37523D01*
X30415Y-37392D01*
X30381Y-37265D01*
X30324Y-37146D01*
X30298Y-37108D01*
X30177Y-37080D01*
X30170Y-37087D01*
X30170Y-37073D01*
X30142Y-36952D01*
X30029Y-36886D01*
X29904Y-36844D01*
X29773Y-36826D01*
X29642Y-36835D01*
X29515Y-36869D01*
X29396Y-36926D01*
X29358Y-36952D01*
X29330Y-37073D01*
X29750Y-37493D01*
X30170Y-37073D01*
X30170Y-37087D01*
X29757Y-37500D01*
X30177Y-37920D01*
X30298Y-37892D01*
X30364Y-37779D01*
X30406Y-37654D01*
X30424Y-37523D01*
X30424Y-39523D01*
X30415Y-39392D01*
X30381Y-39265D01*
X30324Y-39146D01*
X30298Y-39108D01*
X30177Y-39080D01*
X30170Y-39087D01*
X30170Y-39073D01*
X30170Y-37927D01*
X29750Y-37507D01*
X29743Y-37514D01*
X29743Y-37500D01*
X29323Y-37080D01*
X29202Y-37108D01*
X29136Y-37221D01*
X29094Y-37346D01*
X29076Y-37477D01*
X29085Y-37608D01*
X29119Y-37735D01*
X29176Y-37854D01*
X29202Y-37892D01*
X29323Y-37920D01*
X29743Y-37500D01*
X29743Y-37514D01*
X29330Y-37927D01*
X29358Y-38048D01*
X29471Y-38114D01*
X29596Y-38156D01*
X29727Y-38174D01*
X29858Y-38165D01*
X29985Y-38131D01*
X30104Y-38074D01*
X30142Y-38048D01*
X30170Y-37927D01*
X30170Y-39073D01*
X30142Y-38952D01*
X30029Y-38886D01*
X29904Y-38844D01*
X29773Y-38826D01*
X29642Y-38835D01*
X29515Y-38869D01*
X29396Y-38926D01*
X29358Y-38952D01*
X29330Y-39073D01*
X29750Y-39493D01*
X30170Y-39073D01*
X30170Y-39087D01*
X29828Y-39429D01*
X29757Y-39500D01*
X29750Y-39507D01*
X29743Y-39500D01*
X29672Y-39429D01*
X29323Y-39080D01*
X29202Y-39108D01*
X29136Y-39221D01*
X29094Y-39346D01*
X29076Y-39477D01*
X29085Y-39608D01*
X29119Y-39735D01*
X29170Y-39842D01*
X29154Y-39853D01*
X29105Y-39901D01*
X29067Y-39958D01*
X29059Y-39975D01*
X28648Y-39975D01*
X28648Y-37272D01*
X28641Y-37145D01*
X28608Y-37022D01*
X28552Y-36908D01*
X28528Y-36872D01*
X28409Y-36848D01*
X28007Y-37250D01*
X28409Y-37652D01*
X28528Y-37628D01*
X28590Y-37518D01*
X28631Y-37398D01*
X28648Y-37272D01*
X28648Y-39975D01*
X28449Y-39975D01*
X28449Y-39366D01*
X28436Y-39299D01*
X28410Y-39236D01*
X28402Y-39224D01*
X28402Y-37659D01*
X28000Y-37257D01*
X27993Y-37264D01*
X27993Y-37250D01*
X27591Y-36848D01*
X27472Y-36872D01*
X27410Y-36982D01*
X27369Y-37102D01*
X27352Y-37228D01*
X27359Y-37355D01*
X27392Y-37478D01*
X27448Y-37592D01*
X27472Y-37628D01*
X27591Y-37652D01*
X27993Y-37250D01*
X27993Y-37264D01*
X27598Y-37659D01*
X27622Y-37778D01*
X27732Y-37840D01*
X27852Y-37881D01*
X27978Y-37898D01*
X28105Y-37891D01*
X28228Y-37858D01*
X28342Y-37802D01*
X28378Y-37778D01*
X28402Y-37659D01*
X28402Y-39224D01*
X28372Y-39179D01*
X28324Y-39130D01*
X28289Y-39107D01*
X28340Y-39018D01*
X28381Y-38898D01*
X28398Y-38772D01*
X28391Y-38645D01*
X28358Y-38522D01*
X28302Y-38408D01*
X28278Y-38372D01*
X28159Y-38348D01*
X28152Y-38355D01*
X28152Y-38341D01*
X28128Y-38222D01*
X28018Y-38160D01*
X27898Y-38119D01*
X27772Y-38102D01*
X27645Y-38109D01*
X27522Y-38142D01*
X27408Y-38198D01*
X27372Y-38222D01*
X27348Y-38341D01*
X27750Y-38743D01*
X28152Y-38341D01*
X28152Y-38355D01*
X27828Y-38679D01*
X27757Y-38750D01*
X27750Y-38757D01*
X27743Y-38750D01*
X27672Y-38679D01*
X27341Y-38348D01*
X27222Y-38372D01*
X27160Y-38482D01*
X27119Y-38602D01*
X27102Y-38728D01*
X27109Y-38855D01*
X27142Y-38978D01*
X27198Y-39092D01*
X27208Y-39108D01*
X27179Y-39128D01*
X27130Y-39176D01*
X27092Y-39233D01*
X27065Y-39296D01*
X27051Y-39363D01*
X27051Y-39432D01*
X27051Y-40134D01*
X27064Y-40201D01*
X27090Y-40264D01*
X27128Y-40321D01*
X27176Y-40370D01*
X27225Y-40402D01*
X27225Y-40493D01*
X27225Y-40496D01*
X27225Y-40500D01*
X27225Y-40784D01*
X27211Y-40798D01*
X27133Y-40911D01*
X27079Y-41038D01*
X27051Y-41172D01*
X27049Y-41309D01*
X27074Y-41444D01*
X27125Y-41572D01*
X27199Y-41687D01*
X27294Y-41786D01*
X27351Y-41825D01*
X27348Y-41841D01*
X27750Y-42243D01*
X28152Y-41841D01*
X28148Y-41825D01*
X28183Y-41804D01*
X28283Y-41709D01*
X28362Y-41597D01*
X28418Y-41472D01*
X28448Y-41338D01*
X28450Y-41181D01*
X28423Y-41046D01*
X28414Y-41025D01*
X29059Y-41025D01*
X29065Y-41039D01*
X29103Y-41096D01*
X29151Y-41145D01*
X29208Y-41183D01*
X29271Y-41210D01*
X29338Y-41224D01*
X29407Y-41224D01*
X30159Y-41224D01*
X30226Y-41211D01*
X30289Y-41185D01*
X30346Y-41147D01*
X30395Y-41099D01*
X30433Y-41042D01*
X30460Y-40979D01*
X30474Y-40912D01*
X30474Y-42785D01*
X30461Y-42798D01*
X30383Y-42911D01*
X30329Y-43038D01*
X30301Y-43172D01*
X30299Y-43309D01*
X30324Y-43444D01*
X30375Y-43572D01*
X30449Y-43687D01*
X30475Y-43714D01*
X30475Y-44809D01*
X30461Y-44815D01*
X30404Y-44853D01*
X30355Y-44901D01*
X30317Y-44958D01*
X30309Y-44975D01*
X28398Y-44975D01*
X28398Y-42272D01*
X28391Y-42145D01*
X28358Y-42022D01*
X28302Y-41908D01*
X28278Y-41872D01*
X28159Y-41848D01*
X27757Y-42250D01*
X28159Y-42652D01*
X28278Y-42628D01*
X28340Y-42518D01*
X28381Y-42398D01*
X28398Y-42272D01*
X28398Y-44975D01*
X28152Y-44975D01*
X28152Y-42659D01*
X27750Y-42257D01*
X27743Y-42264D01*
X27743Y-42250D01*
X27341Y-41848D01*
X27222Y-41872D01*
X27160Y-41982D01*
X27119Y-42102D01*
X27102Y-42228D01*
X27109Y-42355D01*
X27142Y-42478D01*
X27198Y-42592D01*
X27222Y-42628D01*
X27341Y-42652D01*
X27743Y-42250D01*
X27743Y-42264D01*
X27348Y-42659D01*
X27372Y-42778D01*
X27482Y-42840D01*
X27602Y-42881D01*
X27728Y-42898D01*
X27855Y-42891D01*
X27978Y-42858D01*
X28092Y-42802D01*
X28128Y-42778D01*
X28152Y-42659D01*
X28152Y-44975D01*
X27965Y-44975D01*
X27948Y-44958D01*
X27834Y-44881D01*
X27708Y-44828D01*
X27573Y-44800D01*
X27436Y-44800D01*
X27301Y-44825D01*
X27174Y-44877D01*
X27059Y-44952D01*
X26961Y-45048D01*
X26883Y-45161D01*
X26829Y-45288D01*
X26801Y-45422D01*
X26799Y-45559D01*
X26824Y-45694D01*
X26875Y-45822D01*
X26949Y-45937D01*
X27044Y-46036D01*
X27157Y-46114D01*
X27283Y-46169D01*
X27417Y-46198D01*
X27554Y-46201D01*
X27690Y-46177D01*
X27817Y-46128D01*
X27933Y-46054D01*
X27963Y-46025D01*
X30309Y-46025D01*
X30315Y-46039D01*
X30353Y-46096D01*
X30401Y-46145D01*
X30458Y-46183D01*
X30475Y-46190D01*
X30475Y-47494D01*
X30475Y-47500D01*
X30480Y-47554D01*
X30484Y-47596D01*
X30484Y-47598D01*
X30485Y-47602D01*
X30494Y-47631D01*
X30512Y-47695D01*
X30515Y-47700D01*
X30559Y-47786D01*
X30562Y-47790D01*
X30563Y-47791D01*
X30624Y-47866D01*
X30627Y-47870D01*
X30629Y-47871D01*
X30632Y-47874D01*
X31640Y-48882D01*
X31430Y-48741D01*
X31173Y-48633D01*
X30899Y-48577D01*
X30620Y-48575D01*
X30346Y-48627D01*
X30087Y-48732D01*
X29853Y-48885D01*
X29654Y-49081D01*
X29496Y-49311D01*
X29386Y-49568D01*
X29328Y-49841D01*
X29324Y-50120D01*
X29375Y-50395D01*
X29478Y-50654D01*
X29629Y-50889D01*
X29823Y-51090D01*
X30052Y-51249D01*
X30308Y-51361D01*
X30581Y-51421D01*
X30860Y-51427D01*
X31135Y-51378D01*
X31395Y-51277D01*
X31631Y-51127D01*
X31833Y-50935D01*
X31994Y-50706D01*
X32006Y-50677D01*
X32012Y-50695D01*
X32015Y-50700D01*
X32059Y-50786D01*
X32062Y-50790D01*
X32063Y-50791D01*
X32124Y-50866D01*
X32127Y-50870D01*
X32129Y-50871D01*
X32132Y-50874D01*
X33125Y-51867D01*
X33129Y-51871D01*
X33155Y-51892D01*
X33203Y-51933D01*
X33207Y-51935D01*
X33208Y-51936D01*
X33218Y-51941D01*
X33293Y-51983D01*
X33298Y-51984D01*
X33391Y-52014D01*
X33395Y-52014D01*
X33397Y-52015D01*
X33436Y-52018D01*
X33493Y-52025D01*
X33498Y-52025D01*
X33500Y-52025D01*
X37744Y-52025D01*
X37750Y-52025D01*
X37804Y-52019D01*
X37846Y-52016D01*
X37848Y-52015D01*
X37852Y-52015D01*
X37881Y-52005D01*
X37945Y-51988D01*
X37950Y-51985D01*
X38036Y-51941D01*
X38040Y-51937D01*
X38041Y-51937D01*
X38116Y-51876D01*
X38120Y-51873D01*
X38121Y-51871D01*
X38124Y-51867D01*
X38617Y-51375D01*
X38621Y-51371D01*
X38642Y-51344D01*
X38683Y-51297D01*
X38685Y-51292D01*
X38686Y-51292D01*
X38691Y-51282D01*
X38733Y-51207D01*
X38734Y-51202D01*
X38764Y-51109D01*
X38764Y-51104D01*
X38765Y-51103D01*
X38768Y-51063D01*
X38775Y-51007D01*
X38775Y-51002D01*
X38775Y-51000D01*
X38801Y-50976D01*
X38883Y-50860D01*
X38941Y-50730D01*
X38973Y-50591D01*
X38975Y-50429D01*
X38947Y-50290D01*
X38893Y-50158D01*
X38815Y-50040D01*
X38741Y-49966D01*
X38803Y-49904D01*
X38792Y-49893D01*
X38798Y-49892D01*
X38864Y-49779D01*
X38906Y-49654D01*
X38924Y-49523D01*
X38915Y-49392D01*
X38881Y-49265D01*
X38824Y-49146D01*
X38798Y-49108D01*
X38677Y-49080D01*
X38328Y-49429D01*
X38257Y-49500D01*
X38250Y-49507D01*
X38243Y-49500D01*
X38250Y-49493D01*
X38321Y-49422D01*
X38670Y-49073D01*
X38642Y-48952D01*
X38529Y-48886D01*
X38404Y-48844D01*
X38273Y-48826D01*
X38142Y-48835D01*
X38015Y-48869D01*
X37896Y-48926D01*
X37858Y-48952D01*
X37856Y-48957D01*
X37846Y-48947D01*
X37784Y-49009D01*
X37775Y-49000D01*
X37775Y-47839D01*
X37796Y-47810D01*
X37846Y-47698D01*
X37873Y-47579D01*
X37875Y-47439D01*
X37851Y-47319D01*
X37847Y-47310D01*
X44870Y-47310D01*
X44875Y-47310D01*
X44906Y-47306D01*
X44955Y-47303D01*
X44958Y-47302D01*
X44959Y-47302D01*
X44973Y-47297D01*
X45037Y-47279D01*
X45040Y-47277D01*
X45041Y-47277D01*
X45112Y-47239D01*
X45116Y-47237D01*
X45178Y-47187D01*
X45182Y-47184D01*
X45182Y-47183D01*
X45183Y-47183D01*
X45804Y-46561D01*
X45807Y-46558D01*
X45831Y-46528D01*
X45859Y-46496D01*
X45859Y-46494D01*
X45861Y-46493D01*
X45875Y-46466D01*
X45900Y-46421D01*
X45900Y-46418D01*
X45901Y-46418D01*
X45907Y-46398D01*
X45925Y-46340D01*
X45925Y-46338D01*
X45926Y-46336D01*
X45930Y-46292D01*
X45935Y-46256D01*
X45935Y-46252D01*
X45935Y-46250D01*
X45935Y-43005D01*
X45935Y-43000D01*
X45931Y-42968D01*
X45928Y-42920D01*
X45927Y-42916D01*
X45922Y-42902D01*
X45904Y-42838D01*
X45902Y-42834D01*
X45877Y-42788D01*
X45931Y-42799D01*
X46059Y-42800D01*
X46186Y-42776D01*
X46305Y-42728D01*
X46413Y-42658D01*
X46500Y-42572D01*
X46565Y-42637D01*
X46565Y-48837D01*
X46539Y-48863D01*
X46472Y-48960D01*
X46426Y-49068D01*
X46402Y-49183D01*
X46400Y-49301D01*
X46421Y-49416D01*
X46465Y-49525D01*
X46528Y-49624D01*
X46610Y-49709D01*
X46707Y-49776D01*
X46814Y-49823D01*
X46929Y-49848D01*
X47046Y-49850D01*
X47162Y-49830D01*
X47272Y-49787D01*
X47371Y-49724D01*
X47456Y-49643D01*
X47523Y-49547D01*
X47571Y-49440D01*
X47597Y-49325D01*
X47599Y-49191D01*
X47576Y-49076D01*
X47531Y-48967D01*
X47466Y-48869D01*
X47435Y-48838D01*
X47435Y-42636D01*
X47505Y-42568D01*
X47578Y-42461D01*
X47629Y-42343D01*
X47656Y-42217D01*
X47658Y-42088D01*
X47657Y-41793D01*
X47632Y-41667D01*
X47583Y-41547D01*
X47512Y-41440D01*
X47421Y-41349D01*
X47314Y-41277D01*
X47196Y-41227D01*
X47069Y-41201D01*
X46941Y-41200D01*
X46909Y-41205D01*
X48304Y-39811D01*
X48307Y-39808D01*
X48331Y-39778D01*
X48359Y-39746D01*
X48359Y-39744D01*
X48361Y-39743D01*
X48370Y-39725D01*
X48400Y-39671D01*
X48401Y-39667D01*
X48425Y-39590D01*
X48425Y-39588D01*
X48426Y-39586D01*
X48430Y-39542D01*
X48435Y-39506D01*
X48435Y-39502D01*
X48435Y-39500D01*
X48435Y-37663D01*
X48456Y-37643D01*
X48523Y-37547D01*
X48571Y-37440D01*
X48597Y-37325D01*
X48599Y-37191D01*
X48576Y-37076D01*
X48531Y-36967D01*
X48466Y-36869D01*
X48383Y-36786D01*
X48286Y-36720D01*
X48178Y-36675D01*
X48063Y-36651D01*
X47945Y-36651D01*
X47830Y-36673D01*
X47721Y-36717D01*
X47623Y-36781D01*
X47539Y-36863D01*
X47472Y-36960D01*
X47426Y-37068D01*
X47402Y-37183D01*
X47400Y-37301D01*
X47421Y-37416D01*
X47465Y-37525D01*
X47528Y-37624D01*
X47565Y-37662D01*
X47565Y-38519D01*
X47512Y-38440D01*
X47421Y-38349D01*
X47314Y-38277D01*
X47196Y-38227D01*
X47069Y-38201D01*
X46941Y-38200D01*
X46814Y-38224D01*
X46695Y-38272D01*
X46587Y-38342D01*
X46499Y-38427D01*
X46421Y-38349D01*
X46314Y-38277D01*
X46196Y-38227D01*
X46069Y-38201D01*
X45941Y-38200D01*
X45814Y-38224D01*
X45695Y-38272D01*
X45587Y-38342D01*
X45499Y-38427D01*
X45435Y-38363D01*
X45435Y-36430D01*
X46804Y-35061D01*
X46807Y-35058D01*
X46831Y-35028D01*
X46859Y-34996D01*
X46859Y-34994D01*
X46861Y-34993D01*
X46870Y-34975D01*
X46900Y-34921D01*
X46901Y-34917D01*
X46925Y-34840D01*
X46925Y-34838D01*
X46926Y-34836D01*
X46930Y-34792D01*
X46935Y-34756D01*
X46935Y-34752D01*
X46935Y-34750D01*
X46935Y-32431D01*
X47146Y-32219D01*
X47177Y-32250D01*
X47099Y-32329D01*
X47027Y-32436D01*
X46977Y-32554D01*
X46951Y-32681D01*
X46950Y-32809D01*
X46974Y-32936D01*
X47022Y-33055D01*
X47092Y-33163D01*
X47177Y-33250D01*
X47099Y-33329D01*
X47027Y-33436D01*
X46977Y-33554D01*
X46951Y-33681D01*
X46950Y-33809D01*
X46974Y-33936D01*
X47022Y-34055D01*
X47092Y-34163D01*
X47182Y-34255D01*
X47289Y-34328D01*
X47407Y-34379D01*
X47533Y-34406D01*
X47662Y-34408D01*
X47957Y-34407D01*
X48083Y-34382D01*
X48203Y-34333D01*
X48310Y-34262D01*
X48401Y-34171D01*
X48473Y-34064D01*
X48523Y-33946D01*
X48549Y-33819D01*
X48550Y-33691D01*
X48526Y-33564D01*
X48478Y-33445D01*
X48408Y-33337D01*
X48322Y-33249D01*
X48401Y-33171D01*
X48473Y-33064D01*
X48523Y-32946D01*
X48549Y-32819D01*
X48550Y-32691D01*
X48526Y-32564D01*
X48478Y-32445D01*
X48408Y-32337D01*
X48322Y-32249D01*
X48401Y-32171D01*
X48473Y-32064D01*
X48523Y-31946D01*
X48549Y-31819D01*
X48550Y-31691D01*
X48526Y-31564D01*
X48478Y-31445D01*
X48408Y-31337D01*
X48322Y-31249D01*
X48401Y-31171D01*
X48473Y-31064D01*
X48523Y-30946D01*
X48549Y-30819D01*
X48550Y-30691D01*
X48526Y-30564D01*
X48478Y-30445D01*
X48408Y-30337D01*
X48322Y-30249D01*
X48387Y-30185D01*
X48781Y-30185D01*
X48789Y-30226D01*
X48815Y-30289D01*
X48853Y-30346D01*
X48901Y-30395D01*
X48958Y-30433D01*
X49021Y-30460D01*
X49088Y-30474D01*
X49157Y-30474D01*
X49909Y-30474D01*
X49976Y-30461D01*
X50039Y-30435D01*
X50096Y-30397D01*
X50145Y-30349D01*
X50183Y-30292D01*
X50210Y-30229D01*
X50224Y-30162D01*
X50224Y-30093D01*
X50224Y-29341D01*
X50211Y-29274D01*
X50185Y-29211D01*
X50147Y-29154D01*
X50120Y-29127D01*
X50133Y-29110D01*
X50191Y-28980D01*
X50223Y-28841D01*
X50225Y-28679D01*
X50197Y-28540D01*
X50143Y-28408D01*
X50065Y-28290D01*
X49991Y-28216D01*
X50053Y-28154D01*
X50042Y-28143D01*
X50048Y-28142D01*
X50114Y-28029D01*
X50156Y-27904D01*
X50174Y-27773D01*
X50165Y-27642D01*
X50131Y-27515D01*
X50074Y-27396D01*
X50048Y-27358D01*
X50042Y-27356D01*
X50053Y-27346D01*
X49990Y-27283D01*
X50051Y-27226D01*
X50133Y-27110D01*
X50191Y-26980D01*
X50223Y-26841D01*
X50225Y-26679D01*
X50197Y-26540D01*
X50143Y-26408D01*
X50065Y-26290D01*
X49964Y-26189D01*
X49847Y-26109D01*
X49715Y-26054D01*
X49576Y-26026D01*
X49434Y-26025D01*
X49398Y-26031D01*
X49398Y-24772D01*
X49391Y-24645D01*
X49358Y-24522D01*
X49302Y-24408D01*
X49278Y-24372D01*
X49159Y-24348D01*
X48757Y-24750D01*
X49159Y-25152D01*
X49278Y-25128D01*
X49340Y-25018D01*
X49381Y-24898D01*
X49398Y-24772D01*
X49398Y-26031D01*
X49294Y-26051D01*
X49163Y-26104D01*
X49044Y-26182D01*
X48942Y-26282D01*
X48862Y-26399D01*
X48806Y-26530D01*
X48776Y-26669D01*
X48774Y-26811D01*
X48800Y-26951D01*
X48852Y-27083D01*
X48929Y-27202D01*
X49008Y-27284D01*
X48947Y-27346D01*
X48957Y-27356D01*
X48952Y-27358D01*
X48886Y-27471D01*
X48844Y-27596D01*
X48826Y-27727D01*
X48835Y-27858D01*
X48869Y-27985D01*
X48926Y-28104D01*
X48952Y-28142D01*
X48957Y-28143D01*
X48947Y-28154D01*
X49009Y-28216D01*
X48942Y-28282D01*
X48919Y-28315D01*
X48386Y-28315D01*
X48318Y-28245D01*
X48282Y-28220D01*
X48365Y-28137D01*
X48431Y-28037D01*
X48476Y-27926D01*
X48491Y-27850D01*
X48424Y-27755D01*
X47855Y-27755D01*
X47755Y-27755D01*
X47745Y-27755D01*
X47645Y-27755D01*
X47076Y-27755D01*
X47009Y-27850D01*
X47024Y-27926D01*
X47069Y-28037D01*
X47135Y-28137D01*
X47217Y-28220D01*
X47190Y-28238D01*
X47099Y-28329D01*
X47027Y-28436D01*
X46977Y-28554D01*
X46951Y-28681D01*
X46950Y-28809D01*
X46974Y-28936D01*
X47022Y-29055D01*
X47092Y-29163D01*
X47177Y-29250D01*
X47099Y-29329D01*
X47027Y-29436D01*
X46977Y-29554D01*
X46951Y-29681D01*
X46950Y-29809D01*
X46974Y-29936D01*
X47022Y-30055D01*
X47092Y-30163D01*
X47177Y-30250D01*
X47113Y-30315D01*
X46750Y-30315D01*
X46666Y-30323D01*
X46584Y-30348D01*
X46509Y-30388D01*
X46443Y-30441D01*
X46438Y-30446D01*
X45692Y-31192D01*
X45653Y-31239D01*
X45641Y-31254D01*
X45640Y-31255D01*
X45639Y-31257D01*
X45612Y-31307D01*
X45600Y-31329D01*
X45599Y-31329D01*
X45598Y-31333D01*
X45579Y-31395D01*
X45575Y-31410D01*
X45574Y-31411D01*
X45574Y-31414D01*
X45564Y-31499D01*
X45565Y-31508D01*
X45565Y-34319D01*
X43692Y-36192D01*
X43653Y-36239D01*
X43650Y-36242D01*
X43650Y-33379D01*
X43650Y-33080D01*
X43575Y-33005D01*
X43005Y-33005D01*
X43005Y-33575D01*
X43080Y-33650D01*
X43323Y-33650D01*
X43382Y-33650D01*
X43440Y-33638D01*
X43494Y-33615D01*
X43542Y-33582D01*
X43584Y-33540D01*
X43616Y-33491D01*
X43639Y-33437D01*
X43650Y-33379D01*
X43650Y-36242D01*
X43648Y-36245D01*
X43648Y-35522D01*
X43641Y-35395D01*
X43608Y-35272D01*
X43552Y-35158D01*
X43528Y-35122D01*
X43409Y-35098D01*
X43402Y-35105D01*
X43402Y-35091D01*
X43378Y-34972D01*
X43268Y-34910D01*
X43148Y-34869D01*
X43022Y-34852D01*
X42895Y-34859D01*
X42772Y-34892D01*
X42658Y-34948D01*
X42622Y-34972D01*
X42598Y-35091D01*
X43000Y-35493D01*
X43402Y-35091D01*
X43402Y-35105D01*
X43007Y-35500D01*
X43409Y-35902D01*
X43528Y-35878D01*
X43590Y-35768D01*
X43631Y-35648D01*
X43648Y-35522D01*
X43648Y-36245D01*
X43641Y-36254D01*
X43640Y-36255D01*
X43639Y-36257D01*
X43612Y-36307D01*
X43600Y-36329D01*
X43599Y-36329D01*
X43598Y-36333D01*
X43579Y-36395D01*
X43575Y-36410D01*
X43574Y-36411D01*
X43574Y-36414D01*
X43564Y-36499D01*
X43565Y-36508D01*
X43565Y-36934D01*
X43552Y-36908D01*
X43528Y-36872D01*
X43409Y-36848D01*
X43007Y-37250D01*
X43409Y-37652D01*
X43528Y-37628D01*
X43565Y-37562D01*
X43565Y-38363D01*
X43495Y-38432D01*
X43470Y-38467D01*
X43387Y-38385D01*
X43287Y-38319D01*
X43176Y-38274D01*
X43100Y-38259D01*
X43005Y-38326D01*
X43005Y-38895D01*
X43005Y-38995D01*
X43005Y-39005D01*
X43005Y-39105D01*
X43005Y-39674D01*
X43100Y-39741D01*
X43176Y-39726D01*
X43287Y-39681D01*
X43387Y-39615D01*
X43470Y-39532D01*
X43488Y-39560D01*
X43579Y-39651D01*
X43686Y-39723D01*
X43804Y-39773D01*
X43931Y-39799D01*
X44059Y-39800D01*
X44186Y-39776D01*
X44305Y-39728D01*
X44413Y-39658D01*
X44500Y-39572D01*
X44579Y-39651D01*
X44686Y-39723D01*
X44804Y-39773D01*
X44931Y-39799D01*
X45059Y-39800D01*
X45186Y-39776D01*
X45305Y-39728D01*
X45413Y-39658D01*
X45500Y-39572D01*
X45579Y-39651D01*
X45686Y-39723D01*
X45804Y-39773D01*
X45931Y-39799D01*
X46059Y-39800D01*
X46186Y-39776D01*
X46305Y-39728D01*
X46413Y-39658D01*
X46500Y-39572D01*
X46579Y-39651D01*
X46686Y-39723D01*
X46804Y-39773D01*
X46931Y-39799D01*
X47059Y-39800D01*
X47090Y-39794D01*
X45692Y-41192D01*
X45653Y-41239D01*
X45641Y-41254D01*
X45640Y-41255D01*
X45639Y-41257D01*
X45612Y-41307D01*
X45600Y-41329D01*
X45599Y-41329D01*
X45598Y-41333D01*
X45597Y-41335D01*
X45587Y-41342D01*
X45499Y-41427D01*
X45421Y-41349D01*
X45314Y-41277D01*
X45196Y-41227D01*
X45069Y-41201D01*
X44941Y-41200D01*
X44814Y-41224D01*
X44695Y-41272D01*
X44587Y-41342D01*
X44499Y-41427D01*
X44421Y-41349D01*
X44314Y-41277D01*
X44196Y-41227D01*
X44069Y-41201D01*
X43941Y-41200D01*
X43814Y-41224D01*
X43695Y-41272D01*
X43587Y-41342D01*
X43499Y-41427D01*
X43421Y-41349D01*
X43314Y-41277D01*
X43196Y-41227D01*
X43069Y-41201D01*
X42941Y-41200D01*
X42814Y-41224D01*
X42695Y-41272D01*
X42587Y-41342D01*
X42499Y-41427D01*
X42421Y-41349D01*
X42314Y-41277D01*
X42196Y-41227D01*
X42069Y-41201D01*
X41941Y-41200D01*
X41814Y-41224D01*
X41695Y-41272D01*
X41587Y-41342D01*
X41495Y-41432D01*
X41470Y-41467D01*
X41387Y-41385D01*
X41287Y-41319D01*
X41176Y-41274D01*
X41100Y-41259D01*
X41005Y-41326D01*
X41005Y-41895D01*
X41005Y-41995D01*
X41005Y-42005D01*
X41005Y-42105D01*
X41005Y-42674D01*
X41100Y-42741D01*
X41176Y-42726D01*
X41287Y-42681D01*
X41387Y-42615D01*
X41470Y-42532D01*
X41488Y-42560D01*
X41565Y-42637D01*
X41565Y-43025D01*
X41434Y-43025D01*
X41294Y-43051D01*
X41163Y-43104D01*
X41044Y-43182D01*
X40942Y-43282D01*
X40862Y-43399D01*
X40806Y-43530D01*
X40776Y-43669D01*
X40774Y-43811D01*
X40800Y-43951D01*
X40852Y-44083D01*
X40929Y-44202D01*
X41028Y-44305D01*
X41145Y-44386D01*
X41275Y-44443D01*
X41414Y-44473D01*
X41556Y-44476D01*
X41565Y-44474D01*
X41565Y-44822D01*
X41551Y-44825D01*
X41424Y-44877D01*
X41309Y-44952D01*
X41211Y-45048D01*
X41174Y-45101D01*
X41159Y-45098D01*
X41152Y-45105D01*
X41152Y-45091D01*
X41128Y-44972D01*
X41018Y-44910D01*
X40898Y-44869D01*
X40772Y-44852D01*
X40645Y-44859D01*
X40522Y-44892D01*
X40408Y-44948D01*
X40372Y-44972D01*
X40348Y-45091D01*
X40750Y-45493D01*
X41152Y-45091D01*
X41152Y-45105D01*
X40757Y-45500D01*
X41159Y-45902D01*
X41174Y-45898D01*
X41199Y-45937D01*
X41294Y-46036D01*
X41407Y-46114D01*
X41533Y-46169D01*
X41667Y-46198D01*
X41804Y-46201D01*
X41940Y-46177D01*
X42067Y-46128D01*
X42183Y-46054D01*
X42283Y-45959D01*
X42362Y-45847D01*
X42418Y-45722D01*
X42448Y-45588D01*
X42450Y-45431D01*
X42427Y-45319D01*
X42427Y-45318D01*
X42430Y-45292D01*
X42435Y-45256D01*
X42435Y-45252D01*
X42435Y-45250D01*
X42435Y-43756D01*
X42435Y-43753D01*
X42435Y-43750D01*
X42435Y-42636D01*
X42500Y-42572D01*
X42565Y-42637D01*
X42565Y-43744D01*
X42565Y-43747D01*
X42565Y-43750D01*
X42565Y-45245D01*
X42565Y-45250D01*
X42568Y-45281D01*
X42571Y-45322D01*
X42571Y-45323D01*
X42551Y-45422D01*
X42549Y-45559D01*
X42574Y-45694D01*
X42625Y-45822D01*
X42699Y-45937D01*
X42794Y-46036D01*
X42907Y-46114D01*
X43033Y-46169D01*
X43167Y-46198D01*
X43304Y-46201D01*
X43440Y-46177D01*
X43567Y-46128D01*
X43683Y-46054D01*
X43783Y-45959D01*
X43825Y-45898D01*
X43841Y-45902D01*
X44243Y-45500D01*
X43841Y-45098D01*
X43825Y-45101D01*
X43795Y-45055D01*
X43698Y-44958D01*
X43584Y-44881D01*
X43458Y-44828D01*
X43435Y-44823D01*
X43435Y-44473D01*
X43556Y-44476D01*
X43696Y-44452D01*
X43828Y-44400D01*
X43948Y-44324D01*
X44051Y-44226D01*
X44133Y-44110D01*
X44191Y-43980D01*
X44223Y-43841D01*
X44225Y-43679D01*
X44197Y-43540D01*
X44143Y-43408D01*
X44065Y-43290D01*
X43964Y-43189D01*
X43847Y-43109D01*
X43715Y-43054D01*
X43576Y-43026D01*
X43435Y-43025D01*
X43435Y-42636D01*
X43500Y-42572D01*
X43579Y-42651D01*
X43686Y-42723D01*
X43804Y-42773D01*
X43931Y-42799D01*
X44059Y-42800D01*
X44186Y-42776D01*
X44305Y-42728D01*
X44413Y-42658D01*
X44500Y-42572D01*
X44579Y-42651D01*
X44596Y-42662D01*
X44597Y-42663D01*
X44597Y-42665D01*
X44598Y-42666D01*
X44636Y-42737D01*
X44638Y-42741D01*
X44688Y-42803D01*
X44691Y-42807D01*
X44692Y-42808D01*
X45065Y-43181D01*
X45065Y-46069D01*
X44898Y-46236D01*
X44898Y-45522D01*
X44891Y-45395D01*
X44858Y-45272D01*
X44802Y-45158D01*
X44778Y-45122D01*
X44659Y-45098D01*
X44652Y-45105D01*
X44652Y-45091D01*
X44628Y-44972D01*
X44518Y-44910D01*
X44398Y-44869D01*
X44272Y-44852D01*
X44145Y-44859D01*
X44022Y-44892D01*
X43908Y-44948D01*
X43872Y-44972D01*
X43848Y-45091D01*
X44250Y-45493D01*
X44652Y-45091D01*
X44652Y-45105D01*
X44257Y-45500D01*
X44659Y-45902D01*
X44778Y-45878D01*
X44840Y-45768D01*
X44881Y-45648D01*
X44898Y-45522D01*
X44898Y-46236D01*
X44694Y-46440D01*
X44652Y-46440D01*
X44652Y-45909D01*
X44250Y-45507D01*
X43848Y-45909D01*
X43872Y-46028D01*
X43982Y-46090D01*
X44102Y-46131D01*
X44228Y-46148D01*
X44355Y-46141D01*
X44478Y-46108D01*
X44592Y-46052D01*
X44628Y-46028D01*
X44652Y-45909D01*
X44652Y-46440D01*
X41152Y-46440D01*
X41152Y-45909D01*
X40750Y-45507D01*
X40743Y-45514D01*
X40743Y-45500D01*
X40341Y-45098D01*
X40222Y-45122D01*
X40160Y-45232D01*
X40119Y-45352D01*
X40102Y-45478D01*
X40109Y-45605D01*
X40142Y-45728D01*
X40198Y-45842D01*
X40222Y-45878D01*
X40341Y-45902D01*
X40743Y-45500D01*
X40743Y-45514D01*
X40348Y-45909D01*
X40372Y-46028D01*
X40482Y-46090D01*
X40602Y-46131D01*
X40728Y-46148D01*
X40855Y-46141D01*
X40978Y-46108D01*
X41092Y-46052D01*
X41128Y-46028D01*
X41152Y-45909D01*
X41152Y-46440D01*
X37398Y-46440D01*
X37398Y-45522D01*
X37391Y-45395D01*
X37358Y-45272D01*
X37302Y-45158D01*
X37278Y-45122D01*
X37159Y-45098D01*
X36757Y-45500D01*
X37159Y-45902D01*
X37278Y-45878D01*
X37340Y-45768D01*
X37381Y-45648D01*
X37398Y-45522D01*
X37398Y-46440D01*
X37152Y-46440D01*
X37152Y-45909D01*
X36750Y-45507D01*
X36348Y-45909D01*
X36372Y-46028D01*
X36482Y-46090D01*
X36602Y-46131D01*
X36728Y-46148D01*
X36855Y-46141D01*
X36978Y-46108D01*
X37092Y-46052D01*
X37128Y-46028D01*
X37152Y-45909D01*
X37152Y-46440D01*
X36625Y-46440D01*
X36541Y-46448D01*
X36459Y-46473D01*
X36384Y-46513D01*
X36318Y-46566D01*
X36313Y-46571D01*
X34942Y-47942D01*
X34903Y-47989D01*
X34891Y-48004D01*
X34890Y-48005D01*
X34889Y-48007D01*
X34862Y-48057D01*
X34850Y-48079D01*
X34849Y-48079D01*
X34848Y-48083D01*
X34829Y-48145D01*
X34825Y-48160D01*
X34824Y-48161D01*
X34824Y-48164D01*
X34814Y-48249D01*
X34815Y-48258D01*
X34815Y-48918D01*
X34794Y-48932D01*
X34750Y-48975D01*
X34714Y-48939D01*
X34685Y-48919D01*
X34685Y-46930D01*
X36103Y-45511D01*
X36109Y-45605D01*
X36142Y-45728D01*
X36198Y-45842D01*
X36222Y-45878D01*
X36341Y-45902D01*
X36672Y-45571D01*
X36743Y-45500D01*
X36750Y-45493D01*
X36821Y-45422D01*
X37152Y-45091D01*
X37128Y-44972D01*
X37018Y-44910D01*
X36898Y-44869D01*
X36772Y-44852D01*
X36762Y-44852D01*
X38304Y-43311D01*
X38307Y-43308D01*
X38331Y-43278D01*
X38359Y-43246D01*
X38359Y-43244D01*
X38361Y-43243D01*
X38370Y-43225D01*
X38400Y-43171D01*
X38401Y-43167D01*
X38425Y-43090D01*
X38425Y-43088D01*
X38426Y-43086D01*
X38430Y-43042D01*
X38435Y-43006D01*
X38435Y-43002D01*
X38435Y-43000D01*
X38435Y-42636D01*
X38500Y-42572D01*
X38579Y-42651D01*
X38686Y-42723D01*
X38804Y-42773D01*
X38931Y-42799D01*
X39059Y-42800D01*
X39186Y-42776D01*
X39305Y-42728D01*
X39413Y-42658D01*
X39500Y-42572D01*
X39579Y-42651D01*
X39686Y-42723D01*
X39804Y-42773D01*
X39931Y-42799D01*
X40059Y-42800D01*
X40186Y-42776D01*
X40305Y-42728D01*
X40413Y-42658D01*
X40505Y-42568D01*
X40529Y-42532D01*
X40613Y-42615D01*
X40713Y-42681D01*
X40824Y-42726D01*
X40900Y-42741D01*
X40995Y-42674D01*
X40995Y-42105D01*
X40995Y-42005D01*
X40995Y-41995D01*
X40995Y-41895D01*
X40995Y-41326D01*
X40900Y-41259D01*
X40824Y-41274D01*
X40713Y-41319D01*
X40613Y-41385D01*
X40529Y-41467D01*
X40512Y-41440D01*
X40421Y-41349D01*
X40314Y-41277D01*
X40196Y-41227D01*
X40069Y-41201D01*
X39941Y-41200D01*
X39814Y-41224D01*
X39695Y-41272D01*
X39587Y-41342D01*
X39499Y-41427D01*
X39435Y-41363D01*
X39435Y-41255D01*
X39435Y-41250D01*
X39431Y-41218D01*
X39428Y-41170D01*
X39427Y-41166D01*
X39422Y-41152D01*
X39404Y-41088D01*
X39402Y-41084D01*
X39364Y-41013D01*
X39362Y-41009D01*
X39329Y-40967D01*
X39312Y-40946D01*
X39310Y-40944D01*
X39309Y-40943D01*
X39307Y-40942D01*
X39303Y-40938D01*
X38148Y-39783D01*
X38186Y-39776D01*
X38305Y-39728D01*
X38413Y-39658D01*
X38500Y-39572D01*
X38579Y-39651D01*
X38686Y-39723D01*
X38804Y-39773D01*
X38931Y-39799D01*
X39059Y-39800D01*
X39186Y-39776D01*
X39305Y-39728D01*
X39413Y-39658D01*
X39500Y-39572D01*
X39579Y-39651D01*
X39686Y-39723D01*
X39804Y-39773D01*
X39931Y-39799D01*
X40059Y-39800D01*
X40186Y-39776D01*
X40305Y-39728D01*
X40413Y-39658D01*
X40500Y-39572D01*
X40579Y-39651D01*
X40686Y-39723D01*
X40804Y-39773D01*
X40931Y-39799D01*
X41059Y-39800D01*
X41186Y-39776D01*
X41305Y-39728D01*
X41413Y-39658D01*
X41500Y-39572D01*
X41579Y-39651D01*
X41686Y-39723D01*
X41804Y-39773D01*
X41931Y-39799D01*
X42059Y-39800D01*
X42186Y-39776D01*
X42305Y-39728D01*
X42413Y-39658D01*
X42505Y-39568D01*
X42529Y-39532D01*
X42613Y-39615D01*
X42713Y-39681D01*
X42824Y-39726D01*
X42900Y-39741D01*
X42995Y-39674D01*
X42995Y-39105D01*
X42995Y-39005D01*
X42995Y-38995D01*
X42995Y-38895D01*
X42995Y-38326D01*
X42900Y-38259D01*
X42824Y-38274D01*
X42713Y-38319D01*
X42613Y-38385D01*
X42529Y-38467D01*
X42525Y-38459D01*
X42525Y-37902D01*
X42571Y-37872D01*
X42620Y-37824D01*
X42642Y-37789D01*
X42732Y-37840D01*
X42852Y-37881D01*
X42978Y-37898D01*
X43105Y-37891D01*
X43228Y-37858D01*
X43342Y-37802D01*
X43378Y-37778D01*
X43402Y-37659D01*
X43071Y-37328D01*
X43000Y-37257D01*
X42993Y-37250D01*
X43000Y-37243D01*
X43071Y-37172D01*
X43402Y-36841D01*
X43402Y-35909D01*
X43000Y-35507D01*
X42598Y-35909D01*
X42622Y-36028D01*
X42732Y-36090D01*
X42852Y-36131D01*
X42978Y-36148D01*
X43105Y-36141D01*
X43228Y-36108D01*
X43342Y-36052D01*
X43378Y-36028D01*
X43402Y-35909D01*
X43402Y-36841D01*
X43378Y-36722D01*
X43268Y-36660D01*
X43148Y-36619D01*
X43022Y-36602D01*
X42895Y-36609D01*
X42772Y-36642D01*
X42658Y-36698D01*
X42641Y-36708D01*
X42622Y-36679D01*
X42574Y-36630D01*
X42525Y-36597D01*
X42525Y-35966D01*
X42533Y-35959D01*
X42575Y-35898D01*
X42591Y-35902D01*
X42993Y-35500D01*
X42591Y-35098D01*
X42575Y-35101D01*
X42545Y-35055D01*
X42525Y-35035D01*
X42525Y-33623D01*
X42560Y-33638D01*
X42618Y-33650D01*
X42677Y-33650D01*
X42920Y-33650D01*
X42995Y-33575D01*
X42995Y-33105D01*
X42995Y-33005D01*
X42995Y-32995D01*
X43005Y-32995D01*
X43105Y-32995D01*
X43575Y-32995D01*
X43650Y-32920D01*
X43650Y-32621D01*
X43639Y-32563D01*
X43616Y-32509D01*
X43584Y-32460D01*
X43559Y-32435D01*
X43745Y-32435D01*
X43750Y-32435D01*
X43781Y-32431D01*
X43830Y-32428D01*
X43833Y-32427D01*
X43834Y-32427D01*
X43848Y-32422D01*
X43912Y-32404D01*
X43915Y-32402D01*
X43916Y-32402D01*
X43987Y-32364D01*
X43991Y-32362D01*
X44053Y-32312D01*
X44057Y-32309D01*
X44057Y-32308D01*
X44058Y-32308D01*
X44146Y-32218D01*
X44177Y-32250D01*
X44099Y-32329D01*
X44027Y-32436D01*
X43977Y-32554D01*
X43951Y-32681D01*
X43950Y-32809D01*
X43974Y-32936D01*
X44022Y-33055D01*
X44092Y-33163D01*
X44177Y-33250D01*
X44099Y-33329D01*
X44027Y-33436D01*
X43977Y-33554D01*
X43951Y-33681D01*
X43950Y-33809D01*
X43974Y-33936D01*
X44022Y-34055D01*
X44092Y-34163D01*
X44182Y-34255D01*
X44289Y-34328D01*
X44407Y-34379D01*
X44533Y-34406D01*
X44662Y-34408D01*
X44957Y-34407D01*
X45083Y-34382D01*
X45203Y-34333D01*
X45310Y-34262D01*
X45401Y-34171D01*
X45473Y-34064D01*
X45523Y-33946D01*
X45549Y-33819D01*
X45550Y-33691D01*
X45526Y-33564D01*
X45478Y-33445D01*
X45408Y-33337D01*
X45322Y-33249D01*
X45401Y-33171D01*
X45473Y-33064D01*
X45523Y-32946D01*
X45549Y-32819D01*
X45550Y-32691D01*
X45526Y-32564D01*
X45478Y-32445D01*
X45408Y-32337D01*
X45322Y-32249D01*
X45401Y-32171D01*
X45473Y-32064D01*
X45523Y-31946D01*
X45549Y-31819D01*
X45550Y-31691D01*
X45526Y-31564D01*
X45478Y-31445D01*
X45408Y-31337D01*
X45322Y-31249D01*
X45401Y-31171D01*
X45473Y-31064D01*
X45523Y-30946D01*
X45549Y-30819D01*
X45550Y-30691D01*
X45526Y-30564D01*
X45478Y-30445D01*
X45408Y-30337D01*
X45322Y-30249D01*
X45401Y-30171D01*
X45473Y-30064D01*
X45523Y-29946D01*
X45549Y-29819D01*
X45550Y-29691D01*
X45526Y-29564D01*
X45478Y-29445D01*
X45408Y-29337D01*
X45322Y-29249D01*
X45401Y-29171D01*
X45473Y-29064D01*
X45523Y-28946D01*
X45549Y-28819D01*
X45550Y-28691D01*
X45526Y-28564D01*
X45478Y-28445D01*
X45408Y-28337D01*
X45322Y-28249D01*
X45401Y-28171D01*
X45412Y-28154D01*
X45412Y-28153D01*
X45413Y-28152D01*
X45415Y-28152D01*
X45416Y-28152D01*
X45487Y-28114D01*
X45491Y-28112D01*
X45553Y-28062D01*
X45557Y-28059D01*
X45557Y-28058D01*
X45558Y-28058D01*
X46054Y-27561D01*
X46058Y-27558D01*
X46096Y-27510D01*
X46109Y-27496D01*
X46109Y-27494D01*
X46111Y-27493D01*
X46138Y-27442D01*
X46150Y-27421D01*
X46150Y-27420D01*
X46152Y-27417D01*
X46170Y-27355D01*
X46175Y-27340D01*
X46175Y-27338D01*
X46176Y-27336D01*
X46185Y-27256D01*
X46186Y-27251D01*
X46185Y-27250D01*
X46185Y-27241D01*
X46185Y-26255D01*
X46185Y-26250D01*
X46181Y-26218D01*
X46178Y-26170D01*
X46177Y-26166D01*
X46172Y-26152D01*
X46154Y-26088D01*
X46152Y-26084D01*
X46114Y-26013D01*
X46112Y-26009D01*
X46062Y-25947D01*
X46059Y-25943D01*
X46058Y-25942D01*
X45558Y-25442D01*
X45510Y-25403D01*
X45496Y-25391D01*
X45494Y-25390D01*
X45493Y-25389D01*
X45442Y-25362D01*
X45421Y-25350D01*
X45420Y-25349D01*
X45417Y-25348D01*
X45355Y-25329D01*
X45340Y-25325D01*
X45338Y-25324D01*
X45336Y-25324D01*
X45251Y-25314D01*
X45241Y-25315D01*
X44189Y-25315D01*
X44186Y-25299D01*
X44176Y-25275D01*
X44493Y-25275D01*
X44496Y-25275D01*
X44500Y-25275D01*
X45783Y-25275D01*
X45794Y-25286D01*
X45907Y-25364D01*
X46033Y-25419D01*
X46167Y-25448D01*
X46304Y-25451D01*
X46440Y-25427D01*
X46567Y-25378D01*
X46683Y-25304D01*
X46713Y-25275D01*
X47097Y-25275D01*
X47128Y-25321D01*
X47176Y-25370D01*
X47225Y-25402D01*
X47225Y-26214D01*
X47190Y-26238D01*
X47099Y-26329D01*
X47027Y-26436D01*
X46977Y-26554D01*
X46951Y-26681D01*
X46950Y-26809D01*
X46974Y-26936D01*
X47022Y-27055D01*
X47092Y-27163D01*
X47182Y-27255D01*
X47217Y-27279D01*
X47135Y-27363D01*
X47069Y-27463D01*
X47024Y-27574D01*
X47009Y-27650D01*
X47076Y-27745D01*
X47645Y-27745D01*
X47745Y-27745D01*
X47755Y-27745D01*
X47855Y-27745D01*
X48424Y-27745D01*
X48491Y-27650D01*
X48476Y-27574D01*
X48431Y-27463D01*
X48365Y-27363D01*
X48282Y-27279D01*
X48310Y-27262D01*
X48401Y-27171D01*
X48473Y-27064D01*
X48523Y-26946D01*
X48549Y-26819D01*
X48550Y-26691D01*
X48526Y-26564D01*
X48478Y-26445D01*
X48408Y-26337D01*
X48318Y-26245D01*
X48275Y-26215D01*
X48275Y-25402D01*
X48321Y-25372D01*
X48370Y-25324D01*
X48392Y-25289D01*
X48482Y-25340D01*
X48602Y-25381D01*
X48728Y-25398D01*
X48855Y-25391D01*
X48978Y-25358D01*
X49092Y-25302D01*
X49128Y-25278D01*
X49152Y-25159D01*
X48821Y-24828D01*
X48750Y-24757D01*
X48743Y-24750D01*
X48750Y-24743D01*
X48821Y-24672D01*
X49152Y-24341D01*
X49128Y-24222D01*
X49018Y-24160D01*
X48898Y-24119D01*
X48772Y-24102D01*
X48645Y-24109D01*
X48522Y-24142D01*
X48408Y-24198D01*
X48391Y-24208D01*
X48372Y-24179D01*
X48324Y-24130D01*
X48267Y-24092D01*
X48204Y-24065D01*
X48137Y-24051D01*
X48068Y-24051D01*
X47366Y-24051D01*
X47299Y-24064D01*
X47236Y-24090D01*
X47179Y-24128D01*
X47130Y-24176D01*
X47097Y-24225D01*
X46898Y-24225D01*
X46898Y-23772D01*
X46891Y-23645D01*
X46858Y-23522D01*
X46802Y-23408D01*
X46778Y-23372D01*
X46659Y-23348D01*
X46652Y-23355D01*
X46652Y-23341D01*
X46628Y-23222D01*
X46518Y-23160D01*
X46398Y-23119D01*
X46272Y-23102D01*
X46145Y-23109D01*
X46022Y-23142D01*
X45908Y-23198D01*
X45872Y-23222D01*
X45848Y-23341D01*
X46250Y-23743D01*
X46652Y-23341D01*
X46652Y-23355D01*
X46257Y-23750D01*
X46659Y-24152D01*
X46778Y-24128D01*
X46840Y-24018D01*
X46881Y-23898D01*
X46898Y-23772D01*
X46898Y-24225D01*
X46715Y-24225D01*
X46698Y-24208D01*
X46648Y-24174D01*
X46652Y-24159D01*
X46250Y-23757D01*
X46243Y-23764D01*
X46243Y-23750D01*
X45841Y-23348D01*
X45722Y-23372D01*
X45660Y-23482D01*
X45619Y-23602D01*
X45602Y-23728D01*
X45609Y-23855D01*
X45642Y-23978D01*
X45698Y-24092D01*
X45722Y-24128D01*
X45841Y-24152D01*
X46243Y-23750D01*
X46243Y-23764D01*
X45848Y-24159D01*
X45851Y-24174D01*
X45809Y-24202D01*
X45785Y-24225D01*
X45025Y-24225D01*
X45025Y-22000D01*
X45018Y-21929D01*
X45016Y-21903D01*
X45015Y-21900D01*
X45015Y-21898D01*
X45004Y-21862D01*
X44987Y-21804D01*
X44985Y-21800D01*
X44981Y-21794D01*
X44940Y-21713D01*
X44937Y-21709D01*
X44921Y-21689D01*
X44876Y-21633D01*
X44873Y-21630D01*
X44871Y-21628D01*
X43667Y-20425D01*
X50823Y-20425D01*
X52075Y-21676D01*
X52075Y-26398D01*
X51599Y-26398D01*
X51599Y-22343D01*
X51538Y-22035D01*
X51419Y-21746D01*
X51245Y-21484D01*
X51024Y-21262D01*
X50764Y-21087D01*
X50475Y-20965D01*
X50168Y-20902D01*
X49854Y-20900D01*
X49546Y-20959D01*
X49255Y-21076D01*
X48993Y-21248D01*
X48769Y-21467D01*
X48592Y-21726D01*
X48468Y-22014D01*
X48403Y-22321D01*
X48399Y-22635D01*
X48456Y-22943D01*
X48571Y-23235D01*
X48741Y-23498D01*
X48959Y-23724D01*
X49216Y-23903D01*
X49504Y-24028D01*
X49810Y-24095D01*
X50123Y-24102D01*
X50432Y-24047D01*
X50725Y-23934D01*
X50989Y-23766D01*
X51216Y-23550D01*
X51397Y-23293D01*
X51525Y-23007D01*
X51594Y-22701D01*
X51599Y-22343D01*
X51599Y-26398D01*
X50410Y-26398D01*
X50410Y-30102D01*
X52075Y-30102D01*
X52075Y-50823D01*
M02*
