G04 (created by PCBNEW (2011-04-29 BZR 2986)-stable) date 21/02/2012 16:52:52*
G01*
G70*
G90*
%MOIN*%
G04 Gerber Fmt 3.4, Leading zero omitted, Abs format*
%FSLAX34Y34*%
G04 APERTURE LIST*
%ADD10C,0.001000*%
%ADD11C,0.015000*%
%ADD12C,0.008000*%
G04 APERTURE END LIST*
G54D10*
G54D11*
X20000Y-51000D02*
X20000Y-21500D01*
X21500Y-52500D02*
X20000Y-51000D01*
X51000Y-52500D02*
X21500Y-52500D01*
X52500Y-51000D02*
X51000Y-52500D01*
X52500Y-21500D02*
X52500Y-51000D01*
X51000Y-20000D02*
X52500Y-21500D01*
X21500Y-20000D02*
X51000Y-20000D01*
X20000Y-21500D02*
X21500Y-20000D01*
G54D10*
X25632Y-33882D02*
X25868Y-34118D01*
X25868Y-33882D02*
X25632Y-34118D01*
X26632Y-28632D02*
X26868Y-28868D01*
X26868Y-28632D02*
X26632Y-28868D01*
X27382Y-30132D02*
X27618Y-30368D01*
X27618Y-30132D02*
X27382Y-30368D01*
X27382Y-45382D02*
X27618Y-45618D01*
X27618Y-45382D02*
X27382Y-45618D01*
X27382Y-48382D02*
X27618Y-48618D01*
X27618Y-48382D02*
X27382Y-48618D01*
X27632Y-38632D02*
X27868Y-38868D01*
X27868Y-38632D02*
X27632Y-38868D01*
X27632Y-39632D02*
X27868Y-39868D01*
X27868Y-39632D02*
X27632Y-39868D01*
X27632Y-41132D02*
X27868Y-41368D01*
X27868Y-41132D02*
X27632Y-41368D01*
X27632Y-42132D02*
X27868Y-42368D01*
X27868Y-42132D02*
X27632Y-42368D01*
X27882Y-33632D02*
X28118Y-33868D01*
X28118Y-33632D02*
X27882Y-33868D01*
X27882Y-34632D02*
X28118Y-34868D01*
X28118Y-34632D02*
X27882Y-34868D01*
X27882Y-36132D02*
X28118Y-36368D01*
X28118Y-36132D02*
X27882Y-36368D01*
X27882Y-37132D02*
X28118Y-37368D01*
X28118Y-37132D02*
X27882Y-37368D01*
X30882Y-43132D02*
X31118Y-43368D01*
X31118Y-43132D02*
X30882Y-43368D01*
X32382Y-28132D02*
X32618Y-28368D01*
X32618Y-28132D02*
X32382Y-28368D01*
X32382Y-31132D02*
X32618Y-31368D01*
X32618Y-31132D02*
X32382Y-31368D01*
X33632Y-45382D02*
X33868Y-45618D01*
X33868Y-45382D02*
X33632Y-45618D01*
X33882Y-43132D02*
X34118Y-43368D01*
X34118Y-43132D02*
X33882Y-43368D01*
X35882Y-26132D02*
X36118Y-26368D01*
X36118Y-26132D02*
X35882Y-26368D01*
X36632Y-45382D02*
X36868Y-45618D01*
X36868Y-45382D02*
X36632Y-45618D01*
X37132Y-47382D02*
X37368Y-47618D01*
X37368Y-47382D02*
X37132Y-47618D01*
X38382Y-27632D02*
X38618Y-27868D01*
X38618Y-27632D02*
X38382Y-27868D01*
X38382Y-28632D02*
X38618Y-28868D01*
X38618Y-28632D02*
X38382Y-28868D01*
X38382Y-29882D02*
X38618Y-30118D01*
X38618Y-29882D02*
X38382Y-30118D01*
X38382Y-30882D02*
X38618Y-31118D01*
X38618Y-30882D02*
X38382Y-31118D01*
X40632Y-45382D02*
X40868Y-45618D01*
X40868Y-45382D02*
X40632Y-45618D01*
X41382Y-43632D02*
X41618Y-43868D01*
X41618Y-43632D02*
X41382Y-43868D01*
X41632Y-45382D02*
X41868Y-45618D01*
X41868Y-45382D02*
X41632Y-45618D01*
X41882Y-35382D02*
X42118Y-35618D01*
X42118Y-35382D02*
X41882Y-35618D01*
X41882Y-37132D02*
X42118Y-37368D01*
X42118Y-37132D02*
X41882Y-37368D01*
X42382Y-25632D02*
X42618Y-25868D01*
X42618Y-25632D02*
X42382Y-25868D01*
X42882Y-27382D02*
X43118Y-27618D01*
X43118Y-27382D02*
X42882Y-27618D01*
X42882Y-28382D02*
X43118Y-28618D01*
X43118Y-28382D02*
X42882Y-28618D01*
X42882Y-29632D02*
X43118Y-29868D01*
X43118Y-29632D02*
X42882Y-29868D01*
X42882Y-30632D02*
X43118Y-30868D01*
X43118Y-30632D02*
X42882Y-30868D01*
X42882Y-31882D02*
X43118Y-32118D01*
X43118Y-31882D02*
X42882Y-32118D01*
X42882Y-32882D02*
X43118Y-33118D01*
X43118Y-32882D02*
X42882Y-33118D01*
X42882Y-35382D02*
X43118Y-35618D01*
X43118Y-35382D02*
X42882Y-35618D01*
X42882Y-37132D02*
X43118Y-37368D01*
X43118Y-37132D02*
X42882Y-37368D01*
X43132Y-45382D02*
X43368Y-45618D01*
X43368Y-45382D02*
X43132Y-45618D01*
X43382Y-25632D02*
X43618Y-25868D01*
X43618Y-25632D02*
X43382Y-25868D01*
X43382Y-43632D02*
X43618Y-43868D01*
X43618Y-43632D02*
X43382Y-43868D01*
X44132Y-45382D02*
X44368Y-45618D01*
X44368Y-45382D02*
X44132Y-45618D01*
X46132Y-23632D02*
X46368Y-23868D01*
X46368Y-23632D02*
X46132Y-23868D01*
X46132Y-24632D02*
X46368Y-24868D01*
X46368Y-24632D02*
X46132Y-24868D01*
X46882Y-49132D02*
X47118Y-49368D01*
X47118Y-49132D02*
X46882Y-49368D01*
X47632Y-24632D02*
X47868Y-24868D01*
X47868Y-24632D02*
X47632Y-24868D01*
X47882Y-37132D02*
X48118Y-37368D01*
X48118Y-37132D02*
X47882Y-37368D01*
X48632Y-24632D02*
X48868Y-24868D01*
X48868Y-24632D02*
X48632Y-24868D01*
X21660Y-25000D02*
X21656Y-25031D01*
X21647Y-25060D01*
X21633Y-25088D01*
X21613Y-25112D01*
X21589Y-25132D01*
X21562Y-25147D01*
X21532Y-25156D01*
X21501Y-25159D01*
X21471Y-25157D01*
X21441Y-25148D01*
X21413Y-25133D01*
X21389Y-25114D01*
X21368Y-25090D01*
X21353Y-25063D01*
X21344Y-25033D01*
X21341Y-25002D01*
X21343Y-24972D01*
X21352Y-24942D01*
X21366Y-24914D01*
X21385Y-24889D01*
X21409Y-24869D01*
X21436Y-24854D01*
X21466Y-24844D01*
X21497Y-24841D01*
X21527Y-24843D01*
X21557Y-24851D01*
X21585Y-24865D01*
X21610Y-24885D01*
X21630Y-24908D01*
X21646Y-24935D01*
X21656Y-24965D01*
X21659Y-24996D01*
X21660Y-25000D01*
X22160Y-26000D02*
X22156Y-26031D01*
X22147Y-26060D01*
X22133Y-26088D01*
X22113Y-26112D01*
X22089Y-26132D01*
X22062Y-26147D01*
X22032Y-26156D01*
X22001Y-26159D01*
X21971Y-26157D01*
X21941Y-26148D01*
X21913Y-26133D01*
X21889Y-26114D01*
X21868Y-26090D01*
X21853Y-26063D01*
X21844Y-26033D01*
X21841Y-26002D01*
X21843Y-25972D01*
X21852Y-25942D01*
X21866Y-25914D01*
X21885Y-25889D01*
X21909Y-25869D01*
X21936Y-25854D01*
X21966Y-25844D01*
X21997Y-25841D01*
X22027Y-25843D01*
X22057Y-25851D01*
X22085Y-25865D01*
X22110Y-25885D01*
X22130Y-25908D01*
X22146Y-25935D01*
X22156Y-25965D01*
X22159Y-25996D01*
X22160Y-26000D01*
X22660Y-25000D02*
X22656Y-25031D01*
X22647Y-25060D01*
X22633Y-25088D01*
X22613Y-25112D01*
X22589Y-25132D01*
X22562Y-25147D01*
X22532Y-25156D01*
X22501Y-25159D01*
X22471Y-25157D01*
X22441Y-25148D01*
X22413Y-25133D01*
X22389Y-25114D01*
X22368Y-25090D01*
X22353Y-25063D01*
X22344Y-25033D01*
X22341Y-25002D01*
X22343Y-24972D01*
X22352Y-24942D01*
X22366Y-24914D01*
X22385Y-24889D01*
X22409Y-24869D01*
X22436Y-24854D01*
X22466Y-24844D01*
X22497Y-24841D01*
X22527Y-24843D01*
X22557Y-24851D01*
X22585Y-24865D01*
X22610Y-24885D01*
X22630Y-24908D01*
X22646Y-24935D01*
X22656Y-24965D01*
X22659Y-24996D01*
X22660Y-25000D01*
X23160Y-26000D02*
X23156Y-26031D01*
X23147Y-26060D01*
X23133Y-26088D01*
X23113Y-26112D01*
X23089Y-26132D01*
X23062Y-26147D01*
X23032Y-26156D01*
X23001Y-26159D01*
X22971Y-26157D01*
X22941Y-26148D01*
X22913Y-26133D01*
X22889Y-26114D01*
X22868Y-26090D01*
X22853Y-26063D01*
X22844Y-26033D01*
X22841Y-26002D01*
X22843Y-25972D01*
X22852Y-25942D01*
X22866Y-25914D01*
X22885Y-25889D01*
X22909Y-25869D01*
X22936Y-25854D01*
X22966Y-25844D01*
X22997Y-25841D01*
X23027Y-25843D01*
X23057Y-25851D01*
X23085Y-25865D01*
X23110Y-25885D01*
X23130Y-25908D01*
X23146Y-25935D01*
X23156Y-25965D01*
X23159Y-25996D01*
X23160Y-26000D01*
X23660Y-25000D02*
X23656Y-25031D01*
X23647Y-25060D01*
X23633Y-25088D01*
X23613Y-25112D01*
X23589Y-25132D01*
X23562Y-25147D01*
X23532Y-25156D01*
X23501Y-25159D01*
X23471Y-25157D01*
X23441Y-25148D01*
X23413Y-25133D01*
X23389Y-25114D01*
X23368Y-25090D01*
X23353Y-25063D01*
X23344Y-25033D01*
X23341Y-25002D01*
X23343Y-24972D01*
X23352Y-24942D01*
X23366Y-24914D01*
X23385Y-24889D01*
X23409Y-24869D01*
X23436Y-24854D01*
X23466Y-24844D01*
X23497Y-24841D01*
X23527Y-24843D01*
X23557Y-24851D01*
X23585Y-24865D01*
X23610Y-24885D01*
X23630Y-24908D01*
X23646Y-24935D01*
X23656Y-24965D01*
X23659Y-24996D01*
X23660Y-25000D01*
X24160Y-26000D02*
X24156Y-26031D01*
X24147Y-26060D01*
X24133Y-26088D01*
X24113Y-26112D01*
X24089Y-26132D01*
X24062Y-26147D01*
X24032Y-26156D01*
X24001Y-26159D01*
X23971Y-26157D01*
X23941Y-26148D01*
X23913Y-26133D01*
X23889Y-26114D01*
X23868Y-26090D01*
X23853Y-26063D01*
X23844Y-26033D01*
X23841Y-26002D01*
X23843Y-25972D01*
X23852Y-25942D01*
X23866Y-25914D01*
X23885Y-25889D01*
X23909Y-25869D01*
X23936Y-25854D01*
X23966Y-25844D01*
X23997Y-25841D01*
X24027Y-25843D01*
X24057Y-25851D01*
X24085Y-25865D01*
X24110Y-25885D01*
X24130Y-25908D01*
X24146Y-25935D01*
X24156Y-25965D01*
X24159Y-25996D01*
X24160Y-26000D01*
X29910Y-35500D02*
X29906Y-35531D01*
X29897Y-35560D01*
X29883Y-35588D01*
X29863Y-35612D01*
X29839Y-35632D01*
X29812Y-35647D01*
X29782Y-35656D01*
X29751Y-35659D01*
X29721Y-35657D01*
X29691Y-35648D01*
X29663Y-35633D01*
X29639Y-35614D01*
X29618Y-35590D01*
X29603Y-35563D01*
X29594Y-35533D01*
X29591Y-35502D01*
X29593Y-35472D01*
X29602Y-35442D01*
X29616Y-35414D01*
X29635Y-35389D01*
X29659Y-35369D01*
X29686Y-35354D01*
X29716Y-35344D01*
X29747Y-35341D01*
X29777Y-35343D01*
X29807Y-35351D01*
X29835Y-35365D01*
X29860Y-35385D01*
X29880Y-35408D01*
X29896Y-35435D01*
X29906Y-35465D01*
X29909Y-35496D01*
X29910Y-35500D01*
X29910Y-37500D02*
X29906Y-37531D01*
X29897Y-37560D01*
X29883Y-37588D01*
X29863Y-37612D01*
X29839Y-37632D01*
X29812Y-37647D01*
X29782Y-37656D01*
X29751Y-37659D01*
X29721Y-37657D01*
X29691Y-37648D01*
X29663Y-37633D01*
X29639Y-37614D01*
X29618Y-37590D01*
X29603Y-37563D01*
X29594Y-37533D01*
X29591Y-37502D01*
X29593Y-37472D01*
X29602Y-37442D01*
X29616Y-37414D01*
X29635Y-37389D01*
X29659Y-37369D01*
X29686Y-37354D01*
X29716Y-37344D01*
X29747Y-37341D01*
X29777Y-37343D01*
X29807Y-37351D01*
X29835Y-37365D01*
X29860Y-37385D01*
X29880Y-37408D01*
X29896Y-37435D01*
X29906Y-37465D01*
X29909Y-37496D01*
X29910Y-37500D01*
X29910Y-39500D02*
X29906Y-39531D01*
X29897Y-39560D01*
X29883Y-39588D01*
X29863Y-39612D01*
X29839Y-39632D01*
X29812Y-39647D01*
X29782Y-39656D01*
X29751Y-39659D01*
X29721Y-39657D01*
X29691Y-39648D01*
X29663Y-39633D01*
X29639Y-39614D01*
X29618Y-39590D01*
X29603Y-39563D01*
X29594Y-39533D01*
X29591Y-39502D01*
X29593Y-39472D01*
X29602Y-39442D01*
X29616Y-39414D01*
X29635Y-39389D01*
X29659Y-39369D01*
X29686Y-39354D01*
X29716Y-39344D01*
X29747Y-39341D01*
X29777Y-39343D01*
X29807Y-39351D01*
X29835Y-39365D01*
X29860Y-39385D01*
X29880Y-39408D01*
X29896Y-39435D01*
X29906Y-39465D01*
X29909Y-39496D01*
X29910Y-39500D01*
X29910Y-40500D02*
X29906Y-40531D01*
X29897Y-40560D01*
X29883Y-40588D01*
X29863Y-40612D01*
X29839Y-40632D01*
X29812Y-40647D01*
X29782Y-40656D01*
X29751Y-40659D01*
X29721Y-40657D01*
X29691Y-40648D01*
X29663Y-40633D01*
X29639Y-40614D01*
X29618Y-40590D01*
X29603Y-40563D01*
X29594Y-40533D01*
X29591Y-40502D01*
X29593Y-40472D01*
X29602Y-40442D01*
X29616Y-40414D01*
X29635Y-40389D01*
X29659Y-40369D01*
X29686Y-40354D01*
X29716Y-40344D01*
X29747Y-40341D01*
X29777Y-40343D01*
X29807Y-40351D01*
X29835Y-40365D01*
X29860Y-40385D01*
X29880Y-40408D01*
X29896Y-40435D01*
X29906Y-40465D01*
X29909Y-40496D01*
X29910Y-40500D01*
X31160Y-45500D02*
X31156Y-45531D01*
X31147Y-45560D01*
X31133Y-45588D01*
X31113Y-45612D01*
X31089Y-45632D01*
X31062Y-45647D01*
X31032Y-45656D01*
X31001Y-45659D01*
X30971Y-45657D01*
X30941Y-45648D01*
X30913Y-45633D01*
X30889Y-45614D01*
X30868Y-45590D01*
X30853Y-45563D01*
X30844Y-45533D01*
X30841Y-45502D01*
X30843Y-45472D01*
X30852Y-45442D01*
X30866Y-45414D01*
X30885Y-45389D01*
X30909Y-45369D01*
X30936Y-45354D01*
X30966Y-45344D01*
X30997Y-45341D01*
X31027Y-45343D01*
X31057Y-45351D01*
X31085Y-45365D01*
X31110Y-45385D01*
X31130Y-45408D01*
X31146Y-45435D01*
X31156Y-45465D01*
X31159Y-45496D01*
X31160Y-45500D01*
X32160Y-45500D02*
X32156Y-45531D01*
X32147Y-45560D01*
X32133Y-45588D01*
X32113Y-45612D01*
X32089Y-45632D01*
X32062Y-45647D01*
X32032Y-45656D01*
X32001Y-45659D01*
X31971Y-45657D01*
X31941Y-45648D01*
X31913Y-45633D01*
X31889Y-45614D01*
X31868Y-45590D01*
X31853Y-45563D01*
X31844Y-45533D01*
X31841Y-45502D01*
X31843Y-45472D01*
X31852Y-45442D01*
X31866Y-45414D01*
X31885Y-45389D01*
X31909Y-45369D01*
X31936Y-45354D01*
X31966Y-45344D01*
X31997Y-45341D01*
X32027Y-45343D01*
X32057Y-45351D01*
X32085Y-45365D01*
X32110Y-45385D01*
X32130Y-45408D01*
X32146Y-45435D01*
X32156Y-45465D01*
X32159Y-45496D01*
X32160Y-45500D01*
X33910Y-28250D02*
X33906Y-28281D01*
X33897Y-28310D01*
X33883Y-28338D01*
X33863Y-28362D01*
X33839Y-28382D01*
X33812Y-28397D01*
X33782Y-28406D01*
X33751Y-28409D01*
X33721Y-28407D01*
X33691Y-28398D01*
X33663Y-28383D01*
X33639Y-28364D01*
X33618Y-28340D01*
X33603Y-28313D01*
X33594Y-28283D01*
X33591Y-28252D01*
X33593Y-28222D01*
X33602Y-28192D01*
X33616Y-28164D01*
X33635Y-28139D01*
X33659Y-28119D01*
X33686Y-28104D01*
X33716Y-28094D01*
X33747Y-28091D01*
X33777Y-28093D01*
X33807Y-28101D01*
X33835Y-28115D01*
X33860Y-28135D01*
X33880Y-28158D01*
X33896Y-28185D01*
X33906Y-28215D01*
X33909Y-28246D01*
X33910Y-28250D01*
X33910Y-29250D02*
X33906Y-29281D01*
X33897Y-29310D01*
X33883Y-29338D01*
X33863Y-29362D01*
X33839Y-29382D01*
X33812Y-29397D01*
X33782Y-29406D01*
X33751Y-29409D01*
X33721Y-29407D01*
X33691Y-29398D01*
X33663Y-29383D01*
X33639Y-29364D01*
X33618Y-29340D01*
X33603Y-29313D01*
X33594Y-29283D01*
X33591Y-29252D01*
X33593Y-29222D01*
X33602Y-29192D01*
X33616Y-29164D01*
X33635Y-29139D01*
X33659Y-29119D01*
X33686Y-29104D01*
X33716Y-29094D01*
X33747Y-29091D01*
X33777Y-29093D01*
X33807Y-29101D01*
X33835Y-29115D01*
X33860Y-29135D01*
X33880Y-29158D01*
X33896Y-29185D01*
X33906Y-29215D01*
X33909Y-29246D01*
X33910Y-29250D01*
X33910Y-30250D02*
X33906Y-30281D01*
X33897Y-30310D01*
X33883Y-30338D01*
X33863Y-30362D01*
X33839Y-30382D01*
X33812Y-30397D01*
X33782Y-30406D01*
X33751Y-30409D01*
X33721Y-30407D01*
X33691Y-30398D01*
X33663Y-30383D01*
X33639Y-30364D01*
X33618Y-30340D01*
X33603Y-30313D01*
X33594Y-30283D01*
X33591Y-30252D01*
X33593Y-30222D01*
X33602Y-30192D01*
X33616Y-30164D01*
X33635Y-30139D01*
X33659Y-30119D01*
X33686Y-30104D01*
X33716Y-30094D01*
X33747Y-30091D01*
X33777Y-30093D01*
X33807Y-30101D01*
X33835Y-30115D01*
X33860Y-30135D01*
X33880Y-30158D01*
X33896Y-30185D01*
X33906Y-30215D01*
X33909Y-30246D01*
X33910Y-30250D01*
X33910Y-31250D02*
X33906Y-31281D01*
X33897Y-31310D01*
X33883Y-31338D01*
X33863Y-31362D01*
X33839Y-31382D01*
X33812Y-31397D01*
X33782Y-31406D01*
X33751Y-31409D01*
X33721Y-31407D01*
X33691Y-31398D01*
X33663Y-31383D01*
X33639Y-31364D01*
X33618Y-31340D01*
X33603Y-31313D01*
X33594Y-31283D01*
X33591Y-31252D01*
X33593Y-31222D01*
X33602Y-31192D01*
X33616Y-31164D01*
X33635Y-31139D01*
X33659Y-31119D01*
X33686Y-31104D01*
X33716Y-31094D01*
X33747Y-31091D01*
X33777Y-31093D01*
X33807Y-31101D01*
X33835Y-31115D01*
X33860Y-31135D01*
X33880Y-31158D01*
X33896Y-31185D01*
X33906Y-31215D01*
X33909Y-31246D01*
X33910Y-31250D01*
X34160Y-39000D02*
X34156Y-39031D01*
X34147Y-39060D01*
X34133Y-39088D01*
X34113Y-39112D01*
X34089Y-39132D01*
X34062Y-39147D01*
X34032Y-39156D01*
X34001Y-39159D01*
X33971Y-39157D01*
X33941Y-39148D01*
X33913Y-39133D01*
X33889Y-39114D01*
X33868Y-39090D01*
X33853Y-39063D01*
X33844Y-39033D01*
X33841Y-39002D01*
X33843Y-38972D01*
X33852Y-38942D01*
X33866Y-38914D01*
X33885Y-38889D01*
X33909Y-38869D01*
X33936Y-38854D01*
X33966Y-38844D01*
X33997Y-38841D01*
X34027Y-38843D01*
X34057Y-38851D01*
X34085Y-38865D01*
X34110Y-38885D01*
X34130Y-38908D01*
X34146Y-38935D01*
X34156Y-38965D01*
X34159Y-38996D01*
X34160Y-39000D01*
X34160Y-42000D02*
X34156Y-42031D01*
X34147Y-42060D01*
X34133Y-42088D01*
X34113Y-42112D01*
X34089Y-42132D01*
X34062Y-42147D01*
X34032Y-42156D01*
X34001Y-42159D01*
X33971Y-42157D01*
X33941Y-42148D01*
X33913Y-42133D01*
X33889Y-42114D01*
X33868Y-42090D01*
X33853Y-42063D01*
X33844Y-42033D01*
X33841Y-42002D01*
X33843Y-41972D01*
X33852Y-41942D01*
X33866Y-41914D01*
X33885Y-41889D01*
X33909Y-41869D01*
X33936Y-41854D01*
X33966Y-41844D01*
X33997Y-41841D01*
X34027Y-41843D01*
X34057Y-41851D01*
X34085Y-41865D01*
X34110Y-41885D01*
X34130Y-41908D01*
X34146Y-41935D01*
X34156Y-41965D01*
X34159Y-41996D01*
X34160Y-42000D01*
X35160Y-39000D02*
X35156Y-39031D01*
X35147Y-39060D01*
X35133Y-39088D01*
X35113Y-39112D01*
X35089Y-39132D01*
X35062Y-39147D01*
X35032Y-39156D01*
X35001Y-39159D01*
X34971Y-39157D01*
X34941Y-39148D01*
X34913Y-39133D01*
X34889Y-39114D01*
X34868Y-39090D01*
X34853Y-39063D01*
X34844Y-39033D01*
X34841Y-39002D01*
X34843Y-38972D01*
X34852Y-38942D01*
X34866Y-38914D01*
X34885Y-38889D01*
X34909Y-38869D01*
X34936Y-38854D01*
X34966Y-38844D01*
X34997Y-38841D01*
X35027Y-38843D01*
X35057Y-38851D01*
X35085Y-38865D01*
X35110Y-38885D01*
X35130Y-38908D01*
X35146Y-38935D01*
X35156Y-38965D01*
X35159Y-38996D01*
X35160Y-39000D01*
X35160Y-42000D02*
X35156Y-42031D01*
X35147Y-42060D01*
X35133Y-42088D01*
X35113Y-42112D01*
X35089Y-42132D01*
X35062Y-42147D01*
X35032Y-42156D01*
X35001Y-42159D01*
X34971Y-42157D01*
X34941Y-42148D01*
X34913Y-42133D01*
X34889Y-42114D01*
X34868Y-42090D01*
X34853Y-42063D01*
X34844Y-42033D01*
X34841Y-42002D01*
X34843Y-41972D01*
X34852Y-41942D01*
X34866Y-41914D01*
X34885Y-41889D01*
X34909Y-41869D01*
X34936Y-41854D01*
X34966Y-41844D01*
X34997Y-41841D01*
X35027Y-41843D01*
X35057Y-41851D01*
X35085Y-41865D01*
X35110Y-41885D01*
X35130Y-41908D01*
X35146Y-41935D01*
X35156Y-41965D01*
X35159Y-41996D01*
X35160Y-42000D01*
X36160Y-39000D02*
X36156Y-39031D01*
X36147Y-39060D01*
X36133Y-39088D01*
X36113Y-39112D01*
X36089Y-39132D01*
X36062Y-39147D01*
X36032Y-39156D01*
X36001Y-39159D01*
X35971Y-39157D01*
X35941Y-39148D01*
X35913Y-39133D01*
X35889Y-39114D01*
X35868Y-39090D01*
X35853Y-39063D01*
X35844Y-39033D01*
X35841Y-39002D01*
X35843Y-38972D01*
X35852Y-38942D01*
X35866Y-38914D01*
X35885Y-38889D01*
X35909Y-38869D01*
X35936Y-38854D01*
X35966Y-38844D01*
X35997Y-38841D01*
X36027Y-38843D01*
X36057Y-38851D01*
X36085Y-38865D01*
X36110Y-38885D01*
X36130Y-38908D01*
X36146Y-38935D01*
X36156Y-38965D01*
X36159Y-38996D01*
X36160Y-39000D01*
X36160Y-42000D02*
X36156Y-42031D01*
X36147Y-42060D01*
X36133Y-42088D01*
X36113Y-42112D01*
X36089Y-42132D01*
X36062Y-42147D01*
X36032Y-42156D01*
X36001Y-42159D01*
X35971Y-42157D01*
X35941Y-42148D01*
X35913Y-42133D01*
X35889Y-42114D01*
X35868Y-42090D01*
X35853Y-42063D01*
X35844Y-42033D01*
X35841Y-42002D01*
X35843Y-41972D01*
X35852Y-41942D01*
X35866Y-41914D01*
X35885Y-41889D01*
X35909Y-41869D01*
X35936Y-41854D01*
X35966Y-41844D01*
X35997Y-41841D01*
X36027Y-41843D01*
X36057Y-41851D01*
X36085Y-41865D01*
X36110Y-41885D01*
X36130Y-41908D01*
X36146Y-41935D01*
X36156Y-41965D01*
X36159Y-41996D01*
X36160Y-42000D01*
X36910Y-28250D02*
X36906Y-28281D01*
X36897Y-28310D01*
X36883Y-28338D01*
X36863Y-28362D01*
X36839Y-28382D01*
X36812Y-28397D01*
X36782Y-28406D01*
X36751Y-28409D01*
X36721Y-28407D01*
X36691Y-28398D01*
X36663Y-28383D01*
X36639Y-28364D01*
X36618Y-28340D01*
X36603Y-28313D01*
X36594Y-28283D01*
X36591Y-28252D01*
X36593Y-28222D01*
X36602Y-28192D01*
X36616Y-28164D01*
X36635Y-28139D01*
X36659Y-28119D01*
X36686Y-28104D01*
X36716Y-28094D01*
X36747Y-28091D01*
X36777Y-28093D01*
X36807Y-28101D01*
X36835Y-28115D01*
X36860Y-28135D01*
X36880Y-28158D01*
X36896Y-28185D01*
X36906Y-28215D01*
X36909Y-28246D01*
X36910Y-28250D01*
X36910Y-29250D02*
X36906Y-29281D01*
X36897Y-29310D01*
X36883Y-29338D01*
X36863Y-29362D01*
X36839Y-29382D01*
X36812Y-29397D01*
X36782Y-29406D01*
X36751Y-29409D01*
X36721Y-29407D01*
X36691Y-29398D01*
X36663Y-29383D01*
X36639Y-29364D01*
X36618Y-29340D01*
X36603Y-29313D01*
X36594Y-29283D01*
X36591Y-29252D01*
X36593Y-29222D01*
X36602Y-29192D01*
X36616Y-29164D01*
X36635Y-29139D01*
X36659Y-29119D01*
X36686Y-29104D01*
X36716Y-29094D01*
X36747Y-29091D01*
X36777Y-29093D01*
X36807Y-29101D01*
X36835Y-29115D01*
X36860Y-29135D01*
X36880Y-29158D01*
X36896Y-29185D01*
X36906Y-29215D01*
X36909Y-29246D01*
X36910Y-29250D01*
X36910Y-30250D02*
X36906Y-30281D01*
X36897Y-30310D01*
X36883Y-30338D01*
X36863Y-30362D01*
X36839Y-30382D01*
X36812Y-30397D01*
X36782Y-30406D01*
X36751Y-30409D01*
X36721Y-30407D01*
X36691Y-30398D01*
X36663Y-30383D01*
X36639Y-30364D01*
X36618Y-30340D01*
X36603Y-30313D01*
X36594Y-30283D01*
X36591Y-30252D01*
X36593Y-30222D01*
X36602Y-30192D01*
X36616Y-30164D01*
X36635Y-30139D01*
X36659Y-30119D01*
X36686Y-30104D01*
X36716Y-30094D01*
X36747Y-30091D01*
X36777Y-30093D01*
X36807Y-30101D01*
X36835Y-30115D01*
X36860Y-30135D01*
X36880Y-30158D01*
X36896Y-30185D01*
X36906Y-30215D01*
X36909Y-30246D01*
X36910Y-30250D01*
X36910Y-31250D02*
X36906Y-31281D01*
X36897Y-31310D01*
X36883Y-31338D01*
X36863Y-31362D01*
X36839Y-31382D01*
X36812Y-31397D01*
X36782Y-31406D01*
X36751Y-31409D01*
X36721Y-31407D01*
X36691Y-31398D01*
X36663Y-31383D01*
X36639Y-31364D01*
X36618Y-31340D01*
X36603Y-31313D01*
X36594Y-31283D01*
X36591Y-31252D01*
X36593Y-31222D01*
X36602Y-31192D01*
X36616Y-31164D01*
X36635Y-31139D01*
X36659Y-31119D01*
X36686Y-31104D01*
X36716Y-31094D01*
X36747Y-31091D01*
X36777Y-31093D01*
X36807Y-31101D01*
X36835Y-31115D01*
X36860Y-31135D01*
X36880Y-31158D01*
X36896Y-31185D01*
X36906Y-31215D01*
X36909Y-31246D01*
X36910Y-31250D01*
X37160Y-39000D02*
X37156Y-39031D01*
X37147Y-39060D01*
X37133Y-39088D01*
X37113Y-39112D01*
X37089Y-39132D01*
X37062Y-39147D01*
X37032Y-39156D01*
X37001Y-39159D01*
X36971Y-39157D01*
X36941Y-39148D01*
X36913Y-39133D01*
X36889Y-39114D01*
X36868Y-39090D01*
X36853Y-39063D01*
X36844Y-39033D01*
X36841Y-39002D01*
X36843Y-38972D01*
X36852Y-38942D01*
X36866Y-38914D01*
X36885Y-38889D01*
X36909Y-38869D01*
X36936Y-38854D01*
X36966Y-38844D01*
X36997Y-38841D01*
X37027Y-38843D01*
X37057Y-38851D01*
X37085Y-38865D01*
X37110Y-38885D01*
X37130Y-38908D01*
X37146Y-38935D01*
X37156Y-38965D01*
X37159Y-38996D01*
X37160Y-39000D01*
X37160Y-42000D02*
X37156Y-42031D01*
X37147Y-42060D01*
X37133Y-42088D01*
X37113Y-42112D01*
X37089Y-42132D01*
X37062Y-42147D01*
X37032Y-42156D01*
X37001Y-42159D01*
X36971Y-42157D01*
X36941Y-42148D01*
X36913Y-42133D01*
X36889Y-42114D01*
X36868Y-42090D01*
X36853Y-42063D01*
X36844Y-42033D01*
X36841Y-42002D01*
X36843Y-41972D01*
X36852Y-41942D01*
X36866Y-41914D01*
X36885Y-41889D01*
X36909Y-41869D01*
X36936Y-41854D01*
X36966Y-41844D01*
X36997Y-41841D01*
X37027Y-41843D01*
X37057Y-41851D01*
X37085Y-41865D01*
X37110Y-41885D01*
X37130Y-41908D01*
X37146Y-41935D01*
X37156Y-41965D01*
X37159Y-41996D01*
X37160Y-42000D01*
X38160Y-39000D02*
X38156Y-39031D01*
X38147Y-39060D01*
X38133Y-39088D01*
X38113Y-39112D01*
X38089Y-39132D01*
X38062Y-39147D01*
X38032Y-39156D01*
X38001Y-39159D01*
X37971Y-39157D01*
X37941Y-39148D01*
X37913Y-39133D01*
X37889Y-39114D01*
X37868Y-39090D01*
X37853Y-39063D01*
X37844Y-39033D01*
X37841Y-39002D01*
X37843Y-38972D01*
X37852Y-38942D01*
X37866Y-38914D01*
X37885Y-38889D01*
X37909Y-38869D01*
X37936Y-38854D01*
X37966Y-38844D01*
X37997Y-38841D01*
X38027Y-38843D01*
X38057Y-38851D01*
X38085Y-38865D01*
X38110Y-38885D01*
X38130Y-38908D01*
X38146Y-38935D01*
X38156Y-38965D01*
X38159Y-38996D01*
X38160Y-39000D01*
X38160Y-42000D02*
X38156Y-42031D01*
X38147Y-42060D01*
X38133Y-42088D01*
X38113Y-42112D01*
X38089Y-42132D01*
X38062Y-42147D01*
X38032Y-42156D01*
X38001Y-42159D01*
X37971Y-42157D01*
X37941Y-42148D01*
X37913Y-42133D01*
X37889Y-42114D01*
X37868Y-42090D01*
X37853Y-42063D01*
X37844Y-42033D01*
X37841Y-42002D01*
X37843Y-41972D01*
X37852Y-41942D01*
X37866Y-41914D01*
X37885Y-41889D01*
X37909Y-41869D01*
X37936Y-41854D01*
X37966Y-41844D01*
X37997Y-41841D01*
X38027Y-41843D01*
X38057Y-41851D01*
X38085Y-41865D01*
X38110Y-41885D01*
X38130Y-41908D01*
X38146Y-41935D01*
X38156Y-41965D01*
X38159Y-41996D01*
X38160Y-42000D01*
X39160Y-39000D02*
X39156Y-39031D01*
X39147Y-39060D01*
X39133Y-39088D01*
X39113Y-39112D01*
X39089Y-39132D01*
X39062Y-39147D01*
X39032Y-39156D01*
X39001Y-39159D01*
X38971Y-39157D01*
X38941Y-39148D01*
X38913Y-39133D01*
X38889Y-39114D01*
X38868Y-39090D01*
X38853Y-39063D01*
X38844Y-39033D01*
X38841Y-39002D01*
X38843Y-38972D01*
X38852Y-38942D01*
X38866Y-38914D01*
X38885Y-38889D01*
X38909Y-38869D01*
X38936Y-38854D01*
X38966Y-38844D01*
X38997Y-38841D01*
X39027Y-38843D01*
X39057Y-38851D01*
X39085Y-38865D01*
X39110Y-38885D01*
X39130Y-38908D01*
X39146Y-38935D01*
X39156Y-38965D01*
X39159Y-38996D01*
X39160Y-39000D01*
X39160Y-42000D02*
X39156Y-42031D01*
X39147Y-42060D01*
X39133Y-42088D01*
X39113Y-42112D01*
X39089Y-42132D01*
X39062Y-42147D01*
X39032Y-42156D01*
X39001Y-42159D01*
X38971Y-42157D01*
X38941Y-42148D01*
X38913Y-42133D01*
X38889Y-42114D01*
X38868Y-42090D01*
X38853Y-42063D01*
X38844Y-42033D01*
X38841Y-42002D01*
X38843Y-41972D01*
X38852Y-41942D01*
X38866Y-41914D01*
X38885Y-41889D01*
X38909Y-41869D01*
X38936Y-41854D01*
X38966Y-41844D01*
X38997Y-41841D01*
X39027Y-41843D01*
X39057Y-41851D01*
X39085Y-41865D01*
X39110Y-41885D01*
X39130Y-41908D01*
X39146Y-41935D01*
X39156Y-41965D01*
X39159Y-41996D01*
X39160Y-42000D01*
X40160Y-39000D02*
X40156Y-39031D01*
X40147Y-39060D01*
X40133Y-39088D01*
X40113Y-39112D01*
X40089Y-39132D01*
X40062Y-39147D01*
X40032Y-39156D01*
X40001Y-39159D01*
X39971Y-39157D01*
X39941Y-39148D01*
X39913Y-39133D01*
X39889Y-39114D01*
X39868Y-39090D01*
X39853Y-39063D01*
X39844Y-39033D01*
X39841Y-39002D01*
X39843Y-38972D01*
X39852Y-38942D01*
X39866Y-38914D01*
X39885Y-38889D01*
X39909Y-38869D01*
X39936Y-38854D01*
X39966Y-38844D01*
X39997Y-38841D01*
X40027Y-38843D01*
X40057Y-38851D01*
X40085Y-38865D01*
X40110Y-38885D01*
X40130Y-38908D01*
X40146Y-38935D01*
X40156Y-38965D01*
X40159Y-38996D01*
X40160Y-39000D01*
X40160Y-42000D02*
X40156Y-42031D01*
X40147Y-42060D01*
X40133Y-42088D01*
X40113Y-42112D01*
X40089Y-42132D01*
X40062Y-42147D01*
X40032Y-42156D01*
X40001Y-42159D01*
X39971Y-42157D01*
X39941Y-42148D01*
X39913Y-42133D01*
X39889Y-42114D01*
X39868Y-42090D01*
X39853Y-42063D01*
X39844Y-42033D01*
X39841Y-42002D01*
X39843Y-41972D01*
X39852Y-41942D01*
X39866Y-41914D01*
X39885Y-41889D01*
X39909Y-41869D01*
X39936Y-41854D01*
X39966Y-41844D01*
X39997Y-41841D01*
X40027Y-41843D01*
X40057Y-41851D01*
X40085Y-41865D01*
X40110Y-41885D01*
X40130Y-41908D01*
X40146Y-41935D01*
X40156Y-41965D01*
X40159Y-41996D01*
X40160Y-42000D01*
X41160Y-39000D02*
X41156Y-39031D01*
X41147Y-39060D01*
X41133Y-39088D01*
X41113Y-39112D01*
X41089Y-39132D01*
X41062Y-39147D01*
X41032Y-39156D01*
X41001Y-39159D01*
X40971Y-39157D01*
X40941Y-39148D01*
X40913Y-39133D01*
X40889Y-39114D01*
X40868Y-39090D01*
X40853Y-39063D01*
X40844Y-39033D01*
X40841Y-39002D01*
X40843Y-38972D01*
X40852Y-38942D01*
X40866Y-38914D01*
X40885Y-38889D01*
X40909Y-38869D01*
X40936Y-38854D01*
X40966Y-38844D01*
X40997Y-38841D01*
X41027Y-38843D01*
X41057Y-38851D01*
X41085Y-38865D01*
X41110Y-38885D01*
X41130Y-38908D01*
X41146Y-38935D01*
X41156Y-38965D01*
X41159Y-38996D01*
X41160Y-39000D01*
X41160Y-42000D02*
X41156Y-42031D01*
X41147Y-42060D01*
X41133Y-42088D01*
X41113Y-42112D01*
X41089Y-42132D01*
X41062Y-42147D01*
X41032Y-42156D01*
X41001Y-42159D01*
X40971Y-42157D01*
X40941Y-42148D01*
X40913Y-42133D01*
X40889Y-42114D01*
X40868Y-42090D01*
X40853Y-42063D01*
X40844Y-42033D01*
X40841Y-42002D01*
X40843Y-41972D01*
X40852Y-41942D01*
X40866Y-41914D01*
X40885Y-41889D01*
X40909Y-41869D01*
X40936Y-41854D01*
X40966Y-41844D01*
X40997Y-41841D01*
X41027Y-41843D01*
X41057Y-41851D01*
X41085Y-41865D01*
X41110Y-41885D01*
X41130Y-41908D01*
X41146Y-41935D01*
X41156Y-41965D01*
X41159Y-41996D01*
X41160Y-42000D01*
X42160Y-39000D02*
X42156Y-39031D01*
X42147Y-39060D01*
X42133Y-39088D01*
X42113Y-39112D01*
X42089Y-39132D01*
X42062Y-39147D01*
X42032Y-39156D01*
X42001Y-39159D01*
X41971Y-39157D01*
X41941Y-39148D01*
X41913Y-39133D01*
X41889Y-39114D01*
X41868Y-39090D01*
X41853Y-39063D01*
X41844Y-39033D01*
X41841Y-39002D01*
X41843Y-38972D01*
X41852Y-38942D01*
X41866Y-38914D01*
X41885Y-38889D01*
X41909Y-38869D01*
X41936Y-38854D01*
X41966Y-38844D01*
X41997Y-38841D01*
X42027Y-38843D01*
X42057Y-38851D01*
X42085Y-38865D01*
X42110Y-38885D01*
X42130Y-38908D01*
X42146Y-38935D01*
X42156Y-38965D01*
X42159Y-38996D01*
X42160Y-39000D01*
X42160Y-42000D02*
X42156Y-42031D01*
X42147Y-42060D01*
X42133Y-42088D01*
X42113Y-42112D01*
X42089Y-42132D01*
X42062Y-42147D01*
X42032Y-42156D01*
X42001Y-42159D01*
X41971Y-42157D01*
X41941Y-42148D01*
X41913Y-42133D01*
X41889Y-42114D01*
X41868Y-42090D01*
X41853Y-42063D01*
X41844Y-42033D01*
X41841Y-42002D01*
X41843Y-41972D01*
X41852Y-41942D01*
X41866Y-41914D01*
X41885Y-41889D01*
X41909Y-41869D01*
X41936Y-41854D01*
X41966Y-41844D01*
X41997Y-41841D01*
X42027Y-41843D01*
X42057Y-41851D01*
X42085Y-41865D01*
X42110Y-41885D01*
X42130Y-41908D01*
X42146Y-41935D01*
X42156Y-41965D01*
X42159Y-41996D01*
X42160Y-42000D01*
X43160Y-39000D02*
X43156Y-39031D01*
X43147Y-39060D01*
X43133Y-39088D01*
X43113Y-39112D01*
X43089Y-39132D01*
X43062Y-39147D01*
X43032Y-39156D01*
X43001Y-39159D01*
X42971Y-39157D01*
X42941Y-39148D01*
X42913Y-39133D01*
X42889Y-39114D01*
X42868Y-39090D01*
X42853Y-39063D01*
X42844Y-39033D01*
X42841Y-39002D01*
X42843Y-38972D01*
X42852Y-38942D01*
X42866Y-38914D01*
X42885Y-38889D01*
X42909Y-38869D01*
X42936Y-38854D01*
X42966Y-38844D01*
X42997Y-38841D01*
X43027Y-38843D01*
X43057Y-38851D01*
X43085Y-38865D01*
X43110Y-38885D01*
X43130Y-38908D01*
X43146Y-38935D01*
X43156Y-38965D01*
X43159Y-38996D01*
X43160Y-39000D01*
X43160Y-42000D02*
X43156Y-42031D01*
X43147Y-42060D01*
X43133Y-42088D01*
X43113Y-42112D01*
X43089Y-42132D01*
X43062Y-42147D01*
X43032Y-42156D01*
X43001Y-42159D01*
X42971Y-42157D01*
X42941Y-42148D01*
X42913Y-42133D01*
X42889Y-42114D01*
X42868Y-42090D01*
X42853Y-42063D01*
X42844Y-42033D01*
X42841Y-42002D01*
X42843Y-41972D01*
X42852Y-41942D01*
X42866Y-41914D01*
X42885Y-41889D01*
X42909Y-41869D01*
X42936Y-41854D01*
X42966Y-41844D01*
X42997Y-41841D01*
X43027Y-41843D01*
X43057Y-41851D01*
X43085Y-41865D01*
X43110Y-41885D01*
X43130Y-41908D01*
X43146Y-41935D01*
X43156Y-41965D01*
X43159Y-41996D01*
X43160Y-42000D01*
X44160Y-39000D02*
X44156Y-39031D01*
X44147Y-39060D01*
X44133Y-39088D01*
X44113Y-39112D01*
X44089Y-39132D01*
X44062Y-39147D01*
X44032Y-39156D01*
X44001Y-39159D01*
X43971Y-39157D01*
X43941Y-39148D01*
X43913Y-39133D01*
X43889Y-39114D01*
X43868Y-39090D01*
X43853Y-39063D01*
X43844Y-39033D01*
X43841Y-39002D01*
X43843Y-38972D01*
X43852Y-38942D01*
X43866Y-38914D01*
X43885Y-38889D01*
X43909Y-38869D01*
X43936Y-38854D01*
X43966Y-38844D01*
X43997Y-38841D01*
X44027Y-38843D01*
X44057Y-38851D01*
X44085Y-38865D01*
X44110Y-38885D01*
X44130Y-38908D01*
X44146Y-38935D01*
X44156Y-38965D01*
X44159Y-38996D01*
X44160Y-39000D01*
X44160Y-42000D02*
X44156Y-42031D01*
X44147Y-42060D01*
X44133Y-42088D01*
X44113Y-42112D01*
X44089Y-42132D01*
X44062Y-42147D01*
X44032Y-42156D01*
X44001Y-42159D01*
X43971Y-42157D01*
X43941Y-42148D01*
X43913Y-42133D01*
X43889Y-42114D01*
X43868Y-42090D01*
X43853Y-42063D01*
X43844Y-42033D01*
X43841Y-42002D01*
X43843Y-41972D01*
X43852Y-41942D01*
X43866Y-41914D01*
X43885Y-41889D01*
X43909Y-41869D01*
X43936Y-41854D01*
X43966Y-41844D01*
X43997Y-41841D01*
X44027Y-41843D01*
X44057Y-41851D01*
X44085Y-41865D01*
X44110Y-41885D01*
X44130Y-41908D01*
X44146Y-41935D01*
X44156Y-41965D01*
X44159Y-41996D01*
X44160Y-42000D01*
X44910Y-26750D02*
X44906Y-26781D01*
X44897Y-26810D01*
X44883Y-26838D01*
X44863Y-26862D01*
X44839Y-26882D01*
X44812Y-26897D01*
X44782Y-26906D01*
X44751Y-26909D01*
X44721Y-26907D01*
X44691Y-26898D01*
X44663Y-26883D01*
X44639Y-26864D01*
X44618Y-26840D01*
X44603Y-26813D01*
X44594Y-26783D01*
X44591Y-26752D01*
X44593Y-26722D01*
X44602Y-26692D01*
X44616Y-26664D01*
X44635Y-26639D01*
X44659Y-26619D01*
X44686Y-26604D01*
X44716Y-26594D01*
X44747Y-26591D01*
X44777Y-26593D01*
X44807Y-26601D01*
X44835Y-26615D01*
X44860Y-26635D01*
X44880Y-26658D01*
X44896Y-26685D01*
X44906Y-26715D01*
X44909Y-26746D01*
X44910Y-26750D01*
X44910Y-27750D02*
X44906Y-27781D01*
X44897Y-27810D01*
X44883Y-27838D01*
X44863Y-27862D01*
X44839Y-27882D01*
X44812Y-27897D01*
X44782Y-27906D01*
X44751Y-27909D01*
X44721Y-27907D01*
X44691Y-27898D01*
X44663Y-27883D01*
X44639Y-27864D01*
X44618Y-27840D01*
X44603Y-27813D01*
X44594Y-27783D01*
X44591Y-27752D01*
X44593Y-27722D01*
X44602Y-27692D01*
X44616Y-27664D01*
X44635Y-27639D01*
X44659Y-27619D01*
X44686Y-27604D01*
X44716Y-27594D01*
X44747Y-27591D01*
X44777Y-27593D01*
X44807Y-27601D01*
X44835Y-27615D01*
X44860Y-27635D01*
X44880Y-27658D01*
X44896Y-27685D01*
X44906Y-27715D01*
X44909Y-27746D01*
X44910Y-27750D01*
X44910Y-28750D02*
X44906Y-28781D01*
X44897Y-28810D01*
X44883Y-28838D01*
X44863Y-28862D01*
X44839Y-28882D01*
X44812Y-28897D01*
X44782Y-28906D01*
X44751Y-28909D01*
X44721Y-28907D01*
X44691Y-28898D01*
X44663Y-28883D01*
X44639Y-28864D01*
X44618Y-28840D01*
X44603Y-28813D01*
X44594Y-28783D01*
X44591Y-28752D01*
X44593Y-28722D01*
X44602Y-28692D01*
X44616Y-28664D01*
X44635Y-28639D01*
X44659Y-28619D01*
X44686Y-28604D01*
X44716Y-28594D01*
X44747Y-28591D01*
X44777Y-28593D01*
X44807Y-28601D01*
X44835Y-28615D01*
X44860Y-28635D01*
X44880Y-28658D01*
X44896Y-28685D01*
X44906Y-28715D01*
X44909Y-28746D01*
X44910Y-28750D01*
X44910Y-29750D02*
X44906Y-29781D01*
X44897Y-29810D01*
X44883Y-29838D01*
X44863Y-29862D01*
X44839Y-29882D01*
X44812Y-29897D01*
X44782Y-29906D01*
X44751Y-29909D01*
X44721Y-29907D01*
X44691Y-29898D01*
X44663Y-29883D01*
X44639Y-29864D01*
X44618Y-29840D01*
X44603Y-29813D01*
X44594Y-29783D01*
X44591Y-29752D01*
X44593Y-29722D01*
X44602Y-29692D01*
X44616Y-29664D01*
X44635Y-29639D01*
X44659Y-29619D01*
X44686Y-29604D01*
X44716Y-29594D01*
X44747Y-29591D01*
X44777Y-29593D01*
X44807Y-29601D01*
X44835Y-29615D01*
X44860Y-29635D01*
X44880Y-29658D01*
X44896Y-29685D01*
X44906Y-29715D01*
X44909Y-29746D01*
X44910Y-29750D01*
X44910Y-30750D02*
X44906Y-30781D01*
X44897Y-30810D01*
X44883Y-30838D01*
X44863Y-30862D01*
X44839Y-30882D01*
X44812Y-30897D01*
X44782Y-30906D01*
X44751Y-30909D01*
X44721Y-30907D01*
X44691Y-30898D01*
X44663Y-30883D01*
X44639Y-30864D01*
X44618Y-30840D01*
X44603Y-30813D01*
X44594Y-30783D01*
X44591Y-30752D01*
X44593Y-30722D01*
X44602Y-30692D01*
X44616Y-30664D01*
X44635Y-30639D01*
X44659Y-30619D01*
X44686Y-30604D01*
X44716Y-30594D01*
X44747Y-30591D01*
X44777Y-30593D01*
X44807Y-30601D01*
X44835Y-30615D01*
X44860Y-30635D01*
X44880Y-30658D01*
X44896Y-30685D01*
X44906Y-30715D01*
X44909Y-30746D01*
X44910Y-30750D01*
X44910Y-31750D02*
X44906Y-31781D01*
X44897Y-31810D01*
X44883Y-31838D01*
X44863Y-31862D01*
X44839Y-31882D01*
X44812Y-31897D01*
X44782Y-31906D01*
X44751Y-31909D01*
X44721Y-31907D01*
X44691Y-31898D01*
X44663Y-31883D01*
X44639Y-31864D01*
X44618Y-31840D01*
X44603Y-31813D01*
X44594Y-31783D01*
X44591Y-31752D01*
X44593Y-31722D01*
X44602Y-31692D01*
X44616Y-31664D01*
X44635Y-31639D01*
X44659Y-31619D01*
X44686Y-31604D01*
X44716Y-31594D01*
X44747Y-31591D01*
X44777Y-31593D01*
X44807Y-31601D01*
X44835Y-31615D01*
X44860Y-31635D01*
X44880Y-31658D01*
X44896Y-31685D01*
X44906Y-31715D01*
X44909Y-31746D01*
X44910Y-31750D01*
X44910Y-32750D02*
X44906Y-32781D01*
X44897Y-32810D01*
X44883Y-32838D01*
X44863Y-32862D01*
X44839Y-32882D01*
X44812Y-32897D01*
X44782Y-32906D01*
X44751Y-32909D01*
X44721Y-32907D01*
X44691Y-32898D01*
X44663Y-32883D01*
X44639Y-32864D01*
X44618Y-32840D01*
X44603Y-32813D01*
X44594Y-32783D01*
X44591Y-32752D01*
X44593Y-32722D01*
X44602Y-32692D01*
X44616Y-32664D01*
X44635Y-32639D01*
X44659Y-32619D01*
X44686Y-32604D01*
X44716Y-32594D01*
X44747Y-32591D01*
X44777Y-32593D01*
X44807Y-32601D01*
X44835Y-32615D01*
X44860Y-32635D01*
X44880Y-32658D01*
X44896Y-32685D01*
X44906Y-32715D01*
X44909Y-32746D01*
X44910Y-32750D01*
X44910Y-33750D02*
X44906Y-33781D01*
X44897Y-33810D01*
X44883Y-33838D01*
X44863Y-33862D01*
X44839Y-33882D01*
X44812Y-33897D01*
X44782Y-33906D01*
X44751Y-33909D01*
X44721Y-33907D01*
X44691Y-33898D01*
X44663Y-33883D01*
X44639Y-33864D01*
X44618Y-33840D01*
X44603Y-33813D01*
X44594Y-33783D01*
X44591Y-33752D01*
X44593Y-33722D01*
X44602Y-33692D01*
X44616Y-33664D01*
X44635Y-33639D01*
X44659Y-33619D01*
X44686Y-33604D01*
X44716Y-33594D01*
X44747Y-33591D01*
X44777Y-33593D01*
X44807Y-33601D01*
X44835Y-33615D01*
X44860Y-33635D01*
X44880Y-33658D01*
X44896Y-33685D01*
X44906Y-33715D01*
X44909Y-33746D01*
X44910Y-33750D01*
X45160Y-39000D02*
X45156Y-39031D01*
X45147Y-39060D01*
X45133Y-39088D01*
X45113Y-39112D01*
X45089Y-39132D01*
X45062Y-39147D01*
X45032Y-39156D01*
X45001Y-39159D01*
X44971Y-39157D01*
X44941Y-39148D01*
X44913Y-39133D01*
X44889Y-39114D01*
X44868Y-39090D01*
X44853Y-39063D01*
X44844Y-39033D01*
X44841Y-39002D01*
X44843Y-38972D01*
X44852Y-38942D01*
X44866Y-38914D01*
X44885Y-38889D01*
X44909Y-38869D01*
X44936Y-38854D01*
X44966Y-38844D01*
X44997Y-38841D01*
X45027Y-38843D01*
X45057Y-38851D01*
X45085Y-38865D01*
X45110Y-38885D01*
X45130Y-38908D01*
X45146Y-38935D01*
X45156Y-38965D01*
X45159Y-38996D01*
X45160Y-39000D01*
X45160Y-42000D02*
X45156Y-42031D01*
X45147Y-42060D01*
X45133Y-42088D01*
X45113Y-42112D01*
X45089Y-42132D01*
X45062Y-42147D01*
X45032Y-42156D01*
X45001Y-42159D01*
X44971Y-42157D01*
X44941Y-42148D01*
X44913Y-42133D01*
X44889Y-42114D01*
X44868Y-42090D01*
X44853Y-42063D01*
X44844Y-42033D01*
X44841Y-42002D01*
X44843Y-41972D01*
X44852Y-41942D01*
X44866Y-41914D01*
X44885Y-41889D01*
X44909Y-41869D01*
X44936Y-41854D01*
X44966Y-41844D01*
X44997Y-41841D01*
X45027Y-41843D01*
X45057Y-41851D01*
X45085Y-41865D01*
X45110Y-41885D01*
X45130Y-41908D01*
X45146Y-41935D01*
X45156Y-41965D01*
X45159Y-41996D01*
X45160Y-42000D01*
X46160Y-39000D02*
X46156Y-39031D01*
X46147Y-39060D01*
X46133Y-39088D01*
X46113Y-39112D01*
X46089Y-39132D01*
X46062Y-39147D01*
X46032Y-39156D01*
X46001Y-39159D01*
X45971Y-39157D01*
X45941Y-39148D01*
X45913Y-39133D01*
X45889Y-39114D01*
X45868Y-39090D01*
X45853Y-39063D01*
X45844Y-39033D01*
X45841Y-39002D01*
X45843Y-38972D01*
X45852Y-38942D01*
X45866Y-38914D01*
X45885Y-38889D01*
X45909Y-38869D01*
X45936Y-38854D01*
X45966Y-38844D01*
X45997Y-38841D01*
X46027Y-38843D01*
X46057Y-38851D01*
X46085Y-38865D01*
X46110Y-38885D01*
X46130Y-38908D01*
X46146Y-38935D01*
X46156Y-38965D01*
X46159Y-38996D01*
X46160Y-39000D01*
X46160Y-42000D02*
X46156Y-42031D01*
X46147Y-42060D01*
X46133Y-42088D01*
X46113Y-42112D01*
X46089Y-42132D01*
X46062Y-42147D01*
X46032Y-42156D01*
X46001Y-42159D01*
X45971Y-42157D01*
X45941Y-42148D01*
X45913Y-42133D01*
X45889Y-42114D01*
X45868Y-42090D01*
X45853Y-42063D01*
X45844Y-42033D01*
X45841Y-42002D01*
X45843Y-41972D01*
X45852Y-41942D01*
X45866Y-41914D01*
X45885Y-41889D01*
X45909Y-41869D01*
X45936Y-41854D01*
X45966Y-41844D01*
X45997Y-41841D01*
X46027Y-41843D01*
X46057Y-41851D01*
X46085Y-41865D01*
X46110Y-41885D01*
X46130Y-41908D01*
X46146Y-41935D01*
X46156Y-41965D01*
X46159Y-41996D01*
X46160Y-42000D01*
X47160Y-39000D02*
X47156Y-39031D01*
X47147Y-39060D01*
X47133Y-39088D01*
X47113Y-39112D01*
X47089Y-39132D01*
X47062Y-39147D01*
X47032Y-39156D01*
X47001Y-39159D01*
X46971Y-39157D01*
X46941Y-39148D01*
X46913Y-39133D01*
X46889Y-39114D01*
X46868Y-39090D01*
X46853Y-39063D01*
X46844Y-39033D01*
X46841Y-39002D01*
X46843Y-38972D01*
X46852Y-38942D01*
X46866Y-38914D01*
X46885Y-38889D01*
X46909Y-38869D01*
X46936Y-38854D01*
X46966Y-38844D01*
X46997Y-38841D01*
X47027Y-38843D01*
X47057Y-38851D01*
X47085Y-38865D01*
X47110Y-38885D01*
X47130Y-38908D01*
X47146Y-38935D01*
X47156Y-38965D01*
X47159Y-38996D01*
X47160Y-39000D01*
X47160Y-42000D02*
X47156Y-42031D01*
X47147Y-42060D01*
X47133Y-42088D01*
X47113Y-42112D01*
X47089Y-42132D01*
X47062Y-42147D01*
X47032Y-42156D01*
X47001Y-42159D01*
X46971Y-42157D01*
X46941Y-42148D01*
X46913Y-42133D01*
X46889Y-42114D01*
X46868Y-42090D01*
X46853Y-42063D01*
X46844Y-42033D01*
X46841Y-42002D01*
X46843Y-41972D01*
X46852Y-41942D01*
X46866Y-41914D01*
X46885Y-41889D01*
X46909Y-41869D01*
X46936Y-41854D01*
X46966Y-41844D01*
X46997Y-41841D01*
X47027Y-41843D01*
X47057Y-41851D01*
X47085Y-41865D01*
X47110Y-41885D01*
X47130Y-41908D01*
X47146Y-41935D01*
X47156Y-41965D01*
X47159Y-41996D01*
X47160Y-42000D01*
X47910Y-26750D02*
X47906Y-26781D01*
X47897Y-26810D01*
X47883Y-26838D01*
X47863Y-26862D01*
X47839Y-26882D01*
X47812Y-26897D01*
X47782Y-26906D01*
X47751Y-26909D01*
X47721Y-26907D01*
X47691Y-26898D01*
X47663Y-26883D01*
X47639Y-26864D01*
X47618Y-26840D01*
X47603Y-26813D01*
X47594Y-26783D01*
X47591Y-26752D01*
X47593Y-26722D01*
X47602Y-26692D01*
X47616Y-26664D01*
X47635Y-26639D01*
X47659Y-26619D01*
X47686Y-26604D01*
X47716Y-26594D01*
X47747Y-26591D01*
X47777Y-26593D01*
X47807Y-26601D01*
X47835Y-26615D01*
X47860Y-26635D01*
X47880Y-26658D01*
X47896Y-26685D01*
X47906Y-26715D01*
X47909Y-26746D01*
X47910Y-26750D01*
X47910Y-27750D02*
X47906Y-27781D01*
X47897Y-27810D01*
X47883Y-27838D01*
X47863Y-27862D01*
X47839Y-27882D01*
X47812Y-27897D01*
X47782Y-27906D01*
X47751Y-27909D01*
X47721Y-27907D01*
X47691Y-27898D01*
X47663Y-27883D01*
X47639Y-27864D01*
X47618Y-27840D01*
X47603Y-27813D01*
X47594Y-27783D01*
X47591Y-27752D01*
X47593Y-27722D01*
X47602Y-27692D01*
X47616Y-27664D01*
X47635Y-27639D01*
X47659Y-27619D01*
X47686Y-27604D01*
X47716Y-27594D01*
X47747Y-27591D01*
X47777Y-27593D01*
X47807Y-27601D01*
X47835Y-27615D01*
X47860Y-27635D01*
X47880Y-27658D01*
X47896Y-27685D01*
X47906Y-27715D01*
X47909Y-27746D01*
X47910Y-27750D01*
X47910Y-28750D02*
X47906Y-28781D01*
X47897Y-28810D01*
X47883Y-28838D01*
X47863Y-28862D01*
X47839Y-28882D01*
X47812Y-28897D01*
X47782Y-28906D01*
X47751Y-28909D01*
X47721Y-28907D01*
X47691Y-28898D01*
X47663Y-28883D01*
X47639Y-28864D01*
X47618Y-28840D01*
X47603Y-28813D01*
X47594Y-28783D01*
X47591Y-28752D01*
X47593Y-28722D01*
X47602Y-28692D01*
X47616Y-28664D01*
X47635Y-28639D01*
X47659Y-28619D01*
X47686Y-28604D01*
X47716Y-28594D01*
X47747Y-28591D01*
X47777Y-28593D01*
X47807Y-28601D01*
X47835Y-28615D01*
X47860Y-28635D01*
X47880Y-28658D01*
X47896Y-28685D01*
X47906Y-28715D01*
X47909Y-28746D01*
X47910Y-28750D01*
X47910Y-29750D02*
X47906Y-29781D01*
X47897Y-29810D01*
X47883Y-29838D01*
X47863Y-29862D01*
X47839Y-29882D01*
X47812Y-29897D01*
X47782Y-29906D01*
X47751Y-29909D01*
X47721Y-29907D01*
X47691Y-29898D01*
X47663Y-29883D01*
X47639Y-29864D01*
X47618Y-29840D01*
X47603Y-29813D01*
X47594Y-29783D01*
X47591Y-29752D01*
X47593Y-29722D01*
X47602Y-29692D01*
X47616Y-29664D01*
X47635Y-29639D01*
X47659Y-29619D01*
X47686Y-29604D01*
X47716Y-29594D01*
X47747Y-29591D01*
X47777Y-29593D01*
X47807Y-29601D01*
X47835Y-29615D01*
X47860Y-29635D01*
X47880Y-29658D01*
X47896Y-29685D01*
X47906Y-29715D01*
X47909Y-29746D01*
X47910Y-29750D01*
X47910Y-30750D02*
X47906Y-30781D01*
X47897Y-30810D01*
X47883Y-30838D01*
X47863Y-30862D01*
X47839Y-30882D01*
X47812Y-30897D01*
X47782Y-30906D01*
X47751Y-30909D01*
X47721Y-30907D01*
X47691Y-30898D01*
X47663Y-30883D01*
X47639Y-30864D01*
X47618Y-30840D01*
X47603Y-30813D01*
X47594Y-30783D01*
X47591Y-30752D01*
X47593Y-30722D01*
X47602Y-30692D01*
X47616Y-30664D01*
X47635Y-30639D01*
X47659Y-30619D01*
X47686Y-30604D01*
X47716Y-30594D01*
X47747Y-30591D01*
X47777Y-30593D01*
X47807Y-30601D01*
X47835Y-30615D01*
X47860Y-30635D01*
X47880Y-30658D01*
X47896Y-30685D01*
X47906Y-30715D01*
X47909Y-30746D01*
X47910Y-30750D01*
X47910Y-31750D02*
X47906Y-31781D01*
X47897Y-31810D01*
X47883Y-31838D01*
X47863Y-31862D01*
X47839Y-31882D01*
X47812Y-31897D01*
X47782Y-31906D01*
X47751Y-31909D01*
X47721Y-31907D01*
X47691Y-31898D01*
X47663Y-31883D01*
X47639Y-31864D01*
X47618Y-31840D01*
X47603Y-31813D01*
X47594Y-31783D01*
X47591Y-31752D01*
X47593Y-31722D01*
X47602Y-31692D01*
X47616Y-31664D01*
X47635Y-31639D01*
X47659Y-31619D01*
X47686Y-31604D01*
X47716Y-31594D01*
X47747Y-31591D01*
X47777Y-31593D01*
X47807Y-31601D01*
X47835Y-31615D01*
X47860Y-31635D01*
X47880Y-31658D01*
X47896Y-31685D01*
X47906Y-31715D01*
X47909Y-31746D01*
X47910Y-31750D01*
X47910Y-32750D02*
X47906Y-32781D01*
X47897Y-32810D01*
X47883Y-32838D01*
X47863Y-32862D01*
X47839Y-32882D01*
X47812Y-32897D01*
X47782Y-32906D01*
X47751Y-32909D01*
X47721Y-32907D01*
X47691Y-32898D01*
X47663Y-32883D01*
X47639Y-32864D01*
X47618Y-32840D01*
X47603Y-32813D01*
X47594Y-32783D01*
X47591Y-32752D01*
X47593Y-32722D01*
X47602Y-32692D01*
X47616Y-32664D01*
X47635Y-32639D01*
X47659Y-32619D01*
X47686Y-32604D01*
X47716Y-32594D01*
X47747Y-32591D01*
X47777Y-32593D01*
X47807Y-32601D01*
X47835Y-32615D01*
X47860Y-32635D01*
X47880Y-32658D01*
X47896Y-32685D01*
X47906Y-32715D01*
X47909Y-32746D01*
X47910Y-32750D01*
X47910Y-33750D02*
X47906Y-33781D01*
X47897Y-33810D01*
X47883Y-33838D01*
X47863Y-33862D01*
X47839Y-33882D01*
X47812Y-33897D01*
X47782Y-33906D01*
X47751Y-33909D01*
X47721Y-33907D01*
X47691Y-33898D01*
X47663Y-33883D01*
X47639Y-33864D01*
X47618Y-33840D01*
X47603Y-33813D01*
X47594Y-33783D01*
X47591Y-33752D01*
X47593Y-33722D01*
X47602Y-33692D01*
X47616Y-33664D01*
X47635Y-33639D01*
X47659Y-33619D01*
X47686Y-33604D01*
X47716Y-33594D01*
X47747Y-33591D01*
X47777Y-33593D01*
X47807Y-33601D01*
X47835Y-33615D01*
X47860Y-33635D01*
X47880Y-33658D01*
X47896Y-33685D01*
X47906Y-33715D01*
X47909Y-33746D01*
X47910Y-33750D01*
X24750Y-29050D02*
X24750Y-29450D01*
X24950Y-29250D02*
X24550Y-29250D01*
X24750Y-30050D02*
X24750Y-30450D01*
X24950Y-30250D02*
X24550Y-30250D01*
X24750Y-31050D02*
X24750Y-31450D01*
X24950Y-31250D02*
X24550Y-31250D01*
X24750Y-32050D02*
X24750Y-32450D01*
X24950Y-32250D02*
X24550Y-32250D01*
X24750Y-33050D02*
X24750Y-33450D01*
X24950Y-33250D02*
X24550Y-33250D01*
X24750Y-34050D02*
X24750Y-34450D01*
X24950Y-34250D02*
X24550Y-34250D01*
X24750Y-35050D02*
X24750Y-35450D01*
X24950Y-35250D02*
X24550Y-35250D01*
X24750Y-36050D02*
X24750Y-36450D01*
X24950Y-36250D02*
X24550Y-36250D01*
X24750Y-38300D02*
X24750Y-38700D01*
X24950Y-38500D02*
X24550Y-38500D01*
X24750Y-39300D02*
X24750Y-39700D01*
X24950Y-39500D02*
X24550Y-39500D01*
X24750Y-40300D02*
X24750Y-40700D01*
X24950Y-40500D02*
X24550Y-40500D01*
X24750Y-41300D02*
X24750Y-41700D01*
X24950Y-41500D02*
X24550Y-41500D01*
X24750Y-42300D02*
X24750Y-42700D01*
X24950Y-42500D02*
X24550Y-42500D01*
X24750Y-43300D02*
X24750Y-43700D01*
X24950Y-43500D02*
X24550Y-43500D01*
X24750Y-44300D02*
X24750Y-44700D01*
X24950Y-44500D02*
X24550Y-44500D01*
X24750Y-45300D02*
X24750Y-45700D01*
X24950Y-45500D02*
X24550Y-45500D01*
X24750Y-47300D02*
X24750Y-47700D01*
X24950Y-47500D02*
X24550Y-47500D01*
X25750Y-47300D02*
X25750Y-47700D01*
X25950Y-47500D02*
X25550Y-47500D01*
X34250Y-21800D02*
X34250Y-22200D01*
X34450Y-22000D02*
X34050Y-22000D01*
X34250Y-22800D02*
X34250Y-23200D01*
X34450Y-23000D02*
X34050Y-23000D01*
X34250Y-49300D02*
X34250Y-49700D01*
X34450Y-49500D02*
X34050Y-49500D01*
X34250Y-50300D02*
X34250Y-50700D01*
X34450Y-50500D02*
X34050Y-50500D01*
X35250Y-21800D02*
X35250Y-22200D01*
X35450Y-22000D02*
X35050Y-22000D01*
X35250Y-22800D02*
X35250Y-23200D01*
X35450Y-23000D02*
X35050Y-23000D01*
X35250Y-49300D02*
X35250Y-49700D01*
X35450Y-49500D02*
X35050Y-49500D01*
X35250Y-50300D02*
X35250Y-50700D01*
X35450Y-50500D02*
X35050Y-50500D01*
X36250Y-21800D02*
X36250Y-22200D01*
X36450Y-22000D02*
X36050Y-22000D01*
X36250Y-22800D02*
X36250Y-23200D01*
X36450Y-23000D02*
X36050Y-23000D01*
X36250Y-49300D02*
X36250Y-49700D01*
X36450Y-49500D02*
X36050Y-49500D01*
X36250Y-50300D02*
X36250Y-50700D01*
X36450Y-50500D02*
X36050Y-50500D01*
X37250Y-21800D02*
X37250Y-22200D01*
X37450Y-22000D02*
X37050Y-22000D01*
X37250Y-22800D02*
X37250Y-23200D01*
X37450Y-23000D02*
X37050Y-23000D01*
X37250Y-49300D02*
X37250Y-49700D01*
X37450Y-49500D02*
X37050Y-49500D01*
X37250Y-50300D02*
X37250Y-50700D01*
X37450Y-50500D02*
X37050Y-50500D01*
X38250Y-21800D02*
X38250Y-22200D01*
X38450Y-22000D02*
X38050Y-22000D01*
X38250Y-22800D02*
X38250Y-23200D01*
X38450Y-23000D02*
X38050Y-23000D01*
X38250Y-49300D02*
X38250Y-49700D01*
X38450Y-49500D02*
X38050Y-49500D01*
X38250Y-50300D02*
X38250Y-50700D01*
X38450Y-50500D02*
X38050Y-50500D01*
X49500Y-26550D02*
X49500Y-26950D01*
X49700Y-26750D02*
X49300Y-26750D01*
X49500Y-27550D02*
X49500Y-27950D01*
X49700Y-27750D02*
X49300Y-27750D01*
X49500Y-28550D02*
X49500Y-28950D01*
X49700Y-28750D02*
X49300Y-28750D01*
X49500Y-29550D02*
X49500Y-29950D01*
X49700Y-29750D02*
X49300Y-29750D01*
X23090Y-50000D02*
X23078Y-50114D01*
X23045Y-50224D01*
X22991Y-50326D01*
X22918Y-50415D01*
X22829Y-50489D01*
X22728Y-50543D01*
X22618Y-50577D01*
X22504Y-50589D01*
X22390Y-50579D01*
X22279Y-50547D01*
X22177Y-50493D01*
X22088Y-50421D01*
X22014Y-50333D01*
X21958Y-50232D01*
X21923Y-50122D01*
X21911Y-50008D01*
X21920Y-49894D01*
X21952Y-49783D01*
X22005Y-49681D01*
X22076Y-49591D01*
X22164Y-49516D01*
X22264Y-49460D01*
X22374Y-49424D01*
X22488Y-49411D01*
X22602Y-49419D01*
X22713Y-49450D01*
X22816Y-49502D01*
X22906Y-49573D01*
X22982Y-49660D01*
X23038Y-49761D01*
X23075Y-49870D01*
X23089Y-49984D01*
X23090Y-50000D01*
X21910Y-49410D02*
X23090Y-50590D01*
X23090Y-49410D02*
X21910Y-50590D01*
X31340Y-22500D02*
X31328Y-22614D01*
X31295Y-22724D01*
X31241Y-22826D01*
X31168Y-22915D01*
X31079Y-22989D01*
X30978Y-23043D01*
X30868Y-23077D01*
X30754Y-23089D01*
X30640Y-23079D01*
X30529Y-23047D01*
X30427Y-22993D01*
X30338Y-22921D01*
X30264Y-22833D01*
X30208Y-22732D01*
X30173Y-22622D01*
X30161Y-22508D01*
X30170Y-22394D01*
X30202Y-22283D01*
X30255Y-22181D01*
X30326Y-22091D01*
X30414Y-22016D01*
X30514Y-21960D01*
X30624Y-21924D01*
X30738Y-21911D01*
X30852Y-21919D01*
X30963Y-21950D01*
X31066Y-22002D01*
X31156Y-22073D01*
X31232Y-22160D01*
X31288Y-22261D01*
X31325Y-22370D01*
X31339Y-22484D01*
X31340Y-22500D01*
X30160Y-21910D02*
X31340Y-23090D01*
X31340Y-21910D02*
X30160Y-23090D01*
X31340Y-50000D02*
X31328Y-50114D01*
X31295Y-50224D01*
X31241Y-50326D01*
X31168Y-50415D01*
X31079Y-50489D01*
X30978Y-50543D01*
X30868Y-50577D01*
X30754Y-50589D01*
X30640Y-50579D01*
X30529Y-50547D01*
X30427Y-50493D01*
X30338Y-50421D01*
X30264Y-50333D01*
X30208Y-50232D01*
X30173Y-50122D01*
X30161Y-50008D01*
X30170Y-49894D01*
X30202Y-49783D01*
X30255Y-49681D01*
X30326Y-49591D01*
X30414Y-49516D01*
X30514Y-49460D01*
X30624Y-49424D01*
X30738Y-49411D01*
X30852Y-49419D01*
X30963Y-49450D01*
X31066Y-49502D01*
X31156Y-49573D01*
X31232Y-49660D01*
X31288Y-49761D01*
X31325Y-49870D01*
X31339Y-49984D01*
X31340Y-50000D01*
X30160Y-49410D02*
X31340Y-50590D01*
X31340Y-49410D02*
X30160Y-50590D01*
X42340Y-22500D02*
X42328Y-22614D01*
X42295Y-22724D01*
X42241Y-22826D01*
X42168Y-22915D01*
X42079Y-22989D01*
X41978Y-23043D01*
X41868Y-23077D01*
X41754Y-23089D01*
X41640Y-23079D01*
X41529Y-23047D01*
X41427Y-22993D01*
X41338Y-22921D01*
X41264Y-22833D01*
X41208Y-22732D01*
X41173Y-22622D01*
X41161Y-22508D01*
X41170Y-22394D01*
X41202Y-22283D01*
X41255Y-22181D01*
X41326Y-22091D01*
X41414Y-22016D01*
X41514Y-21960D01*
X41624Y-21924D01*
X41738Y-21911D01*
X41852Y-21919D01*
X41963Y-21950D01*
X42066Y-22002D01*
X42156Y-22073D01*
X42232Y-22160D01*
X42288Y-22261D01*
X42325Y-22370D01*
X42339Y-22484D01*
X42340Y-22500D01*
X41160Y-21910D02*
X42340Y-23090D01*
X42340Y-21910D02*
X41160Y-23090D01*
X42340Y-50000D02*
X42328Y-50114D01*
X42295Y-50224D01*
X42241Y-50326D01*
X42168Y-50415D01*
X42079Y-50489D01*
X41978Y-50543D01*
X41868Y-50577D01*
X41754Y-50589D01*
X41640Y-50579D01*
X41529Y-50547D01*
X41427Y-50493D01*
X41338Y-50421D01*
X41264Y-50333D01*
X41208Y-50232D01*
X41173Y-50122D01*
X41161Y-50008D01*
X41170Y-49894D01*
X41202Y-49783D01*
X41255Y-49681D01*
X41326Y-49591D01*
X41414Y-49516D01*
X41514Y-49460D01*
X41624Y-49424D01*
X41738Y-49411D01*
X41852Y-49419D01*
X41963Y-49450D01*
X42066Y-49502D01*
X42156Y-49573D01*
X42232Y-49660D01*
X42288Y-49761D01*
X42325Y-49870D01*
X42339Y-49984D01*
X42340Y-50000D01*
X41160Y-49410D02*
X42340Y-50590D01*
X42340Y-49410D02*
X41160Y-50590D01*
X50590Y-22500D02*
X50578Y-22614D01*
X50545Y-22724D01*
X50491Y-22826D01*
X50418Y-22915D01*
X50329Y-22989D01*
X50228Y-23043D01*
X50118Y-23077D01*
X50004Y-23089D01*
X49890Y-23079D01*
X49779Y-23047D01*
X49677Y-22993D01*
X49588Y-22921D01*
X49514Y-22833D01*
X49458Y-22732D01*
X49423Y-22622D01*
X49411Y-22508D01*
X49420Y-22394D01*
X49452Y-22283D01*
X49505Y-22181D01*
X49576Y-22091D01*
X49664Y-22016D01*
X49764Y-21960D01*
X49874Y-21924D01*
X49988Y-21911D01*
X50102Y-21919D01*
X50213Y-21950D01*
X50316Y-22002D01*
X50406Y-22073D01*
X50482Y-22160D01*
X50538Y-22261D01*
X50575Y-22370D01*
X50589Y-22484D01*
X50590Y-22500D01*
X49410Y-21910D02*
X50590Y-23090D01*
X50590Y-21910D02*
X49410Y-23090D01*
X50590Y-50000D02*
X50578Y-50114D01*
X50545Y-50224D01*
X50491Y-50326D01*
X50418Y-50415D01*
X50329Y-50489D01*
X50228Y-50543D01*
X50118Y-50577D01*
X50004Y-50589D01*
X49890Y-50579D01*
X49779Y-50547D01*
X49677Y-50493D01*
X49588Y-50421D01*
X49514Y-50333D01*
X49458Y-50232D01*
X49423Y-50122D01*
X49411Y-50008D01*
X49420Y-49894D01*
X49452Y-49783D01*
X49505Y-49681D01*
X49576Y-49591D01*
X49664Y-49516D01*
X49764Y-49460D01*
X49874Y-49424D01*
X49988Y-49411D01*
X50102Y-49419D01*
X50213Y-49450D01*
X50316Y-49502D01*
X50406Y-49573D01*
X50482Y-49660D01*
X50538Y-49761D01*
X50575Y-49870D01*
X50589Y-49984D01*
X50590Y-50000D01*
X49410Y-49410D02*
X50590Y-50590D01*
X50590Y-49410D02*
X49410Y-50590D01*
X21640Y-22500D02*
X21627Y-22624D01*
X21591Y-22743D01*
X21533Y-22854D01*
X21454Y-22950D01*
X21357Y-23030D01*
X21248Y-23089D01*
X21128Y-23126D01*
X21004Y-23139D01*
X20881Y-23128D01*
X20761Y-23093D01*
X20650Y-23035D01*
X20553Y-22957D01*
X20472Y-22861D01*
X20412Y-22752D01*
X20374Y-22633D01*
X20361Y-22508D01*
X20371Y-22385D01*
X20405Y-22265D01*
X20463Y-22154D01*
X20540Y-22056D01*
X20635Y-21975D01*
X20744Y-21914D01*
X20863Y-21875D01*
X20987Y-21861D01*
X21111Y-21870D01*
X21231Y-21904D01*
X21342Y-21960D01*
X21441Y-22037D01*
X21522Y-22132D01*
X21584Y-22240D01*
X21624Y-22359D01*
X21639Y-22483D01*
X21640Y-22500D01*
X20360Y-22500D02*
X21640Y-22500D01*
X25640Y-22500D02*
X25627Y-22624D01*
X25591Y-22743D01*
X25533Y-22854D01*
X25454Y-22950D01*
X25357Y-23030D01*
X25248Y-23089D01*
X25128Y-23126D01*
X25004Y-23139D01*
X24881Y-23128D01*
X24761Y-23093D01*
X24650Y-23035D01*
X24553Y-22957D01*
X24472Y-22861D01*
X24412Y-22752D01*
X24374Y-22633D01*
X24361Y-22508D01*
X24371Y-22385D01*
X24405Y-22265D01*
X24463Y-22154D01*
X24540Y-22056D01*
X24635Y-21975D01*
X24744Y-21914D01*
X24863Y-21875D01*
X24987Y-21861D01*
X25111Y-21870D01*
X25231Y-21904D01*
X25342Y-21960D01*
X25441Y-22037D01*
X25522Y-22132D01*
X25584Y-22240D01*
X25624Y-22359D01*
X25639Y-22483D01*
X25640Y-22500D01*
X24360Y-22500D02*
X25640Y-22500D01*
G54D12*
X14471Y-54014D02*
X14471Y-53214D01*
X14662Y-53214D01*
X14776Y-53252D01*
X14852Y-53328D01*
X14891Y-53404D01*
X14929Y-53557D01*
X14929Y-53671D01*
X14891Y-53823D01*
X14852Y-53900D01*
X14776Y-53976D01*
X14662Y-54014D01*
X14471Y-54014D01*
X15271Y-54014D02*
X15271Y-53480D01*
X15271Y-53633D02*
X15310Y-53557D01*
X15348Y-53519D01*
X15424Y-53480D01*
X15500Y-53480D01*
X15766Y-54014D02*
X15766Y-53480D01*
X15766Y-53214D02*
X15728Y-53252D01*
X15766Y-53290D01*
X15805Y-53252D01*
X15766Y-53214D01*
X15766Y-53290D01*
X16262Y-54014D02*
X16186Y-53976D01*
X16147Y-53900D01*
X16147Y-53214D01*
X16681Y-54014D02*
X16605Y-53976D01*
X16566Y-53900D01*
X16566Y-53214D01*
X17595Y-54014D02*
X17595Y-53214D01*
X17862Y-53785D01*
X18129Y-53214D01*
X18129Y-54014D01*
X18852Y-54014D02*
X18852Y-53595D01*
X18814Y-53519D01*
X18738Y-53480D01*
X18586Y-53480D01*
X18509Y-53519D01*
X18852Y-53976D02*
X18776Y-54014D01*
X18586Y-54014D01*
X18509Y-53976D01*
X18471Y-53900D01*
X18471Y-53823D01*
X18509Y-53747D01*
X18586Y-53709D01*
X18776Y-53709D01*
X18852Y-53671D01*
X19233Y-53480D02*
X19233Y-54280D01*
X19233Y-53519D02*
X19310Y-53480D01*
X19462Y-53480D01*
X19538Y-53519D01*
X19576Y-53557D01*
X19614Y-53633D01*
X19614Y-53861D01*
X19576Y-53938D01*
X19538Y-53976D01*
X19462Y-54014D01*
X19310Y-54014D01*
X19233Y-53976D01*
X19957Y-53938D02*
X19996Y-53976D01*
X19957Y-54014D01*
X19919Y-53976D01*
X19957Y-53938D01*
X19957Y-54014D01*
X19957Y-53519D02*
X19996Y-53557D01*
X19957Y-53595D01*
X19919Y-53557D01*
X19957Y-53519D01*
X19957Y-53595D01*
X13845Y-55252D02*
X14081Y-55488D01*
X14081Y-55252D02*
X13845Y-55488D01*
X14624Y-54894D02*
X14700Y-54894D01*
X14776Y-54932D01*
X14814Y-54970D01*
X14852Y-55046D01*
X14891Y-55199D01*
X14891Y-55389D01*
X14852Y-55541D01*
X14814Y-55618D01*
X14776Y-55656D01*
X14700Y-55694D01*
X14624Y-55694D01*
X14548Y-55656D01*
X14510Y-55618D01*
X14471Y-55541D01*
X14433Y-55389D01*
X14433Y-55199D01*
X14471Y-55046D01*
X14510Y-54970D01*
X14548Y-54932D01*
X14624Y-54894D01*
X15233Y-55618D02*
X15272Y-55656D01*
X15233Y-55694D01*
X15195Y-55656D01*
X15233Y-55618D01*
X15233Y-55694D01*
X15957Y-54894D02*
X15805Y-54894D01*
X15729Y-54932D01*
X15691Y-54970D01*
X15614Y-55084D01*
X15576Y-55237D01*
X15576Y-55541D01*
X15614Y-55618D01*
X15653Y-55656D01*
X15729Y-55694D01*
X15881Y-55694D01*
X15957Y-55656D01*
X15995Y-55618D01*
X16034Y-55541D01*
X16034Y-55351D01*
X15995Y-55275D01*
X15957Y-55237D01*
X15881Y-55199D01*
X15729Y-55199D01*
X15653Y-55237D01*
X15614Y-55275D01*
X15576Y-55351D01*
X16529Y-54894D02*
X16605Y-54894D01*
X16681Y-54932D01*
X16719Y-54970D01*
X16757Y-55046D01*
X16796Y-55199D01*
X16796Y-55389D01*
X16757Y-55541D01*
X16719Y-55618D01*
X16681Y-55656D01*
X16605Y-55694D01*
X16529Y-55694D01*
X16453Y-55656D01*
X16415Y-55618D01*
X16376Y-55541D01*
X16338Y-55389D01*
X16338Y-55199D01*
X16376Y-55046D01*
X16415Y-54970D01*
X16453Y-54932D01*
X16529Y-54894D01*
X17138Y-55694D02*
X17138Y-55160D01*
X17138Y-55237D02*
X17177Y-55199D01*
X17253Y-55160D01*
X17367Y-55160D01*
X17443Y-55199D01*
X17481Y-55275D01*
X17481Y-55694D01*
X17481Y-55275D02*
X17519Y-55199D01*
X17596Y-55160D01*
X17710Y-55160D01*
X17786Y-55199D01*
X17824Y-55275D01*
X17824Y-55694D01*
X18205Y-55694D02*
X18205Y-55160D01*
X18205Y-55237D02*
X18244Y-55199D01*
X18320Y-55160D01*
X18434Y-55160D01*
X18510Y-55199D01*
X18548Y-55275D01*
X18548Y-55694D01*
X18548Y-55275D02*
X18586Y-55199D01*
X18663Y-55160D01*
X18777Y-55160D01*
X18853Y-55199D01*
X18891Y-55275D01*
X18891Y-55694D01*
X20454Y-54856D02*
X19768Y-55884D01*
X21483Y-54894D02*
X21559Y-54894D01*
X21635Y-54932D01*
X21673Y-54970D01*
X21711Y-55046D01*
X21750Y-55199D01*
X21750Y-55389D01*
X21711Y-55541D01*
X21673Y-55618D01*
X21635Y-55656D01*
X21559Y-55694D01*
X21483Y-55694D01*
X21407Y-55656D01*
X21369Y-55618D01*
X21330Y-55541D01*
X21292Y-55389D01*
X21292Y-55199D01*
X21330Y-55046D01*
X21369Y-54970D01*
X21407Y-54932D01*
X21483Y-54894D01*
X22092Y-55618D02*
X22131Y-55656D01*
X22092Y-55694D01*
X22054Y-55656D01*
X22092Y-55618D01*
X22092Y-55694D01*
X22626Y-54894D02*
X22702Y-54894D01*
X22778Y-54932D01*
X22816Y-54970D01*
X22854Y-55046D01*
X22893Y-55199D01*
X22893Y-55389D01*
X22854Y-55541D01*
X22816Y-55618D01*
X22778Y-55656D01*
X22702Y-55694D01*
X22626Y-55694D01*
X22550Y-55656D01*
X22512Y-55618D01*
X22473Y-55541D01*
X22435Y-55389D01*
X22435Y-55199D01*
X22473Y-55046D01*
X22512Y-54970D01*
X22550Y-54932D01*
X22626Y-54894D01*
X23197Y-54970D02*
X23235Y-54932D01*
X23312Y-54894D01*
X23502Y-54894D01*
X23578Y-54932D01*
X23616Y-54970D01*
X23655Y-55046D01*
X23655Y-55122D01*
X23616Y-55237D01*
X23159Y-55694D01*
X23655Y-55694D01*
X24340Y-55160D02*
X24340Y-55694D01*
X24150Y-54856D02*
X23959Y-55427D01*
X24455Y-55427D01*
X24721Y-54894D02*
X24721Y-55046D01*
X25026Y-54894D02*
X25026Y-55046D01*
X26208Y-55999D02*
X26170Y-55960D01*
X26094Y-55846D01*
X26056Y-55770D01*
X26018Y-55656D01*
X25979Y-55465D01*
X25979Y-55313D01*
X26018Y-55122D01*
X26056Y-55008D01*
X26094Y-54932D01*
X26170Y-54818D01*
X26208Y-54780D01*
X26855Y-55160D02*
X26855Y-55694D01*
X26665Y-54856D02*
X26474Y-55427D01*
X26970Y-55427D01*
X27313Y-55694D02*
X27465Y-55694D01*
X27541Y-55656D01*
X27579Y-55618D01*
X27655Y-55503D01*
X27694Y-55351D01*
X27694Y-55046D01*
X27655Y-54970D01*
X27617Y-54932D01*
X27541Y-54894D01*
X27389Y-54894D01*
X27313Y-54932D01*
X27274Y-54970D01*
X27236Y-55046D01*
X27236Y-55237D01*
X27274Y-55313D01*
X27313Y-55351D01*
X27389Y-55389D01*
X27541Y-55389D01*
X27617Y-55351D01*
X27655Y-55313D01*
X27694Y-55237D01*
X28646Y-55694D02*
X28646Y-54894D01*
X28989Y-55694D02*
X28989Y-55275D01*
X28951Y-55199D01*
X28875Y-55160D01*
X28761Y-55160D01*
X28685Y-55199D01*
X28646Y-55237D01*
X29485Y-55694D02*
X29409Y-55656D01*
X29370Y-55618D01*
X29332Y-55541D01*
X29332Y-55313D01*
X29370Y-55237D01*
X29409Y-55199D01*
X29485Y-55160D01*
X29599Y-55160D01*
X29675Y-55199D01*
X29713Y-55237D01*
X29751Y-55313D01*
X29751Y-55541D01*
X29713Y-55618D01*
X29675Y-55656D01*
X29599Y-55694D01*
X29485Y-55694D01*
X30209Y-55694D02*
X30133Y-55656D01*
X30094Y-55580D01*
X30094Y-54894D01*
X30818Y-55656D02*
X30742Y-55694D01*
X30590Y-55694D01*
X30513Y-55656D01*
X30475Y-55580D01*
X30475Y-55275D01*
X30513Y-55199D01*
X30590Y-55160D01*
X30742Y-55160D01*
X30818Y-55199D01*
X30856Y-55275D01*
X30856Y-55351D01*
X30475Y-55427D01*
X31161Y-55656D02*
X31238Y-55694D01*
X31390Y-55694D01*
X31466Y-55656D01*
X31504Y-55580D01*
X31504Y-55541D01*
X31466Y-55465D01*
X31390Y-55427D01*
X31276Y-55427D01*
X31199Y-55389D01*
X31161Y-55313D01*
X31161Y-55275D01*
X31199Y-55199D01*
X31276Y-55160D01*
X31390Y-55160D01*
X31466Y-55199D01*
X31771Y-55999D02*
X31809Y-55960D01*
X31886Y-55846D01*
X31924Y-55770D01*
X31962Y-55656D01*
X32000Y-55465D01*
X32000Y-55313D01*
X31962Y-55122D01*
X31924Y-55008D01*
X31886Y-54932D01*
X31809Y-54818D01*
X31771Y-54780D01*
G54D10*
X14081Y-56425D02*
X14077Y-56456D01*
X14068Y-56485D01*
X14054Y-56513D01*
X14034Y-56537D01*
X14010Y-56557D01*
X13983Y-56572D01*
X13953Y-56581D01*
X13922Y-56584D01*
X13892Y-56582D01*
X13862Y-56573D01*
X13834Y-56558D01*
X13810Y-56539D01*
X13789Y-56515D01*
X13774Y-56488D01*
X13765Y-56458D01*
X13762Y-56427D01*
X13764Y-56397D01*
X13773Y-56367D01*
X13787Y-56339D01*
X13806Y-56314D01*
X13830Y-56294D01*
X13857Y-56279D01*
X13887Y-56269D01*
X13918Y-56266D01*
X13948Y-56268D01*
X13978Y-56276D01*
X14006Y-56290D01*
X14031Y-56310D01*
X14051Y-56333D01*
X14067Y-56360D01*
X14077Y-56390D01*
X14080Y-56421D01*
X14081Y-56425D01*
G54D12*
X14624Y-55949D02*
X14700Y-55949D01*
X14776Y-55987D01*
X14814Y-56025D01*
X14852Y-56101D01*
X14891Y-56254D01*
X14891Y-56444D01*
X14852Y-56596D01*
X14814Y-56673D01*
X14776Y-56711D01*
X14700Y-56749D01*
X14624Y-56749D01*
X14548Y-56711D01*
X14510Y-56673D01*
X14471Y-56596D01*
X14433Y-56444D01*
X14433Y-56254D01*
X14471Y-56101D01*
X14510Y-56025D01*
X14548Y-55987D01*
X14624Y-55949D01*
X15233Y-56673D02*
X15272Y-56711D01*
X15233Y-56749D01*
X15195Y-56711D01*
X15233Y-56673D01*
X15233Y-56749D01*
X15729Y-56292D02*
X15653Y-56254D01*
X15614Y-56215D01*
X15576Y-56139D01*
X15576Y-56101D01*
X15614Y-56025D01*
X15653Y-55987D01*
X15729Y-55949D01*
X15881Y-55949D01*
X15957Y-55987D01*
X15995Y-56025D01*
X16034Y-56101D01*
X16034Y-56139D01*
X15995Y-56215D01*
X15957Y-56254D01*
X15881Y-56292D01*
X15729Y-56292D01*
X15653Y-56330D01*
X15614Y-56368D01*
X15576Y-56444D01*
X15576Y-56596D01*
X15614Y-56673D01*
X15653Y-56711D01*
X15729Y-56749D01*
X15881Y-56749D01*
X15957Y-56711D01*
X15995Y-56673D01*
X16034Y-56596D01*
X16034Y-56444D01*
X15995Y-56368D01*
X15957Y-56330D01*
X15881Y-56292D01*
X16796Y-56749D02*
X16338Y-56749D01*
X16567Y-56749D02*
X16567Y-55949D01*
X16491Y-56063D01*
X16415Y-56139D01*
X16338Y-56177D01*
X17138Y-56749D02*
X17138Y-56215D01*
X17138Y-56292D02*
X17177Y-56254D01*
X17253Y-56215D01*
X17367Y-56215D01*
X17443Y-56254D01*
X17481Y-56330D01*
X17481Y-56749D01*
X17481Y-56330D02*
X17519Y-56254D01*
X17596Y-56215D01*
X17710Y-56215D01*
X17786Y-56254D01*
X17824Y-56330D01*
X17824Y-56749D01*
X18205Y-56749D02*
X18205Y-56215D01*
X18205Y-56292D02*
X18244Y-56254D01*
X18320Y-56215D01*
X18434Y-56215D01*
X18510Y-56254D01*
X18548Y-56330D01*
X18548Y-56749D01*
X18548Y-56330D02*
X18586Y-56254D01*
X18663Y-56215D01*
X18777Y-56215D01*
X18853Y-56254D01*
X18891Y-56330D01*
X18891Y-56749D01*
X20454Y-55911D02*
X19768Y-56939D01*
X21483Y-55949D02*
X21559Y-55949D01*
X21635Y-55987D01*
X21673Y-56025D01*
X21711Y-56101D01*
X21750Y-56254D01*
X21750Y-56444D01*
X21711Y-56596D01*
X21673Y-56673D01*
X21635Y-56711D01*
X21559Y-56749D01*
X21483Y-56749D01*
X21407Y-56711D01*
X21369Y-56673D01*
X21330Y-56596D01*
X21292Y-56444D01*
X21292Y-56254D01*
X21330Y-56101D01*
X21369Y-56025D01*
X21407Y-55987D01*
X21483Y-55949D01*
X22092Y-56673D02*
X22131Y-56711D01*
X22092Y-56749D01*
X22054Y-56711D01*
X22092Y-56673D01*
X22092Y-56749D01*
X22626Y-55949D02*
X22702Y-55949D01*
X22778Y-55987D01*
X22816Y-56025D01*
X22854Y-56101D01*
X22893Y-56254D01*
X22893Y-56444D01*
X22854Y-56596D01*
X22816Y-56673D01*
X22778Y-56711D01*
X22702Y-56749D01*
X22626Y-56749D01*
X22550Y-56711D01*
X22512Y-56673D01*
X22473Y-56596D01*
X22435Y-56444D01*
X22435Y-56254D01*
X22473Y-56101D01*
X22512Y-56025D01*
X22550Y-55987D01*
X22626Y-55949D01*
X23159Y-55949D02*
X23655Y-55949D01*
X23388Y-56254D01*
X23502Y-56254D01*
X23578Y-56292D01*
X23616Y-56330D01*
X23655Y-56406D01*
X23655Y-56596D01*
X23616Y-56673D01*
X23578Y-56711D01*
X23502Y-56749D01*
X23274Y-56749D01*
X23197Y-56711D01*
X23159Y-56673D01*
X23959Y-56025D02*
X23997Y-55987D01*
X24074Y-55949D01*
X24264Y-55949D01*
X24340Y-55987D01*
X24378Y-56025D01*
X24417Y-56101D01*
X24417Y-56177D01*
X24378Y-56292D01*
X23921Y-56749D01*
X24417Y-56749D01*
X24721Y-55949D02*
X24721Y-56101D01*
X25026Y-55949D02*
X25026Y-56101D01*
X26208Y-57054D02*
X26170Y-57015D01*
X26094Y-56901D01*
X26056Y-56825D01*
X26018Y-56711D01*
X25979Y-56520D01*
X25979Y-56368D01*
X26018Y-56177D01*
X26056Y-56063D01*
X26094Y-55987D01*
X26170Y-55873D01*
X26208Y-55835D01*
X26855Y-55949D02*
X26703Y-55949D01*
X26627Y-55987D01*
X26589Y-56025D01*
X26512Y-56139D01*
X26474Y-56292D01*
X26474Y-56596D01*
X26512Y-56673D01*
X26551Y-56711D01*
X26627Y-56749D01*
X26779Y-56749D01*
X26855Y-56711D01*
X26893Y-56673D01*
X26932Y-56596D01*
X26932Y-56406D01*
X26893Y-56330D01*
X26855Y-56292D01*
X26779Y-56254D01*
X26627Y-56254D01*
X26551Y-56292D01*
X26512Y-56330D01*
X26474Y-56406D01*
X27617Y-56215D02*
X27617Y-56749D01*
X27427Y-55911D02*
X27236Y-56482D01*
X27732Y-56482D01*
X28646Y-56749D02*
X28646Y-55949D01*
X28989Y-56749D02*
X28989Y-56330D01*
X28951Y-56254D01*
X28875Y-56215D01*
X28761Y-56215D01*
X28685Y-56254D01*
X28646Y-56292D01*
X29485Y-56749D02*
X29409Y-56711D01*
X29370Y-56673D01*
X29332Y-56596D01*
X29332Y-56368D01*
X29370Y-56292D01*
X29409Y-56254D01*
X29485Y-56215D01*
X29599Y-56215D01*
X29675Y-56254D01*
X29713Y-56292D01*
X29751Y-56368D01*
X29751Y-56596D01*
X29713Y-56673D01*
X29675Y-56711D01*
X29599Y-56749D01*
X29485Y-56749D01*
X30209Y-56749D02*
X30133Y-56711D01*
X30094Y-56635D01*
X30094Y-55949D01*
X30818Y-56711D02*
X30742Y-56749D01*
X30590Y-56749D01*
X30513Y-56711D01*
X30475Y-56635D01*
X30475Y-56330D01*
X30513Y-56254D01*
X30590Y-56215D01*
X30742Y-56215D01*
X30818Y-56254D01*
X30856Y-56330D01*
X30856Y-56406D01*
X30475Y-56482D01*
X31161Y-56711D02*
X31238Y-56749D01*
X31390Y-56749D01*
X31466Y-56711D01*
X31504Y-56635D01*
X31504Y-56596D01*
X31466Y-56520D01*
X31390Y-56482D01*
X31276Y-56482D01*
X31199Y-56444D01*
X31161Y-56368D01*
X31161Y-56330D01*
X31199Y-56254D01*
X31276Y-56215D01*
X31390Y-56215D01*
X31466Y-56254D01*
X31771Y-57054D02*
X31809Y-57015D01*
X31886Y-56901D01*
X31924Y-56825D01*
X31962Y-56711D01*
X32000Y-56520D01*
X32000Y-56368D01*
X31962Y-56177D01*
X31924Y-56063D01*
X31886Y-55987D01*
X31809Y-55873D01*
X31771Y-55835D01*
X13881Y-57280D02*
X13881Y-57680D01*
X14081Y-57480D02*
X13681Y-57480D01*
X14891Y-57804D02*
X14433Y-57804D01*
X14662Y-57804D02*
X14662Y-57004D01*
X14586Y-57118D01*
X14510Y-57194D01*
X14433Y-57232D01*
X15233Y-57728D02*
X15272Y-57766D01*
X15233Y-57804D01*
X15195Y-57766D01*
X15233Y-57728D01*
X15233Y-57804D01*
X15767Y-57004D02*
X15843Y-57004D01*
X15919Y-57042D01*
X15957Y-57080D01*
X15995Y-57156D01*
X16034Y-57309D01*
X16034Y-57499D01*
X15995Y-57651D01*
X15957Y-57728D01*
X15919Y-57766D01*
X15843Y-57804D01*
X15767Y-57804D01*
X15691Y-57766D01*
X15653Y-57728D01*
X15614Y-57651D01*
X15576Y-57499D01*
X15576Y-57309D01*
X15614Y-57156D01*
X15653Y-57080D01*
X15691Y-57042D01*
X15767Y-57004D01*
X16338Y-57080D02*
X16376Y-57042D01*
X16453Y-57004D01*
X16643Y-57004D01*
X16719Y-57042D01*
X16757Y-57080D01*
X16796Y-57156D01*
X16796Y-57232D01*
X16757Y-57347D01*
X16300Y-57804D01*
X16796Y-57804D01*
X17138Y-57804D02*
X17138Y-57270D01*
X17138Y-57347D02*
X17177Y-57309D01*
X17253Y-57270D01*
X17367Y-57270D01*
X17443Y-57309D01*
X17481Y-57385D01*
X17481Y-57804D01*
X17481Y-57385D02*
X17519Y-57309D01*
X17596Y-57270D01*
X17710Y-57270D01*
X17786Y-57309D01*
X17824Y-57385D01*
X17824Y-57804D01*
X18205Y-57804D02*
X18205Y-57270D01*
X18205Y-57347D02*
X18244Y-57309D01*
X18320Y-57270D01*
X18434Y-57270D01*
X18510Y-57309D01*
X18548Y-57385D01*
X18548Y-57804D01*
X18548Y-57385D02*
X18586Y-57309D01*
X18663Y-57270D01*
X18777Y-57270D01*
X18853Y-57309D01*
X18891Y-57385D01*
X18891Y-57804D01*
X20454Y-56966D02*
X19768Y-57994D01*
X21483Y-57004D02*
X21559Y-57004D01*
X21635Y-57042D01*
X21673Y-57080D01*
X21711Y-57156D01*
X21750Y-57309D01*
X21750Y-57499D01*
X21711Y-57651D01*
X21673Y-57728D01*
X21635Y-57766D01*
X21559Y-57804D01*
X21483Y-57804D01*
X21407Y-57766D01*
X21369Y-57728D01*
X21330Y-57651D01*
X21292Y-57499D01*
X21292Y-57309D01*
X21330Y-57156D01*
X21369Y-57080D01*
X21407Y-57042D01*
X21483Y-57004D01*
X22092Y-57728D02*
X22131Y-57766D01*
X22092Y-57804D01*
X22054Y-57766D01*
X22092Y-57728D01*
X22092Y-57804D01*
X22626Y-57004D02*
X22702Y-57004D01*
X22778Y-57042D01*
X22816Y-57080D01*
X22854Y-57156D01*
X22893Y-57309D01*
X22893Y-57499D01*
X22854Y-57651D01*
X22816Y-57728D01*
X22778Y-57766D01*
X22702Y-57804D01*
X22626Y-57804D01*
X22550Y-57766D01*
X22512Y-57728D01*
X22473Y-57651D01*
X22435Y-57499D01*
X22435Y-57309D01*
X22473Y-57156D01*
X22512Y-57080D01*
X22550Y-57042D01*
X22626Y-57004D01*
X23578Y-57270D02*
X23578Y-57804D01*
X23388Y-56966D02*
X23197Y-57537D01*
X23693Y-57537D01*
X24150Y-57004D02*
X24226Y-57004D01*
X24302Y-57042D01*
X24340Y-57080D01*
X24378Y-57156D01*
X24417Y-57309D01*
X24417Y-57499D01*
X24378Y-57651D01*
X24340Y-57728D01*
X24302Y-57766D01*
X24226Y-57804D01*
X24150Y-57804D01*
X24074Y-57766D01*
X24036Y-57728D01*
X23997Y-57651D01*
X23959Y-57499D01*
X23959Y-57309D01*
X23997Y-57156D01*
X24036Y-57080D01*
X24074Y-57042D01*
X24150Y-57004D01*
X24721Y-57004D02*
X24721Y-57156D01*
X25026Y-57004D02*
X25026Y-57156D01*
X26208Y-58109D02*
X26170Y-58070D01*
X26094Y-57956D01*
X26056Y-57880D01*
X26018Y-57766D01*
X25979Y-57575D01*
X25979Y-57423D01*
X26018Y-57232D01*
X26056Y-57118D01*
X26094Y-57042D01*
X26170Y-56928D01*
X26208Y-56890D01*
X26855Y-57270D02*
X26855Y-57804D01*
X26665Y-56966D02*
X26474Y-57537D01*
X26970Y-57537D01*
X27236Y-57080D02*
X27274Y-57042D01*
X27351Y-57004D01*
X27541Y-57004D01*
X27617Y-57042D01*
X27655Y-57080D01*
X27694Y-57156D01*
X27694Y-57232D01*
X27655Y-57347D01*
X27198Y-57804D01*
X27694Y-57804D01*
X28646Y-57804D02*
X28646Y-57004D01*
X28989Y-57804D02*
X28989Y-57385D01*
X28951Y-57309D01*
X28875Y-57270D01*
X28761Y-57270D01*
X28685Y-57309D01*
X28646Y-57347D01*
X29485Y-57804D02*
X29409Y-57766D01*
X29370Y-57728D01*
X29332Y-57651D01*
X29332Y-57423D01*
X29370Y-57347D01*
X29409Y-57309D01*
X29485Y-57270D01*
X29599Y-57270D01*
X29675Y-57309D01*
X29713Y-57347D01*
X29751Y-57423D01*
X29751Y-57651D01*
X29713Y-57728D01*
X29675Y-57766D01*
X29599Y-57804D01*
X29485Y-57804D01*
X30209Y-57804D02*
X30133Y-57766D01*
X30094Y-57690D01*
X30094Y-57004D01*
X30818Y-57766D02*
X30742Y-57804D01*
X30590Y-57804D01*
X30513Y-57766D01*
X30475Y-57690D01*
X30475Y-57385D01*
X30513Y-57309D01*
X30590Y-57270D01*
X30742Y-57270D01*
X30818Y-57309D01*
X30856Y-57385D01*
X30856Y-57461D01*
X30475Y-57537D01*
X31161Y-57766D02*
X31238Y-57804D01*
X31390Y-57804D01*
X31466Y-57766D01*
X31504Y-57690D01*
X31504Y-57651D01*
X31466Y-57575D01*
X31390Y-57537D01*
X31276Y-57537D01*
X31199Y-57499D01*
X31161Y-57423D01*
X31161Y-57385D01*
X31199Y-57309D01*
X31276Y-57270D01*
X31390Y-57270D01*
X31466Y-57309D01*
X31771Y-58109D02*
X31809Y-58070D01*
X31886Y-57956D01*
X31924Y-57880D01*
X31962Y-57766D01*
X32000Y-57575D01*
X32000Y-57423D01*
X31962Y-57232D01*
X31924Y-57118D01*
X31886Y-57042D01*
X31809Y-56928D01*
X31771Y-56890D01*
G54D10*
X14080Y-58535D02*
X14068Y-58649D01*
X14035Y-58759D01*
X13981Y-58861D01*
X13908Y-58950D01*
X13819Y-59024D01*
X13718Y-59078D01*
X13608Y-59112D01*
X13494Y-59124D01*
X13380Y-59114D01*
X13269Y-59082D01*
X13167Y-59028D01*
X13078Y-58956D01*
X13004Y-58868D01*
X12948Y-58767D01*
X12913Y-58657D01*
X12901Y-58543D01*
X12910Y-58429D01*
X12942Y-58318D01*
X12995Y-58216D01*
X13066Y-58126D01*
X13154Y-58051D01*
X13254Y-57995D01*
X13364Y-57959D01*
X13478Y-57946D01*
X13592Y-57954D01*
X13703Y-57985D01*
X13806Y-58037D01*
X13896Y-58108D01*
X13972Y-58195D01*
X14028Y-58296D01*
X14065Y-58405D01*
X14079Y-58519D01*
X14080Y-58535D01*
X12900Y-57945D02*
X14080Y-59125D01*
X14080Y-57945D02*
X12900Y-59125D01*
G54D12*
X14395Y-58059D02*
X14891Y-58059D01*
X14624Y-58364D01*
X14738Y-58364D01*
X14814Y-58402D01*
X14852Y-58440D01*
X14891Y-58516D01*
X14891Y-58706D01*
X14852Y-58783D01*
X14814Y-58821D01*
X14738Y-58859D01*
X14510Y-58859D01*
X14433Y-58821D01*
X14395Y-58783D01*
X15233Y-58783D02*
X15272Y-58821D01*
X15233Y-58859D01*
X15195Y-58821D01*
X15233Y-58783D01*
X15233Y-58859D01*
X15767Y-58059D02*
X15843Y-58059D01*
X15919Y-58097D01*
X15957Y-58135D01*
X15995Y-58211D01*
X16034Y-58364D01*
X16034Y-58554D01*
X15995Y-58706D01*
X15957Y-58783D01*
X15919Y-58821D01*
X15843Y-58859D01*
X15767Y-58859D01*
X15691Y-58821D01*
X15653Y-58783D01*
X15614Y-58706D01*
X15576Y-58554D01*
X15576Y-58364D01*
X15614Y-58211D01*
X15653Y-58135D01*
X15691Y-58097D01*
X15767Y-58059D01*
X16529Y-58059D02*
X16605Y-58059D01*
X16681Y-58097D01*
X16719Y-58135D01*
X16757Y-58211D01*
X16796Y-58364D01*
X16796Y-58554D01*
X16757Y-58706D01*
X16719Y-58783D01*
X16681Y-58821D01*
X16605Y-58859D01*
X16529Y-58859D01*
X16453Y-58821D01*
X16415Y-58783D01*
X16376Y-58706D01*
X16338Y-58554D01*
X16338Y-58364D01*
X16376Y-58211D01*
X16415Y-58135D01*
X16453Y-58097D01*
X16529Y-58059D01*
X17138Y-58859D02*
X17138Y-58325D01*
X17138Y-58402D02*
X17177Y-58364D01*
X17253Y-58325D01*
X17367Y-58325D01*
X17443Y-58364D01*
X17481Y-58440D01*
X17481Y-58859D01*
X17481Y-58440D02*
X17519Y-58364D01*
X17596Y-58325D01*
X17710Y-58325D01*
X17786Y-58364D01*
X17824Y-58440D01*
X17824Y-58859D01*
X18205Y-58859D02*
X18205Y-58325D01*
X18205Y-58402D02*
X18244Y-58364D01*
X18320Y-58325D01*
X18434Y-58325D01*
X18510Y-58364D01*
X18548Y-58440D01*
X18548Y-58859D01*
X18548Y-58440D02*
X18586Y-58364D01*
X18663Y-58325D01*
X18777Y-58325D01*
X18853Y-58364D01*
X18891Y-58440D01*
X18891Y-58859D01*
X20454Y-58021D02*
X19768Y-59049D01*
X21483Y-58059D02*
X21559Y-58059D01*
X21635Y-58097D01*
X21673Y-58135D01*
X21711Y-58211D01*
X21750Y-58364D01*
X21750Y-58554D01*
X21711Y-58706D01*
X21673Y-58783D01*
X21635Y-58821D01*
X21559Y-58859D01*
X21483Y-58859D01*
X21407Y-58821D01*
X21369Y-58783D01*
X21330Y-58706D01*
X21292Y-58554D01*
X21292Y-58364D01*
X21330Y-58211D01*
X21369Y-58135D01*
X21407Y-58097D01*
X21483Y-58059D01*
X22092Y-58783D02*
X22131Y-58821D01*
X22092Y-58859D01*
X22054Y-58821D01*
X22092Y-58783D01*
X22092Y-58859D01*
X22893Y-58859D02*
X22435Y-58859D01*
X22664Y-58859D02*
X22664Y-58059D01*
X22588Y-58173D01*
X22512Y-58249D01*
X22435Y-58287D01*
X23655Y-58859D02*
X23197Y-58859D01*
X23426Y-58859D02*
X23426Y-58059D01*
X23350Y-58173D01*
X23274Y-58249D01*
X23197Y-58287D01*
X24112Y-58402D02*
X24036Y-58364D01*
X23997Y-58325D01*
X23959Y-58249D01*
X23959Y-58211D01*
X23997Y-58135D01*
X24036Y-58097D01*
X24112Y-58059D01*
X24264Y-58059D01*
X24340Y-58097D01*
X24378Y-58135D01*
X24417Y-58211D01*
X24417Y-58249D01*
X24378Y-58325D01*
X24340Y-58364D01*
X24264Y-58402D01*
X24112Y-58402D01*
X24036Y-58440D01*
X23997Y-58478D01*
X23959Y-58554D01*
X23959Y-58706D01*
X23997Y-58783D01*
X24036Y-58821D01*
X24112Y-58859D01*
X24264Y-58859D01*
X24340Y-58821D01*
X24378Y-58783D01*
X24417Y-58706D01*
X24417Y-58554D01*
X24378Y-58478D01*
X24340Y-58440D01*
X24264Y-58402D01*
X24721Y-58059D02*
X24721Y-58211D01*
X25026Y-58059D02*
X25026Y-58211D01*
X26208Y-59164D02*
X26170Y-59125D01*
X26094Y-59011D01*
X26056Y-58935D01*
X26018Y-58821D01*
X25979Y-58630D01*
X25979Y-58478D01*
X26018Y-58287D01*
X26056Y-58173D01*
X26094Y-58097D01*
X26170Y-57983D01*
X26208Y-57945D01*
X26436Y-58059D02*
X26970Y-58059D01*
X26627Y-58859D01*
X27884Y-58859D02*
X27884Y-58059D01*
X28227Y-58859D02*
X28227Y-58440D01*
X28189Y-58364D01*
X28113Y-58325D01*
X27999Y-58325D01*
X27923Y-58364D01*
X27884Y-58402D01*
X28723Y-58859D02*
X28647Y-58821D01*
X28608Y-58783D01*
X28570Y-58706D01*
X28570Y-58478D01*
X28608Y-58402D01*
X28647Y-58364D01*
X28723Y-58325D01*
X28837Y-58325D01*
X28913Y-58364D01*
X28951Y-58402D01*
X28989Y-58478D01*
X28989Y-58706D01*
X28951Y-58783D01*
X28913Y-58821D01*
X28837Y-58859D01*
X28723Y-58859D01*
X29447Y-58859D02*
X29371Y-58821D01*
X29332Y-58745D01*
X29332Y-58059D01*
X30056Y-58821D02*
X29980Y-58859D01*
X29828Y-58859D01*
X29751Y-58821D01*
X29713Y-58745D01*
X29713Y-58440D01*
X29751Y-58364D01*
X29828Y-58325D01*
X29980Y-58325D01*
X30056Y-58364D01*
X30094Y-58440D01*
X30094Y-58516D01*
X29713Y-58592D01*
X30399Y-58821D02*
X30476Y-58859D01*
X30628Y-58859D01*
X30704Y-58821D01*
X30742Y-58745D01*
X30742Y-58706D01*
X30704Y-58630D01*
X30628Y-58592D01*
X30514Y-58592D01*
X30437Y-58554D01*
X30399Y-58478D01*
X30399Y-58440D01*
X30437Y-58364D01*
X30514Y-58325D01*
X30628Y-58325D01*
X30704Y-58364D01*
X31009Y-59164D02*
X31047Y-59125D01*
X31124Y-59011D01*
X31162Y-58935D01*
X31200Y-58821D01*
X31238Y-58630D01*
X31238Y-58478D01*
X31200Y-58287D01*
X31162Y-58173D01*
X31124Y-58097D01*
X31047Y-57983D01*
X31009Y-57945D01*
G54D10*
X14081Y-59996D02*
X14068Y-60120D01*
X14032Y-60239D01*
X13974Y-60350D01*
X13895Y-60446D01*
X13798Y-60526D01*
X13689Y-60585D01*
X13569Y-60622D01*
X13445Y-60635D01*
X13322Y-60624D01*
X13202Y-60589D01*
X13091Y-60531D01*
X12994Y-60453D01*
X12913Y-60357D01*
X12853Y-60248D01*
X12815Y-60129D01*
X12802Y-60004D01*
X12812Y-59881D01*
X12846Y-59761D01*
X12904Y-59650D01*
X12981Y-59552D01*
X13076Y-59471D01*
X13185Y-59410D01*
X13304Y-59371D01*
X13428Y-59357D01*
X13552Y-59366D01*
X13672Y-59400D01*
X13783Y-59456D01*
X13882Y-59533D01*
X13963Y-59628D01*
X14025Y-59736D01*
X14065Y-59855D01*
X14080Y-59979D01*
X14081Y-59996D01*
X12801Y-59996D02*
X14081Y-59996D01*
G54D12*
X14395Y-59520D02*
X14891Y-59520D01*
X14624Y-59825D01*
X14738Y-59825D01*
X14814Y-59863D01*
X14852Y-59901D01*
X14891Y-59977D01*
X14891Y-60167D01*
X14852Y-60244D01*
X14814Y-60282D01*
X14738Y-60320D01*
X14510Y-60320D01*
X14433Y-60282D01*
X14395Y-60244D01*
X15233Y-60244D02*
X15272Y-60282D01*
X15233Y-60320D01*
X15195Y-60282D01*
X15233Y-60244D01*
X15233Y-60320D01*
X15576Y-59596D02*
X15614Y-59558D01*
X15691Y-59520D01*
X15881Y-59520D01*
X15957Y-59558D01*
X15995Y-59596D01*
X16034Y-59672D01*
X16034Y-59748D01*
X15995Y-59863D01*
X15538Y-60320D01*
X16034Y-60320D01*
X16757Y-59520D02*
X16376Y-59520D01*
X16338Y-59901D01*
X16376Y-59863D01*
X16453Y-59825D01*
X16643Y-59825D01*
X16719Y-59863D01*
X16757Y-59901D01*
X16796Y-59977D01*
X16796Y-60167D01*
X16757Y-60244D01*
X16719Y-60282D01*
X16643Y-60320D01*
X16453Y-60320D01*
X16376Y-60282D01*
X16338Y-60244D01*
X17138Y-60320D02*
X17138Y-59786D01*
X17138Y-59863D02*
X17177Y-59825D01*
X17253Y-59786D01*
X17367Y-59786D01*
X17443Y-59825D01*
X17481Y-59901D01*
X17481Y-60320D01*
X17481Y-59901D02*
X17519Y-59825D01*
X17596Y-59786D01*
X17710Y-59786D01*
X17786Y-59825D01*
X17824Y-59901D01*
X17824Y-60320D01*
X18205Y-60320D02*
X18205Y-59786D01*
X18205Y-59863D02*
X18244Y-59825D01*
X18320Y-59786D01*
X18434Y-59786D01*
X18510Y-59825D01*
X18548Y-59901D01*
X18548Y-60320D01*
X18548Y-59901D02*
X18586Y-59825D01*
X18663Y-59786D01*
X18777Y-59786D01*
X18853Y-59825D01*
X18891Y-59901D01*
X18891Y-60320D01*
X20454Y-59482D02*
X19768Y-60510D01*
X21483Y-59520D02*
X21559Y-59520D01*
X21635Y-59558D01*
X21673Y-59596D01*
X21711Y-59672D01*
X21750Y-59825D01*
X21750Y-60015D01*
X21711Y-60167D01*
X21673Y-60244D01*
X21635Y-60282D01*
X21559Y-60320D01*
X21483Y-60320D01*
X21407Y-60282D01*
X21369Y-60244D01*
X21330Y-60167D01*
X21292Y-60015D01*
X21292Y-59825D01*
X21330Y-59672D01*
X21369Y-59596D01*
X21407Y-59558D01*
X21483Y-59520D01*
X22092Y-60244D02*
X22131Y-60282D01*
X22092Y-60320D01*
X22054Y-60282D01*
X22092Y-60244D01*
X22092Y-60320D01*
X22893Y-60320D02*
X22435Y-60320D01*
X22664Y-60320D02*
X22664Y-59520D01*
X22588Y-59634D01*
X22512Y-59710D01*
X22435Y-59748D01*
X23197Y-59596D02*
X23235Y-59558D01*
X23312Y-59520D01*
X23502Y-59520D01*
X23578Y-59558D01*
X23616Y-59596D01*
X23655Y-59672D01*
X23655Y-59748D01*
X23616Y-59863D01*
X23159Y-60320D01*
X23655Y-60320D01*
X24112Y-59863D02*
X24036Y-59825D01*
X23997Y-59786D01*
X23959Y-59710D01*
X23959Y-59672D01*
X23997Y-59596D01*
X24036Y-59558D01*
X24112Y-59520D01*
X24264Y-59520D01*
X24340Y-59558D01*
X24378Y-59596D01*
X24417Y-59672D01*
X24417Y-59710D01*
X24378Y-59786D01*
X24340Y-59825D01*
X24264Y-59863D01*
X24112Y-59863D01*
X24036Y-59901D01*
X23997Y-59939D01*
X23959Y-60015D01*
X23959Y-60167D01*
X23997Y-60244D01*
X24036Y-60282D01*
X24112Y-60320D01*
X24264Y-60320D01*
X24340Y-60282D01*
X24378Y-60244D01*
X24417Y-60167D01*
X24417Y-60015D01*
X24378Y-59939D01*
X24340Y-59901D01*
X24264Y-59863D01*
X24721Y-59520D02*
X24721Y-59672D01*
X25026Y-59520D02*
X25026Y-59672D01*
X26208Y-60625D02*
X26170Y-60586D01*
X26094Y-60472D01*
X26056Y-60396D01*
X26018Y-60282D01*
X25979Y-60091D01*
X25979Y-59939D01*
X26018Y-59748D01*
X26056Y-59634D01*
X26094Y-59558D01*
X26170Y-59444D01*
X26208Y-59406D01*
X26474Y-59596D02*
X26512Y-59558D01*
X26589Y-59520D01*
X26779Y-59520D01*
X26855Y-59558D01*
X26893Y-59596D01*
X26932Y-59672D01*
X26932Y-59748D01*
X26893Y-59863D01*
X26436Y-60320D01*
X26932Y-60320D01*
X27884Y-60320D02*
X27884Y-59520D01*
X28227Y-60320D02*
X28227Y-59901D01*
X28189Y-59825D01*
X28113Y-59786D01*
X27999Y-59786D01*
X27923Y-59825D01*
X27884Y-59863D01*
X28723Y-60320D02*
X28647Y-60282D01*
X28608Y-60244D01*
X28570Y-60167D01*
X28570Y-59939D01*
X28608Y-59863D01*
X28647Y-59825D01*
X28723Y-59786D01*
X28837Y-59786D01*
X28913Y-59825D01*
X28951Y-59863D01*
X28989Y-59939D01*
X28989Y-60167D01*
X28951Y-60244D01*
X28913Y-60282D01*
X28837Y-60320D01*
X28723Y-60320D01*
X29447Y-60320D02*
X29371Y-60282D01*
X29332Y-60206D01*
X29332Y-59520D01*
X30056Y-60282D02*
X29980Y-60320D01*
X29828Y-60320D01*
X29751Y-60282D01*
X29713Y-60206D01*
X29713Y-59901D01*
X29751Y-59825D01*
X29828Y-59786D01*
X29980Y-59786D01*
X30056Y-59825D01*
X30094Y-59901D01*
X30094Y-59977D01*
X29713Y-60053D01*
X30399Y-60282D02*
X30476Y-60320D01*
X30628Y-60320D01*
X30704Y-60282D01*
X30742Y-60206D01*
X30742Y-60167D01*
X30704Y-60091D01*
X30628Y-60053D01*
X30514Y-60053D01*
X30437Y-60015D01*
X30399Y-59939D01*
X30399Y-59901D01*
X30437Y-59825D01*
X30514Y-59786D01*
X30628Y-59786D01*
X30704Y-59825D01*
X31009Y-60625D02*
X31047Y-60586D01*
X31124Y-60472D01*
X31162Y-60396D01*
X31200Y-60282D01*
X31238Y-60091D01*
X31238Y-59939D01*
X31200Y-59748D01*
X31162Y-59634D01*
X31124Y-59558D01*
X31047Y-59444D01*
X31009Y-59406D01*
M02*
