G04 (created by PCBNEW (2012-01-19 BZR 3256)-stable) date 19/03/2013 15:27:18*
G01*
G70*
G90*
%MOIN*%
G04 Gerber Fmt 3.4, Leading zero omitted, Abs format*
%FSLAX34Y34*%
G04 APERTURE LIST*
%ADD10C,0.001000*%
%ADD11C,0.015000*%
%ADD12C,0.008000*%
G04 APERTURE END LIST*
G54D10*
G54D11*
X70000Y-46500D02*
X70000Y-21500D01*
X59500Y-52500D02*
X39000Y-52500D01*
X59500Y-46500D02*
X59500Y-52500D01*
X59500Y-46500D02*
X70000Y-46500D01*
X21500Y-52500D02*
X39000Y-52500D01*
X20000Y-51000D02*
X21500Y-52500D01*
X20000Y-21500D02*
X20000Y-51000D01*
X21500Y-20000D02*
X20000Y-21500D01*
X39000Y-20000D02*
X21500Y-20000D01*
X68500Y-20000D02*
X70000Y-21500D01*
X39000Y-20000D02*
X68500Y-20000D01*
G54D10*
X25375Y-40375D02*
X25625Y-40625D01*
X25625Y-40375D02*
X25375Y-40625D01*
X25625Y-42375D02*
X25875Y-42625D01*
X25875Y-42375D02*
X25625Y-42625D01*
X26625Y-24625D02*
X26875Y-24875D01*
X26875Y-24625D02*
X26625Y-24875D01*
X27125Y-41375D02*
X27375Y-41625D01*
X27375Y-41375D02*
X27125Y-41625D01*
X28125Y-44375D02*
X28375Y-44625D01*
X28375Y-44375D02*
X28125Y-44625D01*
X35125Y-48875D02*
X35375Y-49125D01*
X35375Y-48875D02*
X35125Y-49125D01*
X35125Y-50875D02*
X35375Y-51125D01*
X35375Y-50875D02*
X35125Y-51125D01*
X35625Y-26875D02*
X35875Y-27125D01*
X35875Y-26875D02*
X35625Y-27125D01*
X35625Y-33875D02*
X35875Y-34125D01*
X35875Y-33875D02*
X35625Y-34125D01*
X37875Y-48875D02*
X38125Y-49125D01*
X38125Y-48875D02*
X37875Y-49125D01*
X37875Y-50875D02*
X38125Y-51125D01*
X38125Y-50875D02*
X37875Y-51125D01*
X38375Y-28375D02*
X38625Y-28625D01*
X38625Y-28375D02*
X38375Y-28625D01*
X38375Y-30375D02*
X38625Y-30625D01*
X38625Y-30375D02*
X38375Y-30625D01*
X38375Y-35375D02*
X38625Y-35625D01*
X38625Y-35375D02*
X38375Y-35625D01*
X38375Y-37375D02*
X38625Y-37625D01*
X38625Y-37375D02*
X38375Y-37625D01*
X38375Y-42375D02*
X38625Y-42625D01*
X38625Y-42375D02*
X38375Y-42625D01*
X38375Y-44375D02*
X38625Y-44625D01*
X38625Y-44375D02*
X38375Y-44625D01*
X39875Y-28875D02*
X40125Y-29125D01*
X40125Y-28875D02*
X39875Y-29125D01*
X39875Y-29875D02*
X40125Y-30125D01*
X40125Y-29875D02*
X39875Y-30125D01*
X39875Y-35875D02*
X40125Y-36125D01*
X40125Y-35875D02*
X39875Y-36125D01*
X39875Y-36875D02*
X40125Y-37125D01*
X40125Y-36875D02*
X39875Y-37125D01*
X39875Y-42875D02*
X40125Y-43125D01*
X40125Y-42875D02*
X39875Y-43125D01*
X39875Y-43875D02*
X40125Y-44125D01*
X40125Y-43875D02*
X39875Y-44125D01*
X40125Y-39125D02*
X40375Y-39375D01*
X40375Y-39125D02*
X40125Y-39375D01*
X40875Y-32125D02*
X41125Y-32375D01*
X41125Y-32125D02*
X40875Y-32375D01*
X41625Y-49625D02*
X41875Y-49875D01*
X41875Y-49625D02*
X41625Y-49875D01*
X45375Y-49625D02*
X45625Y-49875D01*
X45625Y-49625D02*
X45375Y-49875D01*
X49375Y-23875D02*
X49625Y-24125D01*
X49625Y-23875D02*
X49375Y-24125D01*
X52375Y-23875D02*
X52625Y-24125D01*
X52625Y-23875D02*
X52375Y-24125D01*
X52375Y-29375D02*
X52625Y-29625D01*
X52625Y-29375D02*
X52375Y-29625D01*
X53125Y-48125D02*
X53375Y-48375D01*
X53375Y-48125D02*
X53125Y-48375D01*
X53125Y-50125D02*
X53375Y-50375D01*
X53375Y-50125D02*
X53125Y-50375D01*
X54375Y-23875D02*
X54625Y-24125D01*
X54625Y-23875D02*
X54375Y-24125D01*
X56125Y-25625D02*
X56375Y-25875D01*
X56375Y-25625D02*
X56125Y-25875D01*
X56125Y-27625D02*
X56375Y-27875D01*
X56375Y-27625D02*
X56125Y-27875D01*
X56375Y-48125D02*
X56625Y-48375D01*
X56625Y-48125D02*
X56375Y-48375D01*
X56375Y-50125D02*
X56625Y-50375D01*
X56625Y-50125D02*
X56375Y-50375D01*
X57625Y-47375D02*
X57875Y-47625D01*
X57875Y-47375D02*
X57625Y-47625D01*
X57875Y-26125D02*
X58125Y-26375D01*
X58125Y-26125D02*
X57875Y-26375D01*
X57875Y-27125D02*
X58125Y-27375D01*
X58125Y-27125D02*
X57875Y-27375D01*
X63625Y-34625D02*
X63875Y-34875D01*
X63875Y-34625D02*
X63625Y-34875D01*
X67125Y-44875D02*
X67375Y-45125D01*
X67375Y-44875D02*
X67125Y-45125D01*
X26660Y-37500D02*
X26656Y-37531D01*
X26647Y-37560D01*
X26633Y-37588D01*
X26613Y-37612D01*
X26589Y-37632D01*
X26562Y-37647D01*
X26532Y-37656D01*
X26501Y-37659D01*
X26471Y-37657D01*
X26441Y-37648D01*
X26413Y-37633D01*
X26389Y-37614D01*
X26368Y-37590D01*
X26353Y-37563D01*
X26344Y-37533D01*
X26341Y-37502D01*
X26343Y-37472D01*
X26352Y-37442D01*
X26366Y-37414D01*
X26385Y-37389D01*
X26409Y-37369D01*
X26436Y-37354D01*
X26466Y-37344D01*
X26497Y-37341D01*
X26527Y-37343D01*
X26557Y-37351D01*
X26585Y-37365D01*
X26610Y-37385D01*
X26630Y-37408D01*
X26646Y-37435D01*
X26656Y-37465D01*
X26659Y-37496D01*
X26660Y-37500D01*
X26660Y-40500D02*
X26656Y-40531D01*
X26647Y-40560D01*
X26633Y-40588D01*
X26613Y-40612D01*
X26589Y-40632D01*
X26562Y-40647D01*
X26532Y-40656D01*
X26501Y-40659D01*
X26471Y-40657D01*
X26441Y-40648D01*
X26413Y-40633D01*
X26389Y-40614D01*
X26368Y-40590D01*
X26353Y-40563D01*
X26344Y-40533D01*
X26341Y-40502D01*
X26343Y-40472D01*
X26352Y-40442D01*
X26366Y-40414D01*
X26385Y-40389D01*
X26409Y-40369D01*
X26436Y-40354D01*
X26466Y-40344D01*
X26497Y-40341D01*
X26527Y-40343D01*
X26557Y-40351D01*
X26585Y-40365D01*
X26610Y-40385D01*
X26630Y-40408D01*
X26646Y-40435D01*
X26656Y-40465D01*
X26659Y-40496D01*
X26660Y-40500D01*
X30160Y-28000D02*
X30156Y-28031D01*
X30147Y-28060D01*
X30133Y-28088D01*
X30113Y-28112D01*
X30089Y-28132D01*
X30062Y-28147D01*
X30032Y-28156D01*
X30001Y-28159D01*
X29971Y-28157D01*
X29941Y-28148D01*
X29913Y-28133D01*
X29889Y-28114D01*
X29868Y-28090D01*
X29853Y-28063D01*
X29844Y-28033D01*
X29841Y-28002D01*
X29843Y-27972D01*
X29852Y-27942D01*
X29866Y-27914D01*
X29885Y-27889D01*
X29909Y-27869D01*
X29936Y-27854D01*
X29966Y-27844D01*
X29997Y-27841D01*
X30027Y-27843D01*
X30057Y-27851D01*
X30085Y-27865D01*
X30110Y-27885D01*
X30130Y-27908D01*
X30146Y-27935D01*
X30156Y-27965D01*
X30159Y-27996D01*
X30160Y-28000D01*
X30160Y-29250D02*
X30156Y-29281D01*
X30147Y-29310D01*
X30133Y-29338D01*
X30113Y-29362D01*
X30089Y-29382D01*
X30062Y-29397D01*
X30032Y-29406D01*
X30001Y-29409D01*
X29971Y-29407D01*
X29941Y-29398D01*
X29913Y-29383D01*
X29889Y-29364D01*
X29868Y-29340D01*
X29853Y-29313D01*
X29844Y-29283D01*
X29841Y-29252D01*
X29843Y-29222D01*
X29852Y-29192D01*
X29866Y-29164D01*
X29885Y-29139D01*
X29909Y-29119D01*
X29936Y-29104D01*
X29966Y-29094D01*
X29997Y-29091D01*
X30027Y-29093D01*
X30057Y-29101D01*
X30085Y-29115D01*
X30110Y-29135D01*
X30130Y-29158D01*
X30146Y-29185D01*
X30156Y-29215D01*
X30159Y-29246D01*
X30160Y-29250D01*
X30160Y-35000D02*
X30156Y-35031D01*
X30147Y-35060D01*
X30133Y-35088D01*
X30113Y-35112D01*
X30089Y-35132D01*
X30062Y-35147D01*
X30032Y-35156D01*
X30001Y-35159D01*
X29971Y-35157D01*
X29941Y-35148D01*
X29913Y-35133D01*
X29889Y-35114D01*
X29868Y-35090D01*
X29853Y-35063D01*
X29844Y-35033D01*
X29841Y-35002D01*
X29843Y-34972D01*
X29852Y-34942D01*
X29866Y-34914D01*
X29885Y-34889D01*
X29909Y-34869D01*
X29936Y-34854D01*
X29966Y-34844D01*
X29997Y-34841D01*
X30027Y-34843D01*
X30057Y-34851D01*
X30085Y-34865D01*
X30110Y-34885D01*
X30130Y-34908D01*
X30146Y-34935D01*
X30156Y-34965D01*
X30159Y-34996D01*
X30160Y-35000D01*
X30160Y-36250D02*
X30156Y-36281D01*
X30147Y-36310D01*
X30133Y-36338D01*
X30113Y-36362D01*
X30089Y-36382D01*
X30062Y-36397D01*
X30032Y-36406D01*
X30001Y-36409D01*
X29971Y-36407D01*
X29941Y-36398D01*
X29913Y-36383D01*
X29889Y-36364D01*
X29868Y-36340D01*
X29853Y-36313D01*
X29844Y-36283D01*
X29841Y-36252D01*
X29843Y-36222D01*
X29852Y-36192D01*
X29866Y-36164D01*
X29885Y-36139D01*
X29909Y-36119D01*
X29936Y-36104D01*
X29966Y-36094D01*
X29997Y-36091D01*
X30027Y-36093D01*
X30057Y-36101D01*
X30085Y-36115D01*
X30110Y-36135D01*
X30130Y-36158D01*
X30146Y-36185D01*
X30156Y-36215D01*
X30159Y-36246D01*
X30160Y-36250D01*
X30160Y-42000D02*
X30156Y-42031D01*
X30147Y-42060D01*
X30133Y-42088D01*
X30113Y-42112D01*
X30089Y-42132D01*
X30062Y-42147D01*
X30032Y-42156D01*
X30001Y-42159D01*
X29971Y-42157D01*
X29941Y-42148D01*
X29913Y-42133D01*
X29889Y-42114D01*
X29868Y-42090D01*
X29853Y-42063D01*
X29844Y-42033D01*
X29841Y-42002D01*
X29843Y-41972D01*
X29852Y-41942D01*
X29866Y-41914D01*
X29885Y-41889D01*
X29909Y-41869D01*
X29936Y-41854D01*
X29966Y-41844D01*
X29997Y-41841D01*
X30027Y-41843D01*
X30057Y-41851D01*
X30085Y-41865D01*
X30110Y-41885D01*
X30130Y-41908D01*
X30146Y-41935D01*
X30156Y-41965D01*
X30159Y-41996D01*
X30160Y-42000D01*
X30160Y-43250D02*
X30156Y-43281D01*
X30147Y-43310D01*
X30133Y-43338D01*
X30113Y-43362D01*
X30089Y-43382D01*
X30062Y-43397D01*
X30032Y-43406D01*
X30001Y-43409D01*
X29971Y-43407D01*
X29941Y-43398D01*
X29913Y-43383D01*
X29889Y-43364D01*
X29868Y-43340D01*
X29853Y-43313D01*
X29844Y-43283D01*
X29841Y-43252D01*
X29843Y-43222D01*
X29852Y-43192D01*
X29866Y-43164D01*
X29885Y-43139D01*
X29909Y-43119D01*
X29936Y-43104D01*
X29966Y-43094D01*
X29997Y-43091D01*
X30027Y-43093D01*
X30057Y-43101D01*
X30085Y-43115D01*
X30110Y-43135D01*
X30130Y-43158D01*
X30146Y-43185D01*
X30156Y-43215D01*
X30159Y-43246D01*
X30160Y-43250D01*
X30160Y-44500D02*
X30156Y-44531D01*
X30147Y-44560D01*
X30133Y-44588D01*
X30113Y-44612D01*
X30089Y-44632D01*
X30062Y-44647D01*
X30032Y-44656D01*
X30001Y-44659D01*
X29971Y-44657D01*
X29941Y-44648D01*
X29913Y-44633D01*
X29889Y-44614D01*
X29868Y-44590D01*
X29853Y-44563D01*
X29844Y-44533D01*
X29841Y-44502D01*
X29843Y-44472D01*
X29852Y-44442D01*
X29866Y-44414D01*
X29885Y-44389D01*
X29909Y-44369D01*
X29936Y-44354D01*
X29966Y-44344D01*
X29997Y-44341D01*
X30027Y-44343D01*
X30057Y-44351D01*
X30085Y-44365D01*
X30110Y-44385D01*
X30130Y-44408D01*
X30146Y-44435D01*
X30156Y-44465D01*
X30159Y-44496D01*
X30160Y-44500D01*
X30410Y-49750D02*
X30406Y-49781D01*
X30397Y-49810D01*
X30383Y-49838D01*
X30363Y-49862D01*
X30339Y-49882D01*
X30312Y-49897D01*
X30282Y-49906D01*
X30251Y-49909D01*
X30221Y-49907D01*
X30191Y-49898D01*
X30163Y-49883D01*
X30139Y-49864D01*
X30118Y-49840D01*
X30103Y-49813D01*
X30094Y-49783D01*
X30091Y-49752D01*
X30093Y-49722D01*
X30102Y-49692D01*
X30116Y-49664D01*
X30135Y-49639D01*
X30159Y-49619D01*
X30186Y-49604D01*
X30216Y-49594D01*
X30247Y-49591D01*
X30277Y-49593D01*
X30307Y-49601D01*
X30335Y-49615D01*
X30360Y-49635D01*
X30380Y-49658D01*
X30396Y-49685D01*
X30406Y-49715D01*
X30409Y-49746D01*
X30410Y-49750D01*
X31410Y-49750D02*
X31406Y-49781D01*
X31397Y-49810D01*
X31383Y-49838D01*
X31363Y-49862D01*
X31339Y-49882D01*
X31312Y-49897D01*
X31282Y-49906D01*
X31251Y-49909D01*
X31221Y-49907D01*
X31191Y-49898D01*
X31163Y-49883D01*
X31139Y-49864D01*
X31118Y-49840D01*
X31103Y-49813D01*
X31094Y-49783D01*
X31091Y-49752D01*
X31093Y-49722D01*
X31102Y-49692D01*
X31116Y-49664D01*
X31135Y-49639D01*
X31159Y-49619D01*
X31186Y-49604D01*
X31216Y-49594D01*
X31247Y-49591D01*
X31277Y-49593D01*
X31307Y-49601D01*
X31335Y-49615D01*
X31360Y-49635D01*
X31380Y-49658D01*
X31396Y-49685D01*
X31406Y-49715D01*
X31409Y-49746D01*
X31410Y-49750D01*
X31410Y-50750D02*
X31406Y-50781D01*
X31397Y-50810D01*
X31383Y-50838D01*
X31363Y-50862D01*
X31339Y-50882D01*
X31312Y-50897D01*
X31282Y-50906D01*
X31251Y-50909D01*
X31221Y-50907D01*
X31191Y-50898D01*
X31163Y-50883D01*
X31139Y-50864D01*
X31118Y-50840D01*
X31103Y-50813D01*
X31094Y-50783D01*
X31091Y-50752D01*
X31093Y-50722D01*
X31102Y-50692D01*
X31116Y-50664D01*
X31135Y-50639D01*
X31159Y-50619D01*
X31186Y-50604D01*
X31216Y-50594D01*
X31247Y-50591D01*
X31277Y-50593D01*
X31307Y-50601D01*
X31335Y-50615D01*
X31360Y-50635D01*
X31380Y-50658D01*
X31396Y-50685D01*
X31406Y-50715D01*
X31409Y-50746D01*
X31410Y-50750D01*
X33160Y-28000D02*
X33156Y-28031D01*
X33147Y-28060D01*
X33133Y-28088D01*
X33113Y-28112D01*
X33089Y-28132D01*
X33062Y-28147D01*
X33032Y-28156D01*
X33001Y-28159D01*
X32971Y-28157D01*
X32941Y-28148D01*
X32913Y-28133D01*
X32889Y-28114D01*
X32868Y-28090D01*
X32853Y-28063D01*
X32844Y-28033D01*
X32841Y-28002D01*
X32843Y-27972D01*
X32852Y-27942D01*
X32866Y-27914D01*
X32885Y-27889D01*
X32909Y-27869D01*
X32936Y-27854D01*
X32966Y-27844D01*
X32997Y-27841D01*
X33027Y-27843D01*
X33057Y-27851D01*
X33085Y-27865D01*
X33110Y-27885D01*
X33130Y-27908D01*
X33146Y-27935D01*
X33156Y-27965D01*
X33159Y-27996D01*
X33160Y-28000D01*
X33160Y-29250D02*
X33156Y-29281D01*
X33147Y-29310D01*
X33133Y-29338D01*
X33113Y-29362D01*
X33089Y-29382D01*
X33062Y-29397D01*
X33032Y-29406D01*
X33001Y-29409D01*
X32971Y-29407D01*
X32941Y-29398D01*
X32913Y-29383D01*
X32889Y-29364D01*
X32868Y-29340D01*
X32853Y-29313D01*
X32844Y-29283D01*
X32841Y-29252D01*
X32843Y-29222D01*
X32852Y-29192D01*
X32866Y-29164D01*
X32885Y-29139D01*
X32909Y-29119D01*
X32936Y-29104D01*
X32966Y-29094D01*
X32997Y-29091D01*
X33027Y-29093D01*
X33057Y-29101D01*
X33085Y-29115D01*
X33110Y-29135D01*
X33130Y-29158D01*
X33146Y-29185D01*
X33156Y-29215D01*
X33159Y-29246D01*
X33160Y-29250D01*
X33160Y-35000D02*
X33156Y-35031D01*
X33147Y-35060D01*
X33133Y-35088D01*
X33113Y-35112D01*
X33089Y-35132D01*
X33062Y-35147D01*
X33032Y-35156D01*
X33001Y-35159D01*
X32971Y-35157D01*
X32941Y-35148D01*
X32913Y-35133D01*
X32889Y-35114D01*
X32868Y-35090D01*
X32853Y-35063D01*
X32844Y-35033D01*
X32841Y-35002D01*
X32843Y-34972D01*
X32852Y-34942D01*
X32866Y-34914D01*
X32885Y-34889D01*
X32909Y-34869D01*
X32936Y-34854D01*
X32966Y-34844D01*
X32997Y-34841D01*
X33027Y-34843D01*
X33057Y-34851D01*
X33085Y-34865D01*
X33110Y-34885D01*
X33130Y-34908D01*
X33146Y-34935D01*
X33156Y-34965D01*
X33159Y-34996D01*
X33160Y-35000D01*
X33160Y-36250D02*
X33156Y-36281D01*
X33147Y-36310D01*
X33133Y-36338D01*
X33113Y-36362D01*
X33089Y-36382D01*
X33062Y-36397D01*
X33032Y-36406D01*
X33001Y-36409D01*
X32971Y-36407D01*
X32941Y-36398D01*
X32913Y-36383D01*
X32889Y-36364D01*
X32868Y-36340D01*
X32853Y-36313D01*
X32844Y-36283D01*
X32841Y-36252D01*
X32843Y-36222D01*
X32852Y-36192D01*
X32866Y-36164D01*
X32885Y-36139D01*
X32909Y-36119D01*
X32936Y-36104D01*
X32966Y-36094D01*
X32997Y-36091D01*
X33027Y-36093D01*
X33057Y-36101D01*
X33085Y-36115D01*
X33110Y-36135D01*
X33130Y-36158D01*
X33146Y-36185D01*
X33156Y-36215D01*
X33159Y-36246D01*
X33160Y-36250D01*
X33160Y-42000D02*
X33156Y-42031D01*
X33147Y-42060D01*
X33133Y-42088D01*
X33113Y-42112D01*
X33089Y-42132D01*
X33062Y-42147D01*
X33032Y-42156D01*
X33001Y-42159D01*
X32971Y-42157D01*
X32941Y-42148D01*
X32913Y-42133D01*
X32889Y-42114D01*
X32868Y-42090D01*
X32853Y-42063D01*
X32844Y-42033D01*
X32841Y-42002D01*
X32843Y-41972D01*
X32852Y-41942D01*
X32866Y-41914D01*
X32885Y-41889D01*
X32909Y-41869D01*
X32936Y-41854D01*
X32966Y-41844D01*
X32997Y-41841D01*
X33027Y-41843D01*
X33057Y-41851D01*
X33085Y-41865D01*
X33110Y-41885D01*
X33130Y-41908D01*
X33146Y-41935D01*
X33156Y-41965D01*
X33159Y-41996D01*
X33160Y-42000D01*
X33160Y-43250D02*
X33156Y-43281D01*
X33147Y-43310D01*
X33133Y-43338D01*
X33113Y-43362D01*
X33089Y-43382D01*
X33062Y-43397D01*
X33032Y-43406D01*
X33001Y-43409D01*
X32971Y-43407D01*
X32941Y-43398D01*
X32913Y-43383D01*
X32889Y-43364D01*
X32868Y-43340D01*
X32853Y-43313D01*
X32844Y-43283D01*
X32841Y-43252D01*
X32843Y-43222D01*
X32852Y-43192D01*
X32866Y-43164D01*
X32885Y-43139D01*
X32909Y-43119D01*
X32936Y-43104D01*
X32966Y-43094D01*
X32997Y-43091D01*
X33027Y-43093D01*
X33057Y-43101D01*
X33085Y-43115D01*
X33110Y-43135D01*
X33130Y-43158D01*
X33146Y-43185D01*
X33156Y-43215D01*
X33159Y-43246D01*
X33160Y-43250D01*
X33160Y-44500D02*
X33156Y-44531D01*
X33147Y-44560D01*
X33133Y-44588D01*
X33113Y-44612D01*
X33089Y-44632D01*
X33062Y-44647D01*
X33032Y-44656D01*
X33001Y-44659D01*
X32971Y-44657D01*
X32941Y-44648D01*
X32913Y-44633D01*
X32889Y-44614D01*
X32868Y-44590D01*
X32853Y-44563D01*
X32844Y-44533D01*
X32841Y-44502D01*
X32843Y-44472D01*
X32852Y-44442D01*
X32866Y-44414D01*
X32885Y-44389D01*
X32909Y-44369D01*
X32936Y-44354D01*
X32966Y-44344D01*
X32997Y-44341D01*
X33027Y-44343D01*
X33057Y-44351D01*
X33085Y-44365D01*
X33110Y-44385D01*
X33130Y-44408D01*
X33146Y-44435D01*
X33156Y-44465D01*
X33159Y-44496D01*
X33160Y-44500D01*
X34410Y-28000D02*
X34406Y-28031D01*
X34397Y-28060D01*
X34383Y-28088D01*
X34363Y-28112D01*
X34339Y-28132D01*
X34312Y-28147D01*
X34282Y-28156D01*
X34251Y-28159D01*
X34221Y-28157D01*
X34191Y-28148D01*
X34163Y-28133D01*
X34139Y-28114D01*
X34118Y-28090D01*
X34103Y-28063D01*
X34094Y-28033D01*
X34091Y-28002D01*
X34093Y-27972D01*
X34102Y-27942D01*
X34116Y-27914D01*
X34135Y-27889D01*
X34159Y-27869D01*
X34186Y-27854D01*
X34216Y-27844D01*
X34247Y-27841D01*
X34277Y-27843D01*
X34307Y-27851D01*
X34335Y-27865D01*
X34360Y-27885D01*
X34380Y-27908D01*
X34396Y-27935D01*
X34406Y-27965D01*
X34409Y-27996D01*
X34410Y-28000D01*
X34410Y-31000D02*
X34406Y-31031D01*
X34397Y-31060D01*
X34383Y-31088D01*
X34363Y-31112D01*
X34339Y-31132D01*
X34312Y-31147D01*
X34282Y-31156D01*
X34251Y-31159D01*
X34221Y-31157D01*
X34191Y-31148D01*
X34163Y-31133D01*
X34139Y-31114D01*
X34118Y-31090D01*
X34103Y-31063D01*
X34094Y-31033D01*
X34091Y-31002D01*
X34093Y-30972D01*
X34102Y-30942D01*
X34116Y-30914D01*
X34135Y-30889D01*
X34159Y-30869D01*
X34186Y-30854D01*
X34216Y-30844D01*
X34247Y-30841D01*
X34277Y-30843D01*
X34307Y-30851D01*
X34335Y-30865D01*
X34360Y-30885D01*
X34380Y-30908D01*
X34396Y-30935D01*
X34406Y-30965D01*
X34409Y-30996D01*
X34410Y-31000D01*
X34410Y-35000D02*
X34406Y-35031D01*
X34397Y-35060D01*
X34383Y-35088D01*
X34363Y-35112D01*
X34339Y-35132D01*
X34312Y-35147D01*
X34282Y-35156D01*
X34251Y-35159D01*
X34221Y-35157D01*
X34191Y-35148D01*
X34163Y-35133D01*
X34139Y-35114D01*
X34118Y-35090D01*
X34103Y-35063D01*
X34094Y-35033D01*
X34091Y-35002D01*
X34093Y-34972D01*
X34102Y-34942D01*
X34116Y-34914D01*
X34135Y-34889D01*
X34159Y-34869D01*
X34186Y-34854D01*
X34216Y-34844D01*
X34247Y-34841D01*
X34277Y-34843D01*
X34307Y-34851D01*
X34335Y-34865D01*
X34360Y-34885D01*
X34380Y-34908D01*
X34396Y-34935D01*
X34406Y-34965D01*
X34409Y-34996D01*
X34410Y-35000D01*
X34410Y-38000D02*
X34406Y-38031D01*
X34397Y-38060D01*
X34383Y-38088D01*
X34363Y-38112D01*
X34339Y-38132D01*
X34312Y-38147D01*
X34282Y-38156D01*
X34251Y-38159D01*
X34221Y-38157D01*
X34191Y-38148D01*
X34163Y-38133D01*
X34139Y-38114D01*
X34118Y-38090D01*
X34103Y-38063D01*
X34094Y-38033D01*
X34091Y-38002D01*
X34093Y-37972D01*
X34102Y-37942D01*
X34116Y-37914D01*
X34135Y-37889D01*
X34159Y-37869D01*
X34186Y-37854D01*
X34216Y-37844D01*
X34247Y-37841D01*
X34277Y-37843D01*
X34307Y-37851D01*
X34335Y-37865D01*
X34360Y-37885D01*
X34380Y-37908D01*
X34396Y-37935D01*
X34406Y-37965D01*
X34409Y-37996D01*
X34410Y-38000D01*
X34410Y-42000D02*
X34406Y-42031D01*
X34397Y-42060D01*
X34383Y-42088D01*
X34363Y-42112D01*
X34339Y-42132D01*
X34312Y-42147D01*
X34282Y-42156D01*
X34251Y-42159D01*
X34221Y-42157D01*
X34191Y-42148D01*
X34163Y-42133D01*
X34139Y-42114D01*
X34118Y-42090D01*
X34103Y-42063D01*
X34094Y-42033D01*
X34091Y-42002D01*
X34093Y-41972D01*
X34102Y-41942D01*
X34116Y-41914D01*
X34135Y-41889D01*
X34159Y-41869D01*
X34186Y-41854D01*
X34216Y-41844D01*
X34247Y-41841D01*
X34277Y-41843D01*
X34307Y-41851D01*
X34335Y-41865D01*
X34360Y-41885D01*
X34380Y-41908D01*
X34396Y-41935D01*
X34406Y-41965D01*
X34409Y-41996D01*
X34410Y-42000D01*
X34410Y-45000D02*
X34406Y-45031D01*
X34397Y-45060D01*
X34383Y-45088D01*
X34363Y-45112D01*
X34339Y-45132D01*
X34312Y-45147D01*
X34282Y-45156D01*
X34251Y-45159D01*
X34221Y-45157D01*
X34191Y-45148D01*
X34163Y-45133D01*
X34139Y-45114D01*
X34118Y-45090D01*
X34103Y-45063D01*
X34094Y-45033D01*
X34091Y-45002D01*
X34093Y-44972D01*
X34102Y-44942D01*
X34116Y-44914D01*
X34135Y-44889D01*
X34159Y-44869D01*
X34186Y-44854D01*
X34216Y-44844D01*
X34247Y-44841D01*
X34277Y-44843D01*
X34307Y-44851D01*
X34335Y-44865D01*
X34360Y-44885D01*
X34380Y-44908D01*
X34396Y-44935D01*
X34406Y-44965D01*
X34409Y-44996D01*
X34410Y-45000D01*
X35410Y-28000D02*
X35406Y-28031D01*
X35397Y-28060D01*
X35383Y-28088D01*
X35363Y-28112D01*
X35339Y-28132D01*
X35312Y-28147D01*
X35282Y-28156D01*
X35251Y-28159D01*
X35221Y-28157D01*
X35191Y-28148D01*
X35163Y-28133D01*
X35139Y-28114D01*
X35118Y-28090D01*
X35103Y-28063D01*
X35094Y-28033D01*
X35091Y-28002D01*
X35093Y-27972D01*
X35102Y-27942D01*
X35116Y-27914D01*
X35135Y-27889D01*
X35159Y-27869D01*
X35186Y-27854D01*
X35216Y-27844D01*
X35247Y-27841D01*
X35277Y-27843D01*
X35307Y-27851D01*
X35335Y-27865D01*
X35360Y-27885D01*
X35380Y-27908D01*
X35396Y-27935D01*
X35406Y-27965D01*
X35409Y-27996D01*
X35410Y-28000D01*
X35410Y-31000D02*
X35406Y-31031D01*
X35397Y-31060D01*
X35383Y-31088D01*
X35363Y-31112D01*
X35339Y-31132D01*
X35312Y-31147D01*
X35282Y-31156D01*
X35251Y-31159D01*
X35221Y-31157D01*
X35191Y-31148D01*
X35163Y-31133D01*
X35139Y-31114D01*
X35118Y-31090D01*
X35103Y-31063D01*
X35094Y-31033D01*
X35091Y-31002D01*
X35093Y-30972D01*
X35102Y-30942D01*
X35116Y-30914D01*
X35135Y-30889D01*
X35159Y-30869D01*
X35186Y-30854D01*
X35216Y-30844D01*
X35247Y-30841D01*
X35277Y-30843D01*
X35307Y-30851D01*
X35335Y-30865D01*
X35360Y-30885D01*
X35380Y-30908D01*
X35396Y-30935D01*
X35406Y-30965D01*
X35409Y-30996D01*
X35410Y-31000D01*
X35410Y-32250D02*
X35406Y-32281D01*
X35397Y-32310D01*
X35383Y-32338D01*
X35363Y-32362D01*
X35339Y-32382D01*
X35312Y-32397D01*
X35282Y-32406D01*
X35251Y-32409D01*
X35221Y-32407D01*
X35191Y-32398D01*
X35163Y-32383D01*
X35139Y-32364D01*
X35118Y-32340D01*
X35103Y-32313D01*
X35094Y-32283D01*
X35091Y-32252D01*
X35093Y-32222D01*
X35102Y-32192D01*
X35116Y-32164D01*
X35135Y-32139D01*
X35159Y-32119D01*
X35186Y-32104D01*
X35216Y-32094D01*
X35247Y-32091D01*
X35277Y-32093D01*
X35307Y-32101D01*
X35335Y-32115D01*
X35360Y-32135D01*
X35380Y-32158D01*
X35396Y-32185D01*
X35406Y-32215D01*
X35409Y-32246D01*
X35410Y-32250D01*
X35410Y-35000D02*
X35406Y-35031D01*
X35397Y-35060D01*
X35383Y-35088D01*
X35363Y-35112D01*
X35339Y-35132D01*
X35312Y-35147D01*
X35282Y-35156D01*
X35251Y-35159D01*
X35221Y-35157D01*
X35191Y-35148D01*
X35163Y-35133D01*
X35139Y-35114D01*
X35118Y-35090D01*
X35103Y-35063D01*
X35094Y-35033D01*
X35091Y-35002D01*
X35093Y-34972D01*
X35102Y-34942D01*
X35116Y-34914D01*
X35135Y-34889D01*
X35159Y-34869D01*
X35186Y-34854D01*
X35216Y-34844D01*
X35247Y-34841D01*
X35277Y-34843D01*
X35307Y-34851D01*
X35335Y-34865D01*
X35360Y-34885D01*
X35380Y-34908D01*
X35396Y-34935D01*
X35406Y-34965D01*
X35409Y-34996D01*
X35410Y-35000D01*
X35410Y-38000D02*
X35406Y-38031D01*
X35397Y-38060D01*
X35383Y-38088D01*
X35363Y-38112D01*
X35339Y-38132D01*
X35312Y-38147D01*
X35282Y-38156D01*
X35251Y-38159D01*
X35221Y-38157D01*
X35191Y-38148D01*
X35163Y-38133D01*
X35139Y-38114D01*
X35118Y-38090D01*
X35103Y-38063D01*
X35094Y-38033D01*
X35091Y-38002D01*
X35093Y-37972D01*
X35102Y-37942D01*
X35116Y-37914D01*
X35135Y-37889D01*
X35159Y-37869D01*
X35186Y-37854D01*
X35216Y-37844D01*
X35247Y-37841D01*
X35277Y-37843D01*
X35307Y-37851D01*
X35335Y-37865D01*
X35360Y-37885D01*
X35380Y-37908D01*
X35396Y-37935D01*
X35406Y-37965D01*
X35409Y-37996D01*
X35410Y-38000D01*
X35410Y-39250D02*
X35406Y-39281D01*
X35397Y-39310D01*
X35383Y-39338D01*
X35363Y-39362D01*
X35339Y-39382D01*
X35312Y-39397D01*
X35282Y-39406D01*
X35251Y-39409D01*
X35221Y-39407D01*
X35191Y-39398D01*
X35163Y-39383D01*
X35139Y-39364D01*
X35118Y-39340D01*
X35103Y-39313D01*
X35094Y-39283D01*
X35091Y-39252D01*
X35093Y-39222D01*
X35102Y-39192D01*
X35116Y-39164D01*
X35135Y-39139D01*
X35159Y-39119D01*
X35186Y-39104D01*
X35216Y-39094D01*
X35247Y-39091D01*
X35277Y-39093D01*
X35307Y-39101D01*
X35335Y-39115D01*
X35360Y-39135D01*
X35380Y-39158D01*
X35396Y-39185D01*
X35406Y-39215D01*
X35409Y-39246D01*
X35410Y-39250D01*
X35410Y-42000D02*
X35406Y-42031D01*
X35397Y-42060D01*
X35383Y-42088D01*
X35363Y-42112D01*
X35339Y-42132D01*
X35312Y-42147D01*
X35282Y-42156D01*
X35251Y-42159D01*
X35221Y-42157D01*
X35191Y-42148D01*
X35163Y-42133D01*
X35139Y-42114D01*
X35118Y-42090D01*
X35103Y-42063D01*
X35094Y-42033D01*
X35091Y-42002D01*
X35093Y-41972D01*
X35102Y-41942D01*
X35116Y-41914D01*
X35135Y-41889D01*
X35159Y-41869D01*
X35186Y-41854D01*
X35216Y-41844D01*
X35247Y-41841D01*
X35277Y-41843D01*
X35307Y-41851D01*
X35335Y-41865D01*
X35360Y-41885D01*
X35380Y-41908D01*
X35396Y-41935D01*
X35406Y-41965D01*
X35409Y-41996D01*
X35410Y-42000D01*
X35410Y-45000D02*
X35406Y-45031D01*
X35397Y-45060D01*
X35383Y-45088D01*
X35363Y-45112D01*
X35339Y-45132D01*
X35312Y-45147D01*
X35282Y-45156D01*
X35251Y-45159D01*
X35221Y-45157D01*
X35191Y-45148D01*
X35163Y-45133D01*
X35139Y-45114D01*
X35118Y-45090D01*
X35103Y-45063D01*
X35094Y-45033D01*
X35091Y-45002D01*
X35093Y-44972D01*
X35102Y-44942D01*
X35116Y-44914D01*
X35135Y-44889D01*
X35159Y-44869D01*
X35186Y-44854D01*
X35216Y-44844D01*
X35247Y-44841D01*
X35277Y-44843D01*
X35307Y-44851D01*
X35335Y-44865D01*
X35360Y-44885D01*
X35380Y-44908D01*
X35396Y-44935D01*
X35406Y-44965D01*
X35409Y-44996D01*
X35410Y-45000D01*
X35410Y-46250D02*
X35406Y-46281D01*
X35397Y-46310D01*
X35383Y-46338D01*
X35363Y-46362D01*
X35339Y-46382D01*
X35312Y-46397D01*
X35282Y-46406D01*
X35251Y-46409D01*
X35221Y-46407D01*
X35191Y-46398D01*
X35163Y-46383D01*
X35139Y-46364D01*
X35118Y-46340D01*
X35103Y-46313D01*
X35094Y-46283D01*
X35091Y-46252D01*
X35093Y-46222D01*
X35102Y-46192D01*
X35116Y-46164D01*
X35135Y-46139D01*
X35159Y-46119D01*
X35186Y-46104D01*
X35216Y-46094D01*
X35247Y-46091D01*
X35277Y-46093D01*
X35307Y-46101D01*
X35335Y-46115D01*
X35360Y-46135D01*
X35380Y-46158D01*
X35396Y-46185D01*
X35406Y-46215D01*
X35409Y-46246D01*
X35410Y-46250D01*
X36410Y-28000D02*
X36406Y-28031D01*
X36397Y-28060D01*
X36383Y-28088D01*
X36363Y-28112D01*
X36339Y-28132D01*
X36312Y-28147D01*
X36282Y-28156D01*
X36251Y-28159D01*
X36221Y-28157D01*
X36191Y-28148D01*
X36163Y-28133D01*
X36139Y-28114D01*
X36118Y-28090D01*
X36103Y-28063D01*
X36094Y-28033D01*
X36091Y-28002D01*
X36093Y-27972D01*
X36102Y-27942D01*
X36116Y-27914D01*
X36135Y-27889D01*
X36159Y-27869D01*
X36186Y-27854D01*
X36216Y-27844D01*
X36247Y-27841D01*
X36277Y-27843D01*
X36307Y-27851D01*
X36335Y-27865D01*
X36360Y-27885D01*
X36380Y-27908D01*
X36396Y-27935D01*
X36406Y-27965D01*
X36409Y-27996D01*
X36410Y-28000D01*
X36410Y-31000D02*
X36406Y-31031D01*
X36397Y-31060D01*
X36383Y-31088D01*
X36363Y-31112D01*
X36339Y-31132D01*
X36312Y-31147D01*
X36282Y-31156D01*
X36251Y-31159D01*
X36221Y-31157D01*
X36191Y-31148D01*
X36163Y-31133D01*
X36139Y-31114D01*
X36118Y-31090D01*
X36103Y-31063D01*
X36094Y-31033D01*
X36091Y-31002D01*
X36093Y-30972D01*
X36102Y-30942D01*
X36116Y-30914D01*
X36135Y-30889D01*
X36159Y-30869D01*
X36186Y-30854D01*
X36216Y-30844D01*
X36247Y-30841D01*
X36277Y-30843D01*
X36307Y-30851D01*
X36335Y-30865D01*
X36360Y-30885D01*
X36380Y-30908D01*
X36396Y-30935D01*
X36406Y-30965D01*
X36409Y-30996D01*
X36410Y-31000D01*
X36410Y-35000D02*
X36406Y-35031D01*
X36397Y-35060D01*
X36383Y-35088D01*
X36363Y-35112D01*
X36339Y-35132D01*
X36312Y-35147D01*
X36282Y-35156D01*
X36251Y-35159D01*
X36221Y-35157D01*
X36191Y-35148D01*
X36163Y-35133D01*
X36139Y-35114D01*
X36118Y-35090D01*
X36103Y-35063D01*
X36094Y-35033D01*
X36091Y-35002D01*
X36093Y-34972D01*
X36102Y-34942D01*
X36116Y-34914D01*
X36135Y-34889D01*
X36159Y-34869D01*
X36186Y-34854D01*
X36216Y-34844D01*
X36247Y-34841D01*
X36277Y-34843D01*
X36307Y-34851D01*
X36335Y-34865D01*
X36360Y-34885D01*
X36380Y-34908D01*
X36396Y-34935D01*
X36406Y-34965D01*
X36409Y-34996D01*
X36410Y-35000D01*
X36410Y-38000D02*
X36406Y-38031D01*
X36397Y-38060D01*
X36383Y-38088D01*
X36363Y-38112D01*
X36339Y-38132D01*
X36312Y-38147D01*
X36282Y-38156D01*
X36251Y-38159D01*
X36221Y-38157D01*
X36191Y-38148D01*
X36163Y-38133D01*
X36139Y-38114D01*
X36118Y-38090D01*
X36103Y-38063D01*
X36094Y-38033D01*
X36091Y-38002D01*
X36093Y-37972D01*
X36102Y-37942D01*
X36116Y-37914D01*
X36135Y-37889D01*
X36159Y-37869D01*
X36186Y-37854D01*
X36216Y-37844D01*
X36247Y-37841D01*
X36277Y-37843D01*
X36307Y-37851D01*
X36335Y-37865D01*
X36360Y-37885D01*
X36380Y-37908D01*
X36396Y-37935D01*
X36406Y-37965D01*
X36409Y-37996D01*
X36410Y-38000D01*
X36410Y-42000D02*
X36406Y-42031D01*
X36397Y-42060D01*
X36383Y-42088D01*
X36363Y-42112D01*
X36339Y-42132D01*
X36312Y-42147D01*
X36282Y-42156D01*
X36251Y-42159D01*
X36221Y-42157D01*
X36191Y-42148D01*
X36163Y-42133D01*
X36139Y-42114D01*
X36118Y-42090D01*
X36103Y-42063D01*
X36094Y-42033D01*
X36091Y-42002D01*
X36093Y-41972D01*
X36102Y-41942D01*
X36116Y-41914D01*
X36135Y-41889D01*
X36159Y-41869D01*
X36186Y-41854D01*
X36216Y-41844D01*
X36247Y-41841D01*
X36277Y-41843D01*
X36307Y-41851D01*
X36335Y-41865D01*
X36360Y-41885D01*
X36380Y-41908D01*
X36396Y-41935D01*
X36406Y-41965D01*
X36409Y-41996D01*
X36410Y-42000D01*
X36410Y-45000D02*
X36406Y-45031D01*
X36397Y-45060D01*
X36383Y-45088D01*
X36363Y-45112D01*
X36339Y-45132D01*
X36312Y-45147D01*
X36282Y-45156D01*
X36251Y-45159D01*
X36221Y-45157D01*
X36191Y-45148D01*
X36163Y-45133D01*
X36139Y-45114D01*
X36118Y-45090D01*
X36103Y-45063D01*
X36094Y-45033D01*
X36091Y-45002D01*
X36093Y-44972D01*
X36102Y-44942D01*
X36116Y-44914D01*
X36135Y-44889D01*
X36159Y-44869D01*
X36186Y-44854D01*
X36216Y-44844D01*
X36247Y-44841D01*
X36277Y-44843D01*
X36307Y-44851D01*
X36335Y-44865D01*
X36360Y-44885D01*
X36380Y-44908D01*
X36396Y-44935D01*
X36406Y-44965D01*
X36409Y-44996D01*
X36410Y-45000D01*
X36910Y-33250D02*
X36906Y-33281D01*
X36897Y-33310D01*
X36883Y-33338D01*
X36863Y-33362D01*
X36839Y-33382D01*
X36812Y-33397D01*
X36782Y-33406D01*
X36751Y-33409D01*
X36721Y-33407D01*
X36691Y-33398D01*
X36663Y-33383D01*
X36639Y-33364D01*
X36618Y-33340D01*
X36603Y-33313D01*
X36594Y-33283D01*
X36591Y-33252D01*
X36593Y-33222D01*
X36602Y-33192D01*
X36616Y-33164D01*
X36635Y-33139D01*
X36659Y-33119D01*
X36686Y-33104D01*
X36716Y-33094D01*
X36747Y-33091D01*
X36777Y-33093D01*
X36807Y-33101D01*
X36835Y-33115D01*
X36860Y-33135D01*
X36880Y-33158D01*
X36896Y-33185D01*
X36906Y-33215D01*
X36909Y-33246D01*
X36910Y-33250D01*
X36910Y-40250D02*
X36906Y-40281D01*
X36897Y-40310D01*
X36883Y-40338D01*
X36863Y-40362D01*
X36839Y-40382D01*
X36812Y-40397D01*
X36782Y-40406D01*
X36751Y-40409D01*
X36721Y-40407D01*
X36691Y-40398D01*
X36663Y-40383D01*
X36639Y-40364D01*
X36618Y-40340D01*
X36603Y-40313D01*
X36594Y-40283D01*
X36591Y-40252D01*
X36593Y-40222D01*
X36602Y-40192D01*
X36616Y-40164D01*
X36635Y-40139D01*
X36659Y-40119D01*
X36686Y-40104D01*
X36716Y-40094D01*
X36747Y-40091D01*
X36777Y-40093D01*
X36807Y-40101D01*
X36835Y-40115D01*
X36860Y-40135D01*
X36880Y-40158D01*
X36896Y-40185D01*
X36906Y-40215D01*
X36909Y-40246D01*
X36910Y-40250D01*
X36910Y-47250D02*
X36906Y-47281D01*
X36897Y-47310D01*
X36883Y-47338D01*
X36863Y-47362D01*
X36839Y-47382D01*
X36812Y-47397D01*
X36782Y-47406D01*
X36751Y-47409D01*
X36721Y-47407D01*
X36691Y-47398D01*
X36663Y-47383D01*
X36639Y-47364D01*
X36618Y-47340D01*
X36603Y-47313D01*
X36594Y-47283D01*
X36591Y-47252D01*
X36593Y-47222D01*
X36602Y-47192D01*
X36616Y-47164D01*
X36635Y-47139D01*
X36659Y-47119D01*
X36686Y-47104D01*
X36716Y-47094D01*
X36747Y-47091D01*
X36777Y-47093D01*
X36807Y-47101D01*
X36835Y-47115D01*
X36860Y-47135D01*
X36880Y-47158D01*
X36896Y-47185D01*
X36906Y-47215D01*
X36909Y-47246D01*
X36910Y-47250D01*
X37410Y-28000D02*
X37406Y-28031D01*
X37397Y-28060D01*
X37383Y-28088D01*
X37363Y-28112D01*
X37339Y-28132D01*
X37312Y-28147D01*
X37282Y-28156D01*
X37251Y-28159D01*
X37221Y-28157D01*
X37191Y-28148D01*
X37163Y-28133D01*
X37139Y-28114D01*
X37118Y-28090D01*
X37103Y-28063D01*
X37094Y-28033D01*
X37091Y-28002D01*
X37093Y-27972D01*
X37102Y-27942D01*
X37116Y-27914D01*
X37135Y-27889D01*
X37159Y-27869D01*
X37186Y-27854D01*
X37216Y-27844D01*
X37247Y-27841D01*
X37277Y-27843D01*
X37307Y-27851D01*
X37335Y-27865D01*
X37360Y-27885D01*
X37380Y-27908D01*
X37396Y-27935D01*
X37406Y-27965D01*
X37409Y-27996D01*
X37410Y-28000D01*
X37410Y-31000D02*
X37406Y-31031D01*
X37397Y-31060D01*
X37383Y-31088D01*
X37363Y-31112D01*
X37339Y-31132D01*
X37312Y-31147D01*
X37282Y-31156D01*
X37251Y-31159D01*
X37221Y-31157D01*
X37191Y-31148D01*
X37163Y-31133D01*
X37139Y-31114D01*
X37118Y-31090D01*
X37103Y-31063D01*
X37094Y-31033D01*
X37091Y-31002D01*
X37093Y-30972D01*
X37102Y-30942D01*
X37116Y-30914D01*
X37135Y-30889D01*
X37159Y-30869D01*
X37186Y-30854D01*
X37216Y-30844D01*
X37247Y-30841D01*
X37277Y-30843D01*
X37307Y-30851D01*
X37335Y-30865D01*
X37360Y-30885D01*
X37380Y-30908D01*
X37396Y-30935D01*
X37406Y-30965D01*
X37409Y-30996D01*
X37410Y-31000D01*
X37410Y-35000D02*
X37406Y-35031D01*
X37397Y-35060D01*
X37383Y-35088D01*
X37363Y-35112D01*
X37339Y-35132D01*
X37312Y-35147D01*
X37282Y-35156D01*
X37251Y-35159D01*
X37221Y-35157D01*
X37191Y-35148D01*
X37163Y-35133D01*
X37139Y-35114D01*
X37118Y-35090D01*
X37103Y-35063D01*
X37094Y-35033D01*
X37091Y-35002D01*
X37093Y-34972D01*
X37102Y-34942D01*
X37116Y-34914D01*
X37135Y-34889D01*
X37159Y-34869D01*
X37186Y-34854D01*
X37216Y-34844D01*
X37247Y-34841D01*
X37277Y-34843D01*
X37307Y-34851D01*
X37335Y-34865D01*
X37360Y-34885D01*
X37380Y-34908D01*
X37396Y-34935D01*
X37406Y-34965D01*
X37409Y-34996D01*
X37410Y-35000D01*
X37410Y-38000D02*
X37406Y-38031D01*
X37397Y-38060D01*
X37383Y-38088D01*
X37363Y-38112D01*
X37339Y-38132D01*
X37312Y-38147D01*
X37282Y-38156D01*
X37251Y-38159D01*
X37221Y-38157D01*
X37191Y-38148D01*
X37163Y-38133D01*
X37139Y-38114D01*
X37118Y-38090D01*
X37103Y-38063D01*
X37094Y-38033D01*
X37091Y-38002D01*
X37093Y-37972D01*
X37102Y-37942D01*
X37116Y-37914D01*
X37135Y-37889D01*
X37159Y-37869D01*
X37186Y-37854D01*
X37216Y-37844D01*
X37247Y-37841D01*
X37277Y-37843D01*
X37307Y-37851D01*
X37335Y-37865D01*
X37360Y-37885D01*
X37380Y-37908D01*
X37396Y-37935D01*
X37406Y-37965D01*
X37409Y-37996D01*
X37410Y-38000D01*
X37410Y-42000D02*
X37406Y-42031D01*
X37397Y-42060D01*
X37383Y-42088D01*
X37363Y-42112D01*
X37339Y-42132D01*
X37312Y-42147D01*
X37282Y-42156D01*
X37251Y-42159D01*
X37221Y-42157D01*
X37191Y-42148D01*
X37163Y-42133D01*
X37139Y-42114D01*
X37118Y-42090D01*
X37103Y-42063D01*
X37094Y-42033D01*
X37091Y-42002D01*
X37093Y-41972D01*
X37102Y-41942D01*
X37116Y-41914D01*
X37135Y-41889D01*
X37159Y-41869D01*
X37186Y-41854D01*
X37216Y-41844D01*
X37247Y-41841D01*
X37277Y-41843D01*
X37307Y-41851D01*
X37335Y-41865D01*
X37360Y-41885D01*
X37380Y-41908D01*
X37396Y-41935D01*
X37406Y-41965D01*
X37409Y-41996D01*
X37410Y-42000D01*
X37410Y-45000D02*
X37406Y-45031D01*
X37397Y-45060D01*
X37383Y-45088D01*
X37363Y-45112D01*
X37339Y-45132D01*
X37312Y-45147D01*
X37282Y-45156D01*
X37251Y-45159D01*
X37221Y-45157D01*
X37191Y-45148D01*
X37163Y-45133D01*
X37139Y-45114D01*
X37118Y-45090D01*
X37103Y-45063D01*
X37094Y-45033D01*
X37091Y-45002D01*
X37093Y-44972D01*
X37102Y-44942D01*
X37116Y-44914D01*
X37135Y-44889D01*
X37159Y-44869D01*
X37186Y-44854D01*
X37216Y-44844D01*
X37247Y-44841D01*
X37277Y-44843D01*
X37307Y-44851D01*
X37335Y-44865D01*
X37360Y-44885D01*
X37380Y-44908D01*
X37396Y-44935D01*
X37406Y-44965D01*
X37409Y-44996D01*
X37410Y-45000D01*
X38410Y-32250D02*
X38406Y-32281D01*
X38397Y-32310D01*
X38383Y-32338D01*
X38363Y-32362D01*
X38339Y-32382D01*
X38312Y-32397D01*
X38282Y-32406D01*
X38251Y-32409D01*
X38221Y-32407D01*
X38191Y-32398D01*
X38163Y-32383D01*
X38139Y-32364D01*
X38118Y-32340D01*
X38103Y-32313D01*
X38094Y-32283D01*
X38091Y-32252D01*
X38093Y-32222D01*
X38102Y-32192D01*
X38116Y-32164D01*
X38135Y-32139D01*
X38159Y-32119D01*
X38186Y-32104D01*
X38216Y-32094D01*
X38247Y-32091D01*
X38277Y-32093D01*
X38307Y-32101D01*
X38335Y-32115D01*
X38360Y-32135D01*
X38380Y-32158D01*
X38396Y-32185D01*
X38406Y-32215D01*
X38409Y-32246D01*
X38410Y-32250D01*
X38410Y-39250D02*
X38406Y-39281D01*
X38397Y-39310D01*
X38383Y-39338D01*
X38363Y-39362D01*
X38339Y-39382D01*
X38312Y-39397D01*
X38282Y-39406D01*
X38251Y-39409D01*
X38221Y-39407D01*
X38191Y-39398D01*
X38163Y-39383D01*
X38139Y-39364D01*
X38118Y-39340D01*
X38103Y-39313D01*
X38094Y-39283D01*
X38091Y-39252D01*
X38093Y-39222D01*
X38102Y-39192D01*
X38116Y-39164D01*
X38135Y-39139D01*
X38159Y-39119D01*
X38186Y-39104D01*
X38216Y-39094D01*
X38247Y-39091D01*
X38277Y-39093D01*
X38307Y-39101D01*
X38335Y-39115D01*
X38360Y-39135D01*
X38380Y-39158D01*
X38396Y-39185D01*
X38406Y-39215D01*
X38409Y-39246D01*
X38410Y-39250D01*
X38410Y-46250D02*
X38406Y-46281D01*
X38397Y-46310D01*
X38383Y-46338D01*
X38363Y-46362D01*
X38339Y-46382D01*
X38312Y-46397D01*
X38282Y-46406D01*
X38251Y-46409D01*
X38221Y-46407D01*
X38191Y-46398D01*
X38163Y-46383D01*
X38139Y-46364D01*
X38118Y-46340D01*
X38103Y-46313D01*
X38094Y-46283D01*
X38091Y-46252D01*
X38093Y-46222D01*
X38102Y-46192D01*
X38116Y-46164D01*
X38135Y-46139D01*
X38159Y-46119D01*
X38186Y-46104D01*
X38216Y-46094D01*
X38247Y-46091D01*
X38277Y-46093D01*
X38307Y-46101D01*
X38335Y-46115D01*
X38360Y-46135D01*
X38380Y-46158D01*
X38396Y-46185D01*
X38406Y-46215D01*
X38409Y-46246D01*
X38410Y-46250D01*
X39910Y-33250D02*
X39906Y-33281D01*
X39897Y-33310D01*
X39883Y-33338D01*
X39863Y-33362D01*
X39839Y-33382D01*
X39812Y-33397D01*
X39782Y-33406D01*
X39751Y-33409D01*
X39721Y-33407D01*
X39691Y-33398D01*
X39663Y-33383D01*
X39639Y-33364D01*
X39618Y-33340D01*
X39603Y-33313D01*
X39594Y-33283D01*
X39591Y-33252D01*
X39593Y-33222D01*
X39602Y-33192D01*
X39616Y-33164D01*
X39635Y-33139D01*
X39659Y-33119D01*
X39686Y-33104D01*
X39716Y-33094D01*
X39747Y-33091D01*
X39777Y-33093D01*
X39807Y-33101D01*
X39835Y-33115D01*
X39860Y-33135D01*
X39880Y-33158D01*
X39896Y-33185D01*
X39906Y-33215D01*
X39909Y-33246D01*
X39910Y-33250D01*
X39910Y-40250D02*
X39906Y-40281D01*
X39897Y-40310D01*
X39883Y-40338D01*
X39863Y-40362D01*
X39839Y-40382D01*
X39812Y-40397D01*
X39782Y-40406D01*
X39751Y-40409D01*
X39721Y-40407D01*
X39691Y-40398D01*
X39663Y-40383D01*
X39639Y-40364D01*
X39618Y-40340D01*
X39603Y-40313D01*
X39594Y-40283D01*
X39591Y-40252D01*
X39593Y-40222D01*
X39602Y-40192D01*
X39616Y-40164D01*
X39635Y-40139D01*
X39659Y-40119D01*
X39686Y-40104D01*
X39716Y-40094D01*
X39747Y-40091D01*
X39777Y-40093D01*
X39807Y-40101D01*
X39835Y-40115D01*
X39860Y-40135D01*
X39880Y-40158D01*
X39896Y-40185D01*
X39906Y-40215D01*
X39909Y-40246D01*
X39910Y-40250D01*
X39910Y-47250D02*
X39906Y-47281D01*
X39897Y-47310D01*
X39883Y-47338D01*
X39863Y-47362D01*
X39839Y-47382D01*
X39812Y-47397D01*
X39782Y-47406D01*
X39751Y-47409D01*
X39721Y-47407D01*
X39691Y-47398D01*
X39663Y-47383D01*
X39639Y-47364D01*
X39618Y-47340D01*
X39603Y-47313D01*
X39594Y-47283D01*
X39591Y-47252D01*
X39593Y-47222D01*
X39602Y-47192D01*
X39616Y-47164D01*
X39635Y-47139D01*
X39659Y-47119D01*
X39686Y-47104D01*
X39716Y-47094D01*
X39747Y-47091D01*
X39777Y-47093D01*
X39807Y-47101D01*
X39835Y-47115D01*
X39860Y-47135D01*
X39880Y-47158D01*
X39896Y-47185D01*
X39906Y-47215D01*
X39909Y-47246D01*
X39910Y-47250D01*
X47910Y-47500D02*
X47906Y-47531D01*
X47897Y-47560D01*
X47883Y-47588D01*
X47863Y-47612D01*
X47839Y-47632D01*
X47812Y-47647D01*
X47782Y-47656D01*
X47751Y-47659D01*
X47721Y-47657D01*
X47691Y-47648D01*
X47663Y-47633D01*
X47639Y-47614D01*
X47618Y-47590D01*
X47603Y-47563D01*
X47594Y-47533D01*
X47591Y-47502D01*
X47593Y-47472D01*
X47602Y-47442D01*
X47616Y-47414D01*
X47635Y-47389D01*
X47659Y-47369D01*
X47686Y-47354D01*
X47716Y-47344D01*
X47747Y-47341D01*
X47777Y-47343D01*
X47807Y-47351D01*
X47835Y-47365D01*
X47860Y-47385D01*
X47880Y-47408D01*
X47896Y-47435D01*
X47906Y-47465D01*
X47909Y-47496D01*
X47910Y-47500D01*
X47910Y-50500D02*
X47906Y-50531D01*
X47897Y-50560D01*
X47883Y-50588D01*
X47863Y-50612D01*
X47839Y-50632D01*
X47812Y-50647D01*
X47782Y-50656D01*
X47751Y-50659D01*
X47721Y-50657D01*
X47691Y-50648D01*
X47663Y-50633D01*
X47639Y-50614D01*
X47618Y-50590D01*
X47603Y-50563D01*
X47594Y-50533D01*
X47591Y-50502D01*
X47593Y-50472D01*
X47602Y-50442D01*
X47616Y-50414D01*
X47635Y-50389D01*
X47659Y-50369D01*
X47686Y-50354D01*
X47716Y-50344D01*
X47747Y-50341D01*
X47777Y-50343D01*
X47807Y-50351D01*
X47835Y-50365D01*
X47860Y-50385D01*
X47880Y-50408D01*
X47896Y-50435D01*
X47906Y-50465D01*
X47909Y-50496D01*
X47910Y-50500D01*
X48660Y-25250D02*
X48656Y-25281D01*
X48647Y-25310D01*
X48633Y-25338D01*
X48613Y-25362D01*
X48589Y-25382D01*
X48562Y-25397D01*
X48532Y-25406D01*
X48501Y-25409D01*
X48471Y-25407D01*
X48441Y-25398D01*
X48413Y-25383D01*
X48389Y-25364D01*
X48368Y-25340D01*
X48353Y-25313D01*
X48344Y-25283D01*
X48341Y-25252D01*
X48343Y-25222D01*
X48352Y-25192D01*
X48366Y-25164D01*
X48385Y-25139D01*
X48409Y-25119D01*
X48436Y-25104D01*
X48466Y-25094D01*
X48497Y-25091D01*
X48527Y-25093D01*
X48557Y-25101D01*
X48585Y-25115D01*
X48610Y-25135D01*
X48630Y-25158D01*
X48646Y-25185D01*
X48656Y-25215D01*
X48659Y-25246D01*
X48660Y-25250D01*
X48660Y-28250D02*
X48656Y-28281D01*
X48647Y-28310D01*
X48633Y-28338D01*
X48613Y-28362D01*
X48589Y-28382D01*
X48562Y-28397D01*
X48532Y-28406D01*
X48501Y-28409D01*
X48471Y-28407D01*
X48441Y-28398D01*
X48413Y-28383D01*
X48389Y-28364D01*
X48368Y-28340D01*
X48353Y-28313D01*
X48344Y-28283D01*
X48341Y-28252D01*
X48343Y-28222D01*
X48352Y-28192D01*
X48366Y-28164D01*
X48385Y-28139D01*
X48409Y-28119D01*
X48436Y-28104D01*
X48466Y-28094D01*
X48497Y-28091D01*
X48527Y-28093D01*
X48557Y-28101D01*
X48585Y-28115D01*
X48610Y-28135D01*
X48630Y-28158D01*
X48646Y-28185D01*
X48656Y-28215D01*
X48659Y-28246D01*
X48660Y-28250D01*
X48910Y-34250D02*
X48906Y-34281D01*
X48897Y-34310D01*
X48883Y-34338D01*
X48863Y-34362D01*
X48839Y-34382D01*
X48812Y-34397D01*
X48782Y-34406D01*
X48751Y-34409D01*
X48721Y-34407D01*
X48691Y-34398D01*
X48663Y-34383D01*
X48639Y-34364D01*
X48618Y-34340D01*
X48603Y-34313D01*
X48594Y-34283D01*
X48591Y-34252D01*
X48593Y-34222D01*
X48602Y-34192D01*
X48616Y-34164D01*
X48635Y-34139D01*
X48659Y-34119D01*
X48686Y-34104D01*
X48716Y-34094D01*
X48747Y-34091D01*
X48777Y-34093D01*
X48807Y-34101D01*
X48835Y-34115D01*
X48860Y-34135D01*
X48880Y-34158D01*
X48896Y-34185D01*
X48906Y-34215D01*
X48909Y-34246D01*
X48910Y-34250D01*
X48910Y-37250D02*
X48906Y-37281D01*
X48897Y-37310D01*
X48883Y-37338D01*
X48863Y-37362D01*
X48839Y-37382D01*
X48812Y-37397D01*
X48782Y-37406D01*
X48751Y-37409D01*
X48721Y-37407D01*
X48691Y-37398D01*
X48663Y-37383D01*
X48639Y-37364D01*
X48618Y-37340D01*
X48603Y-37313D01*
X48594Y-37283D01*
X48591Y-37252D01*
X48593Y-37222D01*
X48602Y-37192D01*
X48616Y-37164D01*
X48635Y-37139D01*
X48659Y-37119D01*
X48686Y-37104D01*
X48716Y-37094D01*
X48747Y-37091D01*
X48777Y-37093D01*
X48807Y-37101D01*
X48835Y-37115D01*
X48860Y-37135D01*
X48880Y-37158D01*
X48896Y-37185D01*
X48906Y-37215D01*
X48909Y-37246D01*
X48910Y-37250D01*
X48910Y-39250D02*
X48906Y-39281D01*
X48897Y-39310D01*
X48883Y-39338D01*
X48863Y-39362D01*
X48839Y-39382D01*
X48812Y-39397D01*
X48782Y-39406D01*
X48751Y-39409D01*
X48721Y-39407D01*
X48691Y-39398D01*
X48663Y-39383D01*
X48639Y-39364D01*
X48618Y-39340D01*
X48603Y-39313D01*
X48594Y-39283D01*
X48591Y-39252D01*
X48593Y-39222D01*
X48602Y-39192D01*
X48616Y-39164D01*
X48635Y-39139D01*
X48659Y-39119D01*
X48686Y-39104D01*
X48716Y-39094D01*
X48747Y-39091D01*
X48777Y-39093D01*
X48807Y-39101D01*
X48835Y-39115D01*
X48860Y-39135D01*
X48880Y-39158D01*
X48896Y-39185D01*
X48906Y-39215D01*
X48909Y-39246D01*
X48910Y-39250D01*
X49660Y-25250D02*
X49656Y-25281D01*
X49647Y-25310D01*
X49633Y-25338D01*
X49613Y-25362D01*
X49589Y-25382D01*
X49562Y-25397D01*
X49532Y-25406D01*
X49501Y-25409D01*
X49471Y-25407D01*
X49441Y-25398D01*
X49413Y-25383D01*
X49389Y-25364D01*
X49368Y-25340D01*
X49353Y-25313D01*
X49344Y-25283D01*
X49341Y-25252D01*
X49343Y-25222D01*
X49352Y-25192D01*
X49366Y-25164D01*
X49385Y-25139D01*
X49409Y-25119D01*
X49436Y-25104D01*
X49466Y-25094D01*
X49497Y-25091D01*
X49527Y-25093D01*
X49557Y-25101D01*
X49585Y-25115D01*
X49610Y-25135D01*
X49630Y-25158D01*
X49646Y-25185D01*
X49656Y-25215D01*
X49659Y-25246D01*
X49660Y-25250D01*
X49660Y-28250D02*
X49656Y-28281D01*
X49647Y-28310D01*
X49633Y-28338D01*
X49613Y-28362D01*
X49589Y-28382D01*
X49562Y-28397D01*
X49532Y-28406D01*
X49501Y-28409D01*
X49471Y-28407D01*
X49441Y-28398D01*
X49413Y-28383D01*
X49389Y-28364D01*
X49368Y-28340D01*
X49353Y-28313D01*
X49344Y-28283D01*
X49341Y-28252D01*
X49343Y-28222D01*
X49352Y-28192D01*
X49366Y-28164D01*
X49385Y-28139D01*
X49409Y-28119D01*
X49436Y-28104D01*
X49466Y-28094D01*
X49497Y-28091D01*
X49527Y-28093D01*
X49557Y-28101D01*
X49585Y-28115D01*
X49610Y-28135D01*
X49630Y-28158D01*
X49646Y-28185D01*
X49656Y-28215D01*
X49659Y-28246D01*
X49660Y-28250D01*
X50660Y-25250D02*
X50656Y-25281D01*
X50647Y-25310D01*
X50633Y-25338D01*
X50613Y-25362D01*
X50589Y-25382D01*
X50562Y-25397D01*
X50532Y-25406D01*
X50501Y-25409D01*
X50471Y-25407D01*
X50441Y-25398D01*
X50413Y-25383D01*
X50389Y-25364D01*
X50368Y-25340D01*
X50353Y-25313D01*
X50344Y-25283D01*
X50341Y-25252D01*
X50343Y-25222D01*
X50352Y-25192D01*
X50366Y-25164D01*
X50385Y-25139D01*
X50409Y-25119D01*
X50436Y-25104D01*
X50466Y-25094D01*
X50497Y-25091D01*
X50527Y-25093D01*
X50557Y-25101D01*
X50585Y-25115D01*
X50610Y-25135D01*
X50630Y-25158D01*
X50646Y-25185D01*
X50656Y-25215D01*
X50659Y-25246D01*
X50660Y-25250D01*
X50660Y-28250D02*
X50656Y-28281D01*
X50647Y-28310D01*
X50633Y-28338D01*
X50613Y-28362D01*
X50589Y-28382D01*
X50562Y-28397D01*
X50532Y-28406D01*
X50501Y-28409D01*
X50471Y-28407D01*
X50441Y-28398D01*
X50413Y-28383D01*
X50389Y-28364D01*
X50368Y-28340D01*
X50353Y-28313D01*
X50344Y-28283D01*
X50341Y-28252D01*
X50343Y-28222D01*
X50352Y-28192D01*
X50366Y-28164D01*
X50385Y-28139D01*
X50409Y-28119D01*
X50436Y-28104D01*
X50466Y-28094D01*
X50497Y-28091D01*
X50527Y-28093D01*
X50557Y-28101D01*
X50585Y-28115D01*
X50610Y-28135D01*
X50630Y-28158D01*
X50646Y-28185D01*
X50656Y-28215D01*
X50659Y-28246D01*
X50660Y-28250D01*
X51660Y-25250D02*
X51656Y-25281D01*
X51647Y-25310D01*
X51633Y-25338D01*
X51613Y-25362D01*
X51589Y-25382D01*
X51562Y-25397D01*
X51532Y-25406D01*
X51501Y-25409D01*
X51471Y-25407D01*
X51441Y-25398D01*
X51413Y-25383D01*
X51389Y-25364D01*
X51368Y-25340D01*
X51353Y-25313D01*
X51344Y-25283D01*
X51341Y-25252D01*
X51343Y-25222D01*
X51352Y-25192D01*
X51366Y-25164D01*
X51385Y-25139D01*
X51409Y-25119D01*
X51436Y-25104D01*
X51466Y-25094D01*
X51497Y-25091D01*
X51527Y-25093D01*
X51557Y-25101D01*
X51585Y-25115D01*
X51610Y-25135D01*
X51630Y-25158D01*
X51646Y-25185D01*
X51656Y-25215D01*
X51659Y-25246D01*
X51660Y-25250D01*
X51660Y-28250D02*
X51656Y-28281D01*
X51647Y-28310D01*
X51633Y-28338D01*
X51613Y-28362D01*
X51589Y-28382D01*
X51562Y-28397D01*
X51532Y-28406D01*
X51501Y-28409D01*
X51471Y-28407D01*
X51441Y-28398D01*
X51413Y-28383D01*
X51389Y-28364D01*
X51368Y-28340D01*
X51353Y-28313D01*
X51344Y-28283D01*
X51341Y-28252D01*
X51343Y-28222D01*
X51352Y-28192D01*
X51366Y-28164D01*
X51385Y-28139D01*
X51409Y-28119D01*
X51436Y-28104D01*
X51466Y-28094D01*
X51497Y-28091D01*
X51527Y-28093D01*
X51557Y-28101D01*
X51585Y-28115D01*
X51610Y-28135D01*
X51630Y-28158D01*
X51646Y-28185D01*
X51656Y-28215D01*
X51659Y-28246D01*
X51660Y-28250D01*
X52660Y-25250D02*
X52656Y-25281D01*
X52647Y-25310D01*
X52633Y-25338D01*
X52613Y-25362D01*
X52589Y-25382D01*
X52562Y-25397D01*
X52532Y-25406D01*
X52501Y-25409D01*
X52471Y-25407D01*
X52441Y-25398D01*
X52413Y-25383D01*
X52389Y-25364D01*
X52368Y-25340D01*
X52353Y-25313D01*
X52344Y-25283D01*
X52341Y-25252D01*
X52343Y-25222D01*
X52352Y-25192D01*
X52366Y-25164D01*
X52385Y-25139D01*
X52409Y-25119D01*
X52436Y-25104D01*
X52466Y-25094D01*
X52497Y-25091D01*
X52527Y-25093D01*
X52557Y-25101D01*
X52585Y-25115D01*
X52610Y-25135D01*
X52630Y-25158D01*
X52646Y-25185D01*
X52656Y-25215D01*
X52659Y-25246D01*
X52660Y-25250D01*
X52660Y-28250D02*
X52656Y-28281D01*
X52647Y-28310D01*
X52633Y-28338D01*
X52613Y-28362D01*
X52589Y-28382D01*
X52562Y-28397D01*
X52532Y-28406D01*
X52501Y-28409D01*
X52471Y-28407D01*
X52441Y-28398D01*
X52413Y-28383D01*
X52389Y-28364D01*
X52368Y-28340D01*
X52353Y-28313D01*
X52344Y-28283D01*
X52341Y-28252D01*
X52343Y-28222D01*
X52352Y-28192D01*
X52366Y-28164D01*
X52385Y-28139D01*
X52409Y-28119D01*
X52436Y-28104D01*
X52466Y-28094D01*
X52497Y-28091D01*
X52527Y-28093D01*
X52557Y-28101D01*
X52585Y-28115D01*
X52610Y-28135D01*
X52630Y-28158D01*
X52646Y-28185D01*
X52656Y-28215D01*
X52659Y-28246D01*
X52660Y-28250D01*
X53660Y-25250D02*
X53656Y-25281D01*
X53647Y-25310D01*
X53633Y-25338D01*
X53613Y-25362D01*
X53589Y-25382D01*
X53562Y-25397D01*
X53532Y-25406D01*
X53501Y-25409D01*
X53471Y-25407D01*
X53441Y-25398D01*
X53413Y-25383D01*
X53389Y-25364D01*
X53368Y-25340D01*
X53353Y-25313D01*
X53344Y-25283D01*
X53341Y-25252D01*
X53343Y-25222D01*
X53352Y-25192D01*
X53366Y-25164D01*
X53385Y-25139D01*
X53409Y-25119D01*
X53436Y-25104D01*
X53466Y-25094D01*
X53497Y-25091D01*
X53527Y-25093D01*
X53557Y-25101D01*
X53585Y-25115D01*
X53610Y-25135D01*
X53630Y-25158D01*
X53646Y-25185D01*
X53656Y-25215D01*
X53659Y-25246D01*
X53660Y-25250D01*
X53660Y-28250D02*
X53656Y-28281D01*
X53647Y-28310D01*
X53633Y-28338D01*
X53613Y-28362D01*
X53589Y-28382D01*
X53562Y-28397D01*
X53532Y-28406D01*
X53501Y-28409D01*
X53471Y-28407D01*
X53441Y-28398D01*
X53413Y-28383D01*
X53389Y-28364D01*
X53368Y-28340D01*
X53353Y-28313D01*
X53344Y-28283D01*
X53341Y-28252D01*
X53343Y-28222D01*
X53352Y-28192D01*
X53366Y-28164D01*
X53385Y-28139D01*
X53409Y-28119D01*
X53436Y-28104D01*
X53466Y-28094D01*
X53497Y-28091D01*
X53527Y-28093D01*
X53557Y-28101D01*
X53585Y-28115D01*
X53610Y-28135D01*
X53630Y-28158D01*
X53646Y-28185D01*
X53656Y-28215D01*
X53659Y-28246D01*
X53660Y-28250D01*
X54660Y-25250D02*
X54656Y-25281D01*
X54647Y-25310D01*
X54633Y-25338D01*
X54613Y-25362D01*
X54589Y-25382D01*
X54562Y-25397D01*
X54532Y-25406D01*
X54501Y-25409D01*
X54471Y-25407D01*
X54441Y-25398D01*
X54413Y-25383D01*
X54389Y-25364D01*
X54368Y-25340D01*
X54353Y-25313D01*
X54344Y-25283D01*
X54341Y-25252D01*
X54343Y-25222D01*
X54352Y-25192D01*
X54366Y-25164D01*
X54385Y-25139D01*
X54409Y-25119D01*
X54436Y-25104D01*
X54466Y-25094D01*
X54497Y-25091D01*
X54527Y-25093D01*
X54557Y-25101D01*
X54585Y-25115D01*
X54610Y-25135D01*
X54630Y-25158D01*
X54646Y-25185D01*
X54656Y-25215D01*
X54659Y-25246D01*
X54660Y-25250D01*
X54660Y-28250D02*
X54656Y-28281D01*
X54647Y-28310D01*
X54633Y-28338D01*
X54613Y-28362D01*
X54589Y-28382D01*
X54562Y-28397D01*
X54532Y-28406D01*
X54501Y-28409D01*
X54471Y-28407D01*
X54441Y-28398D01*
X54413Y-28383D01*
X54389Y-28364D01*
X54368Y-28340D01*
X54353Y-28313D01*
X54344Y-28283D01*
X54341Y-28252D01*
X54343Y-28222D01*
X54352Y-28192D01*
X54366Y-28164D01*
X54385Y-28139D01*
X54409Y-28119D01*
X54436Y-28104D01*
X54466Y-28094D01*
X54497Y-28091D01*
X54527Y-28093D01*
X54557Y-28101D01*
X54585Y-28115D01*
X54610Y-28135D01*
X54630Y-28158D01*
X54646Y-28185D01*
X54656Y-28215D01*
X54659Y-28246D01*
X54660Y-28250D01*
X56910Y-34250D02*
X56906Y-34281D01*
X56897Y-34310D01*
X56883Y-34338D01*
X56863Y-34362D01*
X56839Y-34382D01*
X56812Y-34397D01*
X56782Y-34406D01*
X56751Y-34409D01*
X56721Y-34407D01*
X56691Y-34398D01*
X56663Y-34383D01*
X56639Y-34364D01*
X56618Y-34340D01*
X56603Y-34313D01*
X56594Y-34283D01*
X56591Y-34252D01*
X56593Y-34222D01*
X56602Y-34192D01*
X56616Y-34164D01*
X56635Y-34139D01*
X56659Y-34119D01*
X56686Y-34104D01*
X56716Y-34094D01*
X56747Y-34091D01*
X56777Y-34093D01*
X56807Y-34101D01*
X56835Y-34115D01*
X56860Y-34135D01*
X56880Y-34158D01*
X56896Y-34185D01*
X56906Y-34215D01*
X56909Y-34246D01*
X56910Y-34250D01*
X56910Y-38250D02*
X56906Y-38281D01*
X56897Y-38310D01*
X56883Y-38338D01*
X56863Y-38362D01*
X56839Y-38382D01*
X56812Y-38397D01*
X56782Y-38406D01*
X56751Y-38409D01*
X56721Y-38407D01*
X56691Y-38398D01*
X56663Y-38383D01*
X56639Y-38364D01*
X56618Y-38340D01*
X56603Y-38313D01*
X56594Y-38283D01*
X56591Y-38252D01*
X56593Y-38222D01*
X56602Y-38192D01*
X56616Y-38164D01*
X56635Y-38139D01*
X56659Y-38119D01*
X56686Y-38104D01*
X56716Y-38094D01*
X56747Y-38091D01*
X56777Y-38093D01*
X56807Y-38101D01*
X56835Y-38115D01*
X56860Y-38135D01*
X56880Y-38158D01*
X56896Y-38185D01*
X56906Y-38215D01*
X56909Y-38246D01*
X56910Y-38250D01*
X56910Y-42250D02*
X56906Y-42281D01*
X56897Y-42310D01*
X56883Y-42338D01*
X56863Y-42362D01*
X56839Y-42382D01*
X56812Y-42397D01*
X56782Y-42406D01*
X56751Y-42409D01*
X56721Y-42407D01*
X56691Y-42398D01*
X56663Y-42383D01*
X56639Y-42364D01*
X56618Y-42340D01*
X56603Y-42313D01*
X56594Y-42283D01*
X56591Y-42252D01*
X56593Y-42222D01*
X56602Y-42192D01*
X56616Y-42164D01*
X56635Y-42139D01*
X56659Y-42119D01*
X56686Y-42104D01*
X56716Y-42094D01*
X56747Y-42091D01*
X56777Y-42093D01*
X56807Y-42101D01*
X56835Y-42115D01*
X56860Y-42135D01*
X56880Y-42158D01*
X56896Y-42185D01*
X56906Y-42215D01*
X56909Y-42246D01*
X56910Y-42250D01*
X63910Y-35750D02*
X63906Y-35781D01*
X63897Y-35810D01*
X63883Y-35838D01*
X63863Y-35862D01*
X63839Y-35882D01*
X63812Y-35897D01*
X63782Y-35906D01*
X63751Y-35909D01*
X63721Y-35907D01*
X63691Y-35898D01*
X63663Y-35883D01*
X63639Y-35864D01*
X63618Y-35840D01*
X63603Y-35813D01*
X63594Y-35783D01*
X63591Y-35752D01*
X63593Y-35722D01*
X63602Y-35692D01*
X63616Y-35664D01*
X63635Y-35639D01*
X63659Y-35619D01*
X63686Y-35604D01*
X63716Y-35594D01*
X63747Y-35591D01*
X63777Y-35593D01*
X63807Y-35601D01*
X63835Y-35615D01*
X63860Y-35635D01*
X63880Y-35658D01*
X63896Y-35685D01*
X63906Y-35715D01*
X63909Y-35746D01*
X63910Y-35750D01*
X63910Y-38750D02*
X63906Y-38781D01*
X63897Y-38810D01*
X63883Y-38838D01*
X63863Y-38862D01*
X63839Y-38882D01*
X63812Y-38897D01*
X63782Y-38906D01*
X63751Y-38909D01*
X63721Y-38907D01*
X63691Y-38898D01*
X63663Y-38883D01*
X63639Y-38864D01*
X63618Y-38840D01*
X63603Y-38813D01*
X63594Y-38783D01*
X63591Y-38752D01*
X63593Y-38722D01*
X63602Y-38692D01*
X63616Y-38664D01*
X63635Y-38639D01*
X63659Y-38619D01*
X63686Y-38604D01*
X63716Y-38594D01*
X63747Y-38591D01*
X63777Y-38593D01*
X63807Y-38601D01*
X63835Y-38615D01*
X63860Y-38635D01*
X63880Y-38658D01*
X63896Y-38685D01*
X63906Y-38715D01*
X63909Y-38746D01*
X63910Y-38750D01*
X22750Y-33800D02*
X22750Y-34200D01*
X22950Y-34000D02*
X22550Y-34000D01*
X22750Y-34800D02*
X22750Y-35200D01*
X22950Y-35000D02*
X22550Y-35000D01*
X22750Y-35800D02*
X22750Y-36200D01*
X22950Y-36000D02*
X22550Y-36000D01*
X22750Y-36800D02*
X22750Y-37200D01*
X22950Y-37000D02*
X22550Y-37000D01*
X22750Y-37800D02*
X22750Y-38200D01*
X22950Y-38000D02*
X22550Y-38000D01*
X22750Y-38800D02*
X22750Y-39200D01*
X22950Y-39000D02*
X22550Y-39000D01*
X22750Y-39800D02*
X22750Y-40200D01*
X22950Y-40000D02*
X22550Y-40000D01*
X23750Y-33800D02*
X23750Y-34200D01*
X23950Y-34000D02*
X23550Y-34000D01*
X23750Y-34800D02*
X23750Y-35200D01*
X23950Y-35000D02*
X23550Y-35000D01*
X23750Y-35800D02*
X23750Y-36200D01*
X23950Y-36000D02*
X23550Y-36000D01*
X23750Y-36800D02*
X23750Y-37200D01*
X23950Y-37000D02*
X23550Y-37000D01*
X23750Y-37800D02*
X23750Y-38200D01*
X23950Y-38000D02*
X23550Y-38000D01*
X23750Y-38800D02*
X23750Y-39200D01*
X23950Y-39000D02*
X23550Y-39000D01*
X23750Y-39800D02*
X23750Y-40200D01*
X23950Y-40000D02*
X23550Y-40000D01*
X26500Y-23300D02*
X26500Y-23700D01*
X26700Y-23500D02*
X26300Y-23500D01*
X27500Y-23300D02*
X27500Y-23700D01*
X27700Y-23500D02*
X27300Y-23500D01*
X28500Y-23300D02*
X28500Y-23700D01*
X28700Y-23500D02*
X28300Y-23500D01*
X29500Y-23300D02*
X29500Y-23700D01*
X29700Y-23500D02*
X29300Y-23500D01*
X30000Y-46300D02*
X30000Y-46700D01*
X30200Y-46500D02*
X29800Y-46500D01*
X30500Y-23300D02*
X30500Y-23700D01*
X30700Y-23500D02*
X30300Y-23500D01*
X31000Y-46300D02*
X31000Y-46700D01*
X31200Y-46500D02*
X30800Y-46500D01*
X31500Y-23300D02*
X31500Y-23700D01*
X31700Y-23500D02*
X31300Y-23500D01*
X32500Y-23300D02*
X32500Y-23700D01*
X32700Y-23500D02*
X32300Y-23500D01*
X43250Y-48300D02*
X43250Y-48700D01*
X43450Y-48500D02*
X43050Y-48500D01*
X44250Y-48300D02*
X44250Y-48700D01*
X44450Y-48500D02*
X44050Y-48500D01*
X49500Y-48300D02*
X49500Y-48700D01*
X49700Y-48500D02*
X49300Y-48500D01*
X49500Y-49300D02*
X49500Y-49700D01*
X49700Y-49500D02*
X49300Y-49500D01*
X66250Y-34050D02*
X66250Y-34450D01*
X66450Y-34250D02*
X66050Y-34250D01*
X66250Y-35050D02*
X66250Y-35450D01*
X66450Y-35250D02*
X66050Y-35250D01*
X66250Y-36050D02*
X66250Y-36450D01*
X66450Y-36250D02*
X66050Y-36250D01*
X66250Y-37050D02*
X66250Y-37450D01*
X66450Y-37250D02*
X66050Y-37250D01*
X66250Y-38050D02*
X66250Y-38450D01*
X66450Y-38250D02*
X66050Y-38250D01*
X66250Y-39050D02*
X66250Y-39450D01*
X66450Y-39250D02*
X66050Y-39250D01*
X66250Y-40050D02*
X66250Y-40450D01*
X66450Y-40250D02*
X66050Y-40250D01*
X67250Y-34050D02*
X67250Y-34450D01*
X67450Y-34250D02*
X67050Y-34250D01*
X67250Y-35050D02*
X67250Y-35450D01*
X67450Y-35250D02*
X67050Y-35250D01*
X67250Y-36050D02*
X67250Y-36450D01*
X67450Y-36250D02*
X67050Y-36250D01*
X67250Y-37050D02*
X67250Y-37450D01*
X67450Y-37250D02*
X67050Y-37250D01*
X67250Y-38050D02*
X67250Y-38450D01*
X67450Y-38250D02*
X67050Y-38250D01*
X67250Y-39050D02*
X67250Y-39450D01*
X67450Y-39250D02*
X67050Y-39250D01*
X67250Y-40050D02*
X67250Y-40450D01*
X67450Y-40250D02*
X67050Y-40250D01*
G54D12*
X20239Y-53855D02*
X20239Y-53055D01*
X20430Y-53055D01*
X20544Y-53093D01*
X20620Y-53169D01*
X20659Y-53245D01*
X20697Y-53398D01*
X20697Y-53512D01*
X20659Y-53664D01*
X20620Y-53741D01*
X20544Y-53817D01*
X20430Y-53855D01*
X20239Y-53855D01*
X21039Y-53855D02*
X21039Y-53321D01*
X21039Y-53474D02*
X21078Y-53398D01*
X21116Y-53360D01*
X21192Y-53321D01*
X21268Y-53321D01*
X21534Y-53855D02*
X21534Y-53321D01*
X21534Y-53055D02*
X21496Y-53093D01*
X21534Y-53131D01*
X21573Y-53093D01*
X21534Y-53055D01*
X21534Y-53131D01*
X22030Y-53855D02*
X21954Y-53817D01*
X21915Y-53741D01*
X21915Y-53055D01*
X22449Y-53855D02*
X22373Y-53817D01*
X22334Y-53741D01*
X22334Y-53055D01*
X23363Y-53855D02*
X23363Y-53055D01*
X23630Y-53626D01*
X23897Y-53055D01*
X23897Y-53855D01*
X24620Y-53855D02*
X24620Y-53436D01*
X24582Y-53360D01*
X24506Y-53321D01*
X24354Y-53321D01*
X24277Y-53360D01*
X24620Y-53817D02*
X24544Y-53855D01*
X24354Y-53855D01*
X24277Y-53817D01*
X24239Y-53741D01*
X24239Y-53664D01*
X24277Y-53588D01*
X24354Y-53550D01*
X24544Y-53550D01*
X24620Y-53512D01*
X25001Y-53321D02*
X25001Y-54121D01*
X25001Y-53360D02*
X25078Y-53321D01*
X25230Y-53321D01*
X25306Y-53360D01*
X25344Y-53398D01*
X25382Y-53474D01*
X25382Y-53702D01*
X25344Y-53779D01*
X25306Y-53817D01*
X25230Y-53855D01*
X25078Y-53855D01*
X25001Y-53817D01*
X25725Y-53779D02*
X25764Y-53817D01*
X25725Y-53855D01*
X25687Y-53817D01*
X25725Y-53779D01*
X25725Y-53855D01*
X25725Y-53360D02*
X25764Y-53398D01*
X25725Y-53436D01*
X25687Y-53398D01*
X25725Y-53360D01*
X25725Y-53436D01*
X19599Y-55086D02*
X19849Y-55336D01*
X19849Y-55086D02*
X19599Y-55336D01*
X20392Y-54735D02*
X20468Y-54735D01*
X20544Y-54773D01*
X20582Y-54811D01*
X20620Y-54887D01*
X20659Y-55040D01*
X20659Y-55230D01*
X20620Y-55382D01*
X20582Y-55459D01*
X20544Y-55497D01*
X20468Y-55535D01*
X20392Y-55535D01*
X20316Y-55497D01*
X20278Y-55459D01*
X20239Y-55382D01*
X20201Y-55230D01*
X20201Y-55040D01*
X20239Y-54887D01*
X20278Y-54811D01*
X20316Y-54773D01*
X20392Y-54735D01*
X21001Y-55459D02*
X21040Y-55497D01*
X21001Y-55535D01*
X20963Y-55497D01*
X21001Y-55459D01*
X21001Y-55535D01*
X21725Y-54735D02*
X21573Y-54735D01*
X21497Y-54773D01*
X21459Y-54811D01*
X21382Y-54925D01*
X21344Y-55078D01*
X21344Y-55382D01*
X21382Y-55459D01*
X21421Y-55497D01*
X21497Y-55535D01*
X21649Y-55535D01*
X21725Y-55497D01*
X21763Y-55459D01*
X21802Y-55382D01*
X21802Y-55192D01*
X21763Y-55116D01*
X21725Y-55078D01*
X21649Y-55040D01*
X21497Y-55040D01*
X21421Y-55078D01*
X21382Y-55116D01*
X21344Y-55192D01*
X22487Y-55001D02*
X22487Y-55535D01*
X22297Y-54697D02*
X22106Y-55268D01*
X22602Y-55268D01*
X22906Y-55535D02*
X22906Y-55001D01*
X22906Y-55078D02*
X22945Y-55040D01*
X23021Y-55001D01*
X23135Y-55001D01*
X23211Y-55040D01*
X23249Y-55116D01*
X23249Y-55535D01*
X23249Y-55116D02*
X23287Y-55040D01*
X23364Y-55001D01*
X23478Y-55001D01*
X23554Y-55040D01*
X23592Y-55116D01*
X23592Y-55535D01*
X23973Y-55535D02*
X23973Y-55001D01*
X23973Y-55078D02*
X24012Y-55040D01*
X24088Y-55001D01*
X24202Y-55001D01*
X24278Y-55040D01*
X24316Y-55116D01*
X24316Y-55535D01*
X24316Y-55116D02*
X24354Y-55040D01*
X24431Y-55001D01*
X24545Y-55001D01*
X24621Y-55040D01*
X24659Y-55116D01*
X24659Y-55535D01*
X26222Y-54697D02*
X25536Y-55725D01*
X27251Y-54735D02*
X27327Y-54735D01*
X27403Y-54773D01*
X27441Y-54811D01*
X27479Y-54887D01*
X27518Y-55040D01*
X27518Y-55230D01*
X27479Y-55382D01*
X27441Y-55459D01*
X27403Y-55497D01*
X27327Y-55535D01*
X27251Y-55535D01*
X27175Y-55497D01*
X27137Y-55459D01*
X27098Y-55382D01*
X27060Y-55230D01*
X27060Y-55040D01*
X27098Y-54887D01*
X27137Y-54811D01*
X27175Y-54773D01*
X27251Y-54735D01*
X27860Y-55459D02*
X27899Y-55497D01*
X27860Y-55535D01*
X27822Y-55497D01*
X27860Y-55459D01*
X27860Y-55535D01*
X28394Y-54735D02*
X28470Y-54735D01*
X28546Y-54773D01*
X28584Y-54811D01*
X28622Y-54887D01*
X28661Y-55040D01*
X28661Y-55230D01*
X28622Y-55382D01*
X28584Y-55459D01*
X28546Y-55497D01*
X28470Y-55535D01*
X28394Y-55535D01*
X28318Y-55497D01*
X28280Y-55459D01*
X28241Y-55382D01*
X28203Y-55230D01*
X28203Y-55040D01*
X28241Y-54887D01*
X28280Y-54811D01*
X28318Y-54773D01*
X28394Y-54735D01*
X28965Y-54811D02*
X29003Y-54773D01*
X29080Y-54735D01*
X29270Y-54735D01*
X29346Y-54773D01*
X29384Y-54811D01*
X29423Y-54887D01*
X29423Y-54963D01*
X29384Y-55078D01*
X28927Y-55535D01*
X29423Y-55535D01*
X30146Y-54735D02*
X29765Y-54735D01*
X29727Y-55116D01*
X29765Y-55078D01*
X29842Y-55040D01*
X30032Y-55040D01*
X30108Y-55078D01*
X30146Y-55116D01*
X30185Y-55192D01*
X30185Y-55382D01*
X30146Y-55459D01*
X30108Y-55497D01*
X30032Y-55535D01*
X29842Y-55535D01*
X29765Y-55497D01*
X29727Y-55459D01*
X30489Y-54735D02*
X30489Y-54887D01*
X30794Y-54735D02*
X30794Y-54887D01*
X31976Y-55840D02*
X31938Y-55801D01*
X31862Y-55687D01*
X31824Y-55611D01*
X31786Y-55497D01*
X31747Y-55306D01*
X31747Y-55154D01*
X31786Y-54963D01*
X31824Y-54849D01*
X31862Y-54773D01*
X31938Y-54659D01*
X31976Y-54621D01*
X32623Y-55001D02*
X32623Y-55535D01*
X32433Y-54697D02*
X32242Y-55268D01*
X32738Y-55268D01*
X33004Y-54811D02*
X33042Y-54773D01*
X33119Y-54735D01*
X33309Y-54735D01*
X33385Y-54773D01*
X33423Y-54811D01*
X33462Y-54887D01*
X33462Y-54963D01*
X33423Y-55078D01*
X32966Y-55535D01*
X33462Y-55535D01*
X34414Y-55535D02*
X34414Y-54735D01*
X34757Y-55535D02*
X34757Y-55116D01*
X34719Y-55040D01*
X34643Y-55001D01*
X34529Y-55001D01*
X34453Y-55040D01*
X34414Y-55078D01*
X35253Y-55535D02*
X35177Y-55497D01*
X35138Y-55459D01*
X35100Y-55382D01*
X35100Y-55154D01*
X35138Y-55078D01*
X35177Y-55040D01*
X35253Y-55001D01*
X35367Y-55001D01*
X35443Y-55040D01*
X35481Y-55078D01*
X35519Y-55154D01*
X35519Y-55382D01*
X35481Y-55459D01*
X35443Y-55497D01*
X35367Y-55535D01*
X35253Y-55535D01*
X35977Y-55535D02*
X35901Y-55497D01*
X35862Y-55421D01*
X35862Y-54735D01*
X36586Y-55497D02*
X36510Y-55535D01*
X36358Y-55535D01*
X36281Y-55497D01*
X36243Y-55421D01*
X36243Y-55116D01*
X36281Y-55040D01*
X36358Y-55001D01*
X36510Y-55001D01*
X36586Y-55040D01*
X36624Y-55116D01*
X36624Y-55192D01*
X36243Y-55268D01*
X36929Y-55497D02*
X37006Y-55535D01*
X37158Y-55535D01*
X37234Y-55497D01*
X37272Y-55421D01*
X37272Y-55382D01*
X37234Y-55306D01*
X37158Y-55268D01*
X37044Y-55268D01*
X36967Y-55230D01*
X36929Y-55154D01*
X36929Y-55116D01*
X36967Y-55040D01*
X37044Y-55001D01*
X37158Y-55001D01*
X37234Y-55040D01*
X37539Y-55840D02*
X37577Y-55801D01*
X37654Y-55687D01*
X37692Y-55611D01*
X37730Y-55497D01*
X37768Y-55306D01*
X37768Y-55154D01*
X37730Y-54963D01*
X37692Y-54849D01*
X37654Y-54773D01*
X37577Y-54659D01*
X37539Y-54621D01*
G54D10*
X19849Y-56266D02*
X19845Y-56297D01*
X19836Y-56326D01*
X19822Y-56354D01*
X19802Y-56378D01*
X19778Y-56398D01*
X19751Y-56413D01*
X19721Y-56422D01*
X19690Y-56425D01*
X19660Y-56423D01*
X19630Y-56414D01*
X19602Y-56399D01*
X19578Y-56380D01*
X19557Y-56356D01*
X19542Y-56329D01*
X19533Y-56299D01*
X19530Y-56268D01*
X19532Y-56238D01*
X19541Y-56208D01*
X19555Y-56180D01*
X19574Y-56155D01*
X19598Y-56135D01*
X19625Y-56120D01*
X19655Y-56110D01*
X19686Y-56107D01*
X19716Y-56109D01*
X19746Y-56117D01*
X19774Y-56131D01*
X19799Y-56151D01*
X19819Y-56174D01*
X19835Y-56201D01*
X19845Y-56231D01*
X19848Y-56262D01*
X19849Y-56266D01*
G54D12*
X20392Y-55790D02*
X20468Y-55790D01*
X20544Y-55828D01*
X20582Y-55866D01*
X20620Y-55942D01*
X20659Y-56095D01*
X20659Y-56285D01*
X20620Y-56437D01*
X20582Y-56514D01*
X20544Y-56552D01*
X20468Y-56590D01*
X20392Y-56590D01*
X20316Y-56552D01*
X20278Y-56514D01*
X20239Y-56437D01*
X20201Y-56285D01*
X20201Y-56095D01*
X20239Y-55942D01*
X20278Y-55866D01*
X20316Y-55828D01*
X20392Y-55790D01*
X21001Y-56514D02*
X21040Y-56552D01*
X21001Y-56590D01*
X20963Y-56552D01*
X21001Y-56514D01*
X21001Y-56590D01*
X21497Y-56133D02*
X21421Y-56095D01*
X21382Y-56056D01*
X21344Y-55980D01*
X21344Y-55942D01*
X21382Y-55866D01*
X21421Y-55828D01*
X21497Y-55790D01*
X21649Y-55790D01*
X21725Y-55828D01*
X21763Y-55866D01*
X21802Y-55942D01*
X21802Y-55980D01*
X21763Y-56056D01*
X21725Y-56095D01*
X21649Y-56133D01*
X21497Y-56133D01*
X21421Y-56171D01*
X21382Y-56209D01*
X21344Y-56285D01*
X21344Y-56437D01*
X21382Y-56514D01*
X21421Y-56552D01*
X21497Y-56590D01*
X21649Y-56590D01*
X21725Y-56552D01*
X21763Y-56514D01*
X21802Y-56437D01*
X21802Y-56285D01*
X21763Y-56209D01*
X21725Y-56171D01*
X21649Y-56133D01*
X22564Y-56590D02*
X22106Y-56590D01*
X22335Y-56590D02*
X22335Y-55790D01*
X22259Y-55904D01*
X22183Y-55980D01*
X22106Y-56018D01*
X22906Y-56590D02*
X22906Y-56056D01*
X22906Y-56133D02*
X22945Y-56095D01*
X23021Y-56056D01*
X23135Y-56056D01*
X23211Y-56095D01*
X23249Y-56171D01*
X23249Y-56590D01*
X23249Y-56171D02*
X23287Y-56095D01*
X23364Y-56056D01*
X23478Y-56056D01*
X23554Y-56095D01*
X23592Y-56171D01*
X23592Y-56590D01*
X23973Y-56590D02*
X23973Y-56056D01*
X23973Y-56133D02*
X24012Y-56095D01*
X24088Y-56056D01*
X24202Y-56056D01*
X24278Y-56095D01*
X24316Y-56171D01*
X24316Y-56590D01*
X24316Y-56171D02*
X24354Y-56095D01*
X24431Y-56056D01*
X24545Y-56056D01*
X24621Y-56095D01*
X24659Y-56171D01*
X24659Y-56590D01*
X26222Y-55752D02*
X25536Y-56780D01*
X27251Y-55790D02*
X27327Y-55790D01*
X27403Y-55828D01*
X27441Y-55866D01*
X27479Y-55942D01*
X27518Y-56095D01*
X27518Y-56285D01*
X27479Y-56437D01*
X27441Y-56514D01*
X27403Y-56552D01*
X27327Y-56590D01*
X27251Y-56590D01*
X27175Y-56552D01*
X27137Y-56514D01*
X27098Y-56437D01*
X27060Y-56285D01*
X27060Y-56095D01*
X27098Y-55942D01*
X27137Y-55866D01*
X27175Y-55828D01*
X27251Y-55790D01*
X27860Y-56514D02*
X27899Y-56552D01*
X27860Y-56590D01*
X27822Y-56552D01*
X27860Y-56514D01*
X27860Y-56590D01*
X28394Y-55790D02*
X28470Y-55790D01*
X28546Y-55828D01*
X28584Y-55866D01*
X28622Y-55942D01*
X28661Y-56095D01*
X28661Y-56285D01*
X28622Y-56437D01*
X28584Y-56514D01*
X28546Y-56552D01*
X28470Y-56590D01*
X28394Y-56590D01*
X28318Y-56552D01*
X28280Y-56514D01*
X28241Y-56437D01*
X28203Y-56285D01*
X28203Y-56095D01*
X28241Y-55942D01*
X28280Y-55866D01*
X28318Y-55828D01*
X28394Y-55790D01*
X28927Y-55790D02*
X29423Y-55790D01*
X29156Y-56095D01*
X29270Y-56095D01*
X29346Y-56133D01*
X29384Y-56171D01*
X29423Y-56247D01*
X29423Y-56437D01*
X29384Y-56514D01*
X29346Y-56552D01*
X29270Y-56590D01*
X29042Y-56590D01*
X28965Y-56552D01*
X28927Y-56514D01*
X29727Y-55866D02*
X29765Y-55828D01*
X29842Y-55790D01*
X30032Y-55790D01*
X30108Y-55828D01*
X30146Y-55866D01*
X30185Y-55942D01*
X30185Y-56018D01*
X30146Y-56133D01*
X29689Y-56590D01*
X30185Y-56590D01*
X30489Y-55790D02*
X30489Y-55942D01*
X30794Y-55790D02*
X30794Y-55942D01*
X31976Y-56895D02*
X31938Y-56856D01*
X31862Y-56742D01*
X31824Y-56666D01*
X31786Y-56552D01*
X31747Y-56361D01*
X31747Y-56209D01*
X31786Y-56018D01*
X31824Y-55904D01*
X31862Y-55828D01*
X31938Y-55714D01*
X31976Y-55676D01*
X32204Y-55790D02*
X32738Y-55790D01*
X32395Y-56590D01*
X33081Y-56590D02*
X33233Y-56590D01*
X33309Y-56552D01*
X33347Y-56514D01*
X33423Y-56399D01*
X33462Y-56247D01*
X33462Y-55942D01*
X33423Y-55866D01*
X33385Y-55828D01*
X33309Y-55790D01*
X33157Y-55790D01*
X33081Y-55828D01*
X33042Y-55866D01*
X33004Y-55942D01*
X33004Y-56133D01*
X33042Y-56209D01*
X33081Y-56247D01*
X33157Y-56285D01*
X33309Y-56285D01*
X33385Y-56247D01*
X33423Y-56209D01*
X33462Y-56133D01*
X34414Y-56590D02*
X34414Y-55790D01*
X34757Y-56590D02*
X34757Y-56171D01*
X34719Y-56095D01*
X34643Y-56056D01*
X34529Y-56056D01*
X34453Y-56095D01*
X34414Y-56133D01*
X35253Y-56590D02*
X35177Y-56552D01*
X35138Y-56514D01*
X35100Y-56437D01*
X35100Y-56209D01*
X35138Y-56133D01*
X35177Y-56095D01*
X35253Y-56056D01*
X35367Y-56056D01*
X35443Y-56095D01*
X35481Y-56133D01*
X35519Y-56209D01*
X35519Y-56437D01*
X35481Y-56514D01*
X35443Y-56552D01*
X35367Y-56590D01*
X35253Y-56590D01*
X35977Y-56590D02*
X35901Y-56552D01*
X35862Y-56476D01*
X35862Y-55790D01*
X36586Y-56552D02*
X36510Y-56590D01*
X36358Y-56590D01*
X36281Y-56552D01*
X36243Y-56476D01*
X36243Y-56171D01*
X36281Y-56095D01*
X36358Y-56056D01*
X36510Y-56056D01*
X36586Y-56095D01*
X36624Y-56171D01*
X36624Y-56247D01*
X36243Y-56323D01*
X36929Y-56552D02*
X37006Y-56590D01*
X37158Y-56590D01*
X37234Y-56552D01*
X37272Y-56476D01*
X37272Y-56437D01*
X37234Y-56361D01*
X37158Y-56323D01*
X37044Y-56323D01*
X36967Y-56285D01*
X36929Y-56209D01*
X36929Y-56171D01*
X36967Y-56095D01*
X37044Y-56056D01*
X37158Y-56056D01*
X37234Y-56095D01*
X37539Y-56895D02*
X37577Y-56856D01*
X37654Y-56742D01*
X37692Y-56666D01*
X37730Y-56552D01*
X37768Y-56361D01*
X37768Y-56209D01*
X37730Y-56018D01*
X37692Y-55904D01*
X37654Y-55828D01*
X37577Y-55714D01*
X37539Y-55676D01*
X19649Y-57121D02*
X19649Y-57521D01*
X19849Y-57321D02*
X19449Y-57321D01*
X20659Y-57645D02*
X20201Y-57645D01*
X20430Y-57645D02*
X20430Y-56845D01*
X20354Y-56959D01*
X20278Y-57035D01*
X20201Y-57073D01*
X21001Y-57569D02*
X21040Y-57607D01*
X21001Y-57645D01*
X20963Y-57607D01*
X21001Y-57569D01*
X21001Y-57645D01*
X21535Y-56845D02*
X21611Y-56845D01*
X21687Y-56883D01*
X21725Y-56921D01*
X21763Y-56997D01*
X21802Y-57150D01*
X21802Y-57340D01*
X21763Y-57492D01*
X21725Y-57569D01*
X21687Y-57607D01*
X21611Y-57645D01*
X21535Y-57645D01*
X21459Y-57607D01*
X21421Y-57569D01*
X21382Y-57492D01*
X21344Y-57340D01*
X21344Y-57150D01*
X21382Y-56997D01*
X21421Y-56921D01*
X21459Y-56883D01*
X21535Y-56845D01*
X22106Y-56921D02*
X22144Y-56883D01*
X22221Y-56845D01*
X22411Y-56845D01*
X22487Y-56883D01*
X22525Y-56921D01*
X22564Y-56997D01*
X22564Y-57073D01*
X22525Y-57188D01*
X22068Y-57645D01*
X22564Y-57645D01*
X22906Y-57645D02*
X22906Y-57111D01*
X22906Y-57188D02*
X22945Y-57150D01*
X23021Y-57111D01*
X23135Y-57111D01*
X23211Y-57150D01*
X23249Y-57226D01*
X23249Y-57645D01*
X23249Y-57226D02*
X23287Y-57150D01*
X23364Y-57111D01*
X23478Y-57111D01*
X23554Y-57150D01*
X23592Y-57226D01*
X23592Y-57645D01*
X23973Y-57645D02*
X23973Y-57111D01*
X23973Y-57188D02*
X24012Y-57150D01*
X24088Y-57111D01*
X24202Y-57111D01*
X24278Y-57150D01*
X24316Y-57226D01*
X24316Y-57645D01*
X24316Y-57226D02*
X24354Y-57150D01*
X24431Y-57111D01*
X24545Y-57111D01*
X24621Y-57150D01*
X24659Y-57226D01*
X24659Y-57645D01*
X26222Y-56807D02*
X25536Y-57835D01*
X27251Y-56845D02*
X27327Y-56845D01*
X27403Y-56883D01*
X27441Y-56921D01*
X27479Y-56997D01*
X27518Y-57150D01*
X27518Y-57340D01*
X27479Y-57492D01*
X27441Y-57569D01*
X27403Y-57607D01*
X27327Y-57645D01*
X27251Y-57645D01*
X27175Y-57607D01*
X27137Y-57569D01*
X27098Y-57492D01*
X27060Y-57340D01*
X27060Y-57150D01*
X27098Y-56997D01*
X27137Y-56921D01*
X27175Y-56883D01*
X27251Y-56845D01*
X27860Y-57569D02*
X27899Y-57607D01*
X27860Y-57645D01*
X27822Y-57607D01*
X27860Y-57569D01*
X27860Y-57645D01*
X28394Y-56845D02*
X28470Y-56845D01*
X28546Y-56883D01*
X28584Y-56921D01*
X28622Y-56997D01*
X28661Y-57150D01*
X28661Y-57340D01*
X28622Y-57492D01*
X28584Y-57569D01*
X28546Y-57607D01*
X28470Y-57645D01*
X28394Y-57645D01*
X28318Y-57607D01*
X28280Y-57569D01*
X28241Y-57492D01*
X28203Y-57340D01*
X28203Y-57150D01*
X28241Y-56997D01*
X28280Y-56921D01*
X28318Y-56883D01*
X28394Y-56845D01*
X29346Y-57111D02*
X29346Y-57645D01*
X29156Y-56807D02*
X28965Y-57378D01*
X29461Y-57378D01*
X29918Y-56845D02*
X29994Y-56845D01*
X30070Y-56883D01*
X30108Y-56921D01*
X30146Y-56997D01*
X30185Y-57150D01*
X30185Y-57340D01*
X30146Y-57492D01*
X30108Y-57569D01*
X30070Y-57607D01*
X29994Y-57645D01*
X29918Y-57645D01*
X29842Y-57607D01*
X29804Y-57569D01*
X29765Y-57492D01*
X29727Y-57340D01*
X29727Y-57150D01*
X29765Y-56997D01*
X29804Y-56921D01*
X29842Y-56883D01*
X29918Y-56845D01*
X30489Y-56845D02*
X30489Y-56997D01*
X30794Y-56845D02*
X30794Y-56997D01*
X31976Y-57950D02*
X31938Y-57911D01*
X31862Y-57797D01*
X31824Y-57721D01*
X31786Y-57607D01*
X31747Y-57416D01*
X31747Y-57264D01*
X31786Y-57073D01*
X31824Y-56959D01*
X31862Y-56883D01*
X31938Y-56769D01*
X31976Y-56731D01*
X32623Y-57111D02*
X32623Y-57645D01*
X32433Y-56807D02*
X32242Y-57378D01*
X32738Y-57378D01*
X33462Y-57645D02*
X33004Y-57645D01*
X33233Y-57645D02*
X33233Y-56845D01*
X33157Y-56959D01*
X33081Y-57035D01*
X33004Y-57073D01*
X34414Y-57645D02*
X34414Y-56845D01*
X34757Y-57645D02*
X34757Y-57226D01*
X34719Y-57150D01*
X34643Y-57111D01*
X34529Y-57111D01*
X34453Y-57150D01*
X34414Y-57188D01*
X35253Y-57645D02*
X35177Y-57607D01*
X35138Y-57569D01*
X35100Y-57492D01*
X35100Y-57264D01*
X35138Y-57188D01*
X35177Y-57150D01*
X35253Y-57111D01*
X35367Y-57111D01*
X35443Y-57150D01*
X35481Y-57188D01*
X35519Y-57264D01*
X35519Y-57492D01*
X35481Y-57569D01*
X35443Y-57607D01*
X35367Y-57645D01*
X35253Y-57645D01*
X35977Y-57645D02*
X35901Y-57607D01*
X35862Y-57531D01*
X35862Y-56845D01*
X36586Y-57607D02*
X36510Y-57645D01*
X36358Y-57645D01*
X36281Y-57607D01*
X36243Y-57531D01*
X36243Y-57226D01*
X36281Y-57150D01*
X36358Y-57111D01*
X36510Y-57111D01*
X36586Y-57150D01*
X36624Y-57226D01*
X36624Y-57302D01*
X36243Y-57378D01*
X36929Y-57607D02*
X37006Y-57645D01*
X37158Y-57645D01*
X37234Y-57607D01*
X37272Y-57531D01*
X37272Y-57492D01*
X37234Y-57416D01*
X37158Y-57378D01*
X37044Y-57378D01*
X36967Y-57340D01*
X36929Y-57264D01*
X36929Y-57226D01*
X36967Y-57150D01*
X37044Y-57111D01*
X37158Y-57111D01*
X37234Y-57150D01*
X37539Y-57950D02*
X37577Y-57911D01*
X37654Y-57797D01*
X37692Y-57721D01*
X37730Y-57607D01*
X37768Y-57416D01*
X37768Y-57264D01*
X37730Y-57073D01*
X37692Y-56959D01*
X37654Y-56883D01*
X37577Y-56769D01*
X37539Y-56731D01*
M02*
