G04 (created by PCBNEW-RS274X (2011-04-29 BZR 2986)-stable) date 21/02/2012 16:57:22*
G01*
G70*
G90*
%MOIN*%
G04 Gerber Fmt 3.4, Leading zero omitted, Abs format*
%FSLAX34Y34*%
G04 APERTURE LIST*
%ADD10C,0.006000*%
%ADD11C,0.015000*%
%ADD12C,0.075000*%
%ADD13R,0.090000X0.062000*%
%ADD14O,0.090000X0.062000*%
%ADD15O,0.062000X0.090000*%
%ADD16R,0.062000X0.090000*%
%ADD17C,0.070000*%
%ADD18R,0.075000X0.075000*%
%ADD19O,0.060000X0.090000*%
%ADD20C,0.128000*%
%ADD21C,0.250000*%
%ADD22C,0.215000*%
%ADD23R,0.070000X0.070000*%
%ADD24C,0.055000*%
%ADD25C,0.050000*%
G04 APERTURE END LIST*
G54D10*
G54D11*
X20000Y-51000D02*
X20000Y-21500D01*
X21500Y-52500D02*
X20000Y-51000D01*
X51000Y-52500D02*
X21500Y-52500D01*
X52500Y-51000D02*
X51000Y-52500D01*
X52500Y-21500D02*
X52500Y-51000D01*
X51000Y-20000D02*
X52500Y-21500D01*
X21500Y-20000D02*
X51000Y-20000D01*
X20000Y-21500D02*
X21500Y-20000D01*
%LPC*%
G54D12*
X41500Y-43750D03*
X43500Y-43750D03*
G54D13*
X36750Y-31250D03*
G54D14*
X36750Y-30250D03*
X36750Y-29250D03*
X36750Y-28250D03*
X33750Y-28250D03*
X33750Y-29250D03*
X33750Y-30250D03*
X33750Y-31250D03*
G54D13*
X44750Y-26750D03*
G54D14*
X44750Y-27750D03*
X44750Y-28750D03*
X44750Y-29750D03*
X44750Y-30750D03*
X44750Y-31750D03*
X44750Y-32750D03*
X44750Y-33750D03*
X47750Y-33750D03*
X47750Y-32750D03*
X47750Y-31750D03*
X47750Y-30750D03*
X47750Y-29750D03*
X47750Y-28750D03*
X47750Y-27750D03*
X47750Y-26750D03*
G54D15*
X35000Y-42000D03*
X36000Y-42000D03*
X37000Y-42000D03*
X38000Y-42000D03*
X39000Y-42000D03*
X40000Y-42000D03*
X41000Y-42000D03*
X42000Y-42000D03*
X43000Y-42000D03*
X44000Y-42000D03*
X45000Y-42000D03*
X46000Y-42000D03*
X47000Y-42000D03*
G54D16*
X34000Y-42000D03*
G54D15*
X47000Y-39000D03*
X46000Y-39000D03*
X45000Y-39000D03*
X44000Y-39000D03*
X43000Y-39000D03*
X42000Y-39000D03*
X41000Y-39000D03*
X40000Y-39000D03*
X39000Y-39000D03*
X38000Y-39000D03*
X37000Y-39000D03*
X36000Y-39000D03*
X35000Y-39000D03*
X34000Y-39000D03*
G54D17*
X27750Y-41250D03*
X27750Y-42250D03*
X28000Y-36250D03*
X28000Y-37250D03*
X46250Y-24750D03*
X46250Y-23750D03*
X38500Y-30000D03*
X38500Y-31000D03*
X41750Y-45500D03*
X40750Y-45500D03*
X43250Y-45500D03*
X44250Y-45500D03*
X42000Y-35500D03*
X43000Y-35500D03*
X27500Y-45500D03*
X27500Y-48500D03*
X33750Y-45500D03*
X36750Y-45500D03*
X32500Y-28250D03*
X32500Y-31250D03*
X34000Y-43250D03*
X31000Y-43250D03*
G54D18*
X31000Y-45500D03*
G54D12*
X32000Y-45500D03*
G54D19*
X21500Y-25000D03*
X22500Y-25000D03*
X23500Y-25000D03*
X22000Y-26000D03*
X23000Y-26000D03*
X24000Y-26000D03*
G54D20*
X21000Y-22500D03*
X25000Y-22500D03*
G54D21*
X50000Y-22500D03*
X50000Y-50000D03*
X22500Y-50000D03*
G54D22*
X30750Y-50000D03*
X41750Y-50000D03*
G54D18*
X34250Y-50500D03*
G54D12*
X34250Y-49500D03*
X35250Y-50500D03*
X35250Y-49500D03*
X36250Y-50500D03*
X36250Y-49500D03*
X37250Y-50500D03*
X37250Y-49500D03*
X38250Y-50500D03*
X38250Y-49500D03*
G54D22*
X41750Y-22500D03*
X30750Y-22500D03*
G54D18*
X38250Y-22000D03*
G54D12*
X38250Y-23000D03*
X37250Y-22000D03*
X37250Y-23000D03*
X36250Y-22000D03*
X36250Y-23000D03*
X35250Y-22000D03*
X35250Y-23000D03*
X34250Y-22000D03*
X34250Y-23000D03*
G54D18*
X49500Y-29750D03*
G54D12*
X49500Y-28750D03*
X49500Y-27750D03*
X49500Y-26750D03*
G54D18*
X24750Y-29250D03*
G54D12*
X24750Y-30250D03*
G54D18*
X24750Y-31250D03*
G54D12*
X24750Y-32250D03*
G54D18*
X24750Y-33250D03*
G54D12*
X24750Y-34250D03*
G54D18*
X24750Y-44500D03*
G54D12*
X24750Y-45500D03*
G54D18*
X24750Y-42500D03*
G54D12*
X24750Y-43500D03*
G54D18*
X24750Y-40500D03*
G54D12*
X24750Y-41500D03*
G54D18*
X24750Y-38500D03*
G54D12*
X24750Y-39500D03*
G54D18*
X24750Y-35250D03*
G54D12*
X24750Y-36250D03*
G54D18*
X24750Y-47500D03*
G54D12*
X25750Y-47500D03*
G54D18*
X29750Y-40500D03*
G54D12*
X29750Y-39500D03*
X29750Y-37500D03*
X29750Y-35500D03*
G54D23*
X38500Y-28750D03*
G54D17*
X38500Y-27750D03*
G54D23*
X47750Y-24750D03*
G54D17*
X48750Y-24750D03*
G54D23*
X43000Y-27500D03*
G54D17*
X43000Y-28500D03*
G54D23*
X43000Y-29750D03*
G54D17*
X43000Y-30750D03*
G54D23*
X42000Y-37250D03*
G54D17*
X43000Y-37250D03*
G54D23*
X43500Y-25750D03*
G54D17*
X42500Y-25750D03*
G54D23*
X43000Y-33000D03*
G54D17*
X43000Y-32000D03*
G54D23*
X28000Y-34750D03*
G54D17*
X28000Y-33750D03*
G54D23*
X27750Y-39750D03*
G54D17*
X27750Y-38750D03*
G54D24*
X37250Y-47500D03*
G54D25*
X25750Y-34000D03*
X26750Y-28750D03*
X36000Y-26250D03*
X48000Y-37250D03*
X47000Y-49250D03*
G54D24*
X27500Y-30250D03*
M02*
