G04 (created by PCBNEW-RS274X (2011-04-29 BZR 2986)-stable) date 21/02/2012 16:57:22*
G01*
G70*
G90*
%MOIN*%
G04 Gerber Fmt 3.4, Leading zero omitted, Abs format*
%FSLAX34Y34*%
G04 APERTURE LIST*
%ADD10C,0.006000*%
%ADD11C,0.015000*%
%ADD12C,0.012000*%
%ADD13C,0.005000*%
%ADD14C,0.040000*%
%ADD15C,0.010000*%
%ADD16C,0.011300*%
%ADD17C,0.008000*%
%ADD18C,0.007500*%
%ADD19C,0.075000*%
%ADD20R,0.090000X0.062000*%
%ADD21O,0.090000X0.062000*%
%ADD22O,0.062000X0.090000*%
%ADD23R,0.062000X0.090000*%
%ADD24C,0.070000*%
%ADD25R,0.075000X0.075000*%
%ADD26O,0.060000X0.090000*%
%ADD27C,0.128000*%
%ADD28C,0.250000*%
%ADD29C,0.215000*%
%ADD30R,0.070000X0.070000*%
%ADD31C,0.055000*%
%ADD32C,0.050000*%
G04 APERTURE END LIST*
G54D10*
X39750Y-43250D02*
X40250Y-42750D01*
X44750Y-42750D02*
X45250Y-43250D01*
X45250Y-44250D02*
X44750Y-44750D01*
X39750Y-44250D02*
X40250Y-44750D01*
X40250Y-42750D02*
X44750Y-42750D01*
X39750Y-43250D02*
X39750Y-44250D01*
X40250Y-44750D02*
X44750Y-44750D01*
X45250Y-44250D02*
X45250Y-43250D01*
G54D11*
X34750Y-31750D02*
X34750Y-31250D01*
X34750Y-31250D02*
X35750Y-31250D01*
X35750Y-31250D02*
X35750Y-31750D01*
X34250Y-31750D02*
X34250Y-27750D01*
X34250Y-27750D02*
X36250Y-27750D01*
X36250Y-27750D02*
X36250Y-31750D01*
X36250Y-31750D02*
X34250Y-31750D01*
X46750Y-25750D02*
X46750Y-25750D01*
X46750Y-25750D02*
X46750Y-26250D01*
X46750Y-26250D02*
X45750Y-26250D01*
X45750Y-26250D02*
X45750Y-25750D01*
X47250Y-25750D02*
X47250Y-34750D01*
X47250Y-34750D02*
X45250Y-34750D01*
X45250Y-34750D02*
X45250Y-25750D01*
X45250Y-25750D02*
X47250Y-25750D01*
X33000Y-39500D02*
X48000Y-39500D01*
X48000Y-39500D02*
X48000Y-41500D01*
X48000Y-41500D02*
X33000Y-41500D01*
X33000Y-41500D02*
X33000Y-39500D01*
X33000Y-40000D02*
X33500Y-40000D01*
X33500Y-40000D02*
X33500Y-41000D01*
X33500Y-41000D02*
X33000Y-41000D01*
G54D12*
X28250Y-40770D02*
X28250Y-42750D01*
X28250Y-42750D02*
X27250Y-42750D01*
X27250Y-42750D02*
X27250Y-40750D01*
X27250Y-40750D02*
X28250Y-40750D01*
X28000Y-40750D02*
X28250Y-41000D01*
X28500Y-35770D02*
X28500Y-37750D01*
X28500Y-37750D02*
X27500Y-37750D01*
X27500Y-37750D02*
X27500Y-35750D01*
X27500Y-35750D02*
X28500Y-35750D01*
X28250Y-35750D02*
X28500Y-36000D01*
X45750Y-25230D02*
X45750Y-23250D01*
X45750Y-23250D02*
X46750Y-23250D01*
X46750Y-23250D02*
X46750Y-25250D01*
X46750Y-25250D02*
X45750Y-25250D01*
X46000Y-25250D02*
X45750Y-25000D01*
X39000Y-29520D02*
X39000Y-31500D01*
X39000Y-31500D02*
X38000Y-31500D01*
X38000Y-31500D02*
X38000Y-29500D01*
X38000Y-29500D02*
X39000Y-29500D01*
X38750Y-29500D02*
X39000Y-29750D01*
X42230Y-46000D02*
X40250Y-46000D01*
X40250Y-46000D02*
X40250Y-45000D01*
X40250Y-45000D02*
X42250Y-45000D01*
X42250Y-45000D02*
X42250Y-46000D01*
X42250Y-45750D02*
X42000Y-46000D01*
X42770Y-45000D02*
X44750Y-45000D01*
X44750Y-45000D02*
X44750Y-46000D01*
X44750Y-46000D02*
X42750Y-46000D01*
X42750Y-46000D02*
X42750Y-45000D01*
X42750Y-45250D02*
X43000Y-45000D01*
X41520Y-35000D02*
X43500Y-35000D01*
X43500Y-35000D02*
X43500Y-36000D01*
X43500Y-36000D02*
X41500Y-36000D01*
X41500Y-36000D02*
X41500Y-35000D01*
X41500Y-35250D02*
X41750Y-35000D01*
X27500Y-45500D02*
X27500Y-45700D01*
X27500Y-48500D02*
X27500Y-48300D01*
X27500Y-48300D02*
X27900Y-48300D01*
X27900Y-48300D02*
X27900Y-45700D01*
X27900Y-45700D02*
X27100Y-45700D01*
X27100Y-45700D02*
X27100Y-48300D01*
X27100Y-48300D02*
X27500Y-48300D01*
X27700Y-45700D02*
X27900Y-45900D01*
X33750Y-45500D02*
X33950Y-45500D01*
X36750Y-45500D02*
X36550Y-45500D01*
X36550Y-45500D02*
X36550Y-45100D01*
X36550Y-45100D02*
X33950Y-45100D01*
X33950Y-45100D02*
X33950Y-45900D01*
X33950Y-45900D02*
X36550Y-45900D01*
X36550Y-45900D02*
X36550Y-45500D01*
X33950Y-45300D02*
X34150Y-45100D01*
X32500Y-28250D02*
X32500Y-28450D01*
X32500Y-31250D02*
X32500Y-31050D01*
X32500Y-31050D02*
X32900Y-31050D01*
X32900Y-31050D02*
X32900Y-28450D01*
X32900Y-28450D02*
X32100Y-28450D01*
X32100Y-28450D02*
X32100Y-31050D01*
X32100Y-31050D02*
X32500Y-31050D01*
X32700Y-28450D02*
X32900Y-28650D01*
X34000Y-43250D02*
X33800Y-43250D01*
X31000Y-43250D02*
X31200Y-43250D01*
X31200Y-43250D02*
X31200Y-43650D01*
X31200Y-43650D02*
X33800Y-43650D01*
X33800Y-43650D02*
X33800Y-42850D01*
X33800Y-42850D02*
X31200Y-42850D01*
X31200Y-42850D02*
X31200Y-43250D01*
X33800Y-43450D02*
X33600Y-43650D01*
X32500Y-45500D02*
X32480Y-45694D01*
X32424Y-45881D01*
X32332Y-46053D01*
X32209Y-46204D01*
X32059Y-46329D01*
X31887Y-46421D01*
X31701Y-46479D01*
X31506Y-46499D01*
X31313Y-46482D01*
X31126Y-46427D01*
X30953Y-46336D01*
X30801Y-46214D01*
X30675Y-46064D01*
X30581Y-45893D01*
X30522Y-45707D01*
X30501Y-45513D01*
X30517Y-45320D01*
X30571Y-45132D01*
X30660Y-44959D01*
X30781Y-44806D01*
X30930Y-44679D01*
X31100Y-44584D01*
X31286Y-44524D01*
X31480Y-44501D01*
X31673Y-44516D01*
X31861Y-44568D01*
X32035Y-44656D01*
X32189Y-44776D01*
X32317Y-44924D01*
X32413Y-45094D01*
X32475Y-45279D01*
X32499Y-45473D01*
X32500Y-45500D01*
X32500Y-45250D02*
X32250Y-45250D01*
X32250Y-45250D02*
X32250Y-45750D01*
X32250Y-45750D02*
X32500Y-45750D01*
G54D11*
X20250Y-26500D02*
X25750Y-26500D01*
X25750Y-26500D02*
X25750Y-20250D01*
X25750Y-20250D02*
X20250Y-20250D01*
X20250Y-20250D02*
X20250Y-26500D01*
X21000Y-20750D02*
X25000Y-20750D01*
X21750Y-20750D02*
X21750Y-21750D01*
X21750Y-21750D02*
X24250Y-21750D01*
X24250Y-21750D02*
X24250Y-20750D01*
X21000Y-22750D02*
X21000Y-24750D01*
X25000Y-22750D02*
X25000Y-24750D01*
X24250Y-24750D02*
X24250Y-24250D01*
X21750Y-24750D02*
X21750Y-24250D01*
X22250Y-24750D02*
X22250Y-24250D01*
X22750Y-24750D02*
X22750Y-24250D01*
X23750Y-24750D02*
X23750Y-24250D01*
X23250Y-24750D02*
X23250Y-24250D01*
X21000Y-20750D02*
X21000Y-22750D01*
X21000Y-24750D02*
X24500Y-24750D01*
X24500Y-24750D02*
X25000Y-24750D01*
X25000Y-22750D02*
X25000Y-20750D01*
X22500Y-20750D02*
X22500Y-21250D01*
X22500Y-21250D02*
X23500Y-21250D01*
X23500Y-21250D02*
X23500Y-20750D01*
X50900Y-22500D02*
X50882Y-22674D01*
X50832Y-22842D01*
X50749Y-22998D01*
X50638Y-23134D01*
X50503Y-23246D01*
X50348Y-23329D01*
X50180Y-23381D01*
X50006Y-23399D01*
X49832Y-23384D01*
X49663Y-23334D01*
X49508Y-23253D01*
X49371Y-23143D01*
X49258Y-23008D01*
X49173Y-22854D01*
X49120Y-22687D01*
X49101Y-22512D01*
X49115Y-22338D01*
X49164Y-22169D01*
X49244Y-22013D01*
X49353Y-21875D01*
X49487Y-21761D01*
X49640Y-21676D01*
X49807Y-21621D01*
X49982Y-21601D01*
X50156Y-21614D01*
X50325Y-21661D01*
X50482Y-21741D01*
X50620Y-21849D01*
X50735Y-21982D01*
X50822Y-22134D01*
X50877Y-22301D01*
X50899Y-22475D01*
X50900Y-22500D01*
X50900Y-50000D02*
X50882Y-50174D01*
X50832Y-50342D01*
X50749Y-50498D01*
X50638Y-50634D01*
X50503Y-50746D01*
X50348Y-50829D01*
X50180Y-50881D01*
X50006Y-50899D01*
X49832Y-50884D01*
X49663Y-50834D01*
X49508Y-50753D01*
X49371Y-50643D01*
X49258Y-50508D01*
X49173Y-50354D01*
X49120Y-50187D01*
X49101Y-50012D01*
X49115Y-49838D01*
X49164Y-49669D01*
X49244Y-49513D01*
X49353Y-49375D01*
X49487Y-49261D01*
X49640Y-49176D01*
X49807Y-49121D01*
X49982Y-49101D01*
X50156Y-49114D01*
X50325Y-49161D01*
X50482Y-49241D01*
X50620Y-49349D01*
X50735Y-49482D01*
X50822Y-49634D01*
X50877Y-49801D01*
X50899Y-49975D01*
X50900Y-50000D01*
X23400Y-50000D02*
X23382Y-50174D01*
X23332Y-50342D01*
X23249Y-50498D01*
X23138Y-50634D01*
X23003Y-50746D01*
X22848Y-50829D01*
X22680Y-50881D01*
X22506Y-50899D01*
X22332Y-50884D01*
X22163Y-50834D01*
X22008Y-50753D01*
X21871Y-50643D01*
X21758Y-50508D01*
X21673Y-50354D01*
X21620Y-50187D01*
X21601Y-50012D01*
X21615Y-49838D01*
X21664Y-49669D01*
X21744Y-49513D01*
X21853Y-49375D01*
X21987Y-49261D01*
X22140Y-49176D01*
X22307Y-49121D01*
X22482Y-49101D01*
X22656Y-49114D01*
X22825Y-49161D01*
X22982Y-49241D01*
X23120Y-49349D01*
X23235Y-49482D01*
X23322Y-49634D01*
X23377Y-49801D01*
X23399Y-49975D01*
X23400Y-50000D01*
G54D12*
X42550Y-48300D02*
X42550Y-51700D01*
X42550Y-51700D02*
X29950Y-51700D01*
X29950Y-48300D02*
X42550Y-48300D01*
X32750Y-51400D02*
X32750Y-48600D01*
X39750Y-51400D02*
X39750Y-48600D01*
X35250Y-51700D02*
X35250Y-51400D01*
X35250Y-51400D02*
X32750Y-51400D01*
X32750Y-48600D02*
X39750Y-48600D01*
X39750Y-51400D02*
X37250Y-51400D01*
X37250Y-51400D02*
X37250Y-51700D01*
X29950Y-51700D02*
X29950Y-48300D01*
X33650Y-50500D02*
X33150Y-50200D01*
X33150Y-50200D02*
X33150Y-50800D01*
X33150Y-50800D02*
X33650Y-50500D01*
X29950Y-24200D02*
X29950Y-20800D01*
X29950Y-20800D02*
X42550Y-20800D01*
X42550Y-24200D02*
X29950Y-24200D01*
X39750Y-21100D02*
X39750Y-23900D01*
X32750Y-21100D02*
X32750Y-23900D01*
X37250Y-20800D02*
X37250Y-21100D01*
X37250Y-21100D02*
X39750Y-21100D01*
X39750Y-23900D02*
X32750Y-23900D01*
X32750Y-21100D02*
X35250Y-21100D01*
X35250Y-21100D02*
X35250Y-20800D01*
X42550Y-20800D02*
X42550Y-24200D01*
X38850Y-22000D02*
X39350Y-22300D01*
X39350Y-22300D02*
X39350Y-21700D01*
X39350Y-21700D02*
X38850Y-22000D01*
G54D11*
X50675Y-26625D02*
X50475Y-26625D01*
X50475Y-26875D02*
X50675Y-26875D01*
X50675Y-26875D02*
X50675Y-26625D01*
X50500Y-27875D02*
X50675Y-27875D01*
X50675Y-27875D02*
X50675Y-27625D01*
X50675Y-27625D02*
X50500Y-27625D01*
X50675Y-28625D02*
X50525Y-28625D01*
X50525Y-28875D02*
X50675Y-28875D01*
X50675Y-28875D02*
X50675Y-28625D01*
X50500Y-29875D02*
X50675Y-29875D01*
X50675Y-29875D02*
X50675Y-29625D01*
X50675Y-29625D02*
X50525Y-29625D01*
G54D13*
X53750Y-27750D02*
X53750Y-29750D01*
X53250Y-27750D02*
X53250Y-29750D01*
G54D11*
X54000Y-29750D02*
X54000Y-27750D01*
X52000Y-30250D02*
X52000Y-28250D01*
X50750Y-30250D02*
X50750Y-28250D01*
G54D14*
X49500Y-27750D02*
X50500Y-27750D01*
X49500Y-28750D02*
X50500Y-28750D01*
X49500Y-26750D02*
X50500Y-26750D01*
X49500Y-29750D02*
X50500Y-29750D01*
G54D13*
X53250Y-27750D02*
X53250Y-26750D01*
X53750Y-27750D02*
X53750Y-26750D01*
G54D11*
X52000Y-29750D02*
X54000Y-29750D01*
X54000Y-27750D02*
X54000Y-26750D01*
X54000Y-26750D02*
X52000Y-26750D01*
X50750Y-30250D02*
X52000Y-30250D01*
X52000Y-28250D02*
X52000Y-26250D01*
X52000Y-26250D02*
X50750Y-26250D01*
X50750Y-28250D02*
X50750Y-26250D01*
X23750Y-30125D02*
X23575Y-30125D01*
X23575Y-30125D02*
X23575Y-30375D01*
X23575Y-30375D02*
X23725Y-30375D01*
X23750Y-29125D02*
X23575Y-29125D01*
X23575Y-29125D02*
X23575Y-29375D01*
X23575Y-29375D02*
X23750Y-29375D01*
G54D14*
X24750Y-30250D02*
X23750Y-30250D01*
X24750Y-29250D02*
X23750Y-29250D01*
G54D13*
X21000Y-29250D02*
X21000Y-30250D01*
X20500Y-29250D02*
X20500Y-30250D01*
G54D11*
X22250Y-29250D02*
X20250Y-29250D01*
X20250Y-29250D02*
X20250Y-30250D01*
X20250Y-30250D02*
X22250Y-30250D01*
X23500Y-28750D02*
X22250Y-28750D01*
X22250Y-28750D02*
X22250Y-30750D01*
X22250Y-30750D02*
X23500Y-30750D01*
X23500Y-28750D02*
X23500Y-30750D01*
X23750Y-32125D02*
X23575Y-32125D01*
X23575Y-32125D02*
X23575Y-32375D01*
X23575Y-32375D02*
X23725Y-32375D01*
X23750Y-31125D02*
X23575Y-31125D01*
X23575Y-31125D02*
X23575Y-31375D01*
X23575Y-31375D02*
X23750Y-31375D01*
G54D14*
X24750Y-32250D02*
X23750Y-32250D01*
X24750Y-31250D02*
X23750Y-31250D01*
G54D13*
X21000Y-31250D02*
X21000Y-32250D01*
X20500Y-31250D02*
X20500Y-32250D01*
G54D11*
X22250Y-31250D02*
X20250Y-31250D01*
X20250Y-31250D02*
X20250Y-32250D01*
X20250Y-32250D02*
X22250Y-32250D01*
X23500Y-30750D02*
X22250Y-30750D01*
X22250Y-30750D02*
X22250Y-32750D01*
X22250Y-32750D02*
X23500Y-32750D01*
X23500Y-30750D02*
X23500Y-32750D01*
X23750Y-34125D02*
X23575Y-34125D01*
X23575Y-34125D02*
X23575Y-34375D01*
X23575Y-34375D02*
X23725Y-34375D01*
X23750Y-33125D02*
X23575Y-33125D01*
X23575Y-33125D02*
X23575Y-33375D01*
X23575Y-33375D02*
X23750Y-33375D01*
G54D14*
X24750Y-34250D02*
X23750Y-34250D01*
X24750Y-33250D02*
X23750Y-33250D01*
G54D13*
X21000Y-33250D02*
X21000Y-34250D01*
X20500Y-33250D02*
X20500Y-34250D01*
G54D11*
X22250Y-33250D02*
X20250Y-33250D01*
X20250Y-33250D02*
X20250Y-34250D01*
X20250Y-34250D02*
X22250Y-34250D01*
X23500Y-32750D02*
X22250Y-32750D01*
X22250Y-32750D02*
X22250Y-34750D01*
X22250Y-34750D02*
X23500Y-34750D01*
X23500Y-32750D02*
X23500Y-34750D01*
X23750Y-45375D02*
X23575Y-45375D01*
X23575Y-45375D02*
X23575Y-45625D01*
X23575Y-45625D02*
X23725Y-45625D01*
X23750Y-44375D02*
X23575Y-44375D01*
X23575Y-44375D02*
X23575Y-44625D01*
X23575Y-44625D02*
X23750Y-44625D01*
G54D14*
X24750Y-45500D02*
X23750Y-45500D01*
X24750Y-44500D02*
X23750Y-44500D01*
G54D13*
X21000Y-44500D02*
X21000Y-45500D01*
X20500Y-44500D02*
X20500Y-45500D01*
G54D11*
X22250Y-44500D02*
X20250Y-44500D01*
X20250Y-44500D02*
X20250Y-45500D01*
X20250Y-45500D02*
X22250Y-45500D01*
X23500Y-44000D02*
X22250Y-44000D01*
X22250Y-44000D02*
X22250Y-46000D01*
X22250Y-46000D02*
X23500Y-46000D01*
X23500Y-44000D02*
X23500Y-46000D01*
X23750Y-43375D02*
X23575Y-43375D01*
X23575Y-43375D02*
X23575Y-43625D01*
X23575Y-43625D02*
X23725Y-43625D01*
X23750Y-42375D02*
X23575Y-42375D01*
X23575Y-42375D02*
X23575Y-42625D01*
X23575Y-42625D02*
X23750Y-42625D01*
G54D14*
X24750Y-43500D02*
X23750Y-43500D01*
X24750Y-42500D02*
X23750Y-42500D01*
G54D13*
X21000Y-42500D02*
X21000Y-43500D01*
X20500Y-42500D02*
X20500Y-43500D01*
G54D11*
X22250Y-42500D02*
X20250Y-42500D01*
X20250Y-42500D02*
X20250Y-43500D01*
X20250Y-43500D02*
X22250Y-43500D01*
X23500Y-42000D02*
X22250Y-42000D01*
X22250Y-42000D02*
X22250Y-44000D01*
X22250Y-44000D02*
X23500Y-44000D01*
X23500Y-42000D02*
X23500Y-44000D01*
X23750Y-41375D02*
X23575Y-41375D01*
X23575Y-41375D02*
X23575Y-41625D01*
X23575Y-41625D02*
X23725Y-41625D01*
X23750Y-40375D02*
X23575Y-40375D01*
X23575Y-40375D02*
X23575Y-40625D01*
X23575Y-40625D02*
X23750Y-40625D01*
G54D14*
X24750Y-41500D02*
X23750Y-41500D01*
X24750Y-40500D02*
X23750Y-40500D01*
G54D13*
X21000Y-40500D02*
X21000Y-41500D01*
X20500Y-40500D02*
X20500Y-41500D01*
G54D11*
X22250Y-40500D02*
X20250Y-40500D01*
X20250Y-40500D02*
X20250Y-41500D01*
X20250Y-41500D02*
X22250Y-41500D01*
X23500Y-40000D02*
X22250Y-40000D01*
X22250Y-40000D02*
X22250Y-42000D01*
X22250Y-42000D02*
X23500Y-42000D01*
X23500Y-40000D02*
X23500Y-42000D01*
X23750Y-39375D02*
X23575Y-39375D01*
X23575Y-39375D02*
X23575Y-39625D01*
X23575Y-39625D02*
X23725Y-39625D01*
X23750Y-38375D02*
X23575Y-38375D01*
X23575Y-38375D02*
X23575Y-38625D01*
X23575Y-38625D02*
X23750Y-38625D01*
G54D14*
X24750Y-39500D02*
X23750Y-39500D01*
X24750Y-38500D02*
X23750Y-38500D01*
G54D13*
X21000Y-38500D02*
X21000Y-39500D01*
X20500Y-38500D02*
X20500Y-39500D01*
G54D11*
X22250Y-38500D02*
X20250Y-38500D01*
X20250Y-38500D02*
X20250Y-39500D01*
X20250Y-39500D02*
X22250Y-39500D01*
X23500Y-38000D02*
X22250Y-38000D01*
X22250Y-38000D02*
X22250Y-40000D01*
X22250Y-40000D02*
X23500Y-40000D01*
X23500Y-38000D02*
X23500Y-40000D01*
X23750Y-36125D02*
X23575Y-36125D01*
X23575Y-36125D02*
X23575Y-36375D01*
X23575Y-36375D02*
X23725Y-36375D01*
X23750Y-35125D02*
X23575Y-35125D01*
X23575Y-35125D02*
X23575Y-35375D01*
X23575Y-35375D02*
X23750Y-35375D01*
G54D14*
X24750Y-36250D02*
X23750Y-36250D01*
X24750Y-35250D02*
X23750Y-35250D01*
G54D13*
X21000Y-35250D02*
X21000Y-36250D01*
X20500Y-35250D02*
X20500Y-36250D01*
G54D11*
X22250Y-35250D02*
X20250Y-35250D01*
X20250Y-35250D02*
X20250Y-36250D01*
X20250Y-36250D02*
X22250Y-36250D01*
X23500Y-34750D02*
X22250Y-34750D01*
X22250Y-34750D02*
X22250Y-36750D01*
X22250Y-36750D02*
X23500Y-36750D01*
X23500Y-34750D02*
X23500Y-36750D01*
X25625Y-48500D02*
X25625Y-48675D01*
X25625Y-48675D02*
X25875Y-48675D01*
X25875Y-48675D02*
X25875Y-48525D01*
X24625Y-48500D02*
X24625Y-48675D01*
X24625Y-48675D02*
X24875Y-48675D01*
X24875Y-48675D02*
X24875Y-48500D01*
G54D14*
X25750Y-47500D02*
X25750Y-48500D01*
X24750Y-47500D02*
X24750Y-48500D01*
G54D13*
X24750Y-51250D02*
X25750Y-51250D01*
X24750Y-51750D02*
X25750Y-51750D01*
G54D11*
X24750Y-50000D02*
X24750Y-52000D01*
X24750Y-52000D02*
X25750Y-52000D01*
X25750Y-52000D02*
X25750Y-50000D01*
X24250Y-48750D02*
X24250Y-50000D01*
X24250Y-50000D02*
X26250Y-50000D01*
X26250Y-50000D02*
X26250Y-48750D01*
X24250Y-48750D02*
X26250Y-48750D01*
G54D13*
X29250Y-41200D02*
X32250Y-41200D01*
X29250Y-33900D02*
X32250Y-33900D01*
G54D11*
X32250Y-41400D02*
X32250Y-33700D01*
X32250Y-33700D02*
X29250Y-33700D01*
X29250Y-33700D02*
X29250Y-41400D01*
X29250Y-41400D02*
X32250Y-41400D01*
G54D15*
X39501Y-28250D02*
X39481Y-28444D01*
X39425Y-28631D01*
X39333Y-28803D01*
X39210Y-28955D01*
X39059Y-29079D01*
X38887Y-29172D01*
X38701Y-29230D01*
X38506Y-29250D01*
X38313Y-29233D01*
X38126Y-29178D01*
X37952Y-29087D01*
X37800Y-28965D01*
X37675Y-28815D01*
X37580Y-28644D01*
X37521Y-28458D01*
X37500Y-28263D01*
X37516Y-28070D01*
X37570Y-27882D01*
X37659Y-27708D01*
X37780Y-27555D01*
X37929Y-27429D01*
X38100Y-27333D01*
X38286Y-27273D01*
X38480Y-27250D01*
X38673Y-27265D01*
X38861Y-27317D01*
X39036Y-27405D01*
X39190Y-27526D01*
X39317Y-27673D01*
X39414Y-27843D01*
X39476Y-28029D01*
X39500Y-28223D01*
X39501Y-28250D01*
X49251Y-24750D02*
X49231Y-24944D01*
X49175Y-25131D01*
X49083Y-25303D01*
X48960Y-25455D01*
X48809Y-25579D01*
X48637Y-25672D01*
X48451Y-25730D01*
X48256Y-25750D01*
X48063Y-25733D01*
X47876Y-25678D01*
X47702Y-25587D01*
X47550Y-25465D01*
X47425Y-25315D01*
X47330Y-25144D01*
X47271Y-24958D01*
X47250Y-24763D01*
X47266Y-24570D01*
X47320Y-24382D01*
X47409Y-24208D01*
X47530Y-24055D01*
X47679Y-23929D01*
X47850Y-23833D01*
X48036Y-23773D01*
X48230Y-23750D01*
X48423Y-23765D01*
X48611Y-23817D01*
X48786Y-23905D01*
X48940Y-24026D01*
X49067Y-24173D01*
X49164Y-24343D01*
X49226Y-24529D01*
X49250Y-24723D01*
X49251Y-24750D01*
X44001Y-28000D02*
X43981Y-28194D01*
X43925Y-28381D01*
X43833Y-28553D01*
X43710Y-28705D01*
X43559Y-28829D01*
X43387Y-28922D01*
X43201Y-28980D01*
X43006Y-29000D01*
X42813Y-28983D01*
X42626Y-28928D01*
X42452Y-28837D01*
X42300Y-28715D01*
X42175Y-28565D01*
X42080Y-28394D01*
X42021Y-28208D01*
X42000Y-28013D01*
X42016Y-27820D01*
X42070Y-27632D01*
X42159Y-27458D01*
X42280Y-27305D01*
X42429Y-27179D01*
X42600Y-27083D01*
X42786Y-27023D01*
X42980Y-27000D01*
X43173Y-27015D01*
X43361Y-27067D01*
X43536Y-27155D01*
X43690Y-27276D01*
X43817Y-27423D01*
X43914Y-27593D01*
X43976Y-27779D01*
X44000Y-27973D01*
X44001Y-28000D01*
X44001Y-30250D02*
X43981Y-30444D01*
X43925Y-30631D01*
X43833Y-30803D01*
X43710Y-30955D01*
X43559Y-31079D01*
X43387Y-31172D01*
X43201Y-31230D01*
X43006Y-31250D01*
X42813Y-31233D01*
X42626Y-31178D01*
X42452Y-31087D01*
X42300Y-30965D01*
X42175Y-30815D01*
X42080Y-30644D01*
X42021Y-30458D01*
X42000Y-30263D01*
X42016Y-30070D01*
X42070Y-29882D01*
X42159Y-29708D01*
X42280Y-29555D01*
X42429Y-29429D01*
X42600Y-29333D01*
X42786Y-29273D01*
X42980Y-29250D01*
X43173Y-29265D01*
X43361Y-29317D01*
X43536Y-29405D01*
X43690Y-29526D01*
X43817Y-29673D01*
X43914Y-29843D01*
X43976Y-30029D01*
X44000Y-30223D01*
X44001Y-30250D01*
X43501Y-37250D02*
X43481Y-37444D01*
X43425Y-37631D01*
X43333Y-37803D01*
X43210Y-37955D01*
X43059Y-38079D01*
X42887Y-38172D01*
X42701Y-38230D01*
X42506Y-38250D01*
X42313Y-38233D01*
X42126Y-38178D01*
X41952Y-38087D01*
X41800Y-37965D01*
X41675Y-37815D01*
X41580Y-37644D01*
X41521Y-37458D01*
X41500Y-37263D01*
X41516Y-37070D01*
X41570Y-36882D01*
X41659Y-36708D01*
X41780Y-36555D01*
X41929Y-36429D01*
X42100Y-36333D01*
X42286Y-36273D01*
X42480Y-36250D01*
X42673Y-36265D01*
X42861Y-36317D01*
X43036Y-36405D01*
X43190Y-36526D01*
X43317Y-36673D01*
X43414Y-36843D01*
X43476Y-37029D01*
X43500Y-37223D01*
X43501Y-37250D01*
X44001Y-25750D02*
X43981Y-25944D01*
X43925Y-26131D01*
X43833Y-26303D01*
X43710Y-26455D01*
X43559Y-26579D01*
X43387Y-26672D01*
X43201Y-26730D01*
X43006Y-26750D01*
X42813Y-26733D01*
X42626Y-26678D01*
X42452Y-26587D01*
X42300Y-26465D01*
X42175Y-26315D01*
X42080Y-26144D01*
X42021Y-25958D01*
X42000Y-25763D01*
X42016Y-25570D01*
X42070Y-25382D01*
X42159Y-25208D01*
X42280Y-25055D01*
X42429Y-24929D01*
X42600Y-24833D01*
X42786Y-24773D01*
X42980Y-24750D01*
X43173Y-24765D01*
X43361Y-24817D01*
X43536Y-24905D01*
X43690Y-25026D01*
X43817Y-25173D01*
X43914Y-25343D01*
X43976Y-25529D01*
X44000Y-25723D01*
X44001Y-25750D01*
X44001Y-32500D02*
X43981Y-32694D01*
X43925Y-32881D01*
X43833Y-33053D01*
X43710Y-33205D01*
X43559Y-33329D01*
X43387Y-33422D01*
X43201Y-33480D01*
X43006Y-33500D01*
X42813Y-33483D01*
X42626Y-33428D01*
X42452Y-33337D01*
X42300Y-33215D01*
X42175Y-33065D01*
X42080Y-32894D01*
X42021Y-32708D01*
X42000Y-32513D01*
X42016Y-32320D01*
X42070Y-32132D01*
X42159Y-31958D01*
X42280Y-31805D01*
X42429Y-31679D01*
X42600Y-31583D01*
X42786Y-31523D01*
X42980Y-31500D01*
X43173Y-31515D01*
X43361Y-31567D01*
X43536Y-31655D01*
X43690Y-31776D01*
X43817Y-31923D01*
X43914Y-32093D01*
X43976Y-32279D01*
X44000Y-32473D01*
X44001Y-32500D01*
X29001Y-34250D02*
X28981Y-34444D01*
X28925Y-34631D01*
X28833Y-34803D01*
X28710Y-34955D01*
X28559Y-35079D01*
X28387Y-35172D01*
X28201Y-35230D01*
X28006Y-35250D01*
X27813Y-35233D01*
X27626Y-35178D01*
X27452Y-35087D01*
X27300Y-34965D01*
X27175Y-34815D01*
X27080Y-34644D01*
X27021Y-34458D01*
X27000Y-34263D01*
X27016Y-34070D01*
X27070Y-33882D01*
X27159Y-33708D01*
X27280Y-33555D01*
X27429Y-33429D01*
X27600Y-33333D01*
X27786Y-33273D01*
X27980Y-33250D01*
X28173Y-33265D01*
X28361Y-33317D01*
X28536Y-33405D01*
X28690Y-33526D01*
X28817Y-33673D01*
X28914Y-33843D01*
X28976Y-34029D01*
X29000Y-34223D01*
X29001Y-34250D01*
X29000Y-39250D02*
X28976Y-39492D01*
X28905Y-39726D01*
X28791Y-39941D01*
X28636Y-40130D01*
X28448Y-40286D01*
X28234Y-40402D01*
X28001Y-40474D01*
X27758Y-40499D01*
X27516Y-40477D01*
X27282Y-40408D01*
X27066Y-40295D01*
X26876Y-40143D01*
X26719Y-39956D01*
X26602Y-39742D01*
X26528Y-39509D01*
X26501Y-39267D01*
X26521Y-39025D01*
X26588Y-38790D01*
X26700Y-38573D01*
X26851Y-38382D01*
X27037Y-38224D01*
X27250Y-38105D01*
X27482Y-38030D01*
X27724Y-38001D01*
X27967Y-38019D01*
X28202Y-38085D01*
X28419Y-38195D01*
X28612Y-38345D01*
X28771Y-38530D01*
X28891Y-38742D01*
X28968Y-38974D01*
X28999Y-39216D01*
X29000Y-39250D01*
G54D10*
X42095Y-42982D02*
X42429Y-43432D01*
X42429Y-42982D02*
X42095Y-43432D01*
X42881Y-43432D02*
X42595Y-43432D01*
X42738Y-43432D02*
X42738Y-42982D01*
X42690Y-43046D01*
X42643Y-43089D01*
X42595Y-43111D01*
X42120Y-44582D02*
X41834Y-44582D01*
X41977Y-44582D02*
X41977Y-44132D01*
X41929Y-44196D01*
X41882Y-44239D01*
X41834Y-44261D01*
X42429Y-44132D02*
X42477Y-44132D01*
X42525Y-44154D01*
X42548Y-44175D01*
X42572Y-44218D01*
X42596Y-44304D01*
X42596Y-44411D01*
X42572Y-44496D01*
X42548Y-44539D01*
X42525Y-44561D01*
X42477Y-44582D01*
X42429Y-44582D01*
X42382Y-44561D01*
X42358Y-44539D01*
X42334Y-44496D01*
X42310Y-44411D01*
X42310Y-44304D01*
X42334Y-44218D01*
X42358Y-44175D01*
X42382Y-44154D01*
X42429Y-44132D01*
X42810Y-44582D02*
X42810Y-44132D01*
X42977Y-44454D01*
X43143Y-44132D01*
X43143Y-44582D01*
G54D16*
X34907Y-32083D02*
X34907Y-32650D01*
X34929Y-32717D01*
X34950Y-32750D01*
X34993Y-32783D01*
X35079Y-32783D01*
X35121Y-32750D01*
X35143Y-32717D01*
X35164Y-32650D01*
X35164Y-32083D01*
X35357Y-32150D02*
X35378Y-32117D01*
X35421Y-32083D01*
X35528Y-32083D01*
X35571Y-32117D01*
X35592Y-32150D01*
X35614Y-32217D01*
X35614Y-32283D01*
X35592Y-32383D01*
X35335Y-32783D01*
X35614Y-32783D01*
G54D15*
X35533Y-31045D02*
X34833Y-31045D01*
X35333Y-30911D01*
X34833Y-30778D01*
X35533Y-30778D01*
X35467Y-30359D02*
X35500Y-30378D01*
X35533Y-30435D01*
X35533Y-30473D01*
X35500Y-30531D01*
X35433Y-30569D01*
X35367Y-30588D01*
X35233Y-30607D01*
X35133Y-30607D01*
X35000Y-30588D01*
X34933Y-30569D01*
X34867Y-30531D01*
X34833Y-30473D01*
X34833Y-30435D01*
X34867Y-30378D01*
X34900Y-30359D01*
X35533Y-30188D02*
X34833Y-30188D01*
X34833Y-30035D01*
X34867Y-29997D01*
X34900Y-29978D01*
X34967Y-29959D01*
X35067Y-29959D01*
X35133Y-29978D01*
X35167Y-29997D01*
X35200Y-30035D01*
X35200Y-30188D01*
X34900Y-29807D02*
X34867Y-29788D01*
X34833Y-29750D01*
X34833Y-29654D01*
X34867Y-29616D01*
X34900Y-29597D01*
X34967Y-29578D01*
X35033Y-29578D01*
X35133Y-29597D01*
X35533Y-29826D01*
X35533Y-29578D01*
X34833Y-29216D02*
X34833Y-29407D01*
X35167Y-29426D01*
X35133Y-29407D01*
X35100Y-29369D01*
X35100Y-29273D01*
X35133Y-29235D01*
X35167Y-29216D01*
X35233Y-29197D01*
X35400Y-29197D01*
X35467Y-29216D01*
X35500Y-29235D01*
X35533Y-29273D01*
X35533Y-29369D01*
X35500Y-29407D01*
X35467Y-29426D01*
X34833Y-28835D02*
X34833Y-29026D01*
X35167Y-29045D01*
X35133Y-29026D01*
X35100Y-28988D01*
X35100Y-28892D01*
X35133Y-28854D01*
X35167Y-28835D01*
X35233Y-28816D01*
X35400Y-28816D01*
X35467Y-28835D01*
X35500Y-28854D01*
X35533Y-28892D01*
X35533Y-28988D01*
X35500Y-29026D01*
X35467Y-29045D01*
X35533Y-28435D02*
X35533Y-28664D01*
X35533Y-28550D02*
X34833Y-28550D01*
X34933Y-28588D01*
X35000Y-28626D01*
X35033Y-28664D01*
G54D16*
X46393Y-28093D02*
X46879Y-28093D01*
X46936Y-28071D01*
X46964Y-28050D01*
X46993Y-28007D01*
X46993Y-27921D01*
X46964Y-27879D01*
X46936Y-27857D01*
X46879Y-27836D01*
X46393Y-27836D01*
X46593Y-27429D02*
X46993Y-27429D01*
X46364Y-27536D02*
X46793Y-27643D01*
X46793Y-27365D01*
X45993Y-31951D02*
X45393Y-31951D01*
X45821Y-31801D01*
X45393Y-31651D01*
X45993Y-31651D01*
X45821Y-31458D02*
X45821Y-31244D01*
X45993Y-31501D02*
X45393Y-31351D01*
X45993Y-31201D01*
X45393Y-31094D02*
X45993Y-30794D01*
X45393Y-30794D02*
X45993Y-31094D01*
X45450Y-30643D02*
X45421Y-30622D01*
X45393Y-30579D01*
X45393Y-30472D01*
X45421Y-30429D01*
X45450Y-30408D01*
X45507Y-30386D01*
X45564Y-30386D01*
X45650Y-30408D01*
X45993Y-30665D01*
X45993Y-30386D01*
X45393Y-30236D02*
X45393Y-29957D01*
X45621Y-30107D01*
X45621Y-30043D01*
X45650Y-30000D01*
X45679Y-29979D01*
X45736Y-29957D01*
X45879Y-29957D01*
X45936Y-29979D01*
X45964Y-30000D01*
X45993Y-30043D01*
X45993Y-30171D01*
X45964Y-30214D01*
X45936Y-30236D01*
X45450Y-29785D02*
X45421Y-29764D01*
X45393Y-29721D01*
X45393Y-29614D01*
X45421Y-29571D01*
X45450Y-29550D01*
X45507Y-29528D01*
X45564Y-29528D01*
X45650Y-29550D01*
X45993Y-29807D01*
X45993Y-29528D01*
X35657Y-40143D02*
X35657Y-40629D01*
X35679Y-40686D01*
X35700Y-40714D01*
X35743Y-40743D01*
X35829Y-40743D01*
X35871Y-40714D01*
X35893Y-40686D01*
X35914Y-40629D01*
X35914Y-40143D01*
X36342Y-40143D02*
X36128Y-40143D01*
X36107Y-40429D01*
X36128Y-40400D01*
X36171Y-40371D01*
X36278Y-40371D01*
X36321Y-40400D01*
X36342Y-40429D01*
X36364Y-40486D01*
X36364Y-40629D01*
X36342Y-40686D01*
X36321Y-40714D01*
X36278Y-40743D01*
X36171Y-40743D01*
X36128Y-40714D01*
X36107Y-40686D01*
X41535Y-40743D02*
X41535Y-40143D01*
X41707Y-40143D01*
X41749Y-40171D01*
X41771Y-40200D01*
X41792Y-40257D01*
X41792Y-40343D01*
X41771Y-40400D01*
X41749Y-40429D01*
X41707Y-40457D01*
X41535Y-40457D01*
X41985Y-40743D02*
X41985Y-40143D01*
X42456Y-40686D02*
X42435Y-40714D01*
X42371Y-40743D01*
X42328Y-40743D01*
X42263Y-40714D01*
X42221Y-40657D01*
X42199Y-40600D01*
X42178Y-40486D01*
X42178Y-40400D01*
X42199Y-40286D01*
X42221Y-40229D01*
X42263Y-40171D01*
X42328Y-40143D01*
X42371Y-40143D01*
X42435Y-40171D01*
X42456Y-40200D01*
X42885Y-40743D02*
X42628Y-40743D01*
X42756Y-40743D02*
X42756Y-40143D01*
X42713Y-40229D01*
X42671Y-40286D01*
X42628Y-40314D01*
X43142Y-40400D02*
X43100Y-40371D01*
X43078Y-40343D01*
X43057Y-40286D01*
X43057Y-40257D01*
X43078Y-40200D01*
X43100Y-40171D01*
X43142Y-40143D01*
X43228Y-40143D01*
X43271Y-40171D01*
X43292Y-40200D01*
X43314Y-40257D01*
X43314Y-40286D01*
X43292Y-40343D01*
X43271Y-40371D01*
X43228Y-40400D01*
X43142Y-40400D01*
X43100Y-40429D01*
X43078Y-40457D01*
X43057Y-40514D01*
X43057Y-40629D01*
X43078Y-40686D01*
X43100Y-40714D01*
X43142Y-40743D01*
X43228Y-40743D01*
X43271Y-40714D01*
X43292Y-40686D01*
X43314Y-40629D01*
X43314Y-40514D01*
X43292Y-40457D01*
X43271Y-40429D01*
X43228Y-40400D01*
X43657Y-40429D02*
X43507Y-40429D01*
X43507Y-40743D02*
X43507Y-40143D01*
X43721Y-40143D01*
X43872Y-40200D02*
X43893Y-40171D01*
X43936Y-40143D01*
X44043Y-40143D01*
X44086Y-40171D01*
X44107Y-40200D01*
X44129Y-40257D01*
X44129Y-40314D01*
X44107Y-40400D01*
X43850Y-40743D01*
X44129Y-40743D01*
X44536Y-40143D02*
X44322Y-40143D01*
X44301Y-40429D01*
X44322Y-40400D01*
X44365Y-40371D01*
X44472Y-40371D01*
X44515Y-40400D01*
X44536Y-40429D01*
X44558Y-40486D01*
X44558Y-40629D01*
X44536Y-40686D01*
X44515Y-40714D01*
X44472Y-40743D01*
X44365Y-40743D01*
X44322Y-40714D01*
X44301Y-40686D01*
X44815Y-40400D02*
X44773Y-40371D01*
X44751Y-40343D01*
X44730Y-40286D01*
X44730Y-40257D01*
X44751Y-40200D01*
X44773Y-40171D01*
X44815Y-40143D01*
X44901Y-40143D01*
X44944Y-40171D01*
X44965Y-40200D01*
X44987Y-40257D01*
X44987Y-40286D01*
X44965Y-40343D01*
X44944Y-40371D01*
X44901Y-40400D01*
X44815Y-40400D01*
X44773Y-40429D01*
X44751Y-40457D01*
X44730Y-40514D01*
X44730Y-40629D01*
X44751Y-40686D01*
X44773Y-40714D01*
X44815Y-40743D01*
X44901Y-40743D01*
X44944Y-40714D01*
X44965Y-40686D01*
X44987Y-40629D01*
X44987Y-40514D01*
X44965Y-40457D01*
X44944Y-40429D01*
X44901Y-40400D01*
G54D17*
X27124Y-42007D02*
X27143Y-42026D01*
X27162Y-42083D01*
X27162Y-42121D01*
X27143Y-42179D01*
X27105Y-42217D01*
X27067Y-42236D01*
X26990Y-42255D01*
X26933Y-42255D01*
X26857Y-42236D01*
X26819Y-42217D01*
X26781Y-42179D01*
X26762Y-42121D01*
X26762Y-42083D01*
X26781Y-42026D01*
X26800Y-42007D01*
X27162Y-41626D02*
X27162Y-41855D01*
X27162Y-41741D02*
X26762Y-41741D01*
X26819Y-41779D01*
X26857Y-41817D01*
X26876Y-41855D01*
X26762Y-41493D02*
X26762Y-41226D01*
X27162Y-41398D01*
X28450Y-42236D02*
X28431Y-42217D01*
X28412Y-42179D01*
X28412Y-42083D01*
X28431Y-42045D01*
X28450Y-42026D01*
X28488Y-42007D01*
X28526Y-42007D01*
X28583Y-42026D01*
X28812Y-42255D01*
X28812Y-42007D01*
X28412Y-41874D02*
X28412Y-41607D01*
X28812Y-41779D01*
X28545Y-41455D02*
X28945Y-41455D01*
X28564Y-41455D02*
X28545Y-41417D01*
X28545Y-41340D01*
X28564Y-41302D01*
X28583Y-41283D01*
X28621Y-41264D01*
X28736Y-41264D01*
X28774Y-41283D01*
X28793Y-41302D01*
X28812Y-41340D01*
X28812Y-41417D01*
X28793Y-41455D01*
X29024Y-37007D02*
X29043Y-37026D01*
X29062Y-37083D01*
X29062Y-37121D01*
X29043Y-37179D01*
X29005Y-37217D01*
X28967Y-37236D01*
X28890Y-37255D01*
X28833Y-37255D01*
X28757Y-37236D01*
X28719Y-37217D01*
X28681Y-37179D01*
X28662Y-37121D01*
X28662Y-37083D01*
X28681Y-37026D01*
X28700Y-37007D01*
X28700Y-36855D02*
X28681Y-36836D01*
X28662Y-36798D01*
X28662Y-36702D01*
X28681Y-36664D01*
X28700Y-36645D01*
X28738Y-36626D01*
X28776Y-36626D01*
X28833Y-36645D01*
X29062Y-36874D01*
X29062Y-36626D01*
X28662Y-36379D02*
X28662Y-36340D01*
X28681Y-36302D01*
X28700Y-36283D01*
X28738Y-36264D01*
X28814Y-36245D01*
X28910Y-36245D01*
X28986Y-36264D01*
X29024Y-36283D01*
X29043Y-36302D01*
X29062Y-36340D01*
X29062Y-36379D01*
X29043Y-36417D01*
X29024Y-36436D01*
X28986Y-36455D01*
X28910Y-36474D01*
X28814Y-36474D01*
X28738Y-36455D01*
X28700Y-36436D01*
X28681Y-36417D01*
X28662Y-36379D01*
X26800Y-37236D02*
X26781Y-37217D01*
X26762Y-37179D01*
X26762Y-37083D01*
X26781Y-37045D01*
X26800Y-37026D01*
X26838Y-37007D01*
X26876Y-37007D01*
X26933Y-37026D01*
X27162Y-37255D01*
X27162Y-37007D01*
X26762Y-36874D02*
X26762Y-36607D01*
X27162Y-36779D01*
X26895Y-36455D02*
X27295Y-36455D01*
X26914Y-36455D02*
X26895Y-36417D01*
X26895Y-36340D01*
X26914Y-36302D01*
X26933Y-36283D01*
X26971Y-36264D01*
X27086Y-36264D01*
X27124Y-36283D01*
X27143Y-36302D01*
X27162Y-36340D01*
X27162Y-36417D01*
X27143Y-36455D01*
X46374Y-22757D02*
X46393Y-22776D01*
X46412Y-22833D01*
X46412Y-22871D01*
X46393Y-22929D01*
X46355Y-22967D01*
X46317Y-22986D01*
X46240Y-23005D01*
X46183Y-23005D01*
X46107Y-22986D01*
X46069Y-22967D01*
X46031Y-22929D01*
X46012Y-22871D01*
X46012Y-22833D01*
X46031Y-22776D01*
X46050Y-22757D01*
X46412Y-22376D02*
X46412Y-22605D01*
X46412Y-22491D02*
X46012Y-22491D01*
X46069Y-22529D01*
X46107Y-22567D01*
X46126Y-22605D01*
X46012Y-22014D02*
X46012Y-22205D01*
X46202Y-22224D01*
X46183Y-22205D01*
X46164Y-22167D01*
X46164Y-22071D01*
X46183Y-22033D01*
X46202Y-22014D01*
X46240Y-21995D01*
X46336Y-21995D01*
X46374Y-22014D01*
X46393Y-22033D01*
X46412Y-22071D01*
X46412Y-22167D01*
X46393Y-22205D01*
X46374Y-22224D01*
X45150Y-24736D02*
X45131Y-24717D01*
X45112Y-24679D01*
X45112Y-24583D01*
X45131Y-24545D01*
X45150Y-24526D01*
X45188Y-24507D01*
X45226Y-24507D01*
X45283Y-24526D01*
X45512Y-24755D01*
X45512Y-24507D01*
X45112Y-24374D02*
X45112Y-24107D01*
X45512Y-24279D01*
X45245Y-23955D02*
X45645Y-23955D01*
X45264Y-23955D02*
X45245Y-23917D01*
X45245Y-23840D01*
X45264Y-23802D01*
X45283Y-23783D01*
X45321Y-23764D01*
X45436Y-23764D01*
X45474Y-23783D01*
X45493Y-23802D01*
X45512Y-23840D01*
X45512Y-23917D01*
X45493Y-23955D01*
X38624Y-32066D02*
X38643Y-32085D01*
X38662Y-32142D01*
X38662Y-32180D01*
X38643Y-32238D01*
X38605Y-32276D01*
X38567Y-32295D01*
X38490Y-32314D01*
X38433Y-32314D01*
X38357Y-32295D01*
X38319Y-32276D01*
X38281Y-32238D01*
X38262Y-32180D01*
X38262Y-32142D01*
X38281Y-32085D01*
X38300Y-32066D01*
X38262Y-31704D02*
X38262Y-31895D01*
X38452Y-31914D01*
X38433Y-31895D01*
X38414Y-31857D01*
X38414Y-31761D01*
X38433Y-31723D01*
X38452Y-31704D01*
X38490Y-31685D01*
X38586Y-31685D01*
X38624Y-31704D01*
X38643Y-31723D01*
X38662Y-31761D01*
X38662Y-31857D01*
X38643Y-31895D01*
X38624Y-31914D01*
X39200Y-30986D02*
X39181Y-30967D01*
X39162Y-30929D01*
X39162Y-30833D01*
X39181Y-30795D01*
X39200Y-30776D01*
X39238Y-30757D01*
X39276Y-30757D01*
X39333Y-30776D01*
X39562Y-31005D01*
X39562Y-30757D01*
X39162Y-30624D02*
X39162Y-30357D01*
X39562Y-30529D01*
X39295Y-30205D02*
X39695Y-30205D01*
X39314Y-30205D02*
X39295Y-30167D01*
X39295Y-30090D01*
X39314Y-30052D01*
X39333Y-30033D01*
X39371Y-30014D01*
X39486Y-30014D01*
X39524Y-30033D01*
X39543Y-30052D01*
X39562Y-30090D01*
X39562Y-30167D01*
X39543Y-30205D01*
X39684Y-45624D02*
X39665Y-45643D01*
X39608Y-45662D01*
X39570Y-45662D01*
X39512Y-45643D01*
X39474Y-45605D01*
X39455Y-45567D01*
X39436Y-45490D01*
X39436Y-45433D01*
X39455Y-45357D01*
X39474Y-45319D01*
X39512Y-45281D01*
X39570Y-45262D01*
X39608Y-45262D01*
X39665Y-45281D01*
X39684Y-45300D01*
X39817Y-45262D02*
X40084Y-45262D01*
X39912Y-45662D01*
X40764Y-46200D02*
X40783Y-46181D01*
X40821Y-46162D01*
X40917Y-46162D01*
X40955Y-46181D01*
X40974Y-46200D01*
X40993Y-46238D01*
X40993Y-46276D01*
X40974Y-46333D01*
X40745Y-46562D01*
X40993Y-46562D01*
X41126Y-46162D02*
X41393Y-46162D01*
X41221Y-46562D01*
X41545Y-46295D02*
X41545Y-46695D01*
X41545Y-46314D02*
X41583Y-46295D01*
X41660Y-46295D01*
X41698Y-46314D01*
X41717Y-46333D01*
X41736Y-46371D01*
X41736Y-46486D01*
X41717Y-46524D01*
X41698Y-46543D01*
X41660Y-46562D01*
X41583Y-46562D01*
X41545Y-46543D01*
X45184Y-45624D02*
X45165Y-45643D01*
X45108Y-45662D01*
X45070Y-45662D01*
X45012Y-45643D01*
X44974Y-45605D01*
X44955Y-45567D01*
X44936Y-45490D01*
X44936Y-45433D01*
X44955Y-45357D01*
X44974Y-45319D01*
X45012Y-45281D01*
X45070Y-45262D01*
X45108Y-45262D01*
X45165Y-45281D01*
X45184Y-45300D01*
X45412Y-45433D02*
X45374Y-45414D01*
X45355Y-45395D01*
X45336Y-45357D01*
X45336Y-45338D01*
X45355Y-45300D01*
X45374Y-45281D01*
X45412Y-45262D01*
X45489Y-45262D01*
X45527Y-45281D01*
X45546Y-45300D01*
X45565Y-45338D01*
X45565Y-45357D01*
X45546Y-45395D01*
X45527Y-45414D01*
X45489Y-45433D01*
X45412Y-45433D01*
X45374Y-45452D01*
X45355Y-45471D01*
X45336Y-45510D01*
X45336Y-45586D01*
X45355Y-45624D01*
X45374Y-45643D01*
X45412Y-45662D01*
X45489Y-45662D01*
X45527Y-45643D01*
X45546Y-45624D01*
X45565Y-45586D01*
X45565Y-45510D01*
X45546Y-45471D01*
X45527Y-45452D01*
X45489Y-45433D01*
X43264Y-46300D02*
X43283Y-46281D01*
X43321Y-46262D01*
X43417Y-46262D01*
X43455Y-46281D01*
X43474Y-46300D01*
X43493Y-46338D01*
X43493Y-46376D01*
X43474Y-46433D01*
X43245Y-46662D01*
X43493Y-46662D01*
X43626Y-46262D02*
X43893Y-46262D01*
X43721Y-46662D01*
X44045Y-46395D02*
X44045Y-46795D01*
X44045Y-46414D02*
X44083Y-46395D01*
X44160Y-46395D01*
X44198Y-46414D01*
X44217Y-46433D01*
X44236Y-46471D01*
X44236Y-46586D01*
X44217Y-46624D01*
X44198Y-46643D01*
X44160Y-46662D01*
X44083Y-46662D01*
X44045Y-46643D01*
X40493Y-35624D02*
X40474Y-35643D01*
X40417Y-35662D01*
X40379Y-35662D01*
X40321Y-35643D01*
X40283Y-35605D01*
X40264Y-35567D01*
X40245Y-35490D01*
X40245Y-35433D01*
X40264Y-35357D01*
X40283Y-35319D01*
X40321Y-35281D01*
X40379Y-35262D01*
X40417Y-35262D01*
X40474Y-35281D01*
X40493Y-35300D01*
X40874Y-35662D02*
X40645Y-35662D01*
X40759Y-35662D02*
X40759Y-35262D01*
X40721Y-35319D01*
X40683Y-35357D01*
X40645Y-35376D01*
X41026Y-35300D02*
X41045Y-35281D01*
X41083Y-35262D01*
X41179Y-35262D01*
X41217Y-35281D01*
X41236Y-35300D01*
X41255Y-35338D01*
X41255Y-35376D01*
X41236Y-35433D01*
X41007Y-35662D01*
X41255Y-35662D01*
X42014Y-34300D02*
X42033Y-34281D01*
X42071Y-34262D01*
X42167Y-34262D01*
X42205Y-34281D01*
X42224Y-34300D01*
X42243Y-34338D01*
X42243Y-34376D01*
X42224Y-34433D01*
X41995Y-34662D01*
X42243Y-34662D01*
X42376Y-34262D02*
X42643Y-34262D01*
X42471Y-34662D01*
X42795Y-34395D02*
X42795Y-34795D01*
X42795Y-34414D02*
X42833Y-34395D01*
X42910Y-34395D01*
X42948Y-34414D01*
X42967Y-34433D01*
X42986Y-34471D01*
X42986Y-34586D01*
X42967Y-34624D01*
X42948Y-34643D01*
X42910Y-34662D01*
X42833Y-34662D01*
X42795Y-34643D01*
X27723Y-47083D02*
X27461Y-47250D01*
X27723Y-47369D02*
X27173Y-47369D01*
X27173Y-47178D01*
X27199Y-47131D01*
X27225Y-47107D01*
X27277Y-47083D01*
X27356Y-47083D01*
X27408Y-47107D01*
X27435Y-47131D01*
X27461Y-47178D01*
X27461Y-47369D01*
X27723Y-46607D02*
X27723Y-46893D01*
X27723Y-46750D02*
X27173Y-46750D01*
X27251Y-46798D01*
X27304Y-46845D01*
X27330Y-46893D01*
X28723Y-47107D02*
X28723Y-47393D01*
X28723Y-47250D02*
X28173Y-47250D01*
X28251Y-47298D01*
X28304Y-47345D01*
X28330Y-47393D01*
X28723Y-46893D02*
X28173Y-46893D01*
X28723Y-46607D02*
X28408Y-46822D01*
X28173Y-46607D02*
X28487Y-46893D01*
X35167Y-45723D02*
X35000Y-45461D01*
X34881Y-45723D02*
X34881Y-45173D01*
X35072Y-45173D01*
X35119Y-45199D01*
X35143Y-45225D01*
X35167Y-45277D01*
X35167Y-45356D01*
X35143Y-45408D01*
X35119Y-45435D01*
X35072Y-45461D01*
X34881Y-45461D01*
X35595Y-45356D02*
X35595Y-45723D01*
X35476Y-45146D02*
X35357Y-45539D01*
X35667Y-45539D01*
X35143Y-44973D02*
X34857Y-44973D01*
X35000Y-44973D02*
X35000Y-44423D01*
X34952Y-44501D01*
X34905Y-44554D01*
X34857Y-44580D01*
X35357Y-44973D02*
X35357Y-44423D01*
X35643Y-44973D02*
X35428Y-44658D01*
X35643Y-44423D02*
X35357Y-44737D01*
X32723Y-29833D02*
X32461Y-30000D01*
X32723Y-30119D02*
X32173Y-30119D01*
X32173Y-29928D01*
X32199Y-29881D01*
X32225Y-29857D01*
X32277Y-29833D01*
X32356Y-29833D01*
X32408Y-29857D01*
X32435Y-29881D01*
X32461Y-29928D01*
X32461Y-30119D01*
X32225Y-29643D02*
X32199Y-29619D01*
X32173Y-29571D01*
X32173Y-29452D01*
X32199Y-29405D01*
X32225Y-29381D01*
X32277Y-29357D01*
X32330Y-29357D01*
X32408Y-29381D01*
X32723Y-29667D01*
X32723Y-29357D01*
X31973Y-29857D02*
X31973Y-30143D01*
X31973Y-30000D02*
X31423Y-30000D01*
X31501Y-30048D01*
X31554Y-30095D01*
X31580Y-30143D01*
X31973Y-29643D02*
X31423Y-29643D01*
X31973Y-29357D02*
X31658Y-29572D01*
X31423Y-29357D02*
X31737Y-29643D01*
X32417Y-43473D02*
X32250Y-43211D01*
X32131Y-43473D02*
X32131Y-42923D01*
X32322Y-42923D01*
X32369Y-42949D01*
X32393Y-42975D01*
X32417Y-43027D01*
X32417Y-43106D01*
X32393Y-43158D01*
X32369Y-43185D01*
X32322Y-43211D01*
X32131Y-43211D01*
X32583Y-42923D02*
X32893Y-42923D01*
X32726Y-43132D01*
X32798Y-43132D01*
X32845Y-43158D01*
X32869Y-43185D01*
X32893Y-43237D01*
X32893Y-43368D01*
X32869Y-43420D01*
X32845Y-43446D01*
X32798Y-43473D01*
X32655Y-43473D01*
X32607Y-43446D01*
X32583Y-43420D01*
X32107Y-42356D02*
X32107Y-42723D01*
X31988Y-42146D02*
X31869Y-42539D01*
X32179Y-42539D01*
X32321Y-42173D02*
X32655Y-42173D01*
X32440Y-42723D01*
X32845Y-42723D02*
X32845Y-42173D01*
X33131Y-42723D02*
X32916Y-42408D01*
X33131Y-42173D02*
X32845Y-42487D01*
G54D12*
X33243Y-45942D02*
X32643Y-45942D01*
X32643Y-45799D01*
X32671Y-45714D01*
X32729Y-45656D01*
X32786Y-45628D01*
X32900Y-45599D01*
X32986Y-45599D01*
X33100Y-45628D01*
X33157Y-45656D01*
X33214Y-45714D01*
X33243Y-45799D01*
X33243Y-45942D01*
X33243Y-45028D02*
X33243Y-45371D01*
X33243Y-45199D02*
X32643Y-45199D01*
X32729Y-45256D01*
X32786Y-45314D01*
X32814Y-45371D01*
X22543Y-23393D02*
X22543Y-23879D01*
X22571Y-23936D01*
X22600Y-23964D01*
X22657Y-23993D01*
X22771Y-23993D01*
X22829Y-23964D01*
X22857Y-23936D01*
X22886Y-23879D01*
X22886Y-23393D01*
X23115Y-23393D02*
X23486Y-23393D01*
X23286Y-23621D01*
X23372Y-23621D01*
X23429Y-23650D01*
X23458Y-23679D01*
X23486Y-23736D01*
X23486Y-23879D01*
X23458Y-23936D01*
X23429Y-23964D01*
X23372Y-23993D01*
X23200Y-23993D01*
X23143Y-23964D01*
X23115Y-23936D01*
X22400Y-22743D02*
X22400Y-22143D01*
X23029Y-22686D02*
X23000Y-22714D01*
X22914Y-22743D01*
X22857Y-22743D01*
X22772Y-22714D01*
X22714Y-22657D01*
X22686Y-22600D01*
X22657Y-22486D01*
X22657Y-22400D01*
X22686Y-22286D01*
X22714Y-22229D01*
X22772Y-22171D01*
X22857Y-22143D01*
X22914Y-22143D01*
X23000Y-22171D01*
X23029Y-22200D01*
X23286Y-22743D02*
X23286Y-22143D01*
X23429Y-22143D01*
X23514Y-22171D01*
X23572Y-22229D01*
X23600Y-22286D01*
X23629Y-22400D01*
X23629Y-22486D01*
X23600Y-22600D01*
X23572Y-22657D01*
X23514Y-22714D01*
X23429Y-22743D01*
X23286Y-22743D01*
G54D15*
X49124Y-22412D02*
X49124Y-22012D01*
X49258Y-22298D01*
X49391Y-22012D01*
X49391Y-22412D01*
X49581Y-22202D02*
X49715Y-22202D01*
X49772Y-22412D02*
X49581Y-22412D01*
X49581Y-22012D01*
X49772Y-22012D01*
X50172Y-22374D02*
X50153Y-22393D01*
X50096Y-22412D01*
X50058Y-22412D01*
X50000Y-22393D01*
X49962Y-22355D01*
X49943Y-22317D01*
X49924Y-22240D01*
X49924Y-22183D01*
X49943Y-22107D01*
X49962Y-22069D01*
X50000Y-22031D01*
X50058Y-22012D01*
X50096Y-22012D01*
X50153Y-22031D01*
X50172Y-22050D01*
X50324Y-22298D02*
X50515Y-22298D01*
X50286Y-22412D02*
X50419Y-22012D01*
X50553Y-22412D01*
X50896Y-22412D02*
X50667Y-22412D01*
X50781Y-22412D02*
X50781Y-22012D01*
X50743Y-22069D01*
X50705Y-22107D01*
X50667Y-22126D01*
X49124Y-49912D02*
X49124Y-49512D01*
X49258Y-49798D01*
X49391Y-49512D01*
X49391Y-49912D01*
X49581Y-49702D02*
X49715Y-49702D01*
X49772Y-49912D02*
X49581Y-49912D01*
X49581Y-49512D01*
X49772Y-49512D01*
X50172Y-49874D02*
X50153Y-49893D01*
X50096Y-49912D01*
X50058Y-49912D01*
X50000Y-49893D01*
X49962Y-49855D01*
X49943Y-49817D01*
X49924Y-49740D01*
X49924Y-49683D01*
X49943Y-49607D01*
X49962Y-49569D01*
X50000Y-49531D01*
X50058Y-49512D01*
X50096Y-49512D01*
X50153Y-49531D01*
X50172Y-49550D01*
X50324Y-49798D02*
X50515Y-49798D01*
X50286Y-49912D02*
X50419Y-49512D01*
X50553Y-49912D01*
X50648Y-49512D02*
X50896Y-49512D01*
X50762Y-49664D01*
X50820Y-49664D01*
X50858Y-49683D01*
X50877Y-49702D01*
X50896Y-49740D01*
X50896Y-49836D01*
X50877Y-49874D01*
X50858Y-49893D01*
X50820Y-49912D01*
X50705Y-49912D01*
X50667Y-49893D01*
X50648Y-49874D01*
X21624Y-49912D02*
X21624Y-49512D01*
X21758Y-49798D01*
X21891Y-49512D01*
X21891Y-49912D01*
X22081Y-49702D02*
X22215Y-49702D01*
X22272Y-49912D02*
X22081Y-49912D01*
X22081Y-49512D01*
X22272Y-49512D01*
X22672Y-49874D02*
X22653Y-49893D01*
X22596Y-49912D01*
X22558Y-49912D01*
X22500Y-49893D01*
X22462Y-49855D01*
X22443Y-49817D01*
X22424Y-49740D01*
X22424Y-49683D01*
X22443Y-49607D01*
X22462Y-49569D01*
X22500Y-49531D01*
X22558Y-49512D01*
X22596Y-49512D01*
X22653Y-49531D01*
X22672Y-49550D01*
X22824Y-49798D02*
X23015Y-49798D01*
X22786Y-49912D02*
X22919Y-49512D01*
X23053Y-49912D01*
X23167Y-49550D02*
X23186Y-49531D01*
X23224Y-49512D01*
X23320Y-49512D01*
X23358Y-49531D01*
X23377Y-49550D01*
X23396Y-49588D01*
X23396Y-49626D01*
X23377Y-49683D01*
X23148Y-49912D01*
X23396Y-49912D01*
G54D12*
X32000Y-47983D02*
X32000Y-47283D01*
X32233Y-47783D01*
X32466Y-47283D01*
X32466Y-47983D01*
X32800Y-47617D02*
X33033Y-47617D01*
X33133Y-47983D02*
X32800Y-47983D01*
X32800Y-47283D01*
X33133Y-47283D01*
X33366Y-47283D02*
X33833Y-47283D01*
X33366Y-47983D01*
X33833Y-47983D01*
X34033Y-47283D02*
X34500Y-47283D01*
X34033Y-47983D01*
X34500Y-47983D01*
X34733Y-47783D02*
X35067Y-47783D01*
X34667Y-47983D02*
X34900Y-47283D01*
X35133Y-47983D01*
X35333Y-47350D02*
X35367Y-47317D01*
X35433Y-47283D01*
X35600Y-47283D01*
X35667Y-47317D01*
X35700Y-47350D01*
X35733Y-47417D01*
X35733Y-47483D01*
X35700Y-47583D01*
X35300Y-47983D01*
X35733Y-47983D01*
X36800Y-25083D02*
X36800Y-24383D01*
X37033Y-24883D01*
X37266Y-24383D01*
X37266Y-25083D01*
X37600Y-24717D02*
X37833Y-24717D01*
X37933Y-25083D02*
X37600Y-25083D01*
X37600Y-24383D01*
X37933Y-24383D01*
X38166Y-24383D02*
X38633Y-24383D01*
X38166Y-25083D01*
X38633Y-25083D01*
X38833Y-24383D02*
X39300Y-24383D01*
X38833Y-25083D01*
X39300Y-25083D01*
X39533Y-24883D02*
X39867Y-24883D01*
X39467Y-25083D02*
X39700Y-24383D01*
X39933Y-25083D01*
X40533Y-25083D02*
X40133Y-25083D01*
X40333Y-25083D02*
X40333Y-24383D01*
X40267Y-24483D01*
X40200Y-24550D01*
X40133Y-24583D01*
G54D17*
X51392Y-28508D02*
X51042Y-28508D01*
X51392Y-28308D02*
X51192Y-28458D01*
X51042Y-28308D02*
X51242Y-28508D01*
X51392Y-27974D02*
X51392Y-28174D01*
X51392Y-28074D02*
X51042Y-28074D01*
X51092Y-28108D01*
X51125Y-28141D01*
X51142Y-28174D01*
X23142Y-30008D02*
X22792Y-30008D01*
X22792Y-29874D01*
X22808Y-29841D01*
X22825Y-29824D01*
X22858Y-29808D01*
X22908Y-29808D01*
X22942Y-29824D01*
X22958Y-29841D01*
X22975Y-29874D01*
X22975Y-30008D01*
X22825Y-29674D02*
X22808Y-29658D01*
X22792Y-29624D01*
X22792Y-29541D01*
X22808Y-29508D01*
X22825Y-29491D01*
X22858Y-29474D01*
X22892Y-29474D01*
X22942Y-29491D01*
X23142Y-29691D01*
X23142Y-29474D01*
X23142Y-32008D02*
X22792Y-32008D01*
X22792Y-31874D01*
X22808Y-31841D01*
X22825Y-31824D01*
X22858Y-31808D01*
X22908Y-31808D01*
X22942Y-31824D01*
X22958Y-31841D01*
X22975Y-31874D01*
X22975Y-32008D01*
X22792Y-31691D02*
X22792Y-31474D01*
X22925Y-31591D01*
X22925Y-31541D01*
X22942Y-31508D01*
X22958Y-31491D01*
X22992Y-31474D01*
X23075Y-31474D01*
X23108Y-31491D01*
X23125Y-31508D01*
X23142Y-31541D01*
X23142Y-31641D01*
X23125Y-31674D01*
X23108Y-31691D01*
X23142Y-34008D02*
X22792Y-34008D01*
X22792Y-33874D01*
X22808Y-33841D01*
X22825Y-33824D01*
X22858Y-33808D01*
X22908Y-33808D01*
X22942Y-33824D01*
X22958Y-33841D01*
X22975Y-33874D01*
X22975Y-34008D01*
X22908Y-33508D02*
X23142Y-33508D01*
X22775Y-33591D02*
X23025Y-33674D01*
X23025Y-33458D01*
X23142Y-45258D02*
X22792Y-45258D01*
X22792Y-45124D01*
X22808Y-45091D01*
X22825Y-45074D01*
X22858Y-45058D01*
X22908Y-45058D01*
X22942Y-45074D01*
X22958Y-45091D01*
X22975Y-45124D01*
X22975Y-45258D01*
X23142Y-44891D02*
X23142Y-44824D01*
X23125Y-44791D01*
X23108Y-44774D01*
X23058Y-44741D01*
X22992Y-44724D01*
X22858Y-44724D01*
X22825Y-44741D01*
X22808Y-44758D01*
X22792Y-44791D01*
X22792Y-44858D01*
X22808Y-44891D01*
X22825Y-44908D01*
X22858Y-44924D01*
X22942Y-44924D01*
X22975Y-44908D01*
X22992Y-44891D01*
X23008Y-44858D01*
X23008Y-44791D01*
X22992Y-44758D01*
X22975Y-44741D01*
X22942Y-44724D01*
X23142Y-43258D02*
X22792Y-43258D01*
X22792Y-43124D01*
X22808Y-43091D01*
X22825Y-43074D01*
X22858Y-43058D01*
X22908Y-43058D01*
X22942Y-43074D01*
X22958Y-43091D01*
X22975Y-43124D01*
X22975Y-43258D01*
X22942Y-42858D02*
X22925Y-42891D01*
X22908Y-42908D01*
X22875Y-42924D01*
X22858Y-42924D01*
X22825Y-42908D01*
X22808Y-42891D01*
X22792Y-42858D01*
X22792Y-42791D01*
X22808Y-42758D01*
X22825Y-42741D01*
X22858Y-42724D01*
X22875Y-42724D01*
X22908Y-42741D01*
X22925Y-42758D01*
X22942Y-42791D01*
X22942Y-42858D01*
X22958Y-42891D01*
X22975Y-42908D01*
X23008Y-42924D01*
X23075Y-42924D01*
X23108Y-42908D01*
X23125Y-42891D01*
X23142Y-42858D01*
X23142Y-42791D01*
X23125Y-42758D01*
X23108Y-42741D01*
X23075Y-42724D01*
X23008Y-42724D01*
X22975Y-42741D01*
X22958Y-42758D01*
X22942Y-42791D01*
X23142Y-41258D02*
X22792Y-41258D01*
X22792Y-41124D01*
X22808Y-41091D01*
X22825Y-41074D01*
X22858Y-41058D01*
X22908Y-41058D01*
X22942Y-41074D01*
X22958Y-41091D01*
X22975Y-41124D01*
X22975Y-41258D01*
X22792Y-40941D02*
X22792Y-40708D01*
X23142Y-40858D01*
X23142Y-39258D02*
X22792Y-39258D01*
X22792Y-39124D01*
X22808Y-39091D01*
X22825Y-39074D01*
X22858Y-39058D01*
X22908Y-39058D01*
X22942Y-39074D01*
X22958Y-39091D01*
X22975Y-39124D01*
X22975Y-39258D01*
X22792Y-38758D02*
X22792Y-38824D01*
X22808Y-38858D01*
X22825Y-38874D01*
X22875Y-38908D01*
X22942Y-38924D01*
X23075Y-38924D01*
X23108Y-38908D01*
X23125Y-38891D01*
X23142Y-38858D01*
X23142Y-38791D01*
X23125Y-38758D01*
X23108Y-38741D01*
X23075Y-38724D01*
X22992Y-38724D01*
X22958Y-38741D01*
X22942Y-38758D01*
X22925Y-38791D01*
X22925Y-38858D01*
X22942Y-38891D01*
X22958Y-38908D01*
X22992Y-38924D01*
X23142Y-36008D02*
X22792Y-36008D01*
X22792Y-35874D01*
X22808Y-35841D01*
X22825Y-35824D01*
X22858Y-35808D01*
X22908Y-35808D01*
X22942Y-35824D01*
X22958Y-35841D01*
X22975Y-35874D01*
X22975Y-36008D01*
X22792Y-35491D02*
X22792Y-35658D01*
X22958Y-35674D01*
X22942Y-35658D01*
X22925Y-35624D01*
X22925Y-35541D01*
X22942Y-35508D01*
X22958Y-35491D01*
X22992Y-35474D01*
X23075Y-35474D01*
X23108Y-35491D01*
X23125Y-35508D01*
X23142Y-35541D01*
X23142Y-35624D01*
X23125Y-35658D01*
X23108Y-35674D01*
X24992Y-49392D02*
X24992Y-49042D01*
X25126Y-49042D01*
X25159Y-49058D01*
X25176Y-49075D01*
X25192Y-49108D01*
X25192Y-49158D01*
X25176Y-49192D01*
X25159Y-49208D01*
X25126Y-49225D01*
X24992Y-49225D01*
X25526Y-49392D02*
X25326Y-49392D01*
X25426Y-49392D02*
X25426Y-49042D01*
X25392Y-49092D01*
X25359Y-49125D01*
X25326Y-49142D01*
G54D12*
X31393Y-37957D02*
X31879Y-37957D01*
X31936Y-37929D01*
X31964Y-37900D01*
X31993Y-37843D01*
X31993Y-37729D01*
X31964Y-37671D01*
X31936Y-37643D01*
X31879Y-37614D01*
X31393Y-37614D01*
X31393Y-37071D02*
X31393Y-37185D01*
X31421Y-37242D01*
X31450Y-37271D01*
X31536Y-37328D01*
X31650Y-37357D01*
X31879Y-37357D01*
X31936Y-37328D01*
X31964Y-37300D01*
X31993Y-37242D01*
X31993Y-37128D01*
X31964Y-37071D01*
X31936Y-37042D01*
X31879Y-37014D01*
X31736Y-37014D01*
X31679Y-37042D01*
X31650Y-37071D01*
X31621Y-37128D01*
X31621Y-37242D01*
X31650Y-37300D01*
X31679Y-37328D01*
X31736Y-37357D01*
X30493Y-39985D02*
X30493Y-39642D01*
X31093Y-39813D02*
X30493Y-39813D01*
X31093Y-39442D02*
X30493Y-39442D01*
X30921Y-39242D01*
X30493Y-39042D01*
X31093Y-39042D01*
X31093Y-38756D02*
X30493Y-38756D01*
X30779Y-38756D02*
X30779Y-38413D01*
X31093Y-38413D02*
X30493Y-38413D01*
X31150Y-38270D02*
X31150Y-37813D01*
X31093Y-37356D02*
X31093Y-37699D01*
X31093Y-37527D02*
X30493Y-37527D01*
X30579Y-37584D01*
X30636Y-37642D01*
X30664Y-37699D01*
X30550Y-37128D02*
X30521Y-37099D01*
X30493Y-37042D01*
X30493Y-36899D01*
X30521Y-36842D01*
X30550Y-36813D01*
X30607Y-36785D01*
X30664Y-36785D01*
X30750Y-36813D01*
X31093Y-37156D01*
X31093Y-36785D01*
X30493Y-36414D02*
X30493Y-36357D01*
X30521Y-36300D01*
X30550Y-36271D01*
X30607Y-36242D01*
X30721Y-36214D01*
X30864Y-36214D01*
X30979Y-36242D01*
X31036Y-36271D01*
X31064Y-36300D01*
X31093Y-36357D01*
X31093Y-36414D01*
X31064Y-36471D01*
X31036Y-36500D01*
X30979Y-36528D01*
X30864Y-36557D01*
X30721Y-36557D01*
X30607Y-36528D01*
X30550Y-36500D01*
X30521Y-36471D01*
X30493Y-36414D01*
X30493Y-35671D02*
X30493Y-35957D01*
X30779Y-35986D01*
X30750Y-35957D01*
X30721Y-35900D01*
X30721Y-35757D01*
X30750Y-35700D01*
X30779Y-35671D01*
X30836Y-35643D01*
X30979Y-35643D01*
X31036Y-35671D01*
X31064Y-35700D01*
X31093Y-35757D01*
X31093Y-35900D01*
X31064Y-35957D01*
X31036Y-35986D01*
X31064Y-35415D02*
X31093Y-35329D01*
X31093Y-35186D01*
X31064Y-35129D01*
X31036Y-35100D01*
X30979Y-35072D01*
X30921Y-35072D01*
X30864Y-35100D01*
X30836Y-35129D01*
X30807Y-35186D01*
X30779Y-35300D01*
X30750Y-35358D01*
X30721Y-35386D01*
X30664Y-35415D01*
X30607Y-35415D01*
X30550Y-35386D01*
X30521Y-35358D01*
X30493Y-35300D01*
X30493Y-35158D01*
X30521Y-35072D01*
G54D13*
X38094Y-28300D02*
X38108Y-28314D01*
X38122Y-28357D01*
X38122Y-28386D01*
X38108Y-28429D01*
X38080Y-28457D01*
X38051Y-28472D01*
X37994Y-28486D01*
X37951Y-28486D01*
X37894Y-28472D01*
X37865Y-28457D01*
X37837Y-28429D01*
X37822Y-28386D01*
X37822Y-28357D01*
X37837Y-28314D01*
X37851Y-28300D01*
X37822Y-28043D02*
X37822Y-28100D01*
X37837Y-28129D01*
X37851Y-28143D01*
X37894Y-28172D01*
X37951Y-28186D01*
X38065Y-28186D01*
X38094Y-28172D01*
X38108Y-28157D01*
X38122Y-28129D01*
X38122Y-28072D01*
X38108Y-28043D01*
X38094Y-28029D01*
X38065Y-28014D01*
X37994Y-28014D01*
X37965Y-28029D01*
X37951Y-28043D01*
X37937Y-28072D01*
X37937Y-28129D01*
X37951Y-28157D01*
X37965Y-28172D01*
X37994Y-28186D01*
X39121Y-28292D02*
X39121Y-28434D01*
X39121Y-28363D02*
X38821Y-28363D01*
X38864Y-28387D01*
X38893Y-28411D01*
X38907Y-28434D01*
X38921Y-28077D02*
X39121Y-28077D01*
X38921Y-28184D02*
X39079Y-28184D01*
X39107Y-28173D01*
X39121Y-28149D01*
X39121Y-28113D01*
X39107Y-28089D01*
X39093Y-28077D01*
G54D18*
X38507Y-29364D02*
X38507Y-29135D01*
X38621Y-29249D02*
X38393Y-29249D01*
G54D13*
X48057Y-24344D02*
X48043Y-24358D01*
X48000Y-24372D01*
X47971Y-24372D01*
X47928Y-24358D01*
X47900Y-24330D01*
X47885Y-24301D01*
X47871Y-24244D01*
X47871Y-24201D01*
X47885Y-24144D01*
X47900Y-24115D01*
X47928Y-24087D01*
X47971Y-24072D01*
X48000Y-24072D01*
X48043Y-24087D01*
X48057Y-24101D01*
X48343Y-24372D02*
X48171Y-24372D01*
X48257Y-24372D02*
X48257Y-24072D01*
X48228Y-24115D01*
X48200Y-24144D01*
X48171Y-24158D01*
X48600Y-24072D02*
X48543Y-24072D01*
X48514Y-24087D01*
X48500Y-24101D01*
X48471Y-24144D01*
X48457Y-24201D01*
X48457Y-24315D01*
X48471Y-24344D01*
X48486Y-24358D01*
X48514Y-24372D01*
X48571Y-24372D01*
X48600Y-24358D01*
X48614Y-24344D01*
X48629Y-24315D01*
X48629Y-24244D01*
X48614Y-24215D01*
X48600Y-24201D01*
X48571Y-24187D01*
X48514Y-24187D01*
X48486Y-24201D01*
X48471Y-24215D01*
X48457Y-24244D01*
X48208Y-25371D02*
X48066Y-25371D01*
X48137Y-25371D02*
X48137Y-25071D01*
X48113Y-25114D01*
X48089Y-25143D01*
X48066Y-25157D01*
X48423Y-25171D02*
X48423Y-25371D01*
X48316Y-25171D02*
X48316Y-25329D01*
X48327Y-25357D01*
X48351Y-25371D01*
X48387Y-25371D01*
X48411Y-25357D01*
X48423Y-25343D01*
G54D18*
X47136Y-24757D02*
X47365Y-24757D01*
X47251Y-24871D02*
X47251Y-24643D01*
G54D13*
X43592Y-28050D02*
X43606Y-28064D01*
X43620Y-28107D01*
X43620Y-28136D01*
X43606Y-28179D01*
X43578Y-28207D01*
X43549Y-28222D01*
X43492Y-28236D01*
X43449Y-28236D01*
X43392Y-28222D01*
X43363Y-28207D01*
X43335Y-28179D01*
X43320Y-28136D01*
X43320Y-28107D01*
X43335Y-28064D01*
X43349Y-28050D01*
X43620Y-27907D02*
X43620Y-27850D01*
X43606Y-27822D01*
X43592Y-27807D01*
X43549Y-27779D01*
X43492Y-27764D01*
X43378Y-27764D01*
X43349Y-27779D01*
X43335Y-27793D01*
X43320Y-27822D01*
X43320Y-27879D01*
X43335Y-27907D01*
X43349Y-27922D01*
X43378Y-27936D01*
X43449Y-27936D01*
X43478Y-27922D01*
X43492Y-27907D01*
X43506Y-27879D01*
X43506Y-27822D01*
X43492Y-27793D01*
X43478Y-27779D01*
X43449Y-27764D01*
X42621Y-28042D02*
X42621Y-28184D01*
X42621Y-28113D02*
X42321Y-28113D01*
X42364Y-28137D01*
X42393Y-28161D01*
X42407Y-28184D01*
X42421Y-27827D02*
X42621Y-27827D01*
X42421Y-27934D02*
X42579Y-27934D01*
X42607Y-27923D01*
X42621Y-27899D01*
X42621Y-27863D01*
X42607Y-27839D01*
X42593Y-27827D01*
G54D18*
X43007Y-27114D02*
X43007Y-26885D01*
X43121Y-26999D02*
X42893Y-26999D01*
G54D13*
X43592Y-30443D02*
X43606Y-30457D01*
X43620Y-30500D01*
X43620Y-30529D01*
X43606Y-30572D01*
X43578Y-30600D01*
X43549Y-30615D01*
X43492Y-30629D01*
X43449Y-30629D01*
X43392Y-30615D01*
X43363Y-30600D01*
X43335Y-30572D01*
X43320Y-30529D01*
X43320Y-30500D01*
X43335Y-30457D01*
X43349Y-30443D01*
X43620Y-30157D02*
X43620Y-30329D01*
X43620Y-30243D02*
X43320Y-30243D01*
X43363Y-30272D01*
X43392Y-30300D01*
X43406Y-30329D01*
X43320Y-29971D02*
X43320Y-29943D01*
X43335Y-29914D01*
X43349Y-29900D01*
X43378Y-29886D01*
X43435Y-29871D01*
X43506Y-29871D01*
X43563Y-29886D01*
X43592Y-29900D01*
X43606Y-29914D01*
X43620Y-29943D01*
X43620Y-29971D01*
X43606Y-30000D01*
X43592Y-30014D01*
X43563Y-30029D01*
X43506Y-30043D01*
X43435Y-30043D01*
X43378Y-30029D01*
X43349Y-30014D01*
X43335Y-30000D01*
X43320Y-29971D01*
X42621Y-30292D02*
X42621Y-30434D01*
X42621Y-30363D02*
X42321Y-30363D01*
X42364Y-30387D01*
X42393Y-30411D01*
X42407Y-30434D01*
X42421Y-30077D02*
X42621Y-30077D01*
X42421Y-30184D02*
X42579Y-30184D01*
X42607Y-30173D01*
X42621Y-30149D01*
X42621Y-30113D01*
X42607Y-30089D01*
X42593Y-30077D01*
G54D18*
X43007Y-29364D02*
X43007Y-29135D01*
X43121Y-29249D02*
X42893Y-29249D01*
G54D13*
X42307Y-36844D02*
X42293Y-36858D01*
X42250Y-36872D01*
X42221Y-36872D01*
X42178Y-36858D01*
X42150Y-36830D01*
X42135Y-36801D01*
X42121Y-36744D01*
X42121Y-36701D01*
X42135Y-36644D01*
X42150Y-36615D01*
X42178Y-36587D01*
X42221Y-36572D01*
X42250Y-36572D01*
X42293Y-36587D01*
X42307Y-36601D01*
X42593Y-36872D02*
X42421Y-36872D01*
X42507Y-36872D02*
X42507Y-36572D01*
X42478Y-36615D01*
X42450Y-36644D01*
X42421Y-36658D01*
X42879Y-36872D02*
X42707Y-36872D01*
X42793Y-36872D02*
X42793Y-36572D01*
X42764Y-36615D01*
X42736Y-36644D01*
X42707Y-36658D01*
X42458Y-37871D02*
X42316Y-37871D01*
X42387Y-37871D02*
X42387Y-37571D01*
X42363Y-37614D01*
X42339Y-37643D01*
X42316Y-37657D01*
X42673Y-37671D02*
X42673Y-37871D01*
X42566Y-37671D02*
X42566Y-37829D01*
X42577Y-37857D01*
X42601Y-37871D01*
X42637Y-37871D01*
X42661Y-37857D01*
X42673Y-37843D01*
G54D18*
X41386Y-37257D02*
X41615Y-37257D01*
X41501Y-37371D02*
X41501Y-37143D01*
G54D13*
X42807Y-26342D02*
X42793Y-26356D01*
X42750Y-26370D01*
X42721Y-26370D01*
X42678Y-26356D01*
X42650Y-26328D01*
X42635Y-26299D01*
X42621Y-26242D01*
X42621Y-26199D01*
X42635Y-26142D01*
X42650Y-26113D01*
X42678Y-26085D01*
X42721Y-26070D01*
X42750Y-26070D01*
X42793Y-26085D01*
X42807Y-26099D01*
X43093Y-26370D02*
X42921Y-26370D01*
X43007Y-26370D02*
X43007Y-26070D01*
X42978Y-26113D01*
X42950Y-26142D01*
X42921Y-26156D01*
X43193Y-26070D02*
X43379Y-26070D01*
X43279Y-26185D01*
X43321Y-26185D01*
X43350Y-26199D01*
X43364Y-26213D01*
X43379Y-26242D01*
X43379Y-26313D01*
X43364Y-26342D01*
X43350Y-26356D01*
X43321Y-26370D01*
X43236Y-26370D01*
X43207Y-26356D01*
X43193Y-26342D01*
X42958Y-25371D02*
X42816Y-25371D01*
X42887Y-25371D02*
X42887Y-25071D01*
X42863Y-25114D01*
X42839Y-25143D01*
X42816Y-25157D01*
X43173Y-25171D02*
X43173Y-25371D01*
X43066Y-25171D02*
X43066Y-25329D01*
X43077Y-25357D01*
X43101Y-25371D01*
X43137Y-25371D01*
X43161Y-25357D01*
X43173Y-25343D01*
G54D18*
X43886Y-25757D02*
X44115Y-25757D01*
X44001Y-25871D02*
X44001Y-25643D01*
G54D13*
X42594Y-32693D02*
X42608Y-32707D01*
X42622Y-32750D01*
X42622Y-32779D01*
X42608Y-32822D01*
X42580Y-32850D01*
X42551Y-32865D01*
X42494Y-32879D01*
X42451Y-32879D01*
X42394Y-32865D01*
X42365Y-32850D01*
X42337Y-32822D01*
X42322Y-32779D01*
X42322Y-32750D01*
X42337Y-32707D01*
X42351Y-32693D01*
X42622Y-32407D02*
X42622Y-32579D01*
X42622Y-32493D02*
X42322Y-32493D01*
X42365Y-32522D01*
X42394Y-32550D01*
X42408Y-32579D01*
X42422Y-32150D02*
X42622Y-32150D01*
X42308Y-32221D02*
X42522Y-32293D01*
X42522Y-32107D01*
X43621Y-32542D02*
X43621Y-32684D01*
X43621Y-32613D02*
X43321Y-32613D01*
X43364Y-32637D01*
X43393Y-32661D01*
X43407Y-32684D01*
X43421Y-32327D02*
X43621Y-32327D01*
X43421Y-32434D02*
X43579Y-32434D01*
X43607Y-32423D01*
X43621Y-32399D01*
X43621Y-32363D01*
X43607Y-32339D01*
X43593Y-32327D01*
G54D18*
X43007Y-33614D02*
X43007Y-33385D01*
X43121Y-33499D02*
X42893Y-33499D01*
G54D13*
X27594Y-34443D02*
X27608Y-34457D01*
X27622Y-34500D01*
X27622Y-34529D01*
X27608Y-34572D01*
X27580Y-34600D01*
X27551Y-34615D01*
X27494Y-34629D01*
X27451Y-34629D01*
X27394Y-34615D01*
X27365Y-34600D01*
X27337Y-34572D01*
X27322Y-34529D01*
X27322Y-34500D01*
X27337Y-34457D01*
X27351Y-34443D01*
X27622Y-34157D02*
X27622Y-34329D01*
X27622Y-34243D02*
X27322Y-34243D01*
X27365Y-34272D01*
X27394Y-34300D01*
X27408Y-34329D01*
X27622Y-34014D02*
X27622Y-33957D01*
X27608Y-33929D01*
X27594Y-33914D01*
X27551Y-33886D01*
X27494Y-33871D01*
X27380Y-33871D01*
X27351Y-33886D01*
X27337Y-33900D01*
X27322Y-33929D01*
X27322Y-33986D01*
X27337Y-34014D01*
X27351Y-34029D01*
X27380Y-34043D01*
X27451Y-34043D01*
X27480Y-34029D01*
X27494Y-34014D01*
X27508Y-33986D01*
X27508Y-33929D01*
X27494Y-33900D01*
X27480Y-33886D01*
X27451Y-33871D01*
X28621Y-34411D02*
X28621Y-34553D01*
X28621Y-34482D02*
X28321Y-34482D01*
X28364Y-34506D01*
X28393Y-34530D01*
X28407Y-34553D01*
X28321Y-34256D02*
X28321Y-34232D01*
X28336Y-34208D01*
X28350Y-34196D01*
X28379Y-34184D01*
X28436Y-34173D01*
X28507Y-34173D01*
X28564Y-34184D01*
X28593Y-34196D01*
X28607Y-34208D01*
X28621Y-34232D01*
X28621Y-34256D01*
X28607Y-34280D01*
X28593Y-34292D01*
X28564Y-34303D01*
X28507Y-34315D01*
X28436Y-34315D01*
X28379Y-34303D01*
X28350Y-34292D01*
X28336Y-34280D01*
X28321Y-34256D01*
X28421Y-33958D02*
X28621Y-33958D01*
X28421Y-34065D02*
X28579Y-34065D01*
X28607Y-34054D01*
X28621Y-34030D01*
X28621Y-33994D01*
X28607Y-33970D01*
X28593Y-33958D01*
G54D18*
X28007Y-35364D02*
X28007Y-35135D01*
X28121Y-35249D02*
X27893Y-35249D01*
G54D17*
X28689Y-39475D02*
X28711Y-39491D01*
X28732Y-39541D01*
X28732Y-39575D01*
X28711Y-39625D01*
X28668Y-39658D01*
X28625Y-39675D01*
X28539Y-39691D01*
X28475Y-39691D01*
X28389Y-39675D01*
X28346Y-39658D01*
X28304Y-39625D01*
X28282Y-39575D01*
X28282Y-39541D01*
X28304Y-39491D01*
X28325Y-39475D01*
X28732Y-39141D02*
X28732Y-39341D01*
X28732Y-39241D02*
X28282Y-39241D01*
X28346Y-39275D01*
X28389Y-39308D01*
X28411Y-39341D01*
X28475Y-38942D02*
X28454Y-38975D01*
X28432Y-38992D01*
X28389Y-39008D01*
X28368Y-39008D01*
X28325Y-38992D01*
X28304Y-38975D01*
X28282Y-38942D01*
X28282Y-38875D01*
X28304Y-38842D01*
X28325Y-38825D01*
X28368Y-38808D01*
X28389Y-38808D01*
X28432Y-38825D01*
X28454Y-38842D01*
X28475Y-38875D01*
X28475Y-38942D01*
X28496Y-38975D01*
X28518Y-38992D01*
X28561Y-39008D01*
X28646Y-39008D01*
X28689Y-38992D01*
X28711Y-38975D01*
X28732Y-38942D01*
X28732Y-38875D01*
X28711Y-38842D01*
X28689Y-38825D01*
X28646Y-38808D01*
X28561Y-38808D01*
X28518Y-38825D01*
X28496Y-38842D01*
X28475Y-38875D01*
X27232Y-39641D02*
X27232Y-39841D01*
X27232Y-39741D02*
X26782Y-39741D01*
X26846Y-39775D01*
X26889Y-39808D01*
X26911Y-39841D01*
X26782Y-39425D02*
X26782Y-39392D01*
X26804Y-39358D01*
X26825Y-39342D01*
X26868Y-39325D01*
X26954Y-39308D01*
X27061Y-39308D01*
X27146Y-39325D01*
X27189Y-39342D01*
X27211Y-39358D01*
X27232Y-39392D01*
X27232Y-39425D01*
X27211Y-39458D01*
X27189Y-39475D01*
X27146Y-39492D01*
X27061Y-39508D01*
X26954Y-39508D01*
X26868Y-39492D01*
X26825Y-39475D01*
X26804Y-39458D01*
X26782Y-39425D01*
X26782Y-39092D02*
X26782Y-39059D01*
X26804Y-39025D01*
X26825Y-39009D01*
X26868Y-38992D01*
X26954Y-38975D01*
X27061Y-38975D01*
X27146Y-38992D01*
X27189Y-39009D01*
X27211Y-39025D01*
X27232Y-39059D01*
X27232Y-39092D01*
X27211Y-39125D01*
X27189Y-39142D01*
X27146Y-39159D01*
X27061Y-39175D01*
X26954Y-39175D01*
X26868Y-39159D01*
X26825Y-39142D01*
X26804Y-39125D01*
X26782Y-39092D01*
X26932Y-38676D02*
X27232Y-38676D01*
X26932Y-38826D02*
X27168Y-38826D01*
X27211Y-38809D01*
X27232Y-38776D01*
X27232Y-38726D01*
X27211Y-38692D01*
X27189Y-38676D01*
G54D16*
X27761Y-40521D02*
X27761Y-40178D01*
X27932Y-40349D02*
X27589Y-40349D01*
%LPC*%
G54D19*
X41500Y-43750D03*
X43500Y-43750D03*
G54D20*
X36750Y-31250D03*
G54D21*
X36750Y-30250D03*
X36750Y-29250D03*
X36750Y-28250D03*
X33750Y-28250D03*
X33750Y-29250D03*
X33750Y-30250D03*
X33750Y-31250D03*
G54D20*
X44750Y-26750D03*
G54D21*
X44750Y-27750D03*
X44750Y-28750D03*
X44750Y-29750D03*
X44750Y-30750D03*
X44750Y-31750D03*
X44750Y-32750D03*
X44750Y-33750D03*
X47750Y-33750D03*
X47750Y-32750D03*
X47750Y-31750D03*
X47750Y-30750D03*
X47750Y-29750D03*
X47750Y-28750D03*
X47750Y-27750D03*
X47750Y-26750D03*
G54D22*
X35000Y-42000D03*
X36000Y-42000D03*
X37000Y-42000D03*
X38000Y-42000D03*
X39000Y-42000D03*
X40000Y-42000D03*
X41000Y-42000D03*
X42000Y-42000D03*
X43000Y-42000D03*
X44000Y-42000D03*
X45000Y-42000D03*
X46000Y-42000D03*
X47000Y-42000D03*
G54D23*
X34000Y-42000D03*
G54D22*
X47000Y-39000D03*
X46000Y-39000D03*
X45000Y-39000D03*
X44000Y-39000D03*
X43000Y-39000D03*
X42000Y-39000D03*
X41000Y-39000D03*
X40000Y-39000D03*
X39000Y-39000D03*
X38000Y-39000D03*
X37000Y-39000D03*
X36000Y-39000D03*
X35000Y-39000D03*
X34000Y-39000D03*
G54D24*
X27750Y-41250D03*
X27750Y-42250D03*
X28000Y-36250D03*
X28000Y-37250D03*
X46250Y-24750D03*
X46250Y-23750D03*
X38500Y-30000D03*
X38500Y-31000D03*
X41750Y-45500D03*
X40750Y-45500D03*
X43250Y-45500D03*
X44250Y-45500D03*
X42000Y-35500D03*
X43000Y-35500D03*
X27500Y-45500D03*
X27500Y-48500D03*
X33750Y-45500D03*
X36750Y-45500D03*
X32500Y-28250D03*
X32500Y-31250D03*
X34000Y-43250D03*
X31000Y-43250D03*
G54D25*
X31000Y-45500D03*
G54D19*
X32000Y-45500D03*
G54D26*
X21500Y-25000D03*
X22500Y-25000D03*
X23500Y-25000D03*
X22000Y-26000D03*
X23000Y-26000D03*
X24000Y-26000D03*
G54D27*
X21000Y-22500D03*
X25000Y-22500D03*
G54D28*
X50000Y-22500D03*
X50000Y-50000D03*
X22500Y-50000D03*
G54D29*
X30750Y-50000D03*
X41750Y-50000D03*
G54D25*
X34250Y-50500D03*
G54D19*
X34250Y-49500D03*
X35250Y-50500D03*
X35250Y-49500D03*
X36250Y-50500D03*
X36250Y-49500D03*
X37250Y-50500D03*
X37250Y-49500D03*
X38250Y-50500D03*
X38250Y-49500D03*
G54D29*
X41750Y-22500D03*
X30750Y-22500D03*
G54D25*
X38250Y-22000D03*
G54D19*
X38250Y-23000D03*
X37250Y-22000D03*
X37250Y-23000D03*
X36250Y-22000D03*
X36250Y-23000D03*
X35250Y-22000D03*
X35250Y-23000D03*
X34250Y-22000D03*
X34250Y-23000D03*
G54D25*
X49500Y-29750D03*
G54D19*
X49500Y-28750D03*
X49500Y-27750D03*
X49500Y-26750D03*
G54D25*
X24750Y-29250D03*
G54D19*
X24750Y-30250D03*
G54D25*
X24750Y-31250D03*
G54D19*
X24750Y-32250D03*
G54D25*
X24750Y-33250D03*
G54D19*
X24750Y-34250D03*
G54D25*
X24750Y-44500D03*
G54D19*
X24750Y-45500D03*
G54D25*
X24750Y-42500D03*
G54D19*
X24750Y-43500D03*
G54D25*
X24750Y-40500D03*
G54D19*
X24750Y-41500D03*
G54D25*
X24750Y-38500D03*
G54D19*
X24750Y-39500D03*
G54D25*
X24750Y-35250D03*
G54D19*
X24750Y-36250D03*
G54D25*
X24750Y-47500D03*
G54D19*
X25750Y-47500D03*
G54D25*
X29750Y-40500D03*
G54D19*
X29750Y-39500D03*
X29750Y-37500D03*
X29750Y-35500D03*
G54D30*
X38500Y-28750D03*
G54D24*
X38500Y-27750D03*
G54D30*
X47750Y-24750D03*
G54D24*
X48750Y-24750D03*
G54D30*
X43000Y-27500D03*
G54D24*
X43000Y-28500D03*
G54D30*
X43000Y-29750D03*
G54D24*
X43000Y-30750D03*
G54D30*
X42000Y-37250D03*
G54D24*
X43000Y-37250D03*
G54D30*
X43500Y-25750D03*
G54D24*
X42500Y-25750D03*
G54D30*
X43000Y-33000D03*
G54D24*
X43000Y-32000D03*
G54D30*
X28000Y-34750D03*
G54D24*
X28000Y-33750D03*
G54D30*
X27750Y-39750D03*
G54D24*
X27750Y-38750D03*
G54D31*
X37250Y-47500D03*
G54D32*
X25750Y-34000D03*
X26750Y-28750D03*
X36000Y-26250D03*
X48000Y-37250D03*
X47000Y-49250D03*
G54D31*
X27500Y-30250D03*
M02*
