G04 (created by PCBNEW (2012-01-19 BZR 3256)-stable) date 12/03/2013 15:19:06*
G01*
G70*
G90*
%MOIN*%
G04 Gerber Fmt 3.4, Leading zero omitted, Abs format*
%FSLAX34Y34*%
G04 APERTURE LIST*
%ADD10C,0.001000*%
%ADD11C,0.015000*%
%ADD12C,0.008000*%
G04 APERTURE END LIST*
G54D10*
G54D11*
X20000Y-27000D02*
X20750Y-27000D01*
X20000Y-51000D02*
X20000Y-27000D01*
X51000Y-52500D02*
X21500Y-52500D01*
X52500Y-21500D02*
X52500Y-51000D01*
X26500Y-20000D02*
X51000Y-20000D01*
X51000Y-20000D02*
X52500Y-21500D01*
X51000Y-52500D02*
X52500Y-51000D01*
X20000Y-51000D02*
X21500Y-52500D01*
X27250Y-27000D02*
X27250Y-20000D01*
X20750Y-27000D02*
X27250Y-27000D01*
G54D10*
X21130Y-42380D02*
X21370Y-42620D01*
X21370Y-42380D02*
X21130Y-42620D01*
X21130Y-43380D02*
X21370Y-43620D01*
X21370Y-43380D02*
X21130Y-43620D01*
X21630Y-33380D02*
X21870Y-33620D01*
X21870Y-33380D02*
X21630Y-33620D01*
X21630Y-35380D02*
X21870Y-35620D01*
X21870Y-35380D02*
X21630Y-35620D01*
X22630Y-33380D02*
X22870Y-33620D01*
X22870Y-33380D02*
X22630Y-33620D01*
X22630Y-35380D02*
X22870Y-35620D01*
X22870Y-35380D02*
X22630Y-35620D01*
X22880Y-42380D02*
X23120Y-42620D01*
X23120Y-42380D02*
X22880Y-42620D01*
X22880Y-43380D02*
X23120Y-43620D01*
X23120Y-43380D02*
X22880Y-43620D01*
X21875Y-28750D02*
X21872Y-28774D01*
X21865Y-28797D01*
X21854Y-28819D01*
X21838Y-28838D01*
X21819Y-28853D01*
X21798Y-28865D01*
X21775Y-28872D01*
X21750Y-28874D01*
X21727Y-28872D01*
X21704Y-28865D01*
X21682Y-28854D01*
X21663Y-28839D01*
X21647Y-28820D01*
X21636Y-28799D01*
X21628Y-28775D01*
X21626Y-28751D01*
X21628Y-28728D01*
X21634Y-28704D01*
X21645Y-28683D01*
X21661Y-28664D01*
X21679Y-28648D01*
X21700Y-28636D01*
X21724Y-28628D01*
X21748Y-28626D01*
X21771Y-28627D01*
X21795Y-28634D01*
X21816Y-28645D01*
X21836Y-28660D01*
X21852Y-28678D01*
X21864Y-28700D01*
X21871Y-28723D01*
X21874Y-28747D01*
X21875Y-28750D01*
X28625Y-26250D02*
X28622Y-26274D01*
X28615Y-26297D01*
X28604Y-26319D01*
X28588Y-26338D01*
X28569Y-26353D01*
X28548Y-26365D01*
X28525Y-26372D01*
X28500Y-26374D01*
X28477Y-26372D01*
X28454Y-26365D01*
X28432Y-26354D01*
X28413Y-26339D01*
X28397Y-26320D01*
X28386Y-26299D01*
X28378Y-26275D01*
X28376Y-26251D01*
X28378Y-26228D01*
X28384Y-26204D01*
X28395Y-26183D01*
X28411Y-26164D01*
X28429Y-26148D01*
X28450Y-26136D01*
X28474Y-26128D01*
X28498Y-26126D01*
X28521Y-26127D01*
X28545Y-26134D01*
X28566Y-26145D01*
X28586Y-26160D01*
X28602Y-26178D01*
X28614Y-26200D01*
X28621Y-26223D01*
X28624Y-26247D01*
X28625Y-26250D01*
X28625Y-46000D02*
X28622Y-46024D01*
X28615Y-46047D01*
X28604Y-46069D01*
X28588Y-46088D01*
X28569Y-46103D01*
X28548Y-46115D01*
X28525Y-46122D01*
X28500Y-46124D01*
X28477Y-46122D01*
X28454Y-46115D01*
X28432Y-46104D01*
X28413Y-46089D01*
X28397Y-46070D01*
X28386Y-46049D01*
X28378Y-46025D01*
X28376Y-46001D01*
X28378Y-45978D01*
X28384Y-45954D01*
X28395Y-45933D01*
X28411Y-45914D01*
X28429Y-45898D01*
X28450Y-45886D01*
X28474Y-45878D01*
X28498Y-45876D01*
X28521Y-45877D01*
X28545Y-45884D01*
X28566Y-45895D01*
X28586Y-45910D01*
X28602Y-45928D01*
X28614Y-45950D01*
X28621Y-45973D01*
X28624Y-45997D01*
X28625Y-46000D01*
X29625Y-31000D02*
X29622Y-31024D01*
X29615Y-31047D01*
X29604Y-31069D01*
X29588Y-31088D01*
X29569Y-31103D01*
X29548Y-31115D01*
X29525Y-31122D01*
X29500Y-31124D01*
X29477Y-31122D01*
X29454Y-31115D01*
X29432Y-31104D01*
X29413Y-31089D01*
X29397Y-31070D01*
X29386Y-31049D01*
X29378Y-31025D01*
X29376Y-31001D01*
X29378Y-30978D01*
X29384Y-30954D01*
X29395Y-30933D01*
X29411Y-30914D01*
X29429Y-30898D01*
X29450Y-30886D01*
X29474Y-30878D01*
X29498Y-30876D01*
X29521Y-30877D01*
X29545Y-30884D01*
X29566Y-30895D01*
X29586Y-30910D01*
X29602Y-30928D01*
X29614Y-30950D01*
X29621Y-30973D01*
X29624Y-30997D01*
X29625Y-31000D01*
X30875Y-30250D02*
X30872Y-30274D01*
X30865Y-30297D01*
X30854Y-30319D01*
X30838Y-30338D01*
X30819Y-30353D01*
X30798Y-30365D01*
X30775Y-30372D01*
X30750Y-30374D01*
X30727Y-30372D01*
X30704Y-30365D01*
X30682Y-30354D01*
X30663Y-30339D01*
X30647Y-30320D01*
X30636Y-30299D01*
X30628Y-30275D01*
X30626Y-30251D01*
X30628Y-30228D01*
X30634Y-30204D01*
X30645Y-30183D01*
X30661Y-30164D01*
X30679Y-30148D01*
X30700Y-30136D01*
X30724Y-30128D01*
X30748Y-30126D01*
X30771Y-30127D01*
X30795Y-30134D01*
X30816Y-30145D01*
X30836Y-30160D01*
X30852Y-30178D01*
X30864Y-30200D01*
X30871Y-30223D01*
X30874Y-30247D01*
X30875Y-30250D01*
X30875Y-38000D02*
X30872Y-38024D01*
X30865Y-38047D01*
X30854Y-38069D01*
X30838Y-38088D01*
X30819Y-38103D01*
X30798Y-38115D01*
X30775Y-38122D01*
X30750Y-38124D01*
X30727Y-38122D01*
X30704Y-38115D01*
X30682Y-38104D01*
X30663Y-38089D01*
X30647Y-38070D01*
X30636Y-38049D01*
X30628Y-38025D01*
X30626Y-38001D01*
X30628Y-37978D01*
X30634Y-37954D01*
X30645Y-37933D01*
X30661Y-37914D01*
X30679Y-37898D01*
X30700Y-37886D01*
X30724Y-37878D01*
X30748Y-37876D01*
X30771Y-37877D01*
X30795Y-37884D01*
X30816Y-37895D01*
X30836Y-37910D01*
X30852Y-37928D01*
X30864Y-37950D01*
X30871Y-37973D01*
X30874Y-37997D01*
X30875Y-38000D01*
X30875Y-44500D02*
X30872Y-44524D01*
X30865Y-44547D01*
X30854Y-44569D01*
X30838Y-44588D01*
X30819Y-44603D01*
X30798Y-44615D01*
X30775Y-44622D01*
X30750Y-44624D01*
X30727Y-44622D01*
X30704Y-44615D01*
X30682Y-44604D01*
X30663Y-44589D01*
X30647Y-44570D01*
X30636Y-44549D01*
X30628Y-44525D01*
X30626Y-44501D01*
X30628Y-44478D01*
X30634Y-44454D01*
X30645Y-44433D01*
X30661Y-44414D01*
X30679Y-44398D01*
X30700Y-44386D01*
X30724Y-44378D01*
X30748Y-44376D01*
X30771Y-44377D01*
X30795Y-44384D01*
X30816Y-44395D01*
X30836Y-44410D01*
X30852Y-44428D01*
X30864Y-44450D01*
X30871Y-44473D01*
X30874Y-44497D01*
X30875Y-44500D01*
X32375Y-24500D02*
X32372Y-24524D01*
X32365Y-24547D01*
X32354Y-24569D01*
X32338Y-24588D01*
X32319Y-24603D01*
X32298Y-24615D01*
X32275Y-24622D01*
X32250Y-24624D01*
X32227Y-24622D01*
X32204Y-24615D01*
X32182Y-24604D01*
X32163Y-24589D01*
X32147Y-24570D01*
X32136Y-24549D01*
X32128Y-24525D01*
X32126Y-24501D01*
X32128Y-24478D01*
X32134Y-24454D01*
X32145Y-24433D01*
X32161Y-24414D01*
X32179Y-24398D01*
X32200Y-24386D01*
X32224Y-24378D01*
X32248Y-24376D01*
X32271Y-24377D01*
X32295Y-24384D01*
X32316Y-24395D01*
X32336Y-24410D01*
X32352Y-24428D01*
X32364Y-24450D01*
X32371Y-24473D01*
X32374Y-24497D01*
X32375Y-24500D01*
X35375Y-48000D02*
X35372Y-48024D01*
X35365Y-48047D01*
X35354Y-48069D01*
X35338Y-48088D01*
X35319Y-48103D01*
X35298Y-48115D01*
X35275Y-48122D01*
X35250Y-48124D01*
X35227Y-48122D01*
X35204Y-48115D01*
X35182Y-48104D01*
X35163Y-48089D01*
X35147Y-48070D01*
X35136Y-48049D01*
X35128Y-48025D01*
X35126Y-48001D01*
X35128Y-47978D01*
X35134Y-47954D01*
X35145Y-47933D01*
X35161Y-47914D01*
X35179Y-47898D01*
X35200Y-47886D01*
X35224Y-47878D01*
X35248Y-47876D01*
X35271Y-47877D01*
X35295Y-47884D01*
X35316Y-47895D01*
X35336Y-47910D01*
X35352Y-47928D01*
X35364Y-47950D01*
X35371Y-47973D01*
X35374Y-47997D01*
X35375Y-48000D01*
X21750Y-36840D02*
X21750Y-37160D01*
X21910Y-37000D02*
X21590Y-37000D01*
X21750Y-39840D02*
X21750Y-40160D01*
X21910Y-40000D02*
X21590Y-40000D01*
X22750Y-36840D02*
X22750Y-37160D01*
X22910Y-37000D02*
X22590Y-37000D01*
X22750Y-39840D02*
X22750Y-40160D01*
X22910Y-40000D02*
X22590Y-40000D01*
X24000Y-30840D02*
X24000Y-31160D01*
X24160Y-31000D02*
X23840Y-31000D01*
X24000Y-31840D02*
X24000Y-32160D01*
X24160Y-32000D02*
X23840Y-32000D01*
X24000Y-32840D02*
X24000Y-33160D01*
X24160Y-33000D02*
X23840Y-33000D01*
X24000Y-33840D02*
X24000Y-34160D01*
X24160Y-34000D02*
X23840Y-34000D01*
X24000Y-34840D02*
X24000Y-35160D01*
X24160Y-35000D02*
X23840Y-35000D01*
X24000Y-35840D02*
X24000Y-36160D01*
X24160Y-36000D02*
X23840Y-36000D01*
X24000Y-36840D02*
X24000Y-37160D01*
X24160Y-37000D02*
X23840Y-37000D01*
X24000Y-38840D02*
X24000Y-39160D01*
X24160Y-39000D02*
X23840Y-39000D01*
X24000Y-39840D02*
X24000Y-40160D01*
X24160Y-40000D02*
X23840Y-40000D01*
X24000Y-40840D02*
X24000Y-41160D01*
X24160Y-41000D02*
X23840Y-41000D01*
X24000Y-41840D02*
X24000Y-42160D01*
X24160Y-42000D02*
X23840Y-42000D01*
X24500Y-44840D02*
X24500Y-45160D01*
X24660Y-45000D02*
X24340Y-45000D01*
X24500Y-46840D02*
X24500Y-47160D01*
X24660Y-47000D02*
X24340Y-47000D01*
X27000Y-30840D02*
X27000Y-31160D01*
X27160Y-31000D02*
X26840Y-31000D01*
X27000Y-31840D02*
X27000Y-32160D01*
X27160Y-32000D02*
X26840Y-32000D01*
X27000Y-32840D02*
X27000Y-33160D01*
X27160Y-33000D02*
X26840Y-33000D01*
X27000Y-33840D02*
X27000Y-34160D01*
X27160Y-34000D02*
X26840Y-34000D01*
X27000Y-34840D02*
X27000Y-35160D01*
X27160Y-35000D02*
X26840Y-35000D01*
X27000Y-35840D02*
X27000Y-36160D01*
X27160Y-36000D02*
X26840Y-36000D01*
X27000Y-36840D02*
X27000Y-37160D01*
X27160Y-37000D02*
X26840Y-37000D01*
X27000Y-38840D02*
X27000Y-39160D01*
X27160Y-39000D02*
X26840Y-39000D01*
X27000Y-39840D02*
X27000Y-40160D01*
X27160Y-40000D02*
X26840Y-40000D01*
X27000Y-40840D02*
X27000Y-41160D01*
X27160Y-41000D02*
X26840Y-41000D01*
X27000Y-41840D02*
X27000Y-42160D01*
X27160Y-42000D02*
X26840Y-42000D01*
X27500Y-44840D02*
X27500Y-45160D01*
X27660Y-45000D02*
X27340Y-45000D01*
X27500Y-46840D02*
X27500Y-47160D01*
X27660Y-47000D02*
X27340Y-47000D01*
X28500Y-37840D02*
X28500Y-38160D01*
X28660Y-38000D02*
X28340Y-38000D01*
X28500Y-40840D02*
X28500Y-41160D01*
X28660Y-41000D02*
X28340Y-41000D01*
X29500Y-37840D02*
X29500Y-38160D01*
X29660Y-38000D02*
X29340Y-38000D01*
X29500Y-40840D02*
X29500Y-41160D01*
X29660Y-41000D02*
X29340Y-41000D01*
X30750Y-25340D02*
X30750Y-25660D01*
X30910Y-25500D02*
X30590Y-25500D01*
X30750Y-31090D02*
X30750Y-31410D01*
X30910Y-31250D02*
X30590Y-31250D01*
X30750Y-36840D02*
X30750Y-37160D01*
X30910Y-37000D02*
X30590Y-37000D01*
X30750Y-42590D02*
X30750Y-42910D01*
X30910Y-42750D02*
X30590Y-42750D01*
X33750Y-25340D02*
X33750Y-25660D01*
X33910Y-25500D02*
X33590Y-25500D01*
X33750Y-31090D02*
X33750Y-31410D01*
X33910Y-31250D02*
X33590Y-31250D01*
X33750Y-36840D02*
X33750Y-37160D01*
X33910Y-37000D02*
X33590Y-37000D01*
X33750Y-42590D02*
X33750Y-42910D01*
X33910Y-42750D02*
X33590Y-42750D01*
X22950Y-45000D02*
X22946Y-45038D01*
X22934Y-45076D01*
X22916Y-45110D01*
X22891Y-45140D01*
X22861Y-45165D01*
X22827Y-45184D01*
X22790Y-45195D01*
X22751Y-45199D01*
X22713Y-45196D01*
X22676Y-45185D01*
X22641Y-45167D01*
X22611Y-45142D01*
X22585Y-45112D01*
X22567Y-45078D01*
X22555Y-45041D01*
X22551Y-45002D01*
X22554Y-44964D01*
X22565Y-44927D01*
X22582Y-44892D01*
X22607Y-44862D01*
X22636Y-44836D01*
X22670Y-44817D01*
X22708Y-44805D01*
X22746Y-44801D01*
X22784Y-44804D01*
X22822Y-44814D01*
X22857Y-44832D01*
X22887Y-44856D01*
X22913Y-44885D01*
X22932Y-44919D01*
X22945Y-44956D01*
X22949Y-44995D01*
X22950Y-45000D01*
X22550Y-44800D02*
X22950Y-45200D01*
X22950Y-44800D02*
X22550Y-45200D01*
X22950Y-46000D02*
X22946Y-46038D01*
X22934Y-46076D01*
X22916Y-46110D01*
X22891Y-46140D01*
X22861Y-46165D01*
X22827Y-46184D01*
X22790Y-46195D01*
X22751Y-46199D01*
X22713Y-46196D01*
X22676Y-46185D01*
X22641Y-46167D01*
X22611Y-46142D01*
X22585Y-46112D01*
X22567Y-46078D01*
X22555Y-46041D01*
X22551Y-46002D01*
X22554Y-45964D01*
X22565Y-45927D01*
X22582Y-45892D01*
X22607Y-45862D01*
X22636Y-45836D01*
X22670Y-45817D01*
X22708Y-45805D01*
X22746Y-45801D01*
X22784Y-45804D01*
X22822Y-45814D01*
X22857Y-45832D01*
X22887Y-45856D01*
X22913Y-45885D01*
X22932Y-45919D01*
X22945Y-45956D01*
X22949Y-45995D01*
X22950Y-46000D01*
X22550Y-45800D02*
X22950Y-46200D01*
X22950Y-45800D02*
X22550Y-46200D01*
X22950Y-47000D02*
X22946Y-47038D01*
X22934Y-47076D01*
X22916Y-47110D01*
X22891Y-47140D01*
X22861Y-47165D01*
X22827Y-47184D01*
X22790Y-47195D01*
X22751Y-47199D01*
X22713Y-47196D01*
X22676Y-47185D01*
X22641Y-47167D01*
X22611Y-47142D01*
X22585Y-47112D01*
X22567Y-47078D01*
X22555Y-47041D01*
X22551Y-47002D01*
X22554Y-46964D01*
X22565Y-46927D01*
X22582Y-46892D01*
X22607Y-46862D01*
X22636Y-46836D01*
X22670Y-46817D01*
X22708Y-46805D01*
X22746Y-46801D01*
X22784Y-46804D01*
X22822Y-46814D01*
X22857Y-46832D01*
X22887Y-46856D01*
X22913Y-46885D01*
X22932Y-46919D01*
X22945Y-46956D01*
X22949Y-46995D01*
X22950Y-47000D01*
X22550Y-46800D02*
X22950Y-47200D01*
X22950Y-46800D02*
X22550Y-47200D01*
X22950Y-48000D02*
X22946Y-48038D01*
X22934Y-48076D01*
X22916Y-48110D01*
X22891Y-48140D01*
X22861Y-48165D01*
X22827Y-48184D01*
X22790Y-48195D01*
X22751Y-48199D01*
X22713Y-48196D01*
X22676Y-48185D01*
X22641Y-48167D01*
X22611Y-48142D01*
X22585Y-48112D01*
X22567Y-48078D01*
X22555Y-48041D01*
X22551Y-48002D01*
X22554Y-47964D01*
X22565Y-47927D01*
X22582Y-47892D01*
X22607Y-47862D01*
X22636Y-47836D01*
X22670Y-47817D01*
X22708Y-47805D01*
X22746Y-47801D01*
X22784Y-47804D01*
X22822Y-47814D01*
X22857Y-47832D01*
X22887Y-47856D01*
X22913Y-47885D01*
X22932Y-47919D01*
X22945Y-47956D01*
X22949Y-47995D01*
X22950Y-48000D01*
X22550Y-47800D02*
X22950Y-48200D01*
X22950Y-47800D02*
X22550Y-48200D01*
X24200Y-28750D02*
X24196Y-28788D01*
X24184Y-28826D01*
X24166Y-28860D01*
X24141Y-28890D01*
X24111Y-28915D01*
X24077Y-28934D01*
X24040Y-28945D01*
X24001Y-28949D01*
X23963Y-28946D01*
X23926Y-28935D01*
X23891Y-28917D01*
X23861Y-28892D01*
X23835Y-28862D01*
X23817Y-28828D01*
X23805Y-28791D01*
X23801Y-28752D01*
X23804Y-28714D01*
X23815Y-28677D01*
X23832Y-28642D01*
X23857Y-28612D01*
X23886Y-28586D01*
X23920Y-28567D01*
X23958Y-28555D01*
X23996Y-28551D01*
X24034Y-28554D01*
X24072Y-28564D01*
X24107Y-28582D01*
X24137Y-28606D01*
X24163Y-28635D01*
X24182Y-28669D01*
X24195Y-28706D01*
X24199Y-28745D01*
X24200Y-28750D01*
X23800Y-28550D02*
X24200Y-28950D01*
X24200Y-28550D02*
X23800Y-28950D01*
X25200Y-28750D02*
X25196Y-28788D01*
X25184Y-28826D01*
X25166Y-28860D01*
X25141Y-28890D01*
X25111Y-28915D01*
X25077Y-28934D01*
X25040Y-28945D01*
X25001Y-28949D01*
X24963Y-28946D01*
X24926Y-28935D01*
X24891Y-28917D01*
X24861Y-28892D01*
X24835Y-28862D01*
X24817Y-28828D01*
X24805Y-28791D01*
X24801Y-28752D01*
X24804Y-28714D01*
X24815Y-28677D01*
X24832Y-28642D01*
X24857Y-28612D01*
X24886Y-28586D01*
X24920Y-28567D01*
X24958Y-28555D01*
X24996Y-28551D01*
X25034Y-28554D01*
X25072Y-28564D01*
X25107Y-28582D01*
X25137Y-28606D01*
X25163Y-28635D01*
X25182Y-28669D01*
X25195Y-28706D01*
X25199Y-28745D01*
X25200Y-28750D01*
X24800Y-28550D02*
X25200Y-28950D01*
X25200Y-28550D02*
X24800Y-28950D01*
X26200Y-28750D02*
X26196Y-28788D01*
X26184Y-28826D01*
X26166Y-28860D01*
X26141Y-28890D01*
X26111Y-28915D01*
X26077Y-28934D01*
X26040Y-28945D01*
X26001Y-28949D01*
X25963Y-28946D01*
X25926Y-28935D01*
X25891Y-28917D01*
X25861Y-28892D01*
X25835Y-28862D01*
X25817Y-28828D01*
X25805Y-28791D01*
X25801Y-28752D01*
X25804Y-28714D01*
X25815Y-28677D01*
X25832Y-28642D01*
X25857Y-28612D01*
X25886Y-28586D01*
X25920Y-28567D01*
X25958Y-28555D01*
X25996Y-28551D01*
X26034Y-28554D01*
X26072Y-28564D01*
X26107Y-28582D01*
X26137Y-28606D01*
X26163Y-28635D01*
X26182Y-28669D01*
X26195Y-28706D01*
X26199Y-28745D01*
X26200Y-28750D01*
X25800Y-28550D02*
X26200Y-28950D01*
X26200Y-28550D02*
X25800Y-28950D01*
X27200Y-28750D02*
X27196Y-28788D01*
X27184Y-28826D01*
X27166Y-28860D01*
X27141Y-28890D01*
X27111Y-28915D01*
X27077Y-28934D01*
X27040Y-28945D01*
X27001Y-28949D01*
X26963Y-28946D01*
X26926Y-28935D01*
X26891Y-28917D01*
X26861Y-28892D01*
X26835Y-28862D01*
X26817Y-28828D01*
X26805Y-28791D01*
X26801Y-28752D01*
X26804Y-28714D01*
X26815Y-28677D01*
X26832Y-28642D01*
X26857Y-28612D01*
X26886Y-28586D01*
X26920Y-28567D01*
X26958Y-28555D01*
X26996Y-28551D01*
X27034Y-28554D01*
X27072Y-28564D01*
X27107Y-28582D01*
X27137Y-28606D01*
X27163Y-28635D01*
X27182Y-28669D01*
X27195Y-28706D01*
X27199Y-28745D01*
X27200Y-28750D01*
X26800Y-28550D02*
X27200Y-28950D01*
X27200Y-28550D02*
X26800Y-28950D01*
X30950Y-22500D02*
X30946Y-22538D01*
X30934Y-22576D01*
X30916Y-22610D01*
X30891Y-22640D01*
X30861Y-22665D01*
X30827Y-22684D01*
X30790Y-22695D01*
X30751Y-22699D01*
X30713Y-22696D01*
X30676Y-22685D01*
X30641Y-22667D01*
X30611Y-22642D01*
X30585Y-22612D01*
X30567Y-22578D01*
X30555Y-22541D01*
X30551Y-22502D01*
X30554Y-22464D01*
X30565Y-22427D01*
X30582Y-22392D01*
X30607Y-22362D01*
X30636Y-22336D01*
X30670Y-22317D01*
X30708Y-22305D01*
X30746Y-22301D01*
X30784Y-22304D01*
X30822Y-22314D01*
X30857Y-22332D01*
X30887Y-22356D01*
X30913Y-22385D01*
X30932Y-22419D01*
X30945Y-22456D01*
X30949Y-22495D01*
X30950Y-22500D01*
X30550Y-22300D02*
X30950Y-22700D01*
X30950Y-22300D02*
X30550Y-22700D01*
X30950Y-50000D02*
X30946Y-50038D01*
X30934Y-50076D01*
X30916Y-50110D01*
X30891Y-50140D01*
X30861Y-50165D01*
X30827Y-50184D01*
X30790Y-50195D01*
X30751Y-50199D01*
X30713Y-50196D01*
X30676Y-50185D01*
X30641Y-50167D01*
X30611Y-50142D01*
X30585Y-50112D01*
X30567Y-50078D01*
X30555Y-50041D01*
X30551Y-50002D01*
X30554Y-49964D01*
X30565Y-49927D01*
X30582Y-49892D01*
X30607Y-49862D01*
X30636Y-49836D01*
X30670Y-49817D01*
X30708Y-49805D01*
X30746Y-49801D01*
X30784Y-49804D01*
X30822Y-49814D01*
X30857Y-49832D01*
X30887Y-49856D01*
X30913Y-49885D01*
X30932Y-49919D01*
X30945Y-49956D01*
X30949Y-49995D01*
X30950Y-50000D01*
X30550Y-49800D02*
X30950Y-50200D01*
X30950Y-49800D02*
X30550Y-50200D01*
X34450Y-22000D02*
X34446Y-22038D01*
X34434Y-22076D01*
X34416Y-22110D01*
X34391Y-22140D01*
X34361Y-22165D01*
X34327Y-22184D01*
X34290Y-22195D01*
X34251Y-22199D01*
X34213Y-22196D01*
X34176Y-22185D01*
X34141Y-22167D01*
X34111Y-22142D01*
X34085Y-22112D01*
X34067Y-22078D01*
X34055Y-22041D01*
X34051Y-22002D01*
X34054Y-21964D01*
X34065Y-21927D01*
X34082Y-21892D01*
X34107Y-21862D01*
X34136Y-21836D01*
X34170Y-21817D01*
X34208Y-21805D01*
X34246Y-21801D01*
X34284Y-21804D01*
X34322Y-21814D01*
X34357Y-21832D01*
X34387Y-21856D01*
X34413Y-21885D01*
X34432Y-21919D01*
X34445Y-21956D01*
X34449Y-21995D01*
X34450Y-22000D01*
X34050Y-21800D02*
X34450Y-22200D01*
X34450Y-21800D02*
X34050Y-22200D01*
X34450Y-23000D02*
X34446Y-23038D01*
X34434Y-23076D01*
X34416Y-23110D01*
X34391Y-23140D01*
X34361Y-23165D01*
X34327Y-23184D01*
X34290Y-23195D01*
X34251Y-23199D01*
X34213Y-23196D01*
X34176Y-23185D01*
X34141Y-23167D01*
X34111Y-23142D01*
X34085Y-23112D01*
X34067Y-23078D01*
X34055Y-23041D01*
X34051Y-23002D01*
X34054Y-22964D01*
X34065Y-22927D01*
X34082Y-22892D01*
X34107Y-22862D01*
X34136Y-22836D01*
X34170Y-22817D01*
X34208Y-22805D01*
X34246Y-22801D01*
X34284Y-22804D01*
X34322Y-22814D01*
X34357Y-22832D01*
X34387Y-22856D01*
X34413Y-22885D01*
X34432Y-22919D01*
X34445Y-22956D01*
X34449Y-22995D01*
X34450Y-23000D01*
X34050Y-22800D02*
X34450Y-23200D01*
X34450Y-22800D02*
X34050Y-23200D01*
X34450Y-49500D02*
X34446Y-49538D01*
X34434Y-49576D01*
X34416Y-49610D01*
X34391Y-49640D01*
X34361Y-49665D01*
X34327Y-49684D01*
X34290Y-49695D01*
X34251Y-49699D01*
X34213Y-49696D01*
X34176Y-49685D01*
X34141Y-49667D01*
X34111Y-49642D01*
X34085Y-49612D01*
X34067Y-49578D01*
X34055Y-49541D01*
X34051Y-49502D01*
X34054Y-49464D01*
X34065Y-49427D01*
X34082Y-49392D01*
X34107Y-49362D01*
X34136Y-49336D01*
X34170Y-49317D01*
X34208Y-49305D01*
X34246Y-49301D01*
X34284Y-49304D01*
X34322Y-49314D01*
X34357Y-49332D01*
X34387Y-49356D01*
X34413Y-49385D01*
X34432Y-49419D01*
X34445Y-49456D01*
X34449Y-49495D01*
X34450Y-49500D01*
X34050Y-49300D02*
X34450Y-49700D01*
X34450Y-49300D02*
X34050Y-49700D01*
X34450Y-50500D02*
X34446Y-50538D01*
X34434Y-50576D01*
X34416Y-50610D01*
X34391Y-50640D01*
X34361Y-50665D01*
X34327Y-50684D01*
X34290Y-50695D01*
X34251Y-50699D01*
X34213Y-50696D01*
X34176Y-50685D01*
X34141Y-50667D01*
X34111Y-50642D01*
X34085Y-50612D01*
X34067Y-50578D01*
X34055Y-50541D01*
X34051Y-50502D01*
X34054Y-50464D01*
X34065Y-50427D01*
X34082Y-50392D01*
X34107Y-50362D01*
X34136Y-50336D01*
X34170Y-50317D01*
X34208Y-50305D01*
X34246Y-50301D01*
X34284Y-50304D01*
X34322Y-50314D01*
X34357Y-50332D01*
X34387Y-50356D01*
X34413Y-50385D01*
X34432Y-50419D01*
X34445Y-50456D01*
X34449Y-50495D01*
X34450Y-50500D01*
X34050Y-50300D02*
X34450Y-50700D01*
X34450Y-50300D02*
X34050Y-50700D01*
X35200Y-25500D02*
X35196Y-25538D01*
X35184Y-25576D01*
X35166Y-25610D01*
X35141Y-25640D01*
X35111Y-25665D01*
X35077Y-25684D01*
X35040Y-25695D01*
X35001Y-25699D01*
X34963Y-25696D01*
X34926Y-25685D01*
X34891Y-25667D01*
X34861Y-25642D01*
X34835Y-25612D01*
X34817Y-25578D01*
X34805Y-25541D01*
X34801Y-25502D01*
X34804Y-25464D01*
X34815Y-25427D01*
X34832Y-25392D01*
X34857Y-25362D01*
X34886Y-25336D01*
X34920Y-25317D01*
X34958Y-25305D01*
X34996Y-25301D01*
X35034Y-25304D01*
X35072Y-25314D01*
X35107Y-25332D01*
X35137Y-25356D01*
X35163Y-25385D01*
X35182Y-25419D01*
X35195Y-25456D01*
X35199Y-25495D01*
X35200Y-25500D01*
X34800Y-25300D02*
X35200Y-25700D01*
X35200Y-25300D02*
X34800Y-25700D01*
X35200Y-29500D02*
X35196Y-29538D01*
X35184Y-29576D01*
X35166Y-29610D01*
X35141Y-29640D01*
X35111Y-29665D01*
X35077Y-29684D01*
X35040Y-29695D01*
X35001Y-29699D01*
X34963Y-29696D01*
X34926Y-29685D01*
X34891Y-29667D01*
X34861Y-29642D01*
X34835Y-29612D01*
X34817Y-29578D01*
X34805Y-29541D01*
X34801Y-29502D01*
X34804Y-29464D01*
X34815Y-29427D01*
X34832Y-29392D01*
X34857Y-29362D01*
X34886Y-29336D01*
X34920Y-29317D01*
X34958Y-29305D01*
X34996Y-29301D01*
X35034Y-29304D01*
X35072Y-29314D01*
X35107Y-29332D01*
X35137Y-29356D01*
X35163Y-29385D01*
X35182Y-29419D01*
X35195Y-29456D01*
X35199Y-29495D01*
X35200Y-29500D01*
X34800Y-29300D02*
X35200Y-29700D01*
X35200Y-29300D02*
X34800Y-29700D01*
X35200Y-31250D02*
X35196Y-31288D01*
X35184Y-31326D01*
X35166Y-31360D01*
X35141Y-31390D01*
X35111Y-31415D01*
X35077Y-31434D01*
X35040Y-31445D01*
X35001Y-31449D01*
X34963Y-31446D01*
X34926Y-31435D01*
X34891Y-31417D01*
X34861Y-31392D01*
X34835Y-31362D01*
X34817Y-31328D01*
X34805Y-31291D01*
X34801Y-31252D01*
X34804Y-31214D01*
X34815Y-31177D01*
X34832Y-31142D01*
X34857Y-31112D01*
X34886Y-31086D01*
X34920Y-31067D01*
X34958Y-31055D01*
X34996Y-31051D01*
X35034Y-31054D01*
X35072Y-31064D01*
X35107Y-31082D01*
X35137Y-31106D01*
X35163Y-31135D01*
X35182Y-31169D01*
X35195Y-31206D01*
X35199Y-31245D01*
X35200Y-31250D01*
X34800Y-31050D02*
X35200Y-31450D01*
X35200Y-31050D02*
X34800Y-31450D01*
X35200Y-35250D02*
X35196Y-35288D01*
X35184Y-35326D01*
X35166Y-35360D01*
X35141Y-35390D01*
X35111Y-35415D01*
X35077Y-35434D01*
X35040Y-35445D01*
X35001Y-35449D01*
X34963Y-35446D01*
X34926Y-35435D01*
X34891Y-35417D01*
X34861Y-35392D01*
X34835Y-35362D01*
X34817Y-35328D01*
X34805Y-35291D01*
X34801Y-35252D01*
X34804Y-35214D01*
X34815Y-35177D01*
X34832Y-35142D01*
X34857Y-35112D01*
X34886Y-35086D01*
X34920Y-35067D01*
X34958Y-35055D01*
X34996Y-35051D01*
X35034Y-35054D01*
X35072Y-35064D01*
X35107Y-35082D01*
X35137Y-35106D01*
X35163Y-35135D01*
X35182Y-35169D01*
X35195Y-35206D01*
X35199Y-35245D01*
X35200Y-35250D01*
X34800Y-35050D02*
X35200Y-35450D01*
X35200Y-35050D02*
X34800Y-35450D01*
X35200Y-37000D02*
X35196Y-37038D01*
X35184Y-37076D01*
X35166Y-37110D01*
X35141Y-37140D01*
X35111Y-37165D01*
X35077Y-37184D01*
X35040Y-37195D01*
X35001Y-37199D01*
X34963Y-37196D01*
X34926Y-37185D01*
X34891Y-37167D01*
X34861Y-37142D01*
X34835Y-37112D01*
X34817Y-37078D01*
X34805Y-37041D01*
X34801Y-37002D01*
X34804Y-36964D01*
X34815Y-36927D01*
X34832Y-36892D01*
X34857Y-36862D01*
X34886Y-36836D01*
X34920Y-36817D01*
X34958Y-36805D01*
X34996Y-36801D01*
X35034Y-36804D01*
X35072Y-36814D01*
X35107Y-36832D01*
X35137Y-36856D01*
X35163Y-36885D01*
X35182Y-36919D01*
X35195Y-36956D01*
X35199Y-36995D01*
X35200Y-37000D01*
X34800Y-36800D02*
X35200Y-37200D01*
X35200Y-36800D02*
X34800Y-37200D01*
X35200Y-41000D02*
X35196Y-41038D01*
X35184Y-41076D01*
X35166Y-41110D01*
X35141Y-41140D01*
X35111Y-41165D01*
X35077Y-41184D01*
X35040Y-41195D01*
X35001Y-41199D01*
X34963Y-41196D01*
X34926Y-41185D01*
X34891Y-41167D01*
X34861Y-41142D01*
X34835Y-41112D01*
X34817Y-41078D01*
X34805Y-41041D01*
X34801Y-41002D01*
X34804Y-40964D01*
X34815Y-40927D01*
X34832Y-40892D01*
X34857Y-40862D01*
X34886Y-40836D01*
X34920Y-40817D01*
X34958Y-40805D01*
X34996Y-40801D01*
X35034Y-40804D01*
X35072Y-40814D01*
X35107Y-40832D01*
X35137Y-40856D01*
X35163Y-40885D01*
X35182Y-40919D01*
X35195Y-40956D01*
X35199Y-40995D01*
X35200Y-41000D01*
X34800Y-40800D02*
X35200Y-41200D01*
X35200Y-40800D02*
X34800Y-41200D01*
X35200Y-42750D02*
X35196Y-42788D01*
X35184Y-42826D01*
X35166Y-42860D01*
X35141Y-42890D01*
X35111Y-42915D01*
X35077Y-42934D01*
X35040Y-42945D01*
X35001Y-42949D01*
X34963Y-42946D01*
X34926Y-42935D01*
X34891Y-42917D01*
X34861Y-42892D01*
X34835Y-42862D01*
X34817Y-42828D01*
X34805Y-42791D01*
X34801Y-42752D01*
X34804Y-42714D01*
X34815Y-42677D01*
X34832Y-42642D01*
X34857Y-42612D01*
X34886Y-42586D01*
X34920Y-42567D01*
X34958Y-42555D01*
X34996Y-42551D01*
X35034Y-42554D01*
X35072Y-42564D01*
X35107Y-42582D01*
X35137Y-42606D01*
X35163Y-42635D01*
X35182Y-42669D01*
X35195Y-42706D01*
X35199Y-42745D01*
X35200Y-42750D01*
X34800Y-42550D02*
X35200Y-42950D01*
X35200Y-42550D02*
X34800Y-42950D01*
X35200Y-46750D02*
X35196Y-46788D01*
X35184Y-46826D01*
X35166Y-46860D01*
X35141Y-46890D01*
X35111Y-46915D01*
X35077Y-46934D01*
X35040Y-46945D01*
X35001Y-46949D01*
X34963Y-46946D01*
X34926Y-46935D01*
X34891Y-46917D01*
X34861Y-46892D01*
X34835Y-46862D01*
X34817Y-46828D01*
X34805Y-46791D01*
X34801Y-46752D01*
X34804Y-46714D01*
X34815Y-46677D01*
X34832Y-46642D01*
X34857Y-46612D01*
X34886Y-46586D01*
X34920Y-46567D01*
X34958Y-46555D01*
X34996Y-46551D01*
X35034Y-46554D01*
X35072Y-46564D01*
X35107Y-46582D01*
X35137Y-46606D01*
X35163Y-46635D01*
X35182Y-46669D01*
X35195Y-46706D01*
X35199Y-46745D01*
X35200Y-46750D01*
X34800Y-46550D02*
X35200Y-46950D01*
X35200Y-46550D02*
X34800Y-46950D01*
X35450Y-22000D02*
X35446Y-22038D01*
X35434Y-22076D01*
X35416Y-22110D01*
X35391Y-22140D01*
X35361Y-22165D01*
X35327Y-22184D01*
X35290Y-22195D01*
X35251Y-22199D01*
X35213Y-22196D01*
X35176Y-22185D01*
X35141Y-22167D01*
X35111Y-22142D01*
X35085Y-22112D01*
X35067Y-22078D01*
X35055Y-22041D01*
X35051Y-22002D01*
X35054Y-21964D01*
X35065Y-21927D01*
X35082Y-21892D01*
X35107Y-21862D01*
X35136Y-21836D01*
X35170Y-21817D01*
X35208Y-21805D01*
X35246Y-21801D01*
X35284Y-21804D01*
X35322Y-21814D01*
X35357Y-21832D01*
X35387Y-21856D01*
X35413Y-21885D01*
X35432Y-21919D01*
X35445Y-21956D01*
X35449Y-21995D01*
X35450Y-22000D01*
X35050Y-21800D02*
X35450Y-22200D01*
X35450Y-21800D02*
X35050Y-22200D01*
X35450Y-23000D02*
X35446Y-23038D01*
X35434Y-23076D01*
X35416Y-23110D01*
X35391Y-23140D01*
X35361Y-23165D01*
X35327Y-23184D01*
X35290Y-23195D01*
X35251Y-23199D01*
X35213Y-23196D01*
X35176Y-23185D01*
X35141Y-23167D01*
X35111Y-23142D01*
X35085Y-23112D01*
X35067Y-23078D01*
X35055Y-23041D01*
X35051Y-23002D01*
X35054Y-22964D01*
X35065Y-22927D01*
X35082Y-22892D01*
X35107Y-22862D01*
X35136Y-22836D01*
X35170Y-22817D01*
X35208Y-22805D01*
X35246Y-22801D01*
X35284Y-22804D01*
X35322Y-22814D01*
X35357Y-22832D01*
X35387Y-22856D01*
X35413Y-22885D01*
X35432Y-22919D01*
X35445Y-22956D01*
X35449Y-22995D01*
X35450Y-23000D01*
X35050Y-22800D02*
X35450Y-23200D01*
X35450Y-22800D02*
X35050Y-23200D01*
X35450Y-49500D02*
X35446Y-49538D01*
X35434Y-49576D01*
X35416Y-49610D01*
X35391Y-49640D01*
X35361Y-49665D01*
X35327Y-49684D01*
X35290Y-49695D01*
X35251Y-49699D01*
X35213Y-49696D01*
X35176Y-49685D01*
X35141Y-49667D01*
X35111Y-49642D01*
X35085Y-49612D01*
X35067Y-49578D01*
X35055Y-49541D01*
X35051Y-49502D01*
X35054Y-49464D01*
X35065Y-49427D01*
X35082Y-49392D01*
X35107Y-49362D01*
X35136Y-49336D01*
X35170Y-49317D01*
X35208Y-49305D01*
X35246Y-49301D01*
X35284Y-49304D01*
X35322Y-49314D01*
X35357Y-49332D01*
X35387Y-49356D01*
X35413Y-49385D01*
X35432Y-49419D01*
X35445Y-49456D01*
X35449Y-49495D01*
X35450Y-49500D01*
X35050Y-49300D02*
X35450Y-49700D01*
X35450Y-49300D02*
X35050Y-49700D01*
X35450Y-50500D02*
X35446Y-50538D01*
X35434Y-50576D01*
X35416Y-50610D01*
X35391Y-50640D01*
X35361Y-50665D01*
X35327Y-50684D01*
X35290Y-50695D01*
X35251Y-50699D01*
X35213Y-50696D01*
X35176Y-50685D01*
X35141Y-50667D01*
X35111Y-50642D01*
X35085Y-50612D01*
X35067Y-50578D01*
X35055Y-50541D01*
X35051Y-50502D01*
X35054Y-50464D01*
X35065Y-50427D01*
X35082Y-50392D01*
X35107Y-50362D01*
X35136Y-50336D01*
X35170Y-50317D01*
X35208Y-50305D01*
X35246Y-50301D01*
X35284Y-50304D01*
X35322Y-50314D01*
X35357Y-50332D01*
X35387Y-50356D01*
X35413Y-50385D01*
X35432Y-50419D01*
X35445Y-50456D01*
X35449Y-50495D01*
X35450Y-50500D01*
X35050Y-50300D02*
X35450Y-50700D01*
X35450Y-50300D02*
X35050Y-50700D01*
X36450Y-22000D02*
X36446Y-22038D01*
X36434Y-22076D01*
X36416Y-22110D01*
X36391Y-22140D01*
X36361Y-22165D01*
X36327Y-22184D01*
X36290Y-22195D01*
X36251Y-22199D01*
X36213Y-22196D01*
X36176Y-22185D01*
X36141Y-22167D01*
X36111Y-22142D01*
X36085Y-22112D01*
X36067Y-22078D01*
X36055Y-22041D01*
X36051Y-22002D01*
X36054Y-21964D01*
X36065Y-21927D01*
X36082Y-21892D01*
X36107Y-21862D01*
X36136Y-21836D01*
X36170Y-21817D01*
X36208Y-21805D01*
X36246Y-21801D01*
X36284Y-21804D01*
X36322Y-21814D01*
X36357Y-21832D01*
X36387Y-21856D01*
X36413Y-21885D01*
X36432Y-21919D01*
X36445Y-21956D01*
X36449Y-21995D01*
X36450Y-22000D01*
X36050Y-21800D02*
X36450Y-22200D01*
X36450Y-21800D02*
X36050Y-22200D01*
X36450Y-23000D02*
X36446Y-23038D01*
X36434Y-23076D01*
X36416Y-23110D01*
X36391Y-23140D01*
X36361Y-23165D01*
X36327Y-23184D01*
X36290Y-23195D01*
X36251Y-23199D01*
X36213Y-23196D01*
X36176Y-23185D01*
X36141Y-23167D01*
X36111Y-23142D01*
X36085Y-23112D01*
X36067Y-23078D01*
X36055Y-23041D01*
X36051Y-23002D01*
X36054Y-22964D01*
X36065Y-22927D01*
X36082Y-22892D01*
X36107Y-22862D01*
X36136Y-22836D01*
X36170Y-22817D01*
X36208Y-22805D01*
X36246Y-22801D01*
X36284Y-22804D01*
X36322Y-22814D01*
X36357Y-22832D01*
X36387Y-22856D01*
X36413Y-22885D01*
X36432Y-22919D01*
X36445Y-22956D01*
X36449Y-22995D01*
X36450Y-23000D01*
X36050Y-22800D02*
X36450Y-23200D01*
X36450Y-22800D02*
X36050Y-23200D01*
X36450Y-49500D02*
X36446Y-49538D01*
X36434Y-49576D01*
X36416Y-49610D01*
X36391Y-49640D01*
X36361Y-49665D01*
X36327Y-49684D01*
X36290Y-49695D01*
X36251Y-49699D01*
X36213Y-49696D01*
X36176Y-49685D01*
X36141Y-49667D01*
X36111Y-49642D01*
X36085Y-49612D01*
X36067Y-49578D01*
X36055Y-49541D01*
X36051Y-49502D01*
X36054Y-49464D01*
X36065Y-49427D01*
X36082Y-49392D01*
X36107Y-49362D01*
X36136Y-49336D01*
X36170Y-49317D01*
X36208Y-49305D01*
X36246Y-49301D01*
X36284Y-49304D01*
X36322Y-49314D01*
X36357Y-49332D01*
X36387Y-49356D01*
X36413Y-49385D01*
X36432Y-49419D01*
X36445Y-49456D01*
X36449Y-49495D01*
X36450Y-49500D01*
X36050Y-49300D02*
X36450Y-49700D01*
X36450Y-49300D02*
X36050Y-49700D01*
X36450Y-50500D02*
X36446Y-50538D01*
X36434Y-50576D01*
X36416Y-50610D01*
X36391Y-50640D01*
X36361Y-50665D01*
X36327Y-50684D01*
X36290Y-50695D01*
X36251Y-50699D01*
X36213Y-50696D01*
X36176Y-50685D01*
X36141Y-50667D01*
X36111Y-50642D01*
X36085Y-50612D01*
X36067Y-50578D01*
X36055Y-50541D01*
X36051Y-50502D01*
X36054Y-50464D01*
X36065Y-50427D01*
X36082Y-50392D01*
X36107Y-50362D01*
X36136Y-50336D01*
X36170Y-50317D01*
X36208Y-50305D01*
X36246Y-50301D01*
X36284Y-50304D01*
X36322Y-50314D01*
X36357Y-50332D01*
X36387Y-50356D01*
X36413Y-50385D01*
X36432Y-50419D01*
X36445Y-50456D01*
X36449Y-50495D01*
X36450Y-50500D01*
X36050Y-50300D02*
X36450Y-50700D01*
X36450Y-50300D02*
X36050Y-50700D01*
X37450Y-22000D02*
X37446Y-22038D01*
X37434Y-22076D01*
X37416Y-22110D01*
X37391Y-22140D01*
X37361Y-22165D01*
X37327Y-22184D01*
X37290Y-22195D01*
X37251Y-22199D01*
X37213Y-22196D01*
X37176Y-22185D01*
X37141Y-22167D01*
X37111Y-22142D01*
X37085Y-22112D01*
X37067Y-22078D01*
X37055Y-22041D01*
X37051Y-22002D01*
X37054Y-21964D01*
X37065Y-21927D01*
X37082Y-21892D01*
X37107Y-21862D01*
X37136Y-21836D01*
X37170Y-21817D01*
X37208Y-21805D01*
X37246Y-21801D01*
X37284Y-21804D01*
X37322Y-21814D01*
X37357Y-21832D01*
X37387Y-21856D01*
X37413Y-21885D01*
X37432Y-21919D01*
X37445Y-21956D01*
X37449Y-21995D01*
X37450Y-22000D01*
X37050Y-21800D02*
X37450Y-22200D01*
X37450Y-21800D02*
X37050Y-22200D01*
X37450Y-23000D02*
X37446Y-23038D01*
X37434Y-23076D01*
X37416Y-23110D01*
X37391Y-23140D01*
X37361Y-23165D01*
X37327Y-23184D01*
X37290Y-23195D01*
X37251Y-23199D01*
X37213Y-23196D01*
X37176Y-23185D01*
X37141Y-23167D01*
X37111Y-23142D01*
X37085Y-23112D01*
X37067Y-23078D01*
X37055Y-23041D01*
X37051Y-23002D01*
X37054Y-22964D01*
X37065Y-22927D01*
X37082Y-22892D01*
X37107Y-22862D01*
X37136Y-22836D01*
X37170Y-22817D01*
X37208Y-22805D01*
X37246Y-22801D01*
X37284Y-22804D01*
X37322Y-22814D01*
X37357Y-22832D01*
X37387Y-22856D01*
X37413Y-22885D01*
X37432Y-22919D01*
X37445Y-22956D01*
X37449Y-22995D01*
X37450Y-23000D01*
X37050Y-22800D02*
X37450Y-23200D01*
X37450Y-22800D02*
X37050Y-23200D01*
X37450Y-49500D02*
X37446Y-49538D01*
X37434Y-49576D01*
X37416Y-49610D01*
X37391Y-49640D01*
X37361Y-49665D01*
X37327Y-49684D01*
X37290Y-49695D01*
X37251Y-49699D01*
X37213Y-49696D01*
X37176Y-49685D01*
X37141Y-49667D01*
X37111Y-49642D01*
X37085Y-49612D01*
X37067Y-49578D01*
X37055Y-49541D01*
X37051Y-49502D01*
X37054Y-49464D01*
X37065Y-49427D01*
X37082Y-49392D01*
X37107Y-49362D01*
X37136Y-49336D01*
X37170Y-49317D01*
X37208Y-49305D01*
X37246Y-49301D01*
X37284Y-49304D01*
X37322Y-49314D01*
X37357Y-49332D01*
X37387Y-49356D01*
X37413Y-49385D01*
X37432Y-49419D01*
X37445Y-49456D01*
X37449Y-49495D01*
X37450Y-49500D01*
X37050Y-49300D02*
X37450Y-49700D01*
X37450Y-49300D02*
X37050Y-49700D01*
X37450Y-50500D02*
X37446Y-50538D01*
X37434Y-50576D01*
X37416Y-50610D01*
X37391Y-50640D01*
X37361Y-50665D01*
X37327Y-50684D01*
X37290Y-50695D01*
X37251Y-50699D01*
X37213Y-50696D01*
X37176Y-50685D01*
X37141Y-50667D01*
X37111Y-50642D01*
X37085Y-50612D01*
X37067Y-50578D01*
X37055Y-50541D01*
X37051Y-50502D01*
X37054Y-50464D01*
X37065Y-50427D01*
X37082Y-50392D01*
X37107Y-50362D01*
X37136Y-50336D01*
X37170Y-50317D01*
X37208Y-50305D01*
X37246Y-50301D01*
X37284Y-50304D01*
X37322Y-50314D01*
X37357Y-50332D01*
X37387Y-50356D01*
X37413Y-50385D01*
X37432Y-50419D01*
X37445Y-50456D01*
X37449Y-50495D01*
X37450Y-50500D01*
X37050Y-50300D02*
X37450Y-50700D01*
X37450Y-50300D02*
X37050Y-50700D01*
X38450Y-22000D02*
X38446Y-22038D01*
X38434Y-22076D01*
X38416Y-22110D01*
X38391Y-22140D01*
X38361Y-22165D01*
X38327Y-22184D01*
X38290Y-22195D01*
X38251Y-22199D01*
X38213Y-22196D01*
X38176Y-22185D01*
X38141Y-22167D01*
X38111Y-22142D01*
X38085Y-22112D01*
X38067Y-22078D01*
X38055Y-22041D01*
X38051Y-22002D01*
X38054Y-21964D01*
X38065Y-21927D01*
X38082Y-21892D01*
X38107Y-21862D01*
X38136Y-21836D01*
X38170Y-21817D01*
X38208Y-21805D01*
X38246Y-21801D01*
X38284Y-21804D01*
X38322Y-21814D01*
X38357Y-21832D01*
X38387Y-21856D01*
X38413Y-21885D01*
X38432Y-21919D01*
X38445Y-21956D01*
X38449Y-21995D01*
X38450Y-22000D01*
X38050Y-21800D02*
X38450Y-22200D01*
X38450Y-21800D02*
X38050Y-22200D01*
X38450Y-23000D02*
X38446Y-23038D01*
X38434Y-23076D01*
X38416Y-23110D01*
X38391Y-23140D01*
X38361Y-23165D01*
X38327Y-23184D01*
X38290Y-23195D01*
X38251Y-23199D01*
X38213Y-23196D01*
X38176Y-23185D01*
X38141Y-23167D01*
X38111Y-23142D01*
X38085Y-23112D01*
X38067Y-23078D01*
X38055Y-23041D01*
X38051Y-23002D01*
X38054Y-22964D01*
X38065Y-22927D01*
X38082Y-22892D01*
X38107Y-22862D01*
X38136Y-22836D01*
X38170Y-22817D01*
X38208Y-22805D01*
X38246Y-22801D01*
X38284Y-22804D01*
X38322Y-22814D01*
X38357Y-22832D01*
X38387Y-22856D01*
X38413Y-22885D01*
X38432Y-22919D01*
X38445Y-22956D01*
X38449Y-22995D01*
X38450Y-23000D01*
X38050Y-22800D02*
X38450Y-23200D01*
X38450Y-22800D02*
X38050Y-23200D01*
X38450Y-49500D02*
X38446Y-49538D01*
X38434Y-49576D01*
X38416Y-49610D01*
X38391Y-49640D01*
X38361Y-49665D01*
X38327Y-49684D01*
X38290Y-49695D01*
X38251Y-49699D01*
X38213Y-49696D01*
X38176Y-49685D01*
X38141Y-49667D01*
X38111Y-49642D01*
X38085Y-49612D01*
X38067Y-49578D01*
X38055Y-49541D01*
X38051Y-49502D01*
X38054Y-49464D01*
X38065Y-49427D01*
X38082Y-49392D01*
X38107Y-49362D01*
X38136Y-49336D01*
X38170Y-49317D01*
X38208Y-49305D01*
X38246Y-49301D01*
X38284Y-49304D01*
X38322Y-49314D01*
X38357Y-49332D01*
X38387Y-49356D01*
X38413Y-49385D01*
X38432Y-49419D01*
X38445Y-49456D01*
X38449Y-49495D01*
X38450Y-49500D01*
X38050Y-49300D02*
X38450Y-49700D01*
X38450Y-49300D02*
X38050Y-49700D01*
X38450Y-50500D02*
X38446Y-50538D01*
X38434Y-50576D01*
X38416Y-50610D01*
X38391Y-50640D01*
X38361Y-50665D01*
X38327Y-50684D01*
X38290Y-50695D01*
X38251Y-50699D01*
X38213Y-50696D01*
X38176Y-50685D01*
X38141Y-50667D01*
X38111Y-50642D01*
X38085Y-50612D01*
X38067Y-50578D01*
X38055Y-50541D01*
X38051Y-50502D01*
X38054Y-50464D01*
X38065Y-50427D01*
X38082Y-50392D01*
X38107Y-50362D01*
X38136Y-50336D01*
X38170Y-50317D01*
X38208Y-50305D01*
X38246Y-50301D01*
X38284Y-50304D01*
X38322Y-50314D01*
X38357Y-50332D01*
X38387Y-50356D01*
X38413Y-50385D01*
X38432Y-50419D01*
X38445Y-50456D01*
X38449Y-50495D01*
X38450Y-50500D01*
X38050Y-50300D02*
X38450Y-50700D01*
X38450Y-50300D02*
X38050Y-50700D01*
X41950Y-22500D02*
X41946Y-22538D01*
X41934Y-22576D01*
X41916Y-22610D01*
X41891Y-22640D01*
X41861Y-22665D01*
X41827Y-22684D01*
X41790Y-22695D01*
X41751Y-22699D01*
X41713Y-22696D01*
X41676Y-22685D01*
X41641Y-22667D01*
X41611Y-22642D01*
X41585Y-22612D01*
X41567Y-22578D01*
X41555Y-22541D01*
X41551Y-22502D01*
X41554Y-22464D01*
X41565Y-22427D01*
X41582Y-22392D01*
X41607Y-22362D01*
X41636Y-22336D01*
X41670Y-22317D01*
X41708Y-22305D01*
X41746Y-22301D01*
X41784Y-22304D01*
X41822Y-22314D01*
X41857Y-22332D01*
X41887Y-22356D01*
X41913Y-22385D01*
X41932Y-22419D01*
X41945Y-22456D01*
X41949Y-22495D01*
X41950Y-22500D01*
X41550Y-22300D02*
X41950Y-22700D01*
X41950Y-22300D02*
X41550Y-22700D01*
X41950Y-50000D02*
X41946Y-50038D01*
X41934Y-50076D01*
X41916Y-50110D01*
X41891Y-50140D01*
X41861Y-50165D01*
X41827Y-50184D01*
X41790Y-50195D01*
X41751Y-50199D01*
X41713Y-50196D01*
X41676Y-50185D01*
X41641Y-50167D01*
X41611Y-50142D01*
X41585Y-50112D01*
X41567Y-50078D01*
X41555Y-50041D01*
X41551Y-50002D01*
X41554Y-49964D01*
X41565Y-49927D01*
X41582Y-49892D01*
X41607Y-49862D01*
X41636Y-49836D01*
X41670Y-49817D01*
X41708Y-49805D01*
X41746Y-49801D01*
X41784Y-49804D01*
X41822Y-49814D01*
X41857Y-49832D01*
X41887Y-49856D01*
X41913Y-49885D01*
X41932Y-49919D01*
X41945Y-49956D01*
X41949Y-49995D01*
X41950Y-50000D01*
X41550Y-49800D02*
X41950Y-50200D01*
X41950Y-49800D02*
X41550Y-50200D01*
X45950Y-49750D02*
X45946Y-49788D01*
X45934Y-49826D01*
X45916Y-49860D01*
X45891Y-49890D01*
X45861Y-49915D01*
X45827Y-49934D01*
X45790Y-49945D01*
X45751Y-49949D01*
X45713Y-49946D01*
X45676Y-49935D01*
X45641Y-49917D01*
X45611Y-49892D01*
X45585Y-49862D01*
X45567Y-49828D01*
X45555Y-49791D01*
X45551Y-49752D01*
X45554Y-49714D01*
X45565Y-49677D01*
X45582Y-49642D01*
X45607Y-49612D01*
X45636Y-49586D01*
X45670Y-49567D01*
X45708Y-49555D01*
X45746Y-49551D01*
X45784Y-49554D01*
X45822Y-49564D01*
X45857Y-49582D01*
X45887Y-49606D01*
X45913Y-49635D01*
X45932Y-49669D01*
X45945Y-49706D01*
X45949Y-49745D01*
X45950Y-49750D01*
X45550Y-49550D02*
X45950Y-49950D01*
X45950Y-49550D02*
X45550Y-49950D01*
X46950Y-49750D02*
X46946Y-49788D01*
X46934Y-49826D01*
X46916Y-49860D01*
X46891Y-49890D01*
X46861Y-49915D01*
X46827Y-49934D01*
X46790Y-49945D01*
X46751Y-49949D01*
X46713Y-49946D01*
X46676Y-49935D01*
X46641Y-49917D01*
X46611Y-49892D01*
X46585Y-49862D01*
X46567Y-49828D01*
X46555Y-49791D01*
X46551Y-49752D01*
X46554Y-49714D01*
X46565Y-49677D01*
X46582Y-49642D01*
X46607Y-49612D01*
X46636Y-49586D01*
X46670Y-49567D01*
X46708Y-49555D01*
X46746Y-49551D01*
X46784Y-49554D01*
X46822Y-49564D01*
X46857Y-49582D01*
X46887Y-49606D01*
X46913Y-49635D01*
X46932Y-49669D01*
X46945Y-49706D01*
X46949Y-49745D01*
X46950Y-49750D01*
X46550Y-49550D02*
X46950Y-49950D01*
X46950Y-49550D02*
X46550Y-49950D01*
X49450Y-27000D02*
X49446Y-27038D01*
X49434Y-27076D01*
X49416Y-27110D01*
X49391Y-27140D01*
X49361Y-27165D01*
X49327Y-27184D01*
X49290Y-27195D01*
X49251Y-27199D01*
X49213Y-27196D01*
X49176Y-27185D01*
X49141Y-27167D01*
X49111Y-27142D01*
X49085Y-27112D01*
X49067Y-27078D01*
X49055Y-27041D01*
X49051Y-27002D01*
X49054Y-26964D01*
X49065Y-26927D01*
X49082Y-26892D01*
X49107Y-26862D01*
X49136Y-26836D01*
X49170Y-26817D01*
X49208Y-26805D01*
X49246Y-26801D01*
X49284Y-26804D01*
X49322Y-26814D01*
X49357Y-26832D01*
X49387Y-26856D01*
X49413Y-26885D01*
X49432Y-26919D01*
X49445Y-26956D01*
X49449Y-26995D01*
X49450Y-27000D01*
X49050Y-26800D02*
X49450Y-27200D01*
X49450Y-26800D02*
X49050Y-27200D01*
X49450Y-28000D02*
X49446Y-28038D01*
X49434Y-28076D01*
X49416Y-28110D01*
X49391Y-28140D01*
X49361Y-28165D01*
X49327Y-28184D01*
X49290Y-28195D01*
X49251Y-28199D01*
X49213Y-28196D01*
X49176Y-28185D01*
X49141Y-28167D01*
X49111Y-28142D01*
X49085Y-28112D01*
X49067Y-28078D01*
X49055Y-28041D01*
X49051Y-28002D01*
X49054Y-27964D01*
X49065Y-27927D01*
X49082Y-27892D01*
X49107Y-27862D01*
X49136Y-27836D01*
X49170Y-27817D01*
X49208Y-27805D01*
X49246Y-27801D01*
X49284Y-27804D01*
X49322Y-27814D01*
X49357Y-27832D01*
X49387Y-27856D01*
X49413Y-27885D01*
X49432Y-27919D01*
X49445Y-27956D01*
X49449Y-27995D01*
X49450Y-28000D01*
X49050Y-27800D02*
X49450Y-28200D01*
X49450Y-27800D02*
X49050Y-28200D01*
X49450Y-31750D02*
X49446Y-31788D01*
X49434Y-31826D01*
X49416Y-31860D01*
X49391Y-31890D01*
X49361Y-31915D01*
X49327Y-31934D01*
X49290Y-31945D01*
X49251Y-31949D01*
X49213Y-31946D01*
X49176Y-31935D01*
X49141Y-31917D01*
X49111Y-31892D01*
X49085Y-31862D01*
X49067Y-31828D01*
X49055Y-31791D01*
X49051Y-31752D01*
X49054Y-31714D01*
X49065Y-31677D01*
X49082Y-31642D01*
X49107Y-31612D01*
X49136Y-31586D01*
X49170Y-31567D01*
X49208Y-31555D01*
X49246Y-31551D01*
X49284Y-31554D01*
X49322Y-31564D01*
X49357Y-31582D01*
X49387Y-31606D01*
X49413Y-31635D01*
X49432Y-31669D01*
X49445Y-31706D01*
X49449Y-31745D01*
X49450Y-31750D01*
X49050Y-31550D02*
X49450Y-31950D01*
X49450Y-31550D02*
X49050Y-31950D01*
X49450Y-32750D02*
X49446Y-32788D01*
X49434Y-32826D01*
X49416Y-32860D01*
X49391Y-32890D01*
X49361Y-32915D01*
X49327Y-32934D01*
X49290Y-32945D01*
X49251Y-32949D01*
X49213Y-32946D01*
X49176Y-32935D01*
X49141Y-32917D01*
X49111Y-32892D01*
X49085Y-32862D01*
X49067Y-32828D01*
X49055Y-32791D01*
X49051Y-32752D01*
X49054Y-32714D01*
X49065Y-32677D01*
X49082Y-32642D01*
X49107Y-32612D01*
X49136Y-32586D01*
X49170Y-32567D01*
X49208Y-32555D01*
X49246Y-32551D01*
X49284Y-32554D01*
X49322Y-32564D01*
X49357Y-32582D01*
X49387Y-32606D01*
X49413Y-32635D01*
X49432Y-32669D01*
X49445Y-32706D01*
X49449Y-32745D01*
X49450Y-32750D01*
X49050Y-32550D02*
X49450Y-32950D01*
X49450Y-32550D02*
X49050Y-32950D01*
X49450Y-33750D02*
X49446Y-33788D01*
X49434Y-33826D01*
X49416Y-33860D01*
X49391Y-33890D01*
X49361Y-33915D01*
X49327Y-33934D01*
X49290Y-33945D01*
X49251Y-33949D01*
X49213Y-33946D01*
X49176Y-33935D01*
X49141Y-33917D01*
X49111Y-33892D01*
X49085Y-33862D01*
X49067Y-33828D01*
X49055Y-33791D01*
X49051Y-33752D01*
X49054Y-33714D01*
X49065Y-33677D01*
X49082Y-33642D01*
X49107Y-33612D01*
X49136Y-33586D01*
X49170Y-33567D01*
X49208Y-33555D01*
X49246Y-33551D01*
X49284Y-33554D01*
X49322Y-33564D01*
X49357Y-33582D01*
X49387Y-33606D01*
X49413Y-33635D01*
X49432Y-33669D01*
X49445Y-33706D01*
X49449Y-33745D01*
X49450Y-33750D01*
X49050Y-33550D02*
X49450Y-33950D01*
X49450Y-33550D02*
X49050Y-33950D01*
X49450Y-34750D02*
X49446Y-34788D01*
X49434Y-34826D01*
X49416Y-34860D01*
X49391Y-34890D01*
X49361Y-34915D01*
X49327Y-34934D01*
X49290Y-34945D01*
X49251Y-34949D01*
X49213Y-34946D01*
X49176Y-34935D01*
X49141Y-34917D01*
X49111Y-34892D01*
X49085Y-34862D01*
X49067Y-34828D01*
X49055Y-34791D01*
X49051Y-34752D01*
X49054Y-34714D01*
X49065Y-34677D01*
X49082Y-34642D01*
X49107Y-34612D01*
X49136Y-34586D01*
X49170Y-34567D01*
X49208Y-34555D01*
X49246Y-34551D01*
X49284Y-34554D01*
X49322Y-34564D01*
X49357Y-34582D01*
X49387Y-34606D01*
X49413Y-34635D01*
X49432Y-34669D01*
X49445Y-34706D01*
X49449Y-34745D01*
X49450Y-34750D01*
X49050Y-34550D02*
X49450Y-34950D01*
X49450Y-34550D02*
X49050Y-34950D01*
X49450Y-43250D02*
X49446Y-43288D01*
X49434Y-43326D01*
X49416Y-43360D01*
X49391Y-43390D01*
X49361Y-43415D01*
X49327Y-43434D01*
X49290Y-43445D01*
X49251Y-43449D01*
X49213Y-43446D01*
X49176Y-43435D01*
X49141Y-43417D01*
X49111Y-43392D01*
X49085Y-43362D01*
X49067Y-43328D01*
X49055Y-43291D01*
X49051Y-43252D01*
X49054Y-43214D01*
X49065Y-43177D01*
X49082Y-43142D01*
X49107Y-43112D01*
X49136Y-43086D01*
X49170Y-43067D01*
X49208Y-43055D01*
X49246Y-43051D01*
X49284Y-43054D01*
X49322Y-43064D01*
X49357Y-43082D01*
X49387Y-43106D01*
X49413Y-43135D01*
X49432Y-43169D01*
X49445Y-43206D01*
X49449Y-43245D01*
X49450Y-43250D01*
X49050Y-43050D02*
X49450Y-43450D01*
X49450Y-43050D02*
X49050Y-43450D01*
X49450Y-44250D02*
X49446Y-44288D01*
X49434Y-44326D01*
X49416Y-44360D01*
X49391Y-44390D01*
X49361Y-44415D01*
X49327Y-44434D01*
X49290Y-44445D01*
X49251Y-44449D01*
X49213Y-44446D01*
X49176Y-44435D01*
X49141Y-44417D01*
X49111Y-44392D01*
X49085Y-44362D01*
X49067Y-44328D01*
X49055Y-44291D01*
X49051Y-44252D01*
X49054Y-44214D01*
X49065Y-44177D01*
X49082Y-44142D01*
X49107Y-44112D01*
X49136Y-44086D01*
X49170Y-44067D01*
X49208Y-44055D01*
X49246Y-44051D01*
X49284Y-44054D01*
X49322Y-44064D01*
X49357Y-44082D01*
X49387Y-44106D01*
X49413Y-44135D01*
X49432Y-44169D01*
X49445Y-44206D01*
X49449Y-44245D01*
X49450Y-44250D01*
X49050Y-44050D02*
X49450Y-44450D01*
X49450Y-44050D02*
X49050Y-44450D01*
X49450Y-45250D02*
X49446Y-45288D01*
X49434Y-45326D01*
X49416Y-45360D01*
X49391Y-45390D01*
X49361Y-45415D01*
X49327Y-45434D01*
X49290Y-45445D01*
X49251Y-45449D01*
X49213Y-45446D01*
X49176Y-45435D01*
X49141Y-45417D01*
X49111Y-45392D01*
X49085Y-45362D01*
X49067Y-45328D01*
X49055Y-45291D01*
X49051Y-45252D01*
X49054Y-45214D01*
X49065Y-45177D01*
X49082Y-45142D01*
X49107Y-45112D01*
X49136Y-45086D01*
X49170Y-45067D01*
X49208Y-45055D01*
X49246Y-45051D01*
X49284Y-45054D01*
X49322Y-45064D01*
X49357Y-45082D01*
X49387Y-45106D01*
X49413Y-45135D01*
X49432Y-45169D01*
X49445Y-45206D01*
X49449Y-45245D01*
X49450Y-45250D01*
X49050Y-45050D02*
X49450Y-45450D01*
X49450Y-45050D02*
X49050Y-45450D01*
X49450Y-46250D02*
X49446Y-46288D01*
X49434Y-46326D01*
X49416Y-46360D01*
X49391Y-46390D01*
X49361Y-46415D01*
X49327Y-46434D01*
X49290Y-46445D01*
X49251Y-46449D01*
X49213Y-46446D01*
X49176Y-46435D01*
X49141Y-46417D01*
X49111Y-46392D01*
X49085Y-46362D01*
X49067Y-46328D01*
X49055Y-46291D01*
X49051Y-46252D01*
X49054Y-46214D01*
X49065Y-46177D01*
X49082Y-46142D01*
X49107Y-46112D01*
X49136Y-46086D01*
X49170Y-46067D01*
X49208Y-46055D01*
X49246Y-46051D01*
X49284Y-46054D01*
X49322Y-46064D01*
X49357Y-46082D01*
X49387Y-46106D01*
X49413Y-46135D01*
X49432Y-46169D01*
X49445Y-46206D01*
X49449Y-46245D01*
X49450Y-46250D01*
X49050Y-46050D02*
X49450Y-46450D01*
X49450Y-46050D02*
X49050Y-46450D01*
X32275Y-27250D02*
X32269Y-27303D01*
X32254Y-27354D01*
X32229Y-27402D01*
X32195Y-27443D01*
X32153Y-27477D01*
X32106Y-27503D01*
X32055Y-27519D01*
X32001Y-27524D01*
X31949Y-27520D01*
X31897Y-27504D01*
X31850Y-27480D01*
X31808Y-27446D01*
X31774Y-27405D01*
X31748Y-27358D01*
X31732Y-27307D01*
X31726Y-27253D01*
X31730Y-27201D01*
X31745Y-27149D01*
X31769Y-27102D01*
X31803Y-27059D01*
X31844Y-27025D01*
X31890Y-26999D01*
X31941Y-26982D01*
X31995Y-26976D01*
X32047Y-26980D01*
X32099Y-26994D01*
X32147Y-27018D01*
X32189Y-27051D01*
X32224Y-27092D01*
X32251Y-27139D01*
X32268Y-27190D01*
X32274Y-27243D01*
X32275Y-27250D01*
X31725Y-27250D02*
X32275Y-27250D01*
X32275Y-33000D02*
X32269Y-33053D01*
X32254Y-33104D01*
X32229Y-33152D01*
X32195Y-33193D01*
X32153Y-33227D01*
X32106Y-33253D01*
X32055Y-33269D01*
X32001Y-33274D01*
X31949Y-33270D01*
X31897Y-33254D01*
X31850Y-33230D01*
X31808Y-33196D01*
X31774Y-33155D01*
X31748Y-33108D01*
X31732Y-33057D01*
X31726Y-33003D01*
X31730Y-32951D01*
X31745Y-32899D01*
X31769Y-32852D01*
X31803Y-32809D01*
X31844Y-32775D01*
X31890Y-32749D01*
X31941Y-32732D01*
X31995Y-32726D01*
X32047Y-32730D01*
X32099Y-32744D01*
X32147Y-32768D01*
X32189Y-32801D01*
X32224Y-32842D01*
X32251Y-32889D01*
X32268Y-32940D01*
X32274Y-32993D01*
X32275Y-33000D01*
X31725Y-33000D02*
X32275Y-33000D01*
X32275Y-38750D02*
X32269Y-38803D01*
X32254Y-38854D01*
X32229Y-38902D01*
X32195Y-38943D01*
X32153Y-38977D01*
X32106Y-39003D01*
X32055Y-39019D01*
X32001Y-39024D01*
X31949Y-39020D01*
X31897Y-39004D01*
X31850Y-38980D01*
X31808Y-38946D01*
X31774Y-38905D01*
X31748Y-38858D01*
X31732Y-38807D01*
X31726Y-38753D01*
X31730Y-38701D01*
X31745Y-38649D01*
X31769Y-38602D01*
X31803Y-38559D01*
X31844Y-38525D01*
X31890Y-38499D01*
X31941Y-38482D01*
X31995Y-38476D01*
X32047Y-38480D01*
X32099Y-38494D01*
X32147Y-38518D01*
X32189Y-38551D01*
X32224Y-38592D01*
X32251Y-38639D01*
X32268Y-38690D01*
X32274Y-38743D01*
X32275Y-38750D01*
X31725Y-38750D02*
X32275Y-38750D01*
X32275Y-44500D02*
X32269Y-44553D01*
X32254Y-44604D01*
X32229Y-44652D01*
X32195Y-44693D01*
X32153Y-44727D01*
X32106Y-44753D01*
X32055Y-44769D01*
X32001Y-44774D01*
X31949Y-44770D01*
X31897Y-44754D01*
X31850Y-44730D01*
X31808Y-44696D01*
X31774Y-44655D01*
X31748Y-44608D01*
X31732Y-44557D01*
X31726Y-44503D01*
X31730Y-44451D01*
X31745Y-44399D01*
X31769Y-44352D01*
X31803Y-44309D01*
X31844Y-44275D01*
X31890Y-44249D01*
X31941Y-44232D01*
X31995Y-44226D01*
X32047Y-44230D01*
X32099Y-44244D01*
X32147Y-44268D01*
X32189Y-44301D01*
X32224Y-44342D01*
X32251Y-44389D01*
X32268Y-44440D01*
X32274Y-44493D01*
X32275Y-44500D01*
X31725Y-44500D02*
X32275Y-44500D01*
X33275Y-27250D02*
X33269Y-27303D01*
X33254Y-27354D01*
X33229Y-27402D01*
X33195Y-27443D01*
X33153Y-27477D01*
X33106Y-27503D01*
X33055Y-27519D01*
X33001Y-27524D01*
X32949Y-27520D01*
X32897Y-27504D01*
X32850Y-27480D01*
X32808Y-27446D01*
X32774Y-27405D01*
X32748Y-27358D01*
X32732Y-27307D01*
X32726Y-27253D01*
X32730Y-27201D01*
X32745Y-27149D01*
X32769Y-27102D01*
X32803Y-27059D01*
X32844Y-27025D01*
X32890Y-26999D01*
X32941Y-26982D01*
X32995Y-26976D01*
X33047Y-26980D01*
X33099Y-26994D01*
X33147Y-27018D01*
X33189Y-27051D01*
X33224Y-27092D01*
X33251Y-27139D01*
X33268Y-27190D01*
X33274Y-27243D01*
X33275Y-27250D01*
X32725Y-27250D02*
X33275Y-27250D01*
X33275Y-28250D02*
X33269Y-28303D01*
X33254Y-28354D01*
X33229Y-28402D01*
X33195Y-28443D01*
X33153Y-28477D01*
X33106Y-28503D01*
X33055Y-28519D01*
X33001Y-28524D01*
X32949Y-28520D01*
X32897Y-28504D01*
X32850Y-28480D01*
X32808Y-28446D01*
X32774Y-28405D01*
X32748Y-28358D01*
X32732Y-28307D01*
X32726Y-28253D01*
X32730Y-28201D01*
X32745Y-28149D01*
X32769Y-28102D01*
X32803Y-28059D01*
X32844Y-28025D01*
X32890Y-27999D01*
X32941Y-27982D01*
X32995Y-27976D01*
X33047Y-27980D01*
X33099Y-27994D01*
X33147Y-28018D01*
X33189Y-28051D01*
X33224Y-28092D01*
X33251Y-28139D01*
X33268Y-28190D01*
X33274Y-28243D01*
X33275Y-28250D01*
X32725Y-28250D02*
X33275Y-28250D01*
X33275Y-33000D02*
X33269Y-33053D01*
X33254Y-33104D01*
X33229Y-33152D01*
X33195Y-33193D01*
X33153Y-33227D01*
X33106Y-33253D01*
X33055Y-33269D01*
X33001Y-33274D01*
X32949Y-33270D01*
X32897Y-33254D01*
X32850Y-33230D01*
X32808Y-33196D01*
X32774Y-33155D01*
X32748Y-33108D01*
X32732Y-33057D01*
X32726Y-33003D01*
X32730Y-32951D01*
X32745Y-32899D01*
X32769Y-32852D01*
X32803Y-32809D01*
X32844Y-32775D01*
X32890Y-32749D01*
X32941Y-32732D01*
X32995Y-32726D01*
X33047Y-32730D01*
X33099Y-32744D01*
X33147Y-32768D01*
X33189Y-32801D01*
X33224Y-32842D01*
X33251Y-32889D01*
X33268Y-32940D01*
X33274Y-32993D01*
X33275Y-33000D01*
X32725Y-33000D02*
X33275Y-33000D01*
X33275Y-34000D02*
X33269Y-34053D01*
X33254Y-34104D01*
X33229Y-34152D01*
X33195Y-34193D01*
X33153Y-34227D01*
X33106Y-34253D01*
X33055Y-34269D01*
X33001Y-34274D01*
X32949Y-34270D01*
X32897Y-34254D01*
X32850Y-34230D01*
X32808Y-34196D01*
X32774Y-34155D01*
X32748Y-34108D01*
X32732Y-34057D01*
X32726Y-34003D01*
X32730Y-33951D01*
X32745Y-33899D01*
X32769Y-33852D01*
X32803Y-33809D01*
X32844Y-33775D01*
X32890Y-33749D01*
X32941Y-33732D01*
X32995Y-33726D01*
X33047Y-33730D01*
X33099Y-33744D01*
X33147Y-33768D01*
X33189Y-33801D01*
X33224Y-33842D01*
X33251Y-33889D01*
X33268Y-33940D01*
X33274Y-33993D01*
X33275Y-34000D01*
X32725Y-34000D02*
X33275Y-34000D01*
X33275Y-38750D02*
X33269Y-38803D01*
X33254Y-38854D01*
X33229Y-38902D01*
X33195Y-38943D01*
X33153Y-38977D01*
X33106Y-39003D01*
X33055Y-39019D01*
X33001Y-39024D01*
X32949Y-39020D01*
X32897Y-39004D01*
X32850Y-38980D01*
X32808Y-38946D01*
X32774Y-38905D01*
X32748Y-38858D01*
X32732Y-38807D01*
X32726Y-38753D01*
X32730Y-38701D01*
X32745Y-38649D01*
X32769Y-38602D01*
X32803Y-38559D01*
X32844Y-38525D01*
X32890Y-38499D01*
X32941Y-38482D01*
X32995Y-38476D01*
X33047Y-38480D01*
X33099Y-38494D01*
X33147Y-38518D01*
X33189Y-38551D01*
X33224Y-38592D01*
X33251Y-38639D01*
X33268Y-38690D01*
X33274Y-38743D01*
X33275Y-38750D01*
X32725Y-38750D02*
X33275Y-38750D01*
X33275Y-39750D02*
X33269Y-39803D01*
X33254Y-39854D01*
X33229Y-39902D01*
X33195Y-39943D01*
X33153Y-39977D01*
X33106Y-40003D01*
X33055Y-40019D01*
X33001Y-40024D01*
X32949Y-40020D01*
X32897Y-40004D01*
X32850Y-39980D01*
X32808Y-39946D01*
X32774Y-39905D01*
X32748Y-39858D01*
X32732Y-39807D01*
X32726Y-39753D01*
X32730Y-39701D01*
X32745Y-39649D01*
X32769Y-39602D01*
X32803Y-39559D01*
X32844Y-39525D01*
X32890Y-39499D01*
X32941Y-39482D01*
X32995Y-39476D01*
X33047Y-39480D01*
X33099Y-39494D01*
X33147Y-39518D01*
X33189Y-39551D01*
X33224Y-39592D01*
X33251Y-39639D01*
X33268Y-39690D01*
X33274Y-39743D01*
X33275Y-39750D01*
X32725Y-39750D02*
X33275Y-39750D01*
X33275Y-44500D02*
X33269Y-44553D01*
X33254Y-44604D01*
X33229Y-44652D01*
X33195Y-44693D01*
X33153Y-44727D01*
X33106Y-44753D01*
X33055Y-44769D01*
X33001Y-44774D01*
X32949Y-44770D01*
X32897Y-44754D01*
X32850Y-44730D01*
X32808Y-44696D01*
X32774Y-44655D01*
X32748Y-44608D01*
X32732Y-44557D01*
X32726Y-44503D01*
X32730Y-44451D01*
X32745Y-44399D01*
X32769Y-44352D01*
X32803Y-44309D01*
X32844Y-44275D01*
X32890Y-44249D01*
X32941Y-44232D01*
X32995Y-44226D01*
X33047Y-44230D01*
X33099Y-44244D01*
X33147Y-44268D01*
X33189Y-44301D01*
X33224Y-44342D01*
X33251Y-44389D01*
X33268Y-44440D01*
X33274Y-44493D01*
X33275Y-44500D01*
X32725Y-44500D02*
X33275Y-44500D01*
X33275Y-45500D02*
X33269Y-45553D01*
X33254Y-45604D01*
X33229Y-45652D01*
X33195Y-45693D01*
X33153Y-45727D01*
X33106Y-45753D01*
X33055Y-45769D01*
X33001Y-45774D01*
X32949Y-45770D01*
X32897Y-45754D01*
X32850Y-45730D01*
X32808Y-45696D01*
X32774Y-45655D01*
X32748Y-45608D01*
X32732Y-45557D01*
X32726Y-45503D01*
X32730Y-45451D01*
X32745Y-45399D01*
X32769Y-45352D01*
X32803Y-45309D01*
X32844Y-45275D01*
X32890Y-45249D01*
X32941Y-45232D01*
X32995Y-45226D01*
X33047Y-45230D01*
X33099Y-45244D01*
X33147Y-45268D01*
X33189Y-45301D01*
X33224Y-45342D01*
X33251Y-45389D01*
X33268Y-45440D01*
X33274Y-45493D01*
X33275Y-45500D01*
X32725Y-45500D02*
X33275Y-45500D01*
X37025Y-26000D02*
X37019Y-26053D01*
X37004Y-26104D01*
X36979Y-26152D01*
X36945Y-26193D01*
X36903Y-26227D01*
X36856Y-26253D01*
X36805Y-26269D01*
X36751Y-26274D01*
X36699Y-26270D01*
X36647Y-26254D01*
X36600Y-26230D01*
X36558Y-26196D01*
X36524Y-26155D01*
X36498Y-26108D01*
X36482Y-26057D01*
X36476Y-26003D01*
X36480Y-25951D01*
X36495Y-25899D01*
X36519Y-25852D01*
X36553Y-25809D01*
X36594Y-25775D01*
X36640Y-25749D01*
X36691Y-25732D01*
X36745Y-25726D01*
X36797Y-25730D01*
X36849Y-25744D01*
X36897Y-25768D01*
X36939Y-25801D01*
X36974Y-25842D01*
X37001Y-25889D01*
X37018Y-25940D01*
X37024Y-25993D01*
X37025Y-26000D01*
X36475Y-26000D02*
X37025Y-26000D01*
X37025Y-29000D02*
X37019Y-29053D01*
X37004Y-29104D01*
X36979Y-29152D01*
X36945Y-29193D01*
X36903Y-29227D01*
X36856Y-29253D01*
X36805Y-29269D01*
X36751Y-29274D01*
X36699Y-29270D01*
X36647Y-29254D01*
X36600Y-29230D01*
X36558Y-29196D01*
X36524Y-29155D01*
X36498Y-29108D01*
X36482Y-29057D01*
X36476Y-29003D01*
X36480Y-28951D01*
X36495Y-28899D01*
X36519Y-28852D01*
X36553Y-28809D01*
X36594Y-28775D01*
X36640Y-28749D01*
X36691Y-28732D01*
X36745Y-28726D01*
X36797Y-28730D01*
X36849Y-28744D01*
X36897Y-28768D01*
X36939Y-28801D01*
X36974Y-28842D01*
X37001Y-28889D01*
X37018Y-28940D01*
X37024Y-28993D01*
X37025Y-29000D01*
X36475Y-29000D02*
X37025Y-29000D01*
X37025Y-31750D02*
X37019Y-31803D01*
X37004Y-31854D01*
X36979Y-31902D01*
X36945Y-31943D01*
X36903Y-31977D01*
X36856Y-32003D01*
X36805Y-32019D01*
X36751Y-32024D01*
X36699Y-32020D01*
X36647Y-32004D01*
X36600Y-31980D01*
X36558Y-31946D01*
X36524Y-31905D01*
X36498Y-31858D01*
X36482Y-31807D01*
X36476Y-31753D01*
X36480Y-31701D01*
X36495Y-31649D01*
X36519Y-31602D01*
X36553Y-31559D01*
X36594Y-31525D01*
X36640Y-31499D01*
X36691Y-31482D01*
X36745Y-31476D01*
X36797Y-31480D01*
X36849Y-31494D01*
X36897Y-31518D01*
X36939Y-31551D01*
X36974Y-31592D01*
X37001Y-31639D01*
X37018Y-31690D01*
X37024Y-31743D01*
X37025Y-31750D01*
X36475Y-31750D02*
X37025Y-31750D01*
X37025Y-34750D02*
X37019Y-34803D01*
X37004Y-34854D01*
X36979Y-34902D01*
X36945Y-34943D01*
X36903Y-34977D01*
X36856Y-35003D01*
X36805Y-35019D01*
X36751Y-35024D01*
X36699Y-35020D01*
X36647Y-35004D01*
X36600Y-34980D01*
X36558Y-34946D01*
X36524Y-34905D01*
X36498Y-34858D01*
X36482Y-34807D01*
X36476Y-34753D01*
X36480Y-34701D01*
X36495Y-34649D01*
X36519Y-34602D01*
X36553Y-34559D01*
X36594Y-34525D01*
X36640Y-34499D01*
X36691Y-34482D01*
X36745Y-34476D01*
X36797Y-34480D01*
X36849Y-34494D01*
X36897Y-34518D01*
X36939Y-34551D01*
X36974Y-34592D01*
X37001Y-34639D01*
X37018Y-34690D01*
X37024Y-34743D01*
X37025Y-34750D01*
X36475Y-34750D02*
X37025Y-34750D01*
X37025Y-37500D02*
X37019Y-37553D01*
X37004Y-37604D01*
X36979Y-37652D01*
X36945Y-37693D01*
X36903Y-37727D01*
X36856Y-37753D01*
X36805Y-37769D01*
X36751Y-37774D01*
X36699Y-37770D01*
X36647Y-37754D01*
X36600Y-37730D01*
X36558Y-37696D01*
X36524Y-37655D01*
X36498Y-37608D01*
X36482Y-37557D01*
X36476Y-37503D01*
X36480Y-37451D01*
X36495Y-37399D01*
X36519Y-37352D01*
X36553Y-37309D01*
X36594Y-37275D01*
X36640Y-37249D01*
X36691Y-37232D01*
X36745Y-37226D01*
X36797Y-37230D01*
X36849Y-37244D01*
X36897Y-37268D01*
X36939Y-37301D01*
X36974Y-37342D01*
X37001Y-37389D01*
X37018Y-37440D01*
X37024Y-37493D01*
X37025Y-37500D01*
X36475Y-37500D02*
X37025Y-37500D01*
X37025Y-40500D02*
X37019Y-40553D01*
X37004Y-40604D01*
X36979Y-40652D01*
X36945Y-40693D01*
X36903Y-40727D01*
X36856Y-40753D01*
X36805Y-40769D01*
X36751Y-40774D01*
X36699Y-40770D01*
X36647Y-40754D01*
X36600Y-40730D01*
X36558Y-40696D01*
X36524Y-40655D01*
X36498Y-40608D01*
X36482Y-40557D01*
X36476Y-40503D01*
X36480Y-40451D01*
X36495Y-40399D01*
X36519Y-40352D01*
X36553Y-40309D01*
X36594Y-40275D01*
X36640Y-40249D01*
X36691Y-40232D01*
X36745Y-40226D01*
X36797Y-40230D01*
X36849Y-40244D01*
X36897Y-40268D01*
X36939Y-40301D01*
X36974Y-40342D01*
X37001Y-40389D01*
X37018Y-40440D01*
X37024Y-40493D01*
X37025Y-40500D01*
X36475Y-40500D02*
X37025Y-40500D01*
X37025Y-43250D02*
X37019Y-43303D01*
X37004Y-43354D01*
X36979Y-43402D01*
X36945Y-43443D01*
X36903Y-43477D01*
X36856Y-43503D01*
X36805Y-43519D01*
X36751Y-43524D01*
X36699Y-43520D01*
X36647Y-43504D01*
X36600Y-43480D01*
X36558Y-43446D01*
X36524Y-43405D01*
X36498Y-43358D01*
X36482Y-43307D01*
X36476Y-43253D01*
X36480Y-43201D01*
X36495Y-43149D01*
X36519Y-43102D01*
X36553Y-43059D01*
X36594Y-43025D01*
X36640Y-42999D01*
X36691Y-42982D01*
X36745Y-42976D01*
X36797Y-42980D01*
X36849Y-42994D01*
X36897Y-43018D01*
X36939Y-43051D01*
X36974Y-43092D01*
X37001Y-43139D01*
X37018Y-43190D01*
X37024Y-43243D01*
X37025Y-43250D01*
X36475Y-43250D02*
X37025Y-43250D01*
X37025Y-46250D02*
X37019Y-46303D01*
X37004Y-46354D01*
X36979Y-46402D01*
X36945Y-46443D01*
X36903Y-46477D01*
X36856Y-46503D01*
X36805Y-46519D01*
X36751Y-46524D01*
X36699Y-46520D01*
X36647Y-46504D01*
X36600Y-46480D01*
X36558Y-46446D01*
X36524Y-46405D01*
X36498Y-46358D01*
X36482Y-46307D01*
X36476Y-46253D01*
X36480Y-46201D01*
X36495Y-46149D01*
X36519Y-46102D01*
X36553Y-46059D01*
X36594Y-46025D01*
X36640Y-45999D01*
X36691Y-45982D01*
X36745Y-45976D01*
X36797Y-45980D01*
X36849Y-45994D01*
X36897Y-46018D01*
X36939Y-46051D01*
X36974Y-46092D01*
X37001Y-46139D01*
X37018Y-46190D01*
X37024Y-46243D01*
X37025Y-46250D01*
X36475Y-46250D02*
X37025Y-46250D01*
X43521Y-29000D02*
X43515Y-29053D01*
X43500Y-29104D01*
X43475Y-29152D01*
X43441Y-29193D01*
X43399Y-29227D01*
X43352Y-29253D01*
X43301Y-29269D01*
X43247Y-29274D01*
X43195Y-29270D01*
X43143Y-29254D01*
X43096Y-29230D01*
X43054Y-29196D01*
X43020Y-29155D01*
X42994Y-29108D01*
X42978Y-29057D01*
X42972Y-29003D01*
X42976Y-28951D01*
X42991Y-28899D01*
X43015Y-28852D01*
X43049Y-28809D01*
X43090Y-28775D01*
X43136Y-28749D01*
X43187Y-28732D01*
X43241Y-28726D01*
X43293Y-28730D01*
X43345Y-28744D01*
X43393Y-28768D01*
X43435Y-28801D01*
X43470Y-28842D01*
X43497Y-28889D01*
X43514Y-28940D01*
X43520Y-28993D01*
X43521Y-29000D01*
X42971Y-29000D02*
X43521Y-29000D01*
X43521Y-34750D02*
X43515Y-34803D01*
X43500Y-34854D01*
X43475Y-34902D01*
X43441Y-34943D01*
X43399Y-34977D01*
X43352Y-35003D01*
X43301Y-35019D01*
X43247Y-35024D01*
X43195Y-35020D01*
X43143Y-35004D01*
X43096Y-34980D01*
X43054Y-34946D01*
X43020Y-34905D01*
X42994Y-34858D01*
X42978Y-34807D01*
X42972Y-34753D01*
X42976Y-34701D01*
X42991Y-34649D01*
X43015Y-34602D01*
X43049Y-34559D01*
X43090Y-34525D01*
X43136Y-34499D01*
X43187Y-34482D01*
X43241Y-34476D01*
X43293Y-34480D01*
X43345Y-34494D01*
X43393Y-34518D01*
X43435Y-34551D01*
X43470Y-34592D01*
X43497Y-34639D01*
X43514Y-34690D01*
X43520Y-34743D01*
X43521Y-34750D01*
X42971Y-34750D02*
X43521Y-34750D01*
X43521Y-40500D02*
X43515Y-40553D01*
X43500Y-40604D01*
X43475Y-40652D01*
X43441Y-40693D01*
X43399Y-40727D01*
X43352Y-40753D01*
X43301Y-40769D01*
X43247Y-40774D01*
X43195Y-40770D01*
X43143Y-40754D01*
X43096Y-40730D01*
X43054Y-40696D01*
X43020Y-40655D01*
X42994Y-40608D01*
X42978Y-40557D01*
X42972Y-40503D01*
X42976Y-40451D01*
X42991Y-40399D01*
X43015Y-40352D01*
X43049Y-40309D01*
X43090Y-40275D01*
X43136Y-40249D01*
X43187Y-40232D01*
X43241Y-40226D01*
X43293Y-40230D01*
X43345Y-40244D01*
X43393Y-40268D01*
X43435Y-40301D01*
X43470Y-40342D01*
X43497Y-40389D01*
X43514Y-40440D01*
X43520Y-40493D01*
X43521Y-40500D01*
X42971Y-40500D02*
X43521Y-40500D01*
X43521Y-46250D02*
X43515Y-46303D01*
X43500Y-46354D01*
X43475Y-46402D01*
X43441Y-46443D01*
X43399Y-46477D01*
X43352Y-46503D01*
X43301Y-46519D01*
X43247Y-46524D01*
X43195Y-46520D01*
X43143Y-46504D01*
X43096Y-46480D01*
X43054Y-46446D01*
X43020Y-46405D01*
X42994Y-46358D01*
X42978Y-46307D01*
X42972Y-46253D01*
X42976Y-46201D01*
X42991Y-46149D01*
X43015Y-46102D01*
X43049Y-46059D01*
X43090Y-46025D01*
X43136Y-45999D01*
X43187Y-45982D01*
X43241Y-45976D01*
X43293Y-45980D01*
X43345Y-45994D01*
X43393Y-46018D01*
X43435Y-46051D01*
X43470Y-46092D01*
X43497Y-46139D01*
X43514Y-46190D01*
X43520Y-46243D01*
X43521Y-46250D01*
X42971Y-46250D02*
X43521Y-46250D01*
X44899Y-26000D02*
X44893Y-26053D01*
X44878Y-26104D01*
X44853Y-26152D01*
X44819Y-26193D01*
X44777Y-26227D01*
X44730Y-26253D01*
X44679Y-26269D01*
X44625Y-26274D01*
X44573Y-26270D01*
X44521Y-26254D01*
X44474Y-26230D01*
X44432Y-26196D01*
X44398Y-26155D01*
X44372Y-26108D01*
X44356Y-26057D01*
X44350Y-26003D01*
X44354Y-25951D01*
X44369Y-25899D01*
X44393Y-25852D01*
X44427Y-25809D01*
X44468Y-25775D01*
X44514Y-25749D01*
X44565Y-25732D01*
X44619Y-25726D01*
X44671Y-25730D01*
X44723Y-25744D01*
X44771Y-25768D01*
X44813Y-25801D01*
X44848Y-25842D01*
X44875Y-25889D01*
X44892Y-25940D01*
X44898Y-25993D01*
X44899Y-26000D01*
X44349Y-26000D02*
X44899Y-26000D01*
X44899Y-31750D02*
X44893Y-31803D01*
X44878Y-31854D01*
X44853Y-31902D01*
X44819Y-31943D01*
X44777Y-31977D01*
X44730Y-32003D01*
X44679Y-32019D01*
X44625Y-32024D01*
X44573Y-32020D01*
X44521Y-32004D01*
X44474Y-31980D01*
X44432Y-31946D01*
X44398Y-31905D01*
X44372Y-31858D01*
X44356Y-31807D01*
X44350Y-31753D01*
X44354Y-31701D01*
X44369Y-31649D01*
X44393Y-31602D01*
X44427Y-31559D01*
X44468Y-31525D01*
X44514Y-31499D01*
X44565Y-31482D01*
X44619Y-31476D01*
X44671Y-31480D01*
X44723Y-31494D01*
X44771Y-31518D01*
X44813Y-31551D01*
X44848Y-31592D01*
X44875Y-31639D01*
X44892Y-31690D01*
X44898Y-31743D01*
X44899Y-31750D01*
X44349Y-31750D02*
X44899Y-31750D01*
X44899Y-37500D02*
X44893Y-37553D01*
X44878Y-37604D01*
X44853Y-37652D01*
X44819Y-37693D01*
X44777Y-37727D01*
X44730Y-37753D01*
X44679Y-37769D01*
X44625Y-37774D01*
X44573Y-37770D01*
X44521Y-37754D01*
X44474Y-37730D01*
X44432Y-37696D01*
X44398Y-37655D01*
X44372Y-37608D01*
X44356Y-37557D01*
X44350Y-37503D01*
X44354Y-37451D01*
X44369Y-37399D01*
X44393Y-37352D01*
X44427Y-37309D01*
X44468Y-37275D01*
X44514Y-37249D01*
X44565Y-37232D01*
X44619Y-37226D01*
X44671Y-37230D01*
X44723Y-37244D01*
X44771Y-37268D01*
X44813Y-37301D01*
X44848Y-37342D01*
X44875Y-37389D01*
X44892Y-37440D01*
X44898Y-37493D01*
X44899Y-37500D01*
X44349Y-37500D02*
X44899Y-37500D01*
X44899Y-43250D02*
X44893Y-43303D01*
X44878Y-43354D01*
X44853Y-43402D01*
X44819Y-43443D01*
X44777Y-43477D01*
X44730Y-43503D01*
X44679Y-43519D01*
X44625Y-43524D01*
X44573Y-43520D01*
X44521Y-43504D01*
X44474Y-43480D01*
X44432Y-43446D01*
X44398Y-43405D01*
X44372Y-43358D01*
X44356Y-43307D01*
X44350Y-43253D01*
X44354Y-43201D01*
X44369Y-43149D01*
X44393Y-43102D01*
X44427Y-43059D01*
X44468Y-43025D01*
X44514Y-42999D01*
X44565Y-42982D01*
X44619Y-42976D01*
X44671Y-42980D01*
X44723Y-42994D01*
X44771Y-43018D01*
X44813Y-43051D01*
X44848Y-43092D01*
X44875Y-43139D01*
X44892Y-43190D01*
X44898Y-43243D01*
X44899Y-43250D01*
X44349Y-43250D02*
X44899Y-43250D01*
X46277Y-29000D02*
X46271Y-29053D01*
X46256Y-29104D01*
X46231Y-29152D01*
X46197Y-29193D01*
X46155Y-29227D01*
X46108Y-29253D01*
X46057Y-29269D01*
X46003Y-29274D01*
X45951Y-29270D01*
X45899Y-29254D01*
X45852Y-29230D01*
X45810Y-29196D01*
X45776Y-29155D01*
X45750Y-29108D01*
X45734Y-29057D01*
X45728Y-29003D01*
X45732Y-28951D01*
X45747Y-28899D01*
X45771Y-28852D01*
X45805Y-28809D01*
X45846Y-28775D01*
X45892Y-28749D01*
X45943Y-28732D01*
X45997Y-28726D01*
X46049Y-28730D01*
X46101Y-28744D01*
X46149Y-28768D01*
X46191Y-28801D01*
X46226Y-28842D01*
X46253Y-28889D01*
X46270Y-28940D01*
X46276Y-28993D01*
X46277Y-29000D01*
X45727Y-29000D02*
X46277Y-29000D01*
X46277Y-34750D02*
X46271Y-34803D01*
X46256Y-34854D01*
X46231Y-34902D01*
X46197Y-34943D01*
X46155Y-34977D01*
X46108Y-35003D01*
X46057Y-35019D01*
X46003Y-35024D01*
X45951Y-35020D01*
X45899Y-35004D01*
X45852Y-34980D01*
X45810Y-34946D01*
X45776Y-34905D01*
X45750Y-34858D01*
X45734Y-34807D01*
X45728Y-34753D01*
X45732Y-34701D01*
X45747Y-34649D01*
X45771Y-34602D01*
X45805Y-34559D01*
X45846Y-34525D01*
X45892Y-34499D01*
X45943Y-34482D01*
X45997Y-34476D01*
X46049Y-34480D01*
X46101Y-34494D01*
X46149Y-34518D01*
X46191Y-34551D01*
X46226Y-34592D01*
X46253Y-34639D01*
X46270Y-34690D01*
X46276Y-34743D01*
X46277Y-34750D01*
X45727Y-34750D02*
X46277Y-34750D01*
X46277Y-40500D02*
X46271Y-40553D01*
X46256Y-40604D01*
X46231Y-40652D01*
X46197Y-40693D01*
X46155Y-40727D01*
X46108Y-40753D01*
X46057Y-40769D01*
X46003Y-40774D01*
X45951Y-40770D01*
X45899Y-40754D01*
X45852Y-40730D01*
X45810Y-40696D01*
X45776Y-40655D01*
X45750Y-40608D01*
X45734Y-40557D01*
X45728Y-40503D01*
X45732Y-40451D01*
X45747Y-40399D01*
X45771Y-40352D01*
X45805Y-40309D01*
X45846Y-40275D01*
X45892Y-40249D01*
X45943Y-40232D01*
X45997Y-40226D01*
X46049Y-40230D01*
X46101Y-40244D01*
X46149Y-40268D01*
X46191Y-40301D01*
X46226Y-40342D01*
X46253Y-40389D01*
X46270Y-40440D01*
X46276Y-40493D01*
X46277Y-40500D01*
X45727Y-40500D02*
X46277Y-40500D01*
X46277Y-46250D02*
X46271Y-46303D01*
X46256Y-46354D01*
X46231Y-46402D01*
X46197Y-46443D01*
X46155Y-46477D01*
X46108Y-46503D01*
X46057Y-46519D01*
X46003Y-46524D01*
X45951Y-46520D01*
X45899Y-46504D01*
X45852Y-46480D01*
X45810Y-46446D01*
X45776Y-46405D01*
X45750Y-46358D01*
X45734Y-46307D01*
X45728Y-46253D01*
X45732Y-46201D01*
X45747Y-46149D01*
X45771Y-46102D01*
X45805Y-46059D01*
X45846Y-46025D01*
X45892Y-45999D01*
X45943Y-45982D01*
X45997Y-45976D01*
X46049Y-45980D01*
X46101Y-45994D01*
X46149Y-46018D01*
X46191Y-46051D01*
X46226Y-46092D01*
X46253Y-46139D01*
X46270Y-46190D01*
X46276Y-46243D01*
X46277Y-46250D01*
X45727Y-46250D02*
X46277Y-46250D01*
X23090Y-50000D02*
X23078Y-50114D01*
X23045Y-50224D01*
X22991Y-50326D01*
X22918Y-50415D01*
X22829Y-50489D01*
X22728Y-50543D01*
X22618Y-50577D01*
X22504Y-50589D01*
X22390Y-50579D01*
X22279Y-50547D01*
X22177Y-50493D01*
X22088Y-50421D01*
X22014Y-50333D01*
X21958Y-50232D01*
X21923Y-50122D01*
X21911Y-50008D01*
X21920Y-49894D01*
X21952Y-49783D01*
X22005Y-49681D01*
X22076Y-49591D01*
X22164Y-49516D01*
X22264Y-49460D01*
X22374Y-49424D01*
X22488Y-49411D01*
X22602Y-49419D01*
X22713Y-49450D01*
X22816Y-49502D01*
X22906Y-49573D01*
X22982Y-49660D01*
X23038Y-49761D01*
X23075Y-49870D01*
X23089Y-49984D01*
X23090Y-50000D01*
X22500Y-49410D02*
X22500Y-50590D01*
X50590Y-22500D02*
X50578Y-22614D01*
X50545Y-22724D01*
X50491Y-22826D01*
X50418Y-22915D01*
X50329Y-22989D01*
X50228Y-23043D01*
X50118Y-23077D01*
X50004Y-23089D01*
X49890Y-23079D01*
X49779Y-23047D01*
X49677Y-22993D01*
X49588Y-22921D01*
X49514Y-22833D01*
X49458Y-22732D01*
X49423Y-22622D01*
X49411Y-22508D01*
X49420Y-22394D01*
X49452Y-22283D01*
X49505Y-22181D01*
X49576Y-22091D01*
X49664Y-22016D01*
X49764Y-21960D01*
X49874Y-21924D01*
X49988Y-21911D01*
X50102Y-21919D01*
X50213Y-21950D01*
X50316Y-22002D01*
X50406Y-22073D01*
X50482Y-22160D01*
X50538Y-22261D01*
X50575Y-22370D01*
X50589Y-22484D01*
X50590Y-22500D01*
X50000Y-21910D02*
X50000Y-23090D01*
X50590Y-50000D02*
X50578Y-50114D01*
X50545Y-50224D01*
X50491Y-50326D01*
X50418Y-50415D01*
X50329Y-50489D01*
X50228Y-50543D01*
X50118Y-50577D01*
X50004Y-50589D01*
X49890Y-50579D01*
X49779Y-50547D01*
X49677Y-50493D01*
X49588Y-50421D01*
X49514Y-50333D01*
X49458Y-50232D01*
X49423Y-50122D01*
X49411Y-50008D01*
X49420Y-49894D01*
X49452Y-49783D01*
X49505Y-49681D01*
X49576Y-49591D01*
X49664Y-49516D01*
X49764Y-49460D01*
X49874Y-49424D01*
X49988Y-49411D01*
X50102Y-49419D01*
X50213Y-49450D01*
X50316Y-49502D01*
X50406Y-49573D01*
X50482Y-49660D01*
X50538Y-49761D01*
X50575Y-49870D01*
X50589Y-49984D01*
X50590Y-50000D01*
X50000Y-49410D02*
X50000Y-50590D01*
G54D12*
X20239Y-54014D02*
X20239Y-53214D01*
X20430Y-53214D01*
X20544Y-53252D01*
X20620Y-53328D01*
X20659Y-53404D01*
X20697Y-53557D01*
X20697Y-53671D01*
X20659Y-53823D01*
X20620Y-53900D01*
X20544Y-53976D01*
X20430Y-54014D01*
X20239Y-54014D01*
X21039Y-54014D02*
X21039Y-53480D01*
X21039Y-53633D02*
X21078Y-53557D01*
X21116Y-53519D01*
X21192Y-53480D01*
X21268Y-53480D01*
X21534Y-54014D02*
X21534Y-53480D01*
X21534Y-53214D02*
X21496Y-53252D01*
X21534Y-53290D01*
X21573Y-53252D01*
X21534Y-53214D01*
X21534Y-53290D01*
X22030Y-54014D02*
X21954Y-53976D01*
X21915Y-53900D01*
X21915Y-53214D01*
X22449Y-54014D02*
X22373Y-53976D01*
X22334Y-53900D01*
X22334Y-53214D01*
X23363Y-54014D02*
X23363Y-53214D01*
X23630Y-53785D01*
X23897Y-53214D01*
X23897Y-54014D01*
X24620Y-54014D02*
X24620Y-53595D01*
X24582Y-53519D01*
X24506Y-53480D01*
X24354Y-53480D01*
X24277Y-53519D01*
X24620Y-53976D02*
X24544Y-54014D01*
X24354Y-54014D01*
X24277Y-53976D01*
X24239Y-53900D01*
X24239Y-53823D01*
X24277Y-53747D01*
X24354Y-53709D01*
X24544Y-53709D01*
X24620Y-53671D01*
X25001Y-53480D02*
X25001Y-54280D01*
X25001Y-53519D02*
X25078Y-53480D01*
X25230Y-53480D01*
X25306Y-53519D01*
X25344Y-53557D01*
X25382Y-53633D01*
X25382Y-53861D01*
X25344Y-53938D01*
X25306Y-53976D01*
X25230Y-54014D01*
X25078Y-54014D01*
X25001Y-53976D01*
X25725Y-53938D02*
X25764Y-53976D01*
X25725Y-54014D01*
X25687Y-53976D01*
X25725Y-53938D01*
X25725Y-54014D01*
X25725Y-53519D02*
X25764Y-53557D01*
X25725Y-53595D01*
X25687Y-53557D01*
X25725Y-53519D01*
X25725Y-53595D01*
X19609Y-55250D02*
X19849Y-55490D01*
X19849Y-55250D02*
X19609Y-55490D01*
X20392Y-54894D02*
X20468Y-54894D01*
X20544Y-54932D01*
X20582Y-54970D01*
X20620Y-55046D01*
X20659Y-55199D01*
X20659Y-55389D01*
X20620Y-55541D01*
X20582Y-55618D01*
X20544Y-55656D01*
X20468Y-55694D01*
X20392Y-55694D01*
X20316Y-55656D01*
X20278Y-55618D01*
X20239Y-55541D01*
X20201Y-55389D01*
X20201Y-55199D01*
X20239Y-55046D01*
X20278Y-54970D01*
X20316Y-54932D01*
X20392Y-54894D01*
X21001Y-55618D02*
X21040Y-55656D01*
X21001Y-55694D01*
X20963Y-55656D01*
X21001Y-55618D01*
X21001Y-55694D01*
X21725Y-54894D02*
X21573Y-54894D01*
X21497Y-54932D01*
X21459Y-54970D01*
X21382Y-55084D01*
X21344Y-55237D01*
X21344Y-55541D01*
X21382Y-55618D01*
X21421Y-55656D01*
X21497Y-55694D01*
X21649Y-55694D01*
X21725Y-55656D01*
X21763Y-55618D01*
X21802Y-55541D01*
X21802Y-55351D01*
X21763Y-55275D01*
X21725Y-55237D01*
X21649Y-55199D01*
X21497Y-55199D01*
X21421Y-55237D01*
X21382Y-55275D01*
X21344Y-55351D01*
X22564Y-55694D02*
X22106Y-55694D01*
X22335Y-55694D02*
X22335Y-54894D01*
X22259Y-55008D01*
X22183Y-55084D01*
X22106Y-55122D01*
X22906Y-55694D02*
X22906Y-55160D01*
X22906Y-55237D02*
X22945Y-55199D01*
X23021Y-55160D01*
X23135Y-55160D01*
X23211Y-55199D01*
X23249Y-55275D01*
X23249Y-55694D01*
X23249Y-55275D02*
X23287Y-55199D01*
X23364Y-55160D01*
X23478Y-55160D01*
X23554Y-55199D01*
X23592Y-55275D01*
X23592Y-55694D01*
X23973Y-55694D02*
X23973Y-55160D01*
X23973Y-55237D02*
X24012Y-55199D01*
X24088Y-55160D01*
X24202Y-55160D01*
X24278Y-55199D01*
X24316Y-55275D01*
X24316Y-55694D01*
X24316Y-55275D02*
X24354Y-55199D01*
X24431Y-55160D01*
X24545Y-55160D01*
X24621Y-55199D01*
X24659Y-55275D01*
X24659Y-55694D01*
X26222Y-54856D02*
X25536Y-55884D01*
X27251Y-54894D02*
X27327Y-54894D01*
X27403Y-54932D01*
X27441Y-54970D01*
X27479Y-55046D01*
X27518Y-55199D01*
X27518Y-55389D01*
X27479Y-55541D01*
X27441Y-55618D01*
X27403Y-55656D01*
X27327Y-55694D01*
X27251Y-55694D01*
X27175Y-55656D01*
X27137Y-55618D01*
X27098Y-55541D01*
X27060Y-55389D01*
X27060Y-55199D01*
X27098Y-55046D01*
X27137Y-54970D01*
X27175Y-54932D01*
X27251Y-54894D01*
X27860Y-55618D02*
X27899Y-55656D01*
X27860Y-55694D01*
X27822Y-55656D01*
X27860Y-55618D01*
X27860Y-55694D01*
X28394Y-54894D02*
X28470Y-54894D01*
X28546Y-54932D01*
X28584Y-54970D01*
X28622Y-55046D01*
X28661Y-55199D01*
X28661Y-55389D01*
X28622Y-55541D01*
X28584Y-55618D01*
X28546Y-55656D01*
X28470Y-55694D01*
X28394Y-55694D01*
X28318Y-55656D01*
X28280Y-55618D01*
X28241Y-55541D01*
X28203Y-55389D01*
X28203Y-55199D01*
X28241Y-55046D01*
X28280Y-54970D01*
X28318Y-54932D01*
X28394Y-54894D01*
X28965Y-54970D02*
X29003Y-54932D01*
X29080Y-54894D01*
X29270Y-54894D01*
X29346Y-54932D01*
X29384Y-54970D01*
X29423Y-55046D01*
X29423Y-55122D01*
X29384Y-55237D01*
X28927Y-55694D01*
X29423Y-55694D01*
X30108Y-55160D02*
X30108Y-55694D01*
X29918Y-54856D02*
X29727Y-55427D01*
X30223Y-55427D01*
X30489Y-54894D02*
X30489Y-55046D01*
X30794Y-54894D02*
X30794Y-55046D01*
X31976Y-55999D02*
X31938Y-55960D01*
X31862Y-55846D01*
X31824Y-55770D01*
X31786Y-55656D01*
X31747Y-55465D01*
X31747Y-55313D01*
X31786Y-55122D01*
X31824Y-55008D01*
X31862Y-54932D01*
X31938Y-54818D01*
X31976Y-54780D01*
X32395Y-55237D02*
X32319Y-55199D01*
X32280Y-55160D01*
X32242Y-55084D01*
X32242Y-55046D01*
X32280Y-54970D01*
X32319Y-54932D01*
X32395Y-54894D01*
X32547Y-54894D01*
X32623Y-54932D01*
X32661Y-54970D01*
X32700Y-55046D01*
X32700Y-55084D01*
X32661Y-55160D01*
X32623Y-55199D01*
X32547Y-55237D01*
X32395Y-55237D01*
X32319Y-55275D01*
X32280Y-55313D01*
X32242Y-55389D01*
X32242Y-55541D01*
X32280Y-55618D01*
X32319Y-55656D01*
X32395Y-55694D01*
X32547Y-55694D01*
X32623Y-55656D01*
X32661Y-55618D01*
X32700Y-55541D01*
X32700Y-55389D01*
X32661Y-55313D01*
X32623Y-55275D01*
X32547Y-55237D01*
X33652Y-55694D02*
X33652Y-54894D01*
X33995Y-55694D02*
X33995Y-55275D01*
X33957Y-55199D01*
X33881Y-55160D01*
X33767Y-55160D01*
X33691Y-55199D01*
X33652Y-55237D01*
X34491Y-55694D02*
X34415Y-55656D01*
X34376Y-55618D01*
X34338Y-55541D01*
X34338Y-55313D01*
X34376Y-55237D01*
X34415Y-55199D01*
X34491Y-55160D01*
X34605Y-55160D01*
X34681Y-55199D01*
X34719Y-55237D01*
X34757Y-55313D01*
X34757Y-55541D01*
X34719Y-55618D01*
X34681Y-55656D01*
X34605Y-55694D01*
X34491Y-55694D01*
X35215Y-55694D02*
X35139Y-55656D01*
X35100Y-55580D01*
X35100Y-54894D01*
X35824Y-55656D02*
X35748Y-55694D01*
X35596Y-55694D01*
X35519Y-55656D01*
X35481Y-55580D01*
X35481Y-55275D01*
X35519Y-55199D01*
X35596Y-55160D01*
X35748Y-55160D01*
X35824Y-55199D01*
X35862Y-55275D01*
X35862Y-55351D01*
X35481Y-55427D01*
X36167Y-55656D02*
X36244Y-55694D01*
X36396Y-55694D01*
X36472Y-55656D01*
X36510Y-55580D01*
X36510Y-55541D01*
X36472Y-55465D01*
X36396Y-55427D01*
X36282Y-55427D01*
X36205Y-55389D01*
X36167Y-55313D01*
X36167Y-55275D01*
X36205Y-55199D01*
X36282Y-55160D01*
X36396Y-55160D01*
X36472Y-55199D01*
X36777Y-55999D02*
X36815Y-55960D01*
X36892Y-55846D01*
X36930Y-55770D01*
X36968Y-55656D01*
X37006Y-55465D01*
X37006Y-55313D01*
X36968Y-55122D01*
X36930Y-55008D01*
X36892Y-54932D01*
X36815Y-54818D01*
X36777Y-54780D01*
G54D10*
X19849Y-56425D02*
X19846Y-56449D01*
X19839Y-56472D01*
X19828Y-56494D01*
X19812Y-56513D01*
X19793Y-56528D01*
X19772Y-56540D01*
X19749Y-56547D01*
X19724Y-56549D01*
X19701Y-56547D01*
X19678Y-56540D01*
X19656Y-56529D01*
X19637Y-56514D01*
X19621Y-56495D01*
X19610Y-56474D01*
X19602Y-56450D01*
X19600Y-56426D01*
X19602Y-56403D01*
X19608Y-56379D01*
X19619Y-56358D01*
X19635Y-56339D01*
X19653Y-56323D01*
X19674Y-56311D01*
X19698Y-56303D01*
X19722Y-56301D01*
X19745Y-56302D01*
X19769Y-56309D01*
X19790Y-56320D01*
X19810Y-56335D01*
X19826Y-56353D01*
X19838Y-56375D01*
X19845Y-56398D01*
X19848Y-56422D01*
X19849Y-56425D01*
G54D12*
X20392Y-55949D02*
X20468Y-55949D01*
X20544Y-55987D01*
X20582Y-56025D01*
X20620Y-56101D01*
X20659Y-56254D01*
X20659Y-56444D01*
X20620Y-56596D01*
X20582Y-56673D01*
X20544Y-56711D01*
X20468Y-56749D01*
X20392Y-56749D01*
X20316Y-56711D01*
X20278Y-56673D01*
X20239Y-56596D01*
X20201Y-56444D01*
X20201Y-56254D01*
X20239Y-56101D01*
X20278Y-56025D01*
X20316Y-55987D01*
X20392Y-55949D01*
X21001Y-56673D02*
X21040Y-56711D01*
X21001Y-56749D01*
X20963Y-56711D01*
X21001Y-56673D01*
X21001Y-56749D01*
X21725Y-55949D02*
X21573Y-55949D01*
X21497Y-55987D01*
X21459Y-56025D01*
X21382Y-56139D01*
X21344Y-56292D01*
X21344Y-56596D01*
X21382Y-56673D01*
X21421Y-56711D01*
X21497Y-56749D01*
X21649Y-56749D01*
X21725Y-56711D01*
X21763Y-56673D01*
X21802Y-56596D01*
X21802Y-56406D01*
X21763Y-56330D01*
X21725Y-56292D01*
X21649Y-56254D01*
X21497Y-56254D01*
X21421Y-56292D01*
X21382Y-56330D01*
X21344Y-56406D01*
X22487Y-56215D02*
X22487Y-56749D01*
X22297Y-55911D02*
X22106Y-56482D01*
X22602Y-56482D01*
X22906Y-56749D02*
X22906Y-56215D01*
X22906Y-56292D02*
X22945Y-56254D01*
X23021Y-56215D01*
X23135Y-56215D01*
X23211Y-56254D01*
X23249Y-56330D01*
X23249Y-56749D01*
X23249Y-56330D02*
X23287Y-56254D01*
X23364Y-56215D01*
X23478Y-56215D01*
X23554Y-56254D01*
X23592Y-56330D01*
X23592Y-56749D01*
X23973Y-56749D02*
X23973Y-56215D01*
X23973Y-56292D02*
X24012Y-56254D01*
X24088Y-56215D01*
X24202Y-56215D01*
X24278Y-56254D01*
X24316Y-56330D01*
X24316Y-56749D01*
X24316Y-56330D02*
X24354Y-56254D01*
X24431Y-56215D01*
X24545Y-56215D01*
X24621Y-56254D01*
X24659Y-56330D01*
X24659Y-56749D01*
X26222Y-55911D02*
X25536Y-56939D01*
X27251Y-55949D02*
X27327Y-55949D01*
X27403Y-55987D01*
X27441Y-56025D01*
X27479Y-56101D01*
X27518Y-56254D01*
X27518Y-56444D01*
X27479Y-56596D01*
X27441Y-56673D01*
X27403Y-56711D01*
X27327Y-56749D01*
X27251Y-56749D01*
X27175Y-56711D01*
X27137Y-56673D01*
X27098Y-56596D01*
X27060Y-56444D01*
X27060Y-56254D01*
X27098Y-56101D01*
X27137Y-56025D01*
X27175Y-55987D01*
X27251Y-55949D01*
X27860Y-56673D02*
X27899Y-56711D01*
X27860Y-56749D01*
X27822Y-56711D01*
X27860Y-56673D01*
X27860Y-56749D01*
X28394Y-55949D02*
X28470Y-55949D01*
X28546Y-55987D01*
X28584Y-56025D01*
X28622Y-56101D01*
X28661Y-56254D01*
X28661Y-56444D01*
X28622Y-56596D01*
X28584Y-56673D01*
X28546Y-56711D01*
X28470Y-56749D01*
X28394Y-56749D01*
X28318Y-56711D01*
X28280Y-56673D01*
X28241Y-56596D01*
X28203Y-56444D01*
X28203Y-56254D01*
X28241Y-56101D01*
X28280Y-56025D01*
X28318Y-55987D01*
X28394Y-55949D01*
X28965Y-56025D02*
X29003Y-55987D01*
X29080Y-55949D01*
X29270Y-55949D01*
X29346Y-55987D01*
X29384Y-56025D01*
X29423Y-56101D01*
X29423Y-56177D01*
X29384Y-56292D01*
X28927Y-56749D01*
X29423Y-56749D01*
X30146Y-55949D02*
X29765Y-55949D01*
X29727Y-56330D01*
X29765Y-56292D01*
X29842Y-56254D01*
X30032Y-56254D01*
X30108Y-56292D01*
X30146Y-56330D01*
X30185Y-56406D01*
X30185Y-56596D01*
X30146Y-56673D01*
X30108Y-56711D01*
X30032Y-56749D01*
X29842Y-56749D01*
X29765Y-56711D01*
X29727Y-56673D01*
X30489Y-55949D02*
X30489Y-56101D01*
X30794Y-55949D02*
X30794Y-56101D01*
X31976Y-57054D02*
X31938Y-57015D01*
X31862Y-56901D01*
X31824Y-56825D01*
X31786Y-56711D01*
X31747Y-56520D01*
X31747Y-56368D01*
X31786Y-56177D01*
X31824Y-56063D01*
X31862Y-55987D01*
X31938Y-55873D01*
X31976Y-55835D01*
X32319Y-56749D02*
X32471Y-56749D01*
X32547Y-56711D01*
X32585Y-56673D01*
X32661Y-56558D01*
X32700Y-56406D01*
X32700Y-56101D01*
X32661Y-56025D01*
X32623Y-55987D01*
X32547Y-55949D01*
X32395Y-55949D01*
X32319Y-55987D01*
X32280Y-56025D01*
X32242Y-56101D01*
X32242Y-56292D01*
X32280Y-56368D01*
X32319Y-56406D01*
X32395Y-56444D01*
X32547Y-56444D01*
X32623Y-56406D01*
X32661Y-56368D01*
X32700Y-56292D01*
X33652Y-56749D02*
X33652Y-55949D01*
X33995Y-56749D02*
X33995Y-56330D01*
X33957Y-56254D01*
X33881Y-56215D01*
X33767Y-56215D01*
X33691Y-56254D01*
X33652Y-56292D01*
X34491Y-56749D02*
X34415Y-56711D01*
X34376Y-56673D01*
X34338Y-56596D01*
X34338Y-56368D01*
X34376Y-56292D01*
X34415Y-56254D01*
X34491Y-56215D01*
X34605Y-56215D01*
X34681Y-56254D01*
X34719Y-56292D01*
X34757Y-56368D01*
X34757Y-56596D01*
X34719Y-56673D01*
X34681Y-56711D01*
X34605Y-56749D01*
X34491Y-56749D01*
X35215Y-56749D02*
X35139Y-56711D01*
X35100Y-56635D01*
X35100Y-55949D01*
X35824Y-56711D02*
X35748Y-56749D01*
X35596Y-56749D01*
X35519Y-56711D01*
X35481Y-56635D01*
X35481Y-56330D01*
X35519Y-56254D01*
X35596Y-56215D01*
X35748Y-56215D01*
X35824Y-56254D01*
X35862Y-56330D01*
X35862Y-56406D01*
X35481Y-56482D01*
X36167Y-56711D02*
X36244Y-56749D01*
X36396Y-56749D01*
X36472Y-56711D01*
X36510Y-56635D01*
X36510Y-56596D01*
X36472Y-56520D01*
X36396Y-56482D01*
X36282Y-56482D01*
X36205Y-56444D01*
X36167Y-56368D01*
X36167Y-56330D01*
X36205Y-56254D01*
X36282Y-56215D01*
X36396Y-56215D01*
X36472Y-56254D01*
X36777Y-57054D02*
X36815Y-57015D01*
X36892Y-56901D01*
X36930Y-56825D01*
X36968Y-56711D01*
X37006Y-56520D01*
X37006Y-56368D01*
X36968Y-56177D01*
X36930Y-56063D01*
X36892Y-55987D01*
X36815Y-55873D01*
X36777Y-55835D01*
X19689Y-57320D02*
X19689Y-57640D01*
X19849Y-57480D02*
X19529Y-57480D01*
X20392Y-57004D02*
X20468Y-57004D01*
X20544Y-57042D01*
X20582Y-57080D01*
X20620Y-57156D01*
X20659Y-57309D01*
X20659Y-57499D01*
X20620Y-57651D01*
X20582Y-57728D01*
X20544Y-57766D01*
X20468Y-57804D01*
X20392Y-57804D01*
X20316Y-57766D01*
X20278Y-57728D01*
X20239Y-57651D01*
X20201Y-57499D01*
X20201Y-57309D01*
X20239Y-57156D01*
X20278Y-57080D01*
X20316Y-57042D01*
X20392Y-57004D01*
X21001Y-57728D02*
X21040Y-57766D01*
X21001Y-57804D01*
X20963Y-57766D01*
X21001Y-57728D01*
X21001Y-57804D01*
X21497Y-57347D02*
X21421Y-57309D01*
X21382Y-57270D01*
X21344Y-57194D01*
X21344Y-57156D01*
X21382Y-57080D01*
X21421Y-57042D01*
X21497Y-57004D01*
X21649Y-57004D01*
X21725Y-57042D01*
X21763Y-57080D01*
X21802Y-57156D01*
X21802Y-57194D01*
X21763Y-57270D01*
X21725Y-57309D01*
X21649Y-57347D01*
X21497Y-57347D01*
X21421Y-57385D01*
X21382Y-57423D01*
X21344Y-57499D01*
X21344Y-57651D01*
X21382Y-57728D01*
X21421Y-57766D01*
X21497Y-57804D01*
X21649Y-57804D01*
X21725Y-57766D01*
X21763Y-57728D01*
X21802Y-57651D01*
X21802Y-57499D01*
X21763Y-57423D01*
X21725Y-57385D01*
X21649Y-57347D01*
X22564Y-57804D02*
X22106Y-57804D01*
X22335Y-57804D02*
X22335Y-57004D01*
X22259Y-57118D01*
X22183Y-57194D01*
X22106Y-57232D01*
X22906Y-57804D02*
X22906Y-57270D01*
X22906Y-57347D02*
X22945Y-57309D01*
X23021Y-57270D01*
X23135Y-57270D01*
X23211Y-57309D01*
X23249Y-57385D01*
X23249Y-57804D01*
X23249Y-57385D02*
X23287Y-57309D01*
X23364Y-57270D01*
X23478Y-57270D01*
X23554Y-57309D01*
X23592Y-57385D01*
X23592Y-57804D01*
X23973Y-57804D02*
X23973Y-57270D01*
X23973Y-57347D02*
X24012Y-57309D01*
X24088Y-57270D01*
X24202Y-57270D01*
X24278Y-57309D01*
X24316Y-57385D01*
X24316Y-57804D01*
X24316Y-57385D02*
X24354Y-57309D01*
X24431Y-57270D01*
X24545Y-57270D01*
X24621Y-57309D01*
X24659Y-57385D01*
X24659Y-57804D01*
X26222Y-56966D02*
X25536Y-57994D01*
X27251Y-57004D02*
X27327Y-57004D01*
X27403Y-57042D01*
X27441Y-57080D01*
X27479Y-57156D01*
X27518Y-57309D01*
X27518Y-57499D01*
X27479Y-57651D01*
X27441Y-57728D01*
X27403Y-57766D01*
X27327Y-57804D01*
X27251Y-57804D01*
X27175Y-57766D01*
X27137Y-57728D01*
X27098Y-57651D01*
X27060Y-57499D01*
X27060Y-57309D01*
X27098Y-57156D01*
X27137Y-57080D01*
X27175Y-57042D01*
X27251Y-57004D01*
X27860Y-57728D02*
X27899Y-57766D01*
X27860Y-57804D01*
X27822Y-57766D01*
X27860Y-57728D01*
X27860Y-57804D01*
X28394Y-57004D02*
X28470Y-57004D01*
X28546Y-57042D01*
X28584Y-57080D01*
X28622Y-57156D01*
X28661Y-57309D01*
X28661Y-57499D01*
X28622Y-57651D01*
X28584Y-57728D01*
X28546Y-57766D01*
X28470Y-57804D01*
X28394Y-57804D01*
X28318Y-57766D01*
X28280Y-57728D01*
X28241Y-57651D01*
X28203Y-57499D01*
X28203Y-57309D01*
X28241Y-57156D01*
X28280Y-57080D01*
X28318Y-57042D01*
X28394Y-57004D01*
X28927Y-57004D02*
X29423Y-57004D01*
X29156Y-57309D01*
X29270Y-57309D01*
X29346Y-57347D01*
X29384Y-57385D01*
X29423Y-57461D01*
X29423Y-57651D01*
X29384Y-57728D01*
X29346Y-57766D01*
X29270Y-57804D01*
X29042Y-57804D01*
X28965Y-57766D01*
X28927Y-57728D01*
X29727Y-57080D02*
X29765Y-57042D01*
X29842Y-57004D01*
X30032Y-57004D01*
X30108Y-57042D01*
X30146Y-57080D01*
X30185Y-57156D01*
X30185Y-57232D01*
X30146Y-57347D01*
X29689Y-57804D01*
X30185Y-57804D01*
X30489Y-57004D02*
X30489Y-57156D01*
X30794Y-57004D02*
X30794Y-57156D01*
X31976Y-58109D02*
X31938Y-58070D01*
X31862Y-57956D01*
X31824Y-57880D01*
X31786Y-57766D01*
X31747Y-57575D01*
X31747Y-57423D01*
X31786Y-57232D01*
X31824Y-57118D01*
X31862Y-57042D01*
X31938Y-56928D01*
X31976Y-56890D01*
X32623Y-57270D02*
X32623Y-57804D01*
X32433Y-56966D02*
X32242Y-57537D01*
X32738Y-57537D01*
X33004Y-57080D02*
X33042Y-57042D01*
X33119Y-57004D01*
X33309Y-57004D01*
X33385Y-57042D01*
X33423Y-57080D01*
X33462Y-57156D01*
X33462Y-57232D01*
X33423Y-57347D01*
X32966Y-57804D01*
X33462Y-57804D01*
X34414Y-57804D02*
X34414Y-57004D01*
X34757Y-57804D02*
X34757Y-57385D01*
X34719Y-57309D01*
X34643Y-57270D01*
X34529Y-57270D01*
X34453Y-57309D01*
X34414Y-57347D01*
X35253Y-57804D02*
X35177Y-57766D01*
X35138Y-57728D01*
X35100Y-57651D01*
X35100Y-57423D01*
X35138Y-57347D01*
X35177Y-57309D01*
X35253Y-57270D01*
X35367Y-57270D01*
X35443Y-57309D01*
X35481Y-57347D01*
X35519Y-57423D01*
X35519Y-57651D01*
X35481Y-57728D01*
X35443Y-57766D01*
X35367Y-57804D01*
X35253Y-57804D01*
X35977Y-57804D02*
X35901Y-57766D01*
X35862Y-57690D01*
X35862Y-57004D01*
X36586Y-57766D02*
X36510Y-57804D01*
X36358Y-57804D01*
X36281Y-57766D01*
X36243Y-57690D01*
X36243Y-57385D01*
X36281Y-57309D01*
X36358Y-57270D01*
X36510Y-57270D01*
X36586Y-57309D01*
X36624Y-57385D01*
X36624Y-57461D01*
X36243Y-57537D01*
X36929Y-57766D02*
X37006Y-57804D01*
X37158Y-57804D01*
X37234Y-57766D01*
X37272Y-57690D01*
X37272Y-57651D01*
X37234Y-57575D01*
X37158Y-57537D01*
X37044Y-57537D01*
X36967Y-57499D01*
X36929Y-57423D01*
X36929Y-57385D01*
X36967Y-57309D01*
X37044Y-57270D01*
X37158Y-57270D01*
X37234Y-57309D01*
X37539Y-58109D02*
X37577Y-58070D01*
X37654Y-57956D01*
X37692Y-57880D01*
X37730Y-57766D01*
X37768Y-57575D01*
X37768Y-57423D01*
X37730Y-57232D01*
X37692Y-57118D01*
X37654Y-57042D01*
X37577Y-56928D01*
X37539Y-56890D01*
G54D10*
X19849Y-58535D02*
X19845Y-58573D01*
X19833Y-58611D01*
X19815Y-58645D01*
X19790Y-58675D01*
X19760Y-58700D01*
X19726Y-58719D01*
X19689Y-58730D01*
X19650Y-58734D01*
X19612Y-58731D01*
X19575Y-58720D01*
X19540Y-58702D01*
X19510Y-58677D01*
X19484Y-58647D01*
X19466Y-58613D01*
X19454Y-58576D01*
X19450Y-58537D01*
X19453Y-58499D01*
X19464Y-58462D01*
X19481Y-58427D01*
X19506Y-58397D01*
X19535Y-58371D01*
X19569Y-58352D01*
X19607Y-58340D01*
X19645Y-58336D01*
X19683Y-58339D01*
X19721Y-58349D01*
X19756Y-58367D01*
X19786Y-58391D01*
X19812Y-58420D01*
X19831Y-58454D01*
X19844Y-58491D01*
X19848Y-58530D01*
X19849Y-58535D01*
X19449Y-58335D02*
X19849Y-58735D01*
X19849Y-58335D02*
X19449Y-58735D01*
G54D12*
X20659Y-58859D02*
X20201Y-58859D01*
X20430Y-58859D02*
X20430Y-58059D01*
X20354Y-58173D01*
X20278Y-58249D01*
X20201Y-58287D01*
X21001Y-58783D02*
X21040Y-58821D01*
X21001Y-58859D01*
X20963Y-58821D01*
X21001Y-58783D01*
X21001Y-58859D01*
X21535Y-58059D02*
X21611Y-58059D01*
X21687Y-58097D01*
X21725Y-58135D01*
X21763Y-58211D01*
X21802Y-58364D01*
X21802Y-58554D01*
X21763Y-58706D01*
X21725Y-58783D01*
X21687Y-58821D01*
X21611Y-58859D01*
X21535Y-58859D01*
X21459Y-58821D01*
X21421Y-58783D01*
X21382Y-58706D01*
X21344Y-58554D01*
X21344Y-58364D01*
X21382Y-58211D01*
X21421Y-58135D01*
X21459Y-58097D01*
X21535Y-58059D01*
X22106Y-58135D02*
X22144Y-58097D01*
X22221Y-58059D01*
X22411Y-58059D01*
X22487Y-58097D01*
X22525Y-58135D01*
X22564Y-58211D01*
X22564Y-58287D01*
X22525Y-58402D01*
X22068Y-58859D01*
X22564Y-58859D01*
X22906Y-58859D02*
X22906Y-58325D01*
X22906Y-58402D02*
X22945Y-58364D01*
X23021Y-58325D01*
X23135Y-58325D01*
X23211Y-58364D01*
X23249Y-58440D01*
X23249Y-58859D01*
X23249Y-58440D02*
X23287Y-58364D01*
X23364Y-58325D01*
X23478Y-58325D01*
X23554Y-58364D01*
X23592Y-58440D01*
X23592Y-58859D01*
X23973Y-58859D02*
X23973Y-58325D01*
X23973Y-58402D02*
X24012Y-58364D01*
X24088Y-58325D01*
X24202Y-58325D01*
X24278Y-58364D01*
X24316Y-58440D01*
X24316Y-58859D01*
X24316Y-58440D02*
X24354Y-58364D01*
X24431Y-58325D01*
X24545Y-58325D01*
X24621Y-58364D01*
X24659Y-58440D01*
X24659Y-58859D01*
X26222Y-58021D02*
X25536Y-59049D01*
X27251Y-58059D02*
X27327Y-58059D01*
X27403Y-58097D01*
X27441Y-58135D01*
X27479Y-58211D01*
X27518Y-58364D01*
X27518Y-58554D01*
X27479Y-58706D01*
X27441Y-58783D01*
X27403Y-58821D01*
X27327Y-58859D01*
X27251Y-58859D01*
X27175Y-58821D01*
X27137Y-58783D01*
X27098Y-58706D01*
X27060Y-58554D01*
X27060Y-58364D01*
X27098Y-58211D01*
X27137Y-58135D01*
X27175Y-58097D01*
X27251Y-58059D01*
X27860Y-58783D02*
X27899Y-58821D01*
X27860Y-58859D01*
X27822Y-58821D01*
X27860Y-58783D01*
X27860Y-58859D01*
X28394Y-58059D02*
X28470Y-58059D01*
X28546Y-58097D01*
X28584Y-58135D01*
X28622Y-58211D01*
X28661Y-58364D01*
X28661Y-58554D01*
X28622Y-58706D01*
X28584Y-58783D01*
X28546Y-58821D01*
X28470Y-58859D01*
X28394Y-58859D01*
X28318Y-58821D01*
X28280Y-58783D01*
X28241Y-58706D01*
X28203Y-58554D01*
X28203Y-58364D01*
X28241Y-58211D01*
X28280Y-58135D01*
X28318Y-58097D01*
X28394Y-58059D01*
X29346Y-58325D02*
X29346Y-58859D01*
X29156Y-58021D02*
X28965Y-58592D01*
X29461Y-58592D01*
X29918Y-58059D02*
X29994Y-58059D01*
X30070Y-58097D01*
X30108Y-58135D01*
X30146Y-58211D01*
X30185Y-58364D01*
X30185Y-58554D01*
X30146Y-58706D01*
X30108Y-58783D01*
X30070Y-58821D01*
X29994Y-58859D01*
X29918Y-58859D01*
X29842Y-58821D01*
X29804Y-58783D01*
X29765Y-58706D01*
X29727Y-58554D01*
X29727Y-58364D01*
X29765Y-58211D01*
X29804Y-58135D01*
X29842Y-58097D01*
X29918Y-58059D01*
X30489Y-58059D02*
X30489Y-58211D01*
X30794Y-58059D02*
X30794Y-58211D01*
X31976Y-59164D02*
X31938Y-59125D01*
X31862Y-59011D01*
X31824Y-58935D01*
X31786Y-58821D01*
X31747Y-58630D01*
X31747Y-58478D01*
X31786Y-58287D01*
X31824Y-58173D01*
X31862Y-58097D01*
X31938Y-57983D01*
X31976Y-57945D01*
X32661Y-58059D02*
X32280Y-58059D01*
X32242Y-58440D01*
X32280Y-58402D01*
X32357Y-58364D01*
X32547Y-58364D01*
X32623Y-58402D01*
X32661Y-58440D01*
X32700Y-58516D01*
X32700Y-58706D01*
X32661Y-58783D01*
X32623Y-58821D01*
X32547Y-58859D01*
X32357Y-58859D01*
X32280Y-58821D01*
X32242Y-58783D01*
X33004Y-58135D02*
X33042Y-58097D01*
X33119Y-58059D01*
X33309Y-58059D01*
X33385Y-58097D01*
X33423Y-58135D01*
X33462Y-58211D01*
X33462Y-58287D01*
X33423Y-58402D01*
X32966Y-58859D01*
X33462Y-58859D01*
X34414Y-58859D02*
X34414Y-58059D01*
X34757Y-58859D02*
X34757Y-58440D01*
X34719Y-58364D01*
X34643Y-58325D01*
X34529Y-58325D01*
X34453Y-58364D01*
X34414Y-58402D01*
X35253Y-58859D02*
X35177Y-58821D01*
X35138Y-58783D01*
X35100Y-58706D01*
X35100Y-58478D01*
X35138Y-58402D01*
X35177Y-58364D01*
X35253Y-58325D01*
X35367Y-58325D01*
X35443Y-58364D01*
X35481Y-58402D01*
X35519Y-58478D01*
X35519Y-58706D01*
X35481Y-58783D01*
X35443Y-58821D01*
X35367Y-58859D01*
X35253Y-58859D01*
X35977Y-58859D02*
X35901Y-58821D01*
X35862Y-58745D01*
X35862Y-58059D01*
X36586Y-58821D02*
X36510Y-58859D01*
X36358Y-58859D01*
X36281Y-58821D01*
X36243Y-58745D01*
X36243Y-58440D01*
X36281Y-58364D01*
X36358Y-58325D01*
X36510Y-58325D01*
X36586Y-58364D01*
X36624Y-58440D01*
X36624Y-58516D01*
X36243Y-58592D01*
X36929Y-58821D02*
X37006Y-58859D01*
X37158Y-58859D01*
X37234Y-58821D01*
X37272Y-58745D01*
X37272Y-58706D01*
X37234Y-58630D01*
X37158Y-58592D01*
X37044Y-58592D01*
X36967Y-58554D01*
X36929Y-58478D01*
X36929Y-58440D01*
X36967Y-58364D01*
X37044Y-58325D01*
X37158Y-58325D01*
X37234Y-58364D01*
X37539Y-59164D02*
X37577Y-59125D01*
X37654Y-59011D01*
X37692Y-58935D01*
X37730Y-58821D01*
X37768Y-58630D01*
X37768Y-58478D01*
X37730Y-58287D01*
X37692Y-58173D01*
X37654Y-58097D01*
X37577Y-57983D01*
X37539Y-57945D01*
G54D10*
X19849Y-59590D02*
X19843Y-59643D01*
X19828Y-59694D01*
X19803Y-59742D01*
X19769Y-59783D01*
X19727Y-59817D01*
X19680Y-59843D01*
X19629Y-59859D01*
X19575Y-59864D01*
X19523Y-59860D01*
X19471Y-59844D01*
X19424Y-59820D01*
X19382Y-59786D01*
X19348Y-59745D01*
X19322Y-59698D01*
X19306Y-59647D01*
X19300Y-59593D01*
X19304Y-59541D01*
X19319Y-59489D01*
X19343Y-59442D01*
X19377Y-59399D01*
X19418Y-59365D01*
X19464Y-59339D01*
X19515Y-59322D01*
X19569Y-59316D01*
X19621Y-59320D01*
X19673Y-59334D01*
X19721Y-59358D01*
X19763Y-59391D01*
X19798Y-59432D01*
X19825Y-59479D01*
X19842Y-59530D01*
X19848Y-59583D01*
X19849Y-59590D01*
X19299Y-59590D02*
X19849Y-59590D01*
G54D12*
X20659Y-59914D02*
X20201Y-59914D01*
X20430Y-59914D02*
X20430Y-59114D01*
X20354Y-59228D01*
X20278Y-59304D01*
X20201Y-59342D01*
X21001Y-59838D02*
X21040Y-59876D01*
X21001Y-59914D01*
X20963Y-59876D01*
X21001Y-59838D01*
X21001Y-59914D01*
X21725Y-59380D02*
X21725Y-59914D01*
X21535Y-59076D02*
X21344Y-59647D01*
X21840Y-59647D01*
X22297Y-59114D02*
X22373Y-59114D01*
X22449Y-59152D01*
X22487Y-59190D01*
X22525Y-59266D01*
X22564Y-59419D01*
X22564Y-59609D01*
X22525Y-59761D01*
X22487Y-59838D01*
X22449Y-59876D01*
X22373Y-59914D01*
X22297Y-59914D01*
X22221Y-59876D01*
X22183Y-59838D01*
X22144Y-59761D01*
X22106Y-59609D01*
X22106Y-59419D01*
X22144Y-59266D01*
X22183Y-59190D01*
X22221Y-59152D01*
X22297Y-59114D01*
X22906Y-59914D02*
X22906Y-59380D01*
X22906Y-59457D02*
X22945Y-59419D01*
X23021Y-59380D01*
X23135Y-59380D01*
X23211Y-59419D01*
X23249Y-59495D01*
X23249Y-59914D01*
X23249Y-59495D02*
X23287Y-59419D01*
X23364Y-59380D01*
X23478Y-59380D01*
X23554Y-59419D01*
X23592Y-59495D01*
X23592Y-59914D01*
X23973Y-59914D02*
X23973Y-59380D01*
X23973Y-59457D02*
X24012Y-59419D01*
X24088Y-59380D01*
X24202Y-59380D01*
X24278Y-59419D01*
X24316Y-59495D01*
X24316Y-59914D01*
X24316Y-59495D02*
X24354Y-59419D01*
X24431Y-59380D01*
X24545Y-59380D01*
X24621Y-59419D01*
X24659Y-59495D01*
X24659Y-59914D01*
X26222Y-59076D02*
X25536Y-60104D01*
X27251Y-59114D02*
X27327Y-59114D01*
X27403Y-59152D01*
X27441Y-59190D01*
X27479Y-59266D01*
X27518Y-59419D01*
X27518Y-59609D01*
X27479Y-59761D01*
X27441Y-59838D01*
X27403Y-59876D01*
X27327Y-59914D01*
X27251Y-59914D01*
X27175Y-59876D01*
X27137Y-59838D01*
X27098Y-59761D01*
X27060Y-59609D01*
X27060Y-59419D01*
X27098Y-59266D01*
X27137Y-59190D01*
X27175Y-59152D01*
X27251Y-59114D01*
X27860Y-59838D02*
X27899Y-59876D01*
X27860Y-59914D01*
X27822Y-59876D01*
X27860Y-59838D01*
X27860Y-59914D01*
X28394Y-59114D02*
X28470Y-59114D01*
X28546Y-59152D01*
X28584Y-59190D01*
X28622Y-59266D01*
X28661Y-59419D01*
X28661Y-59609D01*
X28622Y-59761D01*
X28584Y-59838D01*
X28546Y-59876D01*
X28470Y-59914D01*
X28394Y-59914D01*
X28318Y-59876D01*
X28280Y-59838D01*
X28241Y-59761D01*
X28203Y-59609D01*
X28203Y-59419D01*
X28241Y-59266D01*
X28280Y-59190D01*
X28318Y-59152D01*
X28394Y-59114D01*
X29384Y-59114D02*
X29003Y-59114D01*
X28965Y-59495D01*
X29003Y-59457D01*
X29080Y-59419D01*
X29270Y-59419D01*
X29346Y-59457D01*
X29384Y-59495D01*
X29423Y-59571D01*
X29423Y-59761D01*
X29384Y-59838D01*
X29346Y-59876D01*
X29270Y-59914D01*
X29080Y-59914D01*
X29003Y-59876D01*
X28965Y-59838D01*
X30146Y-59114D02*
X29765Y-59114D01*
X29727Y-59495D01*
X29765Y-59457D01*
X29842Y-59419D01*
X30032Y-59419D01*
X30108Y-59457D01*
X30146Y-59495D01*
X30185Y-59571D01*
X30185Y-59761D01*
X30146Y-59838D01*
X30108Y-59876D01*
X30032Y-59914D01*
X29842Y-59914D01*
X29765Y-59876D01*
X29727Y-59838D01*
X30489Y-59114D02*
X30489Y-59266D01*
X30794Y-59114D02*
X30794Y-59266D01*
X31976Y-60219D02*
X31938Y-60180D01*
X31862Y-60066D01*
X31824Y-59990D01*
X31786Y-59876D01*
X31747Y-59685D01*
X31747Y-59533D01*
X31786Y-59342D01*
X31824Y-59228D01*
X31862Y-59152D01*
X31938Y-59038D01*
X31976Y-59000D01*
X32204Y-59114D02*
X32700Y-59114D01*
X32433Y-59419D01*
X32547Y-59419D01*
X32623Y-59457D01*
X32661Y-59495D01*
X32700Y-59571D01*
X32700Y-59761D01*
X32661Y-59838D01*
X32623Y-59876D01*
X32547Y-59914D01*
X32319Y-59914D01*
X32242Y-59876D01*
X32204Y-59838D01*
X33004Y-59190D02*
X33042Y-59152D01*
X33119Y-59114D01*
X33309Y-59114D01*
X33385Y-59152D01*
X33423Y-59190D01*
X33462Y-59266D01*
X33462Y-59342D01*
X33423Y-59457D01*
X32966Y-59914D01*
X33462Y-59914D01*
X34414Y-59914D02*
X34414Y-59114D01*
X34757Y-59914D02*
X34757Y-59495D01*
X34719Y-59419D01*
X34643Y-59380D01*
X34529Y-59380D01*
X34453Y-59419D01*
X34414Y-59457D01*
X35253Y-59914D02*
X35177Y-59876D01*
X35138Y-59838D01*
X35100Y-59761D01*
X35100Y-59533D01*
X35138Y-59457D01*
X35177Y-59419D01*
X35253Y-59380D01*
X35367Y-59380D01*
X35443Y-59419D01*
X35481Y-59457D01*
X35519Y-59533D01*
X35519Y-59761D01*
X35481Y-59838D01*
X35443Y-59876D01*
X35367Y-59914D01*
X35253Y-59914D01*
X35977Y-59914D02*
X35901Y-59876D01*
X35862Y-59800D01*
X35862Y-59114D01*
X36586Y-59876D02*
X36510Y-59914D01*
X36358Y-59914D01*
X36281Y-59876D01*
X36243Y-59800D01*
X36243Y-59495D01*
X36281Y-59419D01*
X36358Y-59380D01*
X36510Y-59380D01*
X36586Y-59419D01*
X36624Y-59495D01*
X36624Y-59571D01*
X36243Y-59647D01*
X36929Y-59876D02*
X37006Y-59914D01*
X37158Y-59914D01*
X37234Y-59876D01*
X37272Y-59800D01*
X37272Y-59761D01*
X37234Y-59685D01*
X37158Y-59647D01*
X37044Y-59647D01*
X36967Y-59609D01*
X36929Y-59533D01*
X36929Y-59495D01*
X36967Y-59419D01*
X37044Y-59380D01*
X37158Y-59380D01*
X37234Y-59419D01*
X37539Y-60219D02*
X37577Y-60180D01*
X37654Y-60066D01*
X37692Y-59990D01*
X37730Y-59876D01*
X37768Y-59685D01*
X37768Y-59533D01*
X37730Y-59342D01*
X37692Y-59228D01*
X37654Y-59152D01*
X37577Y-59038D01*
X37539Y-59000D01*
G54D10*
X19848Y-60645D02*
X19836Y-60759D01*
X19803Y-60869D01*
X19749Y-60971D01*
X19676Y-61060D01*
X19587Y-61134D01*
X19486Y-61188D01*
X19376Y-61222D01*
X19262Y-61234D01*
X19148Y-61224D01*
X19037Y-61192D01*
X18935Y-61138D01*
X18846Y-61066D01*
X18772Y-60978D01*
X18716Y-60877D01*
X18681Y-60767D01*
X18669Y-60653D01*
X18678Y-60539D01*
X18710Y-60428D01*
X18763Y-60326D01*
X18834Y-60236D01*
X18922Y-60161D01*
X19022Y-60105D01*
X19132Y-60069D01*
X19246Y-60056D01*
X19360Y-60064D01*
X19471Y-60095D01*
X19574Y-60147D01*
X19664Y-60218D01*
X19740Y-60305D01*
X19796Y-60406D01*
X19833Y-60515D01*
X19847Y-60629D01*
X19848Y-60645D01*
X19258Y-60055D02*
X19258Y-61235D01*
G54D12*
X20163Y-60169D02*
X20659Y-60169D01*
X20392Y-60474D01*
X20506Y-60474D01*
X20582Y-60512D01*
X20620Y-60550D01*
X20659Y-60626D01*
X20659Y-60816D01*
X20620Y-60893D01*
X20582Y-60931D01*
X20506Y-60969D01*
X20278Y-60969D01*
X20201Y-60931D01*
X20163Y-60893D01*
X21001Y-60893D02*
X21040Y-60931D01*
X21001Y-60969D01*
X20963Y-60931D01*
X21001Y-60893D01*
X21001Y-60969D01*
X21535Y-60169D02*
X21611Y-60169D01*
X21687Y-60207D01*
X21725Y-60245D01*
X21763Y-60321D01*
X21802Y-60474D01*
X21802Y-60664D01*
X21763Y-60816D01*
X21725Y-60893D01*
X21687Y-60931D01*
X21611Y-60969D01*
X21535Y-60969D01*
X21459Y-60931D01*
X21421Y-60893D01*
X21382Y-60816D01*
X21344Y-60664D01*
X21344Y-60474D01*
X21382Y-60321D01*
X21421Y-60245D01*
X21459Y-60207D01*
X21535Y-60169D01*
X22297Y-60169D02*
X22373Y-60169D01*
X22449Y-60207D01*
X22487Y-60245D01*
X22525Y-60321D01*
X22564Y-60474D01*
X22564Y-60664D01*
X22525Y-60816D01*
X22487Y-60893D01*
X22449Y-60931D01*
X22373Y-60969D01*
X22297Y-60969D01*
X22221Y-60931D01*
X22183Y-60893D01*
X22144Y-60816D01*
X22106Y-60664D01*
X22106Y-60474D01*
X22144Y-60321D01*
X22183Y-60245D01*
X22221Y-60207D01*
X22297Y-60169D01*
X22906Y-60969D02*
X22906Y-60435D01*
X22906Y-60512D02*
X22945Y-60474D01*
X23021Y-60435D01*
X23135Y-60435D01*
X23211Y-60474D01*
X23249Y-60550D01*
X23249Y-60969D01*
X23249Y-60550D02*
X23287Y-60474D01*
X23364Y-60435D01*
X23478Y-60435D01*
X23554Y-60474D01*
X23592Y-60550D01*
X23592Y-60969D01*
X23973Y-60969D02*
X23973Y-60435D01*
X23973Y-60512D02*
X24012Y-60474D01*
X24088Y-60435D01*
X24202Y-60435D01*
X24278Y-60474D01*
X24316Y-60550D01*
X24316Y-60969D01*
X24316Y-60550D02*
X24354Y-60474D01*
X24431Y-60435D01*
X24545Y-60435D01*
X24621Y-60474D01*
X24659Y-60550D01*
X24659Y-60969D01*
X26222Y-60131D02*
X25536Y-61159D01*
X27251Y-60169D02*
X27327Y-60169D01*
X27403Y-60207D01*
X27441Y-60245D01*
X27479Y-60321D01*
X27518Y-60474D01*
X27518Y-60664D01*
X27479Y-60816D01*
X27441Y-60893D01*
X27403Y-60931D01*
X27327Y-60969D01*
X27251Y-60969D01*
X27175Y-60931D01*
X27137Y-60893D01*
X27098Y-60816D01*
X27060Y-60664D01*
X27060Y-60474D01*
X27098Y-60321D01*
X27137Y-60245D01*
X27175Y-60207D01*
X27251Y-60169D01*
X27860Y-60893D02*
X27899Y-60931D01*
X27860Y-60969D01*
X27822Y-60931D01*
X27860Y-60893D01*
X27860Y-60969D01*
X28661Y-60969D02*
X28203Y-60969D01*
X28432Y-60969D02*
X28432Y-60169D01*
X28356Y-60283D01*
X28280Y-60359D01*
X28203Y-60397D01*
X29423Y-60969D02*
X28965Y-60969D01*
X29194Y-60969D02*
X29194Y-60169D01*
X29118Y-60283D01*
X29042Y-60359D01*
X28965Y-60397D01*
X29880Y-60512D02*
X29804Y-60474D01*
X29765Y-60435D01*
X29727Y-60359D01*
X29727Y-60321D01*
X29765Y-60245D01*
X29804Y-60207D01*
X29880Y-60169D01*
X30032Y-60169D01*
X30108Y-60207D01*
X30146Y-60245D01*
X30185Y-60321D01*
X30185Y-60359D01*
X30146Y-60435D01*
X30108Y-60474D01*
X30032Y-60512D01*
X29880Y-60512D01*
X29804Y-60550D01*
X29765Y-60588D01*
X29727Y-60664D01*
X29727Y-60816D01*
X29765Y-60893D01*
X29804Y-60931D01*
X29880Y-60969D01*
X30032Y-60969D01*
X30108Y-60931D01*
X30146Y-60893D01*
X30185Y-60816D01*
X30185Y-60664D01*
X30146Y-60588D01*
X30108Y-60550D01*
X30032Y-60512D01*
X30489Y-60169D02*
X30489Y-60321D01*
X30794Y-60169D02*
X30794Y-60321D01*
X31976Y-61274D02*
X31938Y-61235D01*
X31862Y-61121D01*
X31824Y-61045D01*
X31786Y-60931D01*
X31747Y-60740D01*
X31747Y-60588D01*
X31786Y-60397D01*
X31824Y-60283D01*
X31862Y-60207D01*
X31938Y-60093D01*
X31976Y-60055D01*
X32204Y-60169D02*
X32700Y-60169D01*
X32433Y-60474D01*
X32547Y-60474D01*
X32623Y-60512D01*
X32661Y-60550D01*
X32700Y-60626D01*
X32700Y-60816D01*
X32661Y-60893D01*
X32623Y-60931D01*
X32547Y-60969D01*
X32319Y-60969D01*
X32242Y-60931D01*
X32204Y-60893D01*
X33652Y-60969D02*
X33652Y-60169D01*
X33995Y-60969D02*
X33995Y-60550D01*
X33957Y-60474D01*
X33881Y-60435D01*
X33767Y-60435D01*
X33691Y-60474D01*
X33652Y-60512D01*
X34491Y-60969D02*
X34415Y-60931D01*
X34376Y-60893D01*
X34338Y-60816D01*
X34338Y-60588D01*
X34376Y-60512D01*
X34415Y-60474D01*
X34491Y-60435D01*
X34605Y-60435D01*
X34681Y-60474D01*
X34719Y-60512D01*
X34757Y-60588D01*
X34757Y-60816D01*
X34719Y-60893D01*
X34681Y-60931D01*
X34605Y-60969D01*
X34491Y-60969D01*
X35215Y-60969D02*
X35139Y-60931D01*
X35100Y-60855D01*
X35100Y-60169D01*
X35824Y-60931D02*
X35748Y-60969D01*
X35596Y-60969D01*
X35519Y-60931D01*
X35481Y-60855D01*
X35481Y-60550D01*
X35519Y-60474D01*
X35596Y-60435D01*
X35748Y-60435D01*
X35824Y-60474D01*
X35862Y-60550D01*
X35862Y-60626D01*
X35481Y-60702D01*
X36167Y-60931D02*
X36244Y-60969D01*
X36396Y-60969D01*
X36472Y-60931D01*
X36510Y-60855D01*
X36510Y-60816D01*
X36472Y-60740D01*
X36396Y-60702D01*
X36282Y-60702D01*
X36205Y-60664D01*
X36167Y-60588D01*
X36167Y-60550D01*
X36205Y-60474D01*
X36282Y-60435D01*
X36396Y-60435D01*
X36472Y-60474D01*
X36777Y-61274D02*
X36815Y-61235D01*
X36892Y-61121D01*
X36930Y-61045D01*
X36968Y-60931D01*
X37006Y-60740D01*
X37006Y-60588D01*
X36968Y-60397D01*
X36930Y-60283D01*
X36892Y-60207D01*
X36815Y-60093D01*
X36777Y-60055D01*
M02*
