G04 (created by PCBNEW (2012-01-19 BZR 3256)-stable) date 19/03/2013 15:18:33*
G01*
G70*
G90*
%MOIN*%
G04 Gerber Fmt 3.4, Leading zero omitted, Abs format*
%FSLAX34Y34*%
G04 APERTURE LIST*
%ADD10C,0.001000*%
%ADD11C,0.015000*%
%ADD12C,0.008000*%
G04 APERTURE END LIST*
G54D10*
G54D11*
X09750Y-08000D02*
X09750Y-08750D01*
X12000Y-05750D02*
X09750Y-08000D01*
X64750Y-05750D02*
X12000Y-05750D01*
X67000Y-08000D02*
X64750Y-05750D01*
X67000Y-08750D02*
X67000Y-08000D01*
X12000Y-52500D02*
X22500Y-52500D01*
X09750Y-50250D02*
X09750Y-08750D01*
X12000Y-52500D02*
X09750Y-50250D01*
X67000Y-08750D02*
X67000Y-46000D01*
X67000Y-21500D02*
X67000Y-46000D01*
X59500Y-52500D02*
X22500Y-52500D01*
X59500Y-46000D02*
X59500Y-52500D01*
X59500Y-46000D02*
X67000Y-46000D01*
G54D10*
X13375Y-19625D02*
X13625Y-19875D01*
X13625Y-19625D02*
X13375Y-19875D01*
X14125Y-34875D02*
X14375Y-35125D01*
X14375Y-34875D02*
X14125Y-35125D01*
X14125Y-35875D02*
X14375Y-36125D01*
X14375Y-35875D02*
X14125Y-36125D01*
X15375Y-09125D02*
X15625Y-09375D01*
X15625Y-09125D02*
X15375Y-09375D01*
X17875Y-33625D02*
X18125Y-33875D01*
X18125Y-33625D02*
X17875Y-33875D01*
X17875Y-35625D02*
X18125Y-35875D01*
X18125Y-35625D02*
X17875Y-35875D01*
X20875Y-24875D02*
X21125Y-25125D01*
X21125Y-24875D02*
X20875Y-25125D01*
X22625Y-33875D02*
X22875Y-34125D01*
X22875Y-33875D02*
X22625Y-34125D01*
X23125Y-32875D02*
X23375Y-33125D01*
X23375Y-32875D02*
X23125Y-33125D01*
X27875Y-35375D02*
X28125Y-35625D01*
X28125Y-35375D02*
X27875Y-35625D01*
X27875Y-36875D02*
X28125Y-37125D01*
X28125Y-36875D02*
X27875Y-37125D01*
X27875Y-38375D02*
X28125Y-38625D01*
X28125Y-38375D02*
X27875Y-38625D01*
X27875Y-39875D02*
X28125Y-40125D01*
X28125Y-39875D02*
X27875Y-40125D01*
X28375Y-13125D02*
X28625Y-13375D01*
X28625Y-13125D02*
X28375Y-13375D01*
X29625Y-09125D02*
X29875Y-09375D01*
X29875Y-09125D02*
X29625Y-09375D01*
X32375Y-48375D02*
X32625Y-48625D01*
X32625Y-48375D02*
X32375Y-48625D01*
X36125Y-40875D02*
X36375Y-41125D01*
X36375Y-40875D02*
X36125Y-41125D01*
X38125Y-18875D02*
X38375Y-19125D01*
X38375Y-18875D02*
X38125Y-19125D01*
X39375Y-32625D02*
X39625Y-32875D01*
X39625Y-32625D02*
X39375Y-32875D01*
X39375Y-37375D02*
X39625Y-37625D01*
X39625Y-37375D02*
X39375Y-37625D01*
X40875Y-37625D02*
X41125Y-37875D01*
X41125Y-37625D02*
X40875Y-37875D01*
X40875Y-39625D02*
X41125Y-39875D01*
X41125Y-39625D02*
X40875Y-39875D01*
X42125Y-50125D02*
X42375Y-50375D01*
X42375Y-50125D02*
X42125Y-50375D01*
X43875Y-09125D02*
X44125Y-09375D01*
X44125Y-09125D02*
X43875Y-09375D01*
X45125Y-30125D02*
X45375Y-30375D01*
X45375Y-30125D02*
X45125Y-30375D01*
X45125Y-46625D02*
X45375Y-46875D01*
X45375Y-46625D02*
X45125Y-46875D01*
X49125Y-39625D02*
X49375Y-39875D01*
X49375Y-39625D02*
X49125Y-39875D01*
X49625Y-07875D02*
X49875Y-08125D01*
X49875Y-07875D02*
X49625Y-08125D01*
X50125Y-21375D02*
X50375Y-21625D01*
X50375Y-21375D02*
X50125Y-21625D01*
X50875Y-39625D02*
X51125Y-39875D01*
X51125Y-39625D02*
X50875Y-39875D01*
X51625Y-25125D02*
X51875Y-25375D01*
X51875Y-25125D02*
X51625Y-25375D01*
X51875Y-18875D02*
X52125Y-19125D01*
X52125Y-18875D02*
X51875Y-19125D01*
X52125Y-21125D02*
X52375Y-21375D01*
X52375Y-21125D02*
X52125Y-21375D01*
X52875Y-16625D02*
X53125Y-16875D01*
X53125Y-16625D02*
X52875Y-16875D01*
X53875Y-16625D02*
X54125Y-16875D01*
X54125Y-16625D02*
X53875Y-16875D01*
X54625Y-36625D02*
X54875Y-36875D01*
X54875Y-36625D02*
X54625Y-36875D01*
X54625Y-39125D02*
X54875Y-39375D01*
X54875Y-39125D02*
X54625Y-39375D01*
X55125Y-16625D02*
X55375Y-16875D01*
X55375Y-16625D02*
X55125Y-16875D01*
X55375Y-34125D02*
X55625Y-34375D01*
X55625Y-34125D02*
X55375Y-34375D01*
X56625Y-19875D02*
X56875Y-20125D01*
X56875Y-19875D02*
X56625Y-20125D01*
X56875Y-36875D02*
X57125Y-37125D01*
X57125Y-36875D02*
X56875Y-37125D01*
X57125Y-31875D02*
X57375Y-32125D01*
X57375Y-31875D02*
X57125Y-32125D01*
X58375Y-34625D02*
X58625Y-34875D01*
X58625Y-34625D02*
X58375Y-34875D01*
X59125Y-35875D02*
X59375Y-36125D01*
X59375Y-35875D02*
X59125Y-36125D01*
X59125Y-37875D02*
X59375Y-38125D01*
X59375Y-37875D02*
X59125Y-38125D01*
X60875Y-16375D02*
X61125Y-16625D01*
X61125Y-16375D02*
X60875Y-16625D01*
X65125Y-28125D02*
X65375Y-28375D01*
X65375Y-28125D02*
X65125Y-28375D01*
X37907Y-25250D02*
X37904Y-25280D01*
X37895Y-25309D01*
X37880Y-25336D01*
X37861Y-25360D01*
X37837Y-25380D01*
X37810Y-25394D01*
X37781Y-25403D01*
X37751Y-25406D01*
X37721Y-25404D01*
X37692Y-25395D01*
X37665Y-25381D01*
X37641Y-25362D01*
X37621Y-25338D01*
X37606Y-25311D01*
X37597Y-25282D01*
X37594Y-25252D01*
X37596Y-25222D01*
X37605Y-25193D01*
X37619Y-25165D01*
X37638Y-25141D01*
X37661Y-25122D01*
X37688Y-25107D01*
X37717Y-25097D01*
X37747Y-25094D01*
X37777Y-25096D01*
X37806Y-25104D01*
X37834Y-25118D01*
X37858Y-25137D01*
X37878Y-25160D01*
X37893Y-25187D01*
X37903Y-25216D01*
X37906Y-25246D01*
X37907Y-25250D01*
X13000Y-37590D02*
X13000Y-37910D01*
X13160Y-37750D02*
X12840Y-37750D01*
X13000Y-38590D02*
X13000Y-38910D01*
X13160Y-38750D02*
X12840Y-38750D01*
X13000Y-39590D02*
X13000Y-39910D01*
X13160Y-39750D02*
X12840Y-39750D01*
X13000Y-45590D02*
X13000Y-45910D01*
X13160Y-45750D02*
X12840Y-45750D01*
X13000Y-47590D02*
X13000Y-47910D01*
X13160Y-47750D02*
X12840Y-47750D01*
X15500Y-11340D02*
X15500Y-11660D01*
X15660Y-11500D02*
X15340Y-11500D01*
X15500Y-12340D02*
X15500Y-12660D01*
X15660Y-12500D02*
X15340Y-12500D01*
X15500Y-13590D02*
X15500Y-13910D01*
X15660Y-13750D02*
X15340Y-13750D01*
X15500Y-16590D02*
X15500Y-16910D01*
X15660Y-16750D02*
X15340Y-16750D01*
X15500Y-17840D02*
X15500Y-18160D01*
X15660Y-18000D02*
X15340Y-18000D01*
X15500Y-19840D02*
X15500Y-20160D01*
X15660Y-20000D02*
X15340Y-20000D01*
X16500Y-17840D02*
X16500Y-18160D01*
X16660Y-18000D02*
X16340Y-18000D01*
X16500Y-19340D02*
X16500Y-19660D01*
X16660Y-19500D02*
X16340Y-19500D01*
X17500Y-13590D02*
X17500Y-13910D01*
X17660Y-13750D02*
X17340Y-13750D01*
X17500Y-16590D02*
X17500Y-16910D01*
X17660Y-16750D02*
X17340Y-16750D01*
X18500Y-11340D02*
X18500Y-11660D01*
X18660Y-11500D02*
X18340Y-11500D01*
X18500Y-12340D02*
X18500Y-12660D01*
X18660Y-12500D02*
X18340Y-12500D01*
X18500Y-13590D02*
X18500Y-13910D01*
X18660Y-13750D02*
X18340Y-13750D01*
X18500Y-16590D02*
X18500Y-16910D01*
X18660Y-16750D02*
X18340Y-16750D01*
X19000Y-38590D02*
X19000Y-38910D01*
X19160Y-38750D02*
X18840Y-38750D01*
X19000Y-39590D02*
X19000Y-39910D01*
X19160Y-39750D02*
X18840Y-39750D01*
X19000Y-45590D02*
X19000Y-45910D01*
X19160Y-45750D02*
X18840Y-45750D01*
X19000Y-47590D02*
X19000Y-47910D01*
X19160Y-47750D02*
X18840Y-47750D01*
X19500Y-13590D02*
X19500Y-13910D01*
X19660Y-13750D02*
X19340Y-13750D01*
X19500Y-16590D02*
X19500Y-16910D01*
X19660Y-16750D02*
X19340Y-16750D01*
X19500Y-17840D02*
X19500Y-18160D01*
X19660Y-18000D02*
X19340Y-18000D01*
X19500Y-19340D02*
X19500Y-19660D01*
X19660Y-19500D02*
X19340Y-19500D01*
X20500Y-09590D02*
X20500Y-09910D01*
X20660Y-09750D02*
X20340Y-09750D01*
X20500Y-10590D02*
X20500Y-10910D01*
X20660Y-10750D02*
X20340Y-10750D01*
X20500Y-12090D02*
X20500Y-12410D01*
X20660Y-12250D02*
X20340Y-12250D01*
X20500Y-13590D02*
X20500Y-13910D01*
X20660Y-13750D02*
X20340Y-13750D01*
X20500Y-16590D02*
X20500Y-16910D01*
X20660Y-16750D02*
X20340Y-16750D01*
X21000Y-17840D02*
X21000Y-18160D01*
X21160Y-18000D02*
X20840Y-18000D01*
X21000Y-45090D02*
X21000Y-45410D01*
X21160Y-45250D02*
X20840Y-45250D01*
X21000Y-48090D02*
X21000Y-48410D01*
X21160Y-48250D02*
X20840Y-48250D01*
X21500Y-13590D02*
X21500Y-13910D01*
X21660Y-13750D02*
X21340Y-13750D01*
X21500Y-16590D02*
X21500Y-16910D01*
X21660Y-16750D02*
X21340Y-16750D01*
X22500Y-13590D02*
X22500Y-13910D01*
X22660Y-13750D02*
X22340Y-13750D01*
X22500Y-16590D02*
X22500Y-16910D01*
X22660Y-16750D02*
X22340Y-16750D01*
X23000Y-17840D02*
X23000Y-18160D01*
X23160Y-18000D02*
X22840Y-18000D01*
X23500Y-09590D02*
X23500Y-09910D01*
X23660Y-09750D02*
X23340Y-09750D01*
X23500Y-10590D02*
X23500Y-10910D01*
X23660Y-10750D02*
X23340Y-10750D01*
X23500Y-12090D02*
X23500Y-12410D01*
X23660Y-12250D02*
X23340Y-12250D01*
X23500Y-13590D02*
X23500Y-13910D01*
X23660Y-13750D02*
X23340Y-13750D01*
X23500Y-16590D02*
X23500Y-16910D01*
X23660Y-16750D02*
X23340Y-16750D01*
X24000Y-45090D02*
X24000Y-45410D01*
X24160Y-45250D02*
X23840Y-45250D01*
X24000Y-48090D02*
X24000Y-48410D01*
X24160Y-48250D02*
X23840Y-48250D01*
X24750Y-09590D02*
X24750Y-09910D01*
X24910Y-09750D02*
X24590Y-09750D01*
X25000Y-45840D02*
X25000Y-46160D01*
X25160Y-46000D02*
X24840Y-46000D01*
X25000Y-46840D02*
X25000Y-47160D01*
X25160Y-47000D02*
X24840Y-47000D01*
X25000Y-49340D02*
X25000Y-49660D01*
X25160Y-49500D02*
X24840Y-49500D01*
X25000Y-50340D02*
X25000Y-50660D01*
X25160Y-50500D02*
X24840Y-50500D01*
X25500Y-14590D02*
X25500Y-14910D01*
X25660Y-14750D02*
X25340Y-14750D01*
X25500Y-15590D02*
X25500Y-15910D01*
X25660Y-15750D02*
X25340Y-15750D01*
X26500Y-24090D02*
X26500Y-24410D01*
X26660Y-24250D02*
X26340Y-24250D01*
X26500Y-27090D02*
X26500Y-27410D01*
X26660Y-27250D02*
X26340Y-27250D01*
X27250Y-14590D02*
X27250Y-14910D01*
X27410Y-14750D02*
X27090Y-14750D01*
X27250Y-15590D02*
X27250Y-15910D01*
X27410Y-15750D02*
X27090Y-15750D01*
X27500Y-24840D02*
X27500Y-25160D01*
X27660Y-25000D02*
X27340Y-25000D01*
X27500Y-27840D02*
X27500Y-28160D01*
X27660Y-28000D02*
X27340Y-28000D01*
X27750Y-09590D02*
X27750Y-09910D01*
X27910Y-09750D02*
X27590Y-09750D01*
X27750Y-17840D02*
X27750Y-18160D01*
X27910Y-18000D02*
X27590Y-18000D01*
X29750Y-11340D02*
X29750Y-11660D01*
X29910Y-11500D02*
X29590Y-11500D01*
X29750Y-12340D02*
X29750Y-12660D01*
X29910Y-12500D02*
X29590Y-12500D01*
X29750Y-13590D02*
X29750Y-13910D01*
X29910Y-13750D02*
X29590Y-13750D01*
X29750Y-16590D02*
X29750Y-16910D01*
X29910Y-16750D02*
X29590Y-16750D01*
X29750Y-17840D02*
X29750Y-18160D01*
X29910Y-18000D02*
X29590Y-18000D01*
X30750Y-17840D02*
X30750Y-18160D01*
X30910Y-18000D02*
X30590Y-18000D01*
X30750Y-19340D02*
X30750Y-19660D01*
X30910Y-19500D02*
X30590Y-19500D01*
X31750Y-13590D02*
X31750Y-13910D01*
X31910Y-13750D02*
X31590Y-13750D01*
X31750Y-16590D02*
X31750Y-16910D01*
X31910Y-16750D02*
X31590Y-16750D01*
X32750Y-11340D02*
X32750Y-11660D01*
X32910Y-11500D02*
X32590Y-11500D01*
X32750Y-12340D02*
X32750Y-12660D01*
X32910Y-12500D02*
X32590Y-12500D01*
X32750Y-13590D02*
X32750Y-13910D01*
X32910Y-13750D02*
X32590Y-13750D01*
X32750Y-16590D02*
X32750Y-16910D01*
X32910Y-16750D02*
X32590Y-16750D01*
X33250Y-46590D02*
X33250Y-46910D01*
X33410Y-46750D02*
X33090Y-46750D01*
X33250Y-47590D02*
X33250Y-47910D01*
X33410Y-47750D02*
X33090Y-47750D01*
X33750Y-13590D02*
X33750Y-13910D01*
X33910Y-13750D02*
X33590Y-13750D01*
X33750Y-16590D02*
X33750Y-16910D01*
X33910Y-16750D02*
X33590Y-16750D01*
X33750Y-17840D02*
X33750Y-18160D01*
X33910Y-18000D02*
X33590Y-18000D01*
X33750Y-19340D02*
X33750Y-19660D01*
X33910Y-19500D02*
X33590Y-19500D01*
X33750Y-48590D02*
X33750Y-48910D01*
X33910Y-48750D02*
X33590Y-48750D01*
X34250Y-42590D02*
X34250Y-42910D01*
X34410Y-42750D02*
X34090Y-42750D01*
X34250Y-45590D02*
X34250Y-45910D01*
X34410Y-45750D02*
X34090Y-45750D01*
X34750Y-09590D02*
X34750Y-09910D01*
X34910Y-09750D02*
X34590Y-09750D01*
X34750Y-10590D02*
X34750Y-10910D01*
X34910Y-10750D02*
X34590Y-10750D01*
X34750Y-12090D02*
X34750Y-12410D01*
X34910Y-12250D02*
X34590Y-12250D01*
X34750Y-13590D02*
X34750Y-13910D01*
X34910Y-13750D02*
X34590Y-13750D01*
X34750Y-16590D02*
X34750Y-16910D01*
X34910Y-16750D02*
X34590Y-16750D01*
X35000Y-17840D02*
X35000Y-18160D01*
X35160Y-18000D02*
X34840Y-18000D01*
X35250Y-43090D02*
X35250Y-43410D01*
X35410Y-43250D02*
X35090Y-43250D01*
X35250Y-45090D02*
X35250Y-45410D01*
X35410Y-45250D02*
X35090Y-45250D01*
X35750Y-13590D02*
X35750Y-13910D01*
X35910Y-13750D02*
X35590Y-13750D01*
X35750Y-16590D02*
X35750Y-16910D01*
X35910Y-16750D02*
X35590Y-16750D01*
X35750Y-48590D02*
X35750Y-48910D01*
X35910Y-48750D02*
X35590Y-48750D01*
X36250Y-42590D02*
X36250Y-42910D01*
X36410Y-42750D02*
X36090Y-42750D01*
X36250Y-45590D02*
X36250Y-45910D01*
X36410Y-45750D02*
X36090Y-45750D01*
X36250Y-46590D02*
X36250Y-46910D01*
X36410Y-46750D02*
X36090Y-46750D01*
X36250Y-47590D02*
X36250Y-47910D01*
X36410Y-47750D02*
X36090Y-47750D01*
X36750Y-13590D02*
X36750Y-13910D01*
X36910Y-13750D02*
X36590Y-13750D01*
X36750Y-16590D02*
X36750Y-16910D01*
X36910Y-16750D02*
X36590Y-16750D01*
X37000Y-17840D02*
X37000Y-18160D01*
X37160Y-18000D02*
X36840Y-18000D01*
X37500Y-42590D02*
X37500Y-42910D01*
X37660Y-42750D02*
X37340Y-42750D01*
X37500Y-43590D02*
X37500Y-43910D01*
X37660Y-43750D02*
X37340Y-43750D01*
X37500Y-44590D02*
X37500Y-44910D01*
X37660Y-44750D02*
X37340Y-44750D01*
X37500Y-45590D02*
X37500Y-45910D01*
X37660Y-45750D02*
X37340Y-45750D01*
X37500Y-46590D02*
X37500Y-46910D01*
X37660Y-46750D02*
X37340Y-46750D01*
X37500Y-47590D02*
X37500Y-47910D01*
X37660Y-47750D02*
X37340Y-47750D01*
X37500Y-48590D02*
X37500Y-48910D01*
X37660Y-48750D02*
X37340Y-48750D01*
X37750Y-09590D02*
X37750Y-09910D01*
X37910Y-09750D02*
X37590Y-09750D01*
X37750Y-10590D02*
X37750Y-10910D01*
X37910Y-10750D02*
X37590Y-10750D01*
X37750Y-12090D02*
X37750Y-12410D01*
X37910Y-12250D02*
X37590Y-12250D01*
X37750Y-13590D02*
X37750Y-13910D01*
X37910Y-13750D02*
X37590Y-13750D01*
X37750Y-16590D02*
X37750Y-16910D01*
X37910Y-16750D02*
X37590Y-16750D01*
X38500Y-35340D02*
X38500Y-35660D01*
X38660Y-35500D02*
X38340Y-35500D01*
X38500Y-36340D02*
X38500Y-36660D01*
X38660Y-36500D02*
X38340Y-36500D01*
X38500Y-38840D02*
X38500Y-39160D01*
X38660Y-39000D02*
X38340Y-39000D01*
X38500Y-40590D02*
X38500Y-40910D01*
X38660Y-40750D02*
X38340Y-40750D01*
X39000Y-09590D02*
X39000Y-09910D01*
X39160Y-09750D02*
X38840Y-09750D01*
X39500Y-38840D02*
X39500Y-39160D01*
X39660Y-39000D02*
X39340Y-39000D01*
X39500Y-40590D02*
X39500Y-40910D01*
X39660Y-40750D02*
X39340Y-40750D01*
X39750Y-14590D02*
X39750Y-14910D01*
X39910Y-14750D02*
X39590Y-14750D01*
X39750Y-15590D02*
X39750Y-15910D01*
X39910Y-15750D02*
X39590Y-15750D01*
X39750Y-22090D02*
X39750Y-22410D01*
X39910Y-22250D02*
X39590Y-22250D01*
X39750Y-23090D02*
X39750Y-23410D01*
X39910Y-23250D02*
X39590Y-23250D01*
X39750Y-24090D02*
X39750Y-24410D01*
X39910Y-24250D02*
X39590Y-24250D01*
X39750Y-25090D02*
X39750Y-25410D01*
X39910Y-25250D02*
X39590Y-25250D01*
X40250Y-35340D02*
X40250Y-35660D01*
X40410Y-35500D02*
X40090Y-35500D01*
X40250Y-36340D02*
X40250Y-36660D01*
X40410Y-36500D02*
X40090Y-36500D01*
X40500Y-42590D02*
X40500Y-42910D01*
X40660Y-42750D02*
X40340Y-42750D01*
X40500Y-43590D02*
X40500Y-43910D01*
X40660Y-43750D02*
X40340Y-43750D01*
X40500Y-44590D02*
X40500Y-44910D01*
X40660Y-44750D02*
X40340Y-44750D01*
X40500Y-45590D02*
X40500Y-45910D01*
X40660Y-45750D02*
X40340Y-45750D01*
X40500Y-46590D02*
X40500Y-46910D01*
X40660Y-46750D02*
X40340Y-46750D01*
X40500Y-47590D02*
X40500Y-47910D01*
X40660Y-47750D02*
X40340Y-47750D01*
X40500Y-48590D02*
X40500Y-48910D01*
X40660Y-48750D02*
X40340Y-48750D01*
X41250Y-31090D02*
X41250Y-31410D01*
X41410Y-31250D02*
X41090Y-31250D01*
X41250Y-33090D02*
X41250Y-33410D01*
X41410Y-33250D02*
X41090Y-33250D01*
X41500Y-14590D02*
X41500Y-14910D01*
X41660Y-14750D02*
X41340Y-14750D01*
X41500Y-15590D02*
X41500Y-15910D01*
X41660Y-15750D02*
X41340Y-15750D01*
X41750Y-43590D02*
X41750Y-43910D01*
X41910Y-43750D02*
X41590Y-43750D01*
X41750Y-44590D02*
X41750Y-44910D01*
X41910Y-44750D02*
X41590Y-44750D01*
X41750Y-45590D02*
X41750Y-45910D01*
X41910Y-45750D02*
X41590Y-45750D01*
X41750Y-48590D02*
X41750Y-48910D01*
X41910Y-48750D02*
X41590Y-48750D01*
X42000Y-09590D02*
X42000Y-09910D01*
X42160Y-09750D02*
X41840Y-09750D01*
X42000Y-17840D02*
X42000Y-18160D01*
X42160Y-18000D02*
X41840Y-18000D01*
X42250Y-31090D02*
X42250Y-31410D01*
X42410Y-31250D02*
X42090Y-31250D01*
X42250Y-33090D02*
X42250Y-33410D01*
X42410Y-33250D02*
X42090Y-33250D01*
X42250Y-34340D02*
X42250Y-34660D01*
X42410Y-34500D02*
X42090Y-34500D01*
X42250Y-37340D02*
X42250Y-37660D01*
X42410Y-37500D02*
X42090Y-37500D01*
X42250Y-42590D02*
X42250Y-42910D01*
X42410Y-42750D02*
X42090Y-42750D01*
X42750Y-22090D02*
X42750Y-22410D01*
X42910Y-22250D02*
X42590Y-22250D01*
X42750Y-23090D02*
X42750Y-23410D01*
X42910Y-23250D02*
X42590Y-23250D01*
X42750Y-24090D02*
X42750Y-24410D01*
X42910Y-24250D02*
X42590Y-24250D01*
X42750Y-25090D02*
X42750Y-25410D01*
X42910Y-25250D02*
X42590Y-25250D01*
X42750Y-32090D02*
X42750Y-32410D01*
X42910Y-32250D02*
X42590Y-32250D01*
X42750Y-46090D02*
X42750Y-46410D01*
X42910Y-46250D02*
X42590Y-46250D01*
X42750Y-48090D02*
X42750Y-48410D01*
X42910Y-48250D02*
X42590Y-48250D01*
X43250Y-34340D02*
X43250Y-34660D01*
X43410Y-34500D02*
X43090Y-34500D01*
X43250Y-37340D02*
X43250Y-37660D01*
X43410Y-37500D02*
X43090Y-37500D01*
X43250Y-38590D02*
X43250Y-38910D01*
X43410Y-38750D02*
X43090Y-38750D01*
X43750Y-39590D02*
X43750Y-39910D01*
X43910Y-39750D02*
X43590Y-39750D01*
X43750Y-45590D02*
X43750Y-45910D01*
X43910Y-45750D02*
X43590Y-45750D01*
X43750Y-48590D02*
X43750Y-48910D01*
X43910Y-48750D02*
X43590Y-48750D01*
X44000Y-11340D02*
X44000Y-11660D01*
X44160Y-11500D02*
X43840Y-11500D01*
X44000Y-12340D02*
X44000Y-12660D01*
X44160Y-12500D02*
X43840Y-12500D01*
X44000Y-13590D02*
X44000Y-13910D01*
X44160Y-13750D02*
X43840Y-13750D01*
X44000Y-16590D02*
X44000Y-16910D01*
X44160Y-16750D02*
X43840Y-16750D01*
X44000Y-17840D02*
X44000Y-18160D01*
X44160Y-18000D02*
X43840Y-18000D01*
X44250Y-34340D02*
X44250Y-34660D01*
X44410Y-34500D02*
X44090Y-34500D01*
X44250Y-37340D02*
X44250Y-37660D01*
X44410Y-37500D02*
X44090Y-37500D01*
X44250Y-42590D02*
X44250Y-42910D01*
X44410Y-42750D02*
X44090Y-42750D01*
X44750Y-32090D02*
X44750Y-32410D01*
X44910Y-32250D02*
X44590Y-32250D01*
X44750Y-43590D02*
X44750Y-43910D01*
X44910Y-43750D02*
X44590Y-43750D01*
X44750Y-44590D02*
X44750Y-44910D01*
X44910Y-44750D02*
X44590Y-44750D01*
X45000Y-17840D02*
X45000Y-18160D01*
X45160Y-18000D02*
X44840Y-18000D01*
X45000Y-18840D02*
X45000Y-19160D01*
X45160Y-19000D02*
X44840Y-19000D01*
X45250Y-31090D02*
X45250Y-31410D01*
X45410Y-31250D02*
X45090Y-31250D01*
X45250Y-33090D02*
X45250Y-33410D01*
X45410Y-33250D02*
X45090Y-33250D01*
X45250Y-34340D02*
X45250Y-34660D01*
X45410Y-34500D02*
X45090Y-34500D01*
X45250Y-37340D02*
X45250Y-37660D01*
X45410Y-37500D02*
X45090Y-37500D01*
X45750Y-39590D02*
X45750Y-39910D01*
X45910Y-39750D02*
X45590Y-39750D01*
X46000Y-13590D02*
X46000Y-13910D01*
X46160Y-13750D02*
X45840Y-13750D01*
X46000Y-16590D02*
X46000Y-16910D01*
X46160Y-16750D02*
X45840Y-16750D01*
X46250Y-30090D02*
X46250Y-30410D01*
X46410Y-30250D02*
X46090Y-30250D01*
X46250Y-33090D02*
X46250Y-33410D01*
X46410Y-33250D02*
X46090Y-33250D01*
X46250Y-34340D02*
X46250Y-34660D01*
X46410Y-34500D02*
X46090Y-34500D01*
X46250Y-37340D02*
X46250Y-37660D01*
X46410Y-37500D02*
X46090Y-37500D01*
X46250Y-38590D02*
X46250Y-38910D01*
X46410Y-38750D02*
X46090Y-38750D01*
X46750Y-46590D02*
X46750Y-46910D01*
X46910Y-46750D02*
X46590Y-46750D01*
X46750Y-47590D02*
X46750Y-47910D01*
X46910Y-47750D02*
X46590Y-47750D01*
X47000Y-11340D02*
X47000Y-11660D01*
X47160Y-11500D02*
X46840Y-11500D01*
X47000Y-12340D02*
X47000Y-12660D01*
X47160Y-12500D02*
X46840Y-12500D01*
X47000Y-13590D02*
X47000Y-13910D01*
X47160Y-13750D02*
X46840Y-13750D01*
X47000Y-16590D02*
X47000Y-16910D01*
X47160Y-16750D02*
X46840Y-16750D01*
X47250Y-29590D02*
X47250Y-29910D01*
X47410Y-29750D02*
X47090Y-29750D01*
X47250Y-31090D02*
X47250Y-31410D01*
X47410Y-31250D02*
X47090Y-31250D01*
X47250Y-32090D02*
X47250Y-32410D01*
X47410Y-32250D02*
X47090Y-32250D01*
X47250Y-33090D02*
X47250Y-33410D01*
X47410Y-33250D02*
X47090Y-33250D01*
X47250Y-34340D02*
X47250Y-34660D01*
X47410Y-34500D02*
X47090Y-34500D01*
X47250Y-37340D02*
X47250Y-37660D01*
X47410Y-37500D02*
X47090Y-37500D01*
X47250Y-48590D02*
X47250Y-48910D01*
X47410Y-48750D02*
X47090Y-48750D01*
X47750Y-42590D02*
X47750Y-42910D01*
X47910Y-42750D02*
X47590Y-42750D01*
X47750Y-45590D02*
X47750Y-45910D01*
X47910Y-45750D02*
X47590Y-45750D01*
X48000Y-13590D02*
X48000Y-13910D01*
X48160Y-13750D02*
X47840Y-13750D01*
X48000Y-16590D02*
X48000Y-16910D01*
X48160Y-16750D02*
X47840Y-16750D01*
X48000Y-17840D02*
X48000Y-18160D01*
X48160Y-18000D02*
X47840Y-18000D01*
X48000Y-18840D02*
X48000Y-19160D01*
X48160Y-19000D02*
X47840Y-19000D01*
X48250Y-34340D02*
X48250Y-34660D01*
X48410Y-34500D02*
X48090Y-34500D01*
X48250Y-37340D02*
X48250Y-37660D01*
X48410Y-37500D02*
X48090Y-37500D01*
X48750Y-43090D02*
X48750Y-43410D01*
X48910Y-43250D02*
X48590Y-43250D01*
X48750Y-45090D02*
X48750Y-45410D01*
X48910Y-45250D02*
X48590Y-45250D01*
X49000Y-09590D02*
X49000Y-09910D01*
X49160Y-09750D02*
X48840Y-09750D01*
X49000Y-10590D02*
X49000Y-10910D01*
X49160Y-10750D02*
X48840Y-10750D01*
X49000Y-12090D02*
X49000Y-12410D01*
X49160Y-12250D02*
X48840Y-12250D01*
X49000Y-13590D02*
X49000Y-13910D01*
X49160Y-13750D02*
X48840Y-13750D01*
X49000Y-16590D02*
X49000Y-16910D01*
X49160Y-16750D02*
X48840Y-16750D01*
X49000Y-18590D02*
X49000Y-18910D01*
X49160Y-18750D02*
X48840Y-18750D01*
X49250Y-48590D02*
X49250Y-48910D01*
X49410Y-48750D02*
X49090Y-48750D01*
X49750Y-42590D02*
X49750Y-42910D01*
X49910Y-42750D02*
X49590Y-42750D01*
X49750Y-45590D02*
X49750Y-45910D01*
X49910Y-45750D02*
X49590Y-45750D01*
X49750Y-46590D02*
X49750Y-46910D01*
X49910Y-46750D02*
X49590Y-46750D01*
X49750Y-47590D02*
X49750Y-47910D01*
X49910Y-47750D02*
X49590Y-47750D01*
X50000Y-13590D02*
X50000Y-13910D01*
X50160Y-13750D02*
X49840Y-13750D01*
X50000Y-16590D02*
X50000Y-16910D01*
X50160Y-16750D02*
X49840Y-16750D01*
X50000Y-34340D02*
X50000Y-34660D01*
X50160Y-34500D02*
X49840Y-34500D01*
X50000Y-37340D02*
X50000Y-37660D01*
X50160Y-37500D02*
X49840Y-37500D01*
X50250Y-22090D02*
X50250Y-22410D01*
X50410Y-22250D02*
X50090Y-22250D01*
X50250Y-23090D02*
X50250Y-23410D01*
X50410Y-23250D02*
X50090Y-23250D01*
X50250Y-24090D02*
X50250Y-24410D01*
X50410Y-24250D02*
X50090Y-24250D01*
X50250Y-29590D02*
X50250Y-29910D01*
X50410Y-29750D02*
X50090Y-29750D01*
X50250Y-31090D02*
X50250Y-31410D01*
X50410Y-31250D02*
X50090Y-31250D01*
X50250Y-32090D02*
X50250Y-32410D01*
X50410Y-32250D02*
X50090Y-32250D01*
X50250Y-33090D02*
X50250Y-33410D01*
X50410Y-33250D02*
X50090Y-33250D01*
X51000Y-13590D02*
X51000Y-13910D01*
X51160Y-13750D02*
X50840Y-13750D01*
X51000Y-16590D02*
X51000Y-16910D01*
X51160Y-16750D02*
X50840Y-16750D01*
X51000Y-18590D02*
X51000Y-18910D01*
X51160Y-18750D02*
X50840Y-18750D01*
X51000Y-42590D02*
X51000Y-42910D01*
X51160Y-42750D02*
X50840Y-42750D01*
X51000Y-43590D02*
X51000Y-43910D01*
X51160Y-43750D02*
X50840Y-43750D01*
X51000Y-44590D02*
X51000Y-44910D01*
X51160Y-44750D02*
X50840Y-44750D01*
X51000Y-45590D02*
X51000Y-45910D01*
X51160Y-45750D02*
X50840Y-45750D01*
X51000Y-46590D02*
X51000Y-46910D01*
X51160Y-46750D02*
X50840Y-46750D01*
X51000Y-47590D02*
X51000Y-47910D01*
X51160Y-47750D02*
X50840Y-47750D01*
X51000Y-48590D02*
X51000Y-48910D01*
X51160Y-48750D02*
X50840Y-48750D01*
X51250Y-30840D02*
X51250Y-31160D01*
X51410Y-31000D02*
X51090Y-31000D01*
X51250Y-34340D02*
X51250Y-34660D01*
X51410Y-34500D02*
X51090Y-34500D01*
X51750Y-26590D02*
X51750Y-26910D01*
X51910Y-26750D02*
X51590Y-26750D01*
X51750Y-29590D02*
X51750Y-29910D01*
X51910Y-29750D02*
X51590Y-29750D01*
X52000Y-09590D02*
X52000Y-09910D01*
X52160Y-09750D02*
X51840Y-09750D01*
X52000Y-10590D02*
X52000Y-10910D01*
X52160Y-10750D02*
X51840Y-10750D01*
X52000Y-12090D02*
X52000Y-12410D01*
X52160Y-12250D02*
X51840Y-12250D01*
X52000Y-13590D02*
X52000Y-13910D01*
X52160Y-13750D02*
X51840Y-13750D01*
X52000Y-16590D02*
X52000Y-16910D01*
X52160Y-16750D02*
X51840Y-16750D01*
X52000Y-38840D02*
X52000Y-39160D01*
X52160Y-39000D02*
X51840Y-39000D01*
X52000Y-40590D02*
X52000Y-40910D01*
X52160Y-40750D02*
X51840Y-40750D01*
X53000Y-38840D02*
X53000Y-39160D01*
X53160Y-39000D02*
X52840Y-39000D01*
X53000Y-40590D02*
X53000Y-40910D01*
X53160Y-40750D02*
X52840Y-40750D01*
X53250Y-09590D02*
X53250Y-09910D01*
X53410Y-09750D02*
X53090Y-09750D01*
X53250Y-22090D02*
X53250Y-22410D01*
X53410Y-22250D02*
X53090Y-22250D01*
X53250Y-23090D02*
X53250Y-23410D01*
X53410Y-23250D02*
X53090Y-23250D01*
X53250Y-24090D02*
X53250Y-24410D01*
X53410Y-24250D02*
X53090Y-24250D01*
X54000Y-14590D02*
X54000Y-14910D01*
X54160Y-14750D02*
X53840Y-14750D01*
X54000Y-15590D02*
X54000Y-15910D01*
X54160Y-15750D02*
X53840Y-15750D01*
X54000Y-42590D02*
X54000Y-42910D01*
X54160Y-42750D02*
X53840Y-42750D01*
X54000Y-43590D02*
X54000Y-43910D01*
X54160Y-43750D02*
X53840Y-43750D01*
X54000Y-44590D02*
X54000Y-44910D01*
X54160Y-44750D02*
X53840Y-44750D01*
X54000Y-45590D02*
X54000Y-45910D01*
X54160Y-45750D02*
X53840Y-45750D01*
X54000Y-46590D02*
X54000Y-46910D01*
X54160Y-46750D02*
X53840Y-46750D01*
X54000Y-47590D02*
X54000Y-47910D01*
X54160Y-47750D02*
X53840Y-47750D01*
X54000Y-48590D02*
X54000Y-48910D01*
X54160Y-48750D02*
X53840Y-48750D01*
X54250Y-30840D02*
X54250Y-31160D01*
X54410Y-31000D02*
X54090Y-31000D01*
X54250Y-34340D02*
X54250Y-34660D01*
X54410Y-34500D02*
X54090Y-34500D01*
X55250Y-21090D02*
X55250Y-21410D01*
X55410Y-21250D02*
X55090Y-21250D01*
X55250Y-24090D02*
X55250Y-24410D01*
X55410Y-24250D02*
X55090Y-24250D01*
X55250Y-43590D02*
X55250Y-43910D01*
X55410Y-43750D02*
X55090Y-43750D01*
X55250Y-44590D02*
X55250Y-44910D01*
X55410Y-44750D02*
X55090Y-44750D01*
X55250Y-45590D02*
X55250Y-45910D01*
X55410Y-45750D02*
X55090Y-45750D01*
X55250Y-48590D02*
X55250Y-48910D01*
X55410Y-48750D02*
X55090Y-48750D01*
X55750Y-14590D02*
X55750Y-14910D01*
X55910Y-14750D02*
X55590Y-14750D01*
X55750Y-15590D02*
X55750Y-15910D01*
X55910Y-15750D02*
X55590Y-15750D01*
X55750Y-42590D02*
X55750Y-42910D01*
X55910Y-42750D02*
X55590Y-42750D01*
X56250Y-09590D02*
X56250Y-09910D01*
X56410Y-09750D02*
X56090Y-09750D01*
X56250Y-21090D02*
X56250Y-21410D01*
X56410Y-21250D02*
X56090Y-21250D01*
X56250Y-24090D02*
X56250Y-24410D01*
X56410Y-24250D02*
X56090Y-24250D01*
X56250Y-46090D02*
X56250Y-46410D01*
X56410Y-46250D02*
X56090Y-46250D01*
X56250Y-48090D02*
X56250Y-48410D01*
X56410Y-48250D02*
X56090Y-48250D01*
X57250Y-21090D02*
X57250Y-21410D01*
X57410Y-21250D02*
X57090Y-21250D01*
X57250Y-24090D02*
X57250Y-24410D01*
X57410Y-24250D02*
X57090Y-24250D01*
X57250Y-45590D02*
X57250Y-45910D01*
X57410Y-45750D02*
X57090Y-45750D01*
X57250Y-48590D02*
X57250Y-48910D01*
X57410Y-48750D02*
X57090Y-48750D01*
X57750Y-42590D02*
X57750Y-42910D01*
X57910Y-42750D02*
X57590Y-42750D01*
X58250Y-43590D02*
X58250Y-43910D01*
X58410Y-43750D02*
X58090Y-43750D01*
X58250Y-44590D02*
X58250Y-44910D01*
X58410Y-44750D02*
X58090Y-44750D01*
X12950Y-25750D02*
X12946Y-25788D01*
X12934Y-25826D01*
X12916Y-25860D01*
X12891Y-25890D01*
X12861Y-25915D01*
X12827Y-25934D01*
X12790Y-25945D01*
X12751Y-25949D01*
X12713Y-25946D01*
X12676Y-25935D01*
X12641Y-25917D01*
X12611Y-25892D01*
X12585Y-25862D01*
X12567Y-25828D01*
X12555Y-25791D01*
X12551Y-25752D01*
X12554Y-25714D01*
X12565Y-25677D01*
X12582Y-25642D01*
X12607Y-25612D01*
X12636Y-25586D01*
X12670Y-25567D01*
X12708Y-25555D01*
X12746Y-25551D01*
X12784Y-25554D01*
X12822Y-25564D01*
X12857Y-25582D01*
X12887Y-25606D01*
X12913Y-25635D01*
X12932Y-25669D01*
X12945Y-25706D01*
X12949Y-25745D01*
X12950Y-25750D01*
X12550Y-25550D02*
X12950Y-25950D01*
X12950Y-25550D02*
X12550Y-25950D01*
X12950Y-26750D02*
X12946Y-26788D01*
X12934Y-26826D01*
X12916Y-26860D01*
X12891Y-26890D01*
X12861Y-26915D01*
X12827Y-26934D01*
X12790Y-26945D01*
X12751Y-26949D01*
X12713Y-26946D01*
X12676Y-26935D01*
X12641Y-26917D01*
X12611Y-26892D01*
X12585Y-26862D01*
X12567Y-26828D01*
X12555Y-26791D01*
X12551Y-26752D01*
X12554Y-26714D01*
X12565Y-26677D01*
X12582Y-26642D01*
X12607Y-26612D01*
X12636Y-26586D01*
X12670Y-26567D01*
X12708Y-26555D01*
X12746Y-26551D01*
X12784Y-26554D01*
X12822Y-26564D01*
X12857Y-26582D01*
X12887Y-26606D01*
X12913Y-26635D01*
X12932Y-26669D01*
X12945Y-26706D01*
X12949Y-26745D01*
X12950Y-26750D01*
X12550Y-26550D02*
X12950Y-26950D01*
X12950Y-26550D02*
X12550Y-26950D01*
X12950Y-27750D02*
X12946Y-27788D01*
X12934Y-27826D01*
X12916Y-27860D01*
X12891Y-27890D01*
X12861Y-27915D01*
X12827Y-27934D01*
X12790Y-27945D01*
X12751Y-27949D01*
X12713Y-27946D01*
X12676Y-27935D01*
X12641Y-27917D01*
X12611Y-27892D01*
X12585Y-27862D01*
X12567Y-27828D01*
X12555Y-27791D01*
X12551Y-27752D01*
X12554Y-27714D01*
X12565Y-27677D01*
X12582Y-27642D01*
X12607Y-27612D01*
X12636Y-27586D01*
X12670Y-27567D01*
X12708Y-27555D01*
X12746Y-27551D01*
X12784Y-27554D01*
X12822Y-27564D01*
X12857Y-27582D01*
X12887Y-27606D01*
X12913Y-27635D01*
X12932Y-27669D01*
X12945Y-27706D01*
X12949Y-27745D01*
X12950Y-27750D01*
X12550Y-27550D02*
X12950Y-27950D01*
X12950Y-27550D02*
X12550Y-27950D01*
X12950Y-28750D02*
X12946Y-28788D01*
X12934Y-28826D01*
X12916Y-28860D01*
X12891Y-28890D01*
X12861Y-28915D01*
X12827Y-28934D01*
X12790Y-28945D01*
X12751Y-28949D01*
X12713Y-28946D01*
X12676Y-28935D01*
X12641Y-28917D01*
X12611Y-28892D01*
X12585Y-28862D01*
X12567Y-28828D01*
X12555Y-28791D01*
X12551Y-28752D01*
X12554Y-28714D01*
X12565Y-28677D01*
X12582Y-28642D01*
X12607Y-28612D01*
X12636Y-28586D01*
X12670Y-28567D01*
X12708Y-28555D01*
X12746Y-28551D01*
X12784Y-28554D01*
X12822Y-28564D01*
X12857Y-28582D01*
X12887Y-28606D01*
X12913Y-28635D01*
X12932Y-28669D01*
X12945Y-28706D01*
X12949Y-28745D01*
X12950Y-28750D01*
X12550Y-28550D02*
X12950Y-28950D01*
X12950Y-28550D02*
X12550Y-28950D01*
X12950Y-29750D02*
X12946Y-29788D01*
X12934Y-29826D01*
X12916Y-29860D01*
X12891Y-29890D01*
X12861Y-29915D01*
X12827Y-29934D01*
X12790Y-29945D01*
X12751Y-29949D01*
X12713Y-29946D01*
X12676Y-29935D01*
X12641Y-29917D01*
X12611Y-29892D01*
X12585Y-29862D01*
X12567Y-29828D01*
X12555Y-29791D01*
X12551Y-29752D01*
X12554Y-29714D01*
X12565Y-29677D01*
X12582Y-29642D01*
X12607Y-29612D01*
X12636Y-29586D01*
X12670Y-29567D01*
X12708Y-29555D01*
X12746Y-29551D01*
X12784Y-29554D01*
X12822Y-29564D01*
X12857Y-29582D01*
X12887Y-29606D01*
X12913Y-29635D01*
X12932Y-29669D01*
X12945Y-29706D01*
X12949Y-29745D01*
X12950Y-29750D01*
X12550Y-29550D02*
X12950Y-29950D01*
X12950Y-29550D02*
X12550Y-29950D01*
X12950Y-30750D02*
X12946Y-30788D01*
X12934Y-30826D01*
X12916Y-30860D01*
X12891Y-30890D01*
X12861Y-30915D01*
X12827Y-30934D01*
X12790Y-30945D01*
X12751Y-30949D01*
X12713Y-30946D01*
X12676Y-30935D01*
X12641Y-30917D01*
X12611Y-30892D01*
X12585Y-30862D01*
X12567Y-30828D01*
X12555Y-30791D01*
X12551Y-30752D01*
X12554Y-30714D01*
X12565Y-30677D01*
X12582Y-30642D01*
X12607Y-30612D01*
X12636Y-30586D01*
X12670Y-30567D01*
X12708Y-30555D01*
X12746Y-30551D01*
X12784Y-30554D01*
X12822Y-30564D01*
X12857Y-30582D01*
X12887Y-30606D01*
X12913Y-30635D01*
X12932Y-30669D01*
X12945Y-30706D01*
X12949Y-30745D01*
X12950Y-30750D01*
X12550Y-30550D02*
X12950Y-30950D01*
X12950Y-30550D02*
X12550Y-30950D01*
X12950Y-31750D02*
X12946Y-31788D01*
X12934Y-31826D01*
X12916Y-31860D01*
X12891Y-31890D01*
X12861Y-31915D01*
X12827Y-31934D01*
X12790Y-31945D01*
X12751Y-31949D01*
X12713Y-31946D01*
X12676Y-31935D01*
X12641Y-31917D01*
X12611Y-31892D01*
X12585Y-31862D01*
X12567Y-31828D01*
X12555Y-31791D01*
X12551Y-31752D01*
X12554Y-31714D01*
X12565Y-31677D01*
X12582Y-31642D01*
X12607Y-31612D01*
X12636Y-31586D01*
X12670Y-31567D01*
X12708Y-31555D01*
X12746Y-31551D01*
X12784Y-31554D01*
X12822Y-31564D01*
X12857Y-31582D01*
X12887Y-31606D01*
X12913Y-31635D01*
X12932Y-31669D01*
X12945Y-31706D01*
X12949Y-31745D01*
X12950Y-31750D01*
X12550Y-31550D02*
X12950Y-31950D01*
X12950Y-31550D02*
X12550Y-31950D01*
X12950Y-32750D02*
X12946Y-32788D01*
X12934Y-32826D01*
X12916Y-32860D01*
X12891Y-32890D01*
X12861Y-32915D01*
X12827Y-32934D01*
X12790Y-32945D01*
X12751Y-32949D01*
X12713Y-32946D01*
X12676Y-32935D01*
X12641Y-32917D01*
X12611Y-32892D01*
X12585Y-32862D01*
X12567Y-32828D01*
X12555Y-32791D01*
X12551Y-32752D01*
X12554Y-32714D01*
X12565Y-32677D01*
X12582Y-32642D01*
X12607Y-32612D01*
X12636Y-32586D01*
X12670Y-32567D01*
X12708Y-32555D01*
X12746Y-32551D01*
X12784Y-32554D01*
X12822Y-32564D01*
X12857Y-32582D01*
X12887Y-32606D01*
X12913Y-32635D01*
X12932Y-32669D01*
X12945Y-32706D01*
X12949Y-32745D01*
X12950Y-32750D01*
X12550Y-32550D02*
X12950Y-32950D01*
X12950Y-32550D02*
X12550Y-32950D01*
X13700Y-50750D02*
X13696Y-50788D01*
X13684Y-50826D01*
X13666Y-50860D01*
X13641Y-50890D01*
X13611Y-50915D01*
X13577Y-50934D01*
X13540Y-50945D01*
X13501Y-50949D01*
X13463Y-50946D01*
X13426Y-50935D01*
X13391Y-50917D01*
X13361Y-50892D01*
X13335Y-50862D01*
X13317Y-50828D01*
X13305Y-50791D01*
X13301Y-50752D01*
X13304Y-50714D01*
X13315Y-50677D01*
X13332Y-50642D01*
X13357Y-50612D01*
X13386Y-50586D01*
X13420Y-50567D01*
X13458Y-50555D01*
X13496Y-50551D01*
X13534Y-50554D01*
X13572Y-50564D01*
X13607Y-50582D01*
X13637Y-50606D01*
X13663Y-50635D01*
X13682Y-50669D01*
X13695Y-50706D01*
X13699Y-50745D01*
X13700Y-50750D01*
X13300Y-50550D02*
X13700Y-50950D01*
X13700Y-50550D02*
X13300Y-50950D01*
X14700Y-50750D02*
X14696Y-50788D01*
X14684Y-50826D01*
X14666Y-50860D01*
X14641Y-50890D01*
X14611Y-50915D01*
X14577Y-50934D01*
X14540Y-50945D01*
X14501Y-50949D01*
X14463Y-50946D01*
X14426Y-50935D01*
X14391Y-50917D01*
X14361Y-50892D01*
X14335Y-50862D01*
X14317Y-50828D01*
X14305Y-50791D01*
X14301Y-50752D01*
X14304Y-50714D01*
X14315Y-50677D01*
X14332Y-50642D01*
X14357Y-50612D01*
X14386Y-50586D01*
X14420Y-50567D01*
X14458Y-50555D01*
X14496Y-50551D01*
X14534Y-50554D01*
X14572Y-50564D01*
X14607Y-50582D01*
X14637Y-50606D01*
X14663Y-50635D01*
X14682Y-50669D01*
X14695Y-50706D01*
X14699Y-50745D01*
X14700Y-50750D01*
X14300Y-50550D02*
X14700Y-50950D01*
X14700Y-50550D02*
X14300Y-50950D01*
X15700Y-25750D02*
X15696Y-25788D01*
X15684Y-25826D01*
X15666Y-25860D01*
X15641Y-25890D01*
X15611Y-25915D01*
X15577Y-25934D01*
X15540Y-25945D01*
X15501Y-25949D01*
X15463Y-25946D01*
X15426Y-25935D01*
X15391Y-25917D01*
X15361Y-25892D01*
X15335Y-25862D01*
X15317Y-25828D01*
X15305Y-25791D01*
X15301Y-25752D01*
X15304Y-25714D01*
X15315Y-25677D01*
X15332Y-25642D01*
X15357Y-25612D01*
X15386Y-25586D01*
X15420Y-25567D01*
X15458Y-25555D01*
X15496Y-25551D01*
X15534Y-25554D01*
X15572Y-25564D01*
X15607Y-25582D01*
X15637Y-25606D01*
X15663Y-25635D01*
X15682Y-25669D01*
X15695Y-25706D01*
X15699Y-25745D01*
X15700Y-25750D01*
X15300Y-25550D02*
X15700Y-25950D01*
X15700Y-25550D02*
X15300Y-25950D01*
X15700Y-26750D02*
X15696Y-26788D01*
X15684Y-26826D01*
X15666Y-26860D01*
X15641Y-26890D01*
X15611Y-26915D01*
X15577Y-26934D01*
X15540Y-26945D01*
X15501Y-26949D01*
X15463Y-26946D01*
X15426Y-26935D01*
X15391Y-26917D01*
X15361Y-26892D01*
X15335Y-26862D01*
X15317Y-26828D01*
X15305Y-26791D01*
X15301Y-26752D01*
X15304Y-26714D01*
X15315Y-26677D01*
X15332Y-26642D01*
X15357Y-26612D01*
X15386Y-26586D01*
X15420Y-26567D01*
X15458Y-26555D01*
X15496Y-26551D01*
X15534Y-26554D01*
X15572Y-26564D01*
X15607Y-26582D01*
X15637Y-26606D01*
X15663Y-26635D01*
X15682Y-26669D01*
X15695Y-26706D01*
X15699Y-26745D01*
X15700Y-26750D01*
X15300Y-26550D02*
X15700Y-26950D01*
X15700Y-26550D02*
X15300Y-26950D01*
X15700Y-27750D02*
X15696Y-27788D01*
X15684Y-27826D01*
X15666Y-27860D01*
X15641Y-27890D01*
X15611Y-27915D01*
X15577Y-27934D01*
X15540Y-27945D01*
X15501Y-27949D01*
X15463Y-27946D01*
X15426Y-27935D01*
X15391Y-27917D01*
X15361Y-27892D01*
X15335Y-27862D01*
X15317Y-27828D01*
X15305Y-27791D01*
X15301Y-27752D01*
X15304Y-27714D01*
X15315Y-27677D01*
X15332Y-27642D01*
X15357Y-27612D01*
X15386Y-27586D01*
X15420Y-27567D01*
X15458Y-27555D01*
X15496Y-27551D01*
X15534Y-27554D01*
X15572Y-27564D01*
X15607Y-27582D01*
X15637Y-27606D01*
X15663Y-27635D01*
X15682Y-27669D01*
X15695Y-27706D01*
X15699Y-27745D01*
X15700Y-27750D01*
X15300Y-27550D02*
X15700Y-27950D01*
X15700Y-27550D02*
X15300Y-27950D01*
X15700Y-28750D02*
X15696Y-28788D01*
X15684Y-28826D01*
X15666Y-28860D01*
X15641Y-28890D01*
X15611Y-28915D01*
X15577Y-28934D01*
X15540Y-28945D01*
X15501Y-28949D01*
X15463Y-28946D01*
X15426Y-28935D01*
X15391Y-28917D01*
X15361Y-28892D01*
X15335Y-28862D01*
X15317Y-28828D01*
X15305Y-28791D01*
X15301Y-28752D01*
X15304Y-28714D01*
X15315Y-28677D01*
X15332Y-28642D01*
X15357Y-28612D01*
X15386Y-28586D01*
X15420Y-28567D01*
X15458Y-28555D01*
X15496Y-28551D01*
X15534Y-28554D01*
X15572Y-28564D01*
X15607Y-28582D01*
X15637Y-28606D01*
X15663Y-28635D01*
X15682Y-28669D01*
X15695Y-28706D01*
X15699Y-28745D01*
X15700Y-28750D01*
X15300Y-28550D02*
X15700Y-28950D01*
X15700Y-28550D02*
X15300Y-28950D01*
X15700Y-29750D02*
X15696Y-29788D01*
X15684Y-29826D01*
X15666Y-29860D01*
X15641Y-29890D01*
X15611Y-29915D01*
X15577Y-29934D01*
X15540Y-29945D01*
X15501Y-29949D01*
X15463Y-29946D01*
X15426Y-29935D01*
X15391Y-29917D01*
X15361Y-29892D01*
X15335Y-29862D01*
X15317Y-29828D01*
X15305Y-29791D01*
X15301Y-29752D01*
X15304Y-29714D01*
X15315Y-29677D01*
X15332Y-29642D01*
X15357Y-29612D01*
X15386Y-29586D01*
X15420Y-29567D01*
X15458Y-29555D01*
X15496Y-29551D01*
X15534Y-29554D01*
X15572Y-29564D01*
X15607Y-29582D01*
X15637Y-29606D01*
X15663Y-29635D01*
X15682Y-29669D01*
X15695Y-29706D01*
X15699Y-29745D01*
X15700Y-29750D01*
X15300Y-29550D02*
X15700Y-29950D01*
X15700Y-29550D02*
X15300Y-29950D01*
X15700Y-30750D02*
X15696Y-30788D01*
X15684Y-30826D01*
X15666Y-30860D01*
X15641Y-30890D01*
X15611Y-30915D01*
X15577Y-30934D01*
X15540Y-30945D01*
X15501Y-30949D01*
X15463Y-30946D01*
X15426Y-30935D01*
X15391Y-30917D01*
X15361Y-30892D01*
X15335Y-30862D01*
X15317Y-30828D01*
X15305Y-30791D01*
X15301Y-30752D01*
X15304Y-30714D01*
X15315Y-30677D01*
X15332Y-30642D01*
X15357Y-30612D01*
X15386Y-30586D01*
X15420Y-30567D01*
X15458Y-30555D01*
X15496Y-30551D01*
X15534Y-30554D01*
X15572Y-30564D01*
X15607Y-30582D01*
X15637Y-30606D01*
X15663Y-30635D01*
X15682Y-30669D01*
X15695Y-30706D01*
X15699Y-30745D01*
X15700Y-30750D01*
X15300Y-30550D02*
X15700Y-30950D01*
X15700Y-30550D02*
X15300Y-30950D01*
X15700Y-31750D02*
X15696Y-31788D01*
X15684Y-31826D01*
X15666Y-31860D01*
X15641Y-31890D01*
X15611Y-31915D01*
X15577Y-31934D01*
X15540Y-31945D01*
X15501Y-31949D01*
X15463Y-31946D01*
X15426Y-31935D01*
X15391Y-31917D01*
X15361Y-31892D01*
X15335Y-31862D01*
X15317Y-31828D01*
X15305Y-31791D01*
X15301Y-31752D01*
X15304Y-31714D01*
X15315Y-31677D01*
X15332Y-31642D01*
X15357Y-31612D01*
X15386Y-31586D01*
X15420Y-31567D01*
X15458Y-31555D01*
X15496Y-31551D01*
X15534Y-31554D01*
X15572Y-31564D01*
X15607Y-31582D01*
X15637Y-31606D01*
X15663Y-31635D01*
X15682Y-31669D01*
X15695Y-31706D01*
X15699Y-31745D01*
X15700Y-31750D01*
X15300Y-31550D02*
X15700Y-31950D01*
X15700Y-31550D02*
X15300Y-31950D01*
X15700Y-32750D02*
X15696Y-32788D01*
X15684Y-32826D01*
X15666Y-32860D01*
X15641Y-32890D01*
X15611Y-32915D01*
X15577Y-32934D01*
X15540Y-32945D01*
X15501Y-32949D01*
X15463Y-32946D01*
X15426Y-32935D01*
X15391Y-32917D01*
X15361Y-32892D01*
X15335Y-32862D01*
X15317Y-32828D01*
X15305Y-32791D01*
X15301Y-32752D01*
X15304Y-32714D01*
X15315Y-32677D01*
X15332Y-32642D01*
X15357Y-32612D01*
X15386Y-32586D01*
X15420Y-32567D01*
X15458Y-32555D01*
X15496Y-32551D01*
X15534Y-32554D01*
X15572Y-32564D01*
X15607Y-32582D01*
X15637Y-32606D01*
X15663Y-32635D01*
X15682Y-32669D01*
X15695Y-32706D01*
X15699Y-32745D01*
X15700Y-32750D01*
X15300Y-32550D02*
X15700Y-32950D01*
X15700Y-32550D02*
X15300Y-32950D01*
X18950Y-26250D02*
X18946Y-26288D01*
X18934Y-26326D01*
X18916Y-26360D01*
X18891Y-26390D01*
X18861Y-26415D01*
X18827Y-26434D01*
X18790Y-26445D01*
X18751Y-26449D01*
X18713Y-26446D01*
X18676Y-26435D01*
X18641Y-26417D01*
X18611Y-26392D01*
X18585Y-26362D01*
X18567Y-26328D01*
X18555Y-26291D01*
X18551Y-26252D01*
X18554Y-26214D01*
X18565Y-26177D01*
X18582Y-26142D01*
X18607Y-26112D01*
X18636Y-26086D01*
X18670Y-26067D01*
X18708Y-26055D01*
X18746Y-26051D01*
X18784Y-26054D01*
X18822Y-26064D01*
X18857Y-26082D01*
X18887Y-26106D01*
X18913Y-26135D01*
X18932Y-26169D01*
X18945Y-26206D01*
X18949Y-26245D01*
X18950Y-26250D01*
X18550Y-26050D02*
X18950Y-26450D01*
X18950Y-26050D02*
X18550Y-26450D01*
X18950Y-27250D02*
X18946Y-27288D01*
X18934Y-27326D01*
X18916Y-27360D01*
X18891Y-27390D01*
X18861Y-27415D01*
X18827Y-27434D01*
X18790Y-27445D01*
X18751Y-27449D01*
X18713Y-27446D01*
X18676Y-27435D01*
X18641Y-27417D01*
X18611Y-27392D01*
X18585Y-27362D01*
X18567Y-27328D01*
X18555Y-27291D01*
X18551Y-27252D01*
X18554Y-27214D01*
X18565Y-27177D01*
X18582Y-27142D01*
X18607Y-27112D01*
X18636Y-27086D01*
X18670Y-27067D01*
X18708Y-27055D01*
X18746Y-27051D01*
X18784Y-27054D01*
X18822Y-27064D01*
X18857Y-27082D01*
X18887Y-27106D01*
X18913Y-27135D01*
X18932Y-27169D01*
X18945Y-27206D01*
X18949Y-27245D01*
X18950Y-27250D01*
X18550Y-27050D02*
X18950Y-27450D01*
X18950Y-27050D02*
X18550Y-27450D01*
X18950Y-28500D02*
X18946Y-28538D01*
X18934Y-28576D01*
X18916Y-28610D01*
X18891Y-28640D01*
X18861Y-28665D01*
X18827Y-28684D01*
X18790Y-28695D01*
X18751Y-28699D01*
X18713Y-28696D01*
X18676Y-28685D01*
X18641Y-28667D01*
X18611Y-28642D01*
X18585Y-28612D01*
X18567Y-28578D01*
X18555Y-28541D01*
X18551Y-28502D01*
X18554Y-28464D01*
X18565Y-28427D01*
X18582Y-28392D01*
X18607Y-28362D01*
X18636Y-28336D01*
X18670Y-28317D01*
X18708Y-28305D01*
X18746Y-28301D01*
X18784Y-28304D01*
X18822Y-28314D01*
X18857Y-28332D01*
X18887Y-28356D01*
X18913Y-28385D01*
X18932Y-28419D01*
X18945Y-28456D01*
X18949Y-28495D01*
X18950Y-28500D01*
X18550Y-28300D02*
X18950Y-28700D01*
X18950Y-28300D02*
X18550Y-28700D01*
X18950Y-29500D02*
X18946Y-29538D01*
X18934Y-29576D01*
X18916Y-29610D01*
X18891Y-29640D01*
X18861Y-29665D01*
X18827Y-29684D01*
X18790Y-29695D01*
X18751Y-29699D01*
X18713Y-29696D01*
X18676Y-29685D01*
X18641Y-29667D01*
X18611Y-29642D01*
X18585Y-29612D01*
X18567Y-29578D01*
X18555Y-29541D01*
X18551Y-29502D01*
X18554Y-29464D01*
X18565Y-29427D01*
X18582Y-29392D01*
X18607Y-29362D01*
X18636Y-29336D01*
X18670Y-29317D01*
X18708Y-29305D01*
X18746Y-29301D01*
X18784Y-29304D01*
X18822Y-29314D01*
X18857Y-29332D01*
X18887Y-29356D01*
X18913Y-29385D01*
X18932Y-29419D01*
X18945Y-29456D01*
X18949Y-29495D01*
X18950Y-29500D01*
X18550Y-29300D02*
X18950Y-29700D01*
X18950Y-29300D02*
X18550Y-29700D01*
X18950Y-30750D02*
X18946Y-30788D01*
X18934Y-30826D01*
X18916Y-30860D01*
X18891Y-30890D01*
X18861Y-30915D01*
X18827Y-30934D01*
X18790Y-30945D01*
X18751Y-30949D01*
X18713Y-30946D01*
X18676Y-30935D01*
X18641Y-30917D01*
X18611Y-30892D01*
X18585Y-30862D01*
X18567Y-30828D01*
X18555Y-30791D01*
X18551Y-30752D01*
X18554Y-30714D01*
X18565Y-30677D01*
X18582Y-30642D01*
X18607Y-30612D01*
X18636Y-30586D01*
X18670Y-30567D01*
X18708Y-30555D01*
X18746Y-30551D01*
X18784Y-30554D01*
X18822Y-30564D01*
X18857Y-30582D01*
X18887Y-30606D01*
X18913Y-30635D01*
X18932Y-30669D01*
X18945Y-30706D01*
X18949Y-30745D01*
X18950Y-30750D01*
X18550Y-30550D02*
X18950Y-30950D01*
X18950Y-30550D02*
X18550Y-30950D01*
X18950Y-31750D02*
X18946Y-31788D01*
X18934Y-31826D01*
X18916Y-31860D01*
X18891Y-31890D01*
X18861Y-31915D01*
X18827Y-31934D01*
X18790Y-31945D01*
X18751Y-31949D01*
X18713Y-31946D01*
X18676Y-31935D01*
X18641Y-31917D01*
X18611Y-31892D01*
X18585Y-31862D01*
X18567Y-31828D01*
X18555Y-31791D01*
X18551Y-31752D01*
X18554Y-31714D01*
X18565Y-31677D01*
X18582Y-31642D01*
X18607Y-31612D01*
X18636Y-31586D01*
X18670Y-31567D01*
X18708Y-31555D01*
X18746Y-31551D01*
X18784Y-31554D01*
X18822Y-31564D01*
X18857Y-31582D01*
X18887Y-31606D01*
X18913Y-31635D01*
X18932Y-31669D01*
X18945Y-31706D01*
X18949Y-31745D01*
X18950Y-31750D01*
X18550Y-31550D02*
X18950Y-31950D01*
X18950Y-31550D02*
X18550Y-31950D01*
X22700Y-08000D02*
X22696Y-08038D01*
X22684Y-08076D01*
X22666Y-08110D01*
X22641Y-08140D01*
X22611Y-08165D01*
X22577Y-08184D01*
X22540Y-08195D01*
X22501Y-08199D01*
X22463Y-08196D01*
X22426Y-08185D01*
X22391Y-08167D01*
X22361Y-08142D01*
X22335Y-08112D01*
X22317Y-08078D01*
X22305Y-08041D01*
X22301Y-08002D01*
X22304Y-07964D01*
X22315Y-07927D01*
X22332Y-07892D01*
X22357Y-07862D01*
X22386Y-07836D01*
X22420Y-07817D01*
X22458Y-07805D01*
X22496Y-07801D01*
X22534Y-07804D01*
X22572Y-07814D01*
X22607Y-07832D01*
X22637Y-07856D01*
X22663Y-07885D01*
X22682Y-07919D01*
X22695Y-07956D01*
X22699Y-07995D01*
X22700Y-08000D01*
X22300Y-07800D02*
X22700Y-08200D01*
X22700Y-07800D02*
X22300Y-08200D01*
X23700Y-08000D02*
X23696Y-08038D01*
X23684Y-08076D01*
X23666Y-08110D01*
X23641Y-08140D01*
X23611Y-08165D01*
X23577Y-08184D01*
X23540Y-08195D01*
X23501Y-08199D01*
X23463Y-08196D01*
X23426Y-08185D01*
X23391Y-08167D01*
X23361Y-08142D01*
X23335Y-08112D01*
X23317Y-08078D01*
X23305Y-08041D01*
X23301Y-08002D01*
X23304Y-07964D01*
X23315Y-07927D01*
X23332Y-07892D01*
X23357Y-07862D01*
X23386Y-07836D01*
X23420Y-07817D01*
X23458Y-07805D01*
X23496Y-07801D01*
X23534Y-07804D01*
X23572Y-07814D01*
X23607Y-07832D01*
X23637Y-07856D01*
X23663Y-07885D01*
X23682Y-07919D01*
X23695Y-07956D01*
X23699Y-07995D01*
X23700Y-08000D01*
X23300Y-07800D02*
X23700Y-08200D01*
X23700Y-07800D02*
X23300Y-08200D01*
X24700Y-08000D02*
X24696Y-08038D01*
X24684Y-08076D01*
X24666Y-08110D01*
X24641Y-08140D01*
X24611Y-08165D01*
X24577Y-08184D01*
X24540Y-08195D01*
X24501Y-08199D01*
X24463Y-08196D01*
X24426Y-08185D01*
X24391Y-08167D01*
X24361Y-08142D01*
X24335Y-08112D01*
X24317Y-08078D01*
X24305Y-08041D01*
X24301Y-08002D01*
X24304Y-07964D01*
X24315Y-07927D01*
X24332Y-07892D01*
X24357Y-07862D01*
X24386Y-07836D01*
X24420Y-07817D01*
X24458Y-07805D01*
X24496Y-07801D01*
X24534Y-07804D01*
X24572Y-07814D01*
X24607Y-07832D01*
X24637Y-07856D01*
X24663Y-07885D01*
X24682Y-07919D01*
X24695Y-07956D01*
X24699Y-07995D01*
X24700Y-08000D01*
X24300Y-07800D02*
X24700Y-08200D01*
X24700Y-07800D02*
X24300Y-08200D01*
X25200Y-33000D02*
X25196Y-33038D01*
X25184Y-33076D01*
X25166Y-33110D01*
X25141Y-33140D01*
X25111Y-33165D01*
X25077Y-33184D01*
X25040Y-33195D01*
X25001Y-33199D01*
X24963Y-33196D01*
X24926Y-33185D01*
X24891Y-33167D01*
X24861Y-33142D01*
X24835Y-33112D01*
X24817Y-33078D01*
X24805Y-33041D01*
X24801Y-33002D01*
X24804Y-32964D01*
X24815Y-32927D01*
X24832Y-32892D01*
X24857Y-32862D01*
X24886Y-32836D01*
X24920Y-32817D01*
X24958Y-32805D01*
X24996Y-32801D01*
X25034Y-32804D01*
X25072Y-32814D01*
X25107Y-32832D01*
X25137Y-32856D01*
X25163Y-32885D01*
X25182Y-32919D01*
X25195Y-32956D01*
X25199Y-32995D01*
X25200Y-33000D01*
X24800Y-32800D02*
X25200Y-33200D01*
X25200Y-32800D02*
X24800Y-33200D01*
X25200Y-34000D02*
X25196Y-34038D01*
X25184Y-34076D01*
X25166Y-34110D01*
X25141Y-34140D01*
X25111Y-34165D01*
X25077Y-34184D01*
X25040Y-34195D01*
X25001Y-34199D01*
X24963Y-34196D01*
X24926Y-34185D01*
X24891Y-34167D01*
X24861Y-34142D01*
X24835Y-34112D01*
X24817Y-34078D01*
X24805Y-34041D01*
X24801Y-34002D01*
X24804Y-33964D01*
X24815Y-33927D01*
X24832Y-33892D01*
X24857Y-33862D01*
X24886Y-33836D01*
X24920Y-33817D01*
X24958Y-33805D01*
X24996Y-33801D01*
X25034Y-33804D01*
X25072Y-33814D01*
X25107Y-33832D01*
X25137Y-33856D01*
X25163Y-33885D01*
X25182Y-33919D01*
X25195Y-33956D01*
X25199Y-33995D01*
X25200Y-34000D01*
X24800Y-33800D02*
X25200Y-34200D01*
X25200Y-33800D02*
X24800Y-34200D01*
X25200Y-35000D02*
X25196Y-35038D01*
X25184Y-35076D01*
X25166Y-35110D01*
X25141Y-35140D01*
X25111Y-35165D01*
X25077Y-35184D01*
X25040Y-35195D01*
X25001Y-35199D01*
X24963Y-35196D01*
X24926Y-35185D01*
X24891Y-35167D01*
X24861Y-35142D01*
X24835Y-35112D01*
X24817Y-35078D01*
X24805Y-35041D01*
X24801Y-35002D01*
X24804Y-34964D01*
X24815Y-34927D01*
X24832Y-34892D01*
X24857Y-34862D01*
X24886Y-34836D01*
X24920Y-34817D01*
X24958Y-34805D01*
X24996Y-34801D01*
X25034Y-34804D01*
X25072Y-34814D01*
X25107Y-34832D01*
X25137Y-34856D01*
X25163Y-34885D01*
X25182Y-34919D01*
X25195Y-34956D01*
X25199Y-34995D01*
X25200Y-35000D01*
X24800Y-34800D02*
X25200Y-35200D01*
X25200Y-34800D02*
X24800Y-35200D01*
X25200Y-36000D02*
X25196Y-36038D01*
X25184Y-36076D01*
X25166Y-36110D01*
X25141Y-36140D01*
X25111Y-36165D01*
X25077Y-36184D01*
X25040Y-36195D01*
X25001Y-36199D01*
X24963Y-36196D01*
X24926Y-36185D01*
X24891Y-36167D01*
X24861Y-36142D01*
X24835Y-36112D01*
X24817Y-36078D01*
X24805Y-36041D01*
X24801Y-36002D01*
X24804Y-35964D01*
X24815Y-35927D01*
X24832Y-35892D01*
X24857Y-35862D01*
X24886Y-35836D01*
X24920Y-35817D01*
X24958Y-35805D01*
X24996Y-35801D01*
X25034Y-35804D01*
X25072Y-35814D01*
X25107Y-35832D01*
X25137Y-35856D01*
X25163Y-35885D01*
X25182Y-35919D01*
X25195Y-35956D01*
X25199Y-35995D01*
X25200Y-36000D01*
X24800Y-35800D02*
X25200Y-36200D01*
X25200Y-35800D02*
X24800Y-36200D01*
X25200Y-37000D02*
X25196Y-37038D01*
X25184Y-37076D01*
X25166Y-37110D01*
X25141Y-37140D01*
X25111Y-37165D01*
X25077Y-37184D01*
X25040Y-37195D01*
X25001Y-37199D01*
X24963Y-37196D01*
X24926Y-37185D01*
X24891Y-37167D01*
X24861Y-37142D01*
X24835Y-37112D01*
X24817Y-37078D01*
X24805Y-37041D01*
X24801Y-37002D01*
X24804Y-36964D01*
X24815Y-36927D01*
X24832Y-36892D01*
X24857Y-36862D01*
X24886Y-36836D01*
X24920Y-36817D01*
X24958Y-36805D01*
X24996Y-36801D01*
X25034Y-36804D01*
X25072Y-36814D01*
X25107Y-36832D01*
X25137Y-36856D01*
X25163Y-36885D01*
X25182Y-36919D01*
X25195Y-36956D01*
X25199Y-36995D01*
X25200Y-37000D01*
X24800Y-36800D02*
X25200Y-37200D01*
X25200Y-36800D02*
X24800Y-37200D01*
X25200Y-38000D02*
X25196Y-38038D01*
X25184Y-38076D01*
X25166Y-38110D01*
X25141Y-38140D01*
X25111Y-38165D01*
X25077Y-38184D01*
X25040Y-38195D01*
X25001Y-38199D01*
X24963Y-38196D01*
X24926Y-38185D01*
X24891Y-38167D01*
X24861Y-38142D01*
X24835Y-38112D01*
X24817Y-38078D01*
X24805Y-38041D01*
X24801Y-38002D01*
X24804Y-37964D01*
X24815Y-37927D01*
X24832Y-37892D01*
X24857Y-37862D01*
X24886Y-37836D01*
X24920Y-37817D01*
X24958Y-37805D01*
X24996Y-37801D01*
X25034Y-37804D01*
X25072Y-37814D01*
X25107Y-37832D01*
X25137Y-37856D01*
X25163Y-37885D01*
X25182Y-37919D01*
X25195Y-37956D01*
X25199Y-37995D01*
X25200Y-38000D01*
X24800Y-37800D02*
X25200Y-38200D01*
X25200Y-37800D02*
X24800Y-38200D01*
X25200Y-39000D02*
X25196Y-39038D01*
X25184Y-39076D01*
X25166Y-39110D01*
X25141Y-39140D01*
X25111Y-39165D01*
X25077Y-39184D01*
X25040Y-39195D01*
X25001Y-39199D01*
X24963Y-39196D01*
X24926Y-39185D01*
X24891Y-39167D01*
X24861Y-39142D01*
X24835Y-39112D01*
X24817Y-39078D01*
X24805Y-39041D01*
X24801Y-39002D01*
X24804Y-38964D01*
X24815Y-38927D01*
X24832Y-38892D01*
X24857Y-38862D01*
X24886Y-38836D01*
X24920Y-38817D01*
X24958Y-38805D01*
X24996Y-38801D01*
X25034Y-38804D01*
X25072Y-38814D01*
X25107Y-38832D01*
X25137Y-38856D01*
X25163Y-38885D01*
X25182Y-38919D01*
X25195Y-38956D01*
X25199Y-38995D01*
X25200Y-39000D01*
X24800Y-38800D02*
X25200Y-39200D01*
X25200Y-38800D02*
X24800Y-39200D01*
X25200Y-40000D02*
X25196Y-40038D01*
X25184Y-40076D01*
X25166Y-40110D01*
X25141Y-40140D01*
X25111Y-40165D01*
X25077Y-40184D01*
X25040Y-40195D01*
X25001Y-40199D01*
X24963Y-40196D01*
X24926Y-40185D01*
X24891Y-40167D01*
X24861Y-40142D01*
X24835Y-40112D01*
X24817Y-40078D01*
X24805Y-40041D01*
X24801Y-40002D01*
X24804Y-39964D01*
X24815Y-39927D01*
X24832Y-39892D01*
X24857Y-39862D01*
X24886Y-39836D01*
X24920Y-39817D01*
X24958Y-39805D01*
X24996Y-39801D01*
X25034Y-39804D01*
X25072Y-39814D01*
X25107Y-39832D01*
X25137Y-39856D01*
X25163Y-39885D01*
X25182Y-39919D01*
X25195Y-39956D01*
X25199Y-39995D01*
X25200Y-40000D01*
X24800Y-39800D02*
X25200Y-40200D01*
X25200Y-39800D02*
X24800Y-40200D01*
X25700Y-08000D02*
X25696Y-08038D01*
X25684Y-08076D01*
X25666Y-08110D01*
X25641Y-08140D01*
X25611Y-08165D01*
X25577Y-08184D01*
X25540Y-08195D01*
X25501Y-08199D01*
X25463Y-08196D01*
X25426Y-08185D01*
X25391Y-08167D01*
X25361Y-08142D01*
X25335Y-08112D01*
X25317Y-08078D01*
X25305Y-08041D01*
X25301Y-08002D01*
X25304Y-07964D01*
X25315Y-07927D01*
X25332Y-07892D01*
X25357Y-07862D01*
X25386Y-07836D01*
X25420Y-07817D01*
X25458Y-07805D01*
X25496Y-07801D01*
X25534Y-07804D01*
X25572Y-07814D01*
X25607Y-07832D01*
X25637Y-07856D01*
X25663Y-07885D01*
X25682Y-07919D01*
X25695Y-07956D01*
X25699Y-07995D01*
X25700Y-08000D01*
X25300Y-07800D02*
X25700Y-08200D01*
X25700Y-07800D02*
X25300Y-08200D01*
X26200Y-33000D02*
X26196Y-33038D01*
X26184Y-33076D01*
X26166Y-33110D01*
X26141Y-33140D01*
X26111Y-33165D01*
X26077Y-33184D01*
X26040Y-33195D01*
X26001Y-33199D01*
X25963Y-33196D01*
X25926Y-33185D01*
X25891Y-33167D01*
X25861Y-33142D01*
X25835Y-33112D01*
X25817Y-33078D01*
X25805Y-33041D01*
X25801Y-33002D01*
X25804Y-32964D01*
X25815Y-32927D01*
X25832Y-32892D01*
X25857Y-32862D01*
X25886Y-32836D01*
X25920Y-32817D01*
X25958Y-32805D01*
X25996Y-32801D01*
X26034Y-32804D01*
X26072Y-32814D01*
X26107Y-32832D01*
X26137Y-32856D01*
X26163Y-32885D01*
X26182Y-32919D01*
X26195Y-32956D01*
X26199Y-32995D01*
X26200Y-33000D01*
X25800Y-32800D02*
X26200Y-33200D01*
X26200Y-32800D02*
X25800Y-33200D01*
X26200Y-34000D02*
X26196Y-34038D01*
X26184Y-34076D01*
X26166Y-34110D01*
X26141Y-34140D01*
X26111Y-34165D01*
X26077Y-34184D01*
X26040Y-34195D01*
X26001Y-34199D01*
X25963Y-34196D01*
X25926Y-34185D01*
X25891Y-34167D01*
X25861Y-34142D01*
X25835Y-34112D01*
X25817Y-34078D01*
X25805Y-34041D01*
X25801Y-34002D01*
X25804Y-33964D01*
X25815Y-33927D01*
X25832Y-33892D01*
X25857Y-33862D01*
X25886Y-33836D01*
X25920Y-33817D01*
X25958Y-33805D01*
X25996Y-33801D01*
X26034Y-33804D01*
X26072Y-33814D01*
X26107Y-33832D01*
X26137Y-33856D01*
X26163Y-33885D01*
X26182Y-33919D01*
X26195Y-33956D01*
X26199Y-33995D01*
X26200Y-34000D01*
X25800Y-33800D02*
X26200Y-34200D01*
X26200Y-33800D02*
X25800Y-34200D01*
X26200Y-35000D02*
X26196Y-35038D01*
X26184Y-35076D01*
X26166Y-35110D01*
X26141Y-35140D01*
X26111Y-35165D01*
X26077Y-35184D01*
X26040Y-35195D01*
X26001Y-35199D01*
X25963Y-35196D01*
X25926Y-35185D01*
X25891Y-35167D01*
X25861Y-35142D01*
X25835Y-35112D01*
X25817Y-35078D01*
X25805Y-35041D01*
X25801Y-35002D01*
X25804Y-34964D01*
X25815Y-34927D01*
X25832Y-34892D01*
X25857Y-34862D01*
X25886Y-34836D01*
X25920Y-34817D01*
X25958Y-34805D01*
X25996Y-34801D01*
X26034Y-34804D01*
X26072Y-34814D01*
X26107Y-34832D01*
X26137Y-34856D01*
X26163Y-34885D01*
X26182Y-34919D01*
X26195Y-34956D01*
X26199Y-34995D01*
X26200Y-35000D01*
X25800Y-34800D02*
X26200Y-35200D01*
X26200Y-34800D02*
X25800Y-35200D01*
X26200Y-36000D02*
X26196Y-36038D01*
X26184Y-36076D01*
X26166Y-36110D01*
X26141Y-36140D01*
X26111Y-36165D01*
X26077Y-36184D01*
X26040Y-36195D01*
X26001Y-36199D01*
X25963Y-36196D01*
X25926Y-36185D01*
X25891Y-36167D01*
X25861Y-36142D01*
X25835Y-36112D01*
X25817Y-36078D01*
X25805Y-36041D01*
X25801Y-36002D01*
X25804Y-35964D01*
X25815Y-35927D01*
X25832Y-35892D01*
X25857Y-35862D01*
X25886Y-35836D01*
X25920Y-35817D01*
X25958Y-35805D01*
X25996Y-35801D01*
X26034Y-35804D01*
X26072Y-35814D01*
X26107Y-35832D01*
X26137Y-35856D01*
X26163Y-35885D01*
X26182Y-35919D01*
X26195Y-35956D01*
X26199Y-35995D01*
X26200Y-36000D01*
X25800Y-35800D02*
X26200Y-36200D01*
X26200Y-35800D02*
X25800Y-36200D01*
X26200Y-37000D02*
X26196Y-37038D01*
X26184Y-37076D01*
X26166Y-37110D01*
X26141Y-37140D01*
X26111Y-37165D01*
X26077Y-37184D01*
X26040Y-37195D01*
X26001Y-37199D01*
X25963Y-37196D01*
X25926Y-37185D01*
X25891Y-37167D01*
X25861Y-37142D01*
X25835Y-37112D01*
X25817Y-37078D01*
X25805Y-37041D01*
X25801Y-37002D01*
X25804Y-36964D01*
X25815Y-36927D01*
X25832Y-36892D01*
X25857Y-36862D01*
X25886Y-36836D01*
X25920Y-36817D01*
X25958Y-36805D01*
X25996Y-36801D01*
X26034Y-36804D01*
X26072Y-36814D01*
X26107Y-36832D01*
X26137Y-36856D01*
X26163Y-36885D01*
X26182Y-36919D01*
X26195Y-36956D01*
X26199Y-36995D01*
X26200Y-37000D01*
X25800Y-36800D02*
X26200Y-37200D01*
X26200Y-36800D02*
X25800Y-37200D01*
X26200Y-38000D02*
X26196Y-38038D01*
X26184Y-38076D01*
X26166Y-38110D01*
X26141Y-38140D01*
X26111Y-38165D01*
X26077Y-38184D01*
X26040Y-38195D01*
X26001Y-38199D01*
X25963Y-38196D01*
X25926Y-38185D01*
X25891Y-38167D01*
X25861Y-38142D01*
X25835Y-38112D01*
X25817Y-38078D01*
X25805Y-38041D01*
X25801Y-38002D01*
X25804Y-37964D01*
X25815Y-37927D01*
X25832Y-37892D01*
X25857Y-37862D01*
X25886Y-37836D01*
X25920Y-37817D01*
X25958Y-37805D01*
X25996Y-37801D01*
X26034Y-37804D01*
X26072Y-37814D01*
X26107Y-37832D01*
X26137Y-37856D01*
X26163Y-37885D01*
X26182Y-37919D01*
X26195Y-37956D01*
X26199Y-37995D01*
X26200Y-38000D01*
X25800Y-37800D02*
X26200Y-38200D01*
X26200Y-37800D02*
X25800Y-38200D01*
X26200Y-39000D02*
X26196Y-39038D01*
X26184Y-39076D01*
X26166Y-39110D01*
X26141Y-39140D01*
X26111Y-39165D01*
X26077Y-39184D01*
X26040Y-39195D01*
X26001Y-39199D01*
X25963Y-39196D01*
X25926Y-39185D01*
X25891Y-39167D01*
X25861Y-39142D01*
X25835Y-39112D01*
X25817Y-39078D01*
X25805Y-39041D01*
X25801Y-39002D01*
X25804Y-38964D01*
X25815Y-38927D01*
X25832Y-38892D01*
X25857Y-38862D01*
X25886Y-38836D01*
X25920Y-38817D01*
X25958Y-38805D01*
X25996Y-38801D01*
X26034Y-38804D01*
X26072Y-38814D01*
X26107Y-38832D01*
X26137Y-38856D01*
X26163Y-38885D01*
X26182Y-38919D01*
X26195Y-38956D01*
X26199Y-38995D01*
X26200Y-39000D01*
X25800Y-38800D02*
X26200Y-39200D01*
X26200Y-38800D02*
X25800Y-39200D01*
X26200Y-40000D02*
X26196Y-40038D01*
X26184Y-40076D01*
X26166Y-40110D01*
X26141Y-40140D01*
X26111Y-40165D01*
X26077Y-40184D01*
X26040Y-40195D01*
X26001Y-40199D01*
X25963Y-40196D01*
X25926Y-40185D01*
X25891Y-40167D01*
X25861Y-40142D01*
X25835Y-40112D01*
X25817Y-40078D01*
X25805Y-40041D01*
X25801Y-40002D01*
X25804Y-39964D01*
X25815Y-39927D01*
X25832Y-39892D01*
X25857Y-39862D01*
X25886Y-39836D01*
X25920Y-39817D01*
X25958Y-39805D01*
X25996Y-39801D01*
X26034Y-39804D01*
X26072Y-39814D01*
X26107Y-39832D01*
X26137Y-39856D01*
X26163Y-39885D01*
X26182Y-39919D01*
X26195Y-39956D01*
X26199Y-39995D01*
X26200Y-40000D01*
X25800Y-39800D02*
X26200Y-40200D01*
X26200Y-39800D02*
X25800Y-40200D01*
X29700Y-27750D02*
X29696Y-27788D01*
X29684Y-27826D01*
X29666Y-27860D01*
X29641Y-27890D01*
X29611Y-27915D01*
X29577Y-27934D01*
X29540Y-27945D01*
X29501Y-27949D01*
X29463Y-27946D01*
X29426Y-27935D01*
X29391Y-27917D01*
X29361Y-27892D01*
X29335Y-27862D01*
X29317Y-27828D01*
X29305Y-27791D01*
X29301Y-27752D01*
X29304Y-27714D01*
X29315Y-27677D01*
X29332Y-27642D01*
X29357Y-27612D01*
X29386Y-27586D01*
X29420Y-27567D01*
X29458Y-27555D01*
X29496Y-27551D01*
X29534Y-27554D01*
X29572Y-27564D01*
X29607Y-27582D01*
X29637Y-27606D01*
X29663Y-27635D01*
X29682Y-27669D01*
X29695Y-27706D01*
X29699Y-27745D01*
X29700Y-27750D01*
X29300Y-27550D02*
X29700Y-27950D01*
X29700Y-27550D02*
X29300Y-27950D01*
X29700Y-28750D02*
X29696Y-28788D01*
X29684Y-28826D01*
X29666Y-28860D01*
X29641Y-28890D01*
X29611Y-28915D01*
X29577Y-28934D01*
X29540Y-28945D01*
X29501Y-28949D01*
X29463Y-28946D01*
X29426Y-28935D01*
X29391Y-28917D01*
X29361Y-28892D01*
X29335Y-28862D01*
X29317Y-28828D01*
X29305Y-28791D01*
X29301Y-28752D01*
X29304Y-28714D01*
X29315Y-28677D01*
X29332Y-28642D01*
X29357Y-28612D01*
X29386Y-28586D01*
X29420Y-28567D01*
X29458Y-28555D01*
X29496Y-28551D01*
X29534Y-28554D01*
X29572Y-28564D01*
X29607Y-28582D01*
X29637Y-28606D01*
X29663Y-28635D01*
X29682Y-28669D01*
X29695Y-28706D01*
X29699Y-28745D01*
X29700Y-28750D01*
X29300Y-28550D02*
X29700Y-28950D01*
X29700Y-28550D02*
X29300Y-28950D01*
X29950Y-23250D02*
X29946Y-23288D01*
X29934Y-23326D01*
X29916Y-23360D01*
X29891Y-23390D01*
X29861Y-23415D01*
X29827Y-23434D01*
X29790Y-23445D01*
X29751Y-23449D01*
X29713Y-23446D01*
X29676Y-23435D01*
X29641Y-23417D01*
X29611Y-23392D01*
X29585Y-23362D01*
X29567Y-23328D01*
X29555Y-23291D01*
X29551Y-23252D01*
X29554Y-23214D01*
X29565Y-23177D01*
X29582Y-23142D01*
X29607Y-23112D01*
X29636Y-23086D01*
X29670Y-23067D01*
X29708Y-23055D01*
X29746Y-23051D01*
X29784Y-23054D01*
X29822Y-23064D01*
X29857Y-23082D01*
X29887Y-23106D01*
X29913Y-23135D01*
X29932Y-23169D01*
X29945Y-23206D01*
X29949Y-23245D01*
X29950Y-23250D01*
X29550Y-23050D02*
X29950Y-23450D01*
X29950Y-23050D02*
X29550Y-23450D01*
X29950Y-24250D02*
X29946Y-24288D01*
X29934Y-24326D01*
X29916Y-24360D01*
X29891Y-24390D01*
X29861Y-24415D01*
X29827Y-24434D01*
X29790Y-24445D01*
X29751Y-24449D01*
X29713Y-24446D01*
X29676Y-24435D01*
X29641Y-24417D01*
X29611Y-24392D01*
X29585Y-24362D01*
X29567Y-24328D01*
X29555Y-24291D01*
X29551Y-24252D01*
X29554Y-24214D01*
X29565Y-24177D01*
X29582Y-24142D01*
X29607Y-24112D01*
X29636Y-24086D01*
X29670Y-24067D01*
X29708Y-24055D01*
X29746Y-24051D01*
X29784Y-24054D01*
X29822Y-24064D01*
X29857Y-24082D01*
X29887Y-24106D01*
X29913Y-24135D01*
X29932Y-24169D01*
X29945Y-24206D01*
X29949Y-24245D01*
X29950Y-24250D01*
X29550Y-24050D02*
X29950Y-24450D01*
X29950Y-24050D02*
X29550Y-24450D01*
X30200Y-32500D02*
X30196Y-32538D01*
X30184Y-32576D01*
X30166Y-32610D01*
X30141Y-32640D01*
X30111Y-32665D01*
X30077Y-32684D01*
X30040Y-32695D01*
X30001Y-32699D01*
X29963Y-32696D01*
X29926Y-32685D01*
X29891Y-32667D01*
X29861Y-32642D01*
X29835Y-32612D01*
X29817Y-32578D01*
X29805Y-32541D01*
X29801Y-32502D01*
X29804Y-32464D01*
X29815Y-32427D01*
X29832Y-32392D01*
X29857Y-32362D01*
X29886Y-32336D01*
X29920Y-32317D01*
X29958Y-32305D01*
X29996Y-32301D01*
X30034Y-32304D01*
X30072Y-32314D01*
X30107Y-32332D01*
X30137Y-32356D01*
X30163Y-32385D01*
X30182Y-32419D01*
X30195Y-32456D01*
X30199Y-32495D01*
X30200Y-32500D01*
X29800Y-32300D02*
X30200Y-32700D01*
X30200Y-32300D02*
X29800Y-32700D01*
X30200Y-33500D02*
X30196Y-33538D01*
X30184Y-33576D01*
X30166Y-33610D01*
X30141Y-33640D01*
X30111Y-33665D01*
X30077Y-33684D01*
X30040Y-33695D01*
X30001Y-33699D01*
X29963Y-33696D01*
X29926Y-33685D01*
X29891Y-33667D01*
X29861Y-33642D01*
X29835Y-33612D01*
X29817Y-33578D01*
X29805Y-33541D01*
X29801Y-33502D01*
X29804Y-33464D01*
X29815Y-33427D01*
X29832Y-33392D01*
X29857Y-33362D01*
X29886Y-33336D01*
X29920Y-33317D01*
X29958Y-33305D01*
X29996Y-33301D01*
X30034Y-33304D01*
X30072Y-33314D01*
X30107Y-33332D01*
X30137Y-33356D01*
X30163Y-33385D01*
X30182Y-33419D01*
X30195Y-33456D01*
X30199Y-33495D01*
X30200Y-33500D01*
X29800Y-33300D02*
X30200Y-33700D01*
X30200Y-33300D02*
X29800Y-33700D01*
X30200Y-34500D02*
X30196Y-34538D01*
X30184Y-34576D01*
X30166Y-34610D01*
X30141Y-34640D01*
X30111Y-34665D01*
X30077Y-34684D01*
X30040Y-34695D01*
X30001Y-34699D01*
X29963Y-34696D01*
X29926Y-34685D01*
X29891Y-34667D01*
X29861Y-34642D01*
X29835Y-34612D01*
X29817Y-34578D01*
X29805Y-34541D01*
X29801Y-34502D01*
X29804Y-34464D01*
X29815Y-34427D01*
X29832Y-34392D01*
X29857Y-34362D01*
X29886Y-34336D01*
X29920Y-34317D01*
X29958Y-34305D01*
X29996Y-34301D01*
X30034Y-34304D01*
X30072Y-34314D01*
X30107Y-34332D01*
X30137Y-34356D01*
X30163Y-34385D01*
X30182Y-34419D01*
X30195Y-34456D01*
X30199Y-34495D01*
X30200Y-34500D01*
X29800Y-34300D02*
X30200Y-34700D01*
X30200Y-34300D02*
X29800Y-34700D01*
X30200Y-35500D02*
X30196Y-35538D01*
X30184Y-35576D01*
X30166Y-35610D01*
X30141Y-35640D01*
X30111Y-35665D01*
X30077Y-35684D01*
X30040Y-35695D01*
X30001Y-35699D01*
X29963Y-35696D01*
X29926Y-35685D01*
X29891Y-35667D01*
X29861Y-35642D01*
X29835Y-35612D01*
X29817Y-35578D01*
X29805Y-35541D01*
X29801Y-35502D01*
X29804Y-35464D01*
X29815Y-35427D01*
X29832Y-35392D01*
X29857Y-35362D01*
X29886Y-35336D01*
X29920Y-35317D01*
X29958Y-35305D01*
X29996Y-35301D01*
X30034Y-35304D01*
X30072Y-35314D01*
X30107Y-35332D01*
X30137Y-35356D01*
X30163Y-35385D01*
X30182Y-35419D01*
X30195Y-35456D01*
X30199Y-35495D01*
X30200Y-35500D01*
X29800Y-35300D02*
X30200Y-35700D01*
X30200Y-35300D02*
X29800Y-35700D01*
X30200Y-36500D02*
X30196Y-36538D01*
X30184Y-36576D01*
X30166Y-36610D01*
X30141Y-36640D01*
X30111Y-36665D01*
X30077Y-36684D01*
X30040Y-36695D01*
X30001Y-36699D01*
X29963Y-36696D01*
X29926Y-36685D01*
X29891Y-36667D01*
X29861Y-36642D01*
X29835Y-36612D01*
X29817Y-36578D01*
X29805Y-36541D01*
X29801Y-36502D01*
X29804Y-36464D01*
X29815Y-36427D01*
X29832Y-36392D01*
X29857Y-36362D01*
X29886Y-36336D01*
X29920Y-36317D01*
X29958Y-36305D01*
X29996Y-36301D01*
X30034Y-36304D01*
X30072Y-36314D01*
X30107Y-36332D01*
X30137Y-36356D01*
X30163Y-36385D01*
X30182Y-36419D01*
X30195Y-36456D01*
X30199Y-36495D01*
X30200Y-36500D01*
X29800Y-36300D02*
X30200Y-36700D01*
X30200Y-36300D02*
X29800Y-36700D01*
X30200Y-37500D02*
X30196Y-37538D01*
X30184Y-37576D01*
X30166Y-37610D01*
X30141Y-37640D01*
X30111Y-37665D01*
X30077Y-37684D01*
X30040Y-37695D01*
X30001Y-37699D01*
X29963Y-37696D01*
X29926Y-37685D01*
X29891Y-37667D01*
X29861Y-37642D01*
X29835Y-37612D01*
X29817Y-37578D01*
X29805Y-37541D01*
X29801Y-37502D01*
X29804Y-37464D01*
X29815Y-37427D01*
X29832Y-37392D01*
X29857Y-37362D01*
X29886Y-37336D01*
X29920Y-37317D01*
X29958Y-37305D01*
X29996Y-37301D01*
X30034Y-37304D01*
X30072Y-37314D01*
X30107Y-37332D01*
X30137Y-37356D01*
X30163Y-37385D01*
X30182Y-37419D01*
X30195Y-37456D01*
X30199Y-37495D01*
X30200Y-37500D01*
X29800Y-37300D02*
X30200Y-37700D01*
X30200Y-37300D02*
X29800Y-37700D01*
X30200Y-38500D02*
X30196Y-38538D01*
X30184Y-38576D01*
X30166Y-38610D01*
X30141Y-38640D01*
X30111Y-38665D01*
X30077Y-38684D01*
X30040Y-38695D01*
X30001Y-38699D01*
X29963Y-38696D01*
X29926Y-38685D01*
X29891Y-38667D01*
X29861Y-38642D01*
X29835Y-38612D01*
X29817Y-38578D01*
X29805Y-38541D01*
X29801Y-38502D01*
X29804Y-38464D01*
X29815Y-38427D01*
X29832Y-38392D01*
X29857Y-38362D01*
X29886Y-38336D01*
X29920Y-38317D01*
X29958Y-38305D01*
X29996Y-38301D01*
X30034Y-38304D01*
X30072Y-38314D01*
X30107Y-38332D01*
X30137Y-38356D01*
X30163Y-38385D01*
X30182Y-38419D01*
X30195Y-38456D01*
X30199Y-38495D01*
X30200Y-38500D01*
X29800Y-38300D02*
X30200Y-38700D01*
X30200Y-38300D02*
X29800Y-38700D01*
X30200Y-39500D02*
X30196Y-39538D01*
X30184Y-39576D01*
X30166Y-39610D01*
X30141Y-39640D01*
X30111Y-39665D01*
X30077Y-39684D01*
X30040Y-39695D01*
X30001Y-39699D01*
X29963Y-39696D01*
X29926Y-39685D01*
X29891Y-39667D01*
X29861Y-39642D01*
X29835Y-39612D01*
X29817Y-39578D01*
X29805Y-39541D01*
X29801Y-39502D01*
X29804Y-39464D01*
X29815Y-39427D01*
X29832Y-39392D01*
X29857Y-39362D01*
X29886Y-39336D01*
X29920Y-39317D01*
X29958Y-39305D01*
X29996Y-39301D01*
X30034Y-39304D01*
X30072Y-39314D01*
X30107Y-39332D01*
X30137Y-39356D01*
X30163Y-39385D01*
X30182Y-39419D01*
X30195Y-39456D01*
X30199Y-39495D01*
X30200Y-39500D01*
X29800Y-39300D02*
X30200Y-39700D01*
X30200Y-39300D02*
X29800Y-39700D01*
X32450Y-22250D02*
X32446Y-22288D01*
X32434Y-22326D01*
X32416Y-22360D01*
X32391Y-22390D01*
X32361Y-22415D01*
X32327Y-22434D01*
X32290Y-22445D01*
X32251Y-22449D01*
X32213Y-22446D01*
X32176Y-22435D01*
X32141Y-22417D01*
X32111Y-22392D01*
X32085Y-22362D01*
X32067Y-22328D01*
X32055Y-22291D01*
X32051Y-22252D01*
X32054Y-22214D01*
X32065Y-22177D01*
X32082Y-22142D01*
X32107Y-22112D01*
X32136Y-22086D01*
X32170Y-22067D01*
X32208Y-22055D01*
X32246Y-22051D01*
X32284Y-22054D01*
X32322Y-22064D01*
X32357Y-22082D01*
X32387Y-22106D01*
X32413Y-22135D01*
X32432Y-22169D01*
X32445Y-22206D01*
X32449Y-22245D01*
X32450Y-22250D01*
X32050Y-22050D02*
X32450Y-22450D01*
X32450Y-22050D02*
X32050Y-22450D01*
X32450Y-23250D02*
X32446Y-23288D01*
X32434Y-23326D01*
X32416Y-23360D01*
X32391Y-23390D01*
X32361Y-23415D01*
X32327Y-23434D01*
X32290Y-23445D01*
X32251Y-23449D01*
X32213Y-23446D01*
X32176Y-23435D01*
X32141Y-23417D01*
X32111Y-23392D01*
X32085Y-23362D01*
X32067Y-23328D01*
X32055Y-23291D01*
X32051Y-23252D01*
X32054Y-23214D01*
X32065Y-23177D01*
X32082Y-23142D01*
X32107Y-23112D01*
X32136Y-23086D01*
X32170Y-23067D01*
X32208Y-23055D01*
X32246Y-23051D01*
X32284Y-23054D01*
X32322Y-23064D01*
X32357Y-23082D01*
X32387Y-23106D01*
X32413Y-23135D01*
X32432Y-23169D01*
X32445Y-23206D01*
X32449Y-23245D01*
X32450Y-23250D01*
X32050Y-23050D02*
X32450Y-23450D01*
X32450Y-23050D02*
X32050Y-23450D01*
X32450Y-24250D02*
X32446Y-24288D01*
X32434Y-24326D01*
X32416Y-24360D01*
X32391Y-24390D01*
X32361Y-24415D01*
X32327Y-24434D01*
X32290Y-24445D01*
X32251Y-24449D01*
X32213Y-24446D01*
X32176Y-24435D01*
X32141Y-24417D01*
X32111Y-24392D01*
X32085Y-24362D01*
X32067Y-24328D01*
X32055Y-24291D01*
X32051Y-24252D01*
X32054Y-24214D01*
X32065Y-24177D01*
X32082Y-24142D01*
X32107Y-24112D01*
X32136Y-24086D01*
X32170Y-24067D01*
X32208Y-24055D01*
X32246Y-24051D01*
X32284Y-24054D01*
X32322Y-24064D01*
X32357Y-24082D01*
X32387Y-24106D01*
X32413Y-24135D01*
X32432Y-24169D01*
X32445Y-24206D01*
X32449Y-24245D01*
X32450Y-24250D01*
X32050Y-24050D02*
X32450Y-24450D01*
X32450Y-24050D02*
X32050Y-24450D01*
X32450Y-25250D02*
X32446Y-25288D01*
X32434Y-25326D01*
X32416Y-25360D01*
X32391Y-25390D01*
X32361Y-25415D01*
X32327Y-25434D01*
X32290Y-25445D01*
X32251Y-25449D01*
X32213Y-25446D01*
X32176Y-25435D01*
X32141Y-25417D01*
X32111Y-25392D01*
X32085Y-25362D01*
X32067Y-25328D01*
X32055Y-25291D01*
X32051Y-25252D01*
X32054Y-25214D01*
X32065Y-25177D01*
X32082Y-25142D01*
X32107Y-25112D01*
X32136Y-25086D01*
X32170Y-25067D01*
X32208Y-25055D01*
X32246Y-25051D01*
X32284Y-25054D01*
X32322Y-25064D01*
X32357Y-25082D01*
X32387Y-25106D01*
X32413Y-25135D01*
X32432Y-25169D01*
X32445Y-25206D01*
X32449Y-25245D01*
X32450Y-25250D01*
X32050Y-25050D02*
X32450Y-25450D01*
X32450Y-25050D02*
X32050Y-25450D01*
X32450Y-26750D02*
X32446Y-26788D01*
X32434Y-26826D01*
X32416Y-26860D01*
X32391Y-26890D01*
X32361Y-26915D01*
X32327Y-26934D01*
X32290Y-26945D01*
X32251Y-26949D01*
X32213Y-26946D01*
X32176Y-26935D01*
X32141Y-26917D01*
X32111Y-26892D01*
X32085Y-26862D01*
X32067Y-26828D01*
X32055Y-26791D01*
X32051Y-26752D01*
X32054Y-26714D01*
X32065Y-26677D01*
X32082Y-26642D01*
X32107Y-26612D01*
X32136Y-26586D01*
X32170Y-26567D01*
X32208Y-26555D01*
X32246Y-26551D01*
X32284Y-26554D01*
X32322Y-26564D01*
X32357Y-26582D01*
X32387Y-26606D01*
X32413Y-26635D01*
X32432Y-26669D01*
X32445Y-26706D01*
X32449Y-26745D01*
X32450Y-26750D01*
X32050Y-26550D02*
X32450Y-26950D01*
X32450Y-26550D02*
X32050Y-26950D01*
X32450Y-27750D02*
X32446Y-27788D01*
X32434Y-27826D01*
X32416Y-27860D01*
X32391Y-27890D01*
X32361Y-27915D01*
X32327Y-27934D01*
X32290Y-27945D01*
X32251Y-27949D01*
X32213Y-27946D01*
X32176Y-27935D01*
X32141Y-27917D01*
X32111Y-27892D01*
X32085Y-27862D01*
X32067Y-27828D01*
X32055Y-27791D01*
X32051Y-27752D01*
X32054Y-27714D01*
X32065Y-27677D01*
X32082Y-27642D01*
X32107Y-27612D01*
X32136Y-27586D01*
X32170Y-27567D01*
X32208Y-27555D01*
X32246Y-27551D01*
X32284Y-27554D01*
X32322Y-27564D01*
X32357Y-27582D01*
X32387Y-27606D01*
X32413Y-27635D01*
X32432Y-27669D01*
X32445Y-27706D01*
X32449Y-27745D01*
X32450Y-27750D01*
X32050Y-27550D02*
X32450Y-27950D01*
X32450Y-27550D02*
X32050Y-27950D01*
X32450Y-28750D02*
X32446Y-28788D01*
X32434Y-28826D01*
X32416Y-28860D01*
X32391Y-28890D01*
X32361Y-28915D01*
X32327Y-28934D01*
X32290Y-28945D01*
X32251Y-28949D01*
X32213Y-28946D01*
X32176Y-28935D01*
X32141Y-28917D01*
X32111Y-28892D01*
X32085Y-28862D01*
X32067Y-28828D01*
X32055Y-28791D01*
X32051Y-28752D01*
X32054Y-28714D01*
X32065Y-28677D01*
X32082Y-28642D01*
X32107Y-28612D01*
X32136Y-28586D01*
X32170Y-28567D01*
X32208Y-28555D01*
X32246Y-28551D01*
X32284Y-28554D01*
X32322Y-28564D01*
X32357Y-28582D01*
X32387Y-28606D01*
X32413Y-28635D01*
X32432Y-28669D01*
X32445Y-28706D01*
X32449Y-28745D01*
X32450Y-28750D01*
X32050Y-28550D02*
X32450Y-28950D01*
X32450Y-28550D02*
X32050Y-28950D01*
X32450Y-29750D02*
X32446Y-29788D01*
X32434Y-29826D01*
X32416Y-29860D01*
X32391Y-29890D01*
X32361Y-29915D01*
X32327Y-29934D01*
X32290Y-29945D01*
X32251Y-29949D01*
X32213Y-29946D01*
X32176Y-29935D01*
X32141Y-29917D01*
X32111Y-29892D01*
X32085Y-29862D01*
X32067Y-29828D01*
X32055Y-29791D01*
X32051Y-29752D01*
X32054Y-29714D01*
X32065Y-29677D01*
X32082Y-29642D01*
X32107Y-29612D01*
X32136Y-29586D01*
X32170Y-29567D01*
X32208Y-29555D01*
X32246Y-29551D01*
X32284Y-29554D01*
X32322Y-29564D01*
X32357Y-29582D01*
X32387Y-29606D01*
X32413Y-29635D01*
X32432Y-29669D01*
X32445Y-29706D01*
X32449Y-29745D01*
X32450Y-29750D01*
X32050Y-29550D02*
X32450Y-29950D01*
X32450Y-29550D02*
X32050Y-29950D01*
X32950Y-32500D02*
X32946Y-32538D01*
X32934Y-32576D01*
X32916Y-32610D01*
X32891Y-32640D01*
X32861Y-32665D01*
X32827Y-32684D01*
X32790Y-32695D01*
X32751Y-32699D01*
X32713Y-32696D01*
X32676Y-32685D01*
X32641Y-32667D01*
X32611Y-32642D01*
X32585Y-32612D01*
X32567Y-32578D01*
X32555Y-32541D01*
X32551Y-32502D01*
X32554Y-32464D01*
X32565Y-32427D01*
X32582Y-32392D01*
X32607Y-32362D01*
X32636Y-32336D01*
X32670Y-32317D01*
X32708Y-32305D01*
X32746Y-32301D01*
X32784Y-32304D01*
X32822Y-32314D01*
X32857Y-32332D01*
X32887Y-32356D01*
X32913Y-32385D01*
X32932Y-32419D01*
X32945Y-32456D01*
X32949Y-32495D01*
X32950Y-32500D01*
X32550Y-32300D02*
X32950Y-32700D01*
X32950Y-32300D02*
X32550Y-32700D01*
X32950Y-33500D02*
X32946Y-33538D01*
X32934Y-33576D01*
X32916Y-33610D01*
X32891Y-33640D01*
X32861Y-33665D01*
X32827Y-33684D01*
X32790Y-33695D01*
X32751Y-33699D01*
X32713Y-33696D01*
X32676Y-33685D01*
X32641Y-33667D01*
X32611Y-33642D01*
X32585Y-33612D01*
X32567Y-33578D01*
X32555Y-33541D01*
X32551Y-33502D01*
X32554Y-33464D01*
X32565Y-33427D01*
X32582Y-33392D01*
X32607Y-33362D01*
X32636Y-33336D01*
X32670Y-33317D01*
X32708Y-33305D01*
X32746Y-33301D01*
X32784Y-33304D01*
X32822Y-33314D01*
X32857Y-33332D01*
X32887Y-33356D01*
X32913Y-33385D01*
X32932Y-33419D01*
X32945Y-33456D01*
X32949Y-33495D01*
X32950Y-33500D01*
X32550Y-33300D02*
X32950Y-33700D01*
X32950Y-33300D02*
X32550Y-33700D01*
X32950Y-34500D02*
X32946Y-34538D01*
X32934Y-34576D01*
X32916Y-34610D01*
X32891Y-34640D01*
X32861Y-34665D01*
X32827Y-34684D01*
X32790Y-34695D01*
X32751Y-34699D01*
X32713Y-34696D01*
X32676Y-34685D01*
X32641Y-34667D01*
X32611Y-34642D01*
X32585Y-34612D01*
X32567Y-34578D01*
X32555Y-34541D01*
X32551Y-34502D01*
X32554Y-34464D01*
X32565Y-34427D01*
X32582Y-34392D01*
X32607Y-34362D01*
X32636Y-34336D01*
X32670Y-34317D01*
X32708Y-34305D01*
X32746Y-34301D01*
X32784Y-34304D01*
X32822Y-34314D01*
X32857Y-34332D01*
X32887Y-34356D01*
X32913Y-34385D01*
X32932Y-34419D01*
X32945Y-34456D01*
X32949Y-34495D01*
X32950Y-34500D01*
X32550Y-34300D02*
X32950Y-34700D01*
X32950Y-34300D02*
X32550Y-34700D01*
X32950Y-35500D02*
X32946Y-35538D01*
X32934Y-35576D01*
X32916Y-35610D01*
X32891Y-35640D01*
X32861Y-35665D01*
X32827Y-35684D01*
X32790Y-35695D01*
X32751Y-35699D01*
X32713Y-35696D01*
X32676Y-35685D01*
X32641Y-35667D01*
X32611Y-35642D01*
X32585Y-35612D01*
X32567Y-35578D01*
X32555Y-35541D01*
X32551Y-35502D01*
X32554Y-35464D01*
X32565Y-35427D01*
X32582Y-35392D01*
X32607Y-35362D01*
X32636Y-35336D01*
X32670Y-35317D01*
X32708Y-35305D01*
X32746Y-35301D01*
X32784Y-35304D01*
X32822Y-35314D01*
X32857Y-35332D01*
X32887Y-35356D01*
X32913Y-35385D01*
X32932Y-35419D01*
X32945Y-35456D01*
X32949Y-35495D01*
X32950Y-35500D01*
X32550Y-35300D02*
X32950Y-35700D01*
X32950Y-35300D02*
X32550Y-35700D01*
X32950Y-36500D02*
X32946Y-36538D01*
X32934Y-36576D01*
X32916Y-36610D01*
X32891Y-36640D01*
X32861Y-36665D01*
X32827Y-36684D01*
X32790Y-36695D01*
X32751Y-36699D01*
X32713Y-36696D01*
X32676Y-36685D01*
X32641Y-36667D01*
X32611Y-36642D01*
X32585Y-36612D01*
X32567Y-36578D01*
X32555Y-36541D01*
X32551Y-36502D01*
X32554Y-36464D01*
X32565Y-36427D01*
X32582Y-36392D01*
X32607Y-36362D01*
X32636Y-36336D01*
X32670Y-36317D01*
X32708Y-36305D01*
X32746Y-36301D01*
X32784Y-36304D01*
X32822Y-36314D01*
X32857Y-36332D01*
X32887Y-36356D01*
X32913Y-36385D01*
X32932Y-36419D01*
X32945Y-36456D01*
X32949Y-36495D01*
X32950Y-36500D01*
X32550Y-36300D02*
X32950Y-36700D01*
X32950Y-36300D02*
X32550Y-36700D01*
X32950Y-37500D02*
X32946Y-37538D01*
X32934Y-37576D01*
X32916Y-37610D01*
X32891Y-37640D01*
X32861Y-37665D01*
X32827Y-37684D01*
X32790Y-37695D01*
X32751Y-37699D01*
X32713Y-37696D01*
X32676Y-37685D01*
X32641Y-37667D01*
X32611Y-37642D01*
X32585Y-37612D01*
X32567Y-37578D01*
X32555Y-37541D01*
X32551Y-37502D01*
X32554Y-37464D01*
X32565Y-37427D01*
X32582Y-37392D01*
X32607Y-37362D01*
X32636Y-37336D01*
X32670Y-37317D01*
X32708Y-37305D01*
X32746Y-37301D01*
X32784Y-37304D01*
X32822Y-37314D01*
X32857Y-37332D01*
X32887Y-37356D01*
X32913Y-37385D01*
X32932Y-37419D01*
X32945Y-37456D01*
X32949Y-37495D01*
X32950Y-37500D01*
X32550Y-37300D02*
X32950Y-37700D01*
X32950Y-37300D02*
X32550Y-37700D01*
X32950Y-38500D02*
X32946Y-38538D01*
X32934Y-38576D01*
X32916Y-38610D01*
X32891Y-38640D01*
X32861Y-38665D01*
X32827Y-38684D01*
X32790Y-38695D01*
X32751Y-38699D01*
X32713Y-38696D01*
X32676Y-38685D01*
X32641Y-38667D01*
X32611Y-38642D01*
X32585Y-38612D01*
X32567Y-38578D01*
X32555Y-38541D01*
X32551Y-38502D01*
X32554Y-38464D01*
X32565Y-38427D01*
X32582Y-38392D01*
X32607Y-38362D01*
X32636Y-38336D01*
X32670Y-38317D01*
X32708Y-38305D01*
X32746Y-38301D01*
X32784Y-38304D01*
X32822Y-38314D01*
X32857Y-38332D01*
X32887Y-38356D01*
X32913Y-38385D01*
X32932Y-38419D01*
X32945Y-38456D01*
X32949Y-38495D01*
X32950Y-38500D01*
X32550Y-38300D02*
X32950Y-38700D01*
X32950Y-38300D02*
X32550Y-38700D01*
X32950Y-39500D02*
X32946Y-39538D01*
X32934Y-39576D01*
X32916Y-39610D01*
X32891Y-39640D01*
X32861Y-39665D01*
X32827Y-39684D01*
X32790Y-39695D01*
X32751Y-39699D01*
X32713Y-39696D01*
X32676Y-39685D01*
X32641Y-39667D01*
X32611Y-39642D01*
X32585Y-39612D01*
X32567Y-39578D01*
X32555Y-39541D01*
X32551Y-39502D01*
X32554Y-39464D01*
X32565Y-39427D01*
X32582Y-39392D01*
X32607Y-39362D01*
X32636Y-39336D01*
X32670Y-39317D01*
X32708Y-39305D01*
X32746Y-39301D01*
X32784Y-39304D01*
X32822Y-39314D01*
X32857Y-39332D01*
X32887Y-39356D01*
X32913Y-39385D01*
X32932Y-39419D01*
X32945Y-39456D01*
X32949Y-39495D01*
X32950Y-39500D01*
X32550Y-39300D02*
X32950Y-39700D01*
X32950Y-39300D02*
X32550Y-39700D01*
X35200Y-22250D02*
X35196Y-22288D01*
X35184Y-22326D01*
X35166Y-22360D01*
X35141Y-22390D01*
X35111Y-22415D01*
X35077Y-22434D01*
X35040Y-22445D01*
X35001Y-22449D01*
X34963Y-22446D01*
X34926Y-22435D01*
X34891Y-22417D01*
X34861Y-22392D01*
X34835Y-22362D01*
X34817Y-22328D01*
X34805Y-22291D01*
X34801Y-22252D01*
X34804Y-22214D01*
X34815Y-22177D01*
X34832Y-22142D01*
X34857Y-22112D01*
X34886Y-22086D01*
X34920Y-22067D01*
X34958Y-22055D01*
X34996Y-22051D01*
X35034Y-22054D01*
X35072Y-22064D01*
X35107Y-22082D01*
X35137Y-22106D01*
X35163Y-22135D01*
X35182Y-22169D01*
X35195Y-22206D01*
X35199Y-22245D01*
X35200Y-22250D01*
X34800Y-22050D02*
X35200Y-22450D01*
X35200Y-22050D02*
X34800Y-22450D01*
X35200Y-23250D02*
X35196Y-23288D01*
X35184Y-23326D01*
X35166Y-23360D01*
X35141Y-23390D01*
X35111Y-23415D01*
X35077Y-23434D01*
X35040Y-23445D01*
X35001Y-23449D01*
X34963Y-23446D01*
X34926Y-23435D01*
X34891Y-23417D01*
X34861Y-23392D01*
X34835Y-23362D01*
X34817Y-23328D01*
X34805Y-23291D01*
X34801Y-23252D01*
X34804Y-23214D01*
X34815Y-23177D01*
X34832Y-23142D01*
X34857Y-23112D01*
X34886Y-23086D01*
X34920Y-23067D01*
X34958Y-23055D01*
X34996Y-23051D01*
X35034Y-23054D01*
X35072Y-23064D01*
X35107Y-23082D01*
X35137Y-23106D01*
X35163Y-23135D01*
X35182Y-23169D01*
X35195Y-23206D01*
X35199Y-23245D01*
X35200Y-23250D01*
X34800Y-23050D02*
X35200Y-23450D01*
X35200Y-23050D02*
X34800Y-23450D01*
X35200Y-24250D02*
X35196Y-24288D01*
X35184Y-24326D01*
X35166Y-24360D01*
X35141Y-24390D01*
X35111Y-24415D01*
X35077Y-24434D01*
X35040Y-24445D01*
X35001Y-24449D01*
X34963Y-24446D01*
X34926Y-24435D01*
X34891Y-24417D01*
X34861Y-24392D01*
X34835Y-24362D01*
X34817Y-24328D01*
X34805Y-24291D01*
X34801Y-24252D01*
X34804Y-24214D01*
X34815Y-24177D01*
X34832Y-24142D01*
X34857Y-24112D01*
X34886Y-24086D01*
X34920Y-24067D01*
X34958Y-24055D01*
X34996Y-24051D01*
X35034Y-24054D01*
X35072Y-24064D01*
X35107Y-24082D01*
X35137Y-24106D01*
X35163Y-24135D01*
X35182Y-24169D01*
X35195Y-24206D01*
X35199Y-24245D01*
X35200Y-24250D01*
X34800Y-24050D02*
X35200Y-24450D01*
X35200Y-24050D02*
X34800Y-24450D01*
X35200Y-25250D02*
X35196Y-25288D01*
X35184Y-25326D01*
X35166Y-25360D01*
X35141Y-25390D01*
X35111Y-25415D01*
X35077Y-25434D01*
X35040Y-25445D01*
X35001Y-25449D01*
X34963Y-25446D01*
X34926Y-25435D01*
X34891Y-25417D01*
X34861Y-25392D01*
X34835Y-25362D01*
X34817Y-25328D01*
X34805Y-25291D01*
X34801Y-25252D01*
X34804Y-25214D01*
X34815Y-25177D01*
X34832Y-25142D01*
X34857Y-25112D01*
X34886Y-25086D01*
X34920Y-25067D01*
X34958Y-25055D01*
X34996Y-25051D01*
X35034Y-25054D01*
X35072Y-25064D01*
X35107Y-25082D01*
X35137Y-25106D01*
X35163Y-25135D01*
X35182Y-25169D01*
X35195Y-25206D01*
X35199Y-25245D01*
X35200Y-25250D01*
X34800Y-25050D02*
X35200Y-25450D01*
X35200Y-25050D02*
X34800Y-25450D01*
X35200Y-26250D02*
X35196Y-26288D01*
X35184Y-26326D01*
X35166Y-26360D01*
X35141Y-26390D01*
X35111Y-26415D01*
X35077Y-26434D01*
X35040Y-26445D01*
X35001Y-26449D01*
X34963Y-26446D01*
X34926Y-26435D01*
X34891Y-26417D01*
X34861Y-26392D01*
X34835Y-26362D01*
X34817Y-26328D01*
X34805Y-26291D01*
X34801Y-26252D01*
X34804Y-26214D01*
X34815Y-26177D01*
X34832Y-26142D01*
X34857Y-26112D01*
X34886Y-26086D01*
X34920Y-26067D01*
X34958Y-26055D01*
X34996Y-26051D01*
X35034Y-26054D01*
X35072Y-26064D01*
X35107Y-26082D01*
X35137Y-26106D01*
X35163Y-26135D01*
X35182Y-26169D01*
X35195Y-26206D01*
X35199Y-26245D01*
X35200Y-26250D01*
X34800Y-26050D02*
X35200Y-26450D01*
X35200Y-26050D02*
X34800Y-26450D01*
X35200Y-27250D02*
X35196Y-27288D01*
X35184Y-27326D01*
X35166Y-27360D01*
X35141Y-27390D01*
X35111Y-27415D01*
X35077Y-27434D01*
X35040Y-27445D01*
X35001Y-27449D01*
X34963Y-27446D01*
X34926Y-27435D01*
X34891Y-27417D01*
X34861Y-27392D01*
X34835Y-27362D01*
X34817Y-27328D01*
X34805Y-27291D01*
X34801Y-27252D01*
X34804Y-27214D01*
X34815Y-27177D01*
X34832Y-27142D01*
X34857Y-27112D01*
X34886Y-27086D01*
X34920Y-27067D01*
X34958Y-27055D01*
X34996Y-27051D01*
X35034Y-27054D01*
X35072Y-27064D01*
X35107Y-27082D01*
X35137Y-27106D01*
X35163Y-27135D01*
X35182Y-27169D01*
X35195Y-27206D01*
X35199Y-27245D01*
X35200Y-27250D01*
X34800Y-27050D02*
X35200Y-27450D01*
X35200Y-27050D02*
X34800Y-27450D01*
X35200Y-28250D02*
X35196Y-28288D01*
X35184Y-28326D01*
X35166Y-28360D01*
X35141Y-28390D01*
X35111Y-28415D01*
X35077Y-28434D01*
X35040Y-28445D01*
X35001Y-28449D01*
X34963Y-28446D01*
X34926Y-28435D01*
X34891Y-28417D01*
X34861Y-28392D01*
X34835Y-28362D01*
X34817Y-28328D01*
X34805Y-28291D01*
X34801Y-28252D01*
X34804Y-28214D01*
X34815Y-28177D01*
X34832Y-28142D01*
X34857Y-28112D01*
X34886Y-28086D01*
X34920Y-28067D01*
X34958Y-28055D01*
X34996Y-28051D01*
X35034Y-28054D01*
X35072Y-28064D01*
X35107Y-28082D01*
X35137Y-28106D01*
X35163Y-28135D01*
X35182Y-28169D01*
X35195Y-28206D01*
X35199Y-28245D01*
X35200Y-28250D01*
X34800Y-28050D02*
X35200Y-28450D01*
X35200Y-28050D02*
X34800Y-28450D01*
X35200Y-29250D02*
X35196Y-29288D01*
X35184Y-29326D01*
X35166Y-29360D01*
X35141Y-29390D01*
X35111Y-29415D01*
X35077Y-29434D01*
X35040Y-29445D01*
X35001Y-29449D01*
X34963Y-29446D01*
X34926Y-29435D01*
X34891Y-29417D01*
X34861Y-29392D01*
X34835Y-29362D01*
X34817Y-29328D01*
X34805Y-29291D01*
X34801Y-29252D01*
X34804Y-29214D01*
X34815Y-29177D01*
X34832Y-29142D01*
X34857Y-29112D01*
X34886Y-29086D01*
X34920Y-29067D01*
X34958Y-29055D01*
X34996Y-29051D01*
X35034Y-29054D01*
X35072Y-29064D01*
X35107Y-29082D01*
X35137Y-29106D01*
X35163Y-29135D01*
X35182Y-29169D01*
X35195Y-29206D01*
X35199Y-29245D01*
X35200Y-29250D01*
X34800Y-29050D02*
X35200Y-29450D01*
X35200Y-29050D02*
X34800Y-29450D01*
X36950Y-08000D02*
X36946Y-08038D01*
X36934Y-08076D01*
X36916Y-08110D01*
X36891Y-08140D01*
X36861Y-08165D01*
X36827Y-08184D01*
X36790Y-08195D01*
X36751Y-08199D01*
X36713Y-08196D01*
X36676Y-08185D01*
X36641Y-08167D01*
X36611Y-08142D01*
X36585Y-08112D01*
X36567Y-08078D01*
X36555Y-08041D01*
X36551Y-08002D01*
X36554Y-07964D01*
X36565Y-07927D01*
X36582Y-07892D01*
X36607Y-07862D01*
X36636Y-07836D01*
X36670Y-07817D01*
X36708Y-07805D01*
X36746Y-07801D01*
X36784Y-07804D01*
X36822Y-07814D01*
X36857Y-07832D01*
X36887Y-07856D01*
X36913Y-07885D01*
X36932Y-07919D01*
X36945Y-07956D01*
X36949Y-07995D01*
X36950Y-08000D01*
X36550Y-07800D02*
X36950Y-08200D01*
X36950Y-07800D02*
X36550Y-08200D01*
X37950Y-08000D02*
X37946Y-08038D01*
X37934Y-08076D01*
X37916Y-08110D01*
X37891Y-08140D01*
X37861Y-08165D01*
X37827Y-08184D01*
X37790Y-08195D01*
X37751Y-08199D01*
X37713Y-08196D01*
X37676Y-08185D01*
X37641Y-08167D01*
X37611Y-08142D01*
X37585Y-08112D01*
X37567Y-08078D01*
X37555Y-08041D01*
X37551Y-08002D01*
X37554Y-07964D01*
X37565Y-07927D01*
X37582Y-07892D01*
X37607Y-07862D01*
X37636Y-07836D01*
X37670Y-07817D01*
X37708Y-07805D01*
X37746Y-07801D01*
X37784Y-07804D01*
X37822Y-07814D01*
X37857Y-07832D01*
X37887Y-07856D01*
X37913Y-07885D01*
X37932Y-07919D01*
X37945Y-07956D01*
X37949Y-07995D01*
X37950Y-08000D01*
X37550Y-07800D02*
X37950Y-08200D01*
X37950Y-07800D02*
X37550Y-08200D01*
X37950Y-22250D02*
X37946Y-22288D01*
X37934Y-22326D01*
X37916Y-22360D01*
X37891Y-22390D01*
X37861Y-22415D01*
X37827Y-22434D01*
X37790Y-22445D01*
X37751Y-22449D01*
X37713Y-22446D01*
X37676Y-22435D01*
X37641Y-22417D01*
X37611Y-22392D01*
X37585Y-22362D01*
X37567Y-22328D01*
X37555Y-22291D01*
X37551Y-22252D01*
X37554Y-22214D01*
X37565Y-22177D01*
X37582Y-22142D01*
X37607Y-22112D01*
X37636Y-22086D01*
X37670Y-22067D01*
X37708Y-22055D01*
X37746Y-22051D01*
X37784Y-22054D01*
X37822Y-22064D01*
X37857Y-22082D01*
X37887Y-22106D01*
X37913Y-22135D01*
X37932Y-22169D01*
X37945Y-22206D01*
X37949Y-22245D01*
X37950Y-22250D01*
X37550Y-22050D02*
X37950Y-22450D01*
X37950Y-22050D02*
X37550Y-22450D01*
X37950Y-23250D02*
X37946Y-23288D01*
X37934Y-23326D01*
X37916Y-23360D01*
X37891Y-23390D01*
X37861Y-23415D01*
X37827Y-23434D01*
X37790Y-23445D01*
X37751Y-23449D01*
X37713Y-23446D01*
X37676Y-23435D01*
X37641Y-23417D01*
X37611Y-23392D01*
X37585Y-23362D01*
X37567Y-23328D01*
X37555Y-23291D01*
X37551Y-23252D01*
X37554Y-23214D01*
X37565Y-23177D01*
X37582Y-23142D01*
X37607Y-23112D01*
X37636Y-23086D01*
X37670Y-23067D01*
X37708Y-23055D01*
X37746Y-23051D01*
X37784Y-23054D01*
X37822Y-23064D01*
X37857Y-23082D01*
X37887Y-23106D01*
X37913Y-23135D01*
X37932Y-23169D01*
X37945Y-23206D01*
X37949Y-23245D01*
X37950Y-23250D01*
X37550Y-23050D02*
X37950Y-23450D01*
X37950Y-23050D02*
X37550Y-23450D01*
X37950Y-24250D02*
X37946Y-24288D01*
X37934Y-24326D01*
X37916Y-24360D01*
X37891Y-24390D01*
X37861Y-24415D01*
X37827Y-24434D01*
X37790Y-24445D01*
X37751Y-24449D01*
X37713Y-24446D01*
X37676Y-24435D01*
X37641Y-24417D01*
X37611Y-24392D01*
X37585Y-24362D01*
X37567Y-24328D01*
X37555Y-24291D01*
X37551Y-24252D01*
X37554Y-24214D01*
X37565Y-24177D01*
X37582Y-24142D01*
X37607Y-24112D01*
X37636Y-24086D01*
X37670Y-24067D01*
X37708Y-24055D01*
X37746Y-24051D01*
X37784Y-24054D01*
X37822Y-24064D01*
X37857Y-24082D01*
X37887Y-24106D01*
X37913Y-24135D01*
X37932Y-24169D01*
X37945Y-24206D01*
X37949Y-24245D01*
X37950Y-24250D01*
X37550Y-24050D02*
X37950Y-24450D01*
X37950Y-24050D02*
X37550Y-24450D01*
X37950Y-26250D02*
X37946Y-26288D01*
X37934Y-26326D01*
X37916Y-26360D01*
X37891Y-26390D01*
X37861Y-26415D01*
X37827Y-26434D01*
X37790Y-26445D01*
X37751Y-26449D01*
X37713Y-26446D01*
X37676Y-26435D01*
X37641Y-26417D01*
X37611Y-26392D01*
X37585Y-26362D01*
X37567Y-26328D01*
X37555Y-26291D01*
X37551Y-26252D01*
X37554Y-26214D01*
X37565Y-26177D01*
X37582Y-26142D01*
X37607Y-26112D01*
X37636Y-26086D01*
X37670Y-26067D01*
X37708Y-26055D01*
X37746Y-26051D01*
X37784Y-26054D01*
X37822Y-26064D01*
X37857Y-26082D01*
X37887Y-26106D01*
X37913Y-26135D01*
X37932Y-26169D01*
X37945Y-26206D01*
X37949Y-26245D01*
X37950Y-26250D01*
X37550Y-26050D02*
X37950Y-26450D01*
X37950Y-26050D02*
X37550Y-26450D01*
X37950Y-27250D02*
X37946Y-27288D01*
X37934Y-27326D01*
X37916Y-27360D01*
X37891Y-27390D01*
X37861Y-27415D01*
X37827Y-27434D01*
X37790Y-27445D01*
X37751Y-27449D01*
X37713Y-27446D01*
X37676Y-27435D01*
X37641Y-27417D01*
X37611Y-27392D01*
X37585Y-27362D01*
X37567Y-27328D01*
X37555Y-27291D01*
X37551Y-27252D01*
X37554Y-27214D01*
X37565Y-27177D01*
X37582Y-27142D01*
X37607Y-27112D01*
X37636Y-27086D01*
X37670Y-27067D01*
X37708Y-27055D01*
X37746Y-27051D01*
X37784Y-27054D01*
X37822Y-27064D01*
X37857Y-27082D01*
X37887Y-27106D01*
X37913Y-27135D01*
X37932Y-27169D01*
X37945Y-27206D01*
X37949Y-27245D01*
X37950Y-27250D01*
X37550Y-27050D02*
X37950Y-27450D01*
X37950Y-27050D02*
X37550Y-27450D01*
X37950Y-28250D02*
X37946Y-28288D01*
X37934Y-28326D01*
X37916Y-28360D01*
X37891Y-28390D01*
X37861Y-28415D01*
X37827Y-28434D01*
X37790Y-28445D01*
X37751Y-28449D01*
X37713Y-28446D01*
X37676Y-28435D01*
X37641Y-28417D01*
X37611Y-28392D01*
X37585Y-28362D01*
X37567Y-28328D01*
X37555Y-28291D01*
X37551Y-28252D01*
X37554Y-28214D01*
X37565Y-28177D01*
X37582Y-28142D01*
X37607Y-28112D01*
X37636Y-28086D01*
X37670Y-28067D01*
X37708Y-28055D01*
X37746Y-28051D01*
X37784Y-28054D01*
X37822Y-28064D01*
X37857Y-28082D01*
X37887Y-28106D01*
X37913Y-28135D01*
X37932Y-28169D01*
X37945Y-28206D01*
X37949Y-28245D01*
X37950Y-28250D01*
X37550Y-28050D02*
X37950Y-28450D01*
X37950Y-28050D02*
X37550Y-28450D01*
X37950Y-29250D02*
X37946Y-29288D01*
X37934Y-29326D01*
X37916Y-29360D01*
X37891Y-29390D01*
X37861Y-29415D01*
X37827Y-29434D01*
X37790Y-29445D01*
X37751Y-29449D01*
X37713Y-29446D01*
X37676Y-29435D01*
X37641Y-29417D01*
X37611Y-29392D01*
X37585Y-29362D01*
X37567Y-29328D01*
X37555Y-29291D01*
X37551Y-29252D01*
X37554Y-29214D01*
X37565Y-29177D01*
X37582Y-29142D01*
X37607Y-29112D01*
X37636Y-29086D01*
X37670Y-29067D01*
X37708Y-29055D01*
X37746Y-29051D01*
X37784Y-29054D01*
X37822Y-29064D01*
X37857Y-29082D01*
X37887Y-29106D01*
X37913Y-29135D01*
X37932Y-29169D01*
X37945Y-29206D01*
X37949Y-29245D01*
X37950Y-29250D01*
X37550Y-29050D02*
X37950Y-29450D01*
X37950Y-29050D02*
X37550Y-29450D01*
X38950Y-08000D02*
X38946Y-08038D01*
X38934Y-08076D01*
X38916Y-08110D01*
X38891Y-08140D01*
X38861Y-08165D01*
X38827Y-08184D01*
X38790Y-08195D01*
X38751Y-08199D01*
X38713Y-08196D01*
X38676Y-08185D01*
X38641Y-08167D01*
X38611Y-08142D01*
X38585Y-08112D01*
X38567Y-08078D01*
X38555Y-08041D01*
X38551Y-08002D01*
X38554Y-07964D01*
X38565Y-07927D01*
X38582Y-07892D01*
X38607Y-07862D01*
X38636Y-07836D01*
X38670Y-07817D01*
X38708Y-07805D01*
X38746Y-07801D01*
X38784Y-07804D01*
X38822Y-07814D01*
X38857Y-07832D01*
X38887Y-07856D01*
X38913Y-07885D01*
X38932Y-07919D01*
X38945Y-07956D01*
X38949Y-07995D01*
X38950Y-08000D01*
X38550Y-07800D02*
X38950Y-08200D01*
X38950Y-07800D02*
X38550Y-08200D01*
X39950Y-08000D02*
X39946Y-08038D01*
X39934Y-08076D01*
X39916Y-08110D01*
X39891Y-08140D01*
X39861Y-08165D01*
X39827Y-08184D01*
X39790Y-08195D01*
X39751Y-08199D01*
X39713Y-08196D01*
X39676Y-08185D01*
X39641Y-08167D01*
X39611Y-08142D01*
X39585Y-08112D01*
X39567Y-08078D01*
X39555Y-08041D01*
X39551Y-08002D01*
X39554Y-07964D01*
X39565Y-07927D01*
X39582Y-07892D01*
X39607Y-07862D01*
X39636Y-07836D01*
X39670Y-07817D01*
X39708Y-07805D01*
X39746Y-07801D01*
X39784Y-07804D01*
X39822Y-07814D01*
X39857Y-07832D01*
X39887Y-07856D01*
X39913Y-07885D01*
X39932Y-07919D01*
X39945Y-07956D01*
X39949Y-07995D01*
X39950Y-08000D01*
X39550Y-07800D02*
X39950Y-08200D01*
X39950Y-07800D02*
X39550Y-08200D01*
X44200Y-50750D02*
X44196Y-50788D01*
X44184Y-50826D01*
X44166Y-50860D01*
X44141Y-50890D01*
X44111Y-50915D01*
X44077Y-50934D01*
X44040Y-50945D01*
X44001Y-50949D01*
X43963Y-50946D01*
X43926Y-50935D01*
X43891Y-50917D01*
X43861Y-50892D01*
X43835Y-50862D01*
X43817Y-50828D01*
X43805Y-50791D01*
X43801Y-50752D01*
X43804Y-50714D01*
X43815Y-50677D01*
X43832Y-50642D01*
X43857Y-50612D01*
X43886Y-50586D01*
X43920Y-50567D01*
X43958Y-50555D01*
X43996Y-50551D01*
X44034Y-50554D01*
X44072Y-50564D01*
X44107Y-50582D01*
X44137Y-50606D01*
X44163Y-50635D01*
X44182Y-50669D01*
X44195Y-50706D01*
X44199Y-50745D01*
X44200Y-50750D01*
X43800Y-50550D02*
X44200Y-50950D01*
X44200Y-50550D02*
X43800Y-50950D01*
X45200Y-50750D02*
X45196Y-50788D01*
X45184Y-50826D01*
X45166Y-50860D01*
X45141Y-50890D01*
X45111Y-50915D01*
X45077Y-50934D01*
X45040Y-50945D01*
X45001Y-50949D01*
X44963Y-50946D01*
X44926Y-50935D01*
X44891Y-50917D01*
X44861Y-50892D01*
X44835Y-50862D01*
X44817Y-50828D01*
X44805Y-50791D01*
X44801Y-50752D01*
X44804Y-50714D01*
X44815Y-50677D01*
X44832Y-50642D01*
X44857Y-50612D01*
X44886Y-50586D01*
X44920Y-50567D01*
X44958Y-50555D01*
X44996Y-50551D01*
X45034Y-50554D01*
X45072Y-50564D01*
X45107Y-50582D01*
X45137Y-50606D01*
X45163Y-50635D01*
X45182Y-50669D01*
X45195Y-50706D01*
X45199Y-50745D01*
X45200Y-50750D01*
X44800Y-50550D02*
X45200Y-50950D01*
X45200Y-50550D02*
X44800Y-50950D01*
X46200Y-50750D02*
X46196Y-50788D01*
X46184Y-50826D01*
X46166Y-50860D01*
X46141Y-50890D01*
X46111Y-50915D01*
X46077Y-50934D01*
X46040Y-50945D01*
X46001Y-50949D01*
X45963Y-50946D01*
X45926Y-50935D01*
X45891Y-50917D01*
X45861Y-50892D01*
X45835Y-50862D01*
X45817Y-50828D01*
X45805Y-50791D01*
X45801Y-50752D01*
X45804Y-50714D01*
X45815Y-50677D01*
X45832Y-50642D01*
X45857Y-50612D01*
X45886Y-50586D01*
X45920Y-50567D01*
X45958Y-50555D01*
X45996Y-50551D01*
X46034Y-50554D01*
X46072Y-50564D01*
X46107Y-50582D01*
X46137Y-50606D01*
X46163Y-50635D01*
X46182Y-50669D01*
X46195Y-50706D01*
X46199Y-50745D01*
X46200Y-50750D01*
X45800Y-50550D02*
X46200Y-50950D01*
X46200Y-50550D02*
X45800Y-50950D01*
X46450Y-26250D02*
X46446Y-26288D01*
X46434Y-26326D01*
X46416Y-26360D01*
X46391Y-26390D01*
X46361Y-26415D01*
X46327Y-26434D01*
X46290Y-26445D01*
X46251Y-26449D01*
X46213Y-26446D01*
X46176Y-26435D01*
X46141Y-26417D01*
X46111Y-26392D01*
X46085Y-26362D01*
X46067Y-26328D01*
X46055Y-26291D01*
X46051Y-26252D01*
X46054Y-26214D01*
X46065Y-26177D01*
X46082Y-26142D01*
X46107Y-26112D01*
X46136Y-26086D01*
X46170Y-26067D01*
X46208Y-26055D01*
X46246Y-26051D01*
X46284Y-26054D01*
X46322Y-26064D01*
X46357Y-26082D01*
X46387Y-26106D01*
X46413Y-26135D01*
X46432Y-26169D01*
X46445Y-26206D01*
X46449Y-26245D01*
X46450Y-26250D01*
X46050Y-26050D02*
X46450Y-26450D01*
X46450Y-26050D02*
X46050Y-26450D01*
X47200Y-50750D02*
X47196Y-50788D01*
X47184Y-50826D01*
X47166Y-50860D01*
X47141Y-50890D01*
X47111Y-50915D01*
X47077Y-50934D01*
X47040Y-50945D01*
X47001Y-50949D01*
X46963Y-50946D01*
X46926Y-50935D01*
X46891Y-50917D01*
X46861Y-50892D01*
X46835Y-50862D01*
X46817Y-50828D01*
X46805Y-50791D01*
X46801Y-50752D01*
X46804Y-50714D01*
X46815Y-50677D01*
X46832Y-50642D01*
X46857Y-50612D01*
X46886Y-50586D01*
X46920Y-50567D01*
X46958Y-50555D01*
X46996Y-50551D01*
X47034Y-50554D01*
X47072Y-50564D01*
X47107Y-50582D01*
X47137Y-50606D01*
X47163Y-50635D01*
X47182Y-50669D01*
X47195Y-50706D01*
X47199Y-50745D01*
X47200Y-50750D01*
X46800Y-50550D02*
X47200Y-50950D01*
X47200Y-50550D02*
X46800Y-50950D01*
X47450Y-26250D02*
X47446Y-26288D01*
X47434Y-26326D01*
X47416Y-26360D01*
X47391Y-26390D01*
X47361Y-26415D01*
X47327Y-26434D01*
X47290Y-26445D01*
X47251Y-26449D01*
X47213Y-26446D01*
X47176Y-26435D01*
X47141Y-26417D01*
X47111Y-26392D01*
X47085Y-26362D01*
X47067Y-26328D01*
X47055Y-26291D01*
X47051Y-26252D01*
X47054Y-26214D01*
X47065Y-26177D01*
X47082Y-26142D01*
X47107Y-26112D01*
X47136Y-26086D01*
X47170Y-26067D01*
X47208Y-26055D01*
X47246Y-26051D01*
X47284Y-26054D01*
X47322Y-26064D01*
X47357Y-26082D01*
X47387Y-26106D01*
X47413Y-26135D01*
X47432Y-26169D01*
X47445Y-26206D01*
X47449Y-26245D01*
X47450Y-26250D01*
X47050Y-26050D02*
X47450Y-26450D01*
X47450Y-26050D02*
X47050Y-26450D01*
X51200Y-08000D02*
X51196Y-08038D01*
X51184Y-08076D01*
X51166Y-08110D01*
X51141Y-08140D01*
X51111Y-08165D01*
X51077Y-08184D01*
X51040Y-08195D01*
X51001Y-08199D01*
X50963Y-08196D01*
X50926Y-08185D01*
X50891Y-08167D01*
X50861Y-08142D01*
X50835Y-08112D01*
X50817Y-08078D01*
X50805Y-08041D01*
X50801Y-08002D01*
X50804Y-07964D01*
X50815Y-07927D01*
X50832Y-07892D01*
X50857Y-07862D01*
X50886Y-07836D01*
X50920Y-07817D01*
X50958Y-07805D01*
X50996Y-07801D01*
X51034Y-07804D01*
X51072Y-07814D01*
X51107Y-07832D01*
X51137Y-07856D01*
X51163Y-07885D01*
X51182Y-07919D01*
X51195Y-07956D01*
X51199Y-07995D01*
X51200Y-08000D01*
X50800Y-07800D02*
X51200Y-08200D01*
X51200Y-07800D02*
X50800Y-08200D01*
X52200Y-08000D02*
X52196Y-08038D01*
X52184Y-08076D01*
X52166Y-08110D01*
X52141Y-08140D01*
X52111Y-08165D01*
X52077Y-08184D01*
X52040Y-08195D01*
X52001Y-08199D01*
X51963Y-08196D01*
X51926Y-08185D01*
X51891Y-08167D01*
X51861Y-08142D01*
X51835Y-08112D01*
X51817Y-08078D01*
X51805Y-08041D01*
X51801Y-08002D01*
X51804Y-07964D01*
X51815Y-07927D01*
X51832Y-07892D01*
X51857Y-07862D01*
X51886Y-07836D01*
X51920Y-07817D01*
X51958Y-07805D01*
X51996Y-07801D01*
X52034Y-07804D01*
X52072Y-07814D01*
X52107Y-07832D01*
X52137Y-07856D01*
X52163Y-07885D01*
X52182Y-07919D01*
X52195Y-07956D01*
X52199Y-07995D01*
X52200Y-08000D01*
X51800Y-07800D02*
X52200Y-08200D01*
X52200Y-07800D02*
X51800Y-08200D01*
X53200Y-08000D02*
X53196Y-08038D01*
X53184Y-08076D01*
X53166Y-08110D01*
X53141Y-08140D01*
X53111Y-08165D01*
X53077Y-08184D01*
X53040Y-08195D01*
X53001Y-08199D01*
X52963Y-08196D01*
X52926Y-08185D01*
X52891Y-08167D01*
X52861Y-08142D01*
X52835Y-08112D01*
X52817Y-08078D01*
X52805Y-08041D01*
X52801Y-08002D01*
X52804Y-07964D01*
X52815Y-07927D01*
X52832Y-07892D01*
X52857Y-07862D01*
X52886Y-07836D01*
X52920Y-07817D01*
X52958Y-07805D01*
X52996Y-07801D01*
X53034Y-07804D01*
X53072Y-07814D01*
X53107Y-07832D01*
X53137Y-07856D01*
X53163Y-07885D01*
X53182Y-07919D01*
X53195Y-07956D01*
X53199Y-07995D01*
X53200Y-08000D01*
X52800Y-07800D02*
X53200Y-08200D01*
X53200Y-07800D02*
X52800Y-08200D01*
X53200Y-26000D02*
X53196Y-26038D01*
X53184Y-26076D01*
X53166Y-26110D01*
X53141Y-26140D01*
X53111Y-26165D01*
X53077Y-26184D01*
X53040Y-26195D01*
X53001Y-26199D01*
X52963Y-26196D01*
X52926Y-26185D01*
X52891Y-26167D01*
X52861Y-26142D01*
X52835Y-26112D01*
X52817Y-26078D01*
X52805Y-26041D01*
X52801Y-26002D01*
X52804Y-25964D01*
X52815Y-25927D01*
X52832Y-25892D01*
X52857Y-25862D01*
X52886Y-25836D01*
X52920Y-25817D01*
X52958Y-25805D01*
X52996Y-25801D01*
X53034Y-25804D01*
X53072Y-25814D01*
X53107Y-25832D01*
X53137Y-25856D01*
X53163Y-25885D01*
X53182Y-25919D01*
X53195Y-25956D01*
X53199Y-25995D01*
X53200Y-26000D01*
X52800Y-25800D02*
X53200Y-26200D01*
X53200Y-25800D02*
X52800Y-26200D01*
X53200Y-30000D02*
X53196Y-30038D01*
X53184Y-30076D01*
X53166Y-30110D01*
X53141Y-30140D01*
X53111Y-30165D01*
X53077Y-30184D01*
X53040Y-30195D01*
X53001Y-30199D01*
X52963Y-30196D01*
X52926Y-30185D01*
X52891Y-30167D01*
X52861Y-30142D01*
X52835Y-30112D01*
X52817Y-30078D01*
X52805Y-30041D01*
X52801Y-30002D01*
X52804Y-29964D01*
X52815Y-29927D01*
X52832Y-29892D01*
X52857Y-29862D01*
X52886Y-29836D01*
X52920Y-29817D01*
X52958Y-29805D01*
X52996Y-29801D01*
X53034Y-29804D01*
X53072Y-29814D01*
X53107Y-29832D01*
X53137Y-29856D01*
X53163Y-29885D01*
X53182Y-29919D01*
X53195Y-29956D01*
X53199Y-29995D01*
X53200Y-30000D01*
X52800Y-29800D02*
X53200Y-30200D01*
X53200Y-29800D02*
X52800Y-30200D01*
X54200Y-08000D02*
X54196Y-08038D01*
X54184Y-08076D01*
X54166Y-08110D01*
X54141Y-08140D01*
X54111Y-08165D01*
X54077Y-08184D01*
X54040Y-08195D01*
X54001Y-08199D01*
X53963Y-08196D01*
X53926Y-08185D01*
X53891Y-08167D01*
X53861Y-08142D01*
X53835Y-08112D01*
X53817Y-08078D01*
X53805Y-08041D01*
X53801Y-08002D01*
X53804Y-07964D01*
X53815Y-07927D01*
X53832Y-07892D01*
X53857Y-07862D01*
X53886Y-07836D01*
X53920Y-07817D01*
X53958Y-07805D01*
X53996Y-07801D01*
X54034Y-07804D01*
X54072Y-07814D01*
X54107Y-07832D01*
X54137Y-07856D01*
X54163Y-07885D01*
X54182Y-07919D01*
X54195Y-07956D01*
X54199Y-07995D01*
X54200Y-08000D01*
X53800Y-07800D02*
X54200Y-08200D01*
X54200Y-07800D02*
X53800Y-08200D01*
X54700Y-32250D02*
X54696Y-32288D01*
X54684Y-32326D01*
X54666Y-32360D01*
X54641Y-32390D01*
X54611Y-32415D01*
X54577Y-32434D01*
X54540Y-32445D01*
X54501Y-32449D01*
X54463Y-32446D01*
X54426Y-32435D01*
X54391Y-32417D01*
X54361Y-32392D01*
X54335Y-32362D01*
X54317Y-32328D01*
X54305Y-32291D01*
X54301Y-32252D01*
X54304Y-32214D01*
X54315Y-32177D01*
X54332Y-32142D01*
X54357Y-32112D01*
X54386Y-32086D01*
X54420Y-32067D01*
X54458Y-32055D01*
X54496Y-32051D01*
X54534Y-32054D01*
X54572Y-32064D01*
X54607Y-32082D01*
X54637Y-32106D01*
X54663Y-32135D01*
X54682Y-32169D01*
X54695Y-32206D01*
X54699Y-32245D01*
X54700Y-32250D01*
X54300Y-32050D02*
X54700Y-32450D01*
X54700Y-32050D02*
X54300Y-32450D01*
X54700Y-33250D02*
X54696Y-33288D01*
X54684Y-33326D01*
X54666Y-33360D01*
X54641Y-33390D01*
X54611Y-33415D01*
X54577Y-33434D01*
X54540Y-33445D01*
X54501Y-33449D01*
X54463Y-33446D01*
X54426Y-33435D01*
X54391Y-33417D01*
X54361Y-33392D01*
X54335Y-33362D01*
X54317Y-33328D01*
X54305Y-33291D01*
X54301Y-33252D01*
X54304Y-33214D01*
X54315Y-33177D01*
X54332Y-33142D01*
X54357Y-33112D01*
X54386Y-33086D01*
X54420Y-33067D01*
X54458Y-33055D01*
X54496Y-33051D01*
X54534Y-33054D01*
X54572Y-33064D01*
X54607Y-33082D01*
X54637Y-33106D01*
X54663Y-33135D01*
X54682Y-33169D01*
X54695Y-33206D01*
X54699Y-33245D01*
X54700Y-33250D01*
X54300Y-33050D02*
X54700Y-33450D01*
X54700Y-33050D02*
X54300Y-33450D01*
X55200Y-26250D02*
X55196Y-26288D01*
X55184Y-26326D01*
X55166Y-26360D01*
X55141Y-26390D01*
X55111Y-26415D01*
X55077Y-26434D01*
X55040Y-26445D01*
X55001Y-26449D01*
X54963Y-26446D01*
X54926Y-26435D01*
X54891Y-26417D01*
X54861Y-26392D01*
X54835Y-26362D01*
X54817Y-26328D01*
X54805Y-26291D01*
X54801Y-26252D01*
X54804Y-26214D01*
X54815Y-26177D01*
X54832Y-26142D01*
X54857Y-26112D01*
X54886Y-26086D01*
X54920Y-26067D01*
X54958Y-26055D01*
X54996Y-26051D01*
X55034Y-26054D01*
X55072Y-26064D01*
X55107Y-26082D01*
X55137Y-26106D01*
X55163Y-26135D01*
X55182Y-26169D01*
X55195Y-26206D01*
X55199Y-26245D01*
X55200Y-26250D01*
X54800Y-26050D02*
X55200Y-26450D01*
X55200Y-26050D02*
X54800Y-26450D01*
X55200Y-27250D02*
X55196Y-27288D01*
X55184Y-27326D01*
X55166Y-27360D01*
X55141Y-27390D01*
X55111Y-27415D01*
X55077Y-27434D01*
X55040Y-27445D01*
X55001Y-27449D01*
X54963Y-27446D01*
X54926Y-27435D01*
X54891Y-27417D01*
X54861Y-27392D01*
X54835Y-27362D01*
X54817Y-27328D01*
X54805Y-27291D01*
X54801Y-27252D01*
X54804Y-27214D01*
X54815Y-27177D01*
X54832Y-27142D01*
X54857Y-27112D01*
X54886Y-27086D01*
X54920Y-27067D01*
X54958Y-27055D01*
X54996Y-27051D01*
X55034Y-27054D01*
X55072Y-27064D01*
X55107Y-27082D01*
X55137Y-27106D01*
X55163Y-27135D01*
X55182Y-27169D01*
X55195Y-27206D01*
X55199Y-27245D01*
X55200Y-27250D01*
X54800Y-27050D02*
X55200Y-27450D01*
X55200Y-27050D02*
X54800Y-27450D01*
X55200Y-28500D02*
X55196Y-28538D01*
X55184Y-28576D01*
X55166Y-28610D01*
X55141Y-28640D01*
X55111Y-28665D01*
X55077Y-28684D01*
X55040Y-28695D01*
X55001Y-28699D01*
X54963Y-28696D01*
X54926Y-28685D01*
X54891Y-28667D01*
X54861Y-28642D01*
X54835Y-28612D01*
X54817Y-28578D01*
X54805Y-28541D01*
X54801Y-28502D01*
X54804Y-28464D01*
X54815Y-28427D01*
X54832Y-28392D01*
X54857Y-28362D01*
X54886Y-28336D01*
X54920Y-28317D01*
X54958Y-28305D01*
X54996Y-28301D01*
X55034Y-28304D01*
X55072Y-28314D01*
X55107Y-28332D01*
X55137Y-28356D01*
X55163Y-28385D01*
X55182Y-28419D01*
X55195Y-28456D01*
X55199Y-28495D01*
X55200Y-28500D01*
X54800Y-28300D02*
X55200Y-28700D01*
X55200Y-28300D02*
X54800Y-28700D01*
X55200Y-29500D02*
X55196Y-29538D01*
X55184Y-29576D01*
X55166Y-29610D01*
X55141Y-29640D01*
X55111Y-29665D01*
X55077Y-29684D01*
X55040Y-29695D01*
X55001Y-29699D01*
X54963Y-29696D01*
X54926Y-29685D01*
X54891Y-29667D01*
X54861Y-29642D01*
X54835Y-29612D01*
X54817Y-29578D01*
X54805Y-29541D01*
X54801Y-29502D01*
X54804Y-29464D01*
X54815Y-29427D01*
X54832Y-29392D01*
X54857Y-29362D01*
X54886Y-29336D01*
X54920Y-29317D01*
X54958Y-29305D01*
X54996Y-29301D01*
X55034Y-29304D01*
X55072Y-29314D01*
X55107Y-29332D01*
X55137Y-29356D01*
X55163Y-29385D01*
X55182Y-29419D01*
X55195Y-29456D01*
X55199Y-29495D01*
X55200Y-29500D01*
X54800Y-29300D02*
X55200Y-29700D01*
X55200Y-29300D02*
X54800Y-29700D01*
X60450Y-26000D02*
X60446Y-26038D01*
X60434Y-26076D01*
X60416Y-26110D01*
X60391Y-26140D01*
X60361Y-26165D01*
X60327Y-26184D01*
X60290Y-26195D01*
X60251Y-26199D01*
X60213Y-26196D01*
X60176Y-26185D01*
X60141Y-26167D01*
X60111Y-26142D01*
X60085Y-26112D01*
X60067Y-26078D01*
X60055Y-26041D01*
X60051Y-26002D01*
X60054Y-25964D01*
X60065Y-25927D01*
X60082Y-25892D01*
X60107Y-25862D01*
X60136Y-25836D01*
X60170Y-25817D01*
X60208Y-25805D01*
X60246Y-25801D01*
X60284Y-25804D01*
X60322Y-25814D01*
X60357Y-25832D01*
X60387Y-25856D01*
X60413Y-25885D01*
X60432Y-25919D01*
X60445Y-25956D01*
X60449Y-25995D01*
X60450Y-26000D01*
X60050Y-25800D02*
X60450Y-26200D01*
X60450Y-25800D02*
X60050Y-26200D01*
X60450Y-27250D02*
X60446Y-27288D01*
X60434Y-27326D01*
X60416Y-27360D01*
X60391Y-27390D01*
X60361Y-27415D01*
X60327Y-27434D01*
X60290Y-27445D01*
X60251Y-27449D01*
X60213Y-27446D01*
X60176Y-27435D01*
X60141Y-27417D01*
X60111Y-27392D01*
X60085Y-27362D01*
X60067Y-27328D01*
X60055Y-27291D01*
X60051Y-27252D01*
X60054Y-27214D01*
X60065Y-27177D01*
X60082Y-27142D01*
X60107Y-27112D01*
X60136Y-27086D01*
X60170Y-27067D01*
X60208Y-27055D01*
X60246Y-27051D01*
X60284Y-27054D01*
X60322Y-27064D01*
X60357Y-27082D01*
X60387Y-27106D01*
X60413Y-27135D01*
X60432Y-27169D01*
X60445Y-27206D01*
X60449Y-27245D01*
X60450Y-27250D01*
X60050Y-27050D02*
X60450Y-27450D01*
X60450Y-27050D02*
X60050Y-27450D01*
X61200Y-11750D02*
X61196Y-11788D01*
X61184Y-11826D01*
X61166Y-11860D01*
X61141Y-11890D01*
X61111Y-11915D01*
X61077Y-11934D01*
X61040Y-11945D01*
X61001Y-11949D01*
X60963Y-11946D01*
X60926Y-11935D01*
X60891Y-11917D01*
X60861Y-11892D01*
X60835Y-11862D01*
X60817Y-11828D01*
X60805Y-11791D01*
X60801Y-11752D01*
X60804Y-11714D01*
X60815Y-11677D01*
X60832Y-11642D01*
X60857Y-11612D01*
X60886Y-11586D01*
X60920Y-11567D01*
X60958Y-11555D01*
X60996Y-11551D01*
X61034Y-11554D01*
X61072Y-11564D01*
X61107Y-11582D01*
X61137Y-11606D01*
X61163Y-11635D01*
X61182Y-11669D01*
X61195Y-11706D01*
X61199Y-11745D01*
X61200Y-11750D01*
X60800Y-11550D02*
X61200Y-11950D01*
X61200Y-11550D02*
X60800Y-11950D01*
X61200Y-12750D02*
X61196Y-12788D01*
X61184Y-12826D01*
X61166Y-12860D01*
X61141Y-12890D01*
X61111Y-12915D01*
X61077Y-12934D01*
X61040Y-12945D01*
X61001Y-12949D01*
X60963Y-12946D01*
X60926Y-12935D01*
X60891Y-12917D01*
X60861Y-12892D01*
X60835Y-12862D01*
X60817Y-12828D01*
X60805Y-12791D01*
X60801Y-12752D01*
X60804Y-12714D01*
X60815Y-12677D01*
X60832Y-12642D01*
X60857Y-12612D01*
X60886Y-12586D01*
X60920Y-12567D01*
X60958Y-12555D01*
X60996Y-12551D01*
X61034Y-12554D01*
X61072Y-12564D01*
X61107Y-12582D01*
X61137Y-12606D01*
X61163Y-12635D01*
X61182Y-12669D01*
X61195Y-12706D01*
X61199Y-12745D01*
X61200Y-12750D01*
X60800Y-12550D02*
X61200Y-12950D01*
X61200Y-12550D02*
X60800Y-12950D01*
X61200Y-13750D02*
X61196Y-13788D01*
X61184Y-13826D01*
X61166Y-13860D01*
X61141Y-13890D01*
X61111Y-13915D01*
X61077Y-13934D01*
X61040Y-13945D01*
X61001Y-13949D01*
X60963Y-13946D01*
X60926Y-13935D01*
X60891Y-13917D01*
X60861Y-13892D01*
X60835Y-13862D01*
X60817Y-13828D01*
X60805Y-13791D01*
X60801Y-13752D01*
X60804Y-13714D01*
X60815Y-13677D01*
X60832Y-13642D01*
X60857Y-13612D01*
X60886Y-13586D01*
X60920Y-13567D01*
X60958Y-13555D01*
X60996Y-13551D01*
X61034Y-13554D01*
X61072Y-13564D01*
X61107Y-13582D01*
X61137Y-13606D01*
X61163Y-13635D01*
X61182Y-13669D01*
X61195Y-13706D01*
X61199Y-13745D01*
X61200Y-13750D01*
X60800Y-13550D02*
X61200Y-13950D01*
X61200Y-13550D02*
X60800Y-13950D01*
X61200Y-14750D02*
X61196Y-14788D01*
X61184Y-14826D01*
X61166Y-14860D01*
X61141Y-14890D01*
X61111Y-14915D01*
X61077Y-14934D01*
X61040Y-14945D01*
X61001Y-14949D01*
X60963Y-14946D01*
X60926Y-14935D01*
X60891Y-14917D01*
X60861Y-14892D01*
X60835Y-14862D01*
X60817Y-14828D01*
X60805Y-14791D01*
X60801Y-14752D01*
X60804Y-14714D01*
X60815Y-14677D01*
X60832Y-14642D01*
X60857Y-14612D01*
X60886Y-14586D01*
X60920Y-14567D01*
X60958Y-14555D01*
X60996Y-14551D01*
X61034Y-14554D01*
X61072Y-14564D01*
X61107Y-14582D01*
X61137Y-14606D01*
X61163Y-14635D01*
X61182Y-14669D01*
X61195Y-14706D01*
X61199Y-14745D01*
X61200Y-14750D01*
X60800Y-14550D02*
X61200Y-14950D01*
X61200Y-14550D02*
X60800Y-14950D01*
X61200Y-19000D02*
X61196Y-19038D01*
X61184Y-19076D01*
X61166Y-19110D01*
X61141Y-19140D01*
X61111Y-19165D01*
X61077Y-19184D01*
X61040Y-19195D01*
X61001Y-19199D01*
X60963Y-19196D01*
X60926Y-19185D01*
X60891Y-19167D01*
X60861Y-19142D01*
X60835Y-19112D01*
X60817Y-19078D01*
X60805Y-19041D01*
X60801Y-19002D01*
X60804Y-18964D01*
X60815Y-18927D01*
X60832Y-18892D01*
X60857Y-18862D01*
X60886Y-18836D01*
X60920Y-18817D01*
X60958Y-18805D01*
X60996Y-18801D01*
X61034Y-18804D01*
X61072Y-18814D01*
X61107Y-18832D01*
X61137Y-18856D01*
X61163Y-18885D01*
X61182Y-18919D01*
X61195Y-18956D01*
X61199Y-18995D01*
X61200Y-19000D01*
X60800Y-18800D02*
X61200Y-19200D01*
X61200Y-18800D02*
X60800Y-19200D01*
X61200Y-20250D02*
X61196Y-20288D01*
X61184Y-20326D01*
X61166Y-20360D01*
X61141Y-20390D01*
X61111Y-20415D01*
X61077Y-20434D01*
X61040Y-20445D01*
X61001Y-20449D01*
X60963Y-20446D01*
X60926Y-20435D01*
X60891Y-20417D01*
X60861Y-20392D01*
X60835Y-20362D01*
X60817Y-20328D01*
X60805Y-20291D01*
X60801Y-20252D01*
X60804Y-20214D01*
X60815Y-20177D01*
X60832Y-20142D01*
X60857Y-20112D01*
X60886Y-20086D01*
X60920Y-20067D01*
X60958Y-20055D01*
X60996Y-20051D01*
X61034Y-20054D01*
X61072Y-20064D01*
X61107Y-20082D01*
X61137Y-20106D01*
X61163Y-20135D01*
X61182Y-20169D01*
X61195Y-20206D01*
X61199Y-20245D01*
X61200Y-20250D01*
X60800Y-20050D02*
X61200Y-20450D01*
X61200Y-20050D02*
X60800Y-20450D01*
X61200Y-21750D02*
X61196Y-21788D01*
X61184Y-21826D01*
X61166Y-21860D01*
X61141Y-21890D01*
X61111Y-21915D01*
X61077Y-21934D01*
X61040Y-21945D01*
X61001Y-21949D01*
X60963Y-21946D01*
X60926Y-21935D01*
X60891Y-21917D01*
X60861Y-21892D01*
X60835Y-21862D01*
X60817Y-21828D01*
X60805Y-21791D01*
X60801Y-21752D01*
X60804Y-21714D01*
X60815Y-21677D01*
X60832Y-21642D01*
X60857Y-21612D01*
X60886Y-21586D01*
X60920Y-21567D01*
X60958Y-21555D01*
X60996Y-21551D01*
X61034Y-21554D01*
X61072Y-21564D01*
X61107Y-21582D01*
X61137Y-21606D01*
X61163Y-21635D01*
X61182Y-21669D01*
X61195Y-21706D01*
X61199Y-21745D01*
X61200Y-21750D01*
X60800Y-21550D02*
X61200Y-21950D01*
X61200Y-21550D02*
X60800Y-21950D01*
X61200Y-22750D02*
X61196Y-22788D01*
X61184Y-22826D01*
X61166Y-22860D01*
X61141Y-22890D01*
X61111Y-22915D01*
X61077Y-22934D01*
X61040Y-22945D01*
X61001Y-22949D01*
X60963Y-22946D01*
X60926Y-22935D01*
X60891Y-22917D01*
X60861Y-22892D01*
X60835Y-22862D01*
X60817Y-22828D01*
X60805Y-22791D01*
X60801Y-22752D01*
X60804Y-22714D01*
X60815Y-22677D01*
X60832Y-22642D01*
X60857Y-22612D01*
X60886Y-22586D01*
X60920Y-22567D01*
X60958Y-22555D01*
X60996Y-22551D01*
X61034Y-22554D01*
X61072Y-22564D01*
X61107Y-22582D01*
X61137Y-22606D01*
X61163Y-22635D01*
X61182Y-22669D01*
X61195Y-22706D01*
X61199Y-22745D01*
X61200Y-22750D01*
X60800Y-22550D02*
X61200Y-22950D01*
X61200Y-22550D02*
X60800Y-22950D01*
X61200Y-23750D02*
X61196Y-23788D01*
X61184Y-23826D01*
X61166Y-23860D01*
X61141Y-23890D01*
X61111Y-23915D01*
X61077Y-23934D01*
X61040Y-23945D01*
X61001Y-23949D01*
X60963Y-23946D01*
X60926Y-23935D01*
X60891Y-23917D01*
X60861Y-23892D01*
X60835Y-23862D01*
X60817Y-23828D01*
X60805Y-23791D01*
X60801Y-23752D01*
X60804Y-23714D01*
X60815Y-23677D01*
X60832Y-23642D01*
X60857Y-23612D01*
X60886Y-23586D01*
X60920Y-23567D01*
X60958Y-23555D01*
X60996Y-23551D01*
X61034Y-23554D01*
X61072Y-23564D01*
X61107Y-23582D01*
X61137Y-23606D01*
X61163Y-23635D01*
X61182Y-23669D01*
X61195Y-23706D01*
X61199Y-23745D01*
X61200Y-23750D01*
X60800Y-23550D02*
X61200Y-23950D01*
X61200Y-23550D02*
X60800Y-23950D01*
X61200Y-24750D02*
X61196Y-24788D01*
X61184Y-24826D01*
X61166Y-24860D01*
X61141Y-24890D01*
X61111Y-24915D01*
X61077Y-24934D01*
X61040Y-24945D01*
X61001Y-24949D01*
X60963Y-24946D01*
X60926Y-24935D01*
X60891Y-24917D01*
X60861Y-24892D01*
X60835Y-24862D01*
X60817Y-24828D01*
X60805Y-24791D01*
X60801Y-24752D01*
X60804Y-24714D01*
X60815Y-24677D01*
X60832Y-24642D01*
X60857Y-24612D01*
X60886Y-24586D01*
X60920Y-24567D01*
X60958Y-24555D01*
X60996Y-24551D01*
X61034Y-24554D01*
X61072Y-24564D01*
X61107Y-24582D01*
X61137Y-24606D01*
X61163Y-24635D01*
X61182Y-24669D01*
X61195Y-24706D01*
X61199Y-24745D01*
X61200Y-24750D01*
X60800Y-24550D02*
X61200Y-24950D01*
X61200Y-24550D02*
X60800Y-24950D01*
X62200Y-33000D02*
X62196Y-33038D01*
X62184Y-33076D01*
X62166Y-33110D01*
X62141Y-33140D01*
X62111Y-33165D01*
X62077Y-33184D01*
X62040Y-33195D01*
X62001Y-33199D01*
X61963Y-33196D01*
X61926Y-33185D01*
X61891Y-33167D01*
X61861Y-33142D01*
X61835Y-33112D01*
X61817Y-33078D01*
X61805Y-33041D01*
X61801Y-33002D01*
X61804Y-32964D01*
X61815Y-32927D01*
X61832Y-32892D01*
X61857Y-32862D01*
X61886Y-32836D01*
X61920Y-32817D01*
X61958Y-32805D01*
X61996Y-32801D01*
X62034Y-32804D01*
X62072Y-32814D01*
X62107Y-32832D01*
X62137Y-32856D01*
X62163Y-32885D01*
X62182Y-32919D01*
X62195Y-32956D01*
X62199Y-32995D01*
X62200Y-33000D01*
X61800Y-32800D02*
X62200Y-33200D01*
X62200Y-32800D02*
X61800Y-33200D01*
X62200Y-34000D02*
X62196Y-34038D01*
X62184Y-34076D01*
X62166Y-34110D01*
X62141Y-34140D01*
X62111Y-34165D01*
X62077Y-34184D01*
X62040Y-34195D01*
X62001Y-34199D01*
X61963Y-34196D01*
X61926Y-34185D01*
X61891Y-34167D01*
X61861Y-34142D01*
X61835Y-34112D01*
X61817Y-34078D01*
X61805Y-34041D01*
X61801Y-34002D01*
X61804Y-33964D01*
X61815Y-33927D01*
X61832Y-33892D01*
X61857Y-33862D01*
X61886Y-33836D01*
X61920Y-33817D01*
X61958Y-33805D01*
X61996Y-33801D01*
X62034Y-33804D01*
X62072Y-33814D01*
X62107Y-33832D01*
X62137Y-33856D01*
X62163Y-33885D01*
X62182Y-33919D01*
X62195Y-33956D01*
X62199Y-33995D01*
X62200Y-34000D01*
X61800Y-33800D02*
X62200Y-34200D01*
X62200Y-33800D02*
X61800Y-34200D01*
X62200Y-35000D02*
X62196Y-35038D01*
X62184Y-35076D01*
X62166Y-35110D01*
X62141Y-35140D01*
X62111Y-35165D01*
X62077Y-35184D01*
X62040Y-35195D01*
X62001Y-35199D01*
X61963Y-35196D01*
X61926Y-35185D01*
X61891Y-35167D01*
X61861Y-35142D01*
X61835Y-35112D01*
X61817Y-35078D01*
X61805Y-35041D01*
X61801Y-35002D01*
X61804Y-34964D01*
X61815Y-34927D01*
X61832Y-34892D01*
X61857Y-34862D01*
X61886Y-34836D01*
X61920Y-34817D01*
X61958Y-34805D01*
X61996Y-34801D01*
X62034Y-34804D01*
X62072Y-34814D01*
X62107Y-34832D01*
X62137Y-34856D01*
X62163Y-34885D01*
X62182Y-34919D01*
X62195Y-34956D01*
X62199Y-34995D01*
X62200Y-35000D01*
X61800Y-34800D02*
X62200Y-35200D01*
X62200Y-34800D02*
X61800Y-35200D01*
X62200Y-36000D02*
X62196Y-36038D01*
X62184Y-36076D01*
X62166Y-36110D01*
X62141Y-36140D01*
X62111Y-36165D01*
X62077Y-36184D01*
X62040Y-36195D01*
X62001Y-36199D01*
X61963Y-36196D01*
X61926Y-36185D01*
X61891Y-36167D01*
X61861Y-36142D01*
X61835Y-36112D01*
X61817Y-36078D01*
X61805Y-36041D01*
X61801Y-36002D01*
X61804Y-35964D01*
X61815Y-35927D01*
X61832Y-35892D01*
X61857Y-35862D01*
X61886Y-35836D01*
X61920Y-35817D01*
X61958Y-35805D01*
X61996Y-35801D01*
X62034Y-35804D01*
X62072Y-35814D01*
X62107Y-35832D01*
X62137Y-35856D01*
X62163Y-35885D01*
X62182Y-35919D01*
X62195Y-35956D01*
X62199Y-35995D01*
X62200Y-36000D01*
X61800Y-35800D02*
X62200Y-36200D01*
X62200Y-35800D02*
X61800Y-36200D01*
X62200Y-37000D02*
X62196Y-37038D01*
X62184Y-37076D01*
X62166Y-37110D01*
X62141Y-37140D01*
X62111Y-37165D01*
X62077Y-37184D01*
X62040Y-37195D01*
X62001Y-37199D01*
X61963Y-37196D01*
X61926Y-37185D01*
X61891Y-37167D01*
X61861Y-37142D01*
X61835Y-37112D01*
X61817Y-37078D01*
X61805Y-37041D01*
X61801Y-37002D01*
X61804Y-36964D01*
X61815Y-36927D01*
X61832Y-36892D01*
X61857Y-36862D01*
X61886Y-36836D01*
X61920Y-36817D01*
X61958Y-36805D01*
X61996Y-36801D01*
X62034Y-36804D01*
X62072Y-36814D01*
X62107Y-36832D01*
X62137Y-36856D01*
X62163Y-36885D01*
X62182Y-36919D01*
X62195Y-36956D01*
X62199Y-36995D01*
X62200Y-37000D01*
X61800Y-36800D02*
X62200Y-37200D01*
X62200Y-36800D02*
X61800Y-37200D01*
X62200Y-38000D02*
X62196Y-38038D01*
X62184Y-38076D01*
X62166Y-38110D01*
X62141Y-38140D01*
X62111Y-38165D01*
X62077Y-38184D01*
X62040Y-38195D01*
X62001Y-38199D01*
X61963Y-38196D01*
X61926Y-38185D01*
X61891Y-38167D01*
X61861Y-38142D01*
X61835Y-38112D01*
X61817Y-38078D01*
X61805Y-38041D01*
X61801Y-38002D01*
X61804Y-37964D01*
X61815Y-37927D01*
X61832Y-37892D01*
X61857Y-37862D01*
X61886Y-37836D01*
X61920Y-37817D01*
X61958Y-37805D01*
X61996Y-37801D01*
X62034Y-37804D01*
X62072Y-37814D01*
X62107Y-37832D01*
X62137Y-37856D01*
X62163Y-37885D01*
X62182Y-37919D01*
X62195Y-37956D01*
X62199Y-37995D01*
X62200Y-38000D01*
X61800Y-37800D02*
X62200Y-38200D01*
X62200Y-37800D02*
X61800Y-38200D01*
X62200Y-39000D02*
X62196Y-39038D01*
X62184Y-39076D01*
X62166Y-39110D01*
X62141Y-39140D01*
X62111Y-39165D01*
X62077Y-39184D01*
X62040Y-39195D01*
X62001Y-39199D01*
X61963Y-39196D01*
X61926Y-39185D01*
X61891Y-39167D01*
X61861Y-39142D01*
X61835Y-39112D01*
X61817Y-39078D01*
X61805Y-39041D01*
X61801Y-39002D01*
X61804Y-38964D01*
X61815Y-38927D01*
X61832Y-38892D01*
X61857Y-38862D01*
X61886Y-38836D01*
X61920Y-38817D01*
X61958Y-38805D01*
X61996Y-38801D01*
X62034Y-38804D01*
X62072Y-38814D01*
X62107Y-38832D01*
X62137Y-38856D01*
X62163Y-38885D01*
X62182Y-38919D01*
X62195Y-38956D01*
X62199Y-38995D01*
X62200Y-39000D01*
X61800Y-38800D02*
X62200Y-39200D01*
X62200Y-38800D02*
X61800Y-39200D01*
X62200Y-40000D02*
X62196Y-40038D01*
X62184Y-40076D01*
X62166Y-40110D01*
X62141Y-40140D01*
X62111Y-40165D01*
X62077Y-40184D01*
X62040Y-40195D01*
X62001Y-40199D01*
X61963Y-40196D01*
X61926Y-40185D01*
X61891Y-40167D01*
X61861Y-40142D01*
X61835Y-40112D01*
X61817Y-40078D01*
X61805Y-40041D01*
X61801Y-40002D01*
X61804Y-39964D01*
X61815Y-39927D01*
X61832Y-39892D01*
X61857Y-39862D01*
X61886Y-39836D01*
X61920Y-39817D01*
X61958Y-39805D01*
X61996Y-39801D01*
X62034Y-39804D01*
X62072Y-39814D01*
X62107Y-39832D01*
X62137Y-39856D01*
X62163Y-39885D01*
X62182Y-39919D01*
X62195Y-39956D01*
X62199Y-39995D01*
X62200Y-40000D01*
X61800Y-39800D02*
X62200Y-40200D01*
X62200Y-39800D02*
X61800Y-40200D01*
X63200Y-08750D02*
X63196Y-08788D01*
X63184Y-08826D01*
X63166Y-08860D01*
X63141Y-08890D01*
X63111Y-08915D01*
X63077Y-08934D01*
X63040Y-08945D01*
X63001Y-08949D01*
X62963Y-08946D01*
X62926Y-08935D01*
X62891Y-08917D01*
X62861Y-08892D01*
X62835Y-08862D01*
X62817Y-08828D01*
X62805Y-08791D01*
X62801Y-08752D01*
X62804Y-08714D01*
X62815Y-08677D01*
X62832Y-08642D01*
X62857Y-08612D01*
X62886Y-08586D01*
X62920Y-08567D01*
X62958Y-08555D01*
X62996Y-08551D01*
X63034Y-08554D01*
X63072Y-08564D01*
X63107Y-08582D01*
X63137Y-08606D01*
X63163Y-08635D01*
X63182Y-08669D01*
X63195Y-08706D01*
X63199Y-08745D01*
X63200Y-08750D01*
X62800Y-08550D02*
X63200Y-08950D01*
X63200Y-08550D02*
X62800Y-08950D01*
X63200Y-12750D02*
X63196Y-12788D01*
X63184Y-12826D01*
X63166Y-12860D01*
X63141Y-12890D01*
X63111Y-12915D01*
X63077Y-12934D01*
X63040Y-12945D01*
X63001Y-12949D01*
X62963Y-12946D01*
X62926Y-12935D01*
X62891Y-12917D01*
X62861Y-12892D01*
X62835Y-12862D01*
X62817Y-12828D01*
X62805Y-12791D01*
X62801Y-12752D01*
X62804Y-12714D01*
X62815Y-12677D01*
X62832Y-12642D01*
X62857Y-12612D01*
X62886Y-12586D01*
X62920Y-12567D01*
X62958Y-12555D01*
X62996Y-12551D01*
X63034Y-12554D01*
X63072Y-12564D01*
X63107Y-12582D01*
X63137Y-12606D01*
X63163Y-12635D01*
X63182Y-12669D01*
X63195Y-12706D01*
X63199Y-12745D01*
X63200Y-12750D01*
X62800Y-12550D02*
X63200Y-12950D01*
X63200Y-12550D02*
X62800Y-12950D01*
X63200Y-13750D02*
X63196Y-13788D01*
X63184Y-13826D01*
X63166Y-13860D01*
X63141Y-13890D01*
X63111Y-13915D01*
X63077Y-13934D01*
X63040Y-13945D01*
X63001Y-13949D01*
X62963Y-13946D01*
X62926Y-13935D01*
X62891Y-13917D01*
X62861Y-13892D01*
X62835Y-13862D01*
X62817Y-13828D01*
X62805Y-13791D01*
X62801Y-13752D01*
X62804Y-13714D01*
X62815Y-13677D01*
X62832Y-13642D01*
X62857Y-13612D01*
X62886Y-13586D01*
X62920Y-13567D01*
X62958Y-13555D01*
X62996Y-13551D01*
X63034Y-13554D01*
X63072Y-13564D01*
X63107Y-13582D01*
X63137Y-13606D01*
X63163Y-13635D01*
X63182Y-13669D01*
X63195Y-13706D01*
X63199Y-13745D01*
X63200Y-13750D01*
X62800Y-13550D02*
X63200Y-13950D01*
X63200Y-13550D02*
X62800Y-13950D01*
X63200Y-17750D02*
X63196Y-17788D01*
X63184Y-17826D01*
X63166Y-17860D01*
X63141Y-17890D01*
X63111Y-17915D01*
X63077Y-17934D01*
X63040Y-17945D01*
X63001Y-17949D01*
X62963Y-17946D01*
X62926Y-17935D01*
X62891Y-17917D01*
X62861Y-17892D01*
X62835Y-17862D01*
X62817Y-17828D01*
X62805Y-17791D01*
X62801Y-17752D01*
X62804Y-17714D01*
X62815Y-17677D01*
X62832Y-17642D01*
X62857Y-17612D01*
X62886Y-17586D01*
X62920Y-17567D01*
X62958Y-17555D01*
X62996Y-17551D01*
X63034Y-17554D01*
X63072Y-17564D01*
X63107Y-17582D01*
X63137Y-17606D01*
X63163Y-17635D01*
X63182Y-17669D01*
X63195Y-17706D01*
X63199Y-17745D01*
X63200Y-17750D01*
X62800Y-17550D02*
X63200Y-17950D01*
X63200Y-17550D02*
X62800Y-17950D01*
X63200Y-33000D02*
X63196Y-33038D01*
X63184Y-33076D01*
X63166Y-33110D01*
X63141Y-33140D01*
X63111Y-33165D01*
X63077Y-33184D01*
X63040Y-33195D01*
X63001Y-33199D01*
X62963Y-33196D01*
X62926Y-33185D01*
X62891Y-33167D01*
X62861Y-33142D01*
X62835Y-33112D01*
X62817Y-33078D01*
X62805Y-33041D01*
X62801Y-33002D01*
X62804Y-32964D01*
X62815Y-32927D01*
X62832Y-32892D01*
X62857Y-32862D01*
X62886Y-32836D01*
X62920Y-32817D01*
X62958Y-32805D01*
X62996Y-32801D01*
X63034Y-32804D01*
X63072Y-32814D01*
X63107Y-32832D01*
X63137Y-32856D01*
X63163Y-32885D01*
X63182Y-32919D01*
X63195Y-32956D01*
X63199Y-32995D01*
X63200Y-33000D01*
X62800Y-32800D02*
X63200Y-33200D01*
X63200Y-32800D02*
X62800Y-33200D01*
X63200Y-34000D02*
X63196Y-34038D01*
X63184Y-34076D01*
X63166Y-34110D01*
X63141Y-34140D01*
X63111Y-34165D01*
X63077Y-34184D01*
X63040Y-34195D01*
X63001Y-34199D01*
X62963Y-34196D01*
X62926Y-34185D01*
X62891Y-34167D01*
X62861Y-34142D01*
X62835Y-34112D01*
X62817Y-34078D01*
X62805Y-34041D01*
X62801Y-34002D01*
X62804Y-33964D01*
X62815Y-33927D01*
X62832Y-33892D01*
X62857Y-33862D01*
X62886Y-33836D01*
X62920Y-33817D01*
X62958Y-33805D01*
X62996Y-33801D01*
X63034Y-33804D01*
X63072Y-33814D01*
X63107Y-33832D01*
X63137Y-33856D01*
X63163Y-33885D01*
X63182Y-33919D01*
X63195Y-33956D01*
X63199Y-33995D01*
X63200Y-34000D01*
X62800Y-33800D02*
X63200Y-34200D01*
X63200Y-33800D02*
X62800Y-34200D01*
X63200Y-35000D02*
X63196Y-35038D01*
X63184Y-35076D01*
X63166Y-35110D01*
X63141Y-35140D01*
X63111Y-35165D01*
X63077Y-35184D01*
X63040Y-35195D01*
X63001Y-35199D01*
X62963Y-35196D01*
X62926Y-35185D01*
X62891Y-35167D01*
X62861Y-35142D01*
X62835Y-35112D01*
X62817Y-35078D01*
X62805Y-35041D01*
X62801Y-35002D01*
X62804Y-34964D01*
X62815Y-34927D01*
X62832Y-34892D01*
X62857Y-34862D01*
X62886Y-34836D01*
X62920Y-34817D01*
X62958Y-34805D01*
X62996Y-34801D01*
X63034Y-34804D01*
X63072Y-34814D01*
X63107Y-34832D01*
X63137Y-34856D01*
X63163Y-34885D01*
X63182Y-34919D01*
X63195Y-34956D01*
X63199Y-34995D01*
X63200Y-35000D01*
X62800Y-34800D02*
X63200Y-35200D01*
X63200Y-34800D02*
X62800Y-35200D01*
X63200Y-36000D02*
X63196Y-36038D01*
X63184Y-36076D01*
X63166Y-36110D01*
X63141Y-36140D01*
X63111Y-36165D01*
X63077Y-36184D01*
X63040Y-36195D01*
X63001Y-36199D01*
X62963Y-36196D01*
X62926Y-36185D01*
X62891Y-36167D01*
X62861Y-36142D01*
X62835Y-36112D01*
X62817Y-36078D01*
X62805Y-36041D01*
X62801Y-36002D01*
X62804Y-35964D01*
X62815Y-35927D01*
X62832Y-35892D01*
X62857Y-35862D01*
X62886Y-35836D01*
X62920Y-35817D01*
X62958Y-35805D01*
X62996Y-35801D01*
X63034Y-35804D01*
X63072Y-35814D01*
X63107Y-35832D01*
X63137Y-35856D01*
X63163Y-35885D01*
X63182Y-35919D01*
X63195Y-35956D01*
X63199Y-35995D01*
X63200Y-36000D01*
X62800Y-35800D02*
X63200Y-36200D01*
X63200Y-35800D02*
X62800Y-36200D01*
X63200Y-37000D02*
X63196Y-37038D01*
X63184Y-37076D01*
X63166Y-37110D01*
X63141Y-37140D01*
X63111Y-37165D01*
X63077Y-37184D01*
X63040Y-37195D01*
X63001Y-37199D01*
X62963Y-37196D01*
X62926Y-37185D01*
X62891Y-37167D01*
X62861Y-37142D01*
X62835Y-37112D01*
X62817Y-37078D01*
X62805Y-37041D01*
X62801Y-37002D01*
X62804Y-36964D01*
X62815Y-36927D01*
X62832Y-36892D01*
X62857Y-36862D01*
X62886Y-36836D01*
X62920Y-36817D01*
X62958Y-36805D01*
X62996Y-36801D01*
X63034Y-36804D01*
X63072Y-36814D01*
X63107Y-36832D01*
X63137Y-36856D01*
X63163Y-36885D01*
X63182Y-36919D01*
X63195Y-36956D01*
X63199Y-36995D01*
X63200Y-37000D01*
X62800Y-36800D02*
X63200Y-37200D01*
X63200Y-36800D02*
X62800Y-37200D01*
X63200Y-38000D02*
X63196Y-38038D01*
X63184Y-38076D01*
X63166Y-38110D01*
X63141Y-38140D01*
X63111Y-38165D01*
X63077Y-38184D01*
X63040Y-38195D01*
X63001Y-38199D01*
X62963Y-38196D01*
X62926Y-38185D01*
X62891Y-38167D01*
X62861Y-38142D01*
X62835Y-38112D01*
X62817Y-38078D01*
X62805Y-38041D01*
X62801Y-38002D01*
X62804Y-37964D01*
X62815Y-37927D01*
X62832Y-37892D01*
X62857Y-37862D01*
X62886Y-37836D01*
X62920Y-37817D01*
X62958Y-37805D01*
X62996Y-37801D01*
X63034Y-37804D01*
X63072Y-37814D01*
X63107Y-37832D01*
X63137Y-37856D01*
X63163Y-37885D01*
X63182Y-37919D01*
X63195Y-37956D01*
X63199Y-37995D01*
X63200Y-38000D01*
X62800Y-37800D02*
X63200Y-38200D01*
X63200Y-37800D02*
X62800Y-38200D01*
X63200Y-39000D02*
X63196Y-39038D01*
X63184Y-39076D01*
X63166Y-39110D01*
X63141Y-39140D01*
X63111Y-39165D01*
X63077Y-39184D01*
X63040Y-39195D01*
X63001Y-39199D01*
X62963Y-39196D01*
X62926Y-39185D01*
X62891Y-39167D01*
X62861Y-39142D01*
X62835Y-39112D01*
X62817Y-39078D01*
X62805Y-39041D01*
X62801Y-39002D01*
X62804Y-38964D01*
X62815Y-38927D01*
X62832Y-38892D01*
X62857Y-38862D01*
X62886Y-38836D01*
X62920Y-38817D01*
X62958Y-38805D01*
X62996Y-38801D01*
X63034Y-38804D01*
X63072Y-38814D01*
X63107Y-38832D01*
X63137Y-38856D01*
X63163Y-38885D01*
X63182Y-38919D01*
X63195Y-38956D01*
X63199Y-38995D01*
X63200Y-39000D01*
X62800Y-38800D02*
X63200Y-39200D01*
X63200Y-38800D02*
X62800Y-39200D01*
X63200Y-40000D02*
X63196Y-40038D01*
X63184Y-40076D01*
X63166Y-40110D01*
X63141Y-40140D01*
X63111Y-40165D01*
X63077Y-40184D01*
X63040Y-40195D01*
X63001Y-40199D01*
X62963Y-40196D01*
X62926Y-40185D01*
X62891Y-40167D01*
X62861Y-40142D01*
X62835Y-40112D01*
X62817Y-40078D01*
X62805Y-40041D01*
X62801Y-40002D01*
X62804Y-39964D01*
X62815Y-39927D01*
X62832Y-39892D01*
X62857Y-39862D01*
X62886Y-39836D01*
X62920Y-39817D01*
X62958Y-39805D01*
X62996Y-39801D01*
X63034Y-39804D01*
X63072Y-39814D01*
X63107Y-39832D01*
X63137Y-39856D01*
X63163Y-39885D01*
X63182Y-39919D01*
X63195Y-39956D01*
X63199Y-39995D01*
X63200Y-40000D01*
X62800Y-39800D02*
X63200Y-40200D01*
X63200Y-39800D02*
X62800Y-40200D01*
X64450Y-08750D02*
X64446Y-08788D01*
X64434Y-08826D01*
X64416Y-08860D01*
X64391Y-08890D01*
X64361Y-08915D01*
X64327Y-08934D01*
X64290Y-08945D01*
X64251Y-08949D01*
X64213Y-08946D01*
X64176Y-08935D01*
X64141Y-08917D01*
X64111Y-08892D01*
X64085Y-08862D01*
X64067Y-08828D01*
X64055Y-08791D01*
X64051Y-08752D01*
X64054Y-08714D01*
X64065Y-08677D01*
X64082Y-08642D01*
X64107Y-08612D01*
X64136Y-08586D01*
X64170Y-08567D01*
X64208Y-08555D01*
X64246Y-08551D01*
X64284Y-08554D01*
X64322Y-08564D01*
X64357Y-08582D01*
X64387Y-08606D01*
X64413Y-08635D01*
X64432Y-08669D01*
X64445Y-08706D01*
X64449Y-08745D01*
X64450Y-08750D01*
X64050Y-08550D02*
X64450Y-08950D01*
X64450Y-08550D02*
X64050Y-08950D01*
X64450Y-12750D02*
X64446Y-12788D01*
X64434Y-12826D01*
X64416Y-12860D01*
X64391Y-12890D01*
X64361Y-12915D01*
X64327Y-12934D01*
X64290Y-12945D01*
X64251Y-12949D01*
X64213Y-12946D01*
X64176Y-12935D01*
X64141Y-12917D01*
X64111Y-12892D01*
X64085Y-12862D01*
X64067Y-12828D01*
X64055Y-12791D01*
X64051Y-12752D01*
X64054Y-12714D01*
X64065Y-12677D01*
X64082Y-12642D01*
X64107Y-12612D01*
X64136Y-12586D01*
X64170Y-12567D01*
X64208Y-12555D01*
X64246Y-12551D01*
X64284Y-12554D01*
X64322Y-12564D01*
X64357Y-12582D01*
X64387Y-12606D01*
X64413Y-12635D01*
X64432Y-12669D01*
X64445Y-12706D01*
X64449Y-12745D01*
X64450Y-12750D01*
X64050Y-12550D02*
X64450Y-12950D01*
X64450Y-12550D02*
X64050Y-12950D01*
X64450Y-13750D02*
X64446Y-13788D01*
X64434Y-13826D01*
X64416Y-13860D01*
X64391Y-13890D01*
X64361Y-13915D01*
X64327Y-13934D01*
X64290Y-13945D01*
X64251Y-13949D01*
X64213Y-13946D01*
X64176Y-13935D01*
X64141Y-13917D01*
X64111Y-13892D01*
X64085Y-13862D01*
X64067Y-13828D01*
X64055Y-13791D01*
X64051Y-13752D01*
X64054Y-13714D01*
X64065Y-13677D01*
X64082Y-13642D01*
X64107Y-13612D01*
X64136Y-13586D01*
X64170Y-13567D01*
X64208Y-13555D01*
X64246Y-13551D01*
X64284Y-13554D01*
X64322Y-13564D01*
X64357Y-13582D01*
X64387Y-13606D01*
X64413Y-13635D01*
X64432Y-13669D01*
X64445Y-13706D01*
X64449Y-13745D01*
X64450Y-13750D01*
X64050Y-13550D02*
X64450Y-13950D01*
X64450Y-13550D02*
X64050Y-13950D01*
X64450Y-17750D02*
X64446Y-17788D01*
X64434Y-17826D01*
X64416Y-17860D01*
X64391Y-17890D01*
X64361Y-17915D01*
X64327Y-17934D01*
X64290Y-17945D01*
X64251Y-17949D01*
X64213Y-17946D01*
X64176Y-17935D01*
X64141Y-17917D01*
X64111Y-17892D01*
X64085Y-17862D01*
X64067Y-17828D01*
X64055Y-17791D01*
X64051Y-17752D01*
X64054Y-17714D01*
X64065Y-17677D01*
X64082Y-17642D01*
X64107Y-17612D01*
X64136Y-17586D01*
X64170Y-17567D01*
X64208Y-17555D01*
X64246Y-17551D01*
X64284Y-17554D01*
X64322Y-17564D01*
X64357Y-17582D01*
X64387Y-17606D01*
X64413Y-17635D01*
X64432Y-17669D01*
X64445Y-17706D01*
X64449Y-17745D01*
X64450Y-17750D01*
X64050Y-17550D02*
X64450Y-17950D01*
X64450Y-17550D02*
X64050Y-17950D01*
X64450Y-26000D02*
X64446Y-26038D01*
X64434Y-26076D01*
X64416Y-26110D01*
X64391Y-26140D01*
X64361Y-26165D01*
X64327Y-26184D01*
X64290Y-26195D01*
X64251Y-26199D01*
X64213Y-26196D01*
X64176Y-26185D01*
X64141Y-26167D01*
X64111Y-26142D01*
X64085Y-26112D01*
X64067Y-26078D01*
X64055Y-26041D01*
X64051Y-26002D01*
X64054Y-25964D01*
X64065Y-25927D01*
X64082Y-25892D01*
X64107Y-25862D01*
X64136Y-25836D01*
X64170Y-25817D01*
X64208Y-25805D01*
X64246Y-25801D01*
X64284Y-25804D01*
X64322Y-25814D01*
X64357Y-25832D01*
X64387Y-25856D01*
X64413Y-25885D01*
X64432Y-25919D01*
X64445Y-25956D01*
X64449Y-25995D01*
X64450Y-26000D01*
X64050Y-25800D02*
X64450Y-26200D01*
X64450Y-25800D02*
X64050Y-26200D01*
X64450Y-27250D02*
X64446Y-27288D01*
X64434Y-27326D01*
X64416Y-27360D01*
X64391Y-27390D01*
X64361Y-27415D01*
X64327Y-27434D01*
X64290Y-27445D01*
X64251Y-27449D01*
X64213Y-27446D01*
X64176Y-27435D01*
X64141Y-27417D01*
X64111Y-27392D01*
X64085Y-27362D01*
X64067Y-27328D01*
X64055Y-27291D01*
X64051Y-27252D01*
X64054Y-27214D01*
X64065Y-27177D01*
X64082Y-27142D01*
X64107Y-27112D01*
X64136Y-27086D01*
X64170Y-27067D01*
X64208Y-27055D01*
X64246Y-27051D01*
X64284Y-27054D01*
X64322Y-27064D01*
X64357Y-27082D01*
X64387Y-27106D01*
X64413Y-27135D01*
X64432Y-27169D01*
X64445Y-27206D01*
X64449Y-27245D01*
X64450Y-27250D01*
X64050Y-27050D02*
X64450Y-27450D01*
X64450Y-27050D02*
X64050Y-27450D01*
X65200Y-19000D02*
X65196Y-19038D01*
X65184Y-19076D01*
X65166Y-19110D01*
X65141Y-19140D01*
X65111Y-19165D01*
X65077Y-19184D01*
X65040Y-19195D01*
X65001Y-19199D01*
X64963Y-19196D01*
X64926Y-19185D01*
X64891Y-19167D01*
X64861Y-19142D01*
X64835Y-19112D01*
X64817Y-19078D01*
X64805Y-19041D01*
X64801Y-19002D01*
X64804Y-18964D01*
X64815Y-18927D01*
X64832Y-18892D01*
X64857Y-18862D01*
X64886Y-18836D01*
X64920Y-18817D01*
X64958Y-18805D01*
X64996Y-18801D01*
X65034Y-18804D01*
X65072Y-18814D01*
X65107Y-18832D01*
X65137Y-18856D01*
X65163Y-18885D01*
X65182Y-18919D01*
X65195Y-18956D01*
X65199Y-18995D01*
X65200Y-19000D01*
X64800Y-18800D02*
X65200Y-19200D01*
X65200Y-18800D02*
X64800Y-19200D01*
X65200Y-20250D02*
X65196Y-20288D01*
X65184Y-20326D01*
X65166Y-20360D01*
X65141Y-20390D01*
X65111Y-20415D01*
X65077Y-20434D01*
X65040Y-20445D01*
X65001Y-20449D01*
X64963Y-20446D01*
X64926Y-20435D01*
X64891Y-20417D01*
X64861Y-20392D01*
X64835Y-20362D01*
X64817Y-20328D01*
X64805Y-20291D01*
X64801Y-20252D01*
X64804Y-20214D01*
X64815Y-20177D01*
X64832Y-20142D01*
X64857Y-20112D01*
X64886Y-20086D01*
X64920Y-20067D01*
X64958Y-20055D01*
X64996Y-20051D01*
X65034Y-20054D01*
X65072Y-20064D01*
X65107Y-20082D01*
X65137Y-20106D01*
X65163Y-20135D01*
X65182Y-20169D01*
X65195Y-20206D01*
X65199Y-20245D01*
X65200Y-20250D01*
X64800Y-20050D02*
X65200Y-20450D01*
X65200Y-20050D02*
X64800Y-20450D01*
X13800Y-22500D02*
X13794Y-22558D01*
X13777Y-22614D01*
X13749Y-22666D01*
X13712Y-22711D01*
X13667Y-22748D01*
X13616Y-22776D01*
X13560Y-22793D01*
X13502Y-22799D01*
X13444Y-22794D01*
X13388Y-22778D01*
X13336Y-22751D01*
X13291Y-22714D01*
X13253Y-22669D01*
X13225Y-22618D01*
X13207Y-22562D01*
X13201Y-22504D01*
X13205Y-22446D01*
X13222Y-22390D01*
X13248Y-22338D01*
X13285Y-22292D01*
X13329Y-22254D01*
X13380Y-22226D01*
X13436Y-22207D01*
X13494Y-22201D01*
X13552Y-22205D01*
X13608Y-22221D01*
X13660Y-22247D01*
X13706Y-22283D01*
X13745Y-22328D01*
X13774Y-22378D01*
X13792Y-22434D01*
X13799Y-22492D01*
X13800Y-22500D01*
X13200Y-22500D02*
X13800Y-22500D01*
X17800Y-21500D02*
X17794Y-21558D01*
X17777Y-21614D01*
X17749Y-21666D01*
X17712Y-21711D01*
X17667Y-21748D01*
X17616Y-21776D01*
X17560Y-21793D01*
X17502Y-21799D01*
X17444Y-21794D01*
X17388Y-21778D01*
X17336Y-21751D01*
X17291Y-21714D01*
X17253Y-21669D01*
X17225Y-21618D01*
X17207Y-21562D01*
X17201Y-21504D01*
X17205Y-21446D01*
X17222Y-21390D01*
X17248Y-21338D01*
X17285Y-21292D01*
X17329Y-21254D01*
X17380Y-21226D01*
X17436Y-21207D01*
X17494Y-21201D01*
X17552Y-21205D01*
X17608Y-21221D01*
X17660Y-21247D01*
X17706Y-21283D01*
X17745Y-21328D01*
X17774Y-21378D01*
X17792Y-21434D01*
X17799Y-21492D01*
X17800Y-21500D01*
X17200Y-21500D02*
X17800Y-21500D01*
X17800Y-23500D02*
X17794Y-23558D01*
X17777Y-23614D01*
X17749Y-23666D01*
X17712Y-23711D01*
X17667Y-23748D01*
X17616Y-23776D01*
X17560Y-23793D01*
X17502Y-23799D01*
X17444Y-23794D01*
X17388Y-23778D01*
X17336Y-23751D01*
X17291Y-23714D01*
X17253Y-23669D01*
X17225Y-23618D01*
X17207Y-23562D01*
X17201Y-23504D01*
X17205Y-23446D01*
X17222Y-23390D01*
X17248Y-23338D01*
X17285Y-23292D01*
X17329Y-23254D01*
X17380Y-23226D01*
X17436Y-23207D01*
X17494Y-23201D01*
X17552Y-23205D01*
X17608Y-23221D01*
X17660Y-23247D01*
X17706Y-23283D01*
X17745Y-23328D01*
X17774Y-23378D01*
X17792Y-23434D01*
X17799Y-23492D01*
X17800Y-23500D01*
X17200Y-23500D02*
X17800Y-23500D01*
X44300Y-23250D02*
X44294Y-23308D01*
X44277Y-23364D01*
X44249Y-23416D01*
X44212Y-23461D01*
X44167Y-23498D01*
X44116Y-23526D01*
X44060Y-23543D01*
X44002Y-23549D01*
X43944Y-23544D01*
X43888Y-23528D01*
X43836Y-23501D01*
X43791Y-23464D01*
X43753Y-23419D01*
X43725Y-23368D01*
X43707Y-23312D01*
X43701Y-23254D01*
X43705Y-23196D01*
X43722Y-23140D01*
X43748Y-23088D01*
X43785Y-23042D01*
X43829Y-23004D01*
X43880Y-22976D01*
X43936Y-22957D01*
X43994Y-22951D01*
X44052Y-22955D01*
X44108Y-22971D01*
X44160Y-22997D01*
X44206Y-23033D01*
X44245Y-23078D01*
X44274Y-23128D01*
X44292Y-23184D01*
X44299Y-23242D01*
X44300Y-23250D01*
X43700Y-23250D02*
X44300Y-23250D01*
X48300Y-22250D02*
X48294Y-22308D01*
X48277Y-22364D01*
X48249Y-22416D01*
X48212Y-22461D01*
X48167Y-22498D01*
X48116Y-22526D01*
X48060Y-22543D01*
X48002Y-22549D01*
X47944Y-22544D01*
X47888Y-22528D01*
X47836Y-22501D01*
X47791Y-22464D01*
X47753Y-22419D01*
X47725Y-22368D01*
X47707Y-22312D01*
X47701Y-22254D01*
X47705Y-22196D01*
X47722Y-22140D01*
X47748Y-22088D01*
X47785Y-22042D01*
X47829Y-22004D01*
X47880Y-21976D01*
X47936Y-21957D01*
X47994Y-21951D01*
X48052Y-21955D01*
X48108Y-21971D01*
X48160Y-21997D01*
X48206Y-22033D01*
X48245Y-22078D01*
X48274Y-22128D01*
X48292Y-22184D01*
X48299Y-22242D01*
X48300Y-22250D01*
X47700Y-22250D02*
X48300Y-22250D01*
X48300Y-24250D02*
X48294Y-24308D01*
X48277Y-24364D01*
X48249Y-24416D01*
X48212Y-24461D01*
X48167Y-24498D01*
X48116Y-24526D01*
X48060Y-24543D01*
X48002Y-24549D01*
X47944Y-24544D01*
X47888Y-24528D01*
X47836Y-24501D01*
X47791Y-24464D01*
X47753Y-24419D01*
X47725Y-24368D01*
X47707Y-24312D01*
X47701Y-24254D01*
X47705Y-24196D01*
X47722Y-24140D01*
X47748Y-24088D01*
X47785Y-24042D01*
X47829Y-24004D01*
X47880Y-23976D01*
X47936Y-23957D01*
X47994Y-23951D01*
X48052Y-23955D01*
X48108Y-23971D01*
X48160Y-23997D01*
X48206Y-24033D01*
X48245Y-24078D01*
X48274Y-24128D01*
X48292Y-24184D01*
X48299Y-24242D01*
X48300Y-24250D01*
X47700Y-24250D02*
X48300Y-24250D01*
X23090Y-22500D02*
X23078Y-22614D01*
X23045Y-22724D01*
X22991Y-22826D01*
X22918Y-22915D01*
X22829Y-22989D01*
X22728Y-23043D01*
X22618Y-23077D01*
X22504Y-23089D01*
X22390Y-23079D01*
X22279Y-23047D01*
X22177Y-22993D01*
X22088Y-22921D01*
X22014Y-22833D01*
X21958Y-22732D01*
X21923Y-22622D01*
X21911Y-22508D01*
X21920Y-22394D01*
X21952Y-22283D01*
X22005Y-22181D01*
X22076Y-22091D01*
X22164Y-22016D01*
X22264Y-21960D01*
X22374Y-21924D01*
X22488Y-21911D01*
X22602Y-21919D01*
X22713Y-21950D01*
X22816Y-22002D01*
X22906Y-22073D01*
X22982Y-22160D01*
X23038Y-22261D01*
X23075Y-22370D01*
X23089Y-22484D01*
X23090Y-22500D01*
X22500Y-21910D02*
X22500Y-23090D01*
X23090Y-50500D02*
X23078Y-50614D01*
X23045Y-50724D01*
X22991Y-50826D01*
X22918Y-50915D01*
X22829Y-50989D01*
X22728Y-51043D01*
X22618Y-51077D01*
X22504Y-51089D01*
X22390Y-51079D01*
X22279Y-51047D01*
X22177Y-50993D01*
X22088Y-50921D01*
X22014Y-50833D01*
X21958Y-50732D01*
X21923Y-50622D01*
X21911Y-50508D01*
X21920Y-50394D01*
X21952Y-50283D01*
X22005Y-50181D01*
X22076Y-50091D01*
X22164Y-50016D01*
X22264Y-49960D01*
X22374Y-49924D01*
X22488Y-49911D01*
X22602Y-49919D01*
X22713Y-49950D01*
X22816Y-50002D01*
X22906Y-50073D01*
X22982Y-50160D01*
X23038Y-50261D01*
X23075Y-50370D01*
X23089Y-50484D01*
X23090Y-50500D01*
X22500Y-49910D02*
X22500Y-51090D01*
X26090Y-29500D02*
X26078Y-29614D01*
X26045Y-29724D01*
X25991Y-29826D01*
X25918Y-29915D01*
X25829Y-29989D01*
X25728Y-30043D01*
X25618Y-30077D01*
X25504Y-30089D01*
X25390Y-30079D01*
X25279Y-30047D01*
X25177Y-29993D01*
X25088Y-29921D01*
X25014Y-29833D01*
X24958Y-29732D01*
X24923Y-29622D01*
X24911Y-29508D01*
X24920Y-29394D01*
X24952Y-29283D01*
X25005Y-29181D01*
X25076Y-29091D01*
X25164Y-29016D01*
X25264Y-28960D01*
X25374Y-28924D01*
X25488Y-28911D01*
X25602Y-28919D01*
X25713Y-28950D01*
X25816Y-29002D01*
X25906Y-29073D01*
X25982Y-29160D01*
X26038Y-29261D01*
X26075Y-29370D01*
X26089Y-29484D01*
X26090Y-29500D01*
X25500Y-28910D02*
X25500Y-30090D01*
X26090Y-43500D02*
X26078Y-43614D01*
X26045Y-43724D01*
X25991Y-43826D01*
X25918Y-43915D01*
X25829Y-43989D01*
X25728Y-44043D01*
X25618Y-44077D01*
X25504Y-44089D01*
X25390Y-44079D01*
X25279Y-44047D01*
X25177Y-43993D01*
X25088Y-43921D01*
X25014Y-43833D01*
X24958Y-43732D01*
X24923Y-43622D01*
X24911Y-43508D01*
X24920Y-43394D01*
X24952Y-43283D01*
X25005Y-43181D01*
X25076Y-43091D01*
X25164Y-43016D01*
X25264Y-42960D01*
X25374Y-42924D01*
X25488Y-42911D01*
X25602Y-42919D01*
X25713Y-42950D01*
X25816Y-43002D01*
X25906Y-43073D01*
X25982Y-43160D01*
X26038Y-43261D01*
X26075Y-43370D01*
X26089Y-43484D01*
X26090Y-43500D01*
X25500Y-42910D02*
X25500Y-44090D01*
X63090Y-29500D02*
X63078Y-29614D01*
X63045Y-29724D01*
X62991Y-29826D01*
X62918Y-29915D01*
X62829Y-29989D01*
X62728Y-30043D01*
X62618Y-30077D01*
X62504Y-30089D01*
X62390Y-30079D01*
X62279Y-30047D01*
X62177Y-29993D01*
X62088Y-29921D01*
X62014Y-29833D01*
X61958Y-29732D01*
X61923Y-29622D01*
X61911Y-29508D01*
X61920Y-29394D01*
X61952Y-29283D01*
X62005Y-29181D01*
X62076Y-29091D01*
X62164Y-29016D01*
X62264Y-28960D01*
X62374Y-28924D01*
X62488Y-28911D01*
X62602Y-28919D01*
X62713Y-28950D01*
X62816Y-29002D01*
X62906Y-29073D01*
X62982Y-29160D01*
X63038Y-29261D01*
X63075Y-29370D01*
X63089Y-29484D01*
X63090Y-29500D01*
X62500Y-28910D02*
X62500Y-30090D01*
X63090Y-43500D02*
X63078Y-43614D01*
X63045Y-43724D01*
X62991Y-43826D01*
X62918Y-43915D01*
X62829Y-43989D01*
X62728Y-44043D01*
X62618Y-44077D01*
X62504Y-44089D01*
X62390Y-44079D01*
X62279Y-44047D01*
X62177Y-43993D01*
X62088Y-43921D01*
X62014Y-43833D01*
X61958Y-43732D01*
X61923Y-43622D01*
X61911Y-43508D01*
X61920Y-43394D01*
X61952Y-43283D01*
X62005Y-43181D01*
X62076Y-43091D01*
X62164Y-43016D01*
X62264Y-42960D01*
X62374Y-42924D01*
X62488Y-42911D01*
X62602Y-42919D01*
X62713Y-42950D01*
X62816Y-43002D01*
X62906Y-43073D01*
X62982Y-43160D01*
X63038Y-43261D01*
X63075Y-43370D01*
X63089Y-43484D01*
X63090Y-43500D01*
X62500Y-42910D02*
X62500Y-44090D01*
X65090Y-22500D02*
X65078Y-22614D01*
X65045Y-22724D01*
X64991Y-22826D01*
X64918Y-22915D01*
X64829Y-22989D01*
X64728Y-23043D01*
X64618Y-23077D01*
X64504Y-23089D01*
X64390Y-23079D01*
X64279Y-23047D01*
X64177Y-22993D01*
X64088Y-22921D01*
X64014Y-22833D01*
X63958Y-22732D01*
X63923Y-22622D01*
X63911Y-22508D01*
X63920Y-22394D01*
X63952Y-22283D01*
X64005Y-22181D01*
X64076Y-22091D01*
X64164Y-22016D01*
X64264Y-21960D01*
X64374Y-21924D01*
X64488Y-21911D01*
X64602Y-21919D01*
X64713Y-21950D01*
X64816Y-22002D01*
X64906Y-22073D01*
X64982Y-22160D01*
X65038Y-22261D01*
X65075Y-22370D01*
X65089Y-22484D01*
X65090Y-22500D01*
X64500Y-21910D02*
X64500Y-23090D01*
G54D12*
X09245Y-58484D02*
X09245Y-57684D01*
X09436Y-57684D01*
X09550Y-57722D01*
X09626Y-57798D01*
X09665Y-57874D01*
X09703Y-58027D01*
X09703Y-58141D01*
X09665Y-58293D01*
X09626Y-58370D01*
X09550Y-58446D01*
X09436Y-58484D01*
X09245Y-58484D01*
X10045Y-58484D02*
X10045Y-57950D01*
X10045Y-58103D02*
X10084Y-58027D01*
X10122Y-57989D01*
X10198Y-57950D01*
X10274Y-57950D01*
X10540Y-58484D02*
X10540Y-57950D01*
X10540Y-57684D02*
X10502Y-57722D01*
X10540Y-57760D01*
X10579Y-57722D01*
X10540Y-57684D01*
X10540Y-57760D01*
X11036Y-58484D02*
X10960Y-58446D01*
X10921Y-58370D01*
X10921Y-57684D01*
X11455Y-58484D02*
X11379Y-58446D01*
X11340Y-58370D01*
X11340Y-57684D01*
X12369Y-58484D02*
X12369Y-57684D01*
X12636Y-58255D01*
X12903Y-57684D01*
X12903Y-58484D01*
X13626Y-58484D02*
X13626Y-58065D01*
X13588Y-57989D01*
X13512Y-57950D01*
X13360Y-57950D01*
X13283Y-57989D01*
X13626Y-58446D02*
X13550Y-58484D01*
X13360Y-58484D01*
X13283Y-58446D01*
X13245Y-58370D01*
X13245Y-58293D01*
X13283Y-58217D01*
X13360Y-58179D01*
X13550Y-58179D01*
X13626Y-58141D01*
X14007Y-57950D02*
X14007Y-58750D01*
X14007Y-57989D02*
X14084Y-57950D01*
X14236Y-57950D01*
X14312Y-57989D01*
X14350Y-58027D01*
X14388Y-58103D01*
X14388Y-58331D01*
X14350Y-58408D01*
X14312Y-58446D01*
X14236Y-58484D01*
X14084Y-58484D01*
X14007Y-58446D01*
X14731Y-58408D02*
X14770Y-58446D01*
X14731Y-58484D01*
X14693Y-58446D01*
X14731Y-58408D01*
X14731Y-58484D01*
X14731Y-57989D02*
X14770Y-58027D01*
X14731Y-58065D01*
X14693Y-58027D01*
X14731Y-57989D01*
X14731Y-58065D01*
X08605Y-59715D02*
X08855Y-59965D01*
X08855Y-59715D02*
X08605Y-59965D01*
X09398Y-59364D02*
X09474Y-59364D01*
X09550Y-59402D01*
X09588Y-59440D01*
X09626Y-59516D01*
X09665Y-59669D01*
X09665Y-59859D01*
X09626Y-60011D01*
X09588Y-60088D01*
X09550Y-60126D01*
X09474Y-60164D01*
X09398Y-60164D01*
X09322Y-60126D01*
X09284Y-60088D01*
X09245Y-60011D01*
X09207Y-59859D01*
X09207Y-59669D01*
X09245Y-59516D01*
X09284Y-59440D01*
X09322Y-59402D01*
X09398Y-59364D01*
X10007Y-60088D02*
X10046Y-60126D01*
X10007Y-60164D01*
X09969Y-60126D01*
X10007Y-60088D01*
X10007Y-60164D01*
X10541Y-59364D02*
X10617Y-59364D01*
X10693Y-59402D01*
X10731Y-59440D01*
X10769Y-59516D01*
X10808Y-59669D01*
X10808Y-59859D01*
X10769Y-60011D01*
X10731Y-60088D01*
X10693Y-60126D01*
X10617Y-60164D01*
X10541Y-60164D01*
X10465Y-60126D01*
X10427Y-60088D01*
X10388Y-60011D01*
X10350Y-59859D01*
X10350Y-59669D01*
X10388Y-59516D01*
X10427Y-59440D01*
X10465Y-59402D01*
X10541Y-59364D01*
X11112Y-59440D02*
X11150Y-59402D01*
X11227Y-59364D01*
X11417Y-59364D01*
X11493Y-59402D01*
X11531Y-59440D01*
X11570Y-59516D01*
X11570Y-59592D01*
X11531Y-59707D01*
X11074Y-60164D01*
X11570Y-60164D01*
X12293Y-59364D02*
X11912Y-59364D01*
X11874Y-59745D01*
X11912Y-59707D01*
X11989Y-59669D01*
X12179Y-59669D01*
X12255Y-59707D01*
X12293Y-59745D01*
X12332Y-59821D01*
X12332Y-60011D01*
X12293Y-60088D01*
X12255Y-60126D01*
X12179Y-60164D01*
X11989Y-60164D01*
X11912Y-60126D01*
X11874Y-60088D01*
X12636Y-59364D02*
X12636Y-59516D01*
X12941Y-59364D02*
X12941Y-59516D01*
X14466Y-59326D02*
X13780Y-60354D01*
X15495Y-59364D02*
X15571Y-59364D01*
X15647Y-59402D01*
X15685Y-59440D01*
X15723Y-59516D01*
X15762Y-59669D01*
X15762Y-59859D01*
X15723Y-60011D01*
X15685Y-60088D01*
X15647Y-60126D01*
X15571Y-60164D01*
X15495Y-60164D01*
X15419Y-60126D01*
X15381Y-60088D01*
X15342Y-60011D01*
X15304Y-59859D01*
X15304Y-59669D01*
X15342Y-59516D01*
X15381Y-59440D01*
X15419Y-59402D01*
X15495Y-59364D01*
X16104Y-60088D02*
X16143Y-60126D01*
X16104Y-60164D01*
X16066Y-60126D01*
X16104Y-60088D01*
X16104Y-60164D01*
X16828Y-59364D02*
X16676Y-59364D01*
X16600Y-59402D01*
X16562Y-59440D01*
X16485Y-59554D01*
X16447Y-59707D01*
X16447Y-60011D01*
X16485Y-60088D01*
X16524Y-60126D01*
X16600Y-60164D01*
X16752Y-60164D01*
X16828Y-60126D01*
X16866Y-60088D01*
X16905Y-60011D01*
X16905Y-59821D01*
X16866Y-59745D01*
X16828Y-59707D01*
X16752Y-59669D01*
X16600Y-59669D01*
X16524Y-59707D01*
X16485Y-59745D01*
X16447Y-59821D01*
X17590Y-59630D02*
X17590Y-60164D01*
X17400Y-59326D02*
X17209Y-59897D01*
X17705Y-59897D01*
X18009Y-60164D02*
X18009Y-59630D01*
X18009Y-59707D02*
X18048Y-59669D01*
X18124Y-59630D01*
X18238Y-59630D01*
X18314Y-59669D01*
X18352Y-59745D01*
X18352Y-60164D01*
X18352Y-59745D02*
X18390Y-59669D01*
X18467Y-59630D01*
X18581Y-59630D01*
X18657Y-59669D01*
X18695Y-59745D01*
X18695Y-60164D01*
X19076Y-60164D02*
X19076Y-59630D01*
X19076Y-59707D02*
X19115Y-59669D01*
X19191Y-59630D01*
X19305Y-59630D01*
X19381Y-59669D01*
X19419Y-59745D01*
X19419Y-60164D01*
X19419Y-59745D02*
X19457Y-59669D01*
X19534Y-59630D01*
X19648Y-59630D01*
X19724Y-59669D01*
X19762Y-59745D01*
X19762Y-60164D01*
X20982Y-60469D02*
X20944Y-60430D01*
X20868Y-60316D01*
X20830Y-60240D01*
X20792Y-60126D01*
X20753Y-59935D01*
X20753Y-59783D01*
X20792Y-59592D01*
X20830Y-59478D01*
X20868Y-59402D01*
X20944Y-59288D01*
X20982Y-59250D01*
X21629Y-59630D02*
X21629Y-60164D01*
X21439Y-59326D02*
X21248Y-59897D01*
X21744Y-59897D01*
X21972Y-59364D02*
X22506Y-59364D01*
X22163Y-60164D01*
X23420Y-60164D02*
X23420Y-59364D01*
X23763Y-60164D02*
X23763Y-59745D01*
X23725Y-59669D01*
X23649Y-59630D01*
X23535Y-59630D01*
X23459Y-59669D01*
X23420Y-59707D01*
X24259Y-60164D02*
X24183Y-60126D01*
X24144Y-60088D01*
X24106Y-60011D01*
X24106Y-59783D01*
X24144Y-59707D01*
X24183Y-59669D01*
X24259Y-59630D01*
X24373Y-59630D01*
X24449Y-59669D01*
X24487Y-59707D01*
X24525Y-59783D01*
X24525Y-60011D01*
X24487Y-60088D01*
X24449Y-60126D01*
X24373Y-60164D01*
X24259Y-60164D01*
X24983Y-60164D02*
X24907Y-60126D01*
X24868Y-60050D01*
X24868Y-59364D01*
X25592Y-60126D02*
X25516Y-60164D01*
X25364Y-60164D01*
X25287Y-60126D01*
X25249Y-60050D01*
X25249Y-59745D01*
X25287Y-59669D01*
X25364Y-59630D01*
X25516Y-59630D01*
X25592Y-59669D01*
X25630Y-59745D01*
X25630Y-59821D01*
X25249Y-59897D01*
X25935Y-60126D02*
X26012Y-60164D01*
X26164Y-60164D01*
X26240Y-60126D01*
X26278Y-60050D01*
X26278Y-60011D01*
X26240Y-59935D01*
X26164Y-59897D01*
X26050Y-59897D01*
X25973Y-59859D01*
X25935Y-59783D01*
X25935Y-59745D01*
X25973Y-59669D01*
X26050Y-59630D01*
X26164Y-59630D01*
X26240Y-59669D01*
X26545Y-60469D02*
X26583Y-60430D01*
X26660Y-60316D01*
X26698Y-60240D01*
X26736Y-60126D01*
X26774Y-59935D01*
X26774Y-59783D01*
X26736Y-59592D01*
X26698Y-59478D01*
X26660Y-59402D01*
X26583Y-59288D01*
X26545Y-59250D01*
G54D10*
X08854Y-60895D02*
X08851Y-60925D01*
X08842Y-60954D01*
X08827Y-60981D01*
X08808Y-61005D01*
X08784Y-61025D01*
X08757Y-61039D01*
X08728Y-61048D01*
X08698Y-61051D01*
X08668Y-61049D01*
X08639Y-61040D01*
X08612Y-61026D01*
X08588Y-61007D01*
X08568Y-60983D01*
X08553Y-60956D01*
X08544Y-60927D01*
X08541Y-60897D01*
X08543Y-60867D01*
X08552Y-60838D01*
X08566Y-60810D01*
X08585Y-60786D01*
X08608Y-60767D01*
X08635Y-60752D01*
X08664Y-60742D01*
X08694Y-60739D01*
X08724Y-60741D01*
X08753Y-60749D01*
X08781Y-60763D01*
X08805Y-60782D01*
X08825Y-60805D01*
X08840Y-60832D01*
X08850Y-60861D01*
X08853Y-60891D01*
X08854Y-60895D01*
G54D12*
X09398Y-60419D02*
X09474Y-60419D01*
X09550Y-60457D01*
X09588Y-60495D01*
X09626Y-60571D01*
X09665Y-60724D01*
X09665Y-60914D01*
X09626Y-61066D01*
X09588Y-61143D01*
X09550Y-61181D01*
X09474Y-61219D01*
X09398Y-61219D01*
X09322Y-61181D01*
X09284Y-61143D01*
X09245Y-61066D01*
X09207Y-60914D01*
X09207Y-60724D01*
X09245Y-60571D01*
X09284Y-60495D01*
X09322Y-60457D01*
X09398Y-60419D01*
X10007Y-61143D02*
X10046Y-61181D01*
X10007Y-61219D01*
X09969Y-61181D01*
X10007Y-61143D01*
X10007Y-61219D01*
X10541Y-60419D02*
X10617Y-60419D01*
X10693Y-60457D01*
X10731Y-60495D01*
X10769Y-60571D01*
X10808Y-60724D01*
X10808Y-60914D01*
X10769Y-61066D01*
X10731Y-61143D01*
X10693Y-61181D01*
X10617Y-61219D01*
X10541Y-61219D01*
X10465Y-61181D01*
X10427Y-61143D01*
X10388Y-61066D01*
X10350Y-60914D01*
X10350Y-60724D01*
X10388Y-60571D01*
X10427Y-60495D01*
X10465Y-60457D01*
X10541Y-60419D01*
X11074Y-60419D02*
X11570Y-60419D01*
X11303Y-60724D01*
X11417Y-60724D01*
X11493Y-60762D01*
X11531Y-60800D01*
X11570Y-60876D01*
X11570Y-61066D01*
X11531Y-61143D01*
X11493Y-61181D01*
X11417Y-61219D01*
X11189Y-61219D01*
X11112Y-61181D01*
X11074Y-61143D01*
X11874Y-60495D02*
X11912Y-60457D01*
X11989Y-60419D01*
X12179Y-60419D01*
X12255Y-60457D01*
X12293Y-60495D01*
X12332Y-60571D01*
X12332Y-60647D01*
X12293Y-60762D01*
X11836Y-61219D01*
X12332Y-61219D01*
X12636Y-60419D02*
X12636Y-60571D01*
X12941Y-60419D02*
X12941Y-60571D01*
X14466Y-60381D02*
X13780Y-61409D01*
X15495Y-60419D02*
X15571Y-60419D01*
X15647Y-60457D01*
X15685Y-60495D01*
X15723Y-60571D01*
X15762Y-60724D01*
X15762Y-60914D01*
X15723Y-61066D01*
X15685Y-61143D01*
X15647Y-61181D01*
X15571Y-61219D01*
X15495Y-61219D01*
X15419Y-61181D01*
X15381Y-61143D01*
X15342Y-61066D01*
X15304Y-60914D01*
X15304Y-60724D01*
X15342Y-60571D01*
X15381Y-60495D01*
X15419Y-60457D01*
X15495Y-60419D01*
X16104Y-61143D02*
X16143Y-61181D01*
X16104Y-61219D01*
X16066Y-61181D01*
X16104Y-61143D01*
X16104Y-61219D01*
X16600Y-60762D02*
X16524Y-60724D01*
X16485Y-60685D01*
X16447Y-60609D01*
X16447Y-60571D01*
X16485Y-60495D01*
X16524Y-60457D01*
X16600Y-60419D01*
X16752Y-60419D01*
X16828Y-60457D01*
X16866Y-60495D01*
X16905Y-60571D01*
X16905Y-60609D01*
X16866Y-60685D01*
X16828Y-60724D01*
X16752Y-60762D01*
X16600Y-60762D01*
X16524Y-60800D01*
X16485Y-60838D01*
X16447Y-60914D01*
X16447Y-61066D01*
X16485Y-61143D01*
X16524Y-61181D01*
X16600Y-61219D01*
X16752Y-61219D01*
X16828Y-61181D01*
X16866Y-61143D01*
X16905Y-61066D01*
X16905Y-60914D01*
X16866Y-60838D01*
X16828Y-60800D01*
X16752Y-60762D01*
X17400Y-60419D02*
X17476Y-60419D01*
X17552Y-60457D01*
X17590Y-60495D01*
X17628Y-60571D01*
X17667Y-60724D01*
X17667Y-60914D01*
X17628Y-61066D01*
X17590Y-61143D01*
X17552Y-61181D01*
X17476Y-61219D01*
X17400Y-61219D01*
X17324Y-61181D01*
X17286Y-61143D01*
X17247Y-61066D01*
X17209Y-60914D01*
X17209Y-60724D01*
X17247Y-60571D01*
X17286Y-60495D01*
X17324Y-60457D01*
X17400Y-60419D01*
X18009Y-61219D02*
X18009Y-60685D01*
X18009Y-60762D02*
X18048Y-60724D01*
X18124Y-60685D01*
X18238Y-60685D01*
X18314Y-60724D01*
X18352Y-60800D01*
X18352Y-61219D01*
X18352Y-60800D02*
X18390Y-60724D01*
X18467Y-60685D01*
X18581Y-60685D01*
X18657Y-60724D01*
X18695Y-60800D01*
X18695Y-61219D01*
X19076Y-61219D02*
X19076Y-60685D01*
X19076Y-60762D02*
X19115Y-60724D01*
X19191Y-60685D01*
X19305Y-60685D01*
X19381Y-60724D01*
X19419Y-60800D01*
X19419Y-61219D01*
X19419Y-60800D02*
X19457Y-60724D01*
X19534Y-60685D01*
X19648Y-60685D01*
X19724Y-60724D01*
X19762Y-60800D01*
X19762Y-61219D01*
X20982Y-61524D02*
X20944Y-61485D01*
X20868Y-61371D01*
X20830Y-61295D01*
X20792Y-61181D01*
X20753Y-60990D01*
X20753Y-60838D01*
X20792Y-60647D01*
X20830Y-60533D01*
X20868Y-60457D01*
X20944Y-60343D01*
X20982Y-60305D01*
X21706Y-61219D02*
X21248Y-61219D01*
X21477Y-61219D02*
X21477Y-60419D01*
X21401Y-60533D01*
X21325Y-60609D01*
X21248Y-60647D01*
X22658Y-61219D02*
X22658Y-60419D01*
X23001Y-61219D02*
X23001Y-60800D01*
X22963Y-60724D01*
X22887Y-60685D01*
X22773Y-60685D01*
X22697Y-60724D01*
X22658Y-60762D01*
X23497Y-61219D02*
X23421Y-61181D01*
X23382Y-61143D01*
X23344Y-61066D01*
X23344Y-60838D01*
X23382Y-60762D01*
X23421Y-60724D01*
X23497Y-60685D01*
X23611Y-60685D01*
X23687Y-60724D01*
X23725Y-60762D01*
X23763Y-60838D01*
X23763Y-61066D01*
X23725Y-61143D01*
X23687Y-61181D01*
X23611Y-61219D01*
X23497Y-61219D01*
X24221Y-61219D02*
X24145Y-61181D01*
X24106Y-61105D01*
X24106Y-60419D01*
X24830Y-61181D02*
X24754Y-61219D01*
X24602Y-61219D01*
X24525Y-61181D01*
X24487Y-61105D01*
X24487Y-60800D01*
X24525Y-60724D01*
X24602Y-60685D01*
X24754Y-60685D01*
X24830Y-60724D01*
X24868Y-60800D01*
X24868Y-60876D01*
X24487Y-60952D01*
X25135Y-61524D02*
X25173Y-61485D01*
X25250Y-61371D01*
X25288Y-61295D01*
X25326Y-61181D01*
X25364Y-60990D01*
X25364Y-60838D01*
X25326Y-60647D01*
X25288Y-60533D01*
X25250Y-60457D01*
X25173Y-60343D01*
X25135Y-60305D01*
X08695Y-61790D02*
X08695Y-62110D01*
X08855Y-61950D02*
X08535Y-61950D01*
X09398Y-61474D02*
X09474Y-61474D01*
X09550Y-61512D01*
X09588Y-61550D01*
X09626Y-61626D01*
X09665Y-61779D01*
X09665Y-61969D01*
X09626Y-62121D01*
X09588Y-62198D01*
X09550Y-62236D01*
X09474Y-62274D01*
X09398Y-62274D01*
X09322Y-62236D01*
X09284Y-62198D01*
X09245Y-62121D01*
X09207Y-61969D01*
X09207Y-61779D01*
X09245Y-61626D01*
X09284Y-61550D01*
X09322Y-61512D01*
X09398Y-61474D01*
X10007Y-62198D02*
X10046Y-62236D01*
X10007Y-62274D01*
X09969Y-62236D01*
X10007Y-62198D01*
X10007Y-62274D01*
X10541Y-61474D02*
X10617Y-61474D01*
X10693Y-61512D01*
X10731Y-61550D01*
X10769Y-61626D01*
X10808Y-61779D01*
X10808Y-61969D01*
X10769Y-62121D01*
X10731Y-62198D01*
X10693Y-62236D01*
X10617Y-62274D01*
X10541Y-62274D01*
X10465Y-62236D01*
X10427Y-62198D01*
X10388Y-62121D01*
X10350Y-61969D01*
X10350Y-61779D01*
X10388Y-61626D01*
X10427Y-61550D01*
X10465Y-61512D01*
X10541Y-61474D01*
X11074Y-61474D02*
X11570Y-61474D01*
X11303Y-61779D01*
X11417Y-61779D01*
X11493Y-61817D01*
X11531Y-61855D01*
X11570Y-61931D01*
X11570Y-62121D01*
X11531Y-62198D01*
X11493Y-62236D01*
X11417Y-62274D01*
X11189Y-62274D01*
X11112Y-62236D01*
X11074Y-62198D01*
X11874Y-61550D02*
X11912Y-61512D01*
X11989Y-61474D01*
X12179Y-61474D01*
X12255Y-61512D01*
X12293Y-61550D01*
X12332Y-61626D01*
X12332Y-61702D01*
X12293Y-61817D01*
X11836Y-62274D01*
X12332Y-62274D01*
X12636Y-61474D02*
X12636Y-61626D01*
X12941Y-61474D02*
X12941Y-61626D01*
X14466Y-61436D02*
X13780Y-62464D01*
X15495Y-61474D02*
X15571Y-61474D01*
X15647Y-61512D01*
X15685Y-61550D01*
X15723Y-61626D01*
X15762Y-61779D01*
X15762Y-61969D01*
X15723Y-62121D01*
X15685Y-62198D01*
X15647Y-62236D01*
X15571Y-62274D01*
X15495Y-62274D01*
X15419Y-62236D01*
X15381Y-62198D01*
X15342Y-62121D01*
X15304Y-61969D01*
X15304Y-61779D01*
X15342Y-61626D01*
X15381Y-61550D01*
X15419Y-61512D01*
X15495Y-61474D01*
X16104Y-62198D02*
X16143Y-62236D01*
X16104Y-62274D01*
X16066Y-62236D01*
X16104Y-62198D01*
X16104Y-62274D01*
X16600Y-61817D02*
X16524Y-61779D01*
X16485Y-61740D01*
X16447Y-61664D01*
X16447Y-61626D01*
X16485Y-61550D01*
X16524Y-61512D01*
X16600Y-61474D01*
X16752Y-61474D01*
X16828Y-61512D01*
X16866Y-61550D01*
X16905Y-61626D01*
X16905Y-61664D01*
X16866Y-61740D01*
X16828Y-61779D01*
X16752Y-61817D01*
X16600Y-61817D01*
X16524Y-61855D01*
X16485Y-61893D01*
X16447Y-61969D01*
X16447Y-62121D01*
X16485Y-62198D01*
X16524Y-62236D01*
X16600Y-62274D01*
X16752Y-62274D01*
X16828Y-62236D01*
X16866Y-62198D01*
X16905Y-62121D01*
X16905Y-61969D01*
X16866Y-61893D01*
X16828Y-61855D01*
X16752Y-61817D01*
X17667Y-62274D02*
X17209Y-62274D01*
X17438Y-62274D02*
X17438Y-61474D01*
X17362Y-61588D01*
X17286Y-61664D01*
X17209Y-61702D01*
X18009Y-62274D02*
X18009Y-61740D01*
X18009Y-61817D02*
X18048Y-61779D01*
X18124Y-61740D01*
X18238Y-61740D01*
X18314Y-61779D01*
X18352Y-61855D01*
X18352Y-62274D01*
X18352Y-61855D02*
X18390Y-61779D01*
X18467Y-61740D01*
X18581Y-61740D01*
X18657Y-61779D01*
X18695Y-61855D01*
X18695Y-62274D01*
X19076Y-62274D02*
X19076Y-61740D01*
X19076Y-61817D02*
X19115Y-61779D01*
X19191Y-61740D01*
X19305Y-61740D01*
X19381Y-61779D01*
X19419Y-61855D01*
X19419Y-62274D01*
X19419Y-61855D02*
X19457Y-61779D01*
X19534Y-61740D01*
X19648Y-61740D01*
X19724Y-61779D01*
X19762Y-61855D01*
X19762Y-62274D01*
X20982Y-62579D02*
X20944Y-62540D01*
X20868Y-62426D01*
X20830Y-62350D01*
X20792Y-62236D01*
X20753Y-62045D01*
X20753Y-61893D01*
X20792Y-61702D01*
X20830Y-61588D01*
X20868Y-61512D01*
X20944Y-61398D01*
X20982Y-61360D01*
X21248Y-61550D02*
X21286Y-61512D01*
X21363Y-61474D01*
X21553Y-61474D01*
X21629Y-61512D01*
X21667Y-61550D01*
X21706Y-61626D01*
X21706Y-61702D01*
X21667Y-61817D01*
X21210Y-62274D01*
X21706Y-62274D01*
X22087Y-62274D02*
X22239Y-62274D01*
X22315Y-62236D01*
X22353Y-62198D01*
X22429Y-62083D01*
X22468Y-61931D01*
X22468Y-61626D01*
X22429Y-61550D01*
X22391Y-61512D01*
X22315Y-61474D01*
X22163Y-61474D01*
X22087Y-61512D01*
X22048Y-61550D01*
X22010Y-61626D01*
X22010Y-61817D01*
X22048Y-61893D01*
X22087Y-61931D01*
X22163Y-61969D01*
X22315Y-61969D01*
X22391Y-61931D01*
X22429Y-61893D01*
X22468Y-61817D01*
X22734Y-61474D02*
X23230Y-61474D01*
X22963Y-61779D01*
X23077Y-61779D01*
X23153Y-61817D01*
X23191Y-61855D01*
X23230Y-61931D01*
X23230Y-62121D01*
X23191Y-62198D01*
X23153Y-62236D01*
X23077Y-62274D01*
X22849Y-62274D01*
X22772Y-62236D01*
X22734Y-62198D01*
X24182Y-62274D02*
X24182Y-61474D01*
X24525Y-62274D02*
X24525Y-61855D01*
X24487Y-61779D01*
X24411Y-61740D01*
X24297Y-61740D01*
X24221Y-61779D01*
X24182Y-61817D01*
X25021Y-62274D02*
X24945Y-62236D01*
X24906Y-62198D01*
X24868Y-62121D01*
X24868Y-61893D01*
X24906Y-61817D01*
X24945Y-61779D01*
X25021Y-61740D01*
X25135Y-61740D01*
X25211Y-61779D01*
X25249Y-61817D01*
X25287Y-61893D01*
X25287Y-62121D01*
X25249Y-62198D01*
X25211Y-62236D01*
X25135Y-62274D01*
X25021Y-62274D01*
X25745Y-62274D02*
X25669Y-62236D01*
X25630Y-62160D01*
X25630Y-61474D01*
X26354Y-62236D02*
X26278Y-62274D01*
X26126Y-62274D01*
X26049Y-62236D01*
X26011Y-62160D01*
X26011Y-61855D01*
X26049Y-61779D01*
X26126Y-61740D01*
X26278Y-61740D01*
X26354Y-61779D01*
X26392Y-61855D01*
X26392Y-61931D01*
X26011Y-62007D01*
X26697Y-62236D02*
X26774Y-62274D01*
X26926Y-62274D01*
X27002Y-62236D01*
X27040Y-62160D01*
X27040Y-62121D01*
X27002Y-62045D01*
X26926Y-62007D01*
X26812Y-62007D01*
X26735Y-61969D01*
X26697Y-61893D01*
X26697Y-61855D01*
X26735Y-61779D01*
X26812Y-61740D01*
X26926Y-61740D01*
X27002Y-61779D01*
X27307Y-62579D02*
X27345Y-62540D01*
X27422Y-62426D01*
X27460Y-62350D01*
X27498Y-62236D01*
X27536Y-62045D01*
X27536Y-61893D01*
X27498Y-61702D01*
X27460Y-61588D01*
X27422Y-61512D01*
X27345Y-61398D01*
X27307Y-61360D01*
G54D10*
X08855Y-63005D02*
X08851Y-63043D01*
X08839Y-63081D01*
X08821Y-63115D01*
X08796Y-63145D01*
X08766Y-63170D01*
X08732Y-63189D01*
X08695Y-63200D01*
X08656Y-63204D01*
X08618Y-63201D01*
X08581Y-63190D01*
X08546Y-63172D01*
X08516Y-63147D01*
X08490Y-63117D01*
X08472Y-63083D01*
X08460Y-63046D01*
X08456Y-63007D01*
X08459Y-62969D01*
X08470Y-62932D01*
X08487Y-62897D01*
X08512Y-62867D01*
X08541Y-62841D01*
X08575Y-62822D01*
X08613Y-62810D01*
X08651Y-62806D01*
X08689Y-62809D01*
X08727Y-62819D01*
X08762Y-62837D01*
X08792Y-62861D01*
X08818Y-62890D01*
X08837Y-62924D01*
X08850Y-62961D01*
X08854Y-63000D01*
X08855Y-63005D01*
X08455Y-62805D02*
X08855Y-63205D01*
X08855Y-62805D02*
X08455Y-63205D01*
G54D12*
X09398Y-62529D02*
X09474Y-62529D01*
X09550Y-62567D01*
X09588Y-62605D01*
X09626Y-62681D01*
X09665Y-62834D01*
X09665Y-63024D01*
X09626Y-63176D01*
X09588Y-63253D01*
X09550Y-63291D01*
X09474Y-63329D01*
X09398Y-63329D01*
X09322Y-63291D01*
X09284Y-63253D01*
X09245Y-63176D01*
X09207Y-63024D01*
X09207Y-62834D01*
X09245Y-62681D01*
X09284Y-62605D01*
X09322Y-62567D01*
X09398Y-62529D01*
X10007Y-63253D02*
X10046Y-63291D01*
X10007Y-63329D01*
X09969Y-63291D01*
X10007Y-63253D01*
X10007Y-63329D01*
X10541Y-62529D02*
X10617Y-62529D01*
X10693Y-62567D01*
X10731Y-62605D01*
X10769Y-62681D01*
X10808Y-62834D01*
X10808Y-63024D01*
X10769Y-63176D01*
X10731Y-63253D01*
X10693Y-63291D01*
X10617Y-63329D01*
X10541Y-63329D01*
X10465Y-63291D01*
X10427Y-63253D01*
X10388Y-63176D01*
X10350Y-63024D01*
X10350Y-62834D01*
X10388Y-62681D01*
X10427Y-62605D01*
X10465Y-62567D01*
X10541Y-62529D01*
X11493Y-62795D02*
X11493Y-63329D01*
X11303Y-62491D02*
X11112Y-63062D01*
X11608Y-63062D01*
X12065Y-62529D02*
X12141Y-62529D01*
X12217Y-62567D01*
X12255Y-62605D01*
X12293Y-62681D01*
X12332Y-62834D01*
X12332Y-63024D01*
X12293Y-63176D01*
X12255Y-63253D01*
X12217Y-63291D01*
X12141Y-63329D01*
X12065Y-63329D01*
X11989Y-63291D01*
X11951Y-63253D01*
X11912Y-63176D01*
X11874Y-63024D01*
X11874Y-62834D01*
X11912Y-62681D01*
X11951Y-62605D01*
X11989Y-62567D01*
X12065Y-62529D01*
X12636Y-62529D02*
X12636Y-62681D01*
X12941Y-62529D02*
X12941Y-62681D01*
X14466Y-62491D02*
X13780Y-63519D01*
X15762Y-63329D02*
X15304Y-63329D01*
X15533Y-63329D02*
X15533Y-62529D01*
X15457Y-62643D01*
X15381Y-62719D01*
X15304Y-62757D01*
X16104Y-63253D02*
X16143Y-63291D01*
X16104Y-63329D01*
X16066Y-63291D01*
X16104Y-63253D01*
X16104Y-63329D01*
X16638Y-62529D02*
X16714Y-62529D01*
X16790Y-62567D01*
X16828Y-62605D01*
X16866Y-62681D01*
X16905Y-62834D01*
X16905Y-63024D01*
X16866Y-63176D01*
X16828Y-63253D01*
X16790Y-63291D01*
X16714Y-63329D01*
X16638Y-63329D01*
X16562Y-63291D01*
X16524Y-63253D01*
X16485Y-63176D01*
X16447Y-63024D01*
X16447Y-62834D01*
X16485Y-62681D01*
X16524Y-62605D01*
X16562Y-62567D01*
X16638Y-62529D01*
X17209Y-62605D02*
X17247Y-62567D01*
X17324Y-62529D01*
X17514Y-62529D01*
X17590Y-62567D01*
X17628Y-62605D01*
X17667Y-62681D01*
X17667Y-62757D01*
X17628Y-62872D01*
X17171Y-63329D01*
X17667Y-63329D01*
X18009Y-63329D02*
X18009Y-62795D01*
X18009Y-62872D02*
X18048Y-62834D01*
X18124Y-62795D01*
X18238Y-62795D01*
X18314Y-62834D01*
X18352Y-62910D01*
X18352Y-63329D01*
X18352Y-62910D02*
X18390Y-62834D01*
X18467Y-62795D01*
X18581Y-62795D01*
X18657Y-62834D01*
X18695Y-62910D01*
X18695Y-63329D01*
X19076Y-63329D02*
X19076Y-62795D01*
X19076Y-62872D02*
X19115Y-62834D01*
X19191Y-62795D01*
X19305Y-62795D01*
X19381Y-62834D01*
X19419Y-62910D01*
X19419Y-63329D01*
X19419Y-62910D02*
X19457Y-62834D01*
X19534Y-62795D01*
X19648Y-62795D01*
X19724Y-62834D01*
X19762Y-62910D01*
X19762Y-63329D01*
X20982Y-63634D02*
X20944Y-63595D01*
X20868Y-63481D01*
X20830Y-63405D01*
X20792Y-63291D01*
X20753Y-63100D01*
X20753Y-62948D01*
X20792Y-62757D01*
X20830Y-62643D01*
X20868Y-62567D01*
X20944Y-62453D01*
X20982Y-62415D01*
X21706Y-63329D02*
X21248Y-63329D01*
X21477Y-63329D02*
X21477Y-62529D01*
X21401Y-62643D01*
X21325Y-62719D01*
X21248Y-62757D01*
X22391Y-62795D02*
X22391Y-63329D01*
X22201Y-62491D02*
X22010Y-63062D01*
X22506Y-63062D01*
X22849Y-63329D02*
X23001Y-63329D01*
X23077Y-63291D01*
X23115Y-63253D01*
X23191Y-63138D01*
X23230Y-62986D01*
X23230Y-62681D01*
X23191Y-62605D01*
X23153Y-62567D01*
X23077Y-62529D01*
X22925Y-62529D01*
X22849Y-62567D01*
X22810Y-62605D01*
X22772Y-62681D01*
X22772Y-62872D01*
X22810Y-62948D01*
X22849Y-62986D01*
X22925Y-63024D01*
X23077Y-63024D01*
X23153Y-62986D01*
X23191Y-62948D01*
X23230Y-62872D01*
X24182Y-63329D02*
X24182Y-62529D01*
X24525Y-63329D02*
X24525Y-62910D01*
X24487Y-62834D01*
X24411Y-62795D01*
X24297Y-62795D01*
X24221Y-62834D01*
X24182Y-62872D01*
X25021Y-63329D02*
X24945Y-63291D01*
X24906Y-63253D01*
X24868Y-63176D01*
X24868Y-62948D01*
X24906Y-62872D01*
X24945Y-62834D01*
X25021Y-62795D01*
X25135Y-62795D01*
X25211Y-62834D01*
X25249Y-62872D01*
X25287Y-62948D01*
X25287Y-63176D01*
X25249Y-63253D01*
X25211Y-63291D01*
X25135Y-63329D01*
X25021Y-63329D01*
X25745Y-63329D02*
X25669Y-63291D01*
X25630Y-63215D01*
X25630Y-62529D01*
X26354Y-63291D02*
X26278Y-63329D01*
X26126Y-63329D01*
X26049Y-63291D01*
X26011Y-63215D01*
X26011Y-62910D01*
X26049Y-62834D01*
X26126Y-62795D01*
X26278Y-62795D01*
X26354Y-62834D01*
X26392Y-62910D01*
X26392Y-62986D01*
X26011Y-63062D01*
X26697Y-63291D02*
X26774Y-63329D01*
X26926Y-63329D01*
X27002Y-63291D01*
X27040Y-63215D01*
X27040Y-63176D01*
X27002Y-63100D01*
X26926Y-63062D01*
X26812Y-63062D01*
X26735Y-63024D01*
X26697Y-62948D01*
X26697Y-62910D01*
X26735Y-62834D01*
X26812Y-62795D01*
X26926Y-62795D01*
X27002Y-62834D01*
X27307Y-63634D02*
X27345Y-63595D01*
X27422Y-63481D01*
X27460Y-63405D01*
X27498Y-63291D01*
X27536Y-63100D01*
X27536Y-62948D01*
X27498Y-62757D01*
X27460Y-62643D01*
X27422Y-62567D01*
X27345Y-62453D01*
X27307Y-62415D01*
G54D10*
X08855Y-64060D02*
X08849Y-64118D01*
X08832Y-64174D01*
X08804Y-64226D01*
X08767Y-64271D01*
X08722Y-64308D01*
X08671Y-64336D01*
X08615Y-64353D01*
X08557Y-64359D01*
X08499Y-64354D01*
X08443Y-64338D01*
X08391Y-64311D01*
X08346Y-64274D01*
X08308Y-64229D01*
X08280Y-64178D01*
X08262Y-64122D01*
X08256Y-64064D01*
X08260Y-64006D01*
X08277Y-63950D01*
X08303Y-63898D01*
X08340Y-63852D01*
X08384Y-63814D01*
X08435Y-63786D01*
X08491Y-63767D01*
X08549Y-63761D01*
X08607Y-63765D01*
X08663Y-63781D01*
X08715Y-63807D01*
X08761Y-63843D01*
X08800Y-63888D01*
X08829Y-63938D01*
X08847Y-63994D01*
X08854Y-64052D01*
X08855Y-64060D01*
X08255Y-64060D02*
X08855Y-64060D01*
G54D12*
X09398Y-63584D02*
X09474Y-63584D01*
X09550Y-63622D01*
X09588Y-63660D01*
X09626Y-63736D01*
X09665Y-63889D01*
X09665Y-64079D01*
X09626Y-64231D01*
X09588Y-64308D01*
X09550Y-64346D01*
X09474Y-64384D01*
X09398Y-64384D01*
X09322Y-64346D01*
X09284Y-64308D01*
X09245Y-64231D01*
X09207Y-64079D01*
X09207Y-63889D01*
X09245Y-63736D01*
X09284Y-63660D01*
X09322Y-63622D01*
X09398Y-63584D01*
X10007Y-64308D02*
X10046Y-64346D01*
X10007Y-64384D01*
X09969Y-64346D01*
X10007Y-64308D01*
X10007Y-64384D01*
X10541Y-63584D02*
X10617Y-63584D01*
X10693Y-63622D01*
X10731Y-63660D01*
X10769Y-63736D01*
X10808Y-63889D01*
X10808Y-64079D01*
X10769Y-64231D01*
X10731Y-64308D01*
X10693Y-64346D01*
X10617Y-64384D01*
X10541Y-64384D01*
X10465Y-64346D01*
X10427Y-64308D01*
X10388Y-64231D01*
X10350Y-64079D01*
X10350Y-63889D01*
X10388Y-63736D01*
X10427Y-63660D01*
X10465Y-63622D01*
X10541Y-63584D01*
X11493Y-63584D02*
X11341Y-63584D01*
X11265Y-63622D01*
X11227Y-63660D01*
X11150Y-63774D01*
X11112Y-63927D01*
X11112Y-64231D01*
X11150Y-64308D01*
X11189Y-64346D01*
X11265Y-64384D01*
X11417Y-64384D01*
X11493Y-64346D01*
X11531Y-64308D01*
X11570Y-64231D01*
X11570Y-64041D01*
X11531Y-63965D01*
X11493Y-63927D01*
X11417Y-63889D01*
X11265Y-63889D01*
X11189Y-63927D01*
X11150Y-63965D01*
X11112Y-64041D01*
X12065Y-63584D02*
X12141Y-63584D01*
X12217Y-63622D01*
X12255Y-63660D01*
X12293Y-63736D01*
X12332Y-63889D01*
X12332Y-64079D01*
X12293Y-64231D01*
X12255Y-64308D01*
X12217Y-64346D01*
X12141Y-64384D01*
X12065Y-64384D01*
X11989Y-64346D01*
X11951Y-64308D01*
X11912Y-64231D01*
X11874Y-64079D01*
X11874Y-63889D01*
X11912Y-63736D01*
X11951Y-63660D01*
X11989Y-63622D01*
X12065Y-63584D01*
X12636Y-63584D02*
X12636Y-63736D01*
X12941Y-63584D02*
X12941Y-63736D01*
X14466Y-63546D02*
X13780Y-64574D01*
X15762Y-64384D02*
X15304Y-64384D01*
X15533Y-64384D02*
X15533Y-63584D01*
X15457Y-63698D01*
X15381Y-63774D01*
X15304Y-63812D01*
X16104Y-64308D02*
X16143Y-64346D01*
X16104Y-64384D01*
X16066Y-64346D01*
X16104Y-64308D01*
X16104Y-64384D01*
X16866Y-63584D02*
X16485Y-63584D01*
X16447Y-63965D01*
X16485Y-63927D01*
X16562Y-63889D01*
X16752Y-63889D01*
X16828Y-63927D01*
X16866Y-63965D01*
X16905Y-64041D01*
X16905Y-64231D01*
X16866Y-64308D01*
X16828Y-64346D01*
X16752Y-64384D01*
X16562Y-64384D01*
X16485Y-64346D01*
X16447Y-64308D01*
X17209Y-63660D02*
X17247Y-63622D01*
X17324Y-63584D01*
X17514Y-63584D01*
X17590Y-63622D01*
X17628Y-63660D01*
X17667Y-63736D01*
X17667Y-63812D01*
X17628Y-63927D01*
X17171Y-64384D01*
X17667Y-64384D01*
X18009Y-64384D02*
X18009Y-63850D01*
X18009Y-63927D02*
X18048Y-63889D01*
X18124Y-63850D01*
X18238Y-63850D01*
X18314Y-63889D01*
X18352Y-63965D01*
X18352Y-64384D01*
X18352Y-63965D02*
X18390Y-63889D01*
X18467Y-63850D01*
X18581Y-63850D01*
X18657Y-63889D01*
X18695Y-63965D01*
X18695Y-64384D01*
X19076Y-64384D02*
X19076Y-63850D01*
X19076Y-63927D02*
X19115Y-63889D01*
X19191Y-63850D01*
X19305Y-63850D01*
X19381Y-63889D01*
X19419Y-63965D01*
X19419Y-64384D01*
X19419Y-63965D02*
X19457Y-63889D01*
X19534Y-63850D01*
X19648Y-63850D01*
X19724Y-63889D01*
X19762Y-63965D01*
X19762Y-64384D01*
X20982Y-64689D02*
X20944Y-64650D01*
X20868Y-64536D01*
X20830Y-64460D01*
X20792Y-64346D01*
X20753Y-64155D01*
X20753Y-64003D01*
X20792Y-63812D01*
X20830Y-63698D01*
X20868Y-63622D01*
X20944Y-63508D01*
X20982Y-63470D01*
X21629Y-63584D02*
X21477Y-63584D01*
X21401Y-63622D01*
X21363Y-63660D01*
X21286Y-63774D01*
X21248Y-63927D01*
X21248Y-64231D01*
X21286Y-64308D01*
X21325Y-64346D01*
X21401Y-64384D01*
X21553Y-64384D01*
X21629Y-64346D01*
X21667Y-64308D01*
X21706Y-64231D01*
X21706Y-64041D01*
X21667Y-63965D01*
X21629Y-63927D01*
X21553Y-63889D01*
X21401Y-63889D01*
X21325Y-63927D01*
X21286Y-63965D01*
X21248Y-64041D01*
X22658Y-64384D02*
X22658Y-63584D01*
X23001Y-64384D02*
X23001Y-63965D01*
X22963Y-63889D01*
X22887Y-63850D01*
X22773Y-63850D01*
X22697Y-63889D01*
X22658Y-63927D01*
X23497Y-64384D02*
X23421Y-64346D01*
X23382Y-64308D01*
X23344Y-64231D01*
X23344Y-64003D01*
X23382Y-63927D01*
X23421Y-63889D01*
X23497Y-63850D01*
X23611Y-63850D01*
X23687Y-63889D01*
X23725Y-63927D01*
X23763Y-64003D01*
X23763Y-64231D01*
X23725Y-64308D01*
X23687Y-64346D01*
X23611Y-64384D01*
X23497Y-64384D01*
X24221Y-64384D02*
X24145Y-64346D01*
X24106Y-64270D01*
X24106Y-63584D01*
X24830Y-64346D02*
X24754Y-64384D01*
X24602Y-64384D01*
X24525Y-64346D01*
X24487Y-64270D01*
X24487Y-63965D01*
X24525Y-63889D01*
X24602Y-63850D01*
X24754Y-63850D01*
X24830Y-63889D01*
X24868Y-63965D01*
X24868Y-64041D01*
X24487Y-64117D01*
X25173Y-64346D02*
X25250Y-64384D01*
X25402Y-64384D01*
X25478Y-64346D01*
X25516Y-64270D01*
X25516Y-64231D01*
X25478Y-64155D01*
X25402Y-64117D01*
X25288Y-64117D01*
X25211Y-64079D01*
X25173Y-64003D01*
X25173Y-63965D01*
X25211Y-63889D01*
X25288Y-63850D01*
X25402Y-63850D01*
X25478Y-63889D01*
X25783Y-64689D02*
X25821Y-64650D01*
X25898Y-64536D01*
X25936Y-64460D01*
X25974Y-64346D01*
X26012Y-64155D01*
X26012Y-64003D01*
X25974Y-63812D01*
X25936Y-63698D01*
X25898Y-63622D01*
X25821Y-63508D01*
X25783Y-63470D01*
G54D10*
X08854Y-65115D02*
X08842Y-65229D01*
X08809Y-65339D01*
X08755Y-65441D01*
X08682Y-65530D01*
X08593Y-65604D01*
X08492Y-65658D01*
X08382Y-65692D01*
X08268Y-65704D01*
X08154Y-65694D01*
X08043Y-65662D01*
X07941Y-65608D01*
X07852Y-65536D01*
X07778Y-65448D01*
X07722Y-65347D01*
X07687Y-65237D01*
X07675Y-65123D01*
X07684Y-65009D01*
X07716Y-64898D01*
X07769Y-64796D01*
X07840Y-64706D01*
X07928Y-64631D01*
X08028Y-64575D01*
X08138Y-64539D01*
X08252Y-64526D01*
X08366Y-64534D01*
X08477Y-64565D01*
X08580Y-64617D01*
X08670Y-64688D01*
X08746Y-64775D01*
X08802Y-64876D01*
X08839Y-64985D01*
X08853Y-65099D01*
X08854Y-65115D01*
X08264Y-64525D02*
X08264Y-65705D01*
G54D12*
X09398Y-64639D02*
X09474Y-64639D01*
X09550Y-64677D01*
X09588Y-64715D01*
X09626Y-64791D01*
X09665Y-64944D01*
X09665Y-65134D01*
X09626Y-65286D01*
X09588Y-65363D01*
X09550Y-65401D01*
X09474Y-65439D01*
X09398Y-65439D01*
X09322Y-65401D01*
X09284Y-65363D01*
X09245Y-65286D01*
X09207Y-65134D01*
X09207Y-64944D01*
X09245Y-64791D01*
X09284Y-64715D01*
X09322Y-64677D01*
X09398Y-64639D01*
X10007Y-65363D02*
X10046Y-65401D01*
X10007Y-65439D01*
X09969Y-65401D01*
X10007Y-65363D01*
X10007Y-65439D01*
X10808Y-65439D02*
X10350Y-65439D01*
X10579Y-65439D02*
X10579Y-64639D01*
X10503Y-64753D01*
X10427Y-64829D01*
X10350Y-64867D01*
X11570Y-65439D02*
X11112Y-65439D01*
X11341Y-65439D02*
X11341Y-64639D01*
X11265Y-64753D01*
X11189Y-64829D01*
X11112Y-64867D01*
X12027Y-64982D02*
X11951Y-64944D01*
X11912Y-64905D01*
X11874Y-64829D01*
X11874Y-64791D01*
X11912Y-64715D01*
X11951Y-64677D01*
X12027Y-64639D01*
X12179Y-64639D01*
X12255Y-64677D01*
X12293Y-64715D01*
X12332Y-64791D01*
X12332Y-64829D01*
X12293Y-64905D01*
X12255Y-64944D01*
X12179Y-64982D01*
X12027Y-64982D01*
X11951Y-65020D01*
X11912Y-65058D01*
X11874Y-65134D01*
X11874Y-65286D01*
X11912Y-65363D01*
X11951Y-65401D01*
X12027Y-65439D01*
X12179Y-65439D01*
X12255Y-65401D01*
X12293Y-65363D01*
X12332Y-65286D01*
X12332Y-65134D01*
X12293Y-65058D01*
X12255Y-65020D01*
X12179Y-64982D01*
X12636Y-64639D02*
X12636Y-64791D01*
X12941Y-64639D02*
X12941Y-64791D01*
X14466Y-64601D02*
X13780Y-65629D01*
X15266Y-64639D02*
X15762Y-64639D01*
X15495Y-64944D01*
X15609Y-64944D01*
X15685Y-64982D01*
X15723Y-65020D01*
X15762Y-65096D01*
X15762Y-65286D01*
X15723Y-65363D01*
X15685Y-65401D01*
X15609Y-65439D01*
X15381Y-65439D01*
X15304Y-65401D01*
X15266Y-65363D01*
X16104Y-65363D02*
X16143Y-65401D01*
X16104Y-65439D01*
X16066Y-65401D01*
X16104Y-65363D01*
X16104Y-65439D01*
X16638Y-64639D02*
X16714Y-64639D01*
X16790Y-64677D01*
X16828Y-64715D01*
X16866Y-64791D01*
X16905Y-64944D01*
X16905Y-65134D01*
X16866Y-65286D01*
X16828Y-65363D01*
X16790Y-65401D01*
X16714Y-65439D01*
X16638Y-65439D01*
X16562Y-65401D01*
X16524Y-65363D01*
X16485Y-65286D01*
X16447Y-65134D01*
X16447Y-64944D01*
X16485Y-64791D01*
X16524Y-64715D01*
X16562Y-64677D01*
X16638Y-64639D01*
X17400Y-64639D02*
X17476Y-64639D01*
X17552Y-64677D01*
X17590Y-64715D01*
X17628Y-64791D01*
X17667Y-64944D01*
X17667Y-65134D01*
X17628Y-65286D01*
X17590Y-65363D01*
X17552Y-65401D01*
X17476Y-65439D01*
X17400Y-65439D01*
X17324Y-65401D01*
X17286Y-65363D01*
X17247Y-65286D01*
X17209Y-65134D01*
X17209Y-64944D01*
X17247Y-64791D01*
X17286Y-64715D01*
X17324Y-64677D01*
X17400Y-64639D01*
X18009Y-65439D02*
X18009Y-64905D01*
X18009Y-64982D02*
X18048Y-64944D01*
X18124Y-64905D01*
X18238Y-64905D01*
X18314Y-64944D01*
X18352Y-65020D01*
X18352Y-65439D01*
X18352Y-65020D02*
X18390Y-64944D01*
X18467Y-64905D01*
X18581Y-64905D01*
X18657Y-64944D01*
X18695Y-65020D01*
X18695Y-65439D01*
X19076Y-65439D02*
X19076Y-64905D01*
X19076Y-64982D02*
X19115Y-64944D01*
X19191Y-64905D01*
X19305Y-64905D01*
X19381Y-64944D01*
X19419Y-65020D01*
X19419Y-65439D01*
X19419Y-65020D02*
X19457Y-64944D01*
X19534Y-64905D01*
X19648Y-64905D01*
X19724Y-64944D01*
X19762Y-65020D01*
X19762Y-65439D01*
X20982Y-65744D02*
X20944Y-65705D01*
X20868Y-65591D01*
X20830Y-65515D01*
X20792Y-65401D01*
X20753Y-65210D01*
X20753Y-65058D01*
X20792Y-64867D01*
X20830Y-64753D01*
X20868Y-64677D01*
X20944Y-64563D01*
X20982Y-64525D01*
X21210Y-64639D02*
X21744Y-64639D01*
X21401Y-65439D01*
X22658Y-65439D02*
X22658Y-64639D01*
X23001Y-65439D02*
X23001Y-65020D01*
X22963Y-64944D01*
X22887Y-64905D01*
X22773Y-64905D01*
X22697Y-64944D01*
X22658Y-64982D01*
X23497Y-65439D02*
X23421Y-65401D01*
X23382Y-65363D01*
X23344Y-65286D01*
X23344Y-65058D01*
X23382Y-64982D01*
X23421Y-64944D01*
X23497Y-64905D01*
X23611Y-64905D01*
X23687Y-64944D01*
X23725Y-64982D01*
X23763Y-65058D01*
X23763Y-65286D01*
X23725Y-65363D01*
X23687Y-65401D01*
X23611Y-65439D01*
X23497Y-65439D01*
X24221Y-65439D02*
X24145Y-65401D01*
X24106Y-65325D01*
X24106Y-64639D01*
X24830Y-65401D02*
X24754Y-65439D01*
X24602Y-65439D01*
X24525Y-65401D01*
X24487Y-65325D01*
X24487Y-65020D01*
X24525Y-64944D01*
X24602Y-64905D01*
X24754Y-64905D01*
X24830Y-64944D01*
X24868Y-65020D01*
X24868Y-65096D01*
X24487Y-65172D01*
X25173Y-65401D02*
X25250Y-65439D01*
X25402Y-65439D01*
X25478Y-65401D01*
X25516Y-65325D01*
X25516Y-65286D01*
X25478Y-65210D01*
X25402Y-65172D01*
X25288Y-65172D01*
X25211Y-65134D01*
X25173Y-65058D01*
X25173Y-65020D01*
X25211Y-64944D01*
X25288Y-64905D01*
X25402Y-64905D01*
X25478Y-64944D01*
X25783Y-65744D02*
X25821Y-65705D01*
X25898Y-65591D01*
X25936Y-65515D01*
X25974Y-65401D01*
X26012Y-65210D01*
X26012Y-65058D01*
X25974Y-64867D01*
X25936Y-64753D01*
X25898Y-64677D01*
X25821Y-64563D01*
X25783Y-64525D01*
M02*
