G04 (created by PCBNEW-RS274X (2012-01-19 BZR 3256)-stable) date 12/03/2013 15:56:19*
G01*
G70*
G90*
%MOIN*%
G04 Gerber Fmt 3.4, Leading zero omitted, Abs format*
%FSLAX34Y34*%
G04 APERTURE LIST*
%ADD10C,0.006000*%
%ADD11C,0.012000*%
%ADD12C,0.215000*%
%ADD13R,0.085000X0.085000*%
%ADD14C,0.085000*%
%ADD15C,0.250000*%
%ADD16C,0.080000*%
%ADD17R,0.090000X0.090000*%
%ADD18C,0.090000*%
%ADD19C,0.070000*%
%ADD20R,0.075000X0.075000*%
%ADD21C,0.075000*%
%ADD22C,0.150000*%
%ADD23R,0.100000X0.100000*%
%ADD24C,0.100000*%
%ADD25C,0.060000*%
%ADD26C,0.030000*%
%ADD27C,0.010000*%
G04 APERTURE END LIST*
G54D10*
X04000Y-04000D02*
X113000Y-04000D01*
X113000Y-78670D01*
X04000Y-78670D01*
X04000Y-04000D01*
X04700Y-04700D02*
X112300Y-04700D01*
X112300Y-77970D01*
X04700Y-77970D01*
X04700Y-04700D01*
X25800Y-04000D02*
X25800Y-04700D01*
X15043Y-04552D02*
X14757Y-04552D01*
X14900Y-04552D02*
X14900Y-04052D01*
X14852Y-04124D01*
X14805Y-04171D01*
X14757Y-04195D01*
X25800Y-78670D02*
X25800Y-77970D01*
X15043Y-78522D02*
X14757Y-78522D01*
X14900Y-78522D02*
X14900Y-78022D01*
X14852Y-78094D01*
X14805Y-78141D01*
X14757Y-78165D01*
X47600Y-04000D02*
X47600Y-04700D01*
X36557Y-04100D02*
X36581Y-04076D01*
X36629Y-04052D01*
X36748Y-04052D01*
X36795Y-04076D01*
X36819Y-04100D01*
X36843Y-04148D01*
X36843Y-04195D01*
X36819Y-04267D01*
X36533Y-04552D01*
X36843Y-04552D01*
X47600Y-78670D02*
X47600Y-77970D01*
X36557Y-78070D02*
X36581Y-78046D01*
X36629Y-78022D01*
X36748Y-78022D01*
X36795Y-78046D01*
X36819Y-78070D01*
X36843Y-78118D01*
X36843Y-78165D01*
X36819Y-78237D01*
X36533Y-78522D01*
X36843Y-78522D01*
X69400Y-04000D02*
X69400Y-04700D01*
X58333Y-04052D02*
X58643Y-04052D01*
X58476Y-04243D01*
X58548Y-04243D01*
X58595Y-04267D01*
X58619Y-04290D01*
X58643Y-04338D01*
X58643Y-04457D01*
X58619Y-04505D01*
X58595Y-04529D01*
X58548Y-04552D01*
X58405Y-04552D01*
X58357Y-04529D01*
X58333Y-04505D01*
X69400Y-78670D02*
X69400Y-77970D01*
X58333Y-78022D02*
X58643Y-78022D01*
X58476Y-78213D01*
X58548Y-78213D01*
X58595Y-78237D01*
X58619Y-78260D01*
X58643Y-78308D01*
X58643Y-78427D01*
X58619Y-78475D01*
X58595Y-78499D01*
X58548Y-78522D01*
X58405Y-78522D01*
X58357Y-78499D01*
X58333Y-78475D01*
X91200Y-04000D02*
X91200Y-04700D01*
X80395Y-04219D02*
X80395Y-04552D01*
X80276Y-04029D02*
X80157Y-04386D01*
X80467Y-04386D01*
X91200Y-78670D02*
X91200Y-77970D01*
X80395Y-78189D02*
X80395Y-78522D01*
X80276Y-77999D02*
X80157Y-78356D01*
X80467Y-78356D01*
X102219Y-04052D02*
X101981Y-04052D01*
X101957Y-04290D01*
X101981Y-04267D01*
X102029Y-04243D01*
X102148Y-04243D01*
X102195Y-04267D01*
X102219Y-04290D01*
X102243Y-04338D01*
X102243Y-04457D01*
X102219Y-04505D01*
X102195Y-04529D01*
X102148Y-04552D01*
X102029Y-04552D01*
X101981Y-04529D01*
X101957Y-04505D01*
X102219Y-78022D02*
X101981Y-78022D01*
X101957Y-78260D01*
X101981Y-78237D01*
X102029Y-78213D01*
X102148Y-78213D01*
X102195Y-78237D01*
X102219Y-78260D01*
X102243Y-78308D01*
X102243Y-78427D01*
X102219Y-78475D01*
X102195Y-78499D01*
X102148Y-78522D01*
X102029Y-78522D01*
X101981Y-78499D01*
X101957Y-78475D01*
X04000Y-28890D02*
X04700Y-28890D01*
X04231Y-16510D02*
X04469Y-16510D01*
X04184Y-16652D02*
X04350Y-16152D01*
X04517Y-16652D01*
X113000Y-28890D02*
X112300Y-28890D01*
X112531Y-16510D02*
X112769Y-16510D01*
X112484Y-16652D02*
X112650Y-16152D01*
X112817Y-16652D01*
X04000Y-53780D02*
X04700Y-53780D01*
X04386Y-41280D02*
X04457Y-41304D01*
X04481Y-41328D01*
X04505Y-41376D01*
X04505Y-41447D01*
X04481Y-41495D01*
X04457Y-41519D01*
X04410Y-41542D01*
X04219Y-41542D01*
X04219Y-41042D01*
X04386Y-41042D01*
X04433Y-41066D01*
X04457Y-41090D01*
X04481Y-41138D01*
X04481Y-41185D01*
X04457Y-41233D01*
X04433Y-41257D01*
X04386Y-41280D01*
X04219Y-41280D01*
X113000Y-53780D02*
X112300Y-53780D01*
X112686Y-41280D02*
X112757Y-41304D01*
X112781Y-41328D01*
X112805Y-41376D01*
X112805Y-41447D01*
X112781Y-41495D01*
X112757Y-41519D01*
X112710Y-41542D01*
X112519Y-41542D01*
X112519Y-41042D01*
X112686Y-41042D01*
X112733Y-41066D01*
X112757Y-41090D01*
X112781Y-41138D01*
X112781Y-41185D01*
X112757Y-41233D01*
X112733Y-41257D01*
X112686Y-41280D01*
X112519Y-41280D01*
X04505Y-66385D02*
X04481Y-66409D01*
X04410Y-66432D01*
X04362Y-66432D01*
X04290Y-66409D01*
X04243Y-66361D01*
X04219Y-66313D01*
X04195Y-66218D01*
X04195Y-66147D01*
X04219Y-66051D01*
X04243Y-66004D01*
X04290Y-65956D01*
X04362Y-65932D01*
X04410Y-65932D01*
X04481Y-65956D01*
X04505Y-65980D01*
X112805Y-66385D02*
X112781Y-66409D01*
X112710Y-66432D01*
X112662Y-66432D01*
X112590Y-66409D01*
X112543Y-66361D01*
X112519Y-66313D01*
X112495Y-66218D01*
X112495Y-66147D01*
X112519Y-66051D01*
X112543Y-66004D01*
X112590Y-65956D01*
X112662Y-65932D01*
X112710Y-65932D01*
X112781Y-65956D01*
X112805Y-65980D01*
G54D11*
X79443Y-76413D02*
X79443Y-75813D01*
X79586Y-75813D01*
X79671Y-75841D01*
X79729Y-75899D01*
X79757Y-75956D01*
X79786Y-76070D01*
X79786Y-76156D01*
X79757Y-76270D01*
X79729Y-76327D01*
X79671Y-76384D01*
X79586Y-76413D01*
X79443Y-76413D01*
X80300Y-76413D02*
X80300Y-76099D01*
X80271Y-76041D01*
X80214Y-76013D01*
X80100Y-76013D01*
X80043Y-76041D01*
X80300Y-76384D02*
X80243Y-76413D01*
X80100Y-76413D01*
X80043Y-76384D01*
X80014Y-76327D01*
X80014Y-76270D01*
X80043Y-76213D01*
X80100Y-76184D01*
X80243Y-76184D01*
X80300Y-76156D01*
X80500Y-76013D02*
X80729Y-76013D01*
X80586Y-75813D02*
X80586Y-76327D01*
X80614Y-76384D01*
X80672Y-76413D01*
X80729Y-76413D01*
X81157Y-76384D02*
X81100Y-76413D01*
X80986Y-76413D01*
X80929Y-76384D01*
X80900Y-76327D01*
X80900Y-76099D01*
X80929Y-76041D01*
X80986Y-76013D01*
X81100Y-76013D01*
X81157Y-76041D01*
X81186Y-76099D01*
X81186Y-76156D01*
X80900Y-76213D01*
X81443Y-76356D02*
X81471Y-76384D01*
X81443Y-76413D01*
X81414Y-76384D01*
X81443Y-76356D01*
X81443Y-76413D01*
X81443Y-76041D02*
X81471Y-76070D01*
X81443Y-76099D01*
X81414Y-76070D01*
X81443Y-76041D01*
X81443Y-76099D01*
X82500Y-76413D02*
X82157Y-76413D01*
X82329Y-76413D02*
X82329Y-75813D01*
X82272Y-75899D01*
X82214Y-75956D01*
X82157Y-75984D01*
X82728Y-75870D02*
X82757Y-75841D01*
X82814Y-75813D01*
X82957Y-75813D01*
X83014Y-75841D01*
X83043Y-75870D01*
X83071Y-75927D01*
X83071Y-75984D01*
X83043Y-76070D01*
X82700Y-76413D01*
X83071Y-76413D01*
X83785Y-76413D02*
X83785Y-76013D01*
X83785Y-76070D02*
X83813Y-76041D01*
X83871Y-76013D01*
X83956Y-76013D01*
X84013Y-76041D01*
X84042Y-76099D01*
X84042Y-76413D01*
X84042Y-76099D02*
X84071Y-76041D01*
X84128Y-76013D01*
X84213Y-76013D01*
X84271Y-76041D01*
X84299Y-76099D01*
X84299Y-76413D01*
X84842Y-76413D02*
X84842Y-76099D01*
X84813Y-76041D01*
X84756Y-76013D01*
X84642Y-76013D01*
X84585Y-76041D01*
X84842Y-76384D02*
X84785Y-76413D01*
X84642Y-76413D01*
X84585Y-76384D01*
X84556Y-76327D01*
X84556Y-76270D01*
X84585Y-76213D01*
X84642Y-76184D01*
X84785Y-76184D01*
X84842Y-76156D01*
X85128Y-76413D02*
X85128Y-76013D01*
X85128Y-76127D02*
X85156Y-76070D01*
X85185Y-76041D01*
X85242Y-76013D01*
X85299Y-76013D01*
X85927Y-75870D02*
X85956Y-75841D01*
X86013Y-75813D01*
X86156Y-75813D01*
X86213Y-75841D01*
X86242Y-75870D01*
X86270Y-75927D01*
X86270Y-75984D01*
X86242Y-76070D01*
X85899Y-76413D01*
X86270Y-76413D01*
X86641Y-75813D02*
X86698Y-75813D01*
X86755Y-75841D01*
X86784Y-75870D01*
X86813Y-75927D01*
X86841Y-76041D01*
X86841Y-76184D01*
X86813Y-76299D01*
X86784Y-76356D01*
X86755Y-76384D01*
X86698Y-76413D01*
X86641Y-76413D01*
X86584Y-76384D01*
X86555Y-76356D01*
X86527Y-76299D01*
X86498Y-76184D01*
X86498Y-76041D01*
X86527Y-75927D01*
X86555Y-75870D01*
X86584Y-75841D01*
X86641Y-75813D01*
X87412Y-76413D02*
X87069Y-76413D01*
X87241Y-76413D02*
X87241Y-75813D01*
X87184Y-75899D01*
X87126Y-75956D01*
X87069Y-75984D01*
X87612Y-75813D02*
X87983Y-75813D01*
X87783Y-76041D01*
X87869Y-76041D01*
X87926Y-76070D01*
X87955Y-76099D01*
X87983Y-76156D01*
X87983Y-76299D01*
X87955Y-76356D01*
X87926Y-76384D01*
X87869Y-76413D01*
X87697Y-76413D01*
X87640Y-76384D01*
X87612Y-76356D01*
G54D10*
X71043Y-77613D02*
X71043Y-77013D01*
X71386Y-77613D02*
X71129Y-77270D01*
X71386Y-77013D02*
X71043Y-77356D01*
X71643Y-77613D02*
X71643Y-77213D01*
X71643Y-77013D02*
X71614Y-77041D01*
X71643Y-77070D01*
X71671Y-77041D01*
X71643Y-77013D01*
X71643Y-77070D01*
X72272Y-77556D02*
X72243Y-77584D01*
X72157Y-77613D01*
X72100Y-77613D01*
X72015Y-77584D01*
X71957Y-77527D01*
X71929Y-77470D01*
X71900Y-77356D01*
X71900Y-77270D01*
X71929Y-77156D01*
X71957Y-77099D01*
X72015Y-77041D01*
X72100Y-77013D01*
X72157Y-77013D01*
X72243Y-77041D01*
X72272Y-77070D01*
X72786Y-77613D02*
X72786Y-77299D01*
X72757Y-77241D01*
X72700Y-77213D01*
X72586Y-77213D01*
X72529Y-77241D01*
X72786Y-77584D02*
X72729Y-77613D01*
X72586Y-77613D01*
X72529Y-77584D01*
X72500Y-77527D01*
X72500Y-77470D01*
X72529Y-77413D01*
X72586Y-77384D01*
X72729Y-77384D01*
X72786Y-77356D01*
X73329Y-77613D02*
X73329Y-77013D01*
X73329Y-77584D02*
X73272Y-77613D01*
X73158Y-77613D01*
X73100Y-77584D01*
X73072Y-77556D01*
X73043Y-77499D01*
X73043Y-77327D01*
X73072Y-77270D01*
X73100Y-77241D01*
X73158Y-77213D01*
X73272Y-77213D01*
X73329Y-77241D01*
X74072Y-77299D02*
X74272Y-77299D01*
X74358Y-77613D02*
X74072Y-77613D01*
X74072Y-77013D01*
X74358Y-77013D01*
X74615Y-77556D02*
X74643Y-77584D01*
X74615Y-77613D01*
X74586Y-77584D01*
X74615Y-77556D01*
X74615Y-77613D01*
X74901Y-77613D02*
X74901Y-77013D01*
X75044Y-77013D01*
X75129Y-77041D01*
X75187Y-77099D01*
X75215Y-77156D01*
X75244Y-77270D01*
X75244Y-77356D01*
X75215Y-77470D01*
X75187Y-77527D01*
X75129Y-77584D01*
X75044Y-77613D01*
X74901Y-77613D01*
X75501Y-77556D02*
X75529Y-77584D01*
X75501Y-77613D01*
X75472Y-77584D01*
X75501Y-77556D01*
X75501Y-77613D01*
X75758Y-77441D02*
X76044Y-77441D01*
X75701Y-77613D02*
X75901Y-77013D01*
X76101Y-77613D01*
X76301Y-77556D02*
X76329Y-77584D01*
X76301Y-77613D01*
X76272Y-77584D01*
X76301Y-77556D01*
X76301Y-77613D01*
G54D11*
X104586Y-76413D02*
X104386Y-76127D01*
X104243Y-76413D02*
X104243Y-75813D01*
X104471Y-75813D01*
X104529Y-75841D01*
X104557Y-75870D01*
X104586Y-75927D01*
X104586Y-76013D01*
X104557Y-76070D01*
X104529Y-76099D01*
X104471Y-76127D01*
X104243Y-76127D01*
X105071Y-76384D02*
X105014Y-76413D01*
X104900Y-76413D01*
X104843Y-76384D01*
X104814Y-76327D01*
X104814Y-76099D01*
X104843Y-76041D01*
X104900Y-76013D01*
X105014Y-76013D01*
X105071Y-76041D01*
X105100Y-76099D01*
X105100Y-76156D01*
X104814Y-76213D01*
X105300Y-76013D02*
X105443Y-76413D01*
X105585Y-76013D01*
X105814Y-76356D02*
X105842Y-76384D01*
X105814Y-76413D01*
X105785Y-76384D01*
X105814Y-76356D01*
X105814Y-76413D01*
X105814Y-76041D02*
X105842Y-76070D01*
X105814Y-76099D01*
X105785Y-76070D01*
X105814Y-76041D01*
X105814Y-76099D01*
X106871Y-76413D02*
X106528Y-76413D01*
X106700Y-76413D02*
X106700Y-75813D01*
X106643Y-75899D01*
X106585Y-75956D01*
X106528Y-75984D01*
X107128Y-76356D02*
X107156Y-76384D01*
X107128Y-76413D01*
X107099Y-76384D01*
X107128Y-76356D01*
X107128Y-76413D01*
X107528Y-75813D02*
X107585Y-75813D01*
X107642Y-75841D01*
X107671Y-75870D01*
X107700Y-75927D01*
X107728Y-76041D01*
X107728Y-76184D01*
X107700Y-76299D01*
X107671Y-76356D01*
X107642Y-76384D01*
X107585Y-76413D01*
X107528Y-76413D01*
X107471Y-76384D01*
X107442Y-76356D01*
X107414Y-76299D01*
X107385Y-76184D01*
X107385Y-76041D01*
X107414Y-75927D01*
X107442Y-75870D01*
X107471Y-75841D01*
X107528Y-75813D01*
G54D10*
X71014Y-76384D02*
X71100Y-76413D01*
X71243Y-76413D01*
X71300Y-76384D01*
X71329Y-76356D01*
X71357Y-76299D01*
X71357Y-76241D01*
X71329Y-76184D01*
X71300Y-76156D01*
X71243Y-76127D01*
X71129Y-76099D01*
X71071Y-76070D01*
X71043Y-76041D01*
X71014Y-75984D01*
X71014Y-75927D01*
X71043Y-75870D01*
X71071Y-75841D01*
X71129Y-75813D01*
X71271Y-75813D01*
X71357Y-75841D01*
X71614Y-76413D02*
X71614Y-76013D01*
X71614Y-75813D02*
X71585Y-75841D01*
X71614Y-75870D01*
X71642Y-75841D01*
X71614Y-75813D01*
X71614Y-75870D01*
X71843Y-76013D02*
X72157Y-76013D01*
X71843Y-76413D01*
X72157Y-76413D01*
X72614Y-76384D02*
X72557Y-76413D01*
X72443Y-76413D01*
X72386Y-76384D01*
X72357Y-76327D01*
X72357Y-76099D01*
X72386Y-76041D01*
X72443Y-76013D01*
X72557Y-76013D01*
X72614Y-76041D01*
X72643Y-76099D01*
X72643Y-76156D01*
X72357Y-76213D01*
X72900Y-76356D02*
X72928Y-76384D01*
X72900Y-76413D01*
X72871Y-76384D01*
X72900Y-76356D01*
X72900Y-76413D01*
X72900Y-76041D02*
X72928Y-76070D01*
X72900Y-76099D01*
X72871Y-76070D01*
X72900Y-76041D01*
X72900Y-76099D01*
X73614Y-76241D02*
X73900Y-76241D01*
X73557Y-76413D02*
X73757Y-75813D01*
X73957Y-76413D01*
X74414Y-76013D02*
X74414Y-76413D01*
X74271Y-75784D02*
X74128Y-76213D01*
X74500Y-76213D01*
X104243Y-77613D02*
X104243Y-77013D01*
X104786Y-77613D02*
X104786Y-77013D01*
X104786Y-77584D02*
X104729Y-77613D01*
X104615Y-77613D01*
X104557Y-77584D01*
X104529Y-77556D01*
X104500Y-77499D01*
X104500Y-77327D01*
X104529Y-77270D01*
X104557Y-77241D01*
X104615Y-77213D01*
X104729Y-77213D01*
X104786Y-77241D01*
X105072Y-77556D02*
X105100Y-77584D01*
X105072Y-77613D01*
X105043Y-77584D01*
X105072Y-77556D01*
X105072Y-77613D01*
X105072Y-77241D02*
X105100Y-77270D01*
X105072Y-77299D01*
X105043Y-77270D01*
X105072Y-77241D01*
X105072Y-77299D01*
X106129Y-77613D02*
X105786Y-77613D01*
X105958Y-77613D02*
X105958Y-77013D01*
X105901Y-77099D01*
X105843Y-77156D01*
X105786Y-77184D01*
X106814Y-76984D02*
X106300Y-77756D01*
X107329Y-77613D02*
X106986Y-77613D01*
X107158Y-77613D02*
X107158Y-77013D01*
X107101Y-77099D01*
X107043Y-77156D01*
X106986Y-77184D01*
G54D11*
X70957Y-74613D02*
X71300Y-74613D01*
X71129Y-75213D02*
X71129Y-74613D01*
X71500Y-75213D02*
X71500Y-74813D01*
X71500Y-74613D02*
X71471Y-74641D01*
X71500Y-74670D01*
X71528Y-74641D01*
X71500Y-74613D01*
X71500Y-74670D01*
X71700Y-74813D02*
X71929Y-74813D01*
X71786Y-74613D02*
X71786Y-75127D01*
X71814Y-75184D01*
X71872Y-75213D01*
X71929Y-75213D01*
X72215Y-75213D02*
X72157Y-75184D01*
X72129Y-75127D01*
X72129Y-74613D01*
X72671Y-75184D02*
X72614Y-75213D01*
X72500Y-75213D01*
X72443Y-75184D01*
X72414Y-75127D01*
X72414Y-74899D01*
X72443Y-74841D01*
X72500Y-74813D01*
X72614Y-74813D01*
X72671Y-74841D01*
X72700Y-74899D01*
X72700Y-74956D01*
X72414Y-75013D01*
X72957Y-75156D02*
X72985Y-75184D01*
X72957Y-75213D01*
X72928Y-75184D01*
X72957Y-75156D01*
X72957Y-75213D01*
X72957Y-74841D02*
X72985Y-74870D01*
X72957Y-74899D01*
X72928Y-74870D01*
X72957Y-74841D01*
X72957Y-74899D01*
X74043Y-75156D02*
X74014Y-75184D01*
X73928Y-75213D01*
X73871Y-75213D01*
X73786Y-75184D01*
X73728Y-75127D01*
X73700Y-75070D01*
X73671Y-74956D01*
X73671Y-74870D01*
X73700Y-74756D01*
X73728Y-74699D01*
X73786Y-74641D01*
X73871Y-74613D01*
X73928Y-74613D01*
X74014Y-74641D01*
X74043Y-74670D01*
X74557Y-75213D02*
X74557Y-74899D01*
X74528Y-74841D01*
X74471Y-74813D01*
X74357Y-74813D01*
X74300Y-74841D01*
X74557Y-75184D02*
X74500Y-75213D01*
X74357Y-75213D01*
X74300Y-75184D01*
X74271Y-75127D01*
X74271Y-75070D01*
X74300Y-75013D01*
X74357Y-74984D01*
X74500Y-74984D01*
X74557Y-74956D01*
X74843Y-75213D02*
X74843Y-74813D01*
X74843Y-74927D02*
X74871Y-74870D01*
X74900Y-74841D01*
X74957Y-74813D01*
X75014Y-74813D01*
X75128Y-74813D02*
X75357Y-74813D01*
X75214Y-74613D02*
X75214Y-75127D01*
X75242Y-75184D01*
X75300Y-75213D01*
X75357Y-75213D01*
X75785Y-75184D02*
X75728Y-75213D01*
X75614Y-75213D01*
X75557Y-75184D01*
X75528Y-75127D01*
X75528Y-74899D01*
X75557Y-74841D01*
X75614Y-74813D01*
X75728Y-74813D01*
X75785Y-74841D01*
X75814Y-74899D01*
X75814Y-74956D01*
X75528Y-75013D01*
X75928Y-75270D02*
X76385Y-75270D01*
X76785Y-75213D02*
X76785Y-74899D01*
X76756Y-74841D01*
X76699Y-74813D01*
X76585Y-74813D01*
X76528Y-74841D01*
X76785Y-75184D02*
X76728Y-75213D01*
X76585Y-75213D01*
X76528Y-75184D01*
X76499Y-75127D01*
X76499Y-75070D01*
X76528Y-75013D01*
X76585Y-74984D01*
X76728Y-74984D01*
X76785Y-74956D01*
X77157Y-75213D02*
X77099Y-75184D01*
X77071Y-75127D01*
X77071Y-74613D01*
X77385Y-75213D02*
X77385Y-74813D01*
X77385Y-74613D02*
X77356Y-74641D01*
X77385Y-74670D01*
X77413Y-74641D01*
X77385Y-74613D01*
X77385Y-74670D01*
X77671Y-75213D02*
X77671Y-74813D01*
X77671Y-74870D02*
X77699Y-74841D01*
X77757Y-74813D01*
X77842Y-74813D01*
X77899Y-74841D01*
X77928Y-74899D01*
X77928Y-75213D01*
X77928Y-74899D02*
X77957Y-74841D01*
X78014Y-74813D01*
X78099Y-74813D01*
X78157Y-74841D01*
X78185Y-74899D01*
X78185Y-75213D01*
X78699Y-75184D02*
X78642Y-75213D01*
X78528Y-75213D01*
X78471Y-75184D01*
X78442Y-75127D01*
X78442Y-74899D01*
X78471Y-74841D01*
X78528Y-74813D01*
X78642Y-74813D01*
X78699Y-74841D01*
X78728Y-74899D01*
X78728Y-74956D01*
X78442Y-75013D01*
X78985Y-74813D02*
X78985Y-75213D01*
X78985Y-74870D02*
X79013Y-74841D01*
X79071Y-74813D01*
X79156Y-74813D01*
X79213Y-74841D01*
X79242Y-74899D01*
X79242Y-75213D01*
X79442Y-74813D02*
X79671Y-74813D01*
X79528Y-74613D02*
X79528Y-75127D01*
X79556Y-75184D01*
X79614Y-75213D01*
X79671Y-75213D01*
X80128Y-75213D02*
X80128Y-74899D01*
X80099Y-74841D01*
X80042Y-74813D01*
X79928Y-74813D01*
X79871Y-74841D01*
X80128Y-75184D02*
X80071Y-75213D01*
X79928Y-75213D01*
X79871Y-75184D01*
X79842Y-75127D01*
X79842Y-75070D01*
X79871Y-75013D01*
X79928Y-74984D01*
X80071Y-74984D01*
X80128Y-74956D01*
X80328Y-74813D02*
X80557Y-74813D01*
X80414Y-74613D02*
X80414Y-75127D01*
X80442Y-75184D01*
X80500Y-75213D01*
X80557Y-75213D01*
X80757Y-75213D02*
X80757Y-74813D01*
X80757Y-74613D02*
X80728Y-74641D01*
X80757Y-74670D01*
X80785Y-74641D01*
X80757Y-74613D01*
X80757Y-74670D01*
X81129Y-75213D02*
X81071Y-75184D01*
X81043Y-75156D01*
X81014Y-75099D01*
X81014Y-74927D01*
X81043Y-74870D01*
X81071Y-74841D01*
X81129Y-74813D01*
X81214Y-74813D01*
X81271Y-74841D01*
X81300Y-74870D01*
X81329Y-74927D01*
X81329Y-75099D01*
X81300Y-75156D01*
X81271Y-75184D01*
X81214Y-75213D01*
X81129Y-75213D01*
X81586Y-74813D02*
X81586Y-75213D01*
X81586Y-74870D02*
X81614Y-74841D01*
X81672Y-74813D01*
X81757Y-74813D01*
X81814Y-74841D01*
X81843Y-74899D01*
X81843Y-75213D01*
G54D10*
X71243Y-72499D02*
X71043Y-72499D01*
X71043Y-72813D02*
X71043Y-72213D01*
X71329Y-72213D01*
X71557Y-72813D02*
X71557Y-72413D01*
X71557Y-72213D02*
X71528Y-72241D01*
X71557Y-72270D01*
X71585Y-72241D01*
X71557Y-72213D01*
X71557Y-72270D01*
X71929Y-72813D02*
X71871Y-72784D01*
X71843Y-72727D01*
X71843Y-72213D01*
X72385Y-72784D02*
X72328Y-72813D01*
X72214Y-72813D01*
X72157Y-72784D01*
X72128Y-72727D01*
X72128Y-72499D01*
X72157Y-72441D01*
X72214Y-72413D01*
X72328Y-72413D01*
X72385Y-72441D01*
X72414Y-72499D01*
X72414Y-72556D01*
X72128Y-72613D01*
X72671Y-72756D02*
X72699Y-72784D01*
X72671Y-72813D01*
X72642Y-72784D01*
X72671Y-72756D01*
X72671Y-72813D01*
X72671Y-72441D02*
X72699Y-72470D01*
X72671Y-72499D01*
X72642Y-72470D01*
X72671Y-72441D01*
X72671Y-72499D01*
X73671Y-72784D02*
X73614Y-72813D01*
X73500Y-72813D01*
X73442Y-72784D01*
X73414Y-72756D01*
X73385Y-72699D01*
X73385Y-72527D01*
X73414Y-72470D01*
X73442Y-72441D01*
X73500Y-72413D01*
X73614Y-72413D01*
X73671Y-72441D01*
X74185Y-72813D02*
X74185Y-72499D01*
X74156Y-72441D01*
X74099Y-72413D01*
X73985Y-72413D01*
X73928Y-72441D01*
X74185Y-72784D02*
X74128Y-72813D01*
X73985Y-72813D01*
X73928Y-72784D01*
X73899Y-72727D01*
X73899Y-72670D01*
X73928Y-72613D01*
X73985Y-72584D01*
X74128Y-72584D01*
X74185Y-72556D01*
X74471Y-72813D02*
X74471Y-72413D01*
X74471Y-72527D02*
X74499Y-72470D01*
X74528Y-72441D01*
X74585Y-72413D01*
X74642Y-72413D01*
X74756Y-72413D02*
X74985Y-72413D01*
X74842Y-72213D02*
X74842Y-72727D01*
X74870Y-72784D01*
X74928Y-72813D01*
X74985Y-72813D01*
X75413Y-72784D02*
X75356Y-72813D01*
X75242Y-72813D01*
X75185Y-72784D01*
X75156Y-72727D01*
X75156Y-72499D01*
X75185Y-72441D01*
X75242Y-72413D01*
X75356Y-72413D01*
X75413Y-72441D01*
X75442Y-72499D01*
X75442Y-72556D01*
X75156Y-72613D01*
X75556Y-72870D02*
X76013Y-72870D01*
X76413Y-72813D02*
X76413Y-72499D01*
X76384Y-72441D01*
X76327Y-72413D01*
X76213Y-72413D01*
X76156Y-72441D01*
X76413Y-72784D02*
X76356Y-72813D01*
X76213Y-72813D01*
X76156Y-72784D01*
X76127Y-72727D01*
X76127Y-72670D01*
X76156Y-72613D01*
X76213Y-72584D01*
X76356Y-72584D01*
X76413Y-72556D01*
X76785Y-72813D02*
X76727Y-72784D01*
X76699Y-72727D01*
X76699Y-72213D01*
X77013Y-72813D02*
X77013Y-72413D01*
X77013Y-72213D02*
X76984Y-72241D01*
X77013Y-72270D01*
X77041Y-72241D01*
X77013Y-72213D01*
X77013Y-72270D01*
X77299Y-72813D02*
X77299Y-72413D01*
X77299Y-72470D02*
X77327Y-72441D01*
X77385Y-72413D01*
X77470Y-72413D01*
X77527Y-72441D01*
X77556Y-72499D01*
X77556Y-72813D01*
X77556Y-72499D02*
X77585Y-72441D01*
X77642Y-72413D01*
X77727Y-72413D01*
X77785Y-72441D01*
X77813Y-72499D01*
X77813Y-72813D01*
X78327Y-72784D02*
X78270Y-72813D01*
X78156Y-72813D01*
X78099Y-72784D01*
X78070Y-72727D01*
X78070Y-72499D01*
X78099Y-72441D01*
X78156Y-72413D01*
X78270Y-72413D01*
X78327Y-72441D01*
X78356Y-72499D01*
X78356Y-72556D01*
X78070Y-72613D01*
X78613Y-72413D02*
X78613Y-72813D01*
X78613Y-72470D02*
X78641Y-72441D01*
X78699Y-72413D01*
X78784Y-72413D01*
X78841Y-72441D01*
X78870Y-72499D01*
X78870Y-72813D01*
X79070Y-72413D02*
X79299Y-72413D01*
X79156Y-72213D02*
X79156Y-72727D01*
X79184Y-72784D01*
X79242Y-72813D01*
X79299Y-72813D01*
X79756Y-72813D02*
X79756Y-72499D01*
X79727Y-72441D01*
X79670Y-72413D01*
X79556Y-72413D01*
X79499Y-72441D01*
X79756Y-72784D02*
X79699Y-72813D01*
X79556Y-72813D01*
X79499Y-72784D01*
X79470Y-72727D01*
X79470Y-72670D01*
X79499Y-72613D01*
X79556Y-72584D01*
X79699Y-72584D01*
X79756Y-72556D01*
X79956Y-72413D02*
X80185Y-72413D01*
X80042Y-72213D02*
X80042Y-72727D01*
X80070Y-72784D01*
X80128Y-72813D01*
X80185Y-72813D01*
X80385Y-72813D02*
X80385Y-72413D01*
X80385Y-72213D02*
X80356Y-72241D01*
X80385Y-72270D01*
X80413Y-72241D01*
X80385Y-72213D01*
X80385Y-72270D01*
X80757Y-72813D02*
X80699Y-72784D01*
X80671Y-72756D01*
X80642Y-72699D01*
X80642Y-72527D01*
X80671Y-72470D01*
X80699Y-72441D01*
X80757Y-72413D01*
X80842Y-72413D01*
X80899Y-72441D01*
X80928Y-72470D01*
X80957Y-72527D01*
X80957Y-72699D01*
X80928Y-72756D01*
X80899Y-72784D01*
X80842Y-72813D01*
X80757Y-72813D01*
X81214Y-72413D02*
X81214Y-72813D01*
X81214Y-72470D02*
X81242Y-72441D01*
X81300Y-72413D01*
X81385Y-72413D01*
X81442Y-72441D01*
X81471Y-72499D01*
X81471Y-72813D01*
X81757Y-72756D02*
X81785Y-72784D01*
X81757Y-72813D01*
X81728Y-72784D01*
X81757Y-72756D01*
X81757Y-72813D01*
X82043Y-72813D02*
X82043Y-72213D01*
X82043Y-72441D02*
X82100Y-72413D01*
X82214Y-72413D01*
X82271Y-72441D01*
X82300Y-72470D01*
X82329Y-72527D01*
X82329Y-72699D01*
X82300Y-72756D01*
X82271Y-72784D01*
X82214Y-72813D01*
X82100Y-72813D01*
X82043Y-72784D01*
X82586Y-72813D02*
X82586Y-72413D01*
X82586Y-72527D02*
X82614Y-72470D01*
X82643Y-72441D01*
X82700Y-72413D01*
X82757Y-72413D01*
X83214Y-72813D02*
X83214Y-72213D01*
X83214Y-72784D02*
X83157Y-72813D01*
X83043Y-72813D01*
X82985Y-72784D01*
X82957Y-72756D01*
X82928Y-72699D01*
X82928Y-72527D01*
X82957Y-72470D01*
X82985Y-72441D01*
X83043Y-72413D01*
X83157Y-72413D01*
X83214Y-72441D01*
X71014Y-73984D02*
X71100Y-74013D01*
X71243Y-74013D01*
X71300Y-73984D01*
X71329Y-73956D01*
X71357Y-73899D01*
X71357Y-73841D01*
X71329Y-73784D01*
X71300Y-73756D01*
X71243Y-73727D01*
X71129Y-73699D01*
X71071Y-73670D01*
X71043Y-73641D01*
X71014Y-73584D01*
X71014Y-73527D01*
X71043Y-73470D01*
X71071Y-73441D01*
X71129Y-73413D01*
X71271Y-73413D01*
X71357Y-73441D01*
X71614Y-74013D02*
X71614Y-73413D01*
X71871Y-74013D02*
X71871Y-73699D01*
X71842Y-73641D01*
X71785Y-73613D01*
X71700Y-73613D01*
X71642Y-73641D01*
X71614Y-73670D01*
X72385Y-73984D02*
X72328Y-74013D01*
X72214Y-74013D01*
X72157Y-73984D01*
X72128Y-73927D01*
X72128Y-73699D01*
X72157Y-73641D01*
X72214Y-73613D01*
X72328Y-73613D01*
X72385Y-73641D01*
X72414Y-73699D01*
X72414Y-73756D01*
X72128Y-73813D01*
X72899Y-73984D02*
X72842Y-74013D01*
X72728Y-74013D01*
X72671Y-73984D01*
X72642Y-73927D01*
X72642Y-73699D01*
X72671Y-73641D01*
X72728Y-73613D01*
X72842Y-73613D01*
X72899Y-73641D01*
X72928Y-73699D01*
X72928Y-73756D01*
X72642Y-73813D01*
X73099Y-73613D02*
X73328Y-73613D01*
X73185Y-73413D02*
X73185Y-73927D01*
X73213Y-73984D01*
X73271Y-74013D01*
X73328Y-74013D01*
X73528Y-73956D02*
X73556Y-73984D01*
X73528Y-74013D01*
X73499Y-73984D01*
X73528Y-73956D01*
X73528Y-74013D01*
X73528Y-73641D02*
X73556Y-73670D01*
X73528Y-73699D01*
X73499Y-73670D01*
X73528Y-73641D01*
X73528Y-73699D01*
X74585Y-74013D02*
X74242Y-74013D01*
X74414Y-74013D02*
X74414Y-73413D01*
X74357Y-73499D01*
X74299Y-73556D01*
X74242Y-73584D01*
X75270Y-73384D02*
X74756Y-74156D01*
X75785Y-74013D02*
X75442Y-74013D01*
X75614Y-74013D02*
X75614Y-73413D01*
X75557Y-73499D01*
X75499Y-73556D01*
X75442Y-73584D01*
G54D11*
X71043Y-71299D02*
X71243Y-71299D01*
X71329Y-71613D02*
X71043Y-71613D01*
X71043Y-71013D01*
X71329Y-71013D01*
X71586Y-71613D02*
X71586Y-71013D01*
X71814Y-71013D01*
X71872Y-71041D01*
X71900Y-71070D01*
X71929Y-71127D01*
X71929Y-71213D01*
X71900Y-71270D01*
X71872Y-71299D01*
X71814Y-71327D01*
X71586Y-71327D01*
X72157Y-71584D02*
X72243Y-71613D01*
X72386Y-71613D01*
X72443Y-71584D01*
X72472Y-71556D01*
X72500Y-71499D01*
X72500Y-71441D01*
X72472Y-71384D01*
X72443Y-71356D01*
X72386Y-71327D01*
X72272Y-71299D01*
X72214Y-71270D01*
X72186Y-71241D01*
X72157Y-71184D01*
X72157Y-71127D01*
X72186Y-71070D01*
X72214Y-71041D01*
X72272Y-71013D01*
X72414Y-71013D01*
X72500Y-71041D01*
X72728Y-71441D02*
X73014Y-71441D01*
X72671Y-71613D02*
X72871Y-71013D01*
X73071Y-71613D01*
X73728Y-71384D02*
X74185Y-71384D01*
X74928Y-71613D02*
X74928Y-71013D01*
X74928Y-71299D02*
X75271Y-71299D01*
X75271Y-71613D02*
X75271Y-71013D01*
X75500Y-71213D02*
X75643Y-71613D01*
X75785Y-71213D02*
X75643Y-71613D01*
X75585Y-71756D01*
X75557Y-71784D01*
X75500Y-71813D01*
X76014Y-71213D02*
X76014Y-71813D01*
X76014Y-71241D02*
X76071Y-71213D01*
X76185Y-71213D01*
X76242Y-71241D01*
X76271Y-71270D01*
X76300Y-71327D01*
X76300Y-71499D01*
X76271Y-71556D01*
X76242Y-71584D01*
X76185Y-71613D01*
X76071Y-71613D01*
X76014Y-71584D01*
X76557Y-71213D02*
X76557Y-71613D01*
X76557Y-71270D02*
X76585Y-71241D01*
X76643Y-71213D01*
X76728Y-71213D01*
X76785Y-71241D01*
X76814Y-71299D01*
X76814Y-71613D01*
X77186Y-71613D02*
X77128Y-71584D01*
X77100Y-71556D01*
X77071Y-71499D01*
X77071Y-71327D01*
X77100Y-71270D01*
X77128Y-71241D01*
X77186Y-71213D01*
X77271Y-71213D01*
X77328Y-71241D01*
X77357Y-71270D01*
X77386Y-71327D01*
X77386Y-71499D01*
X77357Y-71556D01*
X77328Y-71584D01*
X77271Y-71613D01*
X77186Y-71613D01*
X77586Y-71213D02*
X77900Y-71213D01*
X77586Y-71613D01*
X77900Y-71613D01*
X70300Y-70770D02*
X70300Y-77970D01*
X70300Y-71970D02*
X112300Y-71970D01*
X70300Y-70770D02*
X112300Y-70770D01*
X70300Y-74370D02*
X112300Y-74370D01*
X103500Y-75570D02*
X103500Y-77970D01*
X70300Y-76770D02*
X112300Y-76770D01*
X70300Y-75570D02*
X112300Y-75570D01*
X76900Y-75570D02*
X76900Y-76770D01*
X24252Y-49899D02*
X24214Y-49928D01*
X24176Y-50014D01*
X24176Y-50071D01*
X24214Y-50156D01*
X24290Y-50214D01*
X24367Y-50242D01*
X24519Y-50271D01*
X24633Y-50271D01*
X24786Y-50242D01*
X24862Y-50214D01*
X24938Y-50156D01*
X24976Y-50071D01*
X24976Y-50014D01*
X24938Y-49928D01*
X24900Y-49899D01*
X24176Y-49385D02*
X24595Y-49385D01*
X24671Y-49414D01*
X24710Y-49471D01*
X24710Y-49585D01*
X24671Y-49642D01*
X24214Y-49385D02*
X24176Y-49442D01*
X24176Y-49585D01*
X24214Y-49642D01*
X24290Y-49671D01*
X24367Y-49671D01*
X24443Y-49642D01*
X24481Y-49585D01*
X24481Y-49442D01*
X24519Y-49385D01*
X24176Y-49099D02*
X24710Y-49099D01*
X24557Y-49099D02*
X24633Y-49071D01*
X24671Y-49042D01*
X24710Y-48985D01*
X24710Y-48928D01*
X24710Y-48814D02*
X24710Y-48585D01*
X24976Y-48728D02*
X24290Y-48728D01*
X24214Y-48700D01*
X24176Y-48642D01*
X24176Y-48585D01*
X24214Y-48157D02*
X24176Y-48214D01*
X24176Y-48328D01*
X24214Y-48385D01*
X24290Y-48414D01*
X24595Y-48414D01*
X24671Y-48385D01*
X24710Y-48328D01*
X24710Y-48214D01*
X24671Y-48157D01*
X24595Y-48128D01*
X24519Y-48128D01*
X24443Y-48414D01*
X24100Y-48014D02*
X24100Y-47557D01*
X24176Y-47157D02*
X24595Y-47157D01*
X24671Y-47186D01*
X24710Y-47243D01*
X24710Y-47357D01*
X24671Y-47414D01*
X24214Y-47157D02*
X24176Y-47214D01*
X24176Y-47357D01*
X24214Y-47414D01*
X24290Y-47443D01*
X24367Y-47443D01*
X24443Y-47414D01*
X24481Y-47357D01*
X24481Y-47214D01*
X24519Y-47157D01*
X24176Y-46785D02*
X24214Y-46843D01*
X24290Y-46871D01*
X24976Y-46871D01*
X24176Y-46557D02*
X24710Y-46557D01*
X24976Y-46557D02*
X24938Y-46586D01*
X24900Y-46557D01*
X24938Y-46529D01*
X24976Y-46557D01*
X24900Y-46557D01*
X24176Y-46271D02*
X24710Y-46271D01*
X24633Y-46271D02*
X24671Y-46243D01*
X24710Y-46185D01*
X24710Y-46100D01*
X24671Y-46043D01*
X24595Y-46014D01*
X24176Y-46014D01*
X24595Y-46014D02*
X24671Y-45985D01*
X24710Y-45928D01*
X24710Y-45843D01*
X24671Y-45785D01*
X24595Y-45757D01*
X24176Y-45757D01*
X24214Y-45243D02*
X24176Y-45300D01*
X24176Y-45414D01*
X24214Y-45471D01*
X24290Y-45500D01*
X24595Y-45500D01*
X24671Y-45471D01*
X24710Y-45414D01*
X24710Y-45300D01*
X24671Y-45243D01*
X24595Y-45214D01*
X24519Y-45214D01*
X24443Y-45500D01*
X24710Y-44957D02*
X24176Y-44957D01*
X24633Y-44957D02*
X24671Y-44929D01*
X24710Y-44871D01*
X24710Y-44786D01*
X24671Y-44729D01*
X24595Y-44700D01*
X24176Y-44700D01*
X24710Y-44500D02*
X24710Y-44271D01*
X24976Y-44414D02*
X24290Y-44414D01*
X24214Y-44386D01*
X24176Y-44328D01*
X24176Y-44271D01*
X24176Y-43814D02*
X24595Y-43814D01*
X24671Y-43843D01*
X24710Y-43900D01*
X24710Y-44014D01*
X24671Y-44071D01*
X24214Y-43814D02*
X24176Y-43871D01*
X24176Y-44014D01*
X24214Y-44071D01*
X24290Y-44100D01*
X24367Y-44100D01*
X24443Y-44071D01*
X24481Y-44014D01*
X24481Y-43871D01*
X24519Y-43814D01*
X24710Y-43614D02*
X24710Y-43385D01*
X24976Y-43528D02*
X24290Y-43528D01*
X24214Y-43500D01*
X24176Y-43442D01*
X24176Y-43385D01*
X24176Y-43185D02*
X24710Y-43185D01*
X24976Y-43185D02*
X24938Y-43214D01*
X24900Y-43185D01*
X24938Y-43157D01*
X24976Y-43185D01*
X24900Y-43185D01*
X24176Y-42813D02*
X24214Y-42871D01*
X24252Y-42899D01*
X24329Y-42928D01*
X24557Y-42928D01*
X24633Y-42899D01*
X24671Y-42871D01*
X24710Y-42813D01*
X24710Y-42728D01*
X24671Y-42671D01*
X24633Y-42642D01*
X24557Y-42613D01*
X24329Y-42613D01*
X24252Y-42642D01*
X24214Y-42671D01*
X24176Y-42728D01*
X24176Y-42813D01*
X24710Y-42356D02*
X24176Y-42356D01*
X24633Y-42356D02*
X24671Y-42328D01*
X24710Y-42270D01*
X24710Y-42185D01*
X24671Y-42128D01*
X24595Y-42099D01*
X24176Y-42099D01*
X24710Y-41413D02*
X24176Y-41270D01*
X24710Y-41128D01*
X24176Y-40585D02*
X24176Y-40928D01*
X24176Y-40756D02*
X24976Y-40756D01*
X24862Y-40813D01*
X24786Y-40871D01*
X24748Y-40928D01*
X24252Y-40328D02*
X24214Y-40300D01*
X24176Y-40328D01*
X24214Y-40357D01*
X24252Y-40328D01*
X24176Y-40328D01*
X24976Y-39928D02*
X24976Y-39871D01*
X24938Y-39814D01*
X24900Y-39785D01*
X24824Y-39756D01*
X24671Y-39728D01*
X24481Y-39728D01*
X24329Y-39756D01*
X24252Y-39785D01*
X24214Y-39814D01*
X24176Y-39871D01*
X24176Y-39928D01*
X24214Y-39985D01*
X24252Y-40014D01*
X24329Y-40042D01*
X24481Y-40071D01*
X24671Y-40071D01*
X24824Y-40042D01*
X24900Y-40014D01*
X24938Y-39985D01*
X24976Y-39928D01*
X23355Y-48400D02*
X23355Y-48200D01*
X22936Y-48114D02*
X22936Y-48400D01*
X23736Y-48400D01*
X23736Y-48114D01*
X22936Y-47857D02*
X23736Y-47857D01*
X23736Y-47629D01*
X23698Y-47571D01*
X23660Y-47543D01*
X23584Y-47514D01*
X23470Y-47514D01*
X23393Y-47543D01*
X23355Y-47571D01*
X23317Y-47629D01*
X23317Y-47857D01*
X22974Y-47286D02*
X22936Y-47200D01*
X22936Y-47057D01*
X22974Y-47000D01*
X23012Y-46971D01*
X23089Y-46943D01*
X23165Y-46943D01*
X23241Y-46971D01*
X23279Y-47000D01*
X23317Y-47057D01*
X23355Y-47171D01*
X23393Y-47229D01*
X23431Y-47257D01*
X23508Y-47286D01*
X23584Y-47286D01*
X23660Y-47257D01*
X23698Y-47229D01*
X23736Y-47171D01*
X23736Y-47029D01*
X23698Y-46943D01*
X23165Y-46715D02*
X23165Y-46429D01*
X22936Y-46772D02*
X23736Y-46572D01*
X22936Y-46372D01*
X23241Y-45715D02*
X23241Y-45258D01*
X22936Y-44515D02*
X23736Y-44515D01*
X23355Y-44515D02*
X23355Y-44172D01*
X22936Y-44172D02*
X23736Y-44172D01*
X23470Y-43943D02*
X22936Y-43800D01*
X23470Y-43658D02*
X22936Y-43800D01*
X22746Y-43858D01*
X22708Y-43886D01*
X22670Y-43943D01*
X23470Y-43429D02*
X22670Y-43429D01*
X23431Y-43429D02*
X23470Y-43372D01*
X23470Y-43258D01*
X23431Y-43201D01*
X23393Y-43172D01*
X23317Y-43143D01*
X23089Y-43143D01*
X23012Y-43172D01*
X22974Y-43201D01*
X22936Y-43258D01*
X22936Y-43372D01*
X22974Y-43429D01*
X23470Y-42886D02*
X22936Y-42886D01*
X23393Y-42886D02*
X23431Y-42858D01*
X23470Y-42800D01*
X23470Y-42715D01*
X23431Y-42658D01*
X23355Y-42629D01*
X22936Y-42629D01*
X22936Y-42257D02*
X22974Y-42315D01*
X23012Y-42343D01*
X23089Y-42372D01*
X23317Y-42372D01*
X23393Y-42343D01*
X23431Y-42315D01*
X23470Y-42257D01*
X23470Y-42172D01*
X23431Y-42115D01*
X23393Y-42086D01*
X23317Y-42057D01*
X23089Y-42057D01*
X23012Y-42086D01*
X22974Y-42115D01*
X22936Y-42172D01*
X22936Y-42257D01*
X23470Y-41857D02*
X23470Y-41543D01*
X22936Y-41857D01*
X22936Y-41543D01*
X22420Y-47799D02*
X22458Y-47770D01*
X22496Y-47713D01*
X22496Y-47570D01*
X22458Y-47513D01*
X22420Y-47484D01*
X22344Y-47456D01*
X22268Y-47456D01*
X22153Y-47484D01*
X21696Y-47827D01*
X21696Y-47456D01*
X21696Y-46885D02*
X21696Y-47228D01*
X21696Y-47056D02*
X22496Y-47056D01*
X22382Y-47113D01*
X22306Y-47171D01*
X22268Y-47228D01*
X22534Y-46200D02*
X21506Y-46714D01*
X22496Y-45885D02*
X22496Y-45828D01*
X22458Y-45771D01*
X22420Y-45742D01*
X22344Y-45713D01*
X22191Y-45685D01*
X22001Y-45685D01*
X21849Y-45713D01*
X21772Y-45742D01*
X21734Y-45771D01*
X21696Y-45828D01*
X21696Y-45885D01*
X21734Y-45942D01*
X21772Y-45971D01*
X21849Y-45999D01*
X22001Y-46028D01*
X22191Y-46028D01*
X22344Y-45999D01*
X22420Y-45971D01*
X22458Y-45942D01*
X22496Y-45885D01*
X22420Y-45457D02*
X22458Y-45428D01*
X22496Y-45371D01*
X22496Y-45228D01*
X22458Y-45171D01*
X22420Y-45142D01*
X22344Y-45114D01*
X22268Y-45114D01*
X22153Y-45142D01*
X21696Y-45485D01*
X21696Y-45114D01*
X22534Y-44429D02*
X21506Y-44943D01*
X22420Y-44257D02*
X22458Y-44228D01*
X22496Y-44171D01*
X22496Y-44028D01*
X22458Y-43971D01*
X22420Y-43942D01*
X22344Y-43914D01*
X22268Y-43914D01*
X22153Y-43942D01*
X21696Y-44285D01*
X21696Y-43914D01*
X22496Y-43543D02*
X22496Y-43486D01*
X22458Y-43429D01*
X22420Y-43400D01*
X22344Y-43371D01*
X22191Y-43343D01*
X22001Y-43343D01*
X21849Y-43371D01*
X21772Y-43400D01*
X21734Y-43429D01*
X21696Y-43486D01*
X21696Y-43543D01*
X21734Y-43600D01*
X21772Y-43629D01*
X21849Y-43657D01*
X22001Y-43686D01*
X22191Y-43686D01*
X22344Y-43657D01*
X22420Y-43629D01*
X22458Y-43600D01*
X22496Y-43543D01*
X21696Y-42772D02*
X21696Y-43115D01*
X21696Y-42943D02*
X22496Y-42943D01*
X22382Y-43000D01*
X22306Y-43058D01*
X22268Y-43115D01*
X22420Y-42544D02*
X22458Y-42515D01*
X22496Y-42458D01*
X22496Y-42315D01*
X22458Y-42258D01*
X22420Y-42229D01*
X22344Y-42201D01*
X22268Y-42201D01*
X22153Y-42229D01*
X21696Y-42572D01*
X21696Y-42201D01*
G54D12*
X30750Y-50000D03*
X41750Y-50000D03*
G54D13*
X34250Y-50500D03*
G54D14*
X34250Y-49500D03*
X35250Y-50500D03*
X35250Y-49500D03*
X36250Y-50500D03*
X36250Y-49500D03*
X37250Y-50500D03*
X37250Y-49500D03*
X38250Y-50500D03*
X38250Y-49500D03*
G54D12*
X41750Y-22500D03*
X30750Y-22500D03*
G54D13*
X38250Y-22000D03*
G54D14*
X38250Y-23000D03*
X37250Y-22000D03*
X37250Y-23000D03*
X36250Y-22000D03*
X36250Y-23000D03*
X35250Y-22000D03*
X35250Y-23000D03*
X34250Y-22000D03*
X34250Y-23000D03*
G54D15*
X50000Y-22500D03*
X50000Y-50000D03*
X22500Y-50000D03*
G54D16*
X27500Y-45500D03*
X31500Y-46500D03*
X27500Y-47500D03*
G54D17*
X30500Y-41250D03*
G54D18*
X33500Y-41250D03*
X33500Y-34754D03*
X33500Y-31998D03*
X30500Y-33376D03*
G54D19*
X39500Y-26250D03*
X36500Y-26250D03*
X36500Y-27250D03*
X39500Y-27250D03*
G54D20*
X22500Y-36500D03*
G54D21*
X22500Y-37500D03*
G54D20*
X50000Y-30250D03*
G54D21*
X50000Y-29250D03*
G54D20*
X50000Y-32250D03*
G54D21*
X50000Y-31250D03*
G54D22*
X26750Y-29000D03*
X26750Y-31000D03*
X26750Y-35000D03*
X26750Y-37000D03*
G54D17*
X38750Y-30250D03*
G54D18*
X38750Y-42250D03*
G54D17*
X44750Y-30250D03*
G54D18*
X44750Y-42250D03*
G54D20*
X50000Y-34250D03*
G54D21*
X50000Y-33250D03*
G54D20*
X50000Y-37750D03*
G54D21*
X50000Y-36750D03*
G54D20*
X50000Y-39750D03*
G54D21*
X50000Y-38750D03*
G54D20*
X50000Y-41750D03*
G54D21*
X50000Y-40750D03*
X30000Y-43500D03*
G54D20*
X34000Y-43500D03*
G54D23*
X22500Y-29000D03*
G54D24*
X22500Y-31000D03*
G54D18*
X35250Y-25000D03*
X37250Y-47000D03*
G54D19*
X33000Y-47000D03*
X39500Y-25000D03*
G54D18*
X32000Y-25250D03*
X38250Y-48000D03*
G54D25*
X27876Y-36000D02*
X30500Y-33376D01*
X26750Y-36000D02*
X27876Y-36000D01*
X26750Y-36000D02*
X23000Y-36000D01*
X23000Y-36000D02*
X22500Y-36500D01*
X26750Y-36000D02*
X26750Y-35000D01*
X26750Y-37000D02*
X26750Y-36000D01*
X48500Y-37750D02*
X48500Y-34250D01*
X48500Y-34250D02*
X48500Y-32250D01*
X48500Y-32250D02*
X48500Y-30250D01*
X48500Y-30250D02*
X44750Y-30250D01*
X50000Y-41750D02*
X48500Y-41750D01*
X38750Y-30250D02*
X44750Y-30250D01*
X38750Y-30250D02*
X35248Y-30250D01*
X35248Y-30250D02*
X35250Y-30248D01*
X48500Y-39750D02*
X48500Y-37750D01*
X35250Y-30248D02*
X33500Y-31998D01*
X36500Y-26250D02*
X35250Y-26250D01*
X35250Y-25000D02*
X35250Y-26250D01*
X50000Y-30250D02*
X48500Y-30250D01*
X27750Y-45250D02*
X37250Y-45250D01*
X50000Y-32250D02*
X48500Y-32250D01*
X37250Y-47000D02*
X37250Y-45250D01*
X27500Y-45500D02*
X27750Y-45250D01*
X48500Y-42750D02*
X48500Y-41750D01*
X48500Y-41750D02*
X48500Y-39750D01*
X46000Y-45250D02*
X48500Y-42750D01*
X50000Y-34250D02*
X48500Y-34250D01*
X50000Y-37750D02*
X48500Y-37750D01*
X50000Y-39750D02*
X48500Y-39750D01*
X35250Y-26250D02*
X35250Y-30248D01*
X37250Y-45250D02*
X46000Y-45250D01*
G54D26*
X32500Y-46500D02*
X33000Y-47000D01*
X31500Y-46500D02*
X32500Y-46500D01*
X39500Y-25000D02*
X39500Y-26250D01*
X39500Y-26250D02*
X39500Y-27250D01*
G54D25*
X50000Y-33250D02*
X51250Y-33250D01*
X50000Y-31250D02*
X51250Y-31250D01*
X50000Y-40750D02*
X50750Y-40750D01*
X51250Y-33250D02*
X51250Y-31250D01*
X51250Y-36750D02*
X51250Y-33250D01*
X51250Y-38750D02*
X51250Y-36750D01*
X51250Y-40250D02*
X51250Y-38750D01*
X50750Y-40750D02*
X51250Y-40250D01*
X50750Y-29250D02*
X51250Y-29750D01*
X50000Y-29250D02*
X50750Y-29250D01*
X50000Y-38750D02*
X51250Y-38750D01*
X51250Y-31250D02*
X51250Y-29750D01*
X50000Y-36750D02*
X51250Y-36750D01*
X28250Y-48250D02*
X29250Y-48250D01*
X32000Y-25250D02*
X32000Y-28500D01*
X27500Y-33000D02*
X24500Y-33000D01*
X24500Y-33000D02*
X22500Y-31000D01*
X29250Y-48250D02*
X29500Y-48000D01*
X29500Y-48000D02*
X38250Y-48000D01*
X27500Y-47500D02*
X28250Y-48250D01*
X32000Y-28500D02*
X27500Y-33000D01*
G54D26*
X31000Y-38750D02*
X33500Y-41250D01*
X34000Y-43500D02*
X34000Y-41750D01*
X34000Y-41750D02*
X33500Y-41250D01*
X23750Y-38750D02*
X22500Y-37500D01*
X23750Y-38750D02*
X31000Y-38750D01*
G54D25*
X26750Y-30000D02*
X25250Y-30000D01*
X24250Y-29000D02*
X22500Y-29000D01*
X25250Y-30000D02*
X24250Y-29000D01*
X26750Y-29000D02*
X26750Y-30000D01*
X26750Y-30000D02*
X26750Y-31000D01*
G54D10*
G36*
X50071Y-31250D02*
X50000Y-31321D01*
X49929Y-31250D01*
X50000Y-31179D01*
X50071Y-31250D01*
X50071Y-31250D01*
G37*
G54D27*
X50071Y-31250D02*
X50000Y-31321D01*
X49929Y-31250D01*
X50000Y-31179D01*
X50071Y-31250D01*
G54D10*
G36*
X50071Y-33250D02*
X50000Y-33321D01*
X49929Y-33250D01*
X50000Y-33179D01*
X50071Y-33250D01*
X50071Y-33250D01*
G37*
G54D27*
X50071Y-33250D02*
X50000Y-33321D01*
X49929Y-33250D01*
X50000Y-33179D01*
X50071Y-33250D01*
G54D10*
G36*
X50071Y-38750D02*
X50000Y-38821D01*
X49929Y-38750D01*
X50000Y-38679D01*
X50071Y-38750D01*
X50071Y-38750D01*
G37*
G54D27*
X50071Y-38750D02*
X50000Y-38821D01*
X49929Y-38750D01*
X50000Y-38679D01*
X50071Y-38750D01*
G54D10*
G36*
X50071Y-40750D02*
X50000Y-40821D01*
X49929Y-40750D01*
X50000Y-40679D01*
X50071Y-40750D01*
X50071Y-40750D01*
G37*
G54D27*
X50071Y-40750D02*
X50000Y-40821D01*
X49929Y-40750D01*
X50000Y-40679D01*
X50071Y-40750D01*
G54D10*
G36*
X52175Y-50865D02*
X51500Y-51540D01*
X51500Y-49853D01*
X51500Y-22353D01*
X51443Y-22064D01*
X51331Y-21792D01*
X51168Y-21547D01*
X50961Y-21339D01*
X50717Y-21174D01*
X50446Y-21060D01*
X50158Y-21001D01*
X49863Y-20999D01*
X49575Y-21054D01*
X49302Y-21164D01*
X49056Y-21325D01*
X48845Y-21531D01*
X48679Y-21774D01*
X48563Y-22044D01*
X48502Y-22332D01*
X48498Y-22626D01*
X48551Y-22915D01*
X48659Y-23189D01*
X48819Y-23436D01*
X49023Y-23648D01*
X49265Y-23816D01*
X49534Y-23933D01*
X49821Y-23997D01*
X50116Y-24003D01*
X50405Y-23952D01*
X50679Y-23845D01*
X50928Y-23688D01*
X51141Y-23485D01*
X51310Y-23245D01*
X51430Y-22976D01*
X51495Y-22689D01*
X51500Y-22353D01*
X51500Y-49853D01*
X51443Y-49564D01*
X51331Y-49292D01*
X51168Y-49047D01*
X50961Y-48839D01*
X50717Y-48674D01*
X50625Y-48635D01*
X50625Y-42152D01*
X50625Y-42103D01*
X50625Y-41351D01*
X50624Y-41345D01*
X50616Y-41303D01*
X50597Y-41258D01*
X50570Y-41217D01*
X50535Y-41182D01*
X50495Y-41154D01*
X50486Y-41150D01*
X50514Y-41123D01*
X50483Y-41092D01*
X50533Y-41075D01*
X50586Y-40966D01*
X50617Y-40848D01*
X50624Y-40726D01*
X50607Y-40605D01*
X50567Y-40490D01*
X50533Y-40425D01*
X50483Y-40407D01*
X50514Y-40377D01*
X50486Y-40349D01*
X50492Y-40347D01*
X50533Y-40320D01*
X50568Y-40285D01*
X50596Y-40245D01*
X50615Y-40200D01*
X50625Y-40152D01*
X50625Y-40103D01*
X50625Y-39351D01*
X50624Y-39345D01*
X50616Y-39303D01*
X50597Y-39258D01*
X50570Y-39217D01*
X50535Y-39182D01*
X50495Y-39154D01*
X50486Y-39150D01*
X50514Y-39123D01*
X50483Y-39092D01*
X50533Y-39075D01*
X50586Y-38966D01*
X50617Y-38848D01*
X50624Y-38726D01*
X50607Y-38605D01*
X50567Y-38490D01*
X50533Y-38425D01*
X50483Y-38407D01*
X50514Y-38377D01*
X50486Y-38349D01*
X50492Y-38347D01*
X50533Y-38320D01*
X50568Y-38285D01*
X50596Y-38245D01*
X50615Y-38200D01*
X50625Y-38152D01*
X50625Y-38103D01*
X50625Y-37351D01*
X50624Y-37345D01*
X50616Y-37303D01*
X50597Y-37258D01*
X50570Y-37217D01*
X50535Y-37182D01*
X50495Y-37154D01*
X50486Y-37150D01*
X50514Y-37123D01*
X50483Y-37092D01*
X50533Y-37075D01*
X50586Y-36966D01*
X50617Y-36848D01*
X50624Y-36726D01*
X50607Y-36605D01*
X50567Y-36490D01*
X50533Y-36425D01*
X50431Y-36389D01*
X50361Y-36459D01*
X50361Y-36319D01*
X50325Y-36217D01*
X50216Y-36164D01*
X50098Y-36133D01*
X49976Y-36126D01*
X49855Y-36143D01*
X49740Y-36183D01*
X49675Y-36217D01*
X49639Y-36319D01*
X50000Y-36679D01*
X50361Y-36319D01*
X50361Y-36459D01*
X50071Y-36750D01*
X50000Y-36821D01*
X49929Y-36750D01*
X49894Y-36715D01*
X49569Y-36389D01*
X49467Y-36425D01*
X49414Y-36534D01*
X49383Y-36652D01*
X49376Y-36774D01*
X49393Y-36895D01*
X49433Y-37010D01*
X49467Y-37075D01*
X49516Y-37092D01*
X49486Y-37123D01*
X49513Y-37150D01*
X49508Y-37153D01*
X49467Y-37180D01*
X49447Y-37200D01*
X49050Y-37200D01*
X49050Y-34800D01*
X49447Y-34800D01*
X49465Y-34818D01*
X49505Y-34846D01*
X49550Y-34865D01*
X49598Y-34875D01*
X49647Y-34875D01*
X50399Y-34875D01*
X50447Y-34866D01*
X50492Y-34847D01*
X50533Y-34820D01*
X50568Y-34785D01*
X50596Y-34745D01*
X50615Y-34700D01*
X50625Y-34652D01*
X50625Y-34603D01*
X50625Y-33851D01*
X50624Y-33845D01*
X50616Y-33803D01*
X50597Y-33758D01*
X50570Y-33717D01*
X50535Y-33682D01*
X50495Y-33654D01*
X50486Y-33650D01*
X50514Y-33623D01*
X50483Y-33592D01*
X50533Y-33575D01*
X50586Y-33466D01*
X50617Y-33348D01*
X50624Y-33226D01*
X50607Y-33105D01*
X50567Y-32990D01*
X50533Y-32925D01*
X50483Y-32907D01*
X50514Y-32877D01*
X50486Y-32849D01*
X50492Y-32847D01*
X50533Y-32820D01*
X50568Y-32785D01*
X50596Y-32745D01*
X50615Y-32700D01*
X50625Y-32652D01*
X50625Y-32603D01*
X50625Y-31851D01*
X50624Y-31845D01*
X50616Y-31803D01*
X50597Y-31758D01*
X50570Y-31717D01*
X50535Y-31682D01*
X50495Y-31654D01*
X50486Y-31650D01*
X50514Y-31623D01*
X50483Y-31592D01*
X50533Y-31575D01*
X50586Y-31466D01*
X50617Y-31348D01*
X50624Y-31226D01*
X50607Y-31105D01*
X50567Y-30990D01*
X50533Y-30925D01*
X50483Y-30907D01*
X50514Y-30877D01*
X50486Y-30849D01*
X50492Y-30847D01*
X50533Y-30820D01*
X50568Y-30785D01*
X50596Y-30745D01*
X50615Y-30700D01*
X50625Y-30652D01*
X50625Y-30603D01*
X50625Y-29851D01*
X50624Y-29845D01*
X50616Y-29803D01*
X50597Y-29758D01*
X50570Y-29717D01*
X50535Y-29682D01*
X50495Y-29654D01*
X50486Y-29650D01*
X50514Y-29623D01*
X50483Y-29592D01*
X50533Y-29575D01*
X50586Y-29466D01*
X50617Y-29348D01*
X50624Y-29226D01*
X50607Y-29105D01*
X50567Y-28990D01*
X50533Y-28925D01*
X50431Y-28889D01*
X50361Y-28959D01*
X50361Y-28819D01*
X50325Y-28717D01*
X50216Y-28664D01*
X50098Y-28633D01*
X49976Y-28626D01*
X49855Y-28643D01*
X49740Y-28683D01*
X49675Y-28717D01*
X49639Y-28819D01*
X50000Y-29179D01*
X50361Y-28819D01*
X50361Y-28959D01*
X50071Y-29250D01*
X50000Y-29321D01*
X49929Y-29250D01*
X49894Y-29215D01*
X49569Y-28889D01*
X49467Y-28925D01*
X49414Y-29034D01*
X49383Y-29152D01*
X49376Y-29274D01*
X49393Y-29395D01*
X49433Y-29510D01*
X49467Y-29575D01*
X49516Y-29592D01*
X49486Y-29623D01*
X49513Y-29650D01*
X49508Y-29653D01*
X49467Y-29680D01*
X49447Y-29700D01*
X48508Y-29700D01*
X48504Y-29700D01*
X48500Y-29700D01*
X45429Y-29700D01*
X45422Y-29683D01*
X45395Y-29642D01*
X45360Y-29607D01*
X45320Y-29579D01*
X45275Y-29560D01*
X45227Y-29550D01*
X45178Y-29550D01*
X44276Y-29550D01*
X44228Y-29559D01*
X44183Y-29578D01*
X44142Y-29605D01*
X44107Y-29640D01*
X44079Y-29680D01*
X44070Y-29700D01*
X43075Y-29700D01*
X43075Y-22370D01*
X43025Y-22115D01*
X42925Y-21875D01*
X42782Y-21658D01*
X42599Y-21474D01*
X42383Y-21329D01*
X42144Y-21228D01*
X41889Y-21176D01*
X41629Y-21174D01*
X41374Y-21223D01*
X41133Y-21320D01*
X40916Y-21462D01*
X40730Y-21644D01*
X40583Y-21859D01*
X40481Y-22098D01*
X40427Y-22352D01*
X40423Y-22611D01*
X40470Y-22867D01*
X40566Y-23109D01*
X40707Y-23327D01*
X40887Y-23514D01*
X41101Y-23662D01*
X41339Y-23766D01*
X41592Y-23822D01*
X41852Y-23827D01*
X42108Y-23782D01*
X42350Y-23688D01*
X42570Y-23549D01*
X42758Y-23370D01*
X42908Y-23158D01*
X43013Y-22920D01*
X43071Y-22667D01*
X43075Y-22370D01*
X43075Y-29700D01*
X40099Y-29700D01*
X40099Y-27191D01*
X40076Y-27076D01*
X40031Y-26967D01*
X39966Y-26869D01*
X39900Y-26803D01*
X39900Y-26696D01*
X39956Y-26643D01*
X40023Y-26547D01*
X40071Y-26440D01*
X40097Y-26325D01*
X40099Y-26191D01*
X40076Y-26076D01*
X40031Y-25967D01*
X39966Y-25869D01*
X39900Y-25803D01*
X39900Y-25446D01*
X39956Y-25393D01*
X40023Y-25297D01*
X40071Y-25190D01*
X40097Y-25075D01*
X40099Y-24941D01*
X40076Y-24826D01*
X40031Y-24717D01*
X39966Y-24619D01*
X39883Y-24536D01*
X39786Y-24470D01*
X39678Y-24425D01*
X39563Y-24401D01*
X39445Y-24401D01*
X39330Y-24423D01*
X39221Y-24467D01*
X39123Y-24531D01*
X39039Y-24613D01*
X38972Y-24710D01*
X38926Y-24818D01*
X38925Y-24822D01*
X38925Y-22934D01*
X38899Y-22804D01*
X38849Y-22682D01*
X38815Y-22631D01*
X38833Y-22620D01*
X38868Y-22585D01*
X38896Y-22545D01*
X38915Y-22500D01*
X38925Y-22452D01*
X38925Y-22403D01*
X38925Y-21551D01*
X38916Y-21503D01*
X38897Y-21458D01*
X38870Y-21417D01*
X38835Y-21382D01*
X38795Y-21354D01*
X38750Y-21335D01*
X38702Y-21325D01*
X38653Y-21325D01*
X37801Y-21325D01*
X37753Y-21334D01*
X37708Y-21353D01*
X37667Y-21380D01*
X37632Y-21415D01*
X37618Y-21434D01*
X37573Y-21403D01*
X37451Y-21352D01*
X37321Y-21326D01*
X37189Y-21325D01*
X37059Y-21349D01*
X36936Y-21399D01*
X36825Y-21471D01*
X36749Y-21545D01*
X36682Y-21478D01*
X36573Y-21403D01*
X36451Y-21352D01*
X36321Y-21326D01*
X36189Y-21325D01*
X36059Y-21349D01*
X35936Y-21399D01*
X35825Y-21471D01*
X35749Y-21545D01*
X35682Y-21478D01*
X35573Y-21403D01*
X35451Y-21352D01*
X35321Y-21326D01*
X35189Y-21325D01*
X35059Y-21349D01*
X34936Y-21399D01*
X34825Y-21471D01*
X34749Y-21545D01*
X34682Y-21478D01*
X34573Y-21403D01*
X34451Y-21352D01*
X34321Y-21326D01*
X34189Y-21325D01*
X34059Y-21349D01*
X33936Y-21399D01*
X33825Y-21471D01*
X33731Y-21564D01*
X33656Y-21673D01*
X33604Y-21795D01*
X33576Y-21924D01*
X33574Y-22057D01*
X33598Y-22187D01*
X33647Y-22310D01*
X33718Y-22421D01*
X33810Y-22516D01*
X33899Y-22578D01*
X34250Y-22929D01*
X34604Y-22574D01*
X34667Y-22535D01*
X34750Y-22454D01*
X34795Y-22500D01*
X34731Y-22564D01*
X34673Y-22647D01*
X34321Y-23000D01*
X34675Y-23354D01*
X34718Y-23421D01*
X34810Y-23516D01*
X34919Y-23592D01*
X35040Y-23645D01*
X35170Y-23673D01*
X35302Y-23676D01*
X35432Y-23653D01*
X35556Y-23605D01*
X35667Y-23535D01*
X35750Y-23454D01*
X35810Y-23516D01*
X35919Y-23592D01*
X36040Y-23645D01*
X36170Y-23673D01*
X36302Y-23676D01*
X36432Y-23653D01*
X36556Y-23605D01*
X36667Y-23535D01*
X36750Y-23454D01*
X36810Y-23516D01*
X36919Y-23592D01*
X37040Y-23645D01*
X37170Y-23673D01*
X37302Y-23676D01*
X37432Y-23653D01*
X37556Y-23605D01*
X37667Y-23535D01*
X37750Y-23454D01*
X37810Y-23516D01*
X37919Y-23592D01*
X38040Y-23645D01*
X38170Y-23673D01*
X38302Y-23676D01*
X38432Y-23653D01*
X38556Y-23605D01*
X38667Y-23535D01*
X38763Y-23443D01*
X38840Y-23335D01*
X38893Y-23214D01*
X38923Y-23085D01*
X38925Y-22934D01*
X38925Y-24822D01*
X38902Y-24933D01*
X38900Y-25051D01*
X38921Y-25166D01*
X38965Y-25275D01*
X39028Y-25374D01*
X39100Y-25448D01*
X39100Y-25803D01*
X39039Y-25863D01*
X38972Y-25960D01*
X38926Y-26068D01*
X38902Y-26183D01*
X38900Y-26301D01*
X38921Y-26416D01*
X38965Y-26525D01*
X39028Y-26624D01*
X39100Y-26698D01*
X39100Y-26803D01*
X39039Y-26863D01*
X38972Y-26960D01*
X38926Y-27068D01*
X38902Y-27183D01*
X38900Y-27301D01*
X38921Y-27416D01*
X38965Y-27525D01*
X39028Y-27624D01*
X39110Y-27709D01*
X39207Y-27776D01*
X39314Y-27823D01*
X39429Y-27848D01*
X39546Y-27850D01*
X39662Y-27830D01*
X39772Y-27787D01*
X39871Y-27724D01*
X39956Y-27643D01*
X40023Y-27547D01*
X40071Y-27440D01*
X40097Y-27325D01*
X40099Y-27191D01*
X40099Y-29700D01*
X39429Y-29700D01*
X39422Y-29683D01*
X39395Y-29642D01*
X39360Y-29607D01*
X39320Y-29579D01*
X39275Y-29560D01*
X39227Y-29550D01*
X39178Y-29550D01*
X38276Y-29550D01*
X38228Y-29559D01*
X38183Y-29578D01*
X38142Y-29605D01*
X38107Y-29640D01*
X38079Y-29680D01*
X38070Y-29700D01*
X37099Y-29700D01*
X37099Y-27225D01*
X37083Y-27110D01*
X37044Y-27000D01*
X37013Y-26940D01*
X36914Y-26907D01*
X36571Y-27250D01*
X36914Y-27593D01*
X37013Y-27560D01*
X37063Y-27455D01*
X37093Y-27342D01*
X37099Y-27225D01*
X37099Y-29700D01*
X36843Y-29700D01*
X36843Y-27664D01*
X36500Y-27321D01*
X36429Y-27392D01*
X36429Y-27250D01*
X36086Y-26907D01*
X35987Y-26940D01*
X35937Y-27045D01*
X35907Y-27158D01*
X35901Y-27275D01*
X35917Y-27390D01*
X35956Y-27500D01*
X35987Y-27560D01*
X36086Y-27593D01*
X36429Y-27250D01*
X36429Y-27392D01*
X36157Y-27664D01*
X36190Y-27763D01*
X36295Y-27813D01*
X36408Y-27843D01*
X36525Y-27849D01*
X36640Y-27833D01*
X36750Y-27794D01*
X36810Y-27763D01*
X36843Y-27664D01*
X36843Y-29700D01*
X35800Y-29700D01*
X35800Y-26800D01*
X36169Y-26800D01*
X36157Y-26836D01*
X36500Y-27179D01*
X36843Y-26836D01*
X36817Y-26758D01*
X36871Y-26724D01*
X36956Y-26643D01*
X37023Y-26547D01*
X37071Y-26440D01*
X37097Y-26325D01*
X37099Y-26191D01*
X37076Y-26076D01*
X37031Y-25967D01*
X36966Y-25869D01*
X36883Y-25786D01*
X36786Y-25720D01*
X36678Y-25675D01*
X36563Y-25651D01*
X36445Y-25651D01*
X36330Y-25673D01*
X36263Y-25700D01*
X35800Y-25700D01*
X35800Y-25434D01*
X35862Y-25347D01*
X35918Y-25222D01*
X35948Y-25088D01*
X35950Y-24931D01*
X35923Y-24796D01*
X35871Y-24669D01*
X35795Y-24555D01*
X35698Y-24458D01*
X35584Y-24381D01*
X35458Y-24328D01*
X35323Y-24300D01*
X35186Y-24300D01*
X35051Y-24325D01*
X34924Y-24377D01*
X34809Y-24452D01*
X34711Y-24548D01*
X34646Y-24642D01*
X34646Y-23467D01*
X34250Y-23071D01*
X34179Y-23142D01*
X34179Y-23000D01*
X33783Y-22604D01*
X33676Y-22645D01*
X33618Y-22764D01*
X33584Y-22891D01*
X33575Y-23023D01*
X33593Y-23153D01*
X33636Y-23278D01*
X33676Y-23355D01*
X33783Y-23396D01*
X34179Y-23000D01*
X34179Y-23142D01*
X33854Y-23467D01*
X33895Y-23574D01*
X34014Y-23632D01*
X34141Y-23666D01*
X34273Y-23675D01*
X34403Y-23657D01*
X34528Y-23614D01*
X34605Y-23574D01*
X34646Y-23467D01*
X34646Y-24642D01*
X34633Y-24661D01*
X34579Y-24788D01*
X34551Y-24922D01*
X34549Y-25059D01*
X34574Y-25194D01*
X34625Y-25322D01*
X34699Y-25437D01*
X34700Y-25438D01*
X34700Y-26242D01*
X34700Y-26246D01*
X34700Y-26250D01*
X34700Y-29992D01*
X34700Y-30000D01*
X34700Y-30020D01*
X33418Y-31301D01*
X33301Y-31323D01*
X33174Y-31375D01*
X33059Y-31450D01*
X32961Y-31546D01*
X32883Y-31659D01*
X32829Y-31786D01*
X32801Y-31920D01*
X32799Y-32057D01*
X32824Y-32192D01*
X32875Y-32320D01*
X32949Y-32435D01*
X33044Y-32534D01*
X33157Y-32612D01*
X33283Y-32667D01*
X33417Y-32696D01*
X33554Y-32699D01*
X33690Y-32675D01*
X33817Y-32626D01*
X33933Y-32552D01*
X34033Y-32457D01*
X34112Y-32345D01*
X34168Y-32220D01*
X34198Y-32086D01*
X34198Y-32077D01*
X35476Y-30800D01*
X38070Y-30800D01*
X38078Y-30817D01*
X38105Y-30858D01*
X38140Y-30893D01*
X38180Y-30921D01*
X38225Y-30940D01*
X38273Y-30950D01*
X38322Y-30950D01*
X39224Y-30950D01*
X39272Y-30941D01*
X39317Y-30922D01*
X39358Y-30895D01*
X39393Y-30860D01*
X39421Y-30820D01*
X39429Y-30800D01*
X44070Y-30800D01*
X44078Y-30817D01*
X44105Y-30858D01*
X44140Y-30893D01*
X44180Y-30921D01*
X44225Y-30940D01*
X44273Y-30950D01*
X44322Y-30950D01*
X45224Y-30950D01*
X45272Y-30941D01*
X45317Y-30922D01*
X45358Y-30895D01*
X45393Y-30860D01*
X45421Y-30820D01*
X45429Y-30800D01*
X47950Y-30800D01*
X47950Y-32242D01*
X47950Y-32246D01*
X47950Y-32250D01*
X47950Y-34242D01*
X47950Y-34246D01*
X47950Y-34250D01*
X47950Y-37742D01*
X47950Y-37746D01*
X47950Y-37750D01*
X47950Y-39742D01*
X47950Y-39746D01*
X47950Y-39750D01*
X47950Y-40992D01*
X47950Y-41000D01*
X47950Y-41742D01*
X47950Y-41746D01*
X47950Y-41750D01*
X47950Y-42522D01*
X45772Y-44700D01*
X45449Y-44700D01*
X45449Y-42229D01*
X45432Y-42094D01*
X45389Y-41964D01*
X45345Y-41880D01*
X45235Y-41836D01*
X45164Y-41907D01*
X45164Y-41765D01*
X45120Y-41655D01*
X44997Y-41595D01*
X44866Y-41560D01*
X44729Y-41551D01*
X44594Y-41568D01*
X44464Y-41611D01*
X44380Y-41655D01*
X44336Y-41765D01*
X44750Y-42179D01*
X45164Y-41765D01*
X45164Y-41907D01*
X44821Y-42250D01*
X45235Y-42664D01*
X45345Y-42620D01*
X45405Y-42497D01*
X45440Y-42366D01*
X45449Y-42229D01*
X45449Y-44700D01*
X45164Y-44700D01*
X45164Y-42735D01*
X44750Y-42321D01*
X44679Y-42392D01*
X44679Y-42250D01*
X44265Y-41836D01*
X44155Y-41880D01*
X44095Y-42003D01*
X44060Y-42134D01*
X44051Y-42271D01*
X44068Y-42406D01*
X44111Y-42536D01*
X44155Y-42620D01*
X44265Y-42664D01*
X44679Y-42250D01*
X44679Y-42392D01*
X44336Y-42735D01*
X44380Y-42845D01*
X44503Y-42905D01*
X44634Y-42940D01*
X44771Y-42949D01*
X44906Y-42932D01*
X45036Y-42889D01*
X45120Y-42845D01*
X45164Y-42735D01*
X45164Y-44700D01*
X42258Y-44700D01*
X42250Y-44700D01*
X39449Y-44700D01*
X39449Y-42229D01*
X39432Y-42094D01*
X39389Y-41964D01*
X39345Y-41880D01*
X39235Y-41836D01*
X39164Y-41907D01*
X39164Y-41765D01*
X39120Y-41655D01*
X38997Y-41595D01*
X38866Y-41560D01*
X38729Y-41551D01*
X38594Y-41568D01*
X38464Y-41611D01*
X38380Y-41655D01*
X38336Y-41765D01*
X38750Y-42179D01*
X39164Y-41765D01*
X39164Y-41907D01*
X38821Y-42250D01*
X39235Y-42664D01*
X39345Y-42620D01*
X39405Y-42497D01*
X39440Y-42366D01*
X39449Y-42229D01*
X39449Y-44700D01*
X39164Y-44700D01*
X39164Y-42735D01*
X38750Y-42321D01*
X38679Y-42392D01*
X38679Y-42250D01*
X38265Y-41836D01*
X38155Y-41880D01*
X38095Y-42003D01*
X38060Y-42134D01*
X38051Y-42271D01*
X38068Y-42406D01*
X38111Y-42536D01*
X38155Y-42620D01*
X38265Y-42664D01*
X38679Y-42250D01*
X38679Y-42392D01*
X38336Y-42735D01*
X38380Y-42845D01*
X38503Y-42905D01*
X38634Y-42940D01*
X38771Y-42949D01*
X38906Y-42932D01*
X39036Y-42889D01*
X39120Y-42845D01*
X39164Y-42735D01*
X39164Y-44700D01*
X37508Y-44700D01*
X37500Y-44700D01*
X37258Y-44700D01*
X37254Y-44700D01*
X37250Y-44700D01*
X34625Y-44700D01*
X34625Y-43902D01*
X34625Y-43853D01*
X34625Y-43101D01*
X34616Y-43053D01*
X34597Y-43008D01*
X34570Y-42967D01*
X34535Y-42932D01*
X34495Y-42904D01*
X34450Y-42885D01*
X34402Y-42875D01*
X34400Y-42875D01*
X34400Y-41754D01*
X34400Y-41750D01*
X34397Y-41722D01*
X34393Y-41676D01*
X34392Y-41672D01*
X34389Y-41665D01*
X34372Y-41601D01*
X34370Y-41598D01*
X34335Y-41532D01*
X34333Y-41530D01*
X34333Y-41529D01*
X34315Y-41507D01*
X34287Y-41471D01*
X34284Y-41468D01*
X34283Y-41467D01*
X34189Y-41373D01*
X34198Y-41338D01*
X34200Y-41181D01*
X34200Y-34685D01*
X34173Y-34550D01*
X34121Y-34423D01*
X34045Y-34309D01*
X33948Y-34212D01*
X33834Y-34135D01*
X33708Y-34082D01*
X33573Y-34054D01*
X33436Y-34054D01*
X33301Y-34079D01*
X33174Y-34131D01*
X33059Y-34206D01*
X32961Y-34302D01*
X32883Y-34415D01*
X32829Y-34542D01*
X32801Y-34676D01*
X32799Y-34813D01*
X32824Y-34948D01*
X32875Y-35076D01*
X32949Y-35191D01*
X33044Y-35290D01*
X33157Y-35368D01*
X33283Y-35423D01*
X33417Y-35452D01*
X33554Y-35455D01*
X33690Y-35431D01*
X33817Y-35382D01*
X33933Y-35308D01*
X34033Y-35213D01*
X34112Y-35101D01*
X34168Y-34976D01*
X34198Y-34842D01*
X34200Y-34685D01*
X34200Y-41181D01*
X34173Y-41046D01*
X34121Y-40919D01*
X34045Y-40805D01*
X33948Y-40708D01*
X33834Y-40631D01*
X33708Y-40578D01*
X33573Y-40550D01*
X33436Y-40550D01*
X33376Y-40561D01*
X32075Y-39259D01*
X32075Y-22370D01*
X32025Y-22115D01*
X31925Y-21875D01*
X31782Y-21658D01*
X31599Y-21474D01*
X31383Y-21329D01*
X31144Y-21228D01*
X30889Y-21176D01*
X30629Y-21174D01*
X30374Y-21223D01*
X30133Y-21320D01*
X29916Y-21462D01*
X29730Y-21644D01*
X29583Y-21859D01*
X29481Y-22098D01*
X29427Y-22352D01*
X29423Y-22611D01*
X29470Y-22867D01*
X29566Y-23109D01*
X29707Y-23327D01*
X29887Y-23514D01*
X30101Y-23662D01*
X30339Y-23766D01*
X30592Y-23822D01*
X30852Y-23827D01*
X31108Y-23782D01*
X31350Y-23688D01*
X31570Y-23549D01*
X31758Y-23370D01*
X31908Y-23158D01*
X32013Y-22920D01*
X32071Y-22667D01*
X32075Y-22370D01*
X32075Y-39259D01*
X31286Y-38470D01*
X31285Y-38469D01*
X31283Y-38467D01*
X31266Y-38453D01*
X31226Y-38420D01*
X31222Y-38418D01*
X31158Y-38382D01*
X31154Y-38381D01*
X31083Y-38359D01*
X31081Y-38358D01*
X31079Y-38358D01*
X31041Y-38354D01*
X31006Y-38350D01*
X31001Y-38350D01*
X31000Y-38350D01*
X25756Y-38350D01*
X25750Y-38350D01*
X23915Y-38350D01*
X23123Y-37557D01*
X23125Y-37439D01*
X23101Y-37319D01*
X23055Y-37205D01*
X22987Y-37103D01*
X22984Y-37100D01*
X22992Y-37097D01*
X23033Y-37070D01*
X23068Y-37035D01*
X23096Y-36995D01*
X23115Y-36950D01*
X23125Y-36902D01*
X23125Y-36853D01*
X23125Y-36653D01*
X23228Y-36550D01*
X25242Y-36550D01*
X25250Y-36550D01*
X25855Y-36550D01*
X25793Y-36697D01*
X25752Y-36888D01*
X25750Y-37084D01*
X25785Y-37277D01*
X25857Y-37459D01*
X25963Y-37624D01*
X26099Y-37764D01*
X26260Y-37876D01*
X26440Y-37955D01*
X26631Y-37997D01*
X26827Y-38001D01*
X27020Y-37967D01*
X27203Y-37896D01*
X27368Y-37791D01*
X27510Y-37656D01*
X27623Y-37496D01*
X27702Y-37317D01*
X27746Y-37126D01*
X27749Y-36902D01*
X27711Y-36710D01*
X27644Y-36550D01*
X27870Y-36550D01*
X27876Y-36550D01*
X27930Y-36544D01*
X27977Y-36541D01*
X27979Y-36540D01*
X27983Y-36540D01*
X28060Y-36516D01*
X28080Y-36511D01*
X28080Y-36510D01*
X28086Y-36509D01*
X28137Y-36480D01*
X28176Y-36461D01*
X28179Y-36458D01*
X28180Y-36458D01*
X28192Y-36447D01*
X28259Y-36395D01*
X28264Y-36390D01*
X28265Y-36389D01*
X30581Y-34072D01*
X30690Y-34053D01*
X30817Y-34004D01*
X30933Y-33930D01*
X31033Y-33835D01*
X31112Y-33723D01*
X31168Y-33598D01*
X31198Y-33464D01*
X31200Y-33307D01*
X31173Y-33172D01*
X31121Y-33045D01*
X31045Y-32931D01*
X30948Y-32834D01*
X30834Y-32757D01*
X30708Y-32704D01*
X30573Y-32676D01*
X30436Y-32676D01*
X30301Y-32701D01*
X30174Y-32753D01*
X30059Y-32828D01*
X29961Y-32924D01*
X29883Y-33037D01*
X29829Y-33164D01*
X29801Y-33296D01*
X27648Y-35450D01*
X27643Y-35450D01*
X27702Y-35317D01*
X27746Y-35126D01*
X27749Y-34902D01*
X27749Y-30902D01*
X27711Y-30710D01*
X27636Y-30529D01*
X27528Y-30366D01*
X27390Y-30227D01*
X27300Y-30166D01*
X27300Y-30008D01*
X27300Y-30004D01*
X27300Y-30000D01*
X27300Y-29834D01*
X27368Y-29791D01*
X27510Y-29656D01*
X27623Y-29496D01*
X27702Y-29317D01*
X27746Y-29126D01*
X27749Y-28902D01*
X27711Y-28710D01*
X27636Y-28529D01*
X27528Y-28366D01*
X27390Y-28227D01*
X27227Y-28117D01*
X27047Y-28041D01*
X26855Y-28002D01*
X26659Y-28000D01*
X26467Y-28037D01*
X26285Y-28110D01*
X26121Y-28218D01*
X25981Y-28355D01*
X25870Y-28516D01*
X25793Y-28697D01*
X25752Y-28888D01*
X25750Y-29084D01*
X25785Y-29277D01*
X25853Y-29450D01*
X25478Y-29450D01*
X24643Y-28615D01*
X24639Y-28611D01*
X24610Y-28587D01*
X24561Y-28546D01*
X24556Y-28543D01*
X24541Y-28535D01*
X24467Y-28494D01*
X24461Y-28492D01*
X24440Y-28485D01*
X24364Y-28462D01*
X24361Y-28461D01*
X24359Y-28461D01*
X24320Y-28457D01*
X24258Y-28450D01*
X24251Y-28450D01*
X24250Y-28450D01*
X23245Y-28450D01*
X23241Y-28428D01*
X23222Y-28383D01*
X23195Y-28342D01*
X23160Y-28307D01*
X23120Y-28279D01*
X23075Y-28260D01*
X23027Y-28250D01*
X22978Y-28250D01*
X21976Y-28250D01*
X21928Y-28259D01*
X21883Y-28278D01*
X21842Y-28305D01*
X21807Y-28340D01*
X21779Y-28380D01*
X21760Y-28425D01*
X21750Y-28473D01*
X21750Y-28522D01*
X21750Y-29524D01*
X21759Y-29572D01*
X21778Y-29617D01*
X21805Y-29658D01*
X21840Y-29693D01*
X21880Y-29721D01*
X21925Y-29740D01*
X21973Y-29750D01*
X22022Y-29750D01*
X23024Y-29750D01*
X23072Y-29741D01*
X23117Y-29722D01*
X23158Y-29695D01*
X23193Y-29660D01*
X23221Y-29620D01*
X23240Y-29575D01*
X23245Y-29550D01*
X24022Y-29550D01*
X24857Y-30385D01*
X24861Y-30389D01*
X24889Y-30412D01*
X24939Y-30454D01*
X24943Y-30456D01*
X24944Y-30457D01*
X24966Y-30468D01*
X25033Y-30506D01*
X25036Y-30506D01*
X25038Y-30508D01*
X25084Y-30521D01*
X25136Y-30538D01*
X25138Y-30538D01*
X25141Y-30539D01*
X25182Y-30543D01*
X25242Y-30550D01*
X25248Y-30550D01*
X25250Y-30550D01*
X25855Y-30550D01*
X25793Y-30697D01*
X25752Y-30888D01*
X25750Y-31084D01*
X25785Y-31277D01*
X25857Y-31459D01*
X25963Y-31624D01*
X26099Y-31764D01*
X26260Y-31876D01*
X26440Y-31955D01*
X26631Y-31997D01*
X26827Y-32001D01*
X27020Y-31967D01*
X27203Y-31896D01*
X27368Y-31791D01*
X27510Y-31656D01*
X27623Y-31496D01*
X27702Y-31317D01*
X27746Y-31126D01*
X27749Y-30902D01*
X27749Y-34902D01*
X27711Y-34710D01*
X27636Y-34529D01*
X27528Y-34366D01*
X27390Y-34227D01*
X27227Y-34117D01*
X27047Y-34041D01*
X26855Y-34002D01*
X26659Y-34000D01*
X26467Y-34037D01*
X26285Y-34110D01*
X26121Y-34218D01*
X25981Y-34355D01*
X25870Y-34516D01*
X25793Y-34697D01*
X25752Y-34888D01*
X25750Y-35084D01*
X25785Y-35277D01*
X25853Y-35450D01*
X25258Y-35450D01*
X25250Y-35450D01*
X23250Y-35450D01*
X23250Y-30982D01*
X23232Y-30837D01*
X23186Y-30697D01*
X23134Y-30600D01*
X23020Y-30550D01*
X22950Y-30620D01*
X22950Y-30480D01*
X22900Y-30366D01*
X22769Y-30300D01*
X22628Y-30261D01*
X22482Y-30250D01*
X22337Y-30268D01*
X22197Y-30314D01*
X22100Y-30366D01*
X22050Y-30480D01*
X22500Y-30929D01*
X22950Y-30480D01*
X22950Y-30620D01*
X22571Y-31000D01*
X23020Y-31450D01*
X23134Y-31400D01*
X23200Y-31269D01*
X23239Y-31128D01*
X23250Y-30982D01*
X23250Y-35450D01*
X23006Y-35450D01*
X23000Y-35450D01*
X22950Y-35454D01*
X22950Y-31520D01*
X22500Y-31071D01*
X22429Y-31141D01*
X22429Y-31000D01*
X21980Y-30550D01*
X21866Y-30600D01*
X21800Y-30731D01*
X21761Y-30872D01*
X21750Y-31018D01*
X21768Y-31163D01*
X21814Y-31303D01*
X21866Y-31400D01*
X21980Y-31450D01*
X22429Y-31000D01*
X22429Y-31141D01*
X22050Y-31520D01*
X22100Y-31634D01*
X22231Y-31700D01*
X22372Y-31739D01*
X22518Y-31750D01*
X22663Y-31732D01*
X22803Y-31686D01*
X22900Y-31634D01*
X22950Y-31520D01*
X22950Y-35454D01*
X22946Y-35455D01*
X22899Y-35459D01*
X22896Y-35459D01*
X22893Y-35460D01*
X22816Y-35483D01*
X22796Y-35489D01*
X22795Y-35489D01*
X22790Y-35491D01*
X22738Y-35519D01*
X22700Y-35539D01*
X22696Y-35541D01*
X22696Y-35542D01*
X22612Y-35610D01*
X22611Y-35610D01*
X22611Y-35611D01*
X22347Y-35875D01*
X22101Y-35875D01*
X22053Y-35884D01*
X22008Y-35903D01*
X21967Y-35930D01*
X21932Y-35965D01*
X21904Y-36005D01*
X21885Y-36050D01*
X21875Y-36098D01*
X21875Y-36147D01*
X21875Y-36899D01*
X21884Y-36947D01*
X21903Y-36992D01*
X21930Y-37033D01*
X21965Y-37068D01*
X22005Y-37096D01*
X22015Y-37100D01*
X21950Y-37197D01*
X21902Y-37310D01*
X21876Y-37430D01*
X21874Y-37552D01*
X21896Y-37673D01*
X21941Y-37787D01*
X22008Y-37890D01*
X22093Y-37978D01*
X22193Y-38048D01*
X22306Y-38097D01*
X22425Y-38124D01*
X22548Y-38126D01*
X22558Y-38124D01*
X23459Y-39024D01*
X23464Y-39030D01*
X23467Y-39032D01*
X23524Y-39080D01*
X23525Y-39081D01*
X23527Y-39082D01*
X23549Y-39093D01*
X23592Y-39118D01*
X23594Y-39118D01*
X23595Y-39119D01*
X23601Y-39120D01*
X23667Y-39141D01*
X23670Y-39141D01*
X23744Y-39150D01*
X23748Y-39150D01*
X23750Y-39150D01*
X25744Y-39150D01*
X25750Y-39150D01*
X30834Y-39150D01*
X32810Y-41125D01*
X32801Y-41172D01*
X32799Y-41309D01*
X32824Y-41444D01*
X32875Y-41572D01*
X32949Y-41687D01*
X33044Y-41786D01*
X33157Y-41864D01*
X33283Y-41919D01*
X33417Y-41948D01*
X33554Y-41951D01*
X33600Y-41942D01*
X33600Y-42875D01*
X33553Y-42884D01*
X33508Y-42903D01*
X33467Y-42930D01*
X33432Y-42965D01*
X33404Y-43005D01*
X33385Y-43050D01*
X33375Y-43098D01*
X33375Y-43147D01*
X33375Y-43899D01*
X33384Y-43947D01*
X33403Y-43992D01*
X33430Y-44033D01*
X33465Y-44068D01*
X33505Y-44096D01*
X33550Y-44115D01*
X33598Y-44125D01*
X33647Y-44125D01*
X34399Y-44125D01*
X34447Y-44116D01*
X34492Y-44097D01*
X34533Y-44070D01*
X34568Y-44035D01*
X34596Y-43995D01*
X34615Y-43950D01*
X34625Y-43902D01*
X34625Y-44700D01*
X34508Y-44700D01*
X34500Y-44700D01*
X31200Y-44700D01*
X31200Y-41724D01*
X31200Y-41362D01*
X31200Y-41138D01*
X31200Y-40776D01*
X31191Y-40728D01*
X31172Y-40683D01*
X31145Y-40642D01*
X31110Y-40607D01*
X31070Y-40579D01*
X31025Y-40560D01*
X30977Y-40550D01*
X30928Y-40550D01*
X30612Y-40550D01*
X30550Y-40612D01*
X30550Y-41200D01*
X31138Y-41200D01*
X31200Y-41138D01*
X31200Y-41362D01*
X31138Y-41300D01*
X30550Y-41300D01*
X30550Y-41888D01*
X30612Y-41950D01*
X30928Y-41950D01*
X30977Y-41950D01*
X31025Y-41940D01*
X31070Y-41921D01*
X31110Y-41893D01*
X31145Y-41858D01*
X31172Y-41817D01*
X31191Y-41772D01*
X31200Y-41724D01*
X31200Y-44700D01*
X30624Y-44700D01*
X30624Y-43476D01*
X30607Y-43355D01*
X30567Y-43240D01*
X30533Y-43175D01*
X30450Y-43145D01*
X30450Y-41888D01*
X30450Y-41300D01*
X30450Y-41200D01*
X30450Y-40612D01*
X30388Y-40550D01*
X30072Y-40550D01*
X30023Y-40550D01*
X29975Y-40560D01*
X29930Y-40579D01*
X29890Y-40607D01*
X29855Y-40642D01*
X29828Y-40683D01*
X29809Y-40728D01*
X29800Y-40776D01*
X29800Y-41138D01*
X29862Y-41200D01*
X30450Y-41200D01*
X30450Y-41300D01*
X29862Y-41300D01*
X29800Y-41362D01*
X29800Y-41724D01*
X29809Y-41772D01*
X29828Y-41817D01*
X29855Y-41858D01*
X29890Y-41893D01*
X29930Y-41921D01*
X29975Y-41940D01*
X30023Y-41950D01*
X30072Y-41950D01*
X30388Y-41950D01*
X30450Y-41888D01*
X30450Y-43145D01*
X30431Y-43139D01*
X30361Y-43209D01*
X30361Y-43069D01*
X30325Y-42967D01*
X30216Y-42914D01*
X30098Y-42883D01*
X29976Y-42876D01*
X29855Y-42893D01*
X29740Y-42933D01*
X29675Y-42967D01*
X29639Y-43069D01*
X30000Y-43429D01*
X30361Y-43069D01*
X30361Y-43209D01*
X30071Y-43500D01*
X30431Y-43861D01*
X30533Y-43825D01*
X30586Y-43716D01*
X30617Y-43598D01*
X30624Y-43476D01*
X30624Y-44700D01*
X30361Y-44700D01*
X30361Y-43931D01*
X30000Y-43571D01*
X29929Y-43641D01*
X29929Y-43500D01*
X29569Y-43139D01*
X29467Y-43175D01*
X29414Y-43284D01*
X29383Y-43402D01*
X29376Y-43524D01*
X29393Y-43645D01*
X29433Y-43760D01*
X29467Y-43825D01*
X29569Y-43861D01*
X29929Y-43500D01*
X29929Y-43641D01*
X29639Y-43931D01*
X29675Y-44033D01*
X29784Y-44086D01*
X29902Y-44117D01*
X30024Y-44124D01*
X30145Y-44107D01*
X30260Y-44067D01*
X30325Y-44033D01*
X30361Y-43931D01*
X30361Y-44700D01*
X27755Y-44700D01*
X27750Y-44700D01*
X27705Y-44704D01*
X27648Y-44709D01*
X27645Y-44709D01*
X27643Y-44710D01*
X27596Y-44724D01*
X27545Y-44739D01*
X27542Y-44740D01*
X27540Y-44741D01*
X27501Y-44762D01*
X27450Y-44789D01*
X27446Y-44791D01*
X27446Y-44792D01*
X27430Y-44804D01*
X27366Y-44856D01*
X27362Y-44860D01*
X27361Y-44861D01*
X27357Y-44865D01*
X27355Y-44866D01*
X27315Y-44874D01*
X27197Y-44921D01*
X27091Y-44991D01*
X26999Y-45080D01*
X26928Y-45186D01*
X26877Y-45303D01*
X26851Y-45427D01*
X26849Y-45555D01*
X26872Y-45680D01*
X26919Y-45799D01*
X26988Y-45906D01*
X27077Y-45998D01*
X27182Y-46070D01*
X27298Y-46121D01*
X27423Y-46149D01*
X27550Y-46151D01*
X27676Y-46129D01*
X27795Y-46083D01*
X27902Y-46015D01*
X27995Y-45927D01*
X28068Y-45822D01*
X28077Y-45800D01*
X34492Y-45800D01*
X34500Y-45800D01*
X36700Y-45800D01*
X36700Y-46563D01*
X36633Y-46661D01*
X36579Y-46788D01*
X36551Y-46922D01*
X36549Y-47059D01*
X36574Y-47194D01*
X36625Y-47322D01*
X36699Y-47437D01*
X36794Y-47536D01*
X36907Y-47614D01*
X37033Y-47669D01*
X37167Y-47698D01*
X37304Y-47701D01*
X37440Y-47677D01*
X37567Y-47628D01*
X37683Y-47554D01*
X37783Y-47459D01*
X37862Y-47347D01*
X37918Y-47222D01*
X37948Y-47088D01*
X37950Y-46931D01*
X37923Y-46796D01*
X37871Y-46669D01*
X37800Y-46562D01*
X37800Y-45800D01*
X42242Y-45800D01*
X42250Y-45800D01*
X45994Y-45800D01*
X46000Y-45800D01*
X46054Y-45794D01*
X46101Y-45791D01*
X46103Y-45790D01*
X46107Y-45790D01*
X46184Y-45766D01*
X46204Y-45761D01*
X46204Y-45760D01*
X46210Y-45759D01*
X46261Y-45730D01*
X46300Y-45711D01*
X46303Y-45708D01*
X46304Y-45708D01*
X46316Y-45697D01*
X46383Y-45645D01*
X46388Y-45640D01*
X46389Y-45639D01*
X48885Y-43143D01*
X48889Y-43139D01*
X48932Y-43087D01*
X48954Y-43061D01*
X48954Y-43059D01*
X48957Y-43057D01*
X48982Y-43008D01*
X49006Y-42967D01*
X49006Y-42963D01*
X49008Y-42962D01*
X49014Y-42939D01*
X49038Y-42864D01*
X49038Y-42859D01*
X49050Y-42758D01*
X49050Y-42752D01*
X49050Y-42750D01*
X49050Y-42300D01*
X49447Y-42300D01*
X49465Y-42318D01*
X49505Y-42346D01*
X49550Y-42365D01*
X49598Y-42375D01*
X49647Y-42375D01*
X50399Y-42375D01*
X50447Y-42366D01*
X50492Y-42347D01*
X50533Y-42320D01*
X50568Y-42285D01*
X50596Y-42245D01*
X50615Y-42200D01*
X50625Y-42152D01*
X50625Y-48635D01*
X50446Y-48560D01*
X50158Y-48501D01*
X49863Y-48499D01*
X49575Y-48554D01*
X49302Y-48664D01*
X49056Y-48825D01*
X48845Y-49031D01*
X48679Y-49274D01*
X48563Y-49544D01*
X48502Y-49832D01*
X48498Y-50126D01*
X48551Y-50415D01*
X48659Y-50689D01*
X48819Y-50936D01*
X49023Y-51148D01*
X49265Y-51316D01*
X49534Y-51433D01*
X49821Y-51497D01*
X50116Y-51503D01*
X50405Y-51452D01*
X50679Y-51345D01*
X50928Y-51188D01*
X51141Y-50985D01*
X51310Y-50745D01*
X51430Y-50476D01*
X51495Y-50189D01*
X51500Y-49853D01*
X51500Y-51540D01*
X50865Y-52175D01*
X43075Y-52175D01*
X43075Y-49870D01*
X43025Y-49615D01*
X42925Y-49375D01*
X42782Y-49158D01*
X42599Y-48974D01*
X42383Y-48829D01*
X42144Y-48728D01*
X41889Y-48676D01*
X41629Y-48674D01*
X41374Y-48723D01*
X41133Y-48820D01*
X40916Y-48962D01*
X40730Y-49144D01*
X40583Y-49359D01*
X40481Y-49598D01*
X40427Y-49852D01*
X40423Y-50111D01*
X40470Y-50367D01*
X40566Y-50609D01*
X40707Y-50827D01*
X40887Y-51014D01*
X41101Y-51162D01*
X41339Y-51266D01*
X41592Y-51322D01*
X41852Y-51327D01*
X42108Y-51282D01*
X42350Y-51188D01*
X42570Y-51049D01*
X42758Y-50870D01*
X42908Y-50658D01*
X43013Y-50420D01*
X43071Y-50167D01*
X43075Y-49870D01*
X43075Y-52175D01*
X38925Y-52175D01*
X38925Y-50434D01*
X38925Y-49477D01*
X38907Y-49347D01*
X38864Y-49222D01*
X38824Y-49145D01*
X38717Y-49104D01*
X38646Y-49175D01*
X38646Y-49033D01*
X38605Y-48926D01*
X38486Y-48868D01*
X38359Y-48834D01*
X38227Y-48825D01*
X38097Y-48843D01*
X37972Y-48886D01*
X37895Y-48926D01*
X37854Y-49033D01*
X38250Y-49429D01*
X38646Y-49033D01*
X38646Y-49175D01*
X38321Y-49500D01*
X38717Y-49896D01*
X38824Y-49855D01*
X38882Y-49736D01*
X38916Y-49609D01*
X38925Y-49477D01*
X38925Y-50434D01*
X38899Y-50304D01*
X38849Y-50182D01*
X38776Y-50071D01*
X38682Y-49978D01*
X38601Y-49922D01*
X38250Y-49571D01*
X37896Y-49924D01*
X37825Y-49971D01*
X37749Y-50045D01*
X37703Y-49999D01*
X37763Y-49943D01*
X37830Y-49848D01*
X38179Y-49500D01*
X37825Y-49146D01*
X37776Y-49071D01*
X37682Y-48978D01*
X37573Y-48903D01*
X37451Y-48852D01*
X37321Y-48826D01*
X37189Y-48825D01*
X37059Y-48849D01*
X36936Y-48899D01*
X36825Y-48971D01*
X36749Y-49045D01*
X36682Y-48978D01*
X36573Y-48903D01*
X36451Y-48852D01*
X36321Y-48826D01*
X36189Y-48825D01*
X36059Y-48849D01*
X35936Y-48899D01*
X35825Y-48971D01*
X35749Y-49045D01*
X35682Y-48978D01*
X35573Y-48903D01*
X35451Y-48852D01*
X35321Y-48826D01*
X35189Y-48825D01*
X35059Y-48849D01*
X34936Y-48899D01*
X34825Y-48971D01*
X34749Y-49045D01*
X34682Y-48978D01*
X34573Y-48903D01*
X34451Y-48852D01*
X34321Y-48826D01*
X34189Y-48825D01*
X34059Y-48849D01*
X33936Y-48899D01*
X33825Y-48971D01*
X33731Y-49064D01*
X33656Y-49173D01*
X33604Y-49295D01*
X33599Y-49318D01*
X33599Y-46941D01*
X33576Y-46826D01*
X33531Y-46717D01*
X33466Y-46619D01*
X33383Y-46536D01*
X33286Y-46470D01*
X33178Y-46425D01*
X33063Y-46401D01*
X32967Y-46401D01*
X32786Y-46220D01*
X32783Y-46217D01*
X32766Y-46203D01*
X32726Y-46170D01*
X32722Y-46168D01*
X32658Y-46132D01*
X32654Y-46131D01*
X32583Y-46109D01*
X32581Y-46108D01*
X32579Y-46108D01*
X32541Y-46104D01*
X32506Y-46100D01*
X32501Y-46100D01*
X32500Y-46100D01*
X32014Y-46100D01*
X32006Y-46087D01*
X31916Y-45997D01*
X31810Y-45925D01*
X31693Y-45876D01*
X31568Y-45850D01*
X31441Y-45850D01*
X31315Y-45874D01*
X31197Y-45921D01*
X31091Y-45991D01*
X30999Y-46080D01*
X30928Y-46186D01*
X30877Y-46303D01*
X30851Y-46427D01*
X30849Y-46555D01*
X30872Y-46680D01*
X30919Y-46799D01*
X30988Y-46906D01*
X31077Y-46998D01*
X31182Y-47070D01*
X31298Y-47121D01*
X31423Y-47149D01*
X31550Y-47151D01*
X31676Y-47129D01*
X31795Y-47083D01*
X31902Y-47015D01*
X31995Y-46927D01*
X32013Y-46900D01*
X32334Y-46900D01*
X32401Y-46967D01*
X32400Y-47051D01*
X32421Y-47166D01*
X32465Y-47275D01*
X32528Y-47374D01*
X32610Y-47459D01*
X32707Y-47526D01*
X32814Y-47573D01*
X32929Y-47598D01*
X33046Y-47600D01*
X33162Y-47580D01*
X33272Y-47537D01*
X33371Y-47474D01*
X33456Y-47393D01*
X33523Y-47297D01*
X33571Y-47190D01*
X33597Y-47075D01*
X33599Y-46941D01*
X33599Y-49318D01*
X33576Y-49424D01*
X33574Y-49557D01*
X33598Y-49687D01*
X33647Y-49810D01*
X33684Y-49868D01*
X33667Y-49880D01*
X33632Y-49915D01*
X33604Y-49955D01*
X33585Y-50000D01*
X33575Y-50048D01*
X33575Y-50097D01*
X33575Y-50949D01*
X33584Y-50997D01*
X33603Y-51042D01*
X33630Y-51083D01*
X33665Y-51118D01*
X33705Y-51146D01*
X33750Y-51165D01*
X33798Y-51175D01*
X33847Y-51175D01*
X34699Y-51175D01*
X34747Y-51166D01*
X34792Y-51147D01*
X34833Y-51120D01*
X34868Y-51085D01*
X34881Y-51065D01*
X34919Y-51092D01*
X35040Y-51145D01*
X35170Y-51173D01*
X35302Y-51176D01*
X35432Y-51153D01*
X35556Y-51105D01*
X35667Y-51035D01*
X35750Y-50954D01*
X35810Y-51016D01*
X35919Y-51092D01*
X36040Y-51145D01*
X36170Y-51173D01*
X36302Y-51176D01*
X36432Y-51153D01*
X36556Y-51105D01*
X36667Y-51035D01*
X36750Y-50954D01*
X36810Y-51016D01*
X36919Y-51092D01*
X37040Y-51145D01*
X37170Y-51173D01*
X37302Y-51176D01*
X37432Y-51153D01*
X37556Y-51105D01*
X37667Y-51035D01*
X37750Y-50954D01*
X37810Y-51016D01*
X37919Y-51092D01*
X38040Y-51145D01*
X38170Y-51173D01*
X38302Y-51176D01*
X38432Y-51153D01*
X38556Y-51105D01*
X38667Y-51035D01*
X38763Y-50943D01*
X38840Y-50835D01*
X38893Y-50714D01*
X38923Y-50585D01*
X38925Y-50434D01*
X38925Y-52175D01*
X32075Y-52175D01*
X32075Y-49870D01*
X32025Y-49615D01*
X31925Y-49375D01*
X31782Y-49158D01*
X31599Y-48974D01*
X31383Y-48829D01*
X31144Y-48728D01*
X30889Y-48676D01*
X30629Y-48674D01*
X30374Y-48723D01*
X30133Y-48820D01*
X29916Y-48962D01*
X29730Y-49144D01*
X29583Y-49359D01*
X29481Y-49598D01*
X29427Y-49852D01*
X29423Y-50111D01*
X29470Y-50367D01*
X29566Y-50609D01*
X29707Y-50827D01*
X29887Y-51014D01*
X30101Y-51162D01*
X30339Y-51266D01*
X30592Y-51322D01*
X30852Y-51327D01*
X31108Y-51282D01*
X31350Y-51188D01*
X31570Y-51049D01*
X31758Y-50870D01*
X31908Y-50658D01*
X32013Y-50420D01*
X32071Y-50167D01*
X32075Y-49870D01*
X32075Y-52175D01*
X28150Y-52175D01*
X28150Y-47477D01*
X28133Y-47351D01*
X28092Y-47231D01*
X28054Y-47160D01*
X27949Y-47122D01*
X27878Y-47193D01*
X27878Y-47051D01*
X27840Y-46946D01*
X27726Y-46890D01*
X27603Y-46858D01*
X27477Y-46850D01*
X27351Y-46867D01*
X27231Y-46908D01*
X27160Y-46946D01*
X27122Y-47051D01*
X27500Y-47429D01*
X27878Y-47051D01*
X27878Y-47193D01*
X27571Y-47500D01*
X27949Y-47878D01*
X28054Y-47840D01*
X28110Y-47726D01*
X28142Y-47603D01*
X28150Y-47477D01*
X28150Y-52175D01*
X27878Y-52175D01*
X27878Y-47949D01*
X27500Y-47571D01*
X27429Y-47642D01*
X27429Y-47500D01*
X27051Y-47122D01*
X26946Y-47160D01*
X26890Y-47274D01*
X26858Y-47397D01*
X26850Y-47523D01*
X26867Y-47649D01*
X26908Y-47769D01*
X26946Y-47840D01*
X27051Y-47878D01*
X27429Y-47500D01*
X27429Y-47642D01*
X27122Y-47949D01*
X27160Y-48054D01*
X27274Y-48110D01*
X27397Y-48142D01*
X27523Y-48150D01*
X27649Y-48133D01*
X27769Y-48092D01*
X27840Y-48054D01*
X27878Y-47949D01*
X27878Y-52175D01*
X25490Y-52175D01*
X25490Y-50696D01*
X25490Y-39305D01*
X21150Y-39305D01*
X21150Y-49341D01*
X21063Y-49544D01*
X21002Y-49832D01*
X20998Y-50126D01*
X21051Y-50415D01*
X21150Y-50666D01*
X21150Y-50696D01*
X21163Y-50696D01*
X21319Y-50936D01*
X21523Y-51148D01*
X21765Y-51316D01*
X22034Y-51433D01*
X22321Y-51497D01*
X22616Y-51503D01*
X22905Y-51452D01*
X23179Y-51345D01*
X23428Y-51188D01*
X23641Y-50985D01*
X23810Y-50745D01*
X23831Y-50696D01*
X25490Y-50696D01*
X25490Y-52175D01*
X21635Y-52175D01*
X20325Y-50865D01*
X20325Y-27325D01*
X26498Y-27325D01*
X26500Y-27325D01*
X26561Y-27319D01*
X26563Y-27319D01*
X26599Y-27307D01*
X26622Y-27301D01*
X26623Y-27300D01*
X26624Y-27300D01*
X26678Y-27272D01*
X26680Y-27271D01*
X26727Y-27232D01*
X26729Y-27231D01*
X26753Y-27200D01*
X26768Y-27184D01*
X26769Y-27182D01*
X26799Y-27128D01*
X26799Y-27127D01*
X26800Y-27126D01*
X26805Y-27109D01*
X26818Y-27068D01*
X26818Y-27065D01*
X26825Y-27005D01*
X26825Y-27002D01*
X26825Y-27000D01*
X26825Y-20325D01*
X50865Y-20325D01*
X52175Y-21635D01*
X52175Y-50865D01*
X52175Y-50865D01*
G37*
G54D27*
X52175Y-50865D02*
X51500Y-51540D01*
X51500Y-49853D01*
X51500Y-22353D01*
X51443Y-22064D01*
X51331Y-21792D01*
X51168Y-21547D01*
X50961Y-21339D01*
X50717Y-21174D01*
X50446Y-21060D01*
X50158Y-21001D01*
X49863Y-20999D01*
X49575Y-21054D01*
X49302Y-21164D01*
X49056Y-21325D01*
X48845Y-21531D01*
X48679Y-21774D01*
X48563Y-22044D01*
X48502Y-22332D01*
X48498Y-22626D01*
X48551Y-22915D01*
X48659Y-23189D01*
X48819Y-23436D01*
X49023Y-23648D01*
X49265Y-23816D01*
X49534Y-23933D01*
X49821Y-23997D01*
X50116Y-24003D01*
X50405Y-23952D01*
X50679Y-23845D01*
X50928Y-23688D01*
X51141Y-23485D01*
X51310Y-23245D01*
X51430Y-22976D01*
X51495Y-22689D01*
X51500Y-22353D01*
X51500Y-49853D01*
X51443Y-49564D01*
X51331Y-49292D01*
X51168Y-49047D01*
X50961Y-48839D01*
X50717Y-48674D01*
X50625Y-48635D01*
X50625Y-42152D01*
X50625Y-42103D01*
X50625Y-41351D01*
X50624Y-41345D01*
X50616Y-41303D01*
X50597Y-41258D01*
X50570Y-41217D01*
X50535Y-41182D01*
X50495Y-41154D01*
X50486Y-41150D01*
X50514Y-41123D01*
X50483Y-41092D01*
X50533Y-41075D01*
X50586Y-40966D01*
X50617Y-40848D01*
X50624Y-40726D01*
X50607Y-40605D01*
X50567Y-40490D01*
X50533Y-40425D01*
X50483Y-40407D01*
X50514Y-40377D01*
X50486Y-40349D01*
X50492Y-40347D01*
X50533Y-40320D01*
X50568Y-40285D01*
X50596Y-40245D01*
X50615Y-40200D01*
X50625Y-40152D01*
X50625Y-40103D01*
X50625Y-39351D01*
X50624Y-39345D01*
X50616Y-39303D01*
X50597Y-39258D01*
X50570Y-39217D01*
X50535Y-39182D01*
X50495Y-39154D01*
X50486Y-39150D01*
X50514Y-39123D01*
X50483Y-39092D01*
X50533Y-39075D01*
X50586Y-38966D01*
X50617Y-38848D01*
X50624Y-38726D01*
X50607Y-38605D01*
X50567Y-38490D01*
X50533Y-38425D01*
X50483Y-38407D01*
X50514Y-38377D01*
X50486Y-38349D01*
X50492Y-38347D01*
X50533Y-38320D01*
X50568Y-38285D01*
X50596Y-38245D01*
X50615Y-38200D01*
X50625Y-38152D01*
X50625Y-38103D01*
X50625Y-37351D01*
X50624Y-37345D01*
X50616Y-37303D01*
X50597Y-37258D01*
X50570Y-37217D01*
X50535Y-37182D01*
X50495Y-37154D01*
X50486Y-37150D01*
X50514Y-37123D01*
X50483Y-37092D01*
X50533Y-37075D01*
X50586Y-36966D01*
X50617Y-36848D01*
X50624Y-36726D01*
X50607Y-36605D01*
X50567Y-36490D01*
X50533Y-36425D01*
X50431Y-36389D01*
X50361Y-36459D01*
X50361Y-36319D01*
X50325Y-36217D01*
X50216Y-36164D01*
X50098Y-36133D01*
X49976Y-36126D01*
X49855Y-36143D01*
X49740Y-36183D01*
X49675Y-36217D01*
X49639Y-36319D01*
X50000Y-36679D01*
X50361Y-36319D01*
X50361Y-36459D01*
X50071Y-36750D01*
X50000Y-36821D01*
X49929Y-36750D01*
X49894Y-36715D01*
X49569Y-36389D01*
X49467Y-36425D01*
X49414Y-36534D01*
X49383Y-36652D01*
X49376Y-36774D01*
X49393Y-36895D01*
X49433Y-37010D01*
X49467Y-37075D01*
X49516Y-37092D01*
X49486Y-37123D01*
X49513Y-37150D01*
X49508Y-37153D01*
X49467Y-37180D01*
X49447Y-37200D01*
X49050Y-37200D01*
X49050Y-34800D01*
X49447Y-34800D01*
X49465Y-34818D01*
X49505Y-34846D01*
X49550Y-34865D01*
X49598Y-34875D01*
X49647Y-34875D01*
X50399Y-34875D01*
X50447Y-34866D01*
X50492Y-34847D01*
X50533Y-34820D01*
X50568Y-34785D01*
X50596Y-34745D01*
X50615Y-34700D01*
X50625Y-34652D01*
X50625Y-34603D01*
X50625Y-33851D01*
X50624Y-33845D01*
X50616Y-33803D01*
X50597Y-33758D01*
X50570Y-33717D01*
X50535Y-33682D01*
X50495Y-33654D01*
X50486Y-33650D01*
X50514Y-33623D01*
X50483Y-33592D01*
X50533Y-33575D01*
X50586Y-33466D01*
X50617Y-33348D01*
X50624Y-33226D01*
X50607Y-33105D01*
X50567Y-32990D01*
X50533Y-32925D01*
X50483Y-32907D01*
X50514Y-32877D01*
X50486Y-32849D01*
X50492Y-32847D01*
X50533Y-32820D01*
X50568Y-32785D01*
X50596Y-32745D01*
X50615Y-32700D01*
X50625Y-32652D01*
X50625Y-32603D01*
X50625Y-31851D01*
X50624Y-31845D01*
X50616Y-31803D01*
X50597Y-31758D01*
X50570Y-31717D01*
X50535Y-31682D01*
X50495Y-31654D01*
X50486Y-31650D01*
X50514Y-31623D01*
X50483Y-31592D01*
X50533Y-31575D01*
X50586Y-31466D01*
X50617Y-31348D01*
X50624Y-31226D01*
X50607Y-31105D01*
X50567Y-30990D01*
X50533Y-30925D01*
X50483Y-30907D01*
X50514Y-30877D01*
X50486Y-30849D01*
X50492Y-30847D01*
X50533Y-30820D01*
X50568Y-30785D01*
X50596Y-30745D01*
X50615Y-30700D01*
X50625Y-30652D01*
X50625Y-30603D01*
X50625Y-29851D01*
X50624Y-29845D01*
X50616Y-29803D01*
X50597Y-29758D01*
X50570Y-29717D01*
X50535Y-29682D01*
X50495Y-29654D01*
X50486Y-29650D01*
X50514Y-29623D01*
X50483Y-29592D01*
X50533Y-29575D01*
X50586Y-29466D01*
X50617Y-29348D01*
X50624Y-29226D01*
X50607Y-29105D01*
X50567Y-28990D01*
X50533Y-28925D01*
X50431Y-28889D01*
X50361Y-28959D01*
X50361Y-28819D01*
X50325Y-28717D01*
X50216Y-28664D01*
X50098Y-28633D01*
X49976Y-28626D01*
X49855Y-28643D01*
X49740Y-28683D01*
X49675Y-28717D01*
X49639Y-28819D01*
X50000Y-29179D01*
X50361Y-28819D01*
X50361Y-28959D01*
X50071Y-29250D01*
X50000Y-29321D01*
X49929Y-29250D01*
X49894Y-29215D01*
X49569Y-28889D01*
X49467Y-28925D01*
X49414Y-29034D01*
X49383Y-29152D01*
X49376Y-29274D01*
X49393Y-29395D01*
X49433Y-29510D01*
X49467Y-29575D01*
X49516Y-29592D01*
X49486Y-29623D01*
X49513Y-29650D01*
X49508Y-29653D01*
X49467Y-29680D01*
X49447Y-29700D01*
X48508Y-29700D01*
X48504Y-29700D01*
X48500Y-29700D01*
X45429Y-29700D01*
X45422Y-29683D01*
X45395Y-29642D01*
X45360Y-29607D01*
X45320Y-29579D01*
X45275Y-29560D01*
X45227Y-29550D01*
X45178Y-29550D01*
X44276Y-29550D01*
X44228Y-29559D01*
X44183Y-29578D01*
X44142Y-29605D01*
X44107Y-29640D01*
X44079Y-29680D01*
X44070Y-29700D01*
X43075Y-29700D01*
X43075Y-22370D01*
X43025Y-22115D01*
X42925Y-21875D01*
X42782Y-21658D01*
X42599Y-21474D01*
X42383Y-21329D01*
X42144Y-21228D01*
X41889Y-21176D01*
X41629Y-21174D01*
X41374Y-21223D01*
X41133Y-21320D01*
X40916Y-21462D01*
X40730Y-21644D01*
X40583Y-21859D01*
X40481Y-22098D01*
X40427Y-22352D01*
X40423Y-22611D01*
X40470Y-22867D01*
X40566Y-23109D01*
X40707Y-23327D01*
X40887Y-23514D01*
X41101Y-23662D01*
X41339Y-23766D01*
X41592Y-23822D01*
X41852Y-23827D01*
X42108Y-23782D01*
X42350Y-23688D01*
X42570Y-23549D01*
X42758Y-23370D01*
X42908Y-23158D01*
X43013Y-22920D01*
X43071Y-22667D01*
X43075Y-22370D01*
X43075Y-29700D01*
X40099Y-29700D01*
X40099Y-27191D01*
X40076Y-27076D01*
X40031Y-26967D01*
X39966Y-26869D01*
X39900Y-26803D01*
X39900Y-26696D01*
X39956Y-26643D01*
X40023Y-26547D01*
X40071Y-26440D01*
X40097Y-26325D01*
X40099Y-26191D01*
X40076Y-26076D01*
X40031Y-25967D01*
X39966Y-25869D01*
X39900Y-25803D01*
X39900Y-25446D01*
X39956Y-25393D01*
X40023Y-25297D01*
X40071Y-25190D01*
X40097Y-25075D01*
X40099Y-24941D01*
X40076Y-24826D01*
X40031Y-24717D01*
X39966Y-24619D01*
X39883Y-24536D01*
X39786Y-24470D01*
X39678Y-24425D01*
X39563Y-24401D01*
X39445Y-24401D01*
X39330Y-24423D01*
X39221Y-24467D01*
X39123Y-24531D01*
X39039Y-24613D01*
X38972Y-24710D01*
X38926Y-24818D01*
X38925Y-24822D01*
X38925Y-22934D01*
X38899Y-22804D01*
X38849Y-22682D01*
X38815Y-22631D01*
X38833Y-22620D01*
X38868Y-22585D01*
X38896Y-22545D01*
X38915Y-22500D01*
X38925Y-22452D01*
X38925Y-22403D01*
X38925Y-21551D01*
X38916Y-21503D01*
X38897Y-21458D01*
X38870Y-21417D01*
X38835Y-21382D01*
X38795Y-21354D01*
X38750Y-21335D01*
X38702Y-21325D01*
X38653Y-21325D01*
X37801Y-21325D01*
X37753Y-21334D01*
X37708Y-21353D01*
X37667Y-21380D01*
X37632Y-21415D01*
X37618Y-21434D01*
X37573Y-21403D01*
X37451Y-21352D01*
X37321Y-21326D01*
X37189Y-21325D01*
X37059Y-21349D01*
X36936Y-21399D01*
X36825Y-21471D01*
X36749Y-21545D01*
X36682Y-21478D01*
X36573Y-21403D01*
X36451Y-21352D01*
X36321Y-21326D01*
X36189Y-21325D01*
X36059Y-21349D01*
X35936Y-21399D01*
X35825Y-21471D01*
X35749Y-21545D01*
X35682Y-21478D01*
X35573Y-21403D01*
X35451Y-21352D01*
X35321Y-21326D01*
X35189Y-21325D01*
X35059Y-21349D01*
X34936Y-21399D01*
X34825Y-21471D01*
X34749Y-21545D01*
X34682Y-21478D01*
X34573Y-21403D01*
X34451Y-21352D01*
X34321Y-21326D01*
X34189Y-21325D01*
X34059Y-21349D01*
X33936Y-21399D01*
X33825Y-21471D01*
X33731Y-21564D01*
X33656Y-21673D01*
X33604Y-21795D01*
X33576Y-21924D01*
X33574Y-22057D01*
X33598Y-22187D01*
X33647Y-22310D01*
X33718Y-22421D01*
X33810Y-22516D01*
X33899Y-22578D01*
X34250Y-22929D01*
X34604Y-22574D01*
X34667Y-22535D01*
X34750Y-22454D01*
X34795Y-22500D01*
X34731Y-22564D01*
X34673Y-22647D01*
X34321Y-23000D01*
X34675Y-23354D01*
X34718Y-23421D01*
X34810Y-23516D01*
X34919Y-23592D01*
X35040Y-23645D01*
X35170Y-23673D01*
X35302Y-23676D01*
X35432Y-23653D01*
X35556Y-23605D01*
X35667Y-23535D01*
X35750Y-23454D01*
X35810Y-23516D01*
X35919Y-23592D01*
X36040Y-23645D01*
X36170Y-23673D01*
X36302Y-23676D01*
X36432Y-23653D01*
X36556Y-23605D01*
X36667Y-23535D01*
X36750Y-23454D01*
X36810Y-23516D01*
X36919Y-23592D01*
X37040Y-23645D01*
X37170Y-23673D01*
X37302Y-23676D01*
X37432Y-23653D01*
X37556Y-23605D01*
X37667Y-23535D01*
X37750Y-23454D01*
X37810Y-23516D01*
X37919Y-23592D01*
X38040Y-23645D01*
X38170Y-23673D01*
X38302Y-23676D01*
X38432Y-23653D01*
X38556Y-23605D01*
X38667Y-23535D01*
X38763Y-23443D01*
X38840Y-23335D01*
X38893Y-23214D01*
X38923Y-23085D01*
X38925Y-22934D01*
X38925Y-24822D01*
X38902Y-24933D01*
X38900Y-25051D01*
X38921Y-25166D01*
X38965Y-25275D01*
X39028Y-25374D01*
X39100Y-25448D01*
X39100Y-25803D01*
X39039Y-25863D01*
X38972Y-25960D01*
X38926Y-26068D01*
X38902Y-26183D01*
X38900Y-26301D01*
X38921Y-26416D01*
X38965Y-26525D01*
X39028Y-26624D01*
X39100Y-26698D01*
X39100Y-26803D01*
X39039Y-26863D01*
X38972Y-26960D01*
X38926Y-27068D01*
X38902Y-27183D01*
X38900Y-27301D01*
X38921Y-27416D01*
X38965Y-27525D01*
X39028Y-27624D01*
X39110Y-27709D01*
X39207Y-27776D01*
X39314Y-27823D01*
X39429Y-27848D01*
X39546Y-27850D01*
X39662Y-27830D01*
X39772Y-27787D01*
X39871Y-27724D01*
X39956Y-27643D01*
X40023Y-27547D01*
X40071Y-27440D01*
X40097Y-27325D01*
X40099Y-27191D01*
X40099Y-29700D01*
X39429Y-29700D01*
X39422Y-29683D01*
X39395Y-29642D01*
X39360Y-29607D01*
X39320Y-29579D01*
X39275Y-29560D01*
X39227Y-29550D01*
X39178Y-29550D01*
X38276Y-29550D01*
X38228Y-29559D01*
X38183Y-29578D01*
X38142Y-29605D01*
X38107Y-29640D01*
X38079Y-29680D01*
X38070Y-29700D01*
X37099Y-29700D01*
X37099Y-27225D01*
X37083Y-27110D01*
X37044Y-27000D01*
X37013Y-26940D01*
X36914Y-26907D01*
X36571Y-27250D01*
X36914Y-27593D01*
X37013Y-27560D01*
X37063Y-27455D01*
X37093Y-27342D01*
X37099Y-27225D01*
X37099Y-29700D01*
X36843Y-29700D01*
X36843Y-27664D01*
X36500Y-27321D01*
X36429Y-27392D01*
X36429Y-27250D01*
X36086Y-26907D01*
X35987Y-26940D01*
X35937Y-27045D01*
X35907Y-27158D01*
X35901Y-27275D01*
X35917Y-27390D01*
X35956Y-27500D01*
X35987Y-27560D01*
X36086Y-27593D01*
X36429Y-27250D01*
X36429Y-27392D01*
X36157Y-27664D01*
X36190Y-27763D01*
X36295Y-27813D01*
X36408Y-27843D01*
X36525Y-27849D01*
X36640Y-27833D01*
X36750Y-27794D01*
X36810Y-27763D01*
X36843Y-27664D01*
X36843Y-29700D01*
X35800Y-29700D01*
X35800Y-26800D01*
X36169Y-26800D01*
X36157Y-26836D01*
X36500Y-27179D01*
X36843Y-26836D01*
X36817Y-26758D01*
X36871Y-26724D01*
X36956Y-26643D01*
X37023Y-26547D01*
X37071Y-26440D01*
X37097Y-26325D01*
X37099Y-26191D01*
X37076Y-26076D01*
X37031Y-25967D01*
X36966Y-25869D01*
X36883Y-25786D01*
X36786Y-25720D01*
X36678Y-25675D01*
X36563Y-25651D01*
X36445Y-25651D01*
X36330Y-25673D01*
X36263Y-25700D01*
X35800Y-25700D01*
X35800Y-25434D01*
X35862Y-25347D01*
X35918Y-25222D01*
X35948Y-25088D01*
X35950Y-24931D01*
X35923Y-24796D01*
X35871Y-24669D01*
X35795Y-24555D01*
X35698Y-24458D01*
X35584Y-24381D01*
X35458Y-24328D01*
X35323Y-24300D01*
X35186Y-24300D01*
X35051Y-24325D01*
X34924Y-24377D01*
X34809Y-24452D01*
X34711Y-24548D01*
X34646Y-24642D01*
X34646Y-23467D01*
X34250Y-23071D01*
X34179Y-23142D01*
X34179Y-23000D01*
X33783Y-22604D01*
X33676Y-22645D01*
X33618Y-22764D01*
X33584Y-22891D01*
X33575Y-23023D01*
X33593Y-23153D01*
X33636Y-23278D01*
X33676Y-23355D01*
X33783Y-23396D01*
X34179Y-23000D01*
X34179Y-23142D01*
X33854Y-23467D01*
X33895Y-23574D01*
X34014Y-23632D01*
X34141Y-23666D01*
X34273Y-23675D01*
X34403Y-23657D01*
X34528Y-23614D01*
X34605Y-23574D01*
X34646Y-23467D01*
X34646Y-24642D01*
X34633Y-24661D01*
X34579Y-24788D01*
X34551Y-24922D01*
X34549Y-25059D01*
X34574Y-25194D01*
X34625Y-25322D01*
X34699Y-25437D01*
X34700Y-25438D01*
X34700Y-26242D01*
X34700Y-26246D01*
X34700Y-26250D01*
X34700Y-29992D01*
X34700Y-30000D01*
X34700Y-30020D01*
X33418Y-31301D01*
X33301Y-31323D01*
X33174Y-31375D01*
X33059Y-31450D01*
X32961Y-31546D01*
X32883Y-31659D01*
X32829Y-31786D01*
X32801Y-31920D01*
X32799Y-32057D01*
X32824Y-32192D01*
X32875Y-32320D01*
X32949Y-32435D01*
X33044Y-32534D01*
X33157Y-32612D01*
X33283Y-32667D01*
X33417Y-32696D01*
X33554Y-32699D01*
X33690Y-32675D01*
X33817Y-32626D01*
X33933Y-32552D01*
X34033Y-32457D01*
X34112Y-32345D01*
X34168Y-32220D01*
X34198Y-32086D01*
X34198Y-32077D01*
X35476Y-30800D01*
X38070Y-30800D01*
X38078Y-30817D01*
X38105Y-30858D01*
X38140Y-30893D01*
X38180Y-30921D01*
X38225Y-30940D01*
X38273Y-30950D01*
X38322Y-30950D01*
X39224Y-30950D01*
X39272Y-30941D01*
X39317Y-30922D01*
X39358Y-30895D01*
X39393Y-30860D01*
X39421Y-30820D01*
X39429Y-30800D01*
X44070Y-30800D01*
X44078Y-30817D01*
X44105Y-30858D01*
X44140Y-30893D01*
X44180Y-30921D01*
X44225Y-30940D01*
X44273Y-30950D01*
X44322Y-30950D01*
X45224Y-30950D01*
X45272Y-30941D01*
X45317Y-30922D01*
X45358Y-30895D01*
X45393Y-30860D01*
X45421Y-30820D01*
X45429Y-30800D01*
X47950Y-30800D01*
X47950Y-32242D01*
X47950Y-32246D01*
X47950Y-32250D01*
X47950Y-34242D01*
X47950Y-34246D01*
X47950Y-34250D01*
X47950Y-37742D01*
X47950Y-37746D01*
X47950Y-37750D01*
X47950Y-39742D01*
X47950Y-39746D01*
X47950Y-39750D01*
X47950Y-40992D01*
X47950Y-41000D01*
X47950Y-41742D01*
X47950Y-41746D01*
X47950Y-41750D01*
X47950Y-42522D01*
X45772Y-44700D01*
X45449Y-44700D01*
X45449Y-42229D01*
X45432Y-42094D01*
X45389Y-41964D01*
X45345Y-41880D01*
X45235Y-41836D01*
X45164Y-41907D01*
X45164Y-41765D01*
X45120Y-41655D01*
X44997Y-41595D01*
X44866Y-41560D01*
X44729Y-41551D01*
X44594Y-41568D01*
X44464Y-41611D01*
X44380Y-41655D01*
X44336Y-41765D01*
X44750Y-42179D01*
X45164Y-41765D01*
X45164Y-41907D01*
X44821Y-42250D01*
X45235Y-42664D01*
X45345Y-42620D01*
X45405Y-42497D01*
X45440Y-42366D01*
X45449Y-42229D01*
X45449Y-44700D01*
X45164Y-44700D01*
X45164Y-42735D01*
X44750Y-42321D01*
X44679Y-42392D01*
X44679Y-42250D01*
X44265Y-41836D01*
X44155Y-41880D01*
X44095Y-42003D01*
X44060Y-42134D01*
X44051Y-42271D01*
X44068Y-42406D01*
X44111Y-42536D01*
X44155Y-42620D01*
X44265Y-42664D01*
X44679Y-42250D01*
X44679Y-42392D01*
X44336Y-42735D01*
X44380Y-42845D01*
X44503Y-42905D01*
X44634Y-42940D01*
X44771Y-42949D01*
X44906Y-42932D01*
X45036Y-42889D01*
X45120Y-42845D01*
X45164Y-42735D01*
X45164Y-44700D01*
X42258Y-44700D01*
X42250Y-44700D01*
X39449Y-44700D01*
X39449Y-42229D01*
X39432Y-42094D01*
X39389Y-41964D01*
X39345Y-41880D01*
X39235Y-41836D01*
X39164Y-41907D01*
X39164Y-41765D01*
X39120Y-41655D01*
X38997Y-41595D01*
X38866Y-41560D01*
X38729Y-41551D01*
X38594Y-41568D01*
X38464Y-41611D01*
X38380Y-41655D01*
X38336Y-41765D01*
X38750Y-42179D01*
X39164Y-41765D01*
X39164Y-41907D01*
X38821Y-42250D01*
X39235Y-42664D01*
X39345Y-42620D01*
X39405Y-42497D01*
X39440Y-42366D01*
X39449Y-42229D01*
X39449Y-44700D01*
X39164Y-44700D01*
X39164Y-42735D01*
X38750Y-42321D01*
X38679Y-42392D01*
X38679Y-42250D01*
X38265Y-41836D01*
X38155Y-41880D01*
X38095Y-42003D01*
X38060Y-42134D01*
X38051Y-42271D01*
X38068Y-42406D01*
X38111Y-42536D01*
X38155Y-42620D01*
X38265Y-42664D01*
X38679Y-42250D01*
X38679Y-42392D01*
X38336Y-42735D01*
X38380Y-42845D01*
X38503Y-42905D01*
X38634Y-42940D01*
X38771Y-42949D01*
X38906Y-42932D01*
X39036Y-42889D01*
X39120Y-42845D01*
X39164Y-42735D01*
X39164Y-44700D01*
X37508Y-44700D01*
X37500Y-44700D01*
X37258Y-44700D01*
X37254Y-44700D01*
X37250Y-44700D01*
X34625Y-44700D01*
X34625Y-43902D01*
X34625Y-43853D01*
X34625Y-43101D01*
X34616Y-43053D01*
X34597Y-43008D01*
X34570Y-42967D01*
X34535Y-42932D01*
X34495Y-42904D01*
X34450Y-42885D01*
X34402Y-42875D01*
X34400Y-42875D01*
X34400Y-41754D01*
X34400Y-41750D01*
X34397Y-41722D01*
X34393Y-41676D01*
X34392Y-41672D01*
X34389Y-41665D01*
X34372Y-41601D01*
X34370Y-41598D01*
X34335Y-41532D01*
X34333Y-41530D01*
X34333Y-41529D01*
X34315Y-41507D01*
X34287Y-41471D01*
X34284Y-41468D01*
X34283Y-41467D01*
X34189Y-41373D01*
X34198Y-41338D01*
X34200Y-41181D01*
X34200Y-34685D01*
X34173Y-34550D01*
X34121Y-34423D01*
X34045Y-34309D01*
X33948Y-34212D01*
X33834Y-34135D01*
X33708Y-34082D01*
X33573Y-34054D01*
X33436Y-34054D01*
X33301Y-34079D01*
X33174Y-34131D01*
X33059Y-34206D01*
X32961Y-34302D01*
X32883Y-34415D01*
X32829Y-34542D01*
X32801Y-34676D01*
X32799Y-34813D01*
X32824Y-34948D01*
X32875Y-35076D01*
X32949Y-35191D01*
X33044Y-35290D01*
X33157Y-35368D01*
X33283Y-35423D01*
X33417Y-35452D01*
X33554Y-35455D01*
X33690Y-35431D01*
X33817Y-35382D01*
X33933Y-35308D01*
X34033Y-35213D01*
X34112Y-35101D01*
X34168Y-34976D01*
X34198Y-34842D01*
X34200Y-34685D01*
X34200Y-41181D01*
X34173Y-41046D01*
X34121Y-40919D01*
X34045Y-40805D01*
X33948Y-40708D01*
X33834Y-40631D01*
X33708Y-40578D01*
X33573Y-40550D01*
X33436Y-40550D01*
X33376Y-40561D01*
X32075Y-39259D01*
X32075Y-22370D01*
X32025Y-22115D01*
X31925Y-21875D01*
X31782Y-21658D01*
X31599Y-21474D01*
X31383Y-21329D01*
X31144Y-21228D01*
X30889Y-21176D01*
X30629Y-21174D01*
X30374Y-21223D01*
X30133Y-21320D01*
X29916Y-21462D01*
X29730Y-21644D01*
X29583Y-21859D01*
X29481Y-22098D01*
X29427Y-22352D01*
X29423Y-22611D01*
X29470Y-22867D01*
X29566Y-23109D01*
X29707Y-23327D01*
X29887Y-23514D01*
X30101Y-23662D01*
X30339Y-23766D01*
X30592Y-23822D01*
X30852Y-23827D01*
X31108Y-23782D01*
X31350Y-23688D01*
X31570Y-23549D01*
X31758Y-23370D01*
X31908Y-23158D01*
X32013Y-22920D01*
X32071Y-22667D01*
X32075Y-22370D01*
X32075Y-39259D01*
X31286Y-38470D01*
X31285Y-38469D01*
X31283Y-38467D01*
X31266Y-38453D01*
X31226Y-38420D01*
X31222Y-38418D01*
X31158Y-38382D01*
X31154Y-38381D01*
X31083Y-38359D01*
X31081Y-38358D01*
X31079Y-38358D01*
X31041Y-38354D01*
X31006Y-38350D01*
X31001Y-38350D01*
X31000Y-38350D01*
X25756Y-38350D01*
X25750Y-38350D01*
X23915Y-38350D01*
X23123Y-37557D01*
X23125Y-37439D01*
X23101Y-37319D01*
X23055Y-37205D01*
X22987Y-37103D01*
X22984Y-37100D01*
X22992Y-37097D01*
X23033Y-37070D01*
X23068Y-37035D01*
X23096Y-36995D01*
X23115Y-36950D01*
X23125Y-36902D01*
X23125Y-36853D01*
X23125Y-36653D01*
X23228Y-36550D01*
X25242Y-36550D01*
X25250Y-36550D01*
X25855Y-36550D01*
X25793Y-36697D01*
X25752Y-36888D01*
X25750Y-37084D01*
X25785Y-37277D01*
X25857Y-37459D01*
X25963Y-37624D01*
X26099Y-37764D01*
X26260Y-37876D01*
X26440Y-37955D01*
X26631Y-37997D01*
X26827Y-38001D01*
X27020Y-37967D01*
X27203Y-37896D01*
X27368Y-37791D01*
X27510Y-37656D01*
X27623Y-37496D01*
X27702Y-37317D01*
X27746Y-37126D01*
X27749Y-36902D01*
X27711Y-36710D01*
X27644Y-36550D01*
X27870Y-36550D01*
X27876Y-36550D01*
X27930Y-36544D01*
X27977Y-36541D01*
X27979Y-36540D01*
X27983Y-36540D01*
X28060Y-36516D01*
X28080Y-36511D01*
X28080Y-36510D01*
X28086Y-36509D01*
X28137Y-36480D01*
X28176Y-36461D01*
X28179Y-36458D01*
X28180Y-36458D01*
X28192Y-36447D01*
X28259Y-36395D01*
X28264Y-36390D01*
X28265Y-36389D01*
X30581Y-34072D01*
X30690Y-34053D01*
X30817Y-34004D01*
X30933Y-33930D01*
X31033Y-33835D01*
X31112Y-33723D01*
X31168Y-33598D01*
X31198Y-33464D01*
X31200Y-33307D01*
X31173Y-33172D01*
X31121Y-33045D01*
X31045Y-32931D01*
X30948Y-32834D01*
X30834Y-32757D01*
X30708Y-32704D01*
X30573Y-32676D01*
X30436Y-32676D01*
X30301Y-32701D01*
X30174Y-32753D01*
X30059Y-32828D01*
X29961Y-32924D01*
X29883Y-33037D01*
X29829Y-33164D01*
X29801Y-33296D01*
X27648Y-35450D01*
X27643Y-35450D01*
X27702Y-35317D01*
X27746Y-35126D01*
X27749Y-34902D01*
X27749Y-30902D01*
X27711Y-30710D01*
X27636Y-30529D01*
X27528Y-30366D01*
X27390Y-30227D01*
X27300Y-30166D01*
X27300Y-30008D01*
X27300Y-30004D01*
X27300Y-30000D01*
X27300Y-29834D01*
X27368Y-29791D01*
X27510Y-29656D01*
X27623Y-29496D01*
X27702Y-29317D01*
X27746Y-29126D01*
X27749Y-28902D01*
X27711Y-28710D01*
X27636Y-28529D01*
X27528Y-28366D01*
X27390Y-28227D01*
X27227Y-28117D01*
X27047Y-28041D01*
X26855Y-28002D01*
X26659Y-28000D01*
X26467Y-28037D01*
X26285Y-28110D01*
X26121Y-28218D01*
X25981Y-28355D01*
X25870Y-28516D01*
X25793Y-28697D01*
X25752Y-28888D01*
X25750Y-29084D01*
X25785Y-29277D01*
X25853Y-29450D01*
X25478Y-29450D01*
X24643Y-28615D01*
X24639Y-28611D01*
X24610Y-28587D01*
X24561Y-28546D01*
X24556Y-28543D01*
X24541Y-28535D01*
X24467Y-28494D01*
X24461Y-28492D01*
X24440Y-28485D01*
X24364Y-28462D01*
X24361Y-28461D01*
X24359Y-28461D01*
X24320Y-28457D01*
X24258Y-28450D01*
X24251Y-28450D01*
X24250Y-28450D01*
X23245Y-28450D01*
X23241Y-28428D01*
X23222Y-28383D01*
X23195Y-28342D01*
X23160Y-28307D01*
X23120Y-28279D01*
X23075Y-28260D01*
X23027Y-28250D01*
X22978Y-28250D01*
X21976Y-28250D01*
X21928Y-28259D01*
X21883Y-28278D01*
X21842Y-28305D01*
X21807Y-28340D01*
X21779Y-28380D01*
X21760Y-28425D01*
X21750Y-28473D01*
X21750Y-28522D01*
X21750Y-29524D01*
X21759Y-29572D01*
X21778Y-29617D01*
X21805Y-29658D01*
X21840Y-29693D01*
X21880Y-29721D01*
X21925Y-29740D01*
X21973Y-29750D01*
X22022Y-29750D01*
X23024Y-29750D01*
X23072Y-29741D01*
X23117Y-29722D01*
X23158Y-29695D01*
X23193Y-29660D01*
X23221Y-29620D01*
X23240Y-29575D01*
X23245Y-29550D01*
X24022Y-29550D01*
X24857Y-30385D01*
X24861Y-30389D01*
X24889Y-30412D01*
X24939Y-30454D01*
X24943Y-30456D01*
X24944Y-30457D01*
X24966Y-30468D01*
X25033Y-30506D01*
X25036Y-30506D01*
X25038Y-30508D01*
X25084Y-30521D01*
X25136Y-30538D01*
X25138Y-30538D01*
X25141Y-30539D01*
X25182Y-30543D01*
X25242Y-30550D01*
X25248Y-30550D01*
X25250Y-30550D01*
X25855Y-30550D01*
X25793Y-30697D01*
X25752Y-30888D01*
X25750Y-31084D01*
X25785Y-31277D01*
X25857Y-31459D01*
X25963Y-31624D01*
X26099Y-31764D01*
X26260Y-31876D01*
X26440Y-31955D01*
X26631Y-31997D01*
X26827Y-32001D01*
X27020Y-31967D01*
X27203Y-31896D01*
X27368Y-31791D01*
X27510Y-31656D01*
X27623Y-31496D01*
X27702Y-31317D01*
X27746Y-31126D01*
X27749Y-30902D01*
X27749Y-34902D01*
X27711Y-34710D01*
X27636Y-34529D01*
X27528Y-34366D01*
X27390Y-34227D01*
X27227Y-34117D01*
X27047Y-34041D01*
X26855Y-34002D01*
X26659Y-34000D01*
X26467Y-34037D01*
X26285Y-34110D01*
X26121Y-34218D01*
X25981Y-34355D01*
X25870Y-34516D01*
X25793Y-34697D01*
X25752Y-34888D01*
X25750Y-35084D01*
X25785Y-35277D01*
X25853Y-35450D01*
X25258Y-35450D01*
X25250Y-35450D01*
X23250Y-35450D01*
X23250Y-30982D01*
X23232Y-30837D01*
X23186Y-30697D01*
X23134Y-30600D01*
X23020Y-30550D01*
X22950Y-30620D01*
X22950Y-30480D01*
X22900Y-30366D01*
X22769Y-30300D01*
X22628Y-30261D01*
X22482Y-30250D01*
X22337Y-30268D01*
X22197Y-30314D01*
X22100Y-30366D01*
X22050Y-30480D01*
X22500Y-30929D01*
X22950Y-30480D01*
X22950Y-30620D01*
X22571Y-31000D01*
X23020Y-31450D01*
X23134Y-31400D01*
X23200Y-31269D01*
X23239Y-31128D01*
X23250Y-30982D01*
X23250Y-35450D01*
X23006Y-35450D01*
X23000Y-35450D01*
X22950Y-35454D01*
X22950Y-31520D01*
X22500Y-31071D01*
X22429Y-31141D01*
X22429Y-31000D01*
X21980Y-30550D01*
X21866Y-30600D01*
X21800Y-30731D01*
X21761Y-30872D01*
X21750Y-31018D01*
X21768Y-31163D01*
X21814Y-31303D01*
X21866Y-31400D01*
X21980Y-31450D01*
X22429Y-31000D01*
X22429Y-31141D01*
X22050Y-31520D01*
X22100Y-31634D01*
X22231Y-31700D01*
X22372Y-31739D01*
X22518Y-31750D01*
X22663Y-31732D01*
X22803Y-31686D01*
X22900Y-31634D01*
X22950Y-31520D01*
X22950Y-35454D01*
X22946Y-35455D01*
X22899Y-35459D01*
X22896Y-35459D01*
X22893Y-35460D01*
X22816Y-35483D01*
X22796Y-35489D01*
X22795Y-35489D01*
X22790Y-35491D01*
X22738Y-35519D01*
X22700Y-35539D01*
X22696Y-35541D01*
X22696Y-35542D01*
X22612Y-35610D01*
X22611Y-35610D01*
X22611Y-35611D01*
X22347Y-35875D01*
X22101Y-35875D01*
X22053Y-35884D01*
X22008Y-35903D01*
X21967Y-35930D01*
X21932Y-35965D01*
X21904Y-36005D01*
X21885Y-36050D01*
X21875Y-36098D01*
X21875Y-36147D01*
X21875Y-36899D01*
X21884Y-36947D01*
X21903Y-36992D01*
X21930Y-37033D01*
X21965Y-37068D01*
X22005Y-37096D01*
X22015Y-37100D01*
X21950Y-37197D01*
X21902Y-37310D01*
X21876Y-37430D01*
X21874Y-37552D01*
X21896Y-37673D01*
X21941Y-37787D01*
X22008Y-37890D01*
X22093Y-37978D01*
X22193Y-38048D01*
X22306Y-38097D01*
X22425Y-38124D01*
X22548Y-38126D01*
X22558Y-38124D01*
X23459Y-39024D01*
X23464Y-39030D01*
X23467Y-39032D01*
X23524Y-39080D01*
X23525Y-39081D01*
X23527Y-39082D01*
X23549Y-39093D01*
X23592Y-39118D01*
X23594Y-39118D01*
X23595Y-39119D01*
X23601Y-39120D01*
X23667Y-39141D01*
X23670Y-39141D01*
X23744Y-39150D01*
X23748Y-39150D01*
X23750Y-39150D01*
X25744Y-39150D01*
X25750Y-39150D01*
X30834Y-39150D01*
X32810Y-41125D01*
X32801Y-41172D01*
X32799Y-41309D01*
X32824Y-41444D01*
X32875Y-41572D01*
X32949Y-41687D01*
X33044Y-41786D01*
X33157Y-41864D01*
X33283Y-41919D01*
X33417Y-41948D01*
X33554Y-41951D01*
X33600Y-41942D01*
X33600Y-42875D01*
X33553Y-42884D01*
X33508Y-42903D01*
X33467Y-42930D01*
X33432Y-42965D01*
X33404Y-43005D01*
X33385Y-43050D01*
X33375Y-43098D01*
X33375Y-43147D01*
X33375Y-43899D01*
X33384Y-43947D01*
X33403Y-43992D01*
X33430Y-44033D01*
X33465Y-44068D01*
X33505Y-44096D01*
X33550Y-44115D01*
X33598Y-44125D01*
X33647Y-44125D01*
X34399Y-44125D01*
X34447Y-44116D01*
X34492Y-44097D01*
X34533Y-44070D01*
X34568Y-44035D01*
X34596Y-43995D01*
X34615Y-43950D01*
X34625Y-43902D01*
X34625Y-44700D01*
X34508Y-44700D01*
X34500Y-44700D01*
X31200Y-44700D01*
X31200Y-41724D01*
X31200Y-41362D01*
X31200Y-41138D01*
X31200Y-40776D01*
X31191Y-40728D01*
X31172Y-40683D01*
X31145Y-40642D01*
X31110Y-40607D01*
X31070Y-40579D01*
X31025Y-40560D01*
X30977Y-40550D01*
X30928Y-40550D01*
X30612Y-40550D01*
X30550Y-40612D01*
X30550Y-41200D01*
X31138Y-41200D01*
X31200Y-41138D01*
X31200Y-41362D01*
X31138Y-41300D01*
X30550Y-41300D01*
X30550Y-41888D01*
X30612Y-41950D01*
X30928Y-41950D01*
X30977Y-41950D01*
X31025Y-41940D01*
X31070Y-41921D01*
X31110Y-41893D01*
X31145Y-41858D01*
X31172Y-41817D01*
X31191Y-41772D01*
X31200Y-41724D01*
X31200Y-44700D01*
X30624Y-44700D01*
X30624Y-43476D01*
X30607Y-43355D01*
X30567Y-43240D01*
X30533Y-43175D01*
X30450Y-43145D01*
X30450Y-41888D01*
X30450Y-41300D01*
X30450Y-41200D01*
X30450Y-40612D01*
X30388Y-40550D01*
X30072Y-40550D01*
X30023Y-40550D01*
X29975Y-40560D01*
X29930Y-40579D01*
X29890Y-40607D01*
X29855Y-40642D01*
X29828Y-40683D01*
X29809Y-40728D01*
X29800Y-40776D01*
X29800Y-41138D01*
X29862Y-41200D01*
X30450Y-41200D01*
X30450Y-41300D01*
X29862Y-41300D01*
X29800Y-41362D01*
X29800Y-41724D01*
X29809Y-41772D01*
X29828Y-41817D01*
X29855Y-41858D01*
X29890Y-41893D01*
X29930Y-41921D01*
X29975Y-41940D01*
X30023Y-41950D01*
X30072Y-41950D01*
X30388Y-41950D01*
X30450Y-41888D01*
X30450Y-43145D01*
X30431Y-43139D01*
X30361Y-43209D01*
X30361Y-43069D01*
X30325Y-42967D01*
X30216Y-42914D01*
X30098Y-42883D01*
X29976Y-42876D01*
X29855Y-42893D01*
X29740Y-42933D01*
X29675Y-42967D01*
X29639Y-43069D01*
X30000Y-43429D01*
X30361Y-43069D01*
X30361Y-43209D01*
X30071Y-43500D01*
X30431Y-43861D01*
X30533Y-43825D01*
X30586Y-43716D01*
X30617Y-43598D01*
X30624Y-43476D01*
X30624Y-44700D01*
X30361Y-44700D01*
X30361Y-43931D01*
X30000Y-43571D01*
X29929Y-43641D01*
X29929Y-43500D01*
X29569Y-43139D01*
X29467Y-43175D01*
X29414Y-43284D01*
X29383Y-43402D01*
X29376Y-43524D01*
X29393Y-43645D01*
X29433Y-43760D01*
X29467Y-43825D01*
X29569Y-43861D01*
X29929Y-43500D01*
X29929Y-43641D01*
X29639Y-43931D01*
X29675Y-44033D01*
X29784Y-44086D01*
X29902Y-44117D01*
X30024Y-44124D01*
X30145Y-44107D01*
X30260Y-44067D01*
X30325Y-44033D01*
X30361Y-43931D01*
X30361Y-44700D01*
X27755Y-44700D01*
X27750Y-44700D01*
X27705Y-44704D01*
X27648Y-44709D01*
X27645Y-44709D01*
X27643Y-44710D01*
X27596Y-44724D01*
X27545Y-44739D01*
X27542Y-44740D01*
X27540Y-44741D01*
X27501Y-44762D01*
X27450Y-44789D01*
X27446Y-44791D01*
X27446Y-44792D01*
X27430Y-44804D01*
X27366Y-44856D01*
X27362Y-44860D01*
X27361Y-44861D01*
X27357Y-44865D01*
X27355Y-44866D01*
X27315Y-44874D01*
X27197Y-44921D01*
X27091Y-44991D01*
X26999Y-45080D01*
X26928Y-45186D01*
X26877Y-45303D01*
X26851Y-45427D01*
X26849Y-45555D01*
X26872Y-45680D01*
X26919Y-45799D01*
X26988Y-45906D01*
X27077Y-45998D01*
X27182Y-46070D01*
X27298Y-46121D01*
X27423Y-46149D01*
X27550Y-46151D01*
X27676Y-46129D01*
X27795Y-46083D01*
X27902Y-46015D01*
X27995Y-45927D01*
X28068Y-45822D01*
X28077Y-45800D01*
X34492Y-45800D01*
X34500Y-45800D01*
X36700Y-45800D01*
X36700Y-46563D01*
X36633Y-46661D01*
X36579Y-46788D01*
X36551Y-46922D01*
X36549Y-47059D01*
X36574Y-47194D01*
X36625Y-47322D01*
X36699Y-47437D01*
X36794Y-47536D01*
X36907Y-47614D01*
X37033Y-47669D01*
X37167Y-47698D01*
X37304Y-47701D01*
X37440Y-47677D01*
X37567Y-47628D01*
X37683Y-47554D01*
X37783Y-47459D01*
X37862Y-47347D01*
X37918Y-47222D01*
X37948Y-47088D01*
X37950Y-46931D01*
X37923Y-46796D01*
X37871Y-46669D01*
X37800Y-46562D01*
X37800Y-45800D01*
X42242Y-45800D01*
X42250Y-45800D01*
X45994Y-45800D01*
X46000Y-45800D01*
X46054Y-45794D01*
X46101Y-45791D01*
X46103Y-45790D01*
X46107Y-45790D01*
X46184Y-45766D01*
X46204Y-45761D01*
X46204Y-45760D01*
X46210Y-45759D01*
X46261Y-45730D01*
X46300Y-45711D01*
X46303Y-45708D01*
X46304Y-45708D01*
X46316Y-45697D01*
X46383Y-45645D01*
X46388Y-45640D01*
X46389Y-45639D01*
X48885Y-43143D01*
X48889Y-43139D01*
X48932Y-43087D01*
X48954Y-43061D01*
X48954Y-43059D01*
X48957Y-43057D01*
X48982Y-43008D01*
X49006Y-42967D01*
X49006Y-42963D01*
X49008Y-42962D01*
X49014Y-42939D01*
X49038Y-42864D01*
X49038Y-42859D01*
X49050Y-42758D01*
X49050Y-42752D01*
X49050Y-42750D01*
X49050Y-42300D01*
X49447Y-42300D01*
X49465Y-42318D01*
X49505Y-42346D01*
X49550Y-42365D01*
X49598Y-42375D01*
X49647Y-42375D01*
X50399Y-42375D01*
X50447Y-42366D01*
X50492Y-42347D01*
X50533Y-42320D01*
X50568Y-42285D01*
X50596Y-42245D01*
X50615Y-42200D01*
X50625Y-42152D01*
X50625Y-48635D01*
X50446Y-48560D01*
X50158Y-48501D01*
X49863Y-48499D01*
X49575Y-48554D01*
X49302Y-48664D01*
X49056Y-48825D01*
X48845Y-49031D01*
X48679Y-49274D01*
X48563Y-49544D01*
X48502Y-49832D01*
X48498Y-50126D01*
X48551Y-50415D01*
X48659Y-50689D01*
X48819Y-50936D01*
X49023Y-51148D01*
X49265Y-51316D01*
X49534Y-51433D01*
X49821Y-51497D01*
X50116Y-51503D01*
X50405Y-51452D01*
X50679Y-51345D01*
X50928Y-51188D01*
X51141Y-50985D01*
X51310Y-50745D01*
X51430Y-50476D01*
X51495Y-50189D01*
X51500Y-49853D01*
X51500Y-51540D01*
X50865Y-52175D01*
X43075Y-52175D01*
X43075Y-49870D01*
X43025Y-49615D01*
X42925Y-49375D01*
X42782Y-49158D01*
X42599Y-48974D01*
X42383Y-48829D01*
X42144Y-48728D01*
X41889Y-48676D01*
X41629Y-48674D01*
X41374Y-48723D01*
X41133Y-48820D01*
X40916Y-48962D01*
X40730Y-49144D01*
X40583Y-49359D01*
X40481Y-49598D01*
X40427Y-49852D01*
X40423Y-50111D01*
X40470Y-50367D01*
X40566Y-50609D01*
X40707Y-50827D01*
X40887Y-51014D01*
X41101Y-51162D01*
X41339Y-51266D01*
X41592Y-51322D01*
X41852Y-51327D01*
X42108Y-51282D01*
X42350Y-51188D01*
X42570Y-51049D01*
X42758Y-50870D01*
X42908Y-50658D01*
X43013Y-50420D01*
X43071Y-50167D01*
X43075Y-49870D01*
X43075Y-52175D01*
X38925Y-52175D01*
X38925Y-50434D01*
X38925Y-49477D01*
X38907Y-49347D01*
X38864Y-49222D01*
X38824Y-49145D01*
X38717Y-49104D01*
X38646Y-49175D01*
X38646Y-49033D01*
X38605Y-48926D01*
X38486Y-48868D01*
X38359Y-48834D01*
X38227Y-48825D01*
X38097Y-48843D01*
X37972Y-48886D01*
X37895Y-48926D01*
X37854Y-49033D01*
X38250Y-49429D01*
X38646Y-49033D01*
X38646Y-49175D01*
X38321Y-49500D01*
X38717Y-49896D01*
X38824Y-49855D01*
X38882Y-49736D01*
X38916Y-49609D01*
X38925Y-49477D01*
X38925Y-50434D01*
X38899Y-50304D01*
X38849Y-50182D01*
X38776Y-50071D01*
X38682Y-49978D01*
X38601Y-49922D01*
X38250Y-49571D01*
X37896Y-49924D01*
X37825Y-49971D01*
X37749Y-50045D01*
X37703Y-49999D01*
X37763Y-49943D01*
X37830Y-49848D01*
X38179Y-49500D01*
X37825Y-49146D01*
X37776Y-49071D01*
X37682Y-48978D01*
X37573Y-48903D01*
X37451Y-48852D01*
X37321Y-48826D01*
X37189Y-48825D01*
X37059Y-48849D01*
X36936Y-48899D01*
X36825Y-48971D01*
X36749Y-49045D01*
X36682Y-48978D01*
X36573Y-48903D01*
X36451Y-48852D01*
X36321Y-48826D01*
X36189Y-48825D01*
X36059Y-48849D01*
X35936Y-48899D01*
X35825Y-48971D01*
X35749Y-49045D01*
X35682Y-48978D01*
X35573Y-48903D01*
X35451Y-48852D01*
X35321Y-48826D01*
X35189Y-48825D01*
X35059Y-48849D01*
X34936Y-48899D01*
X34825Y-48971D01*
X34749Y-49045D01*
X34682Y-48978D01*
X34573Y-48903D01*
X34451Y-48852D01*
X34321Y-48826D01*
X34189Y-48825D01*
X34059Y-48849D01*
X33936Y-48899D01*
X33825Y-48971D01*
X33731Y-49064D01*
X33656Y-49173D01*
X33604Y-49295D01*
X33599Y-49318D01*
X33599Y-46941D01*
X33576Y-46826D01*
X33531Y-46717D01*
X33466Y-46619D01*
X33383Y-46536D01*
X33286Y-46470D01*
X33178Y-46425D01*
X33063Y-46401D01*
X32967Y-46401D01*
X32786Y-46220D01*
X32783Y-46217D01*
X32766Y-46203D01*
X32726Y-46170D01*
X32722Y-46168D01*
X32658Y-46132D01*
X32654Y-46131D01*
X32583Y-46109D01*
X32581Y-46108D01*
X32579Y-46108D01*
X32541Y-46104D01*
X32506Y-46100D01*
X32501Y-46100D01*
X32500Y-46100D01*
X32014Y-46100D01*
X32006Y-46087D01*
X31916Y-45997D01*
X31810Y-45925D01*
X31693Y-45876D01*
X31568Y-45850D01*
X31441Y-45850D01*
X31315Y-45874D01*
X31197Y-45921D01*
X31091Y-45991D01*
X30999Y-46080D01*
X30928Y-46186D01*
X30877Y-46303D01*
X30851Y-46427D01*
X30849Y-46555D01*
X30872Y-46680D01*
X30919Y-46799D01*
X30988Y-46906D01*
X31077Y-46998D01*
X31182Y-47070D01*
X31298Y-47121D01*
X31423Y-47149D01*
X31550Y-47151D01*
X31676Y-47129D01*
X31795Y-47083D01*
X31902Y-47015D01*
X31995Y-46927D01*
X32013Y-46900D01*
X32334Y-46900D01*
X32401Y-46967D01*
X32400Y-47051D01*
X32421Y-47166D01*
X32465Y-47275D01*
X32528Y-47374D01*
X32610Y-47459D01*
X32707Y-47526D01*
X32814Y-47573D01*
X32929Y-47598D01*
X33046Y-47600D01*
X33162Y-47580D01*
X33272Y-47537D01*
X33371Y-47474D01*
X33456Y-47393D01*
X33523Y-47297D01*
X33571Y-47190D01*
X33597Y-47075D01*
X33599Y-46941D01*
X33599Y-49318D01*
X33576Y-49424D01*
X33574Y-49557D01*
X33598Y-49687D01*
X33647Y-49810D01*
X33684Y-49868D01*
X33667Y-49880D01*
X33632Y-49915D01*
X33604Y-49955D01*
X33585Y-50000D01*
X33575Y-50048D01*
X33575Y-50097D01*
X33575Y-50949D01*
X33584Y-50997D01*
X33603Y-51042D01*
X33630Y-51083D01*
X33665Y-51118D01*
X33705Y-51146D01*
X33750Y-51165D01*
X33798Y-51175D01*
X33847Y-51175D01*
X34699Y-51175D01*
X34747Y-51166D01*
X34792Y-51147D01*
X34833Y-51120D01*
X34868Y-51085D01*
X34881Y-51065D01*
X34919Y-51092D01*
X35040Y-51145D01*
X35170Y-51173D01*
X35302Y-51176D01*
X35432Y-51153D01*
X35556Y-51105D01*
X35667Y-51035D01*
X35750Y-50954D01*
X35810Y-51016D01*
X35919Y-51092D01*
X36040Y-51145D01*
X36170Y-51173D01*
X36302Y-51176D01*
X36432Y-51153D01*
X36556Y-51105D01*
X36667Y-51035D01*
X36750Y-50954D01*
X36810Y-51016D01*
X36919Y-51092D01*
X37040Y-51145D01*
X37170Y-51173D01*
X37302Y-51176D01*
X37432Y-51153D01*
X37556Y-51105D01*
X37667Y-51035D01*
X37750Y-50954D01*
X37810Y-51016D01*
X37919Y-51092D01*
X38040Y-51145D01*
X38170Y-51173D01*
X38302Y-51176D01*
X38432Y-51153D01*
X38556Y-51105D01*
X38667Y-51035D01*
X38763Y-50943D01*
X38840Y-50835D01*
X38893Y-50714D01*
X38923Y-50585D01*
X38925Y-50434D01*
X38925Y-52175D01*
X32075Y-52175D01*
X32075Y-49870D01*
X32025Y-49615D01*
X31925Y-49375D01*
X31782Y-49158D01*
X31599Y-48974D01*
X31383Y-48829D01*
X31144Y-48728D01*
X30889Y-48676D01*
X30629Y-48674D01*
X30374Y-48723D01*
X30133Y-48820D01*
X29916Y-48962D01*
X29730Y-49144D01*
X29583Y-49359D01*
X29481Y-49598D01*
X29427Y-49852D01*
X29423Y-50111D01*
X29470Y-50367D01*
X29566Y-50609D01*
X29707Y-50827D01*
X29887Y-51014D01*
X30101Y-51162D01*
X30339Y-51266D01*
X30592Y-51322D01*
X30852Y-51327D01*
X31108Y-51282D01*
X31350Y-51188D01*
X31570Y-51049D01*
X31758Y-50870D01*
X31908Y-50658D01*
X32013Y-50420D01*
X32071Y-50167D01*
X32075Y-49870D01*
X32075Y-52175D01*
X28150Y-52175D01*
X28150Y-47477D01*
X28133Y-47351D01*
X28092Y-47231D01*
X28054Y-47160D01*
X27949Y-47122D01*
X27878Y-47193D01*
X27878Y-47051D01*
X27840Y-46946D01*
X27726Y-46890D01*
X27603Y-46858D01*
X27477Y-46850D01*
X27351Y-46867D01*
X27231Y-46908D01*
X27160Y-46946D01*
X27122Y-47051D01*
X27500Y-47429D01*
X27878Y-47051D01*
X27878Y-47193D01*
X27571Y-47500D01*
X27949Y-47878D01*
X28054Y-47840D01*
X28110Y-47726D01*
X28142Y-47603D01*
X28150Y-47477D01*
X28150Y-52175D01*
X27878Y-52175D01*
X27878Y-47949D01*
X27500Y-47571D01*
X27429Y-47642D01*
X27429Y-47500D01*
X27051Y-47122D01*
X26946Y-47160D01*
X26890Y-47274D01*
X26858Y-47397D01*
X26850Y-47523D01*
X26867Y-47649D01*
X26908Y-47769D01*
X26946Y-47840D01*
X27051Y-47878D01*
X27429Y-47500D01*
X27429Y-47642D01*
X27122Y-47949D01*
X27160Y-48054D01*
X27274Y-48110D01*
X27397Y-48142D01*
X27523Y-48150D01*
X27649Y-48133D01*
X27769Y-48092D01*
X27840Y-48054D01*
X27878Y-47949D01*
X27878Y-52175D01*
X25490Y-52175D01*
X25490Y-50696D01*
X25490Y-39305D01*
X21150Y-39305D01*
X21150Y-49341D01*
X21063Y-49544D01*
X21002Y-49832D01*
X20998Y-50126D01*
X21051Y-50415D01*
X21150Y-50666D01*
X21150Y-50696D01*
X21163Y-50696D01*
X21319Y-50936D01*
X21523Y-51148D01*
X21765Y-51316D01*
X22034Y-51433D01*
X22321Y-51497D01*
X22616Y-51503D01*
X22905Y-51452D01*
X23179Y-51345D01*
X23428Y-51188D01*
X23641Y-50985D01*
X23810Y-50745D01*
X23831Y-50696D01*
X25490Y-50696D01*
X25490Y-52175D01*
X21635Y-52175D01*
X20325Y-50865D01*
X20325Y-27325D01*
X26498Y-27325D01*
X26500Y-27325D01*
X26561Y-27319D01*
X26563Y-27319D01*
X26599Y-27307D01*
X26622Y-27301D01*
X26623Y-27300D01*
X26624Y-27300D01*
X26678Y-27272D01*
X26680Y-27271D01*
X26727Y-27232D01*
X26729Y-27231D01*
X26753Y-27200D01*
X26768Y-27184D01*
X26769Y-27182D01*
X26799Y-27128D01*
X26799Y-27127D01*
X26800Y-27126D01*
X26805Y-27109D01*
X26818Y-27068D01*
X26818Y-27065D01*
X26825Y-27005D01*
X26825Y-27002D01*
X26825Y-27000D01*
X26825Y-20325D01*
X50865Y-20325D01*
X52175Y-21635D01*
X52175Y-50865D01*
M02*
