M48
;DRILL file {Pcbnew (2012-01-19 BZR 3256)-stable} date 12/03/2013 15:56:26
;FORMAT={-:-/ absolute / inch / decimal}
FMAT,2
INCH,TZ
T1C0.024
T2C0.025
T3C0.032
T4C0.040
T5C0.050
T6C0.055
T7C0.060
T8C0.118
%
G90
G05
M72
T1
X3.075Y2.250
X3.075Y5.000
X4.175Y2.250
X4.175Y5.000
T2
X3.200Y2.525
X3.300Y4.700
X3.525Y2.500
X3.725Y4.700
X3.825Y4.800
X3.950Y2.500
T3
X3.650Y2.625
X3.650Y2.725
X3.950Y2.625
X3.950Y2.725
T4
X2.250Y3.650
X2.250Y3.750
X3.000Y4.350
X3.400Y4.350
X3.425Y2.200
X3.425Y2.300
X3.425Y4.950
X3.425Y5.050
X3.525Y2.200
X3.525Y2.300
X3.525Y4.950
X3.525Y5.050
X3.625Y2.200
X3.625Y2.300
X3.625Y4.950
X3.625Y5.050
X3.725Y2.200
X3.725Y2.300
X3.725Y4.950
X3.725Y5.050
X3.825Y2.200
X3.825Y2.300
X3.825Y4.950
X3.825Y5.050
X3.875Y3.025
X3.875Y4.225
X4.475Y3.025
X4.475Y4.225
X5.000Y2.925
X5.000Y3.025
X5.000Y3.125
X5.000Y3.225
X5.000Y3.325
X5.000Y3.425
X5.000Y3.675
X5.000Y3.775
X5.000Y3.875
X5.000Y3.975
X5.000Y4.075
X5.000Y4.175
T5
X2.750Y4.550
X2.750Y4.750
X3.050Y3.338
X3.050Y4.125
X3.150Y4.650
X3.350Y3.200
X3.350Y3.475
X3.350Y4.125
T6
X2.675Y2.900
X2.675Y3.100
X2.675Y3.500
X2.675Y3.700
T7
X2.250Y2.900
X2.250Y3.100
T8
X2.250Y5.000
X5.000Y2.250
X5.000Y5.000
T0
M30
